<?xml version="1.0" encoding="utf-8"?>
<svg viewBox="0 0 800 500" width="800px" height="500px" xmlns="http://www.w3.org/2000/svg">
  <g>
    <rect width="800" fill="#74acdf" height="500"/>
  </g>
  <g>
    <rect y="166.67" width="800" fill="#fff" height="166.67"/>
  </g>
  <g id="logo">
    <g id="rays">
      <path id="ray1" stroke-width="1.1116" stroke="#85340a" fill="#f6b40e" d="m396.84 251.31l28.454 61.992s0.4896 1.185 1.28 0.8586c0.7902-0.3267 0.2988-1.5116 0.2988-1.5116l-23.715-63.956m-0.68 24.12c-0.3465 9.4278 5.4526 14.613 4.6943 23.032-0.7569 8.42 3.8673 13.18 4.9396 16.454 1.0733 3.2744-1.16 5.2323-0.198 5.6982 0.96336 0.4662 3.07-2.1207 2.3833-6.7756-0.68675-4.6549-4.2204-6.0368-3.3898-16.32 0.83-10.283-4.206-12.678-2.98-22.058"/>
      <path stroke-width="1.1116" stroke="#85340a" fill="#f6b40e" d="m396.84 251.31l28.454 61.992s0.4896 1.185 1.28 0.8586c0.7902-0.3267 0.2988-1.5116 0.2988-1.5116l-23.715-63.956m-0.68 24.12c-0.3465 9.4278 5.4526 14.613 4.6943 23.032-0.7569 8.42 3.8673 13.18 4.9396 16.454 1.0733 3.2744-1.16 5.2323-0.198 5.6982 0.96336 0.4662 3.07-2.1207 2.3833-6.7756-0.68675-4.6549-4.2204-6.0368-3.3898-16.32 0.83-10.283-4.206-12.678-2.98-22.058" transform="matrix(0.9238795325112867, 0.3826834323650898, -0.3826834323650898, 0.9238795325112867, 126.11904508675775, -134.0432560738576)"/>
      <path stroke-width="1.1116" stroke="#85340a" fill="#f6b40e" d="m396.84 251.31l28.454 61.992s0.4896 1.185 1.28 0.8586c0.7902-0.3267 0.2988-1.5116 0.2988-1.5116l-23.715-63.956m-0.68 24.12c-0.3465 9.4278 5.4526 14.613 4.6943 23.032-0.7569 8.42 3.8673 13.18 4.9396 16.454 1.0733 3.2744-1.16 5.2323-0.198 5.6982 0.96336 0.4662 3.07-2.1207 2.3833-6.7756-0.68675-4.6549-4.2204-6.0368-3.3898-16.32 0.83-10.283-4.206-12.678-2.98-22.058" transform="matrix(0.7071067811865476, 0.7071067811865475, -0.7071067811865475, 0.7071067811865476, 293.9339828220178, -209.61940777125585)"/>
      <path stroke-width="1.1116" stroke="#85340a" fill="#f6b40e" d="m396.84 251.31l28.454 61.992s0.4896 1.185 1.28 0.8586c0.7902-0.3267 0.2988-1.5116 0.2988-1.5116l-23.715-63.956m-0.68 24.12c-0.3465 9.4278 5.4526 14.613 4.6943 23.032-0.7569 8.42 3.8673 13.18 4.9396 16.454 1.0733 3.2744-1.16 5.2323-0.198 5.6982 0.96336 0.4662 3.07-2.1207 2.3833-6.7756-0.68675-4.6549-4.2204-6.0368-3.3898-16.32 0.83-10.283-4.206-12.678-2.98-22.058" transform="matrix(0.38268343236508984, 0.9238795325112867, -0.9238795325112867, 0.38268343236508984, 477.89651018178574, -215.22267109578718)"/>
      <path id="ray2" fill="#85340a" d="m404.31 274.41c0.45334 9.0538 5.5867 13.063 4.5787 21.314 2.2133-6.5249-3.1233-11.583-2.82-21.22m-7.6487-23.757l19.487 42.577-16.329-43.887"/>
      <path fill="#85340a" d="m404.31 274.41c0.45334 9.0538 5.5867 13.063 4.5787 21.314 2.2133-6.5249-3.1233-11.583-2.82-21.22m-7.6487-23.757l19.487 42.577-16.329-43.887" transform="matrix(0.9238795325112867, 0.3826834323650898, -0.3826834323650898, 0.9238795325112867, 126.11904508675775, -134.0432560738576)"/>
      <path fill="#85340a" d="m404.31 274.41c0.45334 9.0538 5.5867 13.063 4.5787 21.314 2.2133-6.5249-3.1233-11.583-2.82-21.22m-7.6487-23.757l19.487 42.577-16.329-43.887" transform="matrix(0.7071067811865476, 0.7071067811865475, -0.7071067811865475, 0.7071067811865476, 293.9339828220178, -209.61940777125585)"/>
      <path fill="#85340a" d="m404.31 274.41c0.45334 9.0538 5.5867 13.063 4.5787 21.314 2.2133-6.5249-3.1233-11.583-2.82-21.22m-7.6487-23.757l19.487 42.577-16.329-43.887" transform="matrix(0.38268343236508984, 0.9238795325112867, -0.9238795325112867, 0.38268343236508984, 477.89651018178574, -215.22267109578718)"/>
    </g>
    <g transform="matrix(0, 1, -1, 0, 650, -150)">
      <path stroke-width="1.1116" stroke="#85340a" fill="#f6b40e" d="m396.84 251.31l28.454 61.992s0.4896 1.185 1.28 0.8586c0.7902-0.3267 0.2988-1.5116 0.2988-1.5116l-23.715-63.956m-0.68 24.12c-0.3465 9.4278 5.4526 14.613 4.6943 23.032-0.7569 8.42 3.8673 13.18 4.9396 16.454 1.0733 3.2744-1.16 5.2323-0.198 5.6982 0.96336 0.4662 3.07-2.1207 2.3833-6.7756-0.68675-4.6549-4.2204-6.0368-3.3898-16.32 0.83-10.283-4.206-12.678-2.98-22.058"/>
      <path stroke-width="1.1116" stroke="#85340a" fill="#f6b40e" d="m396.84 251.31l28.454 61.992s0.4896 1.185 1.28 0.8586c0.7902-0.3267 0.2988-1.5116 0.2988-1.5116l-23.715-63.956m-0.68 24.12c-0.3465 9.4278 5.4526 14.613 4.6943 23.032-0.7569 8.42 3.8673 13.18 4.9396 16.454 1.0733 3.2744-1.16 5.2323-0.198 5.6982 0.96336 0.4662 3.07-2.1207 2.3833-6.7756-0.68675-4.6549-4.2204-6.0368-3.3898-16.32 0.83-10.283-4.206-12.678-2.98-22.058" transform="matrix(0.9238795325112867, 0.3826834323650898, -0.3826834323650898, 0.9238795325112867, 126.11904508675775, -134.0432560738576)"/>
      <path stroke-width="1.1116" stroke="#85340a" fill="#f6b40e" d="m396.84 251.31l28.454 61.992s0.4896 1.185 1.28 0.8586c0.7902-0.3267 0.2988-1.5116 0.2988-1.5116l-23.715-63.956m-0.68 24.12c-0.3465 9.4278 5.4526 14.613 4.6943 23.032-0.7569 8.42 3.8673 13.18 4.9396 16.454 1.0733 3.2744-1.16 5.2323-0.198 5.6982 0.96336 0.4662 3.07-2.1207 2.3833-6.7756-0.68675-4.6549-4.2204-6.0368-3.3898-16.32 0.83-10.283-4.206-12.678-2.98-22.058" transform="matrix(0.7071067811865476, 0.7071067811865475, -0.7071067811865475, 0.7071067811865476, 293.9339828220178, -209.61940777125585)"/>
      <path stroke-width="1.1116" stroke="#85340a" fill="#f6b40e" d="m396.84 251.31l28.454 61.992s0.4896 1.185 1.28 0.8586c0.7902-0.3267 0.2988-1.5116 0.2988-1.5116l-23.715-63.956m-0.68 24.12c-0.3465 9.4278 5.4526 14.613 4.6943 23.032-0.7569 8.42 3.8673 13.18 4.9396 16.454 1.0733 3.2744-1.16 5.2323-0.198 5.6982 0.96336 0.4662 3.07-2.1207 2.3833-6.7756-0.68675-4.6549-4.2204-6.0368-3.3898-16.32 0.83-10.283-4.206-12.678-2.98-22.058" transform="matrix(0.38268343236508984, 0.9238795325112867, -0.9238795325112867, 0.38268343236508984, 477.89651018178574, -215.22267109578718)"/>
      <path fill="#85340a" d="m404.31 274.41c0.45334 9.0538 5.5867 13.063 4.5787 21.314 2.2133-6.5249-3.1233-11.583-2.82-21.22m-7.6487-23.757l19.487 42.577-16.329-43.887"/>
      <path fill="#85340a" d="m404.31 274.41c0.45334 9.0538 5.5867 13.063 4.5787 21.314 2.2133-6.5249-3.1233-11.583-2.82-21.22m-7.6487-23.757l19.487 42.577-16.329-43.887" transform="matrix(0.9238795325112867, 0.3826834323650898, -0.3826834323650898, 0.9238795325112867, 126.11904508675775, -134.0432560738576)"/>
      <path fill="#85340a" d="m404.31 274.41c0.45334 9.0538 5.5867 13.063 4.5787 21.314 2.2133-6.5249-3.1233-11.583-2.82-21.22m-7.6487-23.757l19.487 42.577-16.329-43.887" transform="matrix(0.7071067811865476, 0.7071067811865475, -0.7071067811865475, 0.7071067811865476, 293.9339828220178, -209.61940777125585)"/>
      <path fill="#85340a" d="m404.31 274.41c0.45334 9.0538 5.5867 13.063 4.5787 21.314 2.2133-6.5249-3.1233-11.583-2.82-21.22m-7.6487-23.757l19.487 42.577-16.329-43.887" transform="matrix(0.38268343236508984, 0.9238795325112867, -0.9238795325112867, 0.38268343236508984, 477.89651018178574, -215.22267109578718)"/>
    </g>
    <g transform="matrix(-1, 0, 0, -1, 800, 500)">
      <path stroke-width="1.1116" stroke="#85340a" fill="#f6b40e" d="m396.84 251.31l28.454 61.992s0.4896 1.185 1.28 0.8586c0.7902-0.3267 0.2988-1.5116 0.2988-1.5116l-23.715-63.956m-0.68 24.12c-0.3465 9.4278 5.4526 14.613 4.6943 23.032-0.7569 8.42 3.8673 13.18 4.9396 16.454 1.0733 3.2744-1.16 5.2323-0.198 5.6982 0.96336 0.4662 3.07-2.1207 2.3833-6.7756-0.68675-4.6549-4.2204-6.0368-3.3898-16.32 0.83-10.283-4.206-12.678-2.98-22.058"/>
      <path stroke-width="1.1116" stroke="#85340a" fill="#f6b40e" d="m396.84 251.31l28.454 61.992s0.4896 1.185 1.28 0.8586c0.7902-0.3267 0.2988-1.5116 0.2988-1.5116l-23.715-63.956m-0.68 24.12c-0.3465 9.4278 5.4526 14.613 4.6943 23.032-0.7569 8.42 3.8673 13.18 4.9396 16.454 1.0733 3.2744-1.16 5.2323-0.198 5.6982 0.96336 0.4662 3.07-2.1207 2.3833-6.7756-0.68675-4.6549-4.2204-6.0368-3.3898-16.32 0.83-10.283-4.206-12.678-2.98-22.058" transform="matrix(0.9238795325112867, 0.3826834323650898, -0.3826834323650898, 0.9238795325112867, 126.11904508675775, -134.0432560738576)"/>
      <path stroke-width="1.1116" stroke="#85340a" fill="#f6b40e" d="m396.84 251.31l28.454 61.992s0.4896 1.185 1.28 0.8586c0.7902-0.3267 0.2988-1.5116 0.2988-1.5116l-23.715-63.956m-0.68 24.12c-0.3465 9.4278 5.4526 14.613 4.6943 23.032-0.7569 8.42 3.8673 13.18 4.9396 16.454 1.0733 3.2744-1.16 5.2323-0.198 5.6982 0.96336 0.4662 3.07-2.1207 2.3833-6.7756-0.68675-4.6549-4.2204-6.0368-3.3898-16.32 0.83-10.283-4.206-12.678-2.98-22.058" transform="matrix(0.7071067811865476, 0.7071067811865475, -0.7071067811865475, 0.7071067811865476, 293.9339828220178, -209.61940777125585)"/>
      <path stroke-width="1.1116" stroke="#85340a" fill="#f6b40e" d="m396.84 251.31l28.454 61.992s0.4896 1.185 1.28 0.8586c0.7902-0.3267 0.2988-1.5116 0.2988-1.5116l-23.715-63.956m-0.68 24.12c-0.3465 9.4278 5.4526 14.613 4.6943 23.032-0.7569 8.42 3.8673 13.18 4.9396 16.454 1.0733 3.2744-1.16 5.2323-0.198 5.6982 0.96336 0.4662 3.07-2.1207 2.3833-6.7756-0.68675-4.6549-4.2204-6.0368-3.3898-16.32 0.83-10.283-4.206-12.678-2.98-22.058" transform="matrix(0.38268343236508984, 0.9238795325112867, -0.9238795325112867, 0.38268343236508984, 477.89651018178574, -215.22267109578718)"/>
      <path fill="#85340a" d="m404.31 274.41c0.45334 9.0538 5.5867 13.063 4.5787 21.314 2.2133-6.5249-3.1233-11.583-2.82-21.22m-7.6487-23.757l19.487 42.577-16.329-43.887"/>
      <path fill="#85340a" d="m404.31 274.41c0.45334 9.0538 5.5867 13.063 4.5787 21.314 2.2133-6.5249-3.1233-11.583-2.82-21.22m-7.6487-23.757l19.487 42.577-16.329-43.887" transform="matrix(0.9238795325112867, 0.3826834323650898, -0.3826834323650898, 0.9238795325112867, 126.11904508675775, -134.0432560738576)"/>
      <path fill="#85340a" d="m404.31 274.41c0.45334 9.0538 5.5867 13.063 4.5787 21.314 2.2133-6.5249-3.1233-11.583-2.82-21.22m-7.6487-23.757l19.487 42.577-16.329-43.887" transform="matrix(0.7071067811865476, 0.7071067811865475, -0.7071067811865475, 0.7071067811865476, 293.9339828220178, -209.61940777125585)"/>
      <path fill="#85340a" d="m404.31 274.41c0.45334 9.0538 5.5867 13.063 4.5787 21.314 2.2133-6.5249-3.1233-11.583-2.82-21.22m-7.6487-23.757l19.487 42.577-16.329-43.887" transform="matrix(0.38268343236508984, 0.9238795325112867, -0.9238795325112867, 0.38268343236508984, 477.89651018178574, -215.22267109578718)"/>
    </g>
    <g transform="matrix(0, -1, 1, 0, 150, 650)">
      <path stroke-width="1.1116" stroke="#85340a" fill="#f6b40e" d="m396.84 251.31l28.454 61.992s0.4896 1.185 1.28 0.8586c0.7902-0.3267 0.2988-1.5116 0.2988-1.5116l-23.715-63.956m-0.68 24.12c-0.3465 9.4278 5.4526 14.613 4.6943 23.032-0.7569 8.42 3.8673 13.18 4.9396 16.454 1.0733 3.2744-1.16 5.2323-0.198 5.6982 0.96336 0.4662 3.07-2.1207 2.3833-6.7756-0.68675-4.6549-4.2204-6.0368-3.3898-16.32 0.83-10.283-4.206-12.678-2.98-22.058"/>
      <path stroke-width="1.1116" stroke="#85340a" fill="#f6b40e" d="m396.84 251.31l28.454 61.992s0.4896 1.185 1.28 0.8586c0.7902-0.3267 0.2988-1.5116 0.2988-1.5116l-23.715-63.956m-0.68 24.12c-0.3465 9.4278 5.4526 14.613 4.6943 23.032-0.7569 8.42 3.8673 13.18 4.9396 16.454 1.0733 3.2744-1.16 5.2323-0.198 5.6982 0.96336 0.4662 3.07-2.1207 2.3833-6.7756-0.68675-4.6549-4.2204-6.0368-3.3898-16.32 0.83-10.283-4.206-12.678-2.98-22.058" transform="matrix(0.9238795325112867, 0.3826834323650898, -0.3826834323650898, 0.9238795325112867, 126.11904508675775, -134.0432560738576)"/>
      <path stroke-width="1.1116" stroke="#85340a" fill="#f6b40e" d="m396.84 251.31l28.454 61.992s0.4896 1.185 1.28 0.8586c0.7902-0.3267 0.2988-1.5116 0.2988-1.5116l-23.715-63.956m-0.68 24.12c-0.3465 9.4278 5.4526 14.613 4.6943 23.032-0.7569 8.42 3.8673 13.18 4.9396 16.454 1.0733 3.2744-1.16 5.2323-0.198 5.6982 0.96336 0.4662 3.07-2.1207 2.3833-6.7756-0.68675-4.6549-4.2204-6.0368-3.3898-16.32 0.83-10.283-4.206-12.678-2.98-22.058" transform="matrix(0.7071067811865476, 0.7071067811865475, -0.7071067811865475, 0.7071067811865476, 293.9339828220178, -209.61940777125585)"/>
      <path stroke-width="1.1116" stroke="#85340a" fill="#f6b40e" d="m396.84 251.31l28.454 61.992s0.4896 1.185 1.28 0.8586c0.7902-0.3267 0.2988-1.5116 0.2988-1.5116l-23.715-63.956m-0.68 24.12c-0.3465 9.4278 5.4526 14.613 4.6943 23.032-0.7569 8.42 3.8673 13.18 4.9396 16.454 1.0733 3.2744-1.16 5.2323-0.198 5.6982 0.96336 0.4662 3.07-2.1207 2.3833-6.7756-0.68675-4.6549-4.2204-6.0368-3.3898-16.32 0.83-10.283-4.206-12.678-2.98-22.058" transform="matrix(0.38268343236508984, 0.9238795325112867, -0.9238795325112867, 0.38268343236508984, 477.89651018178574, -215.22267109578718)"/>
      <path fill="#85340a" d="m404.31 274.41c0.45334 9.0538 5.5867 13.063 4.5787 21.314 2.2133-6.5249-3.1233-11.583-2.82-21.22m-7.6487-23.757l19.487 42.577-16.329-43.887"/>
      <path fill="#85340a" d="m404.31 274.41c0.45334 9.0538 5.5867 13.063 4.5787 21.314 2.2133-6.5249-3.1233-11.583-2.82-21.22m-7.6487-23.757l19.487 42.577-16.329-43.887" transform="matrix(0.9238795325112867, 0.3826834323650898, -0.3826834323650898, 0.9238795325112867, 126.11904508675775, -134.0432560738576)"/>
      <path fill="#85340a" d="m404.31 274.41c0.45334 9.0538 5.5867 13.063 4.5787 21.314 2.2133-6.5249-3.1233-11.583-2.82-21.22m-7.6487-23.757l19.487 42.577-16.329-43.887" transform="matrix(0.7071067811865476, 0.7071067811865475, -0.7071067811865475, 0.7071067811865476, 293.9339828220178, -209.61940777125585)"/>
      <path fill="#85340a" d="m404.31 274.41c0.45334 9.0538 5.5867 13.063 4.5787 21.314 2.2133-6.5249-3.1233-11.583-2.82-21.22m-7.6487-23.757l19.487 42.577-16.329-43.887" transform="matrix(0.38268343236508984, 0.9238795325112867, -0.9238795325112867, 0.38268343236508984, 477.89651018178574, -215.22267109578718)"/>
    </g>
    <circle r="27.778" stroke="#85340a" cy="250" cx="400" stroke-width="1.5" fill="#f6b40e"/>
    <path id="loweyecontour" fill="#843511" d="M 409.47 244.06 C 407.573 244.06 405.757 244.882 404.689 246.591 C 406.826 248.514 411.545 248.723 414.751 246.372 C 413.363 244.877 411.366 244.06 409.47 244.06 L 409.47 244.06 Z M 409.439 244.498 C 411.285 244.464 413.011 245.312 413.251 246.154 C 411.115 248.504 407.701 248.3 405.564 246.591 C 406.499 245.096 408.003 244.524 409.439 244.497 L 409.439 244.498 Z"/>
    <path fill="#85340a" d="M 409.364 246.382 C 412.14 246.382 412.782 245.74 414.064 244.672 C 415.348 243.603 415.988 243.818 416.201 243.603 C 416.413 243.389 416.201 242.749 415.774 242.964 C 415.348 243.178 414.491 243.603 413.211 244.672 C 411.928 245.742 410.648 245.74 409.365 245.74 C 405.519 245.74 403.382 242.536 402.955 242.75 C 402.529 242.964 405.092 246.382 409.365 246.382 L 409.364 246.382 Z" transform="matrix(-1, 0, 0, -1, 819.193054, 489.121735)"/>
    <path fill="#85340a" d="M 400.835 249.122 C 405.749 253.395 411.945 254.037 415.365 250.83 C 416.202 249.71 416.738 248.511 416.958 247.261 C 417.388 244.828 416.628 242.199 414.721 239.505 C 414.936 239.506 415.365 239.293 415.578 239.078 C 417.275 242.322 417.875 245.654 417.318 248.824 C 417.172 249.652 416.945 250.467 416.649 251.259 C 411.948 255.105 405.539 255.532 400.838 249.122 L 400.835 249.122 Z" transform="matrix(-1, 0, 0, -1, 818.35495, 493.141479)"/>
    <circle cy="246.15" cx="409.402" r="1.923" fill="#85340a"/>
    <path fill="#85340a" d="M 403.625 249.204 C 407.258 246.426 410.89 246.64 413.027 247.922 C 415.164 249.204 415.164 249.631 414.737 249.631 C 414.311 249.631 413.884 249.204 412.174 248.35 C 410.464 247.494 407.901 247.494 403.628 249.204 L 403.625 249.204 Z" transform="matrix(-1, 0, 0, -1, 818.585052, 496.644577)"/>
    <path d="M 395.75 253.84 C 394.837 254.007 394.188 254.817 394.188 255.746 C 394.188 256.808 395.065 257.652 396.125 257.652 C 396.752 257.652 397.328 257.356 397.688 256.84 C 398.427 257.396 399.452 257.455 400 257.465 C 400.084 257.467 400.193 257.465 400.25 257.465 C 400.798 257.455 401.823 257.396 402.563 256.84 C 402.923 257.356 403.498 257.652 404.125 257.652 C 405.185 257.652 406.063 256.808 406.063 255.746 C 406.063 254.817 405.413 254.007 404.5 253.84 C 405.013 254.021 405.344 254.516 405.344 255.059 C 405.344 255.766 404.773 256.34 404.063 256.34 C 403.382 256.34 402.821 255.8 402.781 255.121 C 402.573 255.538 401.747 256.776 400.125 256.84 C 398.503 256.776 397.678 255.538 397.469 255.121 C 397.429 255.8 396.868 256.34 396.188 256.34 C 395.478 256.34 394.907 255.766 394.907 255.059 C 394.907 254.517 395.237 254.021 395.75 253.84 L 395.75 253.84 Z" fill="#85340a"/>
    <path d="M 397.84 259.53 C 395.702 259.53 394.857 261.467 392.934 262.749 C 394.002 262.322 394.843 261.479 396.34 260.624 C 397.836 259.769 399.112 260.811 399.965 260.811 L 399.996 260.811 C 400.849 260.811 402.125 259.77 403.621 260.624 C 405.118 261.48 405.99 262.322 407.059 262.749 C 405.135 261.467 404.259 259.53 402.121 259.53 C 401.695 259.53 400.85 259.761 399.996 260.186 L 399.965 260.186 C 399.112 259.76 398.267 259.53 397.84 259.53 Z" fill="#85340a"/>
    <path d="M 397.12 262.06 C 396.276 262.097 395.16 262.267 393.558 262.748 C 397.405 261.893 398.254 263.185 399.964 263.185 L 399.995 263.185 C 401.705 263.185 402.554 261.893 406.401 262.748 C 402.127 261.466 401.277 262.31 399.995 262.31 L 399.964 262.31 C 399.162 262.31 398.527 261.998 397.12 262.06 L 397.12 262.06 Z" fill="#85340a"/>
    <path d="M 393.75 262.72 C 393.502 262.723 393.231 262.725 392.938 262.751 C 397.426 263.179 395.268 265.751 399.969 265.751 L 400 265.751 C 404.701 265.751 402.574 263.179 407.062 262.751 C 402.362 262.325 403.848 265.095 400 265.095 L 399.969 265.095 C 396.361 265.095 397.473 262.674 393.75 262.72 L 393.75 262.72 Z" fill="#85340a"/>
    <path d="M 403.85 269.66 C 403.85 267.537 402.127 265.814 400.004 265.814 C 397.88 265.814 396.157 267.537 396.157 269.66 C 396.58 267.879 398.174 266.621 400.004 266.621 C 401.837 266.621 403.428 267.879 403.85 269.66 Z" fill="#85340a"/>
    <path id="eyebrow_nose" fill="#85340a" d="M 382.73 244.02 C 387.645 239.747 393.84 239.105 397.26 242.311 C 398.097 243.432 398.633 244.63 398.853 245.881 C 399.284 248.314 398.523 250.943 396.617 253.637 C 396.832 253.636 397.26 253.849 397.474 254.064 C 399.17 250.82 399.77 247.487 399.214 244.318 C 399.068 243.49 398.84 242.675 398.544 241.882 C 393.843 238.037 387.434 237.61 382.733 244.02 L 382.73 244.02 Z"/>
    <path id="uppalpebra" fill="#85340a" d="M 390.42 242.74 C 393.197 242.74 393.839 243.382 395.121 244.45 C 396.404 245.518 397.044 245.304 397.257 245.518 C 397.47 245.733 397.257 246.372 396.831 246.158 C 396.404 245.944 395.548 245.518 394.268 244.45 C 392.984 243.38 391.704 243.381 390.421 243.381 C 386.575 243.381 384.438 246.586 384.012 246.372 C 383.585 246.158 386.149 242.74 390.421 242.74 L 390.42 242.74 Z"/>
    <path fill="#843511" d="M 390.289 244.06 C 388.392 244.06 386.576 244.882 385.508 246.591 C 387.645 248.514 392.364 248.723 395.57 246.372 C 394.182 244.877 392.185 244.06 390.289 244.06 L 390.289 244.06 Z M 390.258 244.498 C 392.104 244.464 393.83 245.312 394.07 246.154 C 391.934 248.504 388.52 248.3 386.383 246.591 C 387.318 245.096 388.822 244.524 390.258 244.497 L 390.258 244.498 Z"/>
    <circle id="pupil" cy="246.15" cx="390.54" r="1.923" fill="#85340a"/>
    <path id="lowpalpebra" fill="#85340a" d="M 385.29 247.44 C 388.923 250.218 392.555 250.004 394.692 248.722 C 396.828 247.44 396.828 247.013 396.402 247.013 C 395.975 247.013 395.549 247.44 393.838 248.294 C 392.128 249.15 389.565 249.15 385.292 247.44 L 385.29 247.44 Z"/>
  </g>
</svg>
