<?xml version="1.0" encoding="utf-8"?>
<svg id="svg378" height="210mm" width="300mm" version="1" y="0" x="0" xmlns="http://www.w3.org/2000/svg">
  <g>
    <rect id="rect552" fill-rule="evenodd" height="744.091" width="1062.994" fill="#229e45" stroke-width="1pt"/>
  </g>
  <g>
    <path id="path554" d="M 531.49 662.274 L 978.082 372.419 L 528.814 81.792 L 80.735 373.115 L 531.49 662.274 Z" fill="#f8e509" fill-rule="evenodd" stroke-width="1pt"/>
  </g>
  <g id="logo">
    <path id="path557" d="M 726.069 372.051 C 727.553 226.853 571.05 134.501 444.365 205.817 C 384.368 239.591 347.535 303.288 348.238 372.051 C 346.754 517.249 503.257 609.601 629.942 538.285 C 689.938 504.511 726.772 440.814 726.069 372.051 L 537.153 372.051 L 726.069 372.051 Z" fill="#2b49a3" fill-rule="evenodd" stroke-width="1pt"/>
    <polygon id="polygon559" points="475.035 485.031 469.198 481.662 463.135 484.662 464.493 477.924 459.81 472.986 466.506 472.202 469.651 466.159 472.456 472.409 479.062 473.609 474.108 478.247" fill="#ffffef" fill-rule="evenodd" stroke-width="1pt"/>
    <polygon id="polygon560" points="601.651 517.091 595.814 513.722 589.751 516.722 591.109 509.984 586.426 505.046 593.122 504.262 596.267 498.219 599.072 504.469 605.678 505.669 600.724 510.307" fill="#ffffef" fill-rule="evenodd" stroke-width="1pt"/>
    <polygon id="polygon561" points="547.111 465.889 542.069 462.979 536.831 465.57 538.004 459.75 533.958 455.484 539.743 454.806 542.46 449.585 544.883 454.985 550.591 456.022 546.31 460.029" fill="#ffffef" fill-rule="evenodd" stroke-width="1pt"/>
    <polygon id="polygon562" points="674.955 447.461 670.005 444.603 664.862 447.147 666.013 441.433 662.041 437.245 667.721 436.579 670.388 431.453 672.768 436.755 678.371 437.773 674.169 441.707" fill="#ffffef" fill-rule="evenodd" stroke-width="1pt"/>
    <polygon id="polygon563" points="544.767 409.131 538.93 405.762 532.867 408.762 534.225 402.024 529.542 397.086 536.238 396.302 539.383 390.259 542.188 396.509 548.794 397.709 543.84 402.347" fill="#ffffef" fill-rule="evenodd" stroke-width="1pt"/>
    <polygon id="polygon564" points="388.876 350.601 383.039 347.232 376.976 350.232 378.334 343.494 373.651 338.556 380.347 337.772 383.492 331.729 386.297 337.979 392.903 339.179 387.949 343.817" fill="#ffffef" fill-rule="evenodd" stroke-width="1pt"/>
    <polygon id="polygon565" points="407.616 428.451 401.779 425.082 395.716 428.082 397.074 421.344 392.391 416.406 399.087 415.622 402.232 409.579 405.037 415.829 411.643 417.029 406.689 421.667" fill="#ffffef" fill-rule="evenodd" stroke-width="1pt"/>
    <polygon id="polygon566" points="602.164 321.933 597.008 318.958 591.653 321.607 592.852 315.656 588.715 311.294 594.63 310.601 597.408 305.263 599.886 310.784 605.721 311.844 601.345 315.941" fill="#ffffef" fill-rule="evenodd" stroke-width="1pt"/>
    <polygon id="polygon567" points="591.469 372.589 587.408 370.245 583.19 372.332 584.135 367.644 580.877 364.209 585.536 363.663 587.723 359.459 589.675 363.808 594.271 364.642 590.824 367.869" fill="#ffffef" fill-rule="evenodd" stroke-width="1pt"/>
    <polygon id="polygon568" points="380.193 442.551 376.296 440.302 372.248 442.305 373.154 437.806 370.028 434.51 374.499 433.986 376.598 429.951 378.471 434.125 382.881 434.926 379.574 438.022" fill="#ffffef" fill-rule="evenodd" stroke-width="1pt"/>
    <polygon id="polygon569" points="676.037 460.491 672.862 458.809 669.563 460.307 670.302 456.942 667.754 454.475 671.397 454.083 673.108 451.065 674.634 454.187 678.228 454.786 675.532 457.103" fill="#ffffef" fill-rule="evenodd" stroke-width="1pt"/>
    <polygon id="polygon570" points="380.193 442.551 376.296 440.302 372.248 442.305 373.154 437.806 370.028 434.51 374.499 433.986 376.598 429.951 378.471 434.125 382.881 434.926 379.574 438.022" fill="#ffffef" fill-rule="evenodd" stroke-width="1pt"/>
    <polygon id="polygon571" points="380.193 442.551 376.296 440.302 372.248 442.305 373.154 437.806 370.028 434.51 374.499 433.986 376.598 429.951 378.471 434.125 382.881 434.926 379.574 438.022" fill="#ffffef" fill-rule="evenodd" stroke-width="1pt"/>
    <polygon id="polygon572" points="442.231 442.551 438.334 440.302 434.286 442.305 435.192 437.806 432.066 434.51 436.537 433.986 438.636 429.951 440.509 434.125 444.919 434.926 441.612 438.022" fill="#ffffef" fill-rule="evenodd" stroke-width="1pt"/>
    <polygon id="polygon573" points="434.522 463.191 430.625 460.942 426.577 462.945 427.483 458.446 424.357 455.15 428.828 454.626 430.927 450.591 432.8 454.765 437.21 455.566 433.903 458.662" fill="#ffffef" fill-rule="evenodd" stroke-width="1pt"/>
    <polygon id="polygon574" points="563.337 425.611 559.44 423.362 555.392 425.365 556.298 420.866 553.172 417.57 557.643 417.046 559.742 413.011 561.615 417.185 566.025 417.986 562.718 421.082" fill="#ffffef" fill-rule="evenodd" stroke-width="1pt"/>
    <polygon id="polygon575" points="525.537 425.601 521.64 423.352 517.592 425.355 518.498 420.856 515.372 417.56 519.843 417.036 521.942 413.001 523.815 417.175 528.225 417.976 524.918 421.072" fill="#ffffef" fill-rule="evenodd" stroke-width="1pt"/>
    <polygon id="polygon576" points="423.016 412.426 420.574 411.016 418.038 412.271 418.606 409.452 416.647 407.387 419.448 407.059 420.764 404.53 421.937 407.145 424.701 407.647 422.628 409.588" fill="#ffffef" fill-rule="evenodd" stroke-width="1pt"/>
    <polygon id="polygon577" points="671.237 476.821 667.34 474.572 663.292 476.575 664.198 472.076 661.072 468.78 665.543 468.256 667.642 464.221 669.515 468.395 673.925 469.196 670.618 472.292" fill="#ffffef" fill-rule="evenodd" stroke-width="1pt"/>
    <polygon id="polygon578" points="639.769 480.945 636.541 479.077 633.188 480.74 633.939 477.005 631.349 474.267 635.052 473.832 636.791 470.482 638.343 473.947 641.996 474.612 639.256 477.184" fill="#ffffef" fill-rule="evenodd" stroke-width="1pt"/>
    <polygon id="polygon579" points="654.608 480.586 651.601 478.849 648.478 480.396 649.177 476.922 646.765 474.376 650.214 473.972 651.834 470.856 653.279 474.079 656.682 474.698 654.13 477.089" fill="#ffffef" fill-rule="evenodd" stroke-width="1pt"/>
    <polygon id="polygon580" points="697.253 443.361 694.358 441.69 691.349 443.178 692.023 439.836 689.7 437.386 693.022 436.997 694.582 433.999 695.974 437.1 699.251 437.695 696.793 439.996" fill="#ffffef" fill-rule="evenodd" stroke-width="1pt"/>
    <polygon id="polygon581" points="639.384 501.949 635.602 499.884 631.674 501.723 632.553 497.594 629.519 494.568 633.858 494.087 635.895 490.384 637.713 494.215 641.993 494.95 638.783 497.792" fill="#ffffef" fill-rule="evenodd" stroke-width="1pt"/>
    <polygon id="polygon582" points="639.608 518.899 636.159 516.834 632.575 518.673 633.378 514.544 630.61 511.518 634.567 511.037 636.426 507.334 638.084 511.165 641.988 511.9 639.06 514.742" fill="#ffffef" fill-rule="evenodd" stroke-width="1pt"/>
    <polygon id="polygon583" points="611.023 480.571 608.128 478.9 605.119 480.388 605.793 477.046 603.47 474.596 606.792 474.207 608.352 471.209 609.744 474.31 613.021 474.905 610.563 477.206" fill="#ffffef" fill-rule="evenodd" stroke-width="1pt"/>
    <polygon id="polygon584" points="584.223 480.581 581.328 478.91 578.319 480.398 578.993 477.056 576.67 474.606 579.992 474.217 581.552 471.219 582.944 474.32 586.221 474.915 583.763 477.216" fill="#ffffef" fill-rule="evenodd" stroke-width="1pt"/>
    <polygon id="polygon585" points="538.713 440.781 535.818 439.11 532.809 440.598 533.483 437.256 531.16 434.806 534.482 434.417 536.042 431.419 537.434 434.52 540.711 435.115 538.253 437.416" fill="#ffffef" fill-rule="evenodd" stroke-width="1pt"/>
    <polygon id="polygon586" points="543.778 521.888 541.326 520.472 538.778 521.732 539.348 518.901 537.38 516.826 540.194 516.497 541.516 513.957 542.695 516.584 545.471 517.088 543.389 519.037" fill="#ffffef" fill-rule="evenodd" stroke-width="1pt"/>
    <polygon id="polygon587" points="475.037 390.711 469.2 387.342 463.137 390.342 464.495 383.604 459.812 378.666 466.508 377.882 469.653 371.839 472.458 378.089 479.064 379.289 474.11 383.927" fill="#ffffef" fill-rule="evenodd" stroke-width="1pt"/>
    <path id="path726" d="M 713.64 439.907 C 716.515 432.37 720.232 421.026 722.214 410.603 C 621.859 322.443 510.007 277.293 368.642 286.596 C 363.563 296.298 359.524 306.472 356.104 317.468 C 523.586 301.497 646.341 375.653 713.64 439.907 Z" stroke-opacity=".50314" fill-rule="evenodd" fill="#fff" stroke-width="1pt"/>
    <path id="path790" d="M 668.543 390.354 L 672.111 392.295 C 671.566 393.563 671.417 394.683 671.665 395.628 C 671.913 396.598 672.582 397.419 673.647 398.14 C 674.737 398.887 675.753 399.235 676.621 399.136 C 677.513 399.061 678.182 398.688 678.603 398.066 C 678.876 397.643 678.975 397.22 678.925 396.772 C 678.9 396.325 678.652 395.802 678.206 395.18 C 677.884 394.757 677.141 393.887 675.927 392.543 C 674.391 390.827 673.474 389.384 673.176 388.19 C 672.755 386.548 673.003 385.031 673.944 383.663 C 674.514 382.792 675.332 382.145 676.323 381.722 C 677.339 381.299 678.454 381.2 679.644 381.424 C 680.833 381.648 682.097 382.22 683.41 383.115 C 685.566 384.583 686.879 386.15 687.3 387.842 C 687.771 389.509 687.474 391.175 686.483 392.792 L 682.914 390.578 C 683.361 389.608 683.46 388.762 683.237 388.041 C 683.014 387.319 682.419 386.623 681.453 385.976 C 680.437 385.28 679.52 384.956 678.677 384.981 C 678.107 385.006 677.711 385.23 677.389 385.678 C 677.116 386.1 677.067 386.548 677.215 387.071 C 677.389 387.742 678.206 388.837 679.619 390.379 C 681.031 391.921 681.998 393.19 682.493 394.16 C 683.038 395.13 683.261 396.15 683.212 397.195 C 683.187 398.24 682.791 399.31 682.072 400.404 C 681.403 401.374 680.511 402.121 679.371 402.618 C 678.256 403.091 677.067 403.215 675.778 402.966 C 674.49 402.693 673.102 402.071 671.615 401.051 C 669.459 399.583 668.121 397.941 667.651 396.15 C 667.155 394.359 667.452 392.419 668.543 390.354 Z" fill="#309e3a" stroke-opacity=".50196" stroke-width="1pt"/>
    <path id="path791" d="M 651.544 379.185 L 655.187 381.001 C 654.691 382.27 654.567 383.414 654.865 384.334 C 655.187 385.28 655.856 386.1 656.946 386.747 C 658.086 387.469 659.102 387.767 659.969 387.643 C 660.861 387.518 661.505 387.12 661.902 386.474 C 662.15 386.051 662.249 385.628 662.174 385.18 C 662.125 384.732 661.852 384.21 661.382 383.613 C 661.059 383.215 660.266 382.369 659.028 381.076 C 657.417 379.434 656.426 378.016 656.079 376.847 C 655.608 375.205 655.806 373.687 656.649 372.294 C 657.219 371.399 657.987 370.702 658.978 370.254 C 659.969 369.782 661.059 369.633 662.274 369.807 C 663.488 370.006 664.776 370.528 666.114 371.349 C 668.32 372.717 669.682 374.26 670.203 375.901 C 670.723 377.568 670.5 379.235 669.559 380.901 L 665.916 378.837 C 666.313 377.842 666.387 376.996 666.139 376.274 C 665.891 375.578 665.272 374.906 664.256 374.284 C 663.24 373.638 662.298 373.364 661.456 373.414 C 660.911 373.463 660.489 373.712 660.217 374.16 C 659.944 374.583 659.895 375.056 660.068 375.553 C 660.291 376.225 661.134 377.294 662.596 378.762 C 664.082 380.255 665.098 381.474 665.644 382.419 C 666.213 383.364 666.486 384.384 666.486 385.429 C 666.486 386.474 666.139 387.543 665.47 388.688 C 664.826 389.683 663.959 390.454 662.868 391.001 C 661.753 391.523 660.564 391.698 659.275 391.499 C 657.987 391.275 656.574 390.703 655.063 389.757 C 652.833 388.364 651.445 386.797 650.875 385.031 C 650.33 383.24 650.553 381.299 651.544 379.185 Z" fill="#309e3a" stroke-opacity=".50196" stroke-width="1pt"/>
    <path id="path792" d="M 630.482 373.538 L 641.261 355.826 L 654.369 363.836 L 652.535 366.846 L 643.02 361.001 L 640.617 364.931 L 649.488 370.379 L 647.679 373.364 L 638.808 367.916 L 635.884 372.742 L 645.746 378.787 L 643.912 381.772 L 630.482 373.538 Z" fill="#309e3a" stroke-opacity=".50196" stroke-width="1pt"/>
    <path id="path795" d="M 599.855 348.388 L 601.441 345.254 L 609.445 349.408 L 605.678 356.747 C 604.514 357.12 603.027 357.195 601.243 356.996 C 599.484 356.821 597.848 356.324 596.337 355.553 C 594.429 354.558 592.942 353.289 591.926 351.747 C 590.935 350.18 590.439 348.463 590.489 346.597 C 590.538 344.707 591.034 342.891 591.926 341.125 C 592.917 339.184 594.206 337.692 595.767 336.622 C 597.328 335.528 599.112 335.005 601.069 335.005 C 602.556 335.005 604.167 335.453 605.926 336.348 C 608.231 337.543 609.767 338.936 610.535 340.577 C 611.328 342.194 611.477 343.936 610.981 345.826 L 606.942 344.607 C 607.14 343.587 607.016 342.617 606.57 341.722 C 606.124 340.826 605.381 340.105 604.315 339.533 C 602.68 338.712 601.119 338.538 599.632 339.085 C 598.146 339.632 596.882 340.901 595.841 342.941 C 594.726 345.13 594.354 347.02 594.751 348.637 C 595.172 350.229 596.163 351.423 597.749 352.244 C 598.517 352.642 599.36 352.891 600.301 352.991 C 601.243 353.09 602.11 353.065 602.903 352.916 L 604.092 350.578 L 599.855 348.388 Z" fill="#309e3a" stroke-opacity=".50196" stroke-width="1pt"/>
    <path id="path804" d="M 466.148 315.229 L 469.171 294.681 L 475.366 295.602 L 477.026 310.154 L 482.725 296.696 L 488.944 297.592 L 485.921 318.139 L 482.081 317.592 L 484.459 301.398 L 478.017 316.97 L 474.052 316.398 L 472.367 299.632 L 469.989 315.801 L 466.148 315.229 Z" fill="#309e3a" stroke-opacity=".50196" stroke-width="1pt"/>
    <path id="path805" d="M 445.259 312.791 L 447.192 292.119 L 462.456 293.562 L 462.134 297.069 L 451.033 296.024 L 450.587 300.602 L 460.944 301.572 L 460.622 305.054 L 450.264 304.084 L 449.744 309.706 L 461.242 310.801 L 460.919 314.283 L 445.259 312.791 Z" fill="#309e3a" stroke-opacity=".50196" stroke-width="1pt"/>
    <g id="g812" stroke-opacity=".50196" transform="matrix(2.0303, -1.2996, 1.2945, 2.0383, -138.139999, 186.160004)" stroke-width="1pt">
      <path id="path810" d="m154.79 154.48c0.49-0.73 1.01-1.26 1.56-1.61 0.41-0.25 0.85-0.43 1.32-0.53 0.48-0.09 0.93-0.1 1.36-0.01 0.57 0.11 1.14 0.36 1.72 0.75 1.05 0.71 1.67 1.6 1.85 2.68 0.2 1.08-0.1 2.2-0.88 3.35s-1.7 1.84-2.77 2.07c-1.06 0.22-2.11-0.02-3.16-0.73s-1.68-1.6-1.87-2.67c-0.18-1.07 0.11-2.17 0.87-3.3z" fill="#309e3a"/>
      <path id="path811" d="m156.31 155.43c-0.55 0.81-0.78 1.54-0.69 2.21s0.43 1.2 1 1.58c0.57 0.39 1.18 0.5 1.82 0.34 0.65-0.17 1.26-0.66 1.82-1.49 0.55-0.81 0.78-1.54 0.69-2.19-0.08-0.64-0.42-1.16-1.01-1.56-0.6-0.4-1.21-0.52-1.85-0.36s-1.23 0.65-1.78 1.47z" fill="#f7ffff"/>
    </g>
    <g id="g815" stroke-opacity=".50196" transform="matrix(2.01, -1.3311, 1.3259, 2.0178, -138.529999, 194.410004)" stroke-width="1pt">
      <path id="path808" d="m160.44 163.42l4.82-7.11 3.02 2.04c0.76 0.52 1.27 0.95 1.52 1.32 0.26 0.36 0.39 0.77 0.37 1.24-0.01 0.47-0.16 0.91-0.45 1.33-0.36 0.53-0.81 0.87-1.36 1-0.55 0.14-1.17 0.04-1.85-0.29 0.19 0.39 0.31 0.76 0.36 1.11 0.06 0.36 0.07 0.93 0.04 1.71l-0.07 1.98-1.72-1.16 0.01-2.25c0.01-0.81-0.01-1.32-0.05-1.56s-0.12-0.43-0.23-0.59c-0.12-0.15-0.34-0.35-0.67-0.57l-0.29-0.2-2.01 2.97-1.44-0.97z" fill="#309e3a"/>
      <path id="path809" d="m164.66 160.29l1.06 0.72c0.69 0.46 1.14 0.73 1.35 0.78 0.21 0.06 0.41 0.05 0.61-0.03 0.19-0.07 0.36-0.22 0.5-0.43 0.16-0.24 0.23-0.48 0.2-0.71s-0.14-0.45-0.35-0.64c-0.11-0.1-0.45-0.34-1.03-0.74l-1.12-0.76-1.22 1.81z" fill="#fff"/>
    </g>
    <g id="g818" stroke-opacity=".50196" transform="matrix(2.0601, -1.2515, 1.2466, 2.0682, -131.839996, 173.330002)" stroke-width="1pt">
      <path id="path806" d="m172.42 161.16l2.63 1.77c0.59 0.4 1.01 0.75 1.26 1.05 0.33 0.41 0.55 0.87 0.63 1.39 0.09 0.51 0.05 1.05-0.1 1.61s-0.45 1.17-0.9 1.84c-0.4 0.58-0.82 1.04-1.25 1.36-0.53 0.4-1.06 0.65-1.61 0.74-0.41 0.08-0.88 0.04-1.39-0.11-0.39-0.11-0.85-0.35-1.38-0.71l-2.7-1.83 4.81-7.11z" fill="#309e3a"/>
      <path id="path807" d="m173.05 163.33l-3.19 4.71 1.07 0.73c0.4 0.27 0.71 0.45 0.91 0.52 0.28 0.1 0.54 0.13 0.78 0.09 0.25-0.03 0.53-0.17 0.84-0.42 0.32-0.26 0.66-0.66 1.03-1.21s0.61-1.01 0.71-1.37c0.11-0.36 0.13-0.68 0.06-0.96-0.06-0.28-0.21-0.54-0.44-0.78-0.16-0.19-0.54-0.48-1.13-0.87l-0.64-0.44z" fill="#fff"/>
    </g>
    <g id="g824" stroke-opacity=".50196" transform="matrix(2.2543, -0.84957, 0.84625, 2.2631, -87.998001, 66.935997)" stroke-width="1pt">
      <path id="path800" d="m200.75 190.69l4.81-7.11 2.31 1.56c0.87 0.59 1.42 1.01 1.64 1.26 0.33 0.38 0.52 0.85 0.55 1.39s-0.14 1.1-0.53 1.66c-0.29 0.44-0.62 0.75-0.98 0.95-0.36 0.19-0.72 0.28-1.08 0.29-0.36 0-0.68-0.05-0.97-0.17-0.39-0.16-0.91-0.46-1.56-0.9l-0.94-0.64-1.81 2.68-1.44-0.97z" fill="#309e3a"/>
      <path id="path801" d="m206.19 185.75l-1.37 2.02 0.79 0.53c0.57 0.39 0.97 0.61 1.21 0.66 0.24 0.06 0.47 0.04 0.68-0.05 0.22-0.08 0.4-0.23 0.54-0.44 0.18-0.26 0.24-0.52 0.21-0.79-0.04-0.27-0.16-0.51-0.37-0.71-0.15-0.15-0.48-0.4-1-0.75l-0.69-0.47z" fill="#fff"/>
    </g>
    <g id="g827" stroke-opacity=".50196" transform="matrix(2.3294, -0.61208, 0.60969, 2.3386, -56.959999, 4.1977)" stroke-width="1pt">
      <path id="path798" d="m207.39 195.18l4.81-7.11 3.02 2.04c0.76 0.52 1.27 0.95 1.53 1.32 0.26 0.36 0.38 0.77 0.37 1.24-0.02 0.46-0.17 0.91-0.45 1.33-0.36 0.53-0.82 0.87-1.37 1-0.55 0.14-1.16 0.04-1.85-0.29 0.19 0.39 0.31 0.76 0.36 1.11 0.06 0.36 0.07 0.93 0.04 1.71l-0.07 1.98-1.72-1.16 0.01-2.25c0.01-0.81-0.01-1.32-0.05-1.56s-0.11-0.43-0.23-0.59c-0.11-0.16-0.34-0.35-0.67-0.57l-0.29-0.2-2.01 2.97-1.43-0.97z" fill="#309e3a"/>
      <path id="path799" d="m211.6 192.05l1.06 0.72c0.69 0.46 1.14 0.73 1.35 0.78 0.21 0.06 0.42 0.05 0.61-0.03 0.19-0.07 0.36-0.22 0.51-0.43 0.16-0.24 0.22-0.48 0.19-0.71-0.02-0.23-0.14-0.45-0.34-0.65-0.11-0.09-0.46-0.33-1.04-0.73l-1.12-0.76-1.22 1.81z" fill="#fff"/>
    </g>
    <g id="g830" stroke-opacity=".50196" transform="matrix(2.3055, -0.69754, 0.69482, 2.3145, -66.450996, 29.667999)" stroke-width="1pt">
      <path id="path796" d="m216.64 196.32c0.5-0.72 1.02-1.26 1.56-1.6 0.41-0.25 0.85-0.43 1.32-0.53 0.48-0.1 0.93-0.1 1.36-0.02 0.57 0.11 1.14 0.37 1.72 0.76 1.05 0.71 1.67 1.6 1.86 2.67 0.19 1.08-0.11 2.2-0.89 3.36-0.78 1.15-1.7 1.84-2.76 2.06-1.07 0.23-2.12-0.01-3.16-0.72-1.06-0.72-1.69-1.61-1.87-2.67-0.19-1.07 0.1-2.17 0.86-3.31z" fill="#309e3a"/>
      <path id="path797" d="m218.16 197.28c-0.55 0.8-0.78 1.54-0.68 2.21 0.09 0.66 0.42 1.19 0.99 1.58s1.18 0.5 1.83 0.33c0.64-0.16 1.25-0.66 1.81-1.48 0.55-0.82 0.78-1.54 0.69-2.19-0.08-0.64-0.42-1.16-1.01-1.56s-1.21-0.52-1.85-0.36c-0.63 0.16-1.23 0.65-1.78 1.47z" fill="#fff"/>
    </g>
    <g id="g833" stroke-opacity=".50196" transform="matrix(2.3913, -0.28318, 0.28207, 2.4007, 0.41501, -78.357002)" stroke-width="1pt">
      <path id="path793" d="m230.03 210.5l4.81-7.12 3.02 2.05c0.76 0.51 1.27 0.95 1.53 1.31s0.38 0.78 0.37 1.24c-0.02 0.47-0.17 0.91-0.45 1.34-0.36 0.53-0.82 0.86-1.37 1s-1.16 0.04-1.85-0.3c0.19 0.4 0.31 0.77 0.36 1.12 0.06 0.36 0.07 0.92 0.04 1.71l-0.07 1.97-1.72-1.16 0.01-2.25c0.01-0.8-0.01-1.32-0.05-1.55-0.04-0.24-0.11-0.44-0.23-0.59-0.11-0.16-0.34-0.35-0.67-0.57l-0.29-0.2-2.01 2.97-1.43-0.97z" fill="#309e3a"/>
      <path id="path794" d="m234.24 207.36l1.06 0.72c0.69 0.47 1.14 0.73 1.35 0.79s0.42 0.05 0.61-0.03 0.36-0.22 0.51-0.44c0.16-0.23 0.22-0.47 0.19-0.7-0.02-0.24-0.14-0.45-0.34-0.65-0.11-0.09-0.46-0.34-1.04-0.73l-1.12-0.76-1.22 1.8z" fill="#fff"/>
    </g>
    <g id="g836" stroke-opacity=".50196" transform="matrix(2.4079, 0, 0, 2.4173, 62.557999, -144.380005)" stroke-width="1pt">
      <path id="path788" d="m259.17 225.1c0.49-0.73 1.01-1.26 1.56-1.61 0.41-0.25 0.85-0.43 1.32-0.53 0.48-0.1 0.93-0.1 1.36-0.02 0.57 0.12 1.14 0.37 1.72 0.76 1.05 0.71 1.67 1.6 1.86 2.68 0.19 1.07-0.11 2.19-0.89 3.35-0.78 1.15-1.7 1.84-2.76 2.07-1.07 0.22-2.12-0.02-3.17-0.73s-1.68-1.61-1.87-2.67c-0.18-1.07 0.11-2.17 0.87-3.3z" fill="#309e3a"/>
      <path id="path789" d="m260.69 226.05c-0.55 0.8-0.78 1.54-0.69 2.21 0.1 0.67 0.43 1.19 1 1.58s1.18 0.5 1.82 0.34c0.65-0.17 1.26-0.66 1.82-1.49 0.55-0.81 0.78-1.54 0.69-2.19-0.09-0.64-0.42-1.16-1.01-1.56-0.6-0.4-1.21-0.52-1.85-0.36s-1.23 0.65-1.78 1.47z" fill="#fff"/>
    </g>
    <path id="path872" d="M 502.499 319.483 L 505.819 304.905 L 516.598 307.393 L 516.028 309.856 L 508.198 308.04 L 507.454 311.273 L 514.739 312.965 L 514.169 315.403 L 506.884 313.736 L 505.992 317.691 L 514.095 319.582 L 513.525 322.02 L 502.499 319.483 Z" fill="#309e3a" stroke-opacity=".50196" stroke-width="1pt"/>
  </g>
</svg>
