<?xml version="1.0" encoding="utf-8"?>
<svg viewBox="0 0 1000 500" width="1000" height="500" xmlns="http://www.w3.org/2000/svg">
  <g>
    <rect id="rect4" style="fill:#ff0000" height="500" width="1000"/>
  </g>
  <g>
    <rect id="rect6" style="fill:#ffffff" height="500" width="500" x="250"/>
  </g>
  <g id="logo">
    <path id="path8" style="fill:#ff0000" d="M 499.99 46.875 L 465.877 110.5 C 462.006 117.415 455.071 116.774 448.135 112.911 L 423.438 100.122 L 441.845 197.849 C 445.716 215.703 433.296 215.703 427.167 207.983 L 384.066 159.732 L 377.069 184.235 C 376.262 187.453 372.714 190.833 367.391 190.028 L 312.889 178.569 L 327.204 230.614 C 330.269 242.195 332.659 246.989 324.11 250.044 L 304.684 259.174 L 398.505 335.382 C 402.219 338.264 404.095 343.449 402.773 348.144 L 394.562 375.091 C 426.866 371.368 455.811 365.765 488.131 362.315 C 490.984 362.011 495.76 366.719 495.741 370.026 L 491.461 468.749 L 507.167 468.749 L 504.694 370.237 C 504.675 366.93 509.008 362.01 511.861 362.315 C 544.181 365.765 573.126 371.367 605.43 375.091 L 597.219 348.144 C 595.897 343.448 597.773 338.263 601.487 335.382 L 695.308 259.174 L 675.882 250.043 C 667.333 246.989 669.723 242.194 672.788 230.613 L 687.103 178.568 L 632.601 190.027 C 627.278 190.832 623.73 187.452 622.923 184.235 L 615.926 159.732 L 572.825 207.983 C 566.696 215.703 554.276 215.703 558.147 197.849 L 576.554 100.122 L 551.857 112.911 C 544.921 116.773 537.986 117.414 534.115 110.499"/>
  </g>
</svg>
