<?xml version='1.0' encoding='utf-8'?>
<svg xmlns="http://www.w3.org/2000/svg" enable-background="new 0 0 2250 734" version="1.1" viewBox="0 0 2250 734">
		<path d="m1651.6 239.14l0.189-6.052-24.586-1.2483c-38.354-1.9668-66.629-9.2103-103.39-26.515-23.697-11.158-31.395-7.7542-26.194 11.537 3.3286 12.35 12.69 20.993 35.423 32.681 21.674 11.158 32.378 15.168 51.82 19.385 21.768 4.7281 32.776 3.8392 46.317-3.7069 13.05-7.2624 19.858-16.151 20.426-26.08z"/>
		<path d="m1678.8 183.12l0.9457-13.39h-151.96l-1.9291 5.0496c-1.0403 2.7802-1.4943 6.1466-0.9835 7.4705 2.5344 6.6006 42.478 22.506 84.331 33.551h-1e-4c15.735 4.1609 42.932 3.9338 51.064-0.416 11.158-5.9386 17.399-16.719 18.534-32.265z"/>
		<path d="m1221 290.31c55.716-50.213 88.322-81.229 110.77-105.34l31.811-34.164 18.307-0.121c10.061-0.0662 30.392-0.7678 45.163-1.5565 25.967-1.3882 27.347-1.6755 41.381-8.6165 11.423-5.6436 18.686-11.274 33.948-26.338 17.191-16.966 27.328-29.511 27.366-33.818 0-0.7811-46.714-1.4185-103.79-1.4185h-90.234c-8.9655 0-17.857 1.6171-26.249 4.7736-18.95 7.1357-26.27 11.315-32.775 18.731-11.026 12.554-12.237 29.549-4.2744 60.346 3.4044 13.178 3.5178 15.41 1.116 20.044-3.2151 6.2222-92.539 76.558-105.49 83.083l-7.2125 3.6365-8.7278 83.968c13.908-13.189 39.689-36.876 68.895-63.207z"/>
		<path d="m1537.3 432.54c5.7494-0.0378 12.406-1.1536 14.808-2.4963 6.903-3.8203 11.688-12.634 11.688-21.542 0.019-6.8652-0.5483-8.0377-3.877-8.0377-5.1821 0-31.206-10.856-61.352-25.589-17.646-8.6431-28.331-15.3-37.825-23.622-7.2814-6.3735-18.364-16.076-24.624-21.579-18.08-15.868-28.993-20.028-32.983-12.558-6.9598 12.974 5.5979 29.844 46.79 62.808 24.53 19.65 44.482 33.683 64.681 45.504 10.269 6.0141 13.976 7.1679 22.695 7.111z"/>
		<path d="m1503.3 141.87h-2e-4l-6.6194 4.9797 99.801 0.0889c111.45 0.0984 108.43 0.4312 130.36-13.634 18.913-12.07 46.903-40.787 46.903-48.026 0-2.1144-18.913-2.5532-110.07-2.5494l-110.26 0.0056-5.6549 10.869c-5.5602 10.648-30.581 37.827-44.463 48.267z"/>
		<path d="m1305.1 532.85c-2.6478-4.6904-8.2648-14.052-12.444-20.804-4.1986-6.7706-12.823-24.208-19.177-38.771-17.702-40.53-21.031-44.445-37.844-44.445-10.799 0-13.068 4.8228-11.65 24.738 1.4562 20.766 8.3403 42.534 22.184 70.184 20.917 41.778 37.22 63.47 54.544 72.492l-1e-4 1e-4c6.714 3.4988 11.726 4.52 22.317 4.5957 12.614 0.0757 14.128-0.3593 20.331-5.7872 3.6691-3.2151 6.6761-6.4492 6.6761-7.1678 0-0.6998-9.0212-11.461-20.047-23.906s-22.222-26.459-24.889-31.13z"/>
		<path d="m1255.1 580.39c-13.031-18.78-39.224-82.08-39.338-95.073-0.1135-12.123-14.695-32.586-24.794-34.799-12.104-2.6666-18.667 5.1631-18.667 22.241 0 21.541 9.0591 66.705 18.213 90.894 16.776 44.255 26.913 60.123 43.253 67.707l-1e-4 1e-4c8.3782 3.896 22.771 4.6147 33.418 1.6643 8.0945-2.2505 18.591-11.348 18.591-16.132 0-1.8156-5.6171-8.9267-12.482-15.792-6.8654-6.8464-15.055-16.17-18.194-20.709z"/>
		<path d="m1588.9 375.86c5.5603-4.3878 11.423-18.213 10.496-24.794-0.5863-4.0852-1.8724-4.6335-13.882-5.9575-27.593-3.0071-51.726-13.485-89.551-38.922-40.208-27.026-46.26-30.544-52.596-30.544-11.669 0-10.686 12.558 2.4019 30.336 11.839 16.076 54.676 47.697 84.747 62.544 21.957 10.837 22.96 11.139 38.052 11.139 12.652 0 16.378-0.6997 20.331-3.8014z"/>
		<path d="m1301.6 381.53c1.4751-1.5508 4.0284-7.546 5.6548-13.314l2.9694-10.478 15.281-2.2128c8.416-1.2292 16.094-2.7423 17.097-3.3475 0.9835-0.6241 1.8157-4.6903 1.8157-9.0402 0.0566-14.695 1.2292-16.435 11.083-16.454 16.246-0.019 21.825-2.7234 26.326-12.747 2.2126-4.9551 4.2742-10.686 4.5957-12.766 0.4728-3.234 2.4019-3.9338 13.031-4.7281 6.8463-0.5295 13.768-2.0237 15.338-3.3475 1.6832-1.3995 3.4042-7.2814 4.1608-14.184 2.4966-23.206 3.5177-24.567 20.312-26.856l8.8132-1.1915 1.5886-13.541 1.5889-13.541 7.5649-1.5131c15.073-2.988 16.322-4.4633 15.697-18.402l-0.5674-12.388 11.972-5.9006c13.485-6.6384 18.383-10.742 16.511-13.787-0.8889-1.4373-20.274-2.0614-63.111-2.0236l-61.825 0.0568-109.09 99.707c-104.25 95.3-109.09 100.01-109.22 106.44-0.0756 3.7069-3.1206 19.707-6.7518 35.574-6.2789 27.366-8.1512 43.48-5.3523 46.279 0.6809 0.6997 3.1396 1.2671 5.4469 1.2671 4.2365 0 5.9575-2.6099 12.88-19.423 1.6075-3.9149 4.2363-7.6218 5.825-8.2271 1.5887-0.6051 7.5083 0.7944 13.144 3.1395l10.232 4.2365 6.3356-4.0283c3.48-2.2129 8.3971-6.8274 10.913-10.27 7.9432-10.875 12.974-13.447 28.407-14.544 13.693-0.9835 14.317-1.2294 18.402-7.6218 8.7754-13.693 8.4351-13.466 24.7-15.792 8.6806-1.2483 16.738-3.461 18.232-5.0309z"/>
		<path d="m1619.5 322.14c7.0543-5.3523 11.404-13.144 13.674-23.924 0.9456-4.6904 0.3783-5.5603-2.8369-5.5603-2.0803 0-18.118-2.6289-35.65-5.844-32.832-6.0142-50.345-11.915-65.456-22.109-7.7164-5.2009-14.96-8.8132-40.832-20.35-14.733-6.5626-17.986-5.3334-18.818 7.1111-0.5673 8.4349-0.3783 8.7186 13.239 21.182 7.6028 6.9598 18.477 15.773 24.208 19.593 16.946 11.329 55.66 30.147 68.463 33.286h1e-4c6.5626 1.6077 17.532 2.7046 24.416 2.4587 10.44-0.3593 13.674-1.3239 19.593-5.8439z"/>
		<path d="m1154 488.88c-3.4231-7.8486-10.44-9.8157-13.541-3.7825-2.3452 4.5011-4.0852 109.48-2.1372 128.72 2.0237 20.01 7.7354 29.314 22.62 36.766l1e-4 -1e-4c8.3972 4.2175 12.028 5.0308 18.912 4.1797 17.816-2.2128 30.638-5.3145 34.118-8.2458 3.4988-2.9314 3.1583-3.6691-10.194-21.371-7.6218-10.099-16.454-23.281-19.65-29.314-6.506-12.274-23.168-67.328-23.225-76.747-0.0758-8.2081-3.1208-21.56-6.9032-30.203z"/>
		<path d="m1885.3 234.03h-207.85l-4.7281 8.0378c-3.5933 6.2791-14.373 34.988-14.373 38.525h-2e-4c0 0.3971 81.891 0.6997 181.94 0.6997l182.13-0.0189 21.371-7.3191c11.915-4.0663 25.91-10.383 31.395-14.166 8.8887-6.1466 18.156-18.194 18.156-23.66-1e-4 -1.5321-56.36-2.0994-208.04-2.0994z"/>
		<path d="m1654.6 300.22l-5.8628 8.0378c-3.2151 4.4066-7.5649 11.631-9.6453 16.038-2.0806 4.5012-6.6194 9.7209-10.213 11.972-4.4446 2.7422-6.4303 5.39-6.4303 8.5483v4.5769l169.65-0.0378c139.95-0.0378 172.1-0.5106 183.07-2.7423 15.886-3.2719 58.44-24.227 63.546-31.262 1.8914-2.61 3.9717-7.0734 4.7283-9.9292l1.1345-5.2009h-389.98z"/>
		<path d="m1987.8 82.722h-177.4l-12.293 12.766c-6.8086 7.0203-14.752 15.745-17.778 19.385-4.9172 6.262-16.454 16.628-28.558 25.935h2e-4l-5.4846 4.1853 171.16-0.4255c160.19-0.3989 171.92-0.6487 181.56-3.8884 35.934-11.945 66.194-36.654 66.194-53.988v-3.9697h-177.4z"/>
		<path d="m1793 368.33l-173.43 0.0189-17.494 18.912c-12.312 13.314-17.494 20.312-17.494 23.622h4e-4v4.7092h147.52c99.48 0 150.54-0.6809 157.35-2.0803 14.752-3.0828 34.043-12.898 56.927-29.05 11.158-7.9054 20.236-14.771 20.236-15.262-2e-4 -0.4918-78.109-0.8889-173.62-0.8701z"/>
		<path d="m1921.6 170.18l-211.25 0.4917-11.726 21.75c-6.6194 11.953-11.915 22.846-11.915 24.189h-2e-4c0 1.967 35.744 2.3264 189.5 1.8914l189.69-0.5485 13.806-5.0686c7.7542-2.7991 18.724-7.9054 24.398-11.348 10.78-6.4302 28.936-24.927 28.936-29.371 0-2.0048-38.582-2.3831-211.44-1.9859z"/>
		<path d="m1570.1 434.5l-8.5106 5.6359c-14.033 9.286-29.371 26.875-36.596 41.929-3.6311 7.584-6.6005 14.865-6.6005 16.208h-2e-4c0 4.7092 132.77 2.2885 186.29-3.3853 33.286-3.5367 65.438-11.858 102.7-26.629 17.967-7.0923 41.418-20.671 48.605-28.01l5.4846-5.7493h-291.37z"/>
		<path d="m1380.7 518.06c-27.972-27.726-33.759-35.083-44.69-56.832-10.78-21.428-27.253-45.314-34.837-50.459-8.3782-5.6927-18.231-6.1654-20.993-0.9835-3.0072 5.5981-2.364 16.719 1.8724 32.322 5.2954 19.499 6.5059 22.26 21.901 49.381 18.042 31.754 25.872 43.839 37.182 57.437 10.931 13.125 13.428 15.092 22.298 17.664 16.529 4.7849 43.385-6.9598 43.385-18.988-1e-4 -2.175-10.534-14.09-26.118-29.541z"/>
		<path d="m1443.7 484.96c-13.409-7.9054-28.917-23.489-49.305-49.513-46.79-59.726-64.34-73.494-70.638-55.433-3.1963 9.1915-2.4019 26.08 1.6454 35.026 4.1797 9.1915 36.652 56.681 54.279 79.376 14.506 18.686 25.324 27.858 39.868 33.854 13.201 5.428 22.033 5.7305 30.808 1.0591 7.5272-4.0095 18.875-17.797 18.875-22.96 1e-4 -4.0096-9.3237-11.839-25.532-21.409z"/>
		<path d="m1515.7 452.6c-1.9103-1.1157-14.638-9.4373-28.255-18.496-36.728-24.397-60.52-43.574-71.679-57.759-19.839-25.248-35.688-36.463-45.976-32.567-4.8605 1.8534-5.0118 2.3641-4.0662 12.898 1.7588 19.385 12.18 34.629 54.279 79.452 24.7 26.288 42.516 41.835 53.333 46.525h1e-4c3.4799 1.5129 10.061 2.7991 14.619 2.8369 7.1112 0.0566 9.2104-0.9078 14.657-6.6761 3.499-3.7257 8.6621-10.686 11.48-15.47 4.8416-8.265 4.9173-8.8133 1.6076-10.742z"/>
		<path d="m598.45 239.14l-0.189-6.052 24.586-1.2483c38.354-1.9668 66.629-9.2103 103.39-26.515 23.697-11.158 31.395-7.7542 26.194 11.537-3.3286 12.35-12.69 20.993-35.423 32.681-21.674 11.158-32.378 15.168-51.82 19.385-21.768 4.7281-32.776 3.8392-46.317-3.7069-13.05-7.2624-19.858-16.151-20.426-26.08z"/>
		<path d="m571.21 183.12l-0.9457-13.39h151.96l1.9291 5.0496c1.0403 2.7802 1.4943 6.1466 0.9835 7.4705-2.5344 6.6006-42.478 22.506-84.331 33.551h1e-4c-15.735 4.1609-42.932 3.9338-51.064-0.416-11.158-5.9386-17.399-16.719-18.534-32.265z"/>
		<path d="m1029 290.31c-55.716-50.213-88.322-81.229-110.77-105.34l-31.811-34.164-18.307-0.121c-10.061-0.0662-30.392-0.7678-45.163-1.5565-25.967-1.3882-27.347-1.6755-41.381-8.6165-11.423-5.6436-18.686-11.274-33.948-26.338-17.191-16.966-27.328-29.511-27.366-33.818 0-0.7811 46.714-1.4185 103.79-1.4185h90.234c8.9654 0 17.857 1.6171 26.249 4.7736h1e-4c18.95 7.1357 26.27 11.315 32.775 18.731 11.026 12.554 12.237 29.549 4.2744 60.346-3.4044 13.178-3.5178 15.41-1.116 20.044 3.2151 6.2222 92.539 76.558 105.49 83.083l7.2125 3.6365 8.7278 83.968c-13.908-13.189-39.69-36.876-68.896-63.207z"/>
		<path d="m712.72 432.54c-5.7494-0.0378-12.406-1.1536-14.808-2.4963-6.903-3.8203-11.688-12.634-11.688-21.542-0.019-6.8652 0.5483-8.0377 3.877-8.0377 5.1821 0 31.206-10.856 61.352-25.589 17.646-8.6431 28.331-15.3 37.825-23.622 7.2814-6.3735 18.364-16.076 24.624-21.579 18.08-15.868 28.993-20.028 32.983-12.558 6.9598 12.974-5.5979 29.844-46.79 62.808-24.53 19.65-44.482 33.683-64.681 45.504-10.269 6.0141-13.976 7.1679-22.695 7.111z"/>
		<path d="m746.72 141.87h2e-4l6.6194 4.9797-99.801 0.0889c-111.45 0.0984-108.43 0.4312-130.36-13.634-18.913-12.07-46.903-40.787-46.903-48.026 0-2.1144 18.913-2.5532 110.07-2.5494l110.26 0.0056 5.6549 10.869c5.5602 10.648 30.581 37.827 44.463 48.267z"/>
		<path d="m944.85 532.85c2.6478-4.6904 8.2648-14.052 12.444-20.804 4.1986-6.7706 12.823-24.208 19.177-38.771 17.702-40.53 21.031-44.445 37.844-44.445 10.799 0 13.068 4.8228 11.65 24.738-1.4562 20.766-8.3403 42.534-22.184 70.184-20.917 41.778-37.22 63.47-54.544 72.492l1e-4 1e-4c-6.714 3.4988-11.726 4.52-22.317 4.5957-12.614 0.0757-14.128-0.3593-20.331-5.7872-3.6691-3.2151-6.6761-6.4492-6.6761-7.1678 0-0.6998 9.0212-11.461 20.047-23.906s22.222-26.459 24.889-31.13z"/>
		<path d="m994.89 580.39c13.031-18.78 39.224-82.08 39.338-95.073 0.1135-12.123 14.695-32.586 24.794-34.799 12.104-2.6666 18.667 5.1631 18.667 22.241 0 21.541-9.0591 66.705-18.213 90.894-16.776 44.255-26.913 60.123-43.253 67.707l1e-4 1e-4c-8.3782 3.896-22.771 4.6147-33.418 1.6643-8.0945-2.2505-18.591-11.348-18.591-16.132 0-1.8156 5.6171-8.9267 12.482-15.792 6.8654-6.8464 15.055-16.17 18.194-20.709z"/>
		<path d="m661.07 375.86c-5.5603-4.3878-11.423-18.213-10.496-24.794 0.5863-4.0852 1.8724-4.6335 13.882-5.9575 27.593-3.0071 51.726-13.485 89.551-38.922 40.208-27.026 46.26-30.544 52.596-30.544 11.669 0 10.686 12.558-2.4019 30.336-11.839 16.076-54.676 47.697-84.747 62.544-21.957 10.837-22.96 11.139-38.052 11.139-12.652 0-16.378-0.6997-20.331-3.8014z"/>
		<path d="m948.39 381.53c-1.4751-1.5508-4.0284-7.546-5.6548-13.314l-2.9694-10.478-15.281-2.2128c-8.416-1.2292-16.094-2.7423-17.097-3.3475-0.9835-0.6241-1.8157-4.6903-1.8157-9.0402-0.0566-14.695-1.2292-16.435-11.083-16.454-16.246-0.019-21.825-2.7234-26.326-12.747-2.2126-4.9551-4.2742-10.686-4.5957-12.766-0.4728-3.234-2.4019-3.9338-13.031-4.7281-6.8463-0.5295-13.768-2.0237-15.338-3.3475-1.6832-1.3995-3.4042-7.2814-4.1608-14.184-2.4966-23.206-3.5177-24.567-20.312-26.856l-8.8132-1.1915-1.5886-13.541-1.5889-13.541-7.5649-1.5131c-15.073-2.988-16.322-4.4633-15.697-18.402l0.5674-12.388-11.972-5.9006c-13.485-6.6384-18.383-10.742-16.511-13.787 0.8889-1.4373 20.274-2.0614 63.111-2.0236l61.825 0.0568 109.09 99.707c104.25 95.3 109.09 100.01 109.22 106.44 0.0756 3.7069 3.1206 19.707 6.7518 35.574 6.2789 27.366 8.1512 43.48 5.3523 46.279-0.6809 0.6997-3.1396 1.2671-5.4469 1.2671-4.2365 0-5.9575-2.6099-12.88-19.423-1.6075-3.9149-4.2363-7.6218-5.825-8.2271-1.5887-0.6051-7.5083 0.7944-13.144 3.1395l-10.232 4.2365-6.3356-4.0283c-3.48-2.2129-8.3971-6.8274-10.913-10.27-7.9432-10.875-12.974-13.447-28.407-14.544-13.693-0.9835-14.317-1.2294-18.402-7.6218-8.7754-13.693-8.4351-13.466-24.7-15.792-8.6806-1.2483-16.738-3.461-18.232-5.0309z"/>
		<path d="m630.47 322.14c-7.0543-5.3523-11.404-13.144-13.674-23.924-0.9456-4.6904-0.3783-5.5603 2.8369-5.5603 2.0803 0 18.118-2.6289 35.65-5.844 32.832-6.0142 50.345-11.915 65.456-22.109 7.7164-5.2009 14.96-8.8132 40.832-20.35 14.733-6.5626 17.986-5.3334 18.818 7.1111 0.5673 8.4349 0.3783 8.7186-13.239 21.182-7.6028 6.9598-18.477 15.773-24.208 19.593-16.946 11.329-55.66 30.147-68.463 33.286h-1e-4c-6.5626 1.6077-17.532 2.7046-24.416 2.4587-10.44-0.3593-13.674-1.3239-19.593-5.8439z"/>
		<path d="m1096 488.88c3.4231-7.8486 10.44-9.8157 13.541-3.7825 2.3452 4.5011 4.0852 109.48 2.1372 128.72-2.0237 20.01-7.7354 29.314-22.62 36.766l-1e-4 -1e-4c-8.3972 4.2175-12.028 5.0308-18.912 4.1797-17.816-2.2128-30.638-5.3145-34.118-8.2458-3.4988-2.9314-3.1583-3.6691 10.194-21.371 7.6218-10.099 16.454-23.281 19.65-29.314 6.506-12.274 23.168-67.328 23.225-76.747 0.0758-8.2081 3.1208-21.56 6.9032-30.203z"/>
		<path d="m364.69 234.03h207.85l4.7281 8.0378c3.5933 6.2791 14.373 34.988 14.373 38.525h2e-4c0 0.3971-81.891 0.6997-181.94 0.6997l-182.13-0.0189-21.371-7.3191c-11.915-4.0663-25.91-10.383-31.395-14.166-8.8887-6.1466-18.156-18.194-18.156-23.66 3e-4 -1.5321 56.36-2.0994 208.04-2.0994z"/>
		<path d="m595.42 300.22l5.8628 8.0378c3.2151 4.4066 7.5649 11.631 9.6453 16.038 2.0806 4.5012 6.6194 9.7209 10.213 11.972 4.4446 2.7422 6.4303 5.39 6.4303 8.5483v4.5769l-169.65-0.0378c-139.95-0.0378-172.1-0.5106-183.07-2.7423-15.886-3.2719-58.44-24.227-63.546-31.262-1.8914-2.61-3.9717-7.0734-4.7283-9.9292l-1.1345-5.2009h389.98z"/>
		<path d="m262.18 82.722h177.4l12.293 12.766c6.8086 7.0203 14.752 15.745 17.778 19.385 4.9172 6.262 16.454 16.628 28.558 25.935h-2e-4l5.4846 4.1853-171.16-0.4255c-160.19-0.3989-171.92-0.6487-181.56-3.8884-35.934-11.945-66.194-36.654-66.194-53.988v-3.9697h177.4z"/>
		<path d="m456.98 368.33l173.43 0.0189 17.494 18.912c12.312 13.314 17.494 20.312 17.494 23.622h-4e-4v4.7092h-147.52c-99.48 0-150.54-0.6809-157.35-2.0803-14.752-3.0828-34.043-12.898-56.927-29.05-11.158-7.9054-20.236-14.771-20.236-15.262 0-0.4918 78.109-0.8889 173.62-0.8701z"/>
		<path d="m328.38 170.18l211.25 0.4917 11.726 21.75c6.6194 11.953 11.915 22.846 11.915 24.189h2e-4c0 1.967-35.744 2.3264-189.5 1.8914l-189.69-0.5485-13.806-5.0686c-7.7542-2.7991-18.724-7.9054-24.398-11.348-10.78-6.4302-28.936-24.927-28.936-29.371 1e-4 -2.0048 38.582-2.3831 211.44-1.9859z"/>
		<path d="m679.89 434.5l8.5106 5.6359c14.033 9.286 29.371 26.875 36.596 41.929 3.6311 7.584 6.6005 14.865 6.6005 16.208h2e-4c0 4.7092-132.77 2.2885-186.29-3.3853-33.286-3.5367-65.438-11.858-102.7-26.629-17.967-7.0923-41.418-20.671-48.605-28.01l-5.4846-5.7493h291.37z"/>
		<path d="m869.3 518.06c27.972-27.726 33.759-35.083 44.69-56.832 10.78-21.428 27.253-45.314 34.837-50.459 8.3782-5.6927 18.231-6.1654 20.993-0.9835 3.0072 5.5981 2.364 16.719-1.8724 32.322-5.2954 19.499-6.5059 22.26-21.901 49.381-18.042 31.754-25.872 43.839-37.182 57.437-10.931 13.125-13.428 15.092-22.298 17.664-16.529 4.7849-43.385-6.9598-43.385-18.988 1e-4 -2.175 10.534-14.09 26.118-29.541z"/>
		<path d="m806.3 484.96c13.409-7.9054 28.917-23.489 49.305-49.513 46.79-59.726 64.34-73.494 70.638-55.433 3.1963 9.1915 2.4019 26.08-1.6454 35.026-4.1797 9.1915-36.652 56.681-54.279 79.376-14.506 18.686-25.324 27.858-39.868 33.854-13.201 5.428-22.033 5.7305-30.808 1.0591-7.5272-4.0095-18.875-17.797-18.875-22.96-1e-4 -4.0096 9.3237-11.839 25.532-21.409z"/>
		<path d="m734.34 452.6c1.9103-1.1157 14.638-9.4373 28.255-18.496 36.728-24.397 60.52-43.574 71.679-57.759 19.839-25.248 35.688-36.463 45.976-32.567 4.8605 1.8534 5.0118 2.3641 4.0662 12.898-1.7588 19.385-12.18 34.629-54.279 79.452-24.7 26.288-42.516 41.835-53.333 46.525h-1e-4c-3.4799 1.5129-10.061 2.7991-14.619 2.8369-7.1112 0.0566-9.2104-0.9078-14.657-6.6761-3.499-3.7257-8.6621-10.686-11.48-15.47-4.8416-8.265-4.9173-8.8133-1.6076-10.742z"/>
</svg>