<?xml version="1.0" standalone="no"?>
<!DOCTYPE svg PUBLIC "-//W3C//DTD SVG 20010904//EN"
 "http://www.w3.org/TR/2001/REC-SVG-20010904/DTD/svg10.dtd">
<svg version="1.0" xmlns="http://www.w3.org/2000/svg"
 width="1280.000000pt" height="968.000000pt" viewBox="0 0 1280.000000 968.000000"
 preserveAspectRatio="xMidYMid meet">
<metadata>
Created by potrace 1.15, written by Peter Selinger 2001-2017
</metadata>
<g transform="translate(0.000000,968.000000) scale(0.100000,-0.100000)"
fill="#000000" stroke="none">
<path d="M5825 8889 c-152 -14 -334 -40 -465 -66 -688 -137 -1240 -382 -1785
-791 -507 -380 -946 -902 -1236 -1472 l-69 -135 -733 -5 -734 -5 -49 -30 c-30
-19 -60 -49 -79 -79 l-30 -49 -3 -1609 c-2 -1469 -1 -1611 14 -1641 32 -62 67
-99 118 -123 l51 -24 707 0 707 0 98 -192 c211 -412 464 -760 792 -1089 332
-332 684 -587 1096 -795 463 -233 940 -374 1495 -441 203 -24 687 -24 890 0
405 49 805 148 1161 288 162 63 496 231 637 319 146 92 392 270 514 371 457
382 862 901 1108 1422 l55 116 850 1 c572 0 863 4 889 11 52 14 121 80 143
137 17 45 18 129 18 1632 0 1308 -2 1592 -14 1623 -17 50 -64 103 -115 130
l-41 22 -877 5 -878 5 -63 125 c-202 399 -462 755 -792 1086 -315 317 -622
546 -1010 757 -491 267 -1102 445 -1700 496 -126 11 -551 11 -670 0z m805
-234 c462 -56 886 -178 1288 -371 792 -380 1425 -985 1846 -1765 25 -47 46
-89 46 -93 0 -3 -29 -6 -64 -6 l-64 0 -48 88 c-272 500 -660 951 -1110 1287
-505 378 -1031 607 -1674 729 -463 88 -985 86 -1445 -5 -150 -30 -397 -93
-515 -132 -550 -181 -1070 -497 -1493 -907 -293 -284 -534 -597 -722 -937
l-68 -123 -43 0 c-24 0 -44 3 -44 7 0 3 21 45 46 92 595 1106 1638 1869 2864
2095 126 23 342 51 470 60 127 9 600 -3 730 -19z m-130 -285 c671 -68 1280
-295 1814 -673 181 -128 299 -229 482 -412 247 -247 408 -451 581 -740 l72
-120 -860 -3 -860 -2 -82 64 c-383 298 -836 472 -1324 508 -493 36 -1035 -103
-1448 -373 -60 -39 -147 -100 -192 -135 l-82 -64 -881 2 -881 3 89 145 c163
268 305 451 517 669 442 454 926 759 1520 956 321 107 609 161 1000 189 87 6
426 -3 535 -14z m-70 -1511 c138 -15 317 -55 455 -100 155 -52 390 -167 530
-261 l110 -73 -677 -3 c-372 -1 -984 -1 -1360 0 l-683 3 110 73 c133 89 372
208 515 256 323 109 651 143 1000 105z m5378 -553 c15 -8 38 -26 52 -41 l25
-27 3 -1591 2 -1590 -22 -33 c-12 -18 -37 -39 -55 -48 -31 -15 -533 -16 -5506
-16 -5443 0 -5472 0 -5505 20 -18 11 -41 34 -52 52 -20 33 -20 54 -20 1608 0
1554 0 1575 20 1608 11 18 34 41 52 52 33 20 62 20 5506 20 4681 0 5477 -2
5500 -14z m-9148 -3557 c187 -341 415 -645 685 -914 504 -504 1127 -860 1801
-1029 384 -97 556 -118 959 -122 454 -4 701 28 1146 150 715 196 1432 661
1922 1246 159 190 346 465 460 675 l54 100 76 3 c43 2 77 0 77 -4 0 -12 -111
-215 -188 -344 -510 -854 -1345 -1503 -2307 -1795 -394 -119 -737 -168 -1180
-169 -312 0 -465 13 -725 60 -1145 209 -2143 892 -2748 1880 -75 123 -202 354
-202 367 0 4 24 7 54 7 l55 0 61 -111z m6790 104 c0 -14 -78 -145 -165 -278
-553 -844 -1426 -1432 -2408 -1624 -410 -80 -843 -92 -1262 -35 -1141 157
-2172 860 -2743 1872 l-41 72 3310 0 c1820 0 3309 -3 3309 -7z"/>
<path d="M6047 7832 c-30 -78 -29 -77 -100 -82 -36 -3 -68 -8 -72 -12 -4 -3
14 -21 39 -40 55 -40 61 -58 41 -123 -24 -80 -21 -81 54 -30 28 19 55 35 61
35 6 0 36 -16 67 -36 30 -19 57 -33 60 -31 2 3 -5 31 -15 63 -11 33 -17 65
-15 71 3 7 27 29 54 49 27 20 47 40 43 45 -3 5 -34 9 -68 9 -62 0 -64 1 -79
33 -8 17 -18 42 -21 54 -14 45 -30 44 -49 -5z"/>
<path d="M4060 7150 c-26 -69 -32 -75 -79 -71 -39 2 -91 -7 -91 -17 0 -4 16
-18 36 -32 59 -40 67 -58 49 -116 -26 -87 -21 -91 54 -39 28 19 54 35 58 35 5
0 32 -16 61 -36 30 -20 56 -33 59 -30 3 3 -2 33 -11 67 -20 70 -18 74 56 125
l40 28 -28 8 c-16 5 -48 7 -72 6 -48 -2 -56 5 -72 62 -6 19 -16 43 -24 53 -12
16 -16 11 -36 -43z"/>
<path d="M8090 7157 c0 -13 -18 -57 -39 -97 -6 -11 -28 -16 -75 -18 -36 -2
-66 -7 -66 -11 0 -5 17 -21 38 -37 57 -44 60 -50 46 -105 -7 -27 -16 -54 -19
-59 -3 -6 -3 -14 0 -20 4 -6 30 6 63 27 31 20 62 36 67 36 6 0 36 -16 68 -37
64 -41 69 -36 42 39 -22 61 -19 72 34 112 28 21 50 41 50 45 1 4 -29 8 -65 10
-71 3 -70 2 -108 91 -15 36 -36 50 -36 24z"/>
<path d="M947 6226 c-56 -20 -103 -60 -126 -109 l-21 -44 2 -1446 3 -1445 30
-44 c20 -28 49 -52 84 -70 l55 -28 5320 0 c3822 0 5332 3 5361 11 55 15 127
91 144 150 9 34 11 369 9 1459 l-3 1415 -22 42 c-27 51 -82 96 -132 112 -61
18 -10653 15 -10704 -3z"/>
<path d="M4610 2798 c19 -16 77 -61 127 -100 272 -203 581 -344 918 -416 196
-43 314 -55 510 -55 196 0 314 12 510 55 362 78 703 240 995 475 l85 68 -92 3
-91 3 -124 -84 c-287 -194 -564 -307 -903 -369 -115 -20 -159 -23 -390 -22
-239 0 -271 3 -396 27 -335 65 -594 173 -877 364 l-124 83 -91 0 -92 -1 35
-31z"/>
<path d="M4175 2504 c-4 -10 -11 -28 -16 -39 -5 -11 -13 -32 -19 -47 -9 -26
-13 -28 -72 -28 -88 0 -98 -10 -48 -45 64 -44 70 -58 55 -113 -7 -26 -16 -55
-20 -64 -11 -27 10 -22 68 17 28 19 56 35 62 35 6 0 34 -16 63 -36 30 -20 56
-33 60 -30 3 4 1 21 -5 39 -25 73 -25 94 -1 117 13 12 38 31 56 42 44 27 28
38 -54 38 -55 0 -62 2 -72 25 -7 14 -12 30 -12 35 0 5 -9 24 -20 42 -17 28
-20 30 -25 12z"/>
<path d="M8066 2378 c-9 -24 -21 -53 -26 -65 -9 -21 -17 -23 -74 -23 -36 0
-67 -4 -71 -9 -3 -6 15 -25 39 -43 25 -18 48 -39 51 -47 3 -7 -2 -40 -11 -73
-9 -32 -14 -61 -11 -64 2 -3 30 11 60 30 31 20 61 36 66 36 6 0 35 -16 65 -35
29 -19 56 -32 59 -29 2 3 -4 32 -14 66 l-19 61 22 24 c13 13 37 33 55 44 18
12 31 25 27 30 -3 5 -34 9 -70 9 l-65 0 -29 65 c-16 36 -31 65 -33 65 -2 0
-11 -19 -21 -42z"/>
<path d="M6097 1652 c-30 -78 -29 -77 -100 -82 -36 -3 -68 -8 -72 -12 -4 -3
14 -21 39 -40 25 -18 48 -40 51 -48 3 -9 -2 -42 -10 -73 -8 -32 -15 -60 -15
-62 0 -12 22 -2 69 30 28 19 55 35 61 35 5 0 35 -16 66 -36 30 -20 58 -34 60
-31 3 3 -4 31 -14 63 -11 33 -17 65 -15 71 3 7 27 29 54 49 27 20 47 40 43 45
-3 5 -34 9 -69 9 -61 0 -65 1 -80 30 -8 16 -15 35 -15 42 0 7 -8 23 -18 35
l-17 23 -18 -48z"/>
</g>
</svg>
