<?xml version="1.0" standalone="no"?>
<!DOCTYPE svg PUBLIC "-//W3C//DTD SVG 20010904//EN"
 "http://www.w3.org/TR/2001/REC-SVG-20010904/DTD/svg10.dtd">
<svg version="1.0" xmlns="http://www.w3.org/2000/svg"
 width="1280.000000pt" height="1280.000000pt" viewBox="0 0 1280.000000 1280.000000"
 preserveAspectRatio="xMidYMid meet">
<metadata>
Created by potrace 1.15, written by Peter Selinger 2001-2017
</metadata>
<g transform="translate(0.000000,1280.000000) scale(0.100000,-0.100000)"
fill="#000000" stroke="none">
<path d="M4232 12380 c-25 -10 -42 -47 -42 -90 0 -44 58 -123 100 -134 42 -11
219 -73 355 -126 55 -21 249 -94 430 -160 182 -67 353 -131 380 -141 28 -11
173 -65 323 -122 l273 -102 25 -43 25 -42 -38 -17 c-21 -8 -270 -98 -553 -200
-283 -101 -536 -195 -562 -208 -26 -14 -57 -25 -68 -25 -21 0 -626 -213 -672
-236 -39 -20 -72 -88 -64 -132 10 -62 55 -95 148 -106 54 -7 66 -3 330 94 150
56 293 113 317 126 24 13 52 24 61 24 32 0 714 261 736 281 11 10 34 19 51 19
17 0 108 29 203 65 95 36 180 65 190 65 15 0 18 -13 22 -92 3 -63 10 -104 22
-127 16 -30 17 -41 7 -85 -7 -28 -39 -300 -72 -604 -32 -305 -64 -562 -69
-572 -7 -13 -28 -19 -91 -24 -93 -9 -118 -16 -171 -52 -20 -14 -62 -32 -95
-40 -123 -32 -177 -99 -171 -214 3 -58 3 -59 -43 -99 -53 -47 -83 -108 -103
-211 -7 -39 -18 -76 -24 -82 -34 -34 -187 103 -243 217 -30 61 -34 78 -34 150
0 102 26 158 125 268 110 122 136 192 102 271 -24 54 -29 56 -97 60 -31 1 -60
7 -66 13 -6 6 -18 46 -26 89 -16 84 -39 138 -72 168 -24 21 -71 16 -131 -14
-33 -17 -106 -91 -159 -160 -25 -33 -30 -34 -115 -18 -32 5 -80 -69 -107 -163
-20 -71 -24 -106 -24 -224 0 -124 3 -150 28 -234 42 -140 45 -140 -185 2 -291
180 -517 264 -738 274 -118 5 -129 4 -200 -22 -41 -15 -106 -33 -145 -40 -231
-44 -541 -239 -761 -479 -113 -125 -124 -130 -269 -136 l-120 -5 -3 -56 c-3
-66 23 -153 63 -205 28 -37 80 -67 133 -79 44 -9 58 -36 66 -121 3 -39 13
-107 22 -150 15 -74 15 -140 -2 -204 -15 -61 -13 -64 50 -74 160 -26 329 74
405 239 60 131 48 120 127 117 87 -4 141 16 188 68 44 48 74 148 46 151 -5 1
-13 2 -17 3 -5 1 -24 6 -43 10 -99 23 -139 70 -148 172 -5 63 -4 65 30 97 57
53 139 105 203 128 225 81 595 -11 1033 -256 151 -85 188 -114 178 -140 -10
-28 -66 -13 -159 43 -45 28 -106 57 -136 66 -70 20 -169 20 -220 0 -41 -16
-45 -22 -57 -87 -7 -42 -12 -46 -171 -157 -59 -41 -124 -91 -144 -110 -37 -36
-37 -36 -26 -80 15 -56 85 -133 151 -167 43 -23 67 -28 156 -31 58 -2 110 -9
117 -14 7 -5 19 -33 27 -62 18 -62 47 -92 84 -88 91 10 211 50 347 114 164 79
227 93 233 51 2 -12 -9 -61 -23 -108 -59 -194 -20 -299 149 -397 39 -23 102
-68 140 -101 82 -71 147 -102 237 -116 65 -11 146 -3 187 17 9 5 43 14 74 21
99 21 243 148 361 317 31 45 63 87 71 93 22 18 39 -21 40 -91 l1 -59 -98 -92
c-53 -51 -98 -99 -99 -107 -1 -8 -2 -44 -3 -80 l0 -65 -685 -5 c-755 -6 -724
-3 -757 -69 -16 -33 -18 -78 -21 -506 -3 -422 -5 -472 -20 -489 -20 -22 -195
-110 -377 -191 -164 -72 -395 -165 -411 -165 -16 0 -41 87 -55 190 -12 91 -1
185 32 259 10 24 19 52 19 63 0 24 76 58 130 58 45 0 60 -18 60 -74 0 -19 3
-41 6 -50 9 -24 48 -19 82 9 l30 25 12 -29 c15 -37 45 -65 62 -58 8 2 22 31
32 63 10 32 31 84 48 116 36 71 40 147 11 186 -39 52 -68 66 -140 66 l-66 0
38 33 c21 18 94 70 164 116 180 120 290 238 291 310 0 33 -4 40 -28 49 -27 11
-28 13 -24 65 4 53 4 54 -44 102 -67 67 -138 85 -241 61 -37 -9 -46 -7 -79 15
-20 13 -52 27 -71 31 -38 7 -39 8 -48 78 -6 42 -14 57 -59 101 -118 119 -279
159 -483 120 -88 -17 -196 -52 -352 -114 -233 -94 -410 -124 -596 -102 -120
14 -135 9 -135 -42 0 -17 7 -54 17 -83 l16 -52 -43 -54 c-74 -90 -162 -177
-241 -238 -117 -90 -125 -112 -89 -228 11 -35 20 -78 20 -96 0 -52 -26 -126
-71 -200 -58 -96 -60 -129 -14 -189 83 -108 90 -197 31 -371 -42 -122 -41
-153 5 -188 134 -103 150 -140 128 -300 -17 -115 -8 -132 82 -164 107 -39 128
-83 139 -294 4 -74 10 -142 14 -151 9 -21 54 -45 101 -54 110 -19 155 -83 179
-253 8 -56 20 -109 26 -117 9 -11 33 -15 79 -15 88 0 139 -15 178 -53 62 -58
89 -145 102 -328 10 -142 24 -174 84 -190 125 -33 164 -62 188 -137 6 -20 13
-99 16 -176 4 -168 13 -186 100 -211 69 -20 117 -65 133 -125 13 -48 9 -92
-21 -218 -25 -107 -24 -118 7 -186 51 -112 40 -174 -50 -274 -25 -29 -47 -60
-48 -70 0 -9 -2 -63 -2 -119 -1 -138 -1 -138 -154 -137 -64 0 -134 3 -154 7
-57 12 -205 115 -280 196 -146 158 -241 433 -225 656 4 59 19 123 51 221 84
260 107 425 89 645 -9 120 -13 135 -34 153 -15 13 -23 29 -21 43 2 12 -1 60
-6 107 -12 103 -47 184 -127 291 -61 81 -191 207 -238 231 -27 14 -31 14 -45
0 -13 -13 -14 -26 -6 -81 7 -47 7 -97 -2 -173 -17 -138 -32 -196 -84 -312
-104 -234 -126 -333 -117 -524 3 -67 7 -128 9 -136 4 -20 -18 -18 -137 16 -87
24 -116 27 -220 26 -98 -2 -136 -7 -210 -29 -67 -20 -112 -27 -175 -27 -76 -1
-90 2 -130 28 -25 16 -61 44 -81 63 -34 32 -37 33 -53 18 -23 -24 -29 -58 -23
-131 17 -214 256 -424 684 -600 180 -74 198 -94 295 -334 100 -247 207 -411
372 -575 212 -209 466 -328 736 -342 321 -16 677 73 890 225 117 83 286 250
363 359 118 166 212 381 255 584 35 161 45 289 39 499 -5 188 -6 201 -46 355
-23 88 -73 254 -112 369 -38 115 -68 215 -65 222 12 32 146 8 172 -31 8 -13
35 -103 59 -200 172 -691 472 -1251 954 -1783 61 -67 111 -129 111 -137 0 -13
-35 -15 -228 -15 -248 0 -377 -12 -672 -61 -270 -45 -396 -89 -810 -284 -281
-132 -412 -185 -680 -273 -476 -157 -865 -247 -927 -213 -31 16 -36 68 -23
250 11 157 11 162 -10 206 -26 53 -121 144 -182 174 -24 11 -70 26 -101 32
-110 22 -234 -27 -332 -132 -113 -121 -124 -269 -35 -471 81 -184 129 -404
134 -625 4 -156 11 -179 73 -233 126 -111 347 -126 728 -50 423 86 744 192
1542 511 205 82 427 167 493 189 292 98 615 152 709 119 38 -14 46 -38 37
-127 -18 -190 -18 -248 -3 -331 20 -105 44 -153 104 -215 91 -92 208 -154 408
-219 488 -156 1154 -190 1709 -86 424 79 879 288 956 438 31 61 33 100 11 186
-30 121 -54 307 -44 346 8 29 16 37 58 52 44 15 79 17 285 13 370 -6 445 -22
1090 -231 600 -194 903 -279 1270 -355 264 -55 346 -64 517 -57 199 7 312 43
381 122 41 46 46 69 39 181 -8 122 5 223 54 418 33 133 40 175 40 258 0 88 -3
105 -25 141 -70 121 -236 165 -443 118 -51 -12 -106 -21 -123 -21 -36 0 -49
23 -74 125 -23 95 -55 142 -102 151 -77 14 -198 -19 -252 -69 -59 -55 -71
-146 -45 -343 9 -66 13 -129 10 -138 -7 -16 -17 -18 -90 -14 -176 11 -595 123
-1252 336 -523 170 -721 208 -1135 219 -319 8 -500 -19 -771 -113 -201 -69
-202 -71 -157 -308 26 -142 31 -196 32 -316 0 -174 -6 -193 -71 -221 -136 -59
-424 -113 -695 -131 -284 -19 -647 15 -915 87 -121 32 -158 48 -178 78 -8 14
-25 86 -36 163 -30 201 -16 386 32 430 19 17 22 17 64 -4 24 -12 99 -60 165
-107 158 -110 337 -223 425 -268 88 -45 153 -61 209 -53 112 17 414 203 792
487 179 135 370 319 555 534 329 384 566 807 723 1295 66 202 58 187 100 182
34 -4 36 -6 36 -43 0 -54 28 -67 109 -51 84 17 100 16 208 -23 112 -41 326
-129 363 -150 67 -38 99 -49 150 -48 75 0 172 34 277 97 75 45 91 52 111 43
19 -9 27 -5 58 31 20 23 40 42 46 42 21 0 208 -183 218 -214 5 -17 25 -99 44
-182 42 -183 50 -204 110 -274 26 -30 48 -64 51 -75 13 -72 47 -370 54 -470 8
-127 1 -182 -26 -192 -31 -12 -123 16 -263 82 -140 65 -251 102 -270 90 -13
-8 -13 -39 2 -87 11 -36 10 -40 -18 -69 -16 -17 -55 -42 -87 -57 -75 -35 -74
-55 6 -98 56 -30 70 -44 101 -109 16 -33 8 -58 -24 -75 -11 -6 -20 -20 -20
-32 0 -20 4 -20 73 -15 39 2 137 12 217 20 80 9 192 21 250 26 163 16 205 36
293 140 9 12 28 21 41 21 36 0 39 25 12 104 -35 101 -49 252 -36 406 17 208
25 241 77 302 24 29 51 61 59 71 20 25 35 22 94 -19 29 -20 83 -47 121 -59 38
-13 89 -38 114 -55 72 -50 227 -127 291 -146 33 -9 67 -24 78 -33 10 -9 64
-84 119 -168 82 -123 108 -155 138 -168 78 -36 104 22 115 253 5 118 3 157 -9
198 -14 47 -14 54 4 104 34 98 17 360 -24 368 -20 4 -21 19 -7 110 22 148 28
249 18 342 -10 106 -39 203 -61 208 -22 4 -27 34 -27 153 0 343 -176 826 -426
1176 -135 187 -329 383 -497 502 -249 177 -447 196 -660 65 -73 -45 -109 -47
-149 -6 -55 54 -54 143 1 257 55 111 161 209 321 298 36 19 94 61 130 91 35
31 85 68 110 83 65 37 138 110 167 168 14 28 38 64 53 81 49 56 68 112 81 231
17 163 2 202 -130 352 -80 90 -142 132 -246 166 -120 39 -319 76 -415 78 -86
1 -113 -6 -155 -43 -35 -31 -198 -51 -458 -57 -266 -6 -414 4 -626 43 -259 48
-296 45 -385 -37 -55 -50 -83 -97 -72 -124 8 -22 50 -18 72 6 27 30 48 39 107
49 62 9 76 5 70 -21 -4 -15 14 -40 69 -97 40 -42 91 -100 111 -128 61 -85 149
-139 285 -176 106 -29 368 -30 624 -4 154 16 189 18 202 7 9 -8 16 -18 16 -23
0 -5 19 -36 42 -68 33 -48 42 -70 46 -115 8 -101 -48 -153 -279 -263 -383
-181 -602 -338 -676 -486 -20 -39 -49 -90 -65 -114 -44 -63 -85 -158 -107
-242 -25 -99 -28 -415 -5 -548 30 -176 120 -394 244 -593 59 -95 220 -311 304
-409 31 -36 56 -70 56 -77 0 -7 -20 -26 -44 -43 -55 -37 -106 -99 -137 -165
-35 -73 -58 -83 -150 -61 -130 32 -305 123 -327 171 -19 41 -14 108 14 218 23
87 26 115 21 197 -3 52 -12 118 -21 146 l-16 51 -77 -1 -77 -1 5 515 c2 283 4
830 4 1215 -1 789 2 764 -70 800 -38 19 -64 20 -468 23 -353 3 -429 6 -434 17
-2 8 2 46 11 84 9 38 16 94 16 123 0 30 5 59 11 65 7 7 55 9 148 6 200 -8 301
20 397 109 56 52 100 143 114 239 17 112 19 119 35 119 8 0 54 -12 102 -27 78
-24 105 -27 238 -27 146 -1 152 0 203 27 42 22 52 32 47 45 -23 54 -10 72 72
105 67 26 138 81 158 123 33 70 -7 121 -137 174 -31 13 -60 29 -62 37 -3 8 1
33 9 56 21 59 20 61 -30 85 -89 43 -200 24 -345 -58 -97 -55 -180 -85 -262
-95 -60 -8 -108 -1 -108 15 0 5 46 31 103 59 56 28 161 85 232 127 323 191
536 265 850 295 136 13 431 5 452 -13 32 -26 2 -117 -57 -177 -41 -40 -69 -46
-145 -32 -85 15 -82 16 -107 -31 -49 -92 -19 -260 57 -327 50 -43 95 -55 190
-47 61 5 85 4 92 -6 6 -7 25 -48 43 -91 58 -141 174 -238 318 -268 64 -13 191
-6 202 11 7 11 -6 115 -16 131 -2 5 -9 59 -14 121 -6 62 -13 125 -16 139 -6
33 17 59 54 59 50 0 102 20 102 38 0 10 -4 22 -10 28 -12 12 -48 76 -120 216
-182 356 -366 560 -622 689 -135 68 -228 89 -423 95 -273 9 -417 -21 -650
-136 -176 -86 -283 -161 -438 -309 -122 -116 -157 -144 -157 -126 0 3 19 42
41 88 79 157 109 275 109 432 0 130 -20 228 -67 329 -38 80 -81 126 -120 126
-11 0 -42 -11 -69 -25 -27 -14 -57 -25 -68 -25 -10 0 -58 38 -106 84 -99 94
-172 136 -237 136 -40 0 -44 -3 -69 -46 -22 -38 -27 -60 -31 -137 -6 -132 -6
-133 -64 -162 -64 -33 -89 -73 -89 -143 0 -93 42 -159 138 -214 78 -44 149
-112 180 -173 36 -70 37 -162 2 -225 -31 -55 -95 -105 -160 -124 -76 -23 -251
-31 -317 -16 -66 16 -82 37 -90 113 -5 51 -4 56 21 72 91 60 97 228 11 304
-42 37 -109 71 -185 96 -30 10 -72 29 -92 42 -20 14 -71 35 -114 49 -91 28
-152 65 -158 97 -3 12 -19 126 -36 252 -42 308 -116 762 -131 805 -6 19 -21
45 -32 57 -25 28 -18 46 32 77 47 30 83 73 132 158 42 75 43 75 180 23 50 -19
104 -35 119 -35 16 0 45 -11 64 -23 41 -28 701 -277 734 -277 13 0 35 -9 50
-20 15 -10 155 -67 312 -125 272 -102 287 -106 340 -100 103 13 150 52 150
127 0 42 -31 93 -67 111 -27 14 -184 72 -502 183 -84 30 -161 54 -172 54 -10
0 -35 10 -56 21 -31 18 -471 178 -918 335 -118 42 -145 58 -145 85 0 35 18 56
67 77 45 19 381 146 578 217 118 43 599 221 650 241 204 79 368 139 405 148
64 17 110 78 110 146 0 41 -4 52 -26 69 -32 25 -128 29 -153 7 -18 -16 -407
-146 -436 -146 -10 0 -26 -6 -34 -13 -21 -18 -572 -217 -600 -217 -12 0 -34
-9 -49 -19 -27 -20 -528 -207 -581 -217 -24 -5 -31 -1 -49 31 -12 20 -22 42
-22 50 0 28 -58 56 -137 65 -43 5 -96 12 -118 15 -24 4 -67 0 -108 -9 -38 -9
-85 -16 -106 -16 -22 0 -59 -11 -87 -27 -27 -14 -71 -30 -97 -34 -27 -4 -64
-20 -82 -34 l-34 -25 -153 54 c-289 103 -451 166 -468 181 -9 8 -27 15 -40 15
-26 0 -564 194 -597 216 -12 8 -30 14 -40 14 -29 0 -416 132 -431 147 -15 15
-104 17 -140 3z m1329 -4031 c16 -16 20 -28 15 -52 -9 -44 -56 -113 -120 -176
l-54 -53 -64 11 c-36 6 -68 18 -75 27 -8 10 -11 48 -10 103 2 100 -4 93 137
135 106 31 144 32 171 5z m-1770 -2784 c126 -16 249 -44 350 -80 109 -38 119
-46 119 -103 0 -27 -5 -53 -12 -60 -31 -31 -258 0 -441 60 l-99 32 -39 78
c-21 43 -39 80 -39 83 0 8 48 5 161 -10z"/>
</g>
</svg>
