<?xml version="1.0" standalone="no"?>
<!DOCTYPE svg PUBLIC "-//W3C//DTD SVG 20010904//EN"
 "http://www.w3.org/TR/2001/REC-SVG-20010904/DTD/svg10.dtd">
<svg version="1.0" xmlns="http://www.w3.org/2000/svg"
 width="1237.000000pt" height="1280.000000pt" viewBox="0 0 1237.000000 1280.000000"
 preserveAspectRatio="xMidYMid meet">
<metadata>
Created by potrace 1.15, written by Peter Selinger 2001-2017
</metadata>
<g transform="translate(0.000000,1280.000000) scale(0.100000,-0.100000)"
fill="#000000" stroke="none">
<path d="M5 12393 c-24 -1266 37 -2488 175 -3513 407 -3013 1573 -5302 3650
-7163 631 -566 1390 -1117 2226 -1616 l171 -102 214 124 c2224 1288 3682 2760
4619 4662 720 1464 1134 3187 1264 5260 34 536 40 776 41 1485 l0 725 -124
273 -124 272 -6052 0 -6053 0 -7 -407z"/>
</g>
</svg>
