<?xml version="1.0" standalone="no"?>
<!DOCTYPE svg PUBLIC "-//W3C//DTD SVG 20010904//EN"
 "http://www.w3.org/TR/2001/REC-SVG-20010904/DTD/svg10.dtd">
<svg version="1.0" xmlns="http://www.w3.org/2000/svg"
 width="1280.000000pt" height="664.000000pt" viewBox="0 0 1280.000000 664.000000"
 preserveAspectRatio="xMidYMid meet">
<metadata>
Created by potrace 1.15, written by Peter Selinger 2001-2017
</metadata>
<g transform="translate(0.000000,664.000000) scale(0.100000,-0.100000)"
fill="#000000" stroke="none">
<path d="M5790 6630 c-162 -23 -358 -80 -447 -131 -63 -36 -164 -127 -192
-173 -49 -78 -48 -172 4 -349 45 -155 85 -213 85 -123 0 94 44 152 116 150 83
-2 240 -98 282 -173 47 -83 46 -247 -3 -356 -30 -69 -30 -65 -5 -65 23 0 24
-9 9 -99 -16 -92 -55 -169 -156 -307 -47 -65 -116 -168 -151 -228 -97 -163
-188 -249 -287 -270 -45 -10 -109 36 -177 125 -113 148 -166 293 -175 474 -4
99 0 137 42 380 71 410 72 578 5 758 -31 82 -76 136 -155 184 -127 79 -171 88
-400 87 -211 0 -236 -2 -900 -64 -231 -22 -494 -44 -585 -50 -91 -6 -649 -15
-1240 -21 -1214 -10 -1330 -16 -1417 -69 -90 -54 -33 -254 112 -397 64 -62 92
-81 199 -133 69 -33 132 -70 140 -81 21 -31 5 -68 -71 -158 -104 -123 -124
-181 -83 -234 24 -31 201 -92 370 -127 58 -12 116 -29 129 -37 21 -14 23 -20
19 -78 -3 -53 -11 -75 -52 -145 -63 -110 -76 -148 -76 -236 0 -67 2 -75 25
-90 13 -9 75 -25 137 -36 117 -20 180 -21 527 -2 l124 7 -6 -62 c-4 -34 -18
-106 -32 -160 -14 -55 -25 -107 -25 -115 0 -34 54 -75 120 -92 80 -20 338 -14
440 10 188 45 200 44 200 -17 0 -22 -7 -82 -16 -133 -19 -106 -14 -138 24
-157 48 -25 97 -28 207 -12 60 8 132 15 161 15 64 0 65 -3 45 -141 -8 -53 -11
-104 -8 -112 3 -9 25 -19 54 -23 66 -10 255 10 327 35 33 12 70 21 83 21 20 0
23 -5 23 -35 0 -19 -18 -79 -40 -134 -46 -113 -51 -164 -19 -182 20 -10 126
-8 252 7 l47 6 0 -135 c0 -153 10 -194 48 -204 16 -4 84 5 162 20 205 41 181
49 201 -71 19 -113 37 -152 73 -152 13 0 83 29 155 65 73 36 143 65 156 65 56
0 99 -91 120 -254 9 -70 13 -76 49 -76 34 0 81 22 180 83 33 20 64 37 68 37
32 0 100 -123 123 -222 7 -33 16 -63 20 -66 3 -3 37 -1 76 4 38 5 72 8 74 5 3
-2 5 -23 5 -47 0 -80 28 -192 65 -257 47 -86 46 -118 -6 -196 -50 -75 -69
-134 -115 -351 -19 -95 -45 -188 -60 -218 -35 -72 -29 -84 43 -80 56 3 58 2
61 -24 4 -35 -57 -153 -112 -215 -39 -45 -163 -18 -300 65 -142 86 -240 106
-465 96 -145 -7 -147 -7 -196 20 -57 30 -71 32 -78 12 -14 -37 43 -149 123
-240 52 -60 55 -76 15 -76 -44 0 -74 -19 -95 -60 -21 -41 -45 -51 -68 -28 -20
20 -14 44 23 88 40 48 42 59 15 119 -52 114 -134 197 -270 272 -20 11 -97 14
-385 14 -349 0 -362 1 -411 22 -68 29 -196 41 -512 49 -326 8 -333 6 -293 -87
10 -24 22 -62 25 -84 l7 -40 -178 -1 c-158 0 -191 -3 -293 -28 -63 -15 -161
-37 -217 -48 -65 -14 -103 -26 -103 -34 0 -7 35 -43 77 -81 43 -37 105 -94
138 -125 l60 -57 -30 -13 c-19 -8 -76 -13 -157 -13 -70 0 -130 -3 -133 -7 -4
-4 10 -16 32 -27 21 -10 72 -55 113 -98 82 -86 142 -123 282 -173 129 -47 137
-68 47 -116 -60 -33 -71 -51 -37 -58 13 -3 118 -9 233 -14 200 -9 214 -11 295
-41 252 -95 531 -88 789 18 40 17 78 28 85 24 6 -4 36 -28 66 -53 30 -26 78
-60 105 -76 47 -27 56 -29 160 -28 134 2 293 33 387 76 72 33 77 33 173 -3 84
-32 284 -32 395 0 41 12 98 26 125 32 28 6 95 35 150 64 169 90 272 108 341
62 52 -36 88 -34 158 8 64 39 87 43 107 19 40 -48 126 -59 161 -19 27 31 42
31 113 -1 48 -22 66 -26 113 -21 67 7 101 30 119 81 21 63 25 65 91 50 69 -17
307 -60 377 -68 28 -4 67 -9 89 -12 37 -6 38 -5 33 18 -4 13 -11 77 -17 143
-7 66 -16 127 -21 136 -11 22 -50 35 -169 54 -178 30 -205 44 -129 66 32 10
65 10 147 2 171 -18 170 -18 225 -124 l48 -92 -23 -24 -23 -25 29 -23 c28 -22
29 -26 16 -50 -8 -14 -29 -41 -47 -60 -32 -33 -44 -75 -23 -75 6 0 26 7 45 15
34 13 36 13 51 -10 24 -37 48 -31 89 25 41 56 72 68 61 23 -18 -73 -19 -83 -3
-83 9 0 34 26 56 58 38 57 68 89 75 81 2 -2 -1 -28 -7 -57 -9 -40 -8 -55 2
-65 15 -15 40 13 76 83 13 25 32 53 44 64 19 17 21 18 27 2 4 -10 1 -42 -5
-73 -7 -30 -10 -57 -7 -60 9 -9 55 37 73 72 23 46 54 75 79 75 33 0 37 -13 19
-72 -8 -28 -15 -58 -15 -65 0 -30 31 -9 79 52 28 36 55 65 60 65 17 0 18 -13
5 -63 -18 -67 -6 -78 45 -43 37 26 41 27 64 12 13 -9 32 -14 40 -10 11 4 25
-4 39 -21 86 -104 112 -110 187 -40 26 25 55 45 64 45 9 0 28 -20 43 -45 46
-79 75 -81 160 -9 28 24 57 44 64 44 7 0 34 -16 60 -35 63 -46 103 -47 162 -2
27 20 52 51 68 84 14 29 30 55 37 57 7 3 38 1 70 -4 32 -5 180 -28 328 -50
590 -87 730 -111 772 -131 37 -18 49 -19 93 -10 41 9 80 6 218 -14 93 -13 180
-29 194 -34 37 -14 58 -49 58 -97 0 -73 15 -75 148 -11 154 73 263 111 272 96
4 -6 10 -34 13 -61 8 -65 31 -92 72 -84 16 3 85 34 152 68 129 65 130 66 184
26 13 -9 38 -4 125 25 132 43 211 63 284 72 76 9 118 23 130 45 14 25 -10 43
-108 79 -145 54 -170 75 -117 99 14 7 99 26 188 42 205 39 221 43 225 62 5 29
-64 72 -205 128 -87 35 -138 61 -138 70 0 10 23 18 75 27 41 7 86 17 100 24
l25 11 -35 30 c-53 44 -187 107 -265 123 -93 20 -140 19 -199 -4 -45 -17 -54
-17 -105 -4 -30 8 -73 24 -94 35 -34 17 -38 22 -25 34 8 8 51 20 96 28 92 14
113 26 92 51 -17 21 -99 62 -159 81 -83 26 -213 28 -351 4 -94 -16 -198 -23
-420 -30 -163 -5 -304 -12 -313 -16 -10 -3 -31 -25 -47 -48 -36 -53 -38 -53
-360 -110 -531 -94 -687 -118 -755 -120 l-69 -1 3 42 c2 39 0 43 -32 56 -65
27 -91 85 -157 346 -35 137 -37 162 -10 186 22 20 28 83 10 101 -6 6 -19 72
-30 148 -25 169 -27 179 -56 237 -26 53 -91 114 -176 165 l-59 36 5 42 c3 22
10 80 17 129 l11 87 57 16 c31 8 81 22 111 31 78 22 130 50 172 96 35 39 39
40 120 47 99 9 123 18 165 62 l33 34 -22 43 c-24 48 -16 78 18 74 11 -2 73
-10 138 -18 131 -17 199 -12 245 16 26 16 31 25 31 57 0 21 -7 47 -15 58 -18
23 -20 88 -2 102 6 5 64 13 127 17 195 11 270 41 290 114 5 21 16 44 23 50 7
5 58 17 113 26 140 22 196 35 216 52 16 14 16 18 -7 62 -29 57 -41 131 -26
160 11 19 20 21 114 21 203 0 349 29 362 72 4 10 4 41 0 68 -5 38 -3 56 11 79
30 51 64 60 291 76 280 20 340 32 438 93 56 35 178 157 173 173 -3 8 -26 20
-51 27 -45 13 -57 24 -38 37 5 3 87 12 183 20 212 18 297 31 368 58 56 20 161
85 213 132 l29 26 -36 39 c-42 47 -66 91 -66 122 0 48 14 55 206 108 234 65
370 138 502 269 69 70 100 124 82 147 -7 8 -18 14 -25 14 -24 0 -131 60 -163
91 -31 31 -33 35 -30 97 l3 66 131 27 c215 44 324 80 440 145 110 60 152 136
105 183 -11 11 -73 56 -138 100 -142 96 -153 105 -153 119 0 6 36 43 80 84 97
88 224 244 257 314 24 54 41 181 29 228 -6 24 -11 26 -60 26 -29 0 -120 -7
-202 -15 -82 -8 -205 -19 -274 -25 -1164 -96 -1685 -103 -2670 -40 -762 49
-951 50 -1124 6 -218 -56 -360 -158 -433 -312 l-37 -78 -8 -356 c-16 -750 -30
-814 -209 -984 -50 -47 -108 -95 -130 -107 -77 -39 -211 -37 -249 3 -33 35
-122 276 -175 470 -25 95 -33 192 -39 470 l-1 77 -61 45 c-77 55 -94 83 -155
251 -72 202 -119 286 -209 375 -160 161 -470 276 -765 285 -77 2 -169 0 -205
-5z m431 -103 c161 -42 289 -110 423 -224 76 -65 176 -182 176 -206 0 -16 -7
-18 -45 -16 -24 2 -47 1 -50 -2 -3 -3 20 -43 50 -89 70 -105 86 -160 90 -310
3 -116 4 -120 39 -177 38 -61 61 -123 70 -185 l5 -38 -72 0 c-90 0 -116 13
-145 71 -27 54 -22 75 20 84 l31 7 -6 67 c-23 249 -40 408 -48 427 -21 58
-112 70 -145 20 -21 -33 -10 -66 37 -112 51 -49 52 -80 4 -100 -19 -8 -35 -20
-35 -27 0 -7 20 -46 45 -87 24 -41 45 -82 45 -91 0 -11 -18 -23 -52 -35 -43
-16 -54 -24 -56 -44 -3 -32 31 -88 61 -99 39 -15 60 -48 65 -104 3 -41 0 -57
-16 -77 l-19 -24 -76 37 c-42 20 -80 37 -86 37 -18 0 -72 -53 -90 -89 -10 -20
-24 -63 -30 -96 -25 -125 -56 -195 -86 -195 -33 0 -105 128 -105 188 0 41 20
42 43 2 22 -36 59 -40 81 -8 24 34 20 66 -19 147 l-35 73 -90 -86 c-114 -110
-129 -112 -169 -22 -36 78 -48 87 -73 53 -10 -14 -59 -55 -108 -92 -58 -43
-96 -79 -106 -101 -20 -42 -101 -134 -118 -134 -7 0 -18 10 -23 23 -30 61 -20
117 21 117 13 0 32 3 41 7 23 8 65 99 65 139 0 23 13 46 49 87 58 66 66 104
59 263 -4 88 -6 97 -30 117 -35 30 -54 71 -61 137 -10 82 -66 189 -130 244
l-52 46 37 0 c62 0 139 -21 229 -61 48 -22 92 -39 98 -39 32 0 16 109 -35 234
-31 76 -31 100 1 114 14 7 30 23 35 37 5 14 15 25 23 25 17 0 37 -20 37 -39 0
-31 32 -51 81 -51 39 0 51 5 67 25 11 14 25 25 31 25 6 0 11 -11 11 -25 0 -17
6 -25 18 -26 59 -4 114 17 132 51 8 16 6 22 -12 34 -56 35 -201 61 -407 71
-138 6 -204 26 -216 65 -17 54 53 70 275 66 126 -3 173 -9 251 -29z m6447 -53
c36 -10 26 -41 -30 -101 -104 -110 -256 -197 -433 -247 -140 -40 -418 -94
-545 -105 -148 -14 -873 -14 -1144 -1 -206 11 -431 41 -451 61 -7 7 -5 13 5
19 17 11 316 11 700 1 325 -9 816 3 1007 23 172 19 378 59 445 88 50 21 152
121 145 142 -6 17 -49 36 -83 36 -18 0 -191 -20 -385 -45 -614 -77 -898 -102
-1264 -112 -203 -5 -232 -4 -243 10 -12 14 -8 17 25 27 21 6 85 17 143 25 100
13 201 22 925 80 171 14 380 33 465 44 85 11 232 27 325 35 94 9 186 17 205
19 64 7 165 7 188 1z m-3048 -34 c221 -17 368 -51 358 -82 -7 -21 -94 -75
-223 -138 -230 -114 -294 -125 -665 -117 -140 3 -288 11 -328 17 l-73 11 -77
-79 c-48 -48 -112 -100 -170 -136 -68 -43 -91 -63 -88 -75 3 -9 15 -68 28
-131 31 -155 34 -516 5 -650 -35 -161 -143 -411 -232 -535 -76 -106 -212 -223
-332 -284 -23 -11 -49 -21 -57 -21 -20 0 -35 51 -42 145 -8 105 2 135 77 227
99 120 167 281 198 473 22 130 31 334 29 645 -3 286 -1 333 15 390 31 111 99
197 192 243 93 46 327 93 560 111 92 7 678 -3 825 -14z m-3985 -20 c107 -52
289 -320 246 -363 -9 -9 -32 -5 -104 20 -51 18 -121 37 -157 43 -101 16 -298
13 -359 -6 -29 -8 -56 -13 -59 -9 -3 3 -1 38 6 78 14 83 65 191 104 220 68 51
235 60 323 17z m-1365 -35 c61 -9 140 -25 175 -36 89 -27 162 -95 212 -196
l38 -76 3 -200 c5 -219 -2 -281 -50 -477 -53 -213 -40 -417 37 -579 49 -103
112 -187 200 -268 41 -38 75 -77 75 -85 0 -15 -34 -34 -74 -40 -10 -2 -28 -15
-39 -30 -17 -22 -22 -53 -31 -182 -6 -91 -16 -160 -23 -167 -49 -49 -356 256
-476 473 -96 174 -207 614 -207 823 0 89 36 269 92 463 15 53 6 62 -64 62
-108 0 -207 67 -262 178 -15 28 -30 52 -34 52 -5 0 -40 -11 -78 -24 -174 -59
-246 -70 -449 -70 -166 0 -201 3 -280 23 -163 42 -358 151 -417 233 -20 28
-20 32 -5 43 10 7 74 15 159 19 190 9 560 33 843 55 296 24 513 25 655 6z
m-2101 -115 c114 -8 161 -23 161 -50 0 -38 -41 -43 -440 -51 -212 -4 -556 -8
-766 -8 -457 -1 -593 -8 -602 -29 -8 -23 38 -57 110 -81 172 -57 464 -81 970
-81 440 0 703 21 933 75 56 13 63 13 102 -6 46 -22 106 -84 100 -102 -6 -19
-65 -34 -243 -61 -368 -55 -486 -67 -871 -87 -181 -10 -264 -9 -378 0 -233 19
-461 57 -640 107 -225 63 -465 230 -465 324 0 48 20 54 189 61 206 8 1704 0
1840 -11z m7330 -269 c20 -13 6 -42 -45 -95 -88 -93 -246 -142 -529 -167 -118
-11 -147 -10 -185 2 -46 14 -64 41 -36 52 9 4 86 9 173 13 176 7 259 22 332
59 82 41 77 64 -14 65 -105 1 -84 39 36 65 72 15 247 19 268 6z m-6460 -35
c69 -18 171 -41 226 -49 98 -16 251 -60 269 -78 5 -5 6 -12 3 -16 -4 -4 -103
-10 -220 -13 -268 -9 -292 -17 -194 -64 126 -62 169 -69 452 -70 271 -1 293
-4 315 -45 7 -14 6 -22 -7 -32 -25 -21 -264 -24 -411 -5 -66 9 -139 16 -162
16 -23 0 -76 12 -118 26 -151 50 -234 114 -304 235 -35 59 -47 106 -31 122 13
13 57 7 182 -27z m7800 -76 c47 -5 89 -14 94 -19 15 -15 -26 -71 -109 -151
-98 -93 -173 -140 -275 -174 -78 -26 -93 -27 -258 -27 -158 1 -292 7 -631 27
-97 6 -130 15 -130 34 0 19 62 23 480 31 475 8 538 14 603 59 37 25 103 117
92 128 -8 9 -151 5 -465 -14 -283 -16 -361 -16 -367 3 -8 22 194 83 342 102
96 12 521 13 624 1z m1516 -19 c63 -31 240 -156 243 -173 5 -24 -50 -80 -105
-110 -90 -50 -278 -107 -468 -145 -70 -13 -141 -17 -320 -18 -205 0 -257 4
-475 33 -248 34 -295 45 -295 72 0 43 143 49 790 36 496 -10 502 -9 607 60 94
62 101 105 22 132 -140 48 -226 94 -207 112 26 25 156 25 208 1z m-3001 -193
c0 -58 -36 -114 -114 -175 -123 -98 -252 -134 -491 -136 -146 -2 -175 5 -153
40 15 25 54 32 199 39 163 7 257 20 318 46 54 24 77 50 77 90 0 24 -4 28 -30
28 -16 0 -60 -12 -97 -26 -131 -49 -278 -64 -212 -21 39 25 165 73 294 111 66
19 131 39 145 45 14 6 34 9 45 8 17 -2 20 -9 19 -49z m-6991 10 c88 -40 26
-63 -191 -74 -113 -6 -148 -11 -165 -24 l-21 -17 26 -26 c35 -35 88 -42 313
-42 150 1 216 5 312 23 130 23 178 21 194 -9 21 -40 -59 -78 -249 -116 -111
-22 -429 -25 -509 -4 -65 16 -148 69 -231 146 -156 144 -124 165 253 162 191
-2 236 -5 268 -19z m-1468 -8 c238 -12 269 -15 259 -31 -12 -20 -55 -32 -326
-94 -164 -37 -159 -58 17 -92 117 -22 344 -13 560 22 100 17 182 25 198 21 30
-7 137 -104 137 -124 0 -19 -155 -55 -315 -72 -169 -18 -502 -24 -577 -11
-120 21 -340 102 -368 136 -7 8 10 52 52 139 l63 128 40 -6 c22 -3 139 -10
260 -16z m2303 -95 c75 -19 188 -44 251 -54 126 -22 145 -32 118 -59 -15 -14
-38 -17 -150 -17 -73 0 -152 2 -176 5 -56 6 -64 -11 -20 -48 97 -82 95 -80 76
-88 -62 -24 -193 82 -249 201 -31 66 -31 95 -3 95 9 0 78 -16 153 -35z m7446
-151 c9 -8 16 -21 16 -28 0 -24 -138 -173 -192 -207 -129 -84 -237 -106 -431
-90 -184 16 -537 67 -550 80 -8 8 -8 14 2 24 9 9 102 12 394 12 l382 0 55 26
c73 34 140 77 140 89 0 15 -171 12 -401 -6 -213 -16 -280 -16 -286 2 -9 26
126 58 352 84 214 24 254 27 377 29 103 1 130 -2 142 -15z m-1338 -26 c14 -46
6 -108 -20 -152 -52 -89 -188 -183 -317 -220 -107 -30 -355 -39 -386 -14 -37
30 0 45 158 63 200 22 313 59 382 123 26 25 37 74 19 86 -5 3 -33 -6 -63 -20
-58 -27 -178 -59 -187 -49 -14 13 42 48 178 111 136 62 206 92 222 93 4 1 10
-9 14 -21z m-5408 -68 c24 -15 32 -27 30 -43 -2 -18 -12 -23 -58 -30 -80 -13
-459 -1 -495 15 -27 11 -10 13 145 19 156 5 183 9 245 32 85 32 91 32 133 7z
m-1334 -59 c64 -7 83 -25 43 -40 -14 -6 -103 -19 -198 -30 -178 -21 -209 -31
-174 -57 41 -30 117 -44 246 -44 146 0 244 12 379 45 144 35 172 38 195 20 20
-15 20 -15 -3 -34 -58 -50 -231 -83 -531 -102 -275 -17 -338 -8 -410 63 -43
42 -61 79 -68 139 l-6 49 234 -1 c129 -1 261 -4 293 -8z m9360 -1 c17 -6 37
-31 60 -78 25 -50 45 -75 70 -90 29 -17 36 -27 36 -52 0 -85 -257 -257 -535
-356 -78 -28 -84 -29 -280 -28 -215 0 -310 12 -477 60 -205 59 -368 145 -368
195 0 10 9 28 20 39 34 34 92 26 287 -39 236 -79 297 -91 495 -98 331 -11 471
26 624 169 128 121 121 148 -39 148 -113 0 -364 17 -451 30 -119 19 -92 42 76
66 62 8 142 21 178 29 77 15 268 19 304 5z m-8615 -45 c45 -13 143 -34 218
-45 76 -11 139 -23 142 -26 19 -18 -93 -44 -193 -44 -34 0 -67 -4 -75 -9 -33
-21 28 -54 119 -66 75 -9 90 -14 90 -30 0 -23 -49 -29 -114 -16 -136 28 -252
108 -277 190 -10 34 -8 71 4 71 2 0 40 -11 86 -25z m-1877 -80 c93 -5 196 -20
206 -30 3 -2 0 -11 -7 -18 -15 -19 -95 -34 -273 -52 -169 -17 -219 -27 -253
-49 -38 -25 -17 -52 70 -92 186 -86 327 -85 625 5 74 23 147 41 163 41 35 0
75 -20 106 -54 l24 -26 -23 -25 c-46 -49 -295 -124 -530 -160 -166 -26 -390
-31 -475 -11 -76 18 -189 76 -205 105 -10 21 -5 44 33 136 23 57 39 115 52
197 l6 37 107 4 c112 3 211 1 374 -8z m5548 -10 c14 -7 33 -22 43 -33 16 -18
17 -25 7 -60 -9 -29 -10 -52 -1 -91 24 -112 6 -142 -45 -76 -49 65 -102 254
-77 278 7 8 35 1 73 -18z m-390 -100 c37 -50 44 -55 79 -55 32 0 44 -6 66 -32
15 -18 34 -47 43 -65 23 -49 8 -59 -61 -39 -60 17 -155 94 -182 147 -16 29
-20 81 -8 92 13 14 23 6 63 -48z m-2619 15 c26 -15 24 -36 -7 -57 -20 -13 -49
-17 -132 -16 -184 0 -197 22 -35 59 111 26 146 28 174 14z m2068 -67 c9 -6
-43 -103 -66 -125 l-25 -23 -23 27 c-28 32 -61 129 -52 151 5 14 15 13 84 -6
43 -11 80 -22 82 -24z m116 29 c15 -50 -45 -312 -94 -409 -27 -54 -108 -143
-130 -143 -5 0 -19 12 -30 26 -44 55 -36 87 23 98 72 14 142 145 165 311 15
106 49 167 66 117z m3893 -17 c109 -22 182 -53 182 -76 0 -23 -53 -58 -175
-115 -138 -64 -180 -72 -278 -51 -45 10 -117 25 -159 34 -43 9 -87 24 -98 35
-46 43 -13 53 116 34 225 -33 382 -29 425 10 48 44 -41 64 -280 64 -177 0
-241 5 -241 20 0 10 69 26 170 40 41 5 86 12 100 14 62 9 167 5 238 -9z
m-3568 -141 c-16 -157 -75 -329 -130 -379 l-22 -20 -23 29 c-49 62 -110 211
-98 242 9 25 42 -13 49 -58 7 -42 38 -88 58 -88 37 0 73 75 117 243 37 143 41
154 49 131 5 -11 4 -56 0 -100z m2610 96 c0 -31 -38 -99 -73 -132 -71 -66
-163 -97 -307 -105 -110 -6 -190 7 -190 30 0 24 115 73 136 58 5 -3 17 -18 27
-33 21 -34 47 -36 119 -7 97 38 167 104 139 132 -36 36 14 76 97 77 46 0 52
-2 52 -20z m-6305 1 c18 -7 18 -9 -5 -24 -14 -9 -63 -32 -110 -52 -138 -59
-142 -75 -16 -75 108 0 244 24 320 57 84 35 135 40 166 15 21 -17 23 -22 10
-36 -45 -55 -370 -125 -522 -112 -147 12 -300 76 -314 132 -17 68 91 101 341
102 61 0 119 -3 130 -7z m2740 -80 c-8 -24 -15 -52 -15 -63 0 -10 -7 -35 -15
-56 -13 -29 -18 -34 -25 -22 -23 36 -5 141 31 179 31 33 43 14 24 -38z m238
-46 c-2 -98 -36 -171 -119 -263 -88 -98 -165 -126 -180 -66 -10 37 2 54 37 54
58 0 136 105 209 283 18 44 37 76 44 74 7 -3 10 -31 9 -82z m-2093 59 c88 -16
120 -28 108 -40 -4 -3 -37 -15 -74 -25 -37 -10 -69 -21 -72 -24 -3 -3 4 -15
16 -27 18 -19 38 -23 153 -30 72 -4 138 -12 148 -17 31 -18 -39 -34 -149 -35
-90 -1 -113 2 -160 23 -101 45 -180 118 -180 169 0 20 5 22 63 22 34 0 100 -7
147 -16z m5210 -18 c0 -10 -69 -46 -89 -46 -28 0 -27 28 2 40 22 9 87 13 87 6z
m-2199 -103 c42 -72 93 -133 131 -160 l38 -26 40 18 c33 15 44 16 63 6 28 -16
60 -58 52 -71 -13 -21 -83 -31 -147 -21 -58 9 -67 14 -111 62 -55 59 -94 130
-103 188 -8 52 7 53 37 4z m606 -5 c-22 -85 -20 -106 12 -168 28 -53 30 -61
15 -67 -22 -8 -52 11 -129 86 -71 68 -112 117 -117 141 -3 17 47 26 161 28 61
2 63 1 58 -20z m2373 -89 c116 -20 195 -50 214 -81 14 -23 -13 -51 -86 -87
-153 -77 -313 -66 -538 36 -36 17 -71 37 -79 46 -12 15 -10 17 24 17 21 0 97
-14 169 -32 103 -25 154 -32 238 -32 97 -1 109 1 129 20 l21 22 -24 16 c-13 9
-81 24 -150 35 -140 21 -176 34 -157 57 13 16 62 13 239 -17z m-3441 -158 c23
-84 45 -160 50 -168 6 -12 31 11 112 103 159 181 213 239 221 239 4 0 39 -63
76 -140 75 -152 110 -195 164 -195 95 0 185 67 212 159 9 30 16 63 16 72 0 35
22 30 76 -20 82 -75 131 -100 239 -122 53 -10 101 -22 106 -25 21 -13 5 -42
-52 -96 l-60 -58 -1123 0 -1123 0 -59 41 c-32 23 -62 47 -66 53 -14 21 -8 55
16 82 l23 28 82 -16 c105 -20 145 -12 187 38 36 42 47 39 65 -14 22 -68 49
-112 68 -112 21 0 61 33 222 178 56 50 109 92 116 92 9 0 13 -13 13 -39 0 -34
48 -201 69 -239 12 -21 149 132 205 228 56 96 75 115 93 97 6 -7 30 -81 52
-166z m-3174 159 c11 -17 -15 -40 -86 -76 -73 -36 -89 -52 -68 -65 45 -28 216
20 363 102 92 51 139 61 150 33 16 -41 -48 -87 -203 -148 -104 -42 -214 -60
-318 -54 -88 5 -127 22 -162 68 l-24 33 24 18 c83 65 302 124 324 89z m-969
-45 c20 -8 34 -20 32 -27 -5 -14 -18 -18 -190 -57 -119 -28 -199 -58 -213 -81
-19 -31 43 -84 135 -116 42 -14 80 -19 160 -17 130 2 221 24 367 91 123 57
174 70 192 48 15 -17 0 -33 -78 -83 -110 -71 -230 -120 -320 -132 -169 -22
-518 -9 -575 21 -16 9 -18 17 -12 75 9 87 34 203 47 219 12 15 78 30 239 55
146 22 172 22 216 4z m6559 -93 c55 -22 162 -68 237 -101 75 -33 188 -74 250
-91 125 -34 290 -51 302 -31 13 20 -12 39 -97 69 -45 17 -120 48 -167 70 -47
21 -114 49 -150 61 -134 46 -161 71 -77 71 46 0 139 -31 315 -104 62 -26 156
-58 208 -72 99 -25 134 -39 134 -52 0 -13 -53 -57 -85 -71 -56 -24 -120 -41
-180 -47 -52 -5 -81 1 -232 45 -323 94 -681 254 -657 293 12 19 98 2 199 -40z
m-4635 13 c10 -12 7 -19 -14 -39 -65 -59 -287 -154 -526 -223 -243 -70 -423
-72 -459 -4 -10 17 -6 26 25 61 76 84 354 193 342 134 -2 -10 -39 -43 -82 -74
-82 -57 -97 -74 -72 -83 40 -16 294 65 481 153 176 83 277 108 305 75z m7398
-54 c4 -53 -17 -78 -94 -115 -88 -42 -248 -94 -341 -112 -102 -19 -302 -21
-423 -4 -179 25 -471 113 -530 160 -24 19 -24 21 -7 34 23 18 49 14 247 -35
279 -68 364 -83 500 -83 115 0 139 3 295 43 174 44 205 58 205 95 0 12 4 27 9
34 11 17 59 31 101 29 34 -2 35 -3 38 -46z m-266 11 c7 -7 1 -16 -18 -29 -43
-28 -314 -30 -484 -5 -140 21 -136 25 45 42 123 11 444 5 457 -8z m-3511 -138
c22 -27 -16 -1733 -46 -2059 -17 -180 -34 -243 -82 -296 -102 -113 -287 -173
-726 -239 -270 -40 -315 -54 -395 -125 -35 -30 -72 -55 -83 -55 -11 0 -41 20
-67 45 -26 25 -66 57 -88 70 -82 48 -367 116 -569 135 -191 18 -424 84 -495
140 -43 34 -93 124 -114 204 -9 35 -19 150 -26 294 -9 216 -19 383 -50 890
-13 204 -29 809 -23 867 10 100 21 105 118 50 l63 -35 6 -142 c3 -79 11 -291
16 -473 40 -1306 49 -1485 78 -1525 58 -81 184 -122 442 -145 313 -27 463 -53
520 -88 19 -12 63 -47 98 -79 73 -67 53 -70 176 33 86 73 109 79 471 124 309
38 382 53 454 90 110 55 111 63 121 625 5 250 9 712 9 1026 l1 571 76 56 c81
61 94 66 115 41z m1110 -64 c24 -6 87 -25 139 -41 52 -17 146 -41 210 -55 282
-60 289 -63 247 -118 -47 -61 -119 -105 -198 -122 -98 -20 -243 -20 -316 1
-113 32 -193 83 -150 98 13 4 24 2 152 -32 88 -24 126 -22 235 10 67 19 110
43 110 60 0 15 -57 35 -140 49 -135 23 -470 151 -441 170 13 7 80 -1 152 -20z
m-4551 10 c13 -9 11 -13 -10 -31 -101 -85 -450 -234 -629 -270 -34 -6 -87 -9
-117 -6 -102 11 -209 80 -202 131 2 16 22 26 88 48 91 30 304 78 347 78 26 0
26 0 7 -21 -22 -25 -86 -58 -163 -85 -29 -10 -56 -25 -59 -33 -8 -22 36 -51
79 -51 71 0 338 111 504 209 71 42 123 52 155 31z m-1590 -59 c0 -18 -32 -50
-140 -140 -37 -32 -48 -46 -39 -51 22 -12 140 6 288 44 193 49 311 59 311 25
0 -15 -157 -86 -231 -104 -87 -21 -413 -41 -444 -27 -20 9 -23 20 -30 97 -4
55 -3 91 3 97 12 12 228 77 260 78 15 0 22 -6 22 -19z m4733 -278 c10 -293 8
-1522 -3 -1641 -12 -138 -33 -183 -98 -216 -74 -38 -149 -53 -452 -91 -151
-19 -292 -40 -313 -47 -21 -6 -74 -42 -119 -79 l-81 -68 -61 56 c-34 30 -77
63 -96 73 -50 26 -159 46 -340 65 -283 28 -341 36 -398 56 -74 25 -128 62
-147 98 -20 40 -31 211 -50 801 -8 267 -20 616 -25 777 -6 160 -10 319 -10
352 l0 61 1093 0 1094 0 6 -197z m-3023 146 c0 -67 -250 -304 -403 -381 -103
-52 -261 -56 -298 -7 -23 30 -69 148 -69 176 0 16 12 26 53 42 98 40 218 67
238 55 7 -4 -18 -36 -61 -79 -83 -83 -89 -111 -27 -109 24 1 65 17 119 49 126
72 329 209 362 244 36 38 86 44 86 10z m3941 -38 c41 -10 151 -48 244 -84 94
-36 209 -75 255 -86 94 -24 132 -50 114 -79 -21 -34 -129 -113 -184 -133 -113
-43 -264 -4 -363 94 l-42 42 27 3 c14 2 73 -10 130 -27 140 -41 195 -47 241
-28 75 32 55 45 -279 168 -146 54 -277 105 -290 114 -58 38 26 47 147 16z
m2449 4 c0 -17 -86 -75 -166 -112 -67 -30 -98 -28 -102 8 l-3 26 -152 6 c-147
5 -264 27 -253 46 3 5 101 12 218 16 117 4 242 10 278 15 118 13 180 12 180
-5z m-785 -85 c132 -22 285 -43 340 -47 124 -7 141 -14 94 -39 -53 -29 -304
-24 -459 9 -135 29 -221 60 -258 93 l-27 23 35 1 c19 0 143 -18 275 -40z
m-5306 -62 c-19 -46 -156 -250 -223 -331 -73 -87 -122 -119 -189 -124 -44 -4
-59 0 -98 25 -51 33 -91 79 -113 134 l-16 36 59 54 c76 71 220 168 249 168 45
0 25 -47 -78 -176 -71 -89 -92 -127 -84 -148 9 -24 35 -19 99 20 110 66 254
201 321 301 56 84 66 95 77 84 6 -6 5 -22 -4 -43z m3354 4 c40 -21 132 -79
203 -129 71 -50 163 -112 204 -139 60 -39 75 -54 75 -74 0 -35 -78 -73 -161
-78 -51 -3 -73 0 -116 20 -89 42 -143 101 -110 122 5 3 46 -9 93 -25 120 -43
149 -50 149 -34 0 17 -51 57 -180 140 -190 123 -293 209 -273 229 13 13 45 5
116 -32z m-4893 -10 c0 -16 -34 -40 -108 -76 -81 -41 -95 -66 -34 -66 40 1
217 47 294 76 44 17 49 17 64 3 57 -58 -134 -126 -366 -132 -103 -2 -110 -1
-135 23 -14 13 -25 33 -23 44 7 47 308 172 308 128z m6605 -102 c66 -11 137
-20 158 -20 21 0 47 -5 58 -11 20 -10 20 -11 2 -31 -56 -62 -279 -130 -433
-132 -101 -1 -166 20 -205 66 -38 45 -21 54 67 34 137 -32 355 -31 365 1 5 14
-55 37 -132 52 -130 25 -157 36 -138 54 12 13 139 6 258 -13z m-4867 -82 c-2
-13 -44 -59 -105 -113 -57 -49 -114 -105 -128 -124 -42 -59 -27 -109 26 -81
12 7 65 48 118 92 52 43 102 77 111 76 8 -2 16 -16 18 -31 4 -31 -40 -78 -134
-143 -75 -52 -234 -71 -279 -34 -40 33 4 148 89 235 84 86 184 143 254 144 29
1 33 -2 30 -21z m3018 -44 c21 -15 62 -46 89 -69 28 -23 85 -67 128 -98 50
-37 77 -64 77 -76 0 -46 -98 -87 -236 -97 l-81 -7 -38 35 c-23 20 -35 40 -31
46 5 8 46 12 125 12 81 0 123 4 135 13 17 13 17 14 -5 29 -13 8 -53 30 -89 48
-118 60 -160 107 -146 165 8 32 24 32 72 -1z m-4473 -82 c-2 -13 -21 -50 -43
-82 -43 -63 -62 -120 -40 -120 6 0 70 27 141 61 142 66 209 92 217 84 9 -9
-50 -64 -114 -105 -86 -57 -164 -83 -251 -84 -99 -1 -101 3 -73 111 19 72 31
95 61 126 31 32 44 38 71 35 28 -2 33 -7 31 -26z m5862 -101 c86 -16 163 -35
171 -42 9 -7 14 -25 12 -43 -3 -26 -9 -33 -43 -44 -58 -19 -302 -28 -348 -13
-38 13 -67 35 -67 52 0 5 58 9 134 9 74 0 137 4 141 9 5 8 -91 51 -115 51 -16
0 -80 33 -80 42 0 13 29 10 195 -21z m-5596 -205 c-57 -89 -73 -126 -60 -139
20 -20 112 19 262 113 141 88 190 110 170 73 -21 -38 -149 -148 -236 -201 -71
-43 -197 -92 -239 -92 -45 0 -52 14 -61 115 -3 44 -9 92 -11 107 -5 27 -1 30
98 78 l103 51 3 -27 c2 -17 -8 -45 -29 -78z m5146 28 c125 -48 225 -109 225
-135 0 -41 -204 -55 -339 -24 -91 21 -139 40 -168 68 -49 45 -21 47 140 13
160 -35 184 -38 192 -26 9 15 -12 30 -135 95 l-105 56 50 -6 c28 -4 91 -22
140 -41z m-4365 -112 c0 -92 -179 -242 -353 -297 -134 -43 -193 -29 -213 48
-5 23 -1 34 22 58 39 41 168 139 182 139 19 0 14 -24 -13 -61 -55 -76 -69
-126 -39 -136 18 -6 158 93 241 171 94 87 120 106 150 106 19 0 23 -6 23 -28z
m3828 -57 c73 -35 91 -55 48 -55 -51 0 -166 56 -166 81 0 18 47 8 118 -26z
m-3445 -62 c-2 -57 -61 -175 -126 -254 -62 -75 -152 -139 -221 -159 -43 -12
-48 -11 -61 6 -23 28 -82 134 -100 177 -15 37 -15 38 12 63 40 38 125 94 142
94 22 0 8 -108 -22 -174 l-26 -56 26 0 c64 0 185 111 259 237 46 79 79 115
102 111 13 -3 17 -13 15 -45z m3415 -55 c84 -31 92 -32 254 -33 140 -1 171 -3
184 -17 25 -25 9 -56 -35 -69 -58 -17 -233 -7 -316 19 -38 12 -81 24 -95 26
-28 6 -110 76 -110 94 0 18 23 14 118 -20z m-313 -36 c146 -78 375 -222 375
-236 0 -50 -124 -71 -241 -42 -76 20 -189 71 -189 85 0 22 54 16 153 -15 43
-13 92 -24 109 -24 30 0 31 1 13 20 -9 10 -60 40 -111 64 -151 73 -264 151
-264 183 0 27 65 12 155 -35z m-3100 -241 c3 -11 5 -51 3 -90 -1 -56 2 -75 15
-88 16 -16 19 -16 52 1 25 14 39 16 46 9 16 -16 2 -67 -24 -91 -37 -34 -61
-35 -96 -6 -33 27 -101 150 -101 181 0 17 77 103 91 103 4 0 10 -9 14 -19z
m3055 -140 c57 -46 53 -66 -25 -102 -50 -24 -69 -29 -78 -20 -17 17 4 45 38
51 41 7 42 27 1 46 -36 18 -51 38 -40 56 10 16 66 0 104 -31z m-94 -609 c50
-37 112 -106 125 -140 12 -31 49 -307 49 -364 0 -44 -10 -47 -83 -22 -57 19
-121 75 -187 162 -59 79 -89 147 -72 164 9 9 22 0 55 -37 23 -27 68 -76 100
-109 l57 -61 26 29 c23 26 26 36 22 82 -6 71 -58 173 -119 233 -52 51 -56 60
-37 79 17 17 20 16 64 -16z m-2660 -146 c11 -28 -133 -306 -158 -306 -22 0 -3
123 29 190 47 98 113 157 129 116z m2404 -103 c59 -93 74 -147 74 -273 0 -121
-17 -208 -55 -282 -27 -53 -59 -67 -104 -45 -86 41 -205 192 -244 309 -38 117
-49 248 -21 248 14 0 28 -30 76 -163 52 -143 85 -202 127 -228 43 -26 73 -24
93 6 14 21 15 49 10 202 -3 98 -8 199 -12 226 -5 39 -3 47 10 47 9 0 30 -21
46 -47z m-2187 -64 c-2 -91 -42 -268 -58 -259 -6 3 -9 51 -8 114 3 153 25 244
57 233 7 -3 10 -34 9 -88z m312 17 c8 -53 -9 -174 -41 -284 -45 -156 -114
-276 -175 -308 -30 -15 -35 -15 -65 0 -34 16 -52 52 -41 81 4 8 21 21 40 29
57 23 95 90 181 323 84 228 90 237 101 159z m125 4 c6 -11 22 -84 35 -163 35
-200 54 -273 76 -293 44 -40 85 33 129 227 17 74 35 138 40 143 17 17 11 -154
-9 -249 -28 -127 -61 -214 -92 -237 -24 -18 -29 -18 -61 -5 -57 24 -105 102
-129 207 -28 122 -33 390 -8 390 4 0 13 -9 19 -20z m-571 -115 c-5 -44 -19
-99 -30 -121 -41 -86 -202 -213 -256 -202 -22 5 -21 63 2 108 17 33 36 38 55
15 31 -37 63 -1 162 182 34 63 65 110 69 106 4 -5 3 -44 -2 -88z m1865 79 c10
-26 7 -159 -5 -213 -12 -59 -128 -298 -157 -324 -19 -17 -21 -17 -59 28 -52
58 -120 195 -133 264 -11 60 -12 153 -1 190 3 13 16 30 28 38 36 24 50 -13 62
-167 15 -193 42 -259 90 -216 29 26 57 108 87 249 14 67 32 132 40 145 17 26
39 29 48 6z m-856 -64 c18 -11 37 -32 42 -46 13 -32 13 -520 0 -681 -10 -128
-17 -173 -29 -173 -4 0 -31 22 -61 50 l-53 49 7 113 c3 62 11 238 16 392 10
253 17 316 38 316 4 0 22 -9 40 -20z m400 8 c32 -40 46 -185 62 -620 6 -163
15 -309 19 -324 6 -22 15 -30 41 -35 32 -7 41 -15 74 -64 13 -19 14 -20 34 -2
28 26 39 16 53 -49 24 -107 -33 -98 -103 17 -45 74 -77 104 -64 58 3 -13 9
-46 13 -73 5 -43 4 -48 -13 -44 -12 2 -36 35 -65 88 -33 61 -51 85 -65 85 -20
0 -21 -6 -8 -82 9 -55 -7 -56 -41 -4 -22 33 -27 56 -36 166 -6 70 -9 288 -7
484 3 322 5 360 21 384 19 29 66 37 85 15z m1098 -195 c70 -298 110 -411 161
-465 34 -36 75 -37 101 -3 11 14 25 25 30 25 15 0 112 -148 112 -171 0 -26
-52 -25 -149 1 -159 44 -249 148 -287 331 -18 88 -21 257 -5 287 16 30 29 28
37 -5z m-1268 -286 c2 -139 1 -289 -3 -334 -8 -93 -9 -94 -89 -72 l-38 11 4
296 c5 322 6 329 61 362 59 36 62 24 65 -263z m691 92 c1 -118 -15 -284 -35
-360 -21 -84 -19 -119 7 -119 42 0 114 109 170 258 13 34 34 75 45 90 19 23
24 25 38 13 37 -31 6 -167 -65 -288 -51 -86 -144 -177 -204 -198 -74 -27 -75
-28 -68 -101 4 -43 2 -64 -5 -64 -13 0 -43 41 -71 100 l-22 45 34 -37 33 -37
0 82 c0 45 8 116 17 157 9 41 25 163 37 270 22 218 34 276 58 303 16 18 17 18
23 0 4 -10 8 -61 8 -114z m-1435 69 c8 -13 21 -59 30 -104 32 -172 90 -269
192 -320 32 -16 59 -34 61 -40 6 -19 -26 -44 -55 -44 -68 0 -209 144 -253 260
-26 66 -37 216 -20 248 15 28 27 28 45 0z m-3632 -57 c28 -25 30 -31 19 -45
-28 -33 -101 -6 -101 38 0 46 35 49 82 7z m430 -38 c45 -49 61 -142 31 -175
-17 -19 -58 -25 -67 -10 -10 17 -29 189 -23 206 8 19 30 11 59 -21z m-272 -13
c11 -11 20 -29 20 -39 0 -38 -71 -66 -97 -40 -13 13 -1 53 24 81 21 23 28 23
53 -2z m158 -89 c-3 -32 -8 -39 -57 -63 -109 -56 -169 -21 -63 36 30 15 55 33
57 40 3 6 9 25 15 41 l12 30 19 -24 c14 -17 19 -36 17 -60z m1128 63 c13 -9
52 -53 85 -97 77 -103 78 -129 4 -169 -27 -15 -58 -28 -67 -28 -26 0 -22 27 7
46 41 27 34 77 -20 160 -39 60 -56 104 -40 104 3 0 17 -7 31 -16z m1724 3 c0
-26 -63 -108 -133 -173 -72 -66 -171 -130 -239 -155 -69 -24 -64 2 32 144 83
124 129 179 130 156 0 -9 -6 -32 -14 -50 -17 -41 -6 -69 29 -69 17 0 38 17 72
56 76 89 91 104 108 104 8 0 15 -6 15 -13z m-2595 -17 c9 -14 -4 -52 -16 -45
-12 8 -12 55 0 55 6 0 13 -5 16 -10z m3431 -24 c7 -28 -12 -136 -26 -150 -29
-29 -41 79 -16 139 17 41 33 45 42 11z m-2773 -29 c36 -28 46 -58 29 -83 -9
-13 -87 -66 -129 -88 -49 -25 -48 -3 3 55 46 52 46 52 39 107 -7 60 -8 60 58
9z m131 13 c35 -31 90 -126 80 -141 -7 -12 -143 -54 -150 -46 -4 3 5 22 20 41
32 43 32 60 1 111 -14 22 -25 46 -25 53 0 22 39 13 74 -18z m2153 8 c6 -7 20
-44 33 -81 12 -38 44 -101 71 -140 27 -40 49 -79 49 -88 0 -22 -68 -81 -88
-77 -12 2 -20 22 -29 70 -29 159 -106 215 -208 153 -22 -14 -44 -25 -48 -25
-16 0 -107 93 -107 110 0 32 32 33 77 0 24 -16 48 -30 53 -30 5 0 41 27 81 60
72 60 98 71 116 48z m1240 -39 l48 -51 57 6 58 6 -6 -63 c-9 -104 -33 -234
-50 -277 -19 -46 -44 -57 -100 -43 -69 16 -78 42 -83 224 -3 163 3 249 19 249
5 0 30 -23 57 -51z m-4047 -29 c0 -45 -24 -80 -54 -80 -55 0 -54 66 1 126 24
27 26 27 39 9 8 -10 14 -35 14 -55z m4859 17 c33 -68 28 -90 -26 -133 -27 -21
-58 -49 -70 -62 -17 -21 -27 -24 -54 -18 -44 9 -69 33 -69 68 0 34 35 107 53
109 6 1 25 2 42 3 23 1 35 10 54 39 13 20 30 37 37 37 7 0 22 -19 33 -43z
m-4462 -4 c-7 -43 -11 -47 -59 -67 -31 -13 -38 -13 -48 -1 -9 11 -3 23 31 59
23 25 51 46 62 46 17 0 19 -5 14 -37z m7327 17 c45 -23 42 -37 -11 -63 -67
-34 -240 -87 -285 -87 -44 0 -50 7 -51 66 0 53 22 81 74 95 54 13 239 5 273
-11z m-8703 -80 c29 -28 39 -45 39 -68 0 -39 -32 -74 -63 -70 -18 2 -23 12
-28 48 -3 25 -14 62 -23 83 -9 21 -14 42 -11 47 9 15 46 -2 86 -40z m-183 10
c49 -35 62 -57 62 -104 0 -40 -28 -76 -60 -76 -19 0 -21 3 -36 80 -3 14 -17
37 -31 52 -23 24 -25 31 -15 53 15 32 30 32 80 -5z m2578 5 c20 -20 23 -28 14
-45 -20 -38 -90 -23 -90 19 0 53 36 66 76 26z m5612 19 c50 -14 20 -46 -122
-133 -55 -34 -115 -64 -133 -67 -54 -10 -63 5 -63 107 l0 88 43 4 c73 6 251 7
275 1z m-5860 -33 c3 -8 -1 -12 -9 -9 -7 2 -15 10 -17 17 -3 8 1 12 9 9 7 -2
15 -10 17 -17z m435 -13 c25 -34 16 -58 -22 -58 -32 0 -42 20 -34 64 7 33 28
31 56 -6z m-2262 2 c22 -12 43 -28 46 -37 14 -37 -105 -93 -198 -93 -43 0 -51
3 -60 24 -7 14 -9 40 -5 60 9 49 41 50 62 1 22 -54 64 -41 64 20 0 18 3 35 7
38 12 12 43 7 84 -13z m-661 -32 c66 -45 90 -108 42 -108 -42 0 -143 95 -127
120 10 17 50 11 85 -12z m1422 10 c8 -21 -2 -38 -23 -38 -19 0 -27 29 -12 43
11 11 31 8 35 -5z m172 -71 c9 -14 7 -21 -8 -33 -24 -17 -68 -18 -84 -2 -18
18 -15 56 5 67 21 12 72 -7 87 -32z m2238 7 c27 -46 41 -189 34 -339 -5 -108
-9 -137 -29 -175 -44 -86 -98 -54 -118 70 -13 86 -7 334 10 391 15 47 49 91
69 87 9 -2 24 -17 34 -34z m-2811 15 c26 -14 109 -127 109 -148 0 -10 -10 -22
-23 -28 -12 -6 -49 -33 -82 -60 -33 -28 -79 -62 -103 -77 -48 -30 -95 -32
-100 -4 -4 22 28 49 119 101 40 23 80 54 88 69 14 25 13 29 -17 79 -41 64 -37
93 9 68z m220 -39 c21 -22 44 -59 51 -81 l12 -42 -62 -58 c-86 -81 -188 -130
-206 -100 -9 13 14 35 101 96 46 31 85 60 87 64 3 4 -9 27 -25 52 -17 24 -34
55 -40 67 -22 56 30 57 82 2z m2844 -5 c29 -59 35 -348 9 -430 -28 -91 -109
-159 -128 -109 -12 31 -26 198 -26 311 0 142 14 208 51 246 39 39 68 33 94
-18z m-3176 -20 c50 -54 52 -79 9 -105 -61 -37 -70 -30 -82 65 -3 22 -8 50
-12 63 -5 19 -3 22 19 22 16 0 38 -15 66 -45z m2756 20 c0 -21 -25 -31 -51
-21 -12 5 -13 10 -4 26 15 27 55 23 55 -5z m4256 10 c0 -5 -9 -11 -21 -13 -20
-3 -27 8 -13 22 10 9 34 3 34 -9z m-134 -13 c22 -14 25 -57 6 -79 -16 -19 -42
-24 -223 -42 -295 -30 -665 -61 -737 -61 -69 0 -82 12 -30 29 35 12 691 122
857 145 58 8 107 14 110 15 3 0 10 -3 17 -7z m1257 -16 c48 -8 91 -17 94 -21
12 -12 -26 -35 -115 -70 -108 -41 -147 -44 -164 -14 -13 26 -5 76 18 101 20
22 50 22 167 4z m-2814 -22 c13 -33 13 -227 0 -374 -8 -92 -16 -126 -38 -170
-19 -39 -33 -55 -47 -55 -49 0 -78 156 -73 386 3 133 5 147 26 174 52 66 115
85 132 39z m2424 10 c9 -3 16 -10 16 -14 0 -25 -343 -225 -376 -218 -9 2 -22
10 -27 20 -15 23 4 43 58 58 25 7 45 18 45 24 0 6 -16 26 -35 45 -19 18 -35
36 -35 41 0 14 26 29 66 39 44 10 264 14 288 5z m873 -16 c74 -18 94 -67 38
-88 -39 -15 -190 -13 -203 3 -11 12 -16 47 -14 79 3 27 85 30 179 6z m-8783
-11 c38 -31 30 -50 -30 -71 -74 -25 -88 -22 -80 16 15 77 57 97 110 55z m5620
-20 c62 -93 122 -451 87 -515 -15 -28 -61 -29 -85 -3 -9 10 -21 33 -27 52 -14
50 -33 386 -25 442 8 52 26 61 50 24z m-4219 -23 c47 -22 69 -57 54 -87 -20
-38 -70 -97 -79 -92 -4 2 -10 32 -14 66 -4 33 -12 72 -17 87 -7 18 -6 28 3 34
17 10 15 10 53 -8z m1477 -15 c23 -27 31 -90 26 -218 -3 -109 -4 -111 -37
-145 -47 -49 -97 -74 -113 -58 -29 29 -25 313 6 387 9 22 24 46 34 53 22 16
62 7 84 -19z m4414 20 c67 -12 144 -38 144 -49 0 -21 -214 -140 -252 -140 -26
0 -38 32 -38 100 0 104 15 113 146 89z m-4969 -52 c54 -55 65 -83 37 -94 -27
-10 -82 27 -114 75 -37 56 -38 72 -3 72 18 0 42 -16 80 -53z m2910 45 c27 -17
34 -63 24 -161 -19 -180 -64 -341 -101 -361 -33 -18 -57 -12 -64 15 -15 61 30
358 69 451 25 61 43 75 72 56z m-5904 -9 c9 -9 -12 -33 -29 -33 -17 0 -18 27
-1 33 18 8 23 8 30 0z m1920 -23 c72 -46 74 -70 10 -154 -57 -75 -80 -70 -51
11 11 30 9 39 -15 88 -15 31 -27 62 -27 70 0 23 32 18 83 -15z m1309 19 c21
-11 21 -12 4 -25 -13 -9 -17 -21 -14 -39 3 -14 2 -25 -2 -25 -10 0 -70 68 -70
80 0 20 51 25 82 9z m148 -7 c0 -20 -18 -42 -35 -42 -6 0 -20 6 -30 14 -16 12
-17 16 -6 30 19 23 71 21 71 -2z m-580 -22 c45 -23 52 -32 44 -54 -7 -19 -35
-29 -58 -20 -21 8 -49 61 -42 80 7 18 9 18 56 -6z m-2394 -16 c54 -36 93 -74
110 -107 15 -27 14 -28 -18 -41 -18 -7 -50 -16 -70 -20 -43 -8 -58 10 -58 69
0 21 -9 48 -21 65 -22 30 -20 60 4 60 8 0 32 -12 53 -26z m1378 -17 c49 -43
49 -43 36 -78 -19 -54 -62 -112 -94 -127 -15 -8 -30 -11 -33 -9 -3 3 8 28 23
55 l28 50 -17 61 c-30 107 -19 116 57 48z m2484 31 c-3 -7 -13 -15 -24 -17
-16 -3 -17 -1 -5 13 16 19 34 21 29 4z m-4018 -38 c45 -36 64 -71 56 -104 -7
-29 -57 -68 -63 -49 -2 6 -22 40 -43 76 -69 113 -44 151 50 77z m2366 25 c49
-20 42 -40 -31 -95 -69 -52 -139 -80 -157 -62 -9 9 4 26 50 70 34 31 62 65 62
74 0 15 12 25 33 27 4 1 24 -6 43 -14z m-953 -53 c23 -24 27 -34 19 -49 -18
-33 -101 -103 -122 -103 -24 0 -27 32 -4 50 30 26 37 51 24 91 -7 20 -10 45
-7 54 6 14 10 14 34 1 16 -8 41 -28 56 -44z m-946 32 c6 -16 -28 -58 -61 -76
-13 -7 -22 -6 -33 5 -18 18 -4 46 36 70 33 21 50 21 58 1z m1677 0 c9 -3 16
-15 16 -25 0 -14 -7 -19 -30 -19 -23 0 -30 5 -30 19 0 11 6 22 13 24 6 3 13 6
14 6 1 1 8 -2 17 -5z m-1110 -29 c12 -33 -19 -61 -55 -50 -21 7 -25 35 -7 53
17 17 55 15 62 -3z m3644 -7 c14 -14 16 -74 3 -82 -11 -7 -53 73 -45 86 7 12
28 10 42 -4z m-501 -39 c168 -43 178 -48 192 -102 13 -54 14 -107 2 -126 -6
-9 -21 -11 -52 -7 -111 17 -415 67 -425 71 -16 5 1 97 27 146 34 68 56 70 256
18z m3322 28 c8 -10 7 -19 -3 -33 -13 -17 -31 -19 -185 -22 -284 -7 -342 16
-124 48 147 23 296 26 312 7z m-5509 -27 c0 -20 -15 -35 -47 -44 -20 -6 -23
-4 -23 18 0 28 34 58 56 49 8 -3 14 -13 14 -23z m-2261 -16 c34 -28 40 -64 16
-84 -23 -19 -63 12 -71 54 -11 60 7 70 55 30z m150 0 c32 -41 27 -75 -19 -123
-47 -48 -65 -52 -57 -13 3 15 11 52 17 82 18 93 24 98 59 54z m9363 -5 c102
-20 228 -75 228 -99 0 -14 -90 -37 -241 -60 -168 -26 -213 -25 -217 9 -3 18
11 38 61 86 35 35 75 65 88 68 13 2 25 5 26 6 1 0 26 -4 55 -10z m-6762 -12
c0 -28 -74 -77 -116 -77 -35 0 1 67 46 83 29 11 70 7 70 -6z m488 -3 c26 -18
29 -39 6 -48 -25 -10 -104 -7 -125 4 -28 15 -24 29 14 45 42 19 78 19 105 -1z
m5892 -4 c63 -12 68 -15 54 -38 -12 -18 -266 -139 -313 -148 -26 -6 -31 -3
-37 20 -3 15 -1 48 6 74 11 45 11 47 -16 69 -21 16 -24 23 -14 27 8 2 22 7 30
10 21 8 226 -2 290 -14z m-6224 -2 c9 -14 -43 -60 -64 -56 -24 5 -25 25 -3 47
23 23 56 27 67 9z m2767 3 c16 -6 29 -23 37 -45 19 -58 5 -65 -26 -13 -16 26
-32 47 -35 47 -4 0 -14 -11 -23 -25 -9 -14 -21 -25 -26 -25 -14 0 -43 48 -35
60 8 13 75 13 108 1z m2936 -32 c17 -6 31 -17 31 -24 0 -29 -327 -252 -355
-241 -21 8 -19 55 3 63 28 10 52 35 52 54 0 10 -12 31 -26 48 -39 46 -14 80
59 82 18 0 59 6 92 14 76 17 104 18 144 4z m-7911 -46 c-3 -28 -4 -28 -93 -33
-62 -4 -98 -11 -116 -23 -27 -18 -63 -14 -56 7 6 19 75 48 150 61 112 20 119
20 115 -12z m554 -4 c96 -37 158 -88 158 -129 0 -21 -17 -45 -70 -99 -104
-105 -148 -92 -64 18 51 66 45 94 -26 141 -50 33 -90 72 -90 87 0 17 -1 18 92
-18z m6476 25 c12 -4 22 -14 22 -24 0 -42 -125 -51 -340 -25 -69 9 -133 18
-144 21 -25 8 -8 22 34 27 57 6 403 7 428 1z m-6833 -24 c17 -28 -43 -56 -72
-34 -17 13 -17 15 1 29 23 17 62 20 71 5z m-635 -39 c0 -20 -32 -37 -50 -26
-14 9 -13 32 3 38 28 12 47 7 47 -12z m1244 -23 c-3 -5 -12 -4 -20 3 -7 6 -11
15 -8 21 3 5 12 4 20 -3 7 -6 11 -15 8 -21z m808 6 c91 -34 94 -40 61 -104
-16 -29 -32 -52 -38 -51 -5 0 -14 16 -18 33 -11 41 -41 74 -89 99 -45 23 -51
49 -11 49 15 0 58 -12 95 -26z m735 7 c17 -11 34 -29 38 -41 8 -26 -20 -72
-42 -68 -24 5 -53 49 -60 91 -5 32 -3 37 13 37 11 0 33 -9 51 -19z m179 8 c3
-6 2 -15 -3 -20 -13 -13 -43 -1 -43 17 0 16 36 19 46 3z m-662 -29 c13 -13
-41 -70 -65 -70 -19 0 -45 62 -33 81 7 13 83 4 98 -11z m-1443 -2 c90 -30 108
-71 69 -149 -43 -83 -115 -140 -143 -113 -8 8 15 54 49 93 l26 31 -36 53 c-58
85 -47 113 35 85z m1742 1 c35 -18 67 -51 67 -68 0 -9 -23 -42 -50 -74 -28
-32 -50 -64 -50 -71 0 -14 -41 -36 -65 -36 -27 0 -15 39 30 101 49 67 51 75
30 103 -33 44 -11 70 38 45z m-2264 -33 c6 -7 8 -26 5 -44 -7 -33 -38 -69 -48
-54 -9 16 -25 96 -20 104 8 13 51 9 63 -6z m7513 -14 c11 -11 9 -16 -11 -31
-13 -10 -40 -23 -60 -30 -20 -7 -74 -31 -120 -54 l-84 -41 -18 23 c-14 17 -19
40 -19 80 0 32 3 61 7 65 14 13 291 2 305 -12z m-7129 -33 c32 -22 57 -45 57
-50 0 -12 -50 -85 -79 -116 -42 -45 -68 -21 -31 27 26 33 25 53 -4 87 -32 38
-48 71 -41 83 12 19 42 10 98 -31z m765 19 c2 -9 -10 -31 -26 -48 -23 -27 -38
-33 -80 -38 -56 -5 -61 1 -34 35 46 60 132 92 140 51z m450 2 c18 -11 32 -28
32 -39 0 -29 -22 -72 -34 -68 -15 5 -86 99 -86 115 0 19 51 14 88 -8z m533 10
c22 -12 26 -55 5 -63 -21 -8 -56 21 -56 49 0 26 18 31 51 14z m-2277 -43 c8
-22 6 -31 -7 -44 -33 -34 -77 26 -46 63 18 22 42 13 53 -19z m1570 -16 c26
-11 49 -27 52 -36 11 -29 -15 -93 -53 -130 -42 -41 -79 -48 -69 -12 35 133 32
150 -27 163 -35 7 -57 21 -57 37 0 15 102 1 154 -22z m5627 -1 c61 -12 90 -33
71 -52 -9 -9 -42 -8 -147 6 -139 18 -195 31 -195 47 0 12 205 11 271 -1z
m1729 -35 c105 -27 150 -43 150 -56 0 -7 -249 -94 -302 -106 -45 -9 -34 21 22
62 63 46 65 70 10 85 -49 13 -55 40 -9 40 17 0 75 -11 129 -25z m-8525 -7 c33
-15 29 -34 -16 -70 -71 -58 -164 -43 -129 19 16 28 73 63 102 63 9 0 29 -5 43
-12z m8233 -9 c66 -14 76 -33 36 -66 -44 -36 -312 -169 -321 -159 -22 22 7
192 41 235 12 16 151 10 244 -10z m-7220 -31 c7 -7 12 -19 12 -29 0 -24 -79
-109 -101 -109 -29 0 -35 28 -11 53 11 12 27 39 36 60 16 38 41 48 64 25z
m6725 -28 c26 -7 47 -18 47 -26 0 -18 -49 -51 -127 -83 -142 -58 -169 -51
-161 46 7 76 21 86 118 80 41 -3 96 -11 123 -17z m-6020 -35 c1 -5 -6 -11 -15
-13 -11 -2 -18 3 -18 13 0 17 30 18 33 0z"/>
<path d="M9040 6403 c-119 -6 -344 -33 -455 -54 -125 -25 -195 -51 -195 -74 0
-18 -10 -16 160 -20 74 -1 209 -12 300 -25 204 -27 500 -25 610 5 66 18 139
51 175 79 20 16 20 16 -5 36 -14 11 -54 29 -89 40 -55 17 -87 20 -250 18 -102
-1 -215 -3 -251 -5z"/>
<path d="M3855 6330 c-33 -4 -89 -15 -125 -23 -80 -19 -268 -33 -633 -48 -153
-6 -290 -14 -305 -18 l-27 -7 26 -17 c82 -54 242 -87 417 -87 158 0 247 13
497 72 164 38 192 42 315 43 124 0 142 -2 215 -29 44 -15 104 -41 134 -57 59
-31 121 -39 121 -15 0 19 -84 79 -161 116 -130 61 -331 90 -474 70z"/>
</g>
</svg>
