<?xml version="1.0" standalone="no"?>
<!DOCTYPE svg PUBLIC "-//W3C//DTD SVG 20010904//EN"
 "http://www.w3.org/TR/2001/REC-SVG-20010904/DTD/svg10.dtd">
<svg version="1.0" xmlns="http://www.w3.org/2000/svg"
 width="776.000000pt" height="1280.000000pt" viewBox="0 0 776.000000 1280.000000"
 preserveAspectRatio="xMidYMid meet">
<metadata>
Created by potrace 1.15, written by Peter Selinger 2001-2017
</metadata>
<g transform="translate(0.000000,1280.000000) scale(0.100000,-0.100000)"
fill="#000000" stroke="none">
<path d="M4320 12696 c-63 -57 -126 -115 -140 -130 l-24 -27 98 -98 99 -99
-59 -69 c-33 -37 -135 -165 -228 -283 -93 -118 -204 -256 -247 -305 -109 -128
-369 -378 -415 -400 -89 -41 -236 -156 -603 -471 l-254 -216 6 -72 c8 -88 44
-212 148 -504 104 -288 103 -283 50 -317 -23 -14 -44 -32 -47 -39 -3 -7 59
-114 137 -237 78 -123 144 -231 146 -240 5 -19 -22 -29 -82 -29 -45 0 -308
-29 -313 -35 -6 -5 34 -205 104 -523 35 -162 64 -295 64 -296 0 -2 -25 -6 -55
-10 -30 -3 -92 -15 -137 -25 -46 -11 -105 -21 -132 -23 l-48 -3 -166 375 c-91
206 -167 377 -169 379 -6 8 -312 -57 -468 -99 -383 -104 -840 -281 -1173 -455
-117 -61 -354 -199 -394 -229 -16 -12 27 -96 473 -937 270 -508 496 -933 503
-944 7 -11 20 -69 29 -130 75 -510 82 -1218 27 -2695 -30 -807 -27 -954 21
-1210 58 -305 231 -739 385 -967 311 -459 475 -626 874 -895 168 -114 300
-182 515 -268 346 -138 493 -163 970 -163 449 0 542 14 902 139 244 84 418
173 663 337 152 101 234 171 356 304 60 65 152 163 205 218 125 130 211 265
392 615 74 143 94 192 147 370 135 449 143 541 116 1336 -33 1023 -37 1184
-38 1724 -1 551 8 802 38 1040 30 235 27 228 197 515 263 445 486 800 818
1306 82 124 149 232 149 240 -1 24 -393 254 -681 399 -272 137 -493 224 -779
306 -140 40 -421 102 -541 118 -46 7 -47 6 -58 -26 -7 -18 -64 -184 -128 -368
-63 -184 -119 -339 -124 -344 -7 -7 -386 66 -395 77 -1 1 35 175 81 387 l82
385 -27 12 c-31 14 -326 64 -522 89 -76 10 -142 20 -147 23 -37 24 -341 542
-341 582 0 6 14 29 32 51 24 31 29 44 21 57 -5 9 -83 139 -173 289 -89 149
-166 272 -169 272 -6 0 -89 -49 -124 -73 -16 -10 -23 -7 -54 28 -41 46 -67 84
-62 89 2 1 210 163 461 359 l456 357 94 -10 c51 -5 120 -14 153 -20 89 -15
140 -13 156 7 31 36 151 133 173 139 19 4 33 -5 79 -53 125 -132 327 -359 326
-368 0 -5 -36 -39 -81 -75 -193 -154 -508 -443 -508 -465 0 -8 25 -17 66 -25
37 -6 162 -35 279 -65 149 -38 250 -57 338 -66 l126 -11 43 25 c24 14 73 53
111 87 53 48 72 61 90 56 12 -3 51 -39 87 -80 36 -41 69 -75 74 -75 20 -2 306
243 306 262 0 6 -36 46 -80 88 -44 42 -80 83 -80 91 0 18 115 130 223 217 42
34 77 68 77 74 -1 11 -45 63 -317 370 l-112 126 -162 -129 c-89 -72 -167 -130
-173 -130 -18 0 -192 184 -329 348 -47 57 -47 64 18 227 28 69 50 141 52 170
4 49 2 52 -56 119 -49 56 -61 77 -66 115 -9 63 -25 92 -60 107 -20 8 -37 26
-49 54 -19 45 -92 100 -130 100 -13 0 -34 18 -56 47 -22 30 -55 58 -89 75 -29
16 -69 41 -87 58 -31 26 -88 50 -123 50 -13 0 -113 -52 -167 -87 -20 -13 -26
-8 -99 78 -75 87 -145 149 -169 149 -7 0 -63 -47 -126 -104z"/>
</g>
</svg>
