<?xml version="1.0" standalone="no"?>
<!DOCTYPE svg PUBLIC "-//W3C//DTD SVG 20010904//EN"
 "http://www.w3.org/TR/2001/REC-SVG-20010904/DTD/svg10.dtd">
<svg version="1.0" xmlns="http://www.w3.org/2000/svg"
 width="1280.000000pt" height="1279.000000pt" viewBox="0 0 1280.000000 1279.000000"
 preserveAspectRatio="xMidYMid meet">
<metadata>
Created by potrace 1.15, written by Peter Selinger 2001-2017
</metadata>
<g transform="translate(0.000000,1279.000000) scale(0.100000,-0.100000)"
fill="#000000" stroke="none">
<path d="M6250 12639 c-80 -77 -176 -166 -215 -198 -404 -336 -846 -389 -1535
-185 -47 14 -222 70 -390 125 -479 157 -693 215 -945 256 -157 26 -582 25
-745 0 -575 -91 -1070 -335 -1478 -731 -549 -533 -845 -1255 -819 -2000 12
-349 61 -560 300 -1291 110 -335 148 -466 182 -631 72 -346 57 -621 -47 -876
-75 -183 -176 -323 -400 -553 l-161 -165 174 -178 c187 -190 261 -285 339
-433 101 -194 135 -342 134 -594 0 -268 -49 -496 -204 -965 -188 -567 -239
-750 -286 -1015 -26 -145 -28 -182 -29 -395 0 -245 8 -332 50 -540 104 -515
357 -983 735 -1360 368 -369 834 -621 1347 -730 184 -39 332 -54 543 -54 366
-1 621 53 1278 269 615 202 798 245 1075 252 132 4 188 2 265 -12 183 -33 339
-95 492 -198 111 -74 159 -115 332 -286 l158 -155 157 156 c87 86 183 176 213
200 171 137 351 226 555 274 65 16 117 19 285 18 179 0 222 -4 335 -27 185
-37 374 -91 740 -211 409 -134 560 -178 759 -220 213 -46 345 -60 556 -60 423
1 795 87 1175 274 740 362 1273 1048 1445 1856 40 190 54 335 54 554 -1 361
-57 626 -269 1265 -197 593 -244 792 -252 1070 -4 142 -2 199 11 270 35 191
108 364 219 522 57 81 224 268 346 388 l71 69 -158 161 c-235 238 -342 390
-419 594 -48 129 -66 227 -71 403 -8 289 37 501 238 1112 234 715 284 951 284
1326 0 297 -42 555 -133 828 -105 313 -247 577 -449 832 -93 117 -308 333
-422 424 -272 216 -607 389 -942 486 -390 112 -823 132 -1223 54 -195 -37
-391 -93 -835 -239 -590 -193 -787 -237 -1065 -238 -414 -1 -697 136 -1085
527 -63 64 -117 116 -120 116 -3 -1 -70 -64 -150 -141z"/>
</g>
</svg>
