<?xml version="1.0" standalone="no"?>
<!DOCTYPE svg PUBLIC "-//W3C//DTD SVG 20010904//EN"
 "http://www.w3.org/TR/2001/REC-SVG-20010904/DTD/svg10.dtd">
<svg version="1.0" xmlns="http://www.w3.org/2000/svg"
 width="1280.000000pt" height="589.000000pt" viewBox="0 0 1280.000000 589.000000"
 preserveAspectRatio="xMidYMid meet">
<metadata>
Created by potrace 1.15, written by Peter Selinger 2001-2017
</metadata>
<g transform="translate(0.000000,589.000000) scale(0.100000,-0.100000)"
fill="#000000" stroke="none">
<path d="M6389 5640 c-224 -243 -397 -334 -661 -347 -130 -7 -242 5 -412 43
-163 36 -229 57 -471 151 -290 113 -457 167 -612 200 -173 36 -427 38 -603 6
-283 -53 -497 -147 -682 -300 -233 -193 -375 -437 -444 -763 -28 -131 -26
-414 4 -590 23 -134 87 -403 137 -575 38 -131 91 -336 114 -442 l21 -92 -26
-118 c-14 -65 -31 -140 -39 -168 -8 -27 -30 -106 -49 -175 -152 -544 -180
-691 -180 -970 1 -172 3 -208 26 -310 33 -146 98 -312 168 -425 106 -171 307
-354 497 -453 225 -117 532 -181 817 -169 242 10 395 52 906 247 343 131 534
173 780 173 170 0 246 -15 365 -73 111 -53 192 -118 325 -258 l114 -120 115
120 c63 66 139 139 170 162 211 162 424 204 771 150 152 -23 300 -66 530 -154
521 -199 665 -238 921 -247 187 -7 302 6 484 52 273 70 471 179 645 355 175
177 287 392 340 650 16 79 20 137 20 303 0 292 -31 461 -177 977 -30 107 -68
253 -83 323 l-28 128 23 104 c13 58 40 165 60 238 19 72 60 223 90 335 30 112
67 267 82 345 26 133 28 159 28 397 0 245 -1 259 -27 360 -138 530 -521 871
-1103 982 -98 19 -153 23 -300 22 -158 0 -196 -4 -310 -28 -156 -33 -326 -88
-575 -186 -253 -99 -329 -124 -483 -159 -191 -43 -299 -55 -435 -48 -258 13
-404 86 -628 315 l-131 133 -94 -101z"/>
</g>
</svg>
