<?xml version="1.0" standalone="no"?>
<!DOCTYPE svg PUBLIC "-//W3C//DTD SVG 20010904//EN"
 "http://www.w3.org/TR/2001/REC-SVG-20010904/DTD/svg10.dtd">
<svg version="1.0" xmlns="http://www.w3.org/2000/svg"
 width="1280.000000pt" height="830.000000pt" viewBox="0 0 1280.000000 830.000000"
 preserveAspectRatio="xMidYMid meet">
<metadata>
Created by potrace 1.15, written by Peter Selinger 2001-2017
</metadata>
<g transform="translate(0.000000,830.000000) scale(0.100000,-0.100000)"
fill="#000000" stroke="none">
<path d="M6094 8290 c-26 -10 -30 -16 -39 -57 l-7 -33 276 0 c163 0 276 -4
276 -9 0 -28 -34 -41 -102 -41 l-70 0 -82 -85 c-89 -93 -107 -100 -163 -66
-17 11 -63 50 -102 86 -55 53 -72 75 -76 103 -12 70 -21 82 -62 82 -124 0
-200 -86 -238 -267 -15 -71 -18 -220 -6 -263 7 -22 9 -19 16 23 9 58 31 75
119 94 82 17 359 18 354 1 -6 -18 -61 -26 -223 -35 -114 -7 -140 -11 -140 -23
0 -12 20 -17 93 -22 118 -9 148 -23 146 -65 -2 -34 -58 -223 -101 -336 -32
-86 -57 -115 -152 -179 -91 -61 -213 -154 -339 -260 -115 -98 -128 -99 -233
-27 -177 122 -495 380 -504 409 -3 10 3 63 15 118 44 217 16 293 -134 369 -94
47 -158 52 -671 53 -442 0 -555 -5 -555 -25 0 -21 115 -149 186 -207 38 -31
103 -74 144 -96 l75 -41 236 -7 236 -7 124 -135 c144 -157 328 -332 741 -705
248 -224 299 -274 308 -305 6 -20 28 -134 50 -252 l40 -215 15 -595 c23 -943
25 -970 73 -970 25 0 40 36 52 123 16 111 67 161 166 162 75 0 90 -16 98 -113
7 -87 28 -127 67 -127 l24 0 3 319 c3 360 -1 341 82 380 39 18 68 21 227 24
198 4 252 -3 339 -44 l54 -25 2 -327 3 -327 24 -3 c13 -2 28 1 33 6 6 6 14 56
18 113 7 89 11 106 30 121 29 23 94 23 140 0 51 -25 75 -69 93 -168 12 -66 22
-94 41 -112 28 -28 80 -33 103 -9 26 26 33 143 43 717 13 746 21 885 66 1130
35 190 37 196 73 234 20 21 185 174 366 339 317 290 546 511 707 683 l76 81
218 6 c247 7 286 15 382 76 66 43 203 174 253 243 l31 43 -84 7 c-46 3 -293 6
-550 7 l-468 1 -92 -37 c-70 -27 -104 -48 -139 -82 -74 -73 -81 -143 -35 -342
8 -32 12 -68 9 -78 -10 -37 -485 -415 -591 -470 -20 -11 -28 -9 -60 16 -68 52
-451 373 -458 384 -4 7 -39 225 -79 487 -50 326 -77 477 -86 483 -8 5 -52 23
-99 41 l-85 32 -250 3 c-137 1 -260 -2 -271 -7z"/>
<path d="M6220 8143 c-76 -28 -60 -123 21 -123 69 0 81 106 14 123 -11 3 -27
3 -35 0z"/>
<path d="M5 7818 c17 -56 41 -91 94 -140 67 -62 126 -96 236 -135 l80 -28 905
-2 905 -3 -45 37 c-50 42 -97 88 -212 211 l-77 82 -946 0 -946 0 6 -22z"/>
<path d="M2096 7808 c41 -80 213 -231 320 -280 49 -23 50 -23 587 -26 317 -2
538 1 535 6 -1 5 -30 32 -63 59 -66 55 -165 169 -199 230 l-22 38 -587 3 -588
2 17 -32z"/>
<path d="M9529 7792 c-26 -46 -173 -222 -187 -222 -4 -1 -25 -17 -47 -36 l-40
-35 550 3 550 3 55 28 c30 16 78 47 107 69 66 50 203 193 203 211 0 22 -113
27 -659 27 l-506 0 -26 -48z"/>
<path d="M10897 7818 c-24 -35 -216 -230 -267 -271 l-45 -37 915 2 915 3 70
28 c175 70 315 193 315 278 0 19 -17 19 -944 19 l-944 0 -15 -22z"/>
<path d="M2585 7323 c9 -76 34 -132 74 -166 32 -26 36 -27 159 -27 119 0 135
2 257 39 134 41 262 90 303 117 18 12 22 23 20 47 l-3 32 -95 6 c-52 4 -236 7
-409 8 l-313 1 7 -57z"/>
<path d="M3612 7372 c-72 -2 -83 -5 -80 -20 2 -10 34 -32 75 -52 l72 -35 -6
-57 c-7 -71 2 -83 73 -104 57 -16 57 -15 66 -129 2 -24 8 -31 28 -33 14 -1 42
-7 62 -12 40 -11 47 -24 68 -132 6 -32 18 -65 26 -73 8 -8 41 -17 74 -21 l59
-6 21 -53 c12 -30 29 -60 39 -69 13 -12 114 -34 162 -36 3 0 9 -28 13 -62 3
-34 8 -63 10 -65 2 -3 37 -9 78 -15 40 -6 78 -15 85 -22 6 -6 20 -36 30 -66
l18 -55 60 -14 c33 -8 76 -18 97 -23 28 -6 42 -18 62 -52 29 -50 63 -66 140
-66 50 0 54 -2 111 -61 76 -78 93 -84 163 -64 65 19 69 17 116 -72 22 -41 37
-58 51 -58 32 0 30 77 -5 258 -16 87 -30 171 -30 186 0 23 -86 106 -577 554
l-578 527 -250 3 c-137 1 -287 1 -333 -1z"/>
<path d="M8068 6871 c-305 -280 -566 -524 -580 -542 -18 -26 -33 -78 -62 -225
-20 -105 -36 -207 -34 -225 2 -29 7 -34 28 -34 21 0 30 11 56 63 44 89 43 89
112 64 32 -12 62 -22 66 -22 4 0 40 31 80 69 75 71 77 72 186 86 40 5 50 11
80 53 37 49 49 55 142 73 70 13 82 24 104 93 l17 54 75 12 c101 16 102 17 103
59 2 77 9 85 74 93 89 11 103 20 135 92 l29 63 59 7 c33 4 66 12 75 19 11 8
21 40 28 90 14 97 28 115 99 125 37 5 55 12 57 22 1 8 5 40 8 71 l6 57 47 12
c67 16 72 24 72 95 l0 63 72 39 c112 60 105 69 -58 76 -76 4 -223 7 -329 7
l-192 0 -555 -509z"/>
<path d="M9410 7354 c-6 -14 -10 -31 -10 -38 0 -31 235 -129 421 -176 86 -22
239 -27 286 -9 68 25 113 108 113 206 l0 43 -400 0 -400 0 -10 -26z"/>
<path d="M180 7360 c0 -37 156 -157 260 -202 l55 -23 1028 -3 1029 -3 -63 121
-63 120 -1123 0 c-740 0 -1123 -3 -1123 -10z"/>
<path d="M10322 7252 c-34 -66 -59 -122 -55 -125 3 -4 457 -7 1007 -7 981 0
1002 0 1054 20 108 41 177 83 240 146 35 35 61 68 57 74 -4 7 -374 10 -1123
10 l-1117 0 -63 -118z"/>
<path d="M3388 7181 c-184 -83 -317 -117 -521 -131 -72 -5 -132 -12 -135 -14
-11 -11 11 -78 34 -105 14 -17 50 -44 81 -62 54 -31 57 -32 147 -26 205 13
503 153 545 255 7 16 11 49 9 73 -3 42 -4 44 -38 47 -23 1 -64 -11 -122 -37z"/>
<path d="M9263 7209 c-17 -17 -16 -62 1 -102 55 -132 459 -304 626 -266 58 13
137 64 161 103 11 17 19 45 19 63 l0 31 -97 7 c-219 14 -337 41 -518 117 -133
56 -174 66 -192 47z"/>
<path d="M10199 7012 c-15 -20 -62 -131 -83 -198 l-6 -21 466 -6 c257 -4 689
-7 960 -7 l492 0 103 36 c57 20 121 45 144 56 74 37 165 141 133 153 -7 3
-503 6 -1102 8 l-1088 2 -19 -23z"/>
<path d="M403 7022 c-14 -9 5 -52 39 -89 30 -32 141 -87 233 -116 l80 -25 968
-7 967 -7 0 26 c0 31 -42 146 -71 193 l-21 33 -1091 0 c-601 0 -1097 -4 -1104
-8z"/>
<path d="M3545 6958 c-49 -23 -128 -63 -175 -89 -101 -57 -174 -80 -358 -114
-194 -36 -182 -32 -182 -58 0 -29 51 -111 82 -131 36 -22 108 -29 189 -17 56
9 107 27 206 75 151 74 222 119 314 204 76 70 95 105 80 145 -15 38 -47 35
-156 -15z"/>
<path d="M9116 6985 c-3 -9 -6 -34 -6 -55 0 -36 6 -44 81 -110 101 -89 163
-129 314 -201 147 -71 192 -82 295 -77 81 3 82 4 120 44 33 36 70 118 57 130
-2 2 -57 13 -123 24 -196 34 -293 61 -379 107 -145 77 -289 145 -321 150 -23
4 -33 1 -38 -12z"/>
<path d="M3745 6777 c-33 -18 -94 -58 -135 -89 -184 -137 -361 -214 -562 -243
-34 -5 -38 -9 -38 -36 0 -41 22 -89 55 -119 24 -23 34 -25 110 -24 74 2 91 6
166 41 98 46 329 199 410 272 72 64 119 136 122 187 2 38 1 39 -33 42 -24 1
-54 -8 -95 -31z"/>
<path d="M8937 6803 c-16 -15 -5 -72 21 -114 65 -102 310 -288 502 -382 80
-39 90 -41 173 -42 87 0 89 0 117 32 35 39 57 108 40 128 -6 7 -34 16 -63 20
-158 20 -275 73 -537 244 -136 89 -192 121 -215 121 -18 0 -35 -3 -38 -7z"/>
<path d="M650 6681 c0 -27 26 -73 53 -94 49 -36 155 -93 232 -124 l70 -28 920
-3 c506 -1 930 0 943 3 30 7 28 30 -6 54 -16 11 -55 61 -86 111 l-58 90 -1034
0 c-569 0 -1034 -4 -1034 -9z"/>
<path d="M10053 6632 c-17 -26 -38 -61 -47 -79 -9 -18 -32 -44 -51 -59 -23
-17 -35 -35 -35 -50 l0 -24 733 1 c402 0 827 4 942 8 l210 7 96 41 c174 75
235 119 254 181 l6 22 -1038 0 -1038 0 -32 -48z"/>
<path d="M3955 6591 c-16 -10 -75 -58 -130 -106 -159 -139 -237 -185 -505
-295 l-115 -47 -3 -40 c-6 -74 71 -132 159 -120 51 7 172 78 324 192 252 188
356 292 371 372 11 61 -39 83 -101 44z"/>
<path d="M8756 6594 c-30 -77 41 -168 272 -352 127 -101 330 -237 379 -253 50
-16 130 -5 159 22 27 25 47 78 42 110 -2 17 -21 28 -83 50 -44 16 -152 65
-240 109 -145 72 -172 90 -290 190 -71 62 -142 118 -157 126 -36 19 -74 18
-82 -2z"/>
<path d="M4150 6440 c-41 -21 -88 -66 -185 -175 -73 -82 -268 -235 -427 -335
-48 -30 -88 -62 -88 -71 0 -23 52 -101 90 -133 30 -25 40 -27 79 -22 24 3 64
17 87 31 54 32 240 209 356 340 134 150 175 219 191 317 10 65 -33 86 -103 48z"/>
<path d="M8578 6453 c-24 -6 -29 -27 -18 -85 14 -74 40 -121 117 -217 95 -119
359 -383 414 -415 26 -15 69 -29 96 -32 43 -6 53 -3 80 20 35 30 93 112 93
133 0 7 -39 39 -87 70 -239 155 -378 266 -473 378 -94 113 -168 161 -222 148z"/>
<path d="M1082 6321 c-24 -15 206 -169 317 -213 48 -18 88 -22 281 -30 220 -9
1358 -2 1393 8 29 9 20 28 -54 110 -39 44 -80 91 -92 107 l-21 27 -905 0
c-498 0 -912 -4 -919 -9z"/>
<path d="M9848 6261 c-91 -98 -128 -147 -128 -170 l0 -21 703 1 c386 0 756 4
822 8 115 6 125 9 209 49 82 39 267 159 281 182 4 7 -311 10 -913 10 l-920 0
-54 -59z"/>
<path d="M4369 6276 c-37 -25 -128 -128 -276 -311 -103 -127 -201 -223 -278
-270 -75 -47 -115 -84 -115 -106 0 -27 87 -116 127 -129 29 -10 47 -9 99 5
119 32 183 94 386 378 123 171 171 266 172 337 1 107 -44 145 -115 96z"/>
<path d="M8347 6278 c-42 -66 -27 -169 38 -274 79 -127 243 -351 304 -417 88
-93 199 -147 276 -133 41 8 108 63 131 109 15 27 14 31 -8 54 -12 13 -54 45
-93 70 -89 58 -155 121 -263 253 -236 287 -288 341 -344 355 -21 5 -29 2 -41
-17z"/>
<path d="M4604 6101 c-46 -28 -95 -93 -175 -231 -90 -157 -118 -195 -269 -354
-108 -114 -121 -132 -118 -160 3 -26 11 -35 53 -56 39 -20 65 -25 122 -25 68
0 74 2 109 35 85 80 288 397 336 524 41 106 60 250 36 274 -18 18 -59 15 -94
-7z"/>
<path d="M8104 6095 c-32 -48 7 -203 89 -359 122 -229 245 -407 311 -447 83
-50 266 3 266 77 0 16 -42 67 -138 166 -148 153 -173 186 -245 318 -63 118
-142 227 -180 250 -45 28 -83 26 -103 -5z"/>
<path d="M4880 5993 c-36 -13 -58 -49 -155 -249 -118 -244 -161 -313 -274
-444 -99 -115 -117 -145 -100 -166 24 -29 68 -44 126 -44 120 0 215 76 321
254 130 217 190 376 199 526 5 82 3 98 -11 113 -17 17 -73 22 -106 10z"/>
<path d="M7821 5987 c-19 -24 -23 -70 -12 -151 20 -140 82 -297 193 -482 116
-196 201 -264 327 -264 54 0 71 4 103 26 21 15 38 32 38 38 0 6 -49 69 -109
139 -129 151 -197 262 -297 481 -87 189 -117 226 -188 226 -24 0 -48 -6 -55
-13z"/>
<path d="M1653 5973 c-13 -2 -23 -9 -23 -14 0 -26 213 -140 370 -197 276 -101
460 -125 1055 -138 332 -8 375 -5 375 28 0 63 -134 237 -230 298 l-47 30 -739
-1 c-406 -1 -749 -4 -761 -6z"/>
<path d="M9590 5936 c-72 -52 -149 -144 -188 -223 -20 -40 -33 -76 -28 -80 22
-22 729 -9 974 18 292 31 665 162 793 278 l44 40 -775 0 -775 1 -45 -34z"/>
<path d="M5144 5871 c-38 -23 -67 -69 -89 -141 -52 -177 -93 -289 -145 -396
-50 -102 -71 -135 -145 -214 -101 -110 -105 -127 -37 -175 40 -27 51 -30 120
-30 152 1 205 56 312 325 63 158 91 279 115 501 13 118 -49 180 -131 130z"/>
<path d="M7567 5878 c-42 -33 -47 -110 -17 -282 24 -142 61 -274 107 -386 93
-227 165 -300 298 -300 84 0 175 47 175 90 0 9 -37 58 -83 108 -66 73 -94 114
-139 204 -66 134 -123 283 -144 378 -32 140 -133 236 -197 188z"/>
<path d="M5376 5691 c-9 -16 -23 -68 -32 -117 -53 -286 -108 -434 -219 -592
-47 -66 -85 -123 -85 -126 0 -3 32 -15 70 -27 52 -15 89 -20 138 -17 89 5 138
31 177 93 l30 48 0 356 c0 196 -4 368 -8 384 -10 38 -51 38 -71 -2z"/>
<path d="M7363 5708 c-13 -21 -16 -694 -3 -747 16 -64 51 -105 116 -137 55
-27 57 -27 137 -15 91 14 147 34 147 52 0 6 -34 59 -76 118 -42 58 -87 130
-101 159 -37 83 -101 307 -113 394 -11 81 -32 151 -51 175 -14 16 -45 17 -56
1z"/>
<path d="M6258 4981 c-70 -3 -132 -11 -137 -16 -6 -6 -7 -121 -2 -309 l8 -299
24 -18 c42 -33 200 -109 227 -109 27 0 67 21 195 103 l77 49 0 287 c0 286 0
286 -22 301 -27 17 -172 21 -370 11z"/>
<path d="M5790 4492 c-19 -15 -24 -35 -34 -115 l-11 -98 -110 -58 c-191 -100
-243 -137 -256 -181 -13 -44 -7 -70 17 -70 9 0 58 23 110 50 93 51 174 71 201
52 9 -5 17 -62 24 -164 16 -207 7 -236 -54 -188 -23 18 -32 20 -65 10 -62 -16
-98 -3 -161 59 -56 55 -126 91 -150 77 -17 -11 -13 -56 14 -146 14 -46 25 -94
25 -107 0 -42 -27 -80 -70 -97 -74 -29 -120 -19 -219 48 -61 41 -87 45 -124
16 -48 -38 -58 -124 -32 -276 20 -112 36 -138 77 -130 37 7 69 34 243 197 85
79 148 130 182 146 55 25 93 27 101 5 2 -7 -88 -106 -202 -221 -113 -114 -206
-215 -206 -225 0 -55 120 -98 214 -77 54 12 136 61 136 81 0 6 -25 35 -56 66
-49 47 -55 58 -49 82 22 88 142 115 320 73 l80 -20 43 25 c23 14 42 32 42 40
0 9 -27 42 -60 73 -64 62 -66 67 -49 104 16 35 51 48 159 58 52 4 96 8 97 9 9
1 32 63 37 101 4 26 13 55 21 65 24 31 37 -1 32 -82 -3 -51 -11 -83 -28 -115
l-24 -44 -93 -3 c-107 -3 -113 -11 -53 -65 45 -40 95 -52 173 -42 34 5 59 15
75 31 22 22 23 30 23 151 0 102 -5 146 -24 218 -13 50 -27 114 -31 142 -9 66
-36 103 -75 103 -46 0 -59 -30 -70 -167 -11 -139 -22 -173 -57 -173 -45 0 -55
77 -27 221 20 109 36 144 71 163 17 8 84 20 154 26 166 14 188 19 200 41 8 15
5 24 -15 43 -32 33 -110 53 -234 61 -122 9 -124 10 -143 129 -8 50 -19 86 -31
98 -23 23 -30 23 -58 0z"/>
<path d="M6886 4478 c-3 -7 -6 -50 -8 -95 -4 -114 -3 -113 -185 -129 -190 -16
-243 -36 -243 -92 0 -24 1 -25 63 -19 34 3 88 9 119 13 71 8 144 -10 164 -41
19 -28 31 -105 40 -245 7 -113 0 -145 -31 -134 -21 8 -34 57 -45 173 -12 115
-21 141 -50 141 -34 0 -50 -43 -75 -211 -25 -169 -33 -356 -15 -389 29 -54
231 -76 301 -33 36 23 64 67 54 84 -4 5 -52 9 -108 9 -118 0 -159 15 -189 71
-35 66 -18 199 26 199 19 0 27 -24 33 -108 8 -106 17 -111 174 -104 110 4 123
3 136 -13 30 -42 17 -81 -60 -178 -18 -23 -27 -43 -23 -54 9 -29 61 -54 123
-60 48 -5 61 -11 86 -40 17 -19 38 -33 52 -33 29 0 67 46 63 74 -2 17 -13 22
-54 27 -85 11 -98 30 -37 56 45 18 116 13 143 -12 32 -29 35 -78 11 -153 -21
-64 -22 -67 -4 -80 31 -22 59 -24 120 -9 142 37 197 80 173 137 -13 31 -78 91
-185 170 -77 57 -148 128 -140 140 20 33 124 -13 260 -115 50 -37 121 -83 160
-101 136 -66 165 -43 173 143 4 99 3 116 -13 133 -31 34 -58 24 -144 -55 -73
-67 -85 -75 -121 -75 -90 0 -140 124 -104 260 17 66 17 69 -2 101 -28 48 -75
69 -156 69 -66 0 -68 -1 -95 -37 -59 -77 -79 -93 -121 -93 -49 0 -78 27 -47
44 10 6 32 23 47 38 54 51 26 128 -48 128 -70 0 -92 -27 -104 -128 -5 -38 -15
-71 -25 -81 -15 -15 -17 -14 -31 4 -8 11 -13 29 -10 40 2 11 13 63 24 115 27
124 38 134 142 128 54 -3 96 -13 150 -36 88 -37 106 -39 115 -11 11 33 -19 56
-187 140 -99 50 -162 87 -170 101 -7 13 -15 61 -18 107 -4 75 -8 86 -30 102
-36 25 -69 33 -74 17z"/>
<path d="M6160 4040 c0 -6 14 -119 30 -252 17 -132 30 -256 30 -274 0 -23 6
-37 19 -44 11 -5 81 -10 155 -10 133 0 136 1 140 23 9 41 54 552 49 560 -7 11
-423 9 -423 -3z m345 -380 c0 -97 -11 -124 -41 -99 -14 11 -15 25 -9 93 8 91
20 125 38 107 7 -7 12 -47 12 -101z m-211 84 c4 -10 9 -49 12 -88 4 -54 2 -76
-9 -90 -14 -19 -15 -19 -27 4 -7 13 -15 61 -18 107 -5 79 -4 83 16 83 11 0 23
-7 26 -16z m111 -4 c8 -24 -4 -148 -15 -170 -7 -12 -11 -9 -19 13 -12 31 -15
160 -4 170 13 13 32 7 38 -13z"/>
<path d="M5572 3954 c-34 -24 -54 -68 -43 -98 19 -47 91 -45 116 5 40 76 -9
138 -73 93z"/>
<path d="M5102 3758 c-7 -7 -12 -36 -12 -65 0 -44 5 -59 25 -78 37 -38 76 -32
100 16 20 38 19 68 -5 107 -17 27 -26 32 -58 32 -21 0 -43 -5 -50 -12z"/>
<path d="M7638 3759 c-22 -13 -38 -70 -38 -139 0 -107 29 -106 98 6 47 77 51
95 22 124 -22 22 -55 25 -82 9z"/>
<path d="M7996 3432 c-3 -5 -8 -27 -12 -49 -6 -38 -3 -43 51 -104 65 -72 75
-93 75 -152 0 -23 5 -49 10 -57 9 -13 13 -12 28 7 9 13 28 44 42 69 l24 46
-39 76 c-60 117 -155 203 -179 164z"/>
<path d="M4682 3293 c-96 -135 -125 -189 -115 -207 13 -24 76 -67 85 -58 4 4
12 28 16 53 7 37 20 56 64 100 51 49 57 59 63 110 9 73 5 93 -22 97 -17 3 -35
-16 -91 -95z"/>
<path d="M5441 3236 c-11 -13 -9 -20 16 -45 54 -54 145 -51 159 4 10 39 -8 49
-89 53 -57 3 -76 1 -86 -12z"/>
<path d="M7810 3184 c-56 -26 -120 -79 -120 -100 0 -6 23 -42 50 -79 28 -37
50 -75 50 -84 0 -35 -30 -59 -88 -71 -77 -16 -92 -26 -92 -58 0 -32 31 -87 58
-101 11 -6 63 -17 116 -25 109 -16 141 -32 162 -83 31 -72 -3 -121 -93 -135
-32 -5 -64 -15 -71 -22 -21 -21 1 -52 57 -80 83 -43 111 -72 111 -117 0 -34
-4 -42 -31 -57 -68 -38 -68 -38 -27 -77 20 -19 49 -37 63 -41 34 -8 85 2 112
24 l22 17 -44 270 c-56 342 -61 380 -45 390 41 25 99 -117 149 -361 45 -219
69 -297 102 -338 20 -24 39 -36 55 -36 38 0 97 34 160 93 78 72 72 87 -33 87
-101 0 -120 6 -132 41 -15 42 3 90 60 162 86 108 109 148 109 189 0 29 -6 41
-25 54 -30 19 -61 14 -115 -22 -26 -18 -49 -24 -72 -22 -28 3 -35 8 -46 41
-14 46 -8 63 83 217 46 79 55 102 55 142 0 52 -24 88 -58 88 -24 0 -79 -54
-103 -102 -22 -43 -45 -58 -88 -58 -51 0 -65 33 -56 134 4 54 3 91 -4 104 -25
48 -145 56 -231 16z"/>
<path d="M6305 3100 c3 -41 7 -192 10 -335 l6 -260 -70 203 c-39 112 -83 246
-97 298 -15 51 -29 92 -32 90 -2 -2 10 -64 27 -138 16 -73 55 -259 86 -413 47
-237 72 -340 103 -424 4 -10 -1 -10 -24 2 -49 25 -127 44 -444 107 -168 34
-352 72 -409 86 -115 27 -147 27 -49 -1 88 -24 510 -165 528 -177 9 -5 -36 -7
-120 -3 -325 12 -497 14 -425 4 416 -57 558 -80 540 -85 -15 -5 -394 -62 -520
-79 l-110 -14 120 4 c66 3 212 7 325 10 l205 5 -120 -44 c-66 -24 -204 -70
-307 -102 -103 -32 -186 -59 -184 -61 1 -2 59 10 127 26 68 16 263 57 434 91
170 34 338 72 373 85 55 20 63 21 57 7 -28 -74 -55 -186 -120 -507 -41 -203
-81 -395 -90 -425 -8 -30 -13 -56 -10 -58 2 -2 11 25 21 60 10 34 55 173 101
308 l83 245 -5 -255 c-3 -140 -7 -291 -9 -335 -5 -78 -5 -77 9 25 32 241 80
550 85 550 5 0 53 -309 85 -550 14 -102 14 -103 9 -25 -2 44 -6 195 -9 335
l-5 255 83 -245 c46 -135 91 -274 101 -308 10 -35 19 -62 21 -60 3 2 -2 28
-10 58 -9 30 -49 222 -90 425 -65 321 -92 433 -120 507 -6 14 2 13 57 -7 35
-13 203 -51 373 -85 171 -34 366 -75 434 -91 68 -16 126 -28 127 -26 2 2 -81
29 -184 61 -103 32 -241 78 -307 102 l-120 44 205 -5 c113 -3 259 -7 325 -10
l120 -4 -110 14 c-126 17 -505 74 -520 79 -18 5 124 28 540 85 72 10 -100 8
-425 -4 -85 -4 -129 -2 -120 4 18 11 436 151 528 176 98 28 66 28 -49 1 -57
-14 -241 -52 -409 -86 -317 -63 -395 -82 -444 -107 -23 -12 -28 -12 -24 -2 31
84 56 187 103 424 31 154 70 340 86 413 17 74 29 136 27 138 -3 2 -17 -39 -32
-90 -14 -52 -58 -186 -97 -298 l-70 -203 6 255 c2 140 7 291 10 335 3 52 -4
21 -19 -90 -47 -336 -69 -475 -76 -475 -7 0 -29 139 -76 475 -13 96 -22 137
-19 95z"/>
<path d="M4793 3098 c-6 -7 -18 -42 -27 -78 -30 -119 -80 -140 -182 -77 -94
59 -149 45 -149 -36 0 -38 9 -58 69 -146 55 -82 70 -112 74 -149 5 -60 -19
-88 -70 -78 -195 37 -213 35 -205 -25 7 -53 29 -85 78 -109 100 -52 104 -166
6 -211 -23 -10 -52 -19 -64 -19 -13 0 -30 -11 -38 -24 -55 -83 161 -210 223
-131 21 26 67 164 143 425 47 160 72 220 94 220 43 0 45 -88 5 -230 -33 -117
-60 -271 -60 -341 0 -40 4 -49 28 -65 15 -10 52 -20 84 -22 54 -4 58 -3 69 22
13 28 7 47 -43 124 -18 29 -19 36 -7 58 7 14 40 42 73 62 72 45 119 88 114
105 -2 6 -24 22 -48 34 -63 32 -90 66 -90 113 0 31 6 44 34 68 34 29 97 55
166 66 19 3 49 17 65 30 25 21 28 28 19 43 -10 15 -23 18 -88 15 -74 -4 -76
-3 -86 23 -17 45 -11 80 20 121 37 49 37 65 0 107 -67 77 -183 135 -207 105z"/>
<path d="M7454 3026 c-19 -14 -19 -15 0 -51 37 -69 87 -87 179 -66 21 5 41 12
45 15 10 10 -60 75 -103 96 -49 24 -94 26 -121 6z"/>
<path d="M5183 2907 c-45 -16 -74 -43 -67 -62 13 -32 146 -8 160 30 8 21 -14
45 -40 44 -11 0 -35 -6 -53 -12z"/>
<path d="M8340 2779 c-16 -23 -28 -44 -26 -47 3 -2 24 7 48 20 28 15 43 30 43
43 0 36 -33 28 -65 -16z"/>
<path d="M4367 2743 c-4 -3 -7 -21 -7 -39 0 -24 9 -40 40 -68 64 -58 98 -40
65 34 -29 65 -74 98 -98 73z"/>
<path d="M7743 2583 c-17 -6 -16 -38 1 -52 8 -7 32 -11 53 -9 28 2 39 8 42 22
6 34 -51 58 -96 39z"/>
<path d="M5012 2554 c-42 -19 -50 -40 -24 -66 24 -24 61 -19 93 13 48 48 1 84
-69 53z"/>
<path d="M8462 2383 c-43 -21 -97 -82 -84 -95 15 -15 106 9 127 32 17 19 17
71 0 76 -5 2 -25 -4 -43 -13z"/>
<path d="M4283 2324 c-8 -21 35 -64 64 -64 30 0 29 11 -3 49 -28 34 -51 40
-61 15z"/>
<path d="M4928 2199 c-29 -16 -22 -41 10 -37 19 2 27 9 27 22 0 23 -14 29 -37
15z"/>
<path d="M8500 2033 c-51 -19 -85 -76 -98 -164 -5 -35 -13 -72 -17 -81 -6 -16
0 -18 57 -18 l65 0 21 94 c26 113 27 139 6 160 -8 9 -16 16 -17 15 -1 0 -9 -3
-17 -6z"/>
<path d="M7827 2003 c-14 -13 -6 -54 13 -73 11 -11 33 -20 50 -20 25 0 30 4
30 24 0 38 -71 91 -93 69z"/>
<path d="M4920 1929 c-100 -121 -107 -178 -13 -110 53 39 84 83 90 131 8 59
-16 52 -77 -21z"/>
<path d="M8104 1973 c-32 -6 -56 -36 -84 -105 -34 -83 -45 -88 -124 -60 -36
12 -74 22 -84 22 -50 0 -32 -81 33 -160 87 -104 103 -158 61 -206 -33 -39
-108 -39 -159 0 -38 29 -69 33 -86 12 -16 -19 4 -59 49 -101 40 -38 60 -76 60
-114 0 -106 -98 -149 -190 -82 -45 33 -110 43 -110 18 0 -35 34 -121 58 -147
27 -30 47 -34 128 -32 l42 2 84 133 c47 72 109 173 137 223 61 108 85 133 109
117 10 -6 16 -22 15 -37 -2 -31 -151 -336 -219 -449 -30 -50 -48 -94 -52 -122
-4 -39 -1 -48 25 -74 35 -35 94 -47 187 -38 74 7 94 14 106 37 13 25 -10 48
-58 55 -74 12 -85 16 -113 45 -35 34 -38 84 -10 147 29 63 41 66 216 58 152
-7 186 -3 207 29 13 19 9 81 -8 104 -14 20 -23 22 -109 22 -89 0 -95 1 -110
24 -14 20 -14 31 -5 68 22 81 59 103 196 119 54 6 106 15 116 20 29 15 49 66
46 112 -3 37 -6 42 -30 45 -14 2 -45 -6 -67 -17 -71 -37 -171 -23 -171 23 0 6
21 45 46 86 57 91 69 155 36 188 -33 33 -104 48 -168 35z"/>
<path d="M4300 1931 c-13 -26 -13 -149 1 -192 7 -19 23 -46 37 -61 22 -24 34
-28 79 -28 29 0 53 3 53 6 0 3 -12 21 -26 39 -18 24 -28 54 -35 107 -8 57 -16
79 -37 101 -41 44 -59 51 -72 28z"/>
<path d="M4583 1913 c-35 -7 -63 -50 -63 -95 0 -32 8 -47 44 -86 56 -60 69
-91 55 -132 -17 -46 -54 -60 -160 -60 l-92 0 5 -51 c7 -70 28 -88 121 -105
172 -29 217 -58 217 -136 0 -55 -10 -68 -90 -116 -50 -30 -66 -45 -68 -66 -4
-35 24 -45 165 -56 65 -5 124 -15 141 -24 36 -18 71 -72 79 -119 4 -29 1 -37
-27 -60 -17 -15 -49 -30 -71 -33 -46 -8 -86 -35 -75 -52 9 -15 108 -16 159 -1
52 14 105 63 113 103 7 39 -7 69 -109 236 -95 156 -167 305 -167 347 0 32 2
34 31 31 30 -3 38 -13 113 -148 89 -158 138 -234 188 -293 l33 -38 55 19 c30
11 74 25 98 31 23 7 42 16 42 20 0 5 -21 12 -47 15 -73 10 -102 25 -110 55 -4
15 3 73 16 135 l23 108 -28 29 c-15 16 -32 29 -37 29 -5 0 -30 -22 -56 -50
-28 -30 -56 -50 -69 -50 -32 0 -90 56 -102 98 -24 86 -11 126 72 229 49 59 61
100 35 122 -11 8 -20 1 -45 -34 -34 -48 -73 -65 -150 -65 -33 0 -49 6 -68 26
-25 24 -26 28 -19 112 6 80 5 89 -14 106 -21 19 -93 29 -138 19z"/>
<path d="M7717 1643 c-14 -13 -7 -50 12 -67 24 -22 65 -17 69 7 7 35 -58 83
-81 60z"/>
<path d="M5033 1528 c-44 -49 -54 -98 -19 -98 16 0 76 83 76 106 0 22 -34 17
-57 -8z"/>
<path d="M8223 1398 c-39 -19 -27 -35 31 -42 97 -11 181 12 161 44 -8 13 -163
12 -192 -2z"/>
<path d="M7564 1338 c-5 -17 1 -29 30 -56 21 -18 42 -31 49 -29 19 7 10 57
-14 83 -28 30 -56 31 -65 2z"/>
<path d="M4451 1271 c-16 -10 -9 -52 14 -75 11 -11 29 -13 72 -9 69 7 83 16
60 41 -15 16 -38 26 -117 47 -8 3 -21 1 -29 -4z"/>
<path d="M5265 1209 c-8 -26 16 -54 39 -46 19 7 21 38 4 55 -18 18 -36 14 -43
-9z"/>
<path d="M7330 1068 c-5 -33 -3 -248 1 -248 8 0 79 184 79 204 0 33 -13 46
-46 46 -19 0 -34 -1 -34 -2z"/>
<path d="M5436 1052 c-20 -33 -17 -152 5 -152 15 0 49 87 49 126 0 29 -3 34
-24 34 -14 0 -27 -3 -30 -8z"/>
<path d="M8027 1033 c-12 -3 -17 -12 -15 -26 2 -18 19 -27 83 -49 l80 -27 23
26 c28 31 25 53 -8 70 -24 12 -125 16 -163 6z"/>
<path d="M5593 918 c-6 -7 -21 -37 -34 -67 -27 -64 -65 -86 -134 -76 -36 6
-50 16 -90 61 -43 50 -49 54 -90 54 -77 0 -125 -62 -125 -164 0 -31 7 -45 39
-77 23 -23 48 -39 62 -39 13 0 52 -13 87 -30 55 -26 62 -32 62 -58 0 -18 -16
-50 -40 -85 -48 -67 -52 -106 -14 -136 36 -29 64 -26 137 10 149 76 230 87
278 40 33 -33 36 -59 14 -121 -20 -56 -19 -106 1 -114 39 -15 91 -5 140 26 27
17 75 42 108 54 72 29 86 40 86 70 0 31 -19 43 -190 109 -217 84 -410 192
-410 230 0 25 32 18 178 -40 147 -58 367 -125 409 -125 l26 0 -7 68 c-13 124
-50 214 -102 249 -35 22 -45 8 -53 -72 -9 -80 -23 -95 -92 -95 -36 0 -55 6
-76 24 -32 27 -41 49 -81 206 -25 97 -29 105 -53 108 -14 2 -30 -3 -36 -10z"/>
<path d="M7167 898 c-8 -13 -19 -61 -26 -106 -17 -128 -56 -182 -131 -182 -66
0 -90 25 -110 118 -7 28 -15 52 -19 52 -4 0 -17 -21 -30 -47 -13 -27 -40 -71
-61 -98 -47 -62 -60 -93 -60 -151 l0 -46 33 7 c174 35 324 81 463 141 56 24
111 44 123 44 35 0 26 -39 -19 -80 -58 -53 -117 -83 -336 -166 -107 -40 -204
-78 -214 -84 -34 -18 -23 -51 34 -106 89 -86 206 -132 223 -87 4 9 -1 46 -10
82 -23 87 -22 118 3 131 64 34 234 13 343 -42 47 -23 69 -29 96 -24 36 5 81
45 81 70 0 13 -60 46 -84 46 -7 0 -29 16 -49 35 -30 29 -37 43 -37 73 0 20 6
48 13 62 12 24 18 25 114 31 69 3 108 10 126 22 32 21 69 98 75 156 3 40 0 52
-23 79 -53 63 -153 93 -189 57 -8 -9 -25 -47 -36 -84 -16 -55 -29 -77 -61
-106 -39 -35 -44 -37 -96 -33 -42 4 -60 11 -81 31 -26 27 -26 27 -13 94 26
137 26 133 -3 133 -16 0 -31 -9 -39 -22z"/>
<path d="M4660 876 c0 -31 27 -40 78 -26 42 11 61 34 36 44 -9 3 -38 6 -65 6
-45 0 -49 -2 -49 -24z"/>
<path d="M6994 836 c-11 -28 -9 -109 2 -113 7 -2 19 4 28 13 24 23 18 107 -7
112 -9 2 -20 -3 -23 -12z"/>
<path d="M5792 828 c-33 -33 4 -158 48 -158 24 0 26 24 5 60 -8 14 -14 37 -15
52 0 52 -15 69 -38 46z"/>
<path d="M6237 643 c-3 -27 -18 -175 -33 -331 -22 -224 -25 -285 -15 -295 18
-18 430 -23 453 -5 20 15 17 60 -30 448 l-27 225 -171 3 -171 2 -6 -47z m79
-339 c17 -114 -12 -263 -49 -251 -27 8 -37 54 -37 168 0 104 2 119 22 144 l22
28 17 -22 c10 -12 21 -42 25 -67z m144 14 c23 -92 0 -253 -37 -265 -54 -18
-73 267 -22 318 27 27 44 12 59 -53z m146 -24 c14 -115 -10 -244 -46 -244 -19
0 -41 62 -47 129 -6 76 10 166 35 194 16 18 17 18 34 -2 9 -12 20 -47 24 -77z"/>
<path d="M7786 616 c-21 -30 -60 -76 -88 -102 l-50 -46 -61 6 c-57 6 -61 5
-42 -9 11 -9 43 -23 72 -31 49 -14 55 -14 95 4 68 30 248 195 248 227 0 3 -31
5 -68 5 l-69 0 -37 -54z"/>
<path d="M4930 611 c-23 -6 -20 -10 54 -71 43 -36 102 -82 132 -103 l53 -38
37 56 c19 31 34 58 32 59 -1 2 -53 26 -113 54 -107 50 -142 58 -195 43z"/>
<path d="M5554 247 l-36 -33 27 -18 c14 -10 33 -15 41 -12 16 6 54 65 54 84 0
24 -50 12 -86 -21z"/>
<path d="M7150 226 c0 -43 14 -106 24 -106 15 0 86 49 86 59 0 7 -91 61 -104
61 -3 0 -6 -6 -6 -14z"/>
<path d="M6008 145 c-20 -14 -42 -25 -48 -25 -7 0 -10 -13 -8 -32 2 -24 12
-38 37 -55 43 -29 76 -29 95 -1 16 22 21 92 10 122 -9 23 -44 20 -86 -9z"/>
<path d="M6746 142 c-8 -24 -12 -110 -5 -116 2 -3 27 2 54 11 28 8 56 17 63
19 24 7 11 34 -34 69 -53 39 -70 43 -78 17z"/>
</g>
</svg>
