<?xml version="1.0" standalone="no"?>
<!DOCTYPE svg PUBLIC "-//W3C//DTD SVG 20010904//EN"
 "http://www.w3.org/TR/2001/REC-SVG-20010904/DTD/svg10.dtd">
<svg version="1.0" xmlns="http://www.w3.org/2000/svg"
 width="1207.000000pt" height="1280.000000pt" viewBox="0 0 1207.000000 1280.000000"
 preserveAspectRatio="xMidYMid meet">
<metadata>
Created by potrace 1.15, written by Peter Selinger 2001-2017
</metadata>
<g transform="translate(0.000000,1280.000000) scale(0.100000,-0.100000)"
fill="#000000" stroke="none">
<path d="M6275 12794 c-22 -2 -96 -8 -165 -14 -685 -58 -1378 -284 -1965 -640
-629 -381 -1159 -920 -1516 -1542 -287 -502 -456 -1020 -531 -1638 -17 -140
-17 -690 0 -830 64 -529 190 -965 404 -1398 295 -597 669 -1049 1262 -1527
l37 -30 -197 -280 c-387 -551 -503 -703 -615 -811 -507 -492 -1261 -1080
-1997 -1557 -224 -146 -648 -402 -830 -502 -67 -38 -125 -72 -128 -76 -3 -5 0
-27 6 -50 l12 -42 76 7 c164 14 781 18 992 7 186 -10 337 -25 348 -35 10 -11
-401 -840 -616 -1241 -38 -71 -68 -131 -67 -133 3 -4 391 172 643 292 911 432
1648 848 2077 1171 322 243 873 802 1341 1360 228 273 631 792 804 1038 22 31
39 46 49 43 62 -18 320 -51 510 -66 190 -14 466 -12 666 5 94 8 171 11 173 7
6 -18 386 -656 532 -892 568 -922 763 -1184 1267 -1700 511 -524 1217 -1122
1833 -1554 206 -145 249 -168 310 -164 l52 3 -51 78 c-100 153 -137 242 -182
437 -17 74 -46 175 -65 224 -66 170 -95 388 -75 556 19 152 4 138 141 132 167
-7 739 37 1168 89 l92 11 0 38 c0 28 -5 39 -22 48 -679 325 -703 338 -973 536
-201 148 -347 277 -590 520 -256 256 -552 587 -689 770 -169 225 -395 581
-625 985 -194 342 -284 512 -275 520 5 4 61 41 124 82 655 426 1180 1019 1520
1714 239 488 370 986 410 1557 18 257 6 541 -35 828 -179 1261 -962 2399
-2100 3055 -560 323 -1152 514 -1830 590 -131 15 -619 28 -710 19z m-2935
-1517 c0 -2 -10 -12 -22 -23 l-23 -19 19 23 c18 21 26 27 26 19z m-230 -271
c0 -2 -8 -10 -17 -17 -16 -13 -17 -12 -4 4 13 16 21 21 21 13z"/>
</g>
</svg>
