<?xml version="1.0" standalone="no"?>
<!DOCTYPE svg PUBLIC "-//W3C//DTD SVG 20010904//EN"
 "http://www.w3.org/TR/2001/REC-SVG-20010904/DTD/svg10.dtd">
<svg version="1.0" xmlns="http://www.w3.org/2000/svg"
 width="935.000000pt" height="1280.000000pt" viewBox="0 0 935.000000 1280.000000"
 preserveAspectRatio="xMidYMid meet">
<metadata>
Created by potrace 1.15, written by Peter Selinger 2001-2017
</metadata>
<g transform="translate(0.000000,1280.000000) scale(0.100000,-0.100000)"
fill="#000000" stroke="none">
<path d="M4290 12620 c-19 -5 -60 -6 -92 -3 -31 3 -121 0 -200 -6 -78 -6 -208
-16 -288 -21 -160 -9 -415 -45 -443 -61 -10 -5 -26 -7 -36 -4 -10 3 -38 1 -62
-6 -24 -6 -89 -17 -144 -24 -119 -16 -304 -50 -383 -70 -51 -14 -58 -14 -68 0
-7 9 -14 12 -15 8 -2 -4 -33 -19 -69 -32 -36 -13 -92 -34 -125 -47 -132 -51
-170 -64 -187 -64 -15 0 -53 -18 -123 -58 -11 -6 -60 -31 -110 -55 -49 -24
-99 -49 -110 -55 -11 -6 -27 -13 -36 -15 -14 -4 -17 -37 -22 -234 -4 -125 -14
-271 -22 -323 -9 -52 -20 -124 -25 -160 -6 -36 -15 -78 -21 -95 -6 -16 -14
-56 -19 -88 -7 -46 -16 -66 -44 -98 -27 -29 -36 -48 -36 -74 0 -24 -8 -43 -28
-63 -15 -15 -34 -38 -42 -50 -8 -13 -31 -28 -50 -35 -20 -7 -37 -16 -37 -22
-1 -5 -12 -13 -25 -16 -18 -4 -23 -12 -21 -33 3 -36 -85 -126 -122 -126 -18 0
-32 -11 -49 -39 -18 -28 -38 -44 -73 -57 -26 -10 -61 -31 -78 -46 -16 -15 -39
-28 -51 -28 -11 0 -57 -16 -103 -36 -45 -19 -119 -44 -164 -55 -174 -42 -207
-52 -207 -63 0 -7 -3 -6 -9 2 -6 11 -28 9 -112 -8 -57 -11 -129 -29 -159 -39
-30 -10 -70 -22 -88 -26 -38 -8 -41 -24 -13 -104 90 -263 108 -344 165 -721
19 -121 21 -446 5 -605 -5 -57 -12 -603 -14 -1280 -3 -683 -9 -1247 -15 -1340
-6 -88 -13 -203 -15 -255 -3 -52 -7 -118 -10 -147 -4 -28 -13 -152 -20 -275
-8 -122 -23 -299 -35 -393 -11 -93 -18 -176 -15 -183 3 -7 1 -20 -5 -30 -17
-33 -41 -339 -43 -552 -2 -160 3 -250 16 -350 28 -210 65 -406 97 -520 5 -19
17 -62 26 -95 9 -33 23 -69 30 -80 8 -11 14 -29 14 -42 0 -37 76 -238 140
-369 33 -68 60 -127 60 -131 0 -4 8 -16 18 -27 10 -12 42 -64 72 -116 87 -156
170 -277 298 -435 181 -224 333 -374 602 -596 41 -34 80 -68 85 -74 6 -7 26
-22 45 -35 19 -13 52 -39 73 -57 20 -18 44 -33 52 -33 7 0 18 -6 22 -13 15
-24 198 -162 260 -196 15 -9 69 -41 118 -72 147 -92 344 -195 430 -224 27 -9
55 -20 61 -26 16 -13 238 -84 449 -144 28 -8 81 -19 119 -25 38 -6 87 -18 110
-26 23 -8 84 -24 136 -35 174 -38 214 -47 349 -78 129 -30 343 -107 481 -173
91 -43 208 -120 215 -140 3 -10 17 -23 29 -30 13 -7 42 -25 64 -40 26 -18 48
-25 59 -21 10 4 62 48 117 99 97 91 138 116 316 197 89 41 177 63 295 76 68 7
389 83 430 101 11 4 34 11 50 14 104 21 508 159 513 176 2 6 12 10 23 10 30 0
150 57 489 232 63 33 124 68 135 78 11 10 40 28 65 40 48 24 111 64 223 139
37 25 76 51 85 56 87 52 301 215 430 329 124 109 350 340 411 419 20 26 62 79
94 118 58 71 145 197 172 249 8 15 30 46 50 70 44 52 163 253 221 370 80 162
148 355 223 630 39 145 61 361 68 680 7 296 -6 461 -57 775 -62 377 -83 667
-102 1415 -13 509 -13 438 -5 1586 6 881 16 1252 37 1339 12 51 47 246 55 305
20 148 72 351 111 436 13 28 27 65 30 82 6 29 4 33 -27 46 -19 7 -59 19 -89
26 -30 7 -59 16 -65 20 -18 12 -89 29 -165 39 -103 14 -292 73 -358 112 -18
10 -42 19 -52 19 -10 0 -21 4 -25 9 -7 13 -136 81 -151 81 -18 0 -102 39 -110
51 -3 6 -30 21 -60 35 -60 27 -197 161 -259 254 -61 90 -166 312 -187 396 -11
44 -24 117 -28 164 -5 47 -13 108 -19 135 -5 28 -14 77 -21 110 -6 33 -14 144
-17 247 l-6 188 -31 23 c-58 43 -290 145 -360 158 -23 5 -70 15 -106 24 -36 9
-92 23 -125 30 -33 8 -78 19 -100 25 -132 35 -330 72 -395 74 -36 0 -68 5 -71
10 -4 5 -76 15 -160 22 -85 7 -194 18 -244 24 -281 32 -402 42 -596 49 -119 4
-220 11 -225 14 -16 9 -808 16 -844 7z"/>
</g>
</svg>
