<?xml version="1.0" standalone="no"?>
<!DOCTYPE svg PUBLIC "-//W3C//DTD SVG 20010904//EN"
 "http://www.w3.org/TR/2001/REC-SVG-20010904/DTD/svg10.dtd">
<svg version="1.0" xmlns="http://www.w3.org/2000/svg"
 width="879.000000pt" height="1280.000000pt" viewBox="0 0 879.000000 1280.000000"
 preserveAspectRatio="xMidYMid meet">
<metadata>
Created by potrace 1.15, written by Peter Selinger 2001-2017
</metadata>
<g transform="translate(0.000000,1280.000000) scale(0.100000,-0.100000)"
fill="#000000" stroke="none">
<path d="M2199 12748 c-47 -59 -103 -173 -113 -229 l-6 -37 -58 24 c-58 24
-132 32 -132 14 0 -5 9 -33 21 -62 11 -29 38 -106 60 -171 21 -66 52 -143 69
-173 l31 -54 -59 34 c-33 19 -82 41 -109 50 -65 22 -294 68 -302 61 -4 -5 10
-53 36 -121 2 -6 -20 -16 -52 -23 -71 -16 -180 -71 -230 -116 l-40 -35 40 -35
c49 -44 165 -102 221 -111 65 -10 67 -13 42 -81 -13 -34 -20 -64 -18 -67 6 -5
47 2 200 36 102 22 194 59 264 106 l43 29 24 -20 c22 -18 24 -25 24 -116 -1
-124 -25 -188 -102 -271 -105 -113 -252 -159 -412 -128 -91 18 -193 62 -252
108 l-38 31 43 42 c120 115 55 294 -112 314 -43 5 -60 1 -107 -21 -68 -34
-105 -89 -105 -159 0 -61 14 -94 57 -135 l37 -35 -29 -24 c-50 -40 -127 -80
-200 -104 -96 -32 -236 -32 -316 0 -85 33 -147 79 -195 144 -55 74 -74 138
-74 247 0 84 1 86 33 117 l34 32 49 -51 c27 -27 74 -67 104 -87 76 -51 235
-141 250 -141 12 0 10 52 -5 112 -6 23 -5 23 102 24 105 0 182 17 190 40 6 18
-105 141 -170 189 l-64 48 33 44 c41 54 42 63 7 63 -16 0 -79 9 -142 20 -142
25 -197 25 -261 1 l-50 -19 45 51 c105 120 133 242 80 356 l-26 54 -34 -33
c-22 -21 -35 -28 -35 -19 0 7 -13 41 -28 74 -29 61 -77 112 -133 141 -75 38
-188 34 -259 -11 -36 -23 -76 -63 -69 -68 116 -85 179 -148 213 -214 23 -45
40 -172 31 -238 -6 -50 -9 -55 -31 -55 -33 0 -73 -21 -106 -57 -67 -70 -65
-177 5 -251 19 -20 22 -36 24 -117 3 -183 50 -290 183 -425 136 -137 248 -183
450 -183 153 0 318 43 432 114 l48 29 63 -35 c132 -72 272 -108 427 -108 174
0 329 63 451 184 l68 68 32 -40 c60 -76 198 -160 319 -194 168 -48 510 5 679
104 l51 30 45 -30 c151 -102 434 -151 605 -106 110 30 207 84 287 162 l73 70
73 -70 c125 -121 273 -179 452 -178 188 1 459 72 537 140 15 14 20 13 45 -5
161 -113 449 -167 633 -118 105 28 215 91 291 168 l68 67 31 -39 c84 -106 263
-196 430 -215 131 -14 390 38 534 109 l89 43 43 -29 c107 -72 286 -121 444
-121 202 0 314 46 450 183 133 135 180 242 183 425 2 81 5 97 24 117 70 74 72
181 5 251 -33 36 -73 57 -106 57 -22 0 -25 5 -31 55 -9 66 8 193 31 238 34 66
97 129 213 214 7 5 -33 45 -69 68 -71 45 -184 49 -259 11 -56 -29 -104 -80
-133 -141 -15 -33 -28 -67 -28 -74 0 -9 -13 -2 -35 19 l-34 33 -26 -54 c-53
-114 -25 -236 80 -356 l45 -51 -50 19 c-64 24 -119 24 -261 -1 -63 -11 -126
-20 -141 -20 -36 0 -35 -9 6 -63 l33 -44 -64 -48 c-65 -48 -176 -171 -170
-189 8 -23 85 -40 190 -40 107 -1 108 -1 102 -24 -15 -60 -17 -112 -5 -112 15
0 174 90 250 141 30 20 77 60 104 87 l49 51 34 -32 c32 -31 33 -33 33 -117 0
-109 -19 -173 -74 -247 -48 -65 -110 -111 -195 -144 -80 -32 -220 -32 -316 0
-73 24 -150 64 -200 104 l-29 24 37 35 c43 41 57 74 57 135 0 70 -37 125 -105
159 -47 22 -64 26 -107 21 -161 -19 -228 -189 -122 -307 l35 -38 -46 -32
c-160 -110 -423 -158 -565 -102 -110 43 -212 145 -247 247 -25 70 -25 227 -1
251 19 20 18 20 124 -39 33 -19 83 -42 111 -51 60 -20 291 -65 297 -58 3 2 -6
33 -19 67 l-23 63 66 17 c77 19 182 72 231 117 l34 31 -24 19 c-95 75 -158
107 -251 128 l-56 13 24 65 c14 35 23 67 20 69 -5 6 -199 -33 -276 -54 -30 -9
-82 -30 -115 -47 -33 -17 -64 -32 -68 -34 -5 -2 5 20 22 50 17 30 48 108 70
174 21 65 48 143 60 172 12 29 21 55 21 59 0 13 -110 -6 -148 -26 -23 -12 -43
-21 -45 -21 -3 0 -8 20 -11 45 -10 62 -66 170 -121 230 l-45 50 -40 -45 c-51
-57 -106 -162 -120 -227 l-11 -50 -57 23 c-58 24 -132 32 -132 15 0 -6 13 -45
29 -88 16 -43 42 -116 56 -163 15 -47 42 -113 60 -147 l34 -61 -59 33 c-32 18
-80 40 -107 49 -65 22 -294 68 -302 61 -4 -5 10 -53 36 -121 2 -6 -20 -16 -52
-23 -71 -16 -180 -71 -230 -116 l-40 -35 40 -36 c48 -43 164 -100 221 -110 64
-10 65 -12 41 -81 -12 -34 -19 -64 -17 -67 7 -6 229 39 298 60 29 9 87 37 130
61 67 38 80 42 99 32 17 -9 23 -24 29 -66 28 -226 -127 -422 -359 -456 -61 -9
-90 -8 -157 6 -94 18 -209 69 -263 116 l-37 33 31 25 c41 35 61 78 62 132 1
90 -53 158 -146 182 -86 24 -185 -20 -222 -98 -36 -75 -18 -164 44 -216 l30
-25 -47 -31 c-176 -112 -422 -157 -563 -102 -121 47 -214 141 -253 254 -21 64
-22 204 0 235 8 12 19 22 23 22 4 0 43 -20 87 -45 43 -25 102 -52 129 -60 73
-22 289 -65 295 -59 2 3 -5 33 -18 66 -12 34 -20 63 -18 65 1 2 30 10 62 18
77 20 169 66 219 110 l40 35 -40 35 c-50 45 -159 100 -230 116 -32 7 -54 17
-52 23 20 55 38 118 35 122 -2 2 -38 -3 -80 -11 -201 -38 -264 -58 -349 -111
l-36 -23 38 74 c21 41 47 107 59 147 11 40 34 108 50 150 17 42 30 82 30 87 0
19 -73 11 -132 -13 l-56 -23 -7 36 c-12 63 -70 174 -120 229 l-48 53 -30 -28
c-61 -58 -137 -206 -137 -268 0 -30 -1 -30 -52 -4 -38 20 -148 39 -148 26 0
-4 13 -39 29 -79 15 -40 43 -119 60 -175 18 -56 48 -127 65 -156 l33 -55 -71
38 c-39 21 -96 45 -126 53 -74 21 -271 59 -277 54 -2 -2 7 -34 20 -69 l24 -66
-55 -12 c-31 -7 -76 -21 -101 -32 -48 -20 -171 -104 -171 -116 0 -12 91 -77
146 -105 29 -15 81 -34 116 -42 l65 -17 -24 -65 c-13 -36 -22 -67 -21 -68 5
-5 240 43 296 60 29 9 76 29 105 46 112 64 114 65 137 44 17 -16 20 -30 20
-111 0 -111 -18 -168 -79 -248 -132 -176 -404 -213 -626 -85 -27 15 -63 39
-80 52 l-29 25 31 26 c127 106 54 302 -117 314 -175 13 -277 -177 -161 -299
l39 -40 -44 -30 c-132 -91 -354 -145 -489 -120 -185 34 -327 186 -342 366 -6
78 9 150 33 159 9 3 30 -2 48 -13 71 -43 124 -69 172 -85 60 -20 291 -65 298
-58 3 2 -5 33 -18 67 l-23 63 66 17 c77 19 181 72 230 117 l34 31 -24 19 c-95
75 -158 107 -251 128 l-56 13 24 65 c14 35 23 66 21 69 -6 5 -204 -34 -277
-54 -30 -9 -82 -30 -115 -47 -33 -17 -64 -32 -68 -34 -5 -2 5 20 22 50 17 30
48 108 70 174 21 65 48 143 60 172 12 29 21 55 21 59 0 13 -110 -6 -148 -26
-23 -12 -43 -21 -45 -21 -3 0 -7 19 -10 42 -3 22 -21 73 -41 112 -34 69 -108
166 -127 166 -4 0 -27 -24 -50 -52z"/>
<path d="M164 10856 c-45 -20 -64 -52 -64 -111 0 -67 17 -97 64 -113 30 -10
883 -12 4207 -10 l4169 3 26 27 c21 21 28 39 31 80 5 65 -11 97 -57 120 -33
17 -254 18 -4190 18 -3479 -1 -4160 -3 -4186 -14z"/>
<path d="M2240 10453 c-85 -30 -230 -80 -322 -111 -92 -32 -168 -60 -168 -63
0 -4 10 -9 23 -12 12 -2 159 -46 326 -96 l304 -93 266 92 c146 50 294 101 329
113 38 13 57 24 49 28 -13 8 -645 200 -649 198 -2 -1 -73 -26 -158 -56z"/>
<path d="M6285 10483 c-38 -14 -180 -63 -315 -109 -135 -46 -252 -87 -260 -90
-8 -4 27 -18 80 -34 52 -15 202 -60 333 -100 l238 -72 137 47 c110 38 444 153
512 177 9 3 -6 12 -35 21 -106 32 -591 178 -605 181 -8 3 -46 -7 -85 -21z"/>
<path d="M450 10474 c-153 -17 -296 -71 -335 -126 -40 -59 -3 -128 92 -174
207 -97 631 -79 764 34 110 92 41 189 -169 242 -75 19 -277 33 -352 24z"/>
<path d="M1346 10466 c-144 -54 -169 -236 -44 -322 36 -25 50 -29 113 -29 63
0 77 4 113 29 113 78 105 238 -16 309 -42 24 -118 31 -166 13z"/>
<path d="M3326 10465 c-145 -51 -170 -239 -44 -322 36 -24 52 -28 114 -28 66
0 76 3 110 31 79 64 101 127 70 209 -38 99 -147 147 -250 110z"/>
<path d="M4174 10470 c-194 -19 -369 -68 -424 -120 -141 -132 218 -253 707
-237 322 10 547 71 583 157 11 28 11 34 -7 58 -62 85 -282 139 -597 147 -94 2
-212 0 -262 -5z"/>
<path d="M5318 10471 c-94 -30 -143 -99 -136 -191 14 -200 294 -235 373 -46
31 74 0 162 -73 211 -43 28 -119 40 -164 26z"/>
<path d="M7259 10453 c-40 -21 -60 -39 -77 -71 -28 -50 -31 -125 -9 -169 72
-137 283 -136 354 2 9 16 15 53 15 83 -1 73 -35 125 -105 158 -68 31 -111 30
-178 -3z"/>
<path d="M7990 10469 c-36 -5 -102 -20 -148 -34 -65 -20 -92 -35 -127 -69 -71
-67 -54 -127 51 -183 103 -54 178 -68 369 -68 189 0 251 12 363 66 110 53 130
116 59 184 -92 88 -339 133 -567 104z"/>
<path d="M154 9950 c-37 -15 -54 -50 -54 -112 0 -46 5 -62 24 -85 l24 -28
4174 -3 c3025 -2 4184 0 4211 8 30 9 42 19 53 45 29 70 8 156 -42 175 -32 13
-8360 12 -8390 0z"/>
<path d="M350 6217 c0 -2107 4 -3375 10 -3467 25 -364 69 -613 157 -885 329
-1021 1220 -1619 2678 -1799 396 -49 615 -61 1140 -61 631 0 991 27 1448 110
1505 271 2339 1054 2517 2363 46 338 44 173 47 3725 l4 3337 -4001 0 -4000 0
0 -3323z"/>
</g>
</svg>
