<?xml version="1.0" standalone="no"?>
<!DOCTYPE svg PUBLIC "-//W3C//DTD SVG 20010904//EN"
 "http://www.w3.org/TR/2001/REC-SVG-20010904/DTD/svg10.dtd">
<svg version="1.0" xmlns="http://www.w3.org/2000/svg"
 width="1280.000000pt" height="1268.000000pt" viewBox="0 0 1280.000000 1268.000000"
 preserveAspectRatio="xMidYMid meet">
<metadata>
Created by potrace 1.15, written by Peter Selinger 2001-2017
</metadata>
<g transform="translate(0.000000,1268.000000) scale(0.100000,-0.100000)"
fill="#000000" stroke="none">
<path d="M5575 12659 c-541 -15 -721 -16 -1165 -7 -289 5 -1332 12 -2318 15
l-1792 5 56 -118 c289 -610 470 -1230 550 -1884 22 -181 30 -639 14 -812 -36
-409 -101 -735 -414 -2088 -127 -552 -168 -735 -240 -1085 -330 -1604 -351
-2539 -70 -3097 82 -164 361 -481 609 -696 393 -339 882 -646 1560 -982 508
-251 816 -386 1690 -737 281 -113 589 -238 685 -279 401 -169 992 -484 1533
-816 l127 -78 128 78 c486 299 1077 618 1437 776 61 27 376 155 700 286 971
392 1254 515 1770 770 838 415 1383 782 1810 1221 282 290 400 481 473 766
150 584 94 1438 -184 2788 -72 350 -113 533 -240 1085 -313 1353 -378 1679
-414 2088 -16 173 -8 631 14 812 80 654 261 1274 550 1883 l55 117 -1292 0
c-711 0 -1535 -5 -1832 -11 -792 -15 -1524 -14 -2270 5 -761 18 -695 19 -1530
-5z"/>
</g>
</svg>
