<?xml version="1.0" standalone="no"?>
<!DOCTYPE svg PUBLIC "-//W3C//DTD SVG 20010904//EN"
 "http://www.w3.org/TR/2001/REC-SVG-20010904/DTD/svg10.dtd">
<svg version="1.0" xmlns="http://www.w3.org/2000/svg"
 width="1280.000000pt" height="1233.000000pt" viewBox="0 0 1280.000000 1233.000000"
 preserveAspectRatio="xMidYMid meet">
<metadata>
Created by potrace 1.15, written by Peter Selinger 2001-2017
</metadata>
<g transform="translate(0.000000,1233.000000) scale(0.100000,-0.100000)"
fill="#000000" stroke="none">
<path d="M5855 12320 c-288 -16 -845 -76 -933 -100 -145 -39 -217 -164 -210
-360 l3 -99 -160 6 c-180 6 -446 -8 -672 -37 -613 -79 -1188 -274 -1681 -572
-140 -85 -157 -102 -198 -195 -51 -114 -39 -224 32 -297 32 -33 33 -36 15 -45
-53 -29 -283 -115 -392 -147 -345 -100 -591 -191 -819 -302 -129 -63 -275
-147 -325 -186 l-28 -22 89 13 c62 10 169 13 355 11 l266 -3 -9 -33 c-18 -66
-80 -197 -123 -263 -25 -36 -74 -94 -109 -127 l-64 -60 136 65 c293 139 492
211 692 249 212 40 459 117 750 234 319 128 476 205 588 290 94 70 135 117
158 177 15 39 15 45 0 68 -24 37 -56 54 -125 68 -59 12 -61 14 -44 30 29 25
155 81 277 121 482 159 1108 204 1771 129 117 -13 157 -13 239 -3 172 20 277
68 334 151 20 29 23 44 20 100 -3 59 -8 74 -45 125 -47 68 -105 165 -101 169
2 2 66 9 143 16 177 16 683 16 880 0 147 -12 447 -45 513 -57 l34 -7 -59 -61
c-118 -123 -143 -154 -143 -185 0 -71 61 -151 150 -196 112 -57 226 -68 500
-51 136 9 288 1 600 -29 403 -40 767 -112 1036 -206 96 -34 226 -89 242 -104
2 -2 -4 -14 -13 -28 -8 -13 -18 -47 -22 -74 -16 -141 106 -283 356 -411 170
-88 230 -109 396 -143 82 -16 244 -54 361 -84 535 -136 915 -296 1077 -453 26
-25 47 -44 47 -41 0 3 -23 44 -51 90 -27 46 -83 149 -124 229 -40 80 -91 165
-113 190 l-39 45 286 -1 c245 0 292 -3 325 -17 22 -10 41 -16 42 -14 7 7 -193
133 -299 188 -187 97 -314 146 -562 219 -303 90 -548 182 -597 226 -16 15 -14
19 37 65 107 99 131 198 72 310 -27 53 -47 74 -122 131 -381 291 -952 535
-1560 667 -278 60 -713 111 -956 111 l-116 0 -7 58 c-20 175 -166 311 -401
372 -43 11 -149 27 -235 35 -85 9 -162 18 -170 20 -104 30 -874 52 -1195 35z"/>
<path d="M2920 9806 c0 -3 119 -154 263 -334 l264 -327 7 -285 c4 -157 9
-1334 11 -2615 2 -1687 7 -2348 15 -2394 68 -378 384 -668 795 -731 44 -7 117
-23 162 -36 135 -38 252 -44 862 -44 l576 0 54 -36 c60 -40 185 -162 308 -298
l80 -89 23 41 c13 23 27 42 30 42 4 0 17 -11 30 -25 13 -14 29 -25 35 -25 7 0
33 27 58 60 91 116 314 252 492 301 77 20 106 22 780 28 l700 7 85 28 c314
103 497 304 618 678 l27 83 2 2587 3 2587 259 333 c204 263 256 337 249 350
-6 14 -25 18 -88 20 l-80 3 29 36 30 36 -1652 7 c-4432 17 -5027 18 -5027 12z"/>
<path d="M10084 9243 c38 -78 184 -538 173 -550 -9 -8 -97 101 -127 159 -17
32 -34 58 -37 58 -3 0 -3 -28 1 -62 9 -85 58 -180 161 -311 47 -59 94 -129
104 -155 11 -26 27 -64 35 -85 l17 -38 -29 15 c-106 55 -298 232 -364 336 -43
67 -116 213 -148 295 -27 71 -45 95 -37 49 12 -66 100 -284 152 -378 99 -179
237 -334 394 -441 53 -36 80 -63 101 -101 17 -28 30 -54 30 -58 0 -10 -159 73
-223 116 -172 117 -380 340 -552 591 -156 229 -174 234 -70 22 144 -294 379
-606 702 -934 79 -80 143 -150 143 -157 0 -18 -40 -44 -67 -44 -13 0 -57 29
-105 69 -46 38 -84 68 -86 66 -7 -7 82 -159 113 -194 44 -49 96 -123 91 -129
-10 -9 -160 120 -294 255 -78 78 -145 143 -147 143 -3 0 3 -22 14 -48 30 -80
89 -159 175 -235 231 -205 358 -352 435 -506 33 -65 37 -92 7 -46 -22 34 -625
640 -668 671 -33 25 -72 31 -83 14 -6 -10 -85 -396 -85 -419 0 -25 12 -4 76
136 35 76 68 139 73 141 6 2 34 -18 62 -45 103 -97 409 -441 491 -553 132
-180 184 -256 168 -244 -8 6 -46 36 -85 66 -93 74 -272 190 -361 234 -143 71
-113 35 146 -176 246 -201 253 -207 307 -295 31 -49 72 -112 92 -140 l36 -50
-32 25 c-18 14 -128 106 -245 205 -250 213 -267 225 -335 259 -112 57 -221 51
-325 -15 -62 -40 -62 -54 0 -26 37 17 66 22 137 22 127 0 198 -34 310 -149
158 -162 340 -394 426 -544 40 -70 94 -191 87 -197 -2 -1 -111 123 -242 276
-209 244 -256 294 -256 274 0 -2 70 -99 156 -215 280 -381 357 -515 377 -661
9 -65 -10 -70 -35 -9 -40 99 -126 264 -179 345 -130 201 -270 330 -454 421
-141 70 -177 71 -301 14 -48 -22 -85 -42 -83 -45 3 -2 35 1 71 7 87 14 171 -1
265 -47 59 -29 90 -55 179 -148 59 -61 131 -144 160 -183 146 -197 259 -500
298 -802 17 -135 20 -202 9 -202 -5 0 -20 44 -35 98 -85 313 -237 636 -401
855 -34 45 -65 86 -69 92 -4 5 -9 7 -13 4 -3 -3 18 -55 46 -115 160 -343 247
-611 284 -876 16 -119 21 -569 4 -493 -4 22 -26 139 -49 260 -86 468 -178 759
-305 973 -51 86 -104 156 -112 148 -2 -2 9 -23 25 -45 78 -107 212 -768 242
-1190 10 -136 0 -336 -17 -364 -3 -6 -16 40 -28 101 -66 327 -182 577 -296
642 -28 15 -40 18 -37 9 4 -8 27 -63 53 -124 69 -163 150 -413 180 -555 47
-224 43 -500 -9 -624 -11 -27 -13 -23 -25 65 -58 422 -162 745 -300 934 -35
48 -276 307 -292 313 -5 2 26 -47 67 -110 190 -283 250 -408 288 -591 62 -298
60 -720 -3 -1002 -33 -148 -50 -204 -71 -243 l-21 -37 6 60 c28 282 29 427 4
600 -14 95 -60 265 -72 265 -5 0 -6 -11 -3 -26 9 -35 10 -394 2 -469 -31 -272
-114 -620 -158 -657 -30 -26 -39 -13 -22 35 60 170 120 505 131 727 6 129 -3
280 -16 280 -5 0 -13 -39 -20 -88 -15 -108 -72 -392 -107 -532 -58 -234 -200
-479 -314 -544 l-34 -19 21 29 c76 108 173 375 253 694 17 69 33 133 36 143 3
9 1 17 -4 17 -5 0 -17 -21 -27 -47 -38 -101 -140 -333 -196 -448 -60 -120
-160 -297 -166 -291 -2 1 11 41 27 87 17 46 53 156 79 244 86 283 79 299 -19
50 -74 -186 -164 -381 -215 -466 -27 -43 -64 -82 -138 -141 -55 -45 -97 -75
-92 -67 5 8 60 78 123 156 87 110 121 161 148 224 34 82 38 113 8 70 -46 -65
-150 -187 -239 -280 -92 -95 -306 -291 -318 -291 -3 0 10 24 30 53 69 102 172
336 161 367 -2 6 -23 -24 -47 -66 -91 -160 -244 -338 -367 -429 -21 -16 -64
-50 -94 -76 -30 -25 -68 -54 -85 -65 l-30 -19 38 50 c59 79 105 165 121 230
30 112 14 144 -24 50 -12 -31 -44 -86 -70 -123 -50 -71 -152 -173 -157 -157
-1 6 17 91 42 190 24 98 42 181 40 183 -1 2 -24 -40 -49 -93 -40 -86 -141
-248 -194 -315 l-20 -24 -174 27 c-384 59 -616 82 -1008 99 -667 28 -1472 -41
-2130 -182 -74 -15 -138 -25 -142 -22 -4 4 -20 44 -37 90 -22 60 -54 117 -118
207 -48 68 -99 130 -113 139 -22 12 -241 69 -246 63 -1 -1 8 -64 20 -139 l22
-137 -29 -7 c-15 -3 -29 -4 -31 -2 -1 1 -15 46 -30 98 -31 106 -86 207 -145
264 -30 29 -57 43 -122 62 -77 22 -179 30 -179 14 0 -4 9 -15 20 -25 17 -16
20 -31 20 -108 0 -50 5 -119 11 -153 l11 -63 108 -73 c60 -40 107 -74 105 -76
-6 -6 -279 29 -304 39 -18 7 -21 13 -12 23 9 11 -1 23 -46 56 -32 24 -59 44
-61 46 -2 1 8 53 21 116 32 144 61 422 52 498 -6 50 -12 63 -47 96 -22 22 -53
66 -70 99 -17 33 -35 63 -40 66 -6 4 -45 14 -88 23 -70 16 -80 20 -93 48 -18
37 -13 51 -67 -187 -22 -99 -44 -189 -49 -200 -6 -16 -18 -5 -80 77 -55 74
-81 100 -107 108 -25 9 -33 16 -30 28 3 10 8 31 12 47 4 17 18 51 31 78 13 26
21 47 19 47 -3 0 -21 -10 -42 -22 -35 -20 -36 -20 -31 -2 3 10 9 36 13 56 3
21 10 38 16 38 18 0 121 105 161 165 22 33 71 101 108 152 l68 92 -65 21 c-51
17 -83 21 -143 19 l-78 -4 23 69 c30 87 31 162 3 247 -20 58 -52 109 -69 109
-4 0 -15 -17 -24 -37 -12 -28 -37 -51 -89 -85 -40 -26 -118 -94 -174 -150 -94
-94 -105 -109 -126 -173 l-24 -70 -51 100 c-32 64 -67 116 -96 145 -29 28 -46
39 -46 28 0 -55 -45 -298 -61 -330 -16 -31 -19 -59 -19 -177 0 -77 4 -152 10
-168 l10 -28 -18 25 c-9 13 -32 45 -51 69 -19 25 -47 81 -64 125 l-30 81 12
144 c13 165 23 209 63 269 l29 42 168 0 c151 0 175 2 239 24 100 34 183 94
233 167 43 64 98 204 76 196 -93 -34 -119 -37 -253 -35 l-139 3 40 25 c22 13
69 51 105 84 36 32 84 74 107 94 42 34 44 34 89 23 26 -7 48 -10 51 -7 2 2 -8
23 -24 47 -24 37 -27 50 -25 103 2 39 -3 79 -14 111 -9 28 -16 62 -16 76 l1
26 -66 -16 -65 -15 -22 26 c-11 14 -58 44 -103 67 -79 39 -87 41 -176 41 l-94
0 -66 -50 c-36 -27 -68 -50 -71 -50 -3 0 -55 28 -116 61 -79 44 -109 66 -106
76 4 8 6 16 6 18 0 2 42 29 93 61 50 31 110 74 132 96 23 21 44 38 48 38 3 0
14 -15 23 -32 9 -18 46 -63 82 -100 l66 -68 201 0 c258 0 290 9 388 108 76 76
107 143 107 226 l0 49 -22 -20 c-13 -11 -51 -39 -85 -62 -57 -38 -67 -41 -127
-41 -53 0 -97 9 -124 26 -2 1 19 23 47 49 42 40 56 63 96 163 26 64 61 137 79
162 52 73 54 77 21 56 -17 -11 -46 -30 -65 -42 -19 -13 -74 -33 -122 -44 l-87
-22 -65 22 c-36 12 -71 18 -77 14 -9 -5 -10 -2 -4 12 19 43 17 120 -4 162 -18
34 -21 59 -21 152 0 60 -3 110 -6 110 -3 0 -40 -27 -83 -60 -43 -32 -100 -69
-126 -82 -61 -30 -95 -91 -95 -172 0 -49 43 -296 54 -315 3 -4 -7 -20 -23 -35
-15 -15 -38 -49 -51 -76 -13 -28 -28 -50 -33 -50 -5 0 -34 -22 -64 -50 -30
-27 -59 -50 -64 -50 -5 0 -9 12 -9 26 0 37 -39 147 -115 324 -36 85 -67 156
-69 157 -2 2 -20 -23 -41 -54 -21 -32 -77 -111 -124 -175 -65 -89 -89 -114
-98 -106 -7 6 -13 14 -13 18 0 4 25 42 55 84 81 112 115 212 115 335 0 52 -5
109 -12 128 -10 27 -9 38 4 65 l17 33 0 -36 c1 -20 4 -51 7 -68 6 -27 10 -32
29 -27 15 4 29 -2 45 -19 26 -27 76 -45 128 -45 43 0 165 62 203 103 33 36
182 277 175 284 -2 2 -19 -3 -38 -13 -33 -17 -98 -36 -98 -28 0 3 14 32 31 66
25 50 31 74 32 135 2 66 4 73 22 73 42 0 63 -13 78 -46 9 -19 49 -77 88 -129
66 -87 77 -98 158 -141 194 -104 364 -133 470 -80 26 14 92 36 145 50 54 13
100 26 102 29 7 6 -78 75 -156 127 -134 88 -160 134 -97 167 18 10 79 54 135
98 l101 80 -82 6 c-56 4 -115 18 -186 43 -104 36 -107 36 -267 36 l-161 0 -87
-40 c-61 -28 -90 -48 -98 -65 -19 -42 -66 -58 -140 -48 l-63 8 -20 58 c-11 31
-22 57 -25 57 -3 0 -15 -24 -28 -53 -22 -52 -25 -54 -90 -75 -37 -12 -103 -44
-147 -72 -78 -49 -81 -53 -127 -143 -26 -50 -47 -104 -47 -119 -1 -15 -18 -55
-40 -88 l-38 -61 -23 52 c-21 51 -22 57 -11 189 6 74 11 146 11 158 0 18 19
35 80 74 44 28 81 55 81 59 1 5 2 15 3 22 1 7 24 14 61 18 87 9 254 48 300 72
22 11 83 61 135 111 91 89 253 226 265 226 4 0 26 -14 51 -31 64 -43 175 -79
248 -79 57 0 68 4 171 66 61 36 150 95 198 131 81 60 92 73 128 144 21 43 39
82 39 87 0 5 -43 2 -95 -6 -53 -8 -98 -12 -101 -9 -3 3 -1 15 6 26 11 22 20
331 10 331 -3 0 -28 -22 -55 -50 l-49 -50 -86 0 c-47 0 -110 -7 -140 -15 -30
-8 -56 -15 -57 -15 -2 0 -3 41 -3 90 0 106 -21 159 -88 224 l-40 38 -39 -53
c-231 -316 -250 -373 -204 -600 11 -52 21 -113 22 -137 l3 -42 -102 -84 c-57
-45 -126 -109 -154 -141 -36 -39 -71 -67 -113 -86 -56 -27 -85 -35 -85 -24 0
2 39 96 88 207 85 198 101 226 226 387 25 32 -103 -46 -152 -93 -46 -44 -80
-62 -250 -136 -108 -47 -219 -98 -246 -113 l-49 -27 6 45 c5 30 34 94 93 197
48 84 88 154 90 156 1 2 29 -4 63 -13 61 -15 62 -15 159 14 53 16 109 32 123
35 19 4 46 32 91 93 131 177 148 208 178 319 15 57 27 104 25 104 -1 0 -60
-34 -131 -75 l-129 -75 -92 0 -93 0 -57 -52 c-32 -28 -66 -64 -76 -80 -11 -15
-20 -28 -22 -28 -1 0 1 19 6 43 4 23 8 97 9 164 0 190 6 204 120 318 l97 97
50 -26 c47 -23 62 -25 190 -27 174 -1 189 5 323 136 52 51 120 109 150 129
l55 36 42 127 43 127 -43 -41 c-29 -28 -62 -47 -107 -62 l-66 -21 -62 21 c-73
24 -70 13 -43 194 10 66 17 122 15 124 -1 2 -16 -12 -33 -31 -17 -19 -95 -74
-173 -121 -234 -140 -219 -125 -270 -277 -31 -95 -52 -143 -76 -171 -41 -48
-54 -50 -41 -7 17 62 11 185 -12 231 -12 23 -39 102 -60 177 -22 74 -41 141
-44 149 -11 29 -48 -26 -133 -194 -67 -133 -91 -193 -112 -278 l-26 -108 -51
58 c-27 32 -59 76 -71 98 -14 27 -22 35 -26 25 -13 -38 -36 -229 -36 -298 0
-70 3 -84 38 -150 44 -83 113 -142 166 -142 17 0 48 -3 68 -6 l38 -7 0 -96 c0
-53 -10 -163 -21 -246 l-22 -150 -61 -107 c-34 -59 -64 -108 -68 -108 -22 0
-19 59 6 136 l27 83 -46 90 c-25 50 -45 102 -45 116 0 19 -21 41 -103 104
-118 91 -237 212 -256 259 -8 17 -16 32 -20 32 -3 0 -5 -159 -3 -353 2 -351 3
-354 25 -375 20 -18 105 -48 242 -84 43 -12 55 -21 86 -66 32 -46 36 -57 29
-87 -4 -20 -4 -66 1 -103 5 -37 6 -114 2 -172 l-6 -105 -22 65 c-46 135 -75
176 -239 340 l-156 155 0 -188 c0 -175 2 -194 26 -265 25 -75 28 -80 170 -222
l144 -145 0 -71 c0 -105 -49 -235 -133 -351 -35 -48 -68 -103 -73 -121 l-9
-32 -65 75 c-36 41 -67 80 -69 86 -2 6 6 20 17 32 14 16 29 69 52 194 l33 173
-28 72 c-55 144 -178 399 -186 387 -4 -7 -11 -36 -14 -64 -4 -27 -30 -104 -57
-170 -28 -66 -55 -148 -61 -182 -6 -35 -15 -63 -19 -63 -4 0 -8 6 -8 13 0 6
-27 59 -59 117 -33 58 -56 107 -51 110 21 13 91 138 139 248 l54 123 -26 72
c-14 40 -48 133 -77 207 l-51 135 11 89 c6 49 9 90 7 92 -2 2 -13 -29 -26 -69
-25 -78 -197 -423 -254 -506 l-35 -52 29 -52 c15 -29 55 -115 88 -192 33 -77
99 -216 147 -310 48 -93 81 -164 72 -157 -8 7 -48 23 -88 37 -67 23 -88 25
-239 25 l-166 -1 45 -24 c26 -14 114 -93 210 -189 l165 -166 63 0 c35 0 92 7
128 16 68 17 74 16 87 -21 2 -6 9 -6 18 2 11 9 31 -8 104 -90 l91 -102 -9 -40
c-6 -22 -11 -41 -12 -43 -2 -2 -26 11 -54 28 -48 30 -57 32 -198 40 -98 6
-182 17 -248 34 -55 13 -102 23 -104 20 -8 -8 53 -141 98 -212 41 -64 55 -78
126 -119 102 -59 609 -232 601 -205 -3 9 -10 36 -16 60 -6 24 -14 50 -17 59
-3 8 28 -13 70 -48 73 -61 77 -66 77 -105 0 -31 23 -93 92 -243 86 -191 93
-202 117 -199 23 3 51 32 101 106 l15 22 134 -75 c73 -41 137 -73 141 -70 5 3
24 -17 44 -44 l36 -49 -32 -71 c-17 -39 -34 -71 -37 -71 -3 0 -18 19 -33 43
-71 112 -202 187 -330 189 -66 1 -77 4 -117 35 -24 18 -47 30 -52 27 -11 -6
-16 7 -24 68 -10 76 -76 145 -273 285 -92 66 -173 123 -181 128 -12 7 -13 -23
-7 -201 l8 -208 44 -111 c45 -109 45 -110 122 -171 65 -52 85 -63 130 -69 28
-4 52 -11 52 -16 0 -5 29 -57 66 -115 36 -59 63 -109 60 -111 -3 -3 -65 32
-138 78 -128 81 -137 89 -246 219 -118 141 -144 183 -141 234 3 48 -58 183
-120 265 -33 45 -82 93 -123 123 -76 55 -205 197 -246 270 -15 26 -29 48 -32
48 -20 0 -97 -204 -106 -282 -9 -77 12 -181 49 -248 17 -30 62 -91 101 -135
38 -44 72 -83 75 -87 4 -4 76 -21 161 -39 101 -20 159 -37 165 -47 6 -8 66
-83 134 -166 111 -135 133 -157 210 -205 47 -29 129 -91 181 -136 53 -45 122
-97 153 -115 32 -18 56 -34 55 -36 -2 -2 -111 26 -242 62 -190 52 -241 63
-247 52 -6 -9 -9 -3 -9 17 0 17 -14 65 -32 107 -31 76 -34 80 -142 165 -141
111 -183 125 -398 127 l-146 1 -41 33 c-23 18 -41 31 -41 28 0 -2 25 -67 56
-143 49 -121 62 -145 111 -195 84 -85 193 -127 493 -189 192 -39 667 -160 674
-171 1 -2 10 -22 19 -46 10 -28 12 -40 4 -35 -7 5 -40 31 -74 56 l-61 47 -124
-1 c-68 0 -172 -4 -233 -8 -74 -5 -131 -4 -173 4 -34 7 -62 10 -62 7 0 -12
233 -250 281 -288 49 -38 67 -45 157 -62 l101 -20 76 22 c67 19 81 28 117 70
23 27 44 44 49 39 12 -12 99 -263 99 -286 0 -13 -5 -17 -17 -13 -34 10 -139
35 -213 52 -75 17 -350 35 -350 23 0 -4 15 -13 33 -20 17 -7 53 -33 79 -57 37
-34 52 -58 69 -110 25 -77 81 -165 148 -235 56 -60 195 -132 301 -158 90 -23
111 -23 154 -5 33 14 36 13 130 -43 53 -32 98 -60 100 -62 3 -3 -39 -3 -94 -1
-94 4 -104 2 -226 -38 l-128 -43 -63 21 c-35 11 -63 18 -63 16 0 -2 20 -34 44
-71 100 -154 165 -183 403 -183 l153 0 72 36 c79 40 69 42 114 -21 14 -19 15
-19 45 -1 35 20 23 28 96 -70 35 -49 150 -134 200 -148 20 -6 17 -10 -29 -54
-28 -26 -72 -78 -98 -117 -27 -38 -85 -106 -129 -150 -45 -44 -81 -82 -81 -85
0 -3 50 -4 110 -2 88 3 136 -2 237 -22 89 -18 158 -26 233 -26 l107 0 87 65
c47 36 98 83 112 105 15 22 29 40 31 40 2 0 16 -6 31 -14 15 -8 50 -17 77 -21
106 -13 106 -14 43 -46 -31 -15 -66 -42 -78 -59 -12 -17 -42 -41 -67 -53 -59
-31 -46 -41 87 -68 56 -11 130 -31 164 -43 55 -21 67 -22 126 -12 68 12 104
32 227 129 l62 48 7 -28 c4 -15 14 -36 22 -46 14 -16 14 -19 2 -27 -8 -6 -20
-10 -27 -10 -13 0 -217 -61 -413 -125 -302 -97 -841 -307 -1067 -415 l-141
-68 -128 217 c-216 368 -279 451 -440 580 -201 162 -374 196 -468 92 -11 -12
-23 -21 -27 -21 -13 0 -172 249 -234 365 -68 130 -141 239 -262 391 -146 183
-160 199 -177 185 -12 -10 -10 -24 15 -96 52 -150 79 -276 86 -386 3 -59 3
-118 0 -131 l-7 -26 -78 19 c-208 48 -419 134 -465 188 -21 25 -27 28 -37 17
-9 -11 6 -35 68 -113 153 -190 254 -360 302 -508 53 -165 159 -385 278 -580
137 -225 313 -415 444 -479 84 -41 234 -86 285 -86 56 0 99 26 117 71 9 21 19
39 24 39 4 0 25 -33 47 -73 119 -222 279 -441 435 -596 165 -164 326 -270 495
-327 75 -25 87 -26 201 -20 227 12 443 64 582 142 173 97 282 267 258 399 -8
40 -48 85 -76 85 -11 0 -33 29 -63 85 l-45 85 36 16 c398 172 959 328 1452
404 127 20 343 49 347 46 0 0 3 -36 4 -80 l4 -79 -35 -29 c-47 -38 -220 -123
-295 -143 -33 -9 -117 -19 -187 -22 l-127 -6 28 -41 c43 -62 116 -125 177
-153 59 -27 57 -18 32 -118 -16 -62 -55 -132 -88 -156 -23 -17 -27 -26 -20
-40 9 -17 16 -16 122 12 62 17 148 41 190 54 42 14 79 25 82 25 3 0 -35 -50
-85 -111 -49 -61 -88 -113 -86 -116 2 -2 53 -17 112 -33 l108 -29 209 202
c114 111 224 210 242 219 44 23 144 61 282 108 109 37 111 37 135 19 35 -26
103 -39 195 -36 68 3 89 8 130 32 46 27 55 29 139 26 49 -2 104 -9 121 -16 24
-10 461 -399 667 -594 l37 -35 101 50 100 50 -161 134 c-145 122 -160 137
-155 160 4 14 10 29 14 33 4 4 150 -44 324 -106 174 -63 317 -109 317 -103 0
6 -15 70 -34 142 l-33 130 84 90 c46 49 97 105 113 126 l30 36 -52 -14 c-114
-30 -270 -11 -419 51 -100 42 -241 125 -235 140 12 34 17 106 8 138 -13 46
-22 45 174 12 472 -81 930 -194 1392 -346 l243 -80 -48 -59 c-26 -32 -58 -63
-71 -69 -58 -28 -66 -147 -17 -246 105 -215 389 -344 815 -370 91 -6 114 -4
175 15 219 69 461 248 659 490 75 92 230 322 276 412 32 61 37 67 60 61 14 -4
33 -17 43 -29 31 -40 83 -49 172 -29 181 40 295 104 422 238 184 195 391 551
504 869 68 190 157 344 306 527 94 116 90 110 73 121 -11 7 -23 1 -44 -21 -56
-57 -214 -124 -409 -173 -59 -16 -115 -25 -124 -22 -14 6 -15 22 -10 129 6
128 31 243 87 407 28 80 27 99 0 100 -7 0 -107 -119 -201 -240 -101 -130 -156
-214 -232 -356 -50 -95 -162 -272 -220 -349 -5 -6 -11 -4 -18 7 -5 10 -29 29
-53 43 -55 32 -141 34 -220 4 -125 -46 -334 -218 -432 -354 -43 -61 -194 -310
-293 -483 l-53 -92 -121 64 c-235 124 -807 333 -1277 466 -176 50 -552 146
-635 162 -35 7 133 27 310 38 196 11 456 12 533 1 28 -4 52 -4 52 0 0 8 -229
52 -357 69 -44 6 -146 12 -226 13 -80 1 -143 5 -140 10 2 4 11 7 18 7 8 0 61
16 117 36 163 56 314 93 436 106 173 18 129 33 -98 33 -103 0 -188 1 -187 2
10 9 226 56 316 69 97 14 170 15 441 10 179 -4 347 -9 374 -12 81 -10 45 11
-76 44 -157 43 -265 62 -391 69 -59 3 -106 7 -104 9 2 2 86 15 187 29 102 14
230 35 285 46 159 32 543 24 738 -17 15 -3 27 -2 27 3 0 11 -168 66 -281 92
-117 27 -298 44 -389 37 -55 -4 -70 -3 -57 4 44 28 164 40 457 50 324 10 498
28 646 65 103 26 244 82 244 97 0 5 -8 7 -17 4 -95 -27 -450 -60 -558 -51 -86
7 -221 29 -270 43 l-30 9 40 8 c22 4 108 22 190 41 83 18 200 43 260 54 416
78 736 197 985 363 168 112 174 135 14 53 -95 -49 -124 -58 -225 -75 -155 -26
-174 -31 -395 -116 -241 -93 -286 -103 -402 -88 -48 6 -100 17 -117 23 -29 12
-27 13 70 41 297 88 515 169 628 233 66 38 129 86 112 86 -56 0 -361 -55 -418
-76 -40 -14 -88 -29 -108 -33 -36 -8 -79 1 -79 17 0 5 114 50 253 99 203 73
277 95 382 113 283 48 687 162 662 187 -7 7 -258 -33 -327 -52 -49 -13 -628
-94 -785 -109 l-60 -6 25 20 c14 10 43 27 65 36 22 9 90 41 150 70 178 86 366
130 645 154 131 10 205 29 311 78 62 29 158 111 114 98 -117 -34 -293 -69
-390 -78 -66 -5 -223 -30 -349 -55 -125 -24 -230 -42 -232 -40 -8 8 932 311
1005 323 100 16 85 34 -29 34 -145 0 -405 -60 -699 -161 -231 -79 -229 -79
-131 -20 292 175 631 312 893 361 37 7 67 16 67 21 0 14 -196 10 -295 -6 -188
-30 -386 -99 -605 -210 -151 -76 -240 -115 -240 -105 0 5 35 39 78 75 161 136
505 282 934 396 71 19 128 38 128 42 0 17 -299 -19 -445 -53 -115 -27 -235
-66 -337 -110 l-89 -39 76 71 c45 42 146 116 243 178 91 58 167 111 169 117 2
6 -48 0 -129 -17 -155 -31 -236 -68 -350 -158 -67 -54 -152 -115 -187 -137
-10 -5 -8 2 5 26 28 52 410 426 484 474 90 59 241 138 325 169 53 20 83 39
120 76 27 27 47 52 44 54 -7 7 -212 -78 -277 -115 -53 -30 -175 -110 -342
-223 -46 -32 -112 -83 -146 -114 -33 -32 -98 -81 -143 -110 l-82 -52 18 32
c28 52 259 278 476 467 167 147 223 203 367 373 94 110 168 203 165 206 -2 3
-31 -17 -62 -44 -162 -139 -873 -734 -877 -734 -24 0 16 69 157 276 163 239
164 239 405 484 245 249 322 345 145 182 -103 -95 -217 -186 -318 -255 -33
-22 -89 -68 -124 -101 -57 -55 -73 -80 -162 -258 -55 -109 -102 -198 -105
-198 -14 0 5 137 26 192 67 179 335 503 638 770 254 224 449 462 543 662 37
79 95 274 84 284 -2 3 -40 -69 -84 -159 -108 -222 -157 -281 -721 -854 -162
-165 -315 -322 -338 -348 -24 -27 -46 -47 -48 -44 -16 16 116 228 206 331 29
33 89 87 133 120 116 87 221 223 335 436 73 136 172 374 172 413 0 41 -99
-115 -222 -349 -152 -287 -201 -354 -294 -400 -49 -24 -70 -46 -182 -188 -69
-89 -144 -187 -166 -218 -22 -32 -41 -56 -44 -54 -10 11 85 170 134 225 40 43
64 82 84 134 99 258 255 501 553 865 60 73 107 136 103 139 -8 9 -79 -53 -187
-163 -257 -263 -430 -515 -523 -761 -23 -61 -38 -82 -96 -137 -62 -58 -110
-94 -110 -82 0 2 58 96 129 207 127 202 198 329 184 329 -5 0 -23 -24 -42 -53
-61 -93 -168 -231 -215 -277 l-46 -44 66 114 c175 305 448 910 410 910 -2 0
-39 -69 -80 -152 -41 -84 -112 -214 -156 -288 -90 -150 -291 -452 -296 -447
-7 7 33 111 88 232 31 66 96 208 145 315 94 204 117 260 105 260 -4 0 -33 -47
-65 -104 -90 -162 -243 -396 -308 -470 -11 -13 35 138 78 254 107 289 235 485
437 668 26 24 45 46 42 50 -12 11 -117 -72 -204 -162 -132 -136 -276 -336
-377 -524 -15 -28 -30 -51 -32 -49 -5 5 106 303 166 447 102 242 239 473 377
634 61 72 65 78 39 72 -75 -19 -237 -166 -323 -293 -47 -69 -181 -335 -238
-471 -21 -51 -40 -89 -42 -84 -1 4 4 51 12 103 7 52 12 96 10 98 -2 3 -11 -4
-19 -15 -15 -18 -15 -18 -11 6 17 89 63 256 87 317 72 181 133 284 268 448 71
88 130 164 131 168 0 4 -37 -11 -82 -35 -60 -30 -104 -64 -159 -118 -90 -90
-142 -165 -227 -325 l-63 -120 4 95 c6 116 39 222 98 316 23 36 39 67 36 70
-2 3 -33 -17 -68 -43 -60 -46 -85 -81 -129 -183 -20 -47 0 139 26 240 14 52
56 176 95 275 38 99 69 184 69 188 0 5 -13 -1 -30 -13 -65 -46 -167 -222 -250
-431 -42 -104 -89 -271 -91 -318 -1 -26 -1 -26 -10 4 -16 50 -22 283 -10 380
22 178 68 309 147 417 41 55 39 70 -4 39 -77 -54 -132 -148 -188 -317 -35
-107 -92 -375 -119 -553 -9 -58 -17 -107 -20 -109 -4 -5 -17 41 -41 148 -13
55 -18 136 -21 308 -3 196 0 255 17 375 20 138 51 294 65 330 4 9 3 17 -1 17
-13 0 -101 -178 -119 -238 -8 -27 -29 -129 -45 -225 -30 -175 -57 -273 -75
-271 -11 2 -29 51 -69 186 -37 121 -54 318 -38 434 6 48 14 89 17 92 9 10 47
-32 77 -85 29 -51 48 -73 48 -56 0 19 -110 230 -129 247 -17 15 -24 16 -35 7
-22 -18 -43 -92 -61 -206 -24 -159 -26 -166 -35 -160 -14 8 -49 109 -80 230
-48 184 -83 265 -178 412 -71 109 -99 135 -58 56z m-8774 -2780 c0 -44 -13
-42 -30 5 -8 20 -16 40 -18 45 -2 4 8 2 22 -4 20 -10 26 -19 26 -46z m145
-1825 c26 -40 63 -110 81 -156 l33 -83 -27 3 c-21 2 -38 23 -88 105 -61 98
-63 103 -57 152 3 28 7 51 8 51 1 0 24 -32 50 -72z m395 -446 c0 -5 -9 -35
-20 -67 -11 -32 -20 -70 -20 -85 0 -15 -7 -45 -16 -66 -9 -21 -22 -65 -28 -97
l-12 -59 -56 151 -55 151 28 0 c39 0 116 35 129 59 10 20 50 30 50 13z m730
-917 c0 -7 -5 -37 -11 -65 -8 -38 -17 -54 -37 -65 -86 -47 -182 -190 -182
-272 -1 -36 -1 -37 -16 -18 -8 11 -20 37 -26 58 -8 26 -16 36 -26 32 -8 -3
-68 27 -133 67 l-119 72 0 58 0 58 39 -19 c54 -28 230 -71 291 -71 34 0 67 8
100 25 49 25 50 27 50 70 0 24 -5 47 -12 51 -8 5 1 12 23 20 46 17 59 17 59
-1z m180 -388 l69 -92 -67 -5 c-45 -4 -97 -18 -156 -43 -50 -20 -93 -37 -96
-37 -3 0 -6 9 -7 19 -1 12 19 37 53 66 30 26 54 51 54 57 0 6 9 42 20 80 19
62 23 67 40 58 11 -6 51 -52 90 -103z m396 -505 c-2 -1 -17 1 -35 4 -25 5 -29
9 -20 20 9 11 15 10 34 -4 13 -9 22 -18 21 -20z m3409 -1072 c83 -5 191 -12
240 -16 88 -7 89 -8 57 -21 -45 -18 -336 -103 -355 -103 -8 0 -34 9 -58 20
-34 15 -66 20 -145 20 -87 0 -107 -3 -146 -24 -54 -29 -138 -42 -167 -27 -11
6 -46 34 -78 62 -32 28 -71 58 -88 67 l-30 17 90 6 c155 9 523 9 680 -1z"/>
<path d="M9891 9194 c-1 -23 107 -250 115 -242 6 7 -76 207 -98 239 -16 23
-17 23 -17 3z"/>
<path d="M9666 8978 c12 -40 95 -200 100 -195 7 7 -89 216 -99 217 -5 0 -5
-10 -1 -22z"/>
<path d="M9716 8201 c-12 -18 15 -63 72 -123 86 -91 413 -330 429 -314 11 11
-19 74 -60 126 -33 41 -89 86 -227 180 -224 152 -207 142 -214 131z"/>
<path d="M10016 6030 c-45 -14 -86 -59 -118 -130 -64 -137 -57 -144 34 -35 79
95 108 110 203 102 40 -4 81 -10 91 -13 11 -4 1 12 -26 40 -42 44 -46 46 -100
45 -30 0 -68 -5 -84 -9z"/>
<path d="M9860 5631 c-80 -43 -110 -108 -110 -237 0 -60 6 -99 21 -139 11 -30
23 -55 27 -55 4 0 5 40 4 88 -5 116 10 191 56 285 21 42 38 77 38 77 -1 -1
-17 -9 -36 -19z"/>
<path d="M9876 4163 c37 -119 55 -216 61 -320 3 -62 9 -113 13 -113 25 0 57
188 46 264 -9 57 -51 145 -89 184 -17 17 -34 32 -38 32 -5 0 -1 -21 7 -47z"/>
<path d="M8990 2213 c-132 -20 -216 -37 -224 -43 -10 -10 105 -18 349 -24 180
-5 532 -37 602 -56 46 -12 50 4 5 19 -133 43 -288 84 -366 96 -82 13 -302 18
-366 8z"/>
</g>
</svg>
