<?xml version="1.0" standalone="no"?>
<!DOCTYPE svg PUBLIC "-//W3C//DTD SVG 20010904//EN"
 "http://www.w3.org/TR/2001/REC-SVG-20010904/DTD/svg10.dtd">
<svg version="1.0" xmlns="http://www.w3.org/2000/svg"
 width="1280.000000pt" height="1244.000000pt" viewBox="0 0 1280.000000 1244.000000"
 preserveAspectRatio="xMidYMid meet">
<metadata>
Created by potrace 1.15, written by Peter Selinger 2001-2017
</metadata>
<g transform="translate(0.000000,1244.000000) scale(0.100000,-0.100000)"
fill="#000000" stroke="none">
<path d="M6343 12421 c-18 -11 -41 -38 -52 -59 -22 -43 -31 -174 -51 -767 -13
-396 -28 -806 -40 -1155 -5 -151 -14 -412 -20 -580 -6 -168 -15 -417 -20 -553
-6 -136 -10 -275 -10 -309 0 -41 -3 -59 -10 -52 -10 10 -193 431 -237 544 -32
83 -77 222 -109 329 -23 81 -24 93 -24 420 0 475 -14 618 -77 814 -22 67 -75
167 -190 358 -139 231 -197 376 -209 524 -5 57 -1 92 21 183 l28 113 -20 27
c-25 34 -77 52 -118 41 -112 -32 -190 -187 -202 -399 -11 -206 22 -329 156
-580 94 -177 122 -240 146 -335 46 -177 60 -354 45 -585 -37 -574 -28 -649
125 -1065 42 -114 85 -239 95 -279 16 -65 39 -308 28 -296 -7 7 -256 536 -993
2110 -431 919 -486 1032 -521 1057 -42 30 -86 37 -127 19 -85 -35 -89 -105
-19 -296 61 -165 249 -655 502 -1310 67 -173 144 -371 170 -440 26 -69 103
-267 170 -440 67 -173 155 -403 196 -510 41 -107 86 -224 100 -259 14 -35 23
-66 20 -69 -10 -10 -532 523 -617 629 -118 150 -156 220 -290 550 -123 304
-172 399 -276 528 -84 106 -153 167 -355 319 -209 156 -344 291 -402 401 -39
75 -66 155 -66 201 0 41 -20 100 -41 121 -45 45 -140 6 -178 -74 -17 -35 -21
-62 -21 -138 0 -108 22 -201 75 -315 70 -152 138 -233 329 -389 176 -144 233
-201 311 -309 108 -152 153 -249 265 -561 166 -465 199 -520 510 -855 94 -102
191 -214 215 -250 44 -67 119 -209 113 -215 -5 -6 -28 15 -1673 1505 -1031
933 -935 852 -1014 858 -55 4 -58 3 -89 -32 -34 -39 -41 -81 -22 -130 11 -31
103 -135 301 -341 602 -628 1892 -1969 1976 -2056 57 -58 103 -108 103 -111 0
-17 -644 256 -780 329 -193 105 -194 106 -521 422 -282 272 -381 351 -532 421
-105 49 -132 58 -382 125 -115 30 -252 73 -305 94 -171 67 -294 166 -373 301
-23 38 -44 61 -72 74 -38 19 -39 19 -73 0 -81 -44 -91 -147 -28 -279 108 -227
291 -366 616 -470 395 -126 530 -210 807 -503 465 -492 483 -506 923 -708 212
-98 299 -150 416 -251 29 -26 52 -49 49 -51 -3 -3 -840 296 -1252 449 -29 10
-77 28 -105 38 -180 67 -1242 450 -1488 538 -518 184 -528 186 -596 158 -73
-30 -78 -131 -10 -191 41 -35 133 -78 736 -344 1372 -605 2424 -1071 2432
-1079 11 -10 -656 -2 -797 10 -244 20 -350 48 -624 166 -332 142 -434 178
-591 210 -121 25 -333 22 -525 -6 -209 -31 -405 -38 -522 -17 -111 19 -172 45
-284 120 -91 61 -122 68 -162 36 -110 -87 -4 -271 223 -389 163 -85 314 -117
506 -107 475 23 498 22 705 -29 122 -30 242 -78 494 -198 312 -147 437 -192
605 -217 36 -6 192 -17 348 -25 180 -9 306 -21 345 -31 87 -22 250 -75 245
-79 -6 -6 -419 -22 -1363 -55 -165 -6 -419 -15 -565 -20 -146 -5 -404 -14
-575 -20 -606 -21 -1031 -41 -1070 -50 -55 -12 -105 -67 -105 -115 0 -48 46
-99 102 -113 47 -12 328 -26 838 -42 184 -6 466 -15 625 -20 160 -5 439 -14
620 -20 182 -6 458 -15 615 -20 157 -5 393 -13 525 -16 295 -9 312 -12 224
-43 -35 -13 -161 -63 -279 -111 -228 -93 -405 -154 -573 -196 -100 -26 -112
-26 -582 -34 -471 -8 -482 -9 -570 -33 -184 -52 -213 -65 -485 -218 -277 -156
-404 -199 -586 -199 -64 0 -118 7 -170 21 -89 24 -125 16 -150 -33 -41 -79 25
-172 161 -228 98 -40 193 -53 345 -45 193 10 241 25 504 156 99 49 214 100
255 113 198 62 395 80 676 64 110 -7 297 -12 415 -13 190 0 227 3 320 23 95
22 303 88 484 156 38 14 105 34 150 45 80 19 313 47 323 38 2 -3 -22 -17 -54
-32 -103 -47 -2491 -1107 -2853 -1265 -312 -137 -373 -175 -386 -245 -12 -65
52 -129 130 -128 23 0 95 18 161 40 95 32 1164 420 1525 553 291 107 1326 483
1465 531 166 58 169 59 140 31 -16 -16 -127 -121 -245 -233 -423 -399 -518
-465 -852 -588 -349 -129 -445 -172 -588 -266 -125 -83 -207 -164 -372 -370
-153 -192 -293 -332 -389 -388 -71 -41 -156 -69 -268 -87 -116 -19 -151 -73
-98 -150 37 -55 79 -73 181 -78 109 -6 205 10 311 51 173 66 288 153 444 335
129 152 216 235 314 300 163 110 261 153 623 277 451 155 500 183 845 487 97
85 190 164 205 175 45 32 264 146 270 140 3 -2 -46 -58 -108 -123 -146 -153
-1244 -1298 -1538 -1604 -525 -546 -748 -788 -774 -839 -28 -53 -17 -107 28
-143 24 -20 106 -24 139 -7 44 23 154 121 1352 1209 939 853 1176 1067 1205
1087 19 13 18 10 -6 -44 -14 -32 -66 -152 -116 -268 -100 -236 -201 -435 -285
-562 -60 -92 -164 -201 -417 -439 -317 -297 -390 -421 -511 -869 -87 -322
-199 -505 -366 -598 -117 -66 -144 -112 -98 -171 81 -103 264 -63 463 100 146
120 230 261 321 539 71 216 111 297 221 443 76 100 220 244 394 392 197 168
344 318 411 420 61 92 105 174 230 430 44 91 98 188 118 215 44 57 151 179
162 183 11 5 17 21 -544 -1439 -723 -1879 -694 -1799 -683 -1874 16 -106 148
-127 219 -33 28 36 125 237 464 963 531 1135 938 2004 962 2055 l26 55 3 -285
c3 -275 -8 -520 -29 -638 -28 -160 -72 -285 -202 -573 -102 -226 -142 -335
-166 -458 -29 -141 -28 -328 1 -499 27 -159 32 -505 9 -587 -20 -71 -62 -151
-115 -219 -26 -32 -49 -70 -53 -84 -23 -93 101 -141 215 -83 52 27 142 126
194 214 53 90 103 238 119 350 10 69 10 111 -2 228 -21 210 -17 401 10 526 38
177 55 221 236 593 193 397 214 470 234 815 21 358 32 432 89 595 l29 85 6
-65 c4 -36 11 -200 17 -365 16 -451 28 -826 40 -1165 6 -168 15 -429 20 -580
5 -151 14 -412 20 -580 17 -486 29 -702 42 -742 6 -21 24 -50 40 -65 24 -23
38 -28 78 -28 63 0 104 36 119 104 11 49 24 306 41 786 6 165 15 422 20 570 5
149 14 403 20 565 44 1228 52 1444 59 1458 4 7 16 -10 31 -45 13 -32 62 -150
110 -263 96 -224 127 -306 171 -450 56 -179 57 -194 63 -670 l5 -445 30 -105
c53 -181 72 -222 217 -462 133 -219 182 -330 210 -476 19 -101 18 -127 -13
-252 -25 -104 -26 -109 -9 -135 25 -38 70 -55 115 -43 81 22 137 91 179 218
22 65 25 94 26 220 1 220 -20 293 -160 551 -102 188 -137 282 -165 437 -25
139 -29 392 -9 651 15 189 8 403 -15 511 -16 73 -75 253 -149 455 -63 173 -86
271 -92 390 -4 87 -3 106 7 91 6 -10 64 -131 129 -270 1346 -2879 1334 -2853
1377 -2884 60 -41 133 -35 173 15 24 31 27 108 6 168 -32 91 -122 328 -236
625 -67 173 -166 430 -220 570 -54 140 -153 397 -220 570 -285 738 -520 1351
-520 1356 0 14 241 -220 412 -401 300 -315 340 -378 493 -765 98 -248 140
-336 217 -452 83 -125 210 -249 403 -393 243 -181 366 -308 438 -451 23 -45
37 -99 52 -206 19 -126 152 -129 214 -5 20 41 24 63 23 137 -1 145 -52 297
-149 442 -59 90 -118 149 -281 282 -156 127 -229 205 -318 338 -87 131 -135
235 -234 513 -167 465 -200 521 -506 850 -82 88 -166 181 -186 206 -34 42
-148 245 -148 263 0 15 -20 33 1525 -1369 1184 -1073 1092 -995 1176 -995 41
0 51 4 78 35 32 37 40 80 22 127 -16 41 -211 249 -1081 1153 -905 940 -1295
1347 -1298 1356 -2 5 34 -7 80 -26 45 -20 169 -70 273 -111 207 -83 466 -208
577 -280 71 -46 131 -101 458 -419 295 -288 413 -355 804 -455 105 -27 225
-61 266 -76 206 -73 349 -179 426 -312 53 -93 95 -117 153 -87 50 25 65 58 65
137 -1 60 -6 79 -42 151 -53 106 -121 189 -222 270 -109 86 -232 145 -435 207
-306 93 -462 186 -685 410 -80 80 -220 224 -312 321 -218 230 -306 292 -623
434 -272 122 -344 165 -481 282 -26 23 -46 44 -43 47 4 4 1252 -443 1574 -564
28 -10 363 -132 745 -270 382 -138 742 -269 800 -290 212 -76 291 -84 344 -35
36 34 37 110 2 153 -40 47 -24 39 -1341 620 -727 321 -1223 540 -1530 675
l-319 142 319 3 c331 3 557 -8 691 -34 114 -21 253 -71 484 -172 365 -159 511
-197 755 -196 83 1 182 6 220 12 39 6 108 17 155 24 47 7 162 13 255 13 234 0
322 -26 483 -140 71 -50 105 -56 145 -25 56 44 56 132 0 212 -40 58 -133 129
-238 182 -170 85 -297 112 -491 102 -476 -23 -521 -21 -713 30 -122 33 -240
80 -481 194 -437 206 -526 228 -1025 250 -225 10 -298 22 -440 71 -124 44
-184 39 1045 79 381 12 823 27 1220 40 162 5 439 14 615 20 587 19 647 27 695
88 41 52 14 134 -56 167 -51 24 -35 24 -1859 85 -170 6 -436 15 -590 20 -154
5 -446 14 -650 21 -203 6 -386 14 -405 18 l-34 7 64 23 c36 13 151 58 255 101
209 86 436 165 590 206 99 26 106 26 585 34 447 7 491 10 565 29 171 46 242
77 490 219 173 99 298 156 405 183 104 26 247 25 353 -2 78 -20 83 -20 114 -4
43 24 58 61 43 113 -15 56 -52 98 -119 131 -121 61 -268 81 -454 62 -142 -14
-254 -52 -442 -151 -174 -90 -256 -122 -395 -150 -171 -35 -288 -39 -620 -23
-515 25 -606 14 -994 -122 -121 -42 -256 -85 -300 -95 -82 -20 -304 -46 -313
-37 -2 3 22 17 54 32 71 33 1199 534 1858 825 970 429 1086 481 1201 535 137
64 148 73 170 130 15 40 15 45 -1 79 -32 67 -104 82 -225 47 -36 -10 -771
-276 -1634 -590 -864 -314 -1571 -569 -1572 -568 -5 5 537 513 596 560 161
127 290 199 510 282 431 163 513 202 655 309 108 81 166 142 317 331 152 191
293 332 389 388 73 43 161 72 268 88 79 12 121 40 121 81 0 37 -31 86 -72 114
-35 25 -51 29 -134 32 -143 7 -256 -19 -399 -90 -129 -64 -207 -129 -350 -292
-150 -170 -206 -226 -285 -283 -160 -115 -301 -177 -755 -333 -364 -126 -409
-154 -830 -525 -60 -53 -139 -114 -175 -135 -72 -42 -206 -110 -216 -110 -11
0 37 50 1075 1134 1117 1166 1324 1387 1346 1432 23 50 19 89 -15 127 -58 66
-122 57 -231 -35 -106 -88 -346 -304 -1269 -1143 -1026 -932 -1199 -1088
-1216 -1098 -7 -4 8 39 33 95 25 57 74 171 109 255 120 287 232 492 344 626
38 45 157 165 265 265 385 360 468 489 575 897 90 341 196 533 344 625 144 89
175 126 146 177 -53 93 -198 96 -346 7 -90 -54 -160 -111 -218 -178 -111 -128
-153 -209 -225 -431 -119 -368 -225 -510 -662 -892 -320 -280 -368 -344 -563
-738 -125 -252 -185 -344 -290 -444 l-35 -34 33 89 c91 242 195 515 426 1114
139 360 324 842 412 1070 234 608 334 877 354 950 32 121 -2 184 -101 184 -46
1 -58 -3 -85 -29 -45 -43 -121 -201 -830 -1722 l-645 -1383 -3 248 c-3 251 11
587 29 690 28 164 45 211 198 553 140 315 173 423 190 619 9 98 3 196 -23 360
-27 178 -37 350 -26 451 17 153 49 234 134 343 26 32 49 70 53 84 9 39 -9 75
-47 94 -158 80 -373 -139 -460 -469 -31 -118 -35 -208 -15 -398 20 -197 16
-322 -16 -470 -28 -135 -59 -213 -212 -535 -168 -356 -183 -390 -202 -453 -25
-85 -43 -229 -55 -447 -15 -273 -32 -385 -76 -521 -35 -108 -38 -112 -45 -79
-6 32 -14 232 -39 975 -11 308 -24 699 -40 1140 -5 149 -14 403 -20 565 -16
455 -30 732 -41 770 -20 80 -111 122 -176 81z"/>
</g>
</svg>
