<?xml version="1.0" standalone="no"?>
<!DOCTYPE svg PUBLIC "-//W3C//DTD SVG 20010904//EN"
 "http://www.w3.org/TR/2001/REC-SVG-20010904/DTD/svg10.dtd">
<svg version="1.0" xmlns="http://www.w3.org/2000/svg"
 width="1222.000000pt" height="1280.000000pt" viewBox="0 0 1222.000000 1280.000000"
 preserveAspectRatio="xMidYMid meet">
<metadata>
Created by potrace 1.15, written by Peter Selinger 2001-2017
</metadata>
<g transform="translate(0.000000,1280.000000) scale(0.100000,-0.100000)"
fill="#000000" stroke="none">
<path d="M5281 12707 l-55 -92 16 -555 c8 -305 14 -556 13 -557 -1 -2 -47 12
-103 31 l-101 34 -15 -46 c-29 -83 -12 -213 27 -212 6 0 50 9 97 19 47 11 86
18 87 17 2 -1 -3 -17 -9 -34 -9 -22 -19 -32 -34 -32 -12 0 -32 -8 -45 -18 -20
-17 -22 -27 -20 -82 1 -35 7 -72 13 -83 8 -16 7 -23 -6 -32 -18 -14 -21 -50
-5 -61 6 -4 8 -20 5 -39 -6 -28 -2 -37 33 -68 22 -19 51 -43 65 -52 17 -12 26
-26 26 -44 0 -69 77 -98 119 -45 12 15 21 37 21 49 0 28 42 39 92 24 18 -5 50
-9 71 -7 35 2 43 -4 151 -110 63 -62 123 -129 133 -150 16 -32 23 -37 52 -37
28 0 46 -12 112 -73 69 -66 78 -77 73 -102 -5 -23 -1 -31 19 -45 15 -9 30 -14
35 -11 5 3 14 -6 20 -19 12 -26 45 -34 57 -14 5 6 13 3 22 -10 8 -12 25 -21
39 -21 13 0 24 -4 24 -10 0 -13 -7 -13 -98 6 -67 14 -91 14 -179 4 -56 -7
-118 -10 -138 -7 -52 9 -196 -26 -252 -60 -26 -16 -67 -35 -91 -41 -23 -7 -65
-33 -92 -57 -28 -25 -63 -47 -78 -50 -78 -16 -106 -29 -146 -68 -49 -46 -70
-103 -60 -156 7 -31 43 -77 77 -96 16 -9 6 -20 -72 -88 -111 -95 -230 -230
-317 -357 l-65 -96 -91 -27 c-169 -52 -318 -140 -318 -188 0 -11 55 -144 121
-296 l121 -277 -27 -22 c-47 -37 -175 -107 -234 -127 -69 -24 -155 -26 -197
-4 -55 28 -57 38 -18 93 45 62 123 206 141 256 24 72 -16 103 -91 70 -53 -24
-116 -39 -101 -24 6 5 38 33 73 62 92 76 122 121 122 185 0 68 -19 120 -71
197 -60 88 -135 165 -193 199 -46 26 -48 28 -25 33 93 22 124 25 159 20 78
-13 88 25 36 137 -19 41 -38 91 -42 113 l-7 38 34 -8 c19 -5 68 -9 110 -9 103
0 150 29 239 146 36 48 82 105 103 128 20 22 37 45 37 49 0 18 -33 52 -50 52
-10 0 -69 34 -130 75 -71 48 -134 82 -171 93 -45 13 -58 21 -53 32 37 86 43
133 20 166 -14 20 -24 21 -196 20 -157 -1 -179 1 -174 14 62 145 70 425 18
604 -31 109 -9 214 72 331 68 100 84 152 84 274 0 74 5 106 20 140 25 54 25
73 2 94 -25 22 -35 21 -90 -8 -47 -25 -113 -32 -180 -19 -29 6 -30 7 -20 42
16 59 1 114 -54 199 -28 43 -60 101 -71 128 -10 28 -23 56 -29 63 -20 23 -54
13 -92 -28 -20 -22 -71 -63 -114 -91 -88 -59 -144 -110 -174 -157 -17 -27 -23
-31 -35 -20 -22 18 -100 13 -167 -11 -37 -13 -72 -19 -95 -16 -20 3 -43 1 -51
-4 -16 -11 -33 -119 -34 -221 l0 -66 -134 -28 c-102 -22 -149 -27 -203 -24
-110 8 -105 24 8 31 184 12 249 50 272 158 7 30 22 64 34 77 20 21 20 25 6 50
-12 22 -24 28 -64 32 -38 4 -66 17 -118 53 -38 26 -72 47 -78 47 -5 0 -9 17
-9 39 0 66 -18 96 -109 179 -49 45 -109 112 -134 150 -25 38 -55 72 -66 75
-29 7 -55 -19 -75 -75 -18 -48 -55 -87 -159 -165 -45 -34 -59 -52 -74 -93 -17
-50 -19 -51 -50 -45 -48 9 -110 -11 -177 -57 -34 -23 -76 -43 -98 -46 -35 -4
-68 -31 -68 -54 0 -4 23 -33 51 -65 28 -32 103 -136 166 -231 173 -263 302
-385 478 -453 84 -33 221 -59 307 -59 l59 0 -15 -27 c-7 -16 -17 -42 -20 -59
-4 -17 -18 -46 -32 -65 -13 -18 -24 -43 -24 -55 0 -25 34 -54 63 -54 9 0 44
-13 77 -30 33 -16 73 -30 89 -30 25 0 30 -5 35 -34 4 -19 24 -60 46 -92 29
-43 42 -75 50 -127 18 -101 53 -131 101 -83 32 31 53 41 129 60 86 22 131 53
155 107 10 24 20 45 21 47 4 7 74 -28 74 -37 0 -15 -27 -39 -130 -114 -141
-103 -198 -155 -245 -219 l-43 -57 -46 80 c-34 58 -49 96 -54 137 -6 46 -11
59 -31 69 -29 14 -55 4 -72 -30 -7 -12 -45 -56 -86 -99 -41 -43 -79 -92 -85
-109 l-10 -31 -32 31 c-44 42 -192 117 -261 131 -167 35 -352 -65 -436 -235
-31 -63 -34 -79 -37 -175 -6 -165 25 -273 104 -359 66 -73 174 -120 277 -121
42 0 41 4 23 -75 -8 -33 -25 -125 -37 -205 -32 -202 -33 -539 -1 -710 24 -133
61 -264 103 -369 16 -41 28 -75 26 -77 -2 -2 -61 -23 -133 -48 -194 -67 -447
-179 -684 -304 -41 -22 -127 -65 -190 -96 -427 -205 -723 -544 -861 -986 -39
-124 -49 -137 -220 -294 -180 -164 -238 -249 -261 -386 -19 -112 16 -313 77
-445 18 -38 35 -92 38 -118 5 -53 11 -61 43 -71 16 -5 33 3 65 30 l44 36 70
-8 c38 -5 103 -9 142 -9 l73 0 -5 -32 c-3 -18 -8 -50 -11 -70 -7 -46 -61 -166
-102 -225 -48 -71 -110 -190 -122 -237 -19 -71 -13 -149 16 -231 21 -59 28
-101 33 -195 6 -113 7 -120 30 -131 18 -10 33 -9 68 3 43 15 46 14 123 -16 88
-34 149 -39 195 -15 28 14 31 14 40 -1 53 -90 80 -110 218 -160 27 -10 65 -34
86 -57 31 -31 45 -39 67 -36 24 2 33 12 54 56 15 31 45 69 72 93 l47 40 21
-41 c11 -22 27 -83 35 -136 8 -53 24 -116 36 -140 24 -50 412 -432 455 -449
40 -15 58 4 70 76 13 76 18 89 57 152 l29 48 39 -65 c52 -86 123 -162 240
-257 107 -86 154 -148 189 -249 29 -80 36 -90 67 -90 24 0 98 44 122 74 8 9
17 16 21 16 10 0 109 -181 120 -220 8 -29 6 -35 -36 -80 -41 -44 -145 -105
-210 -124 -28 -8 -33 6 -44 110 -17 163 -92 239 -275 279 -90 19 -98 22 -175
65 -94 52 -203 39 -330 -39 -28 -17 -61 -31 -74 -31 -36 0 -174 -61 -242 -107
-67 -46 -127 -108 -151 -156 -18 -37 -152 -147 -180 -147 -47 -1 -160 -32
-194 -54 -26 -18 -46 -44 -68 -90 -17 -36 -40 -70 -51 -76 -28 -15 -43 -56
-30 -80 5 -10 33 -26 62 -36 38 -14 75 -40 133 -94 71 -67 98 -85 156 -103 8
-3 21 -23 27 -44 43 -143 225 -318 437 -417 63 -30 261 -99 310 -108 18 -3 19
-12 20 -123 0 -105 3 -125 22 -162 24 -45 57 -73 85 -73 9 0 33 14 51 30 27
23 55 34 124 48 50 11 111 29 136 41 80 39 144 124 195 259 22 57 151 228 163
215 23 -24 83 -184 87 -233 5 -66 15 -80 53 -80 23 0 33 7 45 34 15 30 25 36
106 60 63 19 99 36 120 56 l28 29 68 -33 c37 -19 96 -41 132 -51 36 -9 89 -32
117 -52 51 -34 54 -35 78 -19 31 21 31 41 0 117 -33 78 -39 126 -30 251 l7
104 28 -4 c24 -3 32 -14 60 -80 45 -110 157 -322 225 -427 398 -616 1033
-1087 1816 -1344 208 -69 357 -103 414 -97 140 16 542 141 770 241 816 355
1416 921 1722 1625 30 69 35 75 67 81 l34 6 7 -105 c9 -125 3 -173 -30 -251
-31 -76 -31 -96 0 -117 24 -16 27 -15 78 19 28 20 81 43 117 52 36 10 95 32
132 51 l68 33 28 -29 c21 -20 57 -37 120 -56 79 -24 92 -31 103 -56 13 -31 52
-47 78 -31 10 7 18 31 22 69 5 52 65 213 88 237 12 13 141 -158 163 -215 51
-135 115 -220 195 -259 25 -12 86 -30 136 -41 69 -14 97 -25 124 -48 18 -16
42 -30 51 -30 28 0 61 28 85 73 19 37 22 57 22 162 1 111 2 120 20 123 49 9
247 78 310 108 212 99 394 274 437 417 6 21 19 41 27 44 58 18 85 36 156 103
50 47 96 80 120 88 22 8 48 20 59 27 29 22 23 64 -12 94 -17 14 -42 52 -57 84
-18 39 -39 66 -64 83 -34 22 -147 53 -194 54 -28 0 -162 110 -180 147 -24 48
-84 110 -151 156 -68 46 -206 107 -242 107 -13 0 -46 14 -74 31 -127 78 -236
91 -330 39 -77 -43 -85 -46 -175 -65 -183 -40 -258 -116 -275 -279 -11 -104
-16 -118 -44 -110 -65 19 -169 80 -210 124 -42 45 -44 51 -36 80 11 39 110
220 120 220 4 0 13 -7 21 -16 24 -30 98 -74 122 -74 31 0 38 10 67 90 35 101
82 163 189 249 117 95 188 171 240 257 l39 65 29 -48 c39 -63 44 -76 57 -152
12 -72 30 -91 70 -76 43 17 431 399 455 449 12 24 28 87 36 140 8 53 24 114
35 136 l21 41 47 -40 c27 -24 57 -62 72 -93 21 -44 30 -54 54 -56 22 -3 36 5
67 36 21 23 59 47 86 57 138 50 165 70 218 160 9 15 12 15 40 1 46 -24 107
-19 194 15 76 30 79 30 128 16 45 -14 53 -14 72 -1 19 14 21 25 21 114 0 84 5
115 31 196 33 102 38 172 19 245 -12 47 -74 166 -122 237 -41 59 -95 179 -102
225 -3 20 -8 52 -11 70 l-5 32 73 0 c39 0 104 4 142 9 l70 8 44 -36 c23 -20
49 -36 57 -36 28 0 54 39 54 81 0 25 13 67 34 112 62 133 97 334 78 447 -23
137 -81 222 -261 386 -170 155 -181 170 -225 299 -172 503 -601 946 -1102
1139 -210 81 -463 104 -640 60 l-27 -7 32 46 c76 112 167 324 211 496 73 285
73 663 -1 1018 -10 53 -19 99 -19 103 0 4 28 10 63 13 218 21 342 167 354 418
5 90 2 117 -16 177 -69 227 -320 357 -526 273 -58 -23 -168 -87 -198 -115
l-25 -23 -17 38 c-10 20 -44 64 -78 96 -33 32 -70 74 -83 94 -29 47 -59 55
-90 24 -18 -18 -24 -35 -24 -67 0 -33 -11 -62 -48 -126 l-49 -83 -25 38 c-43
65 -109 126 -251 232 -76 57 -137 109 -137 117 0 13 48 44 69 44 5 0 12 -14
16 -30 14 -65 73 -104 211 -139 23 -6 55 -24 72 -41 18 -16 39 -30 47 -30 21
0 55 36 55 60 0 51 25 125 61 177 21 32 39 66 39 75 0 34 12 48 44 48 17 1 56
14 86 30 30 17 64 30 75 30 30 0 65 28 65 51 0 11 -11 35 -24 52 -12 18 -30
52 -38 77 -8 25 -18 52 -22 61 -6 14 6 17 91 22 224 14 404 96 554 254 57 59
133 164 224 307 38 61 93 135 122 167 72 77 71 129 -3 129 -21 0 -53 15 -97
45 -69 47 -141 70 -188 60 -25 -6 -29 -3 -35 22 -13 53 -39 84 -126 150 -83
63 -101 85 -133 166 -13 35 -18 38 -47 35 -27 -3 -39 -14 -79 -73 -27 -38 -88
-108 -138 -155 -73 -69 -92 -93 -101 -129 -6 -24 -9 -52 -7 -62 3 -11 1 -19
-3 -19 -5 0 -39 -21 -77 -46 -48 -34 -80 -48 -113 -52 -75 -8 -99 -45 -61 -93
10 -13 24 -48 31 -77 23 -100 91 -137 273 -149 112 -7 116 -21 8 -30 -58 -5
-98 0 -204 23 l-133 28 0 61 c-1 102 -16 199 -33 218 -12 14 -24 17 -52 13
-23 -4 -56 1 -90 13 -87 29 -124 33 -162 17 -33 -13 -35 -13 -45 9 -20 44 -75
96 -172 161 -55 36 -111 81 -125 100 -16 21 -35 34 -49 34 -24 0 -56 -28 -56
-49 0 -19 -38 -90 -89 -165 -46 -68 -46 -69 -45 -150 1 -68 -2 -82 -15 -83
-108 -7 -131 -4 -186 21 -67 31 -69 31 -89 10 -21 -21 -20 -53 4 -105 15 -34
20 -66 20 -141 0 -118 16 -170 78 -257 86 -122 106 -219 72 -346 -43 -157 -39
-419 10 -560 l17 -50 -178 1 c-161 1 -180 -1 -195 -17 -20 -23 -16 -99 9 -149
10 -18 16 -34 15 -35 -2 0 -29 -9 -60 -18 -33 -10 -103 -48 -160 -86 -57 -38
-114 -72 -128 -76 -35 -10 -60 -34 -60 -57 0 -10 17 -35 39 -56 21 -20 58 -64
81 -97 64 -90 100 -125 155 -151 55 -26 133 -31 198 -13 22 6 41 9 43 6 8 -8
-28 -121 -57 -177 -30 -58 -31 -61 -14 -86 15 -23 22 -26 59 -20 25 3 81 -3
145 -16 l104 -21 131 24 c110 20 164 24 336 23 181 0 215 -2 295 -23 212 -54
307 -134 334 -278 10 -51 -2 -156 -19 -161 -5 -2 -28 -39 -52 -83 l-42 -80
-18 23 c-9 13 -20 37 -24 53 -8 37 -31 65 -55 65 -9 0 -41 -20 -70 -45 -36
-31 -75 -52 -128 -70 -103 -34 -108 -33 -121 18 -31 118 -45 159 -80 232 -95
199 -270 306 -448 275 -161 -28 -250 -101 -302 -250 -60 -171 -10 -328 136
-425 63 -42 63 -37 3 -160 -73 -149 -178 -253 -324 -320 -83 -39 -204 -68
-266 -63 -43 3 -44 4 -61 56 -25 74 -35 192 -17 192 27 1 177 68 230 103 92
62 139 111 139 145 0 17 -4 33 -9 36 -5 4 -22 39 -37 79 -26 68 -65 120 -109
144 -19 11 -19 12 7 65 33 67 56 147 72 247 14 85 8 114 -24 131 -18 9 -29 6
-68 -18 -63 -40 -114 -60 -178 -71 -42 -6 -54 -5 -54 5 0 20 -39 41 -90 49
-98 15 -173 70 -427 310 -76 72 -157 147 -181 167 l-44 36 37 34 c93 85 22
246 -121 272 -19 4 -32 11 -29 17 4 5 -11 16 -32 25 -21 9 -58 29 -83 44 -25
16 -67 34 -94 40 -40 9 -80 24 -94 35 -4 3 40 118 51 133 5 6 18 12 28 12 10
0 26 11 35 25 9 14 28 31 43 38 30 14 38 40 21 72 -11 21 -3 34 94 158 l106
135 -2 382 -3 382 -234 -294 c-160 -202 -242 -298 -262 -305 -17 -7 -31 -21
-35 -37 -5 -23 -10 -25 -50 -24 -27 2 -44 7 -44 15 0 11 -30 33 -45 33 -3 0
-17 -12 -31 -27 l-24 -26 -25 23 c-17 16 -25 34 -25 56 0 39 -32 66 -66 58
-16 -4 -59 13 -145 58 -67 34 -123 68 -124 73 -2 6 -6 22 -9 36 -3 14 -36 63
-73 109 l-68 83 0 93 c0 51 -3 96 -7 100 -4 4 -53 -1 -108 -11 -56 -9 -103
-15 -105 -13 -2 2 4 253 14 558 l19 555 -52 92 c-67 121 -74 121 -145 0z
m-1548 -3403 c20 -4 37 -9 37 -13 0 -3 -21 -15 -48 -25 -64 -27 -219 -181
-255 -256 -31 -63 -57 -173 -57 -241 l0 -46 -87 4 c-58 3 -116 0 -172 -11 -46
-9 -107 -16 -135 -16 -29 0 -57 -5 -64 -12 -17 -17 -15 -58 4 -79 13 -15 15
-31 9 -88 -4 -39 -11 -69 -15 -66 -14 8 -132 201 -194 314 l-56 105 15 54 c26
87 60 155 96 188 95 89 274 167 444 194 60 9 407 5 478 -6z m-1088 -2841 c-3
-10 -17 -66 -30 -125 -13 -59 -31 -121 -40 -137 -19 -39 -19 -54 3 -74 14 -13
50 -16 207 -19 l190 -3 76 36 c43 21 120 72 180 121 115 92 150 118 161 118 5
0 8 -817 8 -1815 0 -1968 -3 -1865 55 -2128 13 -61 27 -123 30 -137 5 -19 1
-16 -14 11 -11 20 -36 92 -56 160 -40 135 -68 193 -115 232 l-30 26 16 73 c25
108 25 339 0 443 -41 178 -145 421 -243 570 -209 317 -592 674 -1002 935 -51
32 -53 34 -29 41 41 11 70 30 126 83 50 47 82 92 82 115 0 5 -19 31 -42 58
-23 26 -52 73 -66 103 -13 30 -39 74 -57 96 l-34 41 25 24 c14 13 32 36 40 51
29 56 74 193 68 210 -8 26 -41 40 -74 33 -22 -5 -50 3 -107 28 -101 46 -145
57 -218 57 l-60 0 0 80 c0 67 2 79 15 74 47 -18 145 -34 210 -34 168 0 338 80
425 200 17 22 39 53 50 68 11 14 29 51 41 82 12 30 25 64 29 74 6 13 5 17 -2
13 -7 -4 -12 17 -15 58 -3 35 -14 82 -25 103 l-19 39 61 12 c33 7 65 14 70 16
6 2 34 4 64 4 47 1 52 -1 46 -16z m6295 -75 c45 -35 110 -85 143 -111 83 -64
170 -105 264 -123 43 -8 97 -21 120 -29 22 -7 59 -11 80 -8 27 3 51 0 72 -12
30 -15 35 -15 57 0 19 12 24 24 24 60 0 36 8 57 44 109 24 35 46 80 50 100 5
28 12 36 29 36 22 0 106 21 138 34 13 6 10 -6 -12 -48 -40 -81 -46 -149 -20
-229 41 -121 120 -220 240 -299 92 -60 181 -89 284 -90 l77 -1 0 -44 0 -43
-62 0 c-76 0 -119 -11 -221 -57 -57 -25 -85 -33 -107 -28 -33 7 -66 -7 -74
-33 -6 -17 39 -154 68 -210 8 -15 26 -38 40 -51 l25 -24 -34 -41 c-18 -22 -44
-66 -57 -96 -14 -30 -43 -77 -66 -103 -23 -27 -42 -57 -42 -67 0 -23 98 -131
146 -161 19 -11 46 -24 61 -28 25 -7 25 -8 -28 -41 -410 -261 -793 -618 -1002
-935 -98 -149 -202 -392 -243 -570 -25 -104 -25 -335 0 -443 l16 -73 -30 -26
c-47 -39 -75 -97 -115 -232 -33 -112 -71 -208 -80 -199 -2 1 10 59 25 126 16
68 38 185 49 260 21 135 21 168 21 1965 0 1801 0 1827 19 1827 11 0 56 -28
101 -62z m-7500 -730 c17 -5 5 -7 -37 -4 -33 2 -69 9 -80 15 -21 12 74 4 117
-11z m9457 11 c-21 -12 -146 -26 -136 -15 3 3 33 10 65 15 85 12 92 12 71 0z
m-8400 -3405 c23 -4 52 0 91 14 60 23 72 19 72 -24 0 -49 -74 -85 -225 -109
-120 -20 -145 -19 -145 2 0 9 23 52 51 94 l50 77 36 -24 c19 -13 51 -26 70
-30z m7382 -22 c28 -43 51 -86 51 -95 0 -21 -25 -22 -145 -2 -151 24 -225 60
-225 109 0 43 12 47 72 24 66 -24 109 -20 159 16 19 14 35 25 35 25 1 1 25
-34 53 -77z m-7716 -94 c15 -11 27 -23 27 -27 0 -8 -109 -36 -115 -29 -4 4
-55 119 -55 124 0 6 115 -49 143 -68z m8011 6 c-14 -32 -27 -61 -29 -62 -6 -6
-115 21 -115 28 0 4 7 13 16 21 17 14 147 78 152 74 1 -1 -9 -28 -24 -61z"/>
</g>
</svg>
