<?xml version="1.0" standalone="no"?>
<!DOCTYPE svg PUBLIC "-//W3C//DTD SVG 20010904//EN"
 "http://www.w3.org/TR/2001/REC-SVG-20010904/DTD/svg10.dtd">
<svg version="1.0" xmlns="http://www.w3.org/2000/svg"
 width="1106.000000pt" height="1280.000000pt" viewBox="0 0 1106.000000 1280.000000"
 preserveAspectRatio="xMidYMid meet">
<metadata>
Created by potrace 1.15, written by Peter Selinger 2001-2017
</metadata>
<g transform="translate(0.000000,1280.000000) scale(0.100000,-0.100000)"
fill="#000000" stroke="none">
<path d="M0 8968 c0 -2427 4 -3895 10 -4003 39 -666 163 -1246 387 -1815 442
-1120 1274 -2020 2358 -2550 667 -326 1414 -521 2220 -580 235 -17 1103 -8
1295 14 508 57 906 140 1315 273 1200 390 2140 1131 2754 2170 88 149 262 505
326 668 191 483 318 1022 370 1574 13 145 15 633 15 4123 l0 3958 -5525 0
-5525 0 0 -3832z"/>
</g>
</svg>
