<?xml version="1.0" standalone="no"?>
<!DOCTYPE svg PUBLIC "-//W3C//DTD SVG 20010904//EN"
 "http://www.w3.org/TR/2001/REC-SVG-20010904/DTD/svg10.dtd">
<svg version="1.0" xmlns="http://www.w3.org/2000/svg"
 width="941.000000pt" height="1280.000000pt" viewBox="0 0 941.000000 1280.000000"
 preserveAspectRatio="xMidYMid meet">
<metadata>
Created by potrace 1.15, written by Peter Selinger 2001-2017
</metadata>
<g transform="translate(0.000000,1280.000000) scale(0.100000,-0.100000)"
fill="#000000" stroke="none">
<path d="M1700 12179 c-360 -341 -712 -674 -781 -739 l-126 -119 -386 364
c-212 201 -388 365 -392 365 -3 0 -5 -164 -5 -365 l0 -364 392 -371 393 -370
75 74 c41 40 320 304 620 586 300 283 618 583 707 668 l162 154 777 -734 c427
-403 783 -733 790 -733 8 0 188 164 401 365 212 201 562 531 777 733 l389 368
51 -49 c235 -227 1509 -1422 1516 -1422 7 0 1257 1173 1521 1427 l46 44 387
-366 c213 -201 389 -365 391 -365 3 0 5 165 4 368 l-1 367 -387 364 c-213 201
-391 364 -395 364 -4 -1 -352 -327 -773 -725 -422 -397 -774 -727 -784 -732
-14 -7 -162 129 -795 727 l-778 735 -37 -32 c-19 -17 -347 -324 -726 -683
-380 -359 -717 -677 -750 -707 l-58 -54 -165 157 c-471 446 -1400 1321 -1402
1320 -2 0 -298 -279 -658 -620z"/>
<path d="M1620 11138 c-404 -381 -755 -712 -782 -736 l-48 -44 -357 338 c-197
186 -373 351 -391 368 l-32 30 0 -370 1 -369 391 -368 390 -369 47 45 c137
131 1450 1367 1483 1396 l39 34 37 -35 c90 -85 1470 -1384 1498 -1410 l32 -30
773 732 c426 402 779 734 786 737 6 2 361 -325 789 -729 427 -403 780 -733
784 -733 4 0 355 328 780 729 425 401 778 729 785 730 7 0 156 -134 331 -299
175 -165 349 -329 386 -364 l68 -63 0 369 0 369 -386 365 c-213 200 -390 365
-394 367 -5 2 -174 -154 -377 -345 -1015 -958 -1186 -1118 -1193 -1118 -5 0
-356 328 -780 729 -425 401 -778 729 -785 730 -7 0 -361 -327 -786 -729 -425
-401 -776 -731 -779 -733 -4 -1 -357 328 -786 733 -428 404 -781 735 -784 735
-3 0 -336 -312 -740 -692z"/>
<path d="M1580 10105 c-426 -404 -779 -734 -785 -734 -9 -1 -219 194 -627 582
l-158 149 0 -370 0 -370 385 -364 c212 -199 390 -364 395 -366 5 -2 358 327
785 730 427 403 780 733 785 733 4 0 355 -328 781 -730 425 -401 778 -730 785
-730 12 0 170 148 1192 1113 l375 354 36 -35 c293 -280 1525 -1437 1531 -1437
4 0 346 320 761 711 415 391 766 722 780 736 l27 25 364 -344 c200 -188 376
-354 391 -367 l27 -24 0 369 -1 369 -391 368 -391 368 -36 -34 c-394 -376
-1525 -1437 -1531 -1437 -7 0 -1284 1199 -1521 1427 l-46 44 -385 -363 c-986
-932 -1170 -1103 -1182 -1103 -7 0 -361 329 -786 730 -425 402 -776 731 -779
732 -3 1 -355 -328 -781 -732z"/>
<path d="M1577 9105 c-427 -404 -781 -735 -785 -735 -4 0 -180 164 -392 364
l-385 364 -6 -602 c-3 -330 -6 -1546 -7 -2701 l-1 -2100 391 -368 390 -369 25
24 c14 13 366 344 781 736 416 391 759 712 762 712 4 0 348 -323 767 -717 418
-395 769 -726 781 -736 20 -19 27 -13 797 715 427 403 780 734 785 736 5 2
358 -327 786 -730 427 -403 780 -733 784 -733 5 0 357 330 785 733 427 402
779 732 783 732 4 0 180 -164 392 -364 l385 -364 6 611 c3 337 6 1553 7 2702
l1 2090 -390 368 c-387 365 -391 369 -411 350 -12 -10 -363 -341 -781 -735
-419 -395 -764 -718 -767 -718 -4 0 -346 320 -761 711 -415 391 -766 722 -781
736 l-26 25 -364 -343 c-921 -871 -1191 -1124 -1202 -1124 -6 0 -359 329 -784
730 -426 402 -777 731 -780 732 -4 2 -357 -328 -785 -732z"/>
<path d="M1790 3683 c-305 -289 -657 -621 -781 -738 l-225 -213 -245 230
c-134 127 -310 294 -391 371 l-148 139 0 -370 0 -370 385 -364 c212 -199 391
-363 399 -363 7 0 360 329 786 730 425 402 776 730 780 730 4 0 357 -330 784
-733 428 -404 783 -731 789 -728 7 2 360 334 786 736 l774 731 31 -30 c664
-628 1531 -1441 1537 -1441 6 0 1147 1072 1530 1437 l37 35 364 -343 c200
-189 376 -355 391 -368 l27 -24 0 369 -1 369 -391 368 -391 369 -46 -45 c-256
-246 -1514 -1427 -1520 -1427 -8 0 -387 356 -1420 1332 l-145 136 -47 -41
c-26 -23 -376 -352 -778 -732 -402 -379 -737 -690 -744 -690 -8 0 -361 329
-787 730 -425 402 -775 731 -779 732 -3 1 -256 -235 -561 -524z"/>
<path d="M1589 2499 c-414 -391 -766 -722 -780 -736 l-27 -25 -369 349 c-203
191 -379 357 -391 367 l-22 19 1 -369 0 -369 391 -368 391 -368 36 34 c272
260 1526 1437 1531 1437 6 0 1203 -1124 1531 -1437 l36 -34 779 735 c429 405
784 735 790 734 6 -2 359 -331 785 -733 425 -401 776 -730 779 -730 4 0 357
330 784 733 428 404 783 731 789 729 7 -3 121 -108 253 -234 133 -125 305
-288 383 -362 l141 -133 0 370 0 370 -386 363 c-212 200 -392 363 -399 363 -7
-1 -360 -329 -785 -730 -425 -401 -776 -729 -780 -729 -4 0 -355 329 -780 730
-426 402 -780 730 -786 730 -7 0 -362 -330 -789 -733 l-777 -734 -26 25 c-15
14 -366 345 -781 736 -415 391 -757 711 -761 711 -3 0 -346 -320 -761 -711z"/>
<path d="M4701 1479 l-784 -740 -46 44 c-233 225 -1515 1427 -1521 1427 -5 0
-96 -82 -202 -183 -106 -100 -434 -409 -728 -686 -294 -277 -558 -526 -586
-553 l-50 -49 -387 366 c-213 201 -389 365 -392 365 -3 0 -5 -165 -4 -367 l1
-368 388 -365 c213 -201 390 -365 393 -365 5 0 339 314 1185 1113 205 193 377
352 382 352 7 0 1303 -1215 1511 -1417 l55 -54 784 741 785 740 60 -59 c33
-32 385 -365 783 -740 l722 -682 698 658 c383 362 735 695 782 739 l85 82 55
-51 c30 -27 207 -194 393 -369 l337 -319 0 370 0 370 -385 363 c-212 200 -391
363 -398 363 -11 0 -1158 -1074 -1484 -1388 l-82 -79 -713 672 c-392 370 -744
704 -783 741 l-70 69 -784 -741z"/>
</g>
</svg>
