<?xml version="1.0" standalone="no"?>
<!DOCTYPE svg PUBLIC "-//W3C//DTD SVG 20010904//EN"
 "http://www.w3.org/TR/2001/REC-SVG-20010904/DTD/svg10.dtd">
<svg version="1.0" xmlns="http://www.w3.org/2000/svg"
 width="1280.000000pt" height="864.000000pt" viewBox="0 0 1280.000000 864.000000"
 preserveAspectRatio="xMidYMid meet">
<metadata>
Created by potrace 1.15, written by Peter Selinger 2001-2017
</metadata>
<g transform="translate(0.000000,864.000000) scale(0.100000,-0.100000)"
fill="#000000" stroke="none">
<path d="M401 8187 l-400 -452 0 -210 c-1 -206 -1 -209 18 -190 10 11 189 214
397 450 208 237 381 430 384 430 7 0 212 -232 1180 -1333 228 -260 418 -471
422 -470 4 2 364 408 799 903 436 495 795 901 798 902 3 1 364 -405 801 -903
437 -497 798 -903 802 -902 4 2 364 408 799 903 436 495 796 900 799 900 7 0
210 -231 1180 -1333 228 -260 418 -471 422 -470 4 2 364 408 799 903 436 495
795 901 798 902 3 1 364 -405 801 -903 437 -497 798 -903 802 -902 4 2 185
205 403 452 l395 449 0 204 c0 119 -4 202 -9 199 -5 -3 -183 -204 -396 -446
-214 -242 -391 -440 -395 -440 -4 0 -198 217 -431 482 -233 265 -591 672 -796
905 l-372 423 -368 -418 c-202 -229 -561 -637 -797 -905 -236 -268 -432 -487
-436 -487 -3 0 -365 407 -803 905 l-796 905 -368 -418 c-202 -229 -561 -637
-797 -905 -236 -268 -432 -487 -437 -487 -4 0 -198 217 -431 482 -232 265
-590 672 -795 905 l-372 423 -368 -418 c-202 -229 -561 -637 -797 -905 -236
-268 -432 -487 -436 -487 -3 0 -365 407 -803 905 l-796 905 -400 -453z"/>
<path d="M400 7398 l-395 -451 -3 -211 c-2 -182 0 -209 12 -196 8 8 186 211
397 450 210 239 385 435 389 435 4 0 178 -194 386 -431 209 -236 566 -642 794
-902 228 -260 418 -471 422 -470 4 2 363 408 799 903 435 495 795 900 799 900
3 0 363 -405 799 -900 435 -495 796 -900 801 -900 5 0 365 405 801 900 435
495 795 900 799 900 4 0 178 -194 386 -431 209 -236 566 -642 794 -902 228
-260 418 -471 422 -470 4 2 363 408 799 903 436 495 795 900 799 900 3 0 363
-405 799 -900 435 -495 796 -900 801 -900 5 0 187 202 404 450 l396 449 0 204
c0 130 -4 201 -10 197 -5 -3 -184 -204 -396 -445 -213 -242 -390 -440 -394
-440 -7 0 -293 323 -1200 1357 -301 343 -398 448 -408 440 -7 -6 -367 -412
-799 -904 -432 -491 -789 -893 -793 -893 -3 0 -364 407 -801 904 -436 498
-796 905 -799 905 -3 -1 -362 -407 -799 -905 -437 -497 -797 -904 -801 -904
-7 0 -384 427 -1203 1362 -216 245 -394 447 -397 446 -3 0 -362 -406 -799
-904 -437 -497 -797 -904 -801 -904 -3 0 -364 407 -801 904 -436 498 -796 905
-799 905 -3 0 -183 -203 -400 -451z"/>
<path d="M397 6669 l-397 -451 0 -204 c0 -112 2 -204 4 -204 2 0 84 91 182
203 98 111 277 313 397 449 l218 248 376 -428 c206 -235 564 -642 795 -904
231 -263 424 -478 428 -478 4 0 198 217 431 482 1038 1180 1161 1318 1169
1318 4 0 364 -405 800 -900 436 -495 796 -900 800 -900 4 0 265 294 581 652
316 359 674 766 797 905 l223 253 376 -428 c206 -235 564 -642 795 -904 231
-263 424 -478 428 -478 4 0 364 405 799 900 436 495 796 900 801 900 4 0 364
-405 800 -900 436 -495 796 -900 800 -900 4 0 186 203 404 450 l396 451 -2
206 -3 206 -395 -451 c-217 -248 -397 -451 -400 -451 -3 0 -183 204 -401 452
-876 1000 -1192 1357 -1199 1357 -3 0 -365 -407 -803 -905 l-796 -905 -223
253 c-123 139 -481 546 -797 905 -316 358 -577 652 -581 652 -3 0 -364 -407
-801 -904 -437 -498 -796 -905 -799 -905 -3 0 -183 204 -401 452 -876 1000
-1192 1357 -1199 1357 -3 0 -365 -407 -803 -905 l-796 -905 -223 253 c-123
139 -481 546 -797 905 -316 358 -577 652 -581 652 -3 0 -185 -203 -403 -451z"/>
<path d="M396 5879 l-396 -451 0 -204 c0 -112 2 -204 4 -204 2 0 84 91 182
203 98 111 277 313 397 449 l218 248 397 -452 c1048 -1193 1194 -1358 1202
-1358 4 0 364 405 800 900 435 495 795 900 800 900 4 0 219 -240 476 -532 997
-1133 1116 -1268 1124 -1268 4 0 284 314 621 698 338 383 696 790 797 904
l183 208 372 -424 c205 -232 562 -640 795 -904 233 -265 427 -482 432 -482 4
0 364 405 800 900 435 495 795 900 800 900 4 0 219 -240 476 -532 996 -1132
1116 -1268 1124 -1268 4 0 186 203 404 450 l396 450 -2 206 -3 206 -395 -450
c-217 -248 -398 -450 -401 -449 -5 2 -145 161 -1173 1330 -230 262 -422 477
-426 477 -4 0 -364 -407 -801 -904 -437 -498 -796 -905 -799 -905 -3 0 -362
407 -799 905 -436 497 -797 904 -801 904 -4 0 -364 -407 -801 -904 -437 -498
-797 -904 -800 -903 -6 2 -187 208 -1173 1330 -230 262 -422 477 -426 477 -4
0 -364 -407 -801 -904 -437 -498 -796 -905 -799 -905 -3 0 -362 407 -799 905
-436 497 -797 904 -801 904 -4 0 -186 -203 -404 -451z"/>
<path d="M396 4080 l-396 -450 2 -205 3 -206 395 450 c217 247 398 449 401
448 6 -2 180 -200 1179 -1335 228 -260 418 -471 422 -470 4 2 364 408 799 903
436 495 795 901 798 902 3 1 364 -405 801 -903 437 -497 797 -904 800 -904 3
0 363 407 800 904 437 498 798 904 801 903 6 -2 180 -200 1179 -1335 228 -260
418 -471 422 -470 4 2 364 408 799 903 436 495 795 901 798 902 3 1 364 -405
801 -903 437 -497 798 -903 802 -902 4 2 186 205 403 452 l395 449 0 204 c0
111 -2 203 -4 203 -3 0 -181 -200 -397 -445 -215 -245 -395 -445 -399 -445 -5
0 -199 217 -432 482 -969 1103 -1160 1318 -1168 1318 -5 0 -365 -405 -800
-900 -436 -495 -796 -900 -800 -900 -4 0 -363 405 -799 900 -436 495 -796 900
-801 900 -4 0 -365 -405 -800 -900 -436 -495 -796 -900 -800 -900 -5 0 -189
206 -410 458 -222 251 -578 656 -792 900 -214 243 -393 442 -398 442 -5 0
-365 -405 -800 -900 -436 -495 -796 -900 -800 -900 -4 0 -363 405 -799 900
-436 495 -796 900 -801 900 -4 0 -186 -202 -404 -450z"/>
<path d="M503 3412 c-163 -185 -343 -389 -400 -453 l-103 -117 2 -206 3 -206
394 447 c217 247 398 448 401 448 4 0 178 -194 386 -431 209 -236 566 -643
794 -902 228 -260 418 -471 422 -470 4 2 363 408 799 903 435 495 794 901 798
902 3 1 364 -405 801 -903 437 -497 798 -903 802 -902 4 2 363 408 799 903
436 495 795 900 799 900 4 0 178 -194 386 -431 209 -236 566 -643 794 -902
228 -260 418 -471 422 -470 4 2 363 408 799 903 435 495 794 901 798 902 3 1
364 -405 801 -903 437 -497 798 -903 802 -902 4 2 185 205 403 452 l395 450 0
203 c0 123 -4 202 -9 198 -5 -3 -184 -203 -397 -445 -213 -242 -390 -440 -394
-440 -4 0 -198 217 -431 482 -233 265 -591 672 -796 905 l-372 423 -298 -338
c-164 -186 -523 -593 -797 -905 -274 -312 -502 -567 -506 -567 -3 0 -364 407
-801 904 -437 496 -797 901 -801 899 -4 -2 -364 -409 -799 -904 -436 -494
-795 -899 -799 -899 -4 0 -198 217 -431 482 -233 265 -591 672 -796 905 l-372
423 -298 -338 c-164 -186 -523 -593 -797 -905 -274 -312 -502 -567 -506 -567
-3 0 -197 217 -431 482 -233 265 -591 673 -796 905 l-372 423 -298 -338z"/>
<path d="M397 2569 l-397 -451 0 -204 c0 -112 2 -204 4 -204 2 0 180 200 396
445 215 245 396 445 400 445 8 0 146 -155 1168 -1318 233 -265 427 -482 432
-482 4 0 364 405 799 900 436 495 796 900 801 900 4 0 364 -405 800 -900 436
-495 795 -900 800 -900 4 0 364 405 799 900 436 495 797 900 801 900 8 0 146
-155 1168 -1318 233 -265 427 -482 432 -482 4 0 364 405 800 900 435 495 795
900 800 900 4 0 364 -405 800 -900 436 -495 795 -900 800 -900 4 0 186 203
404 450 l396 450 -2 206 -3 206 -395 -450 c-217 -248 -397 -451 -400 -451 -3
0 -183 204 -401 452 -869 991 -1192 1357 -1199 1357 -3 0 -364 -407 -801 -904
-437 -496 -797 -901 -801 -899 -4 2 -364 409 -799 904 -436 494 -795 899 -799
899 -3 0 -364 -407 -801 -904 -436 -498 -796 -905 -799 -905 -3 0 -183 204
-401 452 -848 967 -1192 1357 -1199 1357 -3 0 -364 -407 -801 -904 -589 -670
-797 -901 -807 -893 -6 5 -366 412 -799 903 -432 492 -789 894 -793 894 -3 0
-185 -203 -403 -451z"/>
<path d="M397 1779 l-397 -451 0 -204 c0 -112 2 -204 4 -204 2 0 182 202 400
450 l397 450 257 -293 c142 -160 386 -438 542 -617 157 -179 401 -457 542
-617 l257 -293 363 413 c200 226 558 634 797 905 238 270 436 492 441 492 5 0
84 -87 177 -192 93 -106 451 -514 796 -905 l626 -713 401 455 c220 250 580
660 800 910 l401 455 257 -293 c142 -160 386 -438 542 -617 157 -179 401 -457
542 -617 l257 -293 363 413 c200 226 558 634 797 905 238 270 436 492 441 492
5 0 134 -143 287 -317 154 -175 512 -582 796 -905 l516 -588 401 455 400 455
-2 206 -3 206 -395 -451 c-217 -247 -398 -449 -401 -448 -3 1 -174 194 -380
428 -1060 1206 -1212 1379 -1219 1379 -6 0 -345 -384 -1199 -1357 -218 -248
-398 -452 -401 -452 -3 0 -362 407 -799 905 -436 497 -797 904 -801 904 -6 0
-340 -378 -1199 -1357 -218 -248 -399 -451 -402 -450 -3 1 -174 194 -380 428
-1061 1208 -1212 1379 -1219 1379 -6 0 -345 -384 -1199 -1357 -218 -248 -398
-452 -401 -452 -3 0 -362 407 -799 905 -436 497 -797 904 -801 904 -4 0 -185
-203 -403 -451z"/>
</g>
</svg>
