<?xml version="1.0" standalone="no"?>
<!DOCTYPE svg PUBLIC "-//W3C//DTD SVG 20010904//EN"
 "http://www.w3.org/TR/2001/REC-SVG-20010904/DTD/svg10.dtd">
<svg version="1.0" xmlns="http://www.w3.org/2000/svg"
 width="1069.000000pt" height="1280.000000pt" viewBox="0 0 1069.000000 1280.000000"
 preserveAspectRatio="xMidYMid meet">
<metadata>
Created by potrace 1.15, written by Peter Selinger 2001-2017
</metadata>
<g transform="translate(0.000000,1280.000000) scale(0.100000,-0.100000)"
fill="#000000" stroke="none">
<path d="M4707 12787 c-112 -32 -119 -106 -13 -146 107 -40 254 -63 1126 -181
743 -100 884 -120 1040 -151 213 -42 298 -77 274 -116 -10 -16 -28 -18 -210
-17 -351 1 -875 62 -1379 160 -126 25 -304 56 -395 70 -195 30 -443 43 -454
25 -5 -7 16 -36 53 -73 34 -34 61 -67 61 -74 0 -7 -14 -22 -30 -34 -70 -50
-60 -88 33 -130 81 -36 168 -58 488 -124 926 -192 1709 -437 1783 -558 32 -52
-94 -73 -250 -43 -49 9 -188 50 -309 90 -303 101 -358 117 -615 179 -124 30
-342 84 -485 120 -316 79 -420 98 -550 100 -131 1 -187 -21 -169 -69 13 -33
138 -73 584 -185 256 -65 562 -147 680 -183 464 -140 1007 -285 1106 -294 48
-4 76 -1 129 17 122 41 195 135 195 252 0 52 -4 62 -34 95 -108 121 -567 312
-1026 428 -35 9 -73 22 -84 27 -51 28 27 33 474 33 245 0 461 4 480 9 59 14
103 42 152 94 81 86 75 126 -34 234 -151 149 -322 193 -1118 288 -663 79 -997
121 -1120 141 -165 27 -321 33 -383 16z"/>
<path d="M3934 12720 c-140 -12 -174 -37 -174 -128 0 -57 17 -63 155 -46 175
21 227 19 254 -10 28 -29 31 -85 6 -122 -26 -40 -102 -82 -205 -114 -120 -38
-162 -63 -158 -92 5 -38 82 -58 253 -68 83 -5 169 -12 192 -16 85 -13 92 -65
18 -133 -49 -45 -95 -70 -175 -96 -107 -34 -170 -74 -170 -106 0 -25 32 -33
123 -31 165 3 354 81 408 169 42 67 35 273 -12 336 -19 26 -20 39 -17 175 3
134 1 150 -18 182 -23 41 -71 75 -123 90 -51 14 -249 20 -357 10z"/>
<path d="M3475 12586 c-21 -21 -25 -35 -25 -79 0 -69 28 -228 93 -537 l52
-244 38 -9 c57 -14 104 -2 111 29 8 30 5 49 -45 274 -85 388 -138 558 -181
581 -14 8 -24 4 -43 -15z"/>
<path d="M3055 12383 c-164 -59 -381 -247 -980 -847 -522 -523 -784 -840 -920
-1114 -69 -139 -88 -212 -83 -323 3 -72 9 -94 35 -140 17 -31 48 -67 72 -84
38 -27 50 -30 142 -33 60 -3 117 0 143 8 69 19 157 94 411 351 419 424 506
500 635 547 63 23 71 24 248 18 174 -7 185 -6 227 14 45 22 129 106 148 149
10 21 6 27 -41 68 -29 25 -52 49 -52 54 0 17 62 36 195 59 143 25 216 52 258
97 49 53 35 122 -31 150 -87 38 -422 9 -625 -53 -281 -87 -294 -86 -177 12 47
39 168 133 270 210 269 202 368 300 399 396 27 82 7 273 -39 372 -44 92 -132
125 -235 89z m3 -359 c41 -28 30 -69 -36 -133 -123 -120 -721 -581 -754 -581
-26 0 -22 29 11 73 77 102 466 482 586 574 61 47 128 82 155 83 9 0 26 -7 38
-16z m-1223 -1326 c75 -66 22 -220 -104 -300 -79 -50 -148 -28 -169 52 -18 70
21 160 69 160 23 0 32 -15 39 -64 6 -49 19 -54 53 -20 33 33 34 57 3 77 -45
30 -58 48 -45 64 18 21 80 52 106 53 12 0 34 -10 48 -22z"/>
<path d="M8852 11283 c-81 -39 -242 -252 -242 -318 0 -34 76 -142 123 -174 56
-37 99 -51 161 -51 182 2 283 153 231 345 -42 156 -170 249 -273 198z"/>
<path d="M3574 11147 c-256 -188 -835 -1011 -900 -1279 -16 -64 -16 -70 1
-114 15 -39 25 -49 63 -66 34 -15 50 -18 67 -10 64 29 303 285 457 489 109
144 158 191 259 247 72 39 199 76 263 76 101 0 149 -36 211 -159 64 -128 78
-184 79 -311 1 -191 -31 -291 -285 -912 -608 -1483 -693 -1922 -505 -2609 104
-378 214 -567 459 -787 148 -133 520 -397 654 -465 248 -126 861 -313 1138
-347 113 -14 172 -31 310 -89 316 -134 519 -322 555 -513 25 -131 -46 -355
-289 -915 -72 -166 -148 -346 -170 -400 -140 -351 -236 -567 -446 -1003 -295
-613 -568 -1123 -682 -1271 -178 -234 -413 -321 -1258 -464 -477 -81 -600
-108 -636 -141 -23 -21 -25 -67 -3 -84 25 -22 195 -23 574 -5 241 12 664 20
1315 25 687 5 971 11 998 19 37 12 37 12 22 41 -32 62 -150 125 -262 141 -170
23 -253 105 -253 251 0 215 116 494 825 1978 523 1096 583 1230 678 1526 54
168 70 259 64 377 -4 85 -10 115 -37 182 -41 101 -61 175 -54 198 4 12 16 17
42 17 100 0 359 -242 524 -489 158 -236 309 -596 397 -946 82 -329 170 -928
218 -1485 25 -302 25 -968 0 -1095 -27 -130 -45 -168 -98 -193 -24 -12 -88
-62 -142 -112 -53 -49 -102 -90 -107 -90 -5 0 -7 13 -3 30 7 39 -4 39 -150 0
-149 -39 -322 -70 -667 -119 -292 -42 -381 -61 -412 -89 -13 -11 -18 -30 -18
-69 0 -49 2 -54 26 -63 18 -7 59 -7 124 0 138 14 499 27 1205 45 1450 36 1577
44 1631 107 31 38 30 53 -4 88 -39 39 -137 67 -312 91 -188 25 -239 35 -332
69 -134 49 -206 111 -233 203 -41 137 -107 552 -174 1092 -118 942 -231 1752
-267 1915 -67 298 -186 636 -291 824 -44 79 -220 316 -357 479 -51 62 -144
173 -206 247 -158 189 -202 257 -208 323 -5 68 5 91 121 273 277 435 368 693
346 976 -13 168 -77 347 -181 505 -203 309 -631 715 -903 855 -216 111 -549
213 -881 270 -185 31 -427 31 -579 0 -517 -107 -865 -398 -1014 -847 -146
-441 -85 -908 169 -1294 267 -406 653 -659 1225 -802 161 -40 246 -40 427 0
354 78 588 194 797 396 304 294 498 668 518 1001 8 132 -9 241 -58 378 -63
176 -46 226 43 128 80 -90 135 -221 163 -393 39 -240 1 -453 -126 -716 -187
-389 -529 -739 -848 -868 -91 -37 -224 -74 -331 -91 -111 -18 -371 -20 -493
-4 -338 45 -692 177 -982 367 -313 206 -546 459 -689 748 -128 258 -178 442
-177 655 0 152 17 249 82 484 28 100 58 222 68 271 13 64 40 138 93 255 42 91
95 217 118 280 23 63 107 252 185 420 162 345 219 480 281 661 125 370 155
682 90 934 -32 124 -132 328 -216 440 -123 165 -291 311 -411 356 -29 11 -75
19 -113 19 -59 0 -68 -3 -122 -43z m1946 -2992 c166 -37 447 -161 618 -275
209 -138 456 -424 518 -598 17 -46 17 -53 3 -67 -13 -14 -20 -14 -67 0 -29 9
-105 38 -169 66 -148 63 -232 87 -356 100 -126 13 -230 -1 -300 -39 -103 -56
-255 -220 -311 -335 -121 -249 35 -617 318 -751 120 -57 256 -56 381 3 85 39
139 91 177 169 63 128 37 262 -74 373 -114 114 -216 117 -277 8 -41 -73 -20
-134 58 -168 54 -23 71 -44 71 -88 0 -69 -75 -109 -190 -101 -209 15 -331 194
-265 388 14 41 33 70 79 115 142 141 312 167 543 83 113 -41 171 -93 222 -202
88 -183 81 -349 -20 -507 -91 -141 -244 -284 -364 -340 -33 -16 -99 -38 -148
-50 l-87 -22 -114 37 c-207 68 -325 142 -395 246 -74 112 -109 289 -97 500 12
206 7 508 -9 615 -46 298 -161 494 -359 610 -23 13 -93 45 -156 71 -134 55
-182 82 -177 98 11 34 103 60 267 76 142 14 593 4 680 -15z m-788 -483 c115
-56 206 -176 239 -312 9 -40 13 -167 15 -460 3 -654 20 -723 224 -948 155
-171 172 -200 131 -222 -11 -5 -40 -10 -64 -10 -82 0 -363 92 -515 169 -265
134 -496 372 -603 621 -63 146 -70 229 -20 245 22 7 46 2 154 -31 162 -50 244
-26 369 104 88 93 123 150 145 237 15 60 15 70 -1 132 -18 76 -77 174 -137
227 -143 130 -301 105 -379 -58 -43 -92 -41 -118 19 -177 26 -27 53 -49 58
-49 6 0 28 19 49 43 47 52 70 66 112 67 99 1 111 -147 20 -246 -94 -102 -252
-93 -362 21 -107 110 -124 226 -53 367 73 143 171 239 303 294 50 21 72 24
144 22 73 -3 95 -8 152 -36z"/>
<path d="M5520 10710 c-25 -25 -44 -70 -80 -191 -42 -141 -78 -311 -90 -424
-14 -124 -35 -196 -115 -400 -101 -254 -183 -559 -192 -715 -6 -100 0 -110 77
-118 43 -4 52 -1 74 23 33 36 47 79 177 575 159 607 218 872 238 1056 13 118
6 169 -27 194 -31 25 -37 25 -62 0z"/>
<path d="M6325 10671 c-82 -24 -119 -45 -170 -96 -67 -67 -88 -115 -93 -218
-4 -76 -1 -100 23 -172 32 -100 76 -170 130 -207 25 -17 89 -41 174 -64 160
-44 172 -42 276 41 87 70 146 141 188 225 28 57 32 75 32 145 0 70 -4 87 -30
135 -16 30 -62 87 -101 127 -58 58 -82 75 -125 87 -71 22 -226 20 -304 -3z
m220 -85 c62 -29 126 -92 157 -154 66 -134 -16 -340 -151 -381 -141 -42 -279
28 -357 181 -37 72 -36 118 6 196 82 154 220 217 345 158z"/>
<path d="M6382 10388 c-19 -19 -15 -102 6 -120 25 -22 59 -28 93 -16 54 19 51
95 -4 128 -36 22 -77 26 -95 8z"/>
<path d="M5846 10651 c-33 -36 -85 -229 -196 -729 -61 -273 -140 -609 -175
-747 -35 -137 -65 -274 -67 -304 -3 -48 0 -55 23 -73 17 -13 43 -20 74 -20 42
-1 52 3 80 33 59 65 122 313 269 1054 117 590 135 730 102 780 -21 32 -83 35
-110 6z"/>
<path d="M2505 10576 c-143 -46 -281 -167 -540 -471 -170 -201 -329 -362 -385
-389 -25 -13 -67 -29 -95 -35 -68 -17 -262 -15 -365 4 -99 18 -148 19 -185 5
-38 -14 -153 -128 -177 -173 -26 -53 -17 -85 45 -159 130 -152 128 -140 67
-402 -104 -442 -208 -814 -346 -1236 -216 -662 -382 -1246 -478 -1677 -56
-250 -58 -373 -7 -373 53 0 134 164 241 490 374 1132 1116 2747 1545 3366 81
117 203 244 234 244 43 0 21 -68 -80 -247 -103 -183 -577 -1128 -694 -1383
-287 -629 -527 -1228 -674 -1683 -92 -285 -136 -501 -113 -552 25 -55 93 -11
141 89 47 100 173 422 251 646 165 468 494 1249 652 1550 203 383 590 1087
978 1780 168 299 220 404 227 458 4 33 1 44 -27 76 -60 67 -143 96 -215 72z
m-1400 -1131 c33 -32 31 -63 -5 -113 -36 -51 -68 -70 -76 -47 -13 32 1 143 20
164 24 27 32 26 61 -4z"/>
<path d="M7241 10415 c-17 -20 -31 -39 -31 -43 0 -4 -18 -90 -39 -192 -76
-357 -158 -653 -322 -1162 -144 -448 -163 -539 -119 -586 12 -12 29 -22 40
-22 29 0 78 47 106 101 107 212 376 1121 474 1604 52 258 42 335 -44 335 -26
0 -41 -8 -65 -35z"/>
<path d="M7627 10372 c-24 -26 -40 -79 -97 -309 -66 -269 -116 -441 -255 -863
-191 -582 -245 -770 -245 -861 0 -86 74 -117 128 -54 69 78 108 167 222 502
173 511 302 994 350 1314 31 207 26 244 -35 274 -42 19 -48 19 -68 -3z"/>
<path d="M8054 10271 c-38 -23 -57 -67 -79 -186 -44 -238 -169 -688 -360
-1290 -164 -519 -182 -594 -163 -660 10 -37 50 -67 90 -69 27 -1 35 5 59 45
147 248 579 1766 579 2035 0 70 -10 99 -44 126 -27 23 -44 22 -82 -1z"/>
<path d="M8635 10099 c-52 -30 -60 -85 -20 -125 38 -38 360 -186 835 -384 405
-168 835 -387 905 -460 36 -37 43 -88 17 -120 -18 -22 -28 -25 -89 -25 -115 1
-381 104 -1018 392 -402 183 -526 236 -644 279 -110 40 -118 38 -127 -42 -5
-41 -2 -54 16 -77 63 -80 318 -203 1065 -516 554 -232 668 -270 852 -279 127
-6 165 1 207 39 79 69 70 271 -17 400 -45 68 -267 197 -737 432 -413 207 -797
378 -1030 459 -95 34 -185 45 -215 27z"/>
<path d="M6075 9391 c-51 -13 -115 -50 -161 -93 -132 -122 -153 -369 -45 -536
42 -64 88 -108 158 -149 44 -25 57 -28 143 -28 89 0 100 2 173 37 284 136 340
453 116 663 -77 72 -161 107 -267 111 -48 2 -100 0 -117 -5z m186 -159 c60
-39 155 -145 175 -198 15 -40 15 -47 0 -94 -37 -114 -118 -206 -207 -235 -44
-15 -54 -15 -101 -1 -119 34 -208 144 -208 254 1 118 159 302 260 302 22 0 53
-11 81 -28z"/>
<path d="M6119 9047 c-45 -34 -52 -105 -14 -142 33 -34 97 -35 119 -3 23 33
21 113 -4 138 -23 23 -76 26 -101 7z"/>
<path d="M8367 9202 c-23 -25 -22 -89 1 -132 26 -49 100 -102 208 -150 347
-152 1260 -608 1381 -689 97 -65 188 -154 198 -194 12 -48 3 -62 -43 -65 -85
-6 -243 59 -942 391 -620 294 -921 427 -965 427 -8 0 -22 -11 -31 -25 -33 -50
15 -110 156 -195 149 -91 1468 -735 1687 -824 210 -86 293 -82 411 19 132 114
125 257 -19 388 -124 115 -770 482 -1434 817 -479 241 -569 276 -608 232z"/>
<path d="M2432 8969 c-89 -15 -128 -43 -157 -112 -26 -62 -21 -73 38 -95 179
-67 488 -132 629 -132 81 0 91 2 113 25 30 29 34 98 10 145 -46 89 -458 199
-633 169z"/>
<path d="M2174 8509 c-12 -6 -34 -33 -48 -59 -61 -111 -19 -150 182 -170 102
-10 232 -37 412 -85 201 -54 254 -44 252 49 0 26 -6 61 -12 77 -17 40 -89 85
-185 115 -171 54 -549 100 -601 73z"/>
<path d="M8070 8327 c-30 -15 -55 -58 -47 -80 3 -8 34 -32 69 -52 65 -39 463
-254 673 -365 782 -412 1116 -624 1141 -723 5 -22 2 -34 -14 -50 l-21 -21 -73
29 c-107 41 -384 176 -639 310 -208 110 -330 177 -808 445 -328 184 -431 211
-431 114 0 -27 11 -42 63 -89 210 -191 1132 -717 1620 -924 163 -69 362 -141
390 -141 58 0 167 88 193 155 49 130 -66 324 -276 465 -185 124 -936 533
-1446 788 -266 133 -348 162 -394 139z"/>
<path d="M2181 8034 c-163 -44 -284 -178 -321 -357 -16 -80 -5 -147 40 -232
67 -130 172 -249 265 -299 36 -19 55 -21 185 -21 130 1 154 4 233 28 74 24 94
35 130 73 116 123 189 323 165 454 -14 77 -42 126 -112 195 -143 142 -395 210
-585 159z m321 -192 c108 -48 188 -158 188 -259 0 -64 -32 -153 -71 -198 -52
-59 -110 -79 -224 -79 -120 0 -192 24 -254 84 -47 45 -88 121 -97 178 -18 112
72 239 205 289 53 20 193 11 253 -15z"/>
<path d="M2324 7706 c-34 -15 -68 -57 -77 -97 -10 -40 10 -92 50 -133 62 -62
99 -61 181 4 30 24 60 59 73 86 20 43 21 48 6 79 -30 63 -153 95 -233 61z"/>
<path d="M7858 6994 c-30 -16 -58 -61 -58 -94 0 -69 81 -150 149 -150 43 1 59
12 95 64 31 46 33 80 6 124 -40 65 -128 91 -192 56z"/>
<path d="M1696 6967 c-31 -31 -32 -46 -6 -79 47 -61 139 -82 711 -164 144 -21
422 -25 441 -6 14 14 16 71 5 114 -4 16 -20 34 -36 43 -58 30 -608 94 -948
111 l-141 7 -26 -26z"/>
<path d="M8206 6748 c-64 -82 -74 -108 -53 -139 23 -31 204 -186 255 -216 53
-31 77 -24 122 38 57 79 36 159 -63 246 -31 27 -149 110 -193 136 -7 4 -35
-24 -68 -65z"/>
<path d="M1681 6629 c-66 -26 -118 -90 -106 -130 4 -10 19 -26 35 -34 112 -58
939 -151 1128 -126 112 14 145 61 81 115 -60 51 -184 76 -609 126 -146 17
-305 38 -355 46 -103 16 -140 17 -174 3z"/>
<path d="M7685 6574 c-92 -48 -119 -149 -58 -216 23 -25 106 -68 132 -68 32 0
97 70 110 118 33 119 -79 221 -184 166z"/>
<path d="M8784 6362 c-33 -21 -126 -123 -122 -134 10 -25 775 -815 906 -935
127 -115 146 -123 184 -71 32 46 28 102 -15 193 -99 207 -337 500 -630 773
-191 179 -257 215 -323 174z"/>
<path d="M7970 6330 c-36 -39 -56 -123 -40 -166 15 -39 34 -59 104 -111 83
-62 105 -59 178 19 75 79 75 97 6 174 -106 115 -192 144 -248 84z"/>
<path d="M1528 6229 c-30 -11 -62 -79 -53 -110 21 -65 185 -104 650 -154 199
-22 574 -31 648 -15 67 14 89 41 69 85 -30 66 -199 101 -782 164 -325 35 -494
45 -532 30z"/>
<path d="M7446 6157 c-19 -19 -40 -46 -46 -61 -34 -92 25 -186 117 -186 115 0
151 158 56 247 -46 44 -81 43 -127 0z"/>
<path d="M8518 5980 c-40 -22 -96 -83 -104 -117 -11 -42 39 -114 206 -291 272
-288 698 -696 767 -733 21 -11 26 -10 46 9 66 66 -13 228 -259 537 -251 314
-551 617 -608 615 -6 -1 -27 -10 -48 -20z"/>
<path d="M7716 5940 c-43 -38 -66 -87 -66 -139 0 -56 20 -101 71 -156 101
-109 158 -98 238 46 32 57 38 97 21 129 -23 42 -180 150 -219 150 -6 0 -26
-14 -45 -30z"/>
<path d="M7204 5769 c-46 -23 -74 -113 -55 -172 17 -50 43 -70 97 -71 41 -1
49 3 84 41 22 23 42 53 46 67 8 32 -21 93 -56 118 -31 23 -88 31 -116 17z"/>
<path d="M1405 5703 c-62 -15 -84 -71 -120 -303 -57 -365 -69 -683 -70 -1750
0 -963 0 -965 52 -1061 30 -56 103 -129 158 -158 56 -29 146 -29 200 2 84 47
149 170 185 349 46 228 67 544 100 1473 24 691 38 934 66 1127 14 95 15 122 5
146 -17 41 -61 80 -98 88 -44 9 -60 -20 -83 -154 -63 -360 -117 -940 -155
-1652 -37 -697 -46 -805 -79 -913 -21 -71 -41 -97 -75 -97 -20 0 -37 9 -55 31
-14 17 -26 34 -26 37 0 4 -5 34 -10 67 -18 102 -28 625 -19 955 10 375 21 555
55 870 64 602 84 892 65 928 -12 22 -45 27 -96 15z"/>
<path d="M8176 5620 c-30 -28 -64 -70 -77 -94 -21 -39 -21 -46 -9 -76 20 -47
111 -167 221 -290 52 -58 161 -181 243 -275 186 -213 324 -355 347 -355 47 0
68 69 49 162 -25 117 -92 233 -275 478 -228 305 -394 500 -427 500 -10 0 -43
-23 -72 -50z"/>
<path d="M2226 5525 c-8 -8 -23 -50 -33 -93 -17 -71 -18 -138 -17 -897 1
-1341 27 -1678 149 -1920 80 -160 136 -205 254 -205 105 0 138 15 182 82 48
75 95 206 115 322 22 123 15 535 -25 1451 -54 1222 -59 1275 -125 1275 -72 0
-82 -27 -91 -235 -4 -94 -1 -598 5 -1120 12 -949 8 -1243 -20 -1294 -15 -29
-70 -28 -97 2 -41 44 -71 183 -97 449 -31 310 -38 499 -42 1258 -3 426 -9 804
-14 839 -5 35 -17 72 -26 82 -21 24 -96 26 -118 4z"/>
<path d="M7407 5462 l-77 -78 98 -97 c114 -112 131 -117 186 -62 47 47 63 101
47 158 -17 54 -116 157 -152 157 -17 0 -48 -23 -102 -78z"/>
<path d="M7811 5178 c-58 -58 -95 -122 -87 -152 7 -27 275 -368 402 -511 124
-139 184 -172 214 -115 26 49 -136 379 -321 656 -75 112 -122 164 -148 164 -9
0 -36 -19 -60 -42z"/>
<path d="M4373 4150 c-173 -31 -324 -134 -393 -270 -49 -97 -64 -266 -34 -384
53 -210 197 -360 395 -411 88 -23 240 -17 329 14 186 65 326 221 365 408 18
86 18 140 0 226 -21 102 -57 157 -172 267 -141 134 -182 154 -328 157 -60 1
-133 -2 -162 -7z m228 -199 c250 -96 302 -355 116 -582 -54 -67 -107 -95 -193
-105 -116 -12 -236 36 -318 127 -137 152 -133 332 11 459 45 39 155 102 213
121 38 12 108 4 171 -20z"/>
<path d="M9260 3614 c-116 -31 -201 -113 -240 -229 -24 -75 -44 -232 -37 -306
6 -71 26 -108 131 -249 103 -137 145 -217 152 -291 6 -61 -1 -95 -46 -224 -27
-78 -31 -101 -28 -170 4 -94 16 -121 112 -251 108 -146 116 -194 60 -361 -41
-124 -45 -197 -18 -341 11 -57 14 -107 9 -148 -10 -100 32 -169 69 -111 22 34
35 117 46 297 10 172 19 235 46 359 26 117 16 195 -41 321 -107 238 -110 259
-70 438 31 137 33 245 5 333 -23 75 -57 132 -147 243 -36 44 -77 105 -91 135
-21 46 -24 63 -20 135 6 98 34 161 100 222 87 80 211 98 296 42 47 -32 92
-114 92 -170 0 -107 -97 -175 -193 -135 -52 22 -50 52 8 105 51 46 54 60 22
90 -35 33 -125 31 -166 -3 -62 -53 -61 -137 4 -226 67 -93 187 -124 291 -75
178 83 193 348 30 512 -38 37 -64 54 -98 62 -63 16 -211 14 -278 -4z"/>
<path d="M4592 2510 c-191 -20 -309 -60 -352 -120 -14 -19 -27 -62 -36 -117
-15 -98 -25 -112 -103 -154 -66 -35 -94 -73 -110 -152 -16 -74 -49 -111 -121
-135 -81 -27 -90 -45 -100 -196 -5 -70 -15 -139 -22 -154 -20 -41 -70 -60
-227 -83 -244 -35 -245 -36 -219 -218 l12 -84 446 6 c475 6 545 13 560 50 5
12 14 117 20 232 37 709 54 837 121 901 27 26 38 29 109 32 118 6 113 19 122
-353 6 -303 17 -414 44 -466 18 -36 43 -37 77 -1 42 44 51 137 51 512 -1 347
-10 450 -42 483 -24 23 -107 30 -230 17z"/>
<path d="M6827 2070 c-37 -30 -94 -157 -164 -367 -179 -542 -170 -710 38 -721
110 -7 206 50 246 145 26 63 33 176 23 366 -21 375 -56 572 -105 591 -8 3 -25
-4 -38 -14z"/>
<path d="M1964 1522 c-76 -49 -154 -177 -162 -267 -8 -97 54 -191 160 -245 51
-25 73 -30 132 -30 186 1 305 152 262 332 -22 96 -86 162 -192 199 -87 31
-162 35 -200 11z"/>
</g>
</svg>
