<?xml version="1.0" standalone="no"?>
<!DOCTYPE svg PUBLIC "-//W3C//DTD SVG 20010904//EN"
 "http://www.w3.org/TR/2001/REC-SVG-20010904/DTD/svg10.dtd">
<svg version="1.0" xmlns="http://www.w3.org/2000/svg"
 width="1280.000000pt" height="941.000000pt" viewBox="0 0 1280.000000 941.000000"
 preserveAspectRatio="xMidYMid meet">
<metadata>
Created by potrace 1.15, written by Peter Selinger 2001-2017
</metadata>
<g transform="translate(0.000000,941.000000) scale(0.100000,-0.100000)"
fill="#000000" stroke="none">
<path d="M6310 9400 c-218 -29 -431 -105 -602 -215 -599 -387 -820 -1155 -517
-1804 77 -164 237 -374 361 -472 l40 -32 30 31 31 31 -55 59 c-99 108 -185
253 -233 396 -48 143 -58 211 -59 386 0 147 3 176 27 266 61 233 140 376 302
543 226 234 503 351 835 352 315 1 579 -106 808 -325 173 -166 275 -344 334
-585 28 -114 31 -377 5 -489 -54 -235 -152 -419 -306 -577 l-58 -60 28 -34 28
-34 48 39 c179 145 325 332 413 528 43 96 87 245 106 360 20 123 15 401 -11
515 -62 277 -192 517 -384 710 -206 207 -457 340 -746 396 -96 19 -334 27
-425 15z"/>
<path d="M36 8665 c-9 -13 -16 -28 -16 -32 0 -4 934 -577 2075 -1272 1142
-695 2074 -1266 2071 -1268 -2 -2 -44 -15 -94 -28 -215 -57 -457 -173 -647
-309 -351 -251 -617 -606 -759 -1013 l-35 -103 39 -20 38 -20 26 44 c77 132
247 326 381 436 543 444 1298 533 1921 226 880 -432 1248 -1484 830 -2371
-130 -276 -360 -544 -606 -708 l-108 -71 19 -38 19 -38 103 37 c272 96 505
234 726 433 78 69 204 209 254 280 9 13 18 22 21 19 2 -2 13 -134 25 -294 12
-159 30 -407 41 -550 43 -571 61 -812 100 -1330 52 -700 45 -645 80 -645 25 0
30 5 34 33 5 28 39 474 184 2359 20 269 40 487 43 485 3 -1 40 -42 82 -92 242
-289 546 -500 895 -625 62 -22 116 -40 121 -40 4 0 15 16 24 35 l16 34 -102
70 c-705 483 -975 1396 -643 2172 371 867 1331 1298 2220 998 384 -130 730
-403 935 -736 18 -29 36 -53 39 -53 4 1 21 9 39 18 l32 17 -34 102 c-65 194
-178 406 -307 576 -78 103 -249 280 -348 360 -254 205 -590 364 -882 418 -38
7 -68 15 -68 18 0 3 15 14 33 24 159 90 3927 2394 3927 2402 0 6 -8 20 -18 33
l-18 23 -1285 -561 c-2375 -1039 -3021 -1321 -3035 -1327 -10 -4 -9 7 5 50 57
166 95 414 95 627 0 322 -75 646 -214 920 -29 57 -31 59 -58 49 -15 -5 -32
-11 -39 -14 -8 -3 -9 -15 -2 -42 41 -172 51 -465 24 -648 -89 -591 -456 -1091
-989 -1350 -810 -393 -1786 -120 -2280 638 -183 281 -286 631 -286 976 0 109
22 304 45 392 21 79 20 84 -20 96 -43 14 -42 15 -113 -137 -224 -475 -260
-1019 -101 -1508 12 -35 19 -66 16 -68 -3 -3 -650 277 -1439 621 -788 345
-1787 782 -2220 971 -432 189 -788 344 -791 344 -3 0 -12 -11 -21 -25z m6760
-3315 c-86 -117 -194 -313 -253 -459 -8 -22 -14 -13 -66 92 -51 104 -175 300
-244 385 l-27 33 30 -8 c48 -13 421 -6 514 9 47 8 86 13 88 12 2 -1 -17 -30
-42 -64z"/>
<path d="M6301 8635 c-356 -81 -608 -320 -703 -667 -20 -70 -23 -106 -22 -233
1 -132 4 -161 28 -238 116 -386 428 -635 831 -663 222 -16 481 77 658 237 121
108 223 278 269 449 19 71 23 108 22 230 -1 127 -4 156 -28 235 -63 210 -173
369 -341 493 -78 58 -155 96 -268 134 -82 27 -108 31 -237 34 -103 3 -164 -1
-209 -11z"/>
<path d="M8865 5171 c-3 -2 -5 -21 -5 -42 0 -35 2 -38 33 -43 210 -29 311 -57
439 -122 343 -173 571 -485 634 -872 19 -114 14 -297 -10 -409 -63 -294 -228
-545 -471 -718 -453 -323 -1077 -279 -1479 105 -242 231 -371 537 -365 868 1
57 0 104 -2 106 -2 2 -20 6 -41 10 l-36 7 -12 -53 c-7 -29 -14 -123 -17 -208
-4 -127 -2 -176 15 -275 79 -460 363 -841 781 -1045 199 -98 391 -141 624
-141 231 0 410 41 612 140 383 187 653 517 759 924 124 478 -15 992 -364 1347
-241 244 -538 386 -881 420 -112 11 -204 11 -214 1z"/>
<path d="M4028 5095 c-161 -26 -277 -64 -439 -147 -491 -250 -791 -767 -766
-1318 9 -202 43 -344 124 -525 138 -307 408 -575 714 -711 373 -165 785 -165
1158 0 306 136 576 404 714 711 95 212 121 340 122 585 0 218 -14 300 -48 300
-61 -1 -62 -3 -59 -108 23 -696 -593 -1267 -1288 -1192 -146 15 -265 51 -405
120 -581 288 -815 1004 -515 1577 180 345 514 578 897 625 l94 11 -3 41 -3 41
-105 2 c-58 1 -144 -5 -192 -12z"/>
<path d="M8611 4835 c-99 -22 -159 -44 -246 -89 -293 -151 -484 -461 -486
-790 -1 -116 6 -170 38 -276 80 -271 273 -480 538 -585 377 -149 817 -25 1057
298 214 289 244 664 77 975 -118 222 -306 373 -556 448 -110 33 -319 42 -422
19z"/>
<path d="M4300 4780 c-359 -43 -661 -295 -768 -641 -80 -260 -41 -526 113
-764 271 -418 833 -534 1257 -259 195 126 346 347 392 576 20 99 20 268 0 366
-79 386 -401 678 -796 721 -106 12 -103 12 -198 1z"/>
</g>
</svg>
