<?xml version="1.0" encoding="UTF-8" standalone="no"?>
<!-- Created with Inkscape (http://www.inkscape.org/) -->

<svg
   xmlns:dc="http://purl.org/dc/elements/1.1/"
   xmlns:cc="http://creativecommons.org/ns#"
   xmlns:rdf="http://www.w3.org/1999/02/22-rdf-syntax-ns#"
   xmlns:svg="http://www.w3.org/2000/svg"
   xmlns="http://www.w3.org/2000/svg"
   xmlns:sodipodi="http://sodipodi.sourceforge.net/DTD/sodipodi-0.dtd"
   xmlns:inkscape="http://www.inkscape.org/namespaces/inkscape"
   width="72.356491mm"
   height="88.069107mm"
   viewBox="0 0 72.356491 88.069107"
   version="1.1"
   id="svg4834"
   inkscape:version="0.92.2 (5c3e80d, 2017-08-06)"
   sodipodi:docname="flame.svg">
  <defs
     id="defs4828" />
  <sodipodi:namedview
     id="base"
     pagecolor="#ffffff"
     bordercolor="#666666"
     borderopacity="1.0"
     inkscape:pageopacity="0.0"
     inkscape:pageshadow="2"
     inkscape:zoom="0.7"
     inkscape:cx="-286.55125"
     inkscape:cy="-129.28448"
     inkscape:document-units="mm"
     inkscape:current-layer="layer1"
     showgrid="false"
     fit-margin-top="0"
     fit-margin-left="0"
     fit-margin-right="0"
     fit-margin-bottom="0"
     inkscape:window-width="1920"
     inkscape:window-height="1001"
     inkscape:window-x="-9"
     inkscape:window-y="-9"
     inkscape:window-maximized="1" />
  <metadata
     id="metadata4831">
    <rdf:RDF>
      <cc:Work
         rdf:about="">
        <dc:format>image/svg+xml</dc:format>
        <dc:type
           rdf:resource="http://purl.org/dc/dcmitype/StillImage" />
        <dc:title></dc:title>
      </cc:Work>
    </rdf:RDF>
  </metadata>
  <g
     inkscape:label="Layer 1"
     inkscape:groupmode="layer"
     id="layer1"
     transform="translate(-45.956567,-26.557709)">
    <g
       id="g5528">
      <path
         id="path4668"
         d="m 56.42127,105.7482 c 0.75492,1.12218 1.624348,2.22057 2.625523,3.25344 1.47239,1.51036 3.170285,2.75599 5.00779,3.68049 2.283968,1.13397 4.618001,1.7111 6.836771,1.88365 3.210633,0.24754 6.134916,-0.28067 8.641779,-1.17202 -2.28248,-1.2271 -4.818777,-2.53847 -7.006951,-3.90272 -1.556059,-0.97315 -3.041081,-2.0124 -4.298248,-3.13739 -1.020899,-0.90132 -1.972664,-1.90622 -2.849539,-2.97154 -0.323135,-0.38861 -0.641501,-0.79724 -0.960442,-1.22307 -0.491784,-0.65347 -0.987686,-1.35135 -1.497362,-2.07049 -0.840289,-1.193401 -1.703744,-2.466331 -2.696681,-3.766661 -1.021115,-1.3462 -2.161113,-2.66964 -3.464167,-3.86305 -1.438643,-1.3187 -3.036254,-2.38004 -4.70346,-3.10922 -2.098154,-0.91071 -4.196541,-1.23452 -6.099716,-1.15492 1.30902,1.34965 2.531248,2.79873 3.523356,4.30671 0.808115,1.21698 1.499949,2.50238 2.152923,3.84791 0.602719,1.23663 1.17515,2.56545 1.83264,3.967511 0.636539,1.36886 1.351755,2.82491 2.242396,4.3051 0.22538,0.37659 0.46285,0.75244 0.713388,1.12627 z"
         style="fill:#000000;stroke:none;stroke-width:2.30187488;stroke-linecap:round;stroke-linejoin:round;stroke-miterlimit:4;stroke-dasharray:none;stroke-opacity:1"
         inkscape:connector-curvature="0" />
      <path
         sodipodi:nodetypes="ccccccccc"
         inkscape:connector-curvature="0"
         id="path4648"
         d="m 107.31643,99.331969 c -0.39456,3.624851 -2.59672,6.796221 -5.8869,8.691021 -3.179302,2.19699 -8.373138,3.51 -11.903101,5.01607 5.786806,1.99953 12.720931,2.08144 17.875711,-1.59519 4.41032,-3.14078 6.93017,-8.07781 7.11768,-13.304811 0.22531,-4.23384 -0.79024,-8.43822 -0.4879,-12.66718 0.3274,-2.36463 2.05456,-4.40908 4.28114,-5.22949 -2.79296,-2.43094 -6.92774,1.49106 -8.21853,4.46957 -2.2311,4.54524 -1.89945,9.75341 -2.7781,14.62001 z"
         style="fill:#000000;stroke:none;stroke-width:2.30187488;stroke-linecap:round;stroke-linejoin:round;stroke-miterlimit:4;stroke-dasharray:none;stroke-opacity:1" />
      <path
         sodipodi:nodetypes="cccccccc"
         inkscape:connector-curvature="0"
         id="path4652"
         d="m 68.969971,103.88308 c 2.972189,3.62497 6.913615,5.39102 11.428892,5.14809 -2.807335,-2.53556 -6.30919,-4.96624 -7.179304,-8.8837 -1.550364,-7.038451 -2.361426,-16.402291 -8.024972,-20.591361 -3.244386,-2.50212 -7.19097,-4.44469 -9.214184,-8.1903 -0.631284,-0.76912 -0.918554,-2.6805 -1.60217,-2.79327 -1.641502,4.38438 -0.28901,9.37953 2.520819,12.9718 5.350908,6.74258 7.086618,16.15907 12.070919,22.338741 z"
         style="opacity:1;fill:#000000;stroke:none;stroke-width:2.30187488;stroke-linecap:round;stroke-linejoin:round;stroke-miterlimit:4;stroke-dasharray:none;stroke-opacity:1" />
      <path
         sodipodi:nodetypes="ccccccccccc"
         inkscape:connector-curvature="0"
         id="path4656"
         d="m 61.381182,57.768209 c -1.87299,4.40316 -0.50765,9.52913 2.041072,13.37436 2.752535,4.24195 7.435561,7.92845 9.743707,12.46216 1.216362,3.26765 0.937862,6.84889 1.605191,10.2371 0.681983,3.92582 1.375029,7.848001 4.690268,10.307531 0.570466,0.49571 3.345683,1.6006 1.684078,0.0845 -2.065759,-2.86689 -1.337775,-6.542831 -1.372386,-9.839341 2.55e-4,-3.53528 -0.03457,-7.07751 -0.259194,-10.60643 -0.205429,-4.45134 -3.386534,-7.93256 -6.17319,-11.10681 -2.900964,-3.31614 -6.508215,-5.94641 -9.281902,-9.37344 -1.341306,-1.61072 -1.941664,-3.6423 -2.677644,-5.53966 z"
         style="opacity:1;fill:#000000;stroke:none;stroke-width:2.30187488;stroke-linecap:round;stroke-linejoin:round;stroke-miterlimit:4;stroke-dasharray:none;stroke-opacity:1" />
      <path
         sodipodi:nodetypes="ccccc"
         inkscape:connector-curvature="0"
         id="path4680"
         d="m 91.087539,90.727319 c 3.822272,-9.5508 10.175711,-17.38173 11.837801,-27.05951 0.58173,-3.57399 0.0547,-7.5547 -2.36063,-10.38679 -0.688246,3.15335 -1.821856,5.85594 -3.159522,8.47471 -4.38543,8.39933 -10.56607,22.02127 -6.317649,28.97159 z"
         style="opacity:1;fill:#000000;stroke:none;stroke-width:2.30187488;stroke-linecap:round;stroke-linejoin:round;stroke-miterlimit:4;stroke-dasharray:none;stroke-opacity:1" />
      <path
         id="path4672"
         d="m 88.989557,42.417459 c -0.577066,-0.72062 -1.1236,-1.48333 -1.63131,-2.27138 -0.781055,-1.25478 -1.482865,-2.48692 -1.921057,-3.73766 -0.226821,-0.6247 -0.415137,-1.25712 -0.524025,-1.89375 -0.118309,-0.6634 -0.160177,-1.37284 -0.09977,-2.09289 0.104006,-1.85688 1.15813,-3.99585 2.444291,-5.86407 -2.257914,0.22506 -4.821382,1.22943 -6.796867,3.68109 -0.744656,0.95964 -1.335663,2.08239 -1.715853,3.31989 -0.360022,1.18047 -0.537065,2.41363 -0.530381,3.64354 0.02287,2.44327 0.637479,4.8067 1.680706,6.88705 0.358499,0.73421 0.767546,1.44576 1.22469,2.12866 0.78249,1.16464 1.698683,2.23608 2.729197,3.18824 1.595129,1.29354 3.057197,3.30771 4.398834,5.45668 1.572765,2.60652 2.876186,5.28734 3.819386,8.27751 1.672749,-2.63177 2.496844,-6.19087 2.082391,-9.98788 -0.309818,-3.2688 -1.606794,-6.73023 -4.252917,-9.65982 -0.31157,-0.348 -0.614158,-0.70708 -0.907319,-1.07521 z"
         style="opacity:1;fill:#000000;stroke:none;stroke-width:2.30187488;stroke-linecap:round;stroke-linejoin:round;stroke-miterlimit:4;stroke-dasharray:none;stroke-opacity:1"
         inkscape:connector-curvature="0" />
      <path
         sodipodi:nodetypes="ccc"
         inkscape:connector-curvature="0"
         id="path4660"
         d="M 104.34114,71.900019 C 99.032957,94.931749 84.781551,96.913149 87.874515,103.95669 103.07856,106.27714 110.54284,82.931329 104.34114,71.900019 Z"
         style="opacity:1;fill:#000000;stroke:none;stroke-width:2.30187488;stroke-linecap:round;stroke-linejoin:round;stroke-miterlimit:4;stroke-dasharray:none;stroke-opacity:1" />
      <path
         sodipodi:nodetypes="cccccccccc"
         inkscape:connector-curvature="0"
         id="path4664"
         d="m 73.66162,38.666159 c -1.017708,1.49422 -1.316631,3.39226 -1.050408,5.1599 0.283256,2.03038 1.145862,3.92084 2.103593,5.71348 1.644656,3.19731 3.194254,6.44543 4.586276,9.76103 1.30804,3.29914 1.838931,6.86155 1.888874,10.39691 0.04731,2.38706 0.02129,4.77516 0.09318,7.16184 0.05483,2.21844 0.203004,4.44334 0.646699,6.62168 0.492019,2.50181 1.280438,4.95194 2.407623,7.24119 0.513234,1.00352 1.127879,1.9593 1.87024,2.80934 -0.141697,-0.58765 -0.322058,-1.16568 -0.447343,-1.75763 -0.717324,-3.14789 -0.803153,-6.42809 -0.330736,-9.61873 0.469133,-3.70177 1.341198,-7.33567 1.937536,-11.01639 0.220714,-1.45049 0.39956,-2.91283 0.412942,-4.38159 -0.04621,-2.74978 -0.886537,-5.43358 -2.111394,-7.87727 -0.965858,-1.95918 -2.050462,-3.85967 -3.230339,-5.69753 -2.125756,-3.18468 -4.733712,-6.00111 -7.16113,-8.95064 -1.074128,-1.42048 -1.736051,-3.20913 -1.603124,-5.00427 0.02052,-0.23369 0.05398,-0.46594 0.08403,-0.69853 -0.03218,0.0457 -0.06435,0.0915 -0.09653,0.13721 z"
         style="opacity:1;fill:#000000;stroke:none;stroke-width:2.30187488;stroke-linecap:round;stroke-linejoin:round;stroke-miterlimit:4;stroke-dasharray:none;stroke-opacity:1" />
      <path
         id="path4676"
         d="m 67.510317,59.863589 c 1.115462,1.76485 2.405599,3.17608 3.606663,4.42271 1.598885,1.6604 3.754659,3.74704 5.403093,5.34097 0.544187,-2.4841 0.246988,-5.3406 -0.876738,-8.08116 -0.650185,-1.58568 -1.486931,-2.99781 -2.31994,-4.26497 -0.231156,-0.34965 -0.462287,-0.68873 -0.689747,-1.01875 -0.457431,-0.66874 -0.895735,-1.26983 -1.272884,-1.8503 -0.374279,-0.57128 -0.728139,-1.14452 -1.017004,-1.73687 -0.3416,-0.67969 -0.616962,-1.47476 -0.832352,-2.32105 -0.291928,-1.15394 -0.467674,-2.47376 -0.629495,-3.74084 -0.986122,0.79883 -1.898555,1.84408 -2.555142,3.20893 -0.487034,1.02147 -0.798239,2.20332 -0.837796,3.50122 -0.02567,1.13687 0.148614,2.27194 0.496435,3.34171 0.345095,1.06188 0.809636,2.02426 1.32861,2.87935 0.0647,0.10752 0.130157,0.21387 0.196297,0.31905 z"
         style="opacity:1;fill:#000000;stroke:none;stroke-width:2.30187488;stroke-linecap:round;stroke-linejoin:round;stroke-miterlimit:4;stroke-dasharray:none;stroke-opacity:1"
         inkscape:connector-curvature="0" />
    </g>
  </g>
</svg>
