<?xml version="1.0" standalone="no"?>
<!DOCTYPE svg PUBLIC "-//W3C//DTD SVG 20010904//EN"
 "http://www.w3.org/TR/2001/REC-SVG-20010904/DTD/svg10.dtd">
<svg version="1.0" xmlns="http://www.w3.org/2000/svg"
 width="1276.000000pt" height="1280.000000pt" viewBox="0 0 1276.000000 1280.000000"
 preserveAspectRatio="xMidYMid meet">
<metadata>
Created by potrace 1.15, written by Peter Selinger 2001-2017
</metadata>
<g transform="translate(0.000000,1280.000000) scale(0.100000,-0.100000)"
fill="#000000" stroke="none">
<path d="M6070 12794 c-672 -44 -1247 -154 -1795 -344 -568 -197 -1475 -654
-1475 -744 0 -23 315 -283 536 -443 l72 -52 203 104 c875 445 1467 624 2269
686 194 15 825 15 1025 0 437 -33 789 -99 1155 -216 411 -132 859 -345 1299
-617 l143 -89 142 148 c208 217 333 353 363 397 l27 38 -34 29 c-59 50 -279
193 -400 261 -813 457 -1708 734 -2655 823 -159 15 -744 28 -875 19z"/>
<path d="M5365 11483 c-267 -13 -525 -73 -720 -168 -120 -58 -175 -101 -175
-137 0 -124 401 -608 680 -820 96 -72 238 -158 262 -158 13 0 26 16 42 53 39
86 117 338 109 350 -4 7 -39 46 -79 87 -89 93 -150 165 -165 191 -25 47 73 74
266 73 153 0 243 -15 398 -65 123 -40 333 -145 437 -219 178 -127 200 -139
239 -133 93 12 272 125 363 228 l41 46 -74 76 c-321 325 -638 486 -1109 563
-114 18 -387 42 -435 38 -11 -1 -47 -3 -80 -5z"/>
<path d="M6768 11444 c-18 -4 -28 -12 -28 -22 0 -32 348 -354 414 -382 22 -10
73 -21 111 -24 158 -14 274 -29 287 -37 27 -17 -213 -234 -391 -353 -215 -144
-375 -218 -666 -308 -158 -48 -201 -71 -214 -112 -13 -40 -28 -163 -37 -304
l-7 -113 34 5 c19 3 70 8 114 11 264 21 563 123 910 312 520 282 1069 733
1127 924 10 36 9 41 -13 65 -89 96 -658 293 -936 324 -101 12 -657 22 -705 14z"/>
<path d="M3870 11115 c-99 -33 -244 -106 -248 -125 -1 -9 54 -79 123 -155 399
-442 808 -1031 950 -1366 75 -178 96 -275 102 -474 6 -196 -9 -425 -33 -505
-9 -30 -41 -109 -72 -174 l-56 -119 132 -128 c73 -71 139 -129 147 -129 31 0
135 175 201 338 156 389 144 811 -37 1264 -79 199 -228 472 -368 673 -288 415
-699 926 -746 925 -11 -1 -54 -12 -95 -25z"/>
<path d="M8811 11063 c-76 -78 -249 -316 -436 -598 -438 -659 -620 -1026 -707
-1425 -20 -94 -23 -130 -22 -340 1 -253 9 -308 59 -432 36 -89 130 -243 176
-289 67 -67 97 -52 232 114 l76 94 -41 114 c-60 168 -88 282 -95 389 -29 475
306 1124 997 1930 74 85 146 173 162 194 37 52 37 96 1 131 -34 31 -275 152
-321 161 -31 5 -38 1 -81 -43z"/>
<path d="M5882 10684 c-83 -93 -188 -339 -226 -524 -54 -267 -35 -548 53 -788
62 -170 229 -464 353 -620 68 -85 82 -91 120 -55 31 29 194 236 240 305 l28
40 -61 67 c-208 226 -299 480 -299 832 0 140 28 252 114 456 58 135 64 160 45
194 -24 45 -169 111 -290 133 -34 6 -40 3 -77 -40z"/>
<path d="M1119 10053 c-129 -144 -377 -572 -534 -923 -266 -596 -448 -1244
-529 -1881 -45 -360 -51 -463 -51 -929 0 -472 7 -580 51 -845 159 -960 491
-1866 914 -2495 69 -101 104 -137 122 -123 158 118 538 453 538 474 0 10 -45
108 -100 218 -434 868 -677 1662 -745 2438 -17 195 -20 660 -5 838 58 676 232
1317 552 2025 70 155 248 509 307 608 l31 53 -32 38 c-18 21 -89 100 -158 177
-69 76 -168 190 -220 252 -52 61 -98 112 -101 112 -4 0 -22 -17 -40 -37z"/>
<path d="M7259 9876 c-128 -46 -287 -117 -304 -136 -10 -11 -42 -92 -71 -181
-91 -273 -175 -421 -466 -817 -285 -387 -491 -710 -594 -926 -77 -164 -80
-227 -10 -210 17 4 121 10 231 13 l199 6 76 145 c90 173 189 332 347 558 290
417 340 490 413 608 149 236 251 463 284 630 12 55 16 120 14 205 l-3 124 -25
2 c-14 2 -55 -8 -91 -21z"/>
<path d="M11508 9608 c-129 -139 -249 -270 -268 -291 l-33 -38 131 -267 c130
-266 178 -373 254 -572 457 -1196 516 -2427 173 -3615 -103 -355 -232 -674
-452 -1118 -95 -192 -173 -352 -173 -357 0 -10 308 -338 401 -428 38 -36 69
-74 69 -84 0 -28 35 -22 76 14 135 119 462 752 659 1278 224 596 336 1064 391
1635 25 252 25 847 1 1100 -82 845 -300 1656 -647 2408 -119 257 -269 517
-327 570 -19 17 -26 11 -255 -235z"/>
<path d="M3655 9711 c-160 -27 -249 -75 -381 -206 -83 -83 -108 -116 -146
-190 -73 -143 -90 -208 -95 -371 -5 -120 -2 -152 16 -225 69 -278 274 -491
540 -560 157 -42 399 -36 528 13 84 31 192 109 276 197 60 65 88 105 127 184
66 134 81 197 87 347 4 104 2 140 -16 212 -71 300 -292 521 -583 584 -85 18
-281 26 -353 15z"/>
<path d="M8940 9536 c-301 -65 -525 -276 -601 -567 -30 -114 -30 -281 0 -393
72 -272 267 -471 537 -548 109 -31 267 -31 378 1 264 74 473 279 542 531 28
101 25 330 -4 434 -39 137 -94 229 -197 332 -76 77 -106 98 -185 137 -52 26
-122 54 -155 62 -86 22 -237 27 -315 11z"/>
<path d="M1825 9148 c-59 -62 -155 -202 -155 -227 0 -22 202 -242 381 -416
588 -572 1137 -923 1587 -1015 327 -66 722 -7 974 146 32 20 63 44 69 55 13
25 -9 56 -155 220 l-106 118 -98 -49 c-139 -68 -241 -98 -380 -111 -224 -21
-375 9 -577 112 -281 143 -541 353 -1050 848 -238 232 -399 371 -428 371 -6 0
-34 -24 -62 -52z"/>
<path d="M10963 8973 c-38 -32 -162 -145 -274 -250 -112 -106 -253 -233 -314
-283 -396 -330 -740 -526 -1063 -608 -96 -24 -125 -27 -272 -26 -150 0 -173 3
-255 28 -49 15 -133 48 -185 72 -52 25 -115 49 -139 54 -39 7 -50 5 -85 -18
-50 -31 -169 -143 -207 -196 -16 -21 -29 -49 -29 -61 0 -60 305 -202 525 -246
110 -22 638 -19 728 4 351 89 831 373 1322 782 178 148 505 443 505 456 0 15
-146 302 -167 328 l-19 23 -71 -59z"/>
<path d="M1536 8260 c-126 -139 -226 -532 -226 -882 0 -251 54 -658 93 -712
11 -15 15 -14 49 9 20 14 102 97 181 185 l145 160 4 213 c3 116 8 220 12 230
14 30 38 19 101 -45 106 -110 248 -343 442 -731 l114 -228 65 -29 c132 -60
256 -101 292 -98 30 3 37 8 44 33 43 153 -233 881 -470 1239 -119 179 -386
470 -537 584 -96 72 -178 112 -230 112 -37 0 -48 -5 -79 -40z"/>
<path d="M6770 8208 c-33 -40 -96 -123 -140 -184 l-79 -111 71 -124 c185 -321
278 -572 324 -874 16 -102 19 -179 19 -512 l-1 -393 111 0 c153 0 233 13 262
42 60 60 89 249 80 518 -20 590 -212 1202 -512 1625 -33 47 -63 85 -67 85 -4
0 -35 -33 -68 -72z"/>
<path d="M11205 8124 c-148 -90 -363 -290 -486 -454 -133 -178 -245 -376 -274
-485 -18 -71 -29 -60 155 -154 l135 -69 42 36 c22 21 82 85 132 144 122 144
149 157 170 81 16 -56 13 -266 -4 -391 -33 -235 -93 -428 -202 -646 l-54 -108
92 -230 c50 -126 98 -236 106 -244 57 -57 214 149 342 448 213 498 283 1042
189 1477 -43 204 -230 631 -276 631 -4 0 -34 -16 -67 -36z"/>
<path d="M6230 7383 c-496 -49 -886 -108 -1140 -173 -371 -94 -790 -290 -790
-369 0 -20 89 -107 200 -197 126 -102 117 -99 186 -65 113 54 295 115 509 171
387 101 793 152 1302 166 l251 7 10 37 c13 51 -1 129 -42 245 -45 127 -65 157
-106 172 -32 11 -289 15 -380 6z"/>
<path d="M2885 7239 c-13 -21 8 -105 71 -288 35 -101 67 -188 71 -192 5 -4 60
-28 123 -54 63 -26 183 -82 266 -124 259 -133 413 -235 801 -532 385 -294 737
-517 906 -574 92 -31 111 -31 138 -4 20 20 21 28 15 123 -8 111 -31 292 -41
319 -11 28 -90 80 -270 177 -207 111 -452 273 -685 452 -96 74 -222 170 -280
215 -318 244 -681 430 -938 479 -88 17 -168 18 -177 3z"/>
<path d="M7563 7224 c-11 -28 7 -408 20 -420 7 -7 73 -40 147 -74 432 -199
626 -324 1133 -728 516 -413 659 -495 954 -552 57 -11 142 -23 188 -26 l85 -7
0 49 c0 66 -25 251 -47 347 l-17 77 -66 20 c-36 11 -100 27 -143 35 -175 36
-418 186 -967 595 -512 382 -699 499 -969 609 -213 88 -305 109 -318 75z"/>
<path d="M9595 7054 c-86 -14 -202 -52 -304 -100 -190 -90 -301 -166 -301
-205 0 -25 125 -146 211 -206 96 -65 124 -66 276 -9 334 126 605 95 1049 -120
61 -30 115 -54 120 -54 22 0 184 301 184 341 0 50 -239 183 -461 257 -211 70
-345 93 -559 97 -102 2 -198 1 -215 -1z"/>
<path d="M1942 6951 c-325 -372 -518 -752 -612 -1205 -70 -333 -66 -720 11
-1020 39 -153 123 -326 158 -326 18 0 172 107 286 199 233 187 397 369 592
661 91 136 133 211 133 238 0 17 -45 62 -64 62 -2 0 -61 25 -130 56 -88 39
-135 54 -158 52 -35 -3 -32 0 -181 -206 -70 -96 -212 -246 -225 -238 -18 11
-20 63 -7 176 44 377 173 683 433 1034 l66 89 -63 121 c-80 152 -162 285 -193
312 l-23 21 -23 -26z"/>
<path d="M6327 6785 c-59 -22 -172 -101 -213 -148 -134 -154 -121 -371 32
-537 72 -77 122 -101 227 -107 147 -9 252 23 330 101 116 117 146 311 70 465
-79 162 -309 279 -446 226z"/>
<path d="M5670 6651 c-69 -10 -136 -21 -150 -25 -49 -14 -130 -48 -130 -55 0
-107 46 -631 71 -811 75 -539 261 -1043 532 -1438 70 -101 76 -103 139 -45 62
58 192 212 213 254 9 17 13 39 9 52 -3 12 -41 76 -84 142 -143 220 -223 405
-290 669 -79 311 -130 747 -130 1111 0 66 -3 130 -6 143 -7 26 -5 26 -174 3z"/>
<path d="M2314 6277 c-110 -122 -172 -218 -210 -326 l-19 -53 23 -18 c33 -27
163 -74 377 -137 l190 -56 180 0 c139 0 207 5 300 22 149 27 293 63 410 103
90 30 352 145 360 157 3 6 -290 275 -335 308 -14 10 -37 4 -128 -33 -183 -73
-278 -95 -432 -101 -209 -8 -375 31 -577 137 l-93 48 -46 -51z"/>
<path d="M10219 6288 c-21 -38 -23 -221 -5 -348 75 -508 335 -1008 716 -1373
123 -118 187 -167 220 -167 30 0 110 84 157 165 42 73 94 199 113 274 37 142
54 456 40 713 -9 173 -21 233 -46 233 -7 0 -58 -56 -115 -125 -56 -69 -125
-149 -151 -179 -62 -68 -95 -133 -103 -202 -10 -86 -11 -86 -68 -17 -147 180
-209 315 -323 711 l-48 168 -121 69 c-189 108 -242 123 -266 78z"/>
<path d="M8080 6149 c-532 -271 -1072 -419 -1525 -419 -83 0 -396 -26 -401
-33 0 -1 3 -48 7 -104 9 -110 25 -183 63 -284 28 -75 31 -76 171 -78 432 -5
1108 156 1608 385 215 98 489 256 560 322 37 35 34 54 -14 95 -40 35 -285 208
-291 206 -2 0 -82 -41 -178 -90z"/>
<path d="M3747 5245 c-231 -39 -508 -171 -847 -404 -282 -193 -1069 -799
-1212 -933 -58 -55 -60 -74 -13 -152 58 -97 158 -226 175 -226 17 0 49 25 236
185 307 262 905 699 1203 879 134 82 278 152 384 188 75 25 113 32 204 36 163
7 258 -18 506 -132 l79 -36 61 47 c83 63 134 108 184 163 l42 47 -87 66 c-310
233 -611 323 -915 272z"/>
<path d="M8700 5135 c-170 -28 -335 -83 -458 -151 -65 -37 -212 -150 -212
-164 0 -31 208 -253 264 -282 l39 -20 136 66 c169 81 290 121 418 137 269 34
596 -85 1097 -398 224 -140 542 -370 768 -556 65 -54 124 -97 132 -97 25 0
157 174 206 270 l23 45 -54 48 c-160 144 -471 383 -695 534 -473 318 -866 500
-1218 563 -127 23 -327 25 -446 5z"/>
<path d="M6965 5089 c-99 -9 -181 -18 -182 -18 -1 -1 -5 -15 -8 -33 -13 -58
-95 -251 -152 -358 -74 -138 -204 -329 -349 -515 -341 -435 -414 -537 -513
-712 -97 -173 -184 -413 -211 -583 -18 -120 -9 -293 18 -338 7 -9 39 -3 143
27 187 55 247 79 260 104 7 11 20 63 30 114 40 209 145 395 494 878 366 506
561 828 661 1085 66 172 95 350 58 364 -20 8 -34 7 -249 -15z"/>
<path d="M4851 4623 c-48 -49 -108 -113 -134 -144 l-46 -55 44 -85 c219 -422
192 -729 -109 -1262 -139 -247 -316 -503 -665 -961 -96 -126 -189 -254 -208
-285 l-33 -55 32 -34 c64 -66 295 -197 329 -187 54 18 522 641 732 976 326
521 477 946 477 1348 0 237 -42 435 -130 616 -64 132 -137 215 -190 215 -6 0
-50 -39 -99 -87z"/>
<path d="M7746 4529 c-52 -58 -178 -304 -219 -429 -160 -477 -40 -880 432
-1455 199 -243 835 -975 851 -980 49 -16 166 45 295 153 41 34 75 69 75 76 0
19 -108 142 -292 332 -367 380 -747 847 -856 1052 -66 126 -83 190 -89 334 -7
165 11 268 88 502 l58 178 -72 82 c-116 131 -193 206 -209 206 -9 0 -37 -23
-62 -51z"/>
<path d="M3700 4554 c-365 -73 -615 -349 -646 -715 -18 -209 79 -435 260 -607
142 -133 279 -191 481 -199 101 -5 134 -2 205 16 226 56 403 199 505 406 62
124 79 196 79 330 0 116 -15 188 -62 295 -67 153 -219 325 -349 392 -120 63
-184 80 -323 83 -69 2 -136 1 -150 -1z"/>
<path d="M8766 4450 c-267 -68 -465 -258 -558 -535 -20 -60 -23 -90 -23 -205
0 -113 4 -147 24 -210 66 -213 214 -396 390 -484 127 -64 161 -71 326 -71 136
1 158 3 230 28 121 40 228 108 321 201 148 149 214 298 222 499 6 147 -11 223
-78 363 -100 207 -237 332 -437 401 -109 36 -300 42 -417 13z"/>
<path d="M6687 3600 c-55 -49 -237 -263 -237 -279 0 -6 24 -60 54 -119 68
-137 120 -267 148 -373 20 -76 23 -108 23 -319 0 -213 -2 -242 -23 -313 -12
-42 -22 -88 -22 -100 0 -34 33 -61 132 -107 104 -48 171 -54 205 -18 86 94
146 386 146 703 0 191 -15 315 -53 438 -23 74 -147 324 -199 402 -41 61 -101
125 -117 125 -6 0 -32 -18 -57 -40z"/>
<path d="M6099 2455 c-197 -33 -424 -105 -649 -205 -432 -192 -959 -585 -925
-688 9 -29 105 -92 230 -153 192 -92 426 -156 665 -180 132 -13 532 -18 573
-6 57 16 31 57 -136 204 -140 125 -217 187 -261 210 -20 11 -70 19 -137 23
-118 7 -137 13 -117 37 25 30 163 117 252 158 185 86 445 152 713 181 72 8 64
-8 89 182 14 113 15 141 4 186 -11 48 -16 55 -43 60 -47 9 -175 5 -258 -9z"/>
<path d="M7330 2381 c-15 -28 -58 -213 -66 -281 -6 -56 -5 -58 30 -98 20 -22
76 -67 124 -100 48 -33 98 -72 112 -87 24 -26 24 -27 6 -40 -100 -74 -639 -47
-1025 51 -53 13 -108 24 -124 24 -34 0 -439 -83 -512 -104 -28 -9 -59 -22 -70
-30 -20 -14 -20 -14 0 -36 22 -24 294 -161 420 -211 200 -79 381 -129 588
-160 169 -26 544 -36 742 -20 484 40 920 156 933 248 5 34 -23 77 -100 154
-192 190 -682 541 -923 661 -95 48 -121 53 -135 29z"/>
<path d="M9345 1608 c-708 -414 -1385 -666 -2055 -767 -568 -85 -1322 -92
-1798 -15 -530 85 -1006 245 -1660 558 -290 139 -361 168 -388 162 -32 -8
-175 -163 -333 -361 l-144 -179 44 -39 c89 -79 376 -238 654 -363 682 -304
1433 -515 2068 -581 207 -21 935 -24 1197 -5 563 41 1073 154 1660 367 486
176 1036 453 1338 672 60 44 102 81 102 91 0 10 -42 58 -92 108 -145 141 -455
424 -464 423 -5 0 -63 -32 -129 -71z"/>
</g>
</svg>
