<?xml version="1.0" standalone="no"?>
<!DOCTYPE svg PUBLIC "-//W3C//DTD SVG 20010904//EN"
 "http://www.w3.org/TR/2001/REC-SVG-20010904/DTD/svg10.dtd">
<svg version="1.0" xmlns="http://www.w3.org/2000/svg"
 width="1280.000000pt" height="640.000000pt" viewBox="0 0 1280.000000 640.000000"
 preserveAspectRatio="xMidYMid meet">
<metadata>
Created by potrace 1.15, written by Peter Selinger 2001-2017
</metadata>
<g transform="translate(0.000000,640.000000) scale(0.100000,-0.100000)"
fill="#000000" stroke="none">
<path d="M2212 6349 c-57 -63 -80 -72 -157 -58 -105 18 -114 7 -65 -84 38 -71
38 -94 -1 -162 -45 -80 -38 -88 66 -80 l84 7 60 -52 c72 -63 85 -59 96 28 9
75 24 96 94 131 60 31 79 53 58 69 -7 5 -36 21 -64 36 -63 31 -79 54 -88 121
-13 101 -26 108 -83 44z"/>
<path d="M6041 6321 c-15 -16 -45 -59 -66 -96 -51 -86 -101 -144 -139 -160
-17 -7 -93 -16 -169 -20 -99 -6 -142 -12 -153 -22 -30 -30 -15 -65 75 -173 71
-85 112 -163 95 -180 -5 -5 -28 -12 -51 -16 -40 -6 -44 -4 -97 46 -32 31 -61
50 -70 47 -8 -3 -18 -32 -25 -68 -11 -65 -25 -90 -40 -73 -18 20 -71 178 -71
213 0 25 10 53 33 86 138 207 135 221 -45 210 -144 -8 -158 -1 -256 123 -72
90 -97 107 -120 80 -6 -7 -22 -55 -37 -107 -44 -157 -49 -163 -187 -211 -85
-29 -87 -29 -139 -14 -78 23 -110 61 -142 169 -70 233 -79 235 -205 57 -93
-131 -100 -135 -276 -133 -130 2 -144 0 -160 -18 -27 -29 -14 -64 58 -162 35
-48 69 -97 76 -109 23 -43 15 -111 -24 -222 -61 -172 -43 -191 128 -134 166
56 198 51 327 -47 152 -116 162 -110 169 84 6 173 14 191 120 264 61 42 74 47
97 39 57 -20 82 -87 83 -221 0 -82 12 -113 43 -113 16 0 82 44 129 86 78 70
117 77 229 43 60 -18 69 -24 69 -45 0 -18 11 -29 50 -49 27 -14 57 -36 65 -49
12 -17 34 -110 35 -143 0 -2 8 -3 18 -3 10 0 37 20 59 45 43 48 88 60 113 30
21 -25 63 -17 182 31 151 62 172 60 305 -28 133 -89 140 -92 169 -79 27 12 26
5 25 196 -2 154 7 185 63 214 25 14 32 12 127 -35 123 -60 165 -101 174 -171
15 -114 28 -189 37 -205 19 -37 60 -22 128 48 124 126 160 139 317 109 108
-21 130 -20 148 9 15 22 13 29 -45 146 -33 68 -60 132 -60 144 0 29 82 196 97
196 20 0 42 -29 53 -70 10 -36 17 -41 94 -78 147 -70 163 -93 186 -259 21
-141 39 -144 166 -22 45 43 94 81 110 85 15 4 77 0 138 -8 60 -8 118 -13 128
-10 23 6 32 40 19 75 -13 35 0 35 73 3 76 -34 103 -77 122 -197 23 -154 24
-158 40 -174 9 -8 24 -15 34 -15 10 0 63 43 119 95 129 120 141 124 288 96
127 -24 157 -26 170 -8 24 31 20 51 -39 169 -39 79 -60 135 -60 158 -1 32 92
233 113 246 9 5 54 -61 70 -103 8 -21 4 -38 -21 -91 -32 -68 -37 -98 -19 -104
9 -3 9 -9 1 -25 -13 -24 -6 -77 12 -92 11 -10 94 -54 206 -111 126 -64 148
-103 180 -310 12 -79 26 -152 31 -162 11 -21 49 -32 77 -24 11 4 66 54 123
111 57 58 122 114 145 125 51 25 112 25 276 0 95 -14 135 -17 155 -9 15 5 52
37 83 70 l57 60 75 -7 c50 -4 77 -3 82 4 4 6 -7 39 -25 73 l-31 63 33 68 c40
83 35 92 -45 77 -78 -14 -98 -7 -142 46 -20 25 -42 45 -50 45 -17 0 -34 -32
-34 -65 0 -39 -25 -92 -50 -105 -32 -17 -52 7 -58 68 -6 64 7 103 79 234 66
121 83 192 54 221 -21 22 -25 22 -195 -9 -152 -27 -206 -27 -261 2 -17 8 -83
69 -145 134 -63 65 -123 120 -134 123 -10 3 -28 -1 -38 -9 -22 -15 -33 -56
-58 -219 -9 -60 -20 -114 -25 -120 -18 -19 -49 30 -61 96 -17 96 -22 98 -89
34 -62 -60 -63 -60 -181 -48 -57 5 -68 9 -68 24 0 36 -30 39 -168 17 -180 -29
-188 -26 -311 103 -97 102 -129 119 -150 81 -6 -10 -19 -74 -31 -142 -22 -126
-34 -163 -67 -192 -19 -17 -207 -108 -224 -108 -24 0 4 94 52 170 24 39 40 84
37 109 -4 35 -26 37 -154 16 -134 -22 -147 -17 -254 90 -120 120 -130 117
-159 -55 -12 -69 -27 -123 -38 -139 -16 -22 -163 -110 -185 -111 -11 0 -10 32
3 69 8 23 26 41 65 63 30 16 54 35 54 41 0 7 -25 25 -55 40 -56 30 -65 45 -80
129 -3 21 -10 40 -15 43 -5 3 -32 -15 -60 -41 l-50 -47 -69 7 c-83 8 -88 1
-55 -66 27 -53 30 -90 11 -106 -18 -15 -110 -26 -154 -17 -31 5 -56 25 -135
107 -64 65 -104 98 -115 96 -27 -5 -40 -41 -62 -173 -19 -113 -22 -122 -56
-152 -42 -39 -62 -42 -75 -9 -6 18 -21 28 -52 36 -243 64 -275 77 -299 122 -6
12 -31 73 -55 136 -41 109 -66 152 -87 152 -5 0 -21 -13 -36 -29z"/>
<path d="M11176 6328 c-8 -13 -42 -83 -75 -157 -33 -74 -73 -147 -87 -163 -26
-26 -77 -50 -136 -62 -25 -6 -28 -3 -28 18 0 33 26 62 85 94 69 38 69 55 0 88
-66 32 -83 52 -91 116 -4 26 -12 56 -19 65 -12 16 -18 13 -68 -35 -59 -55 -72
-59 -152 -43 -22 4 -46 6 -53 3 -19 -6 -14 -38 13 -92 14 -27 25 -56 25 -65 0
-9 -11 -38 -25 -65 -43 -84 -35 -94 54 -79 53 10 65 9 87 -6 31 -20 28 -24
-27 -36 -58 -13 -69 -25 -69 -70 0 -31 7 -44 43 -77 23 -22 77 -73 121 -114
43 -40 85 -87 92 -105 17 -40 18 -103 2 -261 -13 -133 -9 -154 31 -160 31 -5
71 12 181 80 54 33 116 62 146 69 63 14 100 4 258 -71 117 -56 147 -61 170
-28 21 30 21 42 -15 202 -37 172 -35 195 32 278 80 100 170 190 185 184 25
-10 14 -65 -30 -154 -57 -115 -60 -126 -40 -147 19 -18 62 -16 188 7 82 16
115 2 212 -93 51 -49 90 -79 103 -79 27 0 46 42 55 125 16 139 41 173 169 236
102 50 109 56 105 93 -3 29 -12 35 -113 86 -130 65 -137 75 -160 215 -19 119
-29 145 -53 145 -9 0 -55 -38 -102 -85 -50 -50 -98 -89 -118 -96 -26 -9 -60
-7 -154 7 -117 17 -121 17 -134 -1 -19 -26 -17 -49 6 -95 l20 -40 -27 0 c-72
0 -284 30 -309 43 -46 24 -78 65 -139 177 -94 172 -125 200 -159 148z"/>
<path d="M1428 6323 c-9 -10 -42 -65 -73 -123 -32 -58 -69 -122 -83 -142 -35
-53 -106 -85 -210 -93 l-83 -7 21 53 c26 65 20 99 -16 99 -15 0 -69 -7 -121
-16 -138 -24 -151 -19 -255 87 -48 49 -94 89 -102 89 -27 0 -44 -42 -60 -150
-10 -62 -24 -115 -34 -130 -10 -14 -68 -51 -130 -83 -102 -53 -112 -60 -112
-86 0 -35 15 -48 110 -93 41 -20 90 -52 108 -71 30 -31 35 -45 52 -147 29
-170 41 -175 157 -61 97 95 131 110 220 93 124 -23 169 -25 186 -7 10 9 17 25
17 36 0 33 19 21 31 -21 11 -36 9 -58 -19 -188 -37 -170 -38 -183 -14 -205 29
-27 56 -21 190 42 70 33 143 62 163 66 55 10 114 -11 233 -82 84 -51 118 -67
149 -67 60 -1 63 9 48 183 -7 83 -10 172 -6 198 7 50 24 69 213 243 35 32 51
56 54 79 8 57 -10 67 -179 100 -84 17 -165 37 -180 45 -49 25 -73 61 -135 202
-63 146 -80 174 -108 174 -9 0 -24 -8 -32 -17z"/>
<path d="M3086 6211 c-155 -152 -156 -152 -351 -121 -77 12 -154 20 -170 18
-28 -3 -30 -6 -33 -49 -3 -49 9 -81 83 -218 56 -105 60 -158 18 -242 -23 -44
-29 -50 -31 -31 -2 13 6 39 17 58 12 19 21 44 21 55 0 18 -5 19 -66 13 l-65
-7 -44 43 c-24 23 -49 40 -56 38 -8 -3 -18 -31 -24 -64 -10 -58 -11 -60 -62
-87 -65 -35 -69 -57 -13 -82 54 -24 67 -42 75 -102 4 -29 11 -55 16 -58 5 -3
28 12 52 35 29 26 54 40 72 40 22 0 26 -3 19 -17 -4 -10 -9 -34 -12 -55 -3
-31 0 -39 22 -53 25 -16 32 -16 139 4 143 26 222 27 262 3 17 -10 71 -59 120
-109 100 -100 126 -117 161 -109 33 9 39 24 64 181 12 77 28 152 36 166 21 42
69 76 191 137 83 41 119 65 129 84 17 32 18 74 3 83 -6 5 -4 12 8 20 17 13 17
16 -10 69 -34 70 -34 93 -1 157 37 74 30 81 -61 73 l-75 -7 -55 53 c-65 61
-79 58 -88 -21 -7 -55 -29 -99 -50 -99 -9 0 -20 46 -35 142 -22 141 -36 178
-70 178 -8 0 -69 -54 -136 -119z"/>
<path d="M165 5600 c-3 -6 -3 -30 0 -54 6 -39 4 -47 -25 -80 -37 -42 -34 -66
9 -66 45 0 60 -9 82 -51 24 -49 42 -49 66 -2 20 41 32 49 86 58 45 7 47 22 6
61 -28 27 -30 33 -27 82 3 29 1 55 -4 58 -5 4 -28 -4 -52 -16 l-42 -23 -41 22
c-48 24 -50 24 -58 11z"/>
<path d="M12427 5604 c-3 -3 -3 -29 0 -57 5 -48 3 -54 -26 -81 -48 -46 -41
-59 39 -68 17 -2 32 -16 48 -45 13 -24 30 -43 37 -43 7 0 24 19 37 43 16 29
31 43 48 45 80 9 87 22 39 68 -29 27 -31 32 -25 81 3 28 2 54 -3 58 -5 3 -29
-4 -54 -16 l-43 -21 -42 21 c-46 23 -46 23 -55 15z"/>
<path d="M693 5314 c-7 -3 -50 -54 -97 -113 -113 -144 -117 -146 -304 -138
-90 4 -151 3 -163 -4 -42 -22 -19 -89 76 -224 62 -88 71 -128 44 -207 -11 -34
-34 -91 -50 -125 -32 -69 -37 -114 -14 -133 26 -21 17 -50 -30 -98 -25 -25
-44 -53 -43 -62 2 -10 20 -18 53 -23 75 -12 97 -27 130 -87 24 -43 36 -55 55
-55 22 0 28 -9 47 -65 24 -73 29 -141 11 -173 -6 -12 -40 -57 -75 -100 -34
-44 -63 -87 -63 -97 0 -36 38 -50 139 -50 111 0 171 -22 197 -72 16 -30 15
-31 -33 -101 -71 -100 -87 -107 -258 -107 -156 0 -165 -3 -165 -59 0 -27 15
-54 70 -128 106 -141 109 -154 55 -314 -62 -182 -47 -201 120 -145 95 32 125
38 174 34 54 -4 66 -10 147 -70 107 -79 129 -91 153 -83 26 8 31 33 31 175 1
100 4 132 18 158 11 20 63 67 128 115 106 81 109 84 109 122 l0 39 -134 42
c-136 44 -170 63 -198 118 -30 57 -12 168 43 263 26 44 43 53 181 93 136 39
139 71 13 165 -50 37 -98 81 -106 98 -12 22 -16 60 -15 157 2 180 5 179 -161
69 -67 -44 -99 -59 -126 -59 -38 0 -232 68 -232 81 0 13 31 26 75 34 92 16 97
31 30 94 -40 38 -45 47 -45 87 0 83 62 70 197 -41 111 -91 133 -101 164 -76
21 17 24 30 30 159 4 77 12 150 18 160 17 32 110 109 170 141 65 34 97 65 106
102 9 35 -2 42 -150 99 -70 26 -137 58 -150 70 -31 29 -50 76 -81 200 -30 125
-48 151 -91 134z"/>
<path d="M12066 5298 c-8 -13 -26 -70 -41 -128 -32 -123 -58 -176 -101 -205
-18 -12 -80 -39 -140 -60 -59 -21 -116 -47 -126 -57 -36 -36 -1 -88 96 -142
77 -43 142 -99 163 -140 12 -22 18 -67 21 -161 3 -98 8 -134 20 -147 29 -34
62 -22 162 58 141 113 190 130 210 70 14 -43 -4 -83 -55 -122 -58 -44 -48 -65
40 -80 45 -7 75 -21 75 -33 0 -4 -45 -25 -100 -46 -133 -50 -152 -47 -281 41
-133 91 -134 90 -135 -82 -1 -158 -8 -174 -108 -249 -95 -70 -106 -81 -106
-110 0 -30 27 -45 133 -74 119 -32 135 -43 167 -115 57 -126 56 -212 -3 -274
-26 -26 -56 -41 -159 -73 -69 -22 -131 -46 -138 -54 -26 -31 -7 -68 60 -118
36 -26 73 -54 82 -62 9 -7 28 -21 43 -31 52 -34 65 -80 65 -222 0 -112 3 -133
19 -153 17 -21 21 -22 47 -10 15 7 69 42 119 79 82 60 95 66 147 70 48 4 79
-2 173 -34 168 -56 183 -36 119 155 -49 149 -46 167 50 297 82 111 96 146 70
175 -15 17 -33 19 -159 19 -168 0 -180 5 -258 112 -48 65 -48 67 -33 96 26 50
86 72 197 72 101 0 139 14 139 50 0 10 -26 52 -58 92 -32 40 -65 84 -75 98
-23 33 -21 100 6 180 19 56 25 65 44 62 18 -3 28 8 53 52 40 71 49 77 123 90
80 14 85 32 23 90 -50 46 -55 63 -30 101 20 30 14 66 -20 139 -44 93 -67 175
-60 212 3 19 39 84 80 146 76 114 91 161 60 187 -9 8 -58 9 -162 5 -190 -9
-194 -7 -312 141 -93 117 -119 134 -146 93z"/>
<path d="M743 2450 c-5 -20 -7 -20 -24 -4 -12 11 -27 14 -43 10 -20 -5 -39
-34 -95 -145 -69 -136 -105 -181 -157 -202 -13 -4 -87 -17 -166 -28 -153 -21
-178 -33 -172 -83 1 -12 3 -27 3 -32 1 -5 48 -57 105 -115 146 -148 151 -163
116 -355 -11 -60 -20 -124 -20 -141 0 -75 63 -72 211 11 98 54 108 58 174 58
67 1 74 -2 170 -55 55 -31 117 -62 137 -69 31 -11 35 -17 27 -31 -15 -29 -11
-81 16 -191 50 -205 47 -227 -45 -328 -62 -68 -78 -65 -41 8 29 58 35 97 16
112 -14 11 -34 11 -123 -3 -59 -10 -119 -17 -133 -17 -35 0 -82 33 -154 109
-114 120 -128 112 -155 -93 -16 -111 -31 -130 -165 -200 -97 -49 -100 -52
-100 -85 0 -33 3 -35 93 -81 146 -74 160 -93 182 -245 7 -44 16 -88 21 -98 19
-35 54 -20 129 57 99 101 127 113 233 97 157 -23 153 -23 171 -6 22 22 20 37
-9 96 -14 27 -23 55 -19 60 7 12 140 5 216 -12 62 -14 128 -73 165 -147 78
-155 114 -202 153 -202 37 0 55 23 96 121 76 183 112 232 179 250 22 6 92 22
155 35 152 32 148 31 166 66 22 43 13 55 -116 168 -73 64 -116 110 -131 139
-22 44 -22 48 -11 190 24 297 25 296 -193 169 -134 -79 -143 -83 -200 -82 -52
0 -78 8 -200 66 -77 36 -147 68 -155 71 -8 3 -10 6 -3 6 25 2 25 72 2 210 -30
181 -28 187 121 339 103 105 110 114 110 152 0 50 -6 53 -166 76 -66 9 -128
20 -138 24 -18 6 -18 8 4 28 13 12 43 24 69 27 100 14 103 25 30 102 l-51 54
7 52 c3 29 8 59 10 67 3 8 0 22 -5 30 -8 13 -18 10 -68 -17 -33 -18 -67 -33
-76 -33 -9 0 -43 14 -76 30 -71 36 -70 36 -77 10z"/>
<path d="M11772 2454 c-5 -9 -5 -34 -1 -58 16 -81 12 -93 -41 -144 -73 -70
-69 -83 32 -97 26 -4 56 -16 69 -28 21 -20 21 -21 3 -28 -10 -4 -73 -15 -139
-24 -139 -19 -165 -31 -165 -78 0 -43 22 -73 118 -163 127 -118 139 -154 111
-327 -24 -145 -24 -193 -1 -206 9 -6 11 -11 4 -11 -6 0 -76 -30 -155 -67 -126
-60 -149 -67 -202 -67 -57 0 -67 4 -200 82 -161 95 -183 99 -203 38 -10 -31
-10 -57 -1 -120 16 -117 16 -245 1 -282 -7 -17 -57 -69 -110 -115 -133 -115
-142 -126 -142 -165 0 -46 21 -57 175 -89 71 -15 145 -34 165 -42 51 -21 92
-79 145 -205 52 -124 76 -158 113 -158 34 0 69 42 126 151 49 97 100 160 149
185 27 14 178 33 270 34 58 0 59 -6 11 -95 -60 -115 -42 -135 103 -115 54 8
110 13 125 13 45 -3 87 -31 157 -104 51 -53 73 -69 94 -69 35 0 42 16 61 144
13 88 18 102 48 133 18 19 75 55 125 79 94 45 115 68 100 109 -4 8 -51 37
-105 64 -130 65 -146 86 -162 198 -6 48 -16 105 -21 126 -15 58 -42 50 -129
-39 -41 -41 -87 -82 -102 -90 -34 -18 -82 -18 -188 1 -114 20 -119 20 -131
-12 -8 -23 -6 -38 11 -81 12 -29 20 -55 18 -58 -7 -7 -123 126 -141 163 -24
45 -21 89 13 237 32 140 35 168 20 196 -8 15 -5 20 22 29 17 6 77 37 132 68
96 54 105 57 171 57 67 0 75 -3 187 -62 199 -105 229 -85 189 125 -26 137 -27
199 -2 238 10 17 60 72 111 124 129 131 149 189 72 211 -20 5 -91 17 -156 25
-187 25 -203 37 -305 243 -34 68 -68 126 -77 129 -8 3 -26 1 -38 -5 -18 -8
-27 -7 -38 5 -14 13 -22 11 -76 -16 -34 -17 -68 -31 -77 -31 -8 0 -39 14 -68
30 -62 35 -63 35 -75 14z"/>
<path d="M9541 1361 c-22 -22 -24 -30 -50 -206 -11 -72 -24 -142 -29 -156 -21
-55 -65 -89 -213 -166 -83 -43 -155 -86 -160 -95 -18 -33 1 -77 47 -109 24
-16 50 -42 58 -58 14 -25 13 -32 -10 -80 -13 -29 -24 -58 -24 -63 0 -7 22 -8
65 -4 l65 7 44 -41 c56 -52 73 -51 83 1 4 22 13 41 18 41 19 1 35 -51 59 -197
40 -239 59 -245 236 -71 63 63 129 121 147 130 44 22 137 21 280 -5 142 -25
168 -19 179 36 7 38 11 27 -100 238 -69 132 -65 172 40 367 61 115 74 170 44
200 -11 11 -23 20 -27 20 -5 0 -73 -11 -153 -25 -80 -14 -163 -25 -186 -25
-67 0 -126 38 -231 149 -82 87 -135 131 -158 131 -3 0 -14 -9 -24 -19z"/>
<path d="M617 1284 c-3 -3 -3 -29 0 -57 5 -48 3 -54 -26 -81 -41 -39 -39 -54
7 -61 58 -10 60 -11 82 -55 11 -22 27 -40 34 -40 8 0 25 19 38 42 20 37 29 44
68 51 25 5 49 13 54 17 5 5 -8 25 -29 47 -35 37 -36 40 -30 90 8 62 -1 66 -60
31 l-37 -21 -44 21 c-50 25 -48 24 -57 16z"/>
<path d="M11997 1283 c-4 -4 -4 -27 -1 -52 6 -43 3 -49 -31 -85 -20 -21 -33
-42 -28 -46 4 -5 28 -12 53 -17 39 -7 48 -14 68 -51 13 -23 29 -42 36 -42 6 0
22 20 34 45 18 37 27 45 49 45 40 0 73 11 73 22 0 6 -15 27 -34 48 -32 35 -33
40 -26 81 5 24 5 48 1 52 -5 5 -28 -2 -53 -14 l-44 -21 -42 21 c-46 24 -46 24
-55 14z"/>
<path d="M3190 1236 c-19 -13 -66 -58 -103 -100 -70 -78 -128 -119 -185 -131
-20 -4 -87 3 -179 20 -180 33 -193 30 -193 -45 0 -31 -4 -50 -11 -50 -7 0 -32
18 -56 41 -24 22 -49 39 -56 36 -7 -2 -16 -26 -21 -53 -4 -27 -10 -54 -12 -61
-2 -7 -26 -24 -54 -38 -59 -30 -66 -56 -20 -75 59 -25 79 -48 86 -101 4 -29
13 -53 21 -56 7 -3 34 14 59 37 45 41 46 42 97 34 29 -4 62 -7 75 -6 20 2 22
-3 22 -49 0 -43 -10 -69 -66 -176 -67 -125 -78 -169 -53 -199 16 -19 63 -18
199 7 116 20 162 19 210 -6 14 -7 73 -61 132 -119 154 -154 176 -148 209 59
12 71 24 138 28 148 8 20 8 20 28 0 12 -12 24 -40 28 -64 15 -96 33 -103 89
-35 41 50 68 60 141 48 28 -5 56 -7 63 -4 19 6 14 33 -13 77 -31 51 -31 83 1
147 18 36 24 58 18 77 -3 14 -7 40 -8 56 -1 28 -10 34 -146 105 -183 95 -194
108 -215 265 -23 169 -34 214 -55 225 -24 13 -20 14 -60 -14z"/>
<path d="M6731 1106 c-10 -12 -22 -71 -47 -243 -3 -18 -17 -46 -31 -63 -33
-40 -236 -143 -264 -135 -11 4 -30 23 -44 43 -24 35 -25 42 -25 202 0 165 -5
190 -36 190 -6 0 -66 -36 -133 -79 -125 -82 -172 -99 -226 -82 -36 11 -123 45
-181 72 -52 23 -71 24 -112 4 -28 -15 -34 -15 -61 0 -17 8 -38 27 -47 41 -22
33 -53 49 -66 36 -6 -6 -14 -34 -19 -62 -11 -69 -29 -95 -89 -125 -50 -25 -60
-41 -38 -63 13 -13 18 -10 -86 -41 -118 -36 -132 -32 -272 79 -41 33 -79 60
-83 60 -4 0 -15 -8 -23 -17 -12 -13 -17 -48 -20 -134 -4 -122 -14 -153 -62
-191 -30 -25 -41 -23 -109 26 -117 83 -127 106 -127 282 0 67 -3 129 -6 138
-12 31 -51 16 -145 -55 -52 -39 -106 -77 -121 -85 -44 -23 -96 -17 -223 26
-66 22 -127 37 -137 34 -35 -11 -33 -53 7 -173 47 -138 50 -195 12 -244 -73
-96 -137 -191 -137 -203 0 -8 9 -23 20 -34 18 -18 33 -20 149 -19 172 1 181
-3 283 -142 123 -167 138 -163 203 56 22 74 34 97 66 127 54 51 103 65 176 48
62 -14 113 -34 155 -63 22 -15 35 -40 63 -132 34 -109 53 -145 77 -145 12 0
68 61 120 130 19 25 52 55 73 68 37 21 47 22 148 16 95 -5 110 -4 127 11 11
10 20 27 20 37 0 10 -29 62 -65 114 -51 75 -65 103 -65 132 0 40 68 232 82
232 11 0 24 -35 32 -92 10 -67 29 -69 86 -8 36 39 53 50 77 50 55 0 83 -16 83
-47 0 -38 -21 -75 -88 -155 -110 -134 -118 -152 -82 -188 18 -18 33 -20 128
-20 186 0 235 -28 322 -182 37 -67 82 -118 102 -118 28 0 56 46 103 169 45
115 51 125 92 151 24 15 89 40 146 55 115 32 152 47 160 70 10 25 43 17 76
-20 34 -39 33 -37 56 -180 16 -105 37 -141 73 -128 9 3 55 43 102 89 99 97
139 117 211 108 69 -9 75 -26 37 -101 -41 -80 -35 -98 30 -87 99 17 117 13
176 -45 65 -64 82 -63 91 6 13 98 24 115 98 150 88 42 89 61 9 102 -58 29 -90
56 -79 67 7 8 78 -30 117 -63 41 -34 55 -67 70 -167 24 -160 41 -164 170 -42
52 50 100 87 117 90 16 4 69 0 117 -9 107 -18 138 -19 154 -3 21 21 14 49 -38
149 -27 53 -50 104 -50 113 0 27 38 19 136 -29 119 -58 136 -83 160 -240 28
-187 53 -198 172 -76 92 94 144 131 186 131 17 0 78 -7 136 -17 126 -19 156
-15 165 27 5 24 -5 51 -56 146 -43 81 -62 128 -62 153 0 24 19 74 57 149 44
88 56 122 54 150 -3 32 -7 37 -31 40 -16 2 -81 -6 -145 -17 -161 -29 -170 -25
-298 100 -62 61 -108 99 -121 99 -28 0 -40 -33 -62 -177 -14 -88 -25 -130 -41
-153 -21 -30 -156 -107 -167 -96 -3 3 0 26 7 51 11 40 11 48 -2 62 -14 14 -26
13 -118 -2 -161 -27 -175 -23 -279 79 -93 91 -124 104 -141 64 -5 -13 -16 -70
-25 -128 -9 -62 -23 -115 -33 -130 -20 -28 -166 -109 -197 -110 -12 0 -41 -20
-65 -45 -24 -25 -50 -45 -56 -45 -15 0 -74 115 -74 145 0 12 25 72 55 134 58
117 70 176 39 188 -9 3 -74 -4 -144 -16 -120 -21 -129 -21 -166 -6 -21 9 -80
56 -130 105 -92 91 -112 102 -133 76z"/>
<path d="M10582 1108 c-6 -8 -14 -37 -18 -66 -6 -50 -8 -53 -58 -80 -66 -35
-66 -55 -1 -90 51 -28 49 -24 71 -129 7 -34 26 -28 68 18 l37 42 65 -6 c80 -6
85 2 49 73 l-26 52 26 53 c34 66 28 78 -33 69 -71 -11 -82 -8 -127 36 -33 33
-44 38 -53 28z"/>
<path d="M2195 520 c-54 -54 -71 -59 -165 -40 -71 14 -79 -3 -41 -78 38 -76
39 -104 1 -167 -49 -83 -38 -102 51 -85 83 16 92 13 158 -46 71 -65 79 -63 92
18 14 90 25 106 94 137 60 28 80 47 67 68 -4 6 -35 24 -69 41 -34 18 -64 36
-68 42 -4 6 -12 43 -18 83 -16 93 -32 98 -102 27z"/>
<path d="M10693 450 c-56 -54 -71 -58 -153 -39 -38 9 -46 8 -57 -7 -10 -14 -7
-27 17 -75 17 -32 30 -65 30 -74 0 -8 -14 -40 -31 -71 -41 -72 -31 -86 55 -74
72 11 97 2 143 -50 56 -62 66 -57 87 48 12 59 9 56 108 117 18 11 33 27 33 35
0 8 -27 29 -60 47 -63 33 -83 63 -84 126 -1 30 -17 67 -29 67 -4 0 -30 -23
-59 -50z"/>
</g>
</svg>
