<?xml version="1.0" standalone="no"?>
<!DOCTYPE svg PUBLIC "-//W3C//DTD SVG 20010904//EN"
 "http://www.w3.org/TR/2001/REC-SVG-20010904/DTD/svg10.dtd">
<svg version="1.0" xmlns="http://www.w3.org/2000/svg"
 width="1280.000000pt" height="1102.000000pt" viewBox="0 0 1280.000000 1102.000000"
 preserveAspectRatio="xMidYMid meet">
<metadata>
Created by potrace 1.15, written by Peter Selinger 2001-2017
</metadata>
<g transform="translate(0.000000,1102.000000) scale(0.100000,-0.100000)"
fill="#000000" stroke="none">
<path d="M6150 11013 l-25 -4 11 -207 c7 -114 18 -227 25 -252 18 -59 81 -122
144 -143 30 -11 81 -17 131 -17 139 0 232 50 275 145 17 37 49 325 49 435 l0
38 -92 4 c-51 2 -95 3 -97 1 -3 -2 -9 -94 -13 -204 -6 -144 -13 -210 -23 -230
-30 -56 -144 -64 -185 -12 -18 23 -20 40 -20 172 0 80 -3 176 -7 214 l-6 67
-71 -1 c-39 -1 -82 -4 -96 -6z"/>
<path d="M5867 10993 l-139 -16 7 -56 c11 -94 8 -91 78 -88 l62 2 11 -100 c23
-193 17 -235 -31 -235 -22 0 -55 28 -55 46 -1 33 -17 35 -101 8 -46 -14 -86
-28 -87 -29 -9 -8 56 -110 83 -130 94 -72 272 -49 347 45 42 53 46 100 28 345
l-15 220 -25 1 c-14 1 -87 -5 -163 -13z"/>
<path d="M6836 10988 c-3 -7 -16 -137 -31 -288 -14 -151 -26 -286 -28 -299 -2
-24 0 -25 156 -47 88 -13 193 -30 235 -39 41 -8 77 -14 78 -12 7 7 33 131 29
137 -3 4 -19 10 -37 13 -18 3 -84 15 -147 26 -62 11 -116 23 -119 25 -3 3 9
106 27 228 17 123 31 228 31 235 0 7 -29 14 -77 18 -43 4 -86 9 -96 11 -9 3
-19 -1 -21 -8z"/>
<path d="M7270 10924 c0 -3 19 -49 41 -102 23 -53 59 -143 80 -200 l39 -103
-30 -121 c-17 -66 -29 -122 -27 -124 5 -5 143 -44 155 -44 5 0 24 52 42 115
19 63 36 118 39 123 10 13 149 124 254 201 53 40 97 74 97 76 0 5 -185 65
-199 65 -5 0 -52 -36 -105 -80 -52 -44 -97 -77 -99 -72 -2 4 -21 57 -41 119
-25 74 -43 114 -54 117 -29 9 -162 36 -178 36 -8 0 -14 -2 -14 -6z"/>
<path d="M5047 10827 c-62 -18 -73 -26 -137 -97 -39 -43 -70 -85 -70 -93 0
-19 39 -127 46 -127 2 0 31 28 63 62 l59 63 46 -147 c25 -80 46 -148 46 -151
0 -3 -32 -16 -70 -28 -39 -13 -68 -28 -66 -34 3 -5 13 -34 22 -62 10 -29 21
-53 26 -53 4 0 81 22 170 49 90 28 184 56 209 63 l47 13 -14 55 c-8 30 -16 60
-19 67 -3 9 -21 7 -69 -7 l-65 -18 -10 31 c-6 18 -29 100 -51 182 -65 238 -71
255 -83 254 -7 -1 -43 -10 -80 -22z"/>
<path d="M4100 10492 c0 -4 -13 -23 -28 -41 -27 -32 -30 -34 -60 -23 l-32 11
0 -69 c0 -38 -4 -71 -10 -75 -10 -6 -16 2 -81 115 l-43 75 -14 -37 c-8 -21
-21 -38 -28 -38 -7 0 -39 11 -70 25 -31 14 -60 25 -64 25 -4 0 1 -34 12 -76
10 -42 18 -77 16 -79 -2 -1 -21 -6 -42 -11 l-40 -9 87 -69 c48 -38 87 -73 87
-78 0 -6 -30 -7 -73 -3 l-73 7 4 -34 c3 -32 1 -36 -42 -58 l-45 -25 42 -26
c59 -37 71 -53 57 -78 -11 -21 -9 -21 115 -21 l125 0 19 -30 18 -30 62 70 63
70 55 -67 c74 -91 70 -88 88 -73 14 12 9 21 -49 79 -36 37 -66 71 -66 76 0 6
34 32 75 59 l74 50 -25 22 c-28 27 -29 48 -9 164 19 107 19 100 -10 100 -21 0
-30 10 -52 55 -24 49 -43 70 -43 47z"/>
<path d="M8529 10448 c-30 -60 -49 -79 -71 -73 -15 5 -17 2 -13 -22 3 -15 12
-68 20 -118 l15 -90 -30 -26 -31 -26 81 -53 80 -52 -67 -75 c-52 -58 -64 -76
-54 -86 13 -13 33 6 109 98 l32 40 63 -68 c63 -68 77 -78 77 -54 0 8 8 21 18
30 15 14 41 17 136 17 115 0 117 0 106 21 -14 26 -4 39 58 75 l45 27 -47 24
c-46 24 -48 25 -41 60 l6 35 -78 -7 -78 -7 22 23 c12 13 51 47 87 74 36 28 65
53 66 56 0 4 -18 9 -41 13 -32 5 -39 10 -35 24 15 50 35 136 32 139 -2 2 -34
-10 -72 -26 -38 -16 -72 -27 -76 -25 -3 2 -9 18 -13 34 -4 16 -10 32 -14 35
-5 2 -32 -38 -61 -90 -28 -52 -56 -95 -60 -95 -5 0 -12 32 -16 70 l-7 70 -33
-6 c-30 -5 -35 -2 -63 36 l-30 41 -22 -43z"/>
<path d="M3010 9581 c-399 -181 -662 -361 -824 -563 -82 -102 -166 -270 -198
-393 -18 -74 -22 -117 -23 -247 0 -86 3 -160 8 -164 4 -4 51 -2 104 5 503 66
806 385 968 1016 27 105 85 372 85 391 0 8 -17 2 -120 -45z"/>
<path d="M9670 9625 c0 -19 66 -322 90 -412 165 -617 466 -929 963 -994 53 -7
100 -9 104 -5 5 4 8 78 8 164 -1 130 -5 173 -23 247 -32 123 -116 291 -198
393 -163 203 -452 399 -842 571 -95 42 -102 44 -102 36z"/>
<path d="M6240 9272 c-121 -239 -160 -308 -175 -310 -12 -2 -87 34 -170 82
-83 46 -151 83 -152 82 -2 -1 36 -209 82 -462 47 -252 84 -470 83 -483 -4 -32
-30 -48 -61 -36 -14 6 -111 109 -217 230 -106 121 -196 221 -199 223 -4 1 -29
-43 -56 -98 -27 -55 -62 -112 -77 -126 -24 -24 -32 -26 -90 -22 -35 2 -134 24
-221 48 -86 23 -160 40 -164 37 -3 -4 20 -77 51 -164 69 -194 86 -261 86 -333
0 -85 -13 -101 -108 -134 -45 -15 -82 -31 -82 -35 0 -3 172 -157 381 -341 210
-184 389 -346 397 -359 11 -16 16 -48 17 -95 0 -67 -3 -77 -42 -141 -23 -38
-41 -70 -39 -72 3 -3 789 94 825 103 l24 5 -7 -233 c-3 -128 -9 -322 -13 -430
l-6 -198 91 0 91 0 -4 48 c-10 104 -37 794 -31 799 3 4 195 -16 426 -43 248
-29 419 -45 416 -39 -54 118 -61 143 -60 215 1 41 6 87 12 102 7 17 161 152
397 348 212 177 383 325 380 330 -3 5 -29 16 -58 25 -127 42 -133 97 -41 435
41 154 52 210 39 210 -3 0 -61 -16 -128 -34 -157 -45 -230 -58 -292 -54 l-50
3 -57 109 c-31 60 -61 113 -66 118 -5 5 -86 -76 -207 -209 -108 -120 -205
-224 -216 -231 -23 -17 -53 -8 -66 20 -7 16 15 143 88 500 53 263 95 478 94
478 -2 0 -71 -38 -154 -85 -84 -47 -160 -85 -171 -85 -10 0 -25 6 -32 14 -7 7
-78 144 -158 305 -80 160 -147 291 -150 291 -3 0 -75 -138 -160 -308z"/>
<path d="M1383 9153 c-152 -296 -228 -509 -263 -735 -18 -113 -8 -342 19 -443
42 -154 156 -350 265 -455 l36 -34 66 64 c137 136 240 308 285 480 30 113 32
340 5 475 -37 187 -134 444 -263 698 -30 59 -58 107 -62 107 -4 0 -44 -71 -88
-157z"/>
<path d="M11236 9138 c-149 -308 -220 -516 -246 -732 -41 -323 65 -620 304
-856 l66 -64 36 34 c52 51 137 165 178 241 80 146 116 297 116 482 0 194 -40
373 -135 612 -52 133 -213 455 -227 455 -5 0 -46 -78 -92 -172z"/>
<path d="M2735 8251 c-395 -133 -642 -268 -825 -451 -191 -190 -286 -404 -297
-669 l-6 -124 109 6 c152 10 224 23 337 61 140 48 243 113 357 226 191 189
327 447 460 874 22 71 39 130 38 131 -2 2 -79 -23 -173 -54z"/>
<path d="M9897 8281 c3 -14 28 -93 55 -176 130 -396 252 -620 438 -805 114
-113 217 -178 357 -226 113 -38 185 -51 337 -61 l109 -6 -6 124 c-17 401 -234
704 -668 933 -151 79 -306 141 -556 221 l-73 23 7 -27z"/>
<path d="M680 7759 c-197 -697 -143 -1153 175 -1475 72 -73 188 -164 209 -164
34 1 172 265 207 396 26 101 35 275 20 385 -27 185 -131 423 -283 646 -84 123
-268 362 -279 363 -3 0 -25 -68 -49 -151z"/>
<path d="M11970 7789 c-264 -336 -409 -607 -456 -856 -22 -117 -15 -316 16
-423 38 -134 174 -390 207 -390 19 0 135 91 208 165 281 281 356 679 235 1239
-25 117 -101 386 -109 386 -3 0 -49 -55 -101 -121z"/>
<path d="M2048 6927 c-674 -454 -915 -892 -782 -1421 l17 -67 41 6 c62 11 222
73 301 117 319 180 490 492 549 1001 19 158 32 457 20 457 -5 0 -71 -42 -146
-93z"/>
<path d="M10604 6853 c13 -290 40 -481 97 -668 96 -312 264 -520 525 -649 81
-40 244 -96 279 -96 17 0 43 108 57 236 43 379 -144 736 -562 1071 -100 81
-379 273 -395 273 -4 0 -5 -75 -1 -167z"/>
<path d="M174 6368 c3 -13 8 -70 11 -128 3 -58 15 -168 26 -245 79 -560 276
-898 624 -1073 78 -40 197 -83 261 -95 l32 -6 23 107 c32 145 32 359 1 473
-92 342 -339 606 -857 919 -64 39 -118 70 -121 70 -2 0 -2 -10 0 -22z"/>
<path d="M12490 6311 c-261 -160 -408 -271 -547 -414 -155 -160 -245 -310
-295 -496 -31 -115 -31 -329 1 -473 27 -124 12 -117 156 -71 454 144 706 521
789 1178 19 144 34 345 26 349 -3 2 -61 -31 -130 -73z"/>
<path d="M2011 5690 c-481 -520 -635 -910 -527 -1333 24 -95 107 -287 123
-287 19 0 177 100 252 158 202 159 322 379 362 660 15 108 6 453 -15 587 -23
145 -57 318 -66 333 -5 10 -44 -26 -129 -118z"/>
<path d="M10657 5805 c-11 -36 -38 -177 -58 -305 -26 -158 -37 -492 -20 -612
43 -304 189 -548 422 -705 79 -53 181 -113 193 -113 16 0 98 194 122 287 110
430 -53 831 -559 1368 -80 84 -95 97 -100 80z"/>
<path d="M3443 5580 c-95 -25 -146 -52 -211 -113 -92 -88 -134 -181 -151 -340
-32 -281 73 -512 274 -606 88 -42 157 -55 280 -55 173 0 288 44 389 149 44 46
106 150 106 177 0 9 -37 28 -97 50 -54 20 -106 39 -115 43 -12 5 -21 -4 -36
-38 -48 -109 -133 -162 -258 -162 -180 1 -277 123 -277 350 -1 224 81 333 256
343 122 7 218 -38 259 -123 12 -25 27 -45 34 -45 22 0 209 52 218 60 14 14
-49 136 -98 188 -57 61 -144 108 -233 127 -96 21 -252 18 -340 -5z"/>
<path d="M4557 5578 c-2 -7 -91 -251 -197 -543 -106 -291 -195 -536 -197 -542
-4 -10 26 -13 130 -13 l135 0 40 113 c22 61 43 122 46 135 7 22 8 22 194 20
l187 -3 46 -130 47 -130 135 -3 135 -3 -98 269 c-53 147 -144 397 -201 555
l-104 287 -146 0 c-108 0 -148 -3 -152 -12z m216 -445 l56 -163 -120 0 c-67 0
-119 4 -117 9 2 5 28 81 58 169 30 89 58 158 61 154 3 -4 31 -80 62 -169z"/>
<path d="M5350 5035 l0 -555 120 0 120 0 2 360 3 360 204 -360 204 -360 149 0
148 0 0 555 0 555 -120 0 -120 0 -2 -366 -3 -366 -209 366 -209 366 -143 0
-144 0 0 -555z"/>
<path d="M6616 5098 c-99 -271 -190 -521 -203 -556 l-23 -63 137 3 137 3 46
130 45 130 186 3 186 2 48 -135 47 -135 135 0 c125 0 135 1 128 18 -4 9 -92
251 -195 537 -104 286 -192 528 -195 538 -6 15 -23 17 -154 17 l-147 0 -178
-492z m438 -105 c7 -23 7 -23 -113 -23 l-120 0 55 158 c30 86 57 164 60 172 5
12 78 -180 118 -307z"/>
<path d="M7580 5035 l0 -555 273 0 c294 0 336 5 443 56 121 57 225 191 259
335 20 85 20 264 -1 343 -36 141 -125 249 -258 312 -110 52 -192 63 -473 64
l-243 0 0 -555z m522 319 c72 -20 148 -85 172 -144 40 -101 38 -264 -5 -356
-29 -60 -80 -111 -136 -136 -35 -15 -70 -20 -161 -21 l-117 -2 -3 338 -2 337
97 0 c59 0 119 -6 155 -16z"/>
<path d="M9021 5568 c-31 -83 -385 -1056 -389 -1070 -4 -17 7 -18 130 -18
l134 0 46 133 45 132 188 0 188 0 46 -132 46 -133 133 0 c72 0 132 3 132 8 0
4 -89 252 -198 552 l-198 545 -147 3 c-145 2 -147 2 -156 -20z m215 -424 c30
-86 54 -161 54 -165 0 -5 -52 -9 -115 -9 -63 0 -115 3 -115 6 0 15 113 334
117 330 3 -3 29 -75 59 -162z"/>
<path d="M41 4838 c257 -512 507 -804 804 -939 152 -69 339 -98 512 -79 59 6
111 14 114 18 10 11 -18 157 -47 252 -52 168 -132 298 -259 418 -214 204 -521
323 -1022 397 -158 23 -150 29 -102 -67z"/>
<path d="M12621 4900 c-490 -79 -778 -194 -986 -392 -126 -119 -206 -247 -259
-417 -30 -93 -57 -249 -46 -256 4 -3 54 -10 111 -16 169 -19 363 12 514 80
297 135 547 427 804 939 l41 82 -32 -1 c-18 -1 -84 -9 -147 -19z"/>
<path d="M2357 4518 c-494 -611 -628 -1122 -410 -1563 47 -94 105 -185 120
-185 20 0 165 114 236 186 147 148 236 329 267 543 27 181 1 457 -66 711 -31
118 -103 350 -109 350 -2 0 -19 -19 -38 -42z"/>
<path d="M10370 4464 c-99 -310 -140 -510 -147 -725 -6 -176 5 -280 44 -404
46 -146 120 -268 230 -379 71 -72 216 -186 236 -186 26 0 138 205 175 320 35
110 45 180 45 305 -2 247 -84 488 -268 784 -59 96 -255 363 -274 375 -6 4 -22
-32 -41 -90z"/>
<path d="M4890 3506 l0 -556 258 0 c188 0 276 4 327 15 254 54 405 257 405
545 0 279 -136 462 -391 526 -47 11 -135 17 -331 21 l-268 6 0 -557z m541 310
c65 -24 114 -68 145 -133 23 -46 29 -74 32 -149 7 -161 -47 -281 -152 -337
-35 -18 -61 -22 -173 -25 l-133 -4 0 337 0 338 118 -6 c69 -3 136 -12 163 -21z"/>
<path d="M6336 4051 c-3 -5 -87 -231 -186 -502 -100 -272 -190 -518 -200 -547
l-20 -53 137 3 136 3 46 133 46 132 189 -2 189 -3 45 -132 46 -133 133 0 c73
0 133 2 133 4 0 2 -86 240 -191 528 -105 287 -196 535 -201 551 l-10 27 -143
0 c-79 0 -146 -4 -149 -9z m210 -450 c30 -85 54 -158 54 -162 0 -5 -54 -9
-119 -9 l-120 0 55 163 c68 203 65 196 72 177 3 -8 29 -84 58 -169z"/>
<path d="M6893 4047 c3 -7 91 -155 196 -329 l191 -317 0 -225 0 -226 135 0
135 0 0 225 0 225 191 317 c105 175 194 323 196 330 4 10 -26 13 -135 13
l-140 0 -123 -214 c-68 -118 -124 -214 -126 -213 -1 2 -56 97 -122 212 l-119
210 -142 3 c-115 2 -141 0 -137 -11z"/>
<path d="M2866 3630 c-269 -548 -327 -942 -190 -1290 46 -117 138 -253 237
-348 l44 -43 63 68 c325 353 379 740 174 1260 -43 110 -207 446 -238 489 -13
17 -21 7 -90 -136z"/>
<path d="M9817 3718 c-432 -779 -441 -1265 -30 -1709 l56 -60 44 43 c94 91
181 216 229 330 147 345 91 752 -180 1306 -41 83 -77 152 -80 152 -2 0 -20
-28 -39 -62z"/>
<path d="M318 3624 c56 -82 131 -187 168 -234 94 -119 294 -315 387 -378 276
-189 551 -242 869 -165 52 12 68 20 68 34 0 9 -13 58 -29 107 -171 522 -580
755 -1370 779 l-194 6 101 -149z"/>
<path d="M12250 3763 c-620 -45 -972 -230 -1164 -611 -38 -75 -96 -240 -96
-271 0 -35 240 -77 390 -68 401 24 742 277 1108 820 l93 137 -143 -2 c-79 -1
-163 -3 -188 -5z"/>
<path d="M3556 3038 c-8 -22 -35 -236 -46 -353 -37 -408 27 -758 182 -991 89
-132 238 -263 390 -340 l68 -34 30 60 c137 271 156 560 55 823 -83 213 -200
380 -445 630 -149 154 -229 223 -234 205z"/>
<path d="M9042 2864 c-302 -304 -444 -517 -514 -771 -29 -107 -31 -356 -4
-453 29 -106 57 -181 93 -253 l33 -67 68 34 c388 197 582 564 582 1103 0 175
-41 565 -61 587 -5 5 -90 -73 -197 -180z"/>
<path d="M1250 2665 c-122 -14 -221 -29 -309 -46 l-54 -11 114 -115 c548 -554
991 -717 1475 -540 50 18 144 66 144 72 0 3 -18 40 -39 83 -159 314 -425 504
-781 558 -116 17 -390 17 -550 -1z"/>
<path d="M10994 2665 c-354 -55 -622 -250 -783 -572 -17 -34 -31 -65 -31 -68
0 -6 94 -54 144 -72 159 -58 316 -80 460 -64 324 36 639 224 1015 604 l114
115 -54 11 c-285 57 -666 77 -865 46z"/>
<path d="M4425 2119 c19 -59 112 -266 174 -384 225 -435 475 -668 816 -761 59
-16 358 -32 388 -21 10 4 11 23 4 97 -33 352 -207 623 -518 806 -157 92 -365
168 -639 233 -249 59 -233 57 -225 30z"/>
<path d="M8335 2133 c-353 -80 -554 -143 -720 -223 -319 -155 -515 -379 -590
-676 -32 -126 -47 -274 -28 -281 31 -12 330 5 393 22 333 90 588 329 811 760
58 112 179 382 179 399 0 7 -14 6 -45 -1z"/>
<path d="M2485 1789 c-165 -29 -439 -110 -629 -186 l-49 -20 96 -67 c334 -233
622 -369 870 -412 66 -12 130 -15 227 -11 156 5 247 26 374 85 80 38 228 131
241 152 9 15 -64 111 -150 196 -145 144 -309 231 -505 268 -115 22 -335 20
-475 -5z"/>
<path d="M9820 1791 c-183 -40 -320 -112 -461 -240 -77 -70 -184 -205 -174
-221 13 -21 160 -114 241 -152 126 -58 218 -80 371 -85 95 -4 158 -1 228 11
250 43 536 178 871 412 l97 67 -59 24 c-119 48 -427 144 -547 169 -169 36
-440 43 -567 15z"/>
<path d="M3961 1179 c-187 -22 -399 -104 -632 -245 -136 -81 -391 -266 -382
-275 14 -14 276 -98 401 -129 234 -58 284 -64 497 -65 174 0 211 3 288 23 231
58 418 179 568 369 59 73 65 59 -56 142 -145 100 -307 163 -467 180 -107 12
-111 12 -217 0z"/>
<path d="M8610 1179 c-147 -18 -315 -83 -451 -177 -126 -87 -119 -71 -60 -145
150 -190 337 -311 568 -369 77 -20 114 -23 288 -23 214 1 264 7 500 66 129 33
385 115 398 128 9 9 -245 193 -383 277 -317 192 -607 274 -860 243z"/>
<path d="M6351 949 c-183 -34 -256 -273 -123 -405 49 -49 98 -69 172 -69 137
0 239 100 240 235 0 156 -134 267 -289 239z"/>
<path d="M5180 735 c-260 -52 -531 -209 -883 -513 -54 -47 -94 -88 -90 -93 10
-9 289 -74 408 -94 540 -91 931 1 1196 283 62 65 169 208 169 225 0 2 -26 20
-57 39 -127 78 -244 126 -375 153 -85 18 -278 18 -368 0z"/>
<path d="M7245 735 c-124 -27 -325 -114 -404 -174 l-24 -18 49 -74 c264 -397
696 -539 1319 -434 118 20 398 85 408 94 15 15 -291 267 -453 374 -188 124
-363 201 -528 233 -91 17 -286 17 -367 -1z"/>
</g>
</svg>
