<?xml version="1.0" standalone="no"?>
<!DOCTYPE svg PUBLIC "-//W3C//DTD SVG 20010904//EN"
 "http://www.w3.org/TR/2001/REC-SVG-20010904/DTD/svg10.dtd">
<svg version="1.0" xmlns="http://www.w3.org/2000/svg"
 width="1280.000000pt" height="1280.000000pt" viewBox="0 0 1280.000000 1280.000000"
 preserveAspectRatio="xMidYMid meet">
<metadata>
Created by potrace 1.15, written by Peter Selinger 2001-2017
</metadata>
<g transform="translate(0.000000,1280.000000) scale(0.100000,-0.100000)"
fill="#000000" stroke="none">
<path d="M10605 10677 c-124 -32 -213 -102 -277 -217 -81 -147 -90 -278 -32
-511 43 -175 45 -211 13 -245 -43 -46 -64 -33 -171 111 -141 188 -227 262
-342 292 -132 35 -281 -17 -417 -145 -130 -122 -230 -294 -281 -479 -29 -108
-31 -323 -4 -403 33 -98 80 -173 151 -246 80 -81 129 -109 224 -130 96 -20
158 -17 326 16 180 36 202 37 246 7 29 -19 34 -29 37 -68 3 -42 -2 -52 -74
-155 -137 -193 -182 -262 -216 -331 -29 -60 -33 -78 -33 -148 0 -73 3 -85 34
-140 50 -87 180 -213 263 -253 93 -45 169 -70 267 -87 414 -73 831 147 890
470 20 108 -22 252 -125 425 -81 137 -104 186 -104 218 0 36 37 72 73 72 30 0
45 -15 196 -197 104 -125 210 -217 304 -262 98 -48 219 -37 356 30 192 95 319
295 351 555 20 164 -24 381 -106 515 -74 123 -231 233 -371 259 -111 22 -256
-26 -448 -149 -43 -28 -85 -51 -93 -51 -7 0 -24 11 -37 25 -19 18 -25 35 -25
69 0 50 13 69 178 259 102 118 164 208 183 264 6 19 9 67 7 107 -10 207 -235
418 -539 507 -93 27 -325 36 -404 16z m372 -444 c-4 -49 -25 -176 -47 -283
-35 -172 -51 -310 -35 -310 4 0 20 7 37 16 44 23 114 91 235 226 73 83 108
115 119 111 9 -3 20 0 25 8 6 11 9 11 9 1 0 -24 -50 -112 -151 -264 -187 -282
-205 -351 -110 -415 44 -30 88 -29 248 2 170 33 296 45 361 35 59 -10 128 -40
126 -55 -2 -22 -69 -47 -205 -76 -143 -30 -229 -59 -229 -77 0 -13 106 -68
155 -81 22 -5 84 -15 138 -20 108 -11 225 -53 197 -71 -25 -16 -117 -11 -321
15 -204 26 -279 31 -279 16 0 -20 160 -159 220 -190 91 -48 173 -106 200 -143
l23 -31 -42 7 c-23 3 -114 36 -202 72 -89 36 -195 74 -236 85 -274 70 -383
-69 -343 -436 6 -60 14 -148 16 -195 l5 -85 -26 30 c-38 43 -71 120 -106 247
-32 120 -41 142 -72 176 -28 31 -35 28 -57 -22 -25 -54 -43 -140 -70 -331 -35
-242 -85 -445 -110 -445 -34 0 -39 246 -10 495 25 217 25 325 1 325 -22 0
-102 -87 -197 -213 -108 -142 -219 -267 -237 -267 -24 0 5 99 73 242 146 310
156 401 58 495 -77 74 -215 115 -454 132 -241 18 -264 25 -206 55 38 20 123
34 282 46 164 13 207 22 234 50 l21 21 -25 19 c-14 11 -74 41 -135 67 -208 90
-358 169 -395 210 -19 21 -29 33 -22 27 10 -8 23 -9 46 -2 28 9 59 2 217 -47
183 -56 308 -77 337 -57 25 17 -11 63 -168 211 -83 79 -161 162 -174 185 -23
40 -46 102 -29 80 10 -13 55 -26 47 -13 -12 20 11 4 148 -103 232 -182 359
-258 429 -258 54 0 138 59 169 120 31 61 60 229 70 413 5 95 10 173 10 174 0
0 10 -1 21 -4 18 -5 20 -3 14 16 -3 11 -4 21 -1 21 12 0 38 -116 62 -271 24
-168 42 -240 61 -246 15 -5 58 83 83 167 47 161 141 437 155 456 10 13 13 14
10 3 -4 -10 0 -16 10 -16 8 0 15 9 15 19 0 10 3 18 6 18 4 0 4 -39 1 -87z
m-420 -55 c-3 -8 -6 -5 -6 6 -1 11 2 17 5 13 3 -3 4 -12 1 -19z m767 -146 c3
-5 -1 -9 -9 -9 -8 0 -12 4 -9 9 3 4 7 8 9 8 2 0 6 -4 9 -8z"/>
<path d="M10424 9346 c-91 -29 -161 -112 -190 -226 -21 -82 -9 -142 42 -217
114 -166 346 -204 466 -75 88 94 115 249 63 353 -33 64 -88 119 -150 148 -61
29 -171 37 -231 17z m113 -282 c-3 -3 -12 -4 -19 -1 -8 3 -5 6 6 6 11 1 17 -2
13 -5z m40 0 c-3 -3 -12 -4 -19 -1 -8 3 -5 6 6 6 11 1 17 -2 13 -5z m13 -38
c0 -28 -18 -46 -45 -46 -27 0 -45 18 -45 46 0 18 6 21 45 21 39 0 45 -3 45
-21z"/>
<path d="M1480 10566 c-134 -30 -277 -93 -384 -170 -70 -50 -164 -143 -202
-200 -88 -129 -97 -359 -20 -491 41 -69 165 -188 307 -293 75 -55 139 -108
143 -117 10 -28 7 -64 -10 -96 -14 -28 -19 -31 -57 -26 -23 2 -96 23 -162 47
-104 38 -131 43 -205 44 -80 1 -91 -2 -165 -38 -149 -74 -250 -205 -276 -360
-14 -82 -7 -215 16 -301 24 -93 96 -232 163 -317 139 -175 302 -257 489 -246
64 4 90 10 138 36 95 51 169 116 255 225 123 156 124 157 158 157 16 0 35 -6
41 -14 6 -7 15 -87 21 -187 5 -96 14 -192 20 -214 35 -121 133 -239 240 -289
59 -27 76 -31 185 -34 103 -3 134 0 216 21 103 27 234 87 310 143 82 60 165
157 189 221 18 49 21 73 18 153 -7 163 -62 245 -266 397 -158 117 -172 130
-172 168 0 46 25 76 58 69 21 -4 24 -3 12 5 -22 15 44 14 230 -5 85 -8 175
-12 200 -9 158 22 298 176 320 348 14 116 -14 281 -70 403 -93 206 -283 397
-454 456 -103 35 -237 18 -329 -43 -57 -37 -92 -87 -172 -238 -33 -63 -68
-119 -78 -125 -13 -8 -26 -6 -54 9 -58 31 -61 58 -27 237 21 114 29 184 29
273 0 111 -2 124 -28 177 -55 113 -152 192 -271 224 -63 17 -279 17 -356 0z
m300 -476 c5 0 10 5 12 12 2 6 30 -66 62 -160 67 -198 110 -293 157 -347 40
-45 99 -74 150 -75 54 0 156 56 310 172 152 115 186 138 176 121 -5 -8 0 -11
14 -10 12 1 27 13 35 29 8 15 17 28 20 28 2 0 -2 -13 -10 -28 -23 -44 -93
-118 -224 -236 -114 -102 -182 -179 -169 -192 12 -12 128 20 272 76 184 71
241 85 288 72 25 -7 39 -6 48 2 8 6 5 0 -6 -13 -28 -32 -86 -72 -175 -116
-179 -90 -280 -159 -280 -192 0 -29 81 -38 325 -36 163 2 234 -1 220 -8 -16
-7 -13 -8 15 -4 25 4 31 2 20 -5 -31 -21 -117 -40 -273 -61 -171 -22 -310 -57
-365 -91 -69 -43 -96 -163 -54 -244 33 -64 106 -158 204 -261 l93 -97 -30 -8
c-45 -13 -93 -1 -165 41 -65 38 -121 61 -148 61 -31 0 25 -131 110 -256 48
-71 98 -174 98 -205 0 -6 -8 -5 -22 2 -46 25 -124 109 -219 236 -55 72 -103
134 -108 137 -5 4 -12 -11 -16 -31 -5 -35 1 -112 25 -288 5 -38 9 -88 10 -110
0 -36 -1 -38 -16 -24 -8 9 -51 109 -94 221 -43 113 -86 218 -95 232 l-18 27
-18 -28 c-22 -33 -39 -106 -40 -171 0 -52 -18 -114 -35 -119 -21 -7 -36 53
-45 182 -12 156 -22 199 -55 232 -23 22 -32 25 -83 21 -78 -5 -134 -42 -287
-189 -102 -97 -195 -169 -218 -169 -19 0 45 119 125 233 51 72 101 144 111
159 10 15 26 44 34 64 l16 37 -54 -6 c-29 -3 -154 -39 -278 -80 -124 -41 -240
-78 -258 -81 -31 -5 -32 -5 -21 17 21 38 115 123 181 163 35 21 114 74 177
119 l114 80 -139 9 c-173 12 -278 12 -324 3 -34 -7 -34 -7 -12 8 12 9 27 13
34 9 6 -4 8 -3 4 4 -12 19 104 56 339 107 155 34 214 62 244 116 30 53 31 121
2 177 -31 62 -99 142 -241 287 -70 72 -137 144 -149 162 l-22 32 27 -14 c15
-8 31 -12 36 -9 10 7 66 -32 208 -145 104 -83 265 -179 278 -166 8 8 -44 126
-131 295 -43 85 -73 148 -65 140 7 -8 22 -17 32 -18 18 -3 18 -2 7 15 -47 65
88 -96 173 -207 97 -126 140 -169 154 -156 14 15 13 226 -2 318 -14 83 -22
287 -9 221 2 -13 8 -23 13 -23z"/>
<path d="M1891 9318 c-88 -15 -195 -101 -234 -187 -30 -65 -30 -178 1 -242 80
-164 247 -231 398 -160 150 71 209 188 170 342 -42 165 -188 273 -335 247z
m-26 -280 c-4 -9 6 -13 30 -13 27 0 34 3 30 15 -5 11 -3 12 5 4 8 -8 8 -22 3
-45 -15 -58 -83 -49 -83 11 0 14 3 30 7 33 10 11 13 8 8 -5z"/>
<path d="M4845 10473 c-238 -50 -453 -274 -519 -539 -27 -108 -37 -246 -42
-614 -5 -373 -14 -470 -51 -562 l-16 -41 -21 29 c-74 105 -234 237 -326 269
-60 21 -146 19 -199 -6 -76 -34 -76 -32 8 -117 177 -179 276 -471 306 -907 4
-67 17 -125 50 -227 64 -195 145 -619 145 -755 0 -20 2 -34 4 -32 9 9 116 603
145 804 95 661 117 1056 101 1755 -4 171 -4 177 24 260 55 164 125 279 232
380 80 75 183 135 217 125 15 -4 18 -3 9 3 -17 12 16 22 73 22 l40 0 -60 -28
c-75 -36 -171 -115 -231 -190 -61 -76 -149 -258 -172 -357 -32 -128 -34 -174
-15 -342 13 -120 17 -246 17 -523 0 -339 -2 -380 -27 -580 -39 -311 -69 -496
-152 -940 -108 -583 -133 -722 -149 -855 -21 -160 -36 -384 -36 -523 l0 -112
128 128 c213 215 361 299 864 493 98 37 224 92 280 121 57 29 104 50 105 48 1
-3 9 4 17 15 9 11 16 15 16 9 0 -14 -57 -66 -108 -98 -20 -12 -183 -101 -362
-196 -179 -95 -361 -196 -405 -225 -267 -173 -482 -431 -571 -686 -31 -87 -64
-232 -63 -274 l0 -30 11 25 c159 363 384 644 600 749 35 17 146 53 248 80 313
84 439 135 609 249 281 187 421 466 333 664 -23 52 -85 124 -130 150 l-29 18
-18 -48 c-28 -74 -81 -147 -162 -222 -96 -88 -175 -129 -348 -180 -342 -101
-438 -146 -587 -271 -51 -44 -115 -90 -142 -104 -48 -24 -106 -33 -106 -17 0
4 25 57 55 117 57 115 110 270 194 570 78 279 126 419 191 553 111 231 197
327 366 412 l84 42 -22 40 c-64 113 -157 178 -258 178 -65 0 -154 -21 -227
-55 -56 -25 -58 -25 -87 32 -69 136 82 357 330 481 75 38 233 102 251 102 17
0 17 4 -8 53 -27 54 -74 104 -121 128 -44 22 -211 43 -279 34 l-46 -6 15 68
c11 52 13 112 8 257 -6 225 6 422 34 530 26 104 97 250 150 309 53 59 137 118
242 167 l80 37 -48 38 c-63 47 -174 100 -242 114 -52 11 -157 13 -197 4z"/>
<path d="M4930 10300 c0 -13 11 -13 30 0 12 8 11 10 -7 10 -13 0 -23 -4 -23
-10z"/>
<path d="M7661 9743 c64 -129 114 -287 130 -403 18 -138 14 -392 -10 -655 -28
-303 -27 -352 4 -541 l7 -42 -63 32 c-54 27 -74 31 -139 31 -57 0 -85 -6 -115
-22 -52 -27 -117 -97 -149 -160 l-25 -50 94 -48 c204 -105 277 -213 310 -459
8 -61 19 -125 24 -142 l9 -31 -71 24 c-135 47 -241 15 -319 -97 -21 -29 -38
-56 -38 -59 0 -3 33 -18 73 -33 119 -45 195 -96 303 -203 109 -109 192 -225
294 -415 118 -217 205 -318 331 -385 66 -35 83 -39 159 -43 52 -2 105 2 136
11 l51 13 0 -205 c0 -229 7 -300 84 -851 59 -421 70 -549 58 -682 -21 -248
-62 -364 -217 -614 -129 -207 -183 -362 -217 -616 -8 -60 -24 -62 -75 -10 -59
58 -60 91 -11 201 91 202 117 347 108 601 -9 223 -22 325 -99 743 -61 331 -63
347 -62 502 0 114 5 176 16 214 l16 54 -57 -6 c-132 -12 -226 -110 -266 -279
-17 -73 -19 -235 -5 -327 6 -35 9 -65 7 -67 -11 -12 -60 44 -87 99 -56 114
-74 231 -74 487 0 127 5 267 12 320 19 139 58 326 86 408 l24 73 -21 -7 c-339
-102 -588 -409 -694 -854 -34 -146 -43 -421 -18 -570 9 -57 19 -109 22 -117 3
-9 -16 2 -43 22 -27 21 -69 47 -93 58 -56 25 -147 33 -194 18 -49 -16 -101
-80 -125 -151 l-20 -57 92 -27 c169 -51 238 -101 295 -214 43 -87 47 -102 21
-102 -48 0 -190 -43 -268 -82 -144 -71 -231 -173 -276 -327 -28 -95 -29 -95
95 -39 299 133 456 117 646 -65 45 -44 83 -84 83 -88 0 -5 -20 -9 -44 -9 -130
0 -190 -60 -256 -259 -40 -120 -40 -128 13 -141 166 -44 267 -78 362 -124 174
-84 257 -156 301 -261 23 -56 15 -174 -16 -235 -51 -99 -205 -217 -375 -286
-217 -89 -491 -124 -639 -83 l-31 9 25 -20 c46 -35 214 -118 284 -139 81 -25
251 -29 331 -7 81 21 182 68 313 144 68 39 163 85 210 102 83 31 92 32 192 27
58 -4 148 -11 200 -17 134 -15 220 -1 340 54 169 79 259 98 525 116 83 5 161
10 174 10 23 0 24 2 18 56 -8 73 -38 113 -141 180 -80 53 -131 97 -147 126 -7
13 -5 15 13 10 12 -3 19 -1 15 4 -3 6 28 15 73 22 218 31 405 132 730 391 262
210 365 263 540 279 l85 7 -3 50 c-10 139 -111 245 -250 262 l-52 6 37 25
c123 82 194 166 375 442 113 173 155 226 212 266 l28 21 -83 18 c-119 25 -191
17 -296 -35 -141 -70 -240 -182 -385 -437 l-83 -145 -7 144 c-9 203 -40 302
-112 366 -43 38 -90 48 -153 33 -77 -19 -77 -19 -36 -99 33 -64 37 -83 41
-163 7 -142 -26 -276 -104 -429 -96 -188 -231 -303 -294 -252 l-24 19 28 33
c83 99 113 243 68 327 -17 30 -87 88 -135 111 l-41 19 -75 -151 c-121 -242
-242 -409 -361 -495 -87 -63 -76 -8 69 362 106 268 170 454 192 552 16 73 16
274 0 405 -7 52 -36 219 -66 370 -84 425 -105 594 -105 860 0 193 19 360 70
611 123 604 392 1304 653 1697 63 94 94 149 90 160 -14 40 -71 82 -112 82 -59
0 -239 -232 -385 -497 -301 -545 -478 -1299 -411 -1745 8 -53 17 -109 21 -124
6 -24 5 -26 -17 -19 -60 18 -176 84 -247 141 -278 225 -461 704 -511 1339 -10
122 -17 317 -41 1190 -6 206 -17 401 -25 455 -8 52 -12 103 -9 113 3 9 1 17
-5 17 -6 0 -11 5 -11 11 0 25 26 -10 61 -85 77 -166 104 -400 119 -1036 11
-494 22 -704 46 -887 49 -376 156 -668 304 -825 61 -66 173 -148 185 -136 3 3
0 40 -7 84 -18 117 -15 466 5 593 24 151 61 287 118 435 72 187 70 170 18 164
-131 -15 -263 -152 -301 -315 -7 -29 -15 -53 -19 -53 -14 0 -32 60 -37 121 -9
127 56 397 149 620 17 40 44 112 60 158 32 95 32 96 -37 107 -119 18 -266
-138 -317 -336 l-14 -55 -13 40 c-9 27 -15 170 -20 450 -5 226 -13 448 -19
495 -60 452 -215 727 -490 869 -127 65 -125 66 -70 -46z m-15 -3881 c-41 -62
-107 -226 -141 -352 -61 -229 -68 -399 -26 -637 47 -269 93 -389 351 -923 277
-573 335 -734 371 -1030 6 -52 13 -97 14 -99 7 -7 111 23 179 51 292 120 590
378 738 639 24 42 49 74 55 72 6 -2 14 6 17 19 9 40 -5 -173 -15 -245 -6 -38
-8 -71 -5 -74 9 -9 107 18 190 53 248 104 439 276 807 724 203 247 278 325
349 366 8 4 -10 -20 -41 -54 -31 -35 -135 -171 -230 -304 -282 -392 -418 -556
-554 -665 -103 -83 -205 -132 -385 -183 -240 -69 -345 -113 -490 -208 -82 -53
-84 -55 -60 -65 72 -29 140 -60 138 -63 -2 -1 -57 -14 -123 -29 -223 -50 -329
-104 -520 -266 -222 -189 -295 -239 -330 -225 -26 10 -16 57 35 166 103 219
115 378 40 537 -46 100 -118 168 -294 277 l-28 18 21 21 c15 16 33 21 62 21
28 -1 37 1 28 8 -18 12 59 -1 85 -14 40 -21 50 67 15 138 -65 135 -330 307
-613 399 l-70 23 78 17 c119 27 238 9 320 -48 l29 -20 -36 64 c-90 162 -181
447 -226 709 -90 525 -15 917 222 1166 38 41 72 73 74 71 2 -2 -12 -27 -31
-55z"/>
<path d="M7960 9335 c0 -8 4 -15 10 -15 5 0 7 7 4 15 -4 8 -8 15 -10 15 -2 0
-4 -7 -4 -15z"/>
<path d="M3030 8703 c-27 -10 -50 -36 -50 -55 0 -50 42 -116 108 -169 177
-142 425 -407 525 -559 133 -204 192 -389 231 -730 62 -537 16 -1316 -93
-1573 l-17 -40 -55 74 c-31 41 -91 124 -135 184 -92 128 -220 266 -281 302
-35 20 -55 24 -125 24 -46 1 -105 -5 -133 -11 -82 -19 -263 -115 -360 -189
-49 -38 -91 -66 -93 -61 -8 22 22 93 57 138 45 57 132 114 284 187 l107 52
-49 46 c-132 124 -247 170 -771 307 -376 99 -615 182 -717 250 -87 58 -128 96
-114 104 7 4 10 2 9 -5 -2 -6 3 -14 11 -17 9 -3 11 0 6 8 -6 9 -3 9 14 1 25
-14 28 -23 4 -14 -10 4 -14 2 -10 -4 4 -6 16 -13 27 -16 12 -3 18 -1 14 5 -3
5 11 1 32 -10 108 -55 349 -119 659 -177 508 -94 739 -171 894 -296 l64 -52
-28 49 c-16 27 -62 99 -104 159 -164 240 -185 272 -214 334 -17 36 -33 88 -35
117 l-4 51 30 -1 c29 -1 42 -17 183 -226 217 -322 349 -490 540 -685 65 -66
129 -140 143 -165 l26 -45 0 47 c0 60 -32 224 -60 307 -48 143 -160 328 -296
491 -43 52 -161 176 -261 276 -187 188 -274 288 -339 394 -31 51 -40 59 -58
54 -51 -16 -117 -80 -141 -138 -35 -83 -28 -259 15 -398 10 -32 16 -58 15 -58
-2 0 -36 18 -77 39 -112 61 -201 86 -483 136 -367 65 -476 90 -638 141 -222
72 -333 133 -465 258 -71 68 -80 67 -91 -15 -14 -112 22 -247 114 -431 76
-152 150 -261 235 -347 197 -196 406 -275 865 -325 148 -17 295 -49 295 -65 0
-11 -167 -106 -284 -161 -118 -57 -194 -117 -228 -183 -23 -45 -21 -48 68 -92
44 -23 65 -26 145 -26 52 0 130 7 174 15 75 15 211 13 202 -3 -50 -91 -61
-129 -62 -211 0 -74 4 -93 28 -143 40 -81 111 -148 208 -196 45 -23 89 -41 99
-41 12 0 25 18 41 57 56 138 166 262 282 316 250 119 562 -27 697 -326 52
-116 72 -210 145 -682 109 -709 185 -1003 340 -1320 115 -236 257 -427 482
-645 227 -222 475 -399 635 -456 21 -7 38 -12 38 -10 0 1 -25 40 -56 87 -64
97 -152 275 -183 369 -30 95 -48 190 -60 320 -26 279 -4 515 94 1005 46 227
64 368 66 509 1 44 4 69 6 54 4 -29 18 -37 25 -16 2 6 12 -11 22 -38 30 -79
76 -174 86 -174 12 0 59 126 116 310 48 159 127 367 145 385 7 7 8 4 4 -7 -4
-11 -2 -18 4 -18 6 0 11 8 11 17 0 9 2 14 5 11 3 -3 -6 -80 -20 -171 -25 -164
-31 -247 -19 -247 4 0 41 33 83 73 43 41 122 107 176 148 196 146 362 324 475
509 128 210 200 400 261 690 15 74 29 124 29 110 l2 -25 7 25 c6 21 8 18 14
-24 27 -192 -12 -399 -117 -621 -151 -319 -390 -589 -905 -1022 -14 -12 -23
-25 -18 -29 15 -15 175 15 295 56 68 23 126 39 129 36 4 -3 -2 -6 -13 -6 -15
0 -16 -2 -5 -9 10 -6 25 -4 43 5 15 8 28 13 28 10 0 -2 -66 -44 -147 -92 -218
-129 -318 -200 -409 -289 -112 -111 -187 -226 -228 -353 -18 -52 -47 -214 -41
-220 12 -12 135 72 220 149 144 131 193 162 260 164 30 1 52 -2 49 -6 -3 -5 2
-6 10 -3 9 3 16 2 16 -3 0 -5 -21 -19 -47 -32 -86 -41 -238 -148 -309 -218
-218 -213 -316 -464 -284 -730 26 -212 75 -348 187 -517 163 -245 400 -408
647 -446 87 -13 111 -7 45 10 -130 34 -291 141 -430 286 -144 151 -249 329
-305 519 -22 75 -27 110 -27 210 0 103 4 132 26 200 78 238 255 399 455 412
93 7 165 -11 259 -63 70 -39 77 -38 130 18 93 97 97 239 9 358 -46 64 -99 97
-172 109 -128 20 -195 51 -221 101 -12 23 -10 28 31 66 24 22 75 57 113 76
236 124 473 89 674 -98 58 -55 63 -53 104 38 24 53 27 70 23 132 -7 102 -43
173 -137 267 -87 86 -196 147 -316 175 -38 10 -76 19 -83 20 -7 2 29 38 80 81
127 104 345 325 395 398 128 190 180 386 170 638 -11 299 -145 614 -342 807
l-66 65 8 -45 c4 -25 8 -171 8 -325 0 -301 -8 -369 -60 -550 -80 -276 -219
-465 -397 -539 l-37 -16 -72 123 c-117 198 -241 303 -379 322 -48 7 -155 -9
-164 -24 -3 -4 8 -40 25 -80 108 -256 88 -510 -50 -645 l-36 -36 -48 65 c-77
103 -188 189 -296 227 -57 20 -216 36 -245 25 -14 -5 -8 -17 28 -67 63 -85
101 -154 126 -230 20 -59 22 -77 16 -200 -7 -155 2 -218 45 -325 31 -78 36
-136 15 -173 -14 -26 -63 -62 -85 -62 -7 0 -39 22 -71 50 -72 62 -131 89 -194
90 -57 0 -126 -29 -155 -66 l-19 -25 96 -97 c170 -170 219 -303 292 -797 41
-282 67 -427 90 -505 23 -77 97 -232 142 -298 l32 -46 -34 24 c-54 39 -209
198 -291 300 -304 376 -494 766 -573 1175 -78 404 -90 1028 -30 1600 48 460
55 566 61 875 6 335 -4 572 -33 763 -95 644 -378 1106 -847 1383 -56 33 -113
43 -157 27z m3497 -2475 c-3 -7 -5 -2 -5 12 0 14 2 19 5 13 2 -7 2 -19 0 -25z
m-4191 -295 c-7 -7 -87 -5 -95 3 -2 2 20 4 49 4 29 0 50 -3 46 -7z"/>
<path d="M9680 7172 c-108 -363 -335 -811 -586 -1154 -35 -49 -60 -88 -55 -88
5 0 100 34 212 76 112 41 301 111 419 154 234 86 399 156 528 226 46 24 88 42
94 38 6 -4 8 -3 5 3 -4 6 0 13 8 17 8 3 14 2 14 -2 -3 -21 3 -23 24 -7 12 10
-9 -12 -47 -49 -113 -112 -340 -245 -476 -280 l-55 -14 80 -3 c242 -11 500 20
690 83 194 64 471 216 597 328 l48 41 -18 -38 c-46 -101 -91 -171 -146 -225
l-59 -59 39 6 c102 18 206 58 327 126 48 27 93 47 99 43 6 -4 8 -3 4 4 -3 6
-2 14 4 17 6 4 10 3 9 -2 -4 -20 2 -24 19 -13 9 7 -12 -16 -48 -51 -84 -83
-181 -133 -391 -203 -186 -62 -388 -105 -629 -135 -223 -27 -276 -31 -635 -45
l-310 -11 260 -28 c418 -45 434 -47 570 -75 160 -33 297 -34 494 -3 74 12 137
19 139 16 3 -3 -6 -5 -19 -5 -18 0 -21 -2 -10 -9 9 -6 23 -6 35 1 14 7 18 7
11 0 -20 -21 -133 -72 -196 -89 -102 -27 -267 -23 -423 10 -474 101 -951 112
-1179 27 -90 -34 -100 -50 -16 -27 61 17 103 21 239 21 157 -1 172 -2 300 -36
253 -67 428 -159 579 -306 l96 -93 -95 67 c-114 79 -320 182 -449 224 -166 54
-321 71 -462 50 -78 -11 -216 -53 -244 -74 -20 -14 -20 -15 7 -69 15 -30 41
-71 58 -90 95 -109 326 -197 513 -197 308 0 626 -90 846 -239 52 -35 60 -32
97 41 51 101 24 222 -76 332 -27 29 -46 56 -43 60 4 4 0 4 -9 1 -9 -4 -19 -2
-22 3 -3 5 18 13 46 16 29 4 127 32 219 61 266 87 367 93 515 36 43 -17 81
-28 84 -26 14 8 30 93 30 152 -1 96 -67 227 -134 263 -26 13 -25 14 69 64 123
66 209 140 365 311 131 144 334 346 429 427 61 53 66 48 -79 75 -134 24 -410
25 -500 0 -109 -29 -181 -71 -292 -170 -57 -51 -125 -108 -150 -125 -68 -47
-178 -100 -233 -112 -51 -11 -191 -17 -200 -8 -3 3 6 31 20 63 67 151 88 367
46 477 -12 32 -42 80 -68 108 -44 49 -122 110 -141 110 -5 0 -10 -28 -11 -62
-14 -379 -270 -668 -635 -713 l-56 -7 46 108 c74 177 81 195 99 278 21 92 16
219 -9 278 -29 68 -96 130 -177 165 -26 11 -27 11 -49 -65z m1805 -741 c-9 -8
-36 -10 -30 -2 2 4 11 8 20 8 8 0 13 -3 10 -6z"/>
<path d="M5549 6639 c-23 -19 -23 -20 -2 -10 12 6 25 16 28 21 10 16 -1 12
-26 -11z"/>
<path d="M2085 5136 c-27 -7 -66 -20 -85 -28 l-35 -15 35 -18 c58 -30 166
-142 289 -299 124 -160 222 -247 360 -323 36 -20 100 -56 141 -82 l74 -45 -37
-8 c-97 -20 -190 -96 -232 -189 -23 -53 -27 -71 -23 -138 2 -49 10 -90 23
-116 l20 -40 120 -6 c237 -12 475 -97 706 -250 122 -81 346 -304 501 -499 511
-643 938 -955 1431 -1045 48 -9 98 -15 112 -13 22 3 16 9 -47 57 -55 42 -88
58 -142 71 -156 40 -290 103 -459 216 -260 176 -465 381 -674 672 -92 129
-150 247 -268 547 -139 355 -179 450 -238 570 -73 146 -112 199 -236 314 -149
139 -177 197 -201 421 -10 92 -18 137 -27 153 -11 20 -119 -72 -138 -118 -7
-16 -19 -72 -26 -123 l-13 -92 -30 57 c-85 160 -270 294 -491 356 -90 25 -335
33 -410 13z m265 -148 c0 -5 4 -7 9 -3 15 8 92 -26 84 -38 -3 -6 -1 -7 6 -3 6
4 51 -13 99 -39 437 -232 930 -735 1082 -1104 16 -41 30 -76 30 -79 0 -3 -18
22 -40 55 -216 321 -637 732 -1102 1077 -81 60 -145 113 -141 119 4 6 0 8 -8
5 -9 -3 -26 2 -40 13 -24 18 -24 18 -1 12 12 -3 22 -10 22 -15z"/>
<path d="M2390 4960 c8 -5 22 -10 30 -10 13 0 13 1 0 10 -8 5 -22 10 -30 10
-13 0 -13 -1 0 -10z"/>
</g>
</svg>
