<?xml version="1.0" encoding="utf-8"?>
<!DOCTYPE svg PUBLIC "-//W3C//DTD SVG 1.1//EN" "http://www.w3.org/Graphics/SVG/1.1/DTD/svg11.dtd">
<svg version="1.1" id="Layer_1" xmlns="http://www.w3.org/2000/svg" xmlns:xlink="http://www.w3.org/1999/xlink" x="0px" y="0px"
	 viewBox="-6.9899 -3.4864 664.9899 393.6297" enable-background="new -6.9899 -3.4864 664.9899 393.6297" xml:space="preserve">
<g id="_x23_fdfdfdff">
</g>
<g id="_x23_010101ff">
	<path fill="#010101" stroke="#010101" stroke-width="0.0938" d="M323.48,1.27c0.24,0.01,0.72,0.03,0.97,0.04
		c-0.08,5.97,3.23,11.28,5.75,16.48c2.9,6.03,8.61,11,8.62,18.12c1.13,13.7-5.66,26.18-8.77,39.14c1.6-0.58,3.08-1.44,4.44-2.46
		c5.3-3.81,11.26-6.59,17.4-8.71c-7.01,7.56-11.11,17.22-14.32,26.89c-5.25,16.42-8.12,34.16-4.47,51.24
		c3.3,20.44,9.25,40.38,11.83,60.94c1.14,7.23-0.7,14.43-2.72,21.33c-4.86,15.67-11.33,30.82-18.5,45.56
		c-5.89-13.45-12.24-26.74-16.73-40.74c-2.94-8.73-5.82-17.96-4.17-27.27c3.13-22.54,9.67-44.46,12.92-66.99
		c1.29-12.09-0.34-24.34-3.32-36.07c-3.49-12.4-7.87-24.98-16.41-34.89c7.02,2.47,13.69,6.01,19.64,10.47
		c0.53,0.14,1.59,0.42,2.12,0.56c-3.59-12.79-9.78-25.33-9.04-38.93c0.03-5.92,4.24-10.4,6.99-15.25
		C319.21,14.68,322.66,8.32,323.48,1.27z"/>
	<path fill="#010101" stroke="#010101" stroke-width="0.0938" d="M624.8,74.78c10.79-8.87,21-19.55,25.2-33.2v4.43
		c-1.55,4.08-2.15,8.43-3.48,12.58c-7.54,24.6-24.5,45.96-46.12,59.75c-19.35,12.29-42.03,18.55-64.76,20.34
		c-18.97,1.41-38.44,0.98-56.74-4.76c-13.25-3.97-25.15-11.41-36.06-19.76c-8.49-6.13-16.82-13.07-27.06-16.04
		c-12.69-3.95-26.4-2.12-38.85,1.81c-9.76,3.69-14.32,14.09-17.54,23.26c-5.3,17.73-6.87,36.89-2.86,55.04
		c-1.26-2.04-2.38-4.17-3.2-6.42c-4.84-13.35-7.35-27.59-6.9-41.8c0.51-12.07,3.81-24.48,11.73-33.86
		c8.18-9.52,20.53-14.57,32.76-16.13c13.1-1.68,25.54,4.09,36.66,10.33c11.3,6.51,22.73,13.02,35.19,17.09
		c11.64,3.89,23.96,5.56,36.22,5.45c25.91,0.52,51.95-3.24,76.5-11.59C593.09,94.94,610.21,86.63,624.8,74.78z"/>
	<path fill="#010101" stroke="#010101" stroke-width="0.0938" d="M1.01,45.39C8.87,62.11,23.33,74.61,38.7,84.31
		c33.95,21.14,74.66,29.46,114.31,28.55c17.02,0.12,33.94-4.06,49.19-11.54c14.35-6.48,27.02-16.9,42.6-20.45
		c11.31-2.76,23.17-0.03,33.51,4.84c11.04,5.3,19.2,15.69,22.54,27.39c5.01,17.73,2.77,36.76-2.61,54.14
		c-1.31,3.74-2.25,7.76-4.76,10.92c3.19-13.17,2.56-26.95,0.61-40.26c-1.95-10.72-4.75-21.73-11.39-30.6
		c-2.76-3.86-6.87-6.62-11.39-7.98c-11.2-3.04-23.17-4.89-34.58-1.88c-12.22,2.89-21.99,11.16-31.85,18.45
		c-11.54,8.71-24.48,15.82-38.55,19.41c-20.35,5.15-41.69,4.87-62.38,2.25c-24.29-3.38-48.26-12.43-66.97-28.58
		c-9.55-8.15-17.9-17.83-23.98-28.85C7.03,69.44,1.68,57.75,1.01,45.39z"/>
	<path fill="#010101" stroke="#010101" stroke-width="0.0938" d="M233.69,108.66c4.67-4.93,11.97-5.85,18.41-5.27
		c11.32,0.98,22.72,7.14,27.68,17.72c7.5,16.11,7.96,34.4,7.51,51.85c-0.96-7.36-1.87-14.79-4.33-21.83
		c-3.64-11.1-10.42-21.23-19.6-28.49c-1.06-0.89-2.38-1.34-3.66-1.79c-0.89,6.47-2.82,13.46-7.96,17.88
		c-4.07,3.52-10.98,4.73-15.15,0.73c-4.1-4.01-5.12-10.02-5.82-15.47C230.28,118.79,230.04,112.87,233.69,108.66z"/>
	<path fill="#010101" stroke="#010101" stroke-width="0.0938" d="M377.54,111.51c8.18-6.56,19.24-9.56,29.6-7.72
		c5.96,1.08,11.95,5.71,12.19,12.17c0.3,6.58-0.19,13.43-2.98,19.5c-1.57,3.22-4.52,6.27-8.32,6.37
		c-5.75,0.69-11.18-3.16-13.78-8.08c-2.05-4.02-3.64-8.39-3.89-12.93c-3.47,0.94-6,3.65-8.48,6.07
		c-8.45,8.26-13.99,19.19-16.68,30.63c-1.27,4.76-1.43,9.72-2.51,14.52c-0.42-13.08,0.15-26.3,3.21-39.06
		C368.02,125.09,371.18,116.96,377.54,111.51z"/>
	<path fill="#010101" stroke="#010101" stroke-width="0.0938" d="M133.9,154.35c29.32-2,57.11-15.2,79.18-34.27
		c-9.93,18.12-23.15,34.97-40.34,46.69C157.45,177.35,138.52,182.4,120,181c-21.1-1.64-41.25-9.76-59.05-20.93
		c-10.35-6.35-20.25-13.61-28.97-22.08c20.56,7.3,42.15,11.16,63.72,14.05C108.38,153.45,121.11,155.25,133.9,154.35z"/>
	<path fill="#010101" stroke="#010101" stroke-width="0.0938" d="M436.9,120.06c25.93,22.59,60.34,36.73,95.05,34.29
		c29.11-2.55,58.34-6.77,86.07-16.32c-6.69,6.76-14.52,12.24-22.24,17.74c-17.64,11.87-37.3701,21.35-58.58,24.44
		c-17.13,2.66-35.09,0.06-50.54-7.89C464.82,161.06,448.5,141.32,436.9,120.06z"/>
	<path fill="#010101" stroke="#010101" stroke-width="0.0938" d="M158.38,201.41c26.95-17.77,45.91-45.61,57.28-75.44
		c-1.39,23.61-7.96,47.46-21.72,66.96c-12.92,18.23-32.52,31.19-53.92,37.25c-13.61,4.05-27.89,5.65-42.06,5.13
		C119.17,226.09,139.3,214.48,158.38,201.41z"/>
	<path fill="#010101" stroke="#010101" stroke-width="0.0938" d="M434.24,126.64c1.75,2.49,2.43,5.51,3.7,8.24
		c7.63,17.03,17.5,33.21,30.41,46.77c13.59,15.01,31.28,25.28,48.41,35.69c11.07,6.8,22.89,12.25,34.61,17.77
		c-17.62,1.03-35.48-2.1-51.89-8.55c-17.25-6.83-32.62-18.51-43.38-33.66C442.3,173.65,436.14,149.98,434.24,126.64z"/>
	<path fill="#010101" stroke="#010101" stroke-width="0.0938" d="M226.64,142.32c0.2,0.02,0.6,0.04,0.8,0.06
		c0.53,13.03,1.08,26.26-1.84,39.07c-3.89,19.55-14.22,37.76-29.17,50.97c-13.54,11.8-29.95,20.45-47.47,24.47
		c12.55-9.61,24.01-20.55,34.9-32c7.17-7.86,14.76-15.45,20.45-24.52C215.62,182.85,223.43,162.94,226.64,142.32z"/>
	<path fill="#010101" stroke="#010101" stroke-width="0.0938" d="M422.21,163.05c0.1-7.03-0.59-14.25,0.99-21.15
		c4.34,25.82,14.84,50.98,31.94,70.97c14.09,15.87,29.05,31.09,45.9,44.06c-19.34-4.47-37.42-14.47-51.55-28.42
		C432.16,211.43,422.76,187.24,422.21,163.05z"/>
	<path fill="#010101" stroke="#010101" stroke-width="0.0938" d="M253.04,148.14c11.13,11.25,20.33,25.28,22.38,41.28
		c2.23,16.62-3.94,33.15-13.47,46.55c-4.58,6.18-9.42,12.43-15.65,17.04c6.97-14.21,11.08-29.6,14.69-44.94
		c4.13-16.85,1.88-34.76-4.16-50.87C255.67,154.14,254.02,151.28,253.04,148.14z"/>
	<path fill="#010101" stroke="#010101" stroke-width="0.0938" d="M391.34,154.38c1.69-1.93,3.09-4.26,5.47-5.44
		c-8.47,17.29-12.22,37.26-8.43,56.29c3.53,16.45,8.25,32.71,15.25,48.04c-11.7-10.39-21.28-23.46-26.47-38.31
		c-3.15-9.81-3.99-20.46-1.69-30.54C378.02,173.24,383.88,163.01,391.34,154.38z"/>
	<path fill="#010101" stroke="#010101" stroke-width="0.0938" d="M238.28,149.93c7.56,16.14,11.66,34.31,9.58,52.16
		c-2.09,18.91-11.77,36.33-25.03,49.73c-6.93,6.61-14.28,13.02-22.91,17.31c12.13-16.68,22.14-34.81,30.66-53.57
		C239.15,194.92,240.9,171.97,238.28,149.93z"/>
	<path fill="#010101" stroke="#010101" stroke-width="0.0938" d="M401.66,194.98c-0.43-15.55,3.45-31.09,10.12-45.06
		c-3.27,25.46-0.12,52.32,12.13,75.15c7.82,15.54,16.2,30.94,26.93,44.69c-13.81-7.71-26-18.52-34.98-31.58
		C407.22,225.49,401.91,210.38,401.66,194.98z"/>
	<path fill="#010101" stroke="#010101" stroke-width="0.0938" d="M354.7,248.04c0.06-1.02,0.23-2.01,0.39-3.01
		c4.96,25.75,12.25,51.14,22.66,75.24c6.2,13.17,13.26,26.7,24.93,35.85c-1,1.85-3.82,1.86-5.7,2.41
		c-8.24,1.67-16.3-2.93-21.33-9.18c-8.26-10.25-12.32-23.11-15.34-35.71C355.5,292.14,354.36,270.01,354.7,248.04z"/>
	<path fill="#010101" stroke="#010101" stroke-width="0.0938" d="M293.74,250.42c0.22-0.88,0.48-1.75,0.78-2.61
		c0.9,21.2-0.31,42.57-4.41,63.42c-2.88,13.31-6.71,26.87-14.87,38.01c-3.94,5.17-9.27,9.92-15.92,10.95
		c-4.52,0.84-9.1-0.28-13.28-1.99c4.63-2.97,8.29-7.21,11.61-11.54c8.01-10.76,13.7-23.02,18.62-35.44
		C283.73,291.48,289.6,271.12,293.74,250.42z"/>
	<path fill="#010101" stroke="#010101" stroke-width="0.0938" d="M343.92,329.11c-3.5-25.62-1.56-51.7,2.46-77.14
		c1.94,24.09,4.95,48.18,10.88,71.66c3.57,13.48,7.88,26.96,15.2,38.93c2.04,3.41,4.68,6.39,6.85,9.7
		c-7.33,1.48-15.26-0.63-20.45-6.11C349.24,356.3,346.16,342.23,343.92,329.11z"/>
	<path fill="#010101" stroke="#010101" stroke-width="0.0938" d="M302.17,264c0.32-3.06,0.17-6.21,1.07-9.18
		c4.26,25.63,5.93,51.98,2.11,77.79c-2.36,12.68-5.62,26.33-15.23,35.62c-5.14,5.31-13.01,7.21-20.14,5.59
		c11.23-12.78,16.97-29.25,21.48-45.39C297,307.34,300.32,285.71,302.17,264z"/>
	<path fill="#010101" stroke="#010101" stroke-width="0.0938" d="M334.38,268.24c0.94-3.06,1.36-6.35,2.97-9.17
		c-1.73,23.81-1.6,47.8,0.88,71.55c2.1,18.5,5.88,37.25,15.28,53.55c-8.91-0.03-17.3-5.52-21.21-13.46
		c-4.87-8.13-5.97-17.65-7.65-26.77c-0.81,11.38-3.07,23.31-10.13,32.6c-4.3,5.55-11.08,9.57-18.3,8.74
		c7.89-13.38,11.55-28.7,13.91-43.91c3.95-26.93,3.71-54.27,2.18-81.39c6.15,19.58,10.26,39.75,12.43,60.15
		C326.47,302.61,329.45,285.17,334.38,268.24z"/>
</g>
</svg>
