<?xml version="1.0" encoding="utf-8"?>
<svg version="1.1" id="Layer_1" xmlns="http://www.w3.org/2000/svg" xmlns:xlink="http://www.w3.org/1999/xlink" x="0px" y="0px"
	 viewBox="0 0 1673.886 1678.691" style="enable-background:new 0 0 1673.886 1678.691;" xml:space="preserve">
<style type="text/css">
	.st0{fill:#010101;}
</style>
<g>
	<path class="st0" d="M473.731,431.522c-70.989,36.216-78.084,143.156-2.707,181.646c24.512,12.215,67.834,13.033,89.364,1.688
		c74.552-39.289,73.944-146.431,0.071-181.378C535.378,421.612,494.943,420.7,473.731,431.522z"/>
	<path class="st0" d="M799.816,1004.99c-23.607-58.464-29.269-133.401-29.269-196.483l-0.935,0.087l-0.142-3.279l-0.01,0.001
		l-0.008-0.166c-45.391,5.334-36.615,4.112-56.258,11.58c5.744,74.372,4.435,170.957,71.424,276.312
		c1.509,2.373,11.174,17.001,13.839,16.77c4.887,0.376,35.548-34.787,35.642-40.624
		C835.56,1059.91,817.937,1048.857,799.816,1004.99z"/>
	<path class="st0" d="M699.315,950.486c0.687-8.82-3.574-44.668-5.174-50.076c-2.012-6.8-32.771-22-36.161-23.749
		c-36.424-18.785-77.336-49.821-108.259-74.464c-91.029-72.54-146.672-71.75-150.021-68.244c-3.8,3.978,13.984,49.83,17.903,60.596
		c38.014,14.548,80.949,34.872,135.667,78.335C578.622,893.02,698.575,982.901,699.315,950.486z"/>
	<path class="st0" d="M653.857,647.006c1.064,0,4.248-3.577,7.073-7.949c62.011-95.91,25.329-197.036-41.351-289.646
		c-50.549-70.209-81.083-102.2-82.084-102.681c-3.385-3.654-46.462,15.221-45.457,17.462c-0.385,0.412-0.716,0.843-0.518,1.358
		l-0.545,0.276c3.587,3.834,1.38,1.396,4.211,4.903c-0.016,0.971,0.581,1.712,1.794,2.176
		c11.439,13.634,27.017,27.549,59.772,70.911c85.444,115.311,83.984,145.647,82.517,192.341
		c-1.361,43.348-3.258,42.625-20.423,77.263l16.54,16.792l-0.002,0.001C636.631,631.48,652.095,647.006,653.857,647.006z"/>
	<path class="st0" d="M906.942,1395.016c17.601-6.162,33.934-105.825,10.84-156.243c-4.844-10.574-23.615-50.323-34.469-54.65
		l-0.833-1.109l-1.196,1.339c-7.318,3.638-24.702,25.2-36.371,39.08c25.739,51.295,33.99,67.893,28.329,132.069
		c-5.874,25.238-11.508,24.297,12.124,35.284h-0.002C891.899,1393.824,901.741,1397.721,906.942,1395.016z"/>
	<path class="st0" d="M852.779,889.174c41.296-3.703,57.477-69.361,9.403-93.887c-18.247-9.311-27.363-8.775-44.965,2.638
		c-47.221,30.622-18.016,79.73,4.553,89.68l-0.002,0.003C822.769,888.05,838.661,892.409,852.779,889.174z"/>
	<path class="st0" d="M1266.729,549.952c6.042-83.882-76.612-124.403-132.457-95.221c-78.207,36.066-71.903,150.437,7.87,178.644
		h-0.002C1203.123,654.938,1266.224,606.713,1266.729,549.952z"/>
	<path class="st0" d="M1301.394,961.44c-0.147-1.326-2.357-42-8.148-54.485l-0.634-4.776l-3.859-0.511
		c-5.577-3.539-18.149-4.646-24.848-6.125c-55.874-16.052-147.358-105.147-214.025-138.94
		c-16.153-8.187-57.019-25.734-63.868-22.478c-4.191,0.582,0.043,33.819,0.043,52.928l0.734,0.333l0.074,1.168l0.242,0.114
		l0.033,0.399c65.094,30.214,79.888,34.935,164.02,102.607c55.422,44.579,76.833,58.71,113.994,65.914l-0.002-0.002
		C1286.093,961.64,1293.194,961.128,1301.394,961.44z"/>
	<path class="st0" d="M1240.729,1131.097c-36.97-76.115-150.529-65.98-175.646,20.413c-13.94,47.951,18.32,105.126,67.084,117.664
		v0.002C1207.277,1288.462,1282.664,1207.72,1240.729,1131.097z"/>
	<path class="st0" d="M1094.344,643.542l-2.675-1.2c-2.931,2.887-1.146,1.236-3.648,3.052c-5.739,1.833-33.042,27.2-31.108,33.128
		c-2.278,5.352,38.894,27.349,72.204,31.593v-0.001c9.706,1.236,32.154,1.983,49.884,1.666c27.001-0.487,36.753-2.38,60.074-11.657
		c90.582-36.04,175.22-120.699,203.649-145.562l-0.226-0.482l0.056-0.053c-3.817-7.985-19.204-41.336-22.807-43.562
		c-1.55-0.959-18.288,13.362-37.198,31.822C1182.462,737.634,1113.24,638.041,1094.344,643.542z"/>
	<path class="st0" d="M1100.765,1446.481c6.609-16.218-136.929-115.827-144.515-106.43c-1.236,1.531-9.059,30.151-9.059,41.104
		c0,12.763,33.986,25.154,36.548,34.609c-3.878,7.853-64.342,13.339-145.469-8.734c-83.503,17.057-88.98,15.668-56.054,31.896
		c50.636,25.952,85.64,34.125,122.111,38.222h-0.002C990.533,1486.827,1100.961,1462.618,1100.765,1446.481z"/>
	<path class="st0" d="M366.028,925.693c33.668,8.805,99.351-2.034,144.382-23.291l20.733-9.786
		c-4.743-4.256-40.011-35.898-44.754-40.154c-42.319,18.817-85.938,34.189-152.026-4.804
		c-10.515,12.402-26.506,28.412-31.813,46.814c-0.534,1.258-2.338,5.617-1.739,6.85c-0.277,1.509-0.301,1.464,1.241,2.182
		c2.276,5.235,58.523,20.765,63.975,22.191L366.028,925.693z"/>
	<path class="st0" d="M544.441,1445.384c5.016-0.112,12.826-9.138,44.694-51.651c57.056-76.114,119.857-171.074,108.099-262.603
		c-5.343-49.815-27.736-79.23-36.384-79.991l-1.589-1.823l-0.448,0.457l-0.19-0.179l-2.25,2.406
		c-6.514,2.922-13.777,11.935-33.23,33.999c10.692,20.731,35.898,58.697,16.91,115.03c-28.88,85.69-128.589,193.154-136.795,214.006
		c-0.783,1.179-1.213,1.926-1.213,2.139c0,0.286,0.603,0.928,1.675,1.833c1.523,3.839,15.893,12.544,19.53,14.733v0.001
		C533.933,1440.165,543.47,1445.405,544.441,1445.384z"/>
	<path class="st0" d="M218.713,805.95c3.262,0.887,40.835-42.518,43.092-45.064v-0.212l0.006-0.007
		c0-25.251-0.921-58.433,4.338-56.951c21.481,6.249,69.951,108.173,79.8,128.17l18.871,7.943l0.002-0.001
		c12.8,5.388,20.463,8.148,24.993,8.048c24.284,6.055-22.422-118.893-58.113-167.34c-26.308-35.709-72.943-82.102-92.306-79.392
		c-9.449-0.878-31.325,33.628-35.97,99.327c-2.322,32.846,5.256,99.738,12.069,106.552
		C215.924,807.452,217.057,807.04,218.713,805.95z"/>
	<path class="st0" d="M226.624,1088.594l0.09,0.137l0.326-0.221c9.601-2.325,54.499-38.022,73.22-58.933
		c22.386-25.002,54.674-74.019,53.388-78.637c0.199-2.919-6.816-6.377-9.702-7.465c-18.457-6.956-26.482-13.324-33.511-13.286
		l-0.935-0.439l-0.119,0.15l-0.423-0.25l-0.128,0.183c-3.677-0.848-11.582,10.97-13.543,14.074
		c-10.831,17.159-33.074,42.266-37.445,42.266c-1.726,0-2.223-8.347-1.103-18.547c8.285-75.35,43.095-116.947,63.176-144.198
		c-3.035-5.689-26.965-52.492-32.478-54.331l-1.927-2.732c-108.482,116.999-94.309,260.304-67.389,312.548h-0.002
		C219.439,1081.472,223.742,1089.014,226.624,1088.594z"/>
	<path class="st0" d="M696.356,1482.801v-0.012c16.224,3.003,51.842,5.052,71.11,4.731c34.857,0.116,32.062-2.66-2.745-33.139
		c-27.761-24.31-27.378-23.092-50.975-23.228c-6.464-0.839-8.338-1.855-7.494-3.893c36.335-30.223,86.331-38.837,129.655-43.635
		c3.904-27.423,7.172-43.162,1.76-49.82l0.005-2.421l-2.633,0.247c-10.316-5.701-79.005,2.16-154.478,46.959
		c-0.844-0.073-1.258,0.177-1.253,0.746c-40.268,24.053-74.806,51.988-74.806,63.979
		C604.502,1447.015,635.314,1471.496,696.356,1482.801z"/>
	<path class="st0" d="M1415.9,937.686l0.004-0.001c13.98,22.626,98.539-130.19,64.982-250.044
		c-6.386-22.806-26.886-69.261-31.848-68.505l-0.309-0.489c-62.035,32.083-106.109,114.688-104.429,127.195l-0.904,2.378
		c4.744,2.558,10.262,7.669,28.005,15.101l10.34,5.576l0.13-0.145l0.266,0.148l2.37-2.936c11.386-7.525,25.381-32.138,36.649-36.732
		c9.864,3.741,6.755,77.244-16.725,124.765l-12.432,25.161C1396.009,889.254,1413.599,933.963,1415.9,937.686z"/>
	<path class="st0" d="M1360.536,839.513v-0.002c4.859,2.796,9.091,5.138,9.444,5.209c3.005,0.616,24.942-40.616,23.544-44.258
		c-5.713-14.882-107.939-62.4-177.473-37.405c-17.41,5.77-53.358,25.641-53.358,31.926c0,4.163,22.188,24.301,32.801,29.771
		c8.93,4.603,11.701,4.305,30.03-3.233c30.149-12.398,63.541-11.649,98.914,2.219
		C1339.434,829.618,1355.678,836.716,1360.536,839.513z"/>
	<path class="st0" d="M1112.67,893.825l1.488-0.936l-1.006-0.845c0.016-0.252,0.012-0.505-0.017-0.759
		c1.404-3.933-16.374-15.304-41.259-32.444c-16.375,8.515-111.19,63.74-212.478,63.74c-26.312,0-33.999,3.509-50.888,3.532
		c1.103,7.019,0.899,4.645,0.899,10.412c0,22.523,9.96,42.803,10.874,46.114h0l0.277,0.933l2.245-0.098
		c10.293,5.698,151.137,0.413,271.943-75.883C1104.916,901.169,1110.975,897.38,1112.67,893.825z"/>
	<path class="st0" d="M596.952,1057.656c21.03-15.068,21.991-16.495,36.108-31.628l-0.398-0.35l0.117-0.117
		c-84.664-69.79-146.769-46.778-219.794,0.572c-37.919,24.586-169.096,125.222-168.484,130.906
		c-3.837,5.794,17.199,31.237,24.84,41.653l1.269-1.049c1,0.728-0.319,2.9,25.947-20.227c25.823-22.736,89.762-70.668,131.3-98.429
		C518.457,1018.435,540.846,1031.796,596.952,1057.656z"/>
	<path class="st0" d="M1470.768,1013.303c3.695-27.23,2.749-97.032-2.989-97.22c-0.347-0.347-0.557-0.322-0.862-0.237
		c-1.001-0.93-3.918,0.261-3.918,2.516c0,0.143-0.075,0.374-0.215,0.682c-8.739,8.719-10.111,13.168-28.938,33.9
		c-14.007,15.421-13.413,21.655-14.714,35.291c-0.231,0.409-0.482,0.736-0.748,0.981c-29.685-34.74-32.605-47.123-52.921-117.621
		c-25.974-15.178-38.387-23.315-44.808-21.453c-13.613-2.625-12.457,125.897,87.07,220.026h0.002
		c2.204,2.084,20.223,18.76,23.208,18.427c0.318,0.052,0.486,0.025,0.837-0.001
		C1441.675,1092.367,1468.275,1052.369,1470.768,1013.303z"/>
	<path class="st0" d="M1293.378,1495.4c1.098-4.192-17.863-18.84-68.85-66.887c-126.419,74.548-232.824,114.048-392.153,113.779
		c-51.981-0.096-153.556,4.149-317.02-77.824c-5.701-2.859-41.255-19.927-43.651-18.898l-1.424-0.697l-0.966,1.157
		c-10.452,3.76-51.9,58.974-59.177,67.522l3.766,2.825c9.363,13.098,148.129,91.309,316.015,116.698l0.004,0.002
		c66.791,10.1,186.257,6.224,240.236-3.343c192.5-34.114,324.083-128.934,323.006-133.205
		C1293.485,1495.924,1293.433,1495.752,1293.378,1495.4z"/>
	<path class="st0" d="M243.474,1221.518l0.111-0.098C111.54,968.525,84.678,739.87,248.102,449.576
		c-32.027-35.22-35.684-39.067-63.939-72.828l-1.926,2.277c-9.091,5.236-143.004,188.204-143.004,459.698
		c0,60.275,1.488,84.791,7.157,117.952c20.253,118.483,57.892,222.308,110.267,304.181v0.001c1.38,2.158,14.468,22.08,17.093,22.08
		c3.531,0,66.937-55.811,69.967-58.587c0.097-0.089-0.044-0.648-0.39-1.612C243.584,1222.352,243.648,1222.276,243.474,1221.518z"/>
	<path class="st0" d="M813.685,342.362c7.082-15.544,7.757-17.585,8.185-20.441c4.285-16.149-41.345-25.328-42.655-23.764
		c-0.376,0.449-0.86,1.135-1.43,2.012c-11.434,7.649-60.704,92.895-18.697,181.831c19.438,41.152,44.858,73.859,48.713,72.868
		c0.347,0.341,0.378,0.329,0.604,0.168c3.343,0.706,33.758-40.987,35.806-43.69l-0.348-0.439l0.008-0.01l-0.004-0.005l1.638-2.303
		c-37.387-38.675-46.383-71.451-44.699-124.985C802.54,372.541,808.099,354.624,813.685,342.362z"/>
	<path class="st0" d="M1509.951,408.76l-1.892-2.75c-68.097,72.795-67.273,72.64-67.273,72.64l0.92,1.842l-0.017,0.018l0.284,0.54
		c2.226,15.902,203.021,315.564,17.337,684.053l-27.779,55.127l0.353,0.38l-0.048,0.096c23.618,25.264,16.893,18.049,30.441,32.642
		v0.001c25.463,27.428,28.91,27.94,28.945,30.471l-0.006,0.001c0.049,3.418,1.467,3.955,3.996,2.011
		c11.449,7.661,122.753-188.483,136.111-363.076C1658.31,643.475,1519.087,410.244,1509.951,408.76z"/>
	<path class="st0" d="M942.731,1001.967c-2.221-2.857-5.559-1.323-54.771,2.837c-28.481,96.451-110.166,148.033-143.243,233.933
		c-8.615,22.422-17.131,55.074-10.938,78.147l-0.004,0.003l2.001,7.45c82.892-24.89,30.455-3.858,71.752-77.682
		c29.031-52.227,130.897-166.034,136.049-237.915C943.831,1006.977,944.426,1002.487,942.731,1001.967z"/>
	<path class="st0" d="M605.325,1130.296c-46.312-104.691-184.538-64.772-184.538,36.067c0,36.118,29.121,76.63,63.593,88.471v-0.001
		C566.937,1283.194,636.667,1201.146,605.325,1130.296z"/>
	<path class="st0" d="M759.944,686.284c0,0.628,0.327,1.115,0.926,1.468c2.544,3.196,4.002-1.773,37.012-1.849l22.042-0.035
		l1.77-3.51l0.786-0.007c35.58-83.511,137.677-178.26,140.009-258.047c0.329-11.243-0.393-21.441-1.602-22.66
		c-0.192-0.193-0.673-0.264-1.399-0.226c-2.67-2.969-48.384,17.742-49.392,18.131l-0.508,1.465
		c-3.71,3.449-4.993,7.793-7.328,16.171c-17.626,63.25-52.298,92.492-98.544,162.734c-11.185,15.989-43.774,69.4-43.771,83.711
		l-0.002-0.015c0,0.001,0.006,2.67,0.006,2.671L759.944,686.284z"/>
	<path class="st0" d="M1015.191,1066.625l-0.961-0.961c-2.789,3.409-0.913,1.24-3.566,3.641
		c-11.174,10.113-29.016,49.618-33.037,66.077c-25.068,92.192,36.384,149.008,128.017,256.46h-0.017
		c0.647,0.759,27.55,32.17,28.128,32.983v0.002c2.259,3.175,5.98,7.135,9.805,6.245c0.656,0.461,1.177,0.18,2.328-0.294
		c5.396,0.317,22.767-8.944,42.022-28.201l-0.5-0.525c-0.033-2.333-16.57-20.918-36.777-41.333
		c-43.658-44.103-95.734-108.507-109.102-134.928c-21.974-43.486-2.262-89.555,9.141-122.469l-0.217-0.254l0.31-0.872
		C1031.913,1083.346,1021.372,1066.017,1015.191,1066.625z"/>
	<path class="st0" d="M1176.057,261.527c-13.295-6.782-20.506-10.543-25.811-10.787l-2.386-1.171l-1.422,1.694
		c-11.845,4.149-96.858,130.266-121.017,180.962c-18.453,38.724-35.822,83.284-30.02,136.431
		c0.357,12.466,0.748,28.347,15.907,53.749c4.068,7.357,8.238,13.817,10.891,16.641l-0.002-0.002
		c8.64,9.198,9.545,8.228,10.842,7.48c0.725,0.618,0.676,0.74,1.853-0.375c6.881-1.768,17.175-18.066,28.361-30.202l-2.135-5.237
		c-1.829-25.628-74.96-88.508,116.77-307.319C1201.286,276.69,1201.377,274.444,1176.057,261.527z"/>
	<path class="st0" d="M595.952,803.689h-0.002c3.514,2.893,20.354,16.831,21.962,16.294c0,0,90.152-48.745,265.686-45.64v-0.555
		l0.002,0v-3.273c6.12-6.073-6.686-41.729-12.624-50.798l-0.102-0.285h-0.084c-9.721-14.385-159.746,8.874-192.102,17.318
		c-71.201,18.582-103.041,42.196-102.4,47.297C575.765,786.934,593.745,801.871,595.952,803.689z"/>
	<path class="st0" d="M599.141,238.111c-9.596,10.688,51.577,84.875,93.677,112.994h-0.002c5.399,3.605,21.459,13.693,23.73,13.094
		c4.207,1.631,15.623-38.538,19.24-49.768l-0.85-0.902l0.11-0.367c-7.702-7.303-31.63-32.75-31.63-36.519
		c0-6.96,67.306-23.832,146.603,33.842c6.786,5.682,14.115,10.4,17.453,11.325l0.996,0.806l1.582-0.724
		c7.125,1.369,30.875-11.187,42.97-23.923l9.994-10.523C896.999,262.2,860.321,220.447,775.74,207.8
		C673.895,190.199,605.429,227.938,599.141,238.111z"/>
	<path class="st0" d="M987.813,212.096c-23.267-4.763-102.037-6.497-106.223-2.336c-0.398,0.396-0.182,1.291,0.537,2.551
		c-1.444,2.626,25.488,24.637,41.667,39.886c14.506,13.676,17.262,6.735,59.151,13.663c1.529,0.321,2.921,0.232,0.533,3.719
		c-39.564,41.492-87.154,67.67-132.695,79.615c-13.286,3.485-24.488,8.531-25.668,11.564c-3.571,9.166-5.81,49.197-6.228,54.125
		c15.898-1.335,41.268-2.427,68.238-11.684c96.941-33.275,204.015-121.863,206.074-147.572l0.617-1.108l-0.692-0.572
		C1091.18,244.326,1034.587,221.673,987.813,212.096z"/>
	<path class="st0" d="M389.237,176.208c-0.8,2.884,69.287,57.992,73.135,58.685l3.155,2.535
		C604.389,165.048,689.762,136.32,841.2,136.817c118.345,0.392,228.712,15.821,386.134,117.21
		c10.907-11.382,64.874-66.204,66.062-72.208l0.563-0.588l-1.128-0.732c-10.747-13.613-318.679-232.279-717.511-98.505
		C508.415,104.433,383.678,166.63,389.237,176.208z"/>
	<path class="st0" d="M492.298,702.383c73.137,15.249,133.403-19.223,133.403-26.937c0-3.727-32.878-38.965-33.799-39.967
		c-28.398,14.284-42.901,22.899-92.886,19.939c-84.319-15.426-184.415-142.859-218.785-163.811c-4.94-3.406-5.575-3.374-9.709,0.492
		c-7.604,6.941-22.848,27.624-22.848,32.461C247.674,526.969,380.664,679.904,492.298,702.383z"/>
	<path class="st0" d="M1181.602,997.293c-50.07-9.65-104.338,10.248-125.83,27.974l-13.305,10.974
		c8.274,10.447,23.913,32.049,34.973,35.884l3.354,2.388c37.723-19.276,65.965-32.956,107.476-23.326
		c62.52,14.505,159.843,86.152,209.37,128.517l0.104-0.095c1.004,0.607,1.558,1.012,2.316,0.799
		c3.303,1.148,28.107-33.306,27.484-37.652l1.25-2.023C1427.794,1139.945,1291.544,1015.03,1181.602,997.293z"/>
	<path class="st0" d="M959.191,879.302c17.035-26.574,12.111-179.332-65.115-276.45c-26.466,31.809-25.366,33.019-34.784,45.615
		l0.028,0.051l-1.025,1.466c52.486,87.026,55.865,126.119,50.967,237.266h2.762l-0.047,0.859
		C943.621,885.488,952.045,890.452,959.191,879.302z"/>
</g>
</svg>
