<?xml version="1.0" encoding="utf-8"?>

<!DOCTYPE svg PUBLIC "-//W3C//DTD SVG 1.1//EN" "http://www.w3.org/Graphics/SVG/1.1/DTD/svg11.dtd">
<svg version="1.1" id="Layer_1" xmlns="http://www.w3.org/2000/svg" xmlns:xlink="http://www.w3.org/1999/xlink" x="0px" y="0px"
	 viewBox="0 0 2269.001 1643.173" enable-background="new 0 0 2269.001 1643.173" xml:space="preserve">
<g>
	<path d="M627.474,888.603c-54.371-0.439-106.013-12.775-155.347-35.208c-57.648-26.214-108.622-62.276-154.984-105.155
		c-38.32-35.441-70.919-75.65-100.204-118.716c-16.452-24.194-33.709-47.806-54.233-68.819
		c-10.138-10.378-20.897-20.078-32.12-29.262c-17.083-13.979-36.475-19.271-58.361-15.729c-6.193,1.002-11.459,3.706-16.632,6.892
		c-3.807,2.345-7.421,5.036-11.727,6.482c-8.777,2.948-13.107,0.407-13.831-8.692c-1.667-20.937,5.871-37.642,23.623-49.303
		c15.501-10.183,32.977-13.683,51.13-14.137c19.203-0.48,37.769,2.984,55.466,10.621c9.264,3.997,17.968,9.045,25.053,16.249
		c3.439,3.497,5.675,3.159,9.222,0.422c7.838-6.05,16.802-9.674,26.646-11.242c12.124-1.931,23.596,0.388,34.762,4.863
		c16.17,6.48,29.696,16.885,42.134,28.827c6.659,6.393,12.807,13.261,18.613,20.444c1.042,1.29,1.594,3.867,3.935,3.054
		c1.675-0.582,1.223-2.705,1.479-4.199c3.551-20.784,8.181-41.314,14.364-61.483c12.3-40.116,29.682-77.697,55.558-111.016
		c40.443-52.076,93.678-82.769,158.112-95.265c36.026-6.986,71.753-5.166,107.64,0.692c29.626,4.836,59.229,10.099,89.347,11.044
		c16.146,0.506,32.121-0.616,47.689-5.323c6.334-1.915,12.161-4.944,18.085-7.843c6.265-3.066,8.064-7.71,6.881-14.157
		c-0.997-5.436-1.905-10.891-2.742-16.355c-0.604-3.943-0.7-7.897,1.097-11.618c2.099-4.347,3.984-5.283,8.804-3.987
		c16.967,4.564,27.214,15.944,30.7,32.726c4.498,21.656-0.911,41.246-15.035,58.3c-4.963,5.993-11.234,10.348-18.533,13.072
		c-2.532,0.945-4.151,1.999-3.372,5.087c3.052,12.111-2.03,22.105-8.323,31.821c-2.267,3.5-6.626,6.358-6.488,10.518
		c0.146,4.405,4.228,7.691,6.771,11.327c8.002,11.44,16.103,22.813,24.279,34.13c46.368,64.181,35.939,143.552-6.224,197.069
		c-40.235,51.071-93.59,75.406-158.5,73.744c-26.99-0.691-52.527-7.961-76.341-20.802c-13.215-7.126-26.233-14.616-39.394-21.843
		c-13.874-7.619-27.851-15.067-43.678-17.893c-10.848-1.937-21.554-1.467-31.772,3.075c-9.127,4.057-13.767,11.815-13.222,21.35
		c0.326,5.702,2.711,10.138,7.692,12.98c2.969,1.694,6.084,3.134,9.144,4.666c3.084,1.544,6.047,3.27,8.193,6.052
		c4.113,5.335,3.367,8.793-2.504,11.936c-19.62,10.506-41.541,7.31-56.982-9.563c-18.81-20.555-25.769-44.929-19.809-72.389
		c3.688-16.997,13.65-29.526,29.459-36.889c4.451-2.073,6.201-4.486,6.21-9.388c0.016-8.77,1.815-17.333,6.226-25.047
		c9.044-15.817,23.449-22.908,41.031-24.266c14.611-1.128,28.212,2.55,40.964,9.591c1.152,0.636,2.209,1.449,3.378,2.046
		c1.117,0.57,2.807,1.684,3.39,1.291c1.23-0.828,0.222-2.357-0.197-3.565c-2.945-8.488-5.138-17.146-5.827-26.134
		c-1.538-20.074,2.378-38.768,14.093-55.483c5.707-8.144,13.058-14.432,21.78-19.113c11.351-6.093,23.267-7.945,35.921-4.814
		c12.76,3.157,25.423,2.36,36.857-4.167c31.928-18.227,71.299,4.753,84.296,29.711c7.272,13.965,9.224,28.421,4.456,43.558
		c-2.61,8.287-3.476,8.733-10.665,4.156c-6.435-4.097-12.515-8.752-18.747-13.167c-5.378-3.81-10.77-7.596-16.914-10.126
		c-12.387-5.099-24.936-2.45-34.125,7.025c-1.781,1.836-2.503,3.922-2.926,6.292c-6.101,34.195,10.116,59.735,42.459,67.681
		c23.358,5.739,45.465,2.453,66.078-10.191c8.11-4.975,12.573-11.644,13.765-21.537c2.935-24.34,3.012-48.346-4.452-71.944
		c-11.388-36.006-34.928-62-67.205-80.542c-31.748-18.239-66.325-26.557-102.662-28.097c-39.022-1.654-76.615,4.689-112.525,20.434
		c-36.37,15.946-64.764,40.971-85.645,74.609c-25.642,41.307-38.817,86.25-38.41,134.918c0.301,35.957,9.355,69.805,26.376,101.47
		c28.885,53.738,69.173,96.526,122.504,126.613c17.76,10.019,36.677,17.27,56.52,22.039c3.072,0.738,6.187,1.303,9.29,1.911
		c2.437,0.477,3.431-0.656,3.224-3.024c-0.305-3.474-1.403-6.745-3.16-9.694c-2.556-4.292-5.143-8.609-8.168-12.57
		c-11.736-15.366-12.728-32.126-5.616-49.312c9.838-23.776,28.893-37.503,52.527-45.777c3.2-1.12,4.929,0.194,6.547,2.611
		c2.531,3.782,4.11,7.952,5.138,12.331c1.33,5.669,2.075,11.459,1.566,17.252c-0.406,4.62,1.093,7.901,4.445,11.082
		c18.492,17.552,40.127,28.788,65.301,33.003c28.177,4.718,55.757,1.352,82.659-7.381c60.755-19.723,111.141-54.794,151.734-103.981
		c21.507-26.06,41.016-53.517,57.174-83.261c7.814-14.384,13.453-29.737,19.941-44.711c4.087-9.432,8.354-18.768,13.715-27.565
		c3.586-5.884,7.725-11.312,12.964-15.834c10.208-8.812,23.516-10.007,35.349-3.53c3.264,1.787,4.008,4.483,4.68,7.669
		c3.785,17.965,2.015,35.643-2.619,53.168c-3.445,13.029-8.423,25.506-14.219,37.647
		c-47.616,99.742-116.851,181.021-208.634,242.745c-48.168,32.394-100.524,55.283-157.802,66.212
		c-11.913,2.273-23.909,4.037-35.993,4.966C648.538,887.773,637.997,888.076,627.474,888.603z M674.923,619.245
		c0.481,0,1.534,0.026,2.585-0.004c6.761-0.197,7.122-0.513,6.668-7.341c-0.888-13.347-7.177-23.389-18.805-30.015
		c-5.97-3.402-12.395-5.688-19-7.554c-13.903-3.929-28.284-5.98-41.981-10.713c-0.908-0.314-2.102-0.896-2.648,0.342
		c-0.202,0.457,0.436,1.439,0.9,2.012c8.269,10.207,15.47,21.267,24.625,30.767C640.157,610.116,655.316,618.716,674.923,619.245z"
		/>
	<path d="M1899.103,551.238c-3.422-87.303-47.872-163.733-135.913-212.982c-79.642-44.551-172.512-23.189-225.698,21.229
		c-18.919,15.801-34.201,34.466-41.117,58.652c-7.134,24.95-5.789,49.602,5.23,73.249c18.235,39.131,55.113,47.646,90.188,35.847
		c8.172-2.749,13.808-8.71,17.431-16.333c7.151-15.046,7.759-30.545,1.464-45.963c-5.991-14.673-18.591-20.575-33.972-16.986
		c-6.902,1.611-11.135,5.51-12.951,12.28c-1.294,4.827-2.446,9.736-5.476,13.876c-3.916,5.351-5.47,5.59-10.89,1.798
		c-11.863-8.3-16.482-20.492-13.136-34.517c1.487-6.235,4.162-11.944,7.752-17.191c8.358-12.215,19.213-21.621,32.577-28.01
		c13.811-6.603,27.896-7.228,42.09-1.247c5.093,2.146,10.035,4.648,15.093,6.881c4.332,1.913,8.649,3.915,13.119,5.451
		c8.892,3.056,17.665,2.887,25.783-2.385c2.902-1.884,5.69-2.105,8.981-1.452c48.743,9.664,72.015,64.713,49.425,103.654
		c-0.529,0.911-1.085,1.806-1.617,2.716c-0.379,0.647-0.974,1.482-0.122,1.962c0.506,0.285,1.46,0.004,2.12-0.255
		c1.96-0.769,3.849-1.72,5.811-2.484c16.497-6.421,33.443-9.557,51.073-6.116c20.199,3.943,29.851,16.661,28.493,37.068
		c-0.14,2.098-0.035,4.36-0.795,6.244c-2.802,6.945,0.099,12.27,4.441,17.25c3.461,3.968,6.873,8,10.596,11.714
		c10.442,10.414,19.316,21.564,20.65,37.095c1.621,18.879-2.87,36.14-13.621,51.619c-8.01,11.533-18.151,20.479-32.481,23.483
		c-9.919,2.079-18.815-0.547-26.994-5.981c-4.297-2.856-4.605-6.64-1.276-10.737c1.681-2.069,3.866-3.562,6.178-4.86
		c3.215-1.804,6.511-3.48,9.637-5.427c11.265-7.016,13.184-20.271,4.214-30.217c-6.472-7.177-14.889-10.688-24.412-11.553
		c-7.719-0.702-15.205,0.622-22.601,2.816c-17.019,5.047-32.699,13.195-48.62,20.789c-19.259,9.186-38.358,18.823-58.972,24.688
		c-112.645,32.046-216.006-38.345-234.969-143.723c-9.467-52.607,4.452-99.634,38.057-140.986c1.328-1.635,2.731-3.211,4.119-4.797
		c7.584-8.667,7.645-8.728,1.452-18.877c-2.604-4.268-5.59-8.303-8.254-12.537c-5.003-7.951-7.191-16.515-3.928-25.611
		c1.457-4.061-0.052-5.934-2.847-8.574c-21.673-20.467-31.954-45.496-27.944-75.337c2.337-17.392,12.142-30.005,28.271-37.367
		c6.27-2.862,7.339-2.401,9.606,4.294c2.471,7.298,3.015,14.953,3.614,22.563c0.498,6.318,1.31,12.566,3.096,18.656
		c2.264,7.723,6.951,13.39,14.129,17.177c12.429,6.556,25.746,8.996,39.632,9.176c21.262,0.275,41.88-4.04,62.458-8.661
		c17.985-4.038,35.927-8.26,53.947-12.16c31.589-6.838,62.547-4.011,92.698,6.223c105.79,35.906,176.923,106.102,209.585,213.784
		c6.273,20.682,10.845,41.783,14.841,63.011c0.438,2.329,0.989,4.639,1.362,6.977c0.527,3.305,2.283,3.153,4.355,1.515
		c2.683-2.12,5.361-4.281,7.804-6.667c9.61-9.387,19.032-18.969,28.708-28.286c8.364-8.054,17.272-15.461,27.516-21.101
		c21.619-11.903,39.708-9.795,57.938,6.774c0.195,0.177,0.391,0.354,0.575,0.542c4.903,5.001,4.639,4.611,9.38,0.527
		c3.181-2.74,6.552-5.371,10.176-7.468c33.577-19.43,69.215-24.123,106.653-14.107c11.057,2.958,21.06,8.316,29.44,16.321
		c11.267,10.761,16.752,24.041,16.932,39.537c0.061,5.245-0.172,5.499-5.25,5.465c-7.429-0.051-14.754-1.151-21.664-3.911
		c-27.316-10.911-52.056-5.281-75.287,11.216c-32.024,22.741-59.397,50.389-84.877,80.046
		c-27.135,31.583-51.989,65.006-78.399,97.175c-26.289,32.021-54.081,62.566-86.381,88.755
		c-53.35,43.258-114.2,69.047-182.238,77.553c-48.537,6.068-96.232,0.539-143.037-13.044
		c-73.19-21.242-138.215-57.987-197.405-105.374c-58.306-46.679-104.587-103.711-141.678-168.242
		c-11.273-19.613-20.872-40.197-28.741-61.495c-3.752-10.155-6.753-20.491-7.804-31.328c-0.359-3.7-0.071-7.333,0.229-11.019
		c1.477-18.155,22.436-25.838,35.729-18.472c7.587,4.204,13.211,10.38,18.201,17.242c8.876,12.204,15.828,25.547,21.966,39.241
		c13.857,30.914,31.592,59.523,50.935,87.194c38.75,55.436,88.479,98.595,147.843,130.666
		c28.218,15.244,58.446,23.756,90.752,24.223c27.998,0.405,53.79-5.721,75.827-24.126c4.316-3.605,7.023-7.578,7.635-13.158
		c0.487-4.445,1.214-8.876,2.086-13.263c0.716-3.602,1.484-7.251,2.782-10.67c3.895-10.262,7.496-12.035,18.113-9.3
		c16.516,4.254,27.802,14.727,34.315,30.143c8.538,20.206,7.634,40.655-0.404,60.777c-3.072,7.692-4.382,8.253,5.954,7.929
		c34.613-1.086,66.307-11.49,94.984-30.676c45.55-30.474,75.288-72.907,92.542-124.453
		C1894.961,619.776,1899.026,593.219,1899.103,551.238z M1580.863,590.021c0,0.79-0.003,1.579,0,2.369
		c0.04,9.526,0.025,9.586,9.571,11.901c21.676,5.258,41.768,1.562,60.307-10.793c17.897-11.927,30.918-28.371,42.685-45.98
		c0.573-0.858,1.63-1.825,1.052-2.804c-0.934-1.585-2.37-0.389-3.422,0.013c-20.715,7.912-42.378,12.53-63.684,18.383
		c-12.441,3.417-24.798,7.075-36.704,12.099C1580.815,579.367,1580.823,579.387,1580.863,590.021z"/>
	<path d="M811.867,1037.56c-0.039-30.376,8.292-53.319,22.404-74.374c15.755-23.506,36.405-42.197,58.721-59.202
		c6.913-5.267,14.037-10.257,21.067-15.37c0.858-0.624,1.902-1.366,1.705-2.418c-0.201-1.074-1.442-1.415-2.496-1.609
		c-5.956-1.095-11.934-2.086-17.869-3.286c-5.158-1.044-10.325-2.122-15.385-3.55c-4.59-1.295-8.794-3.536-12.408-6.739
		c-3.655-3.24-5.056-6.603-3.109-11.802c6.042-16.134,15.469-29.858,27.814-41.705c12.052-11.566,25.77-20.894,40.087-29.348
		c18.371-10.848,37.25-20.882,55.244-32.313c52.843-33.569,86.604-80.674,98.79-142.498c2.908-14.756,4.047-29.74,3.666-44.798
		c-0.108-4.271,0.458-8.212,2.275-12.223c3.968-8.755,4.873-18.271,5.615-27.732c1.049-13.385,1.347-26.831,3.268-40.144
		c1.058-7.333,2.781-14.474,6.252-21.104c6.239-11.919,16.607-16.501,29.43-15.952c12.723,0.544,22.892,5.578,28.249,18.003
		c4.59,10.645,5.345,21.947,5.664,33.271c0.363,12.899-0.317,25.85,0.532,38.707c4.212,63.825,24.467,121.494,66.869,170.357
		c14.06,16.202,30.004,30.389,48.313,41.652c18.844,11.591,38.023,22.634,56.953,34.088c13.559,8.204,26.329,17.487,37.454,28.877
		c11.974,12.26,20.737,26.421,26.161,42.742c1.484,4.463,0.55,7.34-2.603,10.497c-8,8.013-18.125,10.408-28.78,11.245
		c-5.758,0.453-11.581,0.054-17.374,0.095c-0.722,0.005-1.827,0.126-2.09,0.579c-0.758,1.304,0.601,1.831,1.396,2.29
		c14.204,8.19,27.444,17.7,39.567,28.745c22.673,20.657,41.279,44.312,52.971,72.902c12.021,29.394,14.303,59.154,2.485,89.263
		c-2.219,5.653-4.942,11.049-7.93,16.331c-3.534,6.248-7.632,11.698-14.206,15.379c-4.993,2.796-9.174,7.034-13.743,10.596
		c-4.571,3.563-9.151,7.089-14.59,9.34c-3.796,1.571-7.666,2.031-11.606,1.165c-9.376-2.059-11.67-6.583-7.396-15.053
		c2.245-4.45,4.744-8.869,7.764-12.816c12.843-16.786,8.109-39.785-4.697-52.777c-6.725-6.823-14.366-12.405-22.709-16.972
		c-9.006-4.93-18.213-9.497-27.362-14.164c-15.468-7.89-31.54-14.835-43.387-28.289c-1.508-1.712-2.6-1.196-3.096,0.984
		c-0.408,1.796-0.887,3.582-1.447,5.337c-5.801,18.203-21.729,27.781-40.621,24.321c-14.004-2.565-25.498-9.637-35.014-20.054
		c-8.398-9.194-15.099-19.606-21.319-30.328c-13.795-23.781-24.695-48.841-33.244-74.966c-5.202-15.897-7.929-32.162-8.555-48.833
		c-0.218-5.802-0.863-11.575-2.334-17.196c-1.628-6.221-4.442-11.775-9.567-15.993c-2.621-2.157-4.469-2.077-6.356,0.889
		c-3.85,6.052-6.689,12.532-8.702,19.39c-4.395,14.971-6.656,30.375-8.187,45.813c-4.092,41.271-18.531,78.708-40.778,113.388
		c-5.841,9.105-12.115,17.889-19.98,25.407c-7.598,7.262-16.491,12.22-26.765,14.482c-18.532,4.079-33.53-3.502-41.33-20.722
		c-3.189-7.04-3.194-7.049-9.894-3.088c-8.236,4.868-17.211,7.904-26.318,10.6c-9.343,2.766-18.738,5.361-28.045,8.242
		c-7.305,2.261-14.279,5.295-20.968,9.102c-24.166,13.754-22.77,44.777-7.29,59.649c8.087,7.77,17.417,13.578,27.031,19.073
		c9.1,5.201,9.618,8.626,2.287,16.546c-4.868,5.26-11.092,8.37-18.054,8.917c-27.29,2.142-51.494-4.283-68.427-27.553
		C819.009,1087.677,812.607,1061.058,811.867,1037.56z"/>
	<path d="M858.141,1195.447c68.087-1.136,125.412-24.694,172.468-72.752c39.572-40.414,68.872-86.945,85.576-141.155
		c4.754-15.428,8.336-30.963,6.212-47.367c-1.037-8.014,0.367-15.789,5.675-22.378c5.021-6.233,6.647-6.389,12.644-1.289
		c7.855,6.681,12.941,15.154,16.178,24.841c2.51,7.513,4.259,15.223,5.637,22.998c4.623,26.084,14.93,49.884,29.129,72.043
		c32.956,51.434,74.12,95.142,125.067,128.993c46.06,30.603,97.166,43.92,152.394,39.378c34.398-2.829,65.584-14.919,92.89-36.318
		c40.082-31.41,54.478-77.471,40.013-126.316c-4.915-16.597-12.4-31.263-26.466-41.979c-12.221-9.311-25.59-14.507-41.233-12.049
		c-5.855,0.92-11.127,3.188-15.777,6.833c-4.307,3.376-7.095,7.757-8.088,13.169c-1.343,7.323,1.067,12.248,7.689,15.589
		c2.582,1.302,5.349,2.233,7.947,3.507c13.877,6.802,15.94,22.047,4.358,32.33c-4.354,3.866-9.464,6.669-14.345,9.789
		c-1.946,1.244-3.839,1.292-5.985,0.421c-8.292-3.366-16.77-6.282-24.346-11.236c-6.717-4.392-10.992-10.293-12.942-18.147
		c-5.578-22.464-0.802-42.288,14.893-59.307c23.233-25.192,65.65-35.134,97.672-23.046c13.227,4.993,23.833,13.246,31.583,25.16
		c2.97,4.566,3.279,4.561,6.314,0.019c6.731-10.074,13.173-20.342,19.963-30.375c8.591-12.695,17.899-24.904,30.314-34.113
		c30.191-22.397,62.508-25.995,96.622-9.702c8.63,4.122,16.076,10.019,22.301,17.354c18.903,22.274,17.449,48.296-3.984,68.237
		c-8.258,7.683-17.733,13.304-29.235,14.436c-15.847,1.559-26.867-11.099-23.348-26.598c1.058-4.661,4.139-7.834,7.829-10.537
		c3.614-2.647,7.325-5.174,9.854-9.012c4.062-6.164,3.839-10.203-1.068-15.628c-4.982-5.508-11.317-8.505-18.604-9.466
		c-14.234-1.877-27.194,1.585-38.938,9.693c-6.007,4.148-10.273,9.673-12.957,16.531c-4.458,11.391-6.955,23.258-7.851,35.345
		c-2.657,35.857-8.837,71.036-19.123,105.489c-7.505,25.14-17.511,49.14-33.27,70.347c-28.38,38.191-66.462,60.805-113.049,69.252
		c-38.8,7.035-77.172,3.704-115.071-6.168c-54.345-14.156-103.452-38.686-146.41-75.073c-26.842-22.736-47.755-50.423-65.984-80.227
		c-11.954-19.544-23.421-39.385-35.101-59.096c-0.805-1.359-1.5-2.789-2.37-4.104c-2.188-3.306-2.854-3.325-4.411,0.453
		c-5.018,12.18-10.318,24.222-16.565,35.832c-32.026,59.518-75.216,109.121-131.422,146.967
		c-35.407,23.841-73.911,40.524-116.391,46.665c-87.13,12.596-157.544-16.314-210.545-86.566
		c-26.248-34.791-43.213-73.934-52.001-116.663c-4.508-21.918-9.464-43.75-17.532-64.721c-3.227-8.386-7.12-16.434-12.309-23.798
		c-13.258-18.814-30.234-23.302-51.025-13.424c-3.321,1.578-6.431,3.599-9.65,5.395c-2.949,1.645-3.133,3.942-1.611,6.652
		c1.836,3.269,4.425,5.885,7.296,8.229c2.448,1.999,5.035,3.83,7.444,5.874c8.007,6.793,10.103,14.294,6.807,23.992
		c-2.904,8.546-9.983,13.429-20.061,13.84c-32.316,1.315-55.06-31.974-41.139-61.224c20.321-42.696,68.756-58.261,110.269-35.448
		c17.503,9.619,30.493,24.042,41.494,40.419c7.07,10.525,12.876,21.737,18.226,33.21c2.386,5.119,2.495,5.065,6.623,0.876
		c23.269-23.609,51.717-33.455,84.499-31.726c6.343,0.335,12.526,1.633,18.61,3.423c44.411,13.065,55.065,58.21,37.171,90.381
		c-3.229,5.806-7.16,11.068-12.191,15.422c-9.993,8.648-21.445,10.897-33.96,6.992c-10.56-3.294-15.755-11.703-13.911-22.563
		c2.186-12.871,10.216-20.99,22.088-25.639c6.828-2.674,6.843-2.637,4.677-9.329c-5.626-17.389-19.525-25.499-37.51-21.887
		c-23.834,4.787-42.155,25.359-43.956,49.559c-1.787,24.012,1.812,47.376,10.07,69.86c11.187,30.46,33.164,51.444,61.202,66.506
		c24.464,13.143,50.807,20.1,78.377,22.788C841.414,1194.983,850.346,1195.391,858.141,1195.447z"/>
	<path d="M1322.205,1346.724c-0.462,13.731-2.715,27.182-6.295,40.461c-1.085,4.025-2.805,5.378-7.138,5.134
		c-21.67-1.217-40.303-9.485-56.562-23.515c-9.387-8.1-17.759-17.231-26.279-26.211c-6.346-6.688-12.869-13.206-20.136-18.92
		c-1.002-0.788-2.055-2.174-3.388-1.56c-1.855,0.854-0.935,2.759-0.749,4.156c1.366,10.237,4.053,20.162,8.349,29.533
		c6.033,13.158,12.464,26.133,18.724,39.186c5.372,11.202,9.738,22.759,11.806,35.057c3.331,19.813,0.2,38.792-7.704,57.107
		c-7.152,16.574-17.494,31.192-28.086,45.65c-8.093,11.047-16.297,22.013-23.461,33.707c-8.465,13.819-14.863,28.444-17.526,44.541
		c-0.337,2.039,0.071,4.488-2.004,5.73c-2.681,1.605-5.707,2.598-8.188,4.616c-0.654,0.532-1.415-0.156-2.012-0.688
		c-4.292-3.823-9.379-6.842-12.178-12.171c-0.733-1.396-1.771-2.641-2.428-4.066c-11.149-24.188-27.837-44.546-44.526-64.957
		c-13.022-15.926-24.821-32.731-33.907-51.3c-4.652-9.506-8.29-19.358-10.48-29.717c-4.27-20.192-1.006-39.297,8.836-57.266
		c5.436-9.925,11.461-19.526,17.079-29.354c7.799-13.645,13.316-28.052,14.068-43.965c0.062-1.315,0.17-2.63,0.157-3.944
		c-0.055-5.771-0.702-6.181-5.768-3.097c-10.011,6.094-18.088,14.421-25.983,22.927c-8.24,8.878-15.977,18.225-24.77,26.585
		c-12.638,12.016-26.642,21.645-44.495,23.764c-15.212,1.806-14.773,2.364-22.014-11.596c-7.879-15.188-7.78-31.553-4.845-47.871
		c4.308-23.948,15.113-45.286,27.406-66.015c7.223-12.18,16.146-22.618,27.594-31.016c12.74-9.345,25.233-19.026,37.848-28.542
		c11.992-9.046,23.652-18.474,34.66-28.723c12.76-11.88,22.216-25.875,28.681-42.056c5.271-13.193,9.725-26.752,16.528-39.289
		c5.72-10.542,4.194-12.855,15.129-1.796c5.084,5.142,9.192,11.209,11.182,17.987c10.013,34.103,34.091,57.475,59.818,79.678
		c17.145,14.796,35.022,28.745,51.476,44.339c11.69,11.079,22.482,22.939,31.327,36.479
		C1316.049,1297.304,1323.085,1320.879,1322.205,1346.724z"/>
	<path d="M1210.169,153.012c-0.248,12.222-2.794,24.028-6.496,35.615c-3.124,9.776-6.502,19.474-9.417,29.311
		c-2.474,8.349-4.063,16.932-3.491,25.695c0.388,5.941,1.649,6.501,6.755,3.635c6.17-3.464,10.588-8.658,13.809-14.826
		c2.433-4.66,4.776-9.411,6.63-14.321c9.638-25.516,28.08-42.208,52.746-52.462c23.547-9.789,47.816-12.235,72.678-5.583
		c11.085,2.966,21.041,8.182,29.992,15.407c2.842,2.294,3.307,4.249,1.004,7.216c-3.418,4.404-7.135,8.457-11.7,11.664
		c-2.367,1.663-4.747,3.388-7.337,4.639c-19.167,9.255-30.906,24.977-38.359,44.262c-5.026,13.007-9.487,26.231-14.255,39.338
		c-4.148,11.403-8.767,22.581-15.906,32.532c-15.05,20.981-39.655,30.807-63.871,23.652c-28.15-8.318-56.941-10.033-85.905-10.982
		c-16.058-0.526-32.108-0.112-48.168,0.845c-15.942,0.95-31.194,4.638-46.271,9.52c-10.271,3.326-20.599,6.403-31.346,7.951
		c-18.335,2.642-33.164-3.189-44.493-17.836c-6.539-8.455-10.602-18.144-13.835-28.221c-4.672-14.561-7.364-29.616-11.007-44.434
		c-2.075-8.44-4.375-16.803-7.619-24.887c-2.266-5.646-5.063-10.99-8.581-15.958c-6.012-8.489-13.652-14.474-24.194-16.351
		c-4.92-0.876-9.842-2.074-13.99-5.107c-4.434-3.242-4.791-5.335-1.524-9.781c10.086-13.725,23.913-21.098,40.584-23.374
		c22.507-3.073,43.369,2.584,63.36,12.382c9.503,4.657,18.187,10.591,26.129,17.612c10.086,8.917,17.66,19.394,21.231,32.593
		c1.577,5.828,3.212,11.673,5.791,17.188c2.543,5.437,6.215,9.743,11.836,12.158c4.552,1.955,5.548,1.504,6.277-3.314
		c1.358-8.975,0.668-17.904-1.56-26.645c-1.883-7.389-4.233-14.662-6.452-21.963c-4.627-15.23-7.53-30.625-5.657-46.678
		c1.049-8.994,3.626-17.505,6.967-25.831c3.536-8.814,7.966-17.2,12.721-25.406c9.502-16.4,19.032-32.784,28.648-49.118
		c4.816-8.18,10.09-16.071,16.665-22.975c10.468-10.991,19.329-11.371,30.933-1.475c4.443,3.789,8.273,8.182,11.462,13.007
		c14.22,21.52,28.591,42.952,42.265,64.817C1207.138,122.38,1210.53,136.568,1210.169,153.012z"/>
	<path d="M1135.778,350.3c44.709,0.823,91.278,7.566,135.872,25.901c26.177,10.763,43.854,29.607,55.427,54.567
		c11.426,24.642,4.143,51.825-17.467,68.497c-2.07,1.597-4.338,3.026-6.697,4.145c-8.617,4.087-14.089,2.898-20.287-4.289
		c-5.691-6.6-10.328-13.971-15.269-21.117c-17.401-25.164-22.239-28.824-52.314-35.009c-49.696-10.22-99.734-12.369-150.01-4.558
		c-11.478,1.783-22.607,4.894-33.38,9.389c-12.64,5.275-21.371,14.035-26.118,26.918c-2.909,7.893-5.267,16.04-9.556,23.361
		c-6.882,11.749-20.754,15.739-32.841,9.539c-3.824-1.961-6.924-4.841-9.553-8.152c-7.923-9.978-13.172-21.529-18.953-32.757
		c-1.425-2.768-0.575-5.676-0.058-8.521c4.849-26.711,19.069-47.576,40.18-64.07c16.81-13.134,35.798-22.081,56.011-28.566
		C1061.726,355.644,1096.398,350.483,1135.778,350.3z"/>
</g>
</svg>
