<?xml version="1.0" encoding="utf-8"?>
<!DOCTYPE svg PUBLIC "-//W3C//DTD SVG 1.1//EN" "http://www.w3.org/Graphics/SVG/1.1/DTD/svg11.dtd">
<svg version="1.1" id="Layer_1" xmlns="http://www.w3.org/2000/svg" xmlns:xlink="http://www.w3.org/1999/xlink" x="0px" y="0px"
	 viewBox="0 0 1665.0977 1665.0977" enable-background="new 0 0 1665.0977 1665.0977" xml:space="preserve">
<g>
	<path d="M835.7292,799.1367c8.9342-18.2593,19.8098-36.5594,32.1826-54.7327c37.2971-54.7532,83.1322-108.642,117.2817-168.638
		c34.3928-60.4746,55.7766-125.2303,53.0293-196.4615c-25.9192,67.446-67.7347,127.9178-110.6069,186.497
		c-37.4646,51.1873-73.4336,99.646-95.0671,148.5773c-21.6335-48.9313-57.6025-97.39-95.0671-148.5773
		c-42.8722-58.5792-84.6877-119.051-110.6069-186.497c-2.7473,71.2313,18.6365,135.9869,53.0293,196.4615
		c34.1495,59.996,79.9846,113.8848,117.2817,168.638c12.3728,18.1733,23.2484,36.4734,32.1826,54.7327
		c0.6155-11.699,1.7366-23.7328,3.1804-36.0616C833.9927,775.4038,835.1138,787.4377,835.7292,799.1367z"/>
	<path d="M877.53,782.881c-5.119,6.6387-10.0837,13.1385-14.8423,19.5288c6.3904-4.7584,12.8903-9.7231,19.5288-14.8422
		c37.6487-29.0322,78.4385-61.3265,129.3097-87.8466c-22.2272,3.8671-42.8204,9.3353-62.0975,15.948
		c6.6127-19.2772,12.0808-39.8705,15.948-62.0976C938.8566,704.4426,906.5623,745.2324,877.53,782.881z"/>
	<path d="M865.9609,829.3684c-10.2373-0.5386-20.2185-0.68-29.9216-0.3101c0.3699-9.7032,0.2285-19.6844-0.3101-29.9217
		c-1.0945,2.2371-2.146,4.4728-3.1804,6.7083c-1.0344-2.2355-2.0859-4.4712-3.1804-6.7083
		c-0.5386,10.2372-0.6799,20.2185-0.3101,29.9217c-9.7031-0.3699-19.6843-0.2285-29.9216,0.3101
		c2.2371,1.0945,4.4727,2.1459,6.7083,3.1804c-2.2356,1.0345-4.4712,2.0859-6.7083,3.1804
		c10.2373,0.5385,20.2185,0.68,29.9216,0.3101c-0.3699,9.7032-0.2285,19.6844,0.3101,29.9217
		c1.0945-2.2371,2.146-4.4728,3.1804-6.7084c1.0344,2.2355,2.0859,4.4713,3.1804,6.7084
		c0.5386-10.2373,0.6799-20.2185,0.3101-29.9217c9.7031,0.3699,19.6843,0.2285,29.9216-0.3101
		c-2.2371-1.0945-4.4727-2.1459-6.7083-3.1804C861.4883,831.5143,863.7239,830.4629,865.9609,829.3684z M833.5024,833.5024
		c-0.313,1.5212-0.6334,3.0573-0.9536,4.5895c-0.3202-1.5323-0.6406-3.0683-0.9536-4.5895
		c-1.5212-0.3129-3.0573-0.6334-4.5896-0.9536c1.5323-0.3202,3.0684-0.6407,4.5896-0.9536c0.313-1.5213,0.6334-3.0573,0.9536-4.5895
		c0.3202,1.5323,0.6406,3.0682,0.9536,4.5895c1.5212,0.3129,3.0573,0.6334,4.5896,0.9536
		C836.5597,832.869,835.0237,833.1895,833.5024,833.5024z"/>
	<path d="M799.1367,829.3684c-18.2593-8.9342-36.5596-19.8098-54.7328-32.1827c-54.7532-37.2972-108.642-83.1321-168.638-117.2817
		c-60.4746-34.3928-125.2303-55.7765-196.4615-53.0293c67.446,25.9193,127.9178,67.7348,186.4971,110.607
		c51.1872,37.4646,99.6459,73.4337,148.5772,95.0671c-48.9313,21.6335-97.39,57.6025-148.5772,95.0671
		c-58.5793,42.8721-119.0511,84.6877-186.4971,110.6069c71.2313,2.7472,135.9869-18.6365,196.4615-53.0293
		c59.996-34.1495,113.8848-79.9846,168.638-117.2817c18.1732-12.373,36.4735-23.2485,54.7328-32.1827
		c-11.699-0.6155-23.7329-1.7366-36.0618-3.1804C775.4038,831.105,787.4377,829.9839,799.1367,829.3684z"/>
	<path d="M782.8811,787.5676c6.6385,5.1191,13.1384,10.0838,19.5288,14.8422c-4.7585-6.3903-9.7233-12.8901-14.8423-19.5288
		c-29.0322-37.6486-61.3265-78.4384-87.8467-129.3096c3.8672,22.2271,9.3353,42.8204,15.948,62.0976
		c-19.2771-6.6127-39.8704-12.0809-62.0975-15.948C704.4426,726.2411,745.2324,758.5353,782.8811,787.5676z"/>
	<path d="M784.436,446.6622c19.2214,34.2491,35.8103,69.127,48.1128,103.7435c12.3025-34.6165,28.8914-69.4944,48.1128-103.7435
		c41.2695-73.503,88.9397-144.296,117.0422-214.2744c28.1414-70.1652,36.6306-137.7553,11.2583-199.8391
		c-14.0774,72.1891-50.9102,145.3159-91.0768,219.793c-32.5145,60.2847-65.0594,120.7075-85.3365,180.7365
		c-20.2771-60.0289-52.822-120.4517-85.3365-180.7365c-40.1666-74.4771-76.9994-147.6039-91.0768-219.793
		c-25.3723,62.0837-16.8831,129.6738,11.2583,199.8391C695.4963,302.3662,743.1665,373.1592,784.436,446.6622z"/>
	<path d="M781.8885,591.2283c20.2977,31.3693,37.8202,63.1357,50.6603,94.6474c12.8401-31.5117,30.3625-63.2781,50.6603-94.6474
		c41.8363-64.6288,90.2179-127.567,122.1139-193.2979c31.96-65.9324,47.0751-132.9461,33.03-200.4506
		c-20.3586,70.6061-60.4481,138.1778-103.7239,205.2416c-39.5498,61.2835-79.1793,120.9081-102.0803,180.8046
		c-22.901-59.8965-62.5305-119.5211-102.0803-180.8046c-43.2758-67.0638-83.3652-134.6354-103.7239-205.2416
		c-14.045,67.5045,1.0701,134.5181,33.03,200.4506C691.6707,463.6613,740.0522,526.5995,781.8885,591.2283z"/>
	<path d="M829.3684,865.961c-8.9342,18.2593-19.8098,36.5594-32.1826,54.7327c-37.2971,54.7532-83.1322,108.642-117.2817,168.6381
		c-34.3928,60.4746-55.7766,125.2302-53.0293,196.4614c25.9192-67.446,67.7347-127.9177,110.6069-186.4971
		c37.4646-51.1873,73.4336-99.6459,95.0671-148.5771c21.6335,48.9312,57.6025,97.3899,95.0671,148.5771
		c42.8722,58.5793,84.6877,119.051,110.6069,186.4971c2.7473-71.2312-18.6365-135.9868-53.0293-196.4614
		c-34.1495-59.9961-79.9846-113.8849-117.2817-168.6381c-12.3728-18.1733-23.2484-36.4734-32.1826-54.7327
		c-0.6155,11.699-1.7366,23.7328-3.1804,36.0616C831.105,889.6938,829.9839,877.66,829.3684,865.961z"/>
	<path d="M787.5676,882.2166c5.119-6.6386,10.0837-13.1385,14.8423-19.5288c-6.3904,4.7584-12.8903,9.7232-19.5288,14.8423
		c-37.6487,29.0322-78.4385,61.3265-129.3097,87.8466c22.2272-3.8671,42.8204-9.3353,62.0975-15.9481
		c-6.6127,19.2772-12.0808,39.8705-15.948,62.0977C726.2411,960.6551,758.5354,919.8653,787.5676,882.2166z"/>
	<path d="M446.6622,880.6616c34.2492-19.2214,69.127-35.8103,103.7436-48.1128c-34.6166-12.3025-69.4944-28.8914-103.7436-48.1129
		c-73.503-41.2696-144.296-88.9396-214.2744-117.0422c-70.1652-28.1414-137.7553-36.6306-199.8391-11.2582
		c72.1891,14.0773,145.3159,50.91,219.7931,91.0767c60.2847,32.5144,120.7075,65.0594,180.7365,85.3365
		c-60.029,20.2771-120.4517,52.8221-180.7365,85.3365c-74.4772,40.1666-147.6039,76.9995-219.7931,91.0767
		c62.0837,25.3724,129.6738,16.8832,199.8391-11.2582C302.3662,969.6013,373.1592,921.9312,446.6622,880.6616z"/>
	<path d="M591.2283,883.2091c31.3693-20.2978,63.1357-37.8201,94.6475-50.6603c-31.5117-12.8402-63.2782-30.3625-94.6475-50.6603
		c-64.6288-41.8363-127.567-90.2178-193.2979-122.1139c-65.9324-31.9601-132.9461-47.0751-200.4506-33.03
		c70.6061,20.3585,138.1778,60.4481,205.2416,103.7239c61.2835,39.5497,120.9081,79.1793,180.8047,102.0803
		c-59.8966,22.901-119.5212,62.5306-180.8047,102.0803c-67.0638,43.2758-134.6354,83.3653-205.2416,103.7238
		c67.5045,14.045,134.5181-1.0699,200.4506-33.0299C463.6613,973.4269,526.5995,925.0453,591.2283,883.2091z"/>
	<path d="M1232.0193,832.5488c60.0291-20.2771,120.4517-52.8221,180.7365-85.3365
		c74.4772-40.1667,147.6039-76.9995,219.7931-91.0767c-62.0837-25.3724-129.6738-16.8832-199.8391,11.2582
		c-69.9783,28.1027-140.7712,75.7726-214.2743,117.0422c-34.2491,19.2215-69.1271,35.8104-103.7435,48.1129
		c34.6165,12.3025,69.4944,28.8914,103.7435,48.1128c73.5031,41.2696,144.296,88.9396,214.2743,117.0422
		c70.1653,28.1414,137.7554,36.6306,199.8391,11.2582c-72.1892-14.0772-145.3159-50.91-219.7931-91.0767
		C1352.4709,885.3709,1292.0483,852.8259,1232.0193,832.5488z"/>
	<path d="M1081.5715,832.5488c59.8966-22.901,119.5212-62.5306,180.8047-102.0803
		c67.0637-43.2758,134.6355-83.3654,205.2416-103.7239c-67.5045-14.0451-134.5182,1.0699-200.4506,33.03
		c-65.731,31.8961-128.6691,80.2776-193.2979,122.1139c-31.3693,20.2978-63.1357,37.8201-94.6475,50.6603
		c31.5117,12.8401,63.2782,30.3625,94.6475,50.6603c64.6288,41.8362,127.5669,90.2178,193.2979,122.1139
		c65.9324,31.96,132.946,47.075,200.4506,33.0299c-70.6061-20.3585-138.1779-60.448-205.2416-103.7238
		C1201.0928,895.0794,1141.4681,855.4498,1081.5715,832.5488z"/>
	<path d="M950.719,832.5488c48.9313-21.6335,97.39-57.6025,148.5771-95.0671c58.5793-42.8722,119.0511-84.6877,186.4971-110.607
		c-71.2312-2.7472-135.9868,18.6365-196.4614,53.0293c-59.9961,34.1496-113.8849,79.9846-168.6381,117.2817
		c-18.1732,12.3729-36.4735,23.2485-54.7328,32.1827c11.699,0.6155,23.7329,1.7366,36.0618,3.1804
		c-12.3289,1.4438-24.3628,2.5649-36.0618,3.1804c18.2593,8.9342,36.5596,19.8097,54.7328,32.1827
		c54.7532,37.2971,108.642,83.1321,168.6381,117.2817c60.4746,34.3928,125.2302,55.7765,196.4614,53.0293
		c-67.4459-25.9193-127.9177-67.7348-186.4971-110.6069C1048.109,890.1514,999.6503,854.1823,950.719,832.5488z"/>
	<path d="M882.2166,877.5301c-6.6385-5.1191-13.1384-10.0839-19.5288-14.8423c4.7585,6.3903,9.7233,12.8902,14.8423,19.5288
		c29.0322,37.6487,61.3265,78.4385,87.8467,129.3096c-3.8672-22.2272-9.3353-42.8204-15.948-62.0977
		c19.2771,6.6128,39.8704,12.0809,62.0975,15.9481C960.655,938.8566,919.8652,906.5623,882.2166,877.5301z"/>
	<path d="M880.6616,1218.4354c-19.2214-34.2491-35.8103-69.1271-48.1128-103.7435
		c-12.3025,34.6165-28.8914,69.4944-48.1128,103.7435c-41.2695,73.5029-88.9397,144.296-117.0422,214.2743
		c-28.1414,70.1653-36.6306,137.7554-11.2583,199.8391c14.0774-72.1892,50.9102-145.3159,91.0768-219.7931
		c32.5145-60.2848,65.0594-120.7074,85.3365-180.7365c20.2771,60.0291,52.822,120.4517,85.3365,180.7365
		c40.1666,74.4772,76.9994,147.6039,91.0768,219.7931c25.3723-62.0837,16.8831-129.6738-11.2583-199.8391
		C969.6013,1362.7314,921.9312,1291.9384,880.6616,1218.4354z"/>
	<path d="M883.2091,1073.8694c-20.2977-31.3693-37.8202-63.1357-50.6603-94.6474c-12.8401,31.5117-30.3625,63.2781-50.6603,94.6474
		c-41.8363,64.6287-90.2179,127.5669-122.1139,193.2979c-31.96,65.9324-47.0751,132.946-33.03,200.4506
		c20.3586-70.6062,60.4481-138.1779,103.7239-205.2416c39.5498-61.2834,79.1793-120.9082,102.0803-180.8047
		c22.901,59.8965,62.5305,119.5212,102.0803,180.8047c43.2758,67.0637,83.3652,134.6354,103.7239,205.2416
		c14.045-67.5045-1.0701-134.5182-33.03-200.4506C973.427,1201.4363,925.0454,1138.498,883.2091,1073.8694z"/>
</g>
</svg>
