<?xml version="1.0" encoding="UTF-8" standalone="no"?>
<svg xmlns:rdf="http://www.w3.org/1999/02/22-rdf-syntax-ns#" xmlns="http://www.w3.org/2000/svg" height="300mm" width="300mm" version="1.1" xmlns:cc="http://creativecommons.org/ns#" xmlns:dc="http://purl.org/dc/elements/1.1/" viewBox="0 0 1062.9923 1062.9899">
<g fill-rule="evenodd" transform="translate(147.92 -33.662)">
<path d="m276.17 2538.6 153.43-88.6 92.06 124-214.8 124z" fill="#585858"/>
<path d="m-76.716 33.662-0.000574 354.33 355.49 205.24-72.369 125.35-177.17-0.001-177.17 306.86h354.33l205.24-355.5 125.35 72.37-0.001 177.17 306.86 177.17 0.002-354.33-355.5-205.24 72.371-125.35 177.17 0.001 177.17-306.86-354.33-0.00057-205.25 355.5-125.35-72.37 0.001-177.17zm92.059 159.45 122.74 70.867 0.00098 141.73-122.74-70.866zm598.55 3.8167 141.73 0.00068-70.867 122.74-141.73 0.00097zm-531.5 613.72 141.73 0.0007-70.867 122.74-141.73 0.00098zm546.67-86.039 122.74 70.867 0.001 141.73-122.74-70.866 0.00071-141.73z"/>
</g>
</svg>
