<?xml version="1.0" encoding="utf-8"?>

<!DOCTYPE svg PUBLIC "-//W3C//DTD SVG 1.1//EN" "http://www.w3.org/Graphics/SVG/1.1/DTD/svg11.dtd">
<svg version="1.1" id="Layer_1" xmlns="http://www.w3.org/2000/svg" xmlns:xlink="http://www.w3.org/1999/xlink" x="0px" y="0px"
	 viewBox="0 0 1499.804 1775.951" enable-background="new 0 0 1499.804 1775.951" xml:space="preserve">
<g>
	<path d="M606.803,241.648c-9.183,8.46-22.823,3.397-33.795,2.82c8.199,2.326,16.095,6.465,24.754,6.779
		c10.047,0.365,17.697-5.548,23.447-13.238c11.834-16.581,9.148-36.302-8.741-47.145c-37.726-22.866-86.337-0.964-100.366,39.187
		c-17.976,47.027,7.255,102.352,50.425,125.003c32.449,17.026,72.353,17.653,105.096,0.977
		c33.071-16.843,56.701-48.699,67.863-83.638c12.756-39.929,9.666-84.557-9.641-121.903c-20.37-39.402-56.647-68.312-98.406-82.428
		c-66.925-22.624-137.01-6.079-186.396,44.279c-45.255,46.147-64.032,109.577-65.774,172.808
		c-2.662,96.61,46.314,188.513,100.211,265.386c11.171,15.933,22.926,31.416,34.825,46.79
		c-30.577-16.246-63.354-28.525-97.415-36.575c-56.379-13.324-116.792-9.519-170.035,13.788
		c-71.081,31.116-123.391,91.884-156.297,160.915c-40.801,85.594-51.42,184.676-17.074,274.326
		c17.46,45.574,44.441,87.381,79.322,121.521c29.683,29.053,67.699,51.284,108.342,60.354
		c46.396,10.354,92.354,1.845,133.789-20.535c56.325-30.421,93.642-93.233,75.997-157.918
		c-12.486-45.772-47.493-71.314-82.104-100.12c-29.468-24.525-61.529-53.472-60.411-94.791c0.882-21.315,9.857-41.93,28.252-53.792
		c15.742-10.151,37.042-12.728,55.005-7.398c16.146,4.141,27.842,15.549,26.727,33.156c-0.669,10.562-4.711,25.379-14.819,30.714
		c-10.092,5.503-22.902,1.714-33.446-0.176c14.026,4.15,30.917,10.128,42.797-1.959c10.363-10.612,15.525-29.457,12.179-43.753
		c-4.877-21.458-27.266-30.601-46.873-33.551c-33.289-5.009-65.906,10.46-82.032,40.213c-10.261,18.931-13.221,41.872-9.548,63.011
		c8.364,48.127,49.823,81.054,83.394,112.625c22.891,21.528,43.064,44.833,44.917,78.116
		c3.63,65.222-64.314,108.317-122.896,109.638c-63.315,1.428-114.972-41.912-148.276-91.091
		c-23.214-35.456-39.455-75.748-44.667-117.944c-6.561-53.115,3.735-107.583,25.926-156.071
		c21.872-49.132,55.225-95.399,101.396-124.528c48.874-30.834,105.767-35.019,161.037-21.405
		c75.814,19.113,144.822,69.275,188.164,136.769c53.069,82.642,71.767,183.269,75.815,280.022
		c-3.627,68.724-9.405,137.492-20.877,205.391c-12.542,74.228-31.997,148.282-65.099,216.186
		c-26.945,55.273-64.144,110.467-110.059,150.427c-40.6,35.323-97.069,49.852-150.187,44.365
		c-16.815-1.737-33.322-5.787-48.813-12.549c-13.476-5.883-29.445-17.262-37.505-26.667
		c-40.261-47.652-58.881-132.871-3.048-177.015c21.552-18.201,50.903-22.07,77.579-13.989c22.334,6.765,47.009,21.924,57.192,43.862
		c13.353,28.388-1.976,60.111-29.704,72.109c-31.527,13.642-59.586-8.339-70.708-37.643c0.601,2.328,1.094,3.921,1.418,4.83
		c11.04,33.53,43.834,54.659,78.426,39.107c38.792-17.44,52.134-63.611,29.467-99.543c-33.956-53.829-115.277-69.879-165.198-30.124
		c-68.208,54.319-60.016,154.549-13.096,220.302c28.353,38.661,74.797,60.87,121.803,66.405
		c65.531,7.716,135.235-6.856,187.165-48.907c54.922-44.982,98.995-103.809,131.671-166.535
		c34.603-66.424,57.192-138.609,72.399-211.764c11.063-53.223,18.372-107.142,23.521-161.24c2.398-25.193,5.478-50.795,6.011-76.106
		c0.542-25.767-2.43-52.237-5.388-77.798c-13.743-118.76-64.092-236.993-125.701-338.705
		c-27.487-45.378-59.458-87.789-86.848-133.243c-46.729-77.548-87.971-168.592-67.251-260.904
		c14.361-63.98,66.668-123.387,138.109-109.249c48.707,9.607,90.312,50.095,87.665,103.834c-0.685,13.908-3.845,27.205-9.99,39.908
		c-12.533,25.905-41.554,48.95-70.8,42.536c-19.289-3.281-36.383-11.852-47.229-28.796c-12.929-20.199-16.252-51.338,0.204-70.651
		c8.707-10.219,21.547-15.965,34.976-15.636c8.985,0.22,21.128,1.942,26.411,10.042
		C619.537,221.638,613.546,235.435,606.803,241.648z"/>
	<path d="M1423.541,758.805c-24.024-59.486-61.523-114.458-113.172-153.178c-58.949-44.192-132.928-60.765-205.463-48.528
		c-39.91,6.733-79.03,20.333-115.052,39.516c8.584-10.914,17.077-21.891,25.219-33.115c30.09-41.475,57.45-85.363,77.75-132.518
		c29.923-69.508,42.696-149.082,20.604-222.803c-19.817-66.131-67.292-125.872-135.882-144.764
		c-71.618-19.726-156.637,11.369-196.469,74.636c-42.111,66.886-28.83,165.617,39.132,210.958
		c30.893,20.61,69.691,24.53,104.32,11.722c47.63-17.617,75.797-67.328,66.628-117.305c-7.774-42.374-48.824-72.219-91.441-58.129
		c-21.933,7.099-36.752,27.122-23.478,49.198c5.852,9.201,14.16,17.174,25.804,16.752c8.658-0.314,16.555-4.453,24.754-6.779
		c-10.972,0.577-24.612,5.64-33.795-2.82c-6.743-6.212-12.734-20.009-7.182-28.521c5.282-8.1,17.426-9.822,26.411-10.042
		c13.429-0.329,26.27,5.417,34.976,15.636c16.456,19.313,13.133,50.452,0.204,70.651c-10.845,16.944-27.939,25.515-47.229,28.796
		c-30.383,6.663-59.931-18.091-72.032-45.186c-5.354-11.989-8.118-24.272-8.758-37.259c-2.647-53.74,38.958-94.227,87.665-103.834
		c9.491-1.878,19.169-2.885,28.844-2.205c68.143,4.795,105.629,73.148,113.175,133.849c11.932,95.974-38.216,188.232-88.414,266.148
		c-25.71,39.905-54.689,77.746-77.477,119.48c-44.789,82.026-89.013,169.62-107.836,261.666
		c-5.373,26.276-9.164,52.869-11.71,79.563c-2.29,24.005-4.572,48.441-2.911,72.536c3.748,54.383,8.908,108.715,17.263,162.6
		c13.498,87.05,35.666,172.552,72.705,252.672c29.891,64.657,72.193,122.287,123.23,171.826
		c42.934,41.674,97.669,64.695,157.77,68.091c56.568,3.196,117.511-11.129,158.089-52.883
		c51.834-53.336,69.703-148.846,23.68-210.87c-14.968-20.172-35.958-36.802-60.425-43.539
		c-41.333-11.382-85.133,3.609-115.407,32.83c-32.237,31.116-34.257,85.417,6.502,110.691c12.32,7.64,27.754,12.161,42.233,9.961
		c22.912-3.481,38.949-23.088,45.814-44.216c0.325-0.925,0.802-2.479,1.382-4.725c-11.165,29.416-39.45,51.44-71.032,37.51
		c-27.769-11.637-42.501-44.079-29.379-71.976c10.585-22.803,36.796-38.41,60.156-44.711c25.913-6.989,53.906-2.653,74.616,14.838
		c55.763,44.089,37.257,129.143-2.896,176.831c0.332-0.433-3.037,3.197-3.503,3.676c-2.231,2.293-4.547,4.476-7.009,6.529
		c-8.585,7.155-18.314,12.791-28.537,17.254c-15.255,6.659-31.623,10.125-48.108,12.021c-52.553,6.043-109.471-9.618-149.5-44.444
		c-39.255-34.139-72.653-80.744-97.909-126.953c-73.623-134.698-90.183-294.196-98.126-445.029
		c4.084-97.674,23.107-199.416,77.38-282.459c24.948-38.173,57.314-71.083,96.012-95.347c27.249-17.085,61.633-31.708,90.587-39.007
		c37.316-9.192,75.089-11.095,112.56-0.59c32.822,9.202,63.223,28.883,87.107,52.999c52.667,53.177,86.844,130.058,90.404,204.799
		c3.373,70.799-23.619,140.099-69.5,192.879c-21.997,25.305-51.397,45.919-83.636,55.378
		c-38.701,11.355-79.563,4.348-113.541-16.741c-18.837-11.691-35.483-27.228-44.342-48.619
		c-15.33-37.016-2.148-76.901,25.12-104.226c28.409-28.469,62.223-53.099,82.859-88.329c18.531-31.637,21.477-73.029,1.38-104.796
		c-21.189-33.493-63.911-44.568-99.972-29.724c-22.878,9.001-32.135,31.761-23.699,54.633c3.578,9.7,9.311,20.058,19.843,23.283
		c10.827,3.316,22.435-1.187,32.771-4.245c-10.544,1.891-23.354,5.679-33.446,0.176c-8.776-4.631-12.514-16.208-14.153-25.333
		c-3.262-18.157,5.893-32.582,23.426-37.814c32.982-9.842,69.505,3.781,81.683,37.36c28.166,77.659-71.718,119.142-111.569,167.198
		c-31.976,38.56-40.474,91.959-19.494,137.844c10.342,22.619,26.622,40.661,46.049,55.739
		c27.193,21.105,60.246,35.065,94.453,39.063c51.883,6.064,103.159-11.485,144.714-42.099
		c36.039-27.57,64.779-62.569,86.293-102.459c22.172-42.056,36.103-87.425,39.056-135.024
		C1453.998,861.944,1443.553,808.357,1423.541,758.805z"/>
</g>
</svg>
