<?xml version="1.0" standalone="no"?>
<!DOCTYPE svg PUBLIC "-//W3C//DTD SVG 20010904//EN"
 "http://www.w3.org/TR/2001/REC-SVG-20010904/DTD/svg10.dtd">
<svg version="1.0" xmlns="http://www.w3.org/2000/svg"
 width="1280.000000pt" height="1278.000000pt" viewBox="0 0 1280.000000 1278.000000"
 preserveAspectRatio="xMidYMid meet">
<metadata>
Created by potrace 1.15, written by Peter Selinger 2001-2017
</metadata>
<g transform="translate(0.000000,1278.000000) scale(0.100000,-0.100000)"
fill="#000000" stroke="none">
<path d="M6393 12743 c-6 -15 -19 -64 -28 -108 -10 -44 -21 -84 -25 -90 -4 -5
-13 -39 -20 -75 -6 -36 -16 -70 -21 -76 -5 -7 -9 -16 -8 -20 1 -5 -1 -16 -4
-24 -3 -8 -11 -42 -17 -75 -7 -33 -15 -64 -19 -70 -4 -5 -13 -37 -20 -70 -7
-33 -18 -65 -23 -72 -5 -7 -7 -17 -3 -23 4 -6 2 -16 -3 -23 -5 -7 -13 -32 -17
-57 -4 -25 -13 -58 -20 -75 -8 -16 -21 -66 -29 -109 -9 -44 -20 -84 -25 -90
-5 -6 -12 -31 -16 -56 -4 -25 -13 -58 -20 -75 -8 -16 -21 -66 -29 -109 -9 -44
-20 -84 -25 -90 -5 -6 -14 -42 -21 -81 -7 -38 -17 -76 -23 -82 -5 -7 -6 -13
-2 -13 4 0 3 -6 -2 -12 -6 -7 -16 -42 -23 -78 -6 -36 -15 -69 -19 -75 -5 -5
-14 -39 -21 -75 -7 -36 -17 -70 -22 -76 -5 -7 -8 -16 -7 -20 1 -5 -1 -16 -4
-24 -3 -8 -11 -42 -17 -75 -7 -33 -16 -64 -20 -70 -4 -5 -15 -46 -24 -89 -9
-44 -20 -84 -25 -90 -4 -6 -14 -40 -20 -76 -7 -36 -18 -78 -26 -95 -7 -16 -16
-50 -20 -75 -11 -68 -20 -80 -62 -80 -32 0 -89 -12 -133 -28 -27 -9 -34 -11
-105 -30 -38 -10 -77 -21 -85 -24 -8 -4 -37 -11 -65 -18 -27 -6 -63 -18 -80
-25 -65 -29 -64 -29 -170 88 -55 61 -100 116 -100 123 0 6 -17 32 -38 57 -20
25 -37 51 -37 59 0 7 -7 23 -15 35 -8 11 -19 54 -25 94 -6 41 -16 82 -21 91
-5 10 -9 35 -9 55 -1 54 -25 204 -37 228 -5 11 -17 34 -26 50 -9 17 -24 45
-32 64 -9 18 -25 35 -36 38 -10 3 -19 10 -19 16 0 12 -7 20 -171 192 -68 72
-141 152 -163 178 -44 55 -57 56 -27 3 12 -20 18 -36 15 -36 -3 0 3 -12 13
-28 10 -15 23 -35 28 -44 6 -9 38 -58 73 -109 34 -51 62 -101 62 -111 0 -10 7
-21 15 -24 8 -4 15 -12 15 -19 0 -7 6 -18 14 -24 8 -7 22 -38 32 -69 10 -31
22 -60 27 -63 17 -12 25 -162 20 -364 -5 -178 -4 -205 11 -237 10 -20 15 -42
11 -47 -3 -6 1 -21 9 -33 9 -12 16 -29 16 -36 0 -8 11 -27 25 -44 14 -16 25
-36 25 -45 0 -8 15 -33 34 -56 31 -38 69 -108 70 -131 1 -4 -13 -16 -31 -25
-123 -62 -204 -105 -238 -126 -22 -14 -56 -33 -75 -43 -19 -9 -63 -36 -97 -60
-34 -23 -65 -42 -68 -42 -4 0 -20 -9 -35 -20 -27 -19 -31 -20 -62 -5 -52 25
-101 53 -107 62 -3 4 -22 16 -41 26 -19 9 -55 29 -80 43 -93 54 -121 70 -197
114 -42 25 -97 57 -122 72 -26 15 -57 33 -71 40 -14 7 -48 27 -77 45 -29 18
-55 33 -58 33 -4 0 -19 9 -34 19 -14 11 -47 30 -71 44 -25 13 -74 41 -110 62
-36 20 -85 49 -110 63 -25 14 -57 33 -72 43 -14 11 -29 19 -32 19 -4 0 -25 11
-47 26 -43 27 -90 54 -154 89 -22 12 -76 44 -120 70 -44 26 -100 59 -125 73
-25 13 -61 34 -81 46 -20 11 -71 41 -114 66 -43 25 -99 57 -124 72 -25 15 -57
33 -71 40 -14 7 -51 29 -83 50 -32 21 -62 38 -66 38 -5 0 -25 12 -46 26 -21
14 -49 30 -62 35 l-23 9 16 -33 c10 -17 28 -50 42 -71 13 -22 34 -58 46 -80
33 -61 62 -110 90 -155 15 -22 26 -43 26 -46 0 -3 11 -24 26 -46 29 -46 57
-95 91 -157 13 -24 34 -60 48 -80 14 -20 25 -40 25 -45 0 -5 14 -28 30 -52 16
-24 30 -46 30 -50 0 -3 16 -31 35 -61 19 -30 35 -58 35 -62 0 -4 11 -23 24
-43 25 -36 37 -57 96 -164 18 -33 38 -67 46 -75 7 -8 17 -26 23 -40 6 -14 25
-47 41 -75 33 -56 58 -99 95 -163 14 -23 36 -61 50 -85 14 -23 33 -58 42 -77
10 -19 32 -56 50 -82 18 -26 39 -62 48 -80 19 -41 40 -78 85 -148 34 -54 58
-96 100 -175 11 -22 32 -58 45 -80 59 -97 60 -100 36 -133 -11 -17 -21 -33
-21 -37 0 -4 -18 -33 -39 -65 -21 -31 -49 -74 -61 -96 -12 -21 -32 -57 -46
-79 -13 -22 -35 -62 -49 -90 -13 -27 -33 -66 -44 -85 -20 -36 -54 -110 -65
-144 -5 -15 -9 -17 -18 -8 -7 7 -18 12 -25 12 -7 0 -33 16 -59 35 -25 19 -50
35 -55 35 -5 0 -32 15 -61 34 -29 18 -64 37 -78 41 -14 4 -49 18 -78 31 -29
13 -67 24 -86 24 -18 0 -35 3 -39 6 -8 8 -148 7 -170 -2 -10 -3 -84 -4 -165
-1 -132 5 -164 10 -237 38 -43 16 -51 20 -80 38 -16 11 -37 20 -46 20 -9 1
-53 28 -97 61 -45 33 -84 60 -87 60 -3 0 -24 14 -47 30 -22 16 -48 30 -55 30
-8 0 -27 8 -41 19 -38 26 -131 65 -139 57 -3 -3 1 -6 10 -6 9 0 17 -4 17 -10
0 -5 19 -18 42 -30 24 -11 52 -26 64 -33 33 -20 154 -140 167 -166 7 -13 21
-29 32 -35 11 -6 56 -45 101 -86 73 -68 183 -140 214 -140 7 0 26 -6 43 -14
18 -8 84 -19 147 -25 63 -6 138 -18 165 -25 28 -8 73 -20 100 -26 28 -6 59
-20 71 -31 11 -10 24 -19 28 -19 11 0 138 -104 210 -171 35 -32 68 -59 73 -59
6 0 17 -8 27 -18 15 -17 15 -22 2 -47 -8 -15 -17 -50 -21 -76 -4 -27 -11 -52
-16 -55 -6 -3 -7 -14 -4 -24 3 -10 1 -21 -4 -24 -5 -4 -15 -32 -21 -64 -7 -31
-15 -61 -19 -67 -12 -19 -30 -100 -31 -136 0 -20 -6 -41 -12 -46 -7 -6 -44
-16 -83 -23 -38 -7 -83 -18 -100 -26 -16 -7 -59 -18 -95 -25 -36 -6 -71 -16
-77 -22 -7 -5 -13 -6 -13 -2 0 4 -6 3 -12 -2 -7 -6 -44 -16 -83 -23 -38 -7
-75 -16 -81 -21 -6 -5 -46 -16 -90 -25 -43 -8 -92 -21 -109 -29 -16 -7 -50
-16 -75 -20 -25 -4 -49 -11 -55 -15 -5 -4 -46 -15 -90 -24 -44 -10 -89 -22
-100 -27 -17 -7 -115 -33 -165 -43 -8 -2 -22 -6 -30 -9 -8 -4 -42 -13 -75 -21
-132 -33 -383 -100 -405 -108 -8 -4 -51 -14 -95 -24 -44 -9 -84 -20 -90 -24
-5 -4 -30 -11 -55 -15 -25 -4 -58 -13 -75 -20 -16 -8 -66 -21 -109 -29 -44 -9
-84 -20 -90 -25 -6 -5 -42 -14 -81 -21 -38 -7 -76 -17 -82 -23 -7 -5 -13 -6
-13 -2 0 4 -6 3 -12 -3 -7 -5 -46 -15 -85 -22 -40 -7 -73 -16 -73 -20 0 -4 33
-12 73 -19 39 -7 86 -19 102 -27 17 -7 59 -18 95 -25 36 -6 70 -16 76 -20 6
-5 46 -16 90 -25 43 -8 93 -21 109 -29 17 -7 50 -16 75 -20 25 -4 51 -12 57
-17 7 -6 19 -8 28 -5 8 4 17 2 19 -2 3 -4 34 -14 68 -21 35 -7 68 -16 73 -20
6 -4 48 -15 95 -25 47 -9 90 -21 95 -25 6 -4 39 -13 75 -20 36 -7 70 -16 75
-20 6 -4 48 -16 95 -25 47 -10 90 -21 95 -25 6 -5 37 -13 69 -20 33 -7 67 -16
75 -20 9 -5 50 -16 91 -25 41 -9 84 -20 95 -25 11 -4 56 -16 100 -26 44 -9 85
-20 90 -24 6 -4 30 -11 55 -15 25 -4 59 -13 75 -20 17 -8 66 -21 109 -29 44
-9 84 -20 90 -25 6 -5 43 -14 81 -21 39 -7 75 -17 81 -21 6 -5 51 -17 99 -27
53 -10 91 -23 96 -32 4 -8 13 -46 19 -85 7 -38 16 -74 20 -80 4 -5 13 -38 20
-73 7 -34 17 -65 22 -68 5 -3 6 -14 3 -24 -3 -10 -1 -21 4 -24 5 -4 15 -32 21
-64 7 -31 15 -61 19 -67 4 -5 14 -37 21 -70 8 -33 22 -77 33 -97 22 -44 16
-58 -23 -58 -16 0 -31 -4 -34 -9 -3 -5 -23 -12 -43 -15 -111 -19 -197 -45
-289 -87 -22 -11 -45 -19 -51 -19 -6 0 -97 -87 -204 -193 -203 -202 -233 -224
-359 -262 -30 -9 -64 -21 -75 -25 -19 -8 -45 -13 -130 -26 -22 -3 -49 -9 -60
-14 -11 -4 -55 -16 -99 -25 -43 -10 -95 -26 -117 -36 -21 -11 -43 -19 -49 -19
-5 0 -10 -4 -10 -10 0 -13 13 -13 27 1 14 14 234 28 440 29 83 0 154 4 157 8
3 5 38 14 78 22 40 7 84 21 97 31 13 11 32 19 42 19 10 0 23 9 29 20 6 11 17
20 24 20 7 0 48 30 92 68 76 65 111 89 164 113 14 6 39 17 55 25 46 22 128 34
273 41 73 3 135 10 138 15 3 4 27 8 55 8 47 0 50 -1 66 -38 10 -20 25 -49 35
-64 10 -15 35 -60 55 -100 19 -40 56 -102 82 -138 70 -98 73 -106 55 -143 -8
-18 -26 -50 -39 -72 -37 -62 -68 -114 -93 -159 -12 -22 -33 -59 -47 -81 -13
-22 -34 -58 -45 -80 -12 -22 -34 -60 -50 -85 -16 -25 -36 -58 -45 -75 -22 -42
-90 -159 -181 -314 -12 -20 -33 -57 -47 -82 -13 -25 -37 -66 -53 -90 -15 -24
-35 -57 -44 -74 -19 -36 -23 -43 -100 -173 -33 -56 -60 -105 -60 -107 0 -3
-16 -29 -35 -59 -19 -30 -35 -58 -35 -61 0 -4 -8 -19 -19 -33 -17 -25 -45 -74
-96 -167 -23 -41 -71 -123 -112 -187 -13 -21 -23 -42 -23 -46 0 -5 -8 -20 -19
-33 -10 -13 -33 -51 -51 -84 -18 -33 -41 -72 -51 -87 -11 -14 -19 -30 -19 -36
0 -5 -9 -21 -20 -34 -11 -14 -24 -38 -30 -53 l-11 -28 26 17 c14 9 45 27 68
40 76 41 142 79 152 86 11 8 65 40 130 75 22 12 87 50 145 84 131 77 138 81
175 101 17 9 55 31 85 51 30 19 66 40 80 47 27 14 74 41 195 112 42 25 95 55
118 68 23 13 60 34 82 48 22 13 58 33 80 45 22 11 60 33 85 49 25 16 59 36 75
45 17 9 53 29 80 45 28 16 66 37 85 47 19 10 60 34 90 53 69 44 106 65 148 85
18 9 54 30 80 48 26 18 65 41 86 52 46 23 104 56 161 90 96 58 95 58 113 42
10 -9 55 -35 102 -60 47 -24 122 -69 167 -100 45 -30 93 -59 105 -63 13 -3 43
-17 68 -29 25 -13 73 -35 108 -50 34 -15 62 -29 62 -30 0 -9 -46 -98 -70 -135
-16 -25 -34 -54 -39 -65 -5 -12 -16 -26 -24 -33 -8 -7 -18 -25 -22 -40 -3 -15
-17 -44 -31 -64 -13 -21 -24 -46 -24 -56 0 -10 -5 -23 -12 -30 -7 -7 -8 -12
-4 -12 5 0 2 -7 -5 -17 -11 -13 -14 -74 -14 -297 0 -244 -3 -286 -17 -316 -10
-19 -24 -54 -33 -78 -8 -24 -24 -55 -35 -69 -11 -14 -20 -33 -20 -41 0 -9 -6
-23 -14 -31 -27 -31 -166 -241 -166 -251 0 -6 -11 -28 -25 -50 -14 -22 -25
-48 -25 -59 0 -11 -5 -23 -10 -26 -13 -8 -13 -25 -1 -25 5 0 13 10 16 23 4 12
25 45 46 74 22 29 39 56 39 60 0 4 60 68 133 143 72 75 147 152 164 172 36 38
83 105 83 116 0 4 7 21 16 37 18 32 43 174 44 242 0 23 4 44 9 47 4 3 11 36
15 72 8 77 37 153 78 204 15 19 28 40 28 47 0 8 50 67 110 132 61 65 110 123
110 129 0 5 9 21 21 36 14 18 25 24 33 17 6 -5 16 -10 21 -11 6 -1 20 -6 31
-11 12 -4 39 -11 60 -15 22 -3 44 -10 49 -14 6 -4 53 -15 105 -25 52 -9 102
-20 111 -25 9 -5 38 -11 65 -15 72 -10 90 -26 99 -82 4 -26 13 -61 20 -78 8
-16 19 -57 25 -90 6 -33 14 -67 17 -75 4 -8 7 -17 8 -20 1 -3 4 -12 8 -20 3
-8 11 -39 17 -69 6 -30 14 -59 19 -65 5 -6 14 -42 21 -81 7 -38 17 -76 23 -82
5 -7 6 -13 2 -13 -4 0 -3 -6 2 -12 6 -7 16 -42 22 -78 7 -36 18 -78 26 -95 7
-16 16 -51 20 -78 4 -26 11 -50 16 -53 5 -3 7 -10 3 -15 -3 -5 -2 -15 4 -22 5
-7 15 -41 22 -77 7 -36 16 -69 20 -75 5 -5 16 -48 25 -95 9 -47 21 -89 25 -95
5 -5 14 -39 20 -75 7 -36 17 -71 23 -77 5 -7 6 -13 2 -13 -4 0 -3 -6 2 -12 6
-7 16 -44 23 -83 7 -38 16 -75 21 -81 5 -6 13 -35 19 -65 6 -30 14 -61 17 -69
4 -8 8 -22 10 -30 10 -51 37 -150 48 -175 7 -16 16 -51 20 -78 4 -26 11 -50
16 -52 4 -3 6 -12 2 -20 -3 -9 -1 -21 5 -28 5 -6 15 -37 21 -67 7 -30 16 -64
21 -75 5 -11 16 -54 25 -95 9 -41 20 -84 25 -95 5 -11 10 -27 13 -35 2 -8 7 5
12 30 4 25 11 50 15 55 4 6 15 46 24 90 10 44 21 89 26 100 5 11 14 45 21 75
7 30 17 60 22 67 5 7 6 17 2 23 -4 6 -3 16 2 23 6 7 16 39 23 72 7 33 16 65
20 70 4 6 13 39 20 75 7 36 17 70 21 76 5 6 6 14 2 17 -3 4 -1 12 4 19 6 7 16
42 23 78 7 36 16 70 20 75 4 6 16 48 25 95 10 47 21 90 25 95 4 6 13 35 19 65
7 30 16 64 21 75 4 11 16 54 25 95 9 41 20 84 25 95 5 11 14 46 20 77 6 32 16
60 21 64 6 3 8 13 5 21 -4 9 -3 21 2 27 5 6 15 38 22 71 7 33 17 65 20 70 4 6
13 40 20 78 7 37 16 70 21 73 5 3 7 10 3 15 -3 5 -1 15 4 22 5 7 15 41 22 77
6 36 15 70 20 75 4 6 16 48 25 95 10 47 21 90 25 95 5 6 13 37 20 70 7 33 16
65 20 70 5 6 11 31 15 57 4 26 12 51 19 56 6 5 38 13 70 17 33 4 66 11 75 15
9 5 58 16 109 26 51 9 95 20 98 25 3 5 14 9 24 9 26 0 231 69 249 83 19 16 51
-26 51 -67 0 -17 7 -44 16 -61 8 -16 13 -37 11 -47 -3 -10 -1 -20 3 -23 5 -3
12 -27 16 -53 3 -26 12 -60 20 -77 7 -16 20 -49 28 -73 17 -49 62 -116 101
-152 15 -14 31 -35 36 -48 5 -12 19 -26 32 -31 32 -12 235 -219 253 -256 7
-16 24 -48 37 -70 13 -22 32 -74 42 -115 10 -41 22 -79 26 -85 4 -5 12 -50 19
-100 7 -49 17 -95 22 -102 6 -7 7 -17 4 -22 -4 -5 -2 -12 3 -15 5 -4 12 -25
16 -49 8 -46 42 -133 50 -125 3 3 1 29 -5 58 -5 29 -10 133 -10 231 0 108 -4
180 -10 184 -5 3 -10 36 -11 73 -1 137 -40 267 -93 312 -9 7 -16 19 -16 27 0
7 -7 16 -15 19 -8 4 -15 11 -15 18 0 6 -25 39 -55 73 -30 33 -55 68 -55 76 0
8 -7 20 -14 27 -17 14 -50 80 -64 130 -6 19 -15 52 -22 72 -6 20 -11 54 -11
75 1 57 -17 304 -23 328 -5 18 7 27 82 64 48 24 108 58 133 77 26 19 50 34 55
34 4 0 15 6 23 14 9 8 49 32 90 53 40 21 84 44 97 51 19 11 28 10 58 -5 34
-17 143 -80 235 -135 26 -15 57 -33 71 -40 14 -7 48 -27 77 -45 29 -18 55 -33
58 -33 4 0 19 -8 33 -19 15 -10 47 -29 72 -43 25 -14 74 -43 110 -63 71 -41
138 -79 185 -105 17 -8 55 -31 85 -51 30 -19 66 -40 80 -47 14 -7 48 -26 75
-42 28 -16 66 -37 85 -47 19 -10 56 -32 82 -50 26 -18 62 -39 80 -48 18 -9 56
-29 83 -45 28 -16 65 -36 83 -45 18 -9 54 -30 80 -48 26 -18 63 -40 82 -50 19
-10 58 -31 85 -47 28 -16 61 -35 75 -42 14 -7 50 -28 80 -47 30 -20 69 -43 85
-51 85 -46 229 -129 268 -154 33 -22 34 -13 5 34 -24 39 -56 95 -88 155 -11
22 -32 58 -45 80 -13 22 -35 58 -47 79 -13 22 -35 60 -50 85 -15 25 -36 64
-48 86 -11 22 -32 58 -45 80 -13 22 -34 56 -45 75 -11 19 -34 58 -50 85 -17
28 -33 57 -37 65 -3 8 -33 60 -66 115 -33 55 -70 118 -82 140 -44 81 -78 140
-85 150 -8 10 -34 55 -76 130 -12 22 -45 78 -73 125 -28 47 -58 99 -66 115 -9
17 -29 53 -45 80 -17 28 -38 66 -47 85 -10 19 -21 36 -25 38 -4 2 -17 22 -28
45 -11 23 -31 60 -44 82 -35 57 -72 123 -96 172 -11 23 -24 43 -28 45 -4 2
-16 21 -27 42 -43 85 -55 105 -65 111 -6 3 7 28 30 60 22 30 40 57 40 61 0 3
15 27 34 53 30 40 94 155 145 258 15 30 19 32 69 33 29 0 60 -4 70 -9 9 -5 85
-14 169 -19 111 -8 163 -16 195 -30 23 -11 54 -23 68 -27 31 -9 69 -35 137
-92 28 -24 54 -43 59 -43 4 0 31 -20 60 -45 28 -25 58 -45 64 -45 7 0 27 -8
44 -19 17 -10 56 -24 86 -30 30 -7 64 -16 75 -21 11 -5 135 -11 275 -14 140
-3 273 -8 295 -11 36 -5 37 -4 15 6 -14 6 -36 17 -50 24 -14 6 -59 17 -100 24
-41 7 -83 17 -92 22 -10 5 -50 14 -90 20 -40 7 -77 15 -83 19 -5 4 -27 11 -49
14 -104 19 -225 99 -346 229 -132 142 -227 231 -258 240 -16 5 -125 49 -167
67 -11 5 -58 16 -105 25 -47 9 -89 20 -94 25 -6 6 -25 10 -43 10 -18 0 -33 3
-33 6 0 18 33 115 41 120 5 3 7 9 4 14 -3 4 2 21 10 36 8 16 15 36 15 44 0 8
6 26 13 40 8 14 22 62 32 105 10 44 22 85 26 90 4 6 12 37 19 70 7 33 16 65
20 70 5 6 12 34 16 63 3 28 12 56 18 61 6 5 49 17 96 26 47 9 90 20 95 25 6 4
39 13 75 20 36 7 70 16 75 20 6 5 48 16 95 25 47 9 90 21 95 25 6 5 39 14 75
20 36 7 70 17 77 22 7 5 17 7 22 4 5 -4 12 -2 15 3 3 5 36 14 73 21 38 7 73
16 79 21 6 5 46 16 90 25 43 8 93 21 109 29 17 7 50 16 75 20 25 4 50 11 55
15 6 4 46 15 90 24 44 10 87 20 95 24 19 7 133 38 235 63 44 10 89 23 100 29
11 5 47 14 80 21 33 6 65 15 71 20 6 5 14 6 17 2 4 -3 12 -1 19 4 7 6 42 16
78 23 36 6 70 15 75 19 6 5 48 16 95 26 47 9 90 21 95 25 6 4 30 11 55 15 25
4 70 15 100 25 30 10 81 24 113 30 31 6 57 15 57 20 0 5 -26 14 -57 20 -32 6
-65 14 -73 17 -27 11 -34 13 -110 30 -41 10 -79 21 -85 24 -5 4 -48 15 -95 24
-47 10 -89 21 -95 25 -5 5 -37 13 -69 20 -33 7 -67 16 -75 21 -9 4 -54 17
-101 28 -96 23 -217 55 -240 63 -8 4 -49 14 -90 23 -41 9 -84 20 -95 25 -11 5
-46 14 -77 20 -32 6 -60 15 -63 20 -3 5 -12 7 -20 3 -9 -3 -21 -1 -28 5 -6 5
-32 13 -57 17 -25 4 -58 13 -75 20 -16 8 -59 19 -95 26 -36 6 -78 17 -95 24
-33 14 -112 35 -245 66 -47 10 -92 23 -101 28 -9 5 -45 15 -80 22 -35 6 -68
15 -74 19 -5 4 -46 15 -90 24 -44 10 -87 21 -95 25 -9 5 -54 16 -100 26 -47
10 -90 22 -96 27 -6 4 -14 35 -18 68 -4 33 -11 62 -16 65 -5 3 -14 31 -20 62
-7 31 -16 64 -21 72 -4 9 -15 52 -25 96 -9 44 -20 85 -24 90 -4 6 -11 24 -14
41 -7 30 -1 37 109 140 64 60 124 111 133 113 10 2 37 20 62 40 46 38 130 71
179 71 15 0 31 4 37 10 5 5 63 14 129 21 66 6 125 15 130 19 6 4 27 10 48 13
55 9 155 60 214 110 28 24 109 102 180 173 137 137 179 172 230 193 32 13 64
41 47 41 -5 0 -49 -20 -99 -45 -49 -24 -94 -45 -98 -45 -5 0 -41 -25 -82 -55
-40 -30 -76 -55 -80 -55 -4 0 -24 -14 -45 -30 -21 -16 -44 -30 -53 -30 -8 0
-31 -11 -51 -25 -20 -14 -45 -25 -56 -25 -10 0 -22 -4 -25 -10 -3 -5 -17 -10
-30 -10 -13 0 -27 -5 -30 -11 -4 -6 -19 -9 -33 -8 -15 2 -32 0 -39 -4 -7 -4
-119 -6 -250 -5 -241 3 -260 1 -333 -37 -14 -7 -41 -18 -61 -24 -20 -7 -45
-21 -54 -31 -10 -11 -25 -20 -34 -20 -9 0 -27 -9 -41 -20 -14 -11 -30 -20 -37
-20 -6 0 -24 -11 -40 -24 -58 -48 -64 -46 -113 60 -39 85 -80 161 -153 284
-11 19 -28 49 -37 65 -8 17 -31 53 -49 80 -68 101 -70 105 -46 146 36 63 109
190 137 238 15 25 34 60 43 76 9 17 29 50 45 75 16 25 38 63 50 85 11 22 32
58 45 80 14 22 34 58 46 80 11 22 33 60 49 85 16 25 36 59 45 75 9 17 29 53
45 80 16 28 37 66 47 85 10 19 34 60 53 90 44 69 65 106 85 148 9 18 30 54 48
80 18 26 40 63 50 82 9 19 31 58 47 85 16 28 36 64 45 80 9 17 29 50 45 75 16
25 36 59 44 75 9 17 28 51 43 77 66 112 169 290 183 316 8 15 25 43 37 62 11
19 31 52 42 73 12 21 29 49 37 63 21 31 7 31 -40 -1 -21 -14 -52 -32 -69 -41
-42 -20 -80 -42 -147 -83 -30 -19 -68 -42 -85 -51 -38 -20 -46 -25 -175 -101
-58 -34 -123 -72 -145 -84 -65 -35 -119 -67 -130 -75 -5 -4 -37 -22 -70 -40
-108 -59 -128 -71 -164 -96 -20 -13 -39 -24 -44 -24 -4 0 -31 -16 -60 -35 -28
-19 -55 -35 -60 -35 -5 0 -28 -13 -52 -30 -24 -16 -46 -30 -48 -30 -2 0 -44
-23 -93 -51 -49 -29 -103 -60 -121 -70 -17 -10 -50 -29 -72 -43 -22 -15 -43
-26 -45 -26 -3 0 -52 -27 -108 -60 -131 -77 -137 -81 -173 -100 -16 -9 -55
-31 -85 -51 -30 -19 -66 -40 -80 -47 -26 -14 -74 -41 -183 -105 -72 -42 -77
-41 -147 9 -43 31 -101 65 -165 99 -16 9 -50 29 -75 45 -25 16 -75 43 -111 61
l-66 33 4 105 c3 58 7 113 10 121 3 8 5 36 4 61 -2 26 2 50 8 54 6 3 11 16 11
28 0 24 19 80 38 114 7 12 12 28 12 36 0 8 9 22 20 32 11 10 20 23 20 30 0 6
16 26 35 45 19 19 35 38 35 42 0 5 27 43 60 85 33 41 60 84 60 93 0 10 7 23
15 30 9 7 14 19 11 27 -3 8 2 26 12 41 14 22 17 56 20 227 2 110 7 209 12 220
5 11 11 63 13 115 3 52 8 106 12 120 l7 25 -20 -25 c-11 -13 -25 -50 -32 -82
-6 -31 -15 -60 -21 -64 -6 -3 -8 -13 -5 -21 4 -9 2 -21 -2 -27 -5 -6 -14 -45
-21 -85 -6 -41 -16 -80 -20 -85 -5 -6 -11 -33 -14 -59 -13 -93 -76 -225 -143
-297 -28 -30 -54 -63 -57 -72 -3 -9 -23 -28 -45 -42 -46 -29 -197 -179 -216
-215 -69 -131 -85 -171 -97 -236 -6 -33 -14 -64 -17 -70 -4 -5 -7 -17 -7 -25
0 -8 -3 -20 -7 -25 -3 -6 -9 -26 -13 -46 -8 -41 -16 -42 -82 -8 -21 11 -43 19
-50 19 -7 0 -21 4 -31 10 -18 11 -128 43 -227 66 -33 8 -67 18 -75 21 -8 3
-19 5 -23 4 -4 0 -17 4 -29 10 -12 6 -53 17 -92 23 -66 11 -72 15 -80 42 -5
16 -11 36 -14 44 -3 8 -4 19 -3 24 1 4 -3 13 -8 20 -5 6 -15 40 -21 76 -7 36
-16 70 -20 75 -4 6 -15 46 -24 90 -10 44 -24 94 -31 110 -7 17 -16 50 -20 75
-4 25 -12 51 -17 57 -6 7 -8 19 -5 28 4 8 2 17 -3 20 -5 3 -14 31 -20 63 -6
31 -15 66 -20 77 -5 11 -14 45 -21 75 -6 30 -16 61 -21 67 -6 7 -8 19 -5 28 4
8 2 17 -2 19 -5 3 -14 34 -21 68 -6 35 -15 68 -19 73 -5 6 -14 39 -21 75 -7
36 -17 70 -21 76 -5 6 -6 14 -2 17 3 4 1 12 -4 19 -6 7 -16 42 -23 78 -7 36
-16 70 -20 75 -4 6 -15 46 -24 90 -10 44 -21 89 -26 100 -4 11 -13 43 -20 70
-7 28 -16 59 -22 71 -5 11 -8 24 -7 30 1 5 0 16 -3 24 -4 8 -11 38 -18 65 -6
28 -16 59 -20 70 -5 11 -14 45 -21 75 -6 30 -16 60 -21 67 -5 6 -8 17 -7 25 1
7 0 20 -4 28 -3 8 -11 40 -18 70 -6 30 -15 60 -19 65 -4 6 -13 40 -20 78 -7
37 -16 70 -21 73 -5 3 -7 10 -4 15 4 5 3 15 -2 22 -4 6 -12 31 -18 55 l-10 43
-12 -28z"/>
</g>
</svg>
