<?xml version="1.0" standalone="no"?>
<!DOCTYPE svg PUBLIC "-//W3C//DTD SVG 20010904//EN"
 "http://www.w3.org/TR/2001/REC-SVG-20010904/DTD/svg10.dtd">
<svg version="1.0" xmlns="http://www.w3.org/2000/svg"
 width="1280.000000pt" height="1280.000000pt" viewBox="0 0 1280.000000 1280.000000"
 preserveAspectRatio="xMidYMid meet">
<metadata>
Created by potrace 1.15, written by Peter Selinger 2001-2017
</metadata>
<g transform="translate(0.000000,1280.000000) scale(0.100000,-0.100000)"
fill="#000000" stroke="none">
<path d="M5585 12533 c-3 -15 -81 -354 -171 -753 -90 -399 -168 -726 -174
-728 -6 -2 -7 -9 -4 -14 4 -6 3 -8 -2 -5 -5 3 -30 35 -54 71 -24 35 -48 62
-52 60 -4 -3 -8 -30 -8 -61 0 -45 -3 -54 -15 -49 -9 3 -15 0 -15 -8 0 -9 -12
-3 -31 15 -33 30 -84 45 -123 35 -24 -6 -25 -5 -14 24 30 87 -50 187 -143 178
-35 -3 -38 -2 -32 17 30 82 -42 181 -125 172 -33 -3 -33 -3 -27 29 13 71 -54
150 -120 141 -30 -5 -30 -5 -26 39 3 39 -1 48 -33 80 -30 30 -42 35 -69 32
-31 -3 -33 -2 -29 24 7 44 -17 89 -54 104 -18 8 -40 11 -48 8 -13 -5 -16 2
-16 35 0 50 -27 81 -70 81 -27 0 -30 3 -30 30 0 34 -30 70 -58 70 -24 0 -52
-31 -52 -57 0 -12 9 -31 19 -44 19 -23 19 -24 0 -48 -27 -34 -24 -74 9 -108
l27 -29 -24 -21 c-37 -30 -34 -83 7 -126 31 -32 31 -33 11 -45 -48 -30 -47
-107 4 -155 l30 -28 -22 -20 c-55 -51 -50 -121 12 -174 22 -19 35 -35 28 -35
-6 0 -23 -12 -36 -26 -48 -52 -23 -170 40 -194 l26 -10 -35 -31 c-39 -33 -52
-77 -41 -129 8 -36 60 -100 81 -100 27 0 13 -18 -26 -34 l-41 -16 -145 121
c-79 67 -147 119 -150 117 -3 -3 9 -84 26 -179 33 -190 34 -203 21 -194 -5 3
-11 -1 -13 -9 -2 -9 -197 109 -571 346 -313 198 -570 358 -572 356 -2 -2 97
-326 219 -720 159 -513 219 -719 210 -722 -7 -3 -20 7 -29 21 -15 22 -22 25
-56 20 -31 -4 -39 -2 -44 14 -9 27 -41 42 -64 30 -39 -21 -33 -73 10 -86 14
-5 18 -12 14 -23 -4 -10 -10 -25 -12 -34 -4 -12 -15 -18 -33 -18 -16 0 -42
-11 -58 -25 l-30 -25 -7 30 c-4 17 -22 46 -41 65 -53 53 -132 59 -181 13 l-23
-21 -6 31 c-18 88 -143 133 -204 72 -18 -18 -19 -18 -25 8 -18 78 -118 120
-176 73 l-23 -18 -20 41 c-15 29 -31 45 -58 55 -34 12 -41 12 -78 -7 -32 -16
-40 -17 -40 -5 0 8 -13 28 -29 44 -34 33 -83 39 -113 12 -10 -9 -18 -11 -18
-6 0 6 -13 25 -29 42 -32 34 -80 42 -103 17 -11 -11 -16 -9 -30 15 -35 57
-108 42 -108 -22 0 -30 31 -59 63 -59 15 0 16 -3 7 -20 -6 -11 -8 -31 -4 -46
7 -27 57 -64 87 -64 14 0 16 -4 7 -19 -25 -48 6 -103 70 -122 35 -11 38 -14
29 -32 -27 -50 19 -123 83 -134 31 -5 38 -9 31 -22 -4 -9 -7 -33 -7 -55 0 -52
56 -106 109 -106 34 0 46 -12 25 -25 -5 -3 -10 -27 -10 -52 0 -39 5 -50 39
-84 32 -33 45 -39 80 -39 42 0 50 -7 30 -27 -19 -19 -14 -88 9 -125 27 -44 71
-68 123 -68 40 0 41 -1 26 -18 -10 -10 -17 -23 -17 -29 0 -6 -6 -13 -12 -15
-7 -3 -111 13 -232 33 -121 21 -221 37 -223 36 -1 -2 61 -79 137 -172 77 -93
140 -172 140 -176 0 -4 -6 -19 -14 -34 -13 -25 -14 -26 -21 -7 -10 34 -70 79
-114 87 -47 8 -104 -15 -128 -52 l-16 -24 -18 30 c-23 39 -67 61 -120 61 -33
0 -47 -6 -75 -34 l-34 -34 -14 27 c-30 58 -128 70 -176 22 l-29 -29 -16 25
c-25 38 -79 57 -121 43 -19 -7 -39 -21 -45 -32 -11 -20 -12 -19 -43 11 -40 39
-95 43 -129 9 l-22 -23 -27 28 c-32 33 -77 36 -103 7 -18 -19 -18 -19 -45 0
-48 34 -100 19 -100 -29 0 -34 28 -61 63 -61 23 0 27 -4 27 -28 0 -40 37 -72
83 -72 35 0 37 -1 37 -34 0 -46 46 -86 98 -86 36 0 37 -1 38 -37 1 -52 48 -93
108 -93 44 0 44 0 44 -35 0 -70 63 -122 132 -111 l37 6 -1 -40 c-2 -76 81
-143 154 -123 l38 10 -5 -37 c-13 -92 89 -171 182 -143 l33 11 -10 -29 c-13
-38 6 -96 45 -131 22 -21 25 -28 12 -28 -9 0 -14 -4 -11 -9 3 -5 -22 -12 -57
-16 -70 -8 -71 -5 24 -71 25 -17 45 -39 46 -50 1 -17 -43 -29 -480 -127 -265
-60 -596 -134 -734 -165 -139 -31 -252 -61 -250 -65 1 -4 220 -122 485 -262
749 -394 719 -377 696 -386 -12 -5 -14 -8 -5 -8 31 -2 -9 -20 -174 -81 -93
-34 -174 -66 -178 -70 -4 -4 71 -36 168 -71 115 -42 174 -68 171 -76 -3 -6 3
-13 12 -15 9 -2 -255 -145 -585 -318 -331 -173 -599 -318 -595 -321 4 -3 111
-29 237 -57 243 -55 1183 -268 1224 -277 l23 -6 -23 -20 c-13 -12 -57 -44 -98
-72 l-75 -52 50 -7 c27 -4 79 -10 117 -13 37 -4 67 -10 66 -13 0 -4 -250 -236
-555 -517 -305 -280 -554 -512 -554 -515 0 -3 251 5 557 17 307 12 602 22 655
22 l97 1 9 -33 c8 -30 7 -32 -22 -40 -50 -14 -78 -46 -74 -84 4 -30 1 -33 -22
-33 -38 0 -73 -36 -68 -69 3 -21 0 -27 -15 -28 -25 -2 -57 -32 -57 -53 0 -18
30 -50 47 -50 6 0 22 9 36 21 21 16 31 18 46 10 34 -18 62 -12 92 20 16 17 29
26 29 20 0 -16 49 -33 73 -25 11 3 33 20 49 37 15 17 28 26 28 20 0 -6 21 -20
48 -30 l47 -18 -55 -7 c-47 -5 -60 -12 -93 -48 -36 -38 -39 -45 -35 -88 3 -26
8 -55 12 -65 7 -15 3 -17 -32 -17 -89 0 -145 -95 -107 -182 6 -15 2 -18 -30
-18 -71 0 -135 -94 -103 -151 l16 -27 -42 -5 c-66 -9 -112 -79 -88 -132 11
-23 9 -25 -28 -35 -63 -17 -95 -73 -70 -121 9 -15 7 -19 -7 -19 -30 0 -80 -37
-87 -64 -4 -15 -2 -35 4 -46 9 -17 8 -20 -7 -20 -32 0 -63 -29 -63 -59 0 -30
27 -61 52 -61 18 0 68 44 68 60 0 7 7 5 16 -4 26 -27 72 -20 105 15 16 17 29
35 29 41 0 5 7 2 16 -6 26 -27 81 -20 115 13 16 16 29 36 29 45 0 13 6 12 36
-6 34 -20 39 -20 78 -7 32 11 46 23 62 55 l20 41 23 -18 c54 -44 151 -10 172
59 11 39 12 39 30 21 58 -58 175 -22 200 61 l12 39 29 -24 c57 -48 154 -25
198 47 11 18 20 41 20 51 0 17 4 16 31 -7 36 -30 65 -35 131 -22 22 4 26 2 21
-11 -4 -11 -3 -14 5 -9 17 10 15 3 -10 -49 -12 -24 -19 -47 -16 -50 3 -4 28 5
55 18 73 37 90 40 90 20 1 -13 -386 -1272 -447 -1457 -8 -24 -7 -27 7 -21 10
3 275 169 590 367 315 199 580 363 588 364 20 3 20 -5 -15 -205 -17 -95 -29
-178 -28 -183 2 -5 68 46 148 112 80 67 146 116 148 110 3 -8 8 -7 18 1 12 10
13 -7 8 -117 -11 -236 -50 -1219 -48 -1222 2 -4 80 79 394 418 150 162 356
386 459 496 102 111 187 196 189 188 2 -7 10 -10 18 -7 11 4 14 -5 15 -43 0
-27 3 -66 7 -88 l7 -39 49 72 c29 42 52 67 56 60 4 -6 11 -9 16 -7 5 1 83
-327 173 -730 91 -402 168 -732 172 -732 3 0 143 259 309 575 270 513 305 575
324 571 43 -8 57 -18 50 -35 -24 -57 -11 -106 32 -117 18 -5 23 -11 18 -23
-15 -37 -15 -62 0 -86 9 -14 22 -25 29 -25 7 0 12 -15 12 -41 0 -54 28 -77 64
-53 19 14 22 23 18 55 -4 31 -2 39 14 44 37 12 45 51 23 109 -4 10 -1 16 9 16
19 0 57 46 57 69 0 9 -7 28 -14 43 -11 21 -12 28 -3 29 7 0 23 2 37 4 24 3 42
-29 322 -563 163 -312 300 -568 305 -569 4 -2 82 325 172 725 165 730 188 814
201 715 4 -31 11 -41 37 -53 25 -11 33 -22 33 -41 0 -34 23 -53 54 -45 32 8
40 32 22 68 -14 26 -13 30 2 35 9 4 20 10 23 15 3 5 19 2 35 -7 34 -18 68 -19
96 -4 19 10 20 9 13 -7 -26 -61 -12 -124 36 -170 26 -24 38 -29 83 -29 l52 0
-10 -36 c-12 -45 3 -84 45 -125 24 -23 39 -29 75 -29 l44 0 -5 -40 c-4 -30 -1
-48 14 -72 24 -38 74 -67 107 -60 22 4 24 1 24 -40 0 -24 7 -54 15 -67 19 -29
67 -50 95 -43 18 4 20 0 20 -35 0 -21 5 -48 11 -60 12 -23 71 -50 92 -42 9 3
14 -1 14 -13 0 -48 5 -65 23 -83 11 -11 33 -20 48 -20 22 0 28 -5 30 -26 5
-60 45 -87 87 -60 30 20 32 54 6 87 -19 24 -19 25 0 48 29 36 21 85 -21 120
-15 13 -15 16 7 37 33 33 31 84 -6 127 -28 31 -29 34 -11 45 10 6 23 27 30 46
9 29 8 41 -5 70 -9 19 -28 42 -41 51 l-24 15 31 28 c52 46 39 135 -25 177
l-23 16 33 33 c28 28 34 42 34 75 0 54 -22 97 -60 116 l-31 16 30 25 c36 30
55 83 46 130 -7 38 -59 104 -81 104 -21 0 -17 15 9 27 55 27 54 27 209 -102
83 -69 152 -124 154 -122 3 3 -49 314 -61 364 -4 18 -2 21 12 16 12 -5 15 -2
10 10 -5 13 4 10 36 -10 23 -14 280 -177 570 -360 291 -184 530 -333 532 -331
2 2 -97 326 -220 721 -122 395 -218 720 -213 723 5 3 20 -6 34 -21 18 -19 32
-26 54 -23 20 2 36 -4 50 -20 11 -12 29 -22 38 -22 44 0 57 60 19 85 -18 11
-23 22 -19 44 3 22 -2 36 -22 56 -30 30 -32 35 -11 35 8 0 332 -99 721 -220
388 -122 709 -220 713 -218 4 2 -154 257 -350 568 -197 311 -358 568 -358 572
-1 4 7 4 16 1 12 -5 15 -2 11 9 -5 12 25 9 180 -17 103 -18 189 -31 190 -29 2
1 -52 69 -119 150 -76 90 -119 149 -111 152 10 3 10 7 1 18 -10 13 6 14 122 8
250 -12 1214 -50 1217 -48 4 2 -79 81 -618 579 -440 407 -536 498 -490 470 10
-6 12 -4 7 8 -5 14 1 17 36 18 23 0 64 4 92 7 l50 7 -69 49 c-50 36 -65 51
-55 57 10 6 11 9 2 9 -63 1 89 39 722 180 404 91 735 168 735 171 0 4 -268
147 -595 320 -330 173 -590 316 -584 320 6 4 9 11 5 17 -4 6 16 19 46 30 29
11 113 41 185 68 73 27 129 51 125 55 -4 3 -85 35 -180 70 -115 42 -171 67
-168 75 3 7 -2 14 -11 16 -9 2 254 145 585 318 330 173 598 318 594 321 -4 3
-331 79 -727 168 -396 90 -731 165 -743 168 -16 4 -20 8 -12 13 7 4 10 12 7
17 -4 6 26 32 65 59 69 48 70 49 42 55 -16 4 -53 7 -83 8 -42 1 -52 4 -48 15
3 8 0 16 -8 18 -7 2 236 233 540 513 305 281 555 513 555 516 0 3 -26 4 -57 2
-32 -2 -308 -12 -613 -23 -305 -11 -583 -22 -618 -24 -50 -3 -62 -1 -58 9 3 8
1 15 -4 17 -5 2 46 71 115 153 68 83 120 151 115 153 -4 2 -90 -11 -190 -29
l-181 -31 -30 33 -30 34 53 7 c45 5 58 12 91 48 36 38 39 45 35 88 -3 26 -8
55 -12 65 -7 15 -3 17 32 17 89 0 145 95 107 183 -6 14 -2 17 30 17 71 0 135
94 103 151 l-16 27 42 5 c66 9 112 79 88 132 -11 23 -9 25 28 35 63 17 95 73
70 121 -9 15 -7 19 7 19 30 0 80 37 87 64 4 15 2 35 -4 46 -9 17 -8 20 7 20
32 0 63 29 63 59 0 30 -27 61 -52 61 -18 0 -68 -44 -68 -60 0 -7 -7 -5 -16 4
-26 27 -72 20 -105 -15 -16 -17 -29 -35 -29 -41 0 -5 -7 -2 -16 6 -26 27 -81
20 -115 -13 -16 -16 -29 -36 -29 -45 0 -13 -6 -12 -36 6 -34 20 -39 20 -78 7
-32 -11 -46 -23 -62 -55 l-20 -41 -23 18 c-54 44 -151 10 -172 -59 -11 -39
-12 -39 -30 -21 -58 58 -175 22 -200 -61 l-12 -39 -29 24 c-57 48 -154 25
-198 -47 -11 -18 -20 -41 -20 -51 0 -17 -4 -16 -31 7 -17 14 -40 27 -52 28
-38 2 -81 -4 -102 -14 -16 -9 -18 -8 -7 3 17 18 15 34 -3 19 -21 -17 -19 -7
10 50 14 27 25 54 25 60 0 6 -23 -1 -51 -15 -73 -37 -102 -48 -93 -33 5 8 2 9
-9 5 -10 -3 -17 -2 -17 4 0 6 100 330 221 720 122 391 219 712 217 715 -3 3
-158 -91 -344 -209 -736 -464 -806 -507 -801 -492 4 9 1 15 -7 15 -10 0 -5 45
21 192 18 105 32 193 30 194 -1 2 -70 -53 -152 -122 -82 -68 -151 -120 -153
-114 -3 7 -9 7 -19 -2 -13 -11 -15 0 -9 92 3 58 15 339 26 625 11 286 21 546
23 578 2 31 1 57 -2 56 -3 0 -238 -252 -521 -558 -283 -307 -518 -554 -521
-548 -4 5 -12 6 -18 3 -7 -5 -11 7 -12 36 0 24 -4 66 -7 93 l-7 50 -49 -68
c-31 -44 -52 -64 -56 -57 -6 9 -9 9 -12 -1 -3 -8 -8 -12 -10 -9 -5 5 -118 503
-275 1207 -32 145 -62 262 -66 260 -8 -2 -180 -326 -538 -1008 l-72 -136 -33
7 c-18 4 -36 5 -39 2 -3 -3 2 11 10 32 21 49 12 83 -25 104 -17 10 -28 23 -25
30 18 49 16 62 -11 90 -22 22 -29 38 -29 67 0 34 -4 41 -27 49 -39 14 -61 -7
-56 -55 3 -31 0 -40 -19 -48 -28 -13 -38 -51 -25 -91 9 -23 8 -30 -2 -30 -7 0
-23 -11 -36 -25 -22 -24 -23 -39 -8 -105 2 -10 -6 -16 -22 -18 -23 -2 -44 34
-334 590 -170 326 -312 597 -316 601 -4 5 -11 -4 -15 -20z m1228 -3602 c436
-78 800 -235 1145 -493 122 -91 341 -304 440 -427 265 -330 449 -730 527
-1146 94 -507 34 -1027 -173 -1495 -201 -455 -523 -840 -927 -1107 -744 -492
-1661 -566 -2482 -200 -690 307 -1224 940 -1418 1679 -65 250 -79 362 -79 648
-1 273 9 374 60 590 231 991 1028 1752 2029 1940 183 34 250 39 510 36 201 -3
273 -8 368 -25z"/>
</g>
</svg>
