<?xml version="1.0" standalone="no"?>
<!DOCTYPE svg PUBLIC "-//W3C//DTD SVG 20010904//EN"
 "http://www.w3.org/TR/2001/REC-SVG-20010904/DTD/svg10.dtd">
<svg version="1.0" xmlns="http://www.w3.org/2000/svg"
 width="1278.000000pt" height="1280.000000pt" viewBox="0 0 1278.000000 1280.000000"
 preserveAspectRatio="xMidYMid meet">
<metadata>
Created by potrace 1.15, written by Peter Selinger 2001-2017
</metadata>
<g transform="translate(0.000000,1280.000000) scale(0.100000,-0.100000)"
fill="#000000" stroke="none">
<path d="M6440 12735 c0 -14 -58 -463 -130 -998 -237 -1777 -341 -2570 -338
-2572 2 -1 53 6 113 16 177 29 375 34 550 14 83 -10 169 -20 193 -22 28 -3 42
-1 42 7 0 6 -22 201 -50 433 -27 232 -72 616 -99 852 -28 237 -98 835 -156
1330 -58 495 -105 912 -105 927 0 15 -4 30 -10 33 -6 4 -10 -5 -10 -20z"/>
<path d="M4371 12334 c-1 -7 24 -112 53 -235 44 -181 232 -963 361 -1504 13
-55 92 -383 175 -730 162 -678 171 -714 225 -938 19 -82 33 -153 30 -157 -3
-5 -44 -29 -93 -55 -196 -106 -394 -256 -578 -440 -180 -179 -315 -356 -444
-582 -29 -51 -55 -91 -59 -89 -4 3 -229 74 -501 160 -553 173 -1320 413 -2300
720 -360 112 -664 208 -675 212 -11 4 -18 5 -15 1 3 -3 52 -23 110 -45 58 -22
728 -284 1490 -582 762 -298 1473 -576 1580 -617 107 -42 199 -80 204 -84 4
-4 3 -24 -4 -44 -11 -33 -13 -35 -25 -18 -12 16 -14 14 -23 -22 -41 -155 -53
-212 -49 -234 3 -13 -4 -65 -14 -115 -75 -369 -69 -775 16 -1142 28 -118 83
-292 125 -395 17 -40 27 -76 23 -80 -5 -4 -442 -177 -973 -384 -531 -208
-1224 -478 -1540 -602 -316 -124 -656 -256 -755 -295 -99 -38 -182 -72 -185
-75 -3 -4 4 -3 15 1 11 4 243 77 515 162 272 86 680 213 905 284 1223 383
1904 596 2020 632 119 37 130 39 140 23 210 -353 506 -663 846 -884 64 -42
146 -92 182 -111 37 -19 67 -41 67 -48 0 -7 -11 -58 -25 -115 -68 -287 -388
-1623 -405 -1692 -11 -44 -87 -363 -170 -710 -83 -346 -160 -668 -171 -715
-11 -47 -40 -168 -65 -269 -24 -101 -42 -186 -40 -188 2 -2 7 9 10 24 4 15 39
129 78 253 679 2164 1038 3304 1041 3307 2 1 37 -8 78 -22 535 -184 1139 -190
1673 -18 59 19 111 31 115 26 4 -4 211 -658 461 -1453 249 -795 488 -1557 532
-1695 43 -137 90 -289 105 -338 14 -48 28 -86 30 -84 2 2 -21 105 -51 228 -44
180 -232 962 -361 1504 -13 55 -92 384 -175 730 -83 347 -162 675 -175 730
-13 55 -44 186 -69 291 -25 105 -46 195 -46 200 0 5 39 29 88 53 103 53 301
184 409 273 225 182 448 435 595 676 l37 60 408 -128 c224 -71 777 -244 1228
-385 451 -141 1043 -326 1315 -412 609 -191 583 -183 588 -179 2 2 -7 7 -20
11 -33 11 -3390 1324 -3395 1328 -2 2 8 30 22 62 43 95 111 312 139 437 75
333 86 701 31 1024 -22 131 -107 484 -116 479 -11 -7 -33 55 -23 64 5 5 367
148 804 319 437 171 1169 456 1625 635 457 178 851 332 878 342 26 10 46 20
44 22 -3 2 -17 -1 -32 -7 -16 -6 -360 -114 -764 -241 -405 -127 -920 -288
-1146 -359 -225 -71 -635 -199 -910 -285 -275 -86 -526 -164 -557 -175 l-57
-18 -52 91 c-250 440 -654 832 -1077 1046 -34 17 -62 33 -62 36 0 3 68 287
150 632 145 601 171 714 225 938 13 55 92 384 175 730 83 347 160 668 171 715
11 47 45 186 75 309 30 123 53 225 51 227 -1 2 -245 -770 -541 -1714 -297
-944 -543 -1721 -547 -1726 -4 -4 -40 3 -81 17 -177 61 -391 107 -592 128
-150 15 -502 7 -646 -15 -132 -21 -365 -78 -477 -117 -47 -17 -87 -28 -90 -25
-4 4 -904 2858 -1080 3426 -6 19 -11 30 -12 24z"/>
<path d="M9027 9173 c-410 -351 -744 -641 -744 -644 3 -9 278 -262 281 -258
151 193 1152 1459 1179 1492 21 26 37 47 34 47 -2 0 -339 -287 -750 -637z"/>
<path d="M3071 9774 c14 -16 295 -353 624 -749 328 -396 602 -725 609 -732 8
-9 45 18 154 113 78 69 142 129 142 132 -1 7 -1468 1203 -1528 1246 l-27 20
26 -30z"/>
<path d="M3655 6873 c-16 -2 -385 -44 -820 -94 -1919 -218 -2788 -319 -2793
-324 -3 -3 8 -5 24 -5 16 0 353 -43 749 -95 396 -52 963 -126 1260 -165 297
-39 780 -102 1074 -141 293 -38 535 -68 537 -66 2 2 0 27 -6 56 -41 219 -32
524 26 809 5 24 3 32 -7 31 -8 -1 -27 -4 -44 -6z"/>
<path d="M9163 6848 c43 -168 57 -479 33 -678 -9 -74 -19 -149 -22 -166 l-6
-30 359 47 c197 27 988 131 1758 233 770 102 1416 189 1435 193 l35 7 -30 3
c-67 8 -837 97 -1400 163 -330 38 -910 106 -1290 150 -379 44 -726 84 -769 90
-109 14 -109 14 -103 -12z"/>
<path d="M8273 4287 c-78 -67 -142 -125 -142 -129 -1 -7 1560 -1281 1563
-1276 4 4 -1261 1522 -1271 1525 -4 2 -72 -52 -150 -120z"/>
<path d="M3840 3688 c-756 -879 -717 -833 -705 -826 34 21 1590 1251 1590
1257 0 9 -284 251 -293 251 -4 -1 -270 -307 -592 -682z"/>
<path d="M6755 3627 c-146 -27 -528 -29 -678 -4 -60 10 -110 17 -112 15 -2 -2
14 -133 35 -293 22 -159 127 -954 235 -1765 107 -811 199 -1491 204 -1510 l9
-35 1 30 c1 17 35 318 76 670 74 639 160 1374 235 2025 22 190 54 461 71 603
16 142 29 264 27 270 -2 9 -29 7 -103 -6z"/>
</g>
</svg>
