<?xml version="1.0" standalone="no"?>
<!DOCTYPE svg PUBLIC "-//W3C//DTD SVG 20010904//EN"
 "http://www.w3.org/TR/2001/REC-SVG-20010904/DTD/svg10.dtd">
<svg version="1.0" xmlns="http://www.w3.org/2000/svg"
 width="1230.000000pt" height="1280.000000pt" viewBox="0 0 1230.000000 1280.000000"
 preserveAspectRatio="xMidYMid meet">
<metadata>
Created by potrace 1.15, written by Peter Selinger 2001-2017
</metadata>
<g transform="translate(0.000000,1280.000000) scale(0.100000,-0.100000)"
fill="#000000" stroke="none">
<path d="M8307 12771 c-29 -50 -22 -88 43 -216 70 -140 84 -200 78 -337 -4
-84 -9 -105 -40 -171 -41 -85 -118 -170 -216 -236 -34 -23 -140 -85 -235 -138
-94 -53 -198 -113 -229 -134 -81 -56 -173 -143 -224 -215 -70 -97 -151 -277
-186 -411 -27 -103 -31 -135 -32 -258 0 -133 2 -149 43 -315 39 -158 43 -184
39 -271 -3 -83 -8 -104 -36 -161 -36 -74 -64 -99 -172 -153 -41 -21 -103 -55
-138 -76 -62 -38 -63 -38 -71 -16 -123 332 -227 721 -415 1562 -94 419 -111
492 -155 665 -22 85 -51 210 -66 278 -15 68 -35 148 -45 178 -36 104 -103 175
-179 190 -30 6 -31 5 -61 -61 -82 -183 -165 -486 -220 -800 -14 -82 -45 -346
-70 -600 -54 -547 -90 -778 -157 -995 -15 -49 -30 -90 -34 -90 -4 0 -11 10
-15 23 -12 40 -70 121 -123 174 -81 80 -182 144 -392 249 -255 126 -348 183
-435 266 -84 80 -138 173 -159 275 -13 60 -13 82 1 183 30 216 1 347 -164 745
l-79 189 -67 42 c-75 47 -127 91 -152 130 -28 41 -132 84 -311 128 -291 70
-506 57 -563 -36 -54 -89 9 -166 154 -189 158 -25 323 -225 393 -478 10 -35
16 -100 17 -176 1 -128 -19 -217 -67 -294 -19 -31 -21 -48 -19 -155 10 -471
42 -707 124 -920 39 -101 103 -167 325 -334 184 -139 274 -222 327 -303 68
-103 82 -197 46 -310 -31 -99 -27 -97 -115 -56 -218 104 -475 258 -966 578
-269 175 -554 349 -711 433 -56 30 -125 80 -190 137 -188 166 -350 270 -520
333 -53 20 -102 36 -107 36 -33 0 -25 -174 13 -273 31 -84 91 -176 216 -337
194 -250 461 -644 538 -795 20 -39 43 -68 67 -83 19 -12 52 -48 71 -80 69
-109 87 -132 119 -152 18 -11 42 -20 53 -20 18 0 20 -4 15 -34 -9 -60 5 -99
78 -210 84 -130 105 -170 114 -218 l7 -37 -52 20 c-130 49 -312 42 -677 -28
-226 -43 -261 -47 -403 -47 -145 -1 -161 1 -243 28 -48 16 -99 38 -113 49 -14
11 -85 90 -157 176 -294 347 -459 471 -668 501 -123 18 -186 4 -389 -82 -58
-25 -116 -48 -130 -51 -17 -4 -35 -22 -50 -49 -13 -24 -50 -79 -82 -124 -86
-121 -107 -185 -74 -230 22 -30 88 -24 163 15 146 76 325 42 514 -97 l77 -57
67 -150 c146 -322 210 -427 287 -466 64 -32 77 -47 117 -134 44 -95 75 -124
186 -175 189 -87 353 -125 600 -140 99 -5 262 -15 362 -20 195 -11 296 -31
381 -74 82 -42 132 -117 132 -202 0 -29 -3 -31 -99 -67 -54 -20 -202 -61 -327
-92 -126 -31 -267 -65 -314 -76 -142 -35 -247 -69 -425 -137 -376 -143 -506
-179 -612 -168 -85 9 -180 -15 -407 -101 -249 -94 -317 -113 -437 -122 -128
-10 -186 -33 -218 -84 -20 -33 -21 -38 -7 -64 40 -77 102 -101 291 -113 137
-9 363 -46 665 -110 80 -17 165 -35 190 -40 25 -5 106 -22 180 -39 315 -70
682 -140 770 -146 109 -8 124 -13 168 -50 l32 -26 -73 -63 c-273 -238 -329
-291 -390 -366 -78 -96 -157 -249 -181 -351 -9 -36 -16 -72 -16 -80 0 -27 -70
-99 -121 -124 -90 -46 -156 -55 -459 -65 -252 -7 -292 -11 -350 -30 -144 -48
-323 -163 -428 -274 -62 -66 -112 -166 -144 -286 -30 -116 -33 -374 -5 -465
22 -70 50 -127 85 -173 l25 -33 27 26 c15 14 58 80 96 146 82 144 149 215 192
204 80 -20 102 -18 147 14 115 83 212 87 550 27 187 -34 332 -35 492 -2 283
58 372 121 562 400 218 318 324 396 540 396 72 0 195 -20 209 -34 2 -2 -39
-91 -91 -197 -52 -107 -139 -286 -192 -399 -138 -290 -214 -425 -323 -569
-115 -152 -139 -204 -238 -502 -97 -296 -127 -354 -254 -499 -120 -137 -150
-191 -150 -269 0 -68 8 -101 25 -101 7 0 81 34 164 76 186 93 413 243 671 445
436 340 615 468 775 555 48 25 98 66 160 128 87 88 154 132 226 150 l27 6 -16
-43 c-10 -26 -16 -79 -16 -142 -1 -126 17 -186 129 -435 97 -218 120 -299 112
-403 -9 -121 -36 -177 -185 -384 -42 -60 -90 -136 -105 -171 -17 -37 -34 -62
-44 -62 -8 0 -37 -10 -63 -22 -41 -19 -55 -34 -111 -122 -166 -262 -233 -457
-233 -681 1 -98 5 -131 22 -179 12 -33 22 -81 22 -108 0 -33 6 -58 20 -76 11
-15 44 -92 73 -172 79 -212 116 -276 185 -317 67 -41 157 -19 188 45 16 33 16
49 5 187 -7 83 -10 173 -6 200 16 118 66 227 153 336 74 92 121 136 352 328
300 249 438 406 536 607 75 154 105 312 134 709 21 289 51 458 101 576 18 42
27 50 59 59 21 6 48 18 61 29 42 32 89 52 116 49 26 -3 27 -8 83 -258 32 -140
72 -316 90 -390 81 -336 176 -747 210 -905 11 -49 31 -187 45 -305 30 -248 42
-300 93 -413 l37 -82 0 -285 c0 -256 2 -289 19 -328 24 -56 62 -82 118 -82 85
0 114 51 154 275 9 50 40 175 70 278 63 221 76 289 73 367 -2 44 3 66 19 94
49 83 67 180 82 446 12 223 20 263 76 385 68 148 83 205 95 349 11 133 33 214
68 257 l18 22 30 -21 c50 -36 97 -94 157 -195 89 -153 174 -209 452 -301 219
-72 297 -127 355 -251 57 -121 72 -270 44 -440 -35 -212 -12 -384 75 -560 101
-206 303 -404 562 -549 l65 -36 141 0 c311 0 422 42 422 159 0 74 -39 113
-170 171 -108 48 -154 83 -194 151 -51 86 -83 187 -94 294 -8 84 -6 165 13
605 11 236 -19 428 -102 650 -86 230 -179 347 -421 527 -207 155 -263 228
-283 369 -12 84 7 178 56 276 20 40 40 76 44 80 17 19 191 -57 299 -131 31
-21 100 -77 154 -125 81 -73 153 -120 460 -303 717 -427 836 -503 1143 -733
235 -177 327 -219 441 -203 l46 6 -6 51 c-11 86 -75 198 -205 359 -106 131
-181 236 -181 253 0 3 -27 60 -61 127 -72 144 -184 316 -357 551 -191 261
-299 426 -374 574 -37 73 -68 138 -68 143 0 5 24 -4 53 -20 102 -58 227 -74
364 -45 71 14 131 34 387 128 223 82 527 68 702 -33 66 -38 118 -100 238 -284
110 -168 180 -244 265 -287 70 -35 105 -43 269 -64 68 -9 142 -22 166 -28 40
-11 49 -9 102 16 33 16 107 45 165 66 278 100 378 191 395 359 l7 59 -274 4
c-255 4 -278 6 -332 27 -107 42 -134 72 -182 196 -175 461 -337 685 -585 810
-165 83 -294 106 -565 103 -387 -5 -454 0 -570 42 -45 17 -75 38 -121 84 -53
54 -73 86 -143 232 -46 93 -90 177 -98 187 -9 9 -14 19 -12 21 5 5 326 86 534
135 143 34 811 181 1190 261 132 28 377 83 545 122 168 39 315 73 328 76 22 4
27 22 22 82 -5 63 -64 122 -140 139 -25 6 -97 11 -160 11 -157 0 -222 13 -374
72 -151 58 -256 81 -611 133 -574 83 -797 142 -992 264 -24 14 -43 29 -43 33
0 12 200 141 324 208 105 58 123 71 161 125 38 53 205 373 205 393 0 16 95
170 142 229 52 66 150 138 228 166 73 27 191 37 415 36 128 -1 232 3 265 10
82 17 162 58 296 152 66 46 143 95 171 108 l52 24 42 106 c56 142 96 262 114
339 19 81 19 208 0 262 -17 49 -71 120 -90 120 -7 0 -69 -59 -137 -131 -132
-140 -198 -192 -293 -230 -54 -21 -76 -23 -215 -23 -113 0 -197 6 -310 23
-274 42 -466 28 -687 -50 -48 -17 -178 -71 -288 -119 -111 -48 -211 -91 -223
-94 -13 -5 -56 -58 -109 -137 -152 -229 -270 -348 -413 -418 -71 -34 -80 -36
-175 -36 -95 0 -104 2 -178 37 -42 20 -80 44 -83 52 -6 16 46 147 108 269 50
102 110 195 198 312 37 50 177 277 310 505 355 607 534 878 706 1070 133 148
164 207 164 310 l0 57 -45 13 c-89 25 -161 -5 -302 -126 -57 -48 -164 -122
-266 -184 -301 -181 -336 -207 -652 -480 -295 -255 -400 -333 -560 -414 -78
-39 -254 -100 -263 -91 -2 2 4 17 13 35 26 49 52 139 65 223 15 89 9 351 -10
437 -29 138 -55 234 -95 358 -44 133 -44 134 -34 210 23 167 86 286 248 470
44 51 118 133 162 184 221 252 289 436 259 706 -40 370 -228 661 -498 772
-105 43 -115 44 -135 11z m-3037 -5701 c11 -7 6 -10 -20 -10 -26 0 -31 3 -20
10 8 5 17 10 20 10 3 0 12 -5 20 -10z"/>
</g>
</svg>
