<?xml version="1.0" standalone="no"?>
<!DOCTYPE svg PUBLIC "-//W3C//DTD SVG 20010904//EN"
 "http://www.w3.org/TR/2001/REC-SVG-20010904/DTD/svg10.dtd">
<svg version="1.0" xmlns="http://www.w3.org/2000/svg"
 width="964.000000pt" height="1280.000000pt" viewBox="0 0 964.000000 1280.000000"
 preserveAspectRatio="xMidYMid meet">
<metadata>
Created by potrace 1.15, written by Peter Selinger 2001-2017
</metadata>
<g transform="translate(0.000000,1280.000000) scale(0.100000,-0.100000)"
fill="#000000" stroke="none">
<path d="M8835 12737 c-482 -250 -781 -630 -886 -1127 -19 -87 -22 -137 -22
-295 -1 -195 10 -284 53 -455 11 -41 18 -76 16 -77 -1 -2 -36 8 -76 22 -134
46 -183 32 -264 -76 -125 -167 -189 -321 -190 -460 0 -77 3 -93 31 -150 18
-35 47 -79 66 -97 l34 -33 -24 -67 c-100 -275 -139 -578 -130 -1002 7 -286 15
-379 92 -1040 76 -653 86 -773 92 -1133 6 -323 1 -394 -34 -532 -18 -75 -72
-205 -84 -205 -5 0 -12 12 -15 26 -10 41 -97 165 -147 211 -26 24 -71 59 -101
78 -46 29 -55 40 -61 73 -3 21 -21 73 -40 116 l-34 78 155 378 c86 212 151
385 148 394 -15 39 -43 28 -346 -134 l-301 -162 -40 40 -40 40 133 396 c111
330 131 398 120 411 -7 8 -21 15 -31 15 -11 0 -172 -115 -359 -255 -187 -140
-344 -255 -350 -255 -15 0 -120 53 -120 61 0 4 52 169 115 366 64 197 114 369
113 383 -2 18 -10 26 -28 28 -20 2 -95 -54 -370 -279 -190 -155 -350 -283
-356 -286 -6 -2 -31 5 -56 16 l-46 20 38 98 c21 54 98 255 170 447 137 361
141 377 93 384 -11 2 -238 -99 -504 -224 -266 -124 -526 -246 -578 -270 -52
-24 -96 -42 -99 -39 -3 3 3 18 15 33 197 269 797 1109 800 1122 6 23 -25 52
-47 45 -10 -3 -292 -125 -626 -270 -335 -145 -609 -263 -611 -262 -1 2 149
227 333 501 225 333 334 504 332 518 -8 54 -11 53 -603 -201 l-566 -244 -29
34 c-16 19 -29 37 -30 41 0 4 162 260 360 569 198 309 360 569 360 578 0 20
-19 41 -36 41 -11 0 -343 -140 -974 -410 l-275 -118 -27 27 -27 26 9 360 c5
198 11 410 14 470 8 209 -3 205 -294 -95 l-232 -240 -116 0 c-152 0 -195 -21
-248 -118 0 -1 -48 18 -105 42 -185 79 -341 110 -549 109 -158 0 -248 -20
-375 -82 -134 -66 -235 -192 -307 -382 -30 -79 -32 -92 -32 -214 0 -105 4
-142 22 -194 l21 -64 -30 -121 c-26 -109 -28 -127 -18 -181 23 -126 127 -270
254 -350 33 -21 62 -40 64 -42 3 -2 -7 -16 -22 -31 -93 -97 -71 -230 59 -352
42 -39 62 -65 57 -73 -4 -6 -34 -48 -66 -92 -71 -95 -107 -167 -107 -215 0
-20 -13 -67 -29 -105 -81 -192 -82 -490 -5 -737 53 -169 153 -313 212 -306 26
3 27 6 39 93 7 50 20 115 29 145 25 85 96 215 184 333 73 99 82 107 101 96 16
-8 20 -17 15 -37 -3 -15 -17 -79 -31 -142 -51 -230 -44 -405 21 -542 44 -91
159 -207 256 -258 89 -47 93 -42 102 108 12 207 58 366 138 477 l42 58 28 -33
c15 -19 46 -70 67 -115 l40 -80 4 -460 c6 -475 13 -584 57 -847 24 -145 67
-318 109 -441 l30 -89 -92 -91 c-105 -104 -156 -189 -183 -303 -29 -123 -8
-289 50 -402 12 -23 16 -60 16 -149 0 -159 26 -280 84 -398 78 -159 185 -267
369 -373 106 -61 150 -67 155 -20 2 14 -20 115 -48 223 -28 108 -50 199 -47
201 2 2 23 -9 48 -25 37 -24 47 -37 67 -92 38 -109 108 -216 201 -310 47 -47
100 -96 116 -108 l30 -22 -40 6 c-80 12 -355 76 -496 115 -506 138 -911 321
-1243 558 -109 78 -284 248 -360 350 -107 142 -200 344 -222 482 -4 21 -15 47
-25 56 -17 15 -20 15 -53 -5 -78 -49 -211 -217 -271 -342 -82 -174 -101 -380
-51 -552 67 -229 211 -409 430 -541 66 -40 70 -36 -69 -56 -107 -16 -223 -53
-320 -103 -61 -32 -101 -62 -170 -132 -122 -122 -174 -228 -195 -397 -18 -151
18 -316 95 -432 33 -50 108 -116 133 -116 4 0 35 21 68 46 254 198 539 324
839 369 102 15 261 20 326 9 l36 -6 6 -91 c4 -74 2 -96 -12 -116 -21 -33 -20
-150 3 -209 l16 -44 -31 -37 c-53 -67 -72 -166 -45 -241 12 -31 11 -39 -9 -70
-68 -110 -89 -214 -82 -400 6 -157 22 -232 65 -314 l27 -51 -1 -455 c-1 -250
-5 -538 -8 -640 -6 -150 -4 -189 7 -204 34 -47 49 -27 348 462 l287 467 93 12
c52 6 96 9 99 7 2 -3 101 -217 220 -476 118 -259 223 -476 233 -482 40 -25 47
-6 204 554 84 299 158 547 165 552 7 4 20 8 28 8 9 0 137 -196 329 -505 264
-425 317 -505 336 -505 12 0 27 6 33 13 5 6 36 131 69 277 35 162 59 251 60
230 10 -143 74 -267 153 -300 41 -17 60 1 84 77 47 149 154 349 243 452 l30
35 31 -47 c35 -50 74 -82 114 -92 17 -4 107 -103 282 -310 142 -167 264 -306
272 -309 20 -8 42 3 48 22 3 10 12 161 21 336 8 176 16 321 18 322 1 1 38 16
82 34 44 17 142 62 217 99 l137 68 343 -289 c275 -231 348 -288 368 -286 18 2
26 10 28 28 2 15 -60 173 -154 395 -86 204 -160 379 -164 391 -7 18 4 31 81
92 l90 72 327 -232 c180 -127 356 -252 392 -278 36 -25 71 -50 78 -54 17 -10
49 1 57 21 3 11 -74 203 -202 500 l-207 484 109 108 110 108 470 -213 c422
-191 472 -212 490 -200 11 8 20 23 19 33 0 11 -147 191 -327 400 -180 210
-327 384 -327 388 0 19 114 206 124 202 6 -3 169 -47 361 -100 193 -53 432
-119 533 -146 101 -28 194 -51 207 -51 30 0 47 28 33 55 -6 11 -213 223 -461
472 -248 249 -449 454 -446 457 2 2 238 -29 524 -70 286 -41 538 -73 560 -72
37 3 40 5 40 33 0 28 -28 48 -520 375 l-520 345 0 50 0 50 443 55 c463 58 482
63 468 107 -4 14 -119 70 -414 203 -224 101 -409 185 -411 187 -2 1 3 11 13
22 19 21 53 23 706 41 584 16 629 19 640 40 6 10 7 25 4 33 -3 9 -205 140
-450 293 -244 153 -444 281 -444 285 0 4 9 27 19 52 l19 44 93 6 c52 4 281 16
509 27 228 12 430 23 447 26 25 4 34 11 39 30 4 16 1 30 -7 38 -8 7 -212 95
-454 195 -242 101 -441 184 -442 185 -1 1 12 49 29 107 l30 106 554 118 554
119 0 40 0 41 -233 64 c-127 35 -342 95 -477 132 -135 38 -258 72 -275 77 -29
7 -30 10 -33 68 l-3 61 93 7 c51 3 271 20 488 36 217 17 405 30 418 30 20 0
22 5 22 58 l0 58 -162 51 c-195 61 -649 204 -768 242 l-85 27 0 49 0 50 70 7
c39 3 267 26 508 49 l437 43 0 53 c0 49 -2 53 -27 60 -16 3 -244 54 -508 112
l-480 106 -3 36 c-2 28 1 37 15 41 10 3 240 40 510 84 l493 79 0 46 0 46 -62
17 c-79 20 -273 71 -683 176 -176 45 -325 87 -331 93 -15 17 -38 127 -27 137
4 4 121 31 258 59 326 68 329 69 333 103 3 27 -7 33 -370 213 -230 115 -378
195 -387 208 -29 44 -97 109 -133 128 -46 23 -46 25 -13 184 28 133 43 185 54
185 11 0 63 -58 109 -121 54 -75 86 -99 131 -99 41 0 109 38 153 86 56 61 139
188 196 301 89 175 103 215 109 321 6 89 5 94 -26 157 -34 69 -89 124 -158
158 l-41 20 85 101 c203 241 315 460 375 733 28 131 31 429 4 573 -23 126 -60
273 -98 390 -32 101 -146 400 -157 412 -3 4 -60 -21 -126 -55z m-5420 -8879
c396 -87 816 -141 1355 -173 477 -28 585 -36 707 -50 126 -16 243 -37 302 -56
l34 -11 -82 -47 -81 -47 -107 15 c-168 22 -738 21 -1023 -3 -257 -21 -547 -18
-830 9 -195 19 -359 41 -367 49 -6 6 -53 296 -53 330 0 15 5 17 28 11 15 -4
68 -16 117 -27z m734 -2547 l42 -50 -50 -68 c-27 -37 -65 -99 -85 -138 -19
-38 -35 -65 -36 -59 0 11 66 314 76 347 3 9 7 17 9 17 2 0 22 -22 44 -49z"/>
</g>
</svg>
