<?xml version="1.0" standalone="no"?>
<!DOCTYPE svg PUBLIC "-//W3C//DTD SVG 20010904//EN"
 "http://www.w3.org/TR/2001/REC-SVG-20010904/DTD/svg10.dtd">
<svg version="1.0" xmlns="http://www.w3.org/2000/svg"
 width="669.000000pt" height="1280.000000pt" viewBox="0 0 669.000000 1280.000000"
 preserveAspectRatio="xMidYMid meet">
<metadata>
Created by potrace 1.15, written by Peter Selinger 2001-2017
</metadata>
<g transform="translate(0.000000,1280.000000) scale(0.100000,-0.100000)"
fill="#000000" stroke="none">
<path d="M2535 12790 c-85 -14 -224 -55 -300 -89 -160 -73 -306 -204 -379
-342 l-40 -74 95 89 c114 109 232 187 342 228 70 26 96 31 177 31 65 0 109 -5
139 -17 53 -19 111 -62 111 -80 0 -9 26 -15 88 -19 259 -19 468 -110 624 -274
141 -149 224 -351 216 -527 -4 -96 -15 -101 -110 -52 -130 69 -230 162 -214
201 5 15 51 29 129 40 61 8 53 20 -40 63 -177 81 -398 81 -560 -2 -208 -105
-348 -345 -413 -710 -11 -60 -18 -111 -16 -113 2 -2 18 38 36 89 42 119 107
255 161 338 58 90 171 199 244 235 55 27 69 30 160 30 95 0 103 -2 163 -34
132 -72 218 -204 210 -324 -5 -73 -30 -107 -92 -128 l-47 -16 65 -38 c84 -49
180 -145 214 -215 23 -47 27 -68 27 -137 -1 -82 0 -83 25 -83 51 0 103 -22
146 -62 80 -73 125 -204 140 -405 l7 -92 37 -25 c21 -13 96 -89 168 -168 234
-256 393 -370 592 -424 72 -19 277 -24 319 -7 21 8 14 14 -80 67 -152 85 -261
167 -374 280 -242 242 -359 518 -358 836 1 140 18 238 64 364 62 166 61 163
55 286 -12 273 -124 464 -289 495 -22 4 -37 13 -37 21 0 32 -60 142 -103 190
-52 57 -128 101 -286 163 -142 57 -208 99 -325 210 -116 109 -164 139 -291
176 -101 30 -291 42 -400 25z"/>
<path d="M2607 12449 c-141 -18 -278 -83 -369 -175 -50 -50 -101 -124 -93
-132 2 -3 18 8 36 22 48 40 104 66 144 66 32 0 38 -4 51 -35 18 -44 18 -45 -8
-45 -39 0 -125 -47 -211 -113 -141 -111 -217 -139 -363 -138 l-91 0 9 -52 c10
-60 2 -129 -18 -169 -21 -40 -70 -73 -154 -104 -152 -54 -190 -101 -198 -245
-3 -63 -1 -89 7 -89 6 0 11 8 11 18 0 37 60 142 85 148 28 7 60 -9 81 -41 12
-19 22 -23 43 -19 63 13 110 -79 96 -191 -3 -29 -20 -100 -36 -157 -17 -57
-37 -148 -45 -203 -21 -133 -14 -347 15 -464 26 -101 87 -236 140 -305 35 -47
42 -52 100 -63 73 -14 208 -78 344 -163 54 -34 100 -60 101 -58 2 1 -1 35 -5
73 -6 44 -6 95 1 137 5 37 10 71 10 77 0 6 -32 26 -70 45 -116 59 -181 105
-260 185 -119 120 -174 244 -174 391 0 118 40 231 121 342 l34 47 -12 88 c-14
107 -6 277 16 353 55 181 183 300 342 316 l60 7 12 51 c33 147 186 302 369
374 57 22 83 26 172 26 86 0 114 -3 155 -21 l50 -21 -90 5 c-112 7 -183 -7
-277 -54 -122 -62 -244 -205 -273 -323 -6 -24 -5 -24 17 5 83 108 182 178 314
221 84 27 98 29 254 29 152 -1 171 -3 247 -28 45 -15 105 -43 134 -62 28 -20
53 -34 55 -32 8 8 -60 134 -102 188 -116 151 -327 262 -549 288 -101 12 -131
12 -228 0z"/>
<path d="M1512 10723 c-47 -174 -53 -378 -16 -523 21 -85 74 -196 116 -242
l33 -38 48 16 47 17 -45 48 c-54 58 -106 162 -137 274 -19 71 -22 106 -22 302
-1 123 -2 223 -2 223 -1 0 -11 -35 -22 -77z"/>
<path d="M2356 10080 c-26 -112 -23 -261 7 -381 27 -102 87 -234 144 -311 30
-41 40 -48 69 -48 110 0 190 -108 210 -286 l7 -53 65 -32 c123 -60 250 -214
362 -439 97 -194 188 -454 229 -656 11 -53 22 -98 24 -101 9 -9 79 61 98 98
25 49 24 66 -6 180 -30 114 -30 136 -5 267 23 119 25 207 6 277 -25 97 -67
155 -111 155 l-26 0 21 -22 c47 -51 50 -144 6 -195 -26 -30 -46 -27 -72 12
-14 22 -15 35 -5 100 14 98 14 233 0 276 -28 81 -110 144 -181 137 l-32 -3 52
-32 c54 -33 74 -71 55 -102 -7 -11 -5 -24 8 -46 23 -38 12 -60 -25 -51 -31 8
-156 149 -232 262 -103 154 -162 318 -150 417 4 41 3 48 -10 43 -43 -17 -124
-18 -177 -2 -153 45 -282 267 -305 526 l-8 85 -18 -75z"/>
<path d="M1672 9856 c-29 -8 -55 -16 -58 -19 -3 -3 21 -13 53 -22 143 -41 290
-153 338 -258 24 -50 25 -51 63 -49 50 4 149 -29 236 -79 38 -21 71 -37 73
-35 7 7 -47 108 -99 183 -158 229 -383 333 -606 279z"/>
<path d="M1950 9409 c-53 -10 -179 -70 -202 -96 -16 -17 -11 -18 110 -18 98 0
140 -4 182 -19 109 -37 200 -104 246 -182 l25 -42 49 19 c65 24 181 24 275 -1
39 -10 71 -17 73 -15 1 1 -26 29 -61 62 -244 228 -492 332 -697 292z"/>
<path d="M2337 8994 c-77 -18 -104 -33 -62 -34 66 -1 223 -41 291 -74 81 -41
112 -82 100 -132 -4 -16 -6 -31 -4 -34 2 -2 32 -14 66 -27 94 -32 166 -79 237
-155 99 -105 154 -243 155 -390 0 -51 -3 -59 -31 -82 -55 -46 -144 -27 -223
47 -21 21 -40 37 -42 37 -10 0 -2 -75 11 -107 24 -57 59 -97 162 -186 101 -85
153 -153 153 -197 0 -14 -13 -47 -30 -73 -35 -56 -35 -57 -12 -57 31 0 118
-47 138 -74 l19 -26 47 16 c96 32 119 97 99 274 -38 325 -157 683 -301 905
-134 205 -303 337 -478 374 -72 15 -224 13 -295 -5z"/>
<path d="M3631 8083 c30 -67 36 -169 14 -216 -17 -35 -66 -86 -134 -138 l-34
-25 12 -110 c14 -129 16 -356 2 -399 -9 -28 -9 -28 -10 17 -1 61 -20 194 -32
225 l-9 24 -33 -25 c-41 -32 -99 -56 -132 -56 -13 0 -53 20 -88 43 -91 62
-162 69 -235 21 l-26 -17 35 -18 c81 -41 126 -117 150 -253 15 -88 9 -131 -37
-256 -36 -99 -39 -112 -39 -220 0 -99 3 -120 22 -155 44 -82 44 -82 94 -48 24
17 67 42 96 56 66 34 83 59 83 122 0 38 -6 60 -26 89 -24 35 -25 42 -15 76 17
58 72 131 113 152 22 12 52 18 74 16 l38 -3 -41 -27 c-59 -39 -97 -120 -102
-217 -6 -123 24 -184 110 -226 l49 -23 6 25 c9 36 -2 126 -20 161 l-15 30 49
6 c34 5 68 20 112 49 60 40 62 44 64 87 1 25 12 72 24 105 78 210 90 251 90
315 0 75 -21 129 -70 178 -38 38 -47 36 -31 -9 21 -61 14 -115 -19 -151 l-30
-33 -20 23 c-56 66 -53 221 5 290 28 34 90 212 100 289 13 104 -42 210 -134
258 l-30 15 20 -47z"/>
<path d="M2305 7163 c-114 -24 -190 -66 -275 -152 -154 -154 -220 -351 -275
-808 -14 -114 -25 -213 -25 -220 0 -7 17 -21 38 -32 47 -25 110 -90 157 -164
39 -63 98 -194 110 -245 3 -17 10 -34 13 -36 4 -2 31 0 60 5 79 15 153 -3 190
-46 55 -62 74 -146 97 -435 21 -276 38 -370 78 -450 30 -61 86 -115 111 -107
5 2 34 59 64 128 81 186 81 257 1 274 -69 15 -123 94 -161 233 -18 65 -22 104
-22 257 0 99 5 205 11 236 l9 56 -105 -1 c-134 0 -196 22 -279 99 -103 95
-139 191 -149 395 -12 275 42 521 154 694 103 160 270 269 458 299 41 6 75 14
75 18 0 9 -110 19 -194 18 -39 0 -102 -7 -141 -16z"/>
<path d="M4093 7173 c-47 -5 -59 -23 -15 -23 49 0 174 -40 252 -81 218 -113
345 -319 391 -630 15 -103 6 -403 -14 -474 -60 -212 -217 -327 -425 -311 -77
6 -83 5 -78 -11 14 -48 27 -268 21 -348 -12 -158 -70 -342 -121 -386 -11 -8
-40 -23 -67 -33 -54 -20 -63 -40 -53 -112 5 -43 105 -294 116 -294 19 0 73 45
94 78 58 92 88 237 106 517 19 280 42 365 115 421 33 25 47 28 104 29 36 0 80
-3 97 -7 30 -7 31 -7 53 63 55 170 165 336 256 385 32 17 36 23 31 49 -3 17
-12 95 -21 175 -44 395 -104 603 -220 765 -57 81 -112 128 -200 171 -114 56
-241 73 -422 57z"/>
<path d="M2973 6921 c-59 -43 -99 -95 -163 -212 l-57 -104 31 -7 c38 -8 76
-51 76 -86 0 -47 11 -68 39 -79 20 -7 37 -28 60 -73 29 -59 31 -70 31 -169 0
-58 -5 -182 -12 -276 -12 -184 -7 -251 22 -287 15 -19 28 -23 77 -23 67 1 124
28 182 89 32 33 33 38 27 82 -10 78 -46 114 -112 114 -31 0 -30 14 6 76 56 98
144 148 220 125 53 -16 51 -27 -6 -34 -64 -7 -104 -46 -104 -101 1 -57 46
-106 97 -106 21 0 23 -4 23 -55 0 -68 17 -110 65 -163 48 -54 110 -78 159 -62
49 16 83 59 90 117 4 28 -2 114 -14 208 -32 256 -25 368 28 443 20 27 20 31 6
73 -9 24 -14 60 -11 80 12 90 88 183 177 216 l53 20 -48 18 c-64 25 -129 11
-240 -52 l-84 -48 6 -76 c6 -76 -11 -209 -27 -209 -4 0 -14 8 -21 17 -18 21
-129 93 -144 93 -9 0 -11 -19 -7 -68 6 -89 -19 -150 -71 -175 -54 -26 -60 -21
-27 24 39 55 47 99 26 154 -33 84 -67 84 -151 -1 -65 -67 -79 -66 -128 9 -97
148 -114 337 -42 490 12 26 19 47 15 47 -4 0 -25 -13 -47 -29z"/>
<path d="M2875 6255 c-19 -123 -62 -228 -130 -315 -63 -82 -75 -111 -75 -182
0 -35 -9 -94 -21 -133 -21 -71 -30 -219 -14 -244 4 -8 15 12 29 51 21 64 80
176 114 217 18 23 18 21 18 -100 0 -99 3 -131 18 -161 20 -42 60 -62 111 -56
35 4 36 3 29 -25 -8 -38 -8 -93 1 -106 13 -22 52 -10 133 39 109 65 173 87
222 73 23 -6 46 -6 61 0 40 15 120 -10 218 -68 109 -65 124 -70 141 -50 15 18
16 46 6 101 -7 40 -6 41 16 37 39 -7 90 11 112 41 18 24 22 46 26 164 l5 137
32 -50 c43 -67 88 -160 104 -214 10 -35 14 -40 20 -25 15 38 9 169 -11 242
-11 39 -20 99 -20 133 0 68 -4 77 -67 163 -76 103 -127 228 -146 356 -3 21 -5
18 -17 -20 -15 -48 -18 -209 -10 -500 l5 -165 -28 -47 c-32 -55 -69 -78 -127
-78 -61 0 -116 33 -206 124 l-81 82 -70 -72 c-156 -161 -282 -177 -351 -44
-23 44 -24 48 -15 225 11 251 8 420 -9 475 l-15 45 -8 -50z"/>
<path d="M1324 5645 c-233 -54 -380 -148 -441 -282 -25 -54 -43 -163 -27 -163
5 0 20 16 33 35 39 58 148 153 214 187 56 30 70 33 152 33 83 0 96 -3 160 -34
45 -22 91 -57 135 -100 l66 -66 49 12 c196 49 345 7 408 -116 35 -70 36 -130
2 -197 l-25 -49 19 -80 c62 -259 192 -505 333 -629 53 -47 199 -126 232 -126
22 0 20 14 -13 170 -13 58 -25 115 -27 128 -3 16 -11 22 -32 22 -76 1 -172 85
-229 201 -105 217 -149 584 -93 778 5 19 9 36 7 37 -1 1 -33 -5 -72 -13 -48
-10 -99 -13 -160 -9 -169 10 -299 71 -436 203 -100 96 -95 95 -255 58z"/>
<path d="M5125 5602 c-77 -84 -186 -155 -289 -189 -69 -22 -98 -26 -201 -26
-66 -1 -137 4 -157 10 -21 6 -38 10 -38 8 0 -2 7 -34 16 -72 21 -87 21 -277 0
-403 -51 -314 -171 -517 -316 -536 l-48 -6 -6 -57 c-4 -31 -15 -90 -26 -131
-11 -41 -20 -88 -20 -104 0 -26 2 -28 28 -21 49 12 126 52 186 96 158 118 312
400 370 674 13 65 13 70 -6 95 -55 74 -37 200 39 272 71 68 186 90 326 64 l89
-17 70 67 c44 41 96 78 137 98 59 28 76 31 156 31 80 0 97 -3 150 -30 65 -33
166 -122 210 -185 15 -22 32 -40 37 -40 14 0 -1 95 -24 158 -49 132 -226 245
-458 292 -149 30 -155 29 -225 -48z"/>
<path d="M2725 5460 c-27 -79 -29 -96 -29 -230 l0 -145 48 -145 c57 -172 59
-223 11 -312 -89 -164 -89 -165 -88 -252 0 -54 7 -102 22 -146 35 -107 36
-160 7 -287 -31 -131 -35 -208 -10 -199 34 13 146 100 184 143 68 78 67 155
-5 312 -45 98 -47 107 -43 170 13 180 208 371 397 388 33 3 61 7 61 8 0 1 -6
20 -14 41 -38 110 -26 229 39 387 6 15 0 17 -56 17 -89 0 -125 -12 -219 -75
-46 -30 -88 -55 -95 -55 -31 0 -48 39 -48 110 0 61 -2 70 -16 64 -9 -4 -28 -9
-44 -12 -24 -4 -29 0 -43 34 -10 24 -19 85 -23 154 l-7 115 -29 -85z"/>
<path d="M3936 5475 c-22 -217 -35 -248 -101 -228 l-35 11 0 -54 c0 -66 -22
-124 -47 -124 -10 0 -41 16 -68 36 -99 71 -142 88 -229 88 l-80 1 -19 -60
c-28 -91 -34 -231 -12 -310 17 -62 18 -65 49 -65 57 0 158 -30 228 -67 85 -44
164 -122 203 -199 26 -52 30 -69 30 -149 0 -84 -3 -95 -40 -175 -35 -74 -40
-94 -40 -156 0 -91 24 -129 142 -223 l88 -69 3 63 c2 40 -5 93 -18 143 -26
105 -25 155 6 282 39 158 33 214 -39 360 -71 144 -74 192 -27 322 49 132 70
233 70 336 0 91 -19 204 -45 266 -13 30 -13 30 -19 -29z"/>
<path d="M1003 5150 c-301 -78 -490 -257 -525 -498 -10 -66 -9 -92 4 -158 9
-44 22 -92 29 -109 l13 -30 3 35 c12 134 75 289 147 362 68 68 125 93 213 93
63 -1 81 -6 155 -42 104 -52 219 -156 322 -293 41 -54 79 -106 85 -117 11 -17
12 -17 28 7 9 14 40 48 69 77 168 167 423 57 474 -205 7 -34 10 -77 7 -96 -11
-67 81 -170 255 -286 79 -53 225 -130 299 -158 l24 -10 1 87 c0 53 7 103 17
131 18 50 15 55 -42 65 -59 10 -192 80 -259 136 -178 147 -333 434 -357 663
-4 36 -9 66 -11 66 -2 0 -34 -19 -71 -42 -99 -60 -181 -95 -256 -108 -186 -33
-355 99 -484 377 -38 82 -33 80 -140 53z"/>
<path d="M5539 5088 c-141 -282 -300 -404 -483 -368 -62 12 -179 63 -272 119
l-52 31 -12 -82 c-32 -227 -147 -447 -318 -610 -93 -88 -213 -159 -293 -173
-55 -10 -62 -17 -48 -51 7 -16 15 -75 18 -131 l6 -102 78 34 c183 80 377 217
457 324 37 48 40 58 40 115 1 201 130 359 295 359 96 1 172 -43 246 -142 l25
-34 61 84 c126 174 254 292 380 352 57 27 80 32 138 32 128 -1 214 -64 285
-209 37 -75 70 -194 70 -252 0 -45 17 -16 36 58 77 317 -97 577 -461 691 -44
13 -97 27 -117 31 l-37 7 -42 -83z"/>
<path d="M3390 4692 c0 -5 12 -76 27 -158 23 -132 26 -175 27 -374 0 -207 -2
-231 -24 -305 -39 -133 -38 -158 9 -271 53 -125 115 -224 194 -309 l62 -67 65
29 c36 16 102 43 147 59 l83 29 21 63 c16 48 20 81 17 132 -5 94 -34 133 -168
226 -121 84 -155 128 -166 211 -9 72 7 142 58 250 51 109 54 161 15 247 -27
57 -85 145 -98 146 -3 0 -9 -73 -12 -163 -4 -89 -13 -201 -22 -248 -14 -80
-53 -204 -62 -196 -2 3 2 38 8 78 20 127 -4 459 -42 575 -8 26 -17 34 -54 43
-52 13 -85 14 -85 3z"/>
<path d="M3200 4678 c-19 -5 -36 -11 -38 -13 -2 -2 10 -52 26 -112 50 -179 63
-252 68 -388 7 -148 -8 -241 -51 -328 -14 -29 -23 -41 -20 -27 40 196 23 414
-47 607 -31 87 -79 163 -102 163 -39 0 -141 -173 -139 -237 1 -18 21 -76 46
-130 55 -118 71 -197 57 -274 -15 -80 -38 -105 -213 -232 -93 -67 -122 -119
-121 -212 1 -43 8 -89 20 -119 19 -48 19 -48 109 -81 50 -17 114 -44 143 -59
40 -20 57 -24 71 -17 28 15 112 117 169 203 142 219 212 552 184 885 -11 129
-46 355 -58 375 -7 11 -60 9 -104 -4z"/>
<path d="M1595 4331 c-117 -126 -240 -182 -400 -183 -147 -2 -291 48 -430 147
-33 24 -71 54 -84 69 -29 31 -34 28 -129 -66 -155 -154 -264 -390 -279 -605
-7 -108 7 -191 47 -280 16 -35 30 -63 32 -63 2 0 3 69 4 153 0 137 3 160 27
232 117 352 397 442 691 222 l59 -44 54 33 c130 78 285 64 386 -34 69 -66 82
-102 83 -225 l0 -107 40 -41 c156 -159 480 -251 774 -219 159 17 150 13 133
68 -16 53 -22 172 -10 215 8 28 7 28 -20 14 -57 -30 -167 -57 -227 -57 -166 0
-319 86 -450 251 -113 143 -202 340 -229 506 l-12 79 -60 -65z"/>
<path d="M5025 4337 c-28 -248 -220 -571 -412 -694 -151 -96 -335 -109 -485
-32 -47 24 -51 24 -37 -2 16 -30 13 -155 -5 -214 -9 -27 -16 -51 -16 -51 0 -7
44 -14 144 -24 303 -32 634 65 794 232 32 34 32 35 21 88 -12 57 -6 134 16
186 20 49 83 113 139 142 44 22 64 26 141 27 93 0 137 -14 203 -66 23 -18 24
-17 85 28 188 138 352 159 497 62 129 -87 214 -263 227 -474 3 -49 1 -115 -5
-145 -6 -30 -9 -57 -6 -59 10 -10 74 149 84 212 32 185 -40 443 -174 632 -46
63 -179 195 -197 195 -6 0 -32 -18 -57 -41 -75 -66 -181 -126 -282 -160 -82
-27 -109 -31 -195 -31 -170 0 -289 53 -412 185 l-61 66 -7 -62z"/>
<path d="M120 3873 c-72 -115 -120 -298 -120 -457 0 -314 155 -738 393 -1079
30 -42 55 -66 92 -84 84 -43 131 -80 149 -118 19 -40 14 -69 -37 -189 -14 -33
-23 -65 -20 -72 9 -24 348 -115 363 -97 4 4 12 28 19 53 7 25 24 65 39 90 l25
44 13 -61 c15 -74 37 -119 66 -134 30 -16 239 -5 306 16 166 53 293 207 378
461 61 181 51 309 -26 349 -49 25 -112 18 -258 -29 -194 -63 -236 -74 -330
-85 -172 -22 -322 25 -509 156 -411 288 -608 750 -519 1216 7 37 11 67 9 67
-1 0 -16 -21 -33 -47z"/>
<path d="M6535 3900 c30 -155 34 -350 10 -477 -45 -237 -156 -447 -330 -624
-239 -244 -498 -350 -753 -310 -41 6 -150 36 -243 66 -204 66 -264 72 -309 27
-57 -57 -60 -192 -9 -346 31 -91 102 -223 158 -292 93 -115 184 -163 348 -185
178 -24 229 8 251 153 l8 53 23 -45 c13 -25 32 -67 41 -95 20 -59 12 -58 188
-19 124 28 202 57 202 75 0 6 -15 41 -34 78 -42 83 -51 122 -36 166 14 43 52
75 135 114 57 27 71 40 117 106 140 201 265 459 327 675 47 165 55 223 55 395
-1 144 -3 169 -27 248 -27 86 -80 203 -111 242 -16 20 -16 19 -11 -5z"/>
<path d="M3330 3574 c-25 -76 -67 -161 -129 -254 -61 -93 -62 -96 -51 -133 14
-48 39 -177 34 -177 -2 0 -24 15 -48 34 -25 19 -71 47 -103 62 -68 33 -347
144 -351 140 -1 -2 7 -25 19 -52 89 -209 102 -488 30 -658 l-19 -44 48 -6 c74
-10 133 -56 240 -189 52 -66 115 -132 139 -148 129 -86 321 -74 440 26 18 16
71 76 117 133 106 133 174 182 250 182 13 0 24 3 24 6 0 4 -12 39 -26 78 -36
95 -45 282 -20 405 14 69 51 185 81 254 16 38 -351 -113 -455 -187 l-49 -35 6
37 c3 20 14 69 23 107 l18 70 -43 65 c-65 99 -105 174 -135 252 l-28 71 -12
-39z"/>
<path d="M273 3306 c21 -219 374 -579 646 -660 104 -31 223 -22 511 40 148 31
282 35 348 11 l42 -16 0 27 c0 71 -96 217 -222 338 -132 127 -239 169 -332
130 -18 -7 -71 -46 -117 -86 -104 -90 -164 -120 -241 -120 -228 0 -464 134
-607 345 l-33 50 5 -59z"/>
<path d="M6365 3287 c-140 -196 -347 -311 -560 -312 -114 0 -168 23 -280 124
-100 89 -148 110 -214 92 -59 -15 -115 -49 -191 -112 -124 -103 -250 -287
-250 -365 l0 -33 38 16 c66 29 201 21 392 -22 256 -58 408 -59 539 -3 134 57
361 245 459 380 75 102 129 232 120 285 -2 16 -14 4 -53 -50z"/>
<path d="M1545 3208 c237 -169 363 -357 353 -528 -1 -33 -2 -60 -1 -60 2 0 41
22 88 49 47 27 123 61 170 76 117 38 154 33 248 -36 116 -85 228 -161 231
-158 29 33 56 148 56 238 0 96 -56 390 -79 414 -4 4 -40 -12 -80 -37 -142 -87
-264 -121 -381 -104 -34 4 -129 34 -213 67 -84 32 -174 67 -202 76 -58 19
-243 65 -264 65 -7 0 26 -28 74 -62z"/>
<path d="M5082 3240 c-61 -16 -156 -45 -210 -65 -53 -21 -140 -53 -192 -73
-87 -33 -104 -36 -200 -36 -124 1 -176 17 -313 95 -49 28 -90 50 -91 48 -9
-11 -56 -215 -67 -287 -19 -135 -3 -305 34 -355 13 -19 16 -17 257 152 74 52
76 53 135 48 70 -5 195 -52 287 -107 l63 -38 6 89 c5 78 11 99 47 171 24 50
66 110 103 151 59 66 188 173 259 216 48 29 22 27 -118 -9z"/>
<path d="M1870 2322 c0 -16 -9 -64 -20 -107 -26 -102 -26 -111 10 -212 17 -46
30 -103 30 -126 l0 -40 -31 46 c-17 25 -47 56 -66 68 l-36 23 -16 -25 c-9 -13
-45 -54 -80 -91 l-64 -68 45 0 c94 0 147 -74 148 -207 0 -57 2 -63 20 -63 12
0 33 -6 48 -14 100 -52 144 -203 124 -416 -11 -105 -43 -298 -58 -348 -14 -45
82 84 121 163 150 301 131 730 -51 1191 -47 120 -110 254 -119 254 -3 0 -5
-13 -5 -28z"/>
<path d="M4763 2264 c-247 -531 -289 -1024 -118 -1364 35 -69 105 -170 118
-170 5 0 6 4 3 8 -13 21 -47 221 -56 331 -18 200 11 339 85 411 18 18 48 35
67 39 l33 7 6 79 c8 128 43 174 136 184 l58 6 -37 28 c-28 22 -88 92 -125 146
-3 5 -83 -50 -83 -58 -1 -3 -14 -22 -31 -41 l-30 -35 7 40 c3 22 20 83 36 135
l30 94 -22 96 c-12 52 -25 108 -29 124 -6 28 -9 24 -48 -60z"/>
<path d="M2907 2245 c-55 -113 -134 -172 -215 -161 l-45 6 6 -88 c13 -209 109
-426 254 -575 66 -68 112 -101 200 -146 82 -41 95 -39 51 7 -79 84 -153 223
-189 357 -30 113 -30 270 0 445 24 144 21 178 -17 199 -16 8 -22 3 -45 -44z"/>
<path d="M3722 2277 c-27 -29 -28 -74 -5 -188 26 -129 24 -349 -5 -459 -31
-115 -101 -253 -164 -324 -57 -65 -50 -67 47 -18 181 90 316 255 392 477 27
81 53 217 53 282 l0 45 -35 -6 c-83 -16 -165 43 -222 159 -15 30 -30 55 -33
55 -4 0 -16 -10 -28 -23z"/>
<path d="M602 1676 c63 -290 196 -619 340 -841 218 -335 528 -598 858 -726
182 -72 367 -109 530 -109 81 1 207 20 255 40 29 12 26 13 -59 26 -239 36
-491 139 -644 262 -171 137 -243 301 -208 472 16 77 15 90 -12 90 -30 0 -118
58 -159 104 -71 81 -77 162 -18 248 l25 37 -35 21 c-54 34 -102 96 -115 151
-15 63 -1 127 45 204 35 58 34 60 -30 45 -22 -5 -87 -14 -145 -20 -67 -7 -111
-17 -122 -27 -51 -46 -49 -285 6 -493 8 -30 13 -57 10 -59 -2 -2 -22 34 -43
80 -42 90 -79 212 -106 349 -29 150 -28 148 -93 155 -100 12 -192 34 -246 58
l-53 25 19 -92z"/>
<path d="M6051 1743 c-44 -22 -135 -44 -246 -60 l-60 -8 -36 -155 c-19 -85
-43 -182 -53 -215 -19 -65 -84 -211 -90 -204 -3 2 4 40 15 84 34 146 41 360
14 444 -10 32 -31 39 -166 56 -68 9 -136 18 -151 21 l-27 6 39 -76 c34 -65 40
-87 40 -137 0 -88 -37 -148 -128 -209 l-23 -15 28 -40 c41 -60 44 -139 9 -200
-34 -57 -110 -118 -175 -140 l-49 -16 15 -51 c25 -83 14 -208 -24 -289 -52
-113 -190 -241 -341 -318 -136 -69 -330 -131 -487 -154 l-90 -14 55 -17 c124
-38 345 -37 528 3 641 143 1153 665 1376 1404 39 128 80 302 75 314 -2 4 -24
-2 -48 -14z"/>
</g>
</svg>
