<?xml version="1.0" standalone="no"?>
<!DOCTYPE svg PUBLIC "-//W3C//DTD SVG 20010904//EN"
 "http://www.w3.org/TR/2001/REC-SVG-20010904/DTD/svg10.dtd">
<svg version="1.0" xmlns="http://www.w3.org/2000/svg"
 width="1280.000000pt" height="640.000000pt" viewBox="0 0 1280.000000 640.000000"
 preserveAspectRatio="xMidYMid meet">
<metadata>
Created by potrace 1.15, written by Peter Selinger 2001-2017
</metadata>
<g transform="translate(0.000000,640.000000) scale(0.100000,-0.100000)"
fill="#000000" stroke="none">
<path d="M6285 5988 c-336 -458 -406 -566 -408 -633 -1 -20 11 -50 31 -80 62
-94 70 -165 82 -700 11 -519 19 -570 92 -594 50 -16 327 -31 573 -31 514 -1
917 -26 975 -63 102 -63 95 -488 -11 -705 -60 -123 -207 -254 -399 -355 -131
-69 -226 -106 -405 -158 -77 -22 -159 -51 -183 -65 -75 -44 -131 -137 -368
-607 -194 -386 -222 -447 -202 -442 13 2 75 16 138 30 469 103 930 290 1225
498 547 386 934 1065 1060 1857 43 274 58 632 30 726 -15 52 -59 105 -106 129
-48 25 -171 53 -279 64 -126 13 -443 26 -950 41 -485 14 -500 15 -500 43 0 33
-39 546 -45 592 -37 294 -65 423 -123 566 -26 66 -49 119 -52 119 -3 0 -81
-104 -175 -232z"/>
<path d="M11480 5690 l0 -250 250 0 250 0 0 250 0 250 -250 0 -250 0 0 -250z"/>
<path d="M5160 5580 l0 -250 248 2 247 3 3 248 2 247 -250 0 -250 0 0 -250z"/>
<path d="M4324 5065 c-316 -448 -352 -515 -326 -602 18 -60 60 -103 275 -276
319 -258 413 -365 472 -541 66 -196 75 -353 75 -1336 l1 -805 60 65 c291 313
520 656 568 850 35 139 44 371 38 905 -9 688 -26 922 -77 1054 -58 149 -227
402 -410 615 -103 119 -191 201 -330 306 -52 40 -100 76 -106 81 -7 6 -88
-100 -240 -316z"/>
<path d="M9284 4939 c-186 -221 -344 -409 -351 -419 -10 -13 3 -37 78 -146
194 -280 321 -587 675 -1629 141 -414 297 -843 346 -955 45 -100 163 -182 296
-206 226 -40 683 22 982 133 340 127 693 373 927 647 223 261 386 576 473 912
116 448 117 948 4 1521 -26 131 -143 533 -155 533 -9 0 -337 -407 -465 -576
-111 -147 -182 -267 -191 -318 -4 -24 5 -67 30 -143 95 -289 135 -513 144
-798 6 -217 -8 -330 -52 -420 -95 -195 -564 -446 -1010 -541 -47 -10 -130 -17
-200 -18 -113 -1 -123 1 -178 28 -38 18 -69 43 -88 69 -37 52 -70 156 -71 227
-2 92 38 151 269 402 242 264 336 391 428 583 140 289 167 573 95 990 -21 118
-84 407 -95 438 -25 63 -151 -56 -554 -523 -83 -96 -151 -183 -151 -192 0 -9
13 -72 29 -140 84 -353 106 -544 76 -658 -45 -174 -168 -364 -216 -334 -35 21
-136 287 -293 774 -63 195 -149 448 -190 562 -73 204 -236 598 -247 598 -3 0
-158 -181 -345 -401z"/>
<path d="M839 5242 c-98 -63 -332 -332 -472 -544 -137 -206 -215 -360 -326
-645 l-39 -103 213 0 213 0 6 -162 c3 -90 11 -350 17 -578 23 -966 32 -1029
197 -1393 l66 -147 1277 0 1276 0 16 53 c138 473 175 615 221 867 68 369 90
607 90 960 0 345 -19 527 -80 745 -57 207 -114 310 -256 469 l-83 93 -210 6
c-115 4 -496 11 -845 17 -814 14 -980 25 -1085 75 -27 13 -57 35 -65 47 -8 13
-19 71 -26 130 -11 104 -23 138 -48 138 -7 0 -32 -13 -57 -28z m1466 -1312
c217 -16 300 -33 344 -68 91 -73 154 -195 199 -386 25 -103 27 -127 27 -336
-1 -207 -3 -237 -29 -370 -16 -80 -31 -148 -35 -152 -12 -13 -1157 10 -1279
26 -142 19 -150 21 -190 60 -105 98 -169 371 -221 946 -12 124 -23 243 -26
264 l-6 39 533 -6 c293 -4 601 -11 683 -17z"/>
<path d="M10321 1108 c3 -95 7 -174 7 -175 1 -1 17 -10 34 -19 26 -13 72 -18
215 -22 l183 -5 0 -358 0 -359 200 0 201 0 -7 98 c-3 53 -13 215 -23 358 l-16
261 200 5 c219 6 248 13 265 61 5 16 10 97 10 178 l0 149 -637 0 -638 0 6
-172z"/>
</g>
</svg>
