<?xml version="1.0" encoding="utf-8"?>

<!DOCTYPE svg PUBLIC "-//W3C//DTD SVG 1.1//EN" "http://www.w3.org/Graphics/SVG/1.1/DTD/svg11.dtd">
<svg version="1.1" id="Layer_1" xmlns="http://www.w3.org/2000/svg" xmlns:xlink="http://www.w3.org/1999/xlink" x="0px" y="0px"
	 viewBox="0 0 1999.6578 1628.3655" enable-background="new 0 0 1999.6578 1628.3655" xml:space="preserve">
<g>
	<path d="M922.6418,334.4053c11.7554,15.9397,21.8417,33.1372,34.0081,48.7625c7.9095-22.6156,13.4244-46.0292,17.2459-69.6608
		c14.8756-99.2911,1.6932-199.6221,0.7498-299.3242c-5.6356,9.8927-9.1913,20.7773-13.908,31.1297
		c-11.6343,28.1304-23.9216,55.9949-35.3626,84.1976c-18.0198,40.9259-34.8062,82.3839-52.5601,123.4063
		c-1.1368,3.7008-4.6198,8.0787-1.161,11.5861C888.8031,287.6985,905.9523,310.8703,922.6418,334.4053z"/>
	<path d="M1088.3284,308.4276c8.4658-11.2958,16.6172-22.8334,24.8894-34.25c4.0151-5.6841,8.0546-11.32,12.0697-16.9799
		c-15.4319-33.8872-29.9446-68.2095-46.2229-101.6857c-3.3379-10.8845-9.4091-20.8499-13.7629-31.3715
		c-13.2065-28.3238-26.4132-56.648-40.1759-84.7058c-3.5314-7.5466-7.2805-15.0205-11.2231-22.3495
		c-0.895,28.5417-0.7498,57.1074-0.4354,85.6491c-0.9676,20.3902-1.3545,40.8533-1.282,61.2919
		c-1.3545,72.3943-1.4996,147.0136,24.4298,215.7313C1053.9818,356.0775,1071.2518,332.3252,1088.3284,308.4276z"/>
	<path d="M1273.1716,254.7547c62.9368,70.9427,105.7251,158.7205,126.454,251.0697c23.7524-13.2549,39.8857-36.2333,54.35-58.5831
		c3.3864-5.2243,6.6034-10.5458,9.6993-15.9397c-28.7834-44.1912-57.833-88.2371-84.3429-133.8553
		c20.5114,1.1609,40.9984,2.588,61.5096,3.9911c-30.1138-57.5914-66.1294-112.6671-110.1997-160.5588
		c-26.7517-31.6379-57.3251-60.1551-89.8335-85.8668c5.2245,9.1189,11.8278,17.3425,17.512,26.1953
		c15.1899,22.6882,28.348,46.6826,39.7648,71.4751c4.4506,12.8194,9.2156,25.7117,12.1422,39.1115
		c0.1451,1.3547,0.4354,4.0637,0.5564,5.418c-28.3965,4.0153-56.9865,7.5708-85.6974,8.0063
		C1241.0746,221.7383,1258.3204,237.1217,1273.1716,254.7547z"/>
	<path d="M567.2986,378.4754c-13.3275,19.2292-25.4456,39.2326-38.7005,58.5102c17.2217,26.0504,36.2091,52.5362,62.9368,69.5642
		c0.9191-3.6766,2.1768-7.3771,1.8141-11.1505l0.266-0.6531c5.0552-9.1428,6.6517-19.7128,10.2798-29.4364
		c12.7228-38.6282,29.0979-75.974,48.3514-111.7479c9.1188-15.4561,18.1166-31.0087,28.4691-45.6666
		c6.1436-10.4974,15.4076-18.9874,21.0434-29.6785c6.7484-6.5548,12.4809-14.0288,18.8665-20.898
		c15.2383-17.7057,33.0889-32.823,50.4315-48.3514c-24.3087-5.9504-49.5124-1.0644-74.1598-4.209l-0.4113-0.4594
		c-6.4339-1.5965-12.7953-3.604-18.1891-7.5708c11.6343-25.6874,23.2445-51.3991,36.7413-76.1916
		c12.5777-24.6233,28.0578-47.5533,43.9734-70.0963c-22.8818,18.3101-43.3205,39.547-64.001,60.3001
		c-20.7773,21.0194-40.4178,43.1513-59.236,65.9844c-31.7828,38.7974-60.2277,80.3761-84.2462,124.4223
		c13.2066,3.7005,26.7277-1.1129,39.9583-2.2254c8.2722-1.3546,16.5203,0.75,24.7925,0.6289
		c-1.4271,6.7966-5.9019,12.215-9.5784,17.9233C593.5666,337.8156,580.1424,357.9642,567.2986,378.4754z"/>
	<path d="M1176.1061,429.4148c52.0763,42.4982,101.3711,88.6484,156.6161,127.1313
		c-29.2673-44.7474-60.2277-88.3824-91.5994-131.6786c-27.9127-37.8295-56.0431-75.6351-87.0035-110.9977
		c-4.8375,9.9654-9.4091,20.0757-14.0773,30.1379c-6.3615,14.2466-13.2065,28.3481-18.4312,43.0783
		C1139.4132,401.4055,1158.2555,414.9264,1176.1061,429.4148z"/>
	<path d="M875.79,489.5699c-6.2888,30.6703-12.3599,61.3887-18.4069,92.1074c-5.1763,24.7925-10.1832,49.6093-15.0207,74.4741
		c22.8817,6.6277,45.6666,13.6904,68.645,20.0518c1.9834-13.4241,4.3539-26.7758,6.0954-40.2244
		c4.4989-30.67,9.3123-61.2919,13.8596-91.9622c4.9586-34.2739,10.0864-68.4998,15.3593-102.7014
		c-15.5285-24.5023-29.9929-49.6819-45.981-73.8697C891.9475,408.1055,883.9655,448.8619,875.79,489.5699z"/>
	<path d="M1090.2394,367.3975c-13.7145,22.7848-27.2356,45.7632-40.3938,68.8869c-0.2902,15.48,3.5315,31.1055,5.7084,46.4889
		c8.1997,63.2028,17.512,126.2603,26.4132,189.3907c22.9299-5.0797,46.0535-9.8446,68.1613-17.9233
		c-0.9918-7.3532-2.3705-14.658-4.0636-21.8417c-13.5695-74.6193-27.9852-149.0938-41.8208-223.6647
		C1101.0029,394.4878,1101.3657,378.3544,1090.2394,367.3975z"/>
	<path d="M760.5594,417.1517c-8.8528,10.8845-16.4961,22.6882-24.7925,34.0321c-23.7766,34.0324-48.7385,67.2664-71.7653,101.7826
		c17.9715-12.1423,34.2742-26.6066,51.6893-39.5471c17.6813-14.2466,36.1608-27.4776,53.4794-42.1353
		c22.8574-17.1733,45.3038-34.9274,67.7017-52.6811c12.4083-9.5783,24.7925-19.205,37.1282-28.8559
		c-11.8037-25.9053-23.9218-51.762-38.7488-76.1193c-3.0235,2.8058-5.8293,5.8777-8.103,9.3607
		c-11.1506,16.3994-23.3654,32.0731-34.2256,48.6901c-11.3925,14.5369-21.5031,30.0656-32.5327,44.9169L760.5594,417.1517z"/>
	<path d="M874.5566,807.5432c-18.9633,4.7165-37.4428,11.199-55.7531,17.9714c-45.86,18.5764-92.8569,46.2471-114.6501,92.7363
		c-2.3221,5.0067-4.3055,10.2314-6.0954,15.5042c-12.4326-3.6039-24.1878-10.2798-32.1697-20.6562
		c-12.1908-15.6497-17.3911-35.145-25.0585-53.1166c-12.8197,13.1825-31.2991,2.6367-46.3198,0.2179
		c-0.6047,10.9568-4.2087,21.4546-9.1671,31.202c-8.3448,15.5529-19.9067,30.6945-37.2493,36.6688l0.2903,0.1695
		c-10.3525,2.5637-20.9951,3.5798-31.6378,3.3137c-17.27,0.3868-34.4676-2.1043-51.7135-1.1129
		c8.2964,12.4568,15.5769,25.8327,19.3503,40.3939c7.9579,28.3723,4.3055,58.6071-3.87,86.4956l-0.1693,1.6931
		c-4.3538,6.5063-9.6025,12.3599-15.3109,17.778c-12.9889,9.772-29.1221,14.8513-45.328,15.2142
		c16.9073,17.7295,37.0558,33.7418,46.5374,57.059c2.2254,7.1837,6.3131,16.3026,1.1369,23.1479
		c-13.2791,16.6893-27.2113,33.0646-43.78,46.6096c35.9674,44.2396,76.3852,84.9718,120.9633,120.5281
		c34.637,26.9211,70.8945,52.2941,110.5141,71.33c-11.6585-13.7389-23.0509-27.7676-32.2906-43.2721
		c-21.6481-34.9271-33.1616-75.0791-38.3619-115.5695c-2.2495-33.8387-1.3303-68.0887,6.1194-101.2744
		c6.2647-23.0269,9.8687-46.876,19.3987-68.9353c6.3615-15.4561,14.0532-30.4281,23.7525-44.0701l-0.2903-0.3387
		c12.36-16.1091,24.7925-32.3633,40.0551-45.86c16.7863-15.5529,35.2416-29.1464,54.5193-41.3853
		c24.2604-14.8755,49.6817-27.7679,75.998-38.5313c10.9814-5.1762,23.0027-8.1997,33.5969-13.908
		c22.93-6.434,45.3522-14.6819,68.5726-20.1241l-0.3145-0.4113c30.6943-8.2723,62.211-13.4244,92.9296-21.2612
		c-37.3218-15.8186-75.3209-30.0168-113.3683-43.9733C881.7645,810.3488,878.1605,808.946,874.5566,807.5432z"/>
	<path d="M1981.4153,886.7099c0.7015-9.3607-0.7983-18.6729-1.2094-27.9855c-3.604-46.6823-8.9252-93.4373-19.4955-139.08
		c-7.0385-39.0147-18.5519-77.3284-31.3474-114.8922c-9.4575-26.4855-19.9548-52.6085-31.9762-78.0297
		c-49.7302-106.8377-125.4141-203.4921-224.6567-268.3398c-14.9963-9.8201-30.1864-19.3987-46.1985-27.4047
		c-20.6082-11.3927-42.0627-21.092-63.9042-29.8238c17.149,74.1842,31.5651,153.3992,8.6833,227.9944
		c-8.9495,27.9855-24.5023,54.0839-46.1262,74.1115c-14.5127,13.8354-32.0247,23.8492-48.3997,35.2418
		c-9.5785,5.3939-18.6005,11.6826-28.1547,17.1006c-17.1008,10.2556-34.9031,19.2534-52.2699,29.0012
		c-13.6178,5.9262-26.4857,13.4728-40.2485,19.1085c-17.3911,8.4899-35.1932,16.085-53.0923,23.4136
		c-17.9957,7.2083-35.8706,14.7064-54.2775,20.7776c-20.6322,7.0626-41.1436,14.4642-61.9449,20.9948
		c-10.3282,3.7008-20.7773,7.1356-31.1782,10.6669c-35.3625,11.8279-70.8944,23.3171-106.1361,35.4352
		c-9.2638,2.5156-18.3342,5.684-27.4047,8.7559c5.2245,2.5396,10.5458,4.9102,15.9639,7.0869
		c38.6521,15.3353,76.8929,31.8555,115.642,46.9002c10.7878-2.443,20.8014-8.1755,31.2506-11.9728
		c28.082-10.8845,56.4545-21.0433,85.3347-29.5575c14.2706-3.459,28.9769-5.5149,43.6105-2.975
		c7.1355,1.9349,14.9238,2.3461,21.4064,6.2646c10.062,7.4497,19.4954,15.7947,28.4207,24.6472
		c14.3434,14.3435,28.0579,30.9605,31.8069,51.496c9.6752-14.2466,19.9791-28.1062,32.0247-40.442
		c12.9648-13.1341,28.3966-23.2203,43.4899-33.6212c-18.3345-8.3931-40.6598-12.0939-52.9956-29.6058
		c-1.161-11.32-0.2661-23.0026,4.9584-33.2341l-0.1692-0.532c8.3689-14.658,20.8257-26.8003,35.532-35.0484
		c14.948-7.8611,29.7751-15.9639,44.6263-24.0425c11.441-5.9501,22.6641-12.3358,34.2743-18.0198
		c7.8851-2.0804,16.3268-4.4266,24.4297-1.9594c11.3683,3.8942,19.8582,13.0131,27.0419,22.2769
		c13.0857,17.3912,24.3572,36.693,41.5547,50.5042c2.8541,0,5.7325,0.0484,8.6349,0.1453c5.37-30.9363,9.651-62.3079,8.49-93.752
		c-0.6289-18.2861-13.0612-36.572-4.8375-54.6402c31.2026,4.9825,56.0917,26.6308,78.4412,47.4565
		c17.8749,14.9479,26.1711,37.3701,37.4188,57.1074c25.3246,50.6492,43.8522,104.6123,55.3656,160.0506
		c4.0876,18.4072,6.8696,37.0559,9.6267,55.7288c2.5883,18.9874,4.1603,38.1201,5.6602,57.2527
		c2.0559,32.5567,1.9833,65.2345,0.7981,97.8396c-1.4753,25.7843-3.5558,51.5686-7.0629,77.2076
		c-2.322,14.053-4.6439,28.1305-6.9417,42.1833c-3.2172,11.9974-5.636,24.1879-8.6836,36.2334l0.1694,0.5081
		c-6.047,20.6804-11.6829,41.5546-19.4229,61.7032c-6.9904,19.0599-15.2627,37.636-24.3331,55.8011
		c-11.6102,21.382-24.5746,41.99-39.813,60.9774c-8.3206,9.1188-16.3268,18.5521-25.3246,27.0178
		c-18.1167,5.6357-37.4427,4.9103-55.6563,0.0485c1.8383,16.2057,0.1692,32.484-2.177,48.569
		c-5.2731,27.9613-16.2058,54.3984-28.7351,79.8198c-3.1444,4.4508-5.9019,9.1915-8.6108,13.9807
		c-23.4138,40.563-53.8905,76.4576-85.2378,111.0221c3.9183-1.8141,7.7883-3.7493,11.4408-6.047
		c36.1849-23.4862,71.3782-48.5209,105.3621-75.079l-0.0485-0.3871c32.4841-25.1793,63.5415-52.2699,92.7363-81.1985
		c24.0668-23.7523,47.5531-48.2064,68.9353-74.4259c22.809-26.8969,43.9976-55.1481,63.5654-84.4637
		c9.2638-13.7629,18.3342-27.6467,26.6792-41.9902c6.6033-11.465,13.4725-22.809,19.2776-34.6853
		c7.063-12.2389,12.5779-25.252,18.7456-37.9263c6.4824-15.3353,13.3517-30.5011,18.7455-46.2471
		c7.5225-20.5839,13.7872-41.5791,19.5195-62.6949c8.0789-32.2184,13.9321-65.0169,16.6899-98.106
		C1982.431,942.9708,1982.8907,914.7435,1981.4153,886.7099z"/>
	<path d="M869.7673,1071.7225l-2.7332-0.7015l0.6289,1.9351c-1.5721,1.0642-4.7408,3.2169-6.3372,4.3055
		c-2.709-1.016-5.4423-1.7899-8.1029-2.7333c0.653-2.709,1.3061-5.3699,1.9592-7.9821
		c9.2638-51.496,19.447-102.8224,28.5416-154.3423c1.6205-4.886-1.6932-8.877-4.0393-12.7228
		c-24.0911,9.4091-48.7385,17.3425-72.8537,26.7031c-0.508,4.1848-1.9109,8.4415-1.282,12.747
		c-0.2418,1.7176-0.7014,5.1278-0.9434,6.8454l-1.6447,0.532c-0.895,6.4579-2.1285,12.9162-2.83,19.4468
		c0,1.0886-0.0242,3.2656-0.0242,4.3539c-3.9184,2.3704-1.9834,8.7802-2.1527,12.747l-0.2661,0.6289
		c-0.508,1.2094-1.5239,3.6282-2.0319,4.8376c-5.2003,24.3812-8.8527,49.0772-13.8837,73.5068
		c-0.2418,2.3947-1.3787,5.1036-0.3145,7.5708c-3.6765,10.4248-4.7166,21.4789-6.8935,32.2665
		c-6.3856,34.5161-13.1097,68.9595-19.0842,103.548l-0.532,1.8141c-0.3629,2.4672-0.7256,4.9828-1.0643,7.5469
		c37.8538-10.522,75.0064-23.8495,111.2155-39.1603c1.0159,0.9192,3.0719,2.709,4.0878,3.604
		c-2.0559,11.2231-2.2252,22.6639-3.8217,33.984l-0.7498,1.2578c-1.0159,23.9215-4.7891,47.6014-7.1837,71.4264l0.7982,1.7417
		c-2.6123,6.1919-2.564,13.1096-2.8301,19.7855c-6.6516,54.7854-13.1824,109.6432-19.5436,164.5013
		c-0.1935,1.016-0.6047,3.0477-0.7982,4.0637c-1.9592,11.6342-3.4589,23.3652-4.4749,35.1688
		c7.3774-9.675,13.3759-20.2451,19.8098-30.5007c25.615-42.6917,48.811-86.7375,73.5068-129.9369
		c8.3448-14.8998,16.8105-29.7269,25.6149-44.3362c3.6765-5.4423,3.3137-12.1908,3.6282-18.3831
		c0.2418-35.7251,3.3862-71.4506,2.1285-107.1519c1.5479-21.7932,2.2977-43.6833,1.161-65.4766
		c0.2418-29.7509-0.1935-59.502,0.5563-89.2289C927.6005,1040.5686,898.4058,1055.7102,869.7673,1071.7225z"/>
	<path d="M1128.2383,1171.5457c37.1769,14.1014,73.8455,29.6058,111.1189,43.4413c-4.886-27.4774-10.1589-54.9063-14.6578-82.432
		l-0.4596,0.2175c-4.3053-27.7191-9.9412-55.1964-14.8513-82.819c-7.3773-39.4987-14.6819-78.9976-22.2769-118.4719
		c-0.8707-3.5074-1.0643-8.4658-5.6359-8.8528c-25.7357-7.8853-51.1571-16.8346-76.8931-24.6957
		c2.1528,13.6178,4.7167,27.1629,7.2322,40.7322c7.8611,43.1994,15.5527,86.423,23.7283,129.55l-0.9917,0.3145
		c-0.6531,1.3544-1.9834,4.0635-2.6365,5.4181c-27.3323-13.231-54.35-27.1871-80.5939-42.4255
		c-4.9585-3.1687-9.8445-6.4098-14.7545-9.5783c-0.1451,10.0139-0.5563,20.0757,0.895,30.0654
		c-1.6448,16.0123,1.4996,32.3875-0.2418,48.545c-0.2421,25.4215,1.6205,50.8186,1.6447,76.2397
		c-0.2177,9.8446-0.4113,19.7131,0.6531,29.5577c-0.9192,15.5043,1.4995,31.1056,0.0242,46.6824
		c0,14.658-0.2418,29.4851,1.3303,44.0704c8.4657,17.6085,18.8666,34.2739,28.0337,51.5441
		c24.8168,43.5623,49.077,87.5359,75.7079,129.9854c5.3698,9.7961,11.2231,19.3744,17.6813,28.5417
		c-0.1451-11.5134-1.9108-22.9059-3.604-34.2017c-9.8445-78.7073-19.7614-157.4142-29.5333-236.0973
		c-2.7815-19.326-4.8134-38.7247-7.3773-58.0508c1.5239-2.2012,3.0477-4.3781,4.5715-6.4824
		C1126.8354,1172.1504,1127.7787,1171.739,1128.2383,1171.5457z"/>
	<path d="M1567.0779,1226.5972c-22.2769-16.6897-45.7875-38.7247-46.5858-68.5967c1.2821-10.1832,5.2972-19.6888,12.1423-27.3566
		c12.9647-12.6017,28.2272-22.3979,42.1111-33.9113c-16.351-1.1368-33.5244-3.0477-47.5775-12.2389
		c-13.8596-8.5868-24.6957-23.0511-24.3572-39.9342c-1.4027-15.3591-1.427-30.7668-0.3385-46.1263
		c3.0477-22.2285,9.2397-43.9249,18.939-64.17c-28.8318,8.5865-58.2926-1.9836-87.1729-3.338
		c-9.2639-4.7891-18.0682-11.1506-23.2928-20.342c-8.9253-15.9155-12.9404-33.9114-19.8098-50.6733
		c-9.6993,6.6032-20.3419,14.174-32.7261,12.9404c-5.6116-0.0968-9.0222-5.1036-12.6746-8.5383
		c-4.3296,12.2392-9.2156,24.3331-15.2383,35.8704c-8.1271,14.9482-18.8423,28.4449-32.4116,38.7974l-0.4596-0.2903
		c-1.2335,0.75-3.725,2.2496-4.9827,2.9751c-34.7578-66.976-95.7112-116.7789-163.0502-148.8278
		c-24.4054-10.5458-49.9961-18.044-74.9095-27.332c-35.0724-12.4326-69.9753-25.3972-104.9993-37.9266
		c-30.0172-11.5858-60.3729-22.3979-90.4141-33.8629c-37.9265-14.6093-75.5629-29.8961-113.1507-45.3038
		c-22.3011-10.2556-45.207-19.1569-67.2905-29.8719c-24.067-10.5217-47.7225-22.9785-71.4266-33.5969
		c-27.4775-15.335-55.511-29.7269-82.3837-46.1503c-14.1984-9.0704-28.4449-18.0927-42.1595-27.9128
		c-20.221-13.0373-33.5968-34.0082-44.699-54.8339c-12.0455-24.5988-18.9632-51.4475-22.1802-78.562
		c-5.8293-58.1234,3.6524-116.6094,18.9632-172.6285c-26.4615,10.3282-53.2132,21.4788-76.7479,37.3704l-0.6772,0.4594
		c-9.7962,3.5555-18.2135,10.038-26.8728,15.7463c-25.8326,16.4478-49.6817,35.8946-72.2248,56.5753
		c-20.1968,18.5519-39.0875,38.5553-56.6721,59.623c-13.3033,16.6412-27.3564,32.9438-38.0474,51.4472l0.0483,0.871
		c-6.6999,5.3938-10.2072,13.7143-15.1174,20.6562c-28.7109,44.5783-52.8261,92.0832-72.4666,141.3538
		c-33.21,82.287-52.3909,169.9678-57.7605,258.4952c-2.8541,62.6223,0.1693,125.8008,13.1098,187.2377
		c21.769,109.6677,71.8621,212.345,138.0641,301.9609c57.3492,77.9088,126.8409,146.6023,203.8549,205.0402
		c32.4842,24.478,65.8151,48.1577,101.0568,68.524c-28.59-31.6376-56.5753-64.1461-78.5862-100.8149
		c-20.4145-32.7501-34.7821-69.2256-41.4095-107.2488c-0.1935-13.8595-1.6689-27.7191-0.0484-41.5305
		c-7.7886,3.0234-15.3109,7.7887-23.946,7.7161c-11.0054,0.6772-20.8257-4.9344-30.4524-9.3849
		c-1.4996-1.0642-2.951-1.8867-4.4022-2.7333c-12.2632-9.3364-26.8486-17.1249-34.1532-31.3473
		c-39.3536-63.2755-65.2829-134.2666-79.9407-207.1687c-14.0291-74.0874-17.9717-149.9888-12.7228-225.1644
		c-0.0484-11.6345,3.2411-23.2206,2.3461-34.7579c2.2979-8.3208,2.8541-16.9315,4.0393-25.4214
		c4.3055-29.3398,9.9896-58.4863,17.8748-87.0762c13.0373-48.7627,29.6301-97.1384,56.1642-140.3619
		c15.4801-24.091,34.3467-46.5374,58.6555-62.0903c15.0932-8.9252,31.5651-16.4475,49.2464-17.9714
		c-1.8867,24.3086-3.8942,48.6174-5.8292,72.9263c-2.0076,25.1551-1.3547,51.8101,10.6425,74.6678
		c16.859-15.3353,32.5569-31.9039,47.8194-48.8112c6.8452-7.2805,12.1181-16.3994,21.3337-20.9951
		c15.8188-1.9106,31.4924,1.6207,46.7309,5.4183c7.087,2.6848,13.1098,7.4497,19.7372,11.0779
		c15.8672,10.0623,32.1456,19.471,48.037,29.509c19.2051,13.1099,35.6287,33.4035,36.8864,57.446
		c-14.2465,18.8182-34.5402,34.0325-57.6879,39.8376c16.351,8.006,32.1214,17.6812,44.6024,31.1297
		c12.3115,11.7795,21.8657,25.9293,32.1456,39.426c10.5701-21.1401,22.9542-41.5545,38.8699-59.0906
		c8.5383-7.9337,19.0842-13.1583,29.3398-18.4072c14.7545-5.4904,30.3799-9.5298,46.2714-8.5139
		c16.3752,1.9349,32.194,6.6998,47.6016,12.4326c42.619,15.4558,82.2628,40.9498,127.9536,46.6097
		c5.2245,0.6774,10.6668,0.5082,15.577,2.7333c23.4621,9.3126,46.9727,18.5764,70.5074,27.6952
		c52.1248,20.366,103.9834,41.3611,156.1808,61.5579c16.2543,6.5309,32.5084,13.1583,48.0853,21.2612
		c74.8854,37.4669,144.1836,91.9622,185.0126,166.3878c8.3448,15.2142,13.9807,31.7347,20.6564,47.6501
		c13.5695,48.3999,17.3428,99.4845,10.3525,149.3114c-1.2821,12.2631-5.2488,24.1151-6.3856,36.3301
		c-6.8693,18.8663-12.2633,38.3619-21.89,56.1157c-11.078,23.6558-27.2839,44.2638-44.0219,64.0977
		c43.4656-21.2128,83.1335-49.5366,120.7456-79.7714c12.0939-10.1345,24.212-20.2452,35.7738-30.9363
		c24.1879-21.5996,47.2388-44.4331,69.2739-68.1853C1556.8223,1238.1591,1561.9259,1232.3297,1567.0779,1226.5972z"/>
</g>
</svg>
