<?xml version="1.0" standalone="no"?>
<!DOCTYPE svg PUBLIC "-//W3C//DTD SVG 20010904//EN"
 "http://www.w3.org/TR/2001/REC-SVG-20010904/DTD/svg10.dtd">
<svg version="1.0" xmlns="http://www.w3.org/2000/svg"
 width="1280.000000pt" height="1272.000000pt" viewBox="0 0 1280.000000 1272.000000"
 preserveAspectRatio="xMidYMid meet">
<metadata>
Created by potrace 1.15, written by Peter Selinger 2001-2017
</metadata>
<g transform="translate(0.000000,1272.000000) scale(0.100000,-0.100000)"
fill="#000000" stroke="none">
<path d="M6090 12714 c-339 -22 -586 -51 -850 -99 -2454 -448 -4435 -2291
-5044 -4692 -188 -744 -241 -1515 -155 -2278 200 -1783 1160 -3406 2637 -4457
1329 -947 2967 -1349 4597 -1128 1819 246 3455 1272 4470 2805 115 173 211
331 282 465 103 193 124 234 183 360 280 604 468 1264 544 1910 34 291 41 413
40 770 0 266 -5 414 -17 545 -79 819 -280 1534 -633 2245 -620 1252 -1624
2260 -2869 2883 -726 362 -1475 574 -2310 653 -149 14 -749 26 -875 18z m-150
-66 c-726 -153 -1305 -475 -1768 -981 -655 -717 -939 -1676 -777 -2623 198
-1152 1032 -2101 2165 -2463 316 -101 563 -138 990 -151 317 -10 403 -20 642
-80 1089 -273 1967 -1120 2282 -2200 80 -274 115 -503 123 -810 8 -328 -18
-577 -92 -870 -257 -1022 -998 -1845 -1997 -2220 -57 -21 -145 -55 -196 -74
-223 -87 -424 -116 -850 -123 -429 -7 -698 12 -1100 77 -1629 265 -3088 1155
-4082 2490 -577 775 -982 1720 -1144 2671 -62 364 -86 657 -86 1066 0 311 14
558 45 801 165 1268 704 2446 1554 3395 148 165 438 450 596 585 462 396 961
713 1527 973 583 267 1320 466 1953 528 61 6 124 13 140 15 17 1 50 3 75 3
l45 1 -45 -10z m855 -2067 c97 -26 247 -97 329 -155 149 -106 296 -297 355
-462 51 -141 64 -228 58 -393 -7 -206 -50 -346 -156 -507 -135 -204 -330 -349
-566 -420 -110 -32 -319 -44 -442 -24 -523 84 -899 584 -833 1107 53 429 358
764 784 864 113 26 355 21 471 -10z"/>
<path d="M6234 4166 c-215 -41 -383 -125 -527 -265 -408 -394 -416 -1033 -18
-1432 345 -344 875 -393 1283 -118 81 54 203 176 257 257 64 95 118 215 147
327 21 83 26 123 26 235 1 149 -13 226 -61 358 -109 300 -378 540 -699 623
-101 26 -310 34 -408 15z"/>
</g>
</svg>
