<?xml version="1.0" standalone="no"?>
<!DOCTYPE svg PUBLIC "-//W3C//DTD SVG 20010904//EN"
 "http://www.w3.org/TR/2001/REC-SVG-20010904/DTD/svg10.dtd">
<svg version="1.0" xmlns="http://www.w3.org/2000/svg"
 width="1280.000000pt" height="922.000000pt" viewBox="0 0 1280.000000 922.000000"
 preserveAspectRatio="xMidYMid meet">
<metadata>
Created by potrace 1.15, written by Peter Selinger 2001-2017
</metadata>
<g transform="translate(0.000000,922.000000) scale(0.100000,-0.100000)"
fill="#000000" stroke="none">
<path d="M6084 9203 c17 -42 78 -269 100 -368 31 -137 63 -357 72 -492 l7
-103 -59 0 c-195 0 -634 82 -858 159 -33 12 -61 21 -63 21 -1 0 -3 -150 -3
-334 l0 -334 74 23 c262 84 575 141 860 158 l49 2 -7 -105 c-14 -219 -68 -514
-132 -728 -19 -64 -37 -125 -40 -134 -5 -16 2 -18 50 -18 66 0 63 10 44 -163
l-11 -107 -36 21 c-514 308 -1015 555 -1381 682 -286 99 -485 138 -733 145
-258 6 -388 -15 -575 -96 -297 -128 -564 -423 -728 -802 -15 -36 -28 -66 -29
-68 -1 -1 -62 9 -136 23 -766 140 -1381 101 -1812 -116 -112 -57 -210 -130
-313 -233 -400 -402 -519 -1000 -345 -1729 152 -634 530 -1353 1064 -2020 232
-290 342 -409 1027 -1112 507 -520 684 -707 840 -885 108 -123 262 -315 330
-413 l54 -77 3021 0 3021 0 39 82 c50 101 186 311 290 443 264 337 544 622
1410 1437 295 277 383 368 511 528 463 581 868 1367 1023 1985 155 620 110
1093 -142 1482 -302 468 -810 703 -1517 703 -272 0 -524 -26 -823 -84 l-118
-23 -17 41 c-8 23 -42 93 -73 156 -220 440 -541 698 -949 765 -123 20 -380 20
-519 0 -278 -40 -661 -163 -991 -318 -52 -24 -117 -55 -145 -67 -106 -50 -413
-215 -577 -311 -94 -54 -173 -98 -175 -95 -5 4 -23 162 -23 199 0 26 2 27 51
27 60 0 59 -16 6 166 -41 139 -79 314 -101 465 -18 118 -37 339 -31 348 5 9
198 -5 335 -24 194 -28 507 -102 633 -150 16 -7 17 13 17 330 0 312 -1 337
-17 331 -9 -4 -69 -22 -132 -40 -245 -71 -513 -120 -729 -133 l-113 -6 6 79
c24 292 90 632 164 847 l20 57 -336 0 c-310 0 -335 -1 -329 -17z m-1475 -2968
c125 -19 304 -65 428 -110 306 -112 697 -350 947 -577 l48 -43 -21 -295 c-86
-1231 -74 -2376 39 -3610 11 -118 22 -230 25 -248 l6 -32 -667 2 -667 3 -65
120 c-109 203 -504 990 -586 1170 -438 956 -659 1642 -717 2229 -15 151 -7
460 16 580 85 458 344 736 755 811 102 18 338 18 459 0z m4044 -6 c667 -135
908 -794 677 -1849 -153 -699 -556 -1667 -1196 -2872 l-99 -188 -662 0 -663 0
0 23 c0 12 9 112 20 222 101 1034 126 2191 70 3220 -13 243 -39 617 -46 675
l-5 46 108 91 c405 339 841 555 1278 632 157 28 383 28 518 0z m-6303 -594
c52 -8 119 -19 148 -25 l52 -12 0 -157 c0 -503 116 -1048 368 -1721 254 -683
571 -1245 1207 -2145 l176 -250 -658 -3 -658 -3 -160 164 c-482 492 -969 1082
-1309 1584 -603 892 -772 1493 -552 1968 211 457 751 690 1386 600z m8615 0
c414 -67 741 -299 875 -622 62 -148 74 -219 75 -418 0 -186 -5 -222 -52 -390
-188 -670 -901 -1690 -1930 -2763 l-118 -123 -661 3 -662 3 170 240 c696 986
1004 1549 1288 2355 194 553 299 1107 300 1586 0 68 4 93 14 97 7 3 60 13 117
22 57 9 111 18 119 19 49 11 386 4 465 -9z"/>
</g>
</svg>
