<?xml version="1.0" standalone="no"?>
<!DOCTYPE svg PUBLIC "-//W3C//DTD SVG 20010904//EN"
 "http://www.w3.org/TR/2001/REC-SVG-20010904/DTD/svg10.dtd">
<svg version="1.0" xmlns="http://www.w3.org/2000/svg"
 width="1280.000000pt" height="640.000000pt" viewBox="0 0 1280.000000 640.000000"
 preserveAspectRatio="xMidYMid meet">
<metadata>
Created by potrace 1.15, written by Peter Selinger 2001-2017
</metadata>
<g transform="translate(0.000000,640.000000) scale(0.100000,-0.100000)"
fill="#000000" stroke="none">
<path d="M6260 6216 c-159 -37 -237 -77 -303 -158 -29 -35 -139 -210 -149
-238 -2 -4 -46 -4 -98 1 -166 15 -259 -14 -316 -100 -30 -46 -42 -122 -33
-199 17 -129 140 -302 413 -579 l189 -193 -63 0 c-98 0 -133 23 -321 206 -91
88 -185 173 -210 187 -100 58 -252 75 -299 32 -41 -37 -45 -82 -19 -214 30
-158 23 -209 -49 -334 -62 -109 -78 -194 -69 -374 7 -150 28 -219 108 -348
147 -239 154 -283 67 -446 -66 -123 -74 -154 -55 -201 18 -42 67 -68 131 -68
81 0 236 39 321 81 112 55 166 98 275 224 52 61 126 142 165 182 l70 71 83 6
82 5 0 -118 0 -118 -49 -6 c-60 -7 -86 -22 -113 -65 -30 -48 -21 -113 22 -157
31 -32 32 -34 16 -57 -21 -30 -120 -115 -156 -133 -44 -23 -167 -53 -266 -65
-76 -9 -112 -9 -215 5 -68 10 -147 26 -175 36 -75 28 -213 127 -255 182 -20
27 -87 161 -150 299 -63 137 -117 251 -120 254 -3 2 -12 -38 -19 -89 -31 -232
-62 -408 -82 -471 -20 -60 -31 -76 -90 -130 -132 -123 -296 -176 -433 -142
-189 47 -289 124 -390 300 -26 44 -27 49 -9 43 100 -31 141 -38 219 -39 170
-1 293 50 416 172 169 166 219 390 139 618 -26 75 -100 182 -164 238 -97 86
-252 143 -387 144 l-57 0 30 87 c53 152 40 325 -34 467 -45 86 -165 204 -248
244 -176 85 -386 84 -552 -5 -75 -39 -198 -164 -236 -238 -107 -213 -89 -449
49 -631 l46 -61 -73 -6 c-223 -19 -424 -181 -495 -399 -20 -60 -24 -93 -24
-188 0 -117 12 -174 55 -260 17 -34 17 -43 -10 -252 -32 -247 -50 -340 -80
-419 -25 -68 -72 -142 -104 -162 -31 -21 -134 -47 -181 -47 l-38 0 26 26 c49
49 47 125 -5 169 -41 34 -80 32 -172 -10 -43 -19 -81 -35 -86 -35 -23 0 -92
119 -120 206 -40 126 -46 167 -26 183 24 20 91 4 141 -35 79 -60 120 -82 206
-109 150 -48 217 -35 239 46 20 73 1 120 -89 224 -93 106 -104 134 -96 247 6
83 4 103 -20 183 -31 107 -82 216 -125 267 -44 53 -135 121 -227 170 -102 54
-169 110 -181 151 -6 18 -13 61 -16 96 -7 75 -38 125 -94 148 -104 44 -197
-50 -222 -225 -8 -56 -6 -92 10 -188 25 -155 25 -236 0 -293 -20 -44 -20 -44
-41 -25 -60 54 -79 160 -79 439 0 223 -6 271 -46 395 -50 155 -118 217 -247
227 -99 8 -165 -22 -254 -113 l-73 -74 -72 0 c-81 0 -149 -25 -219 -80 -78
-63 -93 -114 -56 -201 l15 -36 102 34 c131 44 230 53 285 27 80 -38 207 -189
279 -332 50 -100 74 -166 91 -257 23 -117 21 -126 -25 -155 -50 -31 -64 -64
-56 -134 6 -46 4 -62 -17 -103 -74 -145 -53 -311 54 -428 66 -71 137 -105 238
-112 44 -3 92 -14 113 -24 65 -33 159 -21 197 25 8 9 25 16 40 16 23 0 28 -7
46 -62 10 -33 38 -93 60 -133 l41 -72 -41 -22 c-69 -37 -94 -106 -60 -171 30
-58 89 -65 185 -24 33 15 63 24 66 21 10 -10 35 -117 29 -126 -3 -5 -23 -12
-45 -16 -55 -9 -84 -36 -150 -135 -64 -98 -86 -161 -75 -216 9 -51 96 -135
204 -198 l84 -49 62 12 c93 17 88 22 83 -72 l-4 -82 -107 -179 c-59 -98 -106
-182 -105 -187 2 -4 82 -64 178 -133 166 -120 176 -129 207 -188 18 -35 32
-66 33 -70 0 -3 -34 -12 -76 -19 -74 -12 -77 -13 -109 -58 -49 -67 -112 -189
-125 -243 -7 -26 -9 -64 -5 -84 9 -49 79 -117 180 -176 l80 -46 77 14 c345 60
1031 144 1468 178 935 74 1808 106 2890 106 1501 0 2730 -65 3780 -201 250
-32 616 -86 639 -94 31 -12 205 144 241 215 37 72 14 158 -83 308 l-45 70 -86
12 c-47 7 -86 15 -86 17 0 2 15 34 34 71 34 65 39 70 210 192 97 69 176 128
176 131 0 4 -49 90 -110 192 l-110 186 0 81 c0 73 2 81 18 77 68 -19 126 -28
146 -23 69 17 232 140 261 197 29 56 9 138 -66 269 -58 99 -75 115 -147 129
-51 10 -62 15 -59 29 3 9 11 40 18 67 6 28 13 51 14 53 1 1 32 -11 69 -28 102
-45 160 -39 191 20 34 67 1 149 -74 179 l-28 12 41 73 c23 40 51 101 61 134
18 55 23 62 46 62 15 0 32 -7 40 -16 38 -46 132 -58 197 -25 21 10 69 21 113
24 101 7 172 41 238 112 107 118 128 283 54 429 -21 41 -24 58 -18 101 8 67
-5 99 -55 132 l-41 28 6 65 c9 99 31 175 85 287 79 167 206 325 295 367 55 26
154 17 285 -27 l102 -34 15 36 c37 87 22 138 -56 201 -70 55 -138 80 -219 80
l-72 0 -73 74 c-89 91 -155 121 -254 113 -134 -10 -197 -71 -254 -245 -32 -96
-32 -99 -40 -377 -8 -325 -19 -386 -78 -439 -21 -19 -21 -19 -42 29 -19 42
-21 60 -16 139 3 50 13 132 21 183 39 242 -73 440 -216 380 -59 -25 -88 -73
-97 -164 -4 -43 -13 -88 -19 -99 -17 -32 -89 -86 -175 -132 -93 -49 -183 -117
-227 -170 -43 -51 -94 -160 -125 -267 -24 -80 -26 -100 -20 -183 8 -113 -3
-141 -96 -247 -90 -104 -109 -151 -89 -224 22 -81 89 -94 239 -46 86 27 127
49 206 109 50 39 117 55 141 35 20 -16 14 -57 -26 -183 -27 -85 -97 -206 -119
-206 -4 0 -44 16 -88 35 -97 42 -131 44 -171 10 -52 -44 -54 -120 -5 -169 l26
-26 -38 0 c-47 0 -150 26 -181 47 -32 20 -79 94 -104 162 -31 80 -49 178 -80
421 -26 206 -26 216 -10 250 43 88 55 143 55 260 0 94 -4 128 -24 187 -71 218
-273 381 -495 400 l-73 6 46 61 c138 182 156 418 49 631 -38 74 -161 199 -236
238 -84 45 -175 67 -277 67 -173 0 -298 -51 -415 -169 -124 -124 -173 -245
-173 -421 0 -80 5 -109 30 -182 l31 -88 -57 0 c-283 -1 -528 -205 -577 -482
-36 -198 21 -376 165 -518 123 -122 246 -173 416 -172 78 1 119 8 219 39 18 6
17 1 -9 -43 -101 -176 -201 -253 -390 -300 -55 -14 -77 -15 -142 -5 -150 21
-320 136 -370 250 -24 54 -54 212 -89 464 -9 70 -21 124 -25 120 -4 -4 -57
-117 -117 -250 -61 -133 -125 -263 -141 -287 -35 -51 -89 -97 -176 -149 -82
-50 -122 -62 -264 -81 -138 -19 -239 -13 -381 25 -92 25 -138 51 -214 124
l-59 56 34 17 c52 26 82 78 76 130 -8 76 -72 122 -167 122 l-50 0 0 120 0 119
83 -6 c98 -7 97 -6 272 -208 134 -154 161 -181 239 -230 86 -55 151 -81 259
-104 165 -36 239 -23 272 45 22 47 13 85 -46 191 -55 97 -74 160 -64 212 8 43
46 119 120 241 32 51 64 109 72 128 40 96 54 288 32 437 -9 60 -21 93 -62 162
-71 124 -78 176 -48 334 20 102 22 127 12 160 -23 75 -110 99 -232 63 -90 -26
-137 -61 -309 -229 -187 -183 -222 -205 -321 -205 l-64 0 166 168 c195 196
271 284 350 404 75 115 92 166 88 272 -3 70 -8 89 -32 124 -58 89 -150 119
-317 103 -52 -5 -96 -5 -98 -1 -2 4 -30 54 -64 111 -103 175 -167 226 -348
276 -74 20 -250 26 -320 9z m-2869 -2088 c-11 -31 -26 -33 -45 -3 l-16 25 34
0 c32 0 35 -2 27 -22z m6063 -3 c-19 -30 -34 -28 -45 3 -8 20 -5 22 27 22 l34
0 -16 -25z m-6088 -852 c-36 -208 -65 -279 -149 -363 -60 -60 -113 -80 -233
-87 -111 -7 -213 19 -268 67 -52 46 -110 143 -175 293 l-60 137 57 -44 c108
-85 226 -126 366 -126 161 0 302 57 411 165 33 33 62 59 64 58 2 -1 -4 -46
-13 -100z m6249 -55 c93 -48 174 -68 281 -68 140 0 258 41 366 126 l57 44 -60
-137 c-65 -150 -123 -247 -175 -293 -55 -48 -157 -74 -268 -67 -121 7 -173 27
-235 89 -83 83 -122 187 -156 420 l-7 48 63 -63 c37 -35 94 -78 134 -99z"/>
</g>
</svg>
