<?xml version="1.0" standalone="no"?>
<!DOCTYPE svg PUBLIC "-//W3C//DTD SVG 20010904//EN"
 "http://www.w3.org/TR/2001/REC-SVG-20010904/DTD/svg10.dtd">
<svg version="1.0" xmlns="http://www.w3.org/2000/svg"
 width="1280.000000pt" height="1124.000000pt" viewBox="0 0 1280.000000 1124.000000"
 preserveAspectRatio="xMidYMid meet">
<metadata>
Created by potrace 1.15, written by Peter Selinger 2001-2017
</metadata>
<g transform="translate(0.000000,1124.000000) scale(0.100000,-0.100000)"
fill="#000000" stroke="none">
<path d="M6313 11223 c-62 -22 -129 -99 -142 -166 -7 -33 -7 -66 -2 -90 8 -34
7 -38 -7 -32 -137 57 -282 -28 -282 -164 0 -57 20 -100 63 -138 69 -61 168
-68 241 -18 l36 24 0 -139 0 -140 -192 0 -191 0 20 23 c33 35 43 62 43 112 0
60 -19 103 -63 142 -89 78 -222 63 -290 -34 -35 -49 -43 -105 -24 -161 14 -41
14 -42 -5 -36 -45 14 -121 5 -174 -21 -166 -81 -166 -310 0 -398 32 -17 58
-22 117 -22 l76 1 -13 -33 c-35 -82 8 -178 100 -225 55 -28 139 -22 195 15 92
61 108 194 33 280 -14 16 -5 17 176 17 l192 0 0 -233 0 -234 -56 -12 c-77 -18
-195 -66 -279 -115 -100 -59 -267 -228 -324 -329 -89 -158 -127 -318 -118
-492 13 -229 97 -414 267 -585 l95 -96 -70 16 c-297 72 -597 176 -919 319
-152 68 -179 71 -215 25 -11 -14 -25 -49 -31 -77 -6 -29 -14 -57 -18 -63 -4
-6 -68 -28 -142 -49 -202 -56 -367 -118 -545 -205 -174 -85 -293 -160 -427
-269 l-86 -70 -59 10 c-187 31 -523 40 -703 19 -492 -57 -944 -236 -1300 -514
-222 -173 -365 -326 -533 -570 -45 -65 -101 -142 -125 -170 -23 -28 -47 -69
-53 -91 -6 -22 -33 -87 -59 -145 -88 -193 -142 -361 -185 -575 -33 -164 -50
-314 -80 -692 -14 -190 -33 -359 -44 -413 -36 -162 -95 -330 -172 -481 -22
-45 -37 -85 -32 -89 4 -5 47 -24 95 -44 106 -43 298 -137 298 -146 0 -3 -17
-12 -38 -19 -163 -59 -270 -211 -242 -345 15 -71 52 -107 117 -113 75 -7 130
27 168 105 59 119 116 154 214 132 31 -7 70 -19 86 -28 113 -57 278 -206 420
-377 46 -55 97 -113 114 -129 28 -27 31 -35 31 -91 0 -81 33 -147 114 -228
131 -131 330 -193 423 -132 23 16 30 15 131 -26 95 -38 114 -50 173 -108 130
-131 203 -304 224 -532 7 -70 5 -80 -16 -108 -14 -20 -24 -49 -27 -86 -4 -46
-1 -61 19 -90 23 -33 56 -55 84 -55 16 0 20 -12 36 -102 l11 -67 -52 -123
c-29 -68 -61 -142 -71 -165 l-18 -43 120 -112 119 -113 16 -78 c15 -76 15 -83
-6 -199 -35 -185 -19 -262 77 -368 37 -41 51 -50 78 -50 l34 0 -25 45 c-164
292 436 645 1476 869 1224 263 2801 288 4110 65 969 -164 1655 -447 1787 -736
31 -67 34 -152 9 -201 -21 -40 -20 -42 8 -42 31 0 120 95 148 157 26 59 26
150 0 286 -17 89 -18 105 -5 170 l14 72 122 117 122 116 -60 147 c-33 81 -64
154 -70 162 -8 11 -7 39 3 102 14 84 15 88 50 107 77 41 106 140 62 212 -24
40 -26 114 -6 223 34 175 101 310 215 432 40 43 74 62 187 108 75 29 80 30
106 14 100 -58 291 0 423 130 79 78 115 149 115 228 0 56 2 60 48 110 27 29
82 93 124 142 220 263 446 413 567 376 50 -15 86 -52 125 -132 25 -51 39 -67
76 -87 134 -71 252 43 206 201 -28 98 -125 197 -228 234 -27 9 -48 20 -48 23
0 9 192 103 298 146 48 20 91 39 95 44 5 4 -10 44 -32 89 -77 151 -136 319
-172 481 -11 54 -30 223 -44 413 -30 378 -47 528 -80 692 -43 214 -97 382
-185 575 -26 58 -53 123 -59 145 -6 22 -30 63 -53 91 -24 28 -80 105 -125 170
-168 244 -311 397 -533 570 -356 278 -808 457 -1300 514 -181 21 -516 12 -704
-20 l-59 -9 -71 60 c-159 136 -404 277 -646 372 -114 45 -328 113 -426 136
-51 12 -52 13 -73 72 -25 68 -61 114 -95 123 -17 4 -63 -12 -157 -55 -288
-131 -601 -243 -854 -303 -60 -15 -117 -29 -125 -32 -8 -3 17 24 57 61 129
118 213 253 269 430 25 81 28 105 29 230 0 117 -4 154 -24 225 -48 176 -114
285 -250 420 -130 128 -283 214 -445 251 l-56 12 0 234 0 233 192 0 c181 0
190 -1 176 -17 -75 -86 -59 -219 33 -280 105 -69 245 -26 294 89 19 46 19 79
1 121 l-13 33 76 -1 c59 0 85 5 117 22 166 88 166 317 0 398 -53 26 -129 35
-175 20 -20 -6 -20 -5 -6 29 41 98 -15 208 -124 245 -19 6 -43 11 -55 11 -71
0 -157 -55 -182 -117 -27 -63 -14 -145 28 -190 l21 -23 -191 0 -192 0 0 140 0
140 38 -25 c76 -50 170 -43 239 18 43 38 63 82 63 138 0 136 -145 221 -282
164 -15 -6 -16 -3 -7 30 14 49 -3 126 -39 175 -61 87 -175 120 -279 83z
m-1334 -3641 l49 -99 -34 -12 c-38 -14 -80 -63 -86 -101 -2 -21 -10 -26 -52
-34 -40 -7 -51 -6 -60 6 -24 33 -81 58 -131 58 -60 0 -105 -24 -137 -75 -20
-30 -28 -35 -63 -35 -31 1 -44 6 -58 25 -17 24 -17 24 35 66 115 91 444 298
475 299 7 0 35 -44 62 -98z m2969 66 c152 -84 314 -190 419 -275 43 -34 43
-35 25 -58 -13 -19 -26 -24 -57 -24 -34 0 -43 5 -60 32 -32 50 -80 77 -137 77
-54 0 -80 -10 -119 -47 -23 -22 -32 -24 -73 -18 -39 6 -47 11 -53 34 -9 39
-41 79 -76 97 -18 9 -33 18 -35 19 -6 5 92 195 100 195 5 0 34 -14 66 -32z
m-2676 -808 c114 -335 373 -1278 357 -1295 -4 -3 -120 -8 -260 -11 -253 -6
-255 -6 -514 30 -289 40 -547 71 -673 81 l-83 7 -50 72 c-207 292 -262 627
-156 946 21 62 23 65 52 63 140 -12 466 -14 556 -4 224 26 493 96 652 171 34
15 68 28 76 27 8 -1 26 -38 43 -87z m2422 40 c131 -54 307 -104 464 -132 107
-18 164 -22 362 -23 129 0 264 2 300 5 l64 5 19 -50 c54 -142 72 -356 42 -512
-30 -160 -106 -332 -205 -465 l-49 -67 -40 14 c-22 7 -89 27 -149 43 l-108 29
-190 -54 c-213 -61 -426 -131 -526 -173 l-67 -29 -218 36 c-120 20 -220 38
-223 40 -13 12 180 734 292 1088 78 248 98 297 117 291 9 -2 61 -23 115 -46z
m-4788 -87 c-69 -235 -94 -478 -106 -1018 -5 -231 -12 -429 -14 -440 -3 -11
-7 -32 -11 -47 l-5 -28 -208 0 -207 0 -165 -116 c-177 -125 -376 -274 -505
-378 -44 -35 -83 -61 -87 -57 -16 15 -99 286 -124 403 -35 168 -44 438 -19
590 78 474 412 847 912 1017 147 50 344 87 486 90 51 1 58 -1 53 -16z m7159 7
c362 -42 676 -181 910 -402 199 -188 325 -422 369 -687 23 -136 21 -369 -4
-518 -19 -111 -72 -320 -88 -350 -6 -11 -22 -5 -71 27 -128 83 -391 239 -566
337 l-180 100 -160 17 c-88 9 -181 16 -207 16 -26 0 -49 4 -52 9 -4 5 -10 198
-16 428 -5 230 -16 486 -25 568 -13 133 -61 400 -80 448 -6 15 -1 17 36 17 24
0 85 -5 134 -10z"/>
</g>
</svg>
