<?xml version="1.0" standalone="no"?>
<!DOCTYPE svg PUBLIC "-//W3C//DTD SVG 20010904//EN"
 "http://www.w3.org/TR/2001/REC-SVG-20010904/DTD/svg10.dtd">
<svg version="1.0" xmlns="http://www.w3.org/2000/svg"
 width="944.000000pt" height="1280.000000pt" viewBox="0 0 944.000000 1280.000000"
 preserveAspectRatio="xMidYMid meet">
<metadata>
Created by potrace 1.15, written by Peter Selinger 2001-2017
</metadata>
<g transform="translate(0.000000,1280.000000) scale(0.100000,-0.100000)"
fill="#000000" stroke="none">
<path d="M4638 12776 c-186 -66 -345 -199 -480 -401 -70 -106 -162 -292 -208
-423 -31 -86 -36 -95 -69 -109 -222 -96 -331 -165 -452 -284 -85 -85 -146
-169 -191 -265 -31 -67 -58 -154 -58 -191 0 -14 36 -59 103 -130 292 -304 437
-492 540 -698 80 -161 127 -326 127 -451 l0 -53 -262 2 c-226 2 -271 0 -319
-15 -31 -10 -61 -24 -67 -31 -21 -25 -32 -143 -32 -342 0 -110 -4 -206 -9
-214 -13 -20 -211 -9 -321 18 -352 85 -623 245 -1177 699 -93 76 -175 142
-181 146 -19 12 -160 -32 -242 -75 -233 -121 -400 -360 -455 -653 -9 -44 -19
-83 -23 -87 -4 -4 -38 -17 -77 -29 -263 -85 -533 -301 -725 -581 l-63 -91 7
-73 c19 -205 115 -400 278 -564 124 -125 271 -223 431 -287 l80 -33 34 -102
c111 -340 319 -605 559 -712 l42 -19 103 63 c252 152 524 255 839 316 121 23
160 26 370 27 237 1 410 -14 429 -38 10 -12 25 -103 41 -246 12 -104 34 -210
51 -241 23 -44 125 -72 338 -94 85 -9 158 -18 162 -21 4 -2 5 -111 2 -242 -6
-245 4 -521 37 -1082 36 -603 43 -817 37 -1145 -9 -524 -53 -829 -168 -1179
-161 -490 -451 -859 -889 -1134 -91 -57 -96 -61 -108 -108 -17 -63 -9 -174 18
-256 97 -293 476 -667 860 -850 67 -32 104 -59 175 -127 184 -177 394 -281
690 -343 94 -19 140 -22 310 -22 178 0 214 3 329 27 283 60 515 178 685 347
60 60 98 89 167 123 284 144 532 342 683 546 112 152 188 338 206 502 l7 66
-99 65 c-156 105 -297 221 -449 373 -417 414 -540 752 -606 1660 -16 224 -16
1238 1 1709 6 181 14 495 18 698 3 203 9 371 13 373 4 2 81 11 171 20 174 16
240 31 303 67 47 27 58 58 81 243 23 182 36 259 46 271 33 41 539 55 744 21
325 -55 672 -183 942 -348 l68 -42 60 33 c235 129 422 375 525 688 l37 114 83
34 c333 136 601 409 675 689 9 33 19 101 22 151 l6 92 -62 89 c-188 275 -437
476 -706 569 -98 34 -105 39 -105 78 0 56 -40 197 -79 281 -115 245 -300 410
-533 475 -40 11 -76 20 -79 20 -4 0 -97 -74 -208 -164 -370 -304 -555 -432
-784 -546 -213 -106 -405 -162 -603 -176 -90 -7 -91 -6 -98 17 -4 13 -10 137
-13 274 -3 138 -9 258 -14 267 -5 9 -35 27 -66 40 -56 22 -69 23 -323 23
l-265 0 2 80 c3 125 42 258 123 420 106 213 247 397 514 672 l139 144 -12 52
c-19 75 -83 209 -137 283 -124 175 -339 335 -551 409 l-52 19 -36 105 c-110
321 -296 589 -505 726 -73 48 -226 114 -265 114 -11 1 -50 -10 -87 -23z m208
-501 c94 -55 173 -167 291 -415 38 -80 85 -170 105 -201 35 -54 38 -56 182
-122 81 -36 184 -88 229 -114 99 -59 205 -160 241 -231 l26 -52 -148 -183
c-273 -335 -381 -491 -478 -692 -111 -230 -152 -402 -141 -594 8 -144 24 -210
55 -222 69 -26 208 -31 451 -14 158 10 247 13 254 6 6 -6 3 -75 -8 -195 -18
-197 -13 -304 19 -379 13 -32 19 -35 82 -48 46 -9 136 -14 264 -13 163 0 212
4 299 22 443 96 863 357 1247 775 111 121 107 119 194 66 99 -61 174 -171 229
-335 27 -80 61 -263 61 -326 0 -18 11 -33 38 -51 49 -32 173 -94 301 -151 194
-86 322 -179 377 -272 32 -54 28 -92 -21 -191 -78 -160 -206 -266 -487 -404
-79 -38 -149 -73 -157 -77 -7 -4 -34 -66 -60 -137 -27 -72 -64 -165 -84 -209
-44 -94 -132 -229 -179 -272 l-33 -32 -104 59 c-280 157 -632 272 -959 313
-213 27 -509 19 -697 -20 -112 -23 -259 -66 -276 -80 -41 -36 -69 -207 -69
-425 l0 -137 -32 -6 c-18 -3 -94 -10 -168 -16 -206 -16 -334 -45 -344 -78 -8
-29 -25 -200 -36 -362 -5 -85 -14 -450 -20 -810 -6 -360 -17 -819 -25 -1020
-25 -637 -27 -779 -16 -1025 17 -354 45 -577 102 -812 97 -401 264 -709 506
-933 129 -119 325 -240 461 -284 28 -10 52 -22 52 -28 0 -17 -77 -143 -141
-228 -113 -153 -308 -331 -541 -494 -69 -48 -104 -80 -131 -120 -63 -95 -180
-174 -332 -225 -194 -64 -417 -90 -629 -72 -352 30 -600 135 -706 298 -16 25
-69 73 -131 119 -371 276 -572 486 -666 697 l-12 27 106 50 c156 74 292 168
408 285 362 360 513 788 586 1655 5 69 13 346 16 615 6 501 -1 771 -37 1565
-11 228 -25 568 -31 755 -7 187 -16 346 -22 352 -21 28 -144 55 -312 69 -93 8
-185 17 -202 19 l-33 6 0 142 c0 171 -13 289 -41 364 -25 65 -35 71 -208 114
-287 73 -617 79 -946 19 -279 -52 -623 -178 -854 -314 l-64 -37 -29 33 c-89
102 -173 258 -259 481 l-53 138 -50 21 c-28 12 -98 46 -155 75 -235 121 -373
238 -442 379 -56 112 -60 150 -21 207 71 102 166 167 407 279 198 91 295 147
300 172 2 12 9 59 15 106 29 211 100 394 191 495 51 55 139 115 170 115 8 0
58 -47 109 -106 394 -440 905 -736 1373 -794 113 -14 347 -8 446 11 78 16 87
27 101 141 10 84 7 171 -16 411 l-7 67 100 0 c55 0 171 -5 257 -11 194 -13
351 -1 377 30 18 22 39 161 39 257 0 172 -59 385 -161 585 -115 225 -257 419
-597 811 -23 27 26 118 108 198 82 81 184 142 370 223 80 34 151 66 158 71 7
4 67 117 132 249 125 256 175 331 265 399 28 21 72 47 100 57 44 17 53 17 89
4 22 -7 59 -25 82 -38z"/>
</g>
</svg>
