<?xml version="1.0" standalone="no"?>
<!DOCTYPE svg PUBLIC "-//W3C//DTD SVG 20010904//EN"
 "http://www.w3.org/TR/2001/REC-SVG-20010904/DTD/svg10.dtd">
<svg version="1.0" xmlns="http://www.w3.org/2000/svg"
 width="673.000000pt" height="1280.000000pt" viewBox="0 0 673.000000 1280.000000"
 preserveAspectRatio="xMidYMid meet">
<metadata>
Created by potrace 1.15, written by Peter Selinger 2001-2017
</metadata>
<g transform="translate(0.000000,1280.000000) scale(0.100000,-0.100000)"
fill="#000000" stroke="none">
<path d="M3145 11770 c-282 -25 -528 -91 -749 -202 -127 -63 -179 -99 -205
-142 -49 -78 -23 -118 126 -196 184 -94 302 -207 386 -370 100 -192 110 -262
110 -786 -1 -463 -5 -508 -57 -560 -53 -53 -83 -56 -506 -58 -385 -1 -491 5
-651 39 -259 54 -457 225 -574 497 -63 145 -100 168 -170 106 -46 -40 -80 -90
-143 -208 -156 -294 -232 -680 -219 -1105 9 -268 46 -485 124 -709 61 -176
180 -391 241 -434 68 -49 110 -20 163 111 88 214 243 376 437 458 88 36 235
66 402 79 155 13 751 4 815 -12 57 -14 101 -51 120 -101 15 -39 16 -249 12
-2637 -3 -2455 -4 -2599 -21 -2665 -66 -256 -234 -451 -513 -594 -135 -70
-161 -113 -96 -157 18 -12 87 -40 155 -63 183 -63 290 -128 439 -268 198 -186
353 -418 495 -741 62 -143 89 -182 127 -182 38 0 64 39 126 186 69 165 87 201
158 317 229 369 482 591 801 701 135 47 162 63 162 97 0 34 -38 65 -179 143
-283 157 -418 334 -477 627 -15 77 -16 286 -14 2616 1 1393 5 2557 9 2587 8
61 29 97 68 123 39 26 530 41 798 25 393 -24 553 -77 722 -243 83 -81 133
-155 194 -285 53 -114 77 -144 114 -144 97 0 289 357 363 675 48 206 71 535
53 760 -27 331 -91 578 -217 828 -146 289 -227 320 -309 117 -94 -234 -276
-416 -491 -490 -143 -50 -167 -52 -598 -57 -438 -5 -543 2 -605 38 -84 49 -92
83 -101 404 -15 506 16 777 113 975 58 120 197 259 349 348 126 74 158 107
158 163 0 62 -57 116 -194 183 -193 96 -409 158 -658 191 -139 19 -459 27
-593 15z"/>
</g>
</svg>
