<?xml version="1.0" standalone="no"?>
<!DOCTYPE svg PUBLIC "-//W3C//DTD SVG 20010904//EN"
 "http://www.w3.org/TR/2001/REC-SVG-20010904/DTD/svg10.dtd">
<svg version="1.0" xmlns="http://www.w3.org/2000/svg"
 width="998.000000pt" height="1280.000000pt" viewBox="0 0 998.000000 1280.000000"
 preserveAspectRatio="xMidYMid meet">
<metadata>
Created by potrace 1.15, written by Peter Selinger 2001-2017
</metadata>
<g transform="translate(0.000000,1280.000000) scale(0.100000,-0.100000)"
fill="#000000" stroke="none">
<path d="M4983 12768 c-50 -53 -136 -178 -182 -267 -105 -202 -138 -409 -83
-517 11 -22 56 -88 101 -149 109 -150 153 -244 176 -377 9 -59 -12 -45 -30 20
-23 77 -85 196 -138 260 -114 138 -292 222 -473 222 -111 0 -176 -14 -261 -55
-206 -101 -276 -303 -174 -504 59 -115 254 -242 391 -253 l35 -3 3 -893 2
-892 -1347 2 -1348 3 -7 57 c-16 129 -110 279 -224 358 -98 68 -262 80 -362
25 -149 -81 -229 -251 -220 -465 8 -177 75 -321 202 -436 69 -63 199 -132 299
-159 72 -19 91 -37 29 -28 -153 21 -253 66 -412 183 -144 107 -183 123 -285
122 -44 -1 -116 -11 -160 -22 -144 -37 -346 -150 -490 -274 l-30 -26 50 -46
c178 -165 449 -284 647 -284 81 0 132 24 268 124 115 86 184 124 277 154 78
26 173 39 173 23 0 -6 -8 -11 -18 -11 -30 0 -157 -46 -224 -82 -94 -48 -215
-174 -261 -268 -49 -101 -67 -177 -67 -285 0 -201 85 -367 224 -435 178 -88
375 -19 504 176 42 63 74 147 80 212 l4 52 1349 0 1349 0 0 -3198 0 -3198 -77
-12 c-158 -25 -312 -131 -375 -260 -30 -60 -33 -75 -33 -157 0 -78 4 -97 28
-147 48 -98 148 -169 287 -204 49 -12 91 -15 170 -11 171 8 285 59 407 183 54
54 81 93 112 156 33 68 81 211 81 240 0 4 -12 9 -27 11 -16 2 15 4 67 4 52 0
83 -2 68 -4 -16 -2 -28 -7 -28 -11 0 -29 48 -172 81 -240 31 -63 58 -102 112
-156 122 -124 236 -175 407 -183 79 -4 121 -1 170 11 139 35 239 106 287 204
24 50 28 69 28 147 0 82 -3 97 -33 157 -58 118 -220 237 -346 254 l-46 7 0
3203 0 3204 1319 0 1318 0 6 -52 c15 -145 131 -320 253 -381 234 -117 467 3
539 279 19 75 19 223 0 299 -29 113 -81 203 -169 290 -88 88 -168 136 -293
176 -128 40 -71 51 67 12 84 -24 174 -73 290 -158 58 -43 129 -89 159 -103 49
-23 62 -24 145 -19 50 3 123 15 161 26 91 27 235 97 327 159 78 53 168 129
168 142 0 14 -153 130 -235 179 -161 95 -301 141 -440 144 -99 2 -147 -19
-285 -122 -144 -108 -307 -181 -404 -181 -41 0 -23 13 49 34 176 53 336 181
407 326 47 96 68 183 68 290 0 197 -82 358 -222 436 -49 27 -61 29 -153 29
-93 0 -105 -2 -167 -33 -135 -66 -256 -248 -270 -407 l-3 -30 -1317 -3 -1318
-2 0 895 0 895 38 0 c47 0 153 38 211 74 59 38 138 112 167 157 61 97 71 257
22 354 -109 212 -454 292 -713 164 -164 -80 -300 -251 -346 -432 -15 -62 -33
-62 -25 1 17 117 70 229 177 372 103 137 124 186 122 285 -3 140 -50 281 -148
445 -49 84 -161 230 -174 230 -4 0 -21 -15 -38 -32z m-422 -1182 c37 -8 86
-24 109 -36 44 -22 140 -106 140 -121 0 -5 -39 -9 -87 -9 l-88 1 -27 44 c-34
57 -88 85 -163 85 -85 0 -143 -39 -163 -110 -7 -24 -10 -28 -11 -13 -3 73 67
145 159 164 52 10 59 10 131 -5z m1105 -17 c23 -11 49 -27 57 -37 21 -23 50
-92 38 -92 -5 0 -12 11 -15 25 -3 13 -22 36 -42 51 -42 33 -129 44 -188 24
-36 -12 -106 -82 -106 -107 0 -10 -22 -13 -90 -13 -53 0 -90 4 -90 10 0 22 86
94 146 122 109 51 207 57 290 17z m-4323 -2140 c-50 -14 -86 -70 -91 -139 -2
-32 1 -74 7 -93 16 -46 80 -104 125 -113 l36 -6 0 -94 c0 -107 -4 -111 -68
-65 -123 89 -184 305 -121 427 28 55 78 94 118 93 24 -1 24 -1 -6 -10z m7347
-11 c19 -13 45 -45 59 -72 47 -91 26 -242 -49 -351 -28 -40 -87 -95 -103 -95
-4 0 -7 40 -7 90 l0 90 33 13 c38 17 94 77 103 113 4 13 4 51 2 83 -5 70 -41
125 -91 140 -30 9 -30 9 -6 10 14 1 41 -9 59 -21z m-7270 -1003 l0 -94 -35
-10 c-85 -23 -135 -92 -135 -186 0 -82 37 -139 105 -163 26 -9 27 -11 7 -11
-47 -2 -104 43 -134 104 -48 96 -16 265 69 365 28 34 100 90 115 90 4 0 8 -43
8 -95z m7260 8 c65 -73 109 -211 95 -297 -16 -93 -90 -177 -156 -175 -22 1
-21 2 6 11 37 13 72 44 91 80 21 40 18 131 -6 178 -19 38 -81 90 -107 90 -10
0 -13 25 -13 96 l0 95 29 -20 c16 -11 43 -37 61 -58z m-4362 -6953 c-48 -40
-63 -88 -42 -139 22 -54 58 -75 134 -79 55 -3 70 0 100 20 45 30 79 81 86 130
l7 38 108 0 c124 0 125 -1 88 -76 -27 -57 -87 -110 -168 -147 -53 -25 -82 -32
-153 -35 -80 -4 -93 -2 -143 23 -109 53 -138 171 -62 254 21 22 51 39 72 40 5
1 -7 -13 -27 -29z m1419 -57 c28 -67 11 -126 -51 -180 -49 -44 -95 -56 -190
-51 -136 7 -268 83 -315 182 -37 75 -36 76 88 76 l108 0 7 -38 c7 -49 41 -100
86 -130 30 -20 45 -23 100 -20 77 4 112 25 135 81 13 33 13 42 0 80 -8 23 -15
46 -15 51 0 17 33 -20 47 -51z"/>
<path d="M4988 1370 c-3 -8 -11 -46 -18 -85 -16 -97 -72 -211 -169 -344 -107
-146 -121 -176 -121 -271 0 -186 113 -446 270 -623 l42 -47 56 69 c204 250
304 567 228 726 -13 28 -56 93 -95 145 -111 148 -162 258 -179 385 -5 33 -11
53 -14 45z"/>
</g>
</svg>
