<?xml version="1.0" standalone="no"?>
<!DOCTYPE svg PUBLIC "-//W3C//DTD SVG 20010904//EN"
 "http://www.w3.org/TR/2001/REC-SVG-20010904/DTD/svg10.dtd">
<svg version="1.0" xmlns="http://www.w3.org/2000/svg"
 width="640.000000pt" height="1280.000000pt" viewBox="0 0 640.000000 1280.000000"
 preserveAspectRatio="xMidYMid meet">
<metadata>
Created by potrace 1.15, written by Peter Selinger 2001-2017
</metadata>
<g transform="translate(0.000000,1280.000000) scale(0.100000,-0.100000)"
fill="#000000" stroke="none">
<path d="M3240 12728 c0 -35 -14 -490 -30 -1013 l-30 -950 0 -4222 0 -4221
-57 -4 -58 -3 -50 51 c-42 42 -63 55 -130 77 -127 41 -194 51 -265 39 -204
-36 -400 -232 -440 -438 -25 -126 20 -360 101 -533 21 -46 39 -87 39 -91 0 -4
-22 -40 -49 -81 -82 -124 -111 -234 -91 -337 48 -243 184 -386 418 -438 119
-26 226 -16 434 43 16 5 16 0 -4 -43 -42 -94 -26 -250 34 -337 19 -27 19 -27
-1 -53 -42 -53 -15 -114 66 -150 47 -21 192 -25 245 -6 87 31 125 107 77 158
l-21 22 27 40 c53 81 71 205 40 292 l-15 42 33 -6 c90 -17 216 -18 289 -2 234
52 370 195 418 438 20 103 -9 213 -91 337 -27 41 -49 77 -49 81 0 4 18 45 39
91 81 173 126 407 101 533 -40 205 -234 399 -436 437 -111 21 -312 -32 -375
-99 -20 -21 -38 -44 -41 -52 -27 -82 -28 66 -28 4207 l0 4205 -25 727 c-14
399 -29 846 -35 993 -5 146 -10 280 -10 297 0 21 -5 31 -15 31 -12 0 -15 -14
-15 -62z m-420 -10393 c45 -19 89 -35 98 -36 10 0 -13 -8 -50 -18 -77 -21
-124 -47 -145 -78 -14 -21 -13 -25 14 -51 32 -33 125 -66 228 -82 152 -24 137
-17 121 -48 -7 -15 -21 -52 -31 -83 -17 -53 -19 -56 -69 -73 -95 -33 -276
-115 -330 -150 -29 -19 -83 -59 -120 -90 l-66 -56 -30 60 c-17 33 -45 102 -62
153 -26 77 -32 108 -32 187 -1 87 1 99 29 150 53 96 170 201 264 235 57 21 94
17 181 -20z m986 -1 c72 -36 179 -141 219 -214 28 -51 30 -63 29 -150 0 -79
-6 -110 -32 -187 -17 -51 -45 -120 -62 -153 l-30 -60 -73 61 c-89 74 -156 116
-270 165 -93 40 -107 55 -122 134 -4 19 -12 44 -18 55 -6 11 -12 26 -13 34 -2
8 -9 18 -16 22 -7 5 -8 9 -3 9 6 0 55 7 110 15 187 28 302 85 275 135 -22 42
-118 82 -227 96 -58 8 -91 23 -53 24 14 1 50 12 80 25 70 31 129 28 206 -11z
m-333 -21 c-7 -2 -21 -2 -30 0 -10 3 -4 5 12 5 17 0 24 -2 18 -5z m-478 -635
c-25 -155 -33 -436 -15 -588 4 -41 7 -77 5 -79 -2 -2 -46 28 -97 67 -110 83
-201 175 -287 292 l-63 85 57 53 c31 29 68 60 81 69 23 15 299 130 317 132 4
1 5 -14 2 -31z m703 -87 c21 -10 66 -45 101 -77 l63 -59 -62 -85 c-65 -87
-185 -217 -231 -250 l-25 -19 -1 197 c0 108 -4 234 -8 279 l-7 83 67 -25 c37
-14 83 -34 103 -44z m-1214 -401 c87 -104 213 -214 356 -309 63 -42 117 -81
119 -87 9 -19 -121 -45 -224 -44 -160 0 -279 45 -342 128 -64 85 -70 208 -15
326 17 36 33 66 35 66 2 0 34 -36 71 -80z m1538 14 c55 -118 49 -241 -15 -326
-62 -82 -181 -127 -338 -129 -116 -1 -179 14 -179 41 0 36 13 51 101 111 121
83 245 193 325 289 37 44 69 80 71 80 2 0 18 -30 35 -66z"/>
</g>
</svg>
