<?xml version="1.0" standalone="no"?>
<!DOCTYPE svg PUBLIC "-//W3C//DTD SVG 20010904//EN"
 "http://www.w3.org/TR/2001/REC-SVG-20010904/DTD/svg10.dtd">
<svg version="1.0" xmlns="http://www.w3.org/2000/svg"
 width="640.000000pt" height="1280.000000pt" viewBox="0 0 640.000000 1280.000000"
 preserveAspectRatio="xMidYMid meet">
<metadata>
Created by potrace 1.15, written by Peter Selinger 2001-2017
</metadata>
<g transform="translate(0.000000,1280.000000) scale(0.100000,-0.100000)"
fill="#000000" stroke="none">
<path d="M4565 12704 c-216 -173 -370 -316 -543 -504 -761 -824 -1251 -1812
-1358 -2739 -26 -225 -21 -572 12 -784 l6 -38 73 120 c142 235 260 351 356
351 25 0 42 -10 74 -43 74 -78 112 -267 101 -507 -9 -210 -29 -323 -74 -426
-73 -165 -165 -444 -221 -669 -117 -470 -179 -987 -206 -1720 -6 -157 -5 -180
19 -295 99 -495 34 -801 -231 -1071 l-85 -87 16 -30 c8 -16 27 -43 41 -60 l25
-30 -48 -53 -49 -53 -81 38 c-195 91 -360 97 -503 19 -68 -37 -150 -127 -192
-209 -39 -77 -74 -181 -64 -190 7 -7 42 16 137 91 36 28 76 58 90 66 41 26
121 49 164 49 l41 -1 -30 -21 c-68 -50 -171 -158 -217 -227 -96 -146 -118
-312 -65 -473 63 -185 42 -348 -76 -600 -25 -54 -44 -98 -41 -98 20 0 199 115
245 158 83 76 112 142 113 252 1 91 -10 141 -57 260 -24 62 -28 85 -24 133 14
154 160 310 320 343 124 26 213 -19 278 -141 21 -38 43 -71 48 -73 6 -2 27 8
48 22 29 20 40 23 48 13 6 -6 35 -40 64 -75 29 -34 82 -81 117 -104 l64 -42 0
-54 c0 -30 9 -116 20 -191 22 -156 45 -448 60 -765 17 -359 -10 -699 -65 -791
-42 -72 -155 -142 -356 -219 -90 -35 -99 -41 -138 -93 -57 -78 -77 -149 -63
-228 7 -33 27 -91 46 -130 24 -50 36 -90 40 -142 22 -232 148 -443 340 -568
89 -58 127 -68 246 -69 89 -1 113 3 155 22 60 27 107 71 142 130 l26 44 -13
131 c-17 167 -17 390 -1 487 13 69 18 79 76 149 150 177 236 381 266 623 13
106 8 410 -20 1428 l-8 255 53 58 c52 56 108 143 154 238 22 45 26 48 94 68
83 25 249 51 322 51 28 0 88 -5 133 -11 45 -6 84 -10 86 -8 1 2 -6 49 -17 104
-13 67 -17 118 -13 155 5 48 12 61 63 120 176 200 241 344 228 510 -8 112 -24
149 -81 188 -92 62 -197 76 -255 34 -39 -28 -70 -98 -70 -159 0 -55 28 -142
59 -182 l18 -23 7 72 c7 80 27 133 59 155 27 19 41 7 63 -51 39 -102 -28 -256
-204 -464 l-29 -34 -5 94 c-8 143 -32 197 -130 292 -77 76 -108 96 -93 61 42
-101 55 -153 55 -233 0 -81 -29 -222 -50 -243 -16 -18 -91 37 -116 84 -11 23
-11 39 3 115 10 56 17 145 17 239 1 131 -2 160 -23 225 -12 41 -30 89 -38 105
-27 53 -91 130 -137 164 -40 30 -46 40 -60 100 -141 608 -84 1272 183 2105
l40 125 -11 283 c-18 486 -3 1196 37 1723 88 1147 312 2261 660 3268 36 104
65 190 65 193 0 21 -54 -12 -155 -92z m6 -241 l-87 -262 -149 -153 c-257 -263
-463 -534 -672 -883 -264 -440 -474 -923 -624 -1434 -21 -74 -39 -137 -39
-141 0 -4 48 -7 108 -7 133 1 196 -21 276 -94 121 -110 193 -289 233 -574 21
-153 24 -608 4 -855 l-13 -175 -64 -160 c-175 -444 -273 -792 -328 -1165 -44
-299 -52 -540 -32 -879 18 -305 21 -590 5 -729 -29 -275 -124 -550 -280 -813
l-40 -66 -51 9 c-107 20 -223 95 -270 176 l-18 30 45 41 c116 107 205 239 252
373 39 111 53 210 54 362 0 151 -10 241 -43 401 -19 90 -20 121 -14 312 29
971 159 1708 407 2304 57 138 73 214 88 414 14 188 -2 377 -43 492 -37 105
-118 173 -188 158 -111 -24 -243 -158 -374 -381 -18 -31 -29 109 -28 371 0
274 25 478 89 750 236 1001 940 2093 1782 2766 54 43 98 77 99 76 1 -1 -38
-120 -85 -264z m-703 -7583 c23 -30 51 -81 63 -113 21 -57 21 -60 5 -95 -30
-62 -127 -201 -189 -270 -187 -206 -365 -310 -699 -406 -70 -20 -145 -70 -175
-115 -49 -72 -21 -165 59 -201 45 -20 42 -25 -22 -34 -41 -6 -48 -4 -72 21
-78 84 -77 176 2 307 31 51 37 55 119 86 331 124 633 381 746 635 28 62 64
209 65 258 l0 29 29 -24 c15 -13 47 -48 69 -78z m752 -143 c80 -40 91 -61 98
-182 9 -174 -38 -272 -245 -514 l-38 -44 0 -101 c0 -56 4 -119 8 -141 l8 -40
-131 4 c-147 3 -250 -9 -372 -44 l-83 -24 -130 16 c-127 15 -462 23 -630 14
-71 -4 -88 -1 -137 21 -51 24 -88 63 -88 95 0 11 146 50 240 64 98 15 237 5
373 -26 293 -66 457 -30 584 128 56 70 81 129 104 245 11 60 8 187 -6 227 -11
34 53 -45 74 -90 31 -65 44 -159 36 -260 l-7 -90 58 64 c261 285 326 477 210
624 -31 39 -118 -25 -132 -98 -10 -57 -24 -40 -24 30 0 149 86 194 230 122z
m-652 -236 c-4 -165 4 -152 -153 -256 -136 -91 -278 -167 -402 -215 l-95 -38
63 -20 c164 -53 295 -56 392 -9 51 25 122 91 157 145 l15 24 50 -50 c28 -27
57 -51 65 -54 12 -4 10 -13 -13 -46 -38 -53 -117 -107 -192 -128 -75 -21 -222
-15 -345 15 -187 45 -376 46 -536 1 -38 -10 -71 -17 -73 -15 -7 7 61 66 98 85
20 9 74 27 119 39 316 82 583 270 762 537 39 58 70 109 70 115 0 5 5 9 11 9 7
0 9 -44 7 -139z m-27 -273 c-22 -102 -118 -212 -212 -243 -57 -19 -169 -21
-246 -4 l-52 12 117 57 c116 56 265 143 352 206 25 18 46 31 48 29 2 -2 -1
-27 -7 -57z m-1713 -103 c131 -31 291 -122 429 -243 72 -63 80 -74 91 -123 7
-30 26 -70 42 -91 33 -41 36 -48 18 -48 -25 0 -114 -48 -168 -89 -30 -22 -59
-41 -65 -41 -5 0 -18 17 -27 38 -26 56 -74 109 -126 140 -41 24 -57 27 -132
27 -74 0 -93 -4 -150 -31 -150 -71 -263 -225 -264 -362 -1 -55 6 -85 38 -167
88 -230 49 -382 -128 -497 -33 -21 -61 -36 -63 -34 -2 2 12 41 30 87 54 131
70 209 69 329 -1 86 -6 119 -27 180 -53 151 -41 303 33 431 46 78 172 208 270
276 82 57 79 63 -33 63 -118 0 -210 -36 -316 -124 -29 -24 -55 -43 -58 -41
-10 11 71 156 114 203 107 118 250 158 423 117z m426 -19 c31 -19 85 -42 120
-51 l63 -17 -34 -57 c-18 -31 -39 -72 -45 -93 l-11 -36 -71 62 c-39 34 -92 76
-118 94 -27 18 -48 36 -48 40 0 5 81 92 86 92 1 0 27 -15 58 -34z m595 -513
c7 -32 15 -64 18 -70 3 -10 -14 -13 -69 -13 -121 0 -215 -38 -300 -120 -29
-28 -53 -50 -55 -50 -14 0 -70 53 -114 108 -60 74 -61 72 36 118 80 37 299 80
425 83 l46 1 13 -57z m339 51 l91 -7 -23 -46 c-13 -25 -30 -71 -37 -103 l-13
-56 -51 20 c-28 11 -77 21 -110 21 -81 2 -121 -22 -157 -94 -26 -50 -27 -58
-16 -98 15 -59 71 -114 138 -136 51 -17 52 -17 75 5 25 23 62 120 67 175 2 21
-1 30 -12 30 -9 0 -20 -21 -30 -60 -20 -72 -46 -125 -63 -125 -6 0 -32 11 -57
23 -34 17 -51 34 -69 70 -29 59 -23 87 28 139 33 33 45 38 82 38 37 0 128 -26
189 -54 13 -5 18 6 27 60 6 36 24 92 40 123 l28 56 60 -3 c33 -2 62 -5 64 -7
10 -11 -110 -204 -161 -260 l-59 -64 3 -151 c2 -97 -1 -149 -7 -146 -25 11
-163 55 -186 60 -38 8 -138 120 -181 201 -28 54 -78 196 -78 223 0 3 39 1 86
-3 l86 -7 -26 44 c-14 25 -29 66 -32 91 l-7 47 110 0 c61 0 151 -3 201 -6z
m-436 -245 c22 -92 77 -201 133 -266 25 -28 45 -53 45 -55 0 -1 -48 -4 -108
-5 -71 -1 -133 -8 -186 -22 -44 -12 -81 -20 -83 -18 -1 2 -8 60 -14 129 -11
116 -14 127 -35 139 -23 12 -23 12 -4 39 28 39 85 80 149 107 83 34 84 33 103
-48z m354 -490 l123 -123 3 -108 c2 -59 1 -108 -2 -108 -5 0 -132 128 -355
359 l-110 113 109 -5 110 -6 122 -122z m-128 -140 l257 -261 5 -134 c3 -74 2
-133 -1 -132 -3 2 -145 161 -314 353 -169 193 -317 360 -328 372 -11 13 -18
26 -15 29 8 7 97 32 121 33 10 1 120 -103 275 -260z m166 212 c43 -17 80 -32
83 -34 2 -3 3 -28 1 -56 l-3 -52 -85 86 c-46 47 -82 85 -80 85 3 0 40 -13 84
-29z m-233 -425 c178 -202 328 -375 332 -382 4 -8 7 -48 5 -90 l-3 -77 -327
352 c-359 388 -331 346 -343 506 -4 49 -3 76 2 70 6 -5 156 -176 334 -379z
m13 -256 l324 -351 4 -69 c2 -39 1 -70 -2 -70 -3 0 -148 128 -322 284 l-315
284 -7 98 c-4 55 -9 116 -12 137 -3 20 -3 37 -1 37 3 0 152 -158 331 -350z
m14 -264 l318 -285 -4 -73 c-2 -40 -7 -88 -11 -106 l-6 -33 -305 288 -305 287
-5 103 c-3 57 -4 103 -2 103 2 0 146 -128 320 -284z m-214 -64 c50 -49 183
-176 296 -282 171 -162 205 -197 203 -219 -4 -42 -43 -163 -53 -159 -5 2 -130
134 -279 293 l-271 290 0 83 c0 45 3 82 6 82 4 0 48 -40 98 -88z m121 -372
c120 -129 234 -251 253 -271 l34 -37 -58 -26 -58 -27 -203 208 -202 208 0 61
c-1 54 8 130 14 122 1 -2 100 -109 220 -238z m-50 -185 l187 -195 -28 -22
c-16 -12 -62 -55 -103 -95 -70 -69 -75 -72 -93 -56 -23 21 -40 84 -32 120 3
15 13 50 21 76 8 27 13 51 10 53 -8 8 -80 -25 -105 -49 -57 -53 -84 -156 -62
-237 26 -96 123 -148 256 -137 l64 5 -8 -57 c-4 -31 -7 -149 -7 -263 0 -230 3
-224 -66 -151 -47 50 -93 111 -112 148 -13 27 -13 36 1 90 22 84 14 105 -61
158 -110 79 -148 153 -155 304 l-5 101 62 39 c58 36 78 63 46 63 -21 0 -291
-165 -352 -215 -121 -99 -156 -180 -118 -272 19 -45 20 -43 -16 -43 -17 0 -38
-4 -48 -10 -16 -8 -22 -1 -46 53 -33 75 -43 163 -25 209 8 18 30 56 49 85 33
48 43 55 121 84 117 43 236 102 293 144 81 61 104 102 133 243 2 12 6 22 8 22
2 0 88 -88 191 -195z m343 -192 c-29 -66 -127 -213 -161 -242 -14 -11 -26 -11
-69 -1 -91 22 -94 25 -57 71 44 56 155 143 220 173 72 34 82 34 67 -1z m-445
-56 c-9 -117 33 -171 163 -209 41 -12 74 -25 74 -29 0 -12 -43 -19 -116 -19
-125 0 -194 58 -194 163 0 54 21 111 52 144 12 13 23 23 24 23 1 0 0 -33 -3
-73z m-222 -136 c18 -112 76 -202 170 -263 58 -37 60 -49 28 -165 -37 -135
-25 -233 42 -330 l32 -46 -22 -19 c-13 -10 -41 -23 -63 -30 -35 -10 -45 -9
-77 8 -71 38 -88 131 -46 244 42 114 43 200 5 288 -25 55 -49 83 -107 124 -39
26 -43 27 -43 10 0 -11 7 -37 16 -58 28 -66 64 -207 64 -251 0 -59 -31 -94
-86 -95 -52 0 -124 12 -124 21 0 4 25 18 55 30 65 27 95 61 95 108 0 46 -23
78 -148 205 -103 105 -105 107 -93 136 18 43 104 123 201 185 l85 55 3 -46 c1
-26 7 -76 13 -111z m-106 -390 c13 -27 15 -39 6 -58 -13 -28 -110 -77 -188
-94 -29 -7 -53 -15 -53 -19 0 -13 155 -53 225 -58 66 -4 73 -2 103 23 60 50
63 132 12 281 -11 32 -18 59 -16 62 7 7 56 -73 66 -109 17 -59 11 -138 -15
-216 -61 -175 -17 -300 108 -311 60 -5 105 10 155 52 l32 28 -34 40 c-19 22
-44 60 -56 85 -22 47 -40 173 -24 173 5 -1 27 -26 49 -57 22 -31 70 -83 108
-117 64 -58 67 -62 67 -106 0 -64 -50 -134 -125 -172 -49 -25 -179 -35 -253
-19 -138 29 -314 193 -391 363 -39 86 -68 235 -62 314 2 22 48 24 114 5 l66
-18 -19 27 c-10 15 -26 33 -35 40 -17 14 -45 63 -45 77 1 15 187 -183 205
-216z"/>
<path d="M2986 3331 c-7 -10 9 -124 21 -158 13 -37 46 -63 79 -63 42 0 84 19
84 38 0 14 -16 14 -77 -4 -30 -8 -51 28 -66 117 -12 68 -27 94 -41 70z"/>
</g>
</svg>
