<?xml version="1.0" standalone="no"?>
<!DOCTYPE svg PUBLIC "-//W3C//DTD SVG 20010904//EN"
 "http://www.w3.org/TR/2001/REC-SVG-20010904/DTD/svg10.dtd">
<svg version="1.0" xmlns="http://www.w3.org/2000/svg"
 width="918.000000pt" height="1280.000000pt" viewBox="0 0 918.000000 1280.000000"
 preserveAspectRatio="xMidYMid meet">
<metadata>
Created by potrace 1.15, written by Peter Selinger 2001-2017
</metadata>
<g transform="translate(0.000000,1280.000000) scale(0.100000,-0.100000)"
fill="#000000" stroke="none">
<path d="M1731 12789 c-663 -75 -1177 -456 -1500 -1114 -43 -88 -102 -227
-130 -310 -51 -150 -101 -327 -101 -355 0 -13 27 -15 183 -16 261 -1 438 -35
644 -126 205 -89 365 -225 599 -508 575 -693 1134 -1494 1726 -2470 599 -988
1066 -1840 1823 -3325 87 -170 173 -337 192 -369 33 -57 34 -61 23 -108 l-12
-48 -44 0 c-39 0 -44 -3 -51 -27 -5 -16 -7 -68 -6 -118 3 -150 64 -324 169
-482 30 -45 59 -85 65 -88 5 -4 32 14 61 40 136 122 413 267 634 331 32 9 64
19 70 21 6 2 26 -21 44 -53 38 -68 113 -145 166 -172 48 -24 101 -34 109 -22
3 6 10 10 15 10 5 0 54 -59 110 -131 88 -114 100 -134 95 -159 -16 -75 42
-161 122 -181 40 -11 46 -19 172 -208 127 -191 131 -197 121 -231 -17 -59 -12
-87 21 -125 21 -23 47 -40 76 -48 43 -11 47 -15 149 -178 94 -151 103 -169 94
-194 -5 -14 -10 -47 -10 -72 0 -61 43 -105 126 -129 l59 -16 117 -176 116
-177 -5 -56 c-9 -94 44 -167 134 -185 27 -5 49 -31 157 -185 l126 -179 -15
-30 c-8 -16 -15 -39 -15 -50 0 -25 51 -80 75 -80 19 0 39 -44 94 -215 24 -72
59 -163 78 -203 47 -96 136 -188 224 -231 296 -145 618 128 534 452 -20 76
-73 179 -129 249 -34 42 -78 79 -166 135 l-120 78 0 47 c0 38 -5 50 -26 67
-15 12 -41 21 -59 21 -32 0 -36 6 -153 198 l-120 199 4 59 c7 89 -30 140 -112
151 -39 5 -40 7 -161 202 -68 109 -123 205 -123 214 0 87 -49 169 -110 182
-25 5 -48 35 -155 200 -95 147 -125 202 -125 227 0 57 -38 109 -104 142 -55
29 -64 39 -174 200 l-116 170 -1 61 c-1 72 -17 103 -79 146 -35 25 -56 56
-128 193 -84 158 -87 165 -76 202 5 21 8 68 6 104 -3 54 -12 84 -50 163 l-47
98 31 52 c92 152 242 312 375 400 70 46 243 137 262 137 39 0 -53 147 -154
245 -95 94 -186 144 -307 169 -110 23 -114 22 -128 -20 l-12 -36 -56 7 c-30 4
-61 9 -68 12 -34 13 -583 671 -990 1188 -1521 1930 -2614 3649 -3098 4873
-122 307 -173 514 -197 784 -17 206 7 469 60 638 11 35 17 68 13 71 -8 8 -191
43 -302 59 -105 15 -439 21 -539 9z m483 -530 c4 -3 -1 -22 -9 -42 -62 -149
62 -453 317 -778 56 -71 83 -117 107 -180 149 -391 439 -980 739 -1499 575
-994 1421 -2212 2406 -3460 291 -370 662 -821 863 -1052 52 -58 90 -109 86
-111 -20 -12 -148 -47 -173 -47 -23 0 -52 29 -192 193 -1269 1487 -2269 2955
-3330 4887 -108 195 -283 508 -390 695 -395 689 -524 976 -562 1246 -6 44 -9
47 -41 53 -68 13 -223 -18 -309 -61 -121 -61 -164 -92 -170 -126 -11 -57 -52
-131 -93 -169 -51 -45 -126 -63 -224 -54 l-67 7 -66 -62 c-77 -72 -153 -181
-225 -326 l-51 -103 42 -27 c98 -63 210 -158 323 -274 183 -189 320 -366 555
-719 68 -102 246 -363 395 -580 1153 -1678 1723 -2551 2243 -3438 363 -617
690 -1243 916 -1751 97 -219 97 -198 2 -268 -48 -36 -62 -41 -72 -31 -7 7
-135 252 -284 543 -415 809 -575 1114 -843 1605 -987 1809 -1938 3257 -2753
4191 -50 58 -107 132 -125 165 -54 98 -163 254 -241 344 -93 108 -150 140
-250 140 -41 0 -68 4 -68 11 0 17 63 149 109 227 79 136 214 294 344 404 l48
40 53 -16 c44 -14 62 -15 95 -6 79 21 142 98 156 191 6 43 11 49 68 86 119 78
230 124 362 149 68 13 297 15 309 3z m-170 -183 c15 -134 101 -367 233 -631
92 -183 153 -294 389 -705 83 -146 240 -426 348 -622 908 -1657 1798 -2998
2852 -4303 185 -229 263 -322 544 -653 l95 -112 55 5 c30 2 81 13 113 24 31
11 57 16 57 12 0 -5 -27 -62 -60 -126 -76 -151 -211 -351 -295 -440 -60 -63
-66 -73 -61 -103 l5 -33 -32 28 c-18 15 -54 42 -80 58 -37 24 -47 34 -42 50 3
11 8 70 12 132 14 250 -46 353 -299 515 -198 127 -304 197 -342 230 -26 21
-38 27 -33 16 3 -10 32 -131 63 -270 80 -360 122 -468 207 -529 25 -18 99 -48
198 -80 l158 -50 -6 -47 c-3 -33 1 -65 15 -105 10 -32 16 -56 13 -55 -60 32
-58 32 -119 5 -126 -57 -449 -125 -637 -134 l-110 -6 30 23 c46 36 115 103
115 113 0 27 -207 472 -372 802 -572 1141 -1262 2246 -2823 4520 -166 242
-357 523 -425 625 -357 536 -601 823 -855 1002 -38 27 -69 55 -67 61 2 6 24
51 48 101 60 119 137 229 196 280 l48 41 99 1 c87 0 106 4 155 28 70 34 120
97 144 180 16 54 22 62 71 94 109 70 229 110 337 111 l51 1 7 -54z m3544
-6745 c20 -16 100 -69 176 -117 179 -111 209 -133 278 -201 71 -69 95 -118
107 -214 9 -69 -1 -264 -14 -277 -7 -8 -253 68 -306 94 -97 48 -154 157 -206
394 -14 63 -38 168 -53 233 -15 64 -25 117 -23 117 2 0 21 -13 41 -29z m1300
-236 c7 -6 -64 -131 -133 -235 -117 -177 -395 -477 -403 -436 -2 9 25 47 62
87 114 123 311 445 346 565 l12 41 56 -9 c31 -5 58 -11 60 -13z m-774 -834 c5
-8 -185 -88 -299 -126 -131 -44 -328 -80 -489 -91 -97 -6 -98 -6 -92 15 3 11
8 29 11 39 4 15 20 17 122 18 180 2 538 72 658 129 54 25 81 30 89 16z m732
-183 c37 -73 53 -159 40 -211 -5 -23 -11 -25 -95 -31 -209 -17 -261 -50 -362
-230 -42 -75 -47 -81 -76 -80 -56 3 -133 70 -192 167 -26 43 -34 37 97 66 113
25 208 62 282 109 64 40 180 156 230 230 19 29 36 52 37 52 2 0 19 -32 39 -72z
m-113 -343 c8 -58 48 -137 143 -287 63 -99 73 -122 63 -134 -17 -20 -83 -54
-106 -54 -12 0 -45 41 -96 120 -90 138 -134 193 -188 234 -21 17 -39 33 -39
36 0 13 84 92 108 102 28 11 79 25 98 27 6 1 14 -19 17 -44z m384 -341 c52
-39 59 -68 29 -118 -68 -115 -212 -204 -346 -213 -72 -5 -76 -4 -102 23 -14
16 -30 46 -33 67 l-7 37 63 0 c157 0 283 72 336 193 9 20 19 37 21 37 3 0 20
-12 39 -26z m120 -454 c68 -106 123 -199 123 -206 0 -14 -86 -74 -106 -74 -7
0 -19 -2 -27 -6 -10 -3 -47 47 -127 173 -62 98 -119 188 -127 199 -13 20 -11
23 39 52 30 16 60 37 67 46 8 9 19 15 24 13 6 -2 66 -90 134 -197z m307 -170
c37 -64 10 -131 -86 -216 -83 -72 -225 -124 -306 -110 -68 11 -100 67 -69 124
10 21 20 24 77 26 135 6 223 58 279 169 l34 66 27 -16 c15 -9 35 -28 44 -43z
m80 -420 l105 -164 -26 -28 c-26 -27 -98 -68 -120 -68 -9 0 -174 247 -211 317
-11 20 -7 24 47 57 32 20 64 43 71 51 7 9 17 12 21 8 4 -4 55 -82 113 -173z
m287 -126 c11 -9 23 -33 29 -53 8 -30 6 -41 -15 -77 -31 -53 -124 -138 -184
-168 -161 -82 -320 -71 -329 23 -2 19 -1 44 2 57 6 21 11 23 79 23 145 0 271
77 323 198 13 29 16 31 45 23 18 -5 40 -17 50 -26z m93 -462 c64 -101 116
-187 116 -191 0 -15 -47 -51 -94 -71 -40 -18 -50 -20 -61 -8 -20 22 -238 369
-234 372 2 2 22 13 44 24 22 12 54 32 70 46 17 13 33 21 36 18 4 -4 59 -89
123 -190z m321 -137 c47 -46 29 -110 -57 -202 -85 -89 -168 -133 -291 -153
-49 -8 -66 -6 -94 7 -42 19 -65 62 -61 111 l3 36 45 -2 c58 -4 144 13 195 38
54 26 119 91 144 146 19 40 24 44 57 44 24 0 43 -8 59 -25z m85 -470 l121
-190 -38 -36 c-34 -31 -128 -79 -136 -68 -2 2 -43 67 -92 144 -49 77 -103 163
-121 191 l-33 52 64 38 c36 20 72 46 82 56 9 10 20 15 25 10 4 -4 62 -93 128
-197z m288 -152 c7 -67 -98 -208 -187 -253 -110 -55 -318 -29 -297 37 6 18 16
21 99 25 71 3 103 9 137 27 54 27 131 100 168 159 22 34 32 42 52 40 20 -2 26
-9 28 -35z m310 -309 c28 -38 52 -71 52 -74 0 -3 -35 -5 -78 -6 -87 0 -124
-15 -167 -66 -25 -29 -27 -38 -23 -103 l3 -72 -38 28 c-21 15 -58 31 -82 35
-76 11 -157 -43 -196 -130 -7 -14 -15 -26 -18 -26 -10 0 -49 99 -92 233 -22
71 -42 134 -45 141 -4 10 16 15 75 19 128 8 201 53 287 173 l45 63 112 -73
c90 -59 122 -87 165 -142z"/>
<path d="M2210 10563 c0 -32 138 -396 230 -608 490 -1123 1627 -2882 2532
-3915 131 -149 426 -446 434 -437 2 2 -5 39 -16 83 -63 244 -731 1433 -1455
2589 -836 1335 -1426 2137 -1663 2263 -34 18 -62 29 -62 25z"/>
<path d="M5835 5016 c-37 -17 -80 -62 -94 -99 -24 -63 -6 -162 37 -211 22 -25
110 -66 142 -66 126 0 210 113 180 241 -27 112 -162 181 -265 135z"/>
</g>
</svg>
