<?xml version="1.0" standalone="no"?>
<!DOCTYPE svg PUBLIC "-//W3C//DTD SVG 20010904//EN"
 "http://www.w3.org/TR/2001/REC-SVG-20010904/DTD/svg10.dtd">
<svg version="1.0" xmlns="http://www.w3.org/2000/svg"
 width="1280.000000pt" height="640.000000pt" viewBox="0 0 1280.000000 640.000000"
 preserveAspectRatio="xMidYMid meet">
<metadata>
Created by potrace 1.15, written by Peter Selinger 2001-2017
</metadata>
<g transform="translate(0.000000,640.000000) scale(0.100000,-0.100000)"
fill="#000000" stroke="none">
<path d="M1395 4314 c-496 -67 -808 -256 -880 -531 -8 -31 -15 -61 -15 -65 0
-5 27 6 61 23 135 68 330 91 469 54 231 -60 390 -259 415 -521 l7 -69 -58 -51
c-33 -27 -75 -62 -94 -76 -19 -15 -48 -47 -64 -73 -22 -35 -33 -44 -48 -39
-10 3 -109 48 -220 100 l-202 95 -378 -172 c-209 -94 -376 -175 -371 -180 12
-11 735 -339 748 -339 10 0 357 159 417 191 14 8 22 1 42 -39 29 -58 90 -115
141 -133 33 -12 54 -39 172 -211 74 -109 136 -198 139 -198 2 0 72 91 154 201
90 122 162 209 182 221 49 30 87 68 109 111 l19 37 5310 0 5310 0 16 25 c22
33 30 168 14 234 -9 40 -18 55 -37 62 -15 5 -2076 9 -5323 9 l-5299 0 -35 58
c-39 64 -81 108 -142 145 l-40 25 8 78 c27 260 194 460 428 514 131 31 313 7
451 -59 l61 -29 -7 46 c-51 338 -544 575 -1190 571 -93 -1 -215 -7 -270 -15z"/>
</g>
</svg>
