<?xml version="1.0" standalone="no"?>
<!DOCTYPE svg PUBLIC "-//W3C//DTD SVG 20010904//EN"
 "http://www.w3.org/TR/2001/REC-SVG-20010904/DTD/svg10.dtd">
<svg version="1.0" xmlns="http://www.w3.org/2000/svg"
 width="1190.000000pt" height="1280.000000pt" viewBox="0 0 1190.000000 1280.000000"
 preserveAspectRatio="xMidYMid meet">
<metadata>
Created by potrace 1.15, written by Peter Selinger 2001-2017
</metadata>
<g transform="translate(0.000000,1280.000000) scale(0.100000,-0.100000)"
fill="#000000" stroke="none">
<path d="M599 12685 c-553 -920 -723 -1806 -509 -2641 152 -590 489 -1142
1001 -1639 245 -238 341 -312 1059 -815 2890 -2025 4163 -2968 6048 -4478
l454 -363 331 324 c183 178 367 357 410 398 l78 74 -163 140 c-2953 2542
-4741 4166 -6053 5496 -1689 1715 -2529 2864 -2584 3538 l-6 76 -66 -110z
m2991 -4336 c663 -608 1806 -1656 2540 -2329 734 -673 1599 -1467 1923 -1763
323 -296 587 -540 587 -543 0 -2 -118 101 -263 229 -366 323 -659 577 -1509
1304 -1393 1195 -2021 1746 -2588 2273 -686 637 -1360 1314 -1830 1835 -166
185 -190 215 -120 149 30 -28 597 -548 1260 -1155z"/>
<path d="M9180 3039 c-478 -462 -492 -479 -460 -536 9 -16 31 -31 55 -39 22
-7 87 -27 145 -45 339 -105 639 -261 865 -451 145 -122 416 -403 508 -526 113
-151 237 -361 404 -687 233 -452 309 -556 484 -667 96 -61 162 -82 269 -82 89
-1 100 1 163 33 123 60 208 169 259 331 31 102 32 306 0 422 -73 270 -322 663
-676 1067 -192 220 -454 496 -623 657 -253 241 -742 730 -844 844 -51 58 -96
106 -99 108 -3 1 -206 -192 -450 -429z m713 -150 c38 -19 57 -51 57 -97 0 -37
-6 -50 -34 -78 -25 -25 -43 -34 -67 -34 -52 0 -96 32 -110 81 -11 37 -11 46 7
77 30 56 94 78 147 51z m763 -797 c97 -78 22 -228 -97 -193 -120 36 -92 211
34 211 25 0 51 -8 63 -18z m634 -787 c35 -18 60 -62 60 -106 0 -22 -10 -41
-34 -65 -28 -28 -42 -34 -76 -34 -80 0 -137 92 -99 161 14 26 68 59 97 59 13
0 36 -7 52 -15z"/>
</g>
</svg>
