<?xml version="1.0" standalone="no"?>
<!DOCTYPE svg PUBLIC "-//W3C//DTD SVG 20010904//EN"
 "http://www.w3.org/TR/2001/REC-SVG-20010904/DTD/svg10.dtd">
<svg version="1.0" xmlns="http://www.w3.org/2000/svg"
 width="1280.000000pt" height="640.000000pt" viewBox="0 0 1280.000000 640.000000"
 preserveAspectRatio="xMidYMid meet">
<metadata>
Created by potrace 1.15, written by Peter Selinger 2001-2017
</metadata>
<g transform="translate(0.000000,640.000000) scale(0.100000,-0.100000)"
fill="#000000" stroke="none">
<path d="M654 5410 c-111 -26 -182 -137 -250 -390 -19 -74 -44 -147 -54 -161
-54 -76 -128 -272 -166 -439 -9 -42 -30 -95 -49 -124 -94 -148 -141 -281 -132
-377 14 -154 131 -240 367 -270 64 -8 83 -7 94 3 7 7 18 55 25 106 14 110 51
233 85 283 25 36 78 69 111 69 25 0 388 -152 636 -266 475 -219 747 -388 1129
-703 74 -62 200 -165 280 -231 80 -65 155 -127 167 -137 l22 -18 -45 -125
c-26 -69 -84 -213 -131 -320 -199 -455 -234 -557 -234 -686 -1 -105 25 -167
92 -228 68 -61 152 -91 254 -91 70 0 87 4 133 29 95 53 153 144 174 271 13 78
-7 177 -48 236 -25 36 -107 89 -138 89 -9 0 -16 3 -16 6 0 19 46 178 80 280
38 109 152 364 164 364 2 0 67 -42 143 -94 1158 -787 2639 -1304 4163 -1455
388 -39 531 -45 975 -45 446 0 594 7 965 45 1278 131 2410 534 3190 1136 129
99 155 121 150 127 -3 2 -61 25 -130 51 -417 155 -714 365 -999 707 l-73 87
-79 -39 c-230 -116 -579 -260 -859 -353 -1075 -361 -2226 -463 -3465 -306
-1090 137 -2252 496 -3270 1009 -233 117 -250 128 -248 152 3 43 80 231 209
504 137 293 176 394 194 507 46 283 -109 467 -384 456 -75 -4 -89 -8 -128 -34
-167 -117 -193 -421 -48 -565 30 -31 64 -53 97 -64 l51 -17 -33 -87 c-44 -119
-80 -202 -127 -297 -44 -88 -139 -245 -149 -245 -3 0 -195 93 -425 206 -901
443 -1210 582 -1554 699 -102 34 -215 75 -252 90 -62 25 -68 30 -68 56 0 42
34 108 111 217 90 126 98 149 67 210 -40 80 -148 138 -315 167 -90 16 -206 18
-259 5z"/>
</g>
</svg>
