<?xml version="1.0" standalone="no"?>
<!DOCTYPE svg PUBLIC "-//W3C//DTD SVG 20010904//EN"
 "http://www.w3.org/TR/2001/REC-SVG-20010904/DTD/svg10.dtd">
<svg version="1.0" xmlns="http://www.w3.org/2000/svg"
 width="1280.000000pt" height="640.000000pt" viewBox="0 0 1280.000000 640.000000"
 preserveAspectRatio="xMidYMid meet">
<metadata>
Created by potrace 1.15, written by Peter Selinger 2001-2017
</metadata>
<g transform="translate(0.000000,640.000000) scale(0.100000,-0.100000)"
fill="#000000" stroke="none">
<path d="M2469 4405 c-63 -20 -132 -84 -166 -153 -25 -51 -28 -69 -32 -182 -2
-69 2 -203 9 -298 6 -96 9 -176 7 -179 -3 -2 -142 18 -308 46 -828 136 -1269
163 -1674 100 -135 -21 -140 -23 -156 -76 -12 -43 -18 -49 -53 -58 -25 -7 -43
-20 -52 -37 -22 -43 -44 -148 -44 -216 0 -58 3 -67 30 -92 l30 -28 0 -130 c0
-240 50 -399 176 -563 158 -205 478 -389 861 -494 701 -193 1188 59 1378 712
13 47 27 88 30 91 3 3 151 -13 328 -36 3790 -492 6478 -566 8982 -246 382 48
434 58 485 84 216 111 399 327 469 551 21 68 33 129 26 129 -2 0 -32 -7 -67
-15 -194 -45 -857 -145 -1248 -189 -978 -111 -1909 -153 -3085 -143 -612 6
-831 12 -1360 37 -1276 61 -2623 187 -4095 385 -297 40 -381 52 -387 58 -2 3
-8 47 -14 98 -5 52 -24 177 -40 279 -17 103 -29 206 -26 232 5 59 30 98 61 98
21 0 25 -6 31 -42 14 -83 64 -141 140 -163 179 -51 317 163 196 304 -25 30
-84 66 -189 117 -66 32 -176 41 -243 19z m-1964 -1235 c40 -44 119 -49 168
-10 24 19 25 19 43 -2 42 -47 156 -65 202 -32 22 15 25 15 45 -4 51 -46 117
-60 177 -36 l41 17 30 -29 c26 -25 38 -29 89 -29 42 0 63 5 78 18 20 19 21 18
56 -17 45 -44 92 -55 149 -32 l41 16 28 -29 c47 -48 127 -53 180 -11 l24 19
18 -33 c32 -60 116 -85 175 -52 23 13 27 11 55 -19 21 -22 44 -35 73 -39 l41
-8 -15 -51 c-19 -67 -93 -224 -131 -279 -110 -159 -268 -244 -477 -255 -232
-13 -540 64 -816 202 -140 70 -227 130 -304 209 -111 114 -159 221 -171 386
l-7 88 59 -4 c48 -4 65 -1 89 15 38 25 38 25 60 1z"/>
</g>
</svg>
