<?xml version="1.0" standalone="no"?>
<!DOCTYPE svg PUBLIC "-//W3C//DTD SVG 20010904//EN"
 "http://www.w3.org/TR/2001/REC-SVG-20010904/DTD/svg10.dtd">
<svg version="1.0" xmlns="http://www.w3.org/2000/svg"
 width="1280.000000pt" height="1280.000000pt" viewBox="0 0 1280.000000 1280.000000"
 preserveAspectRatio="xMidYMid meet">
<metadata>
Created by potrace 1.15, written by Peter Selinger 2001-2017
</metadata>
<g transform="translate(0.000000,1280.000000) scale(0.100000,-0.100000)"
fill="#000000" stroke="none">
<path d="M2805 12197 c11 -8 79 -47 150 -87 181 -101 371 -220 497 -309 l106
-76 -166 -7 c-439 -18 -1112 -62 -1167 -76 -25 -7 -4 -16 161 -72 335 -112
503 -179 481 -191 -21 -12 -322 -120 -467 -167 -69 -23 -265 -82 -436 -131
-171 -49 -327 -96 -345 -104 l-34 -14 55 -7 c379 -51 758 -113 774 -127 4 -4
-2 -13 -15 -19 -13 -7 -88 -57 -167 -112 -454 -318 -754 -734 -1079 -1503 -68
-159 -123 -301 -123 -315 0 -30 40 4 156 133 184 203 375 393 475 470 48 37
90 67 93 67 3 0 -21 -37 -53 -83 -118 -165 -241 -471 -305 -759 -33 -147 -76
-431 -76 -495 0 -47 2 -45 98 152 233 475 434 766 692 1005 63 58 110 98 105
90 -5 -8 -37 -53 -71 -100 -34 -47 -103 -157 -153 -245 -192 -339 -302 -718
-347 -1205 -22 -243 -16 -412 11 -303 12 51 156 406 228 563 282 618 584 1015
1169 1535 l146 129 93 16 94 15 135 -101 c74 -56 192 -150 262 -208 71 -58
135 -106 144 -106 42 0 595 -501 793 -719 48 -53 92 -96 98 -94 30 10 483
-507 668 -764 33 -46 65 -83 73 -83 35 0 448 -611 573 -848 18 -34 38 -62 45
-62 28 0 319 -561 409 -790 21 -52 47 -104 59 -115 39 -37 248 -607 341 -932
3 -13 12 -23 18 -23 7 0 25 -35 41 -77 16 -43 83 -215 149 -383 66 -168 134
-343 153 -390 18 -46 39 -87 48 -90 8 -3 63 -104 121 -225 294 -612 320 -664
337 -665 11 0 46 -51 99 -142 45 -79 143 -244 216 -366 74 -123 142 -239 150
-258 13 -27 19 -31 31 -22 9 8 16 8 20 1 90 -138 303 -413 517 -667 l89 -107
19 26 19 26 82 -74 c301 -273 654 -508 906 -603 66 -24 89 -28 190 -28 101 -1
122 2 168 23 65 29 125 95 142 156 30 107 -5 223 -99 327 -59 66 -123 107
-336 217 -235 122 -335 180 -335 195 0 7 5 17 11 23 18 18 4 40 -29 47 -82 19
-381 229 -538 379 -78 74 -92 92 -82 104 10 12 8 17 -7 26 -58 31 -269 258
-447 480 -92 115 -111 147 -88 147 6 0 -19 35 -55 78 -158 187 -460 640 -451
675 3 11 -20 57 -58 115 -140 217 -383 679 -372 708 3 8 -17 60 -44 114 -91
182 -187 406 -286 674 -34 89 -42 121 -33 127 9 5 10 11 2 21 -5 7 -49 101
-98 208 -48 107 -141 304 -207 438 -65 133 -116 246 -113 251 9 15 -267 475
-503 840 -33 51 -59 98 -56 105 5 14 -289 406 -509 679 -91 113 -161 207 -156
209 13 4 -303 348 -585 635 -124 127 -225 235 -224 240 5 15 -513 463 -835
722 l-128 103 257 127 257 127 126 -22 126 -21 182 -119 c100 -66 188 -123
196 -129 8 -5 117 -163 243 -349 125 -187 230 -334 232 -327 5 14 -30 290 -63
496 -93 577 -203 966 -370 1309 -235 482 -514 692 -1135 855 -282 74 -1004
221 -1084 221 -20 0 -20 0 -1 -13z"/>
</g>
</svg>
