<?xml version="1.0" standalone="no"?>
<!DOCTYPE svg PUBLIC "-//W3C//DTD SVG 20010904//EN"
 "http://www.w3.org/TR/2001/REC-SVG-20010904/DTD/svg10.dtd">
<svg version="1.0" xmlns="http://www.w3.org/2000/svg"
 width="1280.000000pt" height="954.000000pt" viewBox="0 0 1280.000000 954.000000"
 preserveAspectRatio="xMidYMid meet">
<metadata>
Created by potrace 1.15, written by Peter Selinger 2001-2017
</metadata>
<g transform="translate(0.000000,954.000000) scale(0.100000,-0.100000)"
fill="#000000" stroke="none">
<path d="M4032 9518 c-47 -22 -118 -103 -128 -145 -4 -13 -1 -37 6 -51 7 -15
275 -288 594 -607 320 -319 593 -596 608 -615 14 -19 80 -93 146 -165 l121
-129 -28 -14 c-23 -10 -71 -75 -71 -94 0 -3 16 -25 35 -49 19 -24 35 -54 35
-65 0 -26 57 -84 82 -84 11 0 40 20 67 45 45 42 49 44 63 27 21 -23 48 -78 48
-96 0 -8 23 -34 52 -59 l52 -45 -33 -71 c-20 -43 -30 -78 -26 -90 10 -31 75
-83 94 -76 61 26 72 9 48 -81 -23 -85 -23 -88 24 -139 l40 -44 -509 -508
c-281 -279 -518 -520 -527 -535 -16 -25 -15 -29 4 -72 l20 -45 -82 -68 c-97
-80 -98 -81 -90 -113 5 -19 -17 -3 -98 71 -57 53 -114 101 -126 108 -34 18
-142 13 -188 -8 -49 -22 -84 -52 -595 -501 -223 -195 -524 -458 -670 -585
-294 -254 -415 -367 -435 -405 -7 -14 -16 -47 -19 -73 -6 -39 -3 -57 15 -93
12 -25 29 -50 39 -56 13 -8 16 -21 13 -57 -4 -34 3 -67 26 -129 36 -96 37
-111 14 -155 -9 -18 -19 -47 -24 -64 -5 -26 -4 -33 9 -33 12 0 11 -5 -6 -23
-28 -30 -28 -45 2 -76 l24 -26 -74 -100 c-42 -55 -86 -111 -99 -125 -13 -14
-30 -41 -39 -60 -8 -20 -110 -131 -233 -255 -323 -326 -408 -405 -437 -405
-14 0 -31 -9 -40 -22 -9 -12 -253 -264 -542 -559 l-527 -538 -56 -11 c-66 -14
-155 -35 -351 -84 -232 -58 -219 -54 -226 -84 -3 -15 -12 -47 -19 -72 -14 -44
-13 -48 15 -104 35 -69 37 -91 10 -131 -22 -34 -25 -63 -9 -118 24 -88 438
-469 699 -644 123 -82 187 -115 210 -108 22 7 23 8 25 85 1 49 16 86 132 323
72 147 133 270 136 274 4 3 34 -18 67 -46 34 -28 66 -51 71 -51 19 0 41 54
104 264 74 246 80 261 137 322 44 48 61 53 89 28 17 -15 20 -15 43 -1 14 9 37
33 52 53 26 33 27 38 15 71 -13 35 -12 36 31 82 89 93 108 120 108 155 0 37
-33 88 -99 151 -22 21 -41 42 -41 46 0 4 74 84 164 178 107 111 166 180 171
199 3 16 40 66 81 112 56 61 88 107 121 176 38 79 60 110 152 206 59 62 117
129 129 149 22 36 87 89 109 89 7 0 33 18 59 40 40 36 48 39 63 27 9 -7 44
-36 77 -65 l61 -52 79 70 c95 84 155 110 255 111 113 1 126 -16 148 -186 12
-88 45 -526 61 -782 6 -115 14 -172 26 -194 15 -30 18 -31 60 -26 52 5 130 53
343 208 191 139 251 196 251 241 0 35 -33 78 -58 78 -7 0 -17 12 -22 26 -16
41 -50 263 -53 342 -2 61 2 77 27 125 35 63 31 82 -21 104 -47 19 -43 15 -53
57 -10 46 1 64 115 202 122 147 482 507 533 533 l40 21 123 -91 c67 -49 163
-115 213 -146 102 -63 374 -203 481 -248 39 -16 81 -37 94 -47 32 -24 48 -23
103 10 51 30 106 98 190 237 84 138 238 378 258 400 26 29 52 84 48 101 -2 9
-44 33 -95 54 -158 66 -484 238 -575 303 -98 70 -213 170 -227 196 -7 11 -5
27 6 49 21 43 12 59 -49 86 -52 23 -109 76 -193 180 l-40 49 0 102 c0 102 0
102 -34 141 -42 48 -26 55 33 15 25 -17 47 -31 49 -31 3 0 38 40 78 90 40 49
79 90 87 90 8 0 32 -5 53 -11 35 -11 41 -10 73 15 44 33 239 233 651 666 176
184 324 335 330 335 5 0 195 -196 421 -435 226 -239 430 -452 453 -473 61 -55
80 -62 126 -43 20 9 46 16 55 16 11 0 47 -36 90 -90 45 -58 75 -88 83 -83 7 4
34 22 60 41 26 19 50 32 54 29 3 -3 -13 -29 -36 -58 -40 -51 -41 -53 -41 -131
0 -98 -11 -126 -91 -219 -104 -121 -151 -164 -211 -191 -67 -31 -82 -53 -62
-88 7 -14 13 -31 14 -38 1 -35 -232 -239 -392 -344 -112 -74 -340 -204 -517
-296 -81 -41 -148 -77 -150 -79 -9 -7 21 -84 42 -110 24 -30 174 -282 247
-418 77 -142 134 -219 183 -243 56 -28 73 -28 111 2 17 13 73 44 123 70 273
137 559 317 793 500 74 58 142 106 151 106 8 0 35 -13 60 -28 58 -38 358 -330
406 -395 20 -29 60 -79 88 -112 89 -103 125 -156 125 -181 0 -41 -28 -83 -71
-104 -56 -29 -67 -58 -42 -107 41 -78 39 -105 -19 -343 -41 -167 -53 -195 -94
-219 -21 -12 -41 -36 -50 -57 -22 -53 -5 -85 85 -156 99 -79 356 -250 425
-282 118 -56 174 -20 190 119 10 81 130 806 155 925 28 141 51 211 76 236 28
28 91 38 191 32 81 -5 116 -24 226 -120 l47 -40 89 76 c49 42 92 76 96 76 4 0
27 -16 50 -35 24 -19 50 -35 58 -35 26 0 99 -60 113 -93 7 -18 63 -85 123
-149 84 -91 115 -131 132 -175 44 -109 73 -157 131 -219 38 -39 65 -77 75
-107 13 -37 49 -81 176 -213 l160 -167 -75 -76 c-93 -95 -107 -116 -107 -163
0 -30 10 -48 49 -95 26 -32 58 -67 70 -77 25 -23 27 -43 5 -67 -23 -25 -12
-57 32 -102 43 -43 52 -44 87 -16 33 25 51 17 101 -44 46 -57 50 -67 96 -295
54 -262 65 -302 90 -302 10 0 51 28 90 61 39 34 73 60 75 58 2 -2 56 -134 120
-293 116 -288 117 -290 110 -351 -11 -104 14 -106 153 -13 228 153 463 350
724 607 197 194 238 249 238 321 0 20 -7 45 -15 56 -28 37 -11 107 48 186 17
23 19 32 9 53 -7 14 -12 45 -12 69 0 26 -6 48 -14 55 -8 7 -75 21 -148 32 -73
10 -167 26 -208 34 -41 8 -128 21 -193 29 l-117 14 -318 324 c-175 177 -419
428 -542 555 -160 165 -231 233 -247 233 -30 0 -64 30 -321 284 -253 250 -344
349 -346 374 0 9 -20 42 -43 72 -65 85 -153 210 -153 219 0 4 14 20 30 36 35
34 37 46 10 70 -21 19 -28 41 -10 30 19 -12 22 26 5 73 -9 26 -19 56 -21 67
-3 12 17 76 46 148 37 93 50 135 45 155 -4 22 0 33 20 52 51 48 69 89 68 155
0 35 -7 74 -16 92 -21 39 -112 123 -377 346 -118 100 -426 362 -685 582 -670
571 -625 539 -751 538 -74 0 -110 -22 -245 -149 -117 -110 -143 -129 -120 -86
13 25 6 33 -84 102 -38 29 -74 57 -78 61 -5 3 3 30 18 58 17 34 24 60 19 73
-3 12 -245 259 -538 550 l-531 528 41 0 c32 0 46 6 72 33 38 39 41 72 12 136
l-20 44 49 46 c27 25 58 66 69 91 12 25 28 54 36 64 15 18 17 18 56 -18 22
-20 48 -36 58 -36 22 0 82 60 82 82 0 9 18 38 40 63 22 25 40 48 40 51 0 18
-35 66 -56 77 l-26 14 102 109 c57 60 128 138 159 174 31 36 318 326 638 645
366 365 584 589 588 605 13 55 -50 142 -117 162 l-39 12 -176 -175 c-190 -189
-496 -509 -748 -783 -132 -143 -426 -436 -587 -585 l-37 -34 -185 178 c-197
188 -240 225 -267 225 -26 0 -117 -80 -129 -114 -6 -17 -15 -154 -20 -304 -5
-150 -14 -280 -19 -290 -5 -9 -18 -26 -30 -36 -21 -19 -21 -18 -128 85 -60 56
-111 111 -115 121 -7 17 0 177 22 471 5 71 7 134 5 140 -2 7 -6 24 -9 38 -4
16 -27 43 -62 70 l-56 43 -36 -20 c-20 -10 -144 -124 -275 -253 l-238 -235
-112 110 c-62 60 -179 174 -260 254 -82 80 -172 172 -199 205 -147 176 -949
1005 -973 1005 -5 0 -30 -10 -53 -22z m2118 -1418 c8 -20 10 -58 6 -122 -9
-124 -26 -251 -36 -268 -12 -19 -45 8 -178 143 -126 128 -124 122 -57 187 32
31 42 35 88 35 42 0 59 6 87 27 46 37 74 36 90 -2z m635 -171 c29 -23 65 -29
103 -15 20 6 30 1 62 -34 29 -32 37 -47 31 -59 -5 -9 -68 -74 -141 -145 -102
-100 -134 -126 -141 -115 -5 8 -9 83 -9 167 0 211 22 258 95 201z m1816 -2155
c105 -93 977 -953 1051 -1037 63 -71 68 -81 68 -123 0 -51 -33 -94 -72 -94
-69 1 -106 34 -649 578 -294 295 -550 559 -567 586 -35 54 -42 105 -16 130 10
11 34 16 68 16 51 0 57 -3 117 -56z m-4173 -156 c20 -20 14 -52 -20 -104 -17
-27 -281 -299 -587 -605 -476 -476 -563 -559 -603 -574 -44 -16 -49 -16 -73
-1 -19 12 -25 25 -25 52 0 48 11 65 99 163 105 117 1020 1013 1072 1050 45 33
114 42 137 19z m3879 -1694 c65 -32 249 -208 258 -247 6 -21 1 -37 -19 -68
-34 -51 -80 -79 -132 -79 -44 0 -81 -20 -70 -38 9 -15 98 -15 147 -2 34 10 56
23 128 78 l31 23 20 -33 c17 -26 20 -45 17 -90 -6 -96 -54 -124 -181 -108
l-70 9 -172 178 c-95 98 -173 185 -173 194 -1 22 46 159 61 176 32 39 87 41
155 7z m-3813 -19 c17 -18 33 -69 42 -136 l5 -44 -178 -176 c-159 -158 -183
-178 -225 -188 -74 -18 -132 -14 -153 9 -26 28 -23 110 5 155 23 38 24 38 83
-9 35 -28 47 -31 115 -34 43 -1 83 1 91 6 24 17 1 32 -47 32 -59 0 -103 26
-126 74 -15 32 -15 38 -2 64 18 36 181 190 244 232 52 34 120 41 146 15z"/>
</g>
</svg>
