<?xml version="1.0" standalone="no"?>
<!DOCTYPE svg PUBLIC "-//W3C//DTD SVG 20010904//EN"
 "http://www.w3.org/TR/2001/REC-SVG-20010904/DTD/svg10.dtd">
<svg version="1.0" xmlns="http://www.w3.org/2000/svg"
 width="1280.000000pt" height="640.000000pt" viewBox="0 0 1280.000000 640.000000"
 preserveAspectRatio="xMidYMid meet">
<metadata>
Created by potrace 1.15, written by Peter Selinger 2001-2017
</metadata>
<g transform="translate(0.000000,640.000000) scale(0.100000,-0.100000)"
fill="#000000" stroke="none">
<path d="M2285 5100 c-228 -34 -387 -168 -446 -375 -20 -71 -17 -280 5 -375
52 -229 165 -486 333 -758 35 -56 63 -106 63 -110 0 -4 -42 -17 -92 -29 -188
-46 -278 -117 -322 -255 -5 -15 -18 -18 -94 -18 -176 0 -283 -38 -329 -118
-23 -39 -28 -59 -28 -120 l0 -72 -60 7 c-219 28 -304 -18 -305 -168 l0 -55
-92 14 c-69 10 -108 10 -152 3 -122 -21 -160 -72 -160 -211 0 -47 3 -97 7
-112 7 -27 6 -27 -25 -20 -18 4 -82 7 -143 7 -87 0 -117 -4 -143 -18 -67 -37
-93 -120 -75 -242 l11 -70 -32 -24 c-17 -14 -63 -57 -102 -96 -55 -54 -75 -82
-88 -123 -37 -112 5 -196 126 -253 63 -29 83 -34 148 -34 59 0 85 6 120 24 64
33 145 115 187 188 l35 63 96 0 c114 0 211 15 269 42 51 24 116 92 133 140
l13 35 87 6 c122 9 180 23 241 60 61 36 112 103 133 176 7 25 17 46 22 46 5 0
46 -6 92 -13 96 -15 173 -4 217 30 32 25 64 87 73 140 l7 39 115 2 c96 2 122
6 160 24 50 25 87 72 102 130 l9 38 112 0 c101 0 118 3 172 28 32 15 74 39 92
53 l32 24 40 -49 c63 -81 201 -365 282 -584 58 -155 115 -355 107 -377 -2 -6
-21 3 -43 19 -75 55 -139 74 -250 74 -135 1 -201 -28 -242 -107 -21 -41 -20
-174 3 -222 59 -124 244 -207 464 -207 258 -1 438 115 521 333 93 245 -16 668
-289 1120 -37 61 -48 87 -39 92 17 9 229 62 375 94 419 91 846 152 1332 191
267 21 1022 24 1260 5 733 -59 1263 -160 1868 -357 112 -37 210 -69 218 -72 9
-3 5 14 -13 53 -37 79 -43 201 -15 291 59 187 213 343 386 389 270 72 586
-156 613 -442 17 -185 -99 -399 -260 -481 l-58 -29 92 -69 c197 -147 862 -576
873 -564 2 2 32 40 67 84 135 172 372 383 595 531 477 315 1044 471 1635 450
155 -5 357 -24 442 -42 54 -11 26 32 -83 127 -479 418 -1211 833 -1956 1110
-793 293 -1612 462 -2544 525 -296 19 -934 22 -1225 5 -1087 -64 -2181 -269
-3295 -616 -374 -117 -912 -303 -957 -331 -21 -13 -24 -11 -58 44 -76 120
-208 412 -282 627 -39 115 -87 295 -78 295 2 0 33 -18 68 -40 93 -58 168 -83
252 -83 88 0 133 15 172 56 48 51 56 85 51 200 -5 110 -19 150 -66 194 -89 83
-323 137 -487 113z"/>
</g>
</svg>
