<?xml version="1.0" standalone="no"?>
<!DOCTYPE svg PUBLIC "-//W3C//DTD SVG 20010904//EN"
 "http://www.w3.org/TR/2001/REC-SVG-20010904/DTD/svg10.dtd">
<svg version="1.0" xmlns="http://www.w3.org/2000/svg"
 width="640.000000pt" height="1280.000000pt" viewBox="0 0 640.000000 1280.000000"
 preserveAspectRatio="xMidYMid meet">
<metadata>
Created by potrace 1.15, written by Peter Selinger 2001-2017
</metadata>
<g transform="translate(0.000000,1280.000000) scale(0.100000,-0.100000)"
fill="#000000" stroke="none">
<path d="M3123 12786 c-123 -40 -204 -155 -203 -290 1 -103 46 -192 126 -247
42 -29 42 -29 31 -66 -13 -44 -16 -584 -4 -760 l7 -113 -69 0 c-37 0 -108 -7
-156 -15 l-88 -16 -51 34 c-81 54 -152 123 -196 190 -136 207 -101 477 90 690
29 32 67 64 86 72 19 8 34 21 34 29 0 23 -59 86 -80 86 -22 0 -50 -36 -50 -63
0 -10 -26 -47 -57 -82 -76 -82 -157 -220 -189 -320 -60 -183 -36 -439 70 -778
l24 -78 -391 3 c-216 2 -400 7 -409 12 -16 7 -18 1 -18 -59 l0 -67 38 7 c103
20 193 24 489 25 l322 0 17 -31 c15 -30 15 -34 -12 -92 -50 -112 -29 -213 61
-296 93 -86 197 -119 401 -128 l141 -6 6 -1950 c4 -1073 7 -3341 7 -5040 l0
-3090 56 -174 c43 -135 59 -173 71 -171 10 2 35 56 70 153 l54 150 -7 5080 -6
5080 123 38 c116 36 127 42 173 89 55 57 121 186 158 311 l23 78 450 -4 c248
-2 460 -7 471 -11 20 -7 22 -3 29 49 3 31 4 59 1 62 -3 3 -39 0 -81 -6 -46 -7
-230 -11 -472 -11 l-397 0 -55 43 c-102 79 -232 140 -353 167 l-58 13 8 101
c12 169 8 661 -6 760 -12 84 -12 90 5 99 37 21 93 92 113 144 72 192 -52 395
-249 409 -31 2 -74 -2 -98 -10z m-513 -1507 l77 -51 -52 -49 c-28 -27 -60 -65
-71 -84 -15 -28 -24 -35 -50 -35 -31 0 -31 0 -53 93 -21 87 -51 256 -51 285 0
8 27 -14 61 -47 34 -34 96 -84 139 -112z m320 -44 c-28 -16 -70 -21 -54 -6 9
9 38 18 64 19 8 1 4 -5 -10 -13z m162 -40 c1 -30 1 -55 -2 -55 -12 0 -150 53
-147 56 7 7 122 53 134 54 7 0 12 -22 15 -55z m438 -16 c41 -16 111 -49 155
-74 l80 -45 -218 0 -219 0 7 68 c11 119 7 113 68 95 28 -8 86 -28 127 -44z
m-735 1 c27 -10 26 -11 -50 -65 -53 -38 -86 -55 -107 -55 l-31 0 25 33 c19 24
119 97 134 97 2 0 15 -5 29 -10z m182 -65 c65 -20 119 -38 122 -40 12 -13 -21
-15 -189 -13 l-184 3 64 43 c35 23 65 42 67 42 2 0 56 -16 120 -35z m63 -141
c0 -3 -11 -53 -24 -112 -45 -198 -81 -262 -148 -262 -70 0 -150 65 -232 188
-61 92 -65 112 -29 156 l28 36 203 0 c111 0 202 -3 202 -6z m710 -12 c0 -37
-40 -173 -66 -227 -52 -106 -121 -134 -187 -76 -50 45 -107 171 -122 274 l-7
47 191 0 c179 0 191 -1 191 -18z m-340 -309 l29 -63 -50 0 -49 0 1 138 0 137
20 -75 c10 -41 32 -103 49 -137z m-844 149 c44 -76 115 -160 165 -195 55 -38
54 -41 -15 -51 -49 -7 -79 9 -138 72 -59 63 -77 116 -58 172 7 22 16 40 19 40
3 0 16 -17 27 -38z m521 -219 c-2 -2 -35 -6 -73 -10 l-69 -6 37 39 c41 44 84
129 96 189 5 29 8 6 10 -84 1 -68 1 -125 -1 -128z m372 -43 c-13 -4 -46 -10
-72 -14 -38 -6 -47 -4 -47 8 0 11 15 16 63 18 69 3 94 -2 56 -12z m-369 -31
c0 -21 -2 -22 -132 -16 -73 3 -144 9 -158 14 -23 7 -22 8 15 14 22 3 93 7 158
8 113 1 117 0 117 -20z"/>
</g>
</svg>
