<?xml version="1.0" standalone="no"?>
<!DOCTYPE svg PUBLIC "-//W3C//DTD SVG 20010904//EN"
 "http://www.w3.org/TR/2001/REC-SVG-20010904/DTD/svg10.dtd">
<svg version="1.0" xmlns="http://www.w3.org/2000/svg"
 width="640.000000pt" height="1280.000000pt" viewBox="0 0 640.000000 1280.000000"
 preserveAspectRatio="xMidYMid meet">
<metadata>
Created by potrace 1.15, written by Peter Selinger 2001-2017
</metadata>
<g transform="translate(0.000000,1280.000000) scale(0.100000,-0.100000)"
fill="#000000" stroke="none">
<path d="M2936 12789 c-147 -21 -266 -68 -342 -133 -52 -45 -100 -135 -116
-219 -12 -63 -14 -67 -40 -67 -27 0 -28 -2 -28 -55 0 -54 0 -55 29 -55 26 0
31 -5 46 -49 51 -154 203 -283 408 -345 9 -3 17 -14 17 -24 0 -23 19 -42 42
-42 17 0 18 -13 18 -169 l0 -170 -27 -3 c-48 -5 -40 -78 8 -78 18 0 19 -11 19
-210 0 -199 -1 -210 -19 -210 -48 0 -56 -73 -8 -78 l27 -3 0 -235 0 -234 -25
0 c-18 0 -26 -7 -31 -25 -9 -36 2 -55 31 -55 l25 0 0 -149 c0 -148 0 -150 -22
-153 -13 -2 -27 -13 -32 -25 -10 -22 -48 -33 -114 -33 -63 0 -188 -31 -259
-65 -175 -82 -240 -219 -250 -527 l-6 -167 60 -7 c33 -3 65 -9 71 -13 5 -3 19
-37 30 -76 133 -454 195 -1864 172 -3915 -9 -844 -22 -1506 -36 -1845 l-5
-150 136 -685 c415 -2090 479 -2403 486 -2384 4 10 75 363 159 784 83 421 218
1105 301 1520 l151 755 -11 440 c-42 1654 -42 3212 -1 4125 23 516 60 926 106
1180 18 104 52 230 65 246 5 6 39 15 75 19 l66 7 -7 136 c-17 335 -78 472
-247 554 -67 33 -153 55 -243 63 -117 10 -130 13 -140 38 -6 12 -20 23 -32 25
-23 3 -23 5 -23 152 l0 149 28 3 c24 3 27 7 27 38 0 31 -3 35 -28 38 l-27 3 2
232 3 231 25 6 c21 5 25 12 25 40 0 31 -3 35 -27 38 l-28 3 0 209 0 209 28 3
c22 2 28 8 30 35 2 25 -2 34 -20 44 -13 7 -25 12 -28 11 -3 -1 -6 72 -8 162
l-2 163 30 6 c24 5 30 12 30 31 0 21 9 27 64 46 173 57 328 199 366 334 11 41
16 46 41 46 28 0 29 1 29 54 0 52 -1 55 -27 58 -25 3 -28 8 -36 58 -4 30 -21
83 -37 116 -67 136 -206 213 -441 244 -90 11 -421 11 -503 -1z m-356 -3624
c55 -9 65 -13 38 -14 -44 -1 -46 -6 -15 -32 16 -15 -101 41 -122 58 -7 5 21 2
99 -12z m1339 11 c-13 -12 -132 -66 -121 -55 20 21 14 29 -25 30 -30 1 -22 4
32 14 73 13 121 18 114 11z m-252 -453 c-3 -10 -5 -4 -5 12 0 17 2 24 5 18 2
-7 2 -21 0 -30z m-930 -90 c-3 -10 -5 -4 -5 12 0 17 2 24 5 18 2 -7 2 -21 0
-30z m910 -210 c-3 -10 -5 -2 -5 17 0 19 2 27 5 18 2 -10 2 -26 0 -35z m-890
-135 c-2 -13 -4 -3 -4 22 0 25 2 35 4 23 2 -13 2 -33 0 -45z m880 -120 c-3 -8
-6 -5 -6 6 -1 11 2 17 5 13 3 -3 4 -12 1 -19z m-10 -220 c-2 -18 -4 -6 -4 27
0 33 2 48 4 33 2 -15 2 -42 0 -60z m-860 40 c-3 -7 -5 -2 -5 12 0 14 2 19 5
13 2 -7 2 -19 0 -25z m10 -305 c-2 -27 -3 -5 -3 47 0 52 1 74 3 48 2 -27 2
-69 0 -95z m840 -265 c-3 -8 -6 -5 -6 6 -1 11 2 17 5 13 3 -3 4 -12 1 -19z
m-10 -645 c-1 -71 -3 -13 -3 127 0 140 2 198 3 128 2 -71 2 -185 0 -255z
m-810 -685 c-2 -18 -4 -4 -4 32 0 36 2 50 4 33 2 -18 2 -48 0 -65z m810 -1180
c-3 -8 -6 -5 -6 6 -1 11 2 17 5 13 3 -3 4 -12 1 -19z m0 -155 c-2 -16 -4 -3
-4 27 0 30 2 43 4 28 2 -16 2 -40 0 -55z m0 -150 c-2 -16 -4 -3 -4 27 0 30 2
43 4 28 2 -16 2 -40 0 -55z m-360 -2205 c-3 -8 -6 -5 -6 6 -1 11 2 17 5 13 3
-3 4 -12 1 -19z m-90 -50 c-3 -8 -6 -5 -6 6 -1 11 2 17 5 13 3 -3 4 -12 1 -19z
m74 -106 c-9 -91 -24 -385 -34 -662 -2 -41 -4 -1 -5 90 -2 146 -7 246 -26 565
-5 75 -3 75 10 -2 5 -32 5 -32 23 -14 13 13 22 42 27 88 4 37 9 62 12 55 2 -8
-1 -62 -7 -120z"/>
</g>
</svg>
