<?xml version="1.0" standalone="no"?>
<!DOCTYPE svg PUBLIC "-//W3C//DTD SVG 20010904//EN"
 "http://www.w3.org/TR/2001/REC-SVG-20010904/DTD/svg10.dtd">
<svg version="1.0" xmlns="http://www.w3.org/2000/svg"
 width="1280.000000pt" height="872.000000pt" viewBox="0 0 1280.000000 872.000000"
 preserveAspectRatio="xMidYMid meet">
<metadata>
Created by potrace 1.15, written by Peter Selinger 2001-2017
</metadata>
<g transform="translate(0.000000,872.000000) scale(0.100000,-0.100000)"
fill="#000000" stroke="none">
<path d="M6105 8710 c-549 -46 -1005 -195 -1315 -431 -85 -64 -211 -192 -257
-259 -52 -77 -93 -168 -145 -319 -27 -80 -76 -210 -109 -288 -32 -77 -65 -172
-73 -210 -37 -175 -45 -419 -26 -759 20 -349 39 -435 114 -511 50 -50 86 -62
121 -39 43 28 49 78 50 381 1 180 5 303 13 345 20 104 68 250 126 382 71 163
82 201 106 348 46 281 90 407 195 555 74 104 87 104 35 1 -106 -211 -149 -367
-159 -578 l-8 -158 -76 -152 c-88 -179 -110 -241 -133 -374 -17 -100 -17 -140
2 -574 7 -143 6 -147 -20 -202 -30 -63 -74 -106 -144 -142 -68 -34 -85 -57
-84 -111 1 -118 170 -351 289 -401 62 -26 111 -18 283 46 112 42 215 61 264
50 52 -11 111 -53 142 -99 25 -39 32 -59 74 -241 34 -146 88 -239 175 -301
l44 -32 -45 -55 c-57 -69 -94 -142 -94 -182 0 -23 7 -35 33 -50 58 -36 161
-21 173 25 3 12 -3 71 -14 131 -11 60 -19 110 -18 111 2 2 133 -17 153 -23 8
-2 2 -27 -18 -78 -56 -144 -49 -200 29 -233 68 -28 219 -1 236 42 16 44 6 126
-25 186 -17 34 -29 62 -27 63 2 1 45 0 96 -2 l94 -4 -22 -23 c-25 -26 -49
-124 -50 -196 0 -67 13 -74 134 -74 121 0 146 11 146 60 0 54 -29 167 -50 197
-11 15 -20 29 -20 32 0 3 50 6 110 8 61 2 110 1 110 -2 0 -3 -9 -11 -21 -18
-31 -20 -48 -71 -55 -166 l-7 -86 36 -15 c43 -18 160 -20 206 -4 46 16 51 34
36 119 -15 85 -29 127 -52 153 -9 9 -14 19 -12 21 2 2 59 6 125 9 l121 6 -14
-41 c-8 -22 -17 -76 -20 -119 -7 -91 5 -114 65 -125 39 -8 136 11 169 33 48
32 48 99 0 203 -51 111 -55 100 96 246 75 71 143 147 154 169 11 22 29 76 39
120 25 106 62 161 134 198 77 39 152 39 294 -2 118 -34 209 -40 279 -19 129
39 262 276 241 431 -9 69 -45 107 -137 142 -41 15 -94 43 -119 60 -66 48 -78
82 -78 217 -1 229 -15 356 -49 441 -17 43 -31 88 -31 102 0 30 34 55 76 55 58
0 59 -3 59 -339 0 -274 2 -310 18 -343 47 -94 122 -95 192 -3 64 83 155 351
175 515 27 228 7 417 -71 653 -22 67 -56 174 -76 237 -97 313 -292 608 -553
835 -390 339 -702 450 -1290 460 -129 2 -284 0 -345 -5z m-660 -2000 c279 -27
451 -107 484 -227 25 -89 5 -267 -38 -351 -47 -91 -301 -292 -458 -364 -100
-45 -157 -48 -235 -11 -118 56 -219 172 -253 290 -21 73 -41 188 -50 288 -7
86 6 187 30 241 30 65 117 121 215 137 50 8 197 7 305 -3z m1911 -26 c127 -32
239 -109 275 -189 14 -31 19 -65 19 -145 0 -119 -40 -391 -64 -439 -38 -73
-130 -111 -271 -111 -133 0 -212 30 -380 144 -110 74 -259 222 -300 296 -27
50 -30 63 -30 151 0 87 2 99 27 136 51 78 211 148 393 172 89 12 256 5 331
-15z m-1052 -608 c46 -49 208 -309 266 -426 109 -217 107 -390 -5 -488 -47
-42 -80 -55 -104 -42 -27 14 -69 65 -141 173 -91 136 -116 140 -182 28 -20
-35 -46 -74 -59 -87 -26 -28 -70 -32 -93 -8 -41 41 -33 124 32 338 28 88 60
201 71 250 39 161 115 306 161 306 8 0 32 -20 54 -44z"/>
<path d="M27 7445 c-24 -23 -30 -92 -24 -254 5 -153 20 -243 63 -376 117 -364
443 -911 828 -1390 428 -532 1045 -1106 1751 -1630 982 -729 1821 -1199 3065
-1717 626 -261 1179 -459 1846 -663 338 -104 1118 -325 1144 -325 19 0 12 202
-10 272 -36 118 -105 171 -310 243 -166 57 -696 225 -1030 324 -363 109 -494
152 -741 242 -490 178 -1010 408 -1659 735 -855 430 -1448 806 -1807 1147 -83
79 -170 190 -154 195 6 2 61 -36 123 -85 419 -331 847 -616 1407 -937 987
-567 1609 -824 3081 -1270 173 -53 374 -114 445 -137 196 -61 422 -117 507
-125 63 -5 88 -3 149 16 159 48 285 127 301 187 5 19 -10 25 -217 77 -1229
311 -2826 906 -3981 1484 -1015 508 -2123 1264 -2979 2031 -535 480 -1378
1408 -1665 1833 -85 125 -109 148 -133 123z"/>
<path d="M12731 7443 c-12 -8 -54 -63 -93 -121 -236 -357 -1017 -1223 -1533
-1701 -607 -563 -1337 -1108 -2165 -1618 -674 -414 -1429 -788 -2302 -1138
-81 -33 -145 -61 -142 -64 7 -8 152 -70 327 -141 l169 -69 111 49 c182 78 222
97 432 202 791 396 1649 927 2148 1331 54 43 101 76 104 73 15 -15 -118 -159
-255 -278 -381 -329 -991 -704 -1777 -1093 -276 -136 -491 -239 -625 -297
l-45 -20 155 -54 c85 -29 223 -74 305 -100 l150 -46 145 67 c687 317 1331 690
1976 1140 1049 735 1829 1470 2354 2218 255 364 454 723 550 992 54 153 71
245 77 425 7 220 -10 283 -66 243z m-401 -1027 c0 -30 -79 -192 -148 -306
-329 -537 -1188 -1445 -1585 -1675 -104 -60 -66 -20 278 291 577 523 1047
1064 1361 1567 67 107 94 143 94 123z"/>
<path d="M7684 5131 c-52 -24 -160 -158 -214 -266 -56 -114 -73 -185 -121
-500 -12 -77 -30 -165 -42 -195 -28 -76 -118 -164 -216 -213 -99 -49 -103 -49
-80 13 10 28 19 73 19 101 0 48 -2 51 -35 65 -44 18 -126 18 -169 0 -18 -8
-50 -31 -71 -51 -35 -35 -37 -41 -31 -82 3 -24 15 -62 26 -85 11 -23 18 -44
15 -46 -6 -6 -165 -16 -165 -11 0 2 9 29 21 59 11 30 22 82 22 114 2 58 1 60
-33 80 -28 17 -51 21 -115 20 -47 0 -92 -6 -110 -15 -28 -13 -30 -19 -33 -74
-3 -52 4 -101 24 -167 5 -16 -3 -18 -80 -18 -47 0 -86 2 -86 4 0 2 12 30 27
62 20 44 27 76 27 123 1 87 -10 93 -163 88 -98 -3 -116 -6 -128 -23 -23 -31
-8 -118 42 -238 8 -18 4 -19 -84 -14 -50 3 -94 8 -97 10 -2 3 5 27 17 54 11
27 23 81 26 120 5 69 5 71 -23 93 -27 21 -37 23 -128 19 -88 -3 -100 -6 -117
-27 -22 -27 -26 -118 -8 -170 6 -18 9 -34 7 -36 -2 -3 -40 7 -84 22 -68 23
-88 35 -140 87 -73 73 -88 112 -110 281 -8 66 -24 152 -34 190 -23 80 -138
393 -164 443 -26 49 -87 113 -123 129 -71 29 -172 2 -206 -56 -28 -48 -21 -93
38 -229 88 -206 98 -277 85 -632 -3 -110 -1 -130 17 -170 27 -62 89 -120 213
-203 157 -105 202 -142 368 -301 226 -215 243 -220 575 -192 237 20 340 20
497 0 159 -19 303 -21 355 -4 66 21 115 61 255 210 105 112 162 162 264 235
143 100 211 166 220 211 3 16 10 83 16 149 14 152 27 217 91 429 70 235 107
384 121 495 12 92 12 93 -11 112 -30 25 -112 25 -167 0z"/>
<path d="M2483 2586 c-125 -31 -225 -106 -272 -206 -23 -50 -26 -67 -26 -175
0 -116 1 -123 33 -187 64 -131 178 -198 336 -198 117 1 192 50 231 154 22 58
43 65 99 32 50 -29 78 -62 165 -195 198 -303 274 -482 431 -1026 105 -362 124
-418 168 -490 75 -125 209 -227 357 -271 45 -14 94 -19 195 -19 254 0 390 55
450 182 35 74 29 235 -11 329 -42 101 -131 154 -255 154 -95 0 -146 -34 -193
-127 -12 -24 -28 -43 -36 -43 -25 0 -102 78 -154 155 -33 50 -55 97 -69 151
-28 104 -45 285 -41 432 4 106 7 122 34 175 16 32 56 88 88 123 33 36 57 67
55 69 -3 3 -43 10 -89 15 -159 20 -272 72 -326 152 -16 23 -56 90 -88 148
-102 182 -166 271 -275 381 -158 160 -306 247 -482 283 -91 19 -251 20 -325 2z"/>
<path d="M9920 2585 c-180 -36 -331 -126 -491 -291 -95 -99 -135 -155 -235
-323 -124 -211 -171 -252 -386 -341 -108 -44 -109 -46 -50 -124 83 -107 96
-154 96 -331 -1 -227 -40 -403 -114 -511 -50 -74 -138 -164 -160 -164 -10 0
-26 19 -40 51 -45 96 -103 126 -224 117 -147 -12 -225 -101 -245 -279 -16
-142 5 -216 79 -283 73 -66 161 -93 330 -102 221 -13 376 41 510 175 100 100
133 168 210 436 193 667 236 784 388 1050 121 212 229 346 290 362 29 7 36 0
75 -78 23 -44 45 -72 75 -94 42 -29 48 -30 150 -30 89 0 115 4 154 22 113 52
193 169 207 301 23 231 -83 386 -301 437 -76 18 -229 18 -318 0z"/>
<path d="M4940 2269 c-216 -68 -608 -185 -886 -264 -163 -47 -299 -87 -301
-89 -11 -11 13 -53 54 -97 66 -70 126 -91 284 -97 149 -5 257 13 534 88 294
80 895 261 895 270 0 3 -28 16 -62 29 -35 13 -141 61 -237 107 -96 46 -177 84
-180 83 -3 0 -49 -14 -101 -30z"/>
<path d="M5075 1836 c-319 -100 -623 -196 -675 -213 -218 -70 -323 -147 -356
-258 -18 -60 -27 -255 -12 -270 11 -11 711 185 1193 334 395 122 1035 339
1035 351 0 3 -78 35 -173 73 -94 37 -221 90 -281 117 -61 28 -119 49 -130 49
-12 -1 -282 -83 -601 -183z"/>
<path d="M2313 1650 c-41 -13 -63 -45 -63 -92 0 -58 48 -173 107 -255 30 -42
52 -78 49 -80 -3 -3 -25 5 -50 17 -71 34 -116 101 -171 255 -23 62 -78 119
-130 134 -22 6 -74 11 -115 11 -191 0 -221 -55 -161 -294 42 -164 88 -255 171
-337 106 -105 139 -117 363 -131 225 -14 872 4 915 25 48 23 66 61 65 135 -1
127 -48 254 -152 414 -94 145 -170 208 -251 208 -42 0 -96 -24 -109 -48 -30
-56 4 -156 93 -276 32 -43 55 -80 52 -83 -14 -15 -132 88 -178 155 -17 24 -41
71 -54 105 -45 115 -85 139 -239 143 -60 2 -124 -1 -142 -6z"/>
<path d="M9775 1649 c-50 -14 -102 -66 -171 -170 -115 -175 -167 -310 -168
-439 -1 -79 20 -123 65 -139 17 -6 187 -16 379 -23 447 -15 684 -3 770 39 76
37 177 142 217 225 37 76 78 210 95 310 14 82 1 137 -40 164 -35 23 -187 32
-252 14 -60 -16 -110 -70 -140 -151 -50 -136 -98 -202 -179 -244 -32 -16 -42
-7 -16 15 9 7 32 41 51 76 89 159 107 266 51 308 -22 16 -46 21 -122 24 -166
8 -238 -25 -275 -125 -39 -105 -107 -190 -214 -266 -28 -20 -27 -16 17 44 130
183 144 321 35 343 -39 8 -65 6 -103 -5z"/>
<path d="M1235 1633 c-256 -34 -405 -218 -405 -499 0 -161 46 -272 159 -385
188 -188 435 -221 655 -89 68 41 178 139 218 194 53 74 27 112 -43 62 -149
-107 -191 -122 -310 -114 -82 6 -133 32 -137 70 -3 24 3 28 55 48 163 61 230
120 265 233 40 133 6 281 -86 372 -94 93 -216 129 -371 108z"/>
<path d="M11303 1630 c-169 -36 -281 -167 -291 -341 -8 -129 37 -234 127 -301
24 -17 80 -46 124 -64 45 -17 83 -36 85 -42 5 -17 -36 -48 -81 -62 -57 -17
-203 -15 -247 3 -19 9 -64 38 -99 67 -71 57 -94 60 -99 13 -6 -63 73 -172 169
-233 114 -74 327 -111 460 -80 96 22 198 79 269 150 110 110 160 232 160 390
-1 309 -162 488 -453 505 -45 2 -101 0 -124 -5z"/>
</g>
</svg>
