<?xml version="1.0" encoding="utf-8"?>
<!-- Generator: Adobe Illustrator 16.0.0, SVG Export Plug-In . SVG Version: 6.00 Build 0)  -->
<!DOCTYPE svg PUBLIC "-//W3C//DTD SVG 1.1//EN" "http://www.w3.org/Graphics/SVG/1.1/DTD/svg11.dtd">
<svg version="1.1" id="grave_digger" xmlns="http://www.w3.org/2000/svg" xmlns:xlink="http://www.w3.org/1999/xlink" x="0px"
	 y="0px" width="866.667px" height="976.042px" viewBox="0 0 866.667 976.042" enable-background="new 0 0 866.667 976.042"
	 xml:space="preserve">
<g id="skull_parts">
	<path id="lower" d="M807.775,684.526l-86.87,69.746L596.328,610.254c0.42-6.128,1.371-12.56,2.969-19.255
		c5.745-23.972,24.886-67.807,24.886-67.807S584,536.167,580.614,547.125c-4.184,13.433-5.555,50.075-20.85,77.852
		c-15.298,27.816-16.25,50.074-22.262,52.854c-6.013,2.776-7.877,0-7.877,0s-3.233,4.642-8.788,5.099
		c-5.594,0.456-6.813-3.537-6.813-3.537s-1.864,8.635-7.725,10.5c-5.86,1.825-10.501-1.865-10.501-1.865s-7.726,5.556-12.366,4.946
		c-4.641-0.61-7.725-7.417-7.725-7.417s-5.86,5.972-11.453,7.458c-5.556,1.482-10.159-5.9-10.159-5.9s-3.426,6.354-9.587,6.09
		c-6.205-0.23-11.761-7.346-11.761-7.346s1.561,7.004-6.77,7.383c-8.372,0.342-12.977-6.774-12.977-6.774s-6.506,4.341-10.542,0.647
		c-3.994-3.729-6.771-9.283-6.771-9.283s-6.811,6.202-9.59,2.166c-2.779-4.03-3.994-8.636-3.994-8.636s-10.542,9.854-13.927-1.56
		c-3.385-11.452-5.25-21.307-6.811-29.032c-1.524-7.763-20.055-27.208-24.086-55.021c-3.995-27.813-2.475-34.893-14.537-42.959
		c-9.665-6.433-24.085-12.86-29.411-15.184c0.115,8.944,1.52,29.909,11.337,54.11L167.92,737.875l-78.156-77.929
		c0,0-107.834,125.566-73.588,259.997c167.421,17.77,277.158-60.843,277.158-60.843l-79.601-81.503l103.192-117.005
		c-0.877,1.979-1.902,3.92-3.121,5.822c-14.841,23.477,11.11,71.687,52.509,96.382c41.439,24.732,51.293,16.057,79.716,9.281
		c28.464-6.811,44.519,10.506,81.581,0c37.099-10.5,43.264-47.6,53.155-60.574c2.969-3.88,6.622-7.875,10.196-12.063l82.228,87.327
		l-99.425,77.85c0,0,99.425,83.255,273.2,104.791C890.078,838.782,807.775,684.526,807.775,684.526z M75.877,876.758
		c2.74-3.199,90.256-105.515,97.599-116.551c10.274-3.612,19.443,3.805,19.14,12.255C192.311,780.756,79.416,873.864,75.877,876.758
		z M692.862,788.061c-0.799-8.409,7.915-16.323,18.379-13.317c7.952,10.616,87.516,131.237,89.99,135.005
		C797.958,906.322,693.661,796.354,692.862,788.061z"/>
	<path id="upper" d="M679.623,376.776c9.892-32.573-4.949-67.539-4.949-67.539s17.353-18.605,12.214-74.466
		c0,0,74.45-104.356,96.648-124.652c22.198-20.296,54.281-49.034,63.925-59.398c9.643-10.363,11.544-24.313-2.408-38.266
		c-13.953-13.953-31.708-6.343-43.758,3.805c-12.051,10.148-37.416,45.661-51.368,68.491
		c-13.953,22.831-80.236,77.268-80.236,77.268C638.603,90.979,563.643,50.952,499.794,46.574
		c-72.296-4.945-177.96,20.396-232.334,82.191c-11.263,12.819-19.066,28.118-24.354,44.364c0,0-69.009-67.446-84.229-91.547
		c-15.22-24.101-31.635-53.649-45.941-62.973C98.631,9.286,81.508,1.672,69.459,9.917c-12.048,8.246-11.519,19.712-3.857,37.76
		c7.662,18.048,35.564,37.705,57.761,57.366s109.963,150.391,109.963,150.391c1.066,31.503,6.28,54.98,6.28,54.98
		s-7.726,12.901-9.628,34.245c-1.865,21.311,4.72,32.116,4.72,32.116c-59.357,31.696,58.71,146.263,58.71,146.263
		s3.541,6.013,21.615,7.421c18.074,1.371,43.111,6.926,47.752,26.865c4.642,19.936,6.47,31.05,7.42,29.222
		c0.911-1.865,7.874-4.262,9.246,0.189c1.408,4.414,2.322,9.056,2.322,9.056s6.049-6.012,9.739-6.964
		c3.73-0.91,5.555,12.519,5.555,12.519s0.457-4.146,6.737-3.689c6.238,0.457,10.88,12.024,10.88,12.024s7.268-10.806,11.114-8.75
		c3.842,2.055,8.256,14.877,8.256,14.877s4.868-10.389,10.729-9.476c5.859,0.914,11.719,13.775,11.719,13.775
		s6.317-13.622,11.188-14.841c4.868-1.179,10.502,7.878,10.502,7.878s3.73-12.444,7.914-13.244
		c4.185-0.799,12.672,9.286,12.672,9.286s1.938-11.226,4.299-12.519c2.359-1.256,8.256,6.086,8.256,6.086s3.349-9.739,7.878-10.995
		c4.526-1.293,9.245,5.67,9.245,5.67s-0.342-11.834,6.279-13.47c6.581-1.597,10.996,8.94,10.996,8.94s7.535-48.094,25.152-55.515
		c17.617-7.383,58.711-18.188,58.711-18.188c17.238-21.423,53.002-68.603,58.253-97.523
		C694.802,383.357,679.623,376.776,679.623,376.776z M341.012,457.518c-50.075-4.946-85.313-22.868-85.313-85.271
		c0,0,1.256-32.759,35.237-27.167c33.978,5.555,59.93,27.776,95.772,31.507c35.844,3.689,54.374,21.001,48.818,43.869
		C429.973,443.327,391.045,462.463,341.012,457.518z M498.385,546.52c-18.415,23.703-42.501-16.822-44.404-20.17
		c-1.939,3.348-26.025,43.873-44.404,20.17c-19.136-24.732,14.232-66.74,26.939-84.057c12.709-17.312,12.635-6.77,13.854,11.761
		c1.063,15.942,3.081,17.234,3.611,17.313c0.536-0.078,2.55-1.37,3.615-17.313c1.219-18.531,1.142-29.072,13.854-11.761
		C484.158,479.779,517.527,521.787,498.385,546.52z M569.923,452.877c-50.037,4.945-89.002-14.195-94.558-37.063
		c-5.556-22.867,12.976-40.179,48.819-43.873c35.843-3.727,61.794-25.948,95.809-31.503c33.982-5.596,35.197,27.167,35.197,27.167
		C655.191,430.046,619.994,447.931,569.923,452.877z"/>
</g>
</svg>
