<?xml version="1.0" standalone="no"?>
<!DOCTYPE svg PUBLIC "-//W3C//DTD SVG 20010904//EN"
 "http://www.w3.org/TR/2001/REC-SVG-20010904/DTD/svg10.dtd">
<svg version="1.0" xmlns="http://www.w3.org/2000/svg"
 width="679.000000pt" height="1280.000000pt" viewBox="0 0 679.000000 1280.000000"
 preserveAspectRatio="xMidYMid meet">
<metadata>
Created by potrace 1.15, written by Peter Selinger 2001-2017
</metadata>
<g transform="translate(0.000000,1280.000000) scale(0.100000,-0.100000)"
fill="#000000" stroke="none">
<path d="M4475 12770 c-202 -25 -335 -73 -437 -156 -101 -83 -239 -274 -378
-524 -66 -119 -87 -147 -176 -235 -132 -131 -138 -150 -88 -278 19 -48 39 -96
44 -105 4 -9 34 -78 65 -152 31 -74 64 -151 72 -170 8 -19 25 -60 37 -90 19
-50 25 -56 71 -73 28 -11 99 -29 160 -40 93 -17 118 -18 165 -9 72 15 107 15
112 0 5 -14 -35 -232 -56 -304 -41 -146 -122 -201 -316 -213 l-105 -6 -6 -95
c-4 -52 -14 -119 -23 -149 -21 -72 -20 -145 3 -277 30 -168 77 -270 186 -409
71 -89 234 -254 308 -309 l49 -36 708 0 c811 0 754 7 704 -86 l-29 -54 -925
-2 c-601 -2 -932 0 -946 7 -12 6 -43 34 -70 63 -38 43 -44 56 -33 63 8 5 94 9
192 9 97 0 177 4 177 8 0 5 -31 42 -68 84 -129 141 -260 326 -310 438 -66 148
-76 199 -77 390 0 144 3 184 18 227 10 29 17 69 15 90 l-3 38 -122 -1 c-338
-3 -549 -124 -635 -365 -22 -61 -23 -76 -22 -334 0 -274 22 -514 49 -551 10
-14 32 -14 190 -4 374 25 524 -18 649 -189 218 -296 388 -1006 403 -1683 6
-226 5 -240 -17 -310 -36 -120 -57 -189 -79 -273 -12 -44 -29 -105 -37 -135
-8 -30 -21 -77 -29 -105 -7 -27 -16 -66 -20 -85 -4 -19 -13 -57 -20 -85 -17
-62 -49 -196 -70 -295 -9 -41 -24 -113 -35 -160 -28 -129 -48 -231 -55 -275
-3 -22 -12 -69 -20 -105 -8 -36 -23 -117 -35 -180 -12 -63 -27 -146 -35 -185
-16 -76 -44 -245 -105 -620 -12 -71 -27 -166 -35 -210 -7 -44 -16 -102 -20
-130 -3 -27 -12 -90 -20 -140 -19 -125 -51 -339 -70 -470 -48 -338 -57 -398
-70 -485 -8 -52 -17 -117 -20 -145 -3 -27 -12 -93 -20 -145 -8 -52 -21 -147
-30 -210 -23 -163 -52 -364 -111 -755 -8 -55 -24 -150 -35 -211 -11 -61 -17
-118 -13 -127 3 -10 17 -17 33 -17 50 0 56 -11 41 -82 -21 -100 -104 -348
-147 -434 -82 -168 -178 -283 -307 -368 -132 -88 -218 -118 -551 -196 -49 -11
-115 -27 -145 -34 -72 -19 -207 -52 -243 -60 -79 -18 -39 -134 65 -187 36 -18
68 -19 764 -19 l727 0 40 43 c21 23 55 61 74 84 l35 42 8 143 c13 211 46 371
126 616 56 170 152 412 172 435 14 16 71 17 932 17 800 0 919 -2 930 -15 19
-23 37 -447 21 -503 -22 -78 -136 -174 -301 -253 -249 -119 -486 -199 -840
-283 -80 -19 -185 -43 -233 -55 -48 -12 -99 -21 -112 -21 -14 0 -34 -9 -44
-19 -16 -16 -18 -26 -11 -53 13 -47 68 -90 160 -127 l80 -31 152 16 c84 8 155
17 159 19 16 11 367 35 494 35 125 0 365 -23 387 -36 17 -10 245 -33 332 -34
230 0 358 63 386 192 18 86 5 432 -25 668 -8 63 -20 151 -25 195 -27 207 -33
273 -27 288 5 14 21 17 90 17 111 0 114 4 86 106 -24 88 -57 236 -68 304 -5
25 -15 81 -24 125 -35 181 -74 459 -87 625 -6 69 -17 310 -25 535 -8 226 -21
482 -30 570 -8 88 -20 207 -26 265 -5 58 -16 168 -24 245 -20 210 -35 348 -50
470 -8 61 -17 139 -20 175 -3 36 -12 117 -20 180 -8 63 -19 156 -25 205 -14
125 -43 360 -76 600 -9 66 -20 156 -25 200 -5 44 -13 103 -19 130 -5 28 -12
75 -15 105 -3 30 -12 96 -20 145 -28 181 -36 231 -45 290 -22 135 -79 309
-172 520 -67 152 -136 359 -157 472 -25 128 25 541 94 783 7 25 23 81 35 125
25 90 88 281 120 365 12 30 27 71 35 90 7 19 21 52 31 73 l18 37 317 0 c175 0
324 3 333 6 20 8 20 33 2 98 -28 97 -46 176 -46 196 0 15 7 20 29 20 62 0 61
-4 61 189 0 304 -50 609 -170 1039 -25 89 -123 384 -156 470 -63 163 -78 199
-130 319 -31 70 -85 184 -120 253 -79 155 -82 171 -19 131 55 -35 263 -165
377 -235 62 -38 143 -89 180 -113 71 -46 108 -55 108 -25 1 9 5 124 10 256 5
131 6 244 4 251 -7 17 -24 24 -94 40 -30 8 -127 32 -215 55 -88 23 -187 48
-220 56 -94 23 -138 64 -68 64 14 0 64 9 112 20 47 11 115 26 151 34 36 9 103
24 150 35 47 11 102 22 123 26 28 4 37 11 37 25 0 28 -200 360 -217 360 -7 0
-26 -9 -41 -19 -38 -27 -148 -97 -277 -175 -60 -37 -137 -85 -170 -106 -135
-87 -242 -150 -252 -150 -6 0 -26 19 -44 43 -73 93 -178 203 -254 264 -100 82
-197 128 -322 154 -112 23 -314 32 -418 19z m261 -129 c173 -20 301 -85 461
-233 118 -110 223 -230 223 -255 l0 -23 -554 0 c-524 0 -555 1 -577 19 -37 28
-81 48 -156 72 -130 40 -185 62 -190 76 -8 19 91 120 191 195 122 91 232 135
373 147 128 12 140 12 229 2z m1528 -106 c20 -30 36 -59 36 -64 0 -11 -70 -35
-165 -55 -38 -9 -112 -25 -163 -36 -52 -12 -96 -19 -99 -16 -9 9 34 42 127 97
47 28 112 68 145 89 33 21 65 39 71 39 6 1 28 -24 48 -54z m-272 -483 c68 -24
202 -65 323 -100 29 -8 30 -11 33 -73 2 -41 -2 -70 -10 -82 -12 -16 -18 -14
-78 24 -36 22 -126 78 -200 124 -152 95 -163 102 -155 116 9 13 28 11 87 -9z
m-439 -84 c70 -94 206 -350 287 -543 23 -55 54 -127 68 -160 32 -75 129 -350
165 -470 60 -199 148 -542 181 -710 41 -204 70 -432 60 -460 -5 -13 -60 -15
-464 -15 -408 0 -459 2 -464 16 -3 9 -6 245 -6 525 l0 509 -22 5 c-13 3 -166
5 -341 3 -269 -3 -319 -5 -327 -18 -6 -9 -10 -235 -10 -561 0 -489 -2 -547
-16 -553 -23 -9 -167 -7 -181 2 -10 6 -13 192 -13 851 0 776 1 845 16 862 10
11 22 19 28 19 22 0 181 83 244 127 100 71 152 176 152 306 0 85 -31 178 -69
208 -40 32 -121 23 -192 -21 -47 -30 -63 -34 -118 -35 l-65 0 -30 56 c-51 96
-95 89 538 89 l555 0 24 -32z m-1674 -22 c7 -8 11 -32 9 -53 l-3 -38 -64 -3
c-79 -4 -98 10 -58 41 15 12 40 32 55 44 32 26 45 28 61 9z m221 -12 c57 -38
51 -60 -20 -77 -37 -9 -52 5 -57 57 -5 42 -4 46 16 46 12 0 39 -12 61 -26z
m305 -1464 l0 -35 -143 -3 c-148 -3 -182 4 -182 36 0 38 19 43 175 40 l150 -3
0 -35z m833 12 c7 -49 -6 -52 -212 -52 -213 0 -234 5 -222 54 l6 26 213 -2
212 -3 3 -23z m-828 -191 c5 -11 10 -28 10 -38 -1 -43 -10 -45 -179 -45 -88 0
-166 4 -172 7 -13 9 -2 77 14 87 7 4 80 8 164 8 140 0 153 -2 163 -19z m828
-25 c2 -21 -1 -43 -6 -48 -10 -10 -386 -13 -403 -3 -13 9 -11 69 3 83 9 9 64
12 208 10 l195 -3 3 -39z m-827 -213 c21 -55 11 -58 -192 -58 -182 0 -184 0
-187 22 -2 12 6 31 17 42 20 20 33 21 186 21 l165 0 11 -27z m818 13 c7 -8 11
-27 9 -43 l-3 -28 -194 -3 c-200 -3 -221 1 -221 39 0 44 21 49 214 49 148 0
186 -3 195 -14z m-851 -198 c19 -19 15 -66 -7 -78 -21 -11 -308 -14 -335 -4
-19 7 -22 64 -4 82 8 8 61 12 173 12 112 0 165 -4 173 -12z m846 6 c20 -8 21
-67 2 -83 -10 -9 -68 -11 -201 -9 -152 2 -187 6 -195 18 -15 24 -12 58 8 69
18 11 359 15 386 5z m-850 -237 c12 -9 17 -23 14 -42 l-3 -30 -204 -3 c-120
-1 -209 2 -214 7 -15 15 2 61 26 71 37 15 360 12 381 -3z m855 -1 c7 -8 11
-27 9 -43 l-3 -28 -194 -3 c-200 -3 -221 1 -221 39 0 41 34 49 221 49 141 0
179 -3 188 -14z m806 -7642 c9 -31 14 -63 11 -70 -4 -11 -77 -14 -403 -16
l-398 -3 -3 -46 c-5 -84 -27 -80 440 -79 354 1 413 0 426 -13 20 -21 30 -117
11 -117 -8 0 -653 0 -1434 0 -1325 0 -1421 1 -1432 17 -17 22 -16 74 0 97 12
17 29 18 175 17 197 -2 204 0 200 72 l-3 52 -140 2 c-193 4 -185 1 -185 72 0
32 3 61 7 64 3 4 615 7 1359 7 l1353 0 16 -56z"/>
<path d="M3957 1903 c-13 -12 -7 -100 7 -112 10 -8 136 -11 465 -9 503 3 471
-2 471 74 0 29 -5 44 -16 48 -21 8 -919 8 -927 -1z"/>
<path d="M655 11594 c-11 -3 -49 -12 -85 -20 -76 -18 -172 -49 -217 -70 -17
-7 -35 -14 -40 -14 -10 0 -207 -81 -240 -99 -13 -6 -23 -15 -23 -20 0 -4 37
-33 82 -63 284 -189 489 -460 583 -768 39 -130 46 -160 68 -284 20 -119 21
-152 24 -1684 3 -1151 1 -1567 -7 -1577 -9 -11 -34 -13 -109 -8 -100 6 -151 0
-151 -17 0 -14 41 -33 153 -70 100 -34 130 -57 107 -85 -9 -10 -27 -9 -102 11
-51 13 -102 24 -113 24 -37 0 -87 -70 -100 -142 -16 -86 48 -134 263 -199 24
-7 47 -20 53 -30 5 -11 9 -652 9 -1649 0 -1432 -2 -1635 -15 -1660 -8 -16 -57
-63 -109 -104 -88 -70 -138 -123 -181 -191 -14 -21 -20 -54 -23 -115 -4 -91 2
-134 42 -275 16 -55 26 -116 26 -156 0 -60 -4 -72 -35 -118 -47 -68 -58 -97
-45 -122 16 -29 36 -23 86 23 56 51 102 120 144 213 44 97 49 157 20 242 -31
93 -31 187 0 239 56 94 117 134 205 134 58 0 103 -17 143 -54 47 -42 52 -74
52 -300 0 -241 8 -302 47 -383 52 -107 171 -153 181 -69 4 28 -24 80 -58 111
-17 15 -20 30 -20 95 0 61 7 100 35 184 76 233 31 371 -190 581 l-105 100 0
1651 c0 1337 2 1654 13 1668 18 25 117 46 222 46 92 0 302 16 343 25 12 3 22
12 22 20 0 7 -32 48 -71 90 -39 42 -77 92 -85 111 -8 19 -18 34 -22 35 -4 0
-43 2 -87 4 -150 7 -301 51 -324 94 -14 26 -15 3552 -1 3659 31 235 171 437
452 648 37 28 88 62 113 75 82 43 54 70 -155 151 -220 85 -338 108 -565 113
-104 2 -199 2 -210 -1z"/>
<path d="M5754 9115 c-4 -8 -2 -21 3 -28 6 -6 23 -47 38 -90 21 -58 33 -79 49
-82 12 -3 154 -7 316 -8 273 -2 295 -1 298 15 3 17 -10 51 -61 158 l-22 45
-308 3 c-268 2 -308 0 -313 -13z m466 -91 c36 -25 65 -50 65 -57 0 -16 -277
-17 -282 -1 -5 16 105 104 131 104 11 0 50 -21 86 -46z"/>
<path d="M2773 9082 c-17 -11 -5 -178 14 -197 20 -21 557 -19 578 2 22 21 21
166 -1 187 -13 14 -54 16 -297 16 -155 0 -287 -4 -294 -8z m346 -65 c20 -17
49 -41 65 -53 20 -14 27 -26 23 -38 -5 -14 -25 -16 -135 -16 -169 0 -177 7
-85 83 38 31 74 57 82 57 7 0 30 -15 50 -33z"/>
<path d="M5853 8804 c-3 -8 1 -29 10 -47 96 -203 222 -690 268 -1042 5 -38 15
-113 23 -165 8 -52 21 -144 30 -205 75 -529 88 -604 101 -615 20 -17 257 -25
309 -10 57 16 100 58 121 118 21 63 19 255 -5 627 -25 381 -50 616 -95 885 -8
47 -17 103 -20 125 -9 61 -43 195 -65 254 -35 97 -10 91 -362 91 -270 0 -309
-2 -315 -16z"/>
<path d="M2783 8803 c-18 -7 -17 -295 2 -603 13 -195 14 -273 5 -380 -14 -163
-27 -262 -42 -313 -17 -57 -86 -112 -223 -177 -196 -94 -232 -109 -555 -235
-224 -87 -280 -110 -358 -147 -50 -24 -82 -45 -80 -53 5 -19 225 -225 242
-225 39 0 326 87 411 124 17 7 73 30 125 50 52 21 109 43 125 51 17 8 55 25
85 38 214 96 269 123 405 201 262 150 414 276 460 381 24 53 25 64 24 248 0
106 -4 244 -9 307 -5 63 -12 250 -16 415 -5 256 -9 302 -22 313 -12 9 -85 12
-291 11 -152 0 -282 -3 -288 -6z"/>
<path d="M6279 6639 c-12 -23 -9 -152 4 -165 11 -11 391 -4 402 7 15 15 10
160 -7 170 -7 5 -97 9 -200 9 -181 0 -188 -1 -199 -21z"/>
<path d="M6308 6385 c-73 -16 -119 -51 -152 -117 -25 -49 -26 -60 -27 -212 0
-148 -6 -214 -25 -288 -4 -20 -3 -28 7 -28 27 0 51 66 74 205 23 140 43 201
70 212 8 3 33 -9 55 -27 30 -24 40 -39 40 -60 0 -16 -29 -117 -65 -225 -36
-109 -65 -206 -65 -216 0 -38 101 -60 180 -39 77 20 165 126 206 248 63 185
104 486 74 543 -10 18 -22 19 -163 18 -84 -1 -178 -7 -209 -14z"/>
<path d="M6596 5613 c-57 -154 -111 -259 -149 -287 l-28 -21 -116 118 c-63 64
-119 117 -124 117 -28 0 12 -84 86 -181 77 -101 68 -119 -54 -119 -67 0 -71
-1 -77 -24 -3 -14 -3 -30 1 -35 4 -7 51 -11 120 -11 76 0 116 -4 121 -12 9
-14 6 -205 -6 -359 -5 -76 -5 -118 2 -126 16 -20 145 -17 156 3 8 15 3 75 -18
220 -23 150 -29 248 -18 261 7 9 38 13 98 13 97 0 121 11 101 49 -10 17 -23
21 -93 23 -47 2 -83 8 -85 14 -2 6 15 34 38 63 69 86 116 187 124 268 7 69 -6
153 -24 153 -4 0 -29 -57 -55 -127z"/>
</g>
</svg>
