<?xml version="1.0" standalone="no"?>
<!DOCTYPE svg PUBLIC "-//W3C//DTD SVG 20010904//EN"
 "http://www.w3.org/TR/2001/REC-SVG-20010904/DTD/svg10.dtd">
<svg version="1.0" xmlns="http://www.w3.org/2000/svg"
 width="996.000000pt" height="1280.000000pt" viewBox="0 0 996.000000 1280.000000"
 preserveAspectRatio="xMidYMid meet">
<metadata>
Created by potrace 1.15, written by Peter Selinger 2001-2017
</metadata>
<g transform="translate(0.000000,1280.000000) scale(0.100000,-0.100000)"
fill="#000000" stroke="none">
<path d="M3666 12785 c-34 -9 -147 -63 -275 -132 -444 -239 -544 -308 -862
-600 -144 -131 -159 -153 -159 -228 0 -65 21 -78 143 -86 56 -3 109 -9 117
-13 20 -8 64 -81 80 -129 6 -21 11 -79 9 -135 -2 -88 0 -102 25 -149 32 -63
50 -151 41 -207 -5 -29 -20 -55 -50 -87 -24 -25 -61 -85 -84 -132 -41 -85 -41
-86 -98 -107 -104 -39 -242 -111 -326 -171 -49 -35 -112 -69 -157 -86 -41 -14
-99 -35 -127 -45 -29 -11 -71 -37 -93 -58 -22 -21 -64 -52 -93 -69 -29 -16
-62 -40 -74 -53 -12 -13 -42 -85 -68 -168 -26 -80 -62 -190 -82 -245 -19 -55
-41 -131 -48 -170 -7 -38 -36 -130 -65 -204 -65 -168 -106 -325 -120 -456 -6
-55 -18 -120 -27 -145 -48 -141 -47 -133 -48 -435 -1 -257 -4 -301 -23 -385
-31 -139 -33 -407 -3 -540 23 -106 27 -236 10 -370 -14 -112 -21 -1114 -8
-1205 5 -38 16 -91 25 -116 14 -43 18 -48 59 -58 52 -13 54 -24 30 -126 -8
-33 -15 -74 -15 -92 0 -31 -2 -32 -68 -47 -233 -52 -752 -146 -807 -146 -25 0
-25 0 -25 99 0 94 -1 99 -20 94 -15 -4 -20 -14 -20 -42 0 -93 -13 -171 -29
-176 -9 -3 -64 -12 -123 -20 -162 -23 -208 -46 -208 -108 0 -31 30 -139 74
-266 36 -102 68 -260 82 -396 4 -38 12 -86 19 -105 11 -32 15 -35 46 -32 18 2
42 10 53 18 27 19 62 18 70 -2 3 -9 6 -36 6 -60 0 -40 2 -44 25 -44 21 0 25 5
25 30 0 26 3 30 29 30 16 0 73 -9 127 -21 121 -25 196 -27 484 -11 268 14 584
46 794 79 l39 6 -7 -59 c-4 -32 -13 -115 -21 -184 -8 -69 -15 -153 -15 -188 0
-67 -7 -86 -51 -142 -40 -51 -98 -294 -79 -330 15 -28 12 -81 -6 -115 -13 -22
-17 -62 -19 -155 -2 -69 -10 -176 -20 -239 -14 -96 -14 -125 -4 -185 16 -95
14 -316 -5 -505 -9 -85 -16 -179 -16 -210 0 -31 -5 -72 -11 -91 -5 -19 -12
-93 -14 -165 -4 -142 -45 -472 -65 -520 -7 -16 -16 -102 -20 -190 -8 -181 -19
-219 -95 -345 -24 -41 -47 -87 -50 -102 -4 -15 -13 -32 -21 -38 -7 -7 -19 -31
-25 -53 -12 -46 -84 -145 -132 -181 -18 -13 -49 -27 -70 -31 -20 -4 -48 -16
-61 -26 -30 -23 -48 -100 -40 -163 5 -30 1 -58 -11 -91 -16 -42 -17 -48 -3
-62 26 -25 192 -62 360 -79 158 -17 158 -17 226 6 141 47 262 136 262 193 0
12 7 33 16 45 12 18 25 22 70 22 50 0 59 4 96 39 41 38 42 40 59 152 23 145
24 279 3 348 -12 42 -13 63 -5 102 6 28 11 77 11 110 0 34 9 96 20 138 11 43
36 156 55 252 20 96 49 213 66 260 16 48 29 98 29 111 0 14 7 45 16 69 8 24
20 71 25 104 6 33 23 83 38 110 15 28 36 75 46 105 9 30 50 132 90 225 40 94
81 195 90 225 11 33 34 72 56 97 22 24 39 53 39 65 1 83 34 272 65 378 32 112
36 136 34 225 -3 139 22 274 72 392 39 91 41 102 49 245 12 192 16 212 55 278
18 30 58 120 89 199 74 188 100 238 128 246 13 4 92 34 177 67 l155 60 28 -34
c45 -54 103 -175 141 -293 95 -300 126 -403 132 -437 3 -20 28 -70 56 -113 58
-88 67 -123 45 -184 -21 -59 -20 -72 10 -116 24 -36 25 -42 14 -76 -11 -33
-10 -42 15 -95 20 -46 32 -100 51 -239 41 -301 51 -344 100 -396 43 -44 44
-48 95 -299 6 -30 26 -102 45 -160 18 -58 44 -152 58 -210 13 -58 33 -130 44
-160 11 -30 26 -89 32 -130 6 -41 20 -106 31 -145 22 -84 58 -328 53 -370 -15
-142 -30 -225 -44 -255 -26 -52 -43 -136 -36 -174 4 -19 2 -45 -5 -58 -8 -19
-7 -33 4 -59 13 -31 13 -38 0 -55 -21 -28 -11 -96 28 -178 29 -63 37 -71 84
-92 114 -53 355 -97 436 -80 67 14 105 0 240 -87 154 -100 206 -119 345 -125
125 -5 190 8 439 90 l130 43 3 42 c3 39 1 42 -32 53 -31 10 -36 16 -46 63 -6
28 -17 61 -25 73 -25 39 -240 124 -313 124 -12 0 -25 7 -28 15 -7 16 -112 91
-150 105 -13 5 -24 13 -24 17 0 12 -77 86 -142 138 -53 42 -59 51 -82 125 -14
44 -37 125 -51 181 -14 56 -35 119 -45 140 -29 56 -34 273 -21 918 l11 553 25
30 c20 24 25 40 25 88 0 33 5 93 11 135 9 57 9 86 -1 122 -6 26 -14 113 -17
193 -4 121 -9 155 -29 207 -13 34 -24 75 -24 93 0 17 -11 52 -24 78 -34 67
-46 137 -46 260 0 83 -5 119 -20 159 -11 29 -27 108 -36 175 -8 68 -27 184
-40 258 -80 436 -94 513 -94 528 0 12 25 30 78 56 167 82 494 284 558 345 14
13 24 38 29 73 9 65 20 88 44 88 13 0 22 -14 32 -52 17 -62 47 -81 101 -60 28
10 35 9 53 -8 30 -29 75 -34 120 -16 34 15 40 15 55 1 24 -22 98 -19 139 6
l34 20 43 -23 44 -23 38 20 c44 23 79 86 88 156 l6 47 112 6 c61 3 230 10 376
16 146 6 293 13 328 16 l62 6 0 -41 c0 -31 7 -48 29 -73 24 -27 32 -31 42 -20
11 10 11 24 1 69 -6 31 -11 58 -9 59 6 6 572 34 690 34 l137 0 0 -27 c0 -50
21 -106 51 -136 25 -25 35 -29 65 -24 45 7 64 23 64 52 0 38 -22 47 -58 24
l-33 -19 -14 35 c-8 19 -15 52 -15 74 l0 39 73 6 c39 3 110 8 157 11 47 3 207
14 355 25 149 11 360 24 470 30 110 6 260 17 334 26 124 14 316 56 386 84 28
11 29 13 9 20 -92 36 -503 46 -854 22 -189 -13 -921 -44 -926 -39 -2 2 -7 36
-10 75 -8 83 -3 81 -113 52 -41 -11 -80 -20 -87 -20 -7 0 -16 16 -20 35 l-6
35 -60 0 c-54 0 -62 -3 -85 -30 -43 -51 -107 -63 -348 -65 -145 -1 -219 -5
-240 -14 -18 -8 -111 -17 -225 -23 -107 -5 -291 -15 -408 -22 l-214 -12 -29
38 c-17 20 -40 40 -52 44 -48 15 -292 127 -298 136 -4 6 -9 30 -13 55 -3 24
-20 74 -37 111 -37 81 -145 340 -182 437 -147 389 -170 459 -188 575 -9 63
-19 85 -62 150 -61 90 -92 170 -102 265 -5 46 -17 90 -37 128 -23 46 -30 77
-35 145 -9 134 -144 647 -214 809 -11 26 -24 77 -28 114 -7 51 -24 99 -73 201
-49 102 -72 166 -98 268 -36 152 -44 168 -242 506 -94 162 -136 224 -155 233
-15 7 -44 26 -65 42 -30 24 -62 35 -155 55 -256 53 -341 78 -376 111 -17 17
-57 47 -88 66 -37 24 -59 45 -63 62 -13 51 3 55 123 26 96 -23 127 -17 160 30
21 31 23 42 18 118 -4 68 -2 90 11 110 10 14 17 43 18 66 2 55 23 167 35 181
6 7 27 15 49 19 21 4 46 15 56 26 23 25 16 44 -72 208 -59 109 -65 125 -54
146 6 12 10 44 8 71 l-3 49 65 16 c96 24 102 28 87 49 -6 9 -35 34 -62 55 -75
56 -162 153 -193 215 -25 50 -27 67 -31 190 -2 74 3 193 10 263 12 123 12 129
-8 155 -11 15 -35 36 -53 46 -43 26 -164 31 -244 11z m922 -4750 c6 -22 13
-65 17 -95 4 -30 17 -95 30 -145 13 -49 29 -117 35 -150 8 -39 41 -113 96
-218 46 -88 91 -186 99 -219 9 -32 39 -111 67 -176 27 -64 70 -166 93 -227 24
-60 55 -130 69 -155 13 -25 58 -124 99 -220 107 -251 95 -230 136 -231 58 -1
126 -22 126 -39 0 -12 -26 -16 -139 -23 -76 -4 -143 -4 -147 0 -5 5 3 26 18
47 l27 38 -34 101 c-19 56 -78 191 -132 299 -53 109 -131 275 -174 370 -52
117 -87 183 -108 203 -40 38 -73 134 -57 164 19 34 12 67 -23 112 -18 24 -40
69 -49 99 -9 30 -35 98 -58 150 l-41 95 2 125 c0 69 4 135 7 148 5 22 6 22 18
5 7 -10 18 -36 23 -58z m-2488 -564 c18 -34 -86 -297 -114 -288 -13 5 -12 13
3 122 17 119 21 132 42 160 24 30 54 33 69 6z m-80 -1561 c12 -7 15 -28 13
-97 -1 -48 -5 -99 -8 -112 l-6 -25 -20 30 c-10 16 -31 65 -45 108 -26 76 -26
80 -8 93 21 15 53 17 74 3z m3380 -69 c0 -19 -44 -62 -88 -87 -26 -15 -74 -44
-107 -65 -105 -66 -379 -210 -391 -205 -16 6 -41 120 -50 224 -5 66 -4 82 7
83 8 0 133 13 279 29 295 31 350 34 350 21z m50 -97 c0 -43 -46 -78 -289 -220
-157 -93 -321 -162 -321 -135 0 5 12 19 28 31 44 34 556 339 570 340 6 0 12
-7 12 -16z m-2082 -511 c17 -31 82 -251 82 -277 0 -13 -258 -101 -268 -91 -2
2 16 48 41 102 46 100 67 176 67 239 0 45 17 76 38 72 9 -2 27 -22 40 -45z
m-1896 -249 c40 -21 94 -20 117 0 16 15 21 15 56 0 32 -13 46 -14 78 -4 30 9
46 9 68 0 21 -9 36 -9 64 0 20 7 39 9 43 6 3 -4 1 -37 -6 -74 -31 -169 -43
-270 -39 -309 2 -24 3 -43 1 -43 -1 0 -34 -7 -72 -15 -140 -29 -344 -35 -822
-25 -253 6 -471 15 -485 20 -30 11 -26 25 9 34 35 9 745 325 851 379 50 25 94
46 98 46 4 1 22 -6 39 -15z m-487 -530 c351 -8 386 -19 95 -30 -126 -5 -201
-3 -319 11 -85 9 -164 21 -175 26 -15 7 -8 8 24 4 25 -2 194 -7 375 -11z"/>
</g>
</svg>
