<?xml version="1.0" standalone="no"?>
<!DOCTYPE svg PUBLIC "-//W3C//DTD SVG 20010904//EN"
 "http://www.w3.org/TR/2001/REC-SVG-20010904/DTD/svg10.dtd">
<svg version="1.0" xmlns="http://www.w3.org/2000/svg"
 width="640.000000pt" height="1280.000000pt" viewBox="0 0 640.000000 1280.000000"
 preserveAspectRatio="xMidYMid meet">
<metadata>
Created by potrace 1.15, written by Peter Selinger 2001-2017
</metadata>
<g transform="translate(0.000000,1280.000000) scale(0.100000,-0.100000)"
fill="#000000" stroke="none">
<path d="M2655 12790 c-272 -26 -322 -33 -393 -55 -124 -40 -234 -108 -338
-210 -155 -153 -239 -323 -251 -505 l-6 -88 -41 -19 c-126 -56 -269 -183 -317
-280 -36 -72 -34 -187 4 -265 99 -201 428 -368 876 -444 398 -68 846 -53 1222
41 265 65 463 161 586 281 95 93 128 160 128 260 -1 130 -79 241 -244 348
l-91 59 0 51 c-1 120 -53 310 -116 423 -80 144 -136 190 -379 308 -178 87
-216 96 -395 100 -85 2 -195 0 -245 -5z"/>
<path d="M5544 11091 c-428 -478 -782 -870 -785 -870 -4 -1 -37 24 -75 54 -38
30 -72 55 -75 55 -4 0 -90 -103 -190 -229 l-184 -228 -102 -49 -102 -49 -987
-1140 c-542 -627 -1001 -1155 -1019 -1174 l-33 -33 -56 42 -57 43 -23 -24
c-13 -13 -196 -231 -406 -484 -211 -253 -390 -468 -398 -477 -13 -15 -13 -35
-2 -147 l13 -130 -483 -563 c-266 -310 -491 -572 -502 -584 -18 -20 -15 -24
251 -342 190 -227 272 -318 278 -309 6 7 236 404 513 882 277 479 507 874 511
879 5 5 63 -3 139 -19 80 -18 134 -25 139 -19 5 5 63 116 131 246 l121 238
-75 104 -75 105 1106 1383 c608 761 1108 1385 1110 1387 2 3 44 -15 93 -39 56
-27 93 -40 99 -35 5 6 82 109 171 230 89 121 164 221 165 223 2 2 33 -10 70
-27 l67 -30 59 30 60 30 -41 50 c-23 27 -40 55 -37 62 3 6 81 95 173 197 446
492 863 949 991 1087 142 152 142 152 167 235 27 91 70 297 63 304 -2 2 -355
-387 -783 -865z"/>
<path d="M1960 10850 c0 -91 31 -207 85 -316 82 -167 237 -305 414 -368 82
-29 93 -31 236 -31 138 1 156 3 223 27 226 83 389 250 467 477 23 69 45 191
45 253 0 28 -2 30 -27 24 -311 -68 -525 -91 -798 -83 -207 6 -383 26 -542 61
l-103 22 0 -66z"/>
<path d="M1800 9989 c-184 -114 -226 -145 -232 -167 -4 -15 -14 -169 -23 -342
-9 -173 -27 -506 -40 -740 -14 -234 -40 -697 -60 -1029 -19 -333 -33 -606 -32
-607 3 -3 277 328 316 382 28 40 115 94 151 94 9 0 34 -9 55 -20 39 -20 41
-20 55 -3 8 10 110 126 225 258 116 132 458 526 760 875 302 349 598 690 657
758 l108 123 -6 52 c-3 29 -11 102 -18 162 l-11 110 -249 106 -248 107 -79
-53 c-281 -188 -614 -180 -894 21 -74 53 -78 54 -143 54 l-67 -1 -225 -140z"/>
<path d="M3874 9853 c2 -10 8 -38 11 -62 l7 -45 44 48 c24 25 44 48 44 50 0 4
-84 26 -100 26 -6 0 -9 -8 -6 -17z"/>
<path d="M1170 9734 c-123 -52 -228 -98 -232 -102 -8 -8 -30 -135 -203 -1167
-69 -412 -130 -773 -136 -802 -10 -52 -10 -52 166 -550 96 -274 178 -504 180
-512 3 -8 92 138 201 331 l195 346 -132 254 -131 253 102 650 c56 358 128 816
160 1020 32 203 58 370 57 371 -1 1 -103 -41 -227 -92z"/>
<path d="M4119 9363 c-62 -76 -119 -146 -127 -155 -12 -14 -8 -54 32 -305 140
-893 189 -1214 183 -1219 -3 -3 -198 67 -433 155 -322 122 -430 158 -435 149
-4 -7 -95 -161 -202 -343 -107 -181 -194 -331 -193 -332 2 -2 279 -53 617
-114 338 -61 747 -134 909 -164 162 -29 296 -52 298 -51 2 3 -155 1220 -283
2195 -19 145 -35 269 -35 276 0 8 -21 12 -73 11 -54 -1 -80 4 -100 17 -14 9
-31 17 -36 17 -5 0 -60 -62 -122 -137z"/>
<path d="M3269 8304 c-294 -368 -623 -779 -731 -914 -107 -135 -243 -301 -302
-370 -59 -69 -112 -135 -117 -148 -13 -32 8 -75 69 -147 29 -33 52 -66 52 -72
0 -20 -269 -546 -291 -568 -27 -28 -141 -26 -223 4 -33 12 -60 20 -61 19 -1
-2 -15 -25 -30 -51 l-28 -48 334 6 c184 3 748 10 1253 15 505 5 921 12 924 15
7 6 -99 978 -107 986 -3 4 -274 55 -601 113 -327 59 -602 108 -610 109 -8 2
-14 9 -12 16 2 12 478 828 491 843 4 4 148 -46 321 -111 210 -79 316 -115 318
-106 2 9 -90 894 -111 1059 -1 13 -182 -206 -538 -650z"/>
<path d="M3355 5719 c-242 -4 -775 -13 -1185 -19 -410 -7 -747 -13 -750 -15
-5 -3 13 -267 130 -1925 28 -399 56 -806 62 -905 12 -194 17 -85 -82 -1740
-17 -269 -30 -497 -30 -507 0 -9 -141 -148 -314 -309 -173 -162 -314 -295
-312 -296 1 -2 254 10 562 27 307 16 667 34 799 41 132 6 243 14 247 18 3 3
-3 94 -14 201 -19 188 -20 219 -9 870 7 371 16 866 22 1100 l9 425 65 370 c35
204 114 653 175 999 60 345 110 633 111 640 2 35 31 -110 154 -769 205 -1098
209 -1120 274 -1400 61 -264 346 -1493 421 -1818 23 -97 38 -183 34 -190 -4
-6 -75 -110 -157 -230 -82 -120 -147 -220 -145 -221 1 -1 89 3 193 10 105 7
377 25 605 39 228 14 433 29 456 33 l41 7 -178 230 c-144 184 -179 236 -179
261 0 17 -11 215 -25 440 -14 225 -43 710 -65 1079 -22 369 -49 816 -60 995
-18 291 -20 441 -20 1448 l0 1122 -197 -2 c-109 -1 -396 -5 -638 -9z"/>
</g>
</svg>
