<?xml version="1.0" standalone="no"?>
<!DOCTYPE svg PUBLIC "-//W3C//DTD SVG 20010904//EN"
 "http://www.w3.org/TR/2001/REC-SVG-20010904/DTD/svg10.dtd">
<svg version="1.0" xmlns="http://www.w3.org/2000/svg"
 width="678.000000pt" height="1280.000000pt" viewBox="0 0 678.000000 1280.000000"
 preserveAspectRatio="xMidYMid meet">
<metadata>
Created by potrace 1.15, written by Peter Selinger 2001-2017
</metadata>
<g transform="translate(0.000000,1280.000000) scale(0.100000,-0.100000)"
fill="#000000" stroke="none">
<path d="M3963 12771 l-163 -26 -71 -70 c-39 -38 -190 -205 -337 -370 -146
-165 -276 -312 -289 -326 l-24 -26 39 -25 c26 -18 47 -24 65 -21 18 4 36 -3
61 -22 22 -17 42 -24 54 -21 15 5 19 1 20 -21 3 -73 33 -190 60 -228 16 -22
36 -64 45 -94 11 -34 35 -74 67 -111 45 -51 51 -66 70 -151 18 -82 20 -104 11
-179 -6 -47 -11 -91 -11 -97 0 -9 18 -13 58 -13 54 0 61 -3 95 -38 26 -26 37
-47 37 -67 0 -54 14 -59 43 -16 48 72 88 110 128 123 35 10 45 9 88 -12 27
-12 55 -33 62 -46 11 -22 10 -27 -14 -52 -14 -15 -67 -49 -117 -76 -49 -27
-90 -52 -90 -55 0 -5 87 -58 113 -70 5 -2 23 11 40 27 l32 31 85 -19 c56 -13
123 -20 198 -20 l113 0 16 38 16 37 9 -39 c10 -47 24 -32 -160 -179 -130 -103
-148 -121 -186 -188 -23 -41 -79 -173 -126 -294 l-83 -220 -60 -49 c-33 -28
-75 -74 -95 -104 -34 -54 -34 -55 -27 -136 4 -52 3 -77 -3 -71 -5 6 -29 32
-52 59 -36 42 -63 59 -183 116 -78 37 -178 89 -222 117 -44 27 -170 102 -280
165 -196 114 -203 117 -380 168 l-180 53 -125 -42 -126 -41 -119 -111 c-66
-62 -186 -177 -267 -258 l-148 -146 0 -68 c0 -63 5 -79 66 -210 36 -78 68
-147 71 -154 3 -8 -17 -6 -64 7 -80 23 -188 26 -458 9 l-180 -10 -186 -86
-186 -86 -85 -171 -86 -171 60 -119 60 -119 -39 7 c-21 3 -70 11 -109 18 l-70
11 -116 -74 c-113 -72 -119 -77 -222 -211 l-106 -138 31 -117 31 -118 117
-139 116 -138 169 -87 170 -86 49 -143 50 -143 107 -96 108 -96 209 -63 210
-63 165 -113 164 -113 157 -197 156 -197 64 -243 c60 -227 69 -253 142 -398
116 -231 135 -255 252 -325 54 -32 131 -80 171 -108 41 -27 75 -47 76 -45 48
66 46 55 46 267 l0 201 52 73 c29 39 90 119 136 177 46 58 102 140 123 183 32
63 43 77 58 72 10 -3 74 -29 142 -59 l124 -53 386 -595 386 -596 73 -323 73
-324 91 -115 c51 -63 164 -214 251 -335 143 -196 187 -249 415 -486 l255 -267
321 -498 321 -499 52 -238 52 -238 -71 -572 c-39 -315 -72 -580 -73 -590 -2
-15 28 -30 168 -83 l170 -64 123 47 123 48 135 221 134 222 -26 118 -25 119
22 127 c21 120 21 131 7 230 -11 73 -13 121 -7 163 5 33 6 112 3 175 -6 106
-9 120 -42 188 -35 69 -41 75 -108 112 l-70 39 -48 163 c-27 90 -72 251 -101
358 -47 176 -67 230 -205 545 l-152 350 -222 216 c-134 131 -249 253 -292 310
-67 89 -74 104 -132 274 -70 207 -67 183 -166 1115 -31 283 -82 766 -115 1073
l-60 558 64 292 c134 609 107 528 341 1009 l206 423 58 255 c32 140 85 359
118 485 33 127 63 253 66 280 3 28 11 226 17 440 l10 390 -51 275 c-34 181
-57 282 -68 295 -9 11 -70 77 -136 147 l-118 128 -143 0 -144 0 -117 187
c-110 176 -132 216 -148 270 -6 17 -2 22 21 27 15 3 52 2 81 -3 l53 -8 367
241 c202 133 373 245 380 250 7 4 4 -13 -9 -46 -67 -167 -90 -231 -86 -241 2
-6 37 31 77 82 l75 92 22 -82 c12 -45 25 -84 28 -87 13 -13 13 8 0 58 -19 71
-19 70 13 58 21 -8 40 -7 78 4 45 13 56 13 115 -3 77 -21 269 -52 277 -45 3 3
0 39 -7 79 -7 40 -9 92 -5 115 6 38 3 44 -40 95 -25 30 -46 58 -46 63 0 5 -14
59 -31 119 l-30 110 -79 43 -79 43 -124 -113 c-117 -107 -145 -126 -531 -360
-224 -137 -410 -248 -415 -248 -4 0 -23 35 -41 78 -26 60 -79 134 -231 331
l-198 255 -238 123 c-131 67 -245 122 -253 122 -8 -1 -88 -13 -177 -28z m-572
-4480 l-95 -188 -217 -87 c-200 -81 -229 -89 -372 -113 l-155 -26 -294 78
c-272 72 -303 82 -432 147 -76 38 -137 71 -135 72 2 2 144 60 314 130 l310
125 69 -24 68 -25 52 25 c49 24 66 26 476 49 234 13 443 24 465 25 l41 1 -95
-189z"/>
</g>
</svg>
