<?xml version="1.0" standalone="no"?>
<!DOCTYPE svg PUBLIC "-//W3C//DTD SVG 20010904//EN"
 "http://www.w3.org/TR/2001/REC-SVG-20010904/DTD/svg10.dtd">
<svg version="1.0" xmlns="http://www.w3.org/2000/svg"
 width="750.000000pt" height="1280.000000pt" viewBox="0 0 750.000000 1280.000000"
 preserveAspectRatio="xMidYMid meet">
<metadata>
Created by potrace 1.15, written by Peter Selinger 2001-2017
</metadata>
<g transform="translate(0.000000,1280.000000) scale(0.100000,-0.100000)"
fill="#000000" stroke="none">
<path d="M1086 12792 c-3 -6 -11 -95 -16 -199 -5 -103 -14 -226 -20 -273 -40
-320 -74 -555 -97 -683 l-26 -147 31 -40 c26 -32 32 -48 32 -88 0 -27 9 -75
20 -106 17 -51 20 -92 24 -359 2 -166 9 -390 15 -497 5 -107 15 -305 21 -440
6 -135 15 -337 20 -450 15 -315 29 -622 40 -880 6 -129 15 -323 20 -430 5
-107 13 -284 16 -392 l7 -197 -45 -44 c-29 -27 -60 -74 -84 -123 -39 -84 -49
-95 -71 -87 -11 4 -13 -40 -12 -248 0 -140 4 -275 8 -300 4 -26 27 -82 52
-124 45 -80 75 -104 147 -120 40 -8 44 -21 40 -150 l-3 -100 -50 -27 c-68 -37
-90 -68 -125 -176 l-31 -94 36 -39 c41 -45 42 -56 15 -134 -25 -74 -25 -89 3
-126 18 -26 22 -45 24 -117 1 -48 2 -90 2 -94 1 -4 14 -14 31 -23 18 -9 40
-35 54 -63 14 -27 38 -55 56 -66 43 -25 63 -75 57 -145 -2 -31 13 -254 34
-496 26 -302 43 -579 54 -885 9 -245 20 -535 25 -645 5 -110 12 -279 16 -375
l7 -175 -24 -22 c-13 -12 -76 -45 -139 -73 -402 -181 -654 -352 -727 -494 -13
-27 -44 -69 -67 -95 -103 -111 -165 -217 -186 -316 -7 -35 -22 -64 -45 -89
-30 -33 -75 -127 -75 -157 0 -6 -22 -58 -50 -117 -54 -118 -74 -190 -89 -334
-14 -126 -14 -395 0 -495 12 -91 57 -204 99 -253 43 -51 53 -30 43 90 -13 163
-7 306 16 395 29 108 131 343 183 419 117 171 271 337 387 416 84 57 239 128
304 140 29 6 102 28 162 50 61 22 138 46 172 54 58 13 65 13 84 -3 20 -16 22
-31 30 -217 10 -222 41 -675 64 -919 8 -88 15 -227 15 -310 0 -82 4 -155 8
-162 15 -24 66 -33 178 -33 63 0 114 2 114 4 0 3 -9 20 -19 38 -17 30 -19 64
-25 333 -15 701 -25 970 -40 1125 -9 91 -19 172 -21 181 -8 26 15 37 110 54
275 48 737 76 962 58 119 -9 140 -14 206 -46 73 -34 74 -36 81 -78 3 -24 9
-166 13 -314 5 -234 4 -281 -11 -347 -9 -41 -25 -82 -34 -91 -10 -8 -47 -17
-87 -20 -87 -7 -176 -39 -224 -82 -61 -55 -273 -201 -340 -235 -80 -40 -114
-38 -225 13 l-78 37 -30 -32 c-36 -39 -60 -84 -84 -161 -16 -51 -17 -67 -6
-138 7 -52 19 -90 32 -107 19 -24 152 -133 157 -128 1 1 -7 30 -17 65 -11 34
-20 89 -20 120 0 48 4 63 25 85 29 31 58 33 85 6 20 -20 25 -35 34 -103 3 -21
14 -53 26 -72 24 -39 127 -131 136 -122 4 3 9 45 13 92 6 80 16 104 42 105 10
0 19 -40 19 -81 0 -56 36 -99 119 -142 57 -29 76 -35 87 -26 18 15 34 77 43
159 l6 65 110 -1 c69 -1 145 -9 205 -22 52 -12 138 -30 190 -41 61 -14 151
-23 250 -26 84 -3 159 -10 165 -15 6 -5 21 -31 34 -57 16 -36 37 -58 78 -86
52 -34 103 -49 103 -29 0 4 -11 23 -24 41 -49 67 -39 133 26 167 30 15 32 15
45 -2 7 -10 13 -35 13 -56 0 -48 50 -106 123 -142 44 -23 53 -24 71 -12 17 11
22 27 26 89 6 84 25 121 62 115 17 -2 24 -16 38 -73 9 -38 24 -85 33 -102 17
-31 80 -73 111 -73 8 0 25 28 41 70 17 45 38 80 60 99 30 26 44 30 120 36 48
4 131 5 185 3 88 -4 106 -9 173 -42 63 -31 92 -38 198 -51 68 -8 149 -15 180
-15 53 0 59 2 90 37 43 50 83 140 104 238 10 44 33 110 53 148 53 103 123 150
287 192 118 31 270 97 367 160 45 30 131 107 228 204 144 145 156 161 173 216
11 33 35 94 54 135 48 102 62 143 79 225 22 112 36 560 25 812 -12 268 -25
361 -61 433 -15 30 -40 90 -55 133 -31 86 -40 102 -206 349 -64 95 -119 182
-123 193 -3 11 -38 56 -76 100 -111 125 -147 175 -199 276 -26 52 -80 154
-120 227 -74 139 -82 166 -55 176 22 8 90 -11 139 -39 55 -32 103 -44 221 -55
75 -8 119 -18 165 -39 82 -36 155 -53 241 -56 45 -1 74 -7 86 -17 26 -24 180
-69 238 -71 31 -1 68 6 92 17 37 17 42 17 63 2 41 -28 107 -20 190 22 70 35
74 39 73 69 -1 23 -19 54 -60 106 -90 114 -202 271 -216 303 -6 16 -40 61 -74
99 -68 78 -93 121 -120 210 -13 40 -40 89 -84 147 -36 47 -89 133 -119 190
-30 56 -71 123 -91 148 -21 25 -49 68 -63 95 -14 28 -42 66 -62 85 -40 37
-135 172 -135 190 0 19 -37 84 -60 105 -26 24 -120 161 -120 176 0 18 -38 84
-60 104 -35 31 -117 159 -125 193 -3 17 -26 53 -49 79 -44 49 -86 121 -86 147
0 16 21 26 59 26 84 0 199 77 326 217 116 127 132 151 164 245 16 46 65 155
110 242 44 87 81 167 81 177 0 11 34 88 76 172 121 241 156 351 174 553 5 60
19 137 30 170 72 208 103 399 106 659 1 142 7 237 18 294 24 126 30 238 17
301 -10 46 -9 73 5 161 19 114 16 141 -32 272 -14 42 -15 61 -7 125 8 60 7 83
-3 103 -15 31 -70 79 -88 79 -27 0 -68 -44 -100 -109 -35 -68 -238 -322 -412
-517 -210 -232 -517 -537 -1326 -1313 -43 -41 -81 -71 -84 -68 -4 4 -11 87
-15 184 -8 192 -19 293 -49 474 -21 119 -44 188 -111 321 -22 43 -38 78 -37
79 2 1 20 3 42 5 44 4 73 26 92 71 20 48 17 96 -12 180 l-26 75 30 32 c42 44
52 68 52 125 0 65 -11 92 -61 146 -23 25 -36 45 -30 45 6 0 20 9 31 20 15 15
20 33 20 77 0 69 -28 133 -75 168 -30 24 -32 30 -38 104 -2 43 -12 92 -21 108
-34 67 -154 91 -290 58 -32 -8 -72 -11 -88 -8 l-29 6 38 17 c21 9 47 27 58 40
46 52 201 107 335 120 302 28 455 22 592 -24 40 -13 75 -22 77 -20 14 14 -21
64 -69 97 -89 61 -123 75 -262 113 -161 44 -241 47 -378 14 -214 -51 -301 -95
-462 -230 -54 -45 -103 -78 -109 -74 -12 7 -9 33 16 149 46 207 -19 513 -135
639 -64 69 -137 101 -232 101 -61 0 -82 -4 -105 -20 -36 -27 -85 -127 -91
-185 -3 -39 0 -51 23 -78 40 -48 102 -87 166 -106 119 -34 189 -178 189 -388
0 -43 -3 -78 -8 -78 -4 0 -35 23 -70 51 -71 58 -175 104 -269 120 -61 11 -150
7 -188 -7 -21 -8 -41 -49 -50 -101 -6 -38 -3 -48 24 -85 17 -23 31 -49 31 -58
0 -9 -22 -27 -54 -42 -105 -52 -156 -114 -156 -190 0 -28 -10 -62 -30 -99 -29
-56 -37 -92 -60 -279 -19 -160 -12 -211 37 -262 21 -22 28 -40 31 -88 3 -47 1
-60 -9 -60 -68 0 -363 25 -479 40 -172 23 -268 25 -314 6 -19 -8 -57 -36 -84
-63 -41 -39 -52 -58 -61 -101 -14 -69 -14 -87 4 -147 9 -27 15 -72 14 -100 -1
-29 4 -62 13 -80 9 -17 21 -57 27 -89 14 -73 36 -110 111 -179 45 -42 73 -59
117 -72 97 -27 394 -125 417 -137 84 -45 322 -277 364 -356 45 -84 62 -186 62
-362 0 -250 -28 -440 -80 -545 -34 -68 -209 -283 -247 -303 -37 -20 -360 -18
-478 2 -49 9 -169 22 -265 30 -216 19 -354 39 -484 72 -155 39 -172 49 -268
160 -104 120 -141 156 -204 197 -28 19 -51 43 -55 57 -4 14 -7 91 -8 172 -1
153 -21 435 -46 648 -8 69 -15 188 -15 265 0 77 -7 212 -15 300 -8 88 -18 244
-21 347 -6 165 -5 190 10 212 10 15 26 26 39 26 39 0 108 52 203 153 114 120
155 196 183 332 31 155 44 351 31 496 -13 157 -32 230 -80 304 -21 33 -46 76
-56 96 -27 51 -144 153 -245 212 -50 29 -92 61 -98 74 -6 13 -11 54 -11 91 0
87 -33 366 -60 507 -12 61 -41 189 -65 285 -59 235 -73 317 -86 484 -10 132
-18 171 -33 148z m923 -6162 c34 -5 71 -16 82 -26 11 -10 27 -14 41 -11 12 4
69 2 127 -4 109 -10 442 -57 448 -63 2 -1 -52 -31 -119 -64 -89 -45 -156 -70
-242 -92 -66 -17 -187 -53 -269 -80 l-150 -49 -49 25 c-72 37 -190 64 -275 64
l-74 0 3 126 3 127 65 34 65 35 140 -7 c77 -4 169 -11 204 -15z m766 -932 c7
-18 20 -73 30 -123 17 -95 31 -149 71 -280 37 -119 61 -281 69 -464 4 -92 14
-187 22 -215 8 -28 21 -94 29 -146 17 -116 47 -227 80 -301 25 -55 25 -58 9
-89 -38 -73 -50 -537 -20 -750 9 -63 23 -164 31 -225 8 -60 26 -156 39 -213
14 -59 25 -134 25 -173 l0 -69 -34 0 c-18 0 -88 11 -154 25 -192 40 -278 45
-793 45 l-486 0 -6 538 c-7 526 -10 598 -41 932 -23 247 -65 924 -68 1099 l-3
154 109 28 c60 16 115 34 123 41 9 7 84 14 206 19 106 4 221 12 257 19 107 19
240 67 351 124 57 30 112 54 122 55 11 1 23 -11 32 -31z m1416 -2898 c14 0 35
-10 46 -22 11 -13 63 -111 116 -218 71 -144 131 -247 230 -395 74 -110 134
-201 132 -203 -1 -1 -98 50 -216 113 -118 63 -263 136 -322 162 l-108 48 5 35
c20 134 46 358 46 393 0 23 -9 61 -19 84 l-19 41 41 -19 c23 -10 54 -19 68
-19z m1488 -51 c186 -65 191 -68 246 -136 55 -67 74 -104 105 -197 21 -63 22
-82 17 -190 -11 -212 -50 -311 -177 -448 -55 -60 -65 -68 -72 -52 -11 30 -48
266 -63 410 -10 92 -20 144 -34 171 -11 21 -62 84 -113 140 -111 121 -150 183
-177 281 l-20 72 71 0 c60 0 95 -8 217 -51z m-1431 -1515 c31 -20 87 -61 125
-92 38 -30 129 -94 201 -142 138 -92 159 -109 148 -126 -4 -5 -36 -32 -72 -59
-36 -27 -88 -68 -117 -91 -28 -23 -62 -45 -75 -49 -13 -4 -45 -29 -73 -56 -41
-39 -62 -51 -115 -65 -101 -26 -181 -13 -272 43 -45 28 -47 46 -22 188 13 74
15 133 10 337 l-7 247 106 -50 c59 -27 132 -65 163 -85z"/>
</g>
</svg>
