<?xml version="1.0" standalone="no"?>
<!DOCTYPE svg PUBLIC "-//W3C//DTD SVG 20010904//EN"
 "http://www.w3.org/TR/2001/REC-SVG-20010904/DTD/svg10.dtd">
<svg version="1.0" xmlns="http://www.w3.org/2000/svg"
 width="877.000000pt" height="1280.000000pt" viewBox="0 0 877.000000 1280.000000"
 preserveAspectRatio="xMidYMid meet">
<metadata>
Created by potrace 1.15, written by Peter Selinger 2001-2017
</metadata>
<g transform="translate(0.000000,1280.000000) scale(0.100000,-0.100000)"
fill="#000000" stroke="none">
<path d="M4220 12790 c-575 -48 -1110 -361 -1431 -839 -205 -304 -319 -670
-319 -1023 l0 -125 -127 -17 c-346 -47 -803 -133 -820 -153 -6 -8 -24 -80 -39
-161 l-28 -147 -52 -55 c-203 -215 -460 -543 -649 -830 -480 -726 -730 -1431
-752 -2120 -24 -727 240 -1416 770 -2014 43 -48 75 -91 70 -95 -4 -4 -43 -36
-85 -70 -43 -34 -82 -71 -88 -81 -20 -36 -12 -95 19 -136 l28 -40 -107 -116
c-120 -128 -135 -159 -127 -249 13 -146 249 -449 461 -590 120 -81 181 -111
322 -158 146 -48 270 -70 433 -78 113 -6 125 -4 138 12 24 34 16 74 -18 93
-126 69 -223 139 -315 226 -58 54 -103 100 -101 102 2 3 31 -9 63 -25 108 -53
181 -72 301 -78 134 -7 219 10 332 66 83 41 131 88 131 129 0 42 -17 52 -87
52 -118 0 -235 63 -378 205 -120 119 -140 153 -139 234 0 53 7 80 33 138 19
40 42 80 52 89 23 21 69 15 147 -21 141 -64 244 -228 286 -457 13 -67 21 -87
43 -105 61 -49 142 -46 188 9 l28 33 -6 320 c-10 623 -66 842 -228 894 -123
39 -381 -9 -584 -110 l-64 -33 -43 49 c-43 49 -89 75 -131 75 -14 0 -51 -20
-83 -45 -44 -35 -60 -42 -66 -32 -13 25 -105 338 -131 452 -233 988 -131 1793
290 2315 59 73 201 217 206 209 2 -2 13 -38 26 -79 239 -775 742 -1448 1433
-1917 l107 -73 190 0 191 0 0 -390 0 -390 -196 0 -197 0 7 -40 c11 -73 67
-233 114 -328 l46 -92 -26 -28 c-117 -124 -298 -511 -392 -839 -108 -377 -157
-719 -157 -1108 0 -435 63 -778 202 -1098 57 -132 50 -187 -30 -260 -70 -63
-140 -103 -531 -302 -408 -208 -554 -291 -700 -396 -163 -117 -164 -119 -214
-254 -24 -66 -79 -201 -121 -300 -107 -250 -125 -299 -125 -349 0 -66 23 -81
119 -79 143 3 287 45 568 164 191 82 216 88 243 64 26 -24 37 -67 49 -206 11
-133 22 -163 63 -180 38 -16 72 -5 218 66 128 63 197 102 391 222 l136 83 22
60 c59 161 265 393 561 630 197 158 270 229 270 261 0 18 -15 36 -62 69 -138
101 -275 300 -364 530 l-36 95 6 160 c36 846 311 1693 763 2338 l51 74 198 -1
199 -1 87 -130 c427 -635 683 -1442 724 -2281 8 -164 -1 -201 -86 -379 -85
-177 -197 -324 -309 -405 -46 -33 -61 -51 -61 -69 0 -32 73 -103 270 -261 296
-237 502 -469 561 -630 l22 -60 136 -83 c194 -120 263 -159 391 -222 146 -71
180 -82 218 -66 41 17 52 47 63 180 12 139 23 182 49 206 27 24 52 18 243 -64
281 -119 425 -161 568 -164 95 -2 119 13 119 78 0 53 -7 72 -123 347 -52 122
-111 269 -132 325 l-37 102 -76 61 c-174 138 -356 245 -807 472 -348 175 -470
246 -527 305 -70 73 -74 125 -19 251 89 202 156 462 186 722 30 266 17 687
-30 980 -86 530 -281 1060 -484 1318 l-41 52 40 80 c63 126 120 298 120 364 0
14 -28 16 -225 16 l-225 0 0 390 0 390 221 0 220 0 107 73 c691 469 1194 1142
1433 1917 13 41 24 77 26 79 5 8 147 -136 206 -209 421 -522 523 -1327 290
-2315 -26 -114 -118 -427 -131 -452 -6 -10 -22 -3 -66 32 -32 25 -69 45 -83
45 -42 0 -88 -26 -131 -75 l-43 -49 -64 33 c-203 101 -461 149 -584 110 -162
-52 -218 -271 -228 -894 l-6 -320 28 -33 c46 -55 127 -58 188 -9 22 18 30 38
43 105 31 168 92 297 181 384 58 57 151 102 213 102 l45 1 38 -75 c51 -100 60
-178 27 -245 -27 -56 -183 -215 -263 -268 -89 -59 -144 -80 -227 -85 -41 -2
-81 -9 -87 -14 -20 -16 -15 -50 11 -88 31 -46 162 -112 270 -135 151 -33 343
-4 484 74 28 16 52 26 52 21 0 -4 -47 -52 -104 -107 -92 -86 -189 -156 -315
-225 -34 -19 -42 -59 -18 -93 13 -16 25 -18 138 -12 163 8 287 30 433 78 141
47 202 77 322 158 212 141 448 444 461 590 8 90 -7 121 -127 249 l-107 116 28
40 c31 41 39 100 19 136 -6 10 -45 47 -88 81 -42 34 -81 66 -85 70 -5 4 27 47
70 95 347 391 582 825 692 1276 113 464 107 922 -21 1433 -115 462 -336 946
-653 1425 -189 287 -446 615 -649 830 l-52 55 -28 147 c-15 81 -33 153 -39
161 -17 21 -431 94 -814 143 l-133 18 0 103 c0 483 -187 948 -525 1302 -353
370 -813 575 -1335 595 -69 2 -168 1 -220 -4z"/>
</g>
</svg>
