<?xml version="1.0" standalone="no"?>
<!DOCTYPE svg PUBLIC "-//W3C//DTD SVG 20010904//EN"
 "http://www.w3.org/TR/2001/REC-SVG-20010904/DTD/svg10.dtd">
<svg version="1.0" xmlns="http://www.w3.org/2000/svg"
 width="1097.000000pt" height="1280.000000pt" viewBox="0 0 1097.000000 1280.000000"
 preserveAspectRatio="xMidYMid meet">
<metadata>
Created by potrace 1.15, written by Peter Selinger 2001-2017
</metadata>
<g transform="translate(0.000000,1280.000000) scale(0.100000,-0.100000)"
fill="#000000" stroke="none">
<path d="M5152 11449 c-255 -42 -496 -217 -607 -443 -68 -137 -95 -416 -59
-607 18 -94 48 -163 69 -156 20 8 25 -24 25 -171 0 -78 4 -131 9 -128 5 4 12
-7 16 -24 4 -16 13 -30 21 -30 19 0 27 -40 15 -73 -6 -15 -23 -32 -38 -38 -40
-15 -259 -60 -323 -66 -88 -8 -124 7 -240 104 -58 49 -126 101 -152 116 -56
33 -244 97 -284 97 -18 0 -40 12 -64 34 -59 57 -182 140 -302 204 -62 33 -154
84 -205 114 -50 30 -117 68 -147 84 l-56 29 0 59 0 59 -110 111 c-153 155
-245 208 -413 237 -84 14 -158 2 -292 -46 -85 -31 -213 -100 -203 -110 2 -2
28 5 58 15 30 11 69 19 85 19 25 0 18 -6 -47 -40 -43 -21 -78 -42 -78 -44 0
-3 17 4 39 14 21 11 85 39 142 62 102 41 105 42 194 36 94 -6 198 -33 275 -72
53 -27 151 -105 145 -115 -2 -4 -30 2 -62 12 -62 21 -117 19 -168 -8 -34 -18
-132 -20 -195 -5 -101 24 -266 8 -253 -25 3 -8 -1 -22 -8 -31 -13 -15 -9 -16
49 -9 66 7 85 -6 36 -25 -36 -13 -23 -23 39 -29 l52 -5 -2 -35 c0 -19 -7 -59
-14 -89 -19 -82 -1 -164 67 -306 13 -27 23 -67 23 -87 -1 -54 38 -118 89 -146
55 -30 144 -142 167 -210 11 -28 34 -68 52 -87 18 -19 33 -45 33 -56 0 -41 43
-100 90 -124 25 -13 65 -41 90 -62 67 -58 204 -155 295 -208 44 -26 103 -64
130 -84 104 -78 132 -80 228 -15 37 25 71 52 74 60 3 8 11 14 18 14 8 0 27 12
44 26 24 20 31 34 31 62 1 35 2 36 15 18 45 -60 133 -338 185 -584 17 -81 44
-203 59 -272 28 -121 60 -316 82 -490 20 -158 27 -204 62 -415 63 -374 86
-538 91 -650 4 -120 27 -238 58 -298 15 -31 18 -49 12 -94 l-7 -55 -54 54 -54
53 -251 1 c-138 1 -271 4 -297 8 -25 3 -113 0 -196 -8 -117 -11 -168 -21 -230
-43 -66 -25 -97 -30 -178 -32 -81 -1 -117 -7 -205 -35 l-107 -35 -210 6 c-189
4 -219 3 -300 -16 -49 -11 -117 -32 -150 -46 -33 -13 -78 -25 -101 -25 -47 0
-109 -17 -177 -50 -64 -30 -165 -154 -224 -275 -25 -49 -58 -115 -74 -146 -18
-34 -32 -79 -36 -113 -5 -49 -2 -64 26 -121 22 -43 49 -79 83 -107 27 -24 57
-55 65 -71 8 -15 24 -38 35 -49 l21 -21 -24 -20 c-40 -33 -178 -94 -274 -120
-321 -89 -516 -108 -660 -62 -13 4 -11 1 6 -9 30 -17 182 -46 254 -47 l50 -1
-35 -10 c-33 -10 -143 -6 -200 7 -14 3 -7 -2 15 -11 29 -12 73 -16 165 -16
107 0 138 4 210 26 47 15 162 47 255 72 104 28 194 59 232 80 l63 34 15 -36
c8 -20 15 -42 15 -48 0 -6 9 -31 21 -55 15 -35 17 -46 7 -53 -29 -19 -202 -68
-328 -93 -162 -33 -193 -43 -133 -44 23 -1 43 -6 45 -13 3 -8 34 -4 113 15 59
15 111 25 114 22 3 -3 -5 -8 -17 -12 -12 -3 -22 -10 -22 -15 0 -19 148 21 231
63 20 10 39 15 43 12 3 -4 6 -26 6 -49 0 -37 38 -177 72 -266 6 -15 11 -63 12
-105 2 -96 37 -177 96 -224 41 -33 60 -86 60 -165 0 -36 20 -85 48 -116 10
-12 13 -29 9 -54 -4 -20 0 -54 8 -78 7 -23 13 -76 12 -123 -2 -70 1 -86 21
-112 25 -34 28 -69 10 -118 -10 -27 -10 -38 1 -56 13 -20 11 -24 -25 -52 -21
-16 -84 -73 -139 -125 -93 -88 -112 -101 -275 -185 l-175 -90 -47 -70 c-26
-38 -48 -77 -48 -86 0 -29 30 -78 58 -92 15 -8 41 -22 57 -31 54 -29 157 -14
206 30 9 8 41 18 71 20 67 6 138 39 208 96 137 111 193 136 444 198 165 41
195 54 222 95 23 35 14 118 -30 285 -29 108 -37 162 -43 266 -6 128 -5 132 21
186 20 42 25 60 18 79 -5 13 -7 74 -4 136 3 72 0 128 -7 155 -11 40 -10 48 16
103 25 55 28 75 36 237 8 154 7 181 -7 209 -9 18 -16 46 -16 63 0 17 -16 67
-35 111 -19 44 -35 84 -35 90 0 5 -11 33 -24 62 l-24 51 51 5 c47 3 414 -35
462 -48 46 -14 327 -25 720 -31 231 -3 465 -9 520 -15 222 -22 269 -22 376 -3
171 31 346 22 490 -26 48 -15 68 -17 138 -9 l81 9 78 -39 c42 -21 136 -60 207
-86 72 -26 159 -62 195 -80 92 -45 160 -70 275 -100 55 -15 150 -42 210 -61
218 -67 312 -90 653 -154 223 -43 388 -83 419 -102 18 -11 60 -50 94 -88 33
-37 78 -80 99 -95 35 -24 47 -27 101 -23 66 5 80 -4 94 -64 6 -25 5 -28 -19
-28 -14 0 -26 -3 -26 -7 0 -5 14 -42 31 -83 19 -47 32 -98 34 -135 5 -83 18
-113 72 -163 66 -62 103 -124 103 -172 0 -66 88 -145 150 -134 34 6 112 -53
136 -102 22 -45 132 -141 171 -150 40 -9 110 -80 117 -118 9 -48 59 -101 128
-136 51 -25 80 -51 158 -139 107 -122 164 -214 175 -281 8 -52 31 -81 84 -104
53 -24 75 -70 72 -150 -3 -79 13 -112 71 -151 119 -81 224 -208 285 -345 34
-75 74 -122 128 -151 25 -13 45 -27 45 -31 0 -16 72 -86 100 -98 43 -18 135
-8 163 17 17 15 32 19 64 16 36 -4 43 -2 58 21 10 14 25 26 35 26 10 0 32 19
49 43 17 23 35 47 41 54 15 18 12 68 -5 111 -19 45 -63 91 -218 229 -97 87
-130 124 -191 216 -41 62 -98 140 -127 174 -62 71 -104 166 -100 229 2 46 -37
122 -115 224 -43 56 -94 169 -94 207 0 35 -88 143 -122 150 -49 10 -97 97
-118 213 -10 53 -27 118 -38 145 -11 28 -23 62 -26 77 -4 15 -24 44 -45 65
-32 31 -43 51 -55 103 -8 36 -21 81 -30 101 -8 19 -14 49 -14 65 1 45 -26 89
-109 171 -88 88 -258 334 -230 333 1 0 47 -43 102 -95 114 -109 197 -168 340
-241 202 -104 280 -146 296 -160 11 -10 23 -12 39 -6 23 9 22 10 -21 35 -25
15 -60 32 -77 38 -21 7 -32 18 -32 30 0 14 -37 36 -152 93 -84 41 -196 102
-248 136 -90 58 -200 154 -200 173 0 9 7 5 203 -107 78 -46 166 -85 267 -121
143 -51 201 -79 339 -166 89 -56 241 -112 241 -89 0 4 -15 11 -32 14 -18 3
-55 17 -83 31 -27 14 -41 23 -30 20 46 -10 152 -25 175 -24 15 1 -5 11 -48 24
-40 13 -130 50 -200 83 -70 33 -192 83 -272 112 -258 91 -433 185 -550 295
-116 109 -154 127 -227 106 -26 -7 -35 -6 -48 10 -17 17 -16 20 15 46 18 15
39 32 47 36 7 4 25 31 40 60 41 81 37 129 -26 262 -75 159 -80 169 -112 208
-26 32 -158 127 -176 127 -4 0 -33 16 -64 35 -31 19 -101 50 -156 68 -54 19
-108 39 -120 45 -33 18 -254 89 -318 102 -63 13 -382 164 -455 215 -70 49
-184 115 -216 124 -16 5 -67 23 -113 40 -46 17 -102 31 -123 31 -60 0 -259 37
-346 65 -42 14 -85 25 -94 25 -17 0 -22 17 -48 176 -11 67 -57 175 -132 304
-16 28 -30 74 -37 122 -7 51 -25 109 -53 170 -52 117 -55 167 -13 293 16 50
69 168 117 263 49 95 102 207 118 248 52 131 91 196 161 274 37 41 105 127
149 190 99 139 162 206 210 222 65 22 165 12 405 -41 127 -28 262 -55 300 -61
136 -19 360 -24 513 -10 131 12 155 12 227 -3 44 -9 85 -23 91 -32 13 -18 66
-35 107 -35 24 0 27 3 22 20 -6 19 -3 20 37 14 24 -4 58 -15 76 -26 23 -14 43
-18 70 -15 81 12 193 37 211 47 11 5 38 10 61 10 25 0 43 5 46 14 4 10 17 12
48 9 66 -8 172 30 218 78 27 28 65 50 138 79 91 37 104 40 136 30 40 -14 117
7 162 44 31 25 178 82 237 92 45 7 66 17 89 39 14 15 20 14 58 -9 67 -38 143
-66 246 -87 111 -23 200 -24 247 -5 40 17 54 41 48 82 -4 27 0 36 25 54 40 29
58 71 43 98 -20 37 -12 67 24 102 45 44 47 81 6 118 l-30 25 20 25 c26 34 24
71 -6 112 -44 60 -49 61 -300 81 -97 8 -167 19 -198 31 -37 14 -57 16 -82 9
-49 -13 -122 -67 -151 -110 -24 -37 -26 -38 -73 -33 -30 3 -71 -2 -107 -13
-32 -10 -98 -21 -145 -25 -55 -4 -100 -13 -125 -26 -32 -17 -56 -20 -133 -19
-75 2 -97 -1 -110 -14 -13 -13 -36 -17 -111 -16 -55 1 -108 7 -125 15 -48 21
-132 15 -210 -15 -61 -23 -87 -27 -195 -29 -69 -1 -132 -6 -140 -11 -8 -5 -28
-8 -44 -6 -21 2 -34 -3 -46 -19 -10 -13 -31 -23 -58 -27 -26 -4 -42 -11 -42
-19 0 -23 -129 -17 -331 16 -101 17 -223 39 -270 50 -48 11 -129 23 -180 26
-134 8 -172 18 -280 80 -166 94 -301 142 -462 165 -69 9 -100 8 -194 -7 -95
-14 -125 -15 -194 -6 -99 14 -153 38 -281 124 -97 66 -97 66 -76 84 26 24 48
75 48 112 0 16 12 46 26 67 16 24 24 47 21 62 -2 12 2 28 10 35 9 7 12 21 8
39 -5 20 -1 32 17 48 18 18 24 37 30 104 11 118 41 271 56 290 8 9 12 24 11
34 -1 10 3 31 9 46 24 58 35 120 29 173 -6 59 2 69 23 27 13 -27 14 -27 18 -5
2 12 7 20 12 17 12 -8 18 19 25 115 5 77 3 93 -23 167 -35 98 -102 219 -156
280 -70 79 -281 209 -383 235 -26 6 -61 20 -78 29 -16 10 -61 23 -100 29 -38
5 -79 12 -90 14 -11 2 -44 -1 -73 -5z m-440 -256 c-11 -16 -30 -37 -43 -48
l-24 -20 20 25 c52 67 85 96 47 43z m4132 -2747 c-8 -20 -31 -27 -62 -19 l-27
6 35 13 c47 17 60 17 54 0z m-6436 -3261 c-3 -3 -9 2 -12 12 -6 14 -5 15 5 6
7 -7 10 -15 7 -18z m93 -720 l-9 -40 -1 46 c-1 25 2 49 7 53 12 12 13 -16 3
-59z m6349 -211 c0 -2 -9 0 -20 6 -11 6 -20 13 -20 16 0 2 9 0 20 -6 11 -6 20
-13 20 -16z m-6357 -32 c3 -20 1 -32 -5 -30 -5 2 -9 7 -9 11 1 4 1 19 1 34 0
34 7 27 13 -15z m-583 -73 c0 -6 -4 -7 -10 -4 -5 3 -10 11 -10 16 0 6 5 7 10
4 6 -3 10 -11 10 -16z m570 -124 c0 -14 -4 -25 -10 -25 -8 0 -8 23 -1 48 4 12
11 -3 11 -23z m6447 -407 c-3 -8 -6 -5 -6 6 -1 11 2 17 5 13 3 -3 4 -12 1 -19z"/>
</g>
</svg>
