<?xml version="1.0" standalone="no"?>
<!DOCTYPE svg PUBLIC "-//W3C//DTD SVG 20010904//EN"
 "http://www.w3.org/TR/2001/REC-SVG-20010904/DTD/svg10.dtd">
<svg version="1.0" xmlns="http://www.w3.org/2000/svg"
 width="1280.000000pt" height="1024.000000pt" viewBox="0 0 1280.000000 1024.000000"
 preserveAspectRatio="xMidYMid meet">
<metadata>
Created by potrace 1.15, written by Peter Selinger 2001-2017
</metadata>
<g transform="translate(0.000000,1024.000000) scale(0.100000,-0.100000)"
fill="#000000" stroke="none">
<path d="M5518 9493 c6 -2 18 -2 25 0 6 3 1 5 -13 5 -14 0 -19 -2 -12 -5z"/>
<path d="M5405 9470 c-33 -11 -70 -20 -83 -20 -13 0 -48 -12 -78 -26 -66 -31
-78 -27 -27 9 21 15 34 27 29 27 -12 0 -172 -115 -214 -154 -47 -43 -88 -104
-112 -167 -12 -30 -34 -67 -49 -84 -46 -51 -50 -58 -100 -202 -65 -187 -97
-372 -71 -413 7 -11 10 -3 11 30 1 40 2 42 8 15 4 -16 5 -58 3 -91 -3 -35 0
-69 6 -80 10 -17 12 -16 13 11 1 17 5 -4 9 -45 6 -63 4 -81 -11 -112 -40 -80
-17 -187 62 -293 25 -33 55 -80 67 -105 12 -25 31 -56 42 -70 l20 -25 0 25 c0
14 -9 45 -20 69 -35 75 -15 56 40 -41 53 -94 98 -151 135 -170 19 -10 19 -10
5 7 -13 17 -13 18 0 13 8 -4 40 -16 70 -29 30 -12 62 -26 70 -31 40 -24 122
-59 126 -55 3 3 -4 8 -16 12 -16 5 -19 12 -14 28 3 12 7 23 9 25 1 1 22 -6 46
-17 24 -11 84 -24 132 -30 136 -16 187 -52 374 -266 37 -43 45 -47 73 -42 17
4 48 21 70 38 l39 31 31 -22 c30 -21 61 -23 101 -6 13 6 17 -1 21 -38 4 -29
21 -72 47 -116 40 -66 41 -71 27 -97 -21 -40 -66 -79 -107 -92 -80 -26 -184
-107 -240 -189 -17 -23 -47 -51 -69 -62 -27 -14 -42 -30 -51 -55 -11 -31 -31
-46 -134 -107 -66 -39 -166 -100 -222 -135 -55 -34 -112 -63 -125 -63 -28 1
-58 22 -58 42 0 9 -6 21 -14 28 -12 9 -13 17 -3 37 11 24 8 29 -48 79 -44 40
-66 53 -81 49 -29 -7 -70 27 -78 65 -3 17 -27 54 -56 84 -27 29 -50 58 -50 64
0 6 -30 38 -67 71 -47 42 -76 61 -94 61 -34 0 -66 34 -50 53 9 11 -4 29 -58
84 l-69 70 24 114 c13 63 27 159 30 215 9 128 4 133 -130 164 -89 21 -95 24
-90 44 3 12 6 29 8 38 1 9 21 37 44 62 23 25 42 55 42 66 0 11 6 38 12 60 12
36 16 40 46 40 47 0 101 25 111 52 11 30 -2 45 -53 60 -22 7 -63 27 -90 45
-44 30 -54 33 -127 33 -58 0 -79 3 -79 13 0 14 36 215 45 255 3 12 11 22 19
22 23 0 35 24 42 82 5 41 2 64 -10 89 -9 19 -15 52 -13 74 3 53 -22 59 -48 10
-11 -19 -27 -35 -36 -35 -32 0 -76 -64 -84 -121 -6 -44 -5 -55 11 -66 17 -12
17 -18 -5 -145 -32 -190 -20 -172 -110 -164 -42 3 -86 3 -99 0 -29 -8 -256
-266 -284 -323 -12 -24 -26 -82 -32 -128 -8 -70 -7 -98 9 -178 l18 -95 -26
-167 c-30 -188 -35 -304 -13 -325 12 -12 8 -43 -27 -211 -22 -108 -38 -199
-35 -202 2 -3 42 -12 86 -21 l82 -17 0 -189 0 -188 -105 -603 c-155 -897 -359
-2081 -495 -2887 -66 -393 -150 -884 -185 -1090 -35 -206 -85 -512 -110 -679
-56 -370 -60 -449 -21 -373 18 35 125 529 200 927 30 160 140 738 245 1285
209 1092 493 2596 622 3290 45 245 85 448 89 453 3 4 39 1 79 -8 l72 -15 54
37 c33 21 58 46 61 60 6 22 8 23 24 8 13 -12 17 -27 14 -53 -4 -31 3 -48 43
-107 34 -49 56 -71 74 -75 32 -6 89 -54 89 -75 0 -67 158 -296 228 -332 24
-12 63 -40 87 -62 25 -23 54 -41 65 -41 11 0 37 -15 57 -34 107 -95 153 -91
449 34 121 52 344 156 496 233 152 76 285 137 295 135 22 -5 67 16 113 53 54
45 57 34 6 -21 -55 -59 -61 -78 -9 -29 21 18 30 25 20 13 -9 -11 -17 -28 -17
-38 0 -9 -7 -31 -17 -49 -17 -34 -23 -58 -27 -122 -2 -22 -6 -51 -11 -65 -12
-38 3 -19 17 23 12 33 13 23 13 -96 0 -91 4 -138 13 -152 12 -18 12 -15 7 20
-6 38 -6 39 10 20 16 -20 16 -20 12 3 -3 13 -1 20 5 16 6 -4 7 -24 3 -49 -8
-54 7 -90 71 -176 27 -36 57 -76 67 -90 18 -24 -12 32 -42 81 -33 50 10 7 50
-51 22 -32 67 -88 100 -123 l60 -65 -30 -69 c-16 -39 -66 -129 -111 -201 -62
-98 -87 -131 -103 -132 -12 -1 -31 -2 -42 -3 -15 -1 -26 -20 -52 -91 -18 -49
-33 -96 -33 -103 0 -7 -11 -23 -25 -35 -14 -13 -39 -62 -60 -117 -36 -97 -42
-129 -26 -145 5 -6 3 -24 -5 -42 -11 -26 -20 -33 -43 -33 -37 0 -48 -14 -93
-123 l-37 -91 21 -23 c18 -20 19 -26 8 -52 -6 -16 -18 -32 -26 -35 -8 -3 -32
-44 -53 -91 -22 -47 -50 -100 -63 -118 -13 -17 -44 -76 -71 -131 -35 -74 -44
-101 -35 -107 13 -8 -11 -59 -61 -130 -14 -19 -39 -62 -54 -95 -16 -33 -38
-64 -50 -70 -22 -9 -91 -158 -83 -179 2 -6 -2 -19 -10 -30 -8 -10 -14 -25 -14
-33 0 -8 -20 -46 -44 -86 -24 -39 -65 -111 -91 -161 -94 -175 -186 -306 -268
-379 -42 -38 -77 -73 -77 -78 0 -5 -38 -52 -85 -103 -95 -105 -103 -120 -173
-323 -25 -71 -25 -74 -9 -125 28 -93 15 -181 -54 -354 -16 -39 0 -63 42 -63
20 0 37 11 61 39 l32 39 18 -40 c10 -22 18 -49 18 -59 0 -24 55 -175 76 -206
8 -14 17 -39 19 -57 6 -71 156 -256 208 -256 10 0 40 -15 66 -34 25 -18 53
-35 60 -38 8 -2 -22 -10 -68 -16 -105 -15 -214 -47 -268 -78 -37 -21 -43 -30
-43 -57 1 -26 8 -37 41 -59 21 -16 44 -28 50 -28 5 0 23 -7 39 -15 16 -9 42
-17 57 -19 16 -2 51 -11 79 -20 28 -10 57 -18 65 -20 8 -1 24 -7 35 -14 12 -6
24 -9 27 -6 3 3 34 -8 69 -25 34 -17 60 -30 57 -31 -4 0 -85 -20 -180 -44
-171 -43 -246 -74 -299 -123 l-25 -23 3106 0 3106 0 37 25 c20 14 40 25 43 25
4 0 13 7 22 15 9 8 41 34 71 58 68 54 82 86 53 125 -31 42 -88 69 -208 98 -91
22 -148 28 -328 35 -215 9 -297 21 -297 44 0 14 25 36 106 95 32 24 61 44 62
46 2 1 1 11 -3 22 -8 27 -72 48 -215 73 -226 38 -515 34 -1065 -16 -27 -2
-104 -7 -170 -10 -66 -3 -140 -8 -165 -11 -74 -7 -778 -19 -1190 -19 -385 0
-662 6 -605 12 81 8 141 28 161 51 19 23 26 25 115 23 53 -1 129 -9 174 -20
80 -20 115 -16 115 12 0 15 -44 58 -75 75 -16 9 -5 11 58 12 42 0 77 4 77 9 0
7 -60 34 -120 54 -13 5 -13 6 0 6 32 2 259 40 325 55 39 9 100 16 137 16 l67
0 16 -58 c20 -74 37 -107 55 -107 12 0 16 20 20 90 4 78 6 85 13 50 4 -22 10
-52 13 -68 6 -30 40 -55 55 -40 9 9 0 69 -17 132 -7 24 -7 24 17 8 31 -23 136
-23 167 -1 20 14 47 15 191 10 93 -4 219 -13 282 -21 63 -8 175 -22 249 -30
172 -19 349 -52 455 -87 17 -5 91 -14 165 -18 92 -7 154 -16 194 -30 33 -12
82 -24 110 -27 45 -5 99 -17 175 -39 17 -5 22 -4 17 4 -4 7 -1 12 8 12 9 0 16
-7 16 -15 0 -32 453 -14 541 22 48 19 86 62 95 107 3 21 13 36 24 39 13 3 22
22 31 61 12 55 12 57 -14 84 -25 26 -63 46 -227 120 -36 16 -99 57 -140 92
-212 177 -295 231 -392 251 -29 6 -58 15 -64 20 -25 20 -75 187 -125 419 -24
113 -33 184 -39 320 -7 159 -11 183 -39 260 -17 50 -35 125 -41 177 -5 50 -13
98 -16 107 -3 8 -2 20 2 27 4 7 6 41 5 76 -3 81 4 103 34 103 25 0 88 -63 100
-99 32 -102 49 172 19 317 -23 111 -79 280 -134 402 -26 58 -56 127 -67 155
-15 38 -36 63 -91 110 -40 33 -92 88 -116 122 -25 34 -67 79 -95 100 -27 21
-82 66 -121 101 -40 35 -84 69 -99 75 -36 16 -48 35 -55 82 -9 55 -52 128
-126 207 -47 52 -73 72 -112 85 -39 14 -61 31 -96 73 -35 43 -41 56 -28 58 18
4 21 18 6 27 -5 3 -14 24 -20 47 -7 22 -34 70 -61 105 -27 36 -68 99 -91 140
-22 41 -51 87 -65 103 -46 55 -75 180 -128 550 -47 322 -53 409 -32 441 14 21
15 42 7 153 -12 166 -27 272 -50 366 -34 135 -44 209 -30 225 8 10 10 31 7 58
-30 212 -25 198 -136 382 -36 60 -92 137 -123 171 -50 53 -58 67 -58 100 0 44
-28 104 -69 149 -16 17 -38 47 -50 68 -23 38 -65 67 -98 67 -10 0 -34 13 -53
29 -43 35 -189 119 -289 167 -121 58 -206 75 -356 73 l-130 -2 -85 53 c-207
129 -358 239 -342 249 5 3 11 15 13 27 3 15 -14 36 -66 79 -39 33 -81 69 -93
80 -33 28 -140 151 -123 141 33 -21 -72 103 -118 137 -67 51 -224 224 -216
237 15 24 -73 71 -255 136 -74 26 -146 55 -160 65 -98 65 -231 95 -390 85 -58
-4 -123 -9 -145 -11 -38 -5 -37 -4 20 19 71 30 45 33 -40 6z m2944 -1772 c-1
-54 -4 -50 -23 25 -5 20 -3 27 9 27 12 0 15 -12 14 -52z m172 -285 c20 -21 64
-76 98 -123 60 -83 85 -141 79 -182 -6 -42 -25 -27 -52 39 -24 58 -57 113
-180 297 -19 28 -19 29 0 18 10 -6 35 -28 55 -49z m568 -2460 c12 -18 19 -33
14 -33 -9 0 -43 52 -43 66 0 9 -1 9 29 -33z m-1688 -254 c10 -20 10 -20 -15
-4 -14 10 -23 21 -20 26 7 12 21 3 35 -22z m28 -215 c5 4 17 -4 26 -16 41 -57
94 -144 95 -153 0 -6 16 -35 36 -65 36 -54 69 -165 58 -194 -3 -7 6 -35 20
-62 13 -27 27 -68 31 -91 10 -62 29 -68 21 -7 -6 45 -5 47 9 30 8 -11 15 -27
15 -36 0 -9 9 -25 20 -35 32 -29 52 -118 44 -191 -3 -36 -10 -67 -15 -70 -5
-3 -9 -18 -9 -33 0 -27 -3 -29 -121 -60 -67 -18 -178 -52 -247 -76 -78 -27
-130 -41 -137 -35 -6 5 -34 -3 -72 -22 -49 -24 -65 -28 -81 -19 -35 19 -99 14
-115 -9 -10 -14 -33 -24 -73 -30 -129 -21 -407 -138 -479 -201 -50 -44 -37
-47 23 -5 63 46 135 78 296 132 140 47 186 54 59 9 -206 -74 -306 -120 -381
-174 -23 -18 -42 -37 -41 -44 4 -24 -14 -47 -56 -72 -24 -14 -50 -25 -58 -25
-24 0 2 59 53 121 136 163 141 170 139 214 -3 54 5 66 40 59 25 -5 33 1 85 68
32 40 66 76 76 80 10 4 45 42 77 85 77 102 77 101 61 120 -11 13 -11 17 0 21
16 5 22 12 73 85 24 34 47 57 58 57 12 0 42 32 81 88 68 95 78 116 60 127 -9
6 -6 11 9 20 12 6 46 51 76 100 43 70 52 92 43 102 -9 11 -7 22 7 46 11 18 20
48 21 67 1 19 17 70 35 112 l34 77 47 -50 c26 -28 52 -48 57 -45z m253 -381
c-10 -28 -10 -28 -11 12 -1 28 2 36 10 28 8 -8 8 -19 1 -40z m40 -25 c-9 -9
-12 -7 -12 12 0 19 3 21 12 12 9 -9 9 -15 0 -24z m57 -120 c1 -5 -3 -8 -9 -8
-5 0 -10 12 -9 28 0 24 1 25 9 7 5 -11 9 -23 9 -27z m-829 -702 c0 -2 -7 -6
-15 -10 -8 -3 -15 -1 -15 4 0 6 7 10 15 10 8 0 15 -2 15 -4z m-190 -66 c-8 -5
-19 -10 -25 -10 -5 0 -3 5 5 10 8 5 20 10 25 10 6 0 3 -5 -5 -10z m-80 -36
c-86 -50 -225 -115 -200 -94 27 22 218 120 235 120 5 0 -10 -12 -35 -26z
m3395 -749 c4 -38 11 -79 16 -92 12 -32 39 -30 39 3 0 45 17 16 41 -68 18 -67
23 -111 24 -228 1 -80 5 -154 10 -165 14 -33 0 -15 -58 80 -70 114 -154 207
-213 235 l-45 22 -27 -24 c-59 -53 -60 -53 -87 -28 l-25 23 -52 -34 c-64 -42
-99 -61 -102 -57 -8 11 -28 69 -25 72 2 2 54 28 114 59 127 65 252 160 322
244 55 67 56 66 68 -42z m240 -775 c8 -16 15 -33 15 -37 -1 -14 -40 39 -40 53
0 22 8 17 25 -16z m-3563 -940 c25 -15 65 -22 160 -29 70 -5 138 -16 152 -23
21 -11 -26 -13 -307 -13 -272 -1 -321 1 -274 11 31 6 63 16 71 23 8 6 43 16
78 22 34 6 67 14 73 20 12 12 8 12 47 -11z m-345 -64 c4 -3 -18 -6 -48 -7 -30
0 -62 -2 -71 -4 -10 -2 -15 2 -12 9 5 13 119 15 131 2z"/>
<path d="M10351 2781 c-22 -102 -14 -176 34 -340 25 -84 59 -207 74 -273 31
-131 44 -154 66 -124 36 48 31 243 -10 400 -24 94 -78 236 -129 340 l-24 49
-11 -52z"/>
</g>
</svg>
