<?xml version="1.0" standalone="no"?>
<!DOCTYPE svg PUBLIC "-//W3C//DTD SVG 20010904//EN"
 "http://www.w3.org/TR/2001/REC-SVG-20010904/DTD/svg10.dtd">
<svg version="1.0" xmlns="http://www.w3.org/2000/svg"
 width="1056.000000pt" height="1280.000000pt" viewBox="0 0 1056.000000 1280.000000"
 preserveAspectRatio="xMidYMid meet">
<metadata>
Created by potrace 1.15, written by Peter Selinger 2001-2017
</metadata>
<g transform="translate(0.000000,1280.000000) scale(0.100000,-0.100000)"
fill="#000000" stroke="none">
<path d="M6655 12467 c-28 -7 -56 -16 -62 -20 -7 -4 -41 0 -75 9 -93 24 -161
16 -255 -31 -105 -52 -166 -116 -231 -241 -58 -115 -85 -197 -102 -309 -15
-109 -54 -224 -108 -325 l-46 -85 49 42 c27 23 51 40 53 39 2 -2 -8 -28 -23
-58 -17 -34 -54 -79 -103 -126 -73 -69 -75 -72 -38 -57 48 19 52 19 36 0 -22
-26 3 -16 59 25 30 22 57 38 59 36 2 -2 -13 -51 -33 -109 -19 -58 -38 -136
-42 -174 l-6 -67 30 34 c17 19 40 53 51 75 27 50 28 25 2 -32 -10 -24 -17 -43
-14 -43 15 0 55 36 83 76 18 25 35 43 37 41 2 -2 -5 -31 -17 -64 -17 -52 -19
-68 -9 -102 6 -23 15 -39 20 -36 11 7 16 -2 24 -46 l7 -37 -47 -4 c-45 -3 -46
-2 -66 37 -26 51 -47 75 -75 86 -23 9 -282 -30 -353 -53 -45 -14 -119 -76
-127 -105 -3 -15 -13 -23 -27 -23 -34 0 -244 -19 -331 -30 -79 -10 -1195 -109
-1695 -150 -140 -11 -572 -48 -959 -81 -687 -59 -705 -60 -755 -44 -70 24 -93
22 -125 -9 -37 -35 -92 -36 -134 0 -41 34 -87 28 -136 -19 -34 -33 -51 -38
-401 -123 -426 -104 -433 -92 70 -119 278 -15 328 -20 345 -35 57 -50 117 -50
158 0 34 40 87 49 123 21 36 -28 68 -26 123 8 l47 28 689 66 c1936 185 2916
276 2923 271 8 -6 -81 -173 -103 -194 -24 -23 -25 -23 -45 -5 -33 30 -141 85
-166 85 -34 0 -5 -59 65 -132 19 -21 41 -38 48 -38 7 0 13 -11 13 -25 0 -22
-3 -24 -30 -18 -24 4 -30 2 -30 -12 0 -10 -8 -24 -17 -31 -16 -11 -16 -16 -5
-34 12 -20 0 -42 -158 -280 -194 -292 -263 -420 -386 -712 -98 -231 -98 -233
-114 -385 -11 -105 -10 -115 9 -158 29 -65 64 -78 201 -73 145 5 182 24 363
191 146 134 280 242 294 235 30 -13 83 -56 87 -70 2 -11 14 -18 30 -18 35 0
94 -30 98 -49 2 -9 -4 -25 -14 -36 -25 -26 -17 -40 21 -39 l31 2 0 -107 c0
-58 3 -136 7 -173 l6 -68 -65 0 c-46 0 -69 4 -78 15 -17 21 -58 19 -105 -5
-21 -11 -66 -29 -99 -41 -76 -26 -244 -142 -250 -172 -3 -12 -7 -38 -9 -57 -2
-19 -10 -68 -17 -109 -11 -61 -11 -93 -1 -175 13 -103 23 -131 72 -199 16 -22
29 -45 29 -52 0 -7 11 -24 25 -39 l26 -28 -58 -97 c-54 -90 -61 -98 -103 -112
-26 -9 -49 -24 -56 -37 -6 -12 -26 -32 -45 -45 -43 -29 -43 -41 -1 -45 l34 -3
-4 -107 c-2 -90 -1 -107 12 -107 12 0 16 19 18 100 3 126 4 130 37 109 16 -10
31 -13 42 -8 10 4 32 8 50 9 31 2 31 1 35 -49 2 -28 0 -79 -6 -113 -8 -53 -7
-65 6 -80 14 -16 15 -33 6 -148 -28 -359 61 -838 260 -1410 99 -283 270 -756
332 -915 28 -74 56 -159 61 -188 6 -28 25 -100 44 -160 22 -67 35 -128 35
-162 1 -163 110 -787 196 -1125 41 -159 80 -317 89 -350 15 -62 34 -205 27
-205 -2 0 -13 11 -24 25 -25 32 -50 33 -44 3 3 -13 13 -61 22 -108 9 -47 21
-93 26 -103 5 -10 11 -58 14 -108 2 -50 8 -98 12 -107 5 -9 10 -44 11 -77 3
-68 13 -85 39 -68 14 8 23 7 42 -7 l23 -17 -21 -34 c-72 -116 -465 -428 -539
-429 -49 -1 -187 -103 -205 -151 -9 -23 28 -79 51 -79 10 0 35 -7 54 -15 43
-18 97 -19 152 -4 22 6 78 12 125 13 100 1 149 21 239 96 108 90 138 98 303
79 166 -19 279 8 324 77 26 38 28 164 6 329 -18 138 -18 140 1 166 14 19 17
33 11 50 -4 13 -7 28 -6 33 6 19 -10 44 -31 50 -20 5 -22 11 -22 68 0 35 4 71
9 80 4 10 3 40 -3 68 -15 69 -14 161 4 315 15 124 28 347 41 706 11 274 -21
420 -155 716 -28 61 -65 165 -84 230 l-34 118 11 360 c5 198 9 470 8 604 -2
135 0 243 2 240 10 -10 77 -284 121 -499 26 -124 62 -279 80 -345 86 -314 277
-774 384 -924 59 -82 93 -203 141 -504 37 -223 59 -305 141 -509 33 -84 91
-243 129 -353 37 -110 79 -225 92 -255 20 -45 23 -69 21 -135 -1 -61 6 -113
29 -215 17 -74 37 -142 43 -150 7 -8 15 -23 18 -33 4 -9 20 -20 37 -23 37 -8
38 -18 5 -40 -34 -22 -31 -43 6 -51 53 -10 64 -40 50 -138 -6 -47 -9 -124 -6
-177 4 -62 2 -114 -8 -158 -9 -45 -11 -76 -4 -105 5 -22 8 -57 8 -78 -2 -51
22 -93 60 -106 48 -17 75 -13 106 13 28 24 29 24 41 5 14 -22 73 -26 91 -6 6
8 23 12 39 9 18 -2 33 2 41 12 8 9 26 16 41 16 15 0 33 7 40 15 7 8 15 13 19
11 15 -9 52 16 61 40 14 36 -16 147 -92 339 l-60 150 17 95 c9 52 21 111 26
131 13 54 12 59 -21 70 -33 12 -37 24 -15 53 19 26 19 32 -4 55 -20 20 -20 20
-1 26 10 3 22 15 25 25 12 37 -38 274 -65 305 -29 35 -53 96 -41 108 6 6 7 16
1 26 -4 9 -10 221 -13 471 -4 374 -8 467 -21 525 -60 254 -145 455 -270 638
-105 154 -158 280 -191 451 -20 99 -20 354 -1 571 25 281 17 654 -18 895 -17
113 -10 134 51 144 69 12 133 37 143 56 6 10 18 21 28 24 11 4 25 18 32 31 7
14 21 25 31 25 9 0 26 8 38 18 28 23 45 153 36 283 -3 53 -1 170 5 260 11 147
14 167 34 189 20 21 23 37 24 108 0 46 5 89 10 95 5 7 15 39 22 72 7 33 34
157 61 276 91 402 106 526 89 754 -11 153 -37 381 -46 405 -3 8 -10 121 -15
250 -6 129 -14 327 -18 440 -4 113 -11 212 -14 220 -3 8 -13 51 -23 95 -9 44
-22 89 -27 100 -6 11 -12 92 -13 180 -2 181 -32 364 -84 512 -35 98 -46 118
-118 201 -63 73 -125 111 -237 147 -110 36 -119 44 -120 108 -1 28 -5 63 -9
75 -8 24 -7 24 51 18 32 -3 77 -8 101 -12 32 -4 49 -2 69 11 22 15 41 17 118
11 82 -5 95 -4 116 13 36 28 192 33 232 7 33 -22 89 -16 121 12 17 16 41 20
136 25 131 5 287 38 477 98 138 44 252 69 318 69 35 0 48 -5 64 -26 l21 -27
103 23 c79 18 145 24 292 27 204 6 274 -1 438 -42 54 -14 102 -25 108 -25 19
0 -36 83 -105 157 -148 159 -334 254 -541 278 -35 4 -105 1 -165 -7 -58 -7
-150 -13 -204 -13 l-99 0 -24 66 c-25 68 -51 94 -84 84 -15 -5 -19 -16 -19
-49 0 -74 -36 -193 -75 -246 -34 -46 -101 -90 -137 -90 -66 0 -28 116 87 267
49 65 52 70 34 81 -44 28 -64 16 -156 -90 -158 -186 -223 -245 -315 -287 -108
-50 -135 -55 -176 -29 -40 24 -93 20 -126 -11 -24 -23 -161 -47 -202 -37 -29
8 -30 20 -4 89 16 43 40 73 123 153 127 124 166 156 292 234 123 77 234 129
344 160 l84 24 -34 15 c-45 18 -231 17 -324 -3 -114 -24 -271 -92 -344 -148
l-24 -18 27 0 c14 0 26 -4 26 -9 0 -15 -103 -104 -149 -130 l-43 -23 7 23 c18
65 19 62 -7 48 -50 -27 -137 -97 -226 -183 -51 -49 -91 -91 -89 -92 2 -2 34 8
73 21 38 14 81 25 97 25 22 0 27 -4 27 -25 0 -41 -25 -90 -67 -132 -35 -35
-44 -39 -77 -35 -28 3 -45 -1 -68 -18 -18 -13 -51 -24 -84 -27 l-54 -6 0 42
c0 23 -6 54 -14 69 -8 15 -14 50 -13 77 0 28 -7 64 -16 82 -13 24 -15 46 -11
92 l7 60 26 -18 c60 -42 73 -41 26 2 -27 26 -53 46 -57 47 -19 1 -27 39 -17
76 14 49 15 50 36 33 11 -9 10 -3 -6 19 -21 30 -22 37 -12 77 6 24 11 82 11
129 0 290 -146 555 -364 661 -82 40 -150 50 -221 32z m-732 -928 c-10 -16 -29
-40 -42 -52 -13 -13 -7 1 15 30 44 60 54 68 27 22z m1200 -505 c31 -42 20 -59
-44 -62 -45 -2 -58 1 -74 18 -10 11 -26 20 -37 20 -19 0 -25 15 -9 24 5 3 20
-5 35 -19 15 -14 32 -24 39 -22 13 2 37 23 37 32 0 7 23 34 30 34 3 0 13 -11
23 -25z m-915 -55 c7 -40 11 -73 10 -74 -9 -9 -68 -8 -69 0 -1 6 -6 26 -10 45
-7 29 -4 40 17 67 14 18 28 33 32 33 5 0 13 -32 20 -71z m787 -9 c3 -5 1 -10
-4 -10 -6 0 -11 5 -11 10 0 6 2 10 4 10 3 0 8 -4 11 -10z m208 -216 l17 -35
-45 31 c-25 17 -45 33 -45 35 0 3 13 5 28 5 23 0 32 -7 45 -36z m161 -1712
c10 -76 60 -274 112 -437 l46 -150 6 -500 c9 -730 8 -781 -11 -850 -9 -33 -20
-76 -25 -95 -5 -19 -17 -53 -26 -75 -23 -53 -14 -103 19 -111 23 -6 24 -8 11
-33 -8 -14 -31 -42 -51 -61 -40 -39 -46 -36 -67 35 -11 37 -14 62 -22 220 -5
81 -14 115 -41 145 -33 37 -71 212 -57 264 l8 29 44 -51 c50 -55 152 -122 189
-122 21 0 23 3 16 37 -8 44 -42 88 -99 126 -64 44 -125 108 -146 154 -10 23
-29 49 -43 58 -15 10 -32 36 -42 68 -9 29 -22 58 -27 65 -17 20 -22 148 -8
205 34 145 -63 199 -130 72 -32 -61 -88 -121 -101 -108 -17 17 -23 154 -10
243 16 109 58 225 143 395 77 155 92 177 82 125 -6 -31 -42 -174 -60 -237 -5
-17 -2 -23 10 -23 9 0 20 8 23 18 4 9 12 22 19 27 6 6 19 35 28 65 10 30 21
63 26 72 6 11 6 27 1 42 -13 34 -3 65 36 111 19 22 36 51 39 65 14 69 35 151
44 176 9 23 13 25 20 14 8 -12 10 -9 10 10 0 36 11 71 20 65 4 -2 10 -26 14
-53z m-1932 -731 c-2 -30 -59 -181 -67 -181 -2 0 -21 11 -41 25 -43 29 -64 31
-104 10 -33 -17 -54 -52 -64 -107 -8 -42 -12 -44 -40 -23 -11 8 -28 15 -38 15
-28 0 -70 -46 -67 -73 2 -12 -10 -42 -25 -66 l-29 -45 -14 29 c-21 39 -28 132
-14 196 9 41 21 63 49 90 20 20 45 47 54 61 30 45 112 78 193 78 48 0 78 5 91
15 12 10 37 14 69 12 l50 -2 -3 -34z m-412 -472 c-7 -20 -11 -53 -8 -72 6 -53
-18 -28 -37 38 -15 52 -15 53 12 94 l28 43 8 -33 c6 -22 4 -46 -3 -70z m2020
6 c0 -22 -2 -24 -14 -13 -10 9 -11 17 -4 26 15 17 18 15 18 -13z m0 -327 c0
-7 9 -19 20 -26 11 -7 20 -17 20 -23 0 -11 50 -82 63 -87 4 -2 4 -8 1 -14 -8
-13 14 -28 41 -28 17 0 23 -13 38 -88 21 -96 20 -93 11 -173 -4 -35 -2 -71 6
-93 7 -23 8 -41 2 -53 -8 -14 -16 -5 -45 53 -55 111 -136 370 -142 457 -3 43
-15 63 -16 26 0 -20 -3 -18 -20 16 -10 22 -19 53 -19 69 l0 29 20 -26 c11 -14
20 -31 20 -39z m-2079 -50 c-9 -24 -41 -57 -41 -43 0 12 42 77 46 72 3 -2 0
-15 -5 -29z m2369 -894 c0 -8 -4 -12 -10 -9 -5 3 -10 10 -10 16 0 5 5 9 10 9
6 0 10 -7 10 -16z m109 -203 c7 -13 5 -33 -11 -72 -17 -46 -19 -60 -9 -96 12
-46 6 -73 -14 -73 -7 0 -20 -2 -27 -5 -11 -4 -18 8 -26 47 -11 47 -10 59 9
107 18 50 54 111 64 111 3 0 9 -8 14 -19z m-40 -349 c0 -24 -1 -25 -9 -7 -12
28 -12 47 0 40 6 -3 10 -18 9 -33z"/>
</g>
</svg>
