<?xml version="1.0" standalone="no"?>
<!DOCTYPE svg PUBLIC "-//W3C//DTD SVG 20010904//EN"
 "http://www.w3.org/TR/2001/REC-SVG-20010904/DTD/svg10.dtd">
<svg version="1.0" xmlns="http://www.w3.org/2000/svg"
 width="831.000000pt" height="1280.000000pt" viewBox="0 0 831.000000 1280.000000"
 preserveAspectRatio="xMidYMid meet">
<metadata>
Created by potrace 1.15, written by Peter Selinger 2001-2017
</metadata>
<g transform="translate(0.000000,1280.000000) scale(0.100000,-0.100000)"
fill="#000000" stroke="none">
<path d="M1495 12595 c-5 -2 -22 -6 -37 -9 -71 -16 -141 -117 -142 -201 0 -87
42 -127 112 -109 34 9 26 22 -15 26 -99 8 -70 139 42 189 64 29 129 25 212
-15 138 -66 196 -120 303 -281 123 -184 134 -216 88 -274 -10 -13 -18 -27 -18
-31 0 -4 27 -35 59 -69 32 -33 69 -82 81 -107 18 -41 20 -51 9 -78 -7 -17 -22
-42 -35 -56 -42 -46 -39 -74 17 -141 28 -33 80 -80 117 -104 78 -52 121 -102
129 -149 7 -44 -14 -57 -155 -91 -105 -26 -112 -30 -112 -53 0 -17 23 -49 78
-106 83 -88 180 -241 240 -380 46 -106 55 -198 22 -250 -47 -77 -168 -114
-228 -69 -56 41 -94 149 -73 205 23 60 80 77 118 36 40 -45 36 -88 -9 -88 -24
0 -34 26 -18 45 17 20 5 32 -15 15 -20 -17 -19 -43 3 -63 21 -19 45 -21 73 -7
54 29 -16 160 -86 160 -42 0 -92 -46 -101 -95 -8 -44 10 -127 42 -193 19 -39
37 -59 71 -79 69 -40 114 -45 211 -22 101 23 121 23 197 4 157 -40 425 -164
425 -197 0 -14 -19 -8 -102 32 -57 27 -156 65 -220 84 -252 76 -398 45 -843
-179 -487 -246 -591 -267 -674 -136 -63 99 -72 149 -46 237 23 76 50 103 111
111 97 11 153 -27 139 -95 -22 -107 -44 -127 -113 -102 -28 10 -36 10 -43 -1
-14 -23 -11 -28 27 -44 73 -30 116 -16 144 49 21 51 27 106 16 162 -6 35 -13
44 -44 57 -170 72 -282 -13 -282 -214 0 -106 57 -214 140 -264 40 -25 52 -27
111 -22 101 9 318 100 583 245 143 79 314 144 451 173 110 23 193 15 341 -32
102 -32 259 -103 271 -122 4 -7 0 -8 -13 -2 -57 23 -106 27 -149 10 -100 -38
-117 -81 -70 -175 14 -27 25 -60 25 -73 0 -29 -35 -47 -91 -47 l-40 0 7 -72
c3 -40 10 -77 14 -83 6 -7 -37 -7 -127 -1 -115 8 -142 7 -187 -7 -70 -22 -217
-111 -283 -170 -96 -88 -158 -261 -133 -370 5 -23 10 -49 10 -57 0 -14 -104
-106 -145 -128 -27 -14 -141 9 -210 43 -50 24 -65 28 -97 26 -24 -1 -22 -14 7
-49 31 -37 24 -43 -64 -49 -57 -5 -77 -12 -146 -54 -101 -62 -189 -138 -160
-139 31 -1 -1 -16 -52 -25 -53 -8 -60 -27 -20 -51 25 -14 51 -18 120 -18 48 0
87 -1 87 -2 0 -2 -19 -12 -43 -22 -65 -29 -111 -75 -143 -144 -25 -55 -29 -74
-29 -153 1 -132 8 -154 81 -252 36 -48 75 -105 85 -125 22 -43 43 -138 59
-261 18 -144 113 -364 232 -539 54 -78 74 -120 111 -229 203 -600 289 -850
349 -1014 38 -104 103 -291 144 -415 68 -202 77 -237 85 -340 12 -142 31 -217
74 -295 46 -81 116 -147 200 -187 65 -30 77 -33 165 -32 158 2 263 56 430 224
103 104 173 200 300 415 104 174 215 340 314 469 47 61 80 115 86 140 12 49 2
30 121 208 53 79 129 199 168 267 39 68 73 126 75 128 9 9 46 -131 58 -218 12
-89 11 -90 -11 -106 -23 -16 -23 -18 -17 -147 19 -406 19 -618 -3 -891 -12
-148 -29 -319 -37 -380 -9 -60 -19 -209 -24 -330 -7 -188 -13 -247 -44 -405
-58 -304 -71 -455 -58 -645 12 -168 56 -516 91 -720 16 -93 71 -540 71 -574 0
-4 -23 -15 -50 -25 -51 -19 -71 -39 -108 -112 -37 -73 -37 -124 -2 -272 17
-74 35 -164 40 -200 11 -80 4 -350 -10 -407 -13 -53 -13 -213 0 -295 18 -110
82 -178 146 -154 34 11 146 166 203 278 46 90 61 154 61 258 0 63 4 75 40 135
54 91 78 159 95 272 24 158 22 344 -5 513 l-24 148 23 227 c12 126 44 404 71
618 67 531 79 656 90 900 7 167 15 240 39 358 44 214 86 373 140 532 64 186
265 1039 262 1115 -3 96 -3 143 4 370 8 253 -1 420 -31 545 -26 114 -21 148
45 276 68 134 74 154 62 211 -8 34 -5 68 15 168 28 138 43 333 44 541 0 152 6
179 84 348 24 53 61 140 82 194 l37 99 46 -8 c95 -17 151 1 151 47 0 11 29 35
83 68 84 51 125 87 147 131 13 25 16 222 4 241 -3 6 -9 52 -13 104 -6 87 -5
94 10 82 75 -53 308 -204 399 -257 105 -61 225 -138 400 -257 82 -56 205 -103
268 -103 51 0 93 34 129 104 24 45 27 63 27 147 1 95 0 98 -45 185 -80 158
-180 326 -274 464 -99 145 -183 285 -243 402 -33 67 -37 81 -38 163 -2 94 -23
194 -55 257 -11 21 -19 44 -19 53 0 29 -55 75 -89 75 -17 0 -31 4 -31 9 0 4
-11 20 -24 34 -20 22 -32 25 -90 26 -89 0 -113 -10 -132 -59 -9 -22 -19 -40
-23 -40 -13 1 -39 26 -54 55 -9 17 -37 53 -62 80 l-46 50 -19 -22 c-17 -22
-17 -25 0 -90 26 -102 45 -140 78 -157 34 -18 39 -27 48 -98 10 -82 69 -191
149 -278 58 -62 86 -105 159 -245 95 -183 136 -275 114 -258 -7 5 -87 65 -178
132 -192 143 -245 192 -348 321 -93 117 -223 253 -277 289 -22 15 -71 40 -108
56 -61 25 -81 28 -181 29 -95 1 -112 3 -110 16 44 215 54 291 54 404 0 103 3
126 17 137 35 29 93 112 102 146 8 27 6 70 -9 170 -11 74 -22 138 -25 143 -3
5 -12 69 -20 142 -13 119 -26 183 -50 242 -6 15 -5 17 5 11 9 -6 11 -4 5 6
-14 23 -124 182 -146 210 -17 22 -18 29 -8 55 18 45 15 208 -5 299 -22 98 -78
216 -120 252 -55 46 -113 65 -175 57 -190 -23 -282 -140 -315 -398 l-11 -89
-57 -14 c-56 -14 -58 -14 -95 11 -43 30 -88 33 -121 10 -21 -14 -26 -13 -78
10 -75 35 -143 35 -212 0 -97 -48 -153 -143 -160 -273 -4 -78 -7 -86 -35 -110
-19 -18 -32 -41 -36 -66 l-6 -39 -76 104 c-161 223 -176 249 -195 346 -58 297
-238 497 -508 565 -76 19 -101 21 -220 14 -99 -5 -144 -12 -168 -25 -71 -38
-132 -174 -144 -322 -12 -135 44 -294 123 -348 38 -26 104 -41 148 -33 95 18
205 105 205 162 0 38 -40 71 -87 71 -45 0 -52 -22 -19 -61 14 -17 23 -35 20
-41 -12 -19 -89 -48 -129 -48 -87 0 -147 79 -164 221 -12 92 -8 112 27 126
l27 11 -27 1 -27 1 16 47 c28 82 130 164 187 149 40 -10 168 -108 206 -159 46
-61 160 -307 160 -346 0 -17 -11 -42 -25 -59 -30 -36 -31 -53 -5 -77 35 -32
79 -109 86 -151 7 -46 -3 -70 -47 -122 -16 -18 -29 -41 -29 -51 0 -30 73 -133
123 -174 59 -48 88 -90 97 -139 7 -34 5 -41 -17 -55 -19 -13 -118 -42 -144
-43 -5 0 -154 184 -293 363 -37 48 -111 133 -165 190 -53 56 -129 140 -170
187 -123 144 -521 505 -656 597 -38 26 -295 128 -375 149 -54 14 -66 15 -85 9z
m1625 -146 c87 -41 161 -99 217 -173 41 -55 109 -183 101 -191 -2 -2 -35 35
-73 82 -111 135 -238 251 -320 290 -64 31 -67 33 -30 28 22 -3 69 -20 105 -36z
m1943 -55 c81 -58 137 -206 137 -363 0 -114 0 -114 -70 -83 -37 17 -58 32 -55
40 3 6 8 19 12 28 5 14 1 15 -28 9 -19 -4 -41 -13 -49 -21 -10 -8 -30 -12 -50
-9 -50 7 -149 14 -193 15 l-37 0 6 58 c8 75 39 193 65 244 58 113 168 148 262
82z m302 -755 c24 -46 48 -128 60 -209 7 -39 6 -43 -8 -32 -8 7 -19 45 -26 88
-7 45 -25 106 -46 151 -19 42 -35 79 -35 82 1 11 31 -33 55 -80z m-900 -1124
c58 -22 136 -37 275 -53 l65 -7 -1 -38 c-3 -80 -90 -164 -228 -218 -136 -53
-123 -64 -167 151 -45 219 -43 204 -21 195 9 -4 44 -18 77 -30z m-590 -535
c-12 -19 -87 -62 -94 -54 -7 8 -41 131 -41 149 0 3 31 -16 70 -41 38 -26 68
-50 65 -54z m-1384 -677 c38 -23 37 -35 -8 -69 -21 -15 -64 -50 -96 -78 l-59
-50 -32 18 c-30 16 -37 16 -67 3 -71 -30 -119 -111 -105 -178 4 -20 -1 -32
-20 -50 -37 -35 -49 -10 -44 96 4 95 70 201 157 252 119 70 217 90 274 56z
m-227 -242 c3 -5 -18 -30 -47 -57 -50 -47 -52 -48 -55 -25 -5 30 14 66 42 79
27 13 53 15 60 3z m329 -309 c17 -15 51 -61 78 -102 95 -148 114 -168 167
-176 26 -3 51 -9 55 -11 4 -3 -19 -22 -52 -43 -38 -25 -81 -67 -122 -119 -52
-65 -68 -79 -84 -74 -11 3 -41 8 -67 10 l-47 5 -35 -54 c-45 -68 -86 -177 -86
-229 0 -23 -7 -55 -15 -73 -26 -53 -216 -241 -275 -271 -49 -25 -56 -26 -95
-15 -49 14 -100 62 -124 117 -22 47 -13 124 26 220 41 104 62 133 98 133 33 0
79 -26 98 -56 24 -37 7 -172 -27 -219 -12 -16 -18 -18 -40 -7 -35 16 -42 54
-21 120 14 44 14 56 4 63 -20 12 -35 -6 -54 -67 -21 -66 -12 -97 42 -145 37
-32 72 -34 100 -6 22 22 53 136 53 193 0 66 -25 107 -89 150 -31 20 -45 24
-79 18 -35 -5 -45 -13 -75 -58 -46 -70 -84 -171 -92 -242 -5 -47 -3 -68 14
-106 27 -64 102 -134 160 -151 44 -13 49 -12 104 15 43 21 92 63 183 154 68
69 124 121 124 116 0 -6 23 -35 51 -66 28 -30 48 -60 44 -65 -3 -6 -47 -39
-98 -73 -158 -108 -251 -226 -304 -383 -22 -66 -27 -99 -27 -185 -1 -58 3
-123 7 -145 7 -33 -7 -16 -82 102 -50 78 -107 176 -127 216 l-37 74 31 64 c77
163 55 242 -89 319 -32 17 -70 45 -83 63 -44 58 -96 175 -96 214 0 21 -7 70
-16 108 -9 39 -16 76 -17 83 -1 8 32 27 81 47 84 33 158 86 220 156 18 21 58
52 90 70 31 18 95 62 142 99 114 89 299 210 321 210 3 0 3 -18 1 -39 -8 -84
38 -152 90 -132 39 15 58 40 58 76 0 32 -30 75 -52 75 -13 0 -9 -17 7 -30 30
-25 8 -90 -30 -90 -35 0 -46 84 -20 147 14 33 17 35 47 29 18 -3 45 -19 61
-34z m322 -364 c-7 -27 -153 -318 -166 -332 -5 -6 -9 6 -9 29 0 30 -7 46 -31
71 l-31 33 60 73 c69 84 95 109 137 131 41 22 47 21 40 -5z m-1458 1 c36 -13
73 -48 73 -68 0 -10 -13 -2 -37 21 -21 21 -49 41 -63 47 -14 5 -20 10 -13 10
6 1 24 -4 40 -10z m1150 -200 c9 -9 -9 -39 -70 -120 -45 -60 -85 -109 -88
-109 -18 0 31 149 67 203 18 28 31 37 52 37 15 0 33 -5 39 -11z m90 -106 c6
-45 -12 -142 -31 -168 -12 -16 -15 -16 -43 -2 -17 9 -33 24 -37 32 -17 45 2
116 47 182 21 31 23 32 40 14 10 -10 21 -36 24 -58z m432 -93 c12 -6 21 -26
25 -62 4 -29 10 -63 13 -75 8 -33 -79 -119 -211 -208 -62 -41 -132 -99 -158
-129 -183 -209 -205 -506 -51 -708 37 -48 43 -63 43 -105 0 -85 39 -264 81
-369 31 -79 46 -104 70 -118 17 -10 28 -23 26 -29 -3 -7 -34 -80 -70 -163 -36
-83 -73 -174 -83 -202 -10 -29 -21 -52 -24 -52 -3 0 -16 30 -29 66 -37 104
-113 251 -183 354 -36 52 -122 181 -192 285 -71 105 -134 197 -142 206 -17 19
-18 35 -1 21 25 -20 95 -24 145 -8 63 21 107 68 132 139 24 67 25 119 5 176
-36 104 -148 123 -191 33 -22 -47 -10 -100 28 -121 40 -23 45 -6 9 28 -34 31
-38 49 -18 73 21 26 43 27 75 2 63 -50 64 -157 1 -215 -69 -64 -169 -37 -238
65 -81 119 -63 291 47 453 48 71 84 103 200 182 48 32 112 84 142 115 30 31
61 56 70 56 36 0 120 53 191 118 61 57 78 68 92 60 25 -13 64 14 122 85 52 63
49 61 74 47z m-568 -71 c11 -16 36 -37 55 -47 l34 -18 -47 -53 -48 -53 -29 23
c-16 12 -41 43 -57 67 l-28 44 42 53 c37 45 43 49 50 32 4 -10 16 -32 28 -48z
m1139 34 c0 -13 -20 -26 -66 -45 -73 -29 -71 -15 6 33 53 34 60 35 60 12z
m590 -22 c0 -39 -259 -186 -316 -179 -29 3 -28 4 34 52 35 26 84 56 110 65 26
10 70 30 97 44 53 27 75 33 75 18z m-1420 -50 c0 -14 -119 -116 -159 -136 -18
-9 -32 -12 -30 -6 8 20 95 119 119 134 28 17 70 22 70 8z m854 -18 c3 -16 11
-59 16 -98 10 -62 9 -71 -6 -80 -37 -22 -74 -58 -95 -92 -12 -19 -42 -54 -66
-76 -39 -36 -59 -68 -31 -51 6 4 -15 -28 -47 -71 -32 -44 -73 -108 -90 -144
-44 -89 -98 -260 -129 -410 -15 -68 -28 -127 -31 -131 -2 -4 -30 -3 -62 2 -49
7 -65 5 -105 -14 -78 -35 -95 -108 -60 -257 18 -75 26 -88 51 -72 11 7 11 20
-3 79 -37 164 -12 222 96 222 74 0 75 -6 20 -116 -27 -54 -71 -150 -98 -213
-27 -62 -54 -116 -61 -118 -7 -3 -28 6 -46 20 -25 19 -41 46 -65 109 -48 127
-93 385 -66 374 72 -28 179 -8 227 42 82 85 73 271 -15 330 -49 32 -93 29
-129 -9 -34 -37 -37 -71 -9 -116 14 -24 27 -33 47 -33 l27 0 -31 28 c-43 36
-48 73 -14 92 26 14 62 -3 92 -44 30 -39 32 -119 5 -161 -36 -55 -135 -68
-193 -26 -29 21 -29 40 7 155 67 218 308 542 550 738 76 62 264 168 297 168 6
0 14 -12 17 -27z m-246 -7 c22 -11 21 -12 -25 -48 -85 -64 -270 -241 -336
-319 -157 -188 -269 -372 -308 -506 -13 -46 -28 -81 -34 -80 -23 8 -59 102
-63 162 -12 178 73 322 262 444 52 34 119 84 150 112 47 43 56 48 56 30 0 -33
12 -24 53 38 21 32 69 89 107 125 73 71 78 72 138 42z m541 10 c-11 -10 -126
-100 -139 -110 -8 -5 -1 5 15 23 34 38 103 91 118 91 6 0 8 -2 6 -4z m1219
-1002 c-7 -15 -14 -21 -16 -15 -2 7 2 18 8 26 18 22 21 18 8 -11z"/>
<path d="M5440 11580 c6 -11 13 -20 16 -20 2 0 0 9 -6 20 -6 11 -13 20 -16 20
-2 0 0 -9 6 -20z"/>
</g>
</svg>
