<?xml version="1.0" standalone="no"?>
<!DOCTYPE svg PUBLIC "-//W3C//DTD SVG 20010904//EN"
 "http://www.w3.org/TR/2001/REC-SVG-20010904/DTD/svg10.dtd">
<svg version="1.0" xmlns="http://www.w3.org/2000/svg"
 width="996.000000pt" height="1280.000000pt" viewBox="0 0 996.000000 1280.000000"
 preserveAspectRatio="xMidYMid meet">
<metadata>
Created by potrace 1.15, written by Peter Selinger 2001-2017
</metadata>
<g transform="translate(0.000000,1280.000000) scale(0.100000,-0.100000)"
fill="#000000" stroke="none">
<path d="M5467 12768 c-8 -18 -60 -135 -116 -260 l-102 -228 -59 -277 c-33
-153 -123 -577 -200 -943 -77 -366 -146 -691 -153 -722 -6 -31 -16 -58 -22
-60 -5 -2 -21 18 -35 44 -48 89 -99 121 -166 104 -86 -22 -118 -160 -50 -213
13 -11 52 -25 87 -32 l64 -12 0 -58 c0 -52 -4 -63 -41 -112 -58 -76 -59 -78
-104 -259 -30 -121 -40 -183 -40 -242 0 -43 -5 -99 -11 -123 -10 -39 -7 -57
25 -172 20 -70 73 -240 120 -378 66 -196 89 -282 109 -401 41 -236 62 -275
160 -293 68 -12 118 -61 62 -61 -29 0 -46 -27 -35 -56 14 -37 75 -75 211 -130
121 -50 245 -115 260 -137 4 -5 10 -33 13 -61 10 -75 53 -211 93 -291 75 -149
176 -262 299 -333 l64 -36 0 -64 c0 -39 7 -78 16 -99 14 -29 16 -54 11 -150
-4 -64 -9 -118 -11 -121 -3 -2 -73 14 -156 38 -82 23 -243 61 -357 84 l-208
42 -11 64 c-13 68 -30 90 -92 111 -25 8 -32 15 -26 28 90 216 77 500 -33 659
-20 29 -44 57 -53 62 -15 8 -18 29 -22 127 -4 107 -7 124 -36 184 -21 43 -51
84 -92 123 l-60 57 0 70 c0 147 -37 207 -178 290 -48 28 -88 52 -89 53 -2 1 7
26 18 55 18 47 19 60 8 110 -37 182 -122 275 -304 335 -39 12 -58 26 -85 63
-68 92 -162 143 -306 165 -64 10 -73 14 -79 36 -19 75 -99 152 -190 181 -47
16 -210 41 -264 41 -6 0 -1 15 10 34 l20 34 -78 -5 c-54 -4 -121 1 -215 16
-256 39 -330 26 -509 -94 -61 -41 -115 -75 -120 -75 -5 0 -46 25 -92 55 -122
79 -184 102 -321 121 -59 8 -59 7 12 -98 83 -123 123 -218 92 -218 -22 0 -141
-125 -165 -174 -25 -51 -25 -57 -19 -173 6 -100 4 -130 -10 -172 -9 -29 -14
-56 -11 -61 4 -6 27 -10 51 -10 l46 0 -6 -37 c-14 -101 -17 -171 -11 -259 l8
-96 60 -81 61 -80 8 -221 c5 -122 12 -248 17 -281 5 -33 6 -86 3 -118 -4 -50
-2 -61 18 -81 l22 -24 -40 -63 c-48 -77 -74 -151 -66 -185 9 -37 58 -68 161
-103 51 -17 95 -31 98 -31 3 0 5 9 5 20 0 18 7 20 59 20 l60 0 5 53 c3 28 8
91 12 138 l6 86 61 6 c34 3 66 2 71 -3 7 -7 23 -126 25 -192 1 -15 11 -18 60
-18 70 0 71 -2 71 -106 0 -53 4 -74 13 -74 23 0 114 59 131 85 13 19 17 42 14
76 -1 27 -2 49 0 49 3 0 166 -81 170 -85 7 -6 -49 -195 -82 -277 -19 -46 -75
-164 -124 -261 -99 -195 -193 -422 -243 -592 -18 -60 -36 -114 -39 -118 -4 -4
-19 10 -34 32 -31 44 -117 127 -224 216 -57 48 -74 68 -83 100 -19 75 -41 123
-64 145 -32 30 -119 37 -215 17 -41 -9 -91 -18 -110 -21 -25 -4 -58 -26 -109
-71 -41 -36 -129 -98 -195 -137 -156 -93 -389 -251 -696 -470 -135 -96 -254
-180 -265 -185 -11 -6 -56 -19 -100 -28 -120 -26 -175 -62 -175 -113 0 -15
-25 -49 -74 -101 -55 -57 -78 -90 -86 -121 -6 -24 -43 -93 -82 -153 -38 -61
-74 -121 -79 -134 -20 -52 53 -117 146 -130 29 -3 109 3 213 17 92 13 168 24
169 24 5 2 33 346 33 409 0 80 4 87 56 104 25 9 35 7 55 -8 42 -33 96 -19 167
43 52 45 95 69 355 204 259 135 394 218 495 306 70 62 157 95 218 83 40 -7 44
-14 89 -144 19 -54 84 -216 145 -361 61 -144 110 -263 108 -265 -2 -2 -26 2
-53 10 -28 8 -88 24 -134 36 -69 18 -92 30 -134 67 -28 25 -70 53 -93 64 -42
18 -43 18 -98 -3 -31 -11 -88 -47 -128 -80 -134 -109 -132 -106 -157 -201 -22
-85 -26 -91 -180 -295 -86 -114 -205 -271 -265 -347 -133 -172 -141 -184 -167
-271 -29 -96 -64 -157 -120 -209 -27 -25 -51 -56 -55 -71 -11 -45 1 -138 27
-195 23 -52 24 -61 16 -160 -9 -101 -8 -111 25 -240 l34 -135 53 -3 c29 -2 77
4 108 13 83 24 283 117 283 132 0 6 -24 38 -53 70 -67 72 -77 91 -77 143 0 28
-14 68 -46 132 -44 88 -46 94 -34 128 17 48 47 88 70 95 11 4 29 23 39 43 10
20 97 154 193 297 171 255 268 427 303 534 28 87 49 101 145 101 79 0 82 1
110 32 17 18 49 38 72 45 l43 12 110 -108 c61 -59 191 -181 290 -271 211 -192
376 -358 448 -453 51 -66 55 -68 153 -106 234 -91 353 -116 522 -109 93 4 131
10 186 31 64 24 72 25 99 11 35 -19 34 -23 -40 -118 -46 -60 -62 -75 -78 -70
-89 24 -151 6 -192 -55 -25 -37 -31 -107 -12 -142 9 -17 3 -31 -32 -86 -23
-36 -52 -71 -63 -78 -56 -36 -389 -82 -498 -70 -47 6 -58 4 -58 -7 0 -29 64
-110 114 -144 93 -63 190 -83 511 -109 105 -9 209 -18 233 -22 40 -5 42 -4 42
21 l0 25 132 3 132 3 13 45 c8 25 16 90 19 145 3 55 10 114 15 131 12 39 130
162 221 231 l67 50 83 -29 c400 -142 798 -211 1295 -225 l221 -6 66 -111 c132
-221 405 -563 543 -681 139 -119 296 -216 553 -345 136 -68 226 -120 278 -159
45 -35 108 -145 128 -223 24 -94 14 -304 -26 -532 -43 -252 -63 -289 -284
-535 -106 -117 -206 -245 -206 -262 0 -5 -25 -24 -55 -43 -79 -51 -173 -186
-191 -273 l-6 -31 113 -27 c86 -21 148 -29 251 -33 l138 -5 11 29 c6 16 26 87
45 159 35 129 43 148 143 322 l53 91 40 -14 c51 -18 109 -18 132 -1 21 15 28
50 76 377 17 118 38 243 46 278 37 158 104 335 196 515 40 77 53 95 63 87 25
-20 94 -174 114 -253 33 -129 44 -240 38 -392 -9 -221 -48 -331 -234 -660 -50
-88 -104 -187 -121 -220 -23 -46 -39 -65 -67 -78 -76 -36 -199 -173 -211 -235
l-6 -29 254 -51 c139 -27 257 -47 261 -42 5 4 15 54 23 111 37 258 39 265 115
416 40 78 76 140 80 137 4 -2 31 -9 59 -14 40 -8 59 -6 86 5 19 8 34 18 34 22
0 4 5 37 10 73 6 36 14 212 20 391 5 180 17 378 25 440 24 183 72 351 157 543
70 159 63 209 -34 240 -29 9 -94 37 -144 62 -355 174 -395 480 -144 1096 182
444 235 645 256 971 4 59 9 107 12 107 27 0 141 -39 195 -67 203 -107 279
-353 262 -848 -10 -319 -10 -330 21 -455 l29 -115 -3 -335 c-3 -227 -8 -358
-17 -407 -15 -77 -49 -165 -71 -184 -25 -21 -15 -26 44 -21 80 6 166 29 232
62 l56 28 12 -44 c23 -84 118 -165 273 -230 91 -38 305 -105 313 -97 3 3 -20
35 -49 71 -68 82 -128 195 -156 298 -30 103 -32 285 -5 354 26 65 33 205 13
266 -10 33 -17 109 -21 229 -9 276 -40 473 -106 675 -20 63 -43 149 -49 190
-7 41 -24 120 -38 174 -106 430 -285 655 -563 712 -99 20 -200 15 -363 -16
l-106 -21 -118 119 c-138 138 -258 222 -444 311 -112 54 -307 124 -460 166
l-56 16 -6 46 c-3 33 -12 53 -28 66 -39 31 -102 3 -114 -52 l-6 -27 -102 18
c-125 22 -151 32 -142 56 4 9 9 34 12 55 3 20 9 37 13 37 5 0 31 -16 60 -35
68 -46 128 -49 166 -7 23 24 26 34 22 84 -4 49 -12 68 -52 127 -26 38 -83 103
-126 145 -44 42 -80 83 -80 90 0 9 22 21 58 31 289 82 457 138 552 185 40 19
65 26 91 23 50 -7 107 21 204 97 44 35 85 67 91 71 8 7 10 -5 7 -38 -8 -89 62
-153 151 -139 54 9 123 40 168 76 l37 30 13 -27 c19 -41 73 -65 128 -57 55 7
145 43 195 77 l37 25 45 -31 c35 -25 55 -32 92 -32 66 0 112 33 215 156 47 56
99 111 115 123 17 11 31 24 31 27 0 3 -61 77 -136 164 l-136 159 38 19 c67 34
142 120 184 209 25 55 55 99 85 128 96 93 178 231 210 355 19 75 19 211 -1
295 -49 211 -249 431 -472 517 -56 22 -84 27 -172 27 -101 1 -108 0 -183 -36
-256 -122 -350 -440 -200 -680 13 -21 23 -40 23 -42 0 -12 -83 -16 -124 -5
-73 18 -152 84 -283 235 -141 163 -223 241 -316 302 -141 91 -322 133 -493
113 -77 -9 -90 -8 -99 6 -44 68 -101 104 -174 108 -45 3 -46 4 -57 48 -16 61
-44 105 -106 163 -39 37 -58 64 -79 118 l-27 71 31 25 c23 19 43 25 78 25 56
0 71 12 105 81 32 65 27 111 -17 178 -30 44 -30 46 -15 89 30 88 -21 173 -119
199 -39 11 -45 15 -40 33 20 65 18 93 -8 119 -14 14 -37 28 -51 31 -14 3 -36
7 -48 10 -16 3 -29 19 -41 49 -27 65 -61 77 -141 49 -59 -21 -62 -21 -81 -4
-57 52 -105 53 -175 6 -46 -31 -59 -35 -117 -35 -104 0 -144 -31 -145 -116 -1
-39 -4 -44 -29 -49 -60 -13 -109 -78 -109 -142 0 -15 9 -47 20 -71 l19 -42
-24 -37 c-35 -51 -35 -120 1 -158 22 -24 30 -27 65 -21 22 4 39 2 39 -3 0 -6
25 -37 55 -69 53 -57 55 -62 55 -114 0 -72 31 -131 121 -233 102 -116 101
-114 26 -108 -80 7 -120 -12 -137 -62 -9 -27 -17 -35 -36 -35 -34 0 -98 -34
-123 -66 -28 -35 -100 -38 -152 -7 -77 48 -189 49 -222 3 -13 -19 -14 -19 -62
5 -53 27 -76 30 -106 14 -16 -8 -35 -2 -103 35 -46 25 -97 46 -113 46 -28 0
-29 2 -56 108 -16 59 -39 131 -52 160 -13 29 -27 69 -31 90 -3 20 -30 96 -59
167 -29 72 -58 149 -65 171 l-13 42 46 43 c70 68 83 146 36 227 -18 32 -18 33
16 175 19 79 41 176 49 216 19 90 46 150 67 151 9 0 62 -9 118 -21 87 -17 107
-19 133 -8 89 37 90 188 3 225 -64 26 -96 18 -171 -43 -38 -31 -74 -43 -74
-25 0 4 92 468 205 1032 l206 1025 -11 235 c-5 129 -10 248 -10 263 0 37 -17
34 -33 -5z m-2376 -5263 c18 -86 25 -185 14 -185 -8 0 -105 50 -131 67 -21 13
-21 14 -4 86 10 39 23 112 31 162 l13 90 29 -65 c16 -36 38 -105 48 -155z
m2335 -915 c87 -22 237 -66 332 -96 l173 -57 -24 -26 c-239 -263 -320 -351
-323 -351 -3 0 -61 38 -129 84 l-126 83 46 37 c54 45 61 82 19 115 -40 31 -66
26 -129 -25 -31 -25 -58 -44 -60 -43 -5 5 -35 137 -35 153 0 8 16 16 38 20 46
8 122 42 122 55 0 5 -8 12 -18 15 -10 4 -33 22 -52 41 -45 46 -36 46 166 -5z
m-1471 -2782 c25 -12 45 -25 45 -29 0 -10 -191 -223 -229 -255 l-35 -29 7 25
c4 14 7 43 7 66 0 36 10 55 77 143 42 55 78 101 80 101 1 0 23 -10 48 -22z"/>
</g>
</svg>
