<?xml version="1.0" standalone="no"?>
<!DOCTYPE svg PUBLIC "-//W3C//DTD SVG 20010904//EN"
 "http://www.w3.org/TR/2001/REC-SVG-20010904/DTD/svg10.dtd">
<svg version="1.0" xmlns="http://www.w3.org/2000/svg"
 width="1267.000000pt" height="1280.000000pt" viewBox="0 0 1267.000000 1280.000000"
 preserveAspectRatio="xMidYMid meet">
<metadata>
Created by potrace 1.15, written by Peter Selinger 2001-2017
</metadata>
<g transform="translate(0.000000,1280.000000) scale(0.100000,-0.100000)"
fill="#000000" stroke="none">
<path d="M6348 12768 c-14 -18 -40 -62 -58 -98 -29 -56 -34 -79 -40 -164 -4
-69 -11 -102 -21 -110 -18 -13 -13 -46 10 -63 12 -9 13 -12 2 -13 -9 0 -11 -7
-8 -21 3 -12 -39 -360 -93 -773 -54 -413 -165 -1258 -246 -1877 l-148 -1125
-86 4 c-53 3 -101 11 -129 23 -50 22 -99 24 -205 8 l-76 -11 -142 67 c-79 37
-186 83 -237 102 -84 30 -105 43 -178 109 -55 50 -100 82 -135 96 -63 23 -207
57 -246 57 -52 0 -137 9 -200 20 -58 11 -67 10 -102 -8 -57 -29 -103 -36 -119
-17 -16 19 -171 24 -171 5 0 -7 -13 -9 -37 -5 -21 4 -55 9 -75 12 -21 4 -38
11 -38 18 0 6 23 79 52 161 28 83 56 181 62 219 l11 68 38 -36 c30 -28 42 -34
56 -27 10 6 23 6 32 0 7 -5 21 -8 29 -8 8 0 5 4 -7 9 -31 13 -29 23 3 17 18
-3 24 -1 20 9 -3 8 -2 13 2 13 26 -4 30 3 12 21 -11 11 -17 26 -14 35 6 14 9
13 26 -4 10 -12 26 -21 36 -20 13 0 11 3 -5 9 -13 5 -23 16 -23 24 0 8 -5 16
-10 18 -15 5 -25 78 -11 78 6 0 11 -9 11 -20 0 -11 9 -28 19 -37 11 -9 18 -20
15 -25 -3 -4 0 -8 5 -8 15 0 14 17 -2 31 -7 7 -11 28 -8 51 3 40 -8 72 -41
117 -10 13 -18 28 -18 34 0 6 7 2 15 -9 18 -23 -15 79 -46 144 -12 23 -19 52
-16 62 3 11 2 20 -3 20 -4 0 -23 26 -43 59 -38 60 -93 121 -111 121 -6 1 -27
24 -46 53 -20 28 -49 58 -65 66 -17 7 -41 24 -55 37 -14 12 -41 30 -60 38 -19
8 -47 25 -62 39 -15 14 -29 22 -32 19 -3 -3 -6 -1 -6 5 0 18 -66 43 -112 43
-24 0 -53 7 -65 15 -11 8 -45 17 -75 21 -47 5 -64 2 -115 -20 -33 -15 -67 -28
-75 -30 -46 -6 -153 -73 -205 -127 -32 -32 -63 -59 -69 -59 -7 0 -14 -4 -16
-8 -1 -4 -20 -18 -41 -31 -45 -28 -43 -40 3 -16 18 9 34 15 36 12 2 -2 -13
-23 -34 -47 -20 -24 -30 -41 -22 -38 57 23 54 24 34 -13 -10 -19 -18 -38 -19
-44 0 -5 -8 -9 -18 -7 -10 2 -17 -3 -17 -13 0 -9 -7 -18 -15 -21 -13 -5 -10
-16 17 -65 l32 -58 -18 -78 c-10 -43 -20 -89 -24 -103 -3 -14 -6 -36 -7 -49 0
-14 -6 -26 -13 -29 -18 -6 -15 -20 5 -24 16 -3 14 -7 -9 -31 -35 -35 -35 -41
-2 -34 19 3 24 1 20 -10 -3 -8 -6 -19 -6 -24 0 -5 -17 -28 -37 -51 -31 -34
-34 -40 -17 -36 19 5 21 1 20 -48 -1 -59 6 -73 29 -54 18 15 20 0 3 -19 -11
-11 -10 -14 0 -18 10 -4 10 -8 1 -19 -16 -19 -4 -30 16 -14 8 7 15 8 15 2 0
-5 -7 -15 -15 -22 -25 -21 -17 -30 22 -24 l36 6 -16 -26 c-20 -30 -24 -57 -5
-38 18 18 32 14 17 -5 -13 -15 -11 -15 13 1 25 16 27 16 32 -2 9 -26 -4 -54
-20 -48 -8 3 -15 -2 -16 -12 -2 -32 -4 -37 -12 -50 -6 -10 -1 -11 21 -6 49 11
58 28 55 99 -3 83 14 94 21 12 3 -46 1 -69 -11 -87 -14 -23 -14 -24 1 -11 22
18 25 14 29 -34 l3 -40 -75 -7 c-41 -4 -112 -11 -156 -15 -56 -6 -88 -14 -101
-26 -24 -21 -45 -22 -408 -18 -357 5 -363 4 -393 -19 -13 -11 -31 -20 -38 -20
-7 0 -27 -13 -43 -29 -36 -35 -90 -47 -251 -56 -63 -3 -206 -17 -317 -31 -252
-30 -330 -31 -383 -4 -48 25 -170 44 -224 36 -64 -11 -118 -49 -199 -140 -83
-93 -102 -135 -94 -208 16 -129 154 -259 308 -288 30 -6 65 -22 89 -41 51 -41
133 -60 226 -52 45 3 78 1 92 -6 11 -6 58 -16 104 -21 46 -5 110 -15 143 -21
33 -7 85 -13 116 -13 43 -1 66 -8 95 -28 l39 -27 175 4 c153 3 201 0 385 -27
116 -16 220 -34 232 -39 18 -6 23 -17 23 -43 0 -18 7 -53 15 -76 8 -23 15 -53
15 -65 0 -12 15 -38 34 -57 19 -20 39 -53 45 -75 6 -22 24 -58 40 -80 44 -61
61 -99 61 -136 0 -23 8 -41 26 -58 21 -19 25 -30 20 -56 -2 -18 -2 -33 2 -33
4 0 8 -14 9 -31 1 -17 15 -47 30 -67 23 -31 27 -44 25 -95 -2 -51 1 -66 24
-98 23 -33 25 -43 16 -66 -6 -16 -14 -47 -17 -70 -6 -36 -4 -43 10 -43 13 0
16 -5 10 -22 -8 -28 -8 -36 -1 -68 6 -21 5 -22 -3 -5 -9 19 -10 19 -10 -2 -1
-12 4 -25 9 -28 6 -4 8 -15 5 -26 -4 -10 -7 -38 -7 -61 0 -23 -7 -53 -15 -65
-9 -13 -11 -23 -7 -23 5 0 4 -4 -2 -8 -7 -5 -9 -39 -4 -107 6 -100 15 -129 70
-226 l20 -36 -27 -48 c-14 -27 -27 -56 -28 -65 -1 -16 -150 -170 -164 -170
-13 0 -31 -49 -31 -82 0 -29 -20 -62 -87 -147 -52 -65 -48 -98 21 -195 l45
-63 -14 -45 c-7 -25 -22 -63 -33 -84 -36 -72 -100 -267 -152 -461 -6 -24 -28
-63 -49 -87 -45 -52 -56 -81 -70 -189 -9 -62 -18 -88 -48 -132 -64 -97 -58
-193 17 -278 l40 -45 0 -104 c0 -107 -8 -149 -55 -278 -24 -65 -28 -92 -29
-200 -2 -118 -5 -132 -45 -254 -34 -102 -45 -153 -52 -239 -5 -60 -13 -137
-19 -170 -6 -34 -15 -165 -20 -292 -17 -385 -23 -420 -109 -626 -27 -64 -50
-96 -136 -191 -58 -63 -124 -125 -147 -138 -95 -52 -266 -171 -296 -205 -50
-56 -72 -109 -84 -200 -13 -98 -11 -104 73 -150 49 -26 54 -27 172 -23 109 4
130 8 201 37 99 40 137 67 256 177 86 80 205 179 234 195 6 3 27 14 46 24 76
39 118 82 134 139 19 63 21 201 5 292 l-11 62 100 198 c55 110 115 237 133
283 18 46 54 118 79 160 26 42 65 105 86 141 22 36 50 90 62 120 30 76 108
406 123 515 10 77 24 118 97 285 109 251 129 290 148 290 40 0 152 87 179 140
7 14 16 48 20 75 4 28 29 98 56 157 52 112 58 151 34 198 -14 27 -12 35 24
142 40 115 96 244 111 253 15 9 60 -48 65 -84 7 -43 34 -127 63 -196 12 -27
55 -155 97 -284 77 -237 79 -250 38 -251 -22 0 -14 -38 36 -180 28 -75 56
-174 64 -219 8 -45 19 -87 25 -93 5 -5 34 -13 63 -16 l53 -7 39 -95 c21 -52
90 -250 153 -438 63 -189 130 -375 150 -414 37 -74 69 -187 109 -385 26 -130
58 -210 143 -357 57 -98 88 -185 126 -351 15 -60 46 -159 70 -220 59 -150 64
-179 59 -340 -7 -177 8 -240 71 -298 22 -22 55 -46 71 -54 17 -9 111 -98 210
-199 161 -163 188 -186 254 -218 93 -45 165 -59 262 -54 64 4 86 10 141 41 36
20 69 42 75 49 19 24 23 63 12 123 -21 119 -38 162 -86 215 -44 49 -177 147
-274 203 -25 14 -86 69 -136 121 -106 110 -153 195 -178 320 -9 43 -21 88 -27
99 -6 12 -8 38 -3 66 3 25 11 208 16 406 5 198 12 407 15 465 7 129 -16 231
-95 413 -11 26 -29 100 -40 165 -11 64 -42 189 -70 277 -52 167 -49 149 -97
606 l-6 55 41 16 c23 9 44 24 47 33 4 8 -6 43 -21 77 -17 38 -33 99 -42 162
-24 172 -23 171 -59 168 l-30 -3 -28 173 c-15 95 -38 207 -52 248 -13 41 -33
120 -43 176 -13 67 -28 113 -44 138 -24 34 -47 112 -47 155 0 10 -9 30 -21 45
-22 28 -72 193 -64 207 3 4 30 17 60 28 30 11 86 37 125 56 112 57 136 91 80
120 -25 13 -68 71 -58 80 2 1 31 15 66 30 35 16 72 39 83 53 37 48 19 158 -79
467 -45 142 -79 285 -137 565 -42 206 -78 400 -81 430 -3 38 -10 59 -23 70
-10 8 -33 40 -49 70 l-31 55 56 320 c31 176 59 361 63 410 10 117 46 220 74
209 8 -3 40 -1 71 5 45 8 62 8 83 -3 51 -26 237 -87 370 -121 140 -35 232 -78
306 -141 41 -35 89 -50 129 -40 14 3 41 -4 72 -19 26 -14 66 -25 87 -25 33 0
38 -3 38 -23 0 -13 -22 -192 -50 -398 -27 -206 -117 -891 -200 -1524 -83 -632
-163 -1240 -177 -1350 -15 -110 -31 -203 -36 -206 -6 -4 -7 -14 -4 -23 4 -9 2
-16 -3 -16 -17 0 -32 -40 -20 -55 8 -9 6 -35 -8 -96 -16 -74 -17 -91 -5 -149
7 -36 20 -82 30 -103 15 -34 20 -38 47 -35 l31 3 -3 105 c-3 100 10 191 30
217 5 7 7 17 4 22 -4 5 1 14 10 19 9 5 16 22 17 38 2 55 177 281 366 472 221
224 222 226 367 655 35 104 73 205 84 225 42 72 124 172 137 168 7 -3 13 1 13
9 0 8 7 15 15 15 9 0 12 6 8 15 -3 10 0 15 8 13 9 -2 14 6 14 19 0 24 125 180
339 422 111 127 260 314 286 361 7 13 13 11 35 -10 46 -43 55 -72 55 -175 0
-100 6 -110 44 -82 22 16 35 74 36 154 l0 62 -75 88 c-41 48 -75 91 -75 96 0
4 31 -19 69 -51 118 -99 158 -111 183 -57 11 24 8 29 -32 68 -23 23 -64 73
-90 112 -30 44 -61 77 -84 89 -42 23 -118 129 -148 209 -17 45 -19 72 -16 190
2 105 6 140 17 146 10 7 14 30 14 85 l-1 76 37 -5 c82 -12 228 -35 262 -41 45
-8 79 20 79 65 0 33 -13 46 -66 65 l-39 15 67 0 c42 1 97 10 146 26 83 26 87
30 107 102 3 11 11 23 19 26 7 3 84 1 172 -4 87 -4 332 -18 544 -29 467 -25
1027 -55 1405 -75 740 -40 1237 -66 1520 -80 171 -9 319 -21 329 -27 11 -6
106 -15 212 -21 l193 -10 46 -69 c38 -57 49 -67 68 -63 12 3 157 30 322 60
379 70 399 76 338 104 -26 12 -659 201 -672 201 -4 0 -27 -27 -51 -59 l-45
-59 -320 4 c-176 1 -453 10 -615 19 -306 16 -469 24 -970 50 -1725 88 -2457
126 -2474 129 -16 2 -26 17 -39 60 -13 40 -26 60 -43 68 -19 9 -24 19 -24 48
0 73 -25 81 -324 110 -55 6 -101 12 -103 14 -8 7 19 201 29 207 10 7 15 27 21
104 3 31 19 61 70 130 37 50 67 96 67 104 0 7 -12 40 -26 71 -35 78 -25 107
67 199 57 57 81 73 132 90 50 17 75 33 122 82 33 33 79 72 103 86 45 27 54 53
28 88 -13 18 -15 18 -62 0 -27 -10 -77 -36 -112 -58 -45 -28 -66 -37 -74 -29
-11 11 -6 14 132 109 68 47 88 86 96 185 6 71 5 76 -17 91 -13 9 -27 13 -31 9
-4 -4 -16 -45 -27 -92 -18 -76 -25 -89 -62 -122 -23 -21 -47 -38 -55 -38 -8 0
-17 22 -23 58 -27 142 -74 312 -111 395 -22 49 -37 94 -34 99 3 5 -2 21 -12
36 -39 60 -42 57 175 251 86 77 89 85 39 112 -16 9 -27 3 -63 -30 -81 -75
-106 -48 -86 93 18 132 16 137 -44 85 -34 -30 -35 -34 -35 -99 0 -90 -53 -260
-81 -260 -3 0 -20 26 -36 58 -41 77 -46 138 -22 247 24 111 24 125 3 99 -14
-18 -14 -17 -2 6 9 17 13 72 13 180 0 141 -4 171 -39 335 -21 99 -42 188 -47
197 -5 10 -7 28 -4 40 3 13 -7 68 -24 123 -16 55 -35 129 -41 165 -22 113 -93
280 -121 280 -5 0 -25 -14 -43 -31 -29 -26 -52 -67 -93 -169 -9 -22 -16 -12
-85 120 -93 179 -188 437 -167 452 10 7 11 11 2 14 -7 3 -9 12 -6 21 3 8 0 19
-7 23 -7 4 -9 13 -5 20 4 7 7 49 6 94 -2 72 2 92 33 173 20 51 36 95 36 97 0
5 -55 36 -63 36 -3 0 -16 -15 -29 -32z m-39 -632 c29 -95 73 -198 152 -357 61
-123 117 -249 124 -279 17 -73 28 -150 21 -150 -3 0 -18 24 -32 53 -34 67
-119 174 -145 182 -29 10 -76 -46 -96 -115 -24 -77 -22 -173 3 -201 30 -33 69
-49 126 -50 l53 -2 -45 -8 c-53 -9 -94 -3 -111 17 -20 24 -28 15 -17 -18 14
-43 95 -127 133 -137 l30 -8 -29 -8 c-21 -6 -38 -3 -58 8 -15 9 -28 14 -28 11
0 -15 29 -71 44 -83 12 -10 14 -16 5 -22 -9 -5 -6 -16 9 -40 20 -34 123 -220
149 -272 8 -15 19 -24 25 -21 7 4 8 2 4 -4 -4 -7 11 -25 39 -44 25 -17 45 -36
45 -40 0 -5 -19 -5 -42 -2 l-43 7 31 -34 c17 -19 43 -52 58 -74 14 -22 40 -46
58 -55 18 -8 38 -26 45 -40 11 -21 10 -26 -5 -31 -14 -5 -12 -7 7 -10 19 -3
39 -28 83 -101 57 -92 59 -98 49 -134 -7 -26 -7 -42 0 -50 7 -9 3 -27 -14 -61
-43 -84 -62 -238 -59 -478 1 -115 7 -291 13 -391 10 -141 9 -204 0 -290 -14
-123 -29 -196 -44 -206 -12 -7 -15 -22 -21 -98 -2 -30 -11 -96 -21 -147 l-17
-91 -52 -7 c-28 -4 -82 -19 -121 -32 -101 -36 -127 -39 -149 -14 -11 12 -25
21 -33 21 -7 0 -18 11 -24 24 -13 27 -54 42 -72 27 -10 -7 -77 -9 -138 -3 -9
1 -19 11 -22 22 -3 10 -22 27 -43 37 -22 9 -58 32 -81 50 -52 41 -102 63 -145
63 -20 0 -51 12 -78 30 -25 16 -51 30 -57 30 -8 0 -11 10 -8 28 11 60 485
3689 485 3710 0 51 19 14 59 -112z m476 -636 c13 -5 14 -9 5 -9 -8 0 -24 4
-35 9 -13 5 -14 9 -5 9 8 0 24 -4 35 -9z m195 -1061 c0 -6 -4 -7 -10 -4 -5 3
-10 11 -10 16 0 6 5 7 10 4 6 -3 10 -11 10 -16z m131 -639 c16 -52 41 -150 55
-218 21 -105 23 -132 14 -180 -23 -130 -133 -274 -154 -204 -3 9 -10 101 -16
203 -11 209 0 414 27 488 15 41 17 43 30 25 8 -10 27 -62 44 -114z m-3261
-351 c0 -38 -24 -35 -28 4 -2 19 1 27 12 27 11 0 16 -10 16 -31z m3512 -1404
c2 -19 3 -35 1 -35 -1 0 -10 12 -19 26 -15 22 -15 27 -3 35 8 5 15 9 15 9 1 0
4 -16 6 -35z m-1566 -210 c16 -8 47 -15 69 -15 22 0 62 -7 89 -15 27 -8 83
-15 124 -15 58 0 79 -4 99 -19 34 -27 98 -35 159 -18 62 16 129 5 244 -41 41
-17 87 -34 103 -37 22 -6 27 -13 27 -39 0 -18 -4 -36 -9 -42 -16 -17 -20 -92
-5 -98 19 -7 18 -61 -1 -79 -8 -9 -29 -18 -47 -22 -61 -12 -67 -16 -78 -51
-17 -51 -6 -81 39 -104 22 -11 42 -23 45 -28 3 -5 -1 -39 -9 -76 -8 -37 -19
-104 -25 -149 -6 -45 -25 -156 -42 -247 -26 -139 -39 -183 -84 -283 -52 -117
-133 -242 -183 -284 -14 -12 -44 -26 -67 -32 -44 -11 -80 -43 -69 -61 8 -14
-43 -75 -64 -75 -10 0 -15 -7 -13 -18 2 -11 -4 -17 -17 -17 -14 0 -19 -5 -15
-15 4 -10 0 -15 -11 -15 -9 0 -13 -5 -9 -11 3 -6 -7 -25 -24 -42 -16 -18 -35
-42 -41 -54 -10 -21 -6 -53 8 -53 3 0 12 -4 20 -9 10 -7 6 -20 -23 -62 -26
-38 -53 -106 -92 -229 -169 -532 -154 -502 -358 -725 -98 -107 -184 -213 -233
-287 -43 -64 -80 -117 -83 -117 -6 -1 449 3471 454 3477 2 1 23 6 47 11 24 5
45 9 45 10 1 1 15 -6 30 -14z m-3466 -718 c0 -5 -4 -5 -10 -2 -5 3 -10 14 -10
23 0 15 2 15 10 2 5 -8 10 -19 10 -23z m4480 -236 c16 -105 7 -160 -42 -251
-41 -78 -144 -237 -160 -246 -4 -3 3 21 17 53 30 66 45 131 85 366 15 92 34
175 41 183 22 27 45 -15 59 -105z m-4443 47 c-3 -8 -6 -5 -6 6 -1 11 2 17 5
13 3 -3 4 -12 1 -19z"/>
</g>
</svg>
