<?xml version="1.0" standalone="no"?>
<!DOCTYPE svg PUBLIC "-//W3C//DTD SVG 20010904//EN"
 "http://www.w3.org/TR/2001/REC-SVG-20010904/DTD/svg10.dtd">
<svg version="1.0" xmlns="http://www.w3.org/2000/svg"
 width="982.000000pt" height="1280.000000pt" viewBox="0 0 982.000000 1280.000000"
 preserveAspectRatio="xMidYMid meet">
<metadata>
Created by potrace 1.15, written by Peter Selinger 2001-2017
</metadata>
<g transform="translate(0.000000,1280.000000) scale(0.100000,-0.100000)"
fill="#000000" stroke="none">
<path d="M4480 12793 c-19 -2 -114 -10 -210 -18 -395 -35 -490 -50 -955 -152
-833 -183 -1584 -531 -2198 -1018 -144 -115 -460 -430 -568 -565 -165 -209
-309 -453 -392 -666 -83 -211 -157 -578 -157 -775 l0 -78 208 -283 c332 -451
3002 -4103 3381 -4625 128 -176 132 -183 117 -205 -19 -26 -21 -135 -6 -241
11 -78 51 -145 103 -178 26 -16 45 -19 97 -16 36 2 72 7 80 11 11 5 20 -6 33
-44 21 -60 107 -199 124 -200 6 0 23 -20 37 -45 22 -37 32 -45 55 -45 24 0 30
-5 34 -30 6 -29 8 -30 67 -30 33 0 60 -4 60 -8 0 -4 -25 -32 -56 -62 -93 -92
-91 -85 -97 -335 -4 -133 -12 -257 -22 -315 -22 -128 -17 -213 17 -265 14 -22
39 -87 54 -145 38 -141 38 -252 1 -365 -15 -44 -27 -100 -27 -125 0 -25 -8
-92 -17 -149 -14 -85 -15 -117 -6 -180 6 -42 9 -97 6 -123 -3 -27 1 -79 10
-120 19 -87 37 -256 47 -432 7 -126 7 -130 36 -154 l29 -25 0 -126 c0 -149 -3
-155 -120 -304 -44 -58 -78 -111 -81 -130 -3 -18 -12 -46 -20 -64 -13 -28 -13
-37 0 -68 21 -49 63 -65 173 -65 131 1 214 46 229 126 5 28 11 34 31 34 30 0
128 62 144 91 8 16 9 39 3 78 -14 89 -10 436 5 454 7 9 34 21 62 28 37 10 49
17 49 32 0 10 -17 82 -39 160 -49 181 -56 244 -36 320 22 86 19 144 -16 247
l-31 93 43 84 c42 81 44 90 44 172 1 48 6 100 12 117 6 16 16 65 23 109 7 57
18 91 36 117 42 60 55 115 61 251 l6 128 36 25 c31 21 38 22 55 10 11 -7 25
-33 32 -57 6 -24 21 -63 33 -86 36 -71 86 -321 75 -379 -8 -45 30 -186 56
-203 11 -7 20 -24 20 -36 0 -13 9 -52 20 -87 27 -87 26 -105 -20 -199 -36 -75
-40 -91 -40 -158 0 -108 18 -353 31 -427 10 -59 9 -66 -16 -123 -32 -71 -29
-100 17 -143 l30 -28 2 -233 c1 -215 3 -235 23 -279 18 -40 28 -49 71 -64 l50
-18 -1 -59 c-2 -52 1 -61 25 -82 64 -55 316 -59 377 -7 18 16 18 21 6 67 -8
28 -14 66 -15 85 -1 48 -28 104 -83 171 -25 30 -59 77 -76 104 -31 49 -31 49
-31 191 0 122 2 144 16 152 13 7 17 27 19 83 3 76 38 258 75 384 26 90 25 168
-2 275 -20 80 -21 92 -10 220 15 162 15 269 1 330 -6 25 -16 93 -21 153 l-11
107 28 26 28 26 -8 176 c-5 98 -9 328 -10 513 l0 336 -49 57 c-38 45 -49 65
-50 94 -1 45 21 102 40 102 7 0 41 -20 76 -45 103 -74 95 -73 177 -24 104 63
181 126 193 160 l10 29 59 -48 c277 -220 320 -247 348 -219 6 6 23 -1 45 -18
33 -25 35 -28 21 -48 -21 -30 -19 -34 17 -46 28 -10 35 -9 45 5 10 14 19 10
75 -37 35 -30 105 -85 155 -124 50 -38 93 -75 95 -81 2 -7 30 -32 63 -57 l60
-46 25 25 25 25 -60 56 c-33 30 -69 59 -80 63 -23 9 -318 246 -323 258 -1 5
25 42 58 83 33 40 60 76 60 80 0 4 -7 12 -16 20 -13 10 -30 10 -102 -4 l-86
-17 -60 58 c-34 32 -108 98 -166 149 l-106 91 -2 87 c-3 97 -6 105 -90 239
l-56 89 22 15 c18 12 22 24 22 72 l0 57 212 289 c116 159 895 1225 1732 2369
836 1144 1562 2135 1613 2203 l93 122 0 85 c0 394 -188 941 -443 1286 -357
485 -780 850 -1345 1161 -570 314 -1204 526 -1947 652 -273 46 -424 62 -735
81 -223 13 -770 18 -870 8z m-2879 -2507 c346 -73 632 -253 756 -474 38 -67
83 -196 83 -236 0 -41 47 -187 145 -453 53 -142 100 -267 105 -278 5 -11 32
-83 59 -160 27 -77 133 -369 236 -650 254 -695 460 -1262 475 -1310 7 -22 19
-51 26 -65 13 -24 391 -1060 501 -1372 l55 -157 -72 -83 c-40 -46 -85 -108
-100 -138 -34 -68 -81 -209 -105 -318 -10 -45 -22 -81 -26 -80 -10 4 -73 90
-1128 1533 -1133 1551 -2091 2860 -2286 3125 -288 391 -259 345 -257 411 3
114 63 246 161 351 182 198 450 324 791 374 149 21 434 12 581 -20z m2429 0
c297 -63 522 -179 678 -350 65 -72 99 -129 130 -220 l24 -71 5 -885 c3 -487 2
-1185 -2 -1552 l-7 -666 -27 -7 c-37 -9 -138 -62 -189 -98 -74 -53 -106 -126
-148 -332 -13 -66 -29 -135 -36 -154 -10 -31 -8 -36 12 -53 12 -10 35 -18 50
-18 28 0 60 -22 60 -41 0 -5 14 -23 30 -41 17 -17 30 -37 30 -45 0 -7 11 -36
25 -63 16 -31 25 -66 25 -95 0 -53 -13 -69 -104 -121 -53 -31 -66 -34 -135
-34 -50 0 -84 -5 -97 -14 -11 -8 -45 -22 -76 -31 -74 -21 -91 -40 -58 -65 14
-10 23 -20 20 -23 -3 -2 -21 -14 -40 -27 -19 -13 -52 -39 -72 -58 -21 -20 -39
-34 -41 -31 -2 2 -47 126 -101 274 -188 518 -347 950 -356 970 -5 11 -52 139
-104 285 -52 146 -253 697 -446 1225 -598 1633 -573 1559 -567 1635 20 278
268 531 640 655 199 66 338 85 582 80 142 -3 204 -9 295 -29z m2395 9 c144
-23 261 -61 390 -125 221 -109 367 -242 447 -408 35 -72 41 -93 45 -170 4 -74
2 -95 -17 -142 -25 -61 -125 -333 -199 -540 -27 -74 -167 -457 -311 -850 -144
-393 -281 -769 -305 -835 -23 -66 -54 -149 -68 -185 -14 -36 -71 -193 -127
-350 -56 -157 -106 -294 -111 -305 -11 -23 -243 -656 -361 -985 -45 -124 -84
-229 -89 -234 -4 -5 -21 1 -38 13 -17 12 -60 35 -96 52 l-65 29 0 49 c0 101
-20 116 -175 128 -72 5 -84 9 -117 39 -20 18 -48 40 -62 49 -34 23 -33 51 4
145 16 41 29 85 30 98 0 24 10 28 27 11 14 -14 43 15 43 44 0 50 12 69 36 63
13 -4 35 -4 49 0 24 6 24 8 19 68 -7 73 -85 328 -124 406 -53 103 -124 150
-228 150 l-59 0 -6 83 c-11 130 -8 2953 3 3033 13 104 53 191 128 281 194 232
467 355 902 407 67 8 346 -4 435 -19z m2333 14 c219 -24 378 -69 542 -155 226
-120 379 -287 434 -473 25 -86 21 -135 -16 -189 -157 -230 -3573 -4902 -3584
-4902 -2 0 -13 19 -25 42 -12 24 -40 63 -64 88 -24 25 -64 86 -90 135 -25 50
-77 129 -116 177 l-69 87 60 171 c33 94 142 392 241 663 100 270 226 616 280
767 55 151 104 284 109 295 5 11 54 144 109 295 54 151 161 444 236 650 445
1212 572 1571 579 1633 29 266 291 524 653 645 210 71 481 98 721 71z m-2918
-6279 l35 -29 -42 -1 c-41 0 -43 1 -43 30 0 37 7 37 50 0z m125 -100 c10 -11
14 -20 9 -20 -5 0 -15 9 -22 20 -7 11 -11 20 -9 20 2 0 12 -9 22 -20z m759
-287 c-17 -76 -18 -77 -76 -31 l-40 33 29 12 c15 7 43 12 61 13 30 0 32 -2 26
-27z m-88 -71 c-4 -3 -14 2 -24 12 -16 18 -16 18 6 6 13 -6 21 -14 18 -18z"/>
</g>
</svg>
