<?xml version="1.0" standalone="no"?>
<!DOCTYPE svg PUBLIC "-//W3C//DTD SVG 20010904//EN"
 "http://www.w3.org/TR/2001/REC-SVG-20010904/DTD/svg10.dtd">
<svg version="1.0" xmlns="http://www.w3.org/2000/svg"
 width="1280.000000pt" height="1280.000000pt" viewBox="0 0 1280.000000 1280.000000"
 preserveAspectRatio="xMidYMid meet">
<metadata>
Created by potrace 1.15, written by Peter Selinger 2001-2017
</metadata>
<g transform="translate(0.000000,1280.000000) scale(0.100000,-0.100000)"
fill="#000000" stroke="none">
<path d="M3755 12278 c-50 -28 -60 -85 -22 -121 12 -12 104 -65 204 -117 l181
-95 35 -60 c93 -162 232 -312 492 -532 338 -285 653 -521 905 -678 52 -32 97
-60 99 -62 3 -2 -6 -11 -20 -20 -13 -9 -76 -67 -139 -128 -63 -61 -134 -126
-158 -144 -24 -19 -65 -66 -92 -106 -26 -39 -60 -79 -75 -89 -16 -11 -62 -21
-122 -27 -106 -11 -189 -39 -302 -101 l-75 -41 -90 6 c-50 4 -131 9 -181 13
-86 6 -94 5 -189 -30 -55 -20 -101 -34 -104 -32 -2 3 5 21 17 41 23 39 27 75
11 91 -15 15 7 70 36 89 17 11 24 25 24 49 0 26 5 35 21 39 21 6 22 10 15 89
-3 46 -9 93 -12 106 -4 15 0 29 11 42 16 17 16 25 5 64 -7 25 -11 80 -9 129 4
80 6 86 36 114 66 62 78 148 42 307 -27 122 -26 119 -44 108 -23 -13 -85 -103
-85 -124 0 -22 -16 -24 -24 -3 -3 8 -14 15 -24 15 -11 0 -54 16 -96 35 -147
67 -185 75 -345 75 -162 0 -240 -14 -323 -56 -66 -33 -148 -117 -178 -180 -25
-54 -49 -173 -50 -245 0 -35 -6 -51 -25 -69 -14 -13 -25 -30 -25 -38 0 -27 53
-137 77 -159 38 -36 100 -160 127 -257 28 -97 35 -219 15 -291 -13 -50 -28
-65 -214 -229 -206 -182 -251 -217 -357 -280 -154 -90 -200 -149 -267 -339
-17 -50 -35 -128 -41 -179 -11 -99 -25 -127 -86 -173 -100 -77 -349 -540 -405
-755 -12 -48 -8 -123 16 -281 7 -52 16 -114 20 -139 33 -245 73 -434 116 -546
57 -148 80 -219 110 -339 16 -66 39 -146 51 -178 11 -32 18 -60 16 -63 -3 -2
-133 -65 -289 -138 -156 -73 -396 -186 -534 -251 -381 -179 -726 -341 -864
-406 -68 -33 -127 -59 -130 -59 -4 0 -17 -9 -29 -20 -33 -31 -30 -92 4 -119
15 -12 36 -21 47 -21 11 0 85 31 166 69 80 38 292 137 471 221 179 84 390 183
470 221 80 37 293 138 475 222 l329 155 39 -14 c22 -8 54 -14 72 -14 32 0 156
41 243 80 47 22 50 20 23 -18 -10 -15 -53 -108 -95 -207 -198 -464 -244 -561
-420 -875 -68 -123 -132 -221 -213 -325 -162 -210 -222 -305 -318 -500 -113
-228 -157 -361 -159 -477 -1 -70 2 -91 16 -105 17 -16 19 -16 47 5 17 12 32
22 35 22 2 0 10 -25 17 -56 12 -51 38 -83 46 -57 2 5 10 19 17 29 14 18 15 18
35 0 12 -11 21 -24 21 -29 0 -15 -111 -256 -137 -299 -15 -24 -23 -53 -23 -80
0 -38 -8 -52 -61 -118 -34 -41 -89 -115 -122 -165 -64 -96 -123 -165 -143
-165 -6 0 -22 -8 -35 -19 l-23 -18 25 -16 c45 -29 108 -37 179 -22 85 19 130
19 130 1 0 -24 30 -39 76 -38 52 0 87 20 109 62 10 20 23 30 39 30 37 0 63 39
96 145 17 55 44 136 60 180 35 97 53 168 76 302 14 85 19 100 29 86 14 -19 33
-10 45 23 l10 25 27 -31 c33 -35 40 -32 80 34 l30 48 11 -29 c12 -37 72 -75
109 -71 23 2 31 12 50 58 23 57 27 55 35 -20 5 -42 32 -36 54 12 14 32 19 64
18 130 0 49 1 88 3 88 1 0 9 -16 17 -35 27 -64 50 -59 117 24 102 125 99 120
99 185 l1 61 19 -37 c11 -20 25 -40 31 -44 20 -12 37 25 45 94 4 37 8 69 9 72
1 3 5 43 9 90 6 66 4 99 -9 150 -43 172 -92 254 -178 300 l-44 23 74 70 c41
39 86 87 101 108 56 78 224 259 241 259 30 0 49 -32 60 -100 8 -48 32 -108 90
-225 44 -88 105 -225 135 -305 56 -147 170 -368 251 -491 55 -81 116 -139 149
-139 26 0 172 58 212 85 40 26 57 63 70 153 7 48 24 121 39 162 l27 75 -11
150 c-16 210 -18 345 -5 345 13 0 58 -47 74 -79 19 -38 14 -101 -15 -170 -24
-59 -27 -91 -7 -91 5 0 33 18 62 40 29 22 57 40 60 40 4 0 10 -28 12 -63 6
-72 27 -119 64 -144 32 -21 44 -7 44 55 0 23 3 42 8 42 4 0 16 -17 27 -37 37
-68 46 -56 43 64 -2 78 1 118 12 143 l15 35 6 -30 c4 -16 7 -56 8 -87 1 -53
12 -80 25 -59 4 5 20 63 37 128 37 141 99 337 105 330 3 -2 9 -60 14 -128 9
-129 23 -182 78 -300 58 -124 88 -119 72 12 -6 46 -13 143 -15 214 -6 170 10
127 30 -82 13 -132 20 -167 54 -255 43 -115 113 -356 142 -493 10 -49 26 -154
35 -232 l16 -142 -27 -108 c-37 -144 -38 -212 -5 -248 55 -59 59 -60 380 -60
322 -1 289 4 478 -69 107 -42 292 -68 336 -48 55 25 39 142 -19 142 -18 0 -28
8 -38 33 -19 44 -78 94 -124 105 -21 5 -60 14 -88 21 -54 13 -122 46 -280 135
-115 65 -205 152 -205 199 0 26 2 27 50 27 54 0 64 10 26 28 l-23 10 0 189 c0
104 -5 256 -12 339 -6 82 -15 248 -20 369 -10 263 -19 299 -91 378 l-50 55 15
48 c28 93 22 109 -105 266 -94 117 -82 91 -216 453 -36 99 -81 210 -100 246
-18 37 -31 69 -27 72 3 3 -2 40 -11 81 -13 56 -31 96 -73 163 -116 183 -113
172 -113 313 0 231 -33 356 -120 460 -22 26 -40 52 -40 57 0 6 29 22 65 38 36
15 75 40 88 55 12 15 81 58 152 95 72 38 147 79 169 93 33 21 42 22 67 11 57
-23 105 -5 444 166 543 275 752 385 770 406 15 16 16 21 5 35 -19 22 -38 17
-357 -92 -251 -87 -665 -254 -833 -337 -60 -30 -66 -36 -79 -78 l-14 -47 -176
-66 c-97 -36 -191 -66 -209 -66 -18 0 -46 -7 -62 -15 l-28 -15 -6 63 c-3 34
-10 134 -16 222 -5 88 -17 255 -25 370 -9 116 -22 305 -30 420 -17 231 -31
337 -70 525 -14 69 -29 157 -32 195 -9 123 30 156 276 226 172 49 260 89 371
169 82 59 136 88 295 157 80 35 221 117 260 150 12 10 41 45 65 78 24 33 63
82 87 109 44 49 171 246 194 301 7 17 14 31 15 33 1 2 73 -23 161 -56 87 -33
212 -76 278 -97 66 -20 140 -42 165 -50 302 -92 620 -150 970 -176 l164 -12
286 -149 c157 -83 326 -172 377 -199 50 -27 100 -49 111 -49 12 0 33 11 48 23
30 26 37 74 15 101 -7 8 -83 52 -169 97 -465 243 -490 257 -498 282 -26 84
-479 601 -717 818 -232 212 -545 426 -942 643 -496 272 -728 346 -1330 422
-237 30 -312 36 -490 37 l-210 1 -110 59 c-144 77 -283 147 -292 147 -5 0 -17
-6 -28 -12z m-787 -3665 c33 -49 71 -113 85 -143 14 -30 46 -100 72 -155 147
-312 220 -494 245 -608 l13 -56 -47 -78 c-80 -133 -159 -236 -204 -266 -23
-16 -54 -45 -67 -65 -36 -53 -104 -229 -134 -351 l-27 -104 -152 -3 c-84 -1
-161 -6 -172 -9 -52 -17 -78 29 -133 235 -49 186 -63 270 -49 309 11 31 5 151
-19 396 -13 143 -7 162 119 373 55 92 130 223 168 292 126 233 188 320 226
320 11 0 39 -32 76 -87z"/>
<path d="M10977 8872 c-15 -9 -30 -25 -33 -35 -7 -21 -145 -176 -171 -191 -15
-9 -123 -16 -233 -15 -87 1 -138 -3 -174 -12 -23 -6 -74 -13 -114 -15 -40 -2
-90 -8 -110 -14 -20 -5 -49 -10 -65 -10 -15 0 -35 -5 -45 -10 -18 -11 -114
-45 -167 -59 -26 -8 -108 -46 -186 -87 -14 -8 -53 -37 -86 -66 -110 -98 -118
-104 -150 -117 -17 -7 -87 -65 -155 -128 -68 -63 -134 -120 -148 -126 -14 -6
-41 -27 -61 -47 -20 -19 -67 -62 -104 -95 -38 -33 -82 -75 -99 -92 -16 -18
-35 -33 -41 -33 -6 0 -22 -12 -36 -26 -23 -25 -132 -104 -144 -104 -3 0 -28
-16 -56 -35 -31 -22 -93 -49 -162 -71 -186 -59 -208 -68 -397 -156 -52 -24
-119 -55 -149 -69 -30 -13 -84 -45 -119 -71 -36 -27 -69 -48 -74 -48 -13 0
-141 -85 -157 -104 -7 -9 -21 -16 -30 -16 -9 0 -24 -7 -35 -15 -12 -9 -33 -12
-65 -8 -35 4 -58 0 -91 -16 -78 -36 -99 -32 -155 29 -94 102 -147 155 -154
155 -4 0 -32 25 -62 55 -30 30 -113 109 -183 175 -71 66 -140 131 -155 146
-46 45 -224 155 -294 183 -58 22 -82 26 -177 26 -60 0 -111 -4 -115 -9 -3 -5
-29 -17 -58 -26 -28 -9 -60 -21 -70 -26 -10 -6 -60 -15 -110 -20 -106 -12
-141 -25 -145 -56 -2 -16 6 -28 30 -43 29 -19 43 -20 118 -15 47 3 94 12 105
19 20 13 104 30 203 41 102 11 169 -22 291 -144 137 -138 222 -240 318 -381
28 -41 69 -93 92 -115 23 -21 41 -43 41 -48 0 -5 11 -22 25 -39 32 -38 48
-101 42 -165 -7 -67 -93 -244 -146 -300 -22 -23 -44 -55 -47 -70 -4 -16 -17
-50 -30 -78 -27 -61 -63 -162 -67 -192 -2 -11 -8 -27 -14 -35 -31 -39 -84
-262 -117 -488 -8 -52 -21 -126 -29 -165 -8 -38 -23 -113 -32 -165 -9 -52 -21
-108 -27 -125 -5 -16 -13 -50 -18 -75 -28 -142 -33 -153 -75 -173 -44 -21 -64
-61 -87 -170 -10 -48 -31 -121 -47 -161 -16 -39 -34 -105 -40 -144 -6 -40 -20
-100 -30 -135 -11 -34 -27 -87 -35 -117 -9 -31 -26 -71 -38 -90 -15 -26 -23
-60 -28 -128 -4 -51 -12 -98 -18 -104 -17 -17 -15 -63 3 -99 12 -22 13 -34 5
-50 -14 -25 2 -100 30 -147 15 -24 27 -32 49 -32 20 0 34 -8 45 -25 15 -23 56
-35 56 -17 0 5 25 35 55 67 30 31 55 61 55 66 0 5 11 14 24 20 26 12 28 29 41
298 3 62 10 134 16 160 6 25 12 79 15 119 5 72 36 175 68 225 9 13 14 26 11
29 -9 9 19 51 69 103 48 51 57 64 97 145 13 25 27 47 32 49 5 2 28 45 52 96
23 51 48 96 55 100 7 4 22 28 34 54 12 25 41 73 66 106 24 33 54 79 67 102 57
108 74 115 62 26 -5 -32 -11 -103 -13 -158 -9 -168 -39 -270 -98 -331 -30 -32
-40 -50 -42 -81 -2 -23 -6 -45 -9 -49 -9 -17 -18 -70 -18 -119 0 -28 -8 -86
-17 -130 -9 -44 -17 -109 -18 -145 -3 -89 -43 -427 -56 -472 -11 -38 -6 -105
11 -151 7 -18 18 -27 33 -27 l23 0 -25 -20 -25 -19 25 -26 c31 -33 64 -51 111
-58 33 -5 41 -1 83 39 29 29 46 54 46 69 0 13 10 34 23 47 13 13 29 40 36 60
10 32 10 43 -4 71 -17 37 -45 190 -45 255 0 48 44 246 68 304 8 21 15 45 16
55 2 24 80 185 120 248 70 110 84 132 109 185 25 53 72 173 84 215 3 11 11 27
18 35 7 8 24 38 38 65 14 28 41 81 61 119 20 39 36 75 36 82 0 6 7 17 15 24 8
7 15 21 15 31 0 20 6 33 54 114 59 99 163 230 197 250 9 6 32 24 51 40 92 83
295 130 553 127 151 -2 337 14 380 33 17 7 56 18 86 24 47 10 61 19 99 63 25
28 64 59 87 70 23 10 45 23 48 28 3 5 33 22 67 39 33 17 79 44 102 61 22 17
84 59 136 93 52 35 115 78 140 96 25 18 74 52 110 76 36 25 84 59 108 77 37
28 55 33 150 45 59 7 136 17 171 21 43 6 72 5 86 -2 20 -11 71 -57 166 -147
96 -94 139 -102 284 -55 61 20 114 36 118 36 5 0 32 11 60 24 29 13 70 29 92
35 22 7 49 17 60 22 55 25 139 47 154 39 9 -5 38 -19 65 -32 27 -13 51 -31 54
-40 6 -23 50 -35 145 -41 43 -3 84 -11 92 -17 9 -8 34 -9 72 -5 162 18 165 19
183 85 19 70 46 88 106 72 66 -18 118 -15 147 8 18 15 34 19 52 14 21 -5 32 1
71 42 25 27 59 63 76 80 27 28 30 36 25 74 -3 23 -12 49 -20 58 -19 22 -57
137 -57 173 0 33 -26 51 -59 42 -17 -4 -30 2 -48 21 -18 20 -32 26 -47 22 -11
-3 -55 -11 -97 -17 -72 -11 -79 -11 -111 9 -20 12 -46 22 -58 22 -13 0 -37 11
-55 24 -29 22 -35 23 -57 12 -16 -8 -31 -10 -39 -5 -8 5 -40 11 -72 15 -31 4
-60 11 -64 17 -3 5 13 25 36 44 26 23 41 43 41 58 0 17 12 30 48 51 26 15 53
34 60 41 8 7 18 11 23 8 5 -4 9 3 9 14 0 12 7 21 15 21 17 0 20 16 5 25 -5 3
-10 24 -10 45 0 29 5 42 20 50 56 30 57 141 2 228 -17 26 -41 74 -53 107 -12
33 -29 70 -36 82 -8 12 -17 51 -20 85 -8 79 -30 131 -81 191 -23 26 -56 68
-73 93 -28 41 -31 51 -25 93 4 25 9 81 13 124 5 67 4 77 -11 77 -9 0 -19 -7
-22 -15 -9 -22 -104 -65 -144 -65 -25 0 -43 7 -56 21 -10 12 -31 27 -46 35
-27 14 -28 17 -28 103 0 75 -4 95 -26 137 -40 76 -65 89 -117 56z m62 -1579
c13 -3 48 2 77 11 51 16 56 16 90 0 34 -16 74 -65 74 -90 0 -6 -13 -9 -32 -7
-18 2 -78 3 -133 3 -84 -1 -105 3 -132 19 -31 19 -33 25 -33 75 l0 55 33 -30
c17 -16 43 -32 56 -36z"/>
<path d="M6490 3599 c0 -5 5 -7 10 -4 6 3 10 8 10 11 0 2 -4 4 -10 4 -5 0 -10
-5 -10 -11z"/>
</g>
</svg>
