<?xml version="1.0" standalone="no"?>
<!DOCTYPE svg PUBLIC "-//W3C//DTD SVG 20010904//EN"
 "http://www.w3.org/TR/2001/REC-SVG-20010904/DTD/svg10.dtd">
<svg version="1.0" xmlns="http://www.w3.org/2000/svg"
 width="1280.000000pt" height="1042.000000pt" viewBox="0 0 1280.000000 1042.000000"
 preserveAspectRatio="xMidYMid meet">
<metadata>
Created by potrace 1.15, written by Peter Selinger 2001-2017
</metadata>
<g transform="translate(0.000000,1042.000000) scale(0.100000,-0.100000)"
fill="#000000" stroke="none">
<path d="M3926 10396 c9 -35 -11 -56 -53 -56 -33 0 -34 -2 -28 -28 4 -18 -1
-45 -13 -73 -17 -39 -27 -48 -67 -63 -39 -15 -50 -26 -65 -60 -10 -22 -21 -67
-25 -98 -6 -52 -11 -61 -51 -97 -24 -21 -84 -65 -132 -97 -97 -64 -202 -160
-234 -213 -29 -48 -35 -51 -92 -51 l-49 0 -98 103 c-62 64 -115 111 -146 126
-26 13 -64 34 -83 47 -61 40 -245 74 -397 74 -118 0 -139 -3 -204 -27 -99 -36
-202 -116 -337 -259 -62 -66 -119 -129 -126 -140 -7 -10 -50 -91 -94 -179 -81
-161 -115 -247 -134 -340 -5 -27 -13 -66 -18 -85 -5 -19 -13 -66 -18 -103 -10
-63 -15 -73 -61 -122 -73 -77 -68 -106 25 -157 34 -19 62 -22 228 -27 152 -5
190 -9 194 -20 3 -8 20 -29 39 -45 l33 -31 -20 -110 c-11 -60 -20 -133 -20
-162 0 -59 -4 -57 105 -68 68 -7 85 -19 104 -72 19 -53 38 -72 80 -79 48 -9
61 -21 61 -55 0 -33 31 -65 72 -74 16 -4 31 -12 33 -18 2 -7 9 -33 16 -59 13
-48 37 -68 80 -68 12 0 46 18 78 40 31 22 66 40 76 40 11 0 34 8 50 17 20 11
51 16 92 15 35 0 65 3 68 9 8 12 55 12 55 -1 0 -6 18 -7 44 -4 70 10 69 -11
-3 -75 -76 -69 -80 -96 -23 -132 20 -14 50 -30 65 -37 33 -14 99 -16 112 -3
11 10 95 26 95 18 0 -9 -82 -198 -100 -229 -16 -28 -12 -38 14 -38 14 0 27 -4
30 -9 3 -5 23 -12 43 -16 21 -4 50 -13 65 -21 16 -8 41 -21 57 -29 16 -8 34
-15 41 -15 6 0 26 -11 43 -24 18 -13 48 -31 68 -40 20 -9 46 -26 57 -36 28
-26 57 -109 71 -200 11 -71 33 -137 86 -260 13 -30 27 -72 30 -92 4 -21 25
-73 46 -115 44 -87 49 -137 23 -203 -13 -32 -14 -49 -6 -83 19 -75 3 -143 -52
-214 -33 -44 -54 -63 -69 -63 -38 0 -67 -28 -67 -64 0 -26 21 -63 100 -171 55
-76 103 -150 106 -164 11 -50 15 -56 49 -81 45 -32 44 -47 -2 -56 -21 -4 -432
-3 -913 3 -485 5 -893 6 -915 1 -115 -24 -227 -30 -510 -25 -165 3 -311 9
-324 14 -14 6 -28 23 -35 43 -15 45 -55 68 -90 52 -15 -6 -26 -20 -26 -31 0
-30 -22 -41 -111 -51 -139 -17 -139 -17 -139 -55 0 -30 3 -33 35 -39 20 -4 51
-21 71 -38 39 -34 5 -30 374 -48 112 -6 219 -16 238 -22 27 -10 41 -9 81 5 42
15 64 16 162 8 63 -5 123 -13 134 -17 27 -9 75 -55 75 -70 0 -19 40 -54 61
-54 9 0 29 14 44 32 l26 31 207 -7 c114 -4 290 -11 392 -17 102 -5 277 -13
390 -18 113 -5 240 -13 282 -17 52 -4 92 -3 122 6 50 14 115 1 156 -30 20 -15
21 -20 11 -57 -7 -25 -27 -57 -52 -82 -22 -22 -53 -56 -67 -75 -15 -19 -57
-72 -93 -118 -122 -154 -149 -237 -149 -462 l0 -148 41 -49 c22 -27 62 -97 88
-156 53 -118 90 -200 128 -280 13 -30 54 -83 93 -123 38 -38 73 -82 76 -98 4
-15 21 -49 38 -77 74 -122 96 -144 184 -190 58 -30 67 -41 77 -102 8 -48 54
-125 87 -146 15 -9 61 -17 128 -20 116 -5 151 -18 186 -71 118 -177 228 -324
303 -404 177 -187 311 -363 311 -406 0 -15 4 -26 10 -26 5 0 12 -11 16 -25 3
-14 25 -41 49 -60 37 -31 44 -43 54 -98 26 -130 25 -164 -4 -233 -15 -35 -31
-64 -36 -64 -5 0 -9 -8 -9 -18 0 -10 -17 -45 -38 -78 -21 -32 -53 -83 -72
-111 -18 -29 -45 -61 -59 -70 -59 -39 -118 -63 -154 -63 -21 0 -48 -5 -60 -12
-12 -6 -42 -15 -67 -19 -207 -34 -385 -164 -355 -259 7 -21 116 -80 148 -80
10 0 17 -4 17 -10 0 -5 9 -10 19 -10 11 0 32 -5 48 -12 15 -6 33 -12 38 -14
20 -5 111 -25 155 -34 62 -12 399 -12 485 1 39 5 102 14 141 19 68 8 150 29
204 52 14 6 60 14 102 18 61 5 84 12 112 33 19 15 38 27 42 27 4 0 16 8 27 17
17 16 38 18 169 16 119 -2 155 1 171 12 12 8 36 15 53 15 17 0 37 7 44 15 7 8
19 15 28 15 9 0 53 19 99 41 106 52 109 58 94 202 -12 107 -41 206 -97 324
-38 82 -181 251 -266 316 -20 16 -38 38 -40 49 -2 14 -21 30 -55 47 -37 18
-56 35 -64 56 -7 17 -41 59 -76 94 -35 35 -63 70 -63 76 0 6 -11 22 -25 35
-14 13 -25 31 -25 41 0 9 -16 33 -35 52 -19 19 -35 44 -35 55 0 11 -10 33 -23
49 -13 15 -32 41 -42 57 -11 16 -28 41 -38 55 -9 14 -31 55 -48 91 -17 36 -34
67 -38 70 -4 3 -28 48 -54 100 -26 52 -62 121 -80 152 -18 32 -43 77 -56 100
-13 24 -27 45 -31 48 -4 3 -22 33 -40 68 -18 35 -41 69 -51 75 -11 7 -19 17
-19 24 0 6 -16 29 -35 50 -19 21 -35 42 -35 46 0 5 -10 17 -22 26 -26 21 -17
41 19 41 24 0 25 2 20 40 -5 38 -4 40 29 46 24 4 41 1 61 -13 15 -11 44 -26
63 -33 19 -8 46 -22 59 -32 13 -10 29 -18 35 -18 6 0 23 -11 38 -25 15 -14 36
-25 47 -25 11 0 23 -5 26 -10 7 -12 73 -43 120 -57 17 -5 34 -19 40 -30 9 -22
43 -33 103 -33 20 0 63 -7 96 -16 136 -35 172 -45 201 -56 17 -6 48 -13 70
-15 22 -2 49 -8 60 -13 11 -5 43 -11 71 -14 47 -4 182 -44 194 -56 16 -16 105
-50 132 -50 68 0 113 -27 160 -98 25 -37 78 -116 118 -177 40 -60 90 -131 111
-157 22 -28 47 -77 60 -118 17 -56 38 -90 105 -174 46 -57 107 -122 136 -145
29 -22 58 -44 63 -49 6 -4 26 -19 45 -32 83 -58 109 -86 148 -163 26 -51 43
-70 90 -100 31 -20 63 -37 70 -37 6 0 12 -4 12 -9 0 -11 374 -26 430 -16 40 7
44 10 68 67 29 66 35 68 111 28 20 -11 48 -24 63 -30 14 -6 55 -44 90 -83 90
-103 138 -148 189 -180 25 -16 59 -52 79 -83 19 -30 44 -57 55 -60 17 -5 121
-70 135 -84 3 -3 26 -21 53 -40 26 -19 64 -50 85 -67 20 -18 43 -33 50 -33 6
0 12 -4 12 -9 0 -5 10 -13 23 -17 12 -4 24 -10 27 -14 18 -25 132 -115 168
-131 31 -14 42 -25 42 -42 1 -25 27 -60 52 -70 10 -3 20 -19 24 -34 8 -36 32
-63 54 -63 18 0 70 -94 70 -126 0 -18 -30 -79 -78 -156 l-35 -58 -4698 0
-4699 0 0 -140 0 -140 6400 0 6400 0 0 140 0 140 -1008 0 -1008 0 -12 75 c-11
72 -38 138 -72 175 -8 9 -58 71 -110 137 -88 112 -100 124 -170 159 -86 45
-200 127 -280 203 -30 28 -65 58 -77 66 -11 8 -27 31 -33 52 -14 43 -56 93
-79 93 -25 0 -95 83 -131 153 -33 66 -57 98 -84 114 -7 4 -41 51 -74 104 -41
63 -77 106 -106 127 -59 42 -83 78 -98 142 -10 43 -19 58 -52 81 -21 16 -47
29 -56 29 -35 0 -69 39 -76 87 -6 39 -19 59 -85 133 -43 48 -97 103 -121 122
-24 20 -56 55 -73 78 -16 24 -49 64 -73 90 -23 26 -54 76 -68 111 -14 35 -35
72 -47 82 -65 54 -103 77 -127 77 -15 0 -43 13 -63 29 -20 15 -50 34 -67 41
-19 8 -36 25 -45 46 -9 21 -25 38 -42 44 -15 6 -43 17 -60 25 -18 8 -48 21
-65 29 -18 8 -59 20 -91 26 -69 14 -77 26 -77 116 0 83 -25 130 -73 139 -100
20 -169 107 -141 179 6 16 79 69 118 87 12 5 48 25 81 45 33 19 79 43 101 54
23 10 45 23 49 29 3 6 21 18 38 26 48 23 75 40 100 62 12 11 42 33 67 49 25
16 68 47 96 69 28 22 76 58 108 80 31 22 110 79 174 127 64 48 130 90 147 94
16 4 41 14 55 24 14 9 38 20 54 24 17 4 43 17 59 28 27 19 29 25 24 66 l-5 45
127 -8 c69 -3 149 -11 176 -17 28 -5 88 -13 135 -18 47 -5 103 -12 125 -15 22
-3 45 -2 52 2 32 22 41 262 14 363 -32 121 -64 211 -81 232 -18 22 -23 23
-207 25 -644 7 -1623 26 -1707 32 -66 6 -101 13 -107 22 -21 34 -9 137 27 234
37 99 38 108 22 248 -3 30 11 38 192 104 113 42 245 94 256 101 32 21 43 92
24 162 -38 143 -53 200 -60 230 -4 19 -31 124 -58 232 -50 195 -51 198 -127
321 l-76 125 21 36 c21 39 26 89 11 128 -14 37 -86 69 -175 79 -43 4 -84 13
-89 18 -21 21 -77 7 -224 -53 -49 -21 -80 -26 -143 -26 -45 0 -90 -5 -100 -10
-20 -11 -60 1 -92 28 -18 15 -17 19 45 115 21 32 37 65 35 74 -2 8 -19 21 -38
27 -32 10 -35 14 -32 47 2 26 -4 41 -20 56 -29 26 -366 253 -377 253 -4 0 -27
14 -51 31 -41 30 -42 32 -36 74 6 47 9 44 -90 110 -9 6 -16 29 -18 55 -2 32
-15 67 -46 120 -94 161 -130 207 -237 301 -102 89 -109 94 -192 116 -47 13
-96 23 -108 23 -12 0 -24 3 -26 8 -11 17 14 116 33 137 l21 23 57 -34 c31 -19
61 -39 66 -44 6 -6 21 -10 36 -10 14 0 55 -10 93 -22 89 -29 85 -34 114 136 3
22 19 59 36 84 25 37 32 61 44 160 8 64 21 131 29 149 9 17 13 37 9 43 -4 7
-13 39 -20 72 -12 58 -11 60 11 75 22 14 29 13 76 -3 29 -11 55 -21 58 -24 3
-3 32 -14 65 -24 33 -10 73 -25 88 -33 16 -8 63 -27 105 -42 158 -58 248 -92
277 -105 17 -8 50 -20 75 -27 25 -7 50 -16 55 -20 12 -8 126 -53 180 -70 22
-7 62 -23 89 -36 28 -13 58 -23 67 -23 10 0 20 -4 23 -9 3 -4 34 -18 68 -30
35 -12 83 -31 108 -41 25 -10 86 -35 136 -55 141 -54 321 -133 409 -178 132
-67 154 -77 163 -77 6 0 23 -7 38 -15 39 -20 56 -19 89 7 38 29 55 76 55 148
l0 60 -52 24 c-46 21 -133 56 -203 81 -11 4 -45 13 -75 21 -30 8 -64 18 -75
23 -11 5 -74 26 -140 47 -66 21 -129 44 -140 51 -11 7 -26 13 -34 13 -9 0 -56
16 -106 36 -49 20 -99 39 -110 43 -11 4 -45 20 -75 34 -30 15 -61 27 -69 27
-12 0 -156 54 -326 124 -44 18 -96 39 -115 46 -19 7 -39 17 -44 22 -6 4 -16 8
-23 8 -7 0 -36 11 -65 25 -28 14 -57 25 -63 25 -6 0 -28 9 -50 20 -21 11 -54
25 -74 31 -20 6 -54 19 -76 30 -22 10 -74 32 -115 49 -41 17 -97 42 -125 55
-70 32 -111 50 -175 75 -30 12 -66 32 -80 46 -21 19 -42 26 -115 34 -50 5
-112 16 -140 24 -353 102 -465 146 -465 182 0 24 -51 73 -82 80 -18 3 -39 10
-48 15 -8 4 -36 17 -62 29 -45 20 -48 24 -68 90 -20 63 -30 78 -113 162 l-91
93 -135 -3 c-138 -3 -210 1 -681 38 -237 19 -267 23 -282 41 -12 14 -15 30
-11 53 5 30 3 35 -18 38 -20 2 -24 9 -24 38 0 31 -3 35 -28 38 -25 3 -27 1
-21 -22z m1851 -933 l117 -56 -35 -29 c-18 -16 -59 -36 -89 -44 -30 -8 -67
-20 -82 -26 -33 -12 -43 -7 -65 40 -10 20 -44 62 -76 93 l-58 56 28 11 c78 31
115 24 260 -45z m295 -1254 c46 -23 99 -54 118 -69 19 -14 62 -43 95 -63 82
-49 125 -97 177 -199 50 -97 47 -108 -22 -88 -52 15 -134 12 -179 -6 -37 -15
-41 -14 -88 10 -66 33 -79 49 -64 82 18 40 13 57 -29 103 -22 23 -40 48 -40
55 0 7 -11 18 -25 24 -17 8 -24 19 -23 35 2 26 -33 82 -63 97 -25 14 -25 40 0
40 11 0 23 5 26 10 10 17 31 12 117 -31z m-2437 -1313 c25 -11 48 -35 81 -88
57 -87 209 -342 279 -464 27 -49 67 -110 88 -137 22 -27 35 -52 31 -57 -5 -4
-41 -12 -80 -18 -70 -12 -100 -8 -156 18 -37 18 -98 145 -109 230 -9 69 -27
127 -79 250 -28 67 -100 266 -100 276 0 7 9 5 45 -10z m495 -482 c59 -29 111
-47 144 -50 84 -8 100 -14 87 -27 -6 -6 -11 -22 -11 -34 0 -43 -31 -177 -46
-201 -26 -40 -52 -24 -130 78 -50 66 -80 115 -95 160 -12 36 -28 77 -36 93 -7
15 -12 27 -9 27 2 0 45 -21 96 -46z m4230 -1903 c58 -6 126 -18 152 -26 26 -8
68 -15 95 -16 48 0 96 -7 208 -28 33 -7 82 -16 108 -20 70 -12 74 -22 29 -67
-21 -21 -75 -84 -119 -140 -45 -55 -93 -109 -108 -118 -15 -10 -53 -43 -84
-74 -31 -30 -80 -73 -109 -96 -97 -74 -257 -186 -266 -186 -5 0 -41 -20 -80
-44 -39 -24 -82 -47 -96 -51 -14 -4 -42 -19 -63 -32 -22 -14 -45 -22 -51 -20
-16 6 -26 76 -19 121 3 17 -2 72 -10 121 -8 50 -18 115 -22 145 -3 30 -12 84
-20 120 -13 61 -27 168 -40 322 l-6 67 38 9 c21 5 56 14 78 20 48 12 241 9
385 -7z m-2577 -293 c10 -7 25 -27 35 -45 59 -108 72 -133 65 -133 -5 0 -1 -6
8 -13 8 -7 26 -32 38 -57 13 -25 27 -52 32 -60 5 -8 21 -40 36 -70 15 -30 31
-57 35 -58 12 -5 48 -78 48 -97 0 -8 4 -15 9 -15 11 0 51 -66 51 -85 0 -8 6
-18 13 -22 11 -7 48 -65 117 -182 8 -14 28 -44 43 -66 15 -22 27 -45 27 -52 0
-7 6 -16 13 -20 7 -4 46 -57 85 -116 l72 -108 -25 -11 c-20 -9 -49 -8 -132 6
-59 9 -112 21 -118 25 -5 4 -37 13 -70 20 -33 7 -75 21 -93 32 -18 10 -41 19
-50 19 -9 0 -30 7 -46 15 -15 8 -38 15 -51 15 -12 0 -28 7 -35 15 -7 8 -24 15
-37 15 -14 0 -39 6 -56 14 -18 7 -44 18 -59 24 -17 7 -28 19 -28 30 0 17 -10
20 -80 25 -74 5 -91 11 -224 76 -80 39 -150 71 -156 71 -6 0 -31 20 -55 45
-42 42 -124 95 -146 95 -10 0 -112 78 -117 89 -1 4 18 22 43 40 25 18 52 45
60 61 17 34 20 97 5 136 -13 34 -1 44 56 44 22 0 44 4 50 8 5 5 38 17 74 27
70 20 288 120 305 140 6 7 39 29 75 51 36 21 80 49 99 61 38 26 60 29 84 11z"/>
</g>
</svg>
