<?xml version="1.0" standalone="no"?>
<!DOCTYPE svg PUBLIC "-//W3C//DTD SVG 20010904//EN"
 "http://www.w3.org/TR/2001/REC-SVG-20010904/DTD/svg10.dtd">
<svg version="1.0" xmlns="http://www.w3.org/2000/svg"
 width="915.000000pt" height="1280.000000pt" viewBox="0 0 915.000000 1280.000000"
 preserveAspectRatio="xMidYMid meet">
<metadata>
Created by potrace 1.15, written by Peter Selinger 2001-2017
</metadata>
<g transform="translate(0.000000,1280.000000) scale(0.100000,-0.100000)"
fill="#000000" stroke="none">
<path d="M1817 12776 c-76 -32 -140 -81 -284 -218 -362 -346 -611 -661 -773
-979 -86 -168 -112 -254 -114 -364 -1 -107 14 -140 66 -150 18 -4 96 -2 173 4
76 6 142 7 146 3 10 -10 116 -493 130 -591 26 -184 -1 -360 -116 -746 -197
-663 -205 -707 -214 -1095 l-6 -295 -33 -69 c-17 -37 -83 -141 -145 -230 -262
-373 -327 -499 -327 -637 0 -61 31 -162 69 -220 50 -79 160 -138 366 -194 285
-77 352 -105 391 -165 13 -19 37 -86 54 -148 31 -118 55 -175 96 -229 58 -77
95 -217 97 -368 2 -131 -12 -160 -157 -317 -175 -190 -242 -292 -267 -409 -28
-129 15 -220 184 -398 91 -95 133 -148 152 -189 53 -113 61 -128 118 -199 44
-55 71 -79 115 -100 l57 -28 395 -7 c217 -3 411 -10 430 -16 94 -26 119 -56
127 -153 5 -46 1 -66 -17 -104 -38 -78 -129 -183 -323 -370 -372 -360 -438
-446 -747 -965 -304 -512 -558 -902 -945 -1450 -319 -451 -433 -651 -479 -835
-21 -87 -39 -260 -33 -320 10 -99 83 -192 169 -216 93 -25 292 1 841 111 1146
231 2236 545 3272 945 427 165 716 291 1180 515 408 197 577 244 783 220 138
-16 257 -48 582 -155 347 -114 468 -149 585 -170 129 -22 145 -17 300 105 107
85 508 487 682 685 213 243 347 364 508 461 177 106 245 178 245 260 0 173
-191 455 -555 820 -246 246 -310 287 -825 530 -369 173 -367 171 -457 350 -79
156 -260 577 -313 729 -53 152 -63 257 -33 327 49 110 191 293 524 678 322
372 375 440 443 579 68 136 85 196 171 596 30 143 80 366 110 495 77 335 95
465 119 875 39 652 27 1290 -29 1573 -26 132 -122 285 -280 451 -155 162 -350
315 -700 546 -529 351 -766 459 -1451 665 -995 299 -1887 429 -2949 430 -354
0 -480 18 -765 107 -215 67 -264 73 -343 39z m2554 -997 c31 -16 78 -79 85
-114 4 -25 -3 -72 -25 -158 -34 -134 -55 -315 -70 -597 -17 -311 -21 -402 -31
-780 -19 -678 -35 -842 -91 -957 -50 -103 -99 -139 -388 -279 l-253 -124 18
-28 c9 -15 113 -163 231 -329 117 -166 213 -306 213 -309 0 -4 -71 -79 -158
-168 -245 -250 -392 -427 -427 -509 -24 -58 -5 -117 80 -247 69 -106 75 -134
89 -425 15 -290 24 -335 71 -335 39 0 103 65 253 260 74 96 140 181 146 188
10 10 41 9 161 -5 91 -10 235 -17 365 -17 201 -1 218 0 262 21 56 25 64 46 53
136 -14 129 -70 319 -175 592 -73 191 -85 244 -70 324 34 190 233 689 356 894
62 102 159 224 161 201 3 -22 28 -407 43 -654 11 -179 3 -286 -26 -361 -10
-24 -48 -100 -85 -169 -111 -204 -167 -407 -139 -508 23 -86 66 -67 233 101
175 176 176 176 442 187 167 6 211 11 242 26 47 23 53 56 24 124 -25 58 -28
186 -7 265 44 166 185 322 271 301 34 -9 68 -45 95 -104 32 -67 81 -266 83
-337 2 -69 -10 -96 -97 -203 -63 -77 -182 -271 -276 -450 -130 -245 -221 -342
-329 -350 -74 -5 -139 20 -272 105 -100 64 -182 103 -215 103 -24 0 -53 -78
-104 -285 -70 -277 -132 -428 -233 -560 -117 -152 -169 -168 -667 -194 -198
-11 -243 -22 -373 -87 -115 -58 -190 -78 -248 -65 -109 26 -244 1 -282 -51
-16 -21 -22 -52 -28 -140 -14 -185 -45 -288 -108 -360 -67 -76 -133 -72 -229
16 -72 67 -183 141 -297 200 -213 110 -259 118 -710 125 l-360 6 180 92 c201
102 325 183 325 212 0 31 -72 95 -208 185 -89 58 -137 97 -152 122 l-23 36 20
62 19 61 45 -1 c63 -1 158 -42 359 -154 96 -54 205 -109 242 -121 l67 -24 26
25 c15 14 76 125 136 247 123 250 161 303 221 303 20 0 50 -10 69 -23 67 -44
86 -116 123 -447 25 -223 64 -313 131 -296 75 19 116 254 96 542 -23 307 -83
546 -195 768 l-61 121 -38 -1 c-67 -2 -249 -141 -287 -218 -20 -43 -21 -55
-15 -164 9 -138 3 -149 -67 -138 -84 14 -389 188 -616 352 -68 50 -167 138
-272 244 -176 176 -274 246 -361 257 -38 6 -43 3 -95 -50 -48 -51 -54 -61 -54
-99 0 -24 16 -92 35 -153 19 -60 35 -120 35 -131 0 -36 -36 -71 -87 -84 -117
-30 -363 -21 -433 15 -41 21 -54 69 -47 184 12 215 143 569 295 797 70 104
199 232 271 269 145 73 215 12 412 -355 139 -261 172 -298 240 -270 101 42
156 119 194 270 44 179 87 270 173 368 l37 42 121 -113 c203 -189 247 -209
314 -138 102 107 150 407 93 588 -30 96 -96 148 -413 325 -69 39 -178 106
-243 149 -193 129 -265 159 -388 159 -146 0 -262 -55 -543 -258 -82 -59 -88
-62 -82 -37 18 73 50 238 77 404 32 202 53 292 97 421 134 391 377 843 542
1011 56 57 85 76 210 137 262 130 610 238 1435 447 629 159 763 182 836 144z
m-2706 -4640 c43 -16 79 -42 152 -112 99 -94 199 -218 223 -276 12 -31 12 -33
-25 -71 -65 -67 -254 -147 -371 -157 -45 -4 -70 -1 -97 12 -58 27 -134 111
-175 194 -35 72 -37 79 -36 175 0 149 37 233 110 256 43 14 156 3 219 -21z
m4521 -585 c35 -38 67 -128 86 -244 17 -98 16 -545 0 -710 -34 -330 -101 -649
-167 -787 -128 -268 -723 -625 -1615 -970 -797 -308 -1949 -591 -2075 -509
-50 33 -36 76 165 496 163 340 218 462 236 521 18 60 69 106 173 159 199 100
309 103 736 20 220 -43 334 -58 485 -66 217 -11 405 18 469 72 64 53 177 260
336 614 261 580 394 844 513 1025 119 179 332 348 510 406 73 23 109 17 148
-27z"/>
</g>
</svg>
