<?xml version="1.0" standalone="no"?>
<!DOCTYPE svg PUBLIC "-//W3C//DTD SVG 20010904//EN"
 "http://www.w3.org/TR/2001/REC-SVG-20010904/DTD/svg10.dtd">
<svg version="1.0" xmlns="http://www.w3.org/2000/svg"
 width="1130.000000pt" height="1280.000000pt" viewBox="0 0 1130.000000 1280.000000"
 preserveAspectRatio="xMidYMid meet">
<metadata>
Created by potrace 1.15, written by Peter Selinger 2001-2017
</metadata>
<g transform="translate(0.000000,1280.000000) scale(0.100000,-0.100000)"
fill="#000000" stroke="none">
<path d="M2805 12785 c-350 -16 -402 -24 -630 -100 -170 -57 -517 -193 -532
-209 -8 -9 56 -7 537 16 495 24 1958 14 2515 -17 190 -11 436 -26 565 -35 74
-5 182 -12 240 -15 115 -7 243 -17 507 -40 326 -29 408 -36 501 -42 103 -7
108 -12 69 -66 -46 -63 -291 -393 -332 -447 -65 -87 -65 -83 20 -170 41 -43
75 -84 75 -92 0 -8 -6 -37 -14 -64 -8 -27 -19 -96 -26 -154 -9 -87 -17 -118
-47 -178 -46 -94 -216 -376 -371 -614 -143 -221 -154 -240 -150 -275 3 -23 -2
-28 -32 -36 -119 -33 -326 -107 -428 -153 -94 -44 -153 -83 -225 -153 -113
-108 -136 -161 -100 -236 22 -46 48 -46 163 0 89 37 270 79 282 67 4 -4 -6
-36 -21 -72 -61 -141 -164 -485 -186 -620 -19 -113 -19 -418 -1 -541 16 -102
51 -228 116 -409 48 -135 69 -177 208 -410 58 -96 113 -188 122 -205 10 -16
39 -66 65 -110 74 -124 124 -238 137 -313 12 -74 15 -60 -65 -362 -49 -185
-52 -308 -11 -572 5 -30 1 -45 -24 -80 -61 -89 -63 -100 -73 -285 -11 -219
-33 -286 -149 -458 -90 -133 -153 -196 -370 -371 -478 -383 -608 -493 -759
-639 -114 -110 -324 -352 -487 -560 -24 -31 -32 -54 -37 -104 -8 -70 -21 -98
-114 -227 -162 -227 -197 -274 -204 -274 -4 0 -45 30 -91 66 -45 37 -112 80
-147 97 l-65 31 -256 -11 c-234 -10 -264 -14 -335 -38 -82 -27 -181 -90 -270
-171 -94 -85 -218 -137 -560 -236 -22 -7 -63 -21 -91 -33 -58 -26 -396 -242
-499 -320 -90 -69 -150 -94 -242 -102 l-74 -6 -49 -66 c-28 -36 -59 -86 -71
-111 -12 -25 -55 -101 -97 -169 -41 -68 -90 -159 -108 -203 -46 -107 -57 -126
-297 -488 -211 -319 -220 -334 -263 -450 -27 -72 -32 -178 -13 -239 32 -99 76
-198 103 -235 39 -50 163 -136 242 -166 32 -13 87 -25 122 -28 58 -4 70 -1
135 32 108 54 159 96 212 177 70 106 149 278 184 397 16 57 36 114 45 127 9
14 16 45 16 73 0 90 18 148 99 317 102 212 177 342 204 356 12 6 32 20 43 31
12 11 107 49 210 84 316 110 275 101 352 73 58 -21 84 -24 197 -23 133 0 220
14 345 54 145 47 202 57 275 50 60 -6 89 -2 208 27 158 39 122 43 395 -44 139
-44 147 -45 240 -41 120 6 151 16 389 134 187 92 194 94 245 88 74 -9 121 6
295 93 207 103 361 220 673 512 227 213 284 257 515 401 150 93 258 150 288
150 27 0 27 0 27 -80 0 -100 27 -181 68 -199 20 -10 83 -12 232 -9 180 3 205
1 208 -13 4 -21 -11 -125 -42 -294 -28 -151 -32 -220 -16 -276 15 -53 39 -69
122 -81 90 -12 164 -2 443 62 107 24 336 84 385 100 30 10 93 30 140 45 99 32
172 67 267 129 113 73 137 101 163 186 12 41 26 86 31 100 61 182 131 462 159
635 28 177 31 187 41 183 5 -2 169 -163 366 -359 232 -230 392 -381 456 -428
79 -59 95 -76 86 -87 -6 -8 -84 -64 -173 -126 -88 -61 -192 -137 -231 -169
-68 -55 -239 -226 -417 -417 -82 -87 -89 -92 -127 -92 -37 0 -44 -4 -77 -49
-27 -36 -46 -51 -70 -56 -22 -4 -46 -21 -71 -49 -21 -23 -69 -61 -108 -84
-185 -111 -291 -209 -379 -352 -32 -52 -39 -74 -45 -138 -6 -60 -13 -86 -34
-116 -39 -57 -40 -126 -2 -191 39 -67 135 -173 184 -204 43 -28 125 -63 251
-109 30 -11 98 -36 150 -55 219 -80 290 -129 417 -284 115 -141 205 -236 270
-284 29 -22 55 -39 59 -39 3 0 18 -8 32 -18 33 -22 192 -88 247 -101 117 -28
157 -33 270 -28 136 5 296 23 306 35 4 4 11 59 14 122 l7 115 -103 75 c-56 41
-152 109 -212 151 -101 71 -111 81 -126 125 -16 44 -21 50 -62 62 -41 12 -49
21 -136 150 -96 141 -143 239 -188 387 l-26 85 20 34 c11 18 60 71 109 118 77
74 99 89 169 116 77 30 145 46 298 72 112 19 196 39 255 62 109 41 136 53 230
102 274 142 231 129 640 196 160 27 269 61 400 126 249 125 360 301 360 570 0
116 -19 269 -45 357 -42 142 -188 330 -401 514 -52 46 -63 61 -83 120 -12 38
-26 77 -30 88 -5 11 -21 52 -36 90 -113 286 -277 532 -498 750 -156 154 -315
267 -543 387 -93 49 -115 65 -120 86 -16 65 -58 87 -205 107 -150 21 -176 26
-359 68 -202 47 -210 50 -298 94 -59 30 -264 173 -306 213 -4 5 1 18 12 31 12
12 31 42 42 67 l21 45 -31 39 -32 40 32 63 c40 79 39 93 -24 285 -68 206 -79
276 -73 450 3 91 11 167 21 205 28 102 67 194 102 243 18 26 45 63 59 83 15
21 38 70 51 110 21 60 25 85 20 135 -4 41 2 119 19 240 30 206 26 237 -40 401
-17 41 -16 43 10 115 15 40 34 90 41 111 22 58 37 185 30 247 -4 30 -22 87
-42 128 -20 41 -34 75 -32 77 4 5 429 28 686 38 77 3 86 8 99 57 13 51 119
217 173 271 71 72 136 120 344 255 101 66 170 117 169 125 -1 8 -9 39 -18 69
-21 72 -14 173 16 232 12 23 45 77 73 118 28 41 60 91 70 111 l19 36 -40 54
c-49 66 -76 119 -93 182 -14 53 -8 66 35 68 33 1 80 34 79 55 -1 10 -16 73
-33 139 -41 154 -114 433 -156 600 -45 174 -58 216 -106 332 -68 163 -109 234
-140 240 -35 7 -42 36 -18 67 10 13 19 35 19 48 0 12 5 40 11 61 10 36 11 37
55 37 24 0 70 -9 102 -20 52 -19 131 -31 297 -47 73 -7 75 -5 106 97 28 89 30
205 6 262 -18 42 -11 40 -202 58 -66 6 -124 16 -129 21 -6 5 -33 9 -62 9 -34
0 -56 5 -64 15 -7 8 -21 15 -31 15 -17 0 -19 8 -19 65 0 74 -5 79 -107 120
-37 15 -63 32 -71 48 -9 19 -23 26 -60 32 -26 3 -84 15 -128 26 -64 15 -118
19 -250 19 -154 0 -176 -2 -242 -25 -41 -14 -87 -25 -103 -25 -53 0 -188 81
-201 121 -2 7 -26 11 -63 11 -73 -2 -108 11 -126 45 -13 24 -17 25 -70 20 -31
-3 -78 -14 -104 -26 -37 -16 -68 -21 -135 -21 -67 0 -100 -5 -136 -20 -26 -11
-79 -26 -118 -32 -127 -20 -137 -24 -188 -87 l-46 -58 -54 4 c-78 6 -331 32
-423 43 -160 20 -363 41 -645 65 -165 15 -253 22 -550 45 -69 5 -183 14 -255
20 -348 28 -623 47 -855 60 -403 21 -568 28 -765 29 -110 1 -312 6 -450 11
-307 12 -478 11 -840 -5z"/>
</g>
</svg>
