<?xml version="1.0" encoding="utf-8"?>
<!DOCTYPE svg PUBLIC "-//W3C//DTD SVG 1.1//EN" "http://www.w3.org/Graphics/SVG/1.1/DTD/svg11.dtd">
<svg version="1.1" id="Layer_1" xmlns="http://www.w3.org/2000/svg" xmlns:xlink="http://www.w3.org/1999/xlink" x="0px" y="0px"
	 viewBox="665.9957 85.6458 1306.0043 1684.3114" enable-background="new 665.9957 85.6458 1306.0043 1684.3114"
	 xml:space="preserve">
<g>
	<path d="M1567.8927,1701.3269c-3.6288-2.0409-7.7706-2.9296-11.7084-4.2811c-9.7653-3.3521-18.2566-9.5471-26.5813-15.6539
		c-5.192-3.8085-10.4763-7.7092-14.2128-12.9534c-2.9497-4.1399-4.3571-8.7112-4.4524-13.7552
		c-0.0559-2.9515-2.2325-9.5712-1.5115-12.0198c1.1501-3.9072-0.4233-9.3622-0.6265-13.3849
		c-0.1975-3.9131-0.3113-7.8313-0.3569-11.7495c-0.1139-9.792,0.1594-19.5846,0.0084-29.3763
		c-0.235-28.386,1.6805-56.7357,5.0774-84.8868c0.2531-3.4873,1.3733-7.1914-0.3977-10.4257
		c6.9928-3.1982,12.901-8.5465,20.4177-10.6244c4.4268-0.9216,2.5477-6.6132,2.1504-9.703
		c-0.5966-6.884-8.7092-9.7209-9.6489-16.3522c-0.6504-8.98,0.8494-18.0505-0.8492-26.9403
		c-5.6915-24.2302-14.8705-47.6653-18.2312-72.4194c-1.6624-14.4911-4.5715-29.1628-2.6382-43.7444
		c4.5172-1.1744,13.6781,1.7527,14.0936-5.0592c-3.433-9.1609-11.0037-16.4065-12.6479-26.3081
		c-4.8245-23.5256-8.3116-47.3219-11.7086-71.0823c-2.3671-17.9965-4.9146-36.0471-5.0593-54.2062
		c9.161,6.5951,14.7261,17.2737,18.1953,27.8439c8.4742,26.3259,15.4486,53.1398,21.9895,80.0082
		c5.24,21.3752,7.5709,43.4192,7.4083,65.4269c0.3794,9.5402-1.5541,20.3092,4.6074,28.5304
		c1.7527,2.9631,5.3844,2.7645,8.4021,3.0175c-1.7708,10.9135-7.1733,21.068-7.4987,32.2708
		c7.354,0.3794,12.124-6.7396,15.9547-12.0699c6.3242-13.4431,10.8232-28.0245,12.0879-42.877
		c1.2288-13.8225-6.324-26.1455-7.7334-39.6067c-5.0231-38.1068-8.0947-76.5751-16.7678-114.1218
		c-3.5775-19.7131-9.3413-39.2273-10.2087-59.3197c3.379-9.4319,18.3939-6.3602,21.321-16.298
		c-0.5239-11.5278-5.1315-22.3691-7.896-33.4633c-9.5945-30.572-19.8032-60.9999-32.0177-90.6326
		c-3.4331-7.0648-5.6737-15.6836-12.8468-19.9659c-9.1429-6.0892-20.7428-6.4866-30.3374-11.1484
		c1.5358-5.4206,8.691-7.7694,11.4196-12.9371c0.1444-4.9327-6.1436-3.9389-9.3959-3.9028
		c-10.9496,1.2288-22.4053,1.8973-32.7766-2.4392c-2.6924-0.7409-4.4088-3.3969-3.415-6.1254
		c2.2765-9.4861,3.9751-19.2974,8.2574-28.151c1.7706-4.8967,7.6249-4.4991,11.6002-6.4325
		c3.4148-1.3732,4.4087-5.3122,5.1315-8.5465c1.3551-8.438,2.1139-17.0568,1.572-25.6033
		c-0.9036-2.7103-4.1741-3.0896-6.3602-4.1558c-3.3428-18.3036-1.3734-39.2994-13.9854-54.4772
		c-10.5338-13.3167-27.5729-19.1528-43.9611-20.6164c-13.1899-0.9575-27.5907-3.4149-39.8053,3.0898
		c-12.0879,6.8481-23.1097,16.9665-28.2954,30.1025c-4.5353,14.9248-1.807,30.6987-1.3734,45.9668
		c0.524,6.5408-8.474,9.9557-6.2698,16.7858c2.4392,8.673,6.0891,17.0569,10.9496,24.6458c3.0176,4.8969,11.3834,0,13.5516,6.1978
		c2.0598,5.6374,5.6917,10.9858,5.8904,17.1472c-12.0518-0.1446-24.0133-2.1502-36.047-2.2948
		c-4.7162-0.0361-3.2524,5.0413-1.1746,7.2636c6.4325,9.4139,17.6531,13.407,26.6152,19.8937
		c-3.3066,5.0229-9.8113,5.5289-14.9429,7.5706c-11.311,4.1919-23.3809,6.9746-33.662,13.4793
		c-8.3478,6.9565-18.5748,16.334-15.1416,28.422c-4.1198,1.4817-8.4021,1.0662-12.5398,0.1627
		c-2.2766-9.486-0.6685-19.3696-0.2349-28.9822c0.6866-4.6979,0.1805-9.8655,2.4393-14.1478
		c3.2161-1.0299,9.0522-0.0361,9.5581-4.6798c1.7889-15.3403,1.3009-30.8252,1.3372-46.2198
		c-0.2529-6.6131-0.0181-13.407-1.7706-19.8214c-3.6138-7.4262-12.0881-10.1908-18.7554-14.1117
		c-21.0862-8.3297-38.667-23.128-58.8136-33.2464c-7.9141-3.8125-11.799-12.7022-11.0942-21.1946
		c-0.9396-11.8895,4.246-23.2003,10.8955-32.6863c8.167-5.5832,11.5098-15.3222,17.5627-22.7665
		c2.9089,1.1202,6.4866,0.506,8.0044-2.5297c4.3184-7.6791,6.1614-16.5509,7.6791-25.1516c0.759-4.7341-5.0411-4.463-8.0043-5.4207
		c2.3127-8.944,1.7706-18.2313,1.59-27.3741c-0.7045-9.1246-2.2946-18.6469-7.9683-26.1273
		c-4.5713-7.2275-11.2568-12.8649-15.6115-20.2008c12.1964,5.4387,22.3512,14.9067,34.7643,19.6407l0.9756-2.1863
		c-4.0654-5.4025-9.7388-9.2872-14.8163-13.6599c-8.6008-6.6132-16.822-14.7803-27.9161-16.804
		c-8.4562-1.6262-17.599-5.782-25.7479-0.9215c-1.572-3.0355-3.1259-6.6673-6.7938-7.4443
		c-14.9609-4.9147-32.7766-7.9683-46.8342,1.03c-13.1901,8.3478-17.8518,23.9772-25.6393,36.6072
		c0.1624,0.6686,0.5059,2.0057,0.6685,2.6741c10.9315-10.4437,18.9359-24.5914,33.156-31.1504
		c5.4927-1.7708,12.124-1.5539,17.111,1.6442c-8.9259,3.9752-18.7552,6.7035-26.2717,13.1541
		c-6.812,6.8661-11.6545,15.4487-16.0812,23.9592c-2.3129,12.8468,0.6864,26.1815-1.7708,39.0826
		c-6.1976-1.4275-13.136,1.319-14.4188,8.0586c-1.8972,4.6617,3.0536,7.5167,5.1676,10.9496
		c4.5894,9.1608,7.2997,19.2612,12.7203,28.0427c2.4753,3.975,6.6853,0.0541,9.7208-1.0662
		c0.5962,0.8855,1.825,2.6562,2.4211,3.5416c-14.0756-0.5059-28.2957,0.0904-42.1543,2.638
		c-12.3048,2.2947-21.7186,11.6362-28.386,21.7006c-6.4868,10.0281-13.7141,19.8756-17.1835,31.4576
		c-3.6678,10.6424-5.3483,21.7908-6.5588,32.9393c-0.4879,2.6019,0.9216,4.9867,3.1259,6.3419
		c4.6075-6.7938,6.5588-14.8886,9.9379-22.2787c5.8362-15.3403,17.0208-27.9341,29.4159-38.3779
		c-7.8058,12.7565-18.3218,23.5435-26.525,36.011c-4.0654,5.6915-4.517,13.0817-4.1558,19.8394
		c-0.1986,2.6741,1.4817,4.7701,3.2164,6.6131c-4.1738,0.7772-5.2037,5.3663-2.4574,8.2393
		c-4.2461,6.6855-10.3715,12.9553-10.6425,21.3391c-1.1022,14.4008-0.1989,28.8919-0.8492,43.3288
		c-1.861,33.2103-6.5769,66.276-7.8598,99.4682c-5.0593,26.2357-8.2756,53.0497-6.035,79.7914
		c3.1259,33.7704,4.5713,67.7577,10.0099,101.275c2.8007,19.3877,10.6966,37.4565,19.7853,54.6398
		c8.2393,15.3043,12.4313,32.4337,14.3827,49.6167c2.5659,25.3324,8.8899,50.3937,7.7335,76.0332
		c-1.2288,21.7909-3.7584,43.5275-7.5527,65.0293c-0.5602,3.397-5.2941,7.9863-0.9757,10.5883
		c12.7566,1.8248,26.7599,0.3252,38.3418,6.9564c8.149,6.1975,6.5952,17.9421,6.559,26.9766
		c-0.0787,19.6465-1.6862,39.0061-0.766,58.7415c1.0396,22.2939,1.3799,44.7864,3.4364,66.9575
		c0.673,7.6271,1.8031,15.3698,1.5024,23.035c-0.217,5.5297-1.3199,10.9751-2.7159,16.3159
		c-0.9285,3.5525-1.599,6.8053-2.1442,10.2089c-0.6346,0.6455-1.1813,1.4701-1.5894,2.5103
		c-3.1151,7.9408-6.2322,18.0491-0.7573,25.8234c5.4969,7.8053,15.1487,10.1462,24.254,8.9794
		c16.3491-2.0951,27.4315-19.9766,20.8705-34.5144c2.7167-3.1133,5.2311-6.3915,7.3755-9.9165
		c4.731-7.7766-1.4443-16.6304-4.8273-23.4758c-0.2548-0.5155-0.547-0.979-0.8674-1.3971c0.5964-2.4944,1.1063-5.0106,1.4673-7.5787
		c1.1235-7.9969,1.1719-16.1384,0.2097-24.1545c-0.4304-3.5861-1.2522-6.9443-1.056-10.5293
		c0.23-4.2004,0.0061-8.465,0.0951-12.6747c0.3544-16.7544,1.8159-33.3922,4.7317-49.8981
		c4.0474-22.9111,1.1202-46.2379-1.4998-69.1309c11.4375,1.048,22.9292,1.4816,34.4031,2.2947
		c7.119,0.5601,14.0212-1.5901,21.1042-1.9335c3.2344-0.2528,7.0649,1.7168,6.8301,5.4568
		c1.3369,23.5978-5.5472,47.1775-1.7347,70.7391c1.5359,11.5278,4.6617,22.7666,7.0829,34.1317
		c0.7411,3.9033,1.3062,7.8273,1.7621,11.7638c0.7113,6.1423-0.939,13.1213-0.8929,19.3676
		c0.0221,3.0138,0.2776,4.5854,1.3885,7.3835c1.7578,4.4269,2.1852,7.795-0.0381,12.2556
		c-1.7021,3.4152-4.0258,6.7869-3.9617,10.6023c0.057,3.4091,2.0244,6.4528,3.0492,9.7046
		c0.5607,1.7784,0.8334,3.6177,0.9618,5.4784c-1.5581,4.7035-2.6396,9.5381-3.2145,14.528
		c-0.1041,0.9037-0.196,4.4047-0.1085,8.2926c-4.9199,4.8763-6.4523,12.3884-4.3401,19.1027
		c2.3857,7.5847,11.2855,12.3809,18.9565,11.4598c5.8521,0.5278,11.8497,0.6735,17.3695-1.2755
		c5.9529-2.1019,11.2565-7.1869,11.8079-13.4757c0.5388-6.1453-3.3823-11.8243-3.9581-17.9663
		c-0.3887-4.1471,0.7643-8.386-0.085-12.4637c-0.2141-1.0278-0.5565-2.0195-0.9185-3.0062
		c2.5792-5.9967,4.1726-12.3043,4.8218-18.7871l0.521-0.027c-0.0001-4.7417-0.0002-9.4833-0.0002-14.225
		c-0.2595,0.5142-0.5189,1.0282-0.7917,1.5121c1.2092-3.0433-0.2736-8.8843-0.3037-11.899
		c-0.0387-5.0082-0.0599-10.0165-0.041-15.0248c0.0367-9.8568,0.1166-19.7135,0.2177-29.5701
		c0.006-0.0439,0.0095-0.0879,0.0013-0.132c0.2805-27.3195,0.7275-54.6401,0.9087-81.9545
		c0.0181-5.4928-1.9153-10.6967-2.4934-16.0991c0.1626-4.2825,5.0953-4.8427,8.3838-5.1317
		c8.5828-0.3613,17.1653-0.6504,25.766-1.0299c3.5054,0.2167,6.5048-3.0719,5.7097-6.577
		c-0.9758-16.4606-5.0232-32.5597-6.3422-48.9843c-1.1925-16.7677-2.0056-33.5715-3.0718-50.3394
		c-0.4155-19.2793-2.8909-38.5586-1.1383-57.8198c0.1266-2.9271,3.7223-1.3191,5.5656-1.4453
		c2.8729,25.1879,6.2336,50.3394,9.9016,75.455c3.3428,26.4165,13.5699,51.2249,23.2905,75.8164
		c3.1984,6.2878-0.9756,13.6237,2.0781,19.8394c3.1619,4.8784,9.775,2.6379,14.1117,5.3844
		c1.825,8.9622-1.012,18.1771-1.3191,27.2114c-1.2467,13.5697,3.433,26.597,6.613,39.5707
		c3.3246,13.0814,2.8005,26.9221,7.1914,39.7689c1.1924,4.0112,2.8231,7.8824,4.3229,11.7944
		c0.3749,0.9779,0.7416,1.9579,1.0929,2.9434c6.2742,19.705,0.8536,41.3875,3.5308,63.228
		c-0.433,0.9994-0.8241,2.0034-1.1737,3.0045c-1.049,3.0033-1.724,5.9717-2.0563,8.8943c-0.1477,1.299-0.2277,2.5889-0.2427,3.8688
		c-3.27,15.2428,3.5057,27.4392,16.3182,34.428c1.0952,0.6931,2.1838,1.2527,3.26,1.6772c1.076,0.4247,2.1396,0.7142,3.1885,0.8687
		c1.0488,0.1543,2.083,0.1735,3.1754,0.1019c16.8632-2.8608,22.2837-20.4778,18.618-33.4236
		c-0.1215-1.1417-0.2842-2.2736-0.4852-3.4027c-1.0057-5.6459-2.9951-11.2732-5.1956-16.4834
		c-0.1616-1.3555-0.2574-2.6879-0.327-4.0188c-0.5566-10.6475,0.3181-21.3744-1.1681-31.8861
		c-0.6434-4.5516-1.1483-9.1312-1.7178-13.7056c0,0-0.1217,0.0223-0.3497,0.0647c-0.6233-22.4712,0.6527-44.9926-0.01-67.4701
		c-0.2892-14.455,0.5963-28.8918,0.1448-43.3107c-0.2169-7.86-2.4576-15.5028-2.4576-23.3447
		c3.3429,0.6144,8.5825,3.8849,10.48-0.6686c6.6312-18.972,8.131-39.6246,4.7159-59.428
		c-3.4691-27.5547-8.8898-54.9108-9.3776-82.7546c8.438,11.6362,16.6049,23.7783,21.5919,37.3661
		c6.6494,17.7797,12.1602,35.9568,18.7736,53.7544c3.8304,10.8774,11.329,19.8214,17.2194,29.6146
		c-1.4817,1.2649-2.9631,2.5477-4.4088,3.8668c2.4392,3.1981,6.1796,4.8785,9.4861,7.0468
		c-6.1073,23.7784-14.4006,47.5569-14.0394,72.4203c1.1388,18.2794,7.7031,35.5392,14.2239,52.4609
		c3.0071,7.8037,8.1672,17.0405,8.5458,25.4614c0.3834,8.5326,2.4976,16.8762,3.3229,25.5707
		c0.6149,6.4806-0.1351,13.3556-2.3123,19.5029c-2.0872,5.8929-6.6252,10.7628-4.9808,17.4752
		c0.895,3.653,3.4258,6.7369,6.4231,9.0098c12.7601,9.6758,28.6921,16.0337,43.6031,21.6163
		c15.7781,5.9071,33.6094,6.2886,49.5789,0.8766c6.1525-2.0851,12.9537-6.3976,12.785-12.8916
		c-0.0077-0.2935-0.0303-0.5837-0.0673-0.8706C1574.2203,1706.4255,1571.2657,1703.2239,1567.8927,1701.3269z M1043.2139,1188.9172
		c-0.2773,8.8177-1.374,18.042,1.504,26.5502c2.6923,2.5657,6.2515,4.0472,9.3958,6.0709v0.0004
		c-3.144-2.0237-6.7037-3.5054-9.3958-6.071C1041.8396,1206.9594,1042.9364,1197.735,1043.2139,1188.9172z M1053.9148,1261.1272
		c0-0.0001,0-0.0002-0.0002-0.0002c0.1628-7.0286,0.4518-14.0934-0.0178-21.0859c-0.2889-0.3615-0.7228-0.8989-1.1565-1.4365
		c-0.4336-0.5375-0.8672-1.075-1.1563-1.4364l0,0c0.2891,0.3613,0.7225,0.8989,1.1563,1.4364
		c0.4337,0.5376,0.8676,1.0751,1.1566,1.4365C1054.3663,1247.0336,1054.0774,1254.0984,1053.9148,1261.1272z M1059.1187,1024.2828
		c-1.1563,13.4973-0.5239,27.103-2.132,40.5643c-2.7285,11.3289-2.6742,23.0555-2.873,34.6375h-0.0002
		c0.1989-11.582,0.1447-23.3086,2.8729-34.6377c1.6083-13.4613,0.9757-27.067,2.1322-40.5643
		c0.1725-1.7654,0.266-3.5486,0.3348-5.3384C1059.3845,1020.734,1059.291,1022.5173,1059.1187,1024.2828z M1114.6617,816.6915
		c-4.933,6.035-10.9858,11.293-17.9784,14.8163c-2.7826-1.7889-5.3663-5.8906-9.1246-4.0475
		c-3.7946,4.6618-4.0475,11.311-8.0767,15.8644c-4.2283,2.8909-9.5043,0.542-14.1659,0.6505
		c-4.6438,0.5237-5.5835,6.0168-8.9442,8.42c-5.818,4.3001-11.9614,8.1668-17.6169,12.666
		c4.4631-11.4917,7.625-24.447,17.3099-32.8489c17.5267-15.9366,36.842-29.741,55.3987-44.4124
		c3.3607,3.2162,7.4261,6.306,11.8169,2.6922C1122.3409,799.6527,1120.5521,809.3013,1114.6617,816.6915z"/>
	<path d="M1920.9056,823.0876c-5.8541-9.0886-12.6842-17.5448-18.1049-26.8863c-3.8488-6.0168,0.3253-12.9733-0.4155-19.4238
		c-1.048-4.2463-6.4685-5.276-8.0045-9.1608c-0.7769-9.1067,1.4275-18.1049,2.8369-27.0309
		c-1.066-15.1959-6.4146-29.5424-10.2992-44.1238c-2.1683-17.1111-1.0662-34.439-1.608-51.6403
		c-0.7047-55.3987-0.8313-110.8155-3.09-166.1779c-0.4879-20.237-5.2037-40.0584-11.1483-59.3015
		c-3.1981-9.1066-6.0891-18.5386-11.6362-26.5429c-5.2039-7.3179-13.1-11.8712-19.5684-17.888
		c-6.1252-5.6555-7.4624-15.0695-14.6357-19.7131c-12.0518-6.6132-27.3379-5.5109-38.3959-14.1117
		c-6.0171-7.3719-4.3546-17.6711-6.252-26.4164c-1.5901-3.9391-6.6311-3.1078-9.9559-3.9751
		c-2.5656-13.136-3.8486-26.4887-4.5712-39.8235c-0.6326-6.1614,4.2461-12.2144,1.3551-18.2314
		c-5.6917-13.6418-12.7566-26.8682-21.7728-38.6126c-10.7148-13.4252-27.2295-19.8034-42.9855-25.0975
		c-11.9614-3.7402-24.7722-4.4449-37.1493-2.9814c-12.3048,1.4094-23.9048,5.9988-36.0651,8.0947
		c-6.9385,1.3191-14.238,3.5957-18.8638,9.2512c-5.5833,6.794-7.1913,15.7742-8.4381,24.2121
		c-1.7889,15.8645-2.2405,31.9635-0.271,47.828c1.6079,12.9732,8.0948,24.5552,11.4557,37.0588
		c-12.8289-0.2529-22.8752-8.98-32.5237-16.3341c-10.6245-7.86-21.3754-15.8463-33.6439-20.9235
		c-13.624-5.9086-28.5668-7.2998-42.6965-11.5641c-21.3212-6.5587-41.6665-15.9727-63.2043-21.8631
		c-16.1172-4.3546-33.1921-4.3546-48.9301-10.1726c-17.2736-6.1614-34.0052-13.7504-50.3754-21.9534
		c-8.1852-3.5235-15.6295-9.4861-18.1049-18.376c-2.2587-8.0045-7.6071-17.7073-1.7346-25.2963
		c3.9569-5.9445,2.168-13.9489-1.9696-19.3334c-5.1135-7.1913-13.1541-11.5277-20.8875-15.3583
		c-6.8302-3.2163-15.2139-5.0954-22.2064-1.3373c-8.8538,4.9147-13.0637,14.7442-20.4359,21.322
		c-8.7452,8.637-20.7068,15.1054-25.2419,27.1573c-3.9209,10.7329,5.4749,20.255,5.276,30.8071
		c-2.3129,13.3348-14.184,21.7007-23.6338,30.1206c-28.5846,20.8694-58.2356,40.2932-85.6638,62.7165
		c-20.2008,16.4245-36.5168,36.8781-54.7662,55.3083c-5.7458,4.8423-12.9371,10.4798-20.9236,8.7091
		c-6.6311-4.0835-10.1907-11.6543-16.7135-15.9366c-15.5752-10.0462-36.2277-11.7085-53.1039-3.9389
		c-8.655,2.7283-14.5456,10.2449-22.8027,13.6237c-4.6257,1.6263-7.8962-3.1981-10.4438-6.2337
		c-4.6436-6.3602-11.6363-10.2449-18.1229-14.3646c-8.0768-4.9508-17.852-8.7996-27.3742-6.071
		c-11.365,3.1259-21.7545,9.7933-29.6508,18.5204c-5.0229,5.4026-7.4621,13.425-4.535,20.4719
		c3.939,11.3833,9.0706,22.4413,15.3946,32.7224c3.415,6.3784,11.9434,6.0712,16.3702,11.1304
		c1.0841,6.1796-3.8126,11.582-4.2101,17.6712c1.9515,3.6679,6.6853,3.5053,9.721,5.8542
		c-2.1321,8.2755-8.2753,14.6357-13.0455,21.4838c-6.7938-5.8543-16.3522-3.9571-24.5734-3.9029
		c-8.456,1.1563-17.8336,2.114-24.5916,7.7876c-5.3663,4.5533-2.9271,12.3409-5.3663,18.0506
		c-9.9919,6.1434-21.4476,10.3895-29.5785,19.1528c-7.0106,7.7154-13.1721,16.2257-18.3217,25.2781
		c-1.7526,3.3969-3.9209,7.0468-3.3427,11.04c4.1376,5.9265,12.5035,5.4929,18.2675,9.197c-1.319,3.975-2.8007,7.896-4.7159,11.6182
		c-9.0344,17.364-18.8096,34.5835-24.1038,53.5375c-3.7764,12.7205-3.2523,26.1636-2.8187,39.2634
		c1.5358,32.6863,5.7096,65.1558,9.1246,97.6794c0.7227,14.1659-9.3054,25.5131-13.931,38.125
		c-3.3969,9.6667,6.2156,16.4787,7.878,25.1516c-1.2106,6.2518-7.6249,10.0281-8.673,16.3703
		c-0.4878,5.3303,4.3907,11.9252-1.0479,16.0269c-19.8033,18.159-42.1904,35.2701-53.7363,60.2772
		c-15.3764,29.7048-19.2974,65.3905-9.7751,97.5168c8.601,31.7465,20.454,62.4634,30.699,93.6862
		c1.608,5.1315,3.4511,10.4797,2.6199,15.9546c-1.0302,7.4263-4.9508,14.0574-6.2337,21.4476
		c-2.0959,12.106-1.2648,24.4469-1.7708,36.6794c-3.6498,64.9209-5.7819,129.932-11.1303,194.7626
		c-2.7103,28.4221-6.0711,56.772-9.0885,85.1759c-0.3433,3.0536-0.2169,6.1434,0.0543,9.2512
		c11.2205-3.4692,23.0555-2.5657,34.6196-3.4873c7.6973-0.6144,15.4668-3.162,23.1822-1.4635
		c6.0347,2.0234,3.9752,9.5042,2.9813,14.202c-7.2638,25.1334-6.4507,51.9114-2.6924,77.569
		c2.4951,17.0342,6.5236,33.7845,9.777,50.6787c3.2561,16.908,3.3243,34.1656,6.2648,50.9315
		c1.7698,9.6792,3.3907,19.3872,5.0994,29.0774c1.5189,8.6149-0.1458,17.528,2.626,25.9648
		c4.238,12.8982,5.9268,14.027,19.6443,14.3953c1.0485,0.0282,2.1002-0.0114,3.1464,0.0483
		c10.544,0.6013,20.8849-1.2677,31.3039-2.3826c27.2844-2.9196,53.3197,7.7738,80.5248,2.7706
		c13.791-2.5361,27.0592-7.3187,40.1484-12.348c3.7103-1.4255,7.6512-3.0609,9.8225-6.3899
		c3.2081-4.9182,1.0794-11.9786-3.4524-15.7126c-4.5319-3.7339-10.7451-4.7354-16.6153-4.59
		c-5.8701,0.1453-11.692,1.2905-17.5639,1.2494c-14.8098-0.1036-31.0648-7.8369-43.3311-15.6688
		c-12.022-7.6759-21.6755-19.0658-27.1335-32.2552c-5.4699-13.2183-6.6429-28.0566-3.5898-42.0112
		c2.9686-13.5679,1.3099-28.3954,2.2546-42.3853c1.6624-25.9825,2.4754-52.2006,8.1671-77.6954
		c1.1564-5.3121,3.0356-11.6362,8.8538-13.4792c12.5757-4.1558,26.0369,0.7227,38.8116-2.0599
		c5.8723-1.4094,8.4922-7.9321,8.167-13.4431c-0.5601-9.9197-4.9869-19.0806-5.9084-28.946
		c-4.2281-52.869-7.6793-105.8105-8.9441-158.8422c-2.3669-67.5046-0.6685-135.1179,3.0536-202.5502
		c1.8612-34.5654,6.9566-68.8236,13.2444-102.8289c2.1862-14.3828,8.5646-28.3317,6.848-43.13
		c-1.7707-14.2562-6.1251-28.0065-10.0099-41.7748c2.7824-1.7527,6.2699-3.4331,6.1071-7.2637
		c-0.1987-4.5895,2.6923-7.7697,5.6194-10.8774c0.9214-11.4376,0.4877-22.9833,1.5538-34.421
		c0.7227-4.9327,5.8181-7.6429,7.3179-12.2867c7.8057-20.3091,6.8661-42.3711,9.233-63.6561
		c0.4518-2.9271,0.4337-6.4143,2.9272-8.4742c6.6313-5.8,15.4487-7.8418,23.2905-11.4374
		c10.3714-4.7341,21.2488-9.1067,29.9037-16.7136c8.1309-8.9621,9.9198-21.827,9.6489-33.4813
		c-0.0182-7.7877-3.4875-15.0332-7.3902-21.5741c-13.5876-20.5079-28.7654-39.9499-41.8651-60.7831
		c-4.2281-5.9807,3.6317-12.7023,0.2349-18.8998c-2.2766-4.716-7.0287-7.3901-10.3353-11.2568
		c-2.0959-2.909-1.0842-6.7035-1.048-9.9739c5.782,2.1863,10.5522,7.8237,17.2737,6.7216
		c6.8661-0.3614,7.3359-8.5826,10.3895-13.1541c2.9632,0.5601,6.6313,3.0175,9.4138,0.6324
		c2.6923-2.9814,3.668-7.0468,5.258-10.6605c3.5776,0.3975,7.4444,1.3552,10.8955-0.2711
		c3.7402-2.4754,2.9993-7.6069,4.1558-11.3832c6.0891,1.4635,11.2748,5.6375,17.599,6.2337
		c3.5773,0.1989,5.6553-3.0897,6.7214-6.0349c3.5234-9.992,3.9027-20.797,7.2274-30.8614
		c2.6923-7.7695,11.7266-10.4799,15.2681-17.6712c2.2225-4.2823,3.668-9.1066,7.2819-12.5216
		c35.577-37.2396,72.0398-73.6481,107.3461-111.1408c11.4194-11.7266,18.4121-26.8682,29.3799-38.956
		c13.967-15.6114,28.9821-30.2289,43.6538-45.1898c4.3185-4.2461,6.5769-10.1185,11.0219-14.2382
		c3.7402-1.2647,6.4326,3.0536,9.2878,4.8418c34.4028,29.9398,67.1975,61.7227,102.4495,90.705
		c36.3,30.3735,76.3943,55.7239,116.1093,81.3272c26.1096,17.0749,53.0859,32.8851,78.3822,51.1706
		c10.3895,7.5889,6.1614,22.6762,13.407,32.0178c7.4082,5.5832,15.6115-3.686,23.6338-1.7346
		c7.2275,1.3733,17.1292,2.8369,19.9661,10.6967c0.4155,12.8288-2.3671,25.5311-4.2279,38.1792
		c-6.9568,38.2514-12.2146,76.7919-15.9911,115.4951c-7.7875,68.5527-14.455,137.2319-22.7122,205.7303
		c-2.7828,14.5814-3.4875,29.976-9.9199,43.5456c-0.8312,2.4754,1.7889,3.8305,3.7402,4.3365
		c11.5098,3.3428,23.7966,4.4631,34.6559,9.8475c9.2332,5.3303,11.311,16.7496,17.2373,24.8263
		c0.8495,1.4636,2.837,0.9214,4.2283,1.3009c1.5358-9.3776-2.873-18.5023-1.7524-27.9521
		c6.8478-1.7346,13.6237,1.6443,20.0381,3.7764c9.5762,4.1196,21.1222,8.8536,24.1578,19.9659
		c4.8241,21.3934,3.1981,43.4916,3.6499,65.2644c0.3613,36.7515-0.1809,73.7021,4.5533,110.237
		c3.6136,26.4886,13.3525,51.55,22.3148,76.5751c5.5831,15.5571,9.4137,31.6746,13.4791,47.6835
		c5.8181,24.1217,11.7085,48.2795,15.521,72.8169c2.3309,13.0275,1.8973,26.308,1.1021,39.462
		c-2.0594,35.9386,15.3226,68.7515,22.4597,103.1722c1.825,10.2811-5.222,20.2008-2.4937,30.3916
		c3.3789,7.6793,13.1903,4.4449,19.4602,3.2163c6.8839-0.9938,16.3341-5.5833,21.8268,0.5421
		c2.3527,9.551,3.183,19.3494,3.7169,29.1763c0.0592,1.0919,0.1149,2.1841,0.1686,3.2764
		c5.8624,12.7797,3.7725,25.5573,2.4025,38.5543c-0.1248,1.1815-0.2432,2.3649-0.3375,3.5557
		c-0.0029,1.0043-0.0056,2.01-0.0084,3.0179s-0.0057,2.0181-0.0095,3.0313c4.0593,12.8258,2.7041,25.0222-0.182,37.2114
		c0.0045,1.2041,0.0071,2.4081,0.0081,3.6119c0.0054,6.0198-0.0322,12.0391-0.1256,18.0573
		c-0.8451,0.4932-1.728,0.9333-2.5254,1.3523c-13.0242,6.8412-26.8081,11.9446-40.3081,17.7136
		c-12.2845,5.2498-24.6404,9.015-37.9302,7.4208c-9.3472-1.1213-13.7285,4.8687-17.484,11.1038
		c-2.1128,3.5074-1.9186,8.3605,1.1427,12.3865c6.472,8.5116,15.4182,13.3787,24.6962,18.1188
		c13.0999,6.6927,27.343,7.901,41.483,9.3354c4.7932,0.4863,9.9873-1.017,14.7424-2.4564
		c22.1194-6.6954,44.7881-7.2129,67.5927-6.6079c1.198,0.0317,2.4791,0.0752,3.5905-0.2882
		c8.6467-2.8276,18.7969-4.5396,25.6744-10.9714c5.1227-4.7908,4.8364-10.9911,3.7462-17.3783
		c-0.9113-5.3405-0.9753-10.8682,0.6776-16.0819c1.0625-3.3518,1.5212-7.2094,1.1998-10.8455
		c-0.3456-3.9084-2.0465-7.7318-1.5972-11.6932c0.3954-3.4857,0.8256-6.9673,1.2767-10.4462
		c0.9264-7.1418,1.9451-14.2711,2.9401-21.4034c0.25-1.7915,0.4984-3.5833,0.7441-5.3757l1.0813-21.6824
		c1.2635-9.7722,2.3583-19.5659,2.9838-29.4017c0.9216-19.6587-2.15-39.2091-1.4635-58.8497
		c5.9625,1.283,10.2271,6.288,16.0812,7.8237c3.5054,0.3254,4.8605-3.7943,4.9508-6.613
		c0.7588-13.2444-1.2468-26.5248,0.0541-39.7511c3.1802-37.1674,9.8475-74.5697,4.8607-111.8995
		c-3.4332-22.8932-8.4021-45.6777-8.6007-68.9141c-2.5659-93.9393,0.3612-188.005,8.0946-281.637
		c0.7771-7.2275,1.2108-14.5093,2.3491-21.6824c1.5358-10.6063,6.7214-20.2912,8.0586-30.9337
		c2.8547-18.4842,4.3546-37.1854,4.6256-55.8865C1939.6429,863.3447,1933.2284,841.2827,1920.9056,823.0876z M1575.1248,381.4882
		c14.8706,2.3308,26.8864,11.7808,38.9381,20.0563c1.6079,1.0299,2.5295,2.5115,2.7644,4.4628
		C1601.9749,399.7376,1587.3031,392.0763,1575.1248,381.4882z"/>
</g>
</svg>
