<?xml version="1.0" encoding="UTF-8" standalone="no"?>
<!-- Created with Inkscape (http://www.inkscape.org/) -->

<svg
   xmlns:dc="http://purl.org/dc/elements/1.1/"
   xmlns:cc="http://creativecommons.org/ns#"
   xmlns:rdf="http://www.w3.org/1999/02/22-rdf-syntax-ns#"
   xmlns:svg="http://www.w3.org/2000/svg"
   xmlns="http://www.w3.org/2000/svg"
   xmlns:sodipodi="http://sodipodi.sourceforge.net/DTD/sodipodi-0.dtd"
   xmlns:inkscape="http://www.inkscape.org/namespaces/inkscape"
   width="777.698"
   height="800"
   id="svg2"
   sodipodi:version="0.32"
   inkscape:version="0.48.4 r9939"
   version="1.0"
   sodipodi:docname="Старый Тоомас.svg"
   inkscape:output_extension="org.inkscape.output.svg.inkscape">
  <defs
     id="defs4">
    <inkscape:perspective
       sodipodi:type="inkscape:persp3d"
       inkscape:vp_x="0 : 526.18109 : 1"
       inkscape:vp_y="0 : 1000 : 0"
       inkscape:vp_z="744.09448 : 526.18109 : 1"
       inkscape:persp3d-origin="372.04724 : 350.78739 : 1"
       id="perspective10" />
    <inkscape:perspective
       id="perspective2390"
       inkscape:persp3d-origin="372.04724 : 350.78739 : 1"
       inkscape:vp_z="744.09448 : 526.18109 : 1"
       inkscape:vp_y="0 : 1000 : 0"
       inkscape:vp_x="0 : 526.18109 : 1"
       sodipodi:type="inkscape:persp3d" />
  </defs>
  <sodipodi:namedview
     id="base"
     pagecolor="#ffffff"
     bordercolor="#666666"
     borderopacity="1.0"
     gridtolerance="10000"
     guidetolerance="10"
     objecttolerance="10"
     inkscape:pageopacity="0.0"
     inkscape:pageshadow="2"
     inkscape:zoom="0.24748737"
     inkscape:cx="772.77774"
     inkscape:cy="1031.6319"
     inkscape:document-units="px"
     inkscape:current-layer="g3188"
     showgrid="false"
     inkscape:window-width="1280"
     inkscape:window-height="746"
     inkscape:window-x="1834"
     inkscape:window-y="32"
     fit-margin-top="0"
     fit-margin-left="0"
     fit-margin-right="0"
     fit-margin-bottom="0"
     inkscape:window-maximized="0" />
  <metadata
     id="metadata7">
    <rdf:RDF>
      <cc:Work
         rdf:about="">
        <dc:format>image/svg+xml</dc:format>
        <dc:type
           rdf:resource="http://purl.org/dc/dcmitype/StillImage" />
      </cc:Work>
    </rdf:RDF>
  </metadata>
  <g
     inkscape:label="Layer 1"
     inkscape:groupmode="layer"
     id="layer1"
     transform="translate(-14.762044,494.34622)">
    <g
       id="g3188"
       transform="matrix(2.4671622,0,0,2.4671622,-953.74485,-1891.1038)">
      <g
         id="g2988"
         transform="matrix(2.6614393,0,0,2.6614393,-652.21303,-1479.3431)">
        <path
           inkscape:connector-curvature="0"
           style="fill:#000000;fill-rule:evenodd;stroke:none"
           d="m 470.1371,881.259 4.88713,-18.55296 -4.15641,-1.71995 c 2.27284,-5.58618 6.05045,-9.53929 8.3233,-13.17979 -0.16836,-3.19882 -0.71553,-5.64002 -0.88389,-8.83884 -1.6788,0.26361 -3.35759,0.44558 -5.03639,0.56883 -0.42286,0.031 -0.34065,-1.20432 -0.76351,-1.18036 -3.48156,-0.41574 -9.1115,1.13712 -12.20464,-0.89362 -4.53295,1.97186 -7.15577,1.57766 -7.18614,-1.08338 -0.0304,-2.66104 1.63332,-2.83748 6.48119,-4.57818 3.5569,-2.90785 8.32127,-2.1933 12.4819,-3.28994 l 0.35266,-1.34682 11.17823,-3.47509 0,-4.16688 c -3.05137,-1.50186 -3.54413,-4.15559 -4.92449,-5.93464 -1.88939,-0.46941 -6.31037,-0.48545 -6.31345,-2.52538 -0.007,-4.65671 9.73801,-5.78698 14.39467,-5.80838 4.55825,-0.021 13.99416,0.24578 13.76333,4.79823 -0.0996,1.96436 -4.58422,2.21167 -5.93465,2.52538 0.38213,1.59431 -3.14759,7.43352 -4.67196,7.57614 l 0,3.6618 c 0,0 8.26191,1.38124 11.11168,3.28299 2.90499,1.93859 7.57615,8.83884 7.57615,8.83884 l -2.02031,2.27284 c 1.87717,0.50016 3.08774,3.80003 3.283,11.36422 2.28839,4.84156 0.63701,7.80793 -1.01015,8.08122 -1.69665,0.2815 -3.36719,-0.67342 -3.53554,-4.54569 -2.60525,-3.24144 -4.85234,-6.52766 -4.79822,-10.10152 l -2.02031,0.75761 c -1.31779,-1.23514 -2.12937,-2.72339 -2.77792,-4.29315 -0.92716,3.28062 -2.29703,5.67581 -3.53553,8.33376 2.94628,4.32056 5.89255,8.91377 8.83883,14.89975 l -5.17703,1.38897 c 0,0 4.68057,19.44011 5.68211,19.5717 0.93032,0.12223 3.0122,4.28307 4.04061,4.79822 1.77948,0.89137 -3.08112,3.01121 -5.55584,1.26269 -1.98539,-1.40278 -2.07752,-3.70389 -2.77792,-5.55584 -3.97091,-7.18134 -5.8611,-18.65654 -7.56942,-20.59904 -1.51523,-0.50508 -8.02294,-0.63134 -8.02294,-0.63134 l -7.64115,18.45246 c -1.0821,3.69142 -1.48836,6.07807 -2.69098,7.2962 -1.81102,1.83437 -6.17054,0.8909 -5.86172,-0.30577 0.49056,-1.9009 4.09476,-4.74241 4.67572,-7.12529 z"
           id="path2396"
           sodipodi:nodetypes="cccccccczccccccssscccscccscccccccssscccccsc" />
        <path
           sodipodi:nodetypes="csccsccsssssccccsccscsccccccccsccccccsc"
           inkscape:connector-curvature="0"
           style="fill:#000000;fill-opacity:1;stroke:none"
           d="m 452.03125,768.5625 c 0,0 -2.26003,4.61893 -2.1875,6.75 0.0327,0.95962 1.1875,2.96875 1.1875,2.96875 l 0,11.8125 c -1.30516,-0.64754 -9.10494,-4.36825 -14.40625,-3.40625 -3.8468,0.69805 -7.01267,4.47804 -10.125,8.4375 l -6.46875,-1.71875 c 0.4107,-1.10228 0.62794,-2.23152 0.5625,-3.3125 -0.30367,-5.01584 -7.72499,-10.84125 -12.75,-10.84375 -7.44696,-0.004 -15.47516,8.95772 -15.28125,16.28125 0.25646,9.68585 11.3713,21.81695 24.25,21.34375 6.25103,-0.22968 13.70783,-5.49736 19.9375,-6.0625 4.47298,-0.40577 12.17509,7.05313 14.28125,9.1875 l 0,69.33323 2.28125,0 0,-110.98948 c 0,0 0.84123,-2.2223 0.8125,-3.21875 -0.0596,-2.06572 -2.09375,-6.56249 -2.09375,-6.5625 z M 409.75,785.4375 c 3.57886,-0.0971 5.98103,2.84528 6.1875,5.28125 0.21726,2.56326 -1.6166,6.25627 -4.5625,4.9375 -0.45383,-1.86546 2.10298,0.52648 2.03125,-2.03125 -0.0599,-2.13471 -1.65711,-2.04338 -2.65625,-2 -0.57529,0.025 -1.26001,0.12143 -1.8125,0.5 l -3,-5.5 c 1.15899,-0.70004 2.46303,-1.15186 3.8125,-1.1875 z m -8.15625,6.4375 c 2.03508,0.7966 4.77189,1.85258 6.40625,2.5 0.0147,1.70831 0.71141,3.75036 2.65625,4.84375 -0.70264,1.45873 -1.5201,3.09791 -2.46875,4.9375 -3.55508,-1.55219 -6.71646,-4.64813 -7.03125,-9.75 -0.049,-0.79453 0.12819,-1.67077 0.4375,-2.53125 z m 17.21875,3.90625 c 1.54525,0.99449 3.26357,2.08605 4.6875,3.09375 -2.95766,3.58981 -6.02711,6.55642 -9.71875,6.5 -0.3524,-0.005 -0.72364,0.005 -1.09375,-0.0312 l 0.0625,-5.4688 c 0.13403,0.0204 0.26549,0.0488 0.40625,0.0625 1.7224,0.16787 4.05443,-1.67612 5.65625,-4.15625 z"
           id="rect3170" />
      </g>
    </g>
  </g>
</svg>
