<?xml version="1.0" encoding="UTF-8" standalone="no"?>
<!-- Created with Inkscape (http://www.inkscape.org/) -->

<svg
   xmlns:dc="http://purl.org/dc/elements/1.1/"
   xmlns:cc="http://creativecommons.org/ns#"
   xmlns:rdf="http://www.w3.org/1999/02/22-rdf-syntax-ns#"
   xmlns:svg="http://www.w3.org/2000/svg"
   xmlns="http://www.w3.org/2000/svg"
   xmlns:sodipodi="http://sodipodi.sourceforge.net/DTD/sodipodi-0.dtd"
   xmlns:inkscape="http://www.inkscape.org/namespaces/inkscape"
   width="30.132082mm"
   height="39.628231mm"
   viewBox="0 0 106.76722 140.41499"
   id="svg3368"
   version="1.1"
   inkscape:version="0.91pre3 r13670"
   sodipodi:docname="baby3.svg">
  <defs
     id="defs3370" />
  <sodipodi:namedview
     id="base"
     pagecolor="#ffffff"
     bordercolor="#666666"
     borderopacity="1.0"
     inkscape:pageopacity="0.0"
     inkscape:pageshadow="2"
     inkscape:zoom="2.8"
     inkscape:cx="92.666732"
     inkscape:cy="74.23894"
     inkscape:document-units="px"
     inkscape:current-layer="layer1"
     showgrid="false"
     inkscape:window-width="1364"
     inkscape:window-height="766"
     inkscape:window-x="0"
     inkscape:window-y="0"
     inkscape:window-maximized="0"
     fit-margin-top="0"
     fit-margin-left="0"
     fit-margin-right="0"
     fit-margin-bottom="0" />
  <metadata
     id="metadata3373">
    <rdf:RDF>
      <cc:Work
         rdf:about="">
        <dc:format>image/svg+xml</dc:format>
        <dc:type
           rdf:resource="http://purl.org/dc/dcmitype/StillImage" />
        <dc:title></dc:title>
      </cc:Work>
    </rdf:RDF>
  </metadata>
  <g
     inkscape:label="Layer 1"
     inkscape:groupmode="layer"
     id="layer1"
     transform="translate(-282.33327,-117.22288)">
    <path
       style="fill:#000000"
       d="m 295.21428,256.66221 c 3.37648,-5.32959 3.28952,-11.97608 5.65238,-17.74025 2.40215,-8.5054 4.25865,-17.2227 7.39998,-25.46252 2.42504,-8.70285 4.66308,-17.42772 7.19764,-26.09724 2.54694,-6.87677 -5.22168,-5.26088 -6.6893,1.1975 -1.86087,6.48916 -4.28275,12.84962 -5.7482,19.47524 -1.58848,5.92213 -3.24404,11.77664 -4.84213,17.66809 -0.22435,5.22098 -5.07723,9.63565 -10.36063,8.16376 -6.16027,-0.84802 -6.4067,-8.0577 -4.28535,-12.56974 3.14908,-8.01961 4.71965,-16.56697 7.23015,-24.81167 2.96107,-10.39653 5.28604,-21.21005 11.00887,-30.54089 5.48525,-7.26511 15.36038,-8.7585 23.90285,-8.23286 10.55398,0.20234 21.24099,-0.74345 31.70042,0.82632 5.92435,1.23213 11.63956,4.67602 13.96386,10.48648 2.85564,5.73008 5.3813,11.64324 6.38466,18.01975 2.66486,8.09791 4.90403,16.33034 6.97014,24.59658 2.10445,5.11663 3.9161,10.59431 4.40087,16.17406 -0.25334,7.25059 -11.59025,8.53238 -14.35676,2.15952 -1.89404,-4.78523 -2.97919,-9.86661 -4.38015,-14.81499 -2.02105,-8.24929 -4.87576,-16.30319 -6.44929,-24.64715 0,0 -2.39203,-11.18737 -8.69239,-7.60454 -0.0118,5.52166 3.20337,11.25122 4.02458,16.97579 2.27611,5.70769 2.76469,11.98165 5.50342,17.46238 1.50146,5.50421 2.72914,11.03177 4.47029,16.47135 1.83799,7.638 4.35603,15.22343 6.33174,22.74216 -5.4787,2.19086 -12.3366,0.24431 -18.36807,0.95616 -20.48526,-0.0471 -40.9956,0.41003 -61.46381,-0.36099 l -0.36153,-0.14513 z m 46.35001,-4.05 c 5.97434,-1.21806 11.65939,-4.55941 14.86162,-9.84656 6.78272,-8.61035 6.98173,-21.21009 0.99173,-30.29441 -3.45623,-6.02818 -9.02453,-8.31231 -14.65336,-11.02058 -5.95886,-0.8162 -12.98549,-1.11919 -18.59728,1.77472 -5.47713,2.64432 -9.62215,6.24187 -11.60656,11.95252 -5.08324,9.72652 -3.52419,23.16774 5.07841,30.4213 5.61042,7.03934 15.52762,8.44913 23.92544,7.01301 z m -8.55001,-9.45 c -5.23235,-0.68502 -5.30326,-11.87487 -10.5634,-5.15289 -5.92975,3.65135 -7.35241,-4.70665 -1.76367,-6.17442 4.02653,-3.77362 9.78733,-4.00509 12.5806,1.06152 6.00823,-4.79147 -2.82826,-8.04198 -4.40566,-12.26671 -2.65577,-6.62499 5.70046,-6.68413 6.53454,-0.52332 3.59628,3.71744 13.51622,1.83461 11.84999,9.3106 -2.91225,3.78283 -2.60781,10.20473 -7.17019,12.52694 -2.20854,0.89637 -4.65386,2.63507 -7.06221,1.21828 z m 8.55001,-22.50001 c -5.49185,-2.17942 -5.15536,-11.72844 1.50544,-11.80418 8.28409,-1.06886 9.18598,13.26748 0.52754,12.29916 l -1.03371,-0.1681 z m -11.25001,-69.3 c -5.96428,-1.61727 -9.79723,-6.7529 -11.52633,-12.3709 -0.57306,-6.15593 -1.20279,-6.45732 2.30404,-13.60177 5.10839,-9.11497 18.96446,-11.00817 26.3599,-3.60222 4.85745,4.76022 7.11095,11.66368 4.98267,19.0159 -2.88236,6.3822 -9.35448,11.80578 -16.7058,11.0713 -1.76924,-0.16756 -3.73223,0.11469 -5.41448,-0.51231 z"
       id="path3357"
       inkscape:connector-curvature="0"
       sodipodi:nodetypes="cccccccccccccccccccccccccccccccccccccccccccccccccccccccccc" />
  </g>
</svg>
