<?xml version="1.0" standalone="no"?>
<!DOCTYPE svg PUBLIC "-//W3C//DTD SVG 20010904//EN"
 "http://www.w3.org/TR/2001/REC-SVG-20010904/DTD/svg10.dtd">
<svg version="1.0" xmlns="http://www.w3.org/2000/svg"
 width="1280.000000pt" height="1280.000000pt" viewBox="0 0 1280.000000 1280.000000"
 preserveAspectRatio="xMidYMid meet">
<metadata>
Created by potrace 1.15, written by Peter Selinger 2001-2017
</metadata>
<g transform="translate(0.000000,1280.000000) scale(0.100000,-0.100000)"
fill="#000000" stroke="none">
<path d="M10138 10856 c-59 -16 -112 -56 -149 -114 -42 -66 -121 -260 -169
-413 -63 -202 -158 -455 -198 -534 -40 -75 -131 -180 -198 -226 -24 -16 -45
-29 -48 -29 -3 0 -6 20 -6 43 0 28 17 88 45 163 87 228 111 361 81 452 -22 64
-100 176 -163 232 -26 23 -81 58 -120 77 -93 45 -209 56 -294 28 -30 -10 -58
-21 -62 -25 -5 -4 37 -52 93 -106 229 -222 333 -398 347 -589 7 -97 -8 -173
-48 -254 -31 -62 -152 -195 -171 -189 -25 9 -49 56 -57 113 -6 33 -15 104 -21
159 -6 55 -20 120 -32 148 -38 89 -168 180 -401 282 -126 55 -229 110 -316
169 -53 36 -61 29 -61 -63 0 -81 20 -161 61 -243 68 -136 157 -221 271 -259
52 -18 75 -34 134 -92 153 -153 212 -391 116 -466 -15 -12 -67 -45 -116 -73
-228 -134 -576 -470 -882 -852 -100 -124 -234 -302 -234 -310 0 -9 80 -5 128
7 42 10 69 35 297 263 267 268 442 425 653 583 139 104 213 147 238 138 8 -3
12 -2 9 3 -11 18 75 9 99 -10 14 -11 59 -68 102 -127 135 -186 224 -293 344
-413 90 -90 129 -122 180 -146 60 -29 150 -50 150 -35 0 4 -9 30 -19 58 -11
28 -27 94 -36 145 -21 126 -60 269 -86 321 -36 72 -97 146 -142 172 -23 13
-95 36 -160 52 -123 28 -174 53 -188 91 -7 19 -2 27 34 51 158 109 375 168
532 145 156 -22 244 -91 331 -257 53 -100 74 -177 81 -293 3 -57 9 -103 14
-103 14 0 60 62 90 121 63 125 87 279 65 408 -19 105 -55 179 -112 230 -71 62
-221 105 -414 117 -165 11 -186 26 -93 69 89 40 216 130 272 191 95 104 165
260 196 439 8 49 24 176 35 281 20 202 46 306 101 415 15 31 25 59 22 63 -10
10 -74 6 -125 -8z"/>
<path d="M4047 10770 c-32 -105 -59 -147 -251 -385 -120 -149 -138 -185 -144
-286 -5 -93 6 -144 59 -262 40 -90 72 -204 67 -239 -3 -17 -9 -15 -67 22 -89
58 -142 115 -254 280 -205 298 -292 403 -434 520 -95 79 -179 126 -272 154
-60 17 -267 43 -276 34 -9 -9 31 -176 64 -266 54 -148 129 -261 234 -351 67
-57 121 -82 325 -153 261 -90 379 -154 418 -229 28 -54 27 -54 -139 -50 -258
5 -434 -29 -752 -149 -147 -56 -211 -74 -282 -83 l-91 -12 20 -40 c48 -95 131
-149 258 -167 119 -18 201 -3 341 62 242 111 436 155 580 131 78 -13 214 -60
202 -71 -4 -3 -35 -14 -68 -24 -70 -21 -142 -56 -205 -99 -74 -51 -215 -193
-293 -296 -57 -75 -301 -433 -315 -462 -1 -3 44 -12 102 -19 190 -23 238 -2
346 154 187 271 374 427 606 506 178 60 317 46 528 -55 373 -179 743 -517 898
-819 38 -75 48 -63 48 60 l0 91 -79 119 c-171 259 -396 469 -712 664 -127 78
-149 99 -149 141 0 76 121 255 325 480 267 295 358 432 401 598 19 78 13 137
-24 205 l-26 48 -50 -57 c-61 -70 -163 -149 -366 -286 -186 -124 -283 -216
-328 -309 -51 -106 -63 -167 -75 -412 -7 -124 -15 -229 -18 -232 -9 -10 -121
67 -156 108 -74 84 -106 191 -106 351 0 131 9 184 67 387 115 402 134 601 67
688 -15 19 -21 21 -24 10z"/>
<path d="M6378 10320 c-211 -429 -351 -823 -365 -1030 -4 -65 0 -91 31 -198
20 -68 36 -144 36 -168 0 -81 -46 -134 -115 -134 -77 0 -131 103 -145 275 -9
117 -34 189 -91 269 -105 146 -241 186 -313 91 -65 -84 -114 -232 -135 -400
-24 -198 -9 -354 51 -500 22 -55 80 -219 128 -364 56 -166 99 -279 117 -305
24 -34 47 -49 143 -93 63 -29 120 -52 127 -53 19 0 28 83 28 245 -1 179 -17
277 -87 530 -79 285 -86 313 -92 368 -3 29 -3 45 0 35 3 -9 12 -19 20 -22 12
-5 13 -2 4 17 -28 57 32 -33 69 -103 59 -113 75 -158 173 -495 49 -170 91
-311 93 -313 9 -9 54 99 64 153 21 110 9 304 -34 575 l-6 35 21 -25 c38 -45
76 -135 111 -264 19 -69 37 -126 40 -126 11 0 28 53 38 120 14 91 28 302 51
750 23 436 36 623 54 760 l12 95 7 -195 c4 -107 11 -386 17 -620 12 -535 42
-1019 63 -1012 4 1 41 2 83 2 l75 0 19 43 c10 23 30 82 44 130 23 77 74 205
61 151 -4 -14 0 -21 10 -21 8 0 15 5 15 10 0 6 2 8 5 5 3 -3 10 -64 15 -136
10 -126 38 -242 60 -242 4 0 28 23 53 50 61 67 96 167 159 450 27 124 52 236
55 250 6 23 7 23 15 5 6 -15 7 -12 5 13 -2 18 0 29 5 24 12 -12 -19 -686 -42
-897 l-8 -80 38 -41 c46 -50 91 -137 115 -218 l17 -58 35 34 c73 70 173 334
237 623 72 326 69 495 -14 820 -64 252 -127 445 -144 445 -25 0 -192 -89 -255
-135 -63 -46 -112 -106 -137 -164 -15 -36 -35 -140 -58 -312 -19 -134 -39
-187 -79 -204 -57 -24 -130 13 -148 75 -16 53 -1 135 53 295 73 214 65 327
-42 585 -192 465 -210 516 -268 745 -7 28 -14 17 -94 -145z"/>
<path d="M6100 8676 c0 -8 7 -16 15 -20 13 -4 14 -2 5 14 -13 23 -20 26 -20 6z"/>
<path d="M4165 8046 c-51 -77 -62 -249 -24 -371 27 -88 51 -136 101 -203 44
-59 89 -91 163 -115 61 -21 145 -83 163 -120 17 -35 8 -78 -24 -112 -33 -36
-63 -30 -151 30 -76 51 -105 55 -193 29 -112 -33 -231 -130 -436 -355 -77 -85
-161 -170 -187 -189 -25 -19 -47 -37 -47 -41 0 -3 24 -30 53 -60 29 -29 85
-107 125 -171 175 -282 279 -373 473 -414 51 -11 94 -14 139 -9 98 11 189 11
183 1 -4 -5 -1 -6 6 -1 19 11 61 -34 61 -65 0 -54 -68 -109 -155 -124 -94 -18
-157 -75 -211 -191 -37 -80 -72 -203 -81 -286 l-5 -56 43 -25 c142 -82 411
-97 659 -36 106 25 124 34 235 119 117 88 174 114 219 99 36 -12 80 -54 90
-86 8 -25 -21 -68 -139 -207 -145 -172 -175 -245 -175 -427 0 -117 12 -176 90
-465 28 -106 53 -224 57 -267 7 -90 7 -90 105 -57 130 43 220 126 290 266 38
77 41 90 48 195 7 115 28 188 52 188 9 0 9 -3 -2 -10 -10 -6 -2 -7 25 -3 63
10 66 9 86 -17 35 -46 44 -145 30 -324 -32 -399 -28 -452 51 -709 70 -229 328
-941 370 -1022 13 -24 16 -18 41 108 42 214 110 407 280 792 144 329 175 438
165 598 -4 62 -14 105 -43 177 -20 52 -39 120 -42 151 -5 54 -4 58 22 75 39
26 130 31 155 9 24 -21 38 -84 49 -212 7 -94 11 -107 43 -155 19 -29 74 -98
122 -153 48 -54 99 -119 113 -143 14 -23 27 -41 29 -40 2 2 17 44 35 93 17 50
72 185 121 300 49 116 106 257 126 315 35 100 36 111 37 240 0 150 -11 202
-70 325 -34 71 -111 167 -165 205 l-29 21 -12 -46 c-7 -26 -34 -80 -60 -121
-89 -135 -93 -147 -92 -259 1 -72 9 -132 29 -215 21 -90 27 -140 27 -228 1
-128 -9 -150 -43 -102 -36 50 -77 169 -120 348 -23 92 -46 182 -51 200 l-11
32 -98 0 c-95 0 -99 -1 -119 -26 -12 -15 -26 -45 -31 -68 -15 -61 -50 -130
-60 -120 -4 5 -21 52 -38 104 -55 178 -70 197 -111 144 -65 -83 -120 -499
-166 -1259 -17 -290 -43 -556 -54 -568 -12 -12 -32 150 -42 348 -9 178 0 634
21 1020 5 94 10 252 10 351 0 182 0 182 -24 198 -58 38 -127 180 -171 350
l-22 89 -68 -204 c-37 -112 -86 -242 -109 -289 l-41 -85 -3 85 c-2 46 2 115 8
152 5 37 10 114 10 172 0 124 -7 130 -70 65 -47 -49 -124 -196 -220 -424 -39
-93 -82 -189 -96 -213 -22 -36 -28 -41 -44 -32 -44 23 -39 119 16 296 80 260
95 320 97 389 2 107 -12 137 -91 188 -37 24 -103 74 -147 110 -44 37 -88 67
-98 67 -55 0 -196 -41 -400 -116 -223 -83 -299 -106 -382 -118 -36 -5 -31 -1
60 55 153 95 283 165 493 266 133 64 191 97 186 105 -5 7 -8 53 -8 102 l-1 90
-45 10 c-29 6 -87 5 -165 -3 -144 -13 -252 -14 -260 -2 -5 9 40 28 250 106
199 74 316 149 363 233 l23 41 -49 25 c-156 79 -395 115 -887 136 -324 13
-434 21 -410 30 11 4 34 6 50 3 20 -3 26 -2 17 5 -10 6 4 12 45 20 125 25 250
32 540 32 285 0 498 12 516 30 5 4 -5 54 -22 111 -36 122 -48 135 -193 217
-107 60 -189 120 -196 142 -3 11 -1 10 9 -2 10 -13 18 -15 29 -8 13 8 12 10
-5 11 -11 1 29 7 90 15 60 7 131 18 157 24 l48 12 0 84 c0 46 1 87 2 92 1 8
-118 69 -352 181 -145 69 -216 119 -262 184 -12 18 -16 27 -8 21 8 -6 26 -15
40 -19 24 -7 25 -7 5 9 -18 15 91 -39 142 -70 11 -7 67 -34 123 -59 115 -52
239 -85 319 -85 50 0 56 3 110 52 64 58 186 121 269 139 32 7 61 15 65 19 12
11 -27 84 -71 132 -68 76 -78 78 -407 78 -300 0 -420 8 -540 36 -76 18 -178
61 -225 94 l-29 21 -16 -25z m308 -2083 c-7 -2 -21 -2 -30 0 -10 3 -4 5 12 5
17 0 24 -2 18 -5z m1270 -1440 c-7 -2 -19 -2 -25 0 -7 3 -2 5 12 5 14 0 19 -2
13 -5z"/>
<path d="M6422 8034 c-72 -19 -107 -39 -156 -87 -56 -56 -99 -121 -122 -182
-16 -41 -19 -79 -19 -213 0 -160 -1 -164 -24 -183 -42 -34 -72 -25 -162 52
-46 39 -118 87 -159 107 -73 36 -76 37 -195 37 -113 0 -123 -2 -167 -27 -105
-62 -211 -217 -248 -364 -46 -179 -4 -381 105 -502 61 -68 110 -99 233 -148
113 -46 142 -69 142 -113 0 -35 -26 -58 -124 -112 -154 -86 -236 -192 -236
-307 0 -109 81 -273 190 -384 170 -172 308 -180 552 -31 33 20 62 32 69 27 8
-4 10 -3 5 4 -12 20 39 14 65 -7 23 -19 24 -25 30 -208 6 -216 13 -240 95
-312 101 -89 239 -134 404 -134 209 1 348 80 428 242 24 50 26 66 26 161 -1
69 -9 138 -23 200 -11 52 -21 108 -21 125 0 40 27 65 76 70 36 4 37 4 9 -5
-28 -8 -28 -9 10 -6 33 2 64 -9 183 -70 186 -95 229 -108 352 -102 74 4 108
10 144 28 96 46 190 174 232 315 22 74 25 247 6 322 -36 137 -164 193 -445
193 -118 0 -147 11 -159 58 -18 70 25 111 231 218 163 85 222 168 229 321 6
132 -35 245 -128 347 -97 105 -286 173 -408 145 -58 -13 -69 -20 -180 -117
-154 -136 -179 -146 -233 -93 -38 38 -38 90 -3 221 14 52 28 132 31 177 5 75
3 87 -21 137 -49 100 -154 168 -309 200 -93 19 -234 20 -305 0z m156 -335 c-2
-27 -8 -35 -26 -37 -30 -4 -52 14 -52 43 0 20 5 23 35 21 28 -1 34 2 30 14 -5
11 -3 12 5 4 6 -6 10 -27 8 -45z m174 -453 c91 -18 207 -57 267 -93 157 -91
280 -237 330 -393 67 -206 34 -502 -76 -684 -86 -140 -248 -276 -401 -334
-119 -46 -183 -57 -337 -56 -167 1 -252 20 -391 89 -165 81 -307 241 -358 405
-52 163 -58 377 -15 531 73 262 305 468 599 530 105 22 281 24 382 5z m-1182
-117 c19 -34 4 -69 -28 -69 -32 0 -52 16 -52 42 0 14 8 18 35 18 39 0 48 16
13 23 l-23 4 22 2 c13 0 27 -7 33 -20z m2025 -51 c-4 -9 5 -13 25 -13 23 0 29
4 25 15 -5 11 -3 12 5 4 16 -16 8 -65 -12 -78 -23 -14 -52 3 -56 33 -4 23 3
51 12 51 3 0 3 -6 1 -12z m143 -1070 c36 -36 -4 -101 -48 -78 -37 20 -21 90
20 90 9 0 21 -5 28 -12z m-2080 -159 c-2 -27 -8 -35 -26 -37 -30 -4 -52 14
-52 43 0 20 5 23 35 21 28 -1 34 2 30 14 -5 11 -3 12 5 4 6 -6 10 -27 8 -45z
m1036 -628 c3 -4 -6 -6 -19 -3 -14 2 -25 6 -25 8 0 8 39 4 44 -5z m-18 -21
c34 0 41 -10 28 -44 -8 -20 -57 -21 -74 -1 -8 9 -10 25 -5 42 4 16 10 22 12
16 3 -7 20 -13 39 -13z"/>
<path d="M6430 7125 c-249 -56 -428 -210 -502 -430 -20 -62 -23 -89 -23 -235
0 -136 3 -175 19 -220 44 -128 110 -226 208 -306 176 -145 462 -184 699 -95
171 65 336 238 390 411 43 138 34 346 -21 492 -64 172 -235 322 -426 373 -84
23 -263 28 -344 10z m280 -336 c74 -34 125 -81 158 -143 24 -46 27 -61 27
-156 0 -98 -2 -109 -30 -158 -84 -152 -322 -217 -496 -135 -83 39 -119 70
-152 132 -52 95 -43 250 19 344 32 48 105 101 174 127 81 29 224 24 300 -11z"/>
<path d="M6503 6520 c-18 -7 -23 -17 -23 -43 0 -41 19 -60 57 -55 25 3 28 8
31 43 3 29 -1 43 -14 52 -20 15 -21 15 -51 3z"/>
<path d="M7686 6002 c-3 -6 8 -12 24 -14 19 -3 29 -1 27 6 -5 14 -43 20 -51 8z"/>
<path d="M7983 7810 c-123 -23 -223 -83 -239 -146 -8 -30 -10 -29 156 -128 88
-52 139 -76 171 -81 26 -3 116 1 200 10 153 16 214 15 297 -7 31 -8 40 -14 30
-20 -9 -7 -7 -8 8 -5 12 2 27 2 33 -2 5 -4 -42 -12 -106 -19 -173 -18 -260
-39 -343 -80 l-75 -37 0 -70 0 -70 121 -30 c67 -17 134 -37 150 -45 28 -13 27
-14 -53 -26 -47 -7 -100 -22 -125 -36 l-43 -23 -3 -66 -3 -66 48 -13 c26 -6
107 -18 178 -25 124 -12 205 -33 205 -53 0 -21 -65 -35 -220 -48 -166 -15
-216 -24 -258 -47 -22 -13 -21 -14 58 -102 88 -99 108 -109 250 -139 68 -14
309 -43 515 -62 63 -6 74 -9 50 -15 -26 -6 -27 -7 -6 -8 13 0 22 -3 19 -6 -3
-3 -115 -10 -249 -15 -181 -7 -265 -15 -324 -29 -97 -24 -178 -57 -170 -71 15
-24 141 -82 255 -115 69 -20 126 -39 128 -40 2 -2 -32 -11 -75 -20 -84 -18
-189 -50 -212 -64 -11 -7 -6 -21 24 -72 21 -35 44 -71 52 -80 18 -21 1 -29
-70 -30 -29 -1 -65 -4 -82 -8 l-30 -7 108 -110 c59 -61 107 -114 107 -118 0
-12 -104 3 -167 25 -34 11 -83 19 -124 19 l-69 0 -35 -47 c-19 -27 -34 -57
-32 -68 3 -32 70 -61 273 -119 233 -67 348 -115 409 -168 25 -22 44 -43 41
-45 -8 -9 -210 36 -400 88 -188 52 -434 105 -443 95 -11 -11 8 -57 39 -91 17
-20 75 -70 130 -112 54 -41 98 -77 98 -78 0 -7 -150 39 -235 72 -113 45 -390
139 -432 148 l-31 6 5 -43 c9 -68 41 -144 84 -198 72 -91 227 -191 378 -243
77 -27 98 -30 201 -30 96 0 153 8 350 48 173 35 268 49 358 52 l123 6 -5 66
c-3 36 -8 121 -11 189 -7 136 -25 220 -58 270 -12 18 -86 84 -164 148 -216
175 -256 230 -218 304 26 50 64 60 229 60 129 0 154 3 228 26 173 55 269 125
360 263 41 63 48 81 48 122 0 45 -9 64 -111 227 -141 225 -178 273 -249 320
-67 45 -102 55 -265 77 -66 9 -139 25 -162 35 -69 30 -95 110 -52 163 24 31
86 52 202 67 219 29 376 175 451 418 7 22 6 22 -81 22 -130 1 -217 15 -402 65
-91 24 -218 54 -281 65 -130 23 -379 34 -457 20z m1080 -1457 c-7 -2 -21 -2
-30 0 -10 3 -4 5 12 5 17 0 24 -2 18 -5z"/>
<path d="M5020 5160 c-433 -310 -832 -695 -1011 -975 -32 -49 -70 -110 -86
-134 -45 -71 -73 -86 -156 -85 -53 1 -89 8 -133 26 -136 57 -271 178 -298 267
-31 105 -82 169 -194 242 -93 61 -186 93 -277 93 -107 1 -112 -3 -71 -66 18
-29 66 -127 106 -218 39 -91 94 -208 121 -261 54 -105 140 -209 198 -238 37
-20 129 -35 266 -46 96 -7 127 -14 119 -26 -3 -5 1 -6 9 -3 8 3 19 -2 26 -10
19 -23 -100 -144 -187 -189 -238 -125 -503 -37 -811 270 -74 74 -138 130 -142
126 -12 -14 -38 -99 -45 -150 -14 -109 36 -221 154 -346 76 -80 189 -154 250
-163 65 -10 184 16 356 78 154 56 209 70 243 61 l23 -5 -29 -42 c-113 -162
-319 -272 -736 -397 -359 -107 -510 -199 -551 -336 -13 -41 -20 -133 -10 -133
2 0 42 18 89 40 114 54 206 76 390 95 531 56 722 154 886 455 22 41 41 69 41
63 0 -16 27 -17 32 -2 2 7 11 -62 20 -152 30 -302 86 -400 258 -459 50 -17 88
-23 165 -23 116 0 197 18 298 68 64 32 156 93 157 105 0 3 -18 4 -40 2 -56 -6
-188 14 -262 38 -35 12 -95 41 -134 65 -175 109 -251 262 -224 452 20 149 56
250 123 356 l36 55 38 -8 c34 -8 36 -7 19 6 -11 8 -15 14 -10 14 17 0 51 -43
63 -80 6 -19 18 -72 26 -117 19 -101 36 -142 77 -189 79 -90 210 -147 426
-184 64 -11 143 -30 175 -41 32 -11 61 -18 64 -16 10 11 -19 112 -48 168 -48
89 -239 269 -470 442 -129 97 -202 158 -214 180 -17 32 -17 36 -1 85 52 155
345 513 747 914 120 119 224 229 232 245 9 16 18 47 22 68 3 22 9 52 11 68 3
15 1 27 -4 27 -6 0 -61 -36 -122 -80z"/>
<path d="M7676 4784 c-3 -26 -6 -76 -6 -111 0 -57 5 -72 41 -136 145 -252 375
-469 744 -704 131 -84 154 -107 155 -154 1 -71 -111 -236 -331 -484 -267 -303
-374 -474 -395 -633 -7 -55 14 -141 44 -180 l18 -24 68 70 c43 45 144 124 279
219 288 202 377 293 428 438 20 58 23 80 45 433 l6 94 33 -4 c20 -2 31 0 28 6
-4 5 14 -5 40 -24 125 -89 184 -279 157 -506 -6 -54 -30 -169 -52 -254 -22
-85 -53 -206 -69 -269 -41 -159 -55 -286 -40 -354 13 -58 56 -123 64 -97 3 8
13 38 21 65 16 50 83 146 229 331 42 55 90 124 105 154 24 49 27 66 27 155 -1
87 -5 109 -29 165 -43 100 -86 223 -86 247 0 18 4 21 26 17 17 -3 23 -1 19 7
-5 7 0 7 16 -2 58 -31 157 -143 271 -309 166 -240 217 -307 301 -391 184 -185
347 -265 581 -284 l88 -8 -7 44 c-44 262 -192 525 -356 629 -28 18 -144 65
-258 105 -233 81 -360 142 -402 195 -30 38 -48 90 -30 90 6 0 8 -7 4 -16 -5
-14 -3 -15 15 -5 13 7 82 11 180 11 250 0 388 30 678 145 174 70 259 97 351
111 l42 6 -19 38 c-28 55 -77 100 -140 129 -45 20 -75 26 -164 29 -127 5 -189
-6 -296 -55 -335 -154 -509 -179 -715 -102 -33 12 -53 25 -49 31 4 6 2 8 -4 5
-5 -4 -18 -4 -28 0 -12 4 6 11 52 20 151 31 328 148 472 314 41 46 117 149
169 229 52 80 121 184 153 231 l59 86 -46 7 c-74 10 -217 7 -254 -6 -55 -18
-76 -38 -133 -124 -186 -279 -392 -449 -651 -535 -104 -35 -231 -33 -345 5
-107 36 -289 128 -403 204 -264 175 -534 457 -648 675 -22 42 -41 77 -43 77
-2 0 -6 -21 -10 -46z"/>
<path d="M6790 4346 c0 -2 9 -6 20 -9 11 -3 18 -1 14 4 -5 9 -34 13 -34 5z"/>
</g>
</svg>
