<?xml version="1.0" encoding="UTF-8" standalone="no"?>
<svg version="1.1" xmlns="http://www.w3.org/2000/svg" viewBox="-500 -500 1000 1000">
	<g id="Kruhotvar-11">
		<title>Kruhotvar XI, by Adam Stanislav</title>
		<path d="m-500 0c0-151.868 130.061-153.234 383-48.463-252.939-104.771-343.94-197.703-236.553-305.09 107.387-107.387 200.319-16.386 305.09 236.553-104.771-252.939-103.405-383 48.463-383 151.868 0 153.234 130.061 48.463 383 104.771-252.939 197.703-343.94 305.09-236.553 107.387 107.387 16.386 200.319-236.553 305.09 252.939-104.771 383-103.405 383 48.463 0 151.868-130.061 153.234-383 48.463 252.939 104.771 343.94 197.703 236.553 305.09-107.387 107.387-200.319 16.386-305.09-236.553 104.771 252.939 103.405 383.008-48.463 383-151.883-0.008-153.245-130.069-48.463-383-104.771 252.939-197.703 343.94-305.09 236.553-107.387-107.387-16.386-200.319 236.553-305.09-252.939 104.771-383 103.405-383-48.463z"/>
	</g>
</svg>
