<?xml version="1.0" standalone="no"?>
<!DOCTYPE svg PUBLIC "-//W3C//DTD SVG 20010904//EN"
 "http://www.w3.org/TR/2001/REC-SVG-20010904/DTD/svg10.dtd">
<svg version="1.0" xmlns="http://www.w3.org/2000/svg"
 width="1020.000000pt" height="1280.000000pt" viewBox="0 0 1020.000000 1280.000000"
 preserveAspectRatio="xMidYMid meet">
<metadata>
Created by potrace 1.15, written by Peter Selinger 2001-2017
</metadata>
<g transform="translate(0.000000,1280.000000) scale(0.100000,-0.100000)"
fill="#000000" stroke="none">
<path d="M4535 12675 c-213 -44 -404 -211 -553 -485 -77 -141 -176 -414 -230
-630 l-18 -75 -105 -12 c-941 -113 -1791 -348 -2474 -683 -446 -220 -798 -475
-953 -692 -139 -194 -164 -246 -188 -383 -22 -135 -15 -204 45 -416 28 -96 55
-214 60 -262 12 -104 38 -154 118 -227 264 -242 964 -411 2128 -515 462 -41
749 -57 1369 -76 l408 -13 -7 -480 c-4 -265 -8 -482 -9 -483 -2 -2 -444 202
-468 217 -10 6 -18 7 -18 4 0 -4 110 -154 245 -334 l245 -327 0 -721 c0 -397
-2 -722 -4 -722 -2 0 -65 29 -140 64 -75 36 -136 63 -136 60 0 -2 61 -85 135
-184 l135 -179 0 -165 0 -165 -230 -3 -231 -3 3 27 c2 20 -45 92 -222 337
-123 171 -225 309 -227 307 -2 -2 15 -144 38 -315 22 -172 38 -315 35 -318 -9
-9 -121 24 -177 53 -67 33 -128 90 -150 139 -36 79 -28 130 82 515 75 261 118
432 143 570 84 469 0 758 -257 883 -403 197 -845 137 -1077 -146 -27 -34 -67
-96 -87 -138 l-36 -77 -85 39 c-46 22 -86 39 -88 39 -2 0 29 -44 70 -97 l73
-98 -13 -213 c-13 -220 -30 -363 -65 -562 -24 -138 -170 -894 -173 -897 -2 -2
-76 31 -165 73 -90 41 -165 74 -166 72 -2 -2 44 -66 102 -143 203 -271 192
-251 182 -320 -20 -142 -30 -365 -20 -440 52 -375 426 -666 1027 -799 98 -22
265 -46 316 -46 24 0 57 -7 73 -16 26 -13 38 -14 82 -3 89 21 576 -9 1038 -65
l180 -21 -4 -224 c-2 -123 -7 -247 -10 -276 l-6 -53 -95 43 c-52 24 -96 42
-98 40 -2 -2 41 -63 96 -137 l100 -133 -9 -195 c-26 -564 -69 -1042 -89 -986
-4 13 -16 8 -65 -24 -156 -103 -194 -227 -109 -355 175 -267 1085 -419 1844
-309 337 49 621 145 732 249 71 66 93 110 93 184 -1 70 -14 104 -62 161 l-28
33 -6 -24 c-4 -13 -8 89 -8 226 -2 414 -42 1183 -107 2032 -9 117 -14 229 -12
248 2 19 0 35 -4 35 -4 0 -8 22 -8 49 0 49 0 49 38 55 225 34 596 65 916 76
160 6 336 15 391 21 439 45 832 199 1063 414 110 102 198 246 223 363 10 48
38 91 254 380 134 180 242 328 240 330 -1 1 -113 -49 -249 -112 -230 -106
-246 -112 -250 -92 -2 11 -21 140 -41 286 -20 146 -58 393 -84 550 -26 157
-44 291 -40 299 4 8 1 20 -5 27 -11 11 -59 306 -91 566 -8 65 -19 207 -25 315
-11 221 -15 253 -37 335 l-16 58 132 176 c73 97 131 177 129 179 -2 2 -86 -35
-187 -82 l-183 -85 -29 35 c-68 83 -213 169 -352 210 -60 17 -98 21 -227 21
-137 -1 -166 -4 -255 -28 -134 -36 -272 -103 -333 -161 -133 -123 -195 -376
-172 -692 19 -260 59 -480 161 -900 114 -467 125 -536 95 -607 -47 -114 -219
-196 -468 -224 -68 -7 -78 -6 -78 7 0 9 15 133 34 276 19 143 34 260 33 261
-1 1 -92 -123 -202 -277 l-200 -278 -162 -1 -162 0 -5 33 c-3 17 -15 142 -26
277 -12 135 -32 353 -44 485 l-24 240 63 85 c35 47 62 86 60 88 -2 2 -31 -11
-65 -28 -34 -17 -63 -30 -65 -28 -1 2 -10 82 -19 178 -9 96 -32 334 -52 529
l-34 354 146 194 c80 107 144 196 142 198 -2 1 -70 -28 -152 -66 -82 -38 -152
-69 -156 -69 -3 0 -12 55 -19 123 -6 67 -14 141 -17 165 l-6 42 253 0 c428 0
1321 36 1864 76 1177 85 1871 240 2100 470 58 58 63 71 125 389 39 196 37 397
-6 479 -9 17 -22 65 -30 106 -71 395 -648 802 -1649 1163 -769 277 -1750 495
-2661 592 l-60 7 -12 106 c-20 181 -82 340 -203 522 -68 101 -217 263 -313
339 -226 180 -487 260 -701 216z m5580 -3056 c-9 -17 -19 -28 -22 -25 -6 6 23
56 32 56 3 0 -2 -14 -10 -31z"/>
</g>
</svg>
