<?xml version="1.0" standalone="no"?>
<!DOCTYPE svg PUBLIC "-//W3C//DTD SVG 20010904//EN"
 "http://www.w3.org/TR/2001/REC-SVG-20010904/DTD/svg10.dtd">
<svg version="1.0" xmlns="http://www.w3.org/2000/svg"
 width="1280.000000pt" height="651.000000pt" viewBox="0 0 1280.000000 651.000000"
 preserveAspectRatio="xMidYMid meet">
<metadata>
Created by potrace 1.15, written by Peter Selinger 2001-2017
</metadata>
<g transform="translate(0.000000,651.000000) scale(0.100000,-0.100000)"
fill="#000000" stroke="none">
<path d="M7419 6477 c17 -21 14 -25 -27 -33 -26 -5 -31 -4 -27 8 5 11 0 15
-17 14 -14 -1 -22 -7 -20 -15 2 -8 -3 -18 -10 -23 -9 -6 -5 -7 10 -3 25 7 27
-1 12 -41 -10 -26 -11 -26 -26 -8 -9 10 -13 13 -9 6 3 -6 -1 -15 -10 -18 -14
-6 -14 -8 2 -24 12 -11 20 -13 25 -6 4 7 16 2 32 -14 32 -29 33 -39 4 -34 -13
2 -17 2 -10 -2 6 -3 12 -14 12 -25 0 -14 6 -18 24 -17 20 2 23 5 15 20 -11 19
-9 21 44 33 26 5 28 4 23 -17 -3 -13 -3 -17 0 -10 4 9 9 10 19 2 10 -8 15 -8
20 0 4 6 4 14 1 17 -3 3 -1 12 5 19 8 10 5 11 -12 7 -20 -6 -21 -3 -15 23 9
35 17 44 23 26 4 -9 10 -7 21 9 11 16 12 24 4 27 -7 2 -12 11 -12 20 -1 13 -4
11 -14 -7 l-13 -23 -22 31 c-12 17 -18 31 -12 31 6 0 11 9 11 20 0 11 -7 20
-15 20 -8 0 -15 -5 -15 -11 0 -8 -6 -7 -17 2 -16 13 -17 12 -4 -4z m41 -62
c21 -22 22 -30 14 -63 -8 -32 -14 -38 -48 -47 -36 -8 -40 -7 -61 19 -21 26
-22 32 -11 65 12 33 31 46 72 50 6 1 21 -10 34 -24z"/>
<path d="M7374 6395 c-14 -22 -15 -30 -4 -50 19 -36 72 -35 89 1 27 59 -50
103 -85 49z m62 1 c20 -21 17 -28 -6 -14 -11 7 -20 16 -20 20 0 12 10 9 26 -6z
m-16 -30 c0 -3 -8 -3 -17 0 -16 5 -15 3 1 -10 11 -9 17 -19 13 -22 -8 -9 -37
21 -37 39 0 22 11 27 26 12 8 -7 14 -16 14 -19z m30 -16 c0 -5 -4 -10 -10 -10
-5 0 -10 5 -10 10 0 6 5 10 10 10 6 0 10 -4 10 -10z"/>
<path d="M8721 6176 c-1 -21 -5 -27 -17 -22 -10 4 -13 2 -7 -7 4 -6 8 -24 8
-39 0 -16 5 -28 10 -28 6 0 10 3 10 8 0 4 4 13 9 21 6 10 5 12 -2 7 -7 -4 -12
-3 -12 2 0 6 8 13 17 16 12 5 14 9 6 14 -6 4 -13 18 -16 32 -4 24 -4 24 -6 -4z"/>
<path d="M8621 6117 c-1 -15 -4 -16 -22 -7 -11 7 -23 9 -26 7 -2 -3 5 -10 16
-17 12 -6 19 -15 16 -21 -8 -11 6 -12 24 0 12 8 12 14 4 33 -9 18 -12 19 -12
5z"/>
<path d="M4150 6095 c0 -19 -4 -23 -17 -18 -17 6 -17 5 0 -14 19 -22 23 -38 5
-27 -7 5 -8 3 -2 -7 5 -8 9 -20 9 -26 0 -27 20 -11 20 17 0 17 8 36 20 45 20
16 20 16 -2 10 -19 -5 -21 -3 -17 20 2 14 0 25 -6 25 -5 0 -10 -11 -10 -25z"/>
<path d="M6008 6093 c0 -16 -1 -36 0 -45 1 -10 -1 -18 -3 -18 -3 0 -18 8 -33
18 l-27 17 28 -36 c32 -42 37 -69 10 -48 -17 13 -17 13 0 -7 18 -22 23 -49 7
-39 -14 8 -12 -7 3 -26 11 -15 14 -14 31 9 11 14 14 22 8 18 -18 -11 -14 5 6
27 16 19 16 20 0 14 -30 -11 -21 19 15 48 29 25 25 26 -17 9 -12 -5 -14 3 -11
40 3 27 1 46 -5 46 -6 0 -11 -12 -12 -27z"/>
<path d="M8797 6113 c-13 -12 -7 -41 9 -47 26 -10 28 -7 9 14 -18 20 -18 21 1
14 11 -3 15 -2 9 3 -5 4 -13 12 -16 16 -3 4 -9 4 -12 0z"/>
<path d="M8651 6088 c-1 -10 1 -18 3 -18 2 0 11 -3 20 -6 9 -3 16 -1 16 5 0 6
-6 11 -14 11 -8 0 -17 6 -19 13 -3 7 -6 5 -6 -5z"/>
<path d="M8750 6070 c-8 -5 -12 -12 -9 -15 8 -8 39 5 39 16 0 11 -11 11 -30
-1z"/>
<path d="M3990 6029 c0 -5 4 -9 9 -9 5 0 17 -3 27 -7 11 -4 15 -3 11 4 -9 14
-47 24 -47 12z"/>
<path d="M4051 6031 c-1 -8 -8 -22 -16 -31 -14 -16 -13 -17 12 -16 16 0 38 -3
51 -7 14 -5 22 -4 22 2 0 6 -7 11 -15 11 -8 0 -15 8 -15 18 0 14 -2 15 -10 2
-7 -12 -11 -10 -19 10 -5 14 -10 19 -10 11z"/>
<path d="M8607 6029 c11 -11 8 -15 -15 -26 l-27 -12 28 5 c19 4 27 2 27 -7 0
-11 3 -11 10 1 14 22 12 28 -12 41 -19 9 -21 9 -11 -2z"/>
<path d="M8647 6024 c2 -7 13 -10 24 -7 27 7 24 21 -5 19 -13 0 -22 -6 -19
-12z"/>
<path d="M8730 6032 c0 -14 40 -43 41 -29 1 6 4 2 7 -10 7 -21 7 -21 26 4 18
25 18 25 -2 19 -12 -4 -26 -1 -35 9 -17 16 -37 20 -37 7z"/>
<path d="M4236 6014 c-5 -12 -1 -23 10 -31 23 -17 39 -17 25 0 -8 11 -5 17 15
26 15 6 24 14 21 17 -3 3 -15 0 -27 -6 -17 -9 -24 -9 -30 0 -5 8 -9 6 -14 -6z"/>
<path d="M8690 6000 c-6 -11 -7 -20 -3 -20 4 0 -1 -7 -11 -15 -20 -15 -20 -15
0 -15 11 0 25 -5 32 -12 7 -7 12 -8 12 -2 0 6 -5 15 -11 21 -8 8 -8 17 0 31 7
13 7 23 2 27 -6 3 -15 -4 -21 -15z"/>
<path d="M4207 5995 c-4 -9 -11 -14 -16 -11 -5 3 -12 -1 -15 -10 -5 -13 -1
-15 21 -9 36 9 37 10 25 30 -8 16 -9 16 -15 0z"/>
<path d="M5841 5983 c-1 -18 -5 -33 -11 -33 -5 0 -10 5 -10 11 0 5 -5 7 -10 4
-6 -4 -17 -1 -25 5 -8 7 -20 10 -27 7 -7 -2 6 -13 30 -23 23 -10 42 -21 42
-25 0 -3 -11 -12 -25 -19 -36 -19 -25 -23 21 -7 48 17 74 12 47 -9 -16 -13
-15 -13 10 -4 37 13 40 13 33 -6 -5 -12 -2 -15 10 -10 8 3 23 6 32 6 11 0 13
3 6 8 -6 4 -14 16 -18 27 -5 13 -10 15 -13 8 -7 -20 -23 -15 -23 6 0 11 -5 23
-12 27 -8 5 -9 0 -5 -15 10 -40 -17 -17 -35 30 -17 44 -17 44 -17 12z"/>
<path d="M6141 5953 c-20 -41 -25 -45 -31 -28 -7 19 -7 19 -14 -2 -8 -24 -26
-31 -26 -10 0 6 -6 3 -12 -8 -6 -11 -16 -23 -22 -27 -7 -5 -5 -8 6 -8 9 0 24
-3 33 -6 10 -4 15 -2 13 7 -3 14 3 15 37 4 19 -6 19 -6 2 8 -26 21 -1 27 40
10 46 -19 50 -16 18 13 -23 21 -26 31 -22 60 3 19 5 34 3 34 -1 0 -12 -21 -25
-47z"/>
<path d="M8817 5979 c7 -7 15 -10 18 -7 3 3 -2 9 -12 12 -14 6 -15 5 -6 -5z"/>
<path d="M6201 5953 c-26 -11 -31 -17 -21 -23 8 -5 17 -5 20 -1 3 5 14 10 24
12 11 2 21 10 24 17 5 15 -4 14 -47 -5z"/>
<path d="M4067 5937 c4 -6 -5 -7 -22 -3 -25 6 -26 5 -12 -8 8 -9 13 -26 11
-38 -5 -20 -3 -19 11 5 9 15 20 25 25 22 6 -4 10 -1 10 4 0 6 5 10 11 9 6 -2
13 2 16 8 2 6 -9 11 -26 11 -17 0 -28 -5 -24 -10z"/>
<path d="M4183 5926 c9 -7 17 -19 17 -27 1 -9 4 -8 11 5 12 20 -2 36 -31 36
-12 -1 -12 -3 3 -14z"/>
<path d="M8676 5924 c-4 -9 -4 -19 -1 -22 2 -3 7 3 11 12 4 9 4 19 1 22 -2 3
-7 -3 -11 -12z"/>
<path d="M4134 5915 c-4 -11 -12 -23 -18 -27 -6 -4 -1 -8 12 -8 13 0 21 4 18
9 -4 5 -2 11 4 13 6 2 6 9 0 18 -7 12 -10 11 -16 -5z"/>
<path d="M4006 5904 c-11 -8 -16 -14 -10 -14 13 0 39 18 34 24 -3 2 -14 -2
-24 -10z"/>
<path d="M4226 5911 c-4 -5 -2 -20 3 -33 8 -19 10 -20 10 -4 1 17 2 17 26 2
14 -9 25 -13 25 -9 0 5 -10 14 -21 22 -18 10 -19 15 -8 22 11 7 9 9 -8 9 -12
0 -24 -4 -27 -9z"/>
<path d="M4100 5854 c-15 -9 -18 -13 -6 -9 10 3 29 -1 42 -10 23 -15 23 -15
12 10 -13 29 -15 29 -48 9z"/>
<path d="M5870 5835 c20 -24 6 -28 -35 -10 -41 17 -60 14 -26 -5 24 -12 29
-35 6 -26 -8 3 -15 1 -15 -4 0 -6 -9 -10 -19 -10 -19 0 -38 -17 -29 -26 3 -2
21 3 41 11 49 20 49 20 43 -17 -6 -32 -5 -31 16 10 23 44 38 54 38 25 1 -13 6
-9 16 11 10 18 19 24 23 18 5 -8 12 -5 23 7 15 18 15 20 -5 25 -12 3 -24 0
-28 -6 -6 -9 -14 -9 -35 1 -25 11 -26 10 -14 -4z"/>
<path d="M4110 5831 c0 -5 -3 -16 -6 -25 -3 -9 -2 -16 4 -16 13 0 23 38 11 46
-5 3 -9 1 -9 -5z"/>
<path d="M6037 5820 c6 -23 23 -37 23 -20 0 21 20 -1 21 -23 1 -18 2 -19 6 -4
8 30 27 13 39 -34 11 -42 12 -42 13 -11 1 17 6 32 11 32 6 0 10 -4 10 -10 0
-5 5 -10 12 -10 6 0 20 -7 30 -17 10 -9 21 -14 24 -10 10 10 -4 24 -42 42
l-37 17 33 14 c44 19 35 25 -19 13 -46 -10 -65 -5 -41 12 11 7 7 9 -15 7 -20
-2 -29 1 -27 10 1 7 -8 12 -22 12 -19 0 -23 -4 -19 -20z"/>
<path d="M5977 5802 c-14 -15 -15 -21 -5 -25 8 -3 2 -10 -16 -18 l-29 -14 24
-5 c23 -6 23 -7 -16 -34 -37 -26 -38 -28 -12 -22 24 6 28 4 23 -11 -15 -53
-17 -73 -7 -73 6 0 11 9 11 19 0 11 4 22 10 26 5 3 7 12 3 20 -5 15 8 21 20 9
3 -3 -14 -61 -37 -128 -199 -556 -417 -941 -701 -1234 -177 -184 -339 -303
-560 -414 -66 -33 -121 -63 -123 -68 -2 -4 25 -29 60 -55 210 -158 401 -166
660 -27 13 6 -34 -104 -89 -209 -72 -140 -164 -261 -296 -391 l-109 -108 -46
33 c-26 17 -81 66 -123 107 -59 59 -85 94 -117 160 -67 138 -69 130 35 130 48
0 131 9 183 20 61 12 98 16 104 10 13 -13 29 -13 21 0 -3 6 1 10 9 10 8 0 18
5 22 12 4 7 3 8 -5 4 -11 -7 -81 37 -89 56 -2 4 -8 8 -13 8 -10 0 -128 85
-219 158 -247 197 -412 442 -475 707 -9 39 -19 77 -22 85 -2 8 -19 -25 -37
-75 -169 -468 -391 -761 -686 -902 -43 -21 -78 -42 -76 -48 1 -5 25 -26 54
-44 36 -24 48 -37 39 -43 -7 -5 0 -6 16 -2 22 5 27 3 28 -12 0 -11 3 -14 6 -6
5 13 37 15 68 3 18 -7 17 -9 -10 -25 -21 -11 -23 -15 -8 -11 20 6 21 4 13 -25
-5 -16 -5 -30 0 -30 4 0 11 12 14 26 6 22 9 24 22 13 13 -11 14 -9 3 15 -15
32 -7 42 44 50 33 5 37 4 38 -17 1 -16 3 -17 6 -5 3 11 10 15 21 11 13 -5 14
-3 5 7 -9 10 -7 17 8 33 28 31 32 16 8 -38 -41 -92 -93 -169 -167 -246 -78
-82 -202 -189 -219 -189 -20 0 -149 146 -207 234 -73 109 -129 238 -164 374
-18 73 -28 99 -34 86 -4 -11 -32 -84 -63 -164 -105 -272 -211 -445 -365 -600
-100 -101 -165 -149 -293 -216 l-78 -41 33 -25 c49 -37 108 -65 155 -73 45 -7
151 15 190 40 34 23 35 19 8 -41 -42 -96 -96 -176 -172 -255 -87 -91 -281
-245 -292 -233 -5 5 -26 53 -47 108 -21 54 -45 101 -52 104 -27 10 -148 -19
-225 -55 l-78 -37 -60 60 c-75 74 -122 144 -154 229 -14 36 -25 66 -25 68 0 1
46 2 103 3 92 1 249 25 286 44 10 5 -19 32 -94 86 -271 198 -398 317 -500 470
-85 126 -161 311 -181 442 -8 51 -14 46 -38 -28 -71 -213 -205 -476 -314 -612
-106 -134 -260 -258 -400 -324 -31 -14 -59 -28 -61 -30 -7 -6 42 -44 94 -71
67 -37 175 -39 249 -5 27 12 51 20 54 18 7 -7 -41 -107 -83 -172 -52 -82 -160
-191 -289 -292 l-110 -86 50 -14 c75 -20 249 -26 360 -12 53 6 104 14 112 18
12 4 14 1 8 -14 -39 -104 -187 -265 -401 -435 l-156 -124 38 -3 c21 -2 126 1
233 7 201 11 310 30 403 70 27 12 51 21 53 21 2 0 4 -42 4 -93 0 -65 -6 -111
-19 -153 -11 -32 -25 -78 -31 -101 -8 -33 -20 -49 -54 -73 -206 -141 -347
-439 -406 -859 -11 -75 -20 -152 -20 -172 l0 -36 2092 -6 c1151 -4 3985 -7
6296 -7 l4204 0 -38 68 c-229 411 -503 791 -775 1077 -97 102 -107 115 -123
175 -10 36 -21 103 -24 150 l-5 84 24 -17 c52 -38 168 -87 244 -102 74 -15
357 -34 520 -35 l69 0 -34 30 c-19 16 -96 76 -170 132 -211 161 -332 295 -355
391 l-7 27 199 0 c247 0 328 7 312 27 -7 7 -69 58 -138 112 -196 153 -266 236
-311 366 -11 32 -20 59 -20 59 0 1 46 1 103 2 91 1 248 25 285 44 9 5 -30 40
-120 105 -315 232 -448 374 -556 590 -33 67 -88 232 -98 295 -8 47 -19 52 -29
13 -14 -57 -108 -285 -156 -379 -140 -273 -337 -479 -558 -585 -39 -19 -71
-36 -71 -39 0 -3 23 -21 50 -41 86 -64 195 -74 297 -29 25 11 48 18 51 15 8
-7 -72 -158 -116 -217 -45 -62 -219 -228 -238 -228 -7 0 -16 5 -20 11 -25 41
-311 132 -321 102 -2 -6 -27 -2 -67 13 -203 73 -415 72 -597 -5 -66 -28 -70
-28 -79 -10 -6 10 -10 22 -9 26 1 4 -5 25 -14 45 -10 21 -17 40 -17 43 0 3 39
5 88 5 82 0 312 36 312 49 -1 3 -62 51 -137 105 -396 289 -553 492 -637 826
-13 50 -25 92 -28 95 -3 3 -11 -14 -18 -37 -25 -87 -113 -296 -162 -388 -86
-161 -226 -348 -250 -333 -6 3 -8 1 -5 -4 15 -25 -160 -161 -292 -227 l-73
-37 21 -23 c25 -26 111 -71 157 -80 25 -6 36 -17 54 -56 l23 -49 -33 -51 -33
-51 -66 65 c-69 68 -81 74 -118 53 -21 -12 -19 -15 63 -99 l85 -86 -17 -36
c-10 -20 -21 -36 -26 -36 -4 0 -25 15 -45 33 -34 30 -149 120 -177 139 -7 4 4
22 28 47 l38 39 -32 17 c-32 17 -33 16 -64 -14 -18 -17 -36 -31 -41 -31 -6 1
-32 20 -58 43 l-49 43 23 47 c22 46 22 47 4 67 l-19 21 -23 -46 c-13 -25 -27
-43 -32 -41 -4 3 -25 30 -46 60 -39 57 -41 86 -6 86 13 0 18 -5 15 -14 -4 -10
2 -12 20 -9 17 4 24 11 23 24 -1 11 -7 17 -14 15 -14 -6 -17 12 -5 30 4 8 79
15 217 20 l210 9 -114 90 c-156 123 -219 180 -267 241 -39 50 -86 142 -99 195
l-7 27 129 5 c74 3 159 13 202 24 l74 18 -169 126 c-394 293 -522 469 -626
863 l-13 49 -24 -69 c-69 -201 -178 -425 -269 -554 -53 -74 -212 -241 -212
-222 0 7 9 20 20 29 15 13 17 20 8 30 -9 11 -6 13 15 9 24 -4 26 -3 17 15 -8
14 -7 19 1 19 8 0 8 4 -1 15 -12 15 -35 11 -25 -5 3 -4 -5 -10 -18 -14 -12 -3
-23 -1 -25 4 -6 16 -32 11 -32 -6 0 -9 5 -12 12 -8 8 5 9 2 5 -10 -4 -10 -7
-22 -7 -27 0 -5 -6 -8 -12 -7 -7 2 -13 -4 -13 -12 0 -8 7 -14 16 -12 9 1 20
-6 24 -15 8 -23 -36 -62 -144 -126 l-81 -48 -28 19 c-39 28 -151 147 -199 212
-72 95 -153 263 -177 363 l-7 28 108 -3 c105 -3 107 -4 113 -28 6 -24 7 -24
13 -4 4 11 13 21 20 22 6 1 28 5 48 8 25 4 40 1 51 -10 9 -8 18 -12 22 -9 3 4
6 -5 6 -18 0 -17 3 -20 9 -10 7 10 13 11 32 1 22 -10 23 -10 5 4 -10 9 -15 20
-10 27 5 9 2 10 -9 6 -19 -7 -47 1 -47 13 0 4 33 13 73 19 39 7 123 24 186 39
l113 27 -238 175 c-319 234 -434 329 -589 484 -212 213 -353 420 -465 681 -55
127 -120 336 -140 452 -7 40 -16 70 -20 68 -5 -3 -11 2 -14 11 -11 28 -7 37
11 23 15 -13 15 -12 5 8 -15 27 -15 46 -2 38 11 -7 12 2 1 28 -6 17 -8 17 -24
-1z m1443 -2422 c0 -5 -7 -7 -15 -4 -8 4 -15 8 -15 10 0 2 7 4 15 4 8 0 15 -4
15 -10z m-50 -15 c-6 -8 -10 -20 -7 -27 4 -8 6 -7 6 5 1 9 5 17 10 17 18 0 18
-15 0 -32 -13 -12 -20 -14 -27 -5 -12 15 2 57 19 57 8 0 8 -4 -1 -15z m89
-361 c-12 -27 -29 -59 -37 -72 l-15 -22 -46 37 c-25 20 -50 40 -55 44 -4 4 16
12 45 19 30 6 70 19 89 30 19 10 36 17 38 16 1 -2 -7 -25 -19 -52z m-2849 -98
c0 -6 -142 -116 -150 -116 -7 0 -50 86 -50 100 0 5 12 11 28 13 38 6 172 8
172 3z m-920 -17 c0 -14 -30 -64 -78 -131 l-33 -47 -82 59 c-45 33 -95 70
-110 83 l-28 22 93 3 c51 1 116 6 143 11 72 13 95 12 95 0z m3580 -162 c-49
-45 -173 -148 -217 -180 -29 -21 -53 -42 -53 -46 0 -6 152 -42 188 -44 6 0 12
-6 12 -13 0 -7 5 -16 11 -19 6 -4 9 0 7 11 -2 15 3 19 27 20 17 0 38 -3 47 -8
9 -5 18 -4 20 2 3 10 199 43 207 35 10 -11 -65 -129 -129 -201 l-32 -37 -36
22 c-120 71 -252 110 -396 117 -110 5 -98 -3 -171 105 -42 63 -95 167 -110
216 l-6 23 183 3 c101 1 246 3 323 5 117 2 137 0 125 -11z m-1919 -41 c-51
-118 -152 -256 -295 -404 -81 -84 -105 -103 -124 -99 -12 2 -25 1 -28 -4 -2
-4 -11 -6 -18 -3 -7 3 -18 -1 -25 -9 -9 -11 -8 -17 4 -27 14 -12 14 -15 -1
-31 -10 -11 -23 -19 -30 -19 -8 0 -19 -10 -26 -21 -7 -12 -67 -66 -133 -120
l-120 -99 -62 68 c-34 37 -62 73 -63 80 0 6 -6 13 -12 13 -7 1 -37 27 -66 59
l-53 58 61 95 c33 52 71 102 83 109 18 12 46 13 142 6 66 -4 179 -9 252 -11
152 -2 150 -8 26 90 -46 37 -83 69 -83 73 0 3 6 12 13 19 10 10 7 10 -15 2
-25 -9 -34 -5 -105 53 -43 35 -97 84 -121 108 l-43 45 98 -18 c145 -27 384
-24 583 5 85 13 160 24 167 25 9 1 6 -13 -6 -43z m-1871 -70 c0 -9 -167 -146
-178 -146 -5 0 -21 30 -35 68 l-25 67 112 6 c61 3 114 6 119 7 4 1 7 0 7 -2z
m4841 -148 c-5 -13 -16 -25 -26 -26 -16 -4 -16 -2 1 22 23 32 36 33 25 4z
m-4160 -17 c22 -17 71 -42 109 -57 57 -22 71 -32 80 -58 10 -29 8 -33 -38 -79
l-49 -49 -39 76 c-21 42 -42 76 -47 76 -4 0 -12 -11 -18 -24 -9 -19 -6 -32 15
-75 29 -55 28 -59 -9 -35 -18 12 -26 29 -34 82 -14 92 -21 172 -15 172 2 0 22
-13 45 -29z m-292 -76 c1 -19 -6 -20 -120 -21 l-121 0 69 16 c37 9 88 26 113
37 49 21 58 16 59 -32z m-299 -40 c-30 -7 -57 -12 -59 -9 -2 2 2 6 10 8 8 2
21 7 29 9 8 3 29 5 45 5 21 0 13 -4 -25 -13z m-134 -27 l19 -21 -27 18 c-29
18 -34 25 -20 25 5 0 17 -10 28 -22z m5644 -5 c-1 -5 -21 -30 -45 -56 l-44
-48 -16 31 c-9 18 -15 33 -13 34 7 5 103 44 111 45 4 1 7 -2 7 -6z m-1075
-282 c6 -10 -37 -110 -47 -111 -5 0 -8 12 -8 28 0 15 -3 51 -7 81 l-6 55 31
-23 c17 -12 34 -26 37 -30z m-5835 -7 c56 -4 124 -1 199 10 63 9 116 14 119
12 6 -6 -44 -96 -71 -128 -19 -22 -38 -29 -135 -46 -106 -18 -113 -18 -122 -2
-6 11 -5 21 2 28 13 13 -66 66 -125 84 -37 11 -67 40 -67 64 0 8 16 8 58 -2
31 -8 95 -17 142 -20z m5522 -34 c5 -36 2 -37 -22 -8 -13 17 -15 25 -7 30 20
13 25 9 29 -22z m443 -14 c46 -15 52 -21 73 -70 13 -29 39 -68 58 -87 30 -29
42 -33 101 -38 l68 -6 1 -40 c1 -22 6 -56 11 -75 8 -28 6 -43 -10 -74 -14 -30
-18 -54 -15 -101 l4 -63 -36 28 c-44 34 -90 50 -148 50 -67 0 -122 36 -169
112 -45 73 -83 158 -83 187 0 11 -5 31 -11 45 -10 22 -7 36 21 100 32 75 32
75 59 62 14 -7 49 -21 76 -30z m-6615 -62 c104 -122 101 -117 89 -153 -9 -25
-8 -34 5 -47 9 -8 16 -29 16 -44 l0 -30 -102 55 c-80 41 -113 66 -145 105 -39
47 -42 55 -37 91 8 45 -7 69 -42 69 -15 0 -24 6 -24 15 0 12 16 15 88 15 l87
-1 65 -75z m9890 50 c-10 -25 -68 -114 -74 -114 -2 0 -25 9 -51 21 -38 17 -52
19 -71 10 -13 -6 -24 -18 -24 -27 0 -12 -12 -6 -42 22 -52 46 -53 48 -33 68
11 11 35 16 73 17 47 0 92 6 224 28 4 0 3 -11 -2 -25z m-5260 -9 c0 -7 -7 -15
-15 -19 -11 -4 -15 1 -15 19 0 18 4 23 15 19 8 -4 15 -12 15 -19z m2295 -45
c10 -11 16 -20 13 -20 -3 0 -13 9 -23 20 -10 11 -16 20 -13 20 3 0 13 -9 23
-20z m268 14 l76 -7 -47 -38 c-52 -43 -51 -43 -137 -28 -56 10 -63 14 -78 45
l-17 34 64 0 c34 0 97 -3 139 -6z m-3039 -130 c7 -87 -1 -269 -13 -292 -5 -9
-22 -2 -59 28 -54 43 -58 50 -43 65 5 6 23 38 40 71 66 131 22 185 -89 108
l-52 -36 -24 23 -24 23 87 31 c49 17 102 39 118 48 17 9 35 16 41 17 7 0 14
-33 18 -86z m-3377 -11 c-47 -47 -59 -55 -67 -43 -5 8 -10 18 -10 22 0 6 119
77 130 78 3 0 -21 -26 -53 -57z m6824 -60 c-34 -66 -89 -136 -172 -220 -65
-65 -91 -84 -127 -93 -51 -13 -58 -10 -42 20 12 22 16 112 5 129 -3 6 -1 21 6
33 6 12 11 49 11 81 l-1 60 73 -6 c51 -5 89 -2 122 8 54 15 87 22 122 24 l22
1 -19 -37z m-3881 -39 c37 -59 175 -207 224 -241 l30 -21 -53 -11 c-74 -16
-200 -14 -284 5 -79 17 -233 88 -285 132 -31 25 -32 29 -21 60 6 18 9 48 7 67
-5 40 4 44 102 46 36 1 92 5 125 9 118 14 116 15 155 -46z m-2710 -184 c-76
-55 -191 -91 -311 -97 -111 -6 -126 2 -78 45 29 26 41 29 163 40 72 7 160 21
196 31 91 26 91 26 30 -19z"/>
<path d="M7140 2440 c0 -5 5 -11 10 -11 20 -3 25 -4 38 -12 7 -5 10 -17 7 -27
-8 -26 12 -35 25 -10 6 11 20 20 31 20 11 0 17 -4 14 -10 -3 -5 0 -10 8 -10 8
0 17 7 21 15 3 9 0 15 -8 15 -8 0 -13 8 -11 18 1 9 0 11 -2 4 -3 -7 -17 -18
-31 -23 -23 -9 -30 -7 -47 15 -20 26 -55 36 -55 16z"/>
<path d="M7227 2435 c7 -19 25 -15 31 6 3 11 2 11 -7 -1 -7 -10 -11 -11 -11
-2 0 6 -4 12 -10 12 -5 0 -7 -7 -3 -15z"/>
<path d="M4771 2534 c0 -11 3 -14 6 -6 3 7 2 16 -1 19 -3 4 -6 -2 -5 -13z"/>
<path d="M4836 2475 c-8 -22 -8 -22 11 -29 10 -4 14 -4 10 0 -4 5 3 14 15 22
17 10 18 12 4 7 -11 -3 -23 -1 -26 5 -5 8 -9 6 -14 -5z"/>
<path d="M8152 5380 c0 -14 2 -19 5 -12 2 6 2 18 0 25 -3 6 -5 1 -5 -13z"/>
<path d="M8134 5352 c15 -17 22 -19 33 -11 17 15 17 20 -2 13 -8 -4 -23 0 -33
7 -14 11 -13 9 2 -9z"/>
<path d="M4855 5309 c4 -11 -2 -18 -17 -23 -38 -10 -48 -7 -41 12 3 9 3 14 -2
10 -4 -4 -14 -3 -22 3 -9 9 -13 8 -14 0 -3 -20 -4 -26 -12 -38 -5 -7 -1 -9 13
-6 23 6 25 -3 10 -43 -10 -26 -11 -26 -25 -8 -8 10 -15 17 -15 14 -8 -33 -7
-44 3 -55 9 -10 14 -10 22 0 8 10 15 6 33 -16 l24 -29 -24 0 c-18 0 -20 -2 -8
-10 8 -5 11 -10 6 -10 -11 0 14 -30 26 -30 5 0 6 6 2 13 -5 8 -2 8 9 -2 19
-15 23 -1 5 17 -15 15 -11 18 34 26 29 5 37 4 33 -6 -4 -9 4 -14 21 -16 21 -2
25 1 20 15 -4 9 -1 20 6 25 8 6 4 7 -11 3 -22 -7 -23 -5 -17 21 9 35 17 44 23
26 4 -9 10 -7 21 9 11 16 12 24 4 27 -7 2 -12 11 -12 20 -1 13 -4 11 -13 -6
l-13 -22 -22 30 c-17 22 -19 30 -8 30 9 0 12 7 9 20 -4 13 -13 19 -29 18 -17
-2 -23 -7 -19 -19z m34 -53 c31 -33 23 -92 -15 -106 -40 -15 -57 -11 -81 20
-21 26 -22 30 -8 63 13 33 25 40 71 46 6 0 21 -10 33 -23z"/>
<path d="M4804 5235 c-14 -22 -15 -30 -4 -50 19 -36 72 -35 89 1 27 59 -50
103 -85 49z m62 1 c20 -21 17 -28 -6 -14 -11 7 -20 16 -20 20 0 12 10 9 26 -6z
m-30 -10 c20 -21 17 -28 -6 -14 -11 7 -20 16 -20 20 0 12 10 9 26 -6z m14 -48
c0 -12 -10 -9 -26 6 -20 21 -17 28 6 14 11 -7 20 -16 20 -20z m30 12 c0 -5 -4
-10 -10 -10 -5 0 -10 5 -10 10 0 6 5 10 10 10 6 0 10 -4 10 -10z"/>
<path d="M8010 5321 c0 -10 30 -24 37 -17 3 2 -5 9 -16 16 -12 6 -21 7 -21 1z"/>
<path d="M8053 5304 c-10 -22 -10 -24 7 -19 10 3 25 -1 33 -10 11 -11 18 -12
23 -4 7 12 -15 31 -28 23 -5 -3 -12 4 -16 15 -7 19 -8 19 -19 -5z"/>
<path d="M8231 5317 c-1 -11 -14 -24 -31 -30 -36 -14 -39 -25 -5 -23 14 0 25
5 25 9 0 5 10 5 21 2 14 -5 19 -3 15 3 -4 6 3 16 15 22 11 7 18 14 16 17 -3 2
-14 0 -25 -6 -17 -9 -21 -8 -25 7 -4 15 -5 15 -6 -1z"/>
<path d="M8143 5300 c-1 -11 2 -20 6 -20 5 0 11 9 14 20 3 12 0 20 -7 20 -6 0
-12 -9 -13 -20z"/>
<path d="M8077 5236 c3 -4 -5 -5 -18 -1 -13 4 -20 4 -16 -1 4 -4 -3 -14 -15
-22 -23 -13 -23 -13 4 -7 23 4 27 2 22 -12 -2 -10 1 -8 7 5 7 12 17 22 24 22
6 0 20 7 31 15 18 13 17 14 -13 12 -17 -1 -29 -6 -26 -11z"/>
<path d="M8170 5234 c0 -3 7 -12 15 -20 12 -12 15 -12 16 -2 0 7 5 0 11 -15
l10 -29 12 24 c11 21 9 24 -24 35 -41 15 -40 15 -40 7z"/>
<path d="M8129 5215 c-1 -8 -2 -19 -3 -25 0 -5 -10 -16 -21 -25 -14 -10 -15
-13 -4 -9 13 4 16 0 13 -23 -4 -27 -4 -27 6 -5 5 13 13 21 18 18 4 -2 8 15 8
40 0 24 -4 44 -8 44 -4 0 -9 -7 -9 -15z"/>
<path d="M8252 5184 c10 -10 20 -15 24 -12 3 4 -5 12 -18 18 -22 12 -22 12 -6
-6z"/>
<path d="M10046 4894 c-6 -31 -9 -34 -24 -22 -15 12 -15 10 1 -14 20 -32 22
-42 5 -32 -9 6 -9 3 0 -9 8 -9 11 -20 9 -25 -3 -4 -2 -14 4 -22 6 -10 9 -11 9
-2 0 24 2 27 18 45 15 17 15 17 -1 11 -25 -9 -21 11 6 30 20 15 21 16 2 11
-19 -5 -21 -1 -17 30 5 46 -4 45 -12 -1z"/>
<path d="M9925 4823 c7 -27 -3 -29 -31 -8 -21 16 -34 19 -34 7 0 -4 14 -13 32
-20 31 -11 31 -12 13 -27 -18 -13 -17 -14 13 -4 27 9 32 15 26 33 -3 11 -11
26 -16 31 -7 7 -8 3 -3 -12z"/>
<path d="M10141 4803 c-10 -22 -14 -24 -22 -12 -7 11 -9 11 -9 -5 0 -11 -5
-16 -14 -13 -8 3 -17 -1 -20 -9 -8 -22 -8 -24 9 -24 8 0 15 4 15 10 0 5 7 6
17 3 11 -4 14 -3 9 5 -9 15 4 15 40 1 l28 -10 -19 22 c-11 11 -19 30 -17 40 5
27 -3 24 -17 -8z"/>
<path d="M10190 4804 l-25 -15 25 7 c28 7 35 12 29 18 -2 2 -15 -2 -29 -10z"/>
<path d="M9956 4784 c-8 -22 1 -31 16 -16 9 9 9 15 1 23 -7 7 -12 5 -17 -7z"/>
<path d="M9986 4773 c-11 -11 -6 -23 9 -23 8 0 15 4 15 9 0 13 -16 22 -24 14z"/>
<path d="M9953 4702 c8 -16 13 -19 18 -10 5 7 14 13 20 13 7 0 14 5 16 12 3 8
-7 11 -30 10 -32 -2 -33 -4 -24 -25z"/>
<path d="M9904 4707 c19 -14 19 -15 -12 -22 -18 -3 -32 -11 -32 -16 0 -11 3
-11 34 1 22 8 26 7 26 -8 1 -13 4 -11 15 8 15 28 12 34 -25 45 -24 7 -24 6 -6
-8z"/>
<path d="M10066 4705 c4 -8 10 -12 15 -9 5 3 13 -4 17 -15 7 -19 8 -19 19 5
10 22 10 25 -3 20 -7 -3 -14 -1 -14 4 0 6 -9 10 -20 10 -13 0 -18 -5 -14 -15z"/>
<path d="M10020 4695 c-7 -8 -9 -15 -4 -15 5 0 0 -7 -10 -15 -19 -14 -19 -15
7 -15 20 0 25 4 20 17 -4 11 -3 14 5 9 14 -8 15 3 3 22 -6 10 -10 10 -21 -3z"/>
<path d="M10142 4693 c-18 -4 -21 -9 -16 -31 8 -33 14 -41 14 -19 0 21 9 21
38 1 13 -9 26 -14 28 -11 3 3 -8 13 -25 23 l-31 18 23 13 c22 12 13 14 -31 6z"/>
<path d="M9990 4625 c-21 -12 -22 -14 -6 -15 15 0 17 -5 12 -30 -3 -19 -2 -29
4 -25 6 3 10 17 10 31 0 28 8 31 26 7 7 -10 14 -13 14 -7 0 7 -8 21 -17 33
-16 18 -20 19 -43 6z"/>
<path d="M3258 4474 c14 -26 7 -34 -29 -34 -20 0 -27 4 -23 14 3 9 -2 13 -18
12 -14 -1 -22 -7 -20 -15 2 -8 -3 -18 -10 -23 -9 -7 -6 -8 10 -5 25 6 28 -7 7
-43 -12 -22 -14 -23 -21 -7 -6 17 -8 16 -21 -3 -14 -20 -13 -23 6 -41 17 -16
21 -17 21 -4 0 22 12 18 38 -16 l24 -29 -24 0 c-17 0 -19 -3 -9 -9 7 -5 11
-13 7 -19 -4 -7 5 -10 24 -10 24 1 28 4 19 15 -15 17 -12 20 34 28 31 6 36 5
32 -8 -4 -10 0 -14 17 -13 13 1 23 7 23 16 0 8 5 19 10 23 6 5 -2 6 -17 3 -26
-6 -26 -5 -15 29 10 34 27 48 27 23 0 -7 5 -5 11 5 6 9 14 15 20 12 14 -10 11
0 -10 24 -17 19 -19 20 -25 5 -6 -15 -9 -14 -31 6 -14 13 -25 19 -25 13 0 -5
8 -18 19 -27 16 -15 17 -21 6 -54 -11 -31 -19 -38 -51 -45 -20 -4 -37 -6 -38
-5 -1 2 -11 14 -23 28 -20 23 -21 31 -12 62 10 38 18 43 83 53 22 3 41 7 42 8
1 1 -2 13 -7 26 -7 18 -12 21 -22 12 -10 -8 -17 -7 -26 2 -11 10 -11 8 -3 -9z"/>
<path d="M3220 4400 c-24 -24 -25 -38 -4 -68 22 -32 60 -29 79 8 14 27 14 32
-1 55 -20 30 -47 32 -74 5z m66 -28 c-4 -3 -11 0 -16 8 -9 13 -14 8 -12 -11 1
-4 -8 -5 -18 -2 -22 6 -26 18 -10 28 6 3 10 0 10 -7 0 -8 5 -6 11 5 9 16 12
16 26 2 8 -9 12 -19 9 -23z m-46 -16 c0 -11 -19 -15 -25 -6 -3 5 1 10 9 10 9
0 16 -2 16 -4z m50 -5 c0 -6 -4 -13 -10 -16 -5 -3 -10 1 -10 9 0 9 5 16 10 16
6 0 10 -4 10 -9z m-30 -15 c0 -3 -4 -8 -10 -11 -5 -3 -10 -1 -10 4 0 6 5 11
10 11 6 0 10 -2 10 -4z"/>
<path d="M8820 4412 c0 -6 5 -14 11 -18 15 -9 -9 -24 -39 -24 -19 0 -22 4 -18
23 3 12 3 17 0 11 -3 -7 -14 -9 -26 -6 -18 4 -20 2 -16 -16 3 -12 1 -23 -6
-26 -6 -3 0 -3 12 0 21 5 23 3 17 -18 -4 -12 -11 -30 -16 -38 -6 -13 -9 -12
-15 3 -6 17 -8 16 -22 -4 -14 -20 -14 -23 1 -34 9 -7 16 -14 14 -16 -1 -2 3 2
10 10 10 12 15 10 32 -10 22 -26 26 -39 13 -39 -4 0 -8 -9 -9 -20 -1 -15 4
-19 23 -18 17 2 23 7 19 17 -3 8 0 18 7 23 17 10 58 10 58 -1 0 -5 9 -11 21
-14 17 -5 20 -2 16 13 -3 11 0 22 7 25 6 3 1 3 -11 1 -13 -2 -23 -3 -23 -2 0
2 5 18 12 36 10 29 13 31 23 17 11 -15 13 -14 23 9 10 20 9 26 -2 30 -8 3 -13
13 -10 22 3 9 -1 7 -7 -5 -15 -29 -20 -28 -42 2 -17 24 -17 25 0 25 15 0 16 2
3 10 -8 5 -11 10 -6 10 11 0 -14 30 -26 30 -5 0 -6 -6 -2 -12 5 -9 2 -9 -9 1
-10 8 -17 9 -17 3z m49 -73 c13 -17 21 -33 17 -36 -3 -3 -15 6 -27 20 -26 34
-54 34 -76 1 -15 -24 -15 -29 -2 -52 13 -24 26 -28 68 -23 5 1 12 11 16 24 3
12 8 17 11 10 7 -17 -10 -46 -29 -49 -8 -1 -23 -5 -34 -8 -14 -4 -25 2 -42 25
-21 29 -22 33 -9 67 13 34 28 44 78 50 3 1 16 -13 29 -29z m-21 -19 c7 -12 8
-20 2 -20 -5 0 -10 5 -10 11 0 5 -4 7 -10 4 -5 -3 -10 1 -10 9 0 22 13 20 28
-4z m-38 -5 c0 -8 5 -15 12 -15 6 0 3 -6 -8 -14 -16 -13 -17 -14 -2 -12 10 1
21 5 24 9 12 12 24 8 18 -6 -7 -18 -50 -19 -64 -2 -10 12 -9 15 6 16 11 0 14
3 7 6 -15 6 -17 33 -3 33 6 0 10 -7 10 -15z"/>
<path d="M2350 3901 c0 -25 -3 -29 -17 -24 -16 6 -16 4 1 -15 13 -15 15 -22 6
-22 -10 0 -10 -3 0 -15 10 -12 10 -15 -1 -15 -10 0 -10 -3 -1 -12 9 -9 15 -9
24 0 7 7 8 12 4 12 -5 0 -2 8 5 17 10 11 10 14 2 9 -18 -10 -16 4 4 26 16 18
16 18 -2 12 -15 -6 -17 -3 -13 20 3 14 1 29 -3 32 -5 3 -9 -8 -9 -25z"/>
<path d="M2244 3836 c5 -13 2 -17 -9 -12 -44 18 -51 18 -31 2 11 -9 24 -16 30
-16 5 0 1 -7 -10 -16 -18 -14 -18 -15 6 -8 37 9 40 16 24 44 -9 14 -13 17 -10
6z"/>
<path d="M2437 3825 c-4 -11 -21 -26 -39 -33 -26 -10 -30 -14 -19 -24 10 -10
15 -10 18 -1 2 7 11 9 20 6 11 -4 14 -2 9 5 -9 15 -5 15 30 2 22 -9 25 -8 16
3 -9 11 -6 16 14 26 33 15 26 25 -9 12 -21 -8 -26 -7 -29 7 -4 14 -5 14 -11
-3z"/>
<path d="M2276 3805 c-4 -11 -2 -22 6 -27 19 -11 40 -10 36 3 -2 6 -8 10 -13
9 -5 -1 -12 6 -15 16 -6 16 -7 16 -14 -1z"/>
<path d="M2224 3736 c18 -14 17 -15 -8 -22 -14 -3 -26 -10 -26 -15 0 -5 11 -4
25 1 21 8 25 6 26 -8 0 -13 3 -12 11 6 10 19 25 27 50 24 3 -1 9 5 11 13 4 10
-2 13 -23 13 -16 -1 -27 -5 -24 -10 7 -10 1 -10 -33 2 -26 9 -26 9 -9 -4z"/>
<path d="M2370 3735 c0 -8 7 -15 15 -15 8 0 15 -5 15 -12 0 -6 3 -8 7 -4 4 3
12 -6 19 -21 9 -20 13 -23 13 -10 1 14 5 16 20 7 31 -16 35 -12 10 10 -13 10
-18 19 -11 20 6 0 12 5 12 11 0 5 -5 7 -10 4 -15 -9 -71 5 -64 16 3 5 -2 9
-10 9 -9 0 -16 -7 -16 -15z"/>
<path d="M7014 3723 c-4 -10 -8 -22 -8 -26 -1 -4 -8 -12 -16 -17 -12 -8 -12
-10 -1 -10 9 0 11 -8 7 -26 -5 -17 -3 -23 4 -19 5 3 10 15 10 27 0 17 2 18 15
8 17 -14 21 0 4 17 -8 8 -8 17 0 31 13 25 14 32 2 32 -5 0 -12 -8 -17 -17z"/>
<path d="M2329 3725 c-1 -3 -3 -9 -4 -15 -1 -5 -4 -12 -5 -15 -1 -3 -3 -9 -4
-15 0 -5 -10 -16 -21 -25 -20 -16 -20 -16 3 -10 13 4 29 1 37 -5 18 -15 20 1
3 18 -8 8 -9 15 -3 20 14 10 18 52 6 52 -6 0 -12 -2 -12 -5z"/>
<path d="M6900 3720 c-8 -5 -10 -10 -5 -10 6 0 17 5 25 10 8 5 11 10 5 10 -5
0 -17 -5 -25 -10z"/>
<path d="M10559 3677 c16 -21 15 -23 -23 -33 -27 -6 -29 -5 -23 16 4 16 3 20
-5 12 -6 -6 -16 -8 -24 -5 -8 3 -12 -3 -11 -16 1 -12 7 -21 13 -21 9 0 10 -7
1 -30 -10 -25 -14 -28 -22 -16 -10 12 -13 12 -23 -5 -10 -16 -10 -21 3 -25 8
-3 12 -11 9 -18 -3 -6 1 -3 9 6 13 17 15 16 35 -5 25 -27 29 -42 8 -34 -10 4
-12 0 -9 -14 4 -12 13 -18 29 -17 16 2 20 6 13 14 -6 8 -4 14 7 18 23 9 66 7
60 -3 -3 -4 4 -8 16 -7 12 1 22 9 24 19 2 13 -2 16 -17 12 -22 -7 -23 1 -5 34
9 16 15 20 21 12 5 -9 11 -7 20 6 12 15 12 20 -2 30 -20 15 -36 1 -52 -49 -10
-31 -17 -37 -47 -40 -49 -6 -79 26 -67 73 7 26 16 35 42 42 28 7 37 5 57 -14
27 -25 33 -15 7 13 -9 10 -12 18 -6 18 5 0 10 7 10 15 0 9 -7 15 -16 13 -9 -1
-23 2 -31 7 -13 8 -13 7 -1 -8z"/>
<path d="M2311 3633 c0 -6 -4 -20 -7 -30 -5 -14 -4 -15 5 -7 7 7 11 20 8 30
-3 11 -5 14 -6 7z"/>
<path d="M10514 3596 c-14 -58 48 -90 80 -41 23 35 4 65 -41 65 -26 0 -34 -5
-39 -24z m46 -20 c0 -3 -8 -3 -17 0 -16 5 -15 3 1 -10 11 -9 17 -19 13 -22
-12 -12 -36 23 -30 44 4 18 7 19 19 7 8 -7 14 -16 14 -19z m20 24 c8 -5 11
-12 8 -16 -4 -3 -14 1 -23 10 -18 17 -9 21 15 6z m10 -34 c0 -3 -4 -8 -10 -11
-5 -3 -10 -1 -10 4 0 6 5 11 10 11 6 0 10 -2 10 -4z"/>
<path d="M4785 3490 c-8 -13 5 -13 25 0 13 8 13 10 -2 10 -9 0 -20 -4 -23 -10z"/>
<path d="M4668 3448 c-10 -10 -14 -18 -10 -18 4 0 13 5 20 12 9 9 12 8 12 -7
1 -19 1 -19 11 -2 5 9 16 17 24 17 8 0 17 5 20 10 11 17 -59 6 -77 -12z"/>
<path d="M4780 3461 c0 -5 9 -13 20 -16 11 -3 20 -11 20 -17 0 -6 3 -8 6 -5 4
3 16 2 28 -4 20 -10 20 -10 2 5 -11 9 -16 16 -10 16 8 1 -53 30 -62 30 -2 0
-4 -4 -4 -9z"/>
<path d="M4757 3453 c-4 -3 -7 -13 -7 -22 1 -13 3 -13 11 2 11 19 8 33 -4 20z"/>
<path d="M4737 3403 c10 -3 10 -10 2 -26 l-12 -22 20 20 c23 22 21 35 -5 34
-10 0 -12 -3 -5 -6z"/>
<path d="M8996 2601 c-4 -7 -5 -15 -2 -18 9 -9 19 4 14 18 -4 11 -6 11 -12 0z"/>
</g>
</svg>
