<?xml version="1.0" standalone="no"?>
<!DOCTYPE svg PUBLIC "-//W3C//DTD SVG 20010904//EN"
 "http://www.w3.org/TR/2001/REC-SVG-20010904/DTD/svg10.dtd">
<svg version="1.0" xmlns="http://www.w3.org/2000/svg"
 width="923.000000pt" height="1280.000000pt" viewBox="0 0 923.000000 1280.000000"
 preserveAspectRatio="xMidYMid meet">
<metadata>
Created by potrace 1.15, written by Peter Selinger 2001-2017
</metadata>
<g transform="translate(0.000000,1280.000000) scale(0.100000,-0.100000)"
fill="#000000" stroke="none">
<path d="M4561 12689 c-36 -299 -148 -913 -253 -1389 l-60 -275 27 -53 c31
-58 86 -112 115 -112 40 0 80 52 149 194 76 157 117 205 211 252 43 22 73 29
138 32 70 4 82 7 78 21 -47 161 -211 764 -295 1086 -45 171 -85 319 -89 329
-6 14 -12 -13 -21 -85z"/>
<path d="M4905 11130 c-94 -15 -144 -65 -219 -221 -63 -129 -118 -194 -199
-235 -95 -49 -188 -42 -268 20 l-44 33 -37 -144 c-51 -198 -166 -611 -231
-828 l-54 -180 33 -79 c47 -111 104 -166 172 -166 65 0 116 77 179 273 48 150
78 215 116 255 81 84 141 86 305 8 177 -84 270 -100 438 -71 91 16 282 70 297
85 5 4 -21 104 -57 221 -68 224 -210 702 -266 899 -19 63 -36 118 -39 121 -10
11 -83 16 -126 9z"/>
<path d="M4479 9699 c-26 -26 -53 -87 -114 -257 -55 -153 -85 -202 -153 -254
-93 -71 -210 -90 -297 -48 -40 19 -117 93 -140 134 -8 13 -33 -51 -116 -299
l-106 -316 68 -45 c82 -54 128 -108 204 -239 61 -104 112 -165 138 -165 29 0
75 50 122 132 60 103 114 161 179 193 77 38 132 42 195 15 64 -28 103 -72 167
-191 90 -167 178 -239 294 -239 108 0 186 56 349 249 203 240 330 334 465 343
41 2 42 8 20 69 -8 24 -76 233 -150 464 -74 231 -136 425 -138 432 -3 8 -36 1
-108 -22 -180 -59 -295 -77 -438 -72 -150 5 -198 19 -305 87 -43 27 -87 50
-97 50 -10 0 -27 -9 -39 -21z"/>
<path d="M5706 8495 c-79 -28 -148 -88 -277 -241 -185 -219 -264 -283 -389
-320 -214 -64 -453 64 -572 304 -42 85 -67 112 -103 112 -36 0 -61 -27 -124
-134 -78 -131 -127 -187 -193 -220 -73 -36 -137 -35 -205 4 -61 35 -88 72
-172 235 -61 120 -86 155 -151 208 l-33 29 -20 -54 c-98 -270 -289 -773 -377
-991 l-107 -268 34 -26 c19 -15 92 -92 163 -173 237 -271 359 -360 491 -360
121 0 203 78 328 315 97 183 155 249 259 298 57 27 79 31 142 31 136 0 223
-60 353 -242 124 -172 173 -212 260 -212 65 0 130 38 282 165 239 199 339 249
480 243 114 -6 181 -43 300 -168 159 -167 217 -219 284 -254 36 -18 77 -37 90
-41 30 -9 41 -46 -108 358 -142 384 -301 834 -413 1168 -78 233 -80 237 -110
243 -44 9 -68 7 -112 -9z"/>
<path d="M4334 7031 c-60 -27 -105 -88 -189 -250 -111 -218 -186 -301 -315
-353 -44 -18 -75 -22 -155 -22 -88 0 -109 4 -176 31 -156 61 -273 157 -442
361 -168 202 -141 202 -227 -1 -40 -94 -130 -302 -201 -460 l-127 -288 41 -21
c128 -65 218 -150 367 -348 52 -69 137 -169 190 -222 119 -120 189 -158 290
-158 133 0 221 70 366 290 48 74 109 156 134 181 91 91 204 136 316 126 154
-14 243 -82 424 -321 25 -33 64 -79 87 -103 133 -136 228 -138 452 -9 180 104
364 146 501 115 25 -5 106 -39 180 -74 149 -70 219 -88 293 -74 46 8 76 22
280 127 106 55 209 84 370 103 54 7 96 15 95 18 -2 3 -72 179 -156 391 -84
212 -156 394 -161 404 -5 14 -29 24 -85 38 -95 22 -226 82 -309 142 -61 43
-169 150 -236 233 -19 24 -58 59 -88 80 -47 32 -62 37 -111 38 -84 0 -146 -35
-282 -160 -243 -224 -363 -288 -506 -270 -127 16 -232 102 -337 277 -72 122
-101 156 -152 179 -51 23 -80 23 -131 0z"/>
<path d="M2265 5542 c-82 -174 -250 -517 -372 -761 -123 -244 -223 -448 -223
-453 0 -5 24 -50 54 -101 29 -51 86 -153 126 -227 106 -198 173 -295 269 -390
225 -223 506 -252 675 -69 67 72 94 130 186 389 84 240 130 339 202 435 69 90
151 157 263 211 138 67 195 79 370 79 164 0 216 -10 351 -66 191 -80 330 -206
447 -405 171 -291 203 -339 272 -409 89 -90 128 -110 220 -110 143 1 243 84
522 430 125 156 235 268 317 324 182 125 420 168 601 107 109 -37 176 -76 356
-209 311 -229 403 -267 576 -237 116 19 115 12 32 185 -118 247 -309 673 -425
948 l-109 258 -88 -6 c-174 -12 -252 -35 -483 -141 -177 -82 -277 -110 -359
-99 -70 8 -102 19 -250 86 -249 111 -301 105 -642 -75 -123 -65 -209 -85 -293
-67 -134 29 -222 96 -375 286 -122 152 -165 192 -236 225 -59 26 -95 25 -157
-6 -64 -32 -122 -95 -225 -249 -103 -152 -180 -231 -271 -275 -61 -30 -81 -35
-166 -38 -113 -5 -177 10 -282 65 -108 56 -193 136 -330 308 -70 88 -157 191
-194 229 -63 64 -174 146 -198 146 -6 0 -78 -143 -161 -318z"/>
<path d="M3650 4444 c-174 -46 -311 -159 -392 -324 -26 -52 -68 -162 -93 -245
-90 -295 -143 -404 -245 -504 -189 -186 -482 -201 -767 -40 -178 102 -321 278
-498 617 -49 95 -92 172 -96 172 -3 0 -39 -62 -79 -137 -116 -219 -352 -648
-496 -901 l-132 -232 41 -29 c58 -41 100 -86 142 -156 44 -74 69 -153 96 -304
11 -63 28 -134 38 -156 23 -51 81 -102 127 -111 90 -17 166 13 424 168 399
239 622 335 870 373 121 19 196 19 305 0 109 -19 221 -62 305 -117 38 -25 132
-111 225 -206 233 -239 330 -300 457 -289 122 11 201 79 463 400 90 110 172
201 187 207 36 16 80 5 111 -28 14 -15 67 -103 117 -197 168 -311 240 -385
372 -385 68 0 154 40 225 104 28 26 89 102 134 169 119 176 165 232 223 271
71 49 132 62 204 46 94 -20 161 -64 316 -205 213 -194 269 -225 411 -225 120
0 207 35 442 176 209 127 338 165 484 144 108 -15 194 -48 425 -163 266 -131
329 -150 516 -151 75 -1 139 2 143 5 3 4 -41 78 -98 165 -230 352 -476 778
-723 1253 -85 163 -155 300 -157 304 -1 5 -43 -4 -92 -18 -67 -20 -113 -27
-181 -27 -155 -1 -271 46 -452 184 -231 177 -259 197 -322 231 -123 67 -253
87 -380 58 -177 -41 -318 -156 -539 -441 -150 -193 -238 -286 -330 -348 -207
-138 -424 -118 -612 56 -84 78 -137 150 -225 308 -192 345 -320 464 -569 529
-75 19 -250 19 -325 -1z"/>
<path d="M640 2492 c-147 -249 -372 -614 -516 -837 l-122 -190 1914 -3 1914
-2 0 -730 0 -730 730 0 730 0 0 730 0 730 1971 0 1971 0 -41 48 c-79 90 -281
344 -339 423 -56 79 -58 80 -92 75 -88 -15 -292 -18 -386 -6 -176 22 -309 68
-507 177 -200 109 -311 141 -429 122 -70 -11 -199 -70 -368 -170 -187 -110
-301 -149 -435 -149 -177 0 -322 72 -511 252 -108 103 -172 138 -251 138 -68
0 -101 -29 -190 -164 -80 -122 -221 -265 -313 -319 -143 -83 -285 -99 -403
-44 -110 50 -224 187 -349 419 -29 54 -56 97 -60 95 -3 -1 -46 -56 -96 -122
-188 -252 -326 -371 -477 -411 -194 -52 -415 48 -644 293 -271 289 -444 364
-739 319 -198 -30 -385 -110 -727 -310 -371 -218 -562 -269 -719 -192 -109 54
-159 142 -221 391 -24 95 -53 192 -65 216 -23 46 -97 129 -115 129 -5 0 -57
-80 -115 -178z"/>
</g>
</svg>
