<?xml version="1.0" standalone="no"?>
<!DOCTYPE svg PUBLIC "-//W3C//DTD SVG 20010904//EN"
 "http://www.w3.org/TR/2001/REC-SVG-20010904/DTD/svg10.dtd">
<svg version="1.0" xmlns="http://www.w3.org/2000/svg"
 width="1280.000000pt" height="1201.000000pt" viewBox="0 0 1280.000000 1201.000000"
 preserveAspectRatio="xMidYMid meet">
<metadata>
Created by potrace 1.15, written by Peter Selinger 2001-2017
</metadata>
<g transform="translate(0.000000,1201.000000) scale(0.100000,-0.100000)"
fill="#000000" stroke="none">
<path d="M9751 11923 c18 -198 -22 -376 -172 -764 -58 -152 -118 -328 -132
-394 -3 -11 -5 21 -6 71 -4 348 -181 739 -443 978 -74 68 -95 78 -60 29 67
-96 134 -269 177 -458 36 -161 104 -565 95 -565 -6 0 -365 129 -435 156 -12 5
1 -17 35 -57 51 -58 117 -141 144 -179 6 -8 -34 28 -90 80 -149 140 -308 227
-491 268 -95 21 -366 23 -458 4 -193 -41 -326 -85 -507 -167 -342 -154 -783
-459 -1205 -831 l-82 -73 -158 106 c-505 337 -923 526 -1285 579 -145 21 -338
15 -453 -15 -87 -23 -246 -96 -293 -136 -17 -14 -34 -25 -38 -25 -10 0 105
118 127 130 9 5 425 84 925 175 971 176 958 174 952 180 -10 11 -586 46 -753
46 -222 1 -325 -10 -491 -51 -221 -55 -421 -154 -586 -292 -47 -39 -49 -40
-273 -81 -123 -22 -227 -39 -229 -36 -3 3 4 86 15 184 43 397 81 543 179 686
22 33 36 59 32 59 -23 0 -145 -90 -207 -154 -179 -181 -274 -409 -275 -656 l0
-105 -54 120 c-29 66 -97 207 -149 314 -150 301 -185 411 -195 601 l-7 125
-26 -45 c-144 -248 -108 -643 96 -1047 l72 -141 -45 51 c-25 29 -89 96 -143
149 -423 417 -895 611 -1387 568 -146 -12 -181 -24 -110 -35 147 -23 305 -82
449 -167 57 -34 230 -157 384 -273 154 -116 336 -251 405 -299 69 -48 127 -90
129 -92 3 -3 -29 11 -70 30 -493 226 -1053 273 -1502 125 -432 -141 -770 -443
-1011 -899 -64 -122 -149 -320 -141 -329 3 -3 9 0 13 6 4 6 44 53 89 104 207
237 463 419 738 524 180 69 347 107 600 137 204 23 1303 10 1145 -14 -155 -24
-245 -43 -350 -73 -776 -227 -1534 -935 -1999 -1865 -87 -175 -186 -408 -177
-417 2 -3 37 39 77 94 477 646 1072 1185 1689 1530 168 94 239 129 408 202
138 59 492 185 499 177 2 -2 -21 -18 -52 -35 -109 -62 -243 -208 -322 -351
-358 -652 -256 -2016 254 -3390 65 -174 92 -230 79 -160 -217 1147 -182 2197
104 3060 54 162 131 360 140 360 14 0 27 -25 33 -63 15 -98 100 -202 194 -237
69 -26 163 -26 218 -1 44 20 125 104 125 129 0 10 3 12 9 6 16 -17 786 -1431
1078 -1979 719 -1349 1224 -2429 1603 -3426 l78 -207 -29 -108 c-157 -581
-331 -1368 -468 -2124 -81 -446 -152 -883 -144 -891 5 -4 195 -84 423 -179
228 -94 420 -174 426 -176 7 -3 31 116 68 343 89 540 252 1428 272 1483 4 8
19 -28 35 -80 58 -186 268 -930 340 -1200 40 -151 75 -278 78 -282 3 -3 83 11
176 33 94 22 289 67 435 100 146 33 270 62 277 64 9 3 7 22 -7 72 -10 37 -49
178 -85 313 -241 889 -490 1674 -761 2396 -52 139 -94 258 -94 266 0 16 105
387 191 673 265 884 632 1880 1114 3025 142 336 287 678 405 950 70 162 193
446 273 630 80 184 151 347 158 363 l12 27 29 -52 c60 -109 147 -168 250 -168
95 0 165 48 207 140 11 25 21 65 21 88 0 28 7 53 19 68 l19 24 60 -152 c269
-684 414 -1337 484 -2178 25 -305 15 -1150 -18 -1450 -4 -30 -4 -53 -1 -50 11
10 115 430 151 605 66 324 109 622 143 980 25 268 25 950 0 1178 -88 805 -316
1329 -685 1578 -41 27 -72 49 -69 49 21 0 364 -178 492 -255 786 -474 1539
-1230 2183 -2195 67 -101 125 -187 128 -190 4 -3 -1 13 -11 35 -9 22 -34 83
-55 135 -143 355 -377 787 -633 1170 -318 476 -765 955 -1144 1226 -270 193
-555 334 -808 400 -49 13 -80 23 -68 24 35 0 538 -57 695 -80 744 -108 1194
-317 1608 -746 115 -120 198 -218 284 -338 31 -43 56 -74 56 -69 0 19 -102
248 -173 389 -277 546 -624 916 -1062 1129 -217 106 -398 156 -637 177 -279
24 -622 -35 -840 -143 -32 -16 -60 -29 -63 -29 -4 0 58 43 137 96 78 53 244
174 368 269 124 94 260 195 302 224 156 105 321 166 463 173 37 1 68 5 71 9 5
9 -197 57 -296 70 -195 26 -430 -6 -611 -85 -223 -96 -474 -308 -659 -557 -22
-28 -42 -54 -45 -57 -3 -3 19 46 49 109 58 123 114 292 143 435 14 69 17 135
17 289 0 184 -3 208 -27 300 -23 83 -88 245 -99 245 -2 0 0 -35 3 -77z m-1715
-1383 c240 -19 459 -65 735 -156 142 -46 181 -68 71 -40 -148 39 -333 39 -482
1 -90 -22 -251 -103 -335 -166 -520 -394 -898 -1366 -1145 -2944 -64 -411
-197 -1471 -185 -1483 1 -2 10 32 20 75 36 170 136 569 184 734 441 1525 1105
2752 1746 3224 103 76 165 110 165 92 0 -50 44 -149 86 -196 l46 -51 -42 -83
c-24 -45 -53 -100 -66 -122 -77 -136 -557 -1060 -775 -1490 -630 -1246 -1010
-2109 -1354 -3078 l-28 -79 -191 389 c-548 1108 -1149 2128 -2380 4041 -86
134 -156 245 -156 248 0 2 15 18 34 34 39 34 64 82 74 141 l7 40 85 -56 c140
-94 266 -201 430 -365 403 -402 806 -976 1197 -1705 303 -563 610 -1283 798
-1870 27 -82 50 -144 52 -138 9 27 -164 820 -277 1268 -316 1254 -664 2092
-1098 2645 -98 124 -306 330 -408 402 -223 159 -454 242 -702 255 -67 3 -121
7 -119 9 2 2 79 13 173 25 219 27 557 30 749 5 315 -40 579 -113 888 -243 59
-25 105 -49 101 -54 -3 -5 1 -6 9 -3 38 14 698 -349 1125 -620 24 -15 46 -25
50 -22 3 3 3 7 1 9 -2 2 -58 50 -124 108 -268 234 -510 430 -712 579 -56 41
-102 77 -103 80 0 8 385 214 505 270 513 239 910 325 1351 290z m2001 -346
c-3 -3 -12 -4 -19 -1 -8 3 -5 6 6 6 11 1 17 -2 13 -5z"/>
<path d="M6960 11633 c8 -3 368 -134 800 -290 432 -156 831 -301 888 -322 56
-21 102 -35 102 -30 0 8 -170 168 -235 220 -148 118 -360 231 -550 292 -198
63 -343 86 -738 117 -272 21 -291 22 -267 13z"/>
</g>
</svg>
