<?xml version="1.0" standalone="no"?>
<!DOCTYPE svg PUBLIC "-//W3C//DTD SVG 20010904//EN"
 "http://www.w3.org/TR/2001/REC-SVG-20010904/DTD/svg10.dtd">
<svg version="1.0" xmlns="http://www.w3.org/2000/svg"
 width="928.000000pt" height="1280.000000pt" viewBox="0 0 928.000000 1280.000000"
 preserveAspectRatio="xMidYMid meet">
<metadata>
Created by potrace 1.15, written by Peter Selinger 2001-2017
</metadata>
<g transform="translate(0.000000,1280.000000) scale(0.100000,-0.100000)"
fill="#000000" stroke="none">
<path d="M6320 12764 c-307 -103 -710 -290 -915 -425 -59 -39 -164 -125 -255
-209 -85 -79 -168 -152 -185 -162 -41 -25 -102 -23 -156 5 -24 13 -107 63
-183 112 -221 140 -381 206 -681 280 -324 80 -577 108 -975 108 -312 0 -400
-9 -434 -43 -17 -17 -18 -23 -7 -46 6 -15 89 -102 182 -193 245 -238 399 -429
475 -590 42 -86 111 -269 150 -395 20 -65 24 -93 17 -105 -9 -14 -51 -17 -334
-22 -281 -5 -337 -8 -426 -27 -255 -55 -487 -170 -919 -454 -249 -165 -476
-342 -531 -415 -16 -21 -71 -83 -123 -139 -140 -150 -191 -210 -250 -294 -29
-41 -100 -132 -157 -202 -121 -150 -226 -301 -388 -563 -159 -256 -173 -283
-191 -362 -22 -104 -47 -753 -28 -753 3 0 45 28 93 63 294 216 657 430 1132
667 257 129 318 153 524 205 205 52 266 61 505 75 102 6 188 14 193 19 8 8
537 -79 632 -105 120 -32 194 -88 181 -136 -3 -13 -46 -67 -96 -122 -49 -54
-90 -104 -90 -111 0 -6 -9 -20 -21 -31 -64 -58 -199 -488 -199 -635 0 -188
139 -383 340 -478 49 -23 81 -31 158 -36 135 -8 145 -11 132 -35 -13 -25 -50
-36 -61 -19 -6 10 -9 2 -9 -21 0 -26 -10 -48 -40 -83 -22 -27 -49 -75 -61
-108 -12 -32 -28 -64 -35 -70 -8 -6 -14 -18 -14 -25 0 -8 -7 -14 -15 -14 -9 0
-15 -9 -15 -25 0 -34 -23 -78 -53 -101 -61 -47 -257 -396 -257 -457 0 -25 -5
-37 -17 -42 -29 -9 -47 -41 -149 -266 -123 -274 -148 -338 -134 -353 7 -9 5
-18 -6 -32 -15 -18 -15 -18 -10 0 6 16 4 17 -9 6 -9 -7 -15 -25 -13 -39 2 -16
-2 -25 -9 -24 -6 2 -21 -22 -32 -53 -24 -64 -25 -71 -8 -78 8 -3 5 -11 -10
-24 -15 -13 -23 -32 -23 -52 0 -18 -4 -29 -10 -25 -6 4 -10 -7 -10 -24 0 -21
-7 -35 -21 -43 -34 -20 -99 -192 -99 -260 0 -15 -5 -30 -10 -33 -5 -3 -10 -20
-10 -37 0 -21 -6 -31 -19 -35 -14 -4 -29 -30 -51 -92 -92 -254 -185 -565 -174
-583 3 -5 -1 -15 -10 -21 -9 -7 -29 -50 -45 -97 -44 -126 -112 -362 -106 -368
3 -3 12 3 20 14 20 26 19 5 0 -71 -11 -40 -12 -61 -5 -63 15 -5 12 -23 -9 -63
-11 -20 -36 -88 -56 -152 -36 -116 -52 -149 -39 -82 12 64 -14 31 -32 -40 -5
-21 -2 -25 15 -25 26 0 26 -15 1 -100 -15 -53 -19 -59 -19 -32 -1 54 -18 36
-35 -37 -23 -102 -66 -371 -65 -406 1 -16 16 42 34 130 41 201 45 156 5 -76
-27 -163 -48 -249 -49 -206 -1 9 -5 17 -10 17 -12 0 -21 -25 -21 -58 0 -25 1
-25 15 -6 14 17 15 9 11 -86 -2 -58 -9 -118 -15 -135 -13 -37 -45 -289 -71
-558 -38 -386 -53 -1208 -22 -1239 9 -9 12 -7 12 13 l1 24 14 -25 c19 -33 19
-74 0 -111 -12 -22 -16 -62 -16 -158 1 -140 10 -186 39 -177 9 3 53 14 97 25
44 12 170 48 280 81 446 134 1046 271 1472 335 178 27 243 49 293 100 l32 33
-11 249 c-27 616 -34 905 -35 1578 -1 744 5 921 49 1330 8 77 22 210 30 295
37 370 138 1018 225 1450 116 576 353 1443 457 1674 56 127 147 289 183 330
26 29 33 31 92 31 56 0 74 -6 168 -54 151 -76 241 -146 388 -295 201 -205 245
-266 393 -537 127 -234 331 -724 399 -957 62 -217 163 -667 219 -977 72 -404
160 -1153 171 -1450 8 -229 18 -287 46 -265 17 15 206 396 289 585 181 409
300 833 441 1560 70 361 76 430 81 958 6 529 -3 711 -42 939 -42 239 -40 218
-18 218 42 0 340 -282 479 -455 165 -204 430 -647 558 -932 70 -155 146 -383
187 -563 6 -26 14 -272 17 -592 4 -300 10 -550 14 -554 16 -15 44 27 109 161
108 224 286 682 349 899 100 348 162 668 191 996 10 106 10 146 2 159 -9 15
-8 24 5 42 15 21 17 54 16 269 -3 378 -42 666 -134 970 -166 554 -441 1097
-751 1480 -186 230 -406 467 -459 495 -37 19 -36 44 2 63 18 8 112 17 263 24
282 14 530 1 731 -36 159 -30 274 -41 294 -27 17 12 -25 75 -201 302 -191 245
-300 369 -524 595 -162 163 -250 242 -385 346 -96 74 -195 148 -220 164 -25
16 -63 43 -85 60 -138 109 -541 285 -814 355 -126 33 -222 48 -481 79 -330 38
-330 39 -295 240 23 129 68 309 151 593 88 303 115 407 108 419 -9 15 -48 8
-154 -28z"/>
</g>
</svg>
