<?xml version="1.0" standalone="no"?>
<!DOCTYPE svg PUBLIC "-//W3C//DTD SVG 20010904//EN"
 "http://www.w3.org/TR/2001/REC-SVG-20010904/DTD/svg10.dtd">
<svg version="1.0" xmlns="http://www.w3.org/2000/svg"
 width="1280.000000pt" height="640.000000pt" viewBox="0 0 1280.000000 640.000000"
 preserveAspectRatio="xMidYMid meet">
<metadata>
Created by potrace 1.15, written by Peter Selinger 2001-2017
</metadata>
<g transform="translate(0.000000,640.000000) scale(0.100000,-0.100000)"
fill="#000000" stroke="none">
<path d="M9465 5259 c-766 -28 -1659 -157 -2585 -375 -253 -59 -692 -173 -700
-181 -3 -2 27 -2 65 1 39 4 234 15 435 26 201 11 466 25 590 32 304 17 1430
17 1650 0 775 -59 1274 -139 1884 -301 l149 -40 91 53 c236 139 509 253 755
317 125 32 334 69 394 69 20 0 37 4 37 8 0 9 -293 107 -470 157 -467 132
-1009 211 -1610 235 -269 11 -372 11 -685 -1z"/>
<path d="M4175 4749 c-127 -8 -495 -29 -1205 -69 -1035 -59 -1148 -68 -1346
-115 -314 -74 -497 -210 -544 -401 l-10 -42 -113 -27 c-496 -122 -817 -304
-920 -522 -31 -65 -32 -73 -31 -188 0 -92 5 -141 23 -210 33 -125 92 -275 146
-369 46 -81 135 -205 147 -206 3 0 4 26 1 58 -10 111 45 225 131 269 44 23
124 43 172 43 88 0 1016 -221 1444 -345 318 -91 660 -209 855 -293 82 -36 90
-42 93 -69 5 -48 -23 -71 -101 -83 -81 -12 -169 -41 -174 -55 -4 -12 149 -56
267 -79 85 -16 270 -35 375 -39 l70 -2 -56 -28 c-50 -24 -94 -37 -224 -65 -38
-8 -34 -9 79 -31 389 -75 623 -77 876 -10 173 46 333 50 585 14 317 -45 746
-46 1064 -3 68 9 88 16 107 37 30 32 30 36 -2 78 -18 24 -21 34 -12 37 16 5
570 50 868 71 722 49 1391 70 2050 62 557 -7 820 -18 1105 -47 449 -45 923
-52 1131 -16 274 47 414 140 349 233 -10 15 -51 34 -124 57 -281 92 -460 198
-515 305 -20 37 -30 111 -19 128 5 7 65 24 133 38 807 169 1427 430 1843 774
53 45 97 85 97 89 0 4 -64 27 -142 50 -626 183 -1215 266 -2075 290 l-242 7
140 89 c77 49 142 93 144 97 15 24 -789 183 -1240 244 -686 94 -1126 115
-2170 103 -1273 -14 -2344 -50 -2890 -98 -60 -5 -125 -10 -144 -10 l-33 0 103
111 c57 60 110 119 118 130 16 22 30 21 -184 8z"/>
<path d="M11766 4614 c-140 -22 -310 -63 -420 -100 -109 -38 -320 -136 -401
-186 -69 -43 -206 -141 -202 -144 1 -2 48 4 102 12 62 9 216 17 403 21 256 5
302 8 302 21 0 8 14 41 31 73 36 68 148 179 254 253 39 27 74 53 80 58 13 11
-44 8 -149 -8z"/>
<path d="M7740 1970 c-816 -33 -1710 -135 -2440 -278 -83 -17 -91 -20 -60 -25
19 -3 150 -11 290 -17 1801 -76 3317 -257 4103 -491 l68 -20 47 39 c263 218
629 409 942 493 l45 12 -60 19 c-388 120 -932 208 -1575 253 -259 19 -1055 27
-1360 15z"/>
</g>
</svg>
