<?xml version="1.0" standalone="no"?>
<!DOCTYPE svg PUBLIC "-//W3C//DTD SVG 20010904//EN"
 "http://www.w3.org/TR/2001/REC-SVG-20010904/DTD/svg10.dtd">
<svg version="1.0" xmlns="http://www.w3.org/2000/svg"
 width="982.000000pt" height="1280.000000pt" viewBox="0 0 982.000000 1280.000000"
 preserveAspectRatio="xMidYMid meet">
<metadata>
Created by potrace 1.15, written by Peter Selinger 2001-2017
</metadata>
<g transform="translate(0.000000,1280.000000) scale(0.100000,-0.100000)"
fill="#000000" stroke="none">
<path d="M746 12790 c-10 -26 -56 -254 -56 -275 0 -11 29 -92 64 -180 50 -126
138 -296 409 -792 190 -348 343 -633 341 -633 -2 0 -104 78 -226 174 l-223
173 -270 364 c-149 200 -353 478 -454 616 -200 276 -187 265 -246 203 l-29
-31 31 -184 31 -184 121 -228 c66 -125 172 -340 237 -478 l116 -250 330 -324
c181 -178 327 -325 325 -327 -2 -2 -48 16 -101 41 -68 32 -242 144 -581 375
-266 182 -490 330 -499 330 -19 0 -66 -21 -66 -29 0 -3 22 -54 48 -113 46
-106 52 -114 317 -425 257 -301 357 -413 538 -601 44 -45 78 -84 76 -86 -2 -2
-139 35 -304 81 -165 46 -372 103 -460 128 -87 24 -161 42 -163 40 -2 -2 -7
-24 -9 -48 -5 -43 -3 -49 73 -148 43 -57 99 -126 124 -153 25 -27 173 -146
330 -264 157 -118 292 -221 300 -229 13 -12 -132 49 -429 181 -57 25 -108 46
-113 46 -11 0 -138 -110 -138 -119 0 -3 137 -116 305 -251 167 -135 304 -248
304 -252 1 -12 -69 -9 -132 6 -33 8 -82 30 -111 50 -64 44 -106 47 -159 11
-20 -14 -37 -30 -37 -36 0 -28 73 -148 158 -260 l95 -127 261 -77 c144 -43
265 -82 270 -86 6 -5 -5 -9 -25 -9 -18 0 -53 -9 -77 -20 -35 -16 -47 -29 -68
-75 -30 -65 -41 -149 -25 -196 11 -33 18 -37 424 -208 226 -96 416 -177 420
-181 5 -4 -22 -6 -60 -3 -195 11 -428 21 -430 19 -2 -2 -4 -51 -6 -111 l-2
-107 167 -107 c92 -58 168 -108 168 -111 0 -3 -86 -5 -192 -5 l-192 0 -8 -30
c-5 -16 -12 -84 -15 -150 -7 -154 7 -194 89 -249 63 -43 200 -89 317 -107 92
-14 90 -17 -41 -44 l-88 -18 -45 -72 c-30 -49 -45 -84 -45 -106 0 -39 27 -259
32 -264 2 -1 104 -33 228 -70 124 -36 232 -69 240 -73 8 -4 -62 -8 -157 -10
l-171 -2 -7 -63 c-4 -34 -5 -82 -3 -107 3 -42 6 -47 83 -105 l80 -62 185 -22
c102 -12 219 -27 260 -34 l75 -11 -75 -17 c-41 -10 -102 -19 -135 -20 -33 0
-85 -4 -115 -7 l-54 -7 -47 -80 -47 -79 40 -56 39 -55 112 -26 112 -25 75 19
c109 28 330 74 330 70 0 -2 -24 -34 -53 -71 -30 -37 -63 -81 -75 -98 l-21 -31
60 -72 61 -72 51 5 c29 3 88 8 132 12 l80 6 110 83 c104 78 155 111 155 101 0
-2 -82 -66 -183 -140 l-184 -136 -137 -206 c-90 -135 -171 -243 -238 -317 -91
-100 -120 -124 -272 -226 -170 -114 -171 -115 -317 -157 -81 -24 -164 -50
-185 -58 -22 -8 -142 -52 -269 -96 -484 -171 -473 -167 -537 -222 -74 -64
-108 -127 -108 -202 0 -54 1 -56 44 -86 25 -16 49 -30 54 -30 5 0 44 16 87 35
43 20 79 34 81 33 1 -2 -27 -30 -64 -62 -166 -146 -200 -183 -242 -265 l-40
-80 44 -91 c25 -50 67 -117 95 -148 l50 -58 89 -12 c84 -11 93 -11 139 8 l48
21 -47 -43 -47 -43 14 -97 c11 -87 18 -104 64 -181 31 -52 71 -102 104 -130
l54 -46 68 10 c51 7 87 20 140 51 77 45 86 55 283 338 86 122 124 173 110 145
-3 -5 -87 -153 -187 -327 -100 -175 -184 -324 -188 -333 -5 -14 0 -15 30 -10
32 6 44 1 126 -55 72 -50 104 -66 164 -79 l74 -18 84 35 c46 19 89 38 95 43 7
6 42 77 80 159 37 83 69 149 71 147 2 -2 -10 -34 -27 -72 -16 -37 -33 -91 -36
-120 l-7 -54 58 -65 c55 -62 60 -65 113 -72 32 -4 84 -2 126 6 59 10 86 22
166 75 65 42 101 73 112 96 32 62 115 321 174 543 32 121 59 215 61 210 7 -22
-112 -480 -188 -719 -47 -149 -50 -163 -40 -203 14 -50 20 -51 176 -26 85 14
110 22 163 57 58 37 86 68 214 234 16 20 60 306 53 347 -5 32 -2 43 16 62 13
13 25 24 28 24 3 0 6 -33 7 -73 1 -81 19 -126 87 -215 l40 -53 43 42 c49 49
78 48 106 -1 9 -16 21 -30 25 -30 4 0 23 21 42 45 18 25 37 45 41 45 14 0 19
-116 8 -192 -18 -121 -69 -169 -213 -203 -151 -35 -214 -113 -203 -253 l3 -44
26 21 c16 13 31 38 38 67 12 45 13 46 43 40 38 -8 94 -49 103 -75 3 -11 15
-23 26 -26 47 -15 103 27 215 161 112 135 208 216 323 273 166 84 226 101 348
101 59 0 145 -7 192 -16 93 -18 230 -12 232 9 0 7 9 -8 20 -33 16 -36 20 -67
20 -151 l0 -107 -77 -183 c-42 -101 -79 -200 -82 -221 -5 -44 17 -78 53 -78
25 0 55 29 55 53 0 20 19 22 55 5 34 -15 32 -23 -15 -49 -28 -16 -40 -29 -40
-45 0 -12 -3 -35 -6 -52 -5 -26 0 -36 35 -71 56 -56 112 -89 160 -95 23 -3 46
-8 51 -11 18 -11 11 14 -22 78 -17 34 -37 85 -43 113 -12 51 -12 51 11 46 37
-7 71 22 106 91 l31 62 -23 113 -23 114 18 99 c17 94 21 101 67 154 35 39 73
67 134 98 79 42 87 44 131 36 78 -15 172 10 315 82 43 22 86 34 136 40 169 19
234 57 196 114 -8 13 -14 34 -12 46 4 26 50 64 69 56 10 -3 8 -7 -6 -12 -11
-5 -28 -15 -37 -23 -16 -13 -16 -17 -2 -45 9 -16 36 -51 60 -77 25 -27 43 -52
42 -58 -4 -14 3 -16 29 -8 28 9 64 85 56 118 -3 13 -21 39 -39 59 -32 33 -33
37 -23 67 16 48 3 94 -41 145 -47 53 -73 64 -166 70 -68 4 -73 6 -113 46 -36
36 -41 47 -41 85 0 103 -31 103 -134 -2 -102 -104 -180 -209 -200 -269 -19
-57 -46 -88 -111 -126 -36 -21 -46 -32 -42 -47 7 -26 -12 -32 -123 -37 l-95
-5 -107 97 c-66 59 -105 102 -100 109 4 6 15 56 24 111 10 59 23 102 30 104
27 9 67 59 79 99 17 57 0 111 -50 160 -21 20 -59 72 -86 115 -33 54 -65 91
-106 123 -56 43 -106 100 -96 110 2 3 32 9 66 15 45 7 81 22 139 58 42 27 121
64 175 82 83 29 112 45 190 107 51 40 137 115 192 166 80 74 127 107 235 167
156 86 291 145 442 195 105 34 109 35 225 28 99 -5 139 -13 248 -47 118 -37
135 -45 180 -89 28 -26 55 -48 60 -48 20 1 63 46 85 88 36 73 34 39 -4 -53
l-35 -87 14 -82 c8 -44 23 -106 33 -136 11 -30 22 -77 26 -105 6 -44 16 -85
32 -135 4 -12 8 -11 17 5 7 12 13 70 14 145 1 77 7 149 17 187 9 33 16 76 16
96 0 19 14 64 30 100 17 37 30 83 30 103 0 25 4 35 13 32 6 -3 49 -17 95 -32
54 -18 88 -35 96 -49 8 -13 16 -63 19 -117 5 -104 27 -175 76 -249 26 -38 29
-52 25 -90 -3 -26 -17 -74 -31 -109 -15 -34 -24 -65 -21 -68 8 -8 179 15 213
28 17 7 82 54 147 105 110 89 118 97 144 161 25 62 27 78 28 212 l1 145 -51
105 c-49 101 -140 220 -167 220 -7 0 -18 4 -26 9 -11 7 -8 17 17 52 32 43 32
44 32 167 0 123 0 123 -47 245 -41 103 -56 130 -104 181 -31 34 -82 97 -113
141 -63 87 -75 99 -212 211 -90 73 -94 75 -205 103 -130 32 -289 100 -378 160
-121 82 -389 211 -439 211 -8 0 -27 -10 -44 -21 -39 -28 -43 -21 -58 90 -7 49
-35 155 -65 246 -49 145 -56 177 -74 345 -13 112 -21 250 -21 350 0 163 0 168
51 390 58 254 62 261 235 516 137 201 248 301 549 499 277 182 318 212 480
353 136 119 129 107 278 432 82 180 94 213 148 428 59 231 59 234 59 378 l0
146 -101 130 -101 131 6 61 c12 103 52 379 127 866 64 421 71 483 76 662 l6
197 -41 -11 c-34 -8 -47 -20 -86 -77 -40 -57 -61 -112 -155 -391 -107 -322
-109 -326 -193 -460 -46 -74 -115 -201 -153 -282 -38 -81 -71 -146 -72 -144
-8 7 31 154 57 221 54 135 135 685 181 1221 l12 142 -58 93 c-32 52 -63 102
-70 111 -11 16 -16 15 -68 -18 l-56 -35 -44 -142 c-185 -586 -183 -578 -207
-790 -12 -109 -20 -207 -17 -218 4 -14 -11 -40 -55 -92 -75 -90 -138 -214
-189 -371 -33 -105 -40 -141 -48 -266 -5 -80 -7 -210 -4 -290 5 -131 4 -144
-10 -130 -30 29 -59 304 -61 590 -2 253 -2 257 -38 422 -20 93 -44 232 -53
310 -11 92 -30 193 -55 283 -22 77 -47 182 -56 232 -17 86 -20 94 -53 118
l-36 25 -39 -77 c-21 -43 -60 -135 -87 -205 -46 -121 -49 -136 -65 -307 -17
-177 -17 -180 4 -283 16 -79 22 -145 24 -288 2 -220 -6 -498 -16 -521 -7 -15
59 -260 117 -436 13 -40 21 -73 18 -73 -20 0 -60 100 -146 360 -54 162 -133
387 -177 500 -44 113 -101 268 -127 345 -40 120 -56 153 -110 229 l-64 89 -29
-34 c-16 -19 -47 -72 -69 -119 l-40 -85 6 -115 c8 -134 40 -261 84 -328 l28
-44 -22 -89 -23 -89 34 -262 33 -263 69 -175 c37 -96 87 -204 110 -240 22 -35
40 -66 38 -68 -16 -16 -198 177 -305 323 -16 22 -64 71 -105 108 -91 82 -153
174 -218 322 -45 104 -60 123 -98 124 -22 1 -58 -109 -65 -199 -4 -61 -1 -89
18 -153 22 -74 28 -82 130 -192 l108 -115 -11 -98 c-11 -96 -11 -102 19 -218
17 -65 34 -126 36 -134 6 -18 -104 80 -267 239 l-116 113 -30 -20 c-24 -17
-31 -33 -42 -91 -11 -61 -11 -83 5 -183 29 -178 100 -376 189 -527 41 -69 78
-135 82 -146 4 -11 16 -33 27 -48 38 -55 9 -36 -44 28 -30 36 -93 97 -142 136
-54 43 -99 88 -118 119 -32 51 -51 65 -42 30 3 -12 -2 -27 -14 -37 -35 -31
-73 -138 -73 -204 0 -95 20 -199 49 -262 l28 -57 -24 -6 c-12 -4 -23 -9 -23
-13 0 -3 -9 -36 -19 -72 l-19 -67 127 -111 c69 -61 155 -138 191 -171 l65 -61
-40 5 c-201 28 -676 76 -701 71 -37 -6 -67 -37 -89 -87 -29 -70 -25 -76 103
-170 64 -47 133 -93 152 -101 19 -8 98 -45 175 -81 156 -74 156 -74 -53 -50
-160 19 -443 15 -505 -7 -22 -7 -57 -29 -78 -48 -37 -34 -41 -42 -58 -136 -11
-55 -16 -103 -12 -107 16 -17 233 -131 324 -170 53 -22 96 -42 95 -44 -2 -1
-52 11 -112 28 l-108 30 -132 -20 c-128 -21 -132 -22 -159 -56 -16 -20 -32
-36 -36 -36 -4 0 6 71 21 158 16 86 37 210 47 274 l18 117 -207 303 -207 303
-108 460 -107 460 -12 435 -12 435 -105 222 -104 221 -359 344 c-370 354 -382
367 -1813 1938 -24 27 -33 31 -37 20z m6271 -2042 c-3 -8 -6 -5 -6 6 -1 11 2
17 5 13 3 -3 4 -12 1 -19z m-33 -198 c-15 -89 -34 -169 -42 -178 -10 -13 -13
-13 -9 -2 2 8 19 90 38 182 18 92 35 165 37 163 2 -2 -8 -76 -24 -165z m-814
-1527 c0 -22 -2 -25 -10 -13 -13 20 -13 40 0 40 6 0 10 -12 10 -27z m-639
-499 c16 -37 28 -68 27 -69 -2 -2 -36 14 -77 34 l-74 38 44 31 c24 17 45 31
47 32 2 0 16 -30 33 -66z m-298 -151 c2 -10 21 -56 41 -103 21 -46 34 -81 30
-78 -11 11 -104 181 -104 190 0 16 28 8 33 -9z m-1509 -1489 l21 -46 122 -39
c67 -21 166 -46 220 -55 129 -22 159 -35 58 -26 -119 10 -404 7 -447 -5 -29
-9 -38 -8 -38 0 0 26 34 226 38 222 3 -2 14 -25 26 -51z m-89 -545 c43 -35
187 -59 424 -72 164 -9 211 -15 200 -23 -8 -7 -63 -15 -124 -18 -203 -11 -213
-14 -272 -62 -109 -88 -180 -186 -213 -290 l-21 -69 28 -22 c15 -12 25 -24 23
-27 -3 -2 -43 -15 -90 -29 -47 -14 -93 -28 -103 -32 -30 -12 -9 22 21 35 15 6
39 21 53 34 25 21 26 28 31 150 l6 129 83 83 c51 51 80 87 74 92 -6 5 -45 33
-87 61 -43 28 -78 58 -78 66 0 21 13 19 45 -6z m414 -583 c-2 -3 -48 -34 -102
-70 l-97 -65 -25 50 c-14 27 -31 50 -38 50 -6 1 24 6 68 10 66 7 177 23 194
28 2 0 2 -1 0 -3z m401 -275 c0 -4 -27 -44 -61 -87 -33 -43 -64 -85 -68 -93
-7 -11 -15 -11 -42 -3 -19 6 -52 13 -74 17 l-40 7 105 53 c58 30 118 67 133
84 28 31 47 39 47 22z m429 -120 c-36 -41 -65 -65 -88 -71 -19 -5 -36 -8 -37
-7 -2 1 33 38 77 82 58 57 83 75 91 67 7 -7 -4 -27 -43 -71z m-774 -659 c-24
-21 -297 -193 -300 -190 -5 4 157 116 238 165 49 30 83 43 62 25z m-1318
-1774 c-3 -8 -6 -5 -6 6 -1 11 2 17 5 13 3 -3 4 -12 1 -19z m1299 -416 c-20
-19 -34 72 -15 95 12 14 14 10 17 -36 2 -29 1 -56 -2 -59z m64 39 c-1 -10 -6
-7 -15 9 -19 33 -18 50 0 26 8 -11 15 -27 15 -35z m228 -141 c6 0 12 -4 12
-10 0 -5 -18 -10 -40 -10 -33 0 -40 3 -40 20 0 11 -5 20 -10 20 -7 0 -7 8 1
22 12 21 12 21 38 -10 14 -18 32 -32 39 -32z m263 28 c6 -13 21 -34 33 -48 20
-23 20 -23 -16 3 -20 15 -51 30 -69 34 l-31 6 23 13 c34 19 47 17 60 -8z
m-2585 -45 c-8 -15 -15 -25 -16 -21 0 12 23 58 27 54 3 -2 -2 -17 -11 -33z"/>
<path d="M5921 3010 c-58 -9 -71 -20 -71 -62 l0 -27 89 -3 c114 -4 118 -3 123
33 4 27 0 33 -33 50 -21 10 -42 18 -46 18 -4 -1 -32 -5 -62 -9z"/>
<path d="M3279 1804 c-31 -33 -30 -104 4 -177 l24 -52 21 41 c11 23 28 72 37
110 16 68 16 69 -6 87 -29 24 -51 21 -80 -9z"/>
</g>
</svg>
