<?xml version="1.0" standalone="no"?>
<!DOCTYPE svg PUBLIC "-//W3C//DTD SVG 20010904//EN"
 "http://www.w3.org/TR/2001/REC-SVG-20010904/DTD/svg10.dtd">
<svg version="1.0" xmlns="http://www.w3.org/2000/svg"
 width="1176.000000pt" height="1280.000000pt" viewBox="0 0 1176.000000 1280.000000"
 preserveAspectRatio="xMidYMid meet">
<metadata>
Created by potrace 1.15, written by Peter Selinger 2001-2017
</metadata>
<g transform="translate(0.000000,1280.000000) scale(0.100000,-0.100000)"
fill="#000000" stroke="none">
<path d="M942 12508 c-99 -130 -176 -279 -222 -428 -31 -98 -60 -248 -60 -305
0 -27 -5 -35 -30 -45 -138 -57 -230 -319 -230 -656 0 -78 -4 -101 -19 -122
-80 -114 -113 -240 -115 -437 l-2 -150 -31 -49 c-50 -76 -67 -165 -68 -358 -1
-126 -5 -172 -16 -190 -68 -108 -80 -295 -34 -501 l26 -117 -28 -82 c-25 -76
-27 -95 -27 -233 1 -131 4 -163 28 -249 27 -98 27 -99 9 -150 -13 -38 -18 -80
-17 -161 0 -100 3 -118 33 -195 29 -75 33 -98 36 -195 3 -120 21 -212 60 -305
23 -54 24 -64 14 -111 -22 -103 14 -245 90 -360 27 -41 42 -77 51 -126 19
-103 66 -242 100 -296 16 -26 30 -60 30 -74 0 -101 75 -267 153 -340 40 -37
52 -56 59 -92 15 -79 48 -133 138 -222 60 -59 91 -98 100 -125 39 -121 134
-238 227 -281 40 -18 53 -30 53 -46 0 -69 107 -187 222 -244 43 -22 80 -51
116 -92 60 -69 122 -115 184 -137 23 -8 64 -36 92 -62 127 -119 252 -181 415
-203 61 -9 87 -18 133 -49 175 -117 526 -151 856 -84 192 39 441 129 574 209
33 19 63 34 65 31 6 -6 -53 -179 -79 -230 -27 -53 -91 -147 -130 -192 -17 -19
-28 -37 -25 -40 3 -4 29 -6 57 -6 51 0 51 0 33 -22 -9 -11 -96 -101 -193 -200
-96 -98 -167 -176 -157 -172 24 8 116 33 150 40 33 8 35 -8 8 -63 -20 -38
-124 -141 -142 -141 -6 0 -7 -5 -3 -11 12 -19 97 -52 152 -58 l53 -6 -50 -66
c-27 -36 -66 -92 -85 -125 -36 -59 -36 -59 -13 -66 12 -3 46 -6 76 -7 43 -1
52 -4 47 -16 -3 -8 -42 -66 -86 -129 -62 -89 -90 -139 -120 -221 -27 -74 -57
-130 -98 -188 -33 -45 -78 -117 -101 -159 -47 -86 -104 -143 -201 -200 l-63
-37 -27 19 c-15 10 -80 67 -146 126 -254 228 -343 252 -498 135 -35 -27 -68
-51 -74 -55 -5 -3 -22 15 -37 40 -33 56 -228 301 -351 439 -137 156 -254 267
-366 348 -104 76 -355 237 -368 237 -14 0 -32 -29 -24 -41 4 -6 29 -41 56 -76
27 -36 60 -87 74 -114 23 -46 94 -284 94 -316 0 -10 -26 -13 -117 -13 -184 0
-434 -62 -441 -108 -3 -16 4 -25 25 -33 175 -72 315 -160 426 -268 88 -85 177
-201 352 -461 218 -321 253 -360 327 -360 43 0 179 77 268 151 l67 57 86 -87
85 -86 -5 -77 c-7 -101 3 -161 33 -197 26 -31 101 -71 134 -71 11 0 26 -12 35
-29 19 -37 56 -66 102 -82 20 -6 47 -24 60 -40 13 -15 44 -40 70 -54 39 -24
53 -27 99 -22 30 3 77 16 105 29 l52 24 156 -94 c245 -147 571 -307 826 -404
44 -17 81 -32 83 -33 6 -5 -69 -170 -195 -427 -75 -153 -134 -281 -130 -284 9
-10 233 13 302 31 93 24 199 80 266 143 69 63 70 59 18 -56 -38 -86 -110 -185
-159 -219 -45 -31 -51 -46 -18 -39 13 3 52 8 88 11 178 17 367 91 473 185 31
28 57 50 57 47 0 -2 -25 -57 -55 -121 -30 -64 -55 -121 -55 -128 0 -15 129 -3
226 23 145 38 278 121 389 241 l66 73 -26 -75 c-15 -41 -45 -113 -66 -158 -40
-86 -123 -212 -140 -212 -5 0 -9 -4 -9 -10 0 -6 41 -10 103 -10 271 0 513 131
618 332 l35 68 29 -63 c45 -94 157 -202 265 -255 118 -58 184 -74 334 -79
l128 -5 -46 56 c-53 65 -112 178 -162 309 -19 49 -34 90 -34 92 0 2 42 -38 93
-89 103 -104 191 -161 309 -200 77 -26 262 -55 274 -44 3 4 -19 61 -50 128
-31 67 -56 124 -56 127 0 3 24 -17 54 -44 105 -96 299 -173 474 -188 37 -4 78
-8 90 -11 18 -4 7 12 -46 64 -55 54 -79 88 -115 163 -25 52 -49 105 -53 119
-5 22 1 19 42 -22 110 -106 244 -160 448 -179 70 -6 130 -9 133 -5 4 3 -59
140 -140 304 -156 316 -193 401 -180 412 4 4 62 29 128 55 263 104 541 244
801 401 l122 74 58 -27 c33 -15 82 -29 110 -31 46 -4 58 0 107 31 31 20 60 45
66 55 6 11 23 23 38 26 42 11 101 52 117 84 10 19 27 31 58 39 55 16 102 45
124 77 21 33 31 176 15 231 l-11 39 88 82 87 82 45 -42 c94 -87 235 -166 297
-166 31 0 44 8 87 53 28 28 125 160 215 292 330 482 399 552 685 695 78 39
131 72 131 80 0 20 -52 44 -165 76 -74 20 -128 27 -247 32 l-151 7 33 128 c37
146 73 224 144 317 53 69 61 94 35 104 -32 12 -401 -236 -529 -356 -173 -161
-516 -571 -591 -706 -1 -2 -34 22 -74 52 -116 87 -188 95 -299 35 -55 -29 -95
-61 -276 -221 -48 -43 -93 -78 -99 -78 -17 0 -118 62 -168 103 -28 23 -59 64
-86 116 -24 44 -70 117 -102 163 -33 46 -67 103 -76 128 -46 125 -87 205 -157
303 -42 59 -77 112 -77 117 0 6 17 10 39 10 53 0 101 11 101 22 0 13 -85 143
-126 195 -19 23 -34 44 -34 47 0 3 17 6 39 6 43 0 106 20 145 45 l25 17 -48
36 c-74 57 -121 121 -121 166 0 16 82 4 139 -20 18 -8 38 -14 44 -14 6 0 -75
87 -181 194 -106 106 -192 197 -192 201 0 4 14 5 30 1 17 -3 42 -1 56 4 l26
10 -34 38 c-76 84 -133 186 -178 317 -16 44 -31 88 -35 98 -6 15 2 12 42 -12
187 -115 479 -212 743 -247 280 -37 594 12 725 112 36 27 58 35 124 44 134 18
238 61 349 145 34 25 71 58 82 72 11 15 45 36 76 49 78 31 130 70 183 135 33
40 66 66 119 93 39 21 94 58 121 82 48 43 101 130 101 165 0 12 16 25 45 38
93 41 183 149 226 271 13 36 32 71 44 79 11 8 48 43 83 77 65 66 122 166 122
216 0 19 16 43 58 85 72 72 117 160 139 273 10 54 32 118 60 175 30 62 52 127
70 210 19 86 34 132 55 162 82 121 118 255 99 367 -10 56 -9 68 9 109 41 93
62 196 62 312 0 89 4 117 20 148 29 58 58 183 58 251 0 60 -18 146 -37 180 -7
12 -2 42 14 99 53 184 53 394 0 526 l-23 56 24 90 c28 110 40 313 23 395 -6
30 -23 80 -38 110 -25 52 -27 64 -28 215 -2 203 -31 327 -93 397 -12 14 -14
34 -9 96 13 166 -26 357 -98 476 -32 54 -35 65 -35 136 0 187 -37 402 -87 508
-31 66 -101 144 -143 162 -23 9 -30 19 -30 39 0 58 -33 221 -66 322 -52 161
-145 332 -244 448 -33 39 -47 22 -39 -45 17 -121 22 -517 10 -668 -36 -441
-142 -798 -323 -1090 -95 -153 -306 -411 -486 -593 -244 -248 -570 -424 -1287
-698 -148 -56 -297 -115 -330 -129 -135 -61 -210 -145 -403 -454 -182 -291
-250 -366 -375 -414 -99 -38 -311 -33 -386 9 -33 19 -37 28 -21 38 23 14 -3
135 -29 135 -7 0 -7 8 0 23 14 32 -5 101 -33 121 -18 13 -19 18 -8 31 8 10 10
29 6 55 -3 22 -2 40 2 40 17 0 92 72 92 89 0 15 -10 17 -87 13 -113 -5 -166 9
-215 58 -21 21 -38 42 -38 47 0 6 27 13 59 16 66 6 164 51 169 78 2 13 -9 18
-51 22 -87 11 -157 38 -199 78 -21 20 -38 41 -38 47 0 5 19 13 43 17 23 4 63
16 88 27 50 21 115 80 105 96 -3 5 -43 12 -88 14 -98 5 -149 28 -201 88 -41
48 -55 86 -29 75 39 -17 160 -17 207 -2 57 20 136 77 155 111 18 34 12 38 -37
21 -48 -17 -119 -8 -208 26 -125 47 -170 160 -200 510 -8 101 -18 200 -21 219
-10 68 -56 178 -90 219 l-35 40 40 21 c41 20 95 90 140 179 29 55 15 73 -25
36 -41 -38 -98 -65 -136 -64 -30 0 -31 1 -10 9 58 24 110 70 130 117 22 52 47
195 38 219 -10 25 -25 15 -45 -31 -30 -67 -79 -133 -111 -150 -42 -22 -43 -20
-7 31 l32 46 -2 131 c-1 140 -19 232 -44 232 -10 0 -16 -17 -21 -57 -13 -104
-64 -193 -134 -234 -92 -54 -234 -65 -674 -51 -190 7 -279 6 -314 -2 -79 -19
-156 -61 -215 -118 -30 -29 -56 -53 -57 -53 -1 0 -7 14 -14 31 -12 28 -12 53
3 218 4 42 -19 34 -86 -33 -48 -46 -69 -76 -77 -106 l-11 -41 -36 27 c-29 22
-45 27 -90 26 -73 -1 -85 -13 -47 -49 l29 -28 -75 -5 c-74 -6 -143 -32 -143
-55 0 -5 23 -13 52 -17 66 -10 120 -36 100 -49 -8 -5 -23 -9 -34 -9 -35 -1
-102 -37 -150 -81 -25 -23 -43 -44 -40 -47 3 -3 56 -6 118 -6 70 -1 119 -6
132 -13 20 -12 19 -13 -4 -19 -43 -12 -195 -90 -289 -148 -153 -95 -220 -178
-257 -321 -15 -60 -23 -245 -10 -265 11 -18 24 -11 44 28 23 44 106 126 174
171 117 79 245 111 432 110 92 0 238 -19 251 -32 3 -3 -24 -26 -59 -51 -163
-116 -298 -127 -435 -33 -27 18 -47 26 -53 20 -11 -11 11 -81 36 -116 23 -33
18 -39 -16 -21 -42 21 -53 8 -35 -44 31 -88 103 -168 183 -204 96 -43 213 -34
376 28 118 46 185 58 235 45 78 -22 104 -82 76 -181 -13 -48 -25 -68 -58 -96
-40 -34 -118 -64 -203 -79 -26 -4 -43 -12 -43 -20 0 -19 58 -62 105 -78 l38
-13 -35 -22 c-29 -18 -106 -40 -205 -58 -13 -3 -23 -11 -23 -18 0 -25 73 -76
133 -93 56 -16 57 -17 40 -35 -24 -24 -115 -55 -184 -63 -81 -10 -85 -12 -63
-36 29 -32 110 -69 165 -76 27 -3 49 -9 49 -14 0 -17 -86 -80 -124 -90 -22 -6
-79 -9 -127 -7 -48 1 -91 0 -95 -5 -4 -4 9 -25 30 -46 35 -36 37 -41 31 -84
-4 -26 -3 -53 4 -65 8 -16 7 -21 -5 -26 -22 -8 -47 -74 -41 -110 3 -18 -1 -38
-8 -46 -7 -8 -18 -32 -24 -54 -8 -31 -7 -45 5 -69 15 -27 15 -29 0 -24 -9 4
-56 -5 -104 -19 -168 -49 -337 -43 -454 17 -68 35 -156 134 -248 277 -211 332
-258 398 -327 463 -80 75 -124 98 -363 189 -735 279 -1022 421 -1291 638 -147
118 -432 446 -575 662 -175 262 -280 573 -336 995 -15 113 -18 599 -5 763 10
123 1 130 -61 50z m3908 -8840 c-7 -62 -14 -178 -15 -258 l-1 -145 -158 -490
c-87 -269 -198 -613 -247 -763 -49 -150 -89 -275 -89 -277 0 -3 -5 -5 -11 -5
-21 0 -309 135 -465 218 l-162 86 5 57 c5 47 2 64 -16 92 -15 25 -21 51 -21
96 0 35 -6 74 -15 90 -14 27 -75 61 -111 61 -24 0 -84 65 -84 90 0 12 20 47
44 78 31 39 47 71 52 101 6 39 22 59 148 191 78 82 180 191 228 243 75 81 99
100 171 135 46 23 104 60 129 82 l46 40 16 -25 c9 -13 16 -33 16 -45 0 -11 4
-20 9 -20 13 0 71 74 114 145 19 33 46 70 60 83 l24 23 41 -63 c22 -35 51 -73
64 -86 l25 -22 12 57 c7 32 24 94 38 138 22 70 33 87 91 147 36 37 67 66 70
63 3 -2 -1 -55 -8 -117z m2132 54 c60 -62 69 -76 92 -153 14 -46 31 -108 37
-136 12 -51 13 -52 31 -36 11 10 40 48 65 86 54 81 51 81 131 -43 81 -126 122
-164 122 -112 0 10 7 28 16 40 l16 23 44 -41 c24 -22 79 -57 122 -77 83 -40
72 -29 402 -376 107 -113 150 -165 150 -182 0 -37 17 -74 60 -128 22 -27 40
-58 40 -68 0 -34 -46 -73 -111 -94 -85 -27 -103 -53 -104 -148 0 -52 -5 -79
-18 -99 -14 -20 -18 -42 -16 -85 l3 -58 -124 -69 c-131 -72 -444 -222 -485
-232 -23 -6 -26 2 -129 318 -58 177 -171 528 -251 778 l-145 455 0 140 c0 127
-12 284 -25 343 -9 36 8 26 77 -46z"/>
</g>
</svg>
