<?xml version="1.0" standalone="no"?>
<!DOCTYPE svg PUBLIC "-//W3C//DTD SVG 20010904//EN"
 "http://www.w3.org/TR/2001/REC-SVG-20010904/DTD/svg10.dtd">
<svg version="1.0" xmlns="http://www.w3.org/2000/svg"
 width="1280.000000pt" height="1006.000000pt" viewBox="0 0 1280.000000 1006.000000"
 preserveAspectRatio="xMidYMid meet">
<metadata>
Created by potrace 1.15, written by Peter Selinger 2001-2017
</metadata>
<g transform="translate(0.000000,1006.000000) scale(0.100000,-0.100000)"
fill="#000000" stroke="none">
<path d="M12389 10031 c-62 -39 -175 -153 -305 -306 -132 -154 -372 -390 -556
-546 -717 -607 -1815 -1362 -2818 -1936 -669 -383 -1617 -841 -2104 -1015
-351 -125 -590 -141 -736 -48 -82 52 -136 119 -225 280 -84 152 -137 223 -245
330 -75 75 -113 104 -178 138 -75 37 -91 42 -153 42 -129 0 -414 -73 -584
-150 -122 -55 -110 -85 72 -179 92 -48 137 -91 152 -148 14 -50 14 -64 -4
-167 -38 -216 -137 -326 -294 -326 -87 0 -164 22 -306 87 -428 196 -865 304
-1870 463 -451 72 -870 167 -1076 244 -169 63 -371 207 -569 405 -175 174
-285 322 -389 519 -81 155 -154 205 -187 127 -44 -106 26 -325 175 -551 200
-301 477 -569 871 -840 63 -43 157 -120 210 -169 158 -151 339 -254 1377 -784
609 -310 793 -415 843 -478 17 -22 21 -37 17 -69 -2 -23 0 -49 5 -59 14 -23
69 -45 117 -45 48 0 71 -8 71 -25 0 -6 -23 -38 -50 -69 -120 -137 -107 -182
46 -158 130 20 217 -26 271 -145 37 -81 47 -164 35 -290 -16 -178 7 -258 81
-277 87 -22 186 53 378 284 78 94 142 170 144 170 2 0 29 -75 59 -168 67 -206
89 -322 85 -440 -4 -87 -5 -90 -48 -148 -84 -113 -385 -400 -726 -694 -150
-130 -340 -315 -385 -375 -83 -111 -102 -183 -76 -284 28 -108 66 -141 165
-141 42 0 53 -4 75 -30 26 -31 31 -56 40 -190 14 -193 89 -290 244 -315 64
-10 72 -34 70 -202 -1 -119 2 -148 21 -205 38 -115 103 -183 200 -208 35 -9
61 -8 136 5 142 26 151 16 163 -176 7 -102 13 -126 38 -176 24 -48 38 -62 84
-86 48 -25 62 -28 111 -23 32 3 92 21 137 41 44 19 88 35 97 35 31 0 64 -47
90 -133 45 -147 84 -184 213 -198 42 -5 94 -11 115 -15 44 -7 97 -48 97 -75 0
-10 11 -26 25 -35 26 -17 55 -17 287 2 106 9 142 0 193 -47 68 -63 132 -74
216 -38 37 16 56 33 78 70 46 74 67 81 231 77 127 -3 140 -1 167 18 41 31 76
86 128 204 58 134 82 165 118 156 15 -3 52 -29 82 -56 71 -65 125 -91 184 -92
58 0 102 21 134 64 37 50 48 93 56 207 11 148 13 149 180 75 154 -67 283 -48
331 51 11 23 20 55 20 72 0 35 30 77 68 97 15 7 54 16 86 20 77 9 136 35 167
75 62 81 82 100 131 121 34 15 85 25 148 30 126 10 177 25 216 64 46 46 59
101 40 176 -24 95 -68 170 -201 345 -69 91 -125 166 -125 169 0 2 75 6 168 7
166 4 168 4 235 37 108 53 142 134 96 229 -11 24 -37 57 -57 73 -69 57 -376
199 -887 410 -396 163 -562 238 -809 363 -341 172 -548 306 -660 427 -72 78
-85 119 -62 191 23 69 87 196 143 284 43 66 342 475 347 475 2 0 75 -42 164
-94 164 -95 233 -123 271 -111 12 3 40 31 62 61 24 31 49 54 60 54 11 0 35
-21 56 -50 54 -72 75 -69 147 19 58 71 94 101 120 101 27 0 147 69 250 144
230 168 427 349 470 433 40 80 55 88 156 88 80 0 91 2 115 25 14 14 34 40 42
59 27 56 66 73 146 66 76 -7 107 7 107 49 0 30 44 121 82 170 18 22 76 87 129
142 102 108 157 179 168 222 13 49 48 63 187 77 180 18 200 28 182 90 -12 45
-10 55 15 64 92 35 430 362 1109 1072 263 276 436 423 583 496 115 58 228 129
268 170 33 32 38 42 32 68 -22 105 -20 118 24 169 56 64 90 135 102 210 19
114 89 195 252 287 138 78 232 146 286 205 65 71 68 88 30 177 -41 97 -37 124
35 218 30 40 58 86 62 103 5 25 2 33 -26 56 -28 23 -32 34 -42 105 -5 44 -8
130 -5 190 2 61 2 116 0 123 -7 18 -33 15 -101 -13 -34 -14 -73 -25 -86 -25
-74 0 -119 168 -80 299 25 87 8 100 -67 52z"/>
</g>
</svg>
