<?xml version="1.0" standalone="no"?>
<!DOCTYPE svg PUBLIC "-//W3C//DTD SVG 20010904//EN"
 "http://www.w3.org/TR/2001/REC-SVG-20010904/DTD/svg10.dtd">
<svg version="1.0" xmlns="http://www.w3.org/2000/svg"
 width="1257.000000pt" height="1280.000000pt" viewBox="0 0 1257.000000 1280.000000"
 preserveAspectRatio="xMidYMid meet">
<metadata>
Created by potrace 1.15, written by Peter Selinger 2001-2017
</metadata>
<g transform="translate(0.000000,1280.000000) scale(0.100000,-0.100000)"
fill="#000000" stroke="none">
<path d="M9601 12774 c-15 -19 -21 -41 -21 -78 -1 -114 -40 -328 -87 -471
-126 -385 -369 -642 -713 -754 -424 -137 -1014 -166 -2155 -106 -1178 63
-1401 61 -1690 -9 -285 -70 -531 -194 -767 -387 -84 -68 -213 -202 -265 -274
-19 -27 -23 -28 -44 -17 -37 20 -68 76 -90 160 -41 161 -21 525 47 840 15 65
15 75 1 96 -22 33 -63 41 -96 20 -45 -29 -218 -183 -323 -288 -116 -115 -204
-228 -237 -306 -24 -57 -61 -214 -61 -263 0 -27 -5 -24 -96 62 -70 66 -117
101 -172 128 -73 37 -78 38 -206 41 -163 5 -302 -16 -328 -49 -36 -43 -22 -75
51 -122 35 -23 158 -173 149 -182 -3 -3 -38 0 -79 5 -100 15 -311 15 -384 1
-173 -34 -410 -134 -433 -183 -27 -57 20 -98 111 -98 29 0 95 -7 147 -15 196
-32 308 -75 400 -154 l45 -39 -60 -11 c-178 -35 -346 -75 -390 -94 -137 -58
-280 -161 -432 -311 -95 -94 -113 -116 -113 -142 0 -18 8 -38 20 -49 23 -20
58 -18 173 13 224 61 539 48 773 -32 92 -31 154 -63 134 -69 -430 -136 -907
-383 -1469 -760 -198 -133 -281 -199 -384 -303 -287 -289 -466 -685 -533
-1178 -22 -163 -29 -428 -15 -596 18 -221 29 -250 92 -250 28 0 69 39 69 67 0
7 14 42 31 76 121 239 350 467 709 707 386 257 595 347 940 404 484 80 771 99
1080 72 313 -27 836 -113 828 -136 -5 -12 -141 -125 -250 -206 -254 -189 -517
-318 -768 -375 -123 -29 -349 -36 -465 -15 -219 38 -464 152 -649 300 -80 64
-113 71 -145 30 -12 -15 -21 -33 -21 -40 0 -7 16 -61 35 -121 45 -138 129
-309 194 -396 60 -80 62 -80 -104 -5 -60 28 -124 53 -140 55 -38 6 -68 -24
-67 -66 1 -50 51 -181 123 -326 222 -447 559 -708 994 -770 128 -19 391 -19
520 0 228 32 358 71 724 214 353 139 470 172 684 193 304 29 509 -66 586 -275
32 -85 40 -266 17 -390 -35 -185 -106 -344 -195 -436 -174 -179 -537 -323
-961 -381 -98 -13 -117 -22 -130 -56 -14 -36 5 -66 81 -131 158 -135 320 -218
445 -230 35 -3 64 -9 63 -12 -1 -12 -106 -94 -169 -132 -35 -22 -106 -53 -156
-69 -209 -67 -546 -140 -646 -140 -63 0 -98 -31 -98 -86 0 -33 9 -46 98 -133
104 -102 201 -166 327 -216 87 -34 231 -65 308 -65 31 0 57 -3 57 -6 0 -15
-56 -76 -108 -116 -101 -79 -271 -152 -470 -202 -160 -40 -240 -50 -389 -49
-142 2 -143 2 -163 -24 -23 -29 -25 -55 -9 -85 43 -80 350 -257 544 -313 92
-27 266 -54 343 -55 l43 0 -18 -31 c-30 -52 -172 -197 -237 -243 -119 -85
-193 -114 -371 -148 -102 -19 -153 -22 -335 -22 -189 0 -224 3 -294 22 -44 12
-92 22 -107 22 -33 0 -69 -41 -69 -79 0 -37 96 -149 207 -241 254 -212 529
-320 816 -320 48 0 87 -4 87 -8 0 -5 -9 -35 -21 -68 -81 -235 -179 -633 -179
-731 0 -75 26 -209 60 -315 34 -101 166 -376 202 -420 l23 -28 151 139 c328
302 530 564 600 777 15 46 28 83 30 81 1 -1 -2 -38 -8 -82 -19 -148 8 -291 91
-481 47 -110 159 -307 221 -393 l32 -44 90 89 c130 128 280 295 359 401 131
173 187 290 241 497 12 47 13 43 14 -80 0 -103 5 -146 23 -212 44 -158 200
-438 349 -630 l49 -62 93 97 c221 230 414 513 470 688 l13 40 19 -70 c49 -177
214 -448 418 -684 l64 -74 29 34 c239 278 408 553 456 738 l18 74 17 -71 c44
-177 239 -496 440 -719 l47 -53 51 58 c134 152 270 346 347 494 40 78 63 138
98 258 2 8 13 -10 24 -40 63 -180 242 -439 471 -684 l84 -90 72 97 c145 192
256 391 314 560 28 81 32 108 36 231 l4 140 23 -91 c57 -223 174 -407 451
-708 61 -66 138 -144 171 -172 l60 -52 67 102 c87 131 208 376 243 492 24 80
27 106 28 236 l0 146 26 -72 c61 -167 170 -327 361 -530 107 -113 312 -310
369 -354 l26 -20 61 107 c122 213 199 436 209 603 9 149 -27 317 -154 721 -26
82 -44 150 -42 153 3 2 32 0 65 -5 130 -21 325 -6 474 37 202 58 414 188 582
357 122 121 138 157 96 211 -19 25 -26 27 -67 22 -25 -3 -77 -14 -116 -24 -56
-14 -112 -17 -275 -17 -296 1 -479 38 -627 125 -78 46 -208 177 -272 274 l-53
80 153 7 c161 6 247 23 389 73 174 62 413 208 426 260 8 30 -11 81 -34 91 -10
4 -64 8 -122 9 -185 4 -370 45 -582 131 -240 96 -352 190 -442 371 -20 39 -36
74 -36 77 0 3 49 6 109 6 173 0 325 36 479 114 148 75 273 171 363 278 56 68
62 101 25 145 l-24 27 -84 -12 c-249 -36 -526 8 -751 118 -197 98 -358 262
-452 463 -19 40 -37 85 -41 101 -6 26 -5 28 12 22 10 -4 60 -19 109 -32 50
-14 113 -31 140 -39 141 -40 356 -45 510 -11 261 56 512 208 740 448 80 84 95
105 95 132 0 65 -65 86 -125 41 -142 -109 -450 -96 -840 36 -191 65 -309 126
-393 204 -191 177 -328 498 -416 975 -44 243 -77 542 -121 1120 -63 812 -104
1025 -265 1355 -79 161 -149 264 -248 363 -69 68 -80 83 -65 89 82 28 182 69
203 82 124 76 283 275 447 561 78 135 173 325 173 345 0 23 -46 65 -71 65 -14
0 -43 -23 -83 -66 -112 -122 -318 -254 -449 -288 -75 -20 -212 -30 -260 -19
l-38 8 107 45 c188 78 328 170 423 277 141 158 235 486 272 944 12 160 8 184
-36 195 -44 11 -75 -4 -92 -44 -30 -73 -171 -349 -218 -427 -112 -186 -186
-267 -303 -328 -75 -40 -172 -80 -172 -71 0 3 22 31 48 62 132 154 202 294
239 479 22 109 24 470 5 638 -35 293 -114 678 -147 715 -26 29 -69 26 -94 -6z"/>
</g>
</svg>
