<?xml version="1.0" standalone="no"?>
<!DOCTYPE svg PUBLIC "-//W3C//DTD SVG 20010904//EN"
 "http://www.w3.org/TR/2001/REC-SVG-20010904/DTD/svg10.dtd">
<svg version="1.0" xmlns="http://www.w3.org/2000/svg"
 width="1054.000000pt" height="1280.000000pt" viewBox="0 0 1054.000000 1280.000000"
 preserveAspectRatio="xMidYMid meet">
<metadata>
Created by potrace 1.15, written by Peter Selinger 2001-2017
</metadata>
<g transform="translate(0.000000,1280.000000) scale(0.100000,-0.100000)"
fill="#000000" stroke="none">
<path d="M3 9203 c3 -3885 0 -3607 52 -4143 110 -1115 359 -1955 783 -2636
221 -355 528 -717 897 -1057 663 -611 1473 -1009 2475 -1217 279 -58 459 -84
900 -131 261 -28 554 -17 955 36 1280 170 2257 653 3037 1501 375 408 614 751
819 1179 354 740 536 1604 609 2899 6 114 10 1443 10 3672 l0 3494 -5270 0
-5270 0 3 -3597z m10447 85 c0 -3553 0 -3599 -40 -4078 -120 -1435 -420 -2370
-1018 -3168 -201 -268 -544 -634 -782 -833 -662 -554 -1452 -895 -2420 -1043
-392 -60 -687 -81 -903 -67 -1154 80 -2080 354 -2854 845 -421 266 -875 681
-1233 1126 -114 143 -295 413 -391 585 -356 640 -572 1439 -668 2480 -52 551
-51 484 -51 4153 l0 3422 5180 0 5180 0 0 -3422z"/>
<path d="M1683 12035 c-192 -52 -371 -228 -502 -492 -89 -179 -135 -333 -181
-608 -50 -294 -123 -544 -231 -788 -63 -142 -117 -233 -185 -309 -61 -68 -69
-103 -30 -118 48 -18 212 23 363 91 36 16 66 29 67 29 5 0 -50 -361 -83 -555
-62 -356 -90 -478 -156 -675 -36 -107 -75 -231 -85 -275 -20 -79 -27 -210 -12
-218 12 -8 144 38 212 74 115 61 228 184 297 324 35 70 70 166 144 393 29 89
56 162 61 162 4 0 6 -12 3 -27 -2 -16 -7 -95 -10 -178 -30 -763 -209 -1548
-491 -2155 -58 -126 -166 -332 -210 -402 l-24 -37 32 -36 c50 -58 101 -79 188
-79 230 1 453 200 630 559 146 298 332 843 411 1207 43 202 55 247 69 268 14
21 13 -34 -5 -301 -98 -1469 -317 -2521 -751 -3616 -46 -117 -84 -222 -84
-233 0 -35 39 -100 73 -121 44 -28 142 -22 220 14 202 92 369 277 519 573 88
172 254 548 316 715 185 493 354 1292 477 2257 6 46 9 52 31 52 98 0 108 -311
39 -1205 -44 -568 -81 -860 -163 -1316 l-28 -154 25 -3 c45 -6 141 20 199 55
229 137 400 478 500 998 48 247 120 673 127 745 3 36 10 207 15 380 13 404 26
490 75 490 22 0 24 -5 31 -77 16 -171 -13 -856 -51 -1195 -14 -130 -25 -261
-23 -290 l3 -53 66 1 c82 1 152 33 224 102 188 183 263 409 325 980 21 193 31
236 56 246 37 14 64 -122 64 -325 0 -228 -37 -475 -101 -684 -51 -165 -77
-208 -264 -440 -168 -209 -233 -323 -295 -524 -37 -119 -66 -267 -85 -426
l-13 -120 -283 -519 -283 -519 -43 48 c-67 74 -170 235 -213 332 -21 48 -53
138 -71 198 -17 61 -41 130 -54 155 -12 25 -25 64 -29 88 -15 98 -96 200 -174
221 -38 11 -102 5 -102 -8 0 -4 14 -47 30 -96 17 -50 30 -110 30 -137 0 -44
-5 -54 -44 -96 -57 -62 -66 -80 -73 -155 -8 -90 9 -142 66 -198 41 -42 52 -47
106 -53 33 -4 65 -10 71 -14 30 -20 63 -109 66 -178 3 -53 10 -84 31 -124 l28
-53 -133 6 c-74 4 -154 13 -179 20 -43 13 -48 13 -75 -7 -64 -47 -308 -16
-365 46 -34 38 -175 78 -274 78 -88 0 -126 -22 -232 -133 -62 -64 -73 -80 -73
-110 0 -35 32 -87 54 -87 6 0 20 14 30 31 19 33 78 64 103 54 11 -4 14 -14 10
-34 -12 -57 10 -143 51 -201 21 -30 42 -67 46 -82 9 -38 40 -52 112 -51 75 1
153 33 216 91 l43 39 166 -5 165 -4 17 -48 c21 -59 66 -100 110 -100 44 0 119
37 200 98 54 41 76 52 106 52 21 0 41 -3 44 -6 12 -13 -218 -319 -375 -500
l-80 -92 -46 20 c-84 37 -178 5 -264 -91 -54 -60 -73 -118 -72 -219 1 -57 6
-79 21 -100 30 -40 49 -39 63 3 6 19 23 49 37 65 20 25 32 30 68 30 l42 0 5
-51 c5 -53 26 -89 72 -123 21 -16 42 -21 89 -21 146 1 281 143 305 322 7 51
15 69 50 111 66 78 109 112 143 112 46 0 90 23 131 68 40 45 58 94 84 233 16
86 18 91 54 115 21 14 41 32 44 40 8 20 203 20 242 -1 16 -8 48 -15 71 -15 36
0 43 -4 62 -35 39 -66 117 -93 180 -61 36 19 85 75 112 127 20 39 22 41 58 36
21 -2 57 -17 81 -33 l42 -28 19 23 c28 35 25 90 -9 137 -41 56 -156 160 -203
185 -57 29 -128 35 -167 15 -39 -20 -112 -20 -225 2 l-88 18 96 149 c268 414
634 942 733 1054 l38 44 34 -84 c42 -105 112 -247 157 -317 75 -117 182 -203
233 -187 31 10 25 45 -32 194 -51 131 -53 139 -52 231 2 124 42 262 169 579
52 130 95 243 96 251 0 8 5 4 11 -10 6 -14 13 -122 15 -240 5 -213 -4 -330
-39 -493 -11 -54 -50 -107 -79 -107 -11 0 -38 15 -60 32 -40 32 -41 32 -56 13
-20 -27 -10 -104 22 -171 50 -103 132 -174 241 -209 l52 -17 -10 -36 c-33
-118 -128 -236 -231 -287 l-58 -28 -182 9 c-326 15 -352 13 -425 -26 -136 -72
-216 -238 -164 -340 23 -48 62 -49 77 -3 6 18 14 35 17 39 16 15 87 -24 153
-86 88 -81 128 -95 270 -95 82 1 113 6 173 27 87 31 184 88 270 157 34 28 62
47 62 42 0 -5 -14 -51 -30 -101 -70 -215 -159 -326 -320 -402 -235 -111 -308
-128 -610 -138 -255 -9 -295 -16 -405 -73 -87 -45 -226 -189 -293 -302 -80
-135 -105 -224 -106 -365 -1 -130 19 -210 81 -335 85 -168 172 -263 318 -345
122 -69 160 -110 170 -179 4 -28 15 -61 24 -72 l17 -22 38 46 c74 91 102 224
72 350 -19 80 -44 133 -97 204 -41 54 -38 63 16 63 46 0 178 49 231 85 120 83
171 238 125 376 -11 35 -24 85 -27 111 -9 64 7 69 108 33 67 -23 90 -27 142
-22 137 13 261 82 393 221 110 114 210 264 311 464 42 84 78 148 80 142 8 -22
-19 -249 -38 -330 -12 -47 -39 -122 -61 -166 -79 -156 -159 -233 -273 -259
l-51 -12 2 -42 c4 -76 68 -139 200 -197 43 -18 79 -38 81 -43 2 -5 -12 -18
-30 -28 -26 -14 -67 -18 -198 -23 -189 -6 -218 -16 -287 -94 -73 -82 -101
-244 -69 -388 39 -173 191 -343 301 -336 52 4 58 29 17 72 -50 53 -62 78 -62
127 0 56 24 90 83 120 44 23 66 24 197 14 72 -6 94 -4 149 14 35 12 65 20 68
17 9 -9 -28 -189 -48 -237 -40 -91 -120 -134 -173 -94 -11 8 -33 15 -49 15
-29 0 -29 0 -22 -47 12 -84 45 -154 94 -203 51 -51 78 -60 186 -60 33 0 65 -4
70 -8 6 -4 21 -54 34 -112 13 -58 34 -132 47 -165 29 -70 90 -158 107 -153 7
2 30 31 53 64 42 63 84 179 105 294 7 36 17 68 23 72 6 4 38 8 71 8 108 0 135
9 186 60 49 49 82 119 94 203 7 47 7 47 -22 47 -16 0 -38 -7 -49 -15 -53 -40
-133 3 -173 94 -20 48 -57 228 -48 237 3 3 33 -5 68 -17 55 -18 77 -20 149
-14 131 10 153 9 197 -14 59 -30 83 -64 83 -120 0 -49 -12 -74 -62 -127 -41
-43 -35 -68 17 -72 110 -7 262 163 301 336 32 145 4 305 -67 386 -71 80 -99
90 -289 96 -131 5 -172 9 -198 23 -18 10 -32 23 -30 28 2 5 38 25 81 43 132
58 196 121 200 197 l2 42 -51 12 c-114 26 -194 103 -273 259 -22 44 -49 119
-60 165 -19 81 -47 309 -39 331 2 6 38 -59 81 -144 103 -202 201 -348 310
-462 132 -139 256 -208 393 -221 52 -5 75 -1 142 22 99 36 117 31 109 -29 -4
-25 -16 -79 -29 -120 -20 -70 -21 -82 -10 -147 32 -184 131 -263 400 -315 22
-4 21 -6 -17 -57 -53 -71 -78 -124 -97 -204 -30 -126 -2 -259 72 -350 l38 -46
17 22 c9 11 20 44 24 72 10 69 48 110 170 179 146 82 233 177 317 345 129 255
114 487 -47 737 -62 95 -193 224 -270 265 -110 57 -150 64 -405 73 -302 10
-375 27 -610 138 -161 76 -250 187 -320 402 -16 50 -30 96 -30 101 0 5 28 -14
63 -42 85 -69 182 -126 269 -157 60 -21 91 -26 173 -27 142 0 182 14 270 95
66 62 137 101 153 86 3 -4 11 -21 17 -39 24 -74 95 -15 95 78 0 48 -38 134
-85 190 -18 23 -62 57 -97 75 -73 39 -99 41 -425 26 l-182 -9 -58 28 c-82 41
-157 119 -197 207 -52 114 -52 114 8 133 109 35 191 106 241 209 32 67 42 144
22 171 -15 19 -16 19 -56 -13 -22 -17 -49 -32 -60 -32 -29 0 -68 53 -79 107
-35 163 -44 280 -39 493 2 118 9 226 15 240 6 14 11 18 11 10 1 -8 44 -121 96
-251 127 -317 167 -455 169 -579 1 -92 -1 -100 -52 -231 -57 -149 -63 -184
-32 -194 51 -16 158 70 233 187 45 69 115 212 156 315 18 46 37 80 42 78 16
-10 126 -150 201 -255 102 -144 447 -656 564 -837 l95 -147 -88 -18 c-113 -22
-186 -22 -225 -2 -39 20 -110 14 -167 -15 -47 -25 -162 -129 -203 -185 -34
-47 -37 -102 -9 -137 l19 -23 42 28 c24 16 60 31 81 33 36 5 38 3 58 -36 27
-52 76 -108 112 -127 63 -32 141 -5 180 61 19 31 26 35 62 35 23 0 55 7 71 15
39 21 234 21 242 1 3 -8 22 -26 43 -39 36 -24 39 -30 55 -114 28 -147 44 -191
84 -235 41 -46 85 -68 135 -68 27 0 42 -10 83 -52 94 -100 97 -104 106 -170
24 -180 158 -322 305 -323 47 0 68 5 89 21 46 34 67 70 72 123 l5 51 42 0 c36
0 48 -5 68 -30 14 -16 31 -46 37 -65 14 -42 33 -43 63 -3 15 21 20 43 21 100
1 101 -18 159 -72 219 -86 96 -180 129 -264 91 l-46 -20 -74 87 c-169 195
-391 488 -382 503 3 4 23 8 44 8 31 0 52 -10 107 -52 81 -61 156 -98 200 -98
44 0 89 41 110 100 l17 48 165 4 166 5 43 -39 c61 -56 140 -90 210 -91 79 -1
101 9 119 51 8 21 30 60 49 88 36 53 57 142 47 197 -4 18 0 29 10 32 25 10 84
-21 103 -54 10 -17 24 -31 30 -31 22 0 54 52 54 87 0 30 -11 46 -72 110 -107
111 -145 133 -233 133 -99 0 -240 -40 -274 -78 -57 -62 -301 -93 -365 -46 -27
20 -32 20 -75 7 -25 -7 -105 -16 -179 -20 l-133 -6 28 53 c21 40 28 71 31 124
2 47 10 84 24 111 34 66 46 74 112 81 55 6 65 11 107 53 57 56 74 108 66 198
-7 75 -16 93 -73 155 -39 42 -44 52 -44 96 0 28 13 85 30 135 17 48 30 91 30
96 0 5 -14 11 -31 15 -103 20 -222 -89 -244 -224 -4 -25 -18 -65 -30 -90 -13
-25 -37 -94 -54 -155 -18 -60 -50 -150 -71 -198 -43 -97 -146 -258 -213 -332
l-43 -48 -283 519 -283 519 -9 90 c-15 142 -56 356 -90 462 -63 199 -143 337
-325 558 -110 134 -146 187 -184 268 -56 119 -108 334 -135 550 -34 279 -7
612 49 591 25 -10 35 -53 56 -246 42 -387 90 -608 163 -755 105 -208 244 -325
387 -327 l65 -1 3 53 c2 29 -9 160 -23 290 -30 272 -41 466 -50 882 -7 322 -2
383 31 388 47 7 61 -87 74 -488 5 -173 12 -344 15 -380 6 -70 77 -484 127
-745 99 -519 271 -861 500 -998 58 -35 154 -61 199 -55 l25 3 -33 185 c-76
427 -117 757 -158 1285 -69 899 -60 1192 37 1203 24 3 26 0 33 -50 106 -819
237 -1496 384 -1981 65 -215 120 -358 243 -637 190 -427 289 -599 427 -738
132 -134 263 -210 375 -219 72 -6 112 9 146 57 42 59 39 79 -53 310 -398 1003
-625 2029 -727 3270 -15 188 -40 578 -40 624 1 41 1 41 15 16 7 -14 30 -102
50 -195 50 -233 82 -347 185 -655 174 -523 306 -791 478 -972 130 -136 256
-201 392 -202 87 0 138 21 188 78 l31 36 -46 77 c-25 43 -81 148 -123 233
-289 577 -466 1235 -535 1985 -18 194 -33 505 -24 505 3 0 29 -73 58 -162 74
-227 109 -323 144 -393 69 -140 182 -263 297 -324 68 -36 200 -82 212 -74 15
8 8 139 -12 218 -10 44 -49 168 -85 275 -66 196 -101 351 -160 700 -31 182
-83 530 -79 530 1 0 31 -13 67 -29 151 -68 315 -109 363 -91 39 15 31 50 -30
118 -171 192 -337 629 -416 1097 -59 349 -142 579 -284 784 -174 252 -419 379
-601 310 -124 -46 -238 -196 -287 -376 -16 -61 -20 -108 -20 -213 0 -156 24
-271 86 -405 l36 -78 -60 -63 c-77 -80 -124 -177 -145 -298 -20 -117 -19 -188
5 -325 11 -62 20 -139 20 -170 0 -57 -23 -217 -40 -282 l-10 -36 -57 0 c-34 0
-71 -7 -89 -16 -39 -20 -97 -84 -123 -136 -27 -53 -66 -188 -81 -284 -11 -65
-16 -77 -29 -72 -43 17 -149 17 -207 0 -118 -34 -184 -91 -319 -280 -52 -71
-104 -143 -117 -158 l-23 -28 -65 14 c-36 8 -102 24 -146 37 -108 30 -149 23
-252 -40 -115 -69 -111 -69 -195 -17 -271 169 -445 423 -516 751 -60 275 -48
544 50 1166 58 365 69 466 69 625 0 159 -16 248 -58 340 -51 107 -126 175
-244 219 -91 34 -167 43 -513 62 -457 25 -542 10 -672 -122 -71 -72 -72 -72
-110 -63 -84 19 -178 -41 -211 -133 -13 -40 -29 -59 -72 -93 -176 -136 -230
-273 -181 -465 12 -47 37 -118 56 -159 20 -41 33 -76 31 -78 -11 -12 -160 -44
-226 -49 -89 -7 -146 6 -190 43 -28 23 -31 31 -26 62 19 113 19 126 -2 151
l-20 25 -27 -25 c-43 -39 -75 -116 -75 -180 0 -167 191 -276 393 -225 37 9
120 37 185 62 263 102 400 141 583 169 110 16 309 22 348 9 l23 -7 -24 -25
c-12 -14 -43 -35 -68 -47 -40 -18 -70 -21 -280 -26 -256 -6 -299 -15 -340 -68
-29 -36 -25 -60 18 -102 71 -71 173 -95 455 -106 174 -6 177 -7 177 -29 0 -44
-62 -77 -238 -125 -179 -48 -262 -101 -262 -166 0 -45 22 -61 64 -46 66 24
116 10 169 -46 25 -26 26 -30 12 -42 -11 -9 -42 -11 -123 -6 -101 6 -110 5
-160 -18 -35 -17 -79 -53 -133 -109 -46 -49 -102 -96 -132 -112 -94 -50 -108
-74 -58 -95 38 -15 82 -6 147 31 50 28 118 38 158 23 22 -8 20 -50 -2 -66 -10
-7 -41 -47 -69 -89 -74 -109 -145 -171 -224 -193 -182 -52 -207 -66 -238 -128
-21 -43 -30 -148 -13 -148 4 0 16 13 25 30 26 43 80 81 126 87 26 4 61 -2 107
-18 89 -29 183 -29 249 0 57 25 55 25 55 6 0 -24 -58 -82 -118 -119 -32 -19
-115 -60 -187 -92 -147 -65 -167 -83 -240 -203 -58 -96 -53 -96 -175 -21 -105
63 -146 70 -254 40 -44 -13 -110 -29 -146 -37 l-65 -14 -23 28 c-13 15 -65 87
-117 158 -135 189 -201 246 -319 280 -58 17 -164 17 -207 0 -13 -5 -18 7 -29
72 -15 96 -54 231 -81 284 -26 52 -84 116 -123 136 -18 9 -55 16 -88 16 -65 0
-59 -7 -83 107 -28 133 -30 241 -6 377 25 144 26 210 6 329 -21 121 -68 218
-145 298 l-60 63 35 75 c19 41 46 120 61 174 35 132 38 327 6 447 -32 119 -93
226 -167 296 -101 94 -197 119 -322 86z m2956 -462 c70 -155 96 -187 189 -229
222 -100 285 -137 363 -214 83 -82 109 -134 109 -220 0 -59 -47 -156 -96 -199
-81 -72 -169 -91 -414 -91 -151 0 -200 8 -200 34 0 27 176 56 344 56 116 0
121 1 193 36 65 31 77 41 94 77 47 106 -2 228 -114 280 -55 26 -156 47 -224
47 -28 0 -46 6 -59 21 -70 78 -261 97 -389 40 -68 -31 -150 -106 -205 -190
-16 -23 -16 -23 -45 30 -70 129 -14 311 119 382 33 18 58 22 127 22 l86 0 -9
28 c-6 15 -28 42 -49 61 -78 66 -34 139 80 133 l53 -2 47 -102z m464 72 c37
-8 107 -30 155 -50 48 -20 106 -44 129 -52 88 -32 16 -43 -134 -21 l-83 12
-31 -37 c-61 -74 -148 -72 -191 5 -14 23 -38 48 -60 59 -42 22 -50 31 -42 52
16 43 136 58 257 32z m-377 -530 c46 -13 134 -79 122 -90 -5 -6 -506 -134
-522 -135 -17 0 2 91 27 129 35 52 110 89 207 100 109 12 112 12 166 -4z
m-2895 -1142 c428 -758 956 -1296 1578 -1606 431 -215 867 -319 1506 -356 88
-6 163 -7 167 -3 21 22 62 462 46 495 -16 31 -69 18 -248 -63 -58 -26 -117
-50 -131 -53 l-26 -7 4 278 c2 152 6 283 9 290 2 9 28 0 86 -29 176 -88 323
-131 343 -99 16 26 -44 263 -110 431 -5 15 16 16 214 16 122 0 221 0 221 -1 0
0 -16 -45 -35 -98 -43 -122 -73 -238 -77 -303 l-3 -50 42 -3 c47 -3 165 39
301 107 58 29 84 38 86 29 3 -7 7 -138 9 -290 l5 -278 -27 7 c-14 3 -73 27
-131 53 -179 81 -232 94 -248 63 -16 -33 25 -473 46 -495 4 -4 79 -3 167 3
639 37 1075 141 1506 356 624 312 1151 849 1578 1609 53 93 123 227 156 297
33 69 63 126 66 126 9 1 -18 -186 -47 -329 -54 -264 -135 -498 -255 -740 -216
-435 -518 -799 -922 -1113 -674 -523 -1301 -749 -2218 -799 -170 -9 -268 -9
-438 0 -918 50 -1550 278 -2221 802 -304 238 -524 473 -728 780 -243 364 -399
766 -472 1214 -34 206 -30 209 55 38 41 -83 107 -209 146 -279z m2249 -4918
l0 -70 -111 -155 c-274 -383 -836 -1259 -854 -1332 -11 -42 21 -55 156 -61 66
-3 130 -11 150 -20 19 -7 74 -53 123 -102 88 -85 89 -88 75 -113 -35 -61 -109
-80 -124 -31 -4 11 -20 36 -37 55 -28 32 -34 34 -90 34 -50 0 -65 4 -90 25
-34 29 -55 31 -87 9 -23 -16 -40 -16 -167 2 -36 5 -46 2 -78 -27 -54 -47 -73
-93 -95 -227 -27 -168 -52 -209 -144 -231 -65 -16 -112 -48 -138 -96 -12 -22
-43 -62 -69 -90 -42 -43 -51 -61 -71 -135 -12 -47 -30 -103 -39 -126 -22 -51
-72 -94 -111 -94 -34 0 -95 24 -120 46 -16 15 -15 19 20 66 39 50 61 105 61
149 0 15 26 53 71 104 233 264 490 619 493 679 l1 31 -150 -4 -149 -4 -41 -42
c-64 -66 -123 -66 -151 1 -10 25 -26 40 -52 51 -33 14 -41 14 -82 -1 -37 -13
-62 -14 -135 -7 -49 5 -103 14 -118 20 -16 6 -48 11 -72 11 -40 0 -46 -3 -61
-32 -38 -76 -88 -108 -165 -108 -46 0 -55 4 -90 39 -35 34 -39 44 -39 87 0 27
8 64 18 83 17 33 19 34 87 36 93 4 158 22 186 51 19 20 32 24 78 24 35 0 73
-8 101 -21 66 -30 161 -36 210 -14 30 14 53 16 102 11 35 -3 113 -9 173 -12
125 -7 178 3 225 42 l30 26 -55 39 c-73 53 -104 107 -111 195 -4 48 -15 89
-37 134 -45 94 -61 110 -115 110 -105 0 -178 113 -141 219 11 30 12 31 74 31
34 0 75 2 91 5 29 6 30 4 94 -132 81 -172 171 -322 247 -414 32 -38 78 -96
102 -127 50 -66 57 -72 92 -72 23 0 55 53 394 663 202 364 381 681 396 703 37
54 106 104 227 164 68 34 99 45 104 37 4 -7 8 -43 8 -82z m2580 -1 c35 -20 82
-56 104 -78 29 -29 152 -241 420 -724 349 -627 382 -682 405 -682 35 0 42 6
92 72 24 31 70 89 102 127 76 92 166 242 247 414 64 136 65 138 94 132 16 -3
57 -5 91 -5 62 0 63 -1 74 -31 37 -106 -36 -219 -141 -219 -54 0 -70 -16 -115
-110 -22 -45 -33 -86 -37 -134 -7 -88 -38 -142 -111 -195 l-55 -39 30 -26 c47
-39 100 -49 225 -42 61 3 138 9 173 12 49 5 72 3 102 -11 49 -22 144 -16 210
14 28 13 66 21 101 21 46 0 59 -4 78 -24 28 -29 93 -47 186 -51 68 -2 70 -3
87 -36 10 -19 18 -56 18 -83 0 -43 -4 -53 -39 -87 -35 -35 -44 -39 -90 -39
-77 0 -127 32 -165 108 -15 29 -21 32 -61 32 -24 0 -56 -5 -72 -11 -15 -6 -68
-15 -118 -20 -73 -7 -98 -6 -135 7 -41 15 -49 15 -82 1 -26 -11 -42 -26 -52
-51 -28 -67 -87 -67 -151 -1 l-41 42 -149 4 -150 4 1 -31 c3 -60 260 -415 493
-679 45 -51 71 -89 71 -104 0 -44 22 -99 61 -149 35 -47 36 -51 20 -66 -25
-22 -86 -46 -120 -46 -39 0 -89 43 -111 94 -9 23 -27 79 -39 126 -20 74 -29
92 -71 135 -26 28 -57 68 -69 90 -26 48 -73 80 -138 96 -89 22 -123 76 -143
224 -14 110 -25 146 -60 193 -42 58 -72 76 -117 68 -109 -18 -141 -18 -164 -2
-32 22 -53 20 -87 -9 -25 -21 -40 -25 -90 -25 -56 0 -62 -2 -90 -34 -17 -19
-33 -44 -37 -55 -15 -49 -89 -30 -124 31 -14 25 -13 28 75 113 49 49 104 95
123 102 20 9 84 17 150 20 135 6 167 19 156 61 -18 73 -580 949 -854 1332
l-111 155 0 60 c0 33 3 70 6 81 l6 22 62 -28 c35 -16 91 -45 126 -66z m-4270
-556 c32 -70 26 -104 -22 -121 -16 -6 -18 2 -18 78 0 96 11 107 40 43z m5800
-43 c0 -76 -2 -84 -17 -78 -49 17 -55 51 -23 121 29 64 40 53 40 -43z m-6555
-812 c65 -17 105 -37 105 -54 0 -15 -64 -39 -105 -39 -20 0 -61 9 -93 19 -31
11 -78 22 -104 26 -53 8 -57 14 -28 40 40 36 106 38 225 8z m7484 -2 c39 -27
35 -38 -16 -46 -26 -4 -74 -15 -105 -26 -69 -23 -116 -24 -163 -5 -57 24 -42
46 46 72 119 36 193 37 238 5z m-5419 -225 c39 -26 70 -70 57 -82 -3 -4 -25
-9 -49 -11 -78 -9 -136 29 -154 101 l-7 29 56 -5 c38 -3 69 -13 97 -32z m3285
7 c-19 -79 -96 -120 -182 -97 -73 20 50 124 146 124 42 0 43 -1 36 -27z
m-4842 -822 c45 -17 63 -114 26 -147 -20 -18 -22 -18 -51 -1 -40 23 -73 21
-135 -7 -56 -27 -65 -22 -56 29 8 41 74 102 130 119 59 18 57 18 86 7z m6375
-23 c61 -29 111 -103 96 -143 -4 -10 -17 -8 -57 11 -62 28 -95 30 -135 7 -29
-17 -31 -17 -51 1 -23 21 -27 57 -10 105 19 55 69 61 157 19z"/>
<path d="M4997 11532 c-34 -37 -17 -62 43 -62 33 0 53 21 48 52 -4 31 -66 38
-91 10z"/>
</g>
</svg>
