<?xml version="1.0" standalone="no"?>
<!DOCTYPE svg PUBLIC "-//W3C//DTD SVG 20010904//EN"
 "http://www.w3.org/TR/2001/REC-SVG-20010904/DTD/svg10.dtd">
<svg version="1.0" xmlns="http://www.w3.org/2000/svg"
 width="1280.000000pt" height="844.000000pt" viewBox="0 0 1280.000000 844.000000"
 preserveAspectRatio="xMidYMid meet">
<metadata>
Created by potrace 1.15, written by Peter Selinger 2001-2017
</metadata>
<g transform="translate(0.000000,844.000000) scale(0.100000,-0.100000)"
fill="#000000" stroke="none">
<path d="M5775 8433 c-180 -25 -338 -120 -399 -240 -25 -50 -26 -51 -83 -57
-224 -26 -500 -105 -636 -181 -65 -37 -162 -128 -193 -181 -72 -122 -70 -285
4 -519 19 -59 20 -60 60 -63 38 -3 40 -1 46 30 3 18 17 57 31 86 22 47 27 52
57 52 18 0 202 -16 408 -35 l375 -35 23 -27 c60 -75 89 -228 72 -385 -22 -200
-78 -388 -217 -728 -42 -102 -91 -223 -109 -270 -38 -100 -33 -97 -195 -99
-186 -2 -386 48 -592 148 -272 131 -444 310 -982 1021 -291 385 -417 540 -560
689 -313 326 -571 459 -819 423 -654 -95 -1208 -940 -1630 -2487 -157 -576
-316 -1392 -406 -2079 -32 -248 -33 -246 22 -246 22 0 29 6 34 28 18 72 93
335 98 340 3 3 6 -3 6 -14 0 -35 46 -119 83 -151 62 -55 147 -54 242 2 46 26
170 147 206 200 13 19 26 35 29 35 3 0 15 -26 25 -57 25 -74 85 -138 137 -147
52 -9 109 8 162 49 l46 35 6 -28 c11 -43 50 -115 76 -139 73 -68 181 -51 290
46 l47 42 12 -43 c18 -67 46 -114 85 -145 52 -39 129 -39 198 0 27 15 50 27
51 27 1 0 5 -33 8 -72 16 -190 99 -308 214 -308 54 0 129 38 195 99 l58 53 0
-48 c0 -70 24 -174 54 -232 73 -144 226 -149 371 -11 30 29 55 50 55 47 0 -3
7 -45 15 -94 37 -219 122 -344 232 -344 71 0 176 80 248 188 15 23 29 41 30
40 2 -2 13 -39 24 -83 75 -275 222 -364 374 -225 29 26 59 60 66 74 8 14 17
26 20 26 4 0 17 -29 29 -65 28 -76 88 -172 127 -203 133 -105 281 -3 386 267
23 58 42 107 43 108 1 2 15 -30 30 -70 102 -261 260 -339 393 -194 126 137
205 440 222 857 l8 185 45 107 45 106 32 -116 c18 -64 54 -175 79 -247 46
-129 47 -131 45 -243 -5 -221 -56 -521 -124 -724 -74 -224 -158 -361 -329
-543 -66 -71 -103 -119 -111 -144 -11 -36 -14 -38 -367 -211 l-356 -173 -277
92 c-207 69 -282 98 -300 117 -32 34 -147 90 -216 105 -72 14 -205 7 -258 -16
-156 -66 -183 -198 -65 -309 108 -101 302 -141 447 -93 32 11 59 10 178 -9
157 -24 156 -20 10 -70 -55 -19 -81 -23 -125 -18 -224 25 -473 -165 -430 -326
50 -186 415 -187 583 -1 19 21 38 45 43 53 10 15 264 190 264 181 0 -3 -18
-57 -41 -119 -36 -99 -45 -114 -71 -125 -42 -17 -119 -97 -145 -151 -49 -99
-49 -213 1 -289 31 -46 114 -89 173 -89 106 0 232 86 288 197 28 55 30 65 31
183 1 109 6 147 42 304 23 99 44 181 46 183 1 2 167 64 367 139 l364 136 93
-17 c119 -23 292 -16 402 15 228 64 464 229 626 437 64 80 174 257 174 277 0
7 52 11 150 11 98 0 150 -4 150 -11 0 -20 110 -197 174 -277 162 -208 397
-372 626 -437 107 -30 290 -38 397 -16 l81 16 363 -135 c200 -75 364 -137 365
-138 1 -1 21 -83 45 -182 36 -157 42 -196 43 -305 1 -118 3 -128 31 -183 56
-111 182 -197 288 -197 59 0 138 41 171 89 51 74 52 190 2 289 -29 58 -102
134 -144 151 -26 11 -36 27 -71 124 -23 60 -39 112 -37 114 10 10 253 -163
278 -198 69 -98 189 -158 329 -166 222 -14 340 111 256 273 -58 112 -260 206
-407 190 -44 -5 -70 -1 -125 18 -146 50 -147 46 10 70 119 19 146 20 178 9
149 -49 360 -2 457 103 48 52 60 80 60 137 0 175 -303 247 -531 126 -31 -17
-67 -42 -80 -55 -16 -17 -97 -49 -299 -116 l-277 -91 -345 169 -345 168 -11
42 c-8 31 -36 68 -112 148 -171 183 -254 320 -329 544 -68 203 -119 503 -124
724 -2 112 -1 114 45 243 25 72 61 183 79 247 l32 116 45 -106 45 -107 8 -185
c17 -417 96 -720 222 -857 133 -145 291 -67 393 194 15 40 29 72 30 70 1 -1
20 -50 43 -108 105 -270 253 -372 386 -267 39 31 99 127 127 203 12 36 25 65
29 65 3 0 12 -12 20 -26 7 -14 37 -48 66 -74 152 -139 299 -50 374 225 11 44
22 81 24 83 1 1 15 -17 30 -40 72 -108 177 -188 248 -188 110 0 195 125 232
344 8 49 15 91 15 94 0 3 25 -18 55 -47 145 -138 298 -133 371 11 30 58 54
162 54 232 l0 48 58 -53 c66 -61 141 -99 195 -99 115 0 198 118 214 308 3 39
7 72 8 72 1 0 24 -12 51 -27 69 -39 146 -39 198 0 39 31 67 78 85 145 l12 43
47 -42 c109 -97 217 -114 290 -46 26 24 65 96 76 139 l6 28 46 -35 c53 -41
110 -58 162 -49 52 9 112 73 137 147 10 31 22 57 25 57 3 0 16 -16 29 -35 36
-53 160 -174 206 -200 95 -56 180 -57 242 -2 37 32 83 116 83 151 0 11 3 17 6
14 5 -5 80 -268 98 -340 5 -22 12 -28 34 -28 55 0 54 -2 22 246 -90 687 -249
1503 -406 2079 -422 1547 -976 2392 -1630 2487 -248 36 -506 -97 -819 -423
-143 -149 -269 -304 -560 -689 -538 -711 -710 -890 -982 -1021 -203 -99 -403
-149 -589 -149 l-103 0 -6 38 c-16 91 -99 394 -160 582 -254 777 -594 1523
-772 1691 -49 46 -235 165 -342 218 -199 100 -446 149 -626 124z"/>
</g>
</svg>
