<?xml version="1.0" standalone="no"?>
<!DOCTYPE svg PUBLIC "-//W3C//DTD SVG 20010904//EN"
 "http://www.w3.org/TR/2001/REC-SVG-20010904/DTD/svg10.dtd">
<svg version="1.0" xmlns="http://www.w3.org/2000/svg"
 width="1017.000000pt" height="1280.000000pt" viewBox="0 0 1017.000000 1280.000000"
 preserveAspectRatio="xMidYMid meet">
<metadata>
Created by potrace 1.15, written by Peter Selinger 2001-2017
</metadata>
<g transform="translate(0.000000,1280.000000) scale(0.100000,-0.100000)"
fill="#000000" stroke="none">
<path d="M3675 12794 c-41 -11 -105 -37 -105 -43 1 -3 15 -15 32 -26 58 -37
71 -74 72 -204 l1 -116 -115 0 c-129 0 -168 14 -205 73 -11 17 -23 31 -27 32
-3 0 -15 -21 -25 -47 -23 -60 -25 -220 -4 -273 24 -60 32 -64 50 -28 11 20 35
42 61 56 38 19 60 22 158 22 l113 0 -3 -472 c-3 -520 -2 -506 -66 -560 l-30
-25 33 -18 c46 -24 79 -60 114 -124 l29 -54 25 49 c27 53 100 127 136 139 21
6 20 7 -10 28 -62 42 -69 71 -69 274 l0 182 38 -13 c74 -26 184 -86 241 -131
129 -101 199 -234 236 -442 21 -115 21 -442 0 -615 -53 -454 -187 -740 -438
-935 l-57 -44 -68 22 c-208 68 -362 141 -572 272 -250 155 -397 216 -567 233
l-65 7 5 186 c3 127 11 219 25 291 11 58 22 127 23 153 3 46 1 49 -29 64 -43
21 -149 110 -312 262 -260 243 -400 361 -527 446 l-72 48 -71 -49 c-341 -232
-693 -617 -844 -922 -89 -179 -81 -7 -78 -1672 l3 -1475 -27 45 c-72 121 -87
141 -96 128 -15 -24 -68 -198 -68 -226 l0 -27 -28 35 c-44 57 -91 97 -201 171
-67 45 -107 67 -114 60 -5 -5 -8 -69 -5 -158 3 -138 6 -152 33 -213 17 -36 45
-84 62 -108 39 -50 41 -57 11 -38 -34 21 -148 54 -217 62 l-60 7 8 -29 c60
-195 165 -345 285 -404 34 -17 99 -38 144 -47 72 -14 79 -18 64 -29 -9 -8 -40
-21 -68 -29 -28 -9 -61 -26 -73 -39 -98 -104 36 -256 157 -178 33 22 52 64 52
119 0 31 7 56 19 72 21 28 16 34 75 -97 43 -95 46 -108 46 -187 l0 -84 -57 20
c-105 36 -393 66 -393 41 0 -15 53 -88 98 -134 l46 -48 -30 0 c-29 0 -144 -26
-152 -35 -8 -7 76 -113 137 -174 101 -101 234 -171 323 -171 l31 0 -6 -1718
c-6 -1854 -3 -1749 -56 -1900 -11 -28 -17 -52 -14 -52 19 0 141 102 213 176
148 155 285 337 389 519 l51 89 0 -42 0 -43 33 17 c153 79 338 263 475 471
l47 72 62 11 c35 6 71 13 80 16 10 3 -4 -7 -30 -21 -26 -14 -57 -40 -68 -58
-38 -60 -9 -138 62 -167 l28 -12 -41 -34 c-22 -19 -49 -45 -60 -59 -30 -39
-66 -129 -79 -200 -12 -61 -11 -69 11 -123 13 -31 34 -72 46 -91 l23 -34 11
29 c10 25 13 27 23 14 7 -9 67 -84 135 -167 132 -162 146 -173 233 -173 51 0
53 1 181 113 62 54 67 57 77 38 8 -15 3 -58 -24 -181 -20 -89 -33 -165 -30
-169 7 -13 396 -223 402 -217 10 9 103 451 95 454 -4 1 -69 36 -145 78 -133
73 -139 77 -164 128 l-26 53 42 104 c46 115 42 109 443 647 133 177 243 320
246 318 2 -3 7 -20 11 -38 l7 -33 34 50 c45 66 218 244 353 362 l108 96 182
-81 c241 -107 317 -143 317 -149 0 -4 -65 -138 -144 -299 -482 -981 -951
-1644 -1343 -1901 -45 -30 -96 -59 -113 -64 -16 -6 -30 -14 -30 -18 0 -3 69
-37 153 -75 83 -38 291 -139 462 -225 170 -86 312 -157 316 -159 17 -7 299
377 518 706 147 222 160 232 126 102 -41 -157 -251 -579 -422 -848 -19 -29
-33 -57 -31 -62 2 -5 68 -48 147 -95 187 -112 357 -226 501 -334 133 -99 372
-332 420 -409 18 -28 36 -52 39 -52 3 0 20 22 37 48 136 207 475 481 939 757
72 42 132 79 134 81 2 2 -36 70 -84 151 -189 318 -318 580 -364 739 -25 88
-34 141 -22 129 5 -6 79 -114 164 -241 155 -232 384 -551 455 -633 l39 -45 44
26 c77 45 599 303 747 369 78 35 142 66 141 69 0 3 -27 18 -60 33 -312 148
-754 699 -1171 1457 -200 365 -406 786 -391 800 9 8 480 220 489 220 3 0 54
-42 113 -94 134 -118 324 -315 354 -367 25 -44 37 -49 37 -16 0 12 4 28 8 34
5 9 110 -124 308 -389 362 -485 335 -446 378 -552 38 -94 79 -156 150 -226 41
-40 62 -71 36 -55 -5 3 -25 -1 -44 -9 -37 -15 -53 -48 -43 -86 5 -18 1 -19
-58 -13 l-62 6 -7 -47 c-7 -43 3 -396 10 -396 2 0 43 25 91 57 148 95 263 183
263 202 0 9 -16 32 -34 51 l-35 33 30 27 c16 16 29 38 29 50 0 20 1 20 22 6
26 -18 101 -21 145 -5 22 7 70 59 164 174 123 152 149 176 149 140 0 -36 21
-18 56 48 33 62 38 80 37 132 -1 66 -36 174 -73 228 -12 17 -44 50 -70 72
l-48 39 46 12 c90 23 124 98 86 189 -27 65 -8 50 55 -44 148 -219 300 -374
454 -461 l57 -32 0 44 0 43 40 -74 c127 -232 394 -558 546 -667 34 -24 64 -44
68 -44 3 0 -1 17 -9 37 -9 20 -25 71 -36 112 -20 75 -21 102 -26 1707 l-6
1632 139 273 c134 262 141 273 186 302 51 32 62 51 53 90 -6 22 -2 25 38 36
57 14 77 34 77 75 0 89 99 205 272 318 147 97 148 98 120 151 -13 23 -53 80
-91 127 l-69 85 42 20 c47 23 66 54 66 108 0 30 4 37 19 37 51 0 51 0 51 187
0 96 -4 173 -8 171 -4 -1 -69 -47 -144 -102 l-136 -98 15 -36 c13 -32 13 -36
-3 -45 -56 -31 -76 -84 -55 -140 l10 -25 -148 2 c-111 1 -152 -2 -164 -13 -15
-12 -16 -33 -11 -180 5 -135 3 -179 -10 -236 -19 -80 -54 -145 -91 -169 -29
-19 -32 -50 -10 -104 12 -28 13 -38 4 -41 -7 -2 -23 -15 -36 -27 -20 -20 -23
-30 -17 -59 10 -53 -2 -92 -52 -180 l-45 -80 5 2166 c6 2117 6 2167 -13 2241
-37 144 -168 366 -329 558 -153 182 -403 412 -582 534 l-71 49 -72 -48 c-128
-85 -253 -191 -526 -444 -182 -168 -271 -244 -314 -264 -29 -15 -31 -18 -28
-68 1 -29 12 -98 23 -153 13 -68 21 -162 25 -288 l6 -188 -35 0 c-152 0 -332
-71 -598 -237 -213 -133 -324 -186 -548 -262 l-93 -32 -47 35 c-65 48 -172
160 -217 226 -136 202 -226 505 -241 819 -8 150 -7 155 83 336 l65 130 -5 153
c-2 83 -1 152 3 152 11 0 81 -49 113 -78 l28 -26 -6 59 c-11 104 -35 203 -60
239 -24 36 -24 36 -4 47 12 6 45 13 75 16 30 3 57 9 59 13 8 12 -73 97 -139
147 -33 26 -63 48 -66 51 -12 10 55 52 107 68 32 9 65 19 73 22 8 3 -3 9 -25
14 -114 25 -324 104 -590 221 -297 131 -423 161 -680 161 -243 1 -318 -26
-368 -133 -32 -66 -80 -88 -224 -99 -87 -7 -123 -14 -162 -34 l-51 -25 0 124
0 123 113 0 c130 0 166 -13 207 -75 l25 -37 20 43 c27 61 32 198 11 273 -9 30
-20 58 -25 61 -6 3 -18 -9 -28 -26 -34 -58 -73 -73 -205 -77 l-118 -4 0 118
c0 105 3 124 23 158 12 21 37 47 56 57 l35 18 -49 22 c-48 21 -184 35 -230 23z
m435 -980 c119 -31 240 -108 240 -154 0 -22 -2 -23 -72 -17 -40 3 -153 24
-250 46 -98 23 -180 41 -183 41 -3 0 -5 20 -5 45 0 41 2 45 28 51 15 3 32 7
37 9 17 7 148 -7 205 -21z m3405 -7224 c118 -425 273 -867 376 -1072 27 -54
49 -104 49 -111 0 -8 11 -31 25 -51 l24 -36 -27 -6 c-107 -23 -155 -83 -132
-164 5 -19 8 -35 7 -37 -2 -1 -28 7 -58 18 -48 19 -63 20 -139 12 -90 -10
-131 -4 -161 23 -11 9 -59 80 -108 158 -49 78 -151 231 -226 341 l-136 200 54
9 54 9 -34 46 c-40 54 -223 379 -223 397 0 6 53 42 117 79 218 126 379 264
439 379 26 49 30 53 36 33 3 -12 32 -114 63 -227z m-4955 201 c32 -64 117
-158 204 -227 73 -59 239 -165 324 -208 17 -9 32 -22 32 -29 0 -18 -182 -343
-222 -397 l-35 -47 54 -9 53 -9 -156 -230 c-85 -126 -186 -280 -224 -340 -38
-61 -77 -119 -88 -128 -26 -24 -69 -34 -119 -29 -40 4 -44 7 -68 59 -14 31
-25 57 -25 59 0 12 25 0 66 -31 76 -58 158 -44 199 35 20 39 19 69 -5 108 -39
64 -118 73 -191 21 -22 -16 -47 -23 -78 -23 -63 -1 -64 21 -4 59 85 53 197
169 237 244 54 103 86 273 71 379 l-7 50 -81 -35 c-45 -20 -86 -39 -92 -44
-19 -18 -25 -8 -25 44 0 30 -5 79 -11 110 -11 53 -9 63 29 189 37 120 91 311
122 426 6 23 13 42 15 42 3 0 14 -18 25 -39z m-390 -1663 c0 -3 -13 -13 -29
-21 l-28 -14 -1 76 -1 76 29 -55 c16 -30 29 -58 30 -62z"/>
</g>
</svg>
