<?xml version="1.0" standalone="no"?>
<!DOCTYPE svg PUBLIC "-//W3C//DTD SVG 20010904//EN"
 "http://www.w3.org/TR/2001/REC-SVG-20010904/DTD/svg10.dtd">
<svg version="1.0" xmlns="http://www.w3.org/2000/svg"
 width="1027.000000pt" height="1280.000000pt" viewBox="0 0 1027.000000 1280.000000"
 preserveAspectRatio="xMidYMid meet">
<metadata>
Created by potrace 1.15, written by Peter Selinger 2001-2017
</metadata>
<g transform="translate(0.000000,1280.000000) scale(0.100000,-0.100000)"
fill="#000000" stroke="none">
<path d="M4723 12780 c-40 -21 -73 -67 -73 -104 0 -19 1 -19 -69 -2 -143 37
-318 59 -466 60 -288 2 -377 -49 -441 -249 -31 -97 -44 -294 -22 -334 25 -46
43 -48 92 -13 96 69 208 92 301 62 128 -41 311 -226 365 -368 118 -310 22
-1064 -205 -1623 -85 -208 -287 -589 -324 -608 -30 -16 -284 -52 -407 -58
-140 -7 -317 14 -453 53 -119 35 -289 116 -534 256 -246 141 -387 210 -619
302 -264 105 -408 133 -590 116 -371 -36 -677 -245 -814 -558 -63 -144 -71
-209 -94 -732 -11 -261 -38 -871 -60 -1355 -48 -1064 -114 -2529 -175 -3868
-25 -545 -65 -1444 -90 -1996 -25 -552 -44 -1008 -42 -1014 5 -16 203 148 346
288 133 129 292 311 379 431 35 50 68 78 156 137 304 203 528 418 616 592 28
56 45 73 153 156 141 110 337 295 404 383 25 33 60 91 77 127 28 61 40 73 131
141 249 187 430 385 527 579 35 71 146 225 155 215 2 -1 -21 -90 -51 -197 -30
-107 -141 -502 -246 -879 -105 -377 -243 -869 -306 -1093 -63 -224 -114 -409
-114 -411 0 -2 -55 -2 -121 0 l-121 2 -37 36 c-20 19 -57 44 -83 56 -91 40
-295 43 -368 5 -42 -22 -100 -82 -116 -121 -8 -19 -18 -34 -23 -34 -21 0 -70
-67 -87 -118 -25 -82 -24 -230 3 -298 27 -69 65 -117 122 -153 64 -42 109 -57
124 -42 8 8 7 14 -5 23 -25 21 -48 61 -48 85 0 17 68 165 84 180 2 2 59 -14
126 -37 234 -77 899 -241 1117 -276 47 -7 57 -16 67 -58 10 -42 67 -126 115
-169 41 -37 132 -99 137 -94 1 1 -4 26 -11 55 -12 44 -12 60 1 108 15 58 30
94 41 94 3 0 90 -11 192 -25 263 -34 956 -107 1364 -142 59 -5 67 -8 68 -27 2
-51 -3 -116 -15 -186 -8 -41 -12 -77 -10 -79 2 -2 24 4 49 14 88 33 184 151
214 261 10 36 11 63 9 174 0 14 1 57 2 97 4 162 -96 253 -277 253 -50 0 -67
-4 -84 -21 -18 -18 -23 -19 -37 -6 -83 73 -235 76 -300 7 l-20 -22 -37 41
c-20 22 -54 48 -76 58 -21 9 -39 20 -39 25 0 18 51 275 58 292 7 16 27 -10
107 -138 54 -86 102 -155 106 -154 18 7 289 318 289 332 0 13 12 16 60 16 51
0 60 -3 60 -18 0 -15 258 -393 294 -430 10 -11 42 26 165 193 112 153 150 212
146 226 -6 17 -1 19 52 19 l58 -1 175 -169 c96 -93 179 -169 183 -167 5 1 40
71 79 155 39 84 73 150 76 148 5 -6 61 -273 62 -297 0 -10 -11 -20 -25 -23
-14 -4 -49 -29 -77 -56 l-52 -50 -19 21 c-62 66 -205 66 -289 0 l-27 -22 -21
21 c-16 16 -33 20 -83 20 -181 0 -281 -91 -277 -253 1 -40 2 -83 2 -97 -2
-111 -1 -138 9 -174 30 -113 123 -227 215 -262 24 -9 46 -15 48 -13 2 2 -2 36
-9 74 -23 126 -28 204 -13 210 7 2 162 18 343 35 430 40 854 85 1086 115 102
14 189 25 192 25 11 0 26 -36 41 -94 13 -48 13 -64 1 -108 -7 -29 -12 -54 -11
-55 1 -1 24 12 51 29 76 47 153 130 181 195 38 87 38 87 85 96 329 62 906 206
1134 282 59 20 109 35 110 33 12 -13 74 -138 79 -160 7 -33 -6 -69 -35 -97
-17 -16 -20 -24 -12 -32 15 -15 60 0 124 42 97 62 142 155 143 294 0 125 -23
197 -79 251 -24 23 -46 51 -49 62 -9 28 -78 97 -115 117 -77 39 -280 35 -375
-8 -28 -13 -67 -39 -87 -58 l-37 -34 -116 -1 -116 -1 -19 66 c-11 36 -78 275
-150 531 -243 870 -528 1890 -546 1955 -14 48 -14 49 3 29 87 -107 118 -151
143 -205 88 -186 281 -398 534 -587 91 -68 103 -80 131 -141 17 -36 52 -94 77
-127 67 -88 263 -273 405 -383 103 -80 125 -102 148 -148 85 -174 331 -413
621 -603 89 -58 112 -79 169 -156 101 -134 227 -275 371 -415 139 -136 335
-298 340 -282 2 6 -17 462 -42 1014 -25 552 -65 1451 -90 1996 -61 1339 -127
2804 -175 3868 -22 484 -49 1094 -60 1355 -22 507 -30 572 -85 709 -143 352
-499 581 -905 583 -184 1 -304 -31 -630 -167 -170 -70 -234 -103 -498 -254
-445 -253 -603 -305 -932 -305 -158 0 -205 5 -402 40 l-88 16 -44 136 c-72
222 -119 423 -156 674 -35 242 -42 357 -41 752 1 408 -7 575 -39 766 -58 348
-163 536 -355 636 -213 111 -593 212 -860 229 -90 6 -104 4 -142 -15z m897
-8255 c0 -3 -36 -54 -80 -114 l-81 -110 30 -157 c17 -87 30 -159 28 -159 -1
-1 -14 -5 -29 -9 -24 -5 -28 -3 -34 19 -6 23 -11 25 -59 25 -28 0 -93 3 -143
6 l-92 7 -1 41 -1 41 -11 -44 -10 -43 -140 3 -141 4 -8 -34 c-9 -33 -10 -33
-51 -27 -23 4 -42 8 -44 10 -1 1 11 73 28 160 l30 157 -81 110 c-44 60 -80
111 -80 114 0 3 218 5 485 5 267 0 485 -2 485 -5z"/>
</g>
</svg>
