<?xml version="1.0" standalone="no"?>
<!DOCTYPE svg PUBLIC "-//W3C//DTD SVG 20010904//EN"
 "http://www.w3.org/TR/2001/REC-SVG-20010904/DTD/svg10.dtd">
<svg version="1.0" xmlns="http://www.w3.org/2000/svg"
 width="1167.000000pt" height="1280.000000pt" viewBox="0 0 1167.000000 1280.000000"
 preserveAspectRatio="xMidYMid meet">
<metadata>
Created by potrace 1.15, written by Peter Selinger 2001-2017
</metadata>
<g transform="translate(0.000000,1280.000000) scale(0.100000,-0.100000)"
fill="#000000" stroke="none">
<path d="M5641 12758 c-82 -54 -203 -173 -266 -263 -27 -38 -52 -74 -55 -78
-4 -5 -33 -1 -65 9 -41 11 -79 15 -129 11 -71 -5 -71 -5 -115 34 -96 85 -230
126 -316 97 -34 -11 -40 -18 -43 -43 -3 -31 15 -69 171 -365 122 -233 207
-471 207 -584 0 -46 -4 -53 -71 -130 -39 -44 -83 -100 -97 -122 -24 -37 -33
-42 -85 -52 -82 -15 -144 -48 -199 -104 -59 -60 -88 -136 -95 -244 -7 -101 17
-191 75 -279 36 -56 69 -93 75 -84 2 2 14 22 28 44 39 59 89 104 129 114 22 6
61 5 108 -2 l74 -12 -44 -32 c-23 -18 -62 -47 -85 -66 -31 -26 -62 -38 -125
-52 -90 -20 -201 -25 -262 -12 l-38 8 20 -28 c62 -87 161 -160 258 -190 45
-14 90 -18 194 -17 136 0 184 10 324 69 19 8 19 8 3 -15 -23 -33 -21 -57 4
-70 16 -9 35 -7 87 8 37 11 82 23 100 27 104 21 267 -166 280 -322 11 -139
-58 -363 -126 -412 -16 -11 -59 -32 -97 -47 l-69 -28 32 -13 c18 -7 32 -16 32
-21 -1 -12 -80 -67 -163 -112 l-77 -42 27 -51 c15 -27 40 -63 55 -80 16 -16
28 -32 28 -37 0 -17 -140 -201 -196 -256 -74 -73 -203 -142 -281 -151 -46 -5
-107 4 -158 23 -16 7 -17 1 -13 -63 3 -39 12 -84 21 -101 15 -31 15 -32 -19
-53 -19 -11 -34 -24 -34 -28 0 -29 36 -118 55 -137 l23 -23 -45 -112 c-24 -61
-52 -146 -60 -188 -9 -42 -20 -80 -24 -84 -10 -12 -179 9 -269 34 -185 50
-295 145 -320 277 -5 28 -6 69 -2 92 l7 42 75 22 c115 33 196 81 281 166 85
84 126 150 163 260 106 318 8 682 -292 1078 -217 288 -612 659 -967 908 -371
260 -785 431 -1265 523 -120 22 -427 57 -435 49 -8 -7 86 -224 137 -318 57
-104 123 -206 170 -263 22 -27 38 -50 36 -52 -2 -2 -28 2 -58 10 -204 53 -541
93 -672 81 -73 -7 -78 -9 -78 -31 0 -66 57 -269 98 -350 61 -122 271 -413 351
-488 28 -26 51 -50 51 -52 0 -10 -113 30 -199 71 -171 80 -335 206 -477 364
-37 41 -71 77 -76 78 -4 2 -8 -37 -8 -87 0 -116 18 -172 111 -341 38 -69 69
-129 69 -131 0 -2 -73 -4 -162 -5 -169 0 -248 -10 -358 -46 -64 -20 -160 -68
-160 -79 0 -13 89 -152 151 -234 120 -159 178 -217 374 -370 19 -14 16 -15
-40 -9 -129 14 -320 85 -488 182 -43 24 -81 41 -84 38 -4 -4 -9 -33 -11 -67
-13 -175 82 -359 247 -479 l62 -45 -63 -18 c-228 -65 -400 -136 -467 -194
l-33 -28 99 -96 c226 -217 472 -368 723 -444 l85 -25 -315 4 c-279 5 -412 13
-487 31 -32 7 -30 -9 12 -93 66 -131 200 -230 371 -271 117 -29 288 -53 381
-55 45 0 79 -4 75 -7 -4 -4 -81 -57 -172 -119 -503 -344 -685 -529 -698 -709
l-4 -58 113 -11 c311 -32 394 -28 944 44 l50 7 -35 -38 c-64 -68 -210 -187
-323 -262 -183 -122 -542 -289 -697 -325 -28 -6 -50 -15 -50 -20 0 -18 88 -93
137 -115 68 -31 172 -53 258 -53 195 0 473 74 697 186 49 24 88 41 88 39 0 -3
-50 -104 -110 -226 -318 -634 -460 -1037 -460 -1303 0 -104 17 -153 63 -174
24 -12 36 -11 79 3 91 30 282 145 413 250 239 191 649 589 878 853 59 68 107
121 107 118 0 -10 -112 -301 -168 -437 -120 -288 -249 -547 -347 -694 -114
-171 -303 -388 -456 -525 l-89 -80 27 -12 c16 -6 69 -13 119 -16 185 -9 348
64 528 237 95 92 179 198 278 351 88 137 229 380 289 503 24 48 46 87 49 87 3
0 2 -51 -1 -112 -17 -291 -21 -660 -10 -837 13 -186 50 -461 71 -516 39 -102
104 -83 225 67 250 312 568 897 735 1353 l48 130 7 -50 c12 -74 -2 -326 -24
-450 -23 -129 -37 -170 -125 -369 -36 -82 -66 -151 -66 -154 0 -13 122 7 163
27 102 49 224 194 292 347 36 79 104 263 151 404 l38 115 68 58 c122 104 255
273 327 416 18 35 33 61 35 60 1 -2 -1 -62 -5 -134 -7 -138 -22 -199 -79 -318
-45 -93 -98 -157 -175 -210 -39 -26 -92 -62 -119 -81 l-48 -34 38 -41 c20 -23
51 -49 67 -58 l29 -15 -70 -64 c-39 -35 -81 -81 -93 -101 l-22 -36 33 -27 33
-27 -69 -59 c-39 -32 -106 -88 -151 -124 -45 -36 -82 -67 -82 -70 0 -3 21 -20
46 -39 l47 -34 -50 -44 c-27 -23 -73 -57 -101 -75 -93 -57 -83 -81 60 -149
l92 -44 151 0 151 0 -44 -58 c-25 -32 -87 -103 -139 -158 -96 -103 -156 -201
-170 -277 -4 -20 -11 -42 -16 -49 -11 -13 -65 -34 -151 -58 -66 -18 -132 -71
-154 -122 -17 -42 -17 -43 10 -43 12 0 29 -4 37 -10 22 -14 -33 -77 -105 -120
-70 -41 -135 -101 -135 -123 0 -10 13 -17 40 -22 53 -9 58 -21 24 -57 -36 -37
-92 -70 -166 -98 -32 -12 -65 -31 -73 -43 -15 -21 -14 -22 16 -30 39 -10 81
-36 74 -47 -3 -4 -36 -26 -75 -50 l-71 -42 -182 17 c-240 22 -434 29 -477 18
-33 -9 -37 -7 -80 37 -102 104 -259 136 -392 78 -52 -22 -125 -94 -156 -154
-12 -21 -43 -60 -71 -86 -100 -96 -130 -221 -81 -336 43 -99 186 -200 227
-160 13 13 14 22 4 49 -24 69 -9 129 44 179 25 24 31 25 125 21 119 -4 189 14
245 62 l38 33 110 -17 c60 -10 111 -19 113 -21 2 -2 -51 -35 -117 -72 -83 -46
-126 -65 -139 -61 -51 16 -238 -51 -308 -110 -49 -41 -64 -79 -69 -174 -3 -54
-12 -104 -25 -136 -43 -105 -3 -221 115 -331 88 -81 209 -134 308 -134 78 0
90 26 36 79 -47 44 -76 107 -83 177 -8 80 4 107 54 122 55 17 118 100 145 193
3 10 58 36 141 67 74 29 138 52 140 52 3 0 -20 -36 -50 -79 -44 -64 -60 -81
-87 -86 -99 -21 -205 -141 -223 -253 -6 -38 -3 -44 38 -89 73 -80 81 -98 75
-165 -7 -79 7 -121 56 -175 91 -98 304 -160 381 -110 25 17 86 100 86 118 0 4
-24 15 -53 23 -30 9 -66 25 -81 37 -26 21 -27 25 -21 83 4 33 18 84 32 112 29
61 39 142 25 202 -10 42 -9 44 23 65 19 12 44 40 56 62 13 22 84 105 158 185
l135 145 66 6 c36 4 99 7 141 8 95 1 103 -7 100 -90 -3 -72 23 -133 75 -178
50 -45 46 -73 -21 -151 -31 -35 -54 -69 -52 -74 6 -20 86 -57 135 -63 60 -7
151 17 206 55 48 33 86 108 86 170 0 39 5 49 45 88 62 60 87 121 87 209 0 147
-75 265 -168 265 -15 0 -46 9 -69 20 -23 11 -70 23 -106 26 -76 7 -115 20
-124 41 -10 28 23 117 66 178 23 33 85 110 139 170 101 114 349 415 629 763
90 111 165 202 167 202 2 0 46 -32 96 -71 112 -84 239 -149 300 -152 48 -2 47
-5 29 88 -5 28 -10 86 -10 130 l-1 80 50 0 c81 0 85 8 87 193 3 272 27 421 93
589 46 118 75 160 176 267 l92 96 10 -41 c10 -39 9 -43 -17 -65 l-28 -23 -6
-173 c-8 -261 -35 -387 -138 -646 -62 -156 -101 -232 -140 -276 -17 -20 -28
-40 -25 -45 20 -32 211 -45 285 -18 l43 15 -6 -51 c-13 -95 -47 -211 -86 -293
-45 -93 -104 -153 -204 -208 -86 -48 -135 -59 -260 -58 -121 2 -140 -5 -125
-44 8 -22 7 -25 -10 -19 -14 4 -23 0 -31 -15 -10 -18 -7 -38 15 -108 71 -227
161 -312 347 -327 47 -4 96 -1 138 9 36 7 66 13 67 12 10 -9 -87 -145 -150
-212 -105 -111 -186 -154 -291 -154 -94 0 -139 14 -187 57 -78 71 -95 141 -75
304 8 64 8 66 -19 87 -38 30 -77 28 -144 -8 -132 -71 -277 -224 -322 -340 -30
-76 -36 -197 -15 -280 33 -130 115 -257 202 -311 l35 -21 -28 -15 c-68 -35
-137 -122 -166 -207 -21 -63 -22 -199 -2 -285 69 -291 360 -435 728 -360 280
57 637 264 772 448 17 22 32 41 35 41 3 0 6 -96 8 -213 4 -324 24 -485 79
-662 73 -230 162 -303 275 -223 62 43 135 256 158 458 7 55 10 214 8 375 l-3
280 85 -85 c223 -225 607 -390 904 -390 211 1 394 87 485 229 49 76 72 155 78
268 5 88 3 112 -16 170 -27 82 -76 153 -137 196 l-45 32 25 18 c68 49 147 195
172 317 28 139 7 259 -65 363 -91 134 -285 277 -374 277 -82 0 -106 -39 -81
-133 54 -209 -63 -358 -272 -345 -105 7 -169 41 -274 147 -70 70 -160 185
-160 203 0 3 33 -2 73 -10 58 -12 86 -13 145 -3 181 28 262 109 322 324 26 94
24 131 -8 135 -18 3 -21 8 -16 28 9 35 -24 44 -116 31 -171 -22 -367 62 -460
198 -55 80 -130 293 -130 371 0 21 2 21 38 8 50 -18 145 -17 216 1 32 9 62 18
67 21 5 3 -10 28 -33 57 -44 55 -141 250 -201 403 -67 172 -106 375 -107 558
0 98 0 99 -33 130 -31 29 -32 34 -25 72 l9 41 106 -105 c98 -97 109 -112 159
-217 86 -177 120 -339 133 -624 8 -177 12 -185 92 -179 l47 3 6 -63 c6 -57 2
-131 -10 -190 -4 -20 -1 -22 33 -22 89 1 228 71 334 168 l57 52 158 -182 c167
-192 564 -637 733 -821 168 -183 210 -307 104 -307 -55 0 -131 -21 -168 -46
-20 -13 -50 -24 -68 -24 -74 0 -129 -64 -153 -181 -25 -120 4 -219 87 -293 42
-38 49 -49 49 -83 0 -57 42 -137 87 -167 52 -34 155 -60 212 -52 24 3 64 18
88 31 l43 26 -36 37 c-87 88 -96 141 -35 208 51 54 76 133 62 193 -14 63 4 71
164 71 l131 0 154 -158 c85 -88 166 -174 179 -191 13 -18 33 -37 45 -42 19 -9
21 -18 21 -107 0 -87 3 -102 27 -146 16 -27 33 -78 40 -114 12 -64 12 -65 -15
-88 -15 -13 -51 -31 -81 -40 l-55 -17 16 -31 c20 -41 52 -75 85 -92 97 -51
343 52 405 170 8 15 15 50 16 76 2 37 9 54 34 84 56 63 68 94 68 176 0 62 -5
84 -28 128 -15 29 -45 70 -65 90 -40 40 -118 82 -152 82 -13 0 -39 25 -75 73
-30 41 -55 76 -55 80 0 3 63 -15 139 -41 l139 -46 22 -52 c30 -73 89 -137 139
-152 22 -7 43 -17 47 -23 3 -6 6 -40 6 -78 1 -68 -24 -144 -58 -182 -14 -16
-14 -19 8 -30 13 -8 56 -13 103 -13 98 0 145 21 222 101 74 78 113 159 113
237 -1 34 -7 72 -15 86 -8 14 -14 52 -15 89 0 86 -16 134 -63 187 -66 75 -215
137 -320 133 -48 -2 -64 4 -172 61 l-119 64 112 23 112 24 33 -24 c17 -14 47
-32 66 -42 44 -22 176 -31 235 -16 42 10 49 9 74 -9 45 -33 66 -78 66 -136
l-1 -51 36 4 c139 17 202 84 203 218 0 87 -33 155 -111 228 -33 30 -66 67 -74
83 -28 52 -84 109 -138 139 -49 27 -63 30 -144 30 -64 0 -103 -5 -134 -18 -63
-26 -124 -70 -151 -110 -22 -31 -26 -34 -54 -26 -53 15 -147 10 -373 -21 -282
-39 -289 -39 -374 7 -38 21 -69 41 -69 45 0 12 62 48 83 48 48 0 -12 53 -86
75 -62 18 -123 54 -161 94 l-29 30 27 11 c15 5 36 10 46 10 10 0 21 4 25 10
10 16 -62 86 -122 118 -32 17 -78 51 -102 75 -41 43 -42 46 -23 56 11 6 28 11
36 11 24 0 19 22 -14 68 -35 49 -82 75 -176 98 -108 27 -120 35 -139 101 -26
91 -59 139 -194 278 -70 72 -137 145 -150 164 l-24 33 79 -6 c121 -11 214 6
312 57 98 50 131 80 116 105 -6 9 -35 32 -64 49 -29 18 -74 51 -99 73 l-46 40
44 39 43 38 -118 88 c-66 48 -135 103 -155 120 l-37 33 29 29 c27 27 28 30 13
51 -8 12 -55 49 -104 82 -49 33 -91 64 -94 69 -4 6 13 18 37 29 39 17 107 87
107 108 0 5 -48 38 -106 73 -59 35 -122 80 -141 99 -86 85 -163 248 -189 396
-7 45 -29 134 -48 199 -18 64 -31 117 -27 117 3 0 32 -51 63 -113 92 -181 217
-338 377 -471 l76 -64 54 -143 c156 -418 278 -609 443 -687 66 -32 144 -48
166 -34 10 7 -7 48 -68 173 -128 260 -158 385 -166 679 l-5 175 24 -60 c133
-340 374 -785 600 -1110 218 -314 347 -444 406 -408 61 36 86 242 85 683 0
298 -7 420 -40 790 l-6 65 69 -120 c334 -577 558 -841 818 -965 98 -47 167
-63 265 -64 70 0 165 18 175 34 2 3 -52 55 -121 115 -207 179 -415 422 -534
621 -121 203 -282 531 -402 819 -27 66 -52 125 -54 131 -3 6 116 -109 263
-256 392 -389 722 -663 960 -797 280 -157 353 -147 353 48 0 219 -88 478 -326
959 -61 124 -154 302 -207 397 -54 94 -97 174 -97 177 0 2 37 -13 83 -34 196
-91 425 -148 627 -157 205 -8 336 31 432 129 58 60 64 53 -74 86 -196 47 -529
200 -728 333 -111 75 -280 213 -280 228 0 4 26 4 58 0 118 -16 448 -39 561
-39 115 0 328 20 429 41 48 10 52 12 52 39 0 81 -81 222 -178 311 -110 101
-355 274 -607 429 -66 40 -123 76 -127 79 -4 3 24 7 62 8 140 4 394 61 508
114 132 61 247 191 278 313 7 27 6 29 -20 22 -101 -25 -368 -50 -651 -61
l-150 -5 86 29 c155 53 320 145 484 270 76 58 305 282 305 298 0 21 -99 80
-198 118 -91 35 -309 95 -344 95 -10 0 -18 2 -18 4 0 3 25 28 55 57 30 28 72
77 92 107 68 103 123 280 123 398 l0 54 -72 -47 c-107 -68 -299 -159 -387
-181 -90 -24 -151 -33 -150 -24 0 4 87 64 192 135 225 149 322 227 365 293 41
62 44 119 6 163 -33 40 -148 96 -249 122 -96 24 -306 35 -415 21 -41 -5 -76
-9 -77 -8 -2 1 29 66 67 145 85 173 100 223 99 320 -1 123 -6 126 -76 40 -92
-113 -241 -250 -350 -322 -96 -64 -233 -132 -291 -143 -29 -6 -27 -3 27 53 99
102 312 440 351 559 24 72 60 242 60 285 0 27 -3 29 -39 29 -96 0 -250 -38
-576 -143 -257 -82 -274 -76 -172 60 110 149 202 325 278 535 l29 78 -26 0
c-92 0 -428 -64 -604 -115 -579 -168 -1003 -427 -1514 -925 -306 -299 -501
-551 -631 -815 -77 -155 -109 -249 -130 -376 -20 -125 -19 -204 5 -319 37
-183 136 -337 278 -434 65 -45 214 -106 258 -106 35 0 46 -24 46 -99 0 -84
-23 -141 -82 -204 -82 -90 -296 -168 -469 -171 l-86 -1 -6 55 c-8 67 -23 105
-78 189 -22 35 -41 72 -41 81 0 10 21 30 48 47 27 17 62 47 77 68 l29 37 -49
47 c-75 70 -134 141 -162 194 -38 75 -64 191 -65 287 -1 100 12 134 62 167 65
41 92 66 107 99 18 36 24 23 -62 145 -14 20 -31 63 -37 96 -12 63 -11 72 43
418 27 181 30 418 5 560 -19 114 -74 285 -114 360 l-27 50 33 55 c50 84 75
176 70 265 -2 40 -6 76 -9 79 -2 3 -25 -2 -49 -10 -51 -18 -215 -32 -208 -18
2 5 19 41 38 79 32 65 35 77 35 163 0 109 -5 116 -80 107 -98 -11 -100 -11
-95 5 2 8 7 60 10 115 5 100 5 100 44 143 22 23 59 55 83 70 24 15 43 30 43
33 0 4 -9 18 -20 32 -11 14 -20 33 -20 43 0 27 68 217 121 341 55 125 58 147
28 164 -66 35 -309 -49 -384 -131 -11 -12 -31 -20 -48 -20 -25 0 -42 -12 -83
-57 -62 -67 -64 -66 -120 35 -46 82 -171 210 -274 279 -66 44 -133 83 -142 83
-2 0 -32 -19 -67 -42z m951 -11083 c229 -156 479 -233 665 -205 41 7 111 22
156 35 45 13 83 22 85 20 12 -12 -54 -122 -100 -168 -79 -78 -133 -100 -250
-105 -116 -5 -198 16 -295 75 -129 79 -300 260 -365 388 l-31 60 34 -27 c19
-15 64 -48 101 -73z m-1238 -72 c-91 -134 -241 -292 -324 -340 -215 -125 -461
-59 -599 161 -39 62 -39 71 -1 51 100 -52 315 -62 470 -22 167 43 376 146 482
237 23 21 45 36 47 34 3 -2 -31 -57 -75 -121z"/>
</g>
</svg>
