<?xml version="1.0" standalone="no"?>
<!DOCTYPE svg PUBLIC "-//W3C//DTD SVG 20010904//EN"
 "http://www.w3.org/TR/2001/REC-SVG-20010904/DTD/svg10.dtd">
<svg version="1.0" xmlns="http://www.w3.org/2000/svg"
 width="1280.000000pt" height="1202.000000pt" viewBox="0 0 1280.000000 1202.000000"
 preserveAspectRatio="xMidYMid meet">
<metadata>
Created by potrace 1.15, written by Peter Selinger 2001-2017
</metadata>
<g transform="translate(0.000000,1202.000000) scale(0.100000,-0.100000)"
fill="#000000" stroke="none">
<path d="M6955 12013 c-16 -1 -104 -10 -195 -19 -91 -8 -217 -24 -280 -36 -98
-17 -178 -21 -545 -28 -390 -7 -438 -10 -520 -29 -66 -16 -145 -25 -295 -31
-346 -16 -450 -27 -755 -81 -33 -6 -129 -33 -213 -60 -111 -36 -181 -52 -255
-60 -123 -12 -197 -30 -340 -80 -62 -22 -152 -45 -215 -54 -158 -24 -227 -44
-290 -84 -63 -41 -174 -99 -363 -190 -408 -195 -748 -529 -1002 -983 -36 -64
-88 -145 -117 -180 -28 -35 -70 -101 -92 -148 -22 -47 -63 -119 -91 -160 -58
-87 -252 -284 -349 -355 -60 -43 -67 -51 -62 -74 8 -33 24 -50 51 -54 12 -2
25 -5 27 -8 10 -10 -17 -99 -60 -193 -30 -66 -52 -131 -64 -198 -27 -140 -58
-235 -161 -501 -108 -276 -136 -373 -151 -532 -12 -126 -38 -227 -121 -471
-42 -122 -46 -144 -56 -290 -6 -88 -18 -181 -26 -207 -13 -43 -13 -51 0 -71
13 -20 13 -28 2 -55 -10 -23 -12 -46 -6 -74 15 -77 9 -268 -11 -407 -12 -74
-29 -193 -39 -265 -27 -185 -69 -290 -147 -360 -30 -28 -37 -45 -78 -210 l-46
-180 30 -27 c45 -42 81 -38 114 12 14 22 29 40 32 40 3 0 3 -3 1 -7 -3 -5 -19
-151 -37 -325 l-33 -317 28 -37 c30 -39 30 -39 61 12 8 14 18 -22 49 -175 33
-173 37 -204 32 -300 -5 -116 -16 -159 -105 -446 -93 -297 -101 -352 -92 -650
2 -86 -2 -131 -19 -207 -26 -113 -76 -246 -121 -319 -21 -35 -30 -59 -26 -75
8 -30 41 -40 71 -20 13 9 91 111 174 228 82 117 176 239 209 271 l59 59 22
-30 c73 -103 116 -258 108 -392 -7 -113 -26 -162 -117 -302 -43 -65 -82 -130
-88 -145 -13 -31 -122 -466 -122 -483 0 -25 113 86 137 134 14 28 33 60 43 71
9 11 24 33 31 50 8 16 52 62 99 102 53 46 88 84 92 101 11 40 86 107 136 121
28 8 60 28 88 56 24 25 44 39 44 32 0 -6 -9 -46 -20 -87 -24 -91 -24 -87 -2
-93 9 -2 24 -8 34 -12 13 -5 28 17 78 114 35 67 66 121 70 121 18 0 81 -84
130 -174 l53 -98 -18 -148 c-10 -86 -16 -182 -13 -229 4 -72 10 -92 48 -167
24 -46 47 -81 50 -77 4 5 17 58 29 118 43 214 87 343 165 485 76 137 78 144
85 304 6 134 9 148 20 121 7 -16 15 -59 17 -95 3 -36 18 -105 34 -155 40 -129
40 -129 30 -273 -11 -151 -20 -186 -106 -412 -77 -202 -99 -304 -90 -408 4
-42 13 -90 20 -107 12 -28 17 -31 50 -27 25 3 36 9 36 21 0 27 58 243 86 322
61 173 169 338 268 411 50 37 58 52 92 155 12 39 30 82 38 95 11 17 18 73 25
213 10 192 29 295 67 381 l18 39 7 -90 c4 -49 10 -103 13 -118 3 -15 1 -49 -4
-75 -5 -26 -11 -120 -12 -209 l-4 -163 30 -10 c16 -5 30 -10 31 -10 1 0 62
142 136 315 154 362 135 346 210 175 23 -52 58 -118 76 -146 45 -68 59 -118
73 -261 7 -76 20 -143 37 -188 14 -38 28 -99 32 -135 5 -56 9 -66 32 -79 24
-13 29 -13 54 3 l27 18 -7 231 c-5 191 -4 246 9 311 9 44 20 84 25 89 5 5 19
-15 35 -49 14 -31 33 -62 40 -68 10 -7 23 -78 40 -213 l26 -202 -59 -138 c-86
-205 -94 -249 -72 -428 15 -122 30 -185 45 -185 27 0 55 13 61 28 4 10 11 67
15 127 10 130 37 214 111 354 79 149 112 191 195 256 42 33 87 73 99 90 12 16
37 81 56 144 34 113 35 115 109 192 42 43 87 80 102 84 19 5 51 -1 101 -20
l73 -26 91 -183 c69 -138 106 -200 152 -253 59 -68 62 -70 116 -76 108 -11
207 -70 447 -265 68 -55 153 -108 275 -175 98 -53 185 -99 194 -102 11 -4 25
7 44 35 15 22 26 42 24 44 -2 2 -27 15 -56 30 -135 67 -240 190 -342 401 -99
203 -146 335 -146 412 0 98 11 97 111 -12 l89 -96 7 108 c7 129 29 193 98 296
82 122 117 149 291 225 86 38 177 85 204 105 26 21 50 35 52 33 3 -2 -1 -39
-8 -81 -12 -74 -15 -81 -74 -149 -103 -118 -206 -281 -235 -370 -7 -21 -28
-52 -46 -68 -47 -42 -102 -158 -112 -238 -18 -136 4 -195 62 -169 21 10 33 37
76 163 l51 151 63 33 c47 24 101 70 212 181 82 82 168 158 190 169 l41 21 17
-82 c9 -45 44 -151 77 -235 53 -132 65 -153 87 -159 49 -12 54 1 56 147 1 119
5 142 26 195 15 35 31 60 40 60 24 0 77 -120 114 -255 79 -291 106 -400 106
-423 0 -19 6 -26 30 -30 l29 -6 3 -108 3 -108 105 -11 c120 -12 147 -22 352
-128 93 -48 159 -76 179 -76 25 0 52 -17 124 -75 69 -56 100 -75 122 -75 32 0
63 26 63 54 0 29 -106 243 -164 330 -30 44 -72 96 -94 114 -40 31 -85 42 -97
22 -13 -21 -24 -8 -69 80 -46 88 -80 179 -71 189 3 2 15 -5 28 -17 29 -27 64
-28 92 -2 20 19 21 19 80 1 33 -10 120 -26 193 -35 138 -17 201 -28 245 -45
15 -6 98 -76 187 -156 l160 -146 34 12 c33 12 36 11 157 -72 145 -99 183 -145
195 -235 3 -30 19 -96 34 -146 21 -72 25 -97 17 -118 -9 -24 -4 -36 54 -118
75 -106 125 -141 201 -140 37 1 55 -5 88 -30 38 -27 174 -177 197 -215 10 -17
255 -199 260 -193 10 9 -41 172 -82 265 -48 109 -75 202 -75 264 0 33 3 37 26
37 20 0 46 -20 108 -85 85 -90 148 -130 178 -114 28 15 37 11 89 -38 31 -29
80 -97 131 -182 89 -148 162 -234 212 -250 40 -13 395 -91 414 -91 8 0 26 13
40 28 15 15 43 40 63 55 40 30 43 61 9 92 -16 15 -24 15 -57 4 -21 -7 -72 -13
-113 -13 -65 0 -83 4 -129 29 -114 63 -188 159 -287 376 -93 203 -120 245
-214 339 -76 76 -89 95 -123 175 -20 50 -37 105 -37 123 0 18 20 87 45 154 55
146 70 236 49 286 -26 63 -36 158 -24 243 18 131 32 153 118 183 36 13 41 12
177 -49 134 -60 140 -62 148 -43 4 12 9 19 12 16 3 -2 19 -49 36 -104 42 -131
48 -255 21 -404 -11 -58 -17 -108 -13 -111 3 -4 20 -10 36 -13 l30 -6 55 166
c38 116 61 172 77 183 14 10 43 74 84 187 l63 170 49 -23 c27 -13 51 -22 54
-19 3 2 -14 66 -36 140 -23 75 -41 148 -41 163 0 14 18 120 40 235 23 115 38
217 35 227 -3 11 3 25 16 37 37 33 68 97 112 232 l43 131 -92 163 c-85 148
-101 170 -174 236 -56 50 -88 72 -106 72 -42 0 -144 60 -217 129 -81 77 -167
201 -167 241 0 19 -13 44 -40 75 -126 146 -189 298 -174 425 l6 58 -132 133
-133 134 -31 102 c-28 93 -31 109 -25 200 5 91 3 100 -17 123 -12 14 -33 50
-47 81 -17 38 -40 69 -77 100 -29 24 -74 72 -101 105 l-49 62 6 60 c6 51 4 62
-13 79 -11 11 -27 23 -34 25 -11 4 -11 10 -3 28 7 15 8 40 3 65 -5 22 -22 115
-40 207 -27 143 -34 168 -51 174 -16 5 -19 12 -14 35 3 15 -6 108 -19 205 -14
98 -25 179 -25 181 0 1 15 3 33 3 55 0 214 29 388 70 233 55 345 72 479 70
118 -1 994 14 1380 25 118 3 253 10 300 15 127 14 147 8 175 -54 40 -88 127
-516 140 -686 4 -47 2 -112 -3 -145 -9 -53 -8 -64 10 -94 15 -27 18 -45 13
-78 -3 -24 -3 -43 0 -43 15 0 218 172 296 251 289 292 517 676 751 1259 125
313 139 548 47 825 -110 334 -533 940 -896 1285 -102 97 -139 121 -463 293
-260 139 -784 366 -1185 513 -71 26 -135 53 -141 61 -6 7 -15 41 -18 75 -8 69
-27 122 -55 153 -11 11 -36 54 -56 95 -90 181 -216 371 -375 564 -110 133
-144 156 -451 305 -102 49 -226 117 -275 149 -186 123 -213 133 -433 168 -181
28 -234 30 -297 8 -55 -19 -87 -15 -246 32 -65 19 -122 34 -128 34 -5 0 -39
20 -76 44 -133 90 -326 137 -544 134 -63 0 -128 -3 -145 -5z m2803 -9823 c22
-10 30 -24 46 -76 6 -18 3 -21 -18 -17 -41 8 -88 66 -96 119 l-7 48 26 -31
c14 -17 36 -36 49 -43z"/>
</g>
</svg>
