<?xml version="1.0" standalone="no"?>
<!DOCTYPE svg PUBLIC "-//W3C//DTD SVG 20010904//EN"
 "http://www.w3.org/TR/2001/REC-SVG-20010904/DTD/svg10.dtd">
<svg version="1.0" xmlns="http://www.w3.org/2000/svg"
 width="1280.000000pt" height="1156.000000pt" viewBox="0 0 1280.000000 1156.000000"
 preserveAspectRatio="xMidYMid meet">
<metadata>
Created by potrace 1.15, written by Peter Selinger 2001-2017
</metadata>
<g transform="translate(0.000000,1156.000000) scale(0.100000,-0.100000)"
fill="#000000" stroke="none">
<path d="M11539 11541 c-152 -60 -259 -201 -246 -327 5 -45 -4 -100 -43 -278
-58 -264 -120 -577 -120 -605 0 -35 -55 -21 -91 23 -17 21 -17 21 -24 -9 -42
-197 -167 -386 -338 -512 -71 -52 -146 -92 -244 -128 -94 -36 -360 -101 -466
-115 -200 -25 -340 -92 -472 -225 -115 -115 -182 -232 -300 -520 -96 -233
-112 -288 -121 -420 -11 -155 24 -264 111 -344 70 -64 161 -98 318 -116 51 -6
64 -12 97 -47 59 -60 83 -134 78 -238 -6 -108 -33 -173 -98 -234 -83 -77 -179
-92 -318 -49 -47 15 -59 25 -102 83 -104 140 -216 220 -311 220 -33 0 -67 -10
-117 -36 -71 -35 -86 -49 -264 -248 l-37 -41 -1 192 0 193 -506 2 -506 3 -22
61 c-13 34 -32 78 -44 98 -21 36 -22 36 -2 56 28 28 38 25 80 -19 l38 -40 5
29 c28 136 16 303 -30 417 -13 35 -21 67 -18 73 8 13 61 13 87 -1 11 -6 29
-31 40 -56 11 -24 21 -43 23 -41 9 9 -17 271 -36 363 -11 55 -35 136 -54 180
l-34 80 54 -57 54 -58 41 133 c63 200 127 315 223 404 82 76 80 75 198 57 209
-32 378 -5 589 96 148 70 183 80 274 80 61 0 67 2 56 16 -22 26 -93 62 -145
74 -67 15 -222 13 -320 -4 -44 -8 -82 -12 -84 -10 -2 2 32 21 75 41 75 36 84
38 174 37 83 -1 111 -6 220 -42 69 -23 154 -48 190 -56 84 -20 239 -20 315 0
108 27 268 127 311 191 l17 26 -36 -22 c-64 -39 -179 -61 -323 -62 -145 0
-263 15 -524 67 -290 57 -405 56 -538 -6 -35 -17 -66 -30 -69 -30 -4 0 82 126
102 148 10 11 30 9 112 -7 167 -34 298 -25 403 29 19 10 65 40 102 68 38 28
87 55 113 61 126 32 237 -74 222 -214 -7 -65 1 -69 59 -27 102 75 176 196 193
316 36 255 -138 416 -448 416 -53 0 -110 -4 -127 -9 -30 -8 -31 -7 -42 34 -15
58 -53 100 -110 122 -55 21 -226 24 -522 9 -201 -10 -261 -2 -353 47 -95 50
-141 122 -153 241 -8 78 -18 82 -81 37 -52 -37 -91 -89 -104 -135 -9 -32 -12
-35 -30 -25 -33 17 -59 70 -59 119 l0 44 -56 -54 c-30 -30 -64 -72 -75 -92
-21 -40 -25 -120 -9 -162 5 -15 6 -26 1 -26 -27 0 -46 18 -66 63 l-24 50 -31
-49 c-57 -91 -63 -178 -16 -247 28 -41 50 -103 41 -116 -10 -17 -75 -24 -101
-12 -13 6 -32 27 -41 47 l-18 36 -12 -49 c-26 -100 -16 -140 65 -259 17 -26
32 -54 32 -61 0 -7 -44 -35 -97 -62 -121 -62 -200 -123 -260 -204 -46 -63
-120 -204 -111 -213 3 -2 33 12 68 32 64 39 160 58 174 36 3 -6 -36 -40 -87
-75 -163 -114 -290 -270 -347 -426 -28 -76 -54 -190 -45 -199 2 -2 21 9 42 26
61 48 106 66 147 58 19 -4 38 -11 41 -17 4 -5 -25 -40 -63 -77 -38 -37 -87
-92 -109 -122 -43 -58 -113 -186 -113 -207 0 -27 -18 -11 -34 30 -28 75 -117
199 -202 284 l-83 82 35 11 c50 17 89 6 151 -41 30 -22 56 -39 59 -37 8 9 -18
124 -46 201 -58 157 -197 324 -363 436 -43 28 -75 56 -72 61 4 6 27 10 52 10
35 0 64 -10 121 -41 87 -48 87 -46 18 85 -73 139 -187 241 -348 314 -38 17
-68 36 -68 42 0 18 37 85 56 101 48 39 65 131 41 222 l-12 49 -18 -36 c-23
-49 -55 -63 -108 -47 -37 11 -40 15 -34 39 3 15 12 38 19 52 8 14 21 39 30 57
38 72 30 141 -25 228 l-31 49 -15 -34 c-8 -19 -24 -45 -35 -57 -26 -28 -54
-31 -42 -5 4 9 10 42 12 73 5 72 -19 121 -91 190 l-52 50 -5 -48 c-7 -56 -22
-88 -50 -103 -26 -14 -36 -7 -43 30 -7 34 -77 114 -118 136 -45 23 -59 18 -59
-19 0 -52 -27 -144 -56 -187 -31 -47 -96 -92 -168 -117 -59 -21 -192 -23 -521
-9 -174 8 -207 7 -257 -8 -73 -21 -114 -56 -135 -115 l-16 -48 -126 5 c-238 8
-377 -53 -451 -198 -66 -130 -31 -326 81 -453 41 -47 118 -107 138 -107 6 0 8
19 4 50 -12 102 43 197 128 220 69 19 131 -2 231 -77 145 -111 276 -126 554
-68 30 7 34 4 87 -72 30 -43 54 -79 53 -81 -2 -1 -29 11 -62 27 -122 60 -266
65 -504 16 -243 -50 -357 -66 -505 -72 -176 -7 -265 5 -355 48 l-61 29 23 -30
c58 -74 217 -166 326 -189 130 -27 292 -5 507 69 124 43 220 50 311 22 38 -12
83 -31 99 -43 l30 -21 -45 6 c-195 25 -235 27 -302 16 -84 -13 -157 -42 -189
-76 l-22 -24 74 0 c93 0 132 -11 243 -67 153 -77 257 -108 396 -118 76 -6 129
-2 290 21 45 6 46 6 117 -60 113 -105 167 -202 237 -428 l37 -118 52 59 c29
32 53 58 55 56 2 -2 -8 -25 -21 -52 -49 -96 -83 -251 -97 -443 -5 -68 -7 -126
-5 -128 2 -2 11 13 20 34 23 55 43 74 81 74 62 0 65 -5 38 -65 -50 -108 -66
-293 -38 -433 l6 -31 38 41 c40 41 65 46 83 16 8 -12 3 -32 -21 -85 -17 -37
-34 -80 -37 -95 l-7 -28 -544 0 -544 0 0 -154 0 -155 -92 93 c-113 113 -165
141 -258 141 -44 0 -77 -6 -104 -19 -51 -26 -149 -118 -206 -194 -48 -65 -76
-82 -172 -101 -193 -40 -348 103 -348 320 0 127 71 251 150 262 151 22 193 32
253 59 83 39 146 103 178 184 20 50 23 76 23 174 0 63 -6 142 -13 175 -15 70
-132 366 -201 510 -161 334 -369 493 -695 530 -79 9 -246 48 -367 85 -202 63
-322 134 -445 263 -115 123 -187 255 -218 402 l-7 30 -18 -22 c-17 -21 -58
-43 -81 -43 -5 0 -9 9 -9 20 0 27 -49 276 -115 585 -42 196 -52 262 -48 307 7
75 -26 148 -101 224 -177 177 -424 144 -521 -69 -50 -108 -60 -176 -59 -402 1
-216 14 -327 64 -559 19 -83 21 -127 5 -74 -4 13 -40 91 -80 173 -109 226
-173 287 -305 289 -157 3 -271 -112 -301 -304 -36 -234 77 -630 296 -1031 31
-56 70 -129 87 -163 l30 -61 -128 126 c-123 121 -172 156 -239 174 -69 18
-115 0 -177 -70 -49 -55 -69 -98 -75 -161 -19 -183 128 -464 393 -751 47 -51
83 -93 80 -93 -3 0 -46 14 -97 31 -64 21 -113 31 -164 32 -40 1 -71 6 -68 10
8 14 -60 -24 -85 -46 -35 -33 -55 -114 -42 -173 23 -102 123 -244 246 -350 72
-62 193 -154 211 -161 26 -10 12 -19 -53 -31 -131 -25 -252 -100 -295 -183
-25 -51 -25 -127 2 -183 73 -156 290 -285 618 -367 l43 -10 -91 -45 c-122 -60
-208 -140 -257 -239 -34 -68 -36 -79 -33 -148 4 -60 9 -82 32 -116 35 -52 101
-95 192 -124 62 -19 90 -22 250 -21 151 1 202 5 316 27 75 15 145 30 155 33
12 5 15 4 9 -3 -5 -5 -102 -52 -213 -103 -190 -87 -207 -98 -253 -149 -92
-104 -126 -213 -85 -276 48 -73 189 -119 366 -119 l105 1 175 71 c96 39 235
96 309 126 74 31 136 54 138 52 2 -2 -35 -59 -83 -127 -128 -182 -157 -256
-143 -367 19 -145 171 -226 356 -188 150 30 199 63 430 282 114 109 225 214
247 233 40 37 32 26 -193 -284 l-73 -100 4 -100 c5 -116 22 -162 76 -203 31
-24 44 -27 106 -26 84 2 135 19 236 80 l75 46 184 264 c101 146 185 264 187
262 2 -2 -6 -32 -16 -67 -56 -177 -78 -399 -51 -498 6 -23 23 -56 37 -73 22
-25 33 -30 70 -30 26 0 62 9 86 21 51 26 179 154 233 233 46 67 45 68 69 -65
20 -111 50 -189 91 -236 30 -35 37 -38 83 -38 41 0 59 6 96 32 26 18 48 33 50
33 11 0 30 -116 29 -181 -1 -138 -64 -231 -198 -295 -38 -19 -107 -41 -153
-50 l-82 -17 -88 40 c-80 38 -173 73 -312 120 -77 25 -263 25 -340 0 -186 -62
-370 -246 -548 -546 -32 -56 -80 -119 -117 -155 -71 -69 -99 -118 -120 -208
-47 -198 34 -453 196 -619 26 -27 51 -49 56 -49 5 0 16 22 26 50 32 91 78 129
185 154 l60 14 59 -87 c94 -137 102 -171 57 -254 -31 -60 -43 -165 -24 -223
19 -57 72 -126 137 -174 31 -24 54 -37 51 -29 -24 63 -68 214 -68 235 0 15 13
38 32 57 l32 32 12 -67 c15 -81 43 -146 86 -200 30 -38 102 -98 118 -98 4 0 1
35 -7 78 -14 78 -11 145 8 201 11 33 29 42 29 16 0 -28 38 -92 72 -120 44 -37
99 -61 178 -76 36 -6 69 -15 73 -19 12 -10 -15 -59 -50 -92 -15 -14 -143 -91
-283 -170 l-255 -144 -174 9 c-199 9 -262 26 -322 86 -54 54 -73 152 -50 254
12 52 -47 294 -83 342 -48 62 -119 68 -243 19 l-61 -25 -69 52 c-163 124 -293
141 -353 44 -26 -43 -25 -47 8 -29 38 20 91 17 132 -7 34 -20 50 -36 111 -111
l30 -37 -44 -19 c-128 -56 -143 -213 -31 -312 48 -42 92 -60 147 -60 86 0 183
-108 134 -148 -25 -21 -92 -23 -182 -7 -224 39 -339 29 -401 -37 -44 -46 -58
-97 -51 -183 l5 -72 -41 -20 c-71 -35 -143 -98 -167 -148 -28 -59 -24 -118 15
-200 l28 -60 12 66 c26 134 87 204 197 224 31 6 42 2 87 -32 56 -43 130 -73
176 -73 71 1 158 66 220 165 54 85 175 120 250 71 39 -26 42 -60 9 -112 -32
-51 -53 -65 -134 -89 -71 -22 -182 -87 -231 -136 -130 -130 -85 -262 103 -299
32 -6 56 -15 53 -20 -3 -5 -6 -52 -6 -104 0 -83 3 -102 23 -138 30 -55 86 -86
169 -94 l64 -7 -31 34 c-67 72 -80 135 -41 204 l23 40 109 6 c78 4 120 10 145
23 89 46 108 92 109 268 l1 78 71 36 c39 19 72 34 74 32 1 -2 19 -37 41 -78
99 -192 248 -263 449 -215 56 13 67 12 175 -11 131 -29 179 -55 205 -110 20
-43 16 -114 -10 -163 -22 -44 -3 -38 39 11 61 71 70 140 33 249 -16 48 -20 75
-15 105 13 74 9 167 -10 203 -36 71 -46 74 -282 76 -135 1 -214 5 -221 12 -8
8 -4 25 11 61 17 40 32 57 69 78 188 110 883 559 957 620 l42 33 7 145 7 146
-62 107 c-35 60 -65 113 -69 118 -6 12 76 -53 84 -66 4 -5 12 -9 20 -9 10 0
11 9 4 38 -5 20 -9 69 -9 107 l0 70 38 -60 c32 -50 72 -85 98 -85 3 0 -7 15
-22 32 -68 81 -81 169 -39 260 14 29 25 68 25 86 0 70 59 22 90 -73 12 -38 27
-74 32 -80 15 -16 65 48 141 181 l69 119 231 -2 c128 -2 441 -4 697 -6 271 -2
474 -7 486 -12 20 -10 20 -12 7 -125 -39 -347 -161 -586 -372 -729 -32 -22
-150 -83 -262 -136 -323 -152 -412 -208 -563 -354 -163 -157 -272 -405 -206
-471 38 -38 113 -22 318 68 50 22 92 37 91 34 0 -4 -27 -29 -60 -57 -66 -54
-151 -147 -218 -236 -43 -59 -131 -207 -131 -222 0 -5 21 19 47 54 70 97 210
236 285 286 55 35 134 73 154 73 2 0 -10 -22 -26 -49 -47 -76 -97 -191 -116
-264 -14 -57 -15 -79 -5 -144 13 -90 30 -113 81 -113 37 0 128 47 180 93 14
13 35 31 48 42 l23 19 -21 -54 c-12 -30 -48 -111 -80 -180 -31 -69 -70 -163
-85 -210 -16 -47 -41 -116 -57 -154 -15 -38 -27 -70 -26 -71 2 -2 90 112 197
252 106 140 194 253 196 251 1 -2 -2 -34 -7 -73 -15 -107 -5 -280 19 -340 11
-27 26 -68 33 -90 28 -91 83 -108 166 -52 27 17 66 55 89 83 33 42 98 94 117
94 3 0 -6 -51 -18 -112 -13 -62 -24 -142 -24 -178 0 -36 -9 -121 -19 -189 -13
-87 -14 -119 -6 -108 7 9 70 129 141 267 71 137 131 250 134 250 3 0 11 -51
18 -114 32 -304 128 -514 267 -581 162 -80 286 58 381 424 13 52 29 137 36
189 10 84 13 92 25 76 8 -11 73 -133 145 -272 72 -139 132 -251 133 -250 2 2
-4 43 -11 93 -8 50 -19 148 -24 220 -5 72 -18 166 -29 210 -11 44 -18 82 -16
84 9 9 74 -43 119 -94 127 -148 224 -155 262 -18 7 26 22 73 33 103 22 60 27
221 12 330 -5 30 -7 56 -6 58 1 1 89 -112 196 -252 107 -140 195 -253 196
-252 2 1 -14 45 -36 97 -21 53 -48 126 -61 165 -13 38 -39 103 -58 144 -54
117 -112 253 -109 256 1 1 29 -20 62 -47 110 -92 201 -122 239 -80 27 30 41
151 26 219 -16 70 -65 188 -113 270 -35 59 -36 63 -15 57 115 -35 289 -179
403 -334 33 -44 61 -78 63 -76 7 7 -68 138 -124 215 -61 84 -161 192 -243 263
-30 25 -52 49 -49 52 3 3 47 -17 99 -44 164 -86 267 -110 318 -75 22 16 23 22
18 78 -8 82 -54 190 -120 278 -61 81 -137 159 -137 139 0 -7 -19 3 -42 22
-118 96 -361 242 -613 370 -75 38 -158 89 -196 122 -181 149 -285 388 -317
722 -7 77 -7 82 13 87 11 3 306 6 655 6 349 0 651 4 670 9 19 4 45 11 57 15
19 6 29 -7 94 -121 77 -134 128 -201 147 -189 6 3 20 38 32 76 30 96 90 144
90 72 0 -15 12 -52 26 -82 22 -46 25 -65 21 -116 -5 -62 -20 -97 -66 -146 -19
-21 -21 -28 -9 -28 26 0 65 37 97 93 l31 52 0 -70 c0 -38 -4 -87 -9 -107 -5
-20 -6 -39 -4 -42 3 -3 30 15 59 41 30 25 54 43 54 40 0 -3 -30 -55 -66 -116
l-66 -112 7 -149 8 -149 86 -60 c152 -106 501 -332 734 -476 220 -136 227
-141 248 -189 15 -35 18 -51 9 -60 -7 -7 -81 -11 -215 -13 -221 -2 -242 -6
-279 -56 -24 -32 -33 -140 -19 -217 7 -34 5 -56 -9 -91 -42 -112 -32 -202 29
-270 43 -47 60 -51 36 -6 -10 19 -17 55 -17 92 -1 103 42 139 219 179 104 23
113 23 165 10 85 -23 212 -14 276 19 65 33 131 106 180 201 l39 74 71 -33 71
-32 5 -119 c6 -133 17 -168 70 -207 49 -36 97 -48 200 -50 l92 -2 23 -40 c39
-69 29 -126 -33 -194 l-36 -41 38 0 c51 0 112 18 147 42 49 35 68 89 68 187 0
49 -3 95 -7 104 -4 12 3 17 33 22 103 18 165 54 190 113 47 112 -112 273 -329
336 -91 26 -150 115 -114 171 29 45 128 54 197 19 27 -13 49 -37 119 -130 43
-57 122 -104 175 -104 50 0 116 27 174 71 53 40 54 41 100 29 102 -25 158 -90
184 -215 l15 -70 27 60 c60 127 40 212 -69 292 -34 25 -75 52 -93 61 l-31 15
5 73 c10 123 -32 195 -130 228 -59 20 -113 20 -242 0 -215 -32 -267 -27 -273
26 -4 38 89 127 121 114 28 -10 121 24 165 62 77 66 102 154 65 231 -18 39
-85 93 -115 93 -10 0 -18 3 -18 8 0 14 123 143 151 157 36 19 70 19 114 1 43
-18 44 -7 5 38 -74 84 -179 67 -348 -59 l-64 -46 -66 26 c-83 33 -165 38 -205
11 -40 -27 -63 -79 -96 -216 -22 -93 -26 -129 -20 -163 22 -115 5 -195 -56
-253 -61 -59 -110 -72 -315 -83 l-175 -9 -255 145 c-140 79 -268 156 -283 171
-31 29 -62 81 -53 89 3 3 35 11 71 19 36 8 89 24 116 35 60 26 126 97 135 145
8 43 20 43 33 2 23 -77 21 -184 -5 -271 -5 -17 -3 -17 16 -7 39 21 110 92 135
135 31 53 54 117 63 180 l8 50 33 -33 c31 -30 33 -37 28 -77 -4 -24 -20 -83
-37 -131 -16 -48 -29 -89 -27 -90 9 -10 123 95 154 143 37 54 38 60 38 142 0
74 -4 93 -27 138 -47 88 -40 121 56 266 l51 78 49 -5 c103 -11 173 -68 207
-168 l17 -50 60 60 c105 105 178 253 203 412 27 175 -27 338 -144 434 -24 19
-56 59 -72 88 -49 92 -172 270 -243 354 -184 214 -404 302 -627 250 -76 -19
-316 -106 -386 -141 -62 -32 -107 -30 -228 11 -181 61 -265 165 -265 329 1 73
20 175 34 175 4 0 13 -7 21 -16 21 -26 86 -54 125 -54 76 0 139 103 170 275
26 142 19 136 71 64 113 -157 261 -270 332 -254 82 18 121 141 100 320 -11 91
-48 266 -69 319 -6 16 -9 30 -7 33 2 2 88 -117 191 -265 169 -242 192 -272
241 -301 273 -166 444 -100 433 167 l-3 87 -124 170 c-69 94 -136 186 -150
205 -29 40 29 -13 294 -266 223 -212 310 -258 485 -258 174 1 270 84 271 237
1 91 -29 157 -140 316 -51 73 -92 134 -90 136 2 1 140 -52 305 -120 338 -138
376 -147 533 -125 303 42 358 193 150 415 -19 20 -102 64 -243 130 -118 55
-214 101 -212 102 2 2 41 -6 88 -17 277 -66 575 -67 721 -2 57 25 114 76 138
123 31 61 26 158 -11 238 -45 95 -143 187 -259 244 l-90 44 100 26 c347 91
579 270 579 447 0 65 -26 116 -86 168 -50 45 -167 95 -246 107 -27 4 -48 10
-48 14 0 3 30 26 66 50 205 139 372 334 403 472 12 55 -3 132 -32 163 -24 25
-105 77 -94 60 4 -7 -19 -11 -61 -12 -69 -2 -192 -31 -242 -57 -16 -8 -32 -15
-36 -15 -4 0 27 35 67 78 329 344 484 688 391 867 -11 22 -43 63 -72 90 -49
48 -53 50 -108 50 -87 0 -145 -36 -291 -178 l-124 -122 58 110 c114 215 172
331 204 410 163 391 201 688 110 873 -75 154 -258 215 -387 128 -68 -46 -113
-112 -194 -288 -40 -86 -74 -156 -75 -154 -2 1 6 43 17 92 51 236 63 342 64
559 0 233 -10 296 -64 411 -69 144 -228 211 -371 155z m-5209 -3211 c0 -11 -2
-20 -4 -20 -2 0 -6 9 -9 20 -3 11 -1 20 4 20 5 0 9 -9 9 -20z m150 -1 c0 -11
-4 -17 -10 -14 -5 3 -10 13 -10 21 0 8 5 14 10 14 6 0 10 -9 10 -21z m-50 -84
c0 -15 2 -17 9 -6 5 7 11 9 14 4 6 -10 -45 -253 -53 -253 -10 0 -62 249 -54
261 4 8 9 7 15 -2 7 -11 9 -11 9 2 0 8 5 20 11 26 16 16 49 -6 49 -32z m2904
-5480 c-1 -42 -37 -125 -54 -125 -17 0 -15 130 1 194 l11 40 21 -35 c14 -21
22 -49 21 -74z m-5806 8 c9 -66 4 -143 -9 -143 -11 0 -45 67 -53 107 -5 23 -1
46 14 80 25 57 36 48 48 -44z"/>
</g>
</svg>
