<?xml version="1.0" standalone="no"?>
<!DOCTYPE svg PUBLIC "-//W3C//DTD SVG 20010904//EN"
 "http://www.w3.org/TR/2001/REC-SVG-20010904/DTD/svg10.dtd">
<svg version="1.0" xmlns="http://www.w3.org/2000/svg"
 width="723.000000pt" height="1280.000000pt" viewBox="0 0 723.000000 1280.000000"
 preserveAspectRatio="xMidYMid meet">
<metadata>
Created by potrace 1.15, written by Peter Selinger 2001-2017
</metadata>
<g transform="translate(0.000000,1280.000000) scale(0.100000,-0.100000)"
fill="#000000" stroke="none">
<path d="M858 12620 c-184 -370 -280 -763 -347 -1419 -11 -106 -22 -195 -24
-198 -8 -7 -67 191 -87 292 -24 116 -37 406 -34 704 1 106 -2 189 -6 185 -10
-11 -63 -218 -84 -333 -36 -192 -66 -568 -66 -833 0 -108 7 -161 45 -364 43
-228 54 -334 36 -362 -11 -18 -19 -6 -69 94 -48 96 -82 192 -82 232 0 16 -10
42 -22 57 l-22 28 -8 -29 c-14 -48 -9 -248 8 -357 10 -64 41 -179 84 -307 74
-221 95 -308 110 -452 12 -118 13 -171 1 -166 -6 2 -62 52 -127 113 l-117 109
5 -59 c8 -108 121 -329 287 -564 40 -56 70 -105 67 -109 -12 -12 -61 15 -169
92 -108 76 -149 95 -176 77 -11 -7 -5 -30 34 -122 96 -231 179 -370 289 -486
36 -39 66 -73 66 -77 0 -15 -87 -3 -250 34 -96 22 -181 40 -187 40 -7 0 -13
-9 -13 -19 0 -14 34 -38 128 -90 198 -109 311 -153 437 -169 59 -7 60 -7 63
-41 7 -67 -43 -149 -115 -189 -17 -10 -17 -11 1 -31 17 -19 32 -21 190 -23
l171 -3 14 -30 c8 -16 25 -43 38 -58 27 -34 31 -102 8 -147 -19 -36 -94 -95
-142 -111 -44 -14 -141 -7 -236 17 -104 26 -105 8 -2 -62 l87 -59 -81 -3 c-45
-2 -81 -6 -81 -9 0 -13 40 -36 176 -103 125 -62 149 -78 203 -135 58 -62 82
-105 161 -282 13 -29 27 -53 32 -53 4 0 8 41 8 90 0 103 2 105 72 61 71 -45
104 -100 167 -285 48 -138 103 -247 140 -279 15 -12 30 -28 35 -35 5 -8 -19
-51 -64 -118 -88 -129 -120 -197 -127 -271 -6 -68 -5 -67 68 42 l54 80 3 -39
c2 -22 -7 -74 -22 -120 -38 -124 -38 -141 5 -150 17 -3 44 -20 61 -36 17 -17
36 -29 42 -27 19 7 62 96 91 184 30 95 65 137 126 153 51 14 99 9 112 -11 7
-12 1 -27 -26 -62 -20 -26 -40 -64 -44 -85 -4 -20 -8 -147 -8 -282 0 -236 1
-247 23 -297 30 -64 59 -94 72 -73 6 8 10 21 10 28 0 20 17 14 35 -14 22 -34
31 -25 70 67 17 39 35 70 40 68 6 -2 33 -67 61 -146 48 -134 74 -183 97 -183
18 0 -2 227 -29 340 -14 58 -28 151 -31 207 l-6 102 57 16 c54 16 57 16 83 -3
89 -64 128 -138 167 -318 63 -285 82 -341 131 -387 27 -25 101 -51 117 -41 4
3 8 22 8 42 1 36 5 49 50 162 12 30 25 73 29 94 3 22 12 41 18 43 15 5 264
-237 393 -382 356 -399 549 -721 646 -1080 110 -407 108 -929 -5 -1366 -126
-484 -394 -930 -836 -1388 -393 -407 -960 -804 -1275 -895 -143 -41 -234 -46
-775 -46 -311 0 -505 -4 -500 -9 23 -22 218 -112 304 -140 176 -58 267 -62
551 -25 355 46 727 195 1169 469 196 122 400 295 666 566 454 463 795 932 960
1319 159 373 237 803 222 1225 -18 465 -125 788 -414 1247 -138 220 -242 367
-402 566 -124 154 -132 171 -81 172 8 0 30 9 48 20 47 29 62 16 107 -87 21
-48 43 -94 48 -101 20 -25 60 -9 91 37 28 42 30 43 71 39 26 -3 161 -62 361
-157 175 -84 340 -157 366 -162 56 -12 83 -6 71 15 -8 15 -37 31 -230 130 -56
29 -133 78 -170 109 -80 65 -193 180 -193 196 0 22 34 25 143 12 138 -15 205
-31 397 -93 256 -83 298 -89 595 -94 143 -2 256 -2 250 1 -5 2 -147 41 -315
85 -339 91 -416 118 -606 213 -128 64 -175 97 -140 97 25 0 129 -37 271 -98
166 -70 239 -91 347 -99 83 -6 90 -5 125 19 35 24 50 26 188 32 352 16 646 48
820 91 l90 22 -100 6 c-55 4 -163 12 -240 18 -235 17 -681 88 -645 102 8 3
164 20 345 37 262 25 336 35 360 50 17 10 125 46 240 80 116 33 234 72 263 85
130 59 547 320 712 445 126 96 208 196 181 223 -18 18 -56 -2 -164 -86 -390
-304 -780 -424 -1517 -468 -832 -49 -1752 175 -2420 589 -389 242 -725 591
-869 904 -39 86 -92 252 -110 348 -15 81 -35 460 -27 506 20 104 189 175 341
144 116 -23 206 -93 261 -201 35 -70 108 -295 124 -384 14 -71 31 -98 56 -88
8 3 20 3 28 0 12 -5 11 -14 -5 -57 -28 -73 -28 -74 42 -67 40 5 82 18 127 42
152 80 189 95 261 105 41 6 76 8 79 6 2 -3 0 -18 -6 -34 -9 -28 -8 -31 26 -53
24 -16 42 -38 52 -66 8 -23 18 -44 21 -47 3 -3 39 6 80 21 67 23 84 25 180 21
119 -6 185 -29 251 -86 80 -71 208 -95 273 -52 17 11 45 30 63 41 17 12 32 24
32 28 0 14 -76 79 -115 99 -22 11 -70 26 -105 33 -36 7 -84 20 -107 30 -50 21
-125 87 -117 101 10 15 134 2 224 -23 114 -32 212 -83 280 -145 l60 -56 0 116
c0 93 -3 116 -14 116 -30 0 -467 344 -688 542 -63 57 -179 160 -258 231 -78
70 -188 163 -244 206 -213 165 -512 355 -549 349 -24 -4 94 -119 413 -404 124
-111 261 -236 305 -278 l80 -77 -85 4 c-52 3 -108 12 -144 25 -74 27 -234 127
-457 287 -304 218 -481 285 -753 285 -159 0 -247 -18 -363 -75 -105 -52 -197
-134 -264 -237 -51 -78 -142 -268 -199 -413 -24 -60 -50 -118 -58 -127 -25
-30 -53 -21 -109 36 -61 64 -134 206 -181 357 -31 96 -90 383 -137 669 -14 85
-34 191 -44 235 -10 44 -22 112 -26 150 -4 39 -16 97 -26 130 -36 112 -60 772
-39 1075 26 398 113 906 241 1414 18 71 29 137 27 165 l-3 46 -87 -175z m3237
-4201 c11 -34 -8 -44 -55 -30 -61 18 -54 51 11 51 29 0 39 -5 44 -21z"/>
</g>
</svg>
