<?xml version="1.0" standalone="no"?>
<!DOCTYPE svg PUBLIC "-//W3C//DTD SVG 20010904//EN"
 "http://www.w3.org/TR/2001/REC-SVG-20010904/DTD/svg10.dtd">
<svg version="1.0" xmlns="http://www.w3.org/2000/svg"
 width="1270.000000pt" height="1280.000000pt" viewBox="0 0 1270.000000 1280.000000"
 preserveAspectRatio="xMidYMid meet">
<metadata>
Created by potrace 1.15, written by Peter Selinger 2001-2017
</metadata>
<g transform="translate(0.000000,1280.000000) scale(0.100000,-0.100000)"
fill="#000000" stroke="none">
<path d="M6837 12778 c-3 -13 -7 -105 -8 -205 l-1 -181 -34 -69 c-41 -86 -109
-161 -227 -254 -50 -41 -157 -128 -236 -194 -78 -66 -159 -133 -180 -150 -183
-149 -564 -517 -817 -790 -81 -88 -200 -216 -263 -284 -64 -69 -237 -247 -386
-396 -314 -316 -443 -435 -719 -663 -56 -46 -119 -98 -141 -117 -22 -18 -119
-95 -215 -171 -96 -75 -196 -154 -222 -175 -25 -22 -58 -43 -73 -49 -20 -8
-25 -15 -20 -30 5 -16 2 -20 -18 -20 -13 0 -41 -15 -63 -33 -37 -31 -173 -135
-217 -167 -35 -24 -420 -307 -447 -328 -90 -69 -353 -236 -443 -281 l-108 -54
-92 11 c-51 7 -186 17 -302 22 -224 11 -426 31 -565 56 -47 9 -143 22 -215 29
-71 8 -170 21 -220 29 -107 18 -161 20 -170 6 -16 -25 7 -36 365 -182 14 -6
41 -19 60 -28 46 -23 114 -37 227 -45 l92 -8 155 -99 155 -99 -20 -20 c-11
-11 -19 -28 -17 -37 3 -14 15 -17 73 -15 l69 1 130 -87 c72 -48 176 -115 231
-150 55 -34 107 -66 115 -71 24 -16 161 -81 204 -96 53 -19 148 -17 231 5 39
11 174 47 300 80 l230 61 23 -27 c76 -91 257 -333 311 -417 193 -299 269 -559
197 -679 -26 -44 -92 -113 -161 -169 -23 -18 -59 -51 -80 -73 -36 -36 -38 -40
-20 -43 12 -2 81 26 155 61 314 149 278 141 645 142 165 0 352 -3 415 -7 130
-8 414 -48 565 -79 55 -11 134 -26 175 -34 41 -7 107 -20 145 -28 152 -33 231
-49 250 -53 90 -15 281 -65 370 -96 61 -21 155 -66 155 -75 0 -2 -93 -95 -207
-207 -128 -126 -204 -207 -199 -214 4 -7 1 -12 -8 -12 -9 0 -28 -14 -43 -32
-16 -17 -44 -47 -64 -67 -19 -20 -77 -92 -127 -161 -51 -69 -136 -183 -190
-253 -53 -71 -109 -145 -124 -165 -35 -49 -148 -236 -148 -246 0 -5 -13 -25
-29 -45 -35 -43 -127 -195 -166 -271 -37 -72 -109 -192 -146 -243 -16 -22 -29
-48 -29 -59 0 -10 -4 -18 -9 -18 -5 0 -36 -44 -70 -97 -33 -54 -81 -120 -107
-148 -25 -27 -51 -57 -57 -65 -12 -15 -201 -194 -229 -216 -8 -6 -25 -17 -37
-24 -13 -6 -50 -34 -83 -60 -33 -27 -124 -81 -202 -121 -77 -39 -148 -77 -156
-84 -21 -17 -178 -81 -219 -90 -18 -4 -89 -25 -158 -46 -99 -31 -159 -43 -291
-56 -187 -20 -401 -22 -507 -4 -38 6 -93 13 -120 16 -118 10 -410 99 -555 167
-119 57 -342 191 -425 257 -97 76 -277 253 -338 331 -28 36 -67 83 -88 105
-103 112 -272 463 -334 695 -38 145 -44 169 -61 265 -25 144 -30 487 -10 625
24 166 79 405 125 545 114 350 362 722 611 919 89 70 157 114 300 192 66 37
127 76 135 88 20 28 19 100 -1 120 -18 19 -9 19 -116 1 -111 -18 -270 -71
-393 -131 -92 -45 -268 -155 -310 -194 -11 -10 -42 -38 -70 -62 -109 -92 -258
-246 -297 -305 -22 -35 -44 -63 -48 -63 -26 0 -219 -314 -271 -440 -17 -41
-37 -88 -44 -105 -116 -260 -191 -531 -245 -885 -21 -138 -24 -430 -6 -610 17
-173 22 -203 63 -390 31 -140 43 -180 101 -340 74 -207 135 -334 267 -559 47
-79 186 -274 215 -301 3 -3 40 -46 82 -96 78 -93 197 -206 348 -331 128 -106
221 -171 375 -264 422 -256 888 -413 1358 -460 141 -14 686 -7 792 11 39 6 84
13 100 15 17 1 57 8 90 15 33 6 80 16 105 20 25 5 65 14 90 20 25 6 63 15 86
20 22 5 51 13 65 18 13 6 44 16 69 22 249 70 507 181 841 363 191 104 465 309
684 511 200 184 266 246 385 361 75 72 171 163 215 204 l79 74 155 -53 c178
-60 191 -66 191 -83 0 -7 14 -39 30 -72 16 -33 30 -65 30 -72 0 -6 -16 -21
-35 -33 -75 -46 -158 -170 -185 -275 -8 -29 -14 -119 -15 -215 -3 -216 -24
-312 -85 -390 -34 -43 -127 -100 -164 -100 -37 0 -78 -18 -108 -48 -33 -31
-37 -78 -12 -144 9 -24 22 -59 29 -78 7 -19 23 -62 35 -95 12 -33 28 -73 35
-90 42 -96 85 -314 85 -428 1 -171 27 -310 67 -358 8 -10 16 -53 20 -105 5
-83 33 -174 53 -174 16 0 70 -135 70 -177 0 -25 21 -45 37 -35 20 12 43 121
43 199 0 40 3 73 6 73 3 0 30 -15 60 -32 44 -27 53 -38 54 -60 0 -32 23 -38
40 -10 9 15 11 15 20 1 5 -9 25 -39 45 -68 40 -61 39 -57 20 -94 -18 -35 -7
-96 24 -138 27 -36 27 -98 1 -167 -29 -77 -24 -83 26 -28 57 62 70 87 84 166
7 36 21 88 32 115 23 60 48 174 48 220 0 27 -13 48 -66 109 -41 47 -77 79 -98
86 -31 10 -96 64 -96 80 0 4 -18 29 -40 56 -58 70 -79 143 -92 319 -13 169 1
452 26 523 48 135 206 396 337 555 14 17 323 -91 448 -157 44 -23 116 -61 162
-85 46 -24 98 -53 114 -66 58 -43 126 -67 170 -59 51 9 84 13 163 20 57 5 67
3 102 -21 22 -15 46 -25 54 -22 8 3 45 -14 83 -38 70 -46 93 -54 93 -33 0 20
-124 210 -147 225 -23 15 -22 15 47 84 38 38 73 76 78 85 5 9 30 20 56 25 44
8 50 7 86 -22 26 -21 54 -33 91 -38 54 -7 88 -26 178 -99 52 -43 54 -25 9 65
-24 47 -59 90 -125 154 -50 49 -89 90 -85 93 4 2 21 7 39 10 27 6 34 3 48 -17
9 -14 33 -33 53 -43 32 -15 44 -15 98 -5 76 16 106 3 176 -71 65 -71 77 -58
31 31 -44 86 -79 118 -225 207 l-102 63 -119 -5 c-125 -5 -139 -9 -200 -57
-30 -23 -43 -28 -65 -22 -30 7 -115 19 -232 30 -41 4 -80 12 -86 16 -6 5 -49
14 -95 20 -152 18 -566 203 -542 242 4 7 18 28 30 47 13 19 29 44 36 54 6 10
22 31 35 46 12 15 22 30 22 33 0 2 73 79 163 170 180 183 207 223 207 310 0
47 -4 59 -31 88 -16 18 -36 47 -43 64 -8 18 -24 42 -36 53 -13 12 -28 30 -34
41 -6 11 -39 64 -72 118 -34 54 -73 125 -87 158 -76 180 -120 292 -120 310 0
11 6 76 13 144 6 68 10 139 7 157 -5 31 -1 36 65 91 39 32 129 106 199 166
l128 108 133 15 c73 8 265 35 427 60 l294 45 186 -94 c199 -100 369 -189 466
-242 63 -35 268 -117 322 -129 17 -4 57 -3 87 3 31 6 63 8 71 5 8 -3 24 -33
37 -67 13 -35 38 -76 59 -96 19 -20 49 -56 66 -81 38 -55 80 -96 90 -86 4 4
-1 44 -11 89 -9 45 -22 102 -27 127 -5 25 -18 57 -29 71 -10 15 -22 38 -25 52
-6 23 -3 25 42 31 43 6 131 28 173 44 23 8 42 13 73 19 22 4 27 2 27 -15 0
-12 22 -44 48 -71 27 -28 57 -71 68 -96 10 -25 22 -45 26 -45 8 0 15 26 21 75
3 30 3 30 24 -15 11 -25 23 -71 27 -102 5 -37 12 -58 20 -58 25 0 36 174 15
240 -6 19 -19 70 -29 113 -16 69 -16 78 -3 75 10 -2 17 -17 19 -38 4 -37 42
-77 78 -82 30 -4 64 -62 71 -124 4 -29 11 -54 15 -54 4 0 13 27 19 59 14 71 7
106 -44 228 -38 89 -40 92 -99 125 -65 37 -118 58 -146 58 -10 0 -34 -12 -55
-26 -30 -20 -43 -24 -59 -16 -14 6 -52 4 -116 -7 -115 -21 -482 -24 -515 -4
-11 6 -44 21 -72 32 -81 33 -215 132 -199 148 13 14 129 2 165 -16 20 -10 61
-21 91 -25 30 -4 81 -14 114 -22 74 -19 89 -8 54 38 -14 18 -45 44 -68 58 -23
14 -57 37 -75 52 -17 15 -53 37 -79 48 l-47 20 59 55 c33 30 65 68 72 85 7 16
14 30 16 30 2 0 26 -5 53 -11 35 -7 61 -21 84 -44 19 -19 52 -38 77 -45 73
-20 121 -43 163 -77 47 -39 72 -44 61 -10 -15 50 -59 116 -119 177 -35 36 -66
76 -70 90 -4 14 -27 51 -51 83 l-44 57 28 0 c21 0 30 -7 39 -29 15 -41 52 -62
126 -71 80 -10 104 -26 153 -98 33 -49 39 -54 42 -34 5 30 -23 120 -48 157
-11 17 -64 74 -117 128 -106 106 -124 115 -237 123 -100 7 -104 7 -148 -15
-34 -16 -54 -19 -95 -14 -42 4 -60 1 -94 -16 -23 -12 -63 -30 -90 -40 -26 -10
-74 -41 -106 -68 -66 -57 -141 -87 -253 -103 l-75 -11 -128 124 -128 124 16
51 c11 33 31 64 54 85 152 138 216 266 241 476 6 51 17 106 25 122 8 15 15 36
15 46 0 37 26 119 45 141 54 64 363 353 510 477 169 142 314 216 520 266 164
39 433 15 530 -48 11 -7 25 -13 32 -13 23 0 190 -118 225 -159 20 -23 46 -62
59 -86 23 -43 23 -44 4 -65 -18 -20 -26 -21 -80 -15 -89 10 -124 10 -135 -1
-14 -14 6 -76 41 -132 16 -25 29 -54 29 -65 0 -10 11 -37 23 -60 27 -47 67
-151 67 -171 0 -8 -13 -19 -30 -26 -37 -15 -38 -33 -4 -67 33 -33 67 -106 71
-153 1 -19 7 -78 12 -130 27 -273 31 -321 31 -385 0 -99 -26 -275 -45 -310 -9
-16 -25 -45 -35 -62 -19 -32 -19 -33 0 -43 10 -5 30 -10 45 -10 32 0 105 -32
165 -73 80 -55 157 -37 190 44 7 16 18 29 26 29 19 0 29 21 13 31 -17 10 -13
13 29 25 38 10 44 27 11 32 -16 3 -20 9 -15 25 3 12 6 28 6 35 0 8 17 12 50
12 38 0 48 3 44 14 -3 8 -19 20 -35 26 -30 13 -33 20 -23 58 5 15 14 22 33 23
14 0 35 4 46 8 18 8 17 10 -12 27 -36 21 -39 30 -21 69 8 18 19 25 40 25 32 0
37 15 9 30 -17 8 -18 14 -8 40 6 16 15 30 19 30 9 0 44 -78 70 -155 22 -68 68
-267 68 -299 0 -12 7 -29 14 -39 19 -24 50 -9 63 30 10 29 0 193 -16 273 -17
83 -59 244 -81 314 -21 66 -21 72 -6 119 9 27 16 56 16 63 0 17 22 18 38 2 19
-19 14 -38 -14 -48 -32 -12 -22 -30 16 -30 20 0 31 -6 35 -21 8 -24 -1 -35
-29 -41 -36 -6 -27 -25 16 -34 30 -6 46 -16 55 -34 11 -23 10 -26 -15 -39 -81
-41 -80 -66 3 -57 57 6 65 4 75 -13 17 -32 12 -39 -46 -72 -72 -41 -60 -54 49
-54 70 0 82 -3 85 -17 2 -12 -8 -23 -32 -35 -20 -9 -36 -20 -36 -24 0 -9 38
-19 80 -19 19 0 44 -8 55 -16 20 -15 20 -16 -7 -35 -32 -23 -39 -56 -10 -44
34 14 52 17 68 11 13 -5 14 -9 4 -21 -10 -13 -9 -15 10 -15 12 0 45 -20 73
-45 64 -56 90 -64 125 -38 70 51 169 238 185 348 11 74 10 81 -18 159 -21 60
-28 96 -27 141 2 39 -5 81 -18 119 l-20 58 35 32 c45 43 53 66 64 199 7 82 18
135 40 197 39 107 39 110 -1 104 -42 -7 -64 15 -112 113 -48 96 -104 327 -98
404 3 47 -2 69 -27 127 -17 39 -31 73 -31 77 0 8 -16 44 -63 145 -34 74 -103
180 -117 180 -22 0 -30 -43 -25 -132 3 -51 8 -109 10 -128 l6 -35 -37 45 c-57
68 -127 133 -191 176 -32 21 -92 64 -133 95 -128 97 -328 219 -444 272 -61 27
-118 55 -126 61 -39 29 -263 131 -369 168 -207 71 -574 113 -746 84 -200 -33
-366 -67 -469 -96 -60 -17 -113 -29 -117 -28 -5 2 40 63 99 137 59 74 121 151
137 172 80 100 144 175 159 188 14 11 55 15 184 16 l167 1 70 39 c61 35 81 41
155 46 47 4 117 16 155 28 39 12 162 42 275 67 113 26 221 50 240 55 19 4 64
15 100 23 74 17 344 86 435 111 33 9 80 21 104 26 108 22 122 28 259 109 34
21 40 40 10 40 -38 0 -195 -35 -330 -74 -69 -20 -135 -36 -146 -36 -29 0 -58
40 -70 95 -10 45 -24 172 -36 325 -3 30 -13 133 -22 228 -15 157 -15 176 -1
210 17 42 29 105 31 172 2 67 -20 63 -101 -17 -69 -68 -132 -117 -208 -162
-160 -94 -391 -270 -527 -400 -9 -9 -42 -38 -73 -66 -31 -27 -73 -66 -93 -85
-20 -20 -70 -62 -109 -94 -40 -32 -73 -62 -73 -67 0 -5 -7 -9 -15 -9 -7 0 -18
-6 -22 -13 -11 -19 -271 -220 -376 -292 -163 -111 -158 -110 -350 -112 -185
-2 -216 -8 -283 -59 -24 -19 -46 -34 -49 -34 -8 0 -92 -60 -105 -75 -17 -20
-125 -72 -175 -84 -63 -15 -108 -34 -295 -121 -199 -94 -289 -133 -445 -196
-60 -25 -119 -49 -130 -53 -26 -12 -22 -10 -275 -96 -348 -117 -471 -154 -545
-164 -130 -19 -215 -41 -252 -66 -163 -108 -142 -100 -250 -100 -222 0 -334 5
-328 15 11 18 281 190 410 260 33 18 67 39 75 45 8 7 54 33 101 57 114 60 167
97 206 146 40 50 147 94 285 118 51 9 105 23 121 32 73 42 94 52 115 52 12 0
30 4 40 9 23 13 365 82 427 87 102 7 141 16 185 44 25 15 117 60 205 100 88
40 185 84 215 98 92 43 394 193 405 202 5 4 74 40 152 79 140 71 144 74 217
160 41 48 76 96 78 107 5 29 -30 29 -93 1 -30 -14 -65 -28 -79 -32 -14 -4 -45
-18 -71 -30 -67 -34 -187 -49 -279 -35 -41 6 -101 13 -133 17 -32 3 -60 10
-63 14 -3 5 -14 9 -24 9 -60 0 -278 93 -385 165 -158 104 -370 334 -519 560
-25 39 -54 81 -64 95 -44 60 -213 371 -342 627 -156 312 -208 425 -386 832
-69 156 -131 296 -139 310 -12 23 -52 115 -90 206 -7 17 -25 68 -40 115 -40
123 -83 229 -106 262 -25 34 -55 37 -62 6z m5000 -6430 c-3 -8 -6 -5 -6 6 -1
11 2 17 5 13 3 -3 4 -12 1 -19z"/>
</g>
</svg>
