<?xml version="1.0" standalone="no"?>
<!DOCTYPE svg PUBLIC "-//W3C//DTD SVG 20010904//EN"
 "http://www.w3.org/TR/2001/REC-SVG-20010904/DTD/svg10.dtd">
<svg version="1.0" xmlns="http://www.w3.org/2000/svg"
 width="1244.000000pt" height="1280.000000pt" viewBox="0 0 1244.000000 1280.000000"
 preserveAspectRatio="xMidYMid meet">
<metadata>
Created by potrace 1.15, written by Peter Selinger 2001-2017
</metadata>
<g transform="translate(0.000000,1280.000000) scale(0.100000,-0.100000)"
fill="#000000" stroke="none">
<path d="M3074 12776 c-73 -27 -111 -53 -159 -109 l-36 -42 40 -33 c58 -48
117 -142 147 -235 33 -102 42 -259 25 -443 -11 -125 -10 -135 18 -302 34 -195
42 -213 126 -286 61 -52 60 -66 -3 -66 -25 0 -41 8 -61 29 -22 23 -41 31 -121
45 -174 31 -265 69 -353 146 -59 52 -122 153 -143 229 -16 56 -16 62 -1 79 51
56 62 170 24 242 -31 60 -81 96 -155 115 -84 22 -153 13 -195 -25 -29 -26 -32
-34 -35 -102 -4 -67 -1 -78 25 -123 16 -27 49 -63 73 -80 49 -35 68 -71 94
-189 9 -38 27 -92 40 -121 45 -100 95 -133 364 -245 57 -24 106 -49 109 -57
10 -26 -29 -51 -137 -88 -178 -62 -195 -65 -345 -65 -225 -1 -308 -12 -410
-56 -113 -50 -138 -75 -169 -174 -22 -68 -86 -353 -86 -381 0 -26 52 30 84 90
46 89 87 128 153 147 48 14 58 14 106 0 81 -24 143 -69 315 -231 l159 -150
-66 -8 c-137 -15 -328 -50 -371 -67 -25 -10 -82 -34 -128 -54 -46 -20 -101
-39 -121 -42 -36 -6 -40 -4 -67 37 -54 80 -108 56 -64 -28 51 -96 144 -148
285 -159 84 -7 162 9 312 66 116 44 149 48 193 25 50 -26 41 -56 -45 -145
-125 -128 -228 -166 -330 -121 -58 26 -65 26 -65 4 2 -60 61 -157 120 -198 54
-38 106 -47 191 -35 60 9 76 8 95 -5 30 -19 44 -72 44 -165 0 -158 73 -383
136 -425 19 -12 42 -16 87 -13 l62 3 -1 -75 c-1 -95 -114 -598 -184 -816 -68
-214 -110 -396 -190 -824 -66 -355 -87 -433 -161 -593 -34 -72 -83 -193 -109
-267 l-48 -134 -37 73 c-20 41 -59 97 -86 126 -27 29 -49 61 -49 71 0 11 -33
53 -76 94 -47 47 -113 131 -176 225 -56 83 -132 194 -170 247 -69 98 -141 230
-154 284 -4 16 -38 101 -75 190 -62 147 -69 172 -89 305 -36 247 -46 262 -232
361 -56 29 -114 65 -130 80 -25 24 -28 33 -28 95 0 37 10 140 21 228 20 149
21 174 10 358 -10 175 -9 201 5 228 31 61 44 160 44 344 0 195 -2 187 63 268
39 49 51 125 43 282 -10 225 -28 286 -162 555 -78 157 -136 290 -174 400 -40
115 -63 166 -74 168 -9 2 -39 -8 -66 -22 -27 -14 -54 -26 -60 -26 -5 0 -53
-17 -106 -37 -101 -39 -114 -51 -129 -123 -15 -70 -50 -124 -151 -231 -118
-125 -117 -121 -84 -254 11 -44 29 -141 40 -215 12 -74 30 -191 41 -259 l20
-124 56 -60 c30 -33 64 -81 75 -106 21 -50 108 -356 108 -382 0 -9 15 -36 33
-60 19 -24 39 -60 45 -79 10 -35 26 -401 27 -625 l0 -120 -28 3 c-59 6 -60
-96 -1 -209 19 -37 34 -69 34 -70 0 -2 -37 -3 -82 -1 -123 4 -132 -3 -138
-108 l-5 -85 42 -48 c48 -55 50 -63 57 -236 5 -117 7 -127 34 -165 38 -54 49
-92 57 -205 5 -63 13 -106 27 -132 24 -46 36 -173 20 -217 -15 -44 2 -101 41
-135 l32 -28 3 -611 3 -612 -65 -65 -65 -66 -3 -175 -3 -175 -33 -64 c-51 -96
-72 -194 -72 -329 0 -119 20 -290 45 -378 28 -96 42 -109 343 -290 56 -35 75
-28 164 54 40 37 135 120 210 185 217 186 295 267 304 313 20 97 2 234 -42
330 -20 42 -34 56 -85 85 -109 61 -153 93 -172 126 -14 25 -20 67 -28 208 -5
103 -14 186 -22 200 -6 13 -34 38 -62 57 l-50 33 -7 85 c-5 47 -13 126 -19
175 -6 50 -13 243 -16 430 -4 311 -3 339 11 325 20 -20 116 -394 121 -473 3
-42 12 -68 33 -100 41 -60 182 -302 302 -517 57 -102 126 -216 155 -255 28
-38 107 -150 174 -248 68 -97 132 -182 143 -188 11 -6 67 -60 125 -120 l106
-109 96 0 c53 0 130 -5 171 -10 69 -9 78 -13 110 -48 19 -21 64 -95 100 -163
36 -68 121 -221 189 -339 186 -323 224 -400 286 -580 72 -208 76 -216 177
-336 140 -167 246 -352 282 -491 8 -32 22 -125 31 -208 34 -321 68 -517 98
-553 6 -7 19 -11 29 -9 25 7 56 -33 115 -150 82 -160 101 -218 118 -359 9 -71
23 -149 32 -174 23 -65 12 -107 -51 -187 -65 -83 -71 -95 -106 -198 -15 -45
-44 -106 -63 -134 -20 -28 -38 -60 -42 -70 -3 -10 -29 -29 -58 -42 -46 -21
-71 -24 -222 -27 -108 -2 -186 0 -213 7 -25 7 -68 34 -108 68 -79 67 -131 83
-274 83 -187 0 -310 -61 -310 -152 0 -13 -27 -80 -60 -148 -81 -168 -79 -213
11 -321 71 -85 99 -86 99 -6 0 49 10 42 67 -45 64 -100 133 -135 165 -86 l15
22 28 -22 c37 -29 80 -28 150 4 55 25 64 26 169 21 61 -3 197 -15 301 -26 213
-24 512 -38 568 -27 45 8 61 30 83 116 30 120 76 183 212 291 123 99 316 199
382 199 15 0 80 -16 145 -35 137 -40 154 -37 129 23 -18 45 -124 154 -220 228
-73 56 -84 73 -84 132 0 43 -21 81 -78 145 -35 39 -53 71 -71 126 -24 72 -24
74 -5 87 43 30 44 33 44 144 0 147 -13 232 -71 457 -56 222 -82 355 -71 380 4
10 20 37 36 61 25 36 30 56 35 129 l6 86 58 -70 c83 -101 86 -103 80 -46 -6
52 -47 227 -87 365 -19 63 -38 105 -70 148 -29 40 -47 75 -51 103 -4 23 -10
213 -14 422 -7 355 -8 383 -28 427 -12 25 -28 71 -37 102 -9 30 -37 99 -61
152 -28 60 -39 94 -30 91 65 -25 290 -68 540 -102 244 -34 357 -53 700 -120
154 -30 369 -70 477 -90 109 -19 229 -47 267 -60 96 -35 222 -93 245 -113 10
-9 39 -57 63 -107 25 -49 74 -142 108 -205 34 -63 158 -299 275 -525 116 -225
220 -419 229 -430 23 -26 117 -159 214 -303 45 -66 77 -124 77 -138 0 -14 -11
-35 -25 -48 -40 -37 -32 -51 56 -97 44 -23 83 -48 86 -55 3 -7 -14 -39 -37
-71 -45 -63 -45 -59 19 -95 17 -9 36 -29 41 -43 16 -42 12 -292 -5 -360 -22
-84 -59 -129 -259 -317 -140 -132 -186 -170 -218 -179 -25 -6 -115 -9 -237 -7
l-196 4 -78 42 c-116 62 -180 57 -254 -20 -43 -44 -81 -130 -101 -228 -21
-104 -15 -128 93 -349 l85 -173 54 46 c30 25 58 46 63 46 4 0 14 -9 21 -20 15
-24 48 -25 116 -5 54 17 80 13 150 -22 56 -28 73 -25 87 17 6 16 15 30 21 30
5 0 54 -11 109 -25 121 -31 274 -55 349 -55 30 0 142 -12 248 -27 l193 -27 23
25 c13 13 39 60 58 104 50 117 90 174 253 362 167 192 217 240 260 249 16 4
49 24 73 46 55 50 80 60 177 67 74 6 80 8 83 29 3 17 -14 40 -66 92 -78 77
-76 73 -92 250 -6 63 -22 165 -36 225 -43 192 -46 206 -40 212 9 9 132 -65
208 -126 140 -111 243 -235 332 -400 78 -144 209 -314 346 -450 155 -152 213
-195 313 -227 112 -36 287 -46 712 -41 376 4 404 8 540 72 81 39 198 149 295
280 106 143 126 184 165 345 51 209 64 329 71 625 8 298 -2 430 -47 647 -16
78 -43 214 -59 300 -42 219 -80 362 -157 588 -62 183 -176 467 -229 572 -13
25 -32 79 -43 120 -11 40 -45 126 -75 190 -68 145 -76 187 -76 441 0 168 3
209 21 275 57 214 163 370 319 471 181 117 407 128 659 31 165 -64 290 -176
312 -280 14 -65 6 -385 -11 -442 -17 -59 -71 -130 -124 -163 -45 -27 -57 -30
-136 -30 -78 0 -90 3 -121 26 -19 14 -53 36 -76 48 -42 21 -43 23 -43 71 0 81
-12 94 -133 158 -106 54 -111 59 -134 108 -13 28 -32 59 -43 69 -18 17 -22 17
-35 4 -20 -19 -72 -175 -81 -236 -10 -82 9 -128 91 -213 87 -90 95 -104 95
-167 0 -80 5 -82 107 -52 38 12 47 11 85 -8 56 -28 142 -49 251 -63 104 -13
208 -2 305 32 109 38 286 197 343 309 25 51 43 191 36 294 -6 98 -29 162 -104
287 -52 87 -72 108 -198 218 -304 265 -460 336 -760 347 l-151 6 -89 -69 c-50
-37 -146 -103 -215 -146 -69 -42 -134 -84 -145 -91 -27 -19 -229 -320 -254
-379 -11 -26 -32 -98 -47 -160 l-28 -113 62 -315 c35 -173 60 -325 56 -336 -3
-12 4 -52 15 -89 12 -37 24 -99 27 -139 8 -105 22 -160 69 -271 23 -55 48
-118 55 -140 7 -22 25 -65 40 -95 15 -30 33 -73 40 -95 7 -22 30 -80 52 -129
38 -86 94 -279 164 -561 42 -173 52 -228 64 -380 5 -66 23 -194 40 -283 37
-203 37 -242 1 -417 -31 -148 -137 -472 -176 -541 -29 -50 -163 -177 -241
-229 -102 -68 -154 -79 -359 -80 -161 0 -188 2 -254 23 -82 26 -370 166 -441
215 -78 54 -211 189 -237 242 -14 27 -36 64 -49 80 -38 51 -81 155 -105 257
l-23 97 27 118 c41 183 47 225 57 413 11 193 37 342 69 394 28 45 26 83 -9
219 -16 64 -30 129 -30 145 0 27 2 29 38 28 l37 -1 -2 86 c-2 104 -26 246 -57
343 -12 39 -58 154 -101 255 -59 137 -89 195 -120 230 -23 25 -46 57 -50 71
-4 14 -26 45 -50 70 -24 25 -46 55 -50 68 -4 13 -28 51 -54 85 -26 34 -132
188 -236 342 -104 154 -233 345 -287 425 -54 79 -98 154 -98 167 0 23 204 303
221 303 5 0 62 -26 127 -59 144 -72 191 -88 220 -72 11 6 41 53 65 104 71 147
53 141 200 70 143 -70 189 -81 239 -60 45 19 78 63 123 162 20 44 44 88 52 98
20 21 66 22 148 2 71 -17 160 -19 203 -4 24 8 39 27 70 87 22 42 47 102 57
132 10 30 21 59 25 63 4 4 54 -6 111 -23 118 -36 165 -36 299 1 l76 20 13 117
c6 64 14 118 16 120 2 3 30 -6 62 -19 47 -20 75 -24 148 -23 86 1 153 13 185
34 12 7 16 39 18 158 l3 149 119 5 c97 4 124 9 152 26 18 12 54 32 79 46 66
36 83 66 75 134 -4 30 -18 88 -31 129 -14 41 -23 79 -20 84 4 5 23 9 44 9 59
0 203 29 230 47 22 14 23 19 18 84 -3 41 -21 111 -42 171 -49 138 -50 133 10
135 76 4 165 23 205 43 83 43 104 100 71 198 -12 35 -21 87 -21 121 0 68 -1
66 92 99 134 47 240 157 241 250 1 53 -16 89 -68 152 -44 53 -73 107 -77 146
-3 27 2 32 76 70 104 53 156 101 156 142 0 26 -22 54 -142 182 -79 83 -143
155 -143 160 0 4 23 24 50 42 60 42 117 142 176 309 l38 107 -151 83 c-84 46
-160 91 -170 99 -17 14 -18 24 -7 175 12 169 7 362 -11 395 -17 33 -84 60
-191 77 -56 9 -108 23 -115 31 -8 8 -14 34 -14 62 0 57 -34 239 -55 301 -8 23
-32 67 -52 99 -21 32 -46 71 -55 89 -10 18 -25 31 -36 31 -20 0 -77 -57 -152
-153 -56 -71 -74 -71 -104 0 -36 85 -158 284 -201 328 -46 46 -184 121 -206
113 -9 -3 -26 -35 -38 -70 -44 -121 -81 -157 -102 -100 -20 52 -62 102 -136
159 -61 47 -81 56 -115 57 l-42 1 -68 -135 c-37 -74 -69 -139 -71 -145 -2 -5
-24 5 -48 22 -113 84 -247 139 -363 150 -75 7 -77 4 -82 -107 -1 -41 -7 -87
-13 -102 -17 -46 -36 -49 -192 -37 -157 12 -238 6 -269 -19 -23 -20 -28 -71
-16 -178 5 -45 5 -74 -2 -77 -5 -4 -45 -11 -89 -16 -81 -9 -104 -18 -175 -75
l-38 -29 0 -105 c0 -105 0 -105 -39 -167 -47 -73 -71 -149 -71 -221 0 -63 35
-183 56 -191 8 -3 38 -1 67 5 29 6 53 9 55 7 1 -1 7 -39 12 -84 11 -100 33
-151 93 -217 54 -60 93 -81 177 -96 106 -18 115 9 20 57 -102 52 -142 107
-155 217 l-6 57 58 59 c65 67 125 94 245 113 143 22 242 -15 356 -135 77 -82
105 -140 122 -254 13 -88 12 -305 -1 -361 -5 -24 -42 -114 -81 -200 l-72 -156
-160 -160 c-157 -157 -293 -263 -415 -325 -24 -12 -65 -41 -90 -64 -114 -104
-163 -126 -495 -221 -345 -98 -588 -141 -874 -156 -100 -5 -257 -20 -350 -33
-336 -50 -291 -47 -1317 -76 -519 -14 -822 -28 -895 -41 -94 -16 -675 -18
-691 -2 -7 7 -16 36 -20 65 -4 29 -15 85 -24 123 -21 92 -40 716 -39 1260 1
397 8 521 39 655 9 37 19 161 25 290 9 220 19 286 56 390 9 25 25 54 34 65 10
11 23 39 30 63 6 24 18 46 26 49 8 3 22 19 30 35 22 43 10 93 -37 154 -52 67
-53 117 -6 191 51 81 154 210 242 302 67 70 93 90 161 122 138 64 247 86 360
74 54 -6 73 -13 122 -50 31 -23 76 -52 100 -64 81 -41 112 -159 112 -429 0
-200 -14 -373 -46 -577 -76 -489 -77 -494 -78 -690 -1 -171 1 -198 22 -270 45
-156 72 -191 348 -450 61 -57 124 -109 140 -115 36 -14 176 -14 236 -1 73 17
98 28 203 99 55 36 117 77 138 91 22 14 64 60 94 102 87 122 105 118 102 -19
l-2 -96 29 -13 c16 -7 73 -12 128 -13 172 0 224 45 234 205 7 120 0 141 -69
223 -34 40 -60 74 -58 76 2 1 25 10 52 20 33 12 52 27 63 48 8 16 30 38 49 49
19 11 45 39 59 62 24 41 111 124 169 162 22 14 54 19 135 23 59 2 115 9 124
13 25 13 121 136 147 186 12 24 39 70 61 104 50 77 77 146 63 160 -8 8 -36 5
-94 -10 -46 -11 -131 -23 -189 -27 -58 -4 -116 -12 -130 -19 -33 -17 -107 -99
-145 -161 -25 -41 -38 -51 -75 -62 -25 -7 -79 -24 -120 -37 -41 -13 -91 -27
-110 -30 -19 -4 -64 -15 -99 -26 -35 -10 -80 -19 -102 -19 -56 0 -86 -18 -119
-72 -16 -26 -37 -48 -46 -48 -9 0 -37 18 -61 41 -25 22 -65 50 -90 61 -90 40
-210 6 -325 -93 -47 -40 -48 -42 -48 -99 0 -73 9 -98 56 -150 70 -77 187 -116
259 -85 21 8 47 15 58 15 20 0 20 0 -1 -23 -12 -13 -25 -38 -28 -57 -4 -19
-18 -48 -31 -65 -14 -16 -37 -51 -53 -76 -40 -66 -123 -106 -251 -121 -93 -11
-97 -11 -152 15 -102 46 -192 148 -271 305 -33 65 -38 85 -43 170 -7 123 3
201 82 602 90 464 100 542 86 689 -12 133 -66 432 -83 465 -6 11 -32 44 -57
71 -26 28 -62 79 -80 115 -52 100 -138 146 -332 175 -149 23 -211 20 -311 -14
-48 -16 -119 -34 -158 -40 -90 -14 -120 -27 -196 -84 -123 -93 -212 -202 -316
-387 -14 -25 -35 -53 -46 -63 -20 -19 -22 -18 -69 18 -47 36 -50 37 -121 33
-63 -3 -76 -7 -91 -27 -14 -18 -31 -25 -70 -29 -59 -5 -58 -6 -34 82 25 88 25
398 0 513 -16 74 -26 93 -111 220 -96 140 -156 204 -385 412 -100 91 -264 287
-301 361 -23 45 -71 110 -80 109 -3 0 -32 -10 -66 -23z"/>
</g>
</svg>
