<?xml version="1.0" standalone="no"?>
<!DOCTYPE svg PUBLIC "-//W3C//DTD SVG 20010904//EN"
 "http://www.w3.org/TR/2001/REC-SVG-20010904/DTD/svg10.dtd">
<svg version="1.0" xmlns="http://www.w3.org/2000/svg"
 width="698.000000pt" height="1280.000000pt" viewBox="0 0 698.000000 1280.000000"
 preserveAspectRatio="xMidYMid meet">
<metadata>
Created by potrace 1.15, written by Peter Selinger 2001-2017
</metadata>
<g transform="translate(0.000000,1280.000000) scale(0.100000,-0.100000)"
fill="#000000" stroke="none">
<path d="M2829 12786 c-63 -22 -101 -52 -211 -163 -169 -171 -241 -262 -456
-578 l-47 -70 -112 -32 c-336 -98 -564 -254 -717 -491 -106 -163 -200 -461
-240 -762 -9 -63 -36 -272 -62 -465 -67 -519 -113 -743 -171 -843 -33 -57 -60
-69 -107 -47 -40 19 -47 35 -14 35 34 0 102 78 121 141 18 61 38 309 26 323
-8 9 -17 -9 -52 -104 -22 -59 -69 -115 -108 -129 -27 -9 -33 -8 -54 13 -30 30
-40 95 -26 171 18 94 58 218 83 253 106 146 144 211 188 316 27 66 48 121 46
124 -2 2 -37 -43 -77 -100 -89 -126 -170 -205 -409 -395 -259 -208 -372 -346
-415 -508 -42 -164 15 -319 142 -381 54 -27 68 -29 193 -32 127 -2 244 11 255
29 3 4 -19 31 -48 61 -65 65 -107 146 -107 205 0 24 -2 43 -5 43 -3 0 -30 -20
-60 -44 -86 -70 -159 -80 -207 -29 -52 56 -9 168 116 300 105 111 112 115 126
61 48 -185 169 -403 246 -444 24 -13 44 -38 70 -87 71 -135 118 -163 324 -193
72 -10 135 -27 200 -54 113 -46 140 -54 140 -43 0 18 -155 175 -197 200 -56
32 -114 119 -144 212 -27 83 -37 277 -19 360 12 58 52 178 70 212 13 23 43 25
60 4 14 -17 15 -188 0 -265 -13 -70 -13 -217 1 -281 7 -34 22 -64 44 -87 28
-32 39 -36 91 -40 32 -2 70 1 84 7 23 9 21 10 -18 10 -56 1 -106 25 -121 57
-28 63 -4 243 54 397 89 238 137 307 215 307 29 0 48 -7 71 -28 43 -39 42 -79
-4 -135 -39 -49 -97 -133 -97 -142 0 -3 33 17 73 44 69 46 233 141 245 141 17
0 -17 -123 -78 -280 -39 -101 -69 -185 -67 -186 8 -9 125 76 162 117 57 62 82
106 100 174 19 74 57 115 150 160 119 58 234 87 370 92 190 8 330 -22 507
-111 96 -47 90 -40 189 -260 38 -83 69 -142 69 -131 0 39 -49 252 -80 350 -92
284 -260 493 -521 646 -160 93 -297 138 -623 204 -120 25 -239 54 -263 66 -85
41 -120 127 -94 227 19 68 211 281 342 377 108 80 193 117 277 123 79 5 112
-10 112 -51 0 -62 -88 -167 -232 -280 -43 -33 -78 -61 -78 -63 0 -5 121 46
185 78 172 86 262 211 234 324 -14 53 -69 107 -128 125 -23 7 -41 15 -41 18 0
35 186 334 224 360 12 8 110 102 219 210 179 178 201 204 241 281 60 116 113
161 248 215 67 26 236 68 221 55 -4 -4 -53 -43 -108 -85 -140 -108 -180 -149
-210 -217 -38 -84 -70 -230 -88 -398 -9 -80 -37 -260 -62 -400 -25 -140 -45
-264 -45 -275 1 -28 100 127 160 250 101 205 132 317 150 540 18 223 28 258
114 398 41 67 82 139 92 159 14 31 27 41 68 55 l51 18 -173 3 c-192 3 -249 -7
-361 -60 -77 -36 -135 -93 -176 -169 l-30 -57 1 137 c1 75 2 146 3 159 1 14
13 30 34 42 25 16 28 20 12 20 -11 -1 -36 -7 -56 -14z m-54 -151 c-18 -79 -52
-249 -60 -300 -4 -24 -19 -54 -39 -75 -17 -20 -63 -79 -100 -133 -98 -141
-207 -252 -302 -309 -75 -44 -252 -128 -270 -128 -5 0 14 24 42 53 28 28 73
79 100 112 26 33 89 103 139 155 131 137 324 399 445 604 29 48 53 86 55 84 2
-2 -3 -30 -10 -63z m-1424 -2048 c13 -51 59 -100 118 -126 56 -24 65 -33 56
-60 -6 -19 -82 -64 -127 -75 -72 -17 -118 42 -118 150 0 77 16 178 33 209 10
18 12 16 20 -20 5 -22 13 -57 18 -78z"/>
<path d="M2827 11963 c-71 -54 -274 -330 -255 -348 11 -11 133 73 178 121 39
43 90 134 90 162 0 7 7 27 16 43 23 46 13 53 -29 22z"/>
<path d="M2727 11694 c-3 -10 -9 -59 -12 -108 -9 -113 -24 -171 -82 -314 -25
-62 -43 -116 -39 -119 12 -13 134 125 163 184 25 52 28 68 27 153 -1 76 -6
108 -26 159 -19 48 -27 60 -31 45z"/>
<path d="M3200 11425 c0 -2 13 -25 30 -52 54 -87 231 -565 215 -581 -3 -3 -49
4 -103 16 -250 56 -541 107 -529 94 20 -25 131 -99 190 -128 52 -26 72 -44 47
-44 -10 0 -200 -86 -208 -95 -3 -3 8 -15 23 -27 16 -12 66 -55 113 -96 47 -41
178 -151 291 -245 275 -227 587 -539 635 -635 74 -148 107 -300 115 -542 l6
-185 23 60 c64 163 91 352 73 513 -15 128 -48 236 -111 364 -140 284 -353 513
-646 695 -58 35 389 -122 550 -194 367 -164 587 -299 943 -575 112 -87 203
-154 203 -151 0 24 -229 303 -349 425 l-144 147 -27 83 c-102 319 -330 570
-690 762 -102 54 -104 56 -65 56 167 0 427 -85 1004 -332 359 -153 568 -234
578 -224 5 4 -103 92 -224 184 -239 181 -527 339 -748 411 -107 35 -117 40
-90 46 148 36 547 138 575 147 l35 12 -35 7 c-19 5 -109 13 -200 20 -140 10
-196 9 -370 -5 -571 -47 -703 -41 -1022 48 -49 13 -88 23 -88 21z"/>
<path d="M5045 10307 c48 -35 71 -64 134 -166 105 -170 155 -283 262 -591 34
-97 59 -228 59 -306 0 -60 -23 -131 -62 -187 l-25 -38 -27 55 c-37 75 -113
189 -175 261 -145 169 -411 343 -616 404 -73 21 -204 45 -212 38 -2 -3 26 -19
63 -36 144 -67 469 -308 526 -390 81 -114 278 -514 351 -711 139 -374 149
-766 31 -1235 -49 -193 -169 -533 -333 -942 -11 -29 -19 -53 -17 -53 5 0 129
208 202 340 32 58 88 169 125 248 75 162 129 236 232 318 121 95 253 144 388
144 143 0 210 -41 231 -141 10 -48 8 -68 -11 -152 -24 -103 -91 -254 -142
-319 -17 -21 -26 -38 -20 -38 19 0 159 140 198 198 62 95 128 284 178 516 l6
29 44 -43 c28 -27 55 -68 72 -109 26 -61 28 -76 28 -191 -1 -167 -14 -209
-130 -415 -52 -93 -95 -174 -94 -180 0 -16 201 198 304 325 204 253 311 453
351 658 27 140 11 273 -51 415 -20 48 -35 100 -35 122 -1 138 -69 292 -199
450 -50 61 -109 138 -133 172 -23 34 -43 61 -45 59 -12 -12 30 -125 102 -277
55 -114 92 -206 105 -260 35 -146 24 -336 -27 -494 -16 -51 -83 -227 -89 -233
-1 -2 -24 12 -50 32 -26 20 -68 44 -94 53 l-47 17 -11 105 c-26 248 -123 406
-296 486 l-73 34 43 84 c75 145 123 321 124 460 l1 42 28 -60 c15 -33 63 -142
106 -242 43 -101 80 -181 82 -180 6 7 -57 315 -87 422 -45 164 -86 276 -152
415 -112 237 -230 403 -423 594 -148 146 -243 220 -412 323 -65 39 -131 86
-148 103 -32 34 -90 67 -140 81 l-30 8 30 -22z"/>
<path d="M2346 9569 c-77 -12 -169 -63 -234 -129 l-59 -59 -6 40 c-3 22 -18
66 -34 97 l-28 57 -6 -90 c-8 -104 -21 -148 -95 -336 -30 -75 -54 -142 -54
-150 0 -7 19 5 43 28 29 28 99 69 222 130 253 125 303 138 413 112 87 -21 366
-140 417 -178 28 -21 56 -41 64 -45 30 -19 -76 159 -133 221 -34 38 -81 94
-105 126 -100 131 -259 201 -405 176z"/>
<path d="M4675 9210 c52 -103 60 -156 59 -395 -1 -248 -14 -400 -49 -560 -47
-224 -114 -315 -231 -315 -67 0 -83 15 -119 110 -35 91 -119 266 -221 460
l-76 145 6 -95 c3 -52 13 -140 21 -195 8 -55 17 -113 20 -130 2 -16 15 -91 29
-165 41 -230 50 -348 50 -650 0 -351 -14 -499 -104 -1070 -28 -173 -52 -323
-54 -332 -6 -28 7 -21 28 15 164 283 224 404 295 600 25 70 52 123 83 163 76
98 178 261 233 369 132 259 171 454 197 975 18 345 16 595 -5 720 -30 178 -59
252 -135 353 -47 61 -59 60 -27 -3z m-162 -1947 c14 -47 14 -49 -30 -152 -48
-117 -58 -132 -49 -81 15 83 26 178 26 221 0 25 3 49 7 52 17 18 34 3 46 -40z"/>
<path d="M3080 8995 c0 -16 9 -79 19 -140 32 -185 34 -233 16 -310 -40 -173
-161 -321 -498 -609 -81 -69 -143 -126 -137 -126 22 0 243 91 329 135 48 25
94 45 103 45 26 0 102 -75 133 -131 53 -97 35 -211 -50 -315 -82 -100 -356
-305 -738 -553 -147 -95 -266 -176 -263 -178 5 -6 245 75 346 117 38 16 70 25
70 21 0 -24 -37 -125 -66 -181 -71 -136 -189 -248 -545 -515 -141 -107 -260
-199 -264 -205 -9 -15 23 -7 180 45 161 54 260 99 445 205 252 144 385 239
593 424 52 47 97 81 99 76 2 -5 58 30 125 78 573 410 832 809 810 1247 -4 86
-12 131 -37 205 -66 204 -170 371 -282 458 -30 23 -58 42 -61 42 -3 0 1 -16 9
-35 58 -140 60 -476 3 -703 -11 -48 -25 -94 -31 -102 -6 -11 -7 -8 -3 8 14 49
7 306 -10 387 -32 154 -135 392 -240 555 -49 75 -55 82 -55 55z"/>
<path d="M2930 6193 c-51 -8 -188 -57 -277 -98 -183 -85 -359 -250 -468 -438
-31 -54 -20 -48 -315 -174 -295 -125 -476 -234 -625 -375 -353 -334 -443 -746
-283 -1301 17 -59 34 -104 38 -100 5 4 33 100 65 211 89 320 153 490 233 617
37 58 37 59 16 -37 -20 -98 -20 -298 2 -408 14 -71 17 -159 18 -525 2 -346 6
-472 19 -590 25 -216 78 -578 87 -594 15 -28 103 333 185 764 25 131 47 241
49 243 2 2 27 -21 54 -50 28 -30 82 -81 121 -113 l69 -60 12 -80 c89 -623 408
-1357 932 -2143 49 -72 90 -132 93 -132 2 0 -2 19 -10 43 -113 342 -352 1133
-414 1367 -26 100 -91 374 -91 387 0 2 40 -74 88 -169 215 -421 487 -769 861
-1102 442 -392 727 -596 1236 -884 175 -99 854 -446 860 -440 3 2 -203 170
-458 374 -505 403 -660 532 -872 724 -193 175 -629 620 -750 765 -333 398
-574 793 -783 1285 -3 8 14 -2 39 -21 110 -89 264 -176 387 -218 34 -11 65
-21 68 -21 4 0 -18 28 -48 63 -139 157 -234 313 -387 633 -160 335 -194 440
-237 735 l-26 179 32 108 c143 489 358 802 692 1005 34 20 56 37 49 37 -28 0
-222 -70 -293 -106 -107 -54 -234 -144 -332 -235 -47 -45 -86 -79 -86 -77 0 2
20 62 44 133 94 280 181 454 322 645 51 69 102 134 113 144 12 11 21 23 21 28
0 8 -6 8 -50 1z m-856 -1373 c10 -52 12 -90 5 -122 -4 -26 -13 -84 -18 -128
-6 -44 -26 -132 -45 -195 -46 -150 -81 -317 -101 -485 -9 -74 -17 -139 -19
-144 -1 -5 -30 54 -64 132 l-61 141 29 168 c52 300 109 503 194 693 l51 115 8
-50 c4 -27 14 -84 21 -125z"/>
<path d="M5900 5849 c-172 -72 -252 -92 -370 -91 -58 1 -145 10 -195 20 l-90
18 46 21 c26 11 50 26 54 32 4 7 -10 5 -32 -5 -32 -15 -86 -19 -348 -24 -226
-5 -329 -12 -380 -23 -223 -51 -391 -150 -615 -363 -65 -61 -86 -74 -155 -98
-201 -70 -321 -143 -446 -273 -129 -134 -218 -279 -304 -492 -25 -63 -44 -116
-42 -118 2 -1 28 38 58 89 73 124 257 315 342 353 65 30 102 28 135 -8 35 -38
35 -59 -2 -145 -205 -479 -203 -1012 5 -1577 89 -240 260 -557 426 -790 110
-155 117 -164 124 -165 14 0 -32 376 -97 800 -43 279 -46 309 -51 560 -6 293
5 425 52 603 95 365 368 770 732 1084 235 204 300 243 465 277 123 26 228 62
297 103 24 14 73 31 109 39 81 17 186 66 284 132 60 41 113 85 97 81 -2 0 -47
-19 -99 -40z m-1550 -660 c-27 -44 -87 -128 -133 -187 -157 -201 -264 -381
-319 -537 l-29 -80 6 114 c7 142 28 297 58 420 l22 94 55 38 c30 20 116 69
189 109 74 39 146 80 160 90 44 33 43 22 -9 -61z"/>
</g>
</svg>
