<?xml version="1.0" standalone="no"?>
<!DOCTYPE svg PUBLIC "-//W3C//DTD SVG 20010904//EN"
 "http://www.w3.org/TR/2001/REC-SVG-20010904/DTD/svg10.dtd">
<svg version="1.0" xmlns="http://www.w3.org/2000/svg"
 width="1280.000000pt" height="750.000000pt" viewBox="0 0 1280.000000 750.000000"
 preserveAspectRatio="xMidYMid meet">
<metadata>
Created by potrace 1.15, written by Peter Selinger 2001-2017
</metadata>
<g transform="translate(0.000000,750.000000) scale(0.100000,-0.100000)"
fill="#000000" stroke="none">
<path d="M10623 6834 c-87 -96 -177 -167 -273 -218 -61 -31 -100 -44 -335
-110 -100 -27 -234 -56 -263 -56 -11 0 -39 -8 -63 -19 -42 -18 -124 -26 -540
-56 -111 -8 -120 0 -89 82 23 62 30 127 15 142 -7 7 -33 -8 -73 -39 -73 -57
-146 -89 -170 -74 -12 8 -15 25 -13 76 3 76 -18 138 -46 138 -12 0 -30 -24
-57 -76 -29 -56 -53 -88 -96 -123 -68 -57 -238 -134 -331 -151 -35 -6 -88 -15
-118 -20 -100 -18 -128 -14 -146 20 -18 35 -17 35 -56 14 -40 -20 -56 -13 -65
30 -3 20 -9 36 -12 36 -4 0 -32 -25 -63 -56 -40 -40 -78 -65 -135 -90 -43 -19
-89 -34 -102 -34 -12 0 -33 -7 -46 -15 -12 -8 -51 -18 -87 -21 -42 -4 -71 -13
-85 -26 -17 -15 -34 -19 -76 -17 -42 2 -64 -3 -92 -20 -19 -12 -46 -21 -59
-19 -12 1 -43 -9 -67 -23 -25 -15 -65 -37 -90 -49 -102 -51 -228 -141 -240
-171 -7 -16 -34 -49 -61 -73 -60 -54 -151 -161 -172 -202 -19 -36 -23 -85 -13
-131 5 -20 3 -34 -4 -38 -9 -5 -10 -53 -5 -174 7 -153 9 -170 34 -216 38 -73
141 -175 176 -175 41 0 203 -81 211 -105 3 -11 23 -47 43 -80 20 -33 42 -73
49 -88 24 -57 6 -249 -29 -295 -36 -48 -128 -136 -160 -152 -43 -23 -190 -65
-307 -90 -48 -10 -122 -27 -165 -39 -75 -21 -117 -20 -144 2 -26 19 -83 143
-93 199 -16 85 -2 97 57 52 18 -14 49 -32 68 -40 36 -15 115 -19 115 -6 0 4
-16 38 -35 76 -19 37 -35 82 -35 100 0 17 -12 58 -26 91 -51 119 -88 251 -73
260 10 7 31 -40 62 -135 11 -36 31 -81 44 -100 13 -19 23 -39 23 -45 0 -6 26
-36 57 -67 79 -76 123 -98 123 -59 0 10 -6 24 -14 30 -7 6 -28 44 -47 83 -32
71 -33 79 -41 246 -6 118 -5 179 3 193 10 19 14 16 66 -36 32 -32 63 -54 72
-52 19 4 19 8 -26 127 l-36 95 -6 251 c-4 155 -11 257 -17 265 -6 8 -17 43
-24 79 -33 176 -76 260 -199 393 -45 48 -47 57 -8 33 27 -16 179 -5 267 20
146 41 535 234 625 311 28 23 81 67 118 98 66 55 80 82 41 78 -48 -4 -149 -25
-173 -36 -32 -16 -395 -17 -410 -2 -20 21 69 96 177 149 107 51 197 124 178
143 -2 2 -33 -1 -69 -7 -52 -9 -98 -8 -225 4 -199 20 -275 20 -432 1 -206 -26
-359 -65 -436 -111 -30 -18 -91 -47 -137 -65 -69 -27 -95 -32 -162 -32 -90 1
-205 23 -310 59 -96 33 -244 47 -470 47 -197 0 -359 -20 -515 -64 -45 -12
-113 -19 -220 -23 -149 -4 -159 -6 -245 -39 -193 -76 -254 -119 -269 -193 -14
-65 72 -226 158 -296 28 -23 67 -57 87 -75 l36 -34 33 73 c42 94 70 124 150
160 59 27 75 30 175 32 142 1 441 -23 480 -39 53 -22 196 -127 207 -151 20
-44 0 -49 -104 -28 -116 24 -293 24 -393 0 -124 -30 -263 -87 -383 -158 -64
-38 -183 -104 -263 -146 l-146 -75 -124 -1 c-142 0 -174 10 -245 79 -52 49
-68 101 -67 210 2 95 30 190 98 325 47 94 53 127 34 195 -15 53 -50 97 -121
151 -69 52 -132 69 -225 61 -120 -12 -291 -129 -350 -240 -8 -16 -12 -31 -9
-34 3 -3 41 10 85 30 112 52 163 62 207 41 19 -9 40 -26 46 -37 7 -15 9 -86 4
-236 -6 -177 -4 -229 8 -289 9 -40 16 -86 16 -101 0 -43 57 -146 116 -210 100
-108 270 -171 469 -174 l110 -2 120 64 c66 35 144 80 173 101 l54 38 55 -34
c30 -18 81 -38 112 -45 75 -16 524 -5 598 14 61 16 142 5 251 -33 102 -36 118
-83 50 -146 -24 -22 -74 -60 -113 -85 -348 -228 -551 -376 -667 -487 -70 -67
-116 -68 -428 -6 -149 30 -192 42 -375 101 -77 25 -199 60 -271 78 -107 27
-161 48 -292 114 -181 91 -338 188 -427 266 -33 28 -92 76 -130 106 -169 130
-173 134 -180 202 -14 129 47 458 110 594 15 32 37 86 50 120 l24 62 -44 78
c-81 147 -158 213 -274 234 -62 11 -74 10 -132 -10 -90 -30 -178 -85 -215
-134 -29 -38 -67 -127 -59 -135 2 -2 21 14 42 35 21 21 68 53 105 72 56 28 73
32 107 26 51 -8 85 -47 77 -86 -3 -15 -19 -47 -36 -71 l-31 -45 22 -64 c24
-72 36 -221 24 -314 -15 -120 -96 -153 -210 -83 -83 51 -177 133 -223 194 -22
29 -62 101 -91 160 -47 97 -53 117 -58 194 -7 98 -30 175 -69 225 -34 45 -174
116 -241 122 -106 10 -332 -78 -333 -129 0 -5 8 -8 18 -8 22 0 163 -42 215
-64 21 -9 40 -23 43 -31 3 -7 -11 -47 -30 -88 -20 -41 -36 -85 -36 -98 0 -38
67 -213 87 -227 10 -7 32 -23 50 -35 57 -40 197 -151 252 -200 29 -27 65 -53
80 -59 24 -9 95 -89 107 -123 7 -17 -18 -31 -119 -61 -77 -24 -91 -25 -237
-19 -165 7 -207 17 -315 76 -78 43 -210 58 -263 30 -45 -24 -122 -168 -122
-227 0 -36 27 -41 59 -10 21 20 37 26 74 26 99 0 145 -41 219 -192 l33 -67 40
5 c22 3 72 12 110 19 39 7 102 17 140 20 41 4 146 32 254 66 339 109 432 106
568 -20 l43 -38 -7 -65 c-4 -44 -2 -67 6 -72 37 -23 -27 -126 -79 -126 -15 0
-70 11 -121 24 -51 14 -97 22 -101 20 -14 -9 20 -61 64 -99 93 -81 193 -106
321 -80 87 18 117 30 184 76 23 16 46 29 51 29 6 0 36 -23 67 -52 31 -28 78
-61 104 -73 26 -13 69 -39 95 -59 26 -20 53 -36 61 -36 43 0 311 -244 345
-314 36 -76 22 -150 -44 -231 -19 -22 -50 -49 -70 -60 -20 -11 -36 -25 -36
-32 0 -21 80 -37 185 -37 111 -1 153 13 203 65 15 16 31 29 37 29 5 0 29 -29
52 -63 67 -97 58 -158 -29 -213 -66 -42 -265 -138 -389 -187 -194 -78 -242
-87 -475 -87 -221 0 -274 7 -373 52 -98 44 -110 29 -67 -80 18 -45 78 -147 90
-152 1 -1 19 -3 41 -6 78 -9 85 -13 92 -44 3 -16 11 -34 17 -39 6 -5 61 -17
122 -26 102 -15 114 -15 158 0 26 9 59 14 74 11 15 -4 65 1 112 10 127 23 144
23 148 -2 2 -17 -8 -26 -55 -46 -32 -14 -69 -29 -83 -33 -97 -29 -526 -206
-528 -219 -8 -36 249 -56 481 -37 157 14 258 31 350 60 34 10 94 28 132 39
147 41 262 81 328 111 112 52 111 37 -4 -79 -95 -96 -221 -187 -405 -296 -11
-7 -15 -16 -11 -28 7 -16 8 -16 37 1 28 16 32 16 59 0 41 -24 81 -21 141 9 35
17 60 24 77 19 18 -4 34 1 58 20 39 29 52 31 81 11 21 -15 82 -19 99 -6 6 4
17 7 25 8 26 1 114 38 154 65 41 29 62 33 86 17 12 -8 5 -18 -40 -57 -30 -26
-71 -63 -90 -83 -104 -105 -302 -273 -366 -310 -24 -14 -67 -41 -96 -61 -102
-69 -349 -201 -388 -206 -51 -7 -87 3 -100 27 -8 16 -2 41 30 124 40 102 41
106 24 131 -44 67 -173 86 -272 40 -61 -28 -64 -48 -7 -52 21 -1 45 -9 53 -17
14 -13 13 -20 -3 -57 -11 -23 -39 -60 -62 -82 l-44 -41 7 -57 c4 -32 4 -73 0
-92 -8 -45 -74 -127 -134 -167 -47 -32 -47 -32 -147 -26 -208 12 -386 80 -549
211 -141 113 -182 163 -251 313 -21 45 -45 88 -52 94 -8 6 -25 33 -39 60 -87
172 -252 209 -363 83 -73 -84 -124 -263 -92 -323 19 -36 35 -25 65 43 47 109
101 132 162 71 46 -46 47 -106 3 -189 l-30 -58 21 -45 c30 -60 69 -90 234
-175 171 -89 331 -205 352 -254 22 -53 4 -77 -100 -140 -143 -85 -150 -87
-346 -96 -96 -4 -197 -13 -225 -19 -60 -13 -164 -79 -199 -125 -29 -37 -56
-129 -56 -187 0 -120 137 -256 247 -246 38 4 38 4 12 15 -62 27 -98 105 -84
180 15 82 37 82 114 1 l60 -63 23 22 c13 11 57 38 98 58 41 21 86 45 100 55
14 9 39 20 57 23 45 9 398 183 464 230 64 44 124 57 182 38 47 -16 59 -49 41
-119 -37 -142 -147 -289 -305 -404 -145 -105 -255 -203 -285 -254 -23 -39 -25
-48 -15 -72 9 -21 9 -36 1 -57 -9 -25 -8 -31 9 -45 11 -8 27 -40 36 -71 16
-56 16 -57 73 -74 31 -10 87 -21 124 -25 72 -6 108 5 192 62 43 29 40 33 -39
58 -80 25 -130 81 -123 138 5 44 45 41 107 -8 34 -27 56 -38 65 -33 39 22 122
136 172 234 150 300 265 463 473 669 92 91 172 178 179 193 7 17 26 34 50 43
20 8 53 24 73 34 108 59 356 115 504 115 118 0 188 -26 272 -100 69 -62 76
-81 74 -210 -1 -67 -6 -90 -31 -142 -47 -95 -109 -157 -204 -203 -44 -22 -73
-39 -63 -40 10 0 26 4 36 10 10 5 54 16 97 25 109 22 194 54 226 83 15 13 39
25 54 25 32 0 174 83 262 154 33 26 75 57 93 67 l32 19 -6 -22 c-9 -36 -83
-160 -143 -240 l-55 -74 32 7 c65 13 143 58 286 163 131 97 202 164 317 298
l25 30 1 -29 c0 -57 -80 -251 -136 -327 -49 -67 -223 -220 -292 -258 -45 -24
-52 -30 -32 -31 33 0 194 52 250 80 146 74 372 279 430 390 7 14 28 43 47 64
18 22 33 44 33 49 0 4 29 59 65 122 36 62 65 117 65 122 0 5 11 24 25 43 14
19 25 47 25 62 0 37 14 35 61 -7 38 -34 39 -34 75 -19 40 17 87 7 109 -22 18
-25 106 -30 151 -9 47 22 116 16 148 -14 32 -30 163 -30 221 -1 49 25 97 26
118 2 15 -16 25 -17 84 -9 100 13 306 64 375 93 33 14 73 24 89 22 18 -2 36 5
51 19 25 23 115 53 162 53 36 1 120 29 156 52 14 9 52 24 85 34 33 9 105 34
160 56 106 41 308 83 351 72 46 -12 41 -46 -18 -117 -72 -88 -115 -161 -145
-249 -23 -68 -25 -82 -19 -196 6 -118 5 -125 -25 -215 -17 -50 -42 -113 -56
-139 -29 -54 -225 -248 -331 -328 -117 -88 -144 -100 -236 -100 l-80 0 -92 95
c-51 53 -114 127 -140 166 -26 39 -62 82 -79 95 -40 30 -173 76 -201 70 -12
-3 -43 -28 -70 -56 -27 -27 -55 -50 -62 -50 -25 0 -55 -101 -33 -114 4 -3 37
2 72 12 85 23 138 16 158 -20 11 -20 13 -34 6 -54 -18 -49 -32 -50 -156 -5
-154 57 -188 60 -268 27 -36 -14 -75 -36 -88 -48 -52 -48 -73 -184 -44 -279
l15 -47 -45 -73 c-40 -68 -44 -80 -48 -152 l-3 -79 48 -70 c43 -62 149 -158
175 -158 5 0 9 47 9 105 0 121 12 145 74 145 50 0 86 -34 96 -92 14 -75 36
-117 67 -129 15 -7 66 -12 113 -13 74 -1 91 2 131 25 43 24 51 25 110 17 35
-5 114 -7 174 -4 122 6 215 29 440 110 249 91 238 84 462 283 62 55 139 114
170 131 32 16 126 51 208 75 83 25 180 56 216 69 l67 23 17 85 c43 222 70 320
113 419 38 88 56 116 103 161 31 30 60 65 63 77 12 38 54 63 106 63 29 0 68 9
101 25 74 33 149 51 266 64 54 6 113 14 131 17 31 5 40 -2 155 -113 108 -104
235 -205 377 -300 85 -56 416 -161 576 -182 84 -11 239 -4 524 23 127 12 162
19 285 61 119 41 154 49 235 53 101 4 180 -10 180 -32 0 -7 -10 -21 -21 -32
-36 -32 -50 -75 -37 -118 13 -42 26 -45 58 -11 26 28 61 33 80 10 9 -11 7 -23
-12 -57 -34 -62 -61 -62 -171 2 -72 41 -102 52 -164 61 -125 17 -198 -5 -268
-82 l-38 -42 6 -93 c6 -90 6 -94 -28 -168 -39 -83 -43 -122 -19 -193 20 -60
36 -78 99 -114 58 -34 80 -37 67 -11 -5 9 -12 41 -15 71 -7 59 13 126 35 119
21 -7 58 -80 58 -114 0 -38 62 -122 97 -130 39 -10 63 20 57 70 -5 31 -2 45
10 55 24 20 64 5 87 -34 11 -19 29 -37 39 -40 44 -14 495 39 560 65 16 7 46
46 85 113 40 68 82 123 128 167 67 65 67 66 100 177 18 62 38 118 45 125 17
17 15 67 -7 130 -27 78 -46 113 -110 198 -31 41 -94 142 -141 224 -97 170
-143 227 -199 250 -45 18 -49 18 -296 16 -99 0 -225 4 -280 10 -55 5 -148 14
-207 20 -164 15 -296 73 -418 184 -31 28 -39 40 -30 46 9 5 32 -6 64 -29 72
-53 128 -73 226 -78 192 -11 616 99 761 198 139 94 256 261 309 439 30 104 39
294 16 370 -38 127 -219 331 -378 427 -88 54 -355 160 -483 193 -167 43 -256
48 -381 22 -54 -11 -119 -23 -144 -27 -25 -3 -81 -17 -125 -30 -44 -13 -118
-35 -165 -48 -47 -14 -130 -41 -185 -62 -167 -61 -332 -83 -394 -50 -75 38
-147 161 -158 272 -11 100 71 219 191 280 68 35 76 36 196 40 222 8 394 -34
604 -146 108 -58 143 -69 346 -116 272 -63 647 -114 960 -132 109 -6 222 16
320 64 69 33 147 113 185 190 27 53 30 66 29 158 -1 113 -39 292 -81 384 -23
49 -25 62 -21 156 5 121 22 158 85 189 53 26 49 41 -9 40 -64 -3 -117 -34
-186 -110 l-60 -67 -25 49 c-43 85 -51 123 -37 188 6 31 22 69 35 84 22 25 31
28 141 37 70 6 119 15 121 21 10 30 -142 123 -245 149 -31 8 -88 30 -127 49
-95 46 -165 66 -260 73 -69 5 -94 2 -173 -21 -124 -36 -185 -64 -257 -121 -65
-51 -79 -69 -96 -130 -41 -146 19 -315 198 -554 96 -128 110 -163 78 -195 -24
-24 -77 -29 -234 -23 -112 4 -168 11 -241 31 -52 14 -144 37 -205 51 -60 14
-174 41 -251 60 -146 36 -410 69 -509 63 l-50 -3 0 34 c0 41 31 68 96 82 24 6
56 22 71 36 19 19 44 28 82 34 42 5 65 16 99 44 41 34 45 42 51 96 6 50 10 59
26 59 11 0 29 9 40 20 13 13 33 20 56 20 39 0 52 12 143 120 60 72 137 197
145 236 6 27 16 35 72 59 79 34 151 100 189 174 38 75 101 258 108 314 9 62
-3 61 -93 -3 -93 -69 -172 -102 -320 -138 -252 -61 -410 -79 -410 -48 0 22 20
31 120 55 116 27 296 97 409 160 110 60 245 180 302 267 l44 68 -1 131 c-1
102 -5 142 -21 184 -11 30 -25 57 -31 59 -6 2 -23 -16 -39 -40 -15 -24 -53
-70 -84 -103 -32 -33 -73 -79 -93 -103 l-35 -43 -18 28 c-14 21 -18 48 -18
118 -1 94 -19 175 -41 175 -7 0 -48 -39 -91 -86z m-1576 -2559 c3 -9 -9 -44
-26 -78 -59 -118 -63 -220 -11 -353 48 -127 177 -314 242 -354 17 -10 78 -37
137 -61 102 -41 110 -42 216 -43 119 0 209 13 350 49 50 12 133 33 185 45 52
12 190 53 307 91 243 80 330 99 451 99 98 0 153 -13 261 -59 160 -68 255 -144
297 -239 38 -83 29 -123 -43 -202 -53 -59 -129 -98 -260 -132 -105 -27 -138
-31 -303 -35 -119 -4 -210 -1 -255 6 -39 7 -104 16 -145 21 -139 16 -576 156
-785 250 -72 32 -298 127 -554 231 -79 33 -191 73 -250 91 -58 17 -164 49
-236 71 -71 22 -176 51 -232 66 -56 14 -104 28 -107 32 -3 3 25 22 61 43 37
21 88 59 114 83 29 27 66 50 94 58 60 19 154 92 201 157 47 67 61 78 96 78 27
0 138 65 153 90 9 15 35 12 42 -5z"/>
</g>
</svg>
