<?xml version="1.0" standalone="no"?>
<!DOCTYPE svg PUBLIC "-//W3C//DTD SVG 20010904//EN"
 "http://www.w3.org/TR/2001/REC-SVG-20010904/DTD/svg10.dtd">
<svg version="1.0" xmlns="http://www.w3.org/2000/svg"
 width="1280.000000pt" height="1280.000000pt" viewBox="0 0 1280.000000 1280.000000"
 preserveAspectRatio="xMidYMid meet">
<metadata>
Created by potrace 1.15, written by Peter Selinger 2001-2017
</metadata>
<g transform="translate(0.000000,1280.000000) scale(0.100000,-0.100000)"
fill="#000000" stroke="none">
<path d="M4885 12184 c-545 -96 -665 -495 -395 -1304 29 -85 56 -163 61 -172
7 -13 4 -20 -11 -28 -63 -34 -175 64 -257 225 -154 302 -191 659 -91 872 28
59 95 128 151 154 l42 20 -40 -6 c-172 -28 -457 -184 -624 -341 -186 -175
-254 -361 -183 -499 23 -46 112 -134 163 -161 l34 -19 -145 -7 c-326 -15 -622
-124 -767 -281 -48 -52 -69 -89 -77 -137 -11 -58 -1 -64 90 -46 619 117 1119
-74 1185 -451 21 -117 -16 -242 -106 -361 -207 -274 -706 -424 -1275 -383
-200 14 -458 47 -538 67 -88 23 -132 65 -132 126 0 67 42 141 135 234 204 206
555 403 718 404 47 0 45 16 -4 45 -27 16 -51 19 -124 19 -185 -2 -421 -74
-705 -215 -524 -262 -881 -625 -995 -1015 -67 -227 -30 -511 95 -730 l30 -51
-54 -119 c-128 -284 -179 -509 -180 -784 0 -162 10 -241 49 -401 122 -491 509
-950 1045 -1238 52 -28 92 -51 88 -51 -4 0 -60 17 -125 39 -241 79 -444 202
-613 371 -134 134 -221 257 -314 445 -167 335 -255 714 -282 1222 -4 73 -11
120 -16 116 -22 -13 -89 -130 -118 -205 -138 -356 -156 -925 -43 -1318 53
-187 125 -320 228 -425 76 -78 136 -115 227 -143 l59 -18 -89 -12 c-275 -37
-330 -125 -288 -467 8 -71 18 -179 22 -238 l7 -109 40 49 c172 207 315 272
536 245 151 -19 155 -22 70 -44 -307 -80 -585 -353 -530 -520 23 -70 120 -132
246 -159 33 -7 61 -13 63 -15 2 -1 -10 -45 -27 -96 -98 -308 -40 -520 172
-619 79 -36 187 -59 283 -59 41 0 74 -4 74 -9 0 -5 -7 -25 -15 -45 -25 -60
-45 -173 -45 -257 0 -262 139 -535 392 -773 157 -149 369 -273 516 -305 88
-18 88 -18 21 76 -269 382 -352 567 -404 903 -22 142 -31 611 -16 895 20 391
35 605 42 605 7 0 98 -120 141 -186 163 -252 251 -620 233 -969 -7 -150 -19
-216 -44 -246 -14 -18 -21 -20 -38 -11 -41 22 -138 246 -204 471 -19 66 -23
72 -35 56 -41 -56 -58 -304 -29 -440 43 -201 173 -332 350 -352 l50 -6 50
-103 c74 -152 80 -197 28 -211 -59 -14 -240 80 -312 163 -18 20 -34 34 -37 31
-10 -10 18 -104 49 -162 18 -33 65 -95 106 -138 149 -156 313 -194 444 -105
l27 19 105 -97 c102 -94 123 -125 116 -169 -7 -50 -87 -103 -206 -137 -68 -19
-104 -23 -240 -23 -145 0 -164 2 -209 23 -27 12 -51 21 -53 19 -11 -12 47 -60
114 -95 143 -73 320 -112 517 -112 192 0 312 42 372 131 l30 45 94 -53 c52
-29 98 -61 102 -70 3 -10 7 -49 7 -88 2 -164 -103 -264 -312 -296 -118 -19
-307 4 -389 47 -43 22 -34 2 26 -58 97 -97 212 -145 367 -155 125 -8 223 13
346 74 126 61 254 182 338 321 7 11 144 -47 238 -101 114 -66 216 -107 259
-107 13 1 40 7 61 14 20 8 37 12 37 10 0 -2 -10 -29 -21 -60 -26 -68 -79 -131
-134 -155 -127 -58 -328 29 -474 206 l-33 40 17 -40 c95 -233 305 -435 496
-476 76 -16 212 -6 282 20 105 41 237 141 340 259 21 24 40 42 42 40 11 -11
-29 -152 -62 -218 -117 -239 -422 -371 -697 -300 -153 39 -268 129 -331 261
-19 40 -35 79 -35 86 0 7 -4 13 -10 13 -5 0 -10 -22 -10 -49 0 -60 48 -159
119 -247 103 -127 284 -244 438 -285 136 -36 422 -12 585 48 152 56 289 174
350 301 26 55 33 82 36 152 l4 86 81 28 c129 46 423 198 568 294 333 221 464
413 386 565 l-24 47 130 108 c179 148 335 264 442 328 135 81 140 81 226 44
85 -38 126 -36 172 7 44 41 147 201 147 228 0 61 -89 113 -231 134 -69 11 -81
10 -130 -9 -30 -11 -118 -59 -194 -106 -363 -224 -963 -544 -1020 -544 -22 0
-25 4 -25 34 0 45 27 107 104 235 35 58 109 190 164 293 116 215 158 280 238
363 121 126 137 252 43 346 -35 35 -44 39 -88 39 -42 0 -55 -5 -84 -33 -32
-30 -77 -126 -77 -164 0 -25 -77 -162 -144 -257 -104 -144 -257 -307 -470
-499 -110 -100 -255 -236 -322 -304 -130 -132 -186 -168 -281 -180 -70 -8
-186 24 -334 92 -68 31 -185 84 -259 117 -74 33 -136 61 -138 63 -3 2 12 115
34 263 4 24 10 32 25 32 40 0 80 31 102 78 17 38 22 71 25 167 3 112 -5 194
-44 418 -7 38 -6 40 87 130 52 51 119 106 149 124 67 39 174 69 203 56 18 -8
5 -24 -118 -144 -75 -73 -144 -148 -151 -166 -20 -46 -17 -172 6 -283 38 -176
133 -428 264 -695 l64 -130 1 135 1 136 45 12 c121 32 99 122 -99 415 -163
241 -164 245 -85 332 49 53 247 210 255 202 2 -2 11 -41 20 -87 35 -186 107
-351 186 -426 85 -82 152 -95 230 -45 59 37 201 184 279 286 53 71 176 301
194 363 6 21 5 22 -12 14 -10 -6 -69 -51 -130 -101 -62 -50 -115 -91 -117 -91
-2 0 -6 11 -10 23 -9 37 -45 77 -69 77 -56 0 -164 -165 -205 -314 l-18 -68
-67 72 c-91 98 -147 210 -147 291 0 87 36 159 95 192 11 6 85 14 165 18 164 8
226 24 265 71 52 61 25 127 -109 268 -58 61 -106 123 -132 170 -144 264 -398
925 -520 1357 l-9 32 -120 -111 c-292 -268 -509 -389 -740 -413 -120 -12 -341
28 -511 94 -247 95 -481 306 -525 473 -7 25 -9 53 -5 63 6 16 14 9 46 -41 53
-79 170 -195 252 -250 145 -97 294 -145 453 -146 187 -2 314 49 441 177 66 66
90 99 128 176 103 211 123 389 59 520 -106 214 -421 354 -608 270 -55 -25 -78
-53 -123 -151 -64 -137 -81 -256 -53 -358 15 -52 70 -116 125 -144 55 -28 161
-28 236 1 64 24 60 24 60 11 0 -31 -49 -130 -82 -166 -99 -107 -263 -97 -445
27 -70 48 -207 183 -275 272 -153 200 -285 463 -373 744 -39 126 -64 233 -54
233 6 0 119 -49 252 -109 354 -159 474 -201 681 -237 210 -36 640 -36 762 1
132 39 175 115 143 253 -38 162 -348 645 -625 971 -154 182 -148 171 -64 110
183 -135 465 -316 641 -412 47 -26 93 -55 101 -64 32 -37 42 -92 63 -352 16
-208 32 -301 66 -396 20 -55 39 -77 213 -251 189 -188 266 -251 346 -279 23
-8 63 -33 88 -56 89 -79 185 -106 282 -79 48 13 133 68 125 80 -3 6 -43 10
-88 10 -154 0 -215 37 -235 139 -22 120 -101 241 -229 352 -77 66 -220 136
-297 145 l-59 7 7 111 c3 61 6 204 6 319 0 114 3 207 8 207 4 0 72 -116 151
-258 206 -366 172 -324 298 -366 152 -50 226 -66 316 -66 58 0 88 -5 117 -20
93 -47 243 -61 324 -30 29 11 27 12 -122 103 -137 83 -151 95 -152 120 -1 118
-174 204 -425 212 l-110 4 -127 248 c-70 136 -127 252 -128 256 0 4 24 -10 53
-32 72 -53 151 -96 222 -119 50 -16 96 -20 280 -23 380 -7 440 -2 525 42 27
13 170 142 170 153 0 1 -81 -10 -180 -25 l-180 -26 0 30 c0 16 -7 43 -15 61
-45 95 -200 98 -457 11 l-100 -34 -232 86 c-127 47 -295 109 -374 139 -78 29
-149 51 -157 48 -23 -9 -52 51 -79 165 -37 156 -86 419 -86 460 0 20 14 65 31
101 16 35 37 98 44 139 23 116 62 188 155 285 72 74 143 133 183 150 8 3 2 13
-13 27 -22 19 -33 21 -98 17 -96 -7 -219 -66 -296 -142 -68 -69 -84 -105 -107
-244 -10 -65 -34 -181 -54 -260 -39 -160 -41 -201 -23 -423 6 -80 9 -153 5
-162 -5 -14 -23 -4 -104 60 -252 197 -492 322 -627 325 -99 3 -139 -31 -153
-128 -5 -39 -12 -51 -45 -74 -64 -46 -132 -65 -228 -63 -48 0 -104 8 -128 17
-61 22 -43 3 46 -49 106 -62 188 -88 265 -83 l61 3 22 -39 c41 -72 79 -362 72
-545 l-3 -85 -27 41 c-146 221 -484 475 -760 572 -182 63 -366 80 -499 46 -88
-23 -205 -86 -286 -154 -365 -306 -503 -872 -323 -1327 58 -145 161 -283 245
-327 l30 -16 -41 -1 c-60 0 -142 27 -201 66 -137 93 -218 283 -242 572 -25
285 36 698 128 880 101 198 447 469 716 561 50 16 210 70 356 120 638 215
1000 356 1314 511 690 341 995 704 995 1186 0 124 -25 213 -116 418 -142 319
-187 492 -187 726 -1 121 3 158 22 225 74 261 242 369 436 281 97 -44 222
-173 290 -299 l29 -55 -58 -53 c-165 -151 -155 -303 28 -421 211 -136 478 -85
575 109 59 118 74 342 33 492 -76 278 -242 467 -472 535 -136 41 -620 59 -785
30z m155 -7094 c15 -30 65 -143 111 -250 45 -107 127 -283 181 -390 l98 -195
-64 -61 c-82 -77 -161 -119 -251 -134 -39 -6 -101 -26 -140 -45 -38 -18 -151
-62 -250 -99 -227 -84 -241 -91 -282 -146 -104 -142 -157 -439 -151 -848 2
-122 0 -222 -4 -222 -3 0 -31 23 -62 51 -127 116 -166 265 -140 530 6 68 6 71
-22 100 -64 67 -198 16 -349 -135 -141 -141 -236 -297 -304 -503 -29 -86 -29
-87 -30 -43 -2 176 164 498 356 686 79 79 149 108 238 101 69 -5 137 14 245
68 52 26 82 51 126 102 146 173 261 396 321 627 22 84 27 124 27 238 1 75 -2
140 -6 144 -5 4 -81 -65 -170 -152 -360 -354 -594 -479 -748 -401 -38 19 -110
94 -110 115 0 4 21 6 47 4 257 -18 685 294 1197 871 67 75 69 77 89 60 10 -10
32 -43 47 -73z m1305 -2960 c24 -27 23 -76 -4 -128 -31 -60 -126 -158 -206
-211 -108 -73 -196 -124 -202 -118 -3 3 20 57 50 119 48 99 64 122 130 184 74
71 197 173 208 174 3 0 14 -9 24 -20z"/>
<path d="M7905 12099 c-224 -21 -398 -99 -520 -230 -80 -87 -118 -173 -123
-279 l-4 -86 -81 -28 c-211 -75 -610 -304 -763 -437 -185 -162 -250 -307 -191
-422 l24 -47 -126 -105 c-242 -200 -476 -363 -568 -395 -27 -10 -41 -7 -104
20 -85 38 -126 36 -172 -7 -44 -41 -147 -201 -147 -228 0 -61 89 -113 231
-134 69 -11 81 -10 130 9 30 11 118 59 194 106 363 224 963 544 1020 544 22 0
25 -4 25 -34 0 -45 -27 -107 -104 -235 -35 -58 -109 -190 -164 -293 -116 -215
-158 -280 -238 -363 -121 -126 -137 -252 -43 -346 35 -35 44 -39 89 -39 43 0
54 4 84 34 31 32 76 126 76 162 0 40 123 240 224 364 84 103 293 311 461 460
77 67 192 176 255 241 124 128 182 164 277 176 70 8 186 -24 334 -92 68 -31
185 -84 259 -117 74 -33 136 -61 138 -63 3 -2 -12 -115 -34 -262 -4 -25 -10
-33 -25 -33 -40 0 -80 -31 -102 -78 -20 -42 -22 -63 -22 -207 1 -122 6 -188
23 -279 13 -65 20 -126 17 -136 -9 -28 -176 -182 -235 -217 -67 -39 -174 -69
-203 -56 -18 8 -7 23 117 144 76 74 145 148 152 166 20 46 17 172 -6 283 -38
176 -133 428 -264 695 l-64 130 -1 -135 -1 -136 -45 -12 c-121 -32 -99 -122
99 -415 163 -241 164 -245 85 -332 -49 -53 -247 -210 -255 -202 -2 2 -11 41
-20 87 -35 186 -107 351 -186 426 -119 115 -192 101 -358 -68 -109 -111 -200
-232 -259 -348 -53 -103 -94 -200 -87 -207 2 -2 60 41 130 96 69 56 128 101
130 101 2 0 6 -11 10 -23 9 -37 45 -77 69 -77 56 0 164 165 205 314 l18 68 67
-72 c91 -98 147 -210 147 -291 0 -87 -36 -159 -95 -192 -11 -6 -85 -14 -165
-18 -164 -8 -226 -24 -265 -71 -52 -61 -25 -127 109 -268 58 -61 106 -123 132
-170 144 -264 398 -925 520 -1357 l9 -32 120 111 c356 326 614 444 897 409
319 -41 600 -179 771 -380 82 -96 131 -201 113 -246 -5 -14 -15 -6 -51 46
-167 240 -432 388 -700 392 -186 2 -314 -50 -441 -178 -66 -66 -90 -99 -128
-176 -103 -211 -123 -389 -59 -520 106 -214 421 -354 608 -270 55 25 78 53
123 151 110 237 81 425 -78 505 -49 25 -159 23 -230 -4 -64 -24 -60 -24 -60
-11 0 31 49 130 82 166 53 58 109 78 197 72 117 -9 237 -75 375 -207 219 -212
403 -532 521 -908 37 -121 64 -233 55 -233 -5 0 -80 32 -167 71 -591 266 -729
301 -1173 301 -242 0 -331 -11 -410 -50 -130 -64 -133 -180 -12 -417 85 -166
373 -578 548 -784 154 -182 148 -171 64 -110 -188 139 -533 360 -676 432 -85
43 -98 71 -114 235 -6 59 -17 177 -25 262 -29 298 -41 323 -277 556 -182 179
-261 242 -338 269 -23 8 -63 33 -88 56 -89 79 -185 106 -282 79 -48 -13 -133
-68 -125 -80 3 -6 43 -10 88 -10 101 0 148 -12 190 -50 27 -23 35 -41 45 -92
22 -118 101 -237 229 -349 77 -66 220 -136 297 -145 l59 -7 -7 -111 c-3 -61
-6 -204 -6 -318 0 -115 -3 -208 -7 -208 -5 0 -78 125 -163 277 -85 152 -162
284 -170 295 -34 41 -314 118 -433 118 -58 0 -88 5 -117 20 -93 47 -243 61
-324 30 -29 -11 -27 -12 122 -103 137 -83 151 -95 152 -120 0 -63 45 -112 140
-155 88 -40 155 -53 285 -57 l110 -3 127 -248 c70 -137 127 -253 128 -257 0
-4 -24 10 -52 31 -73 54 -132 87 -208 115 -60 23 -82 25 -290 28 -385 7 -444
2 -530 -42 -27 -14 -170 -142 -170 -152 0 -2 81 9 180 24 l180 26 0 -30 c0
-43 26 -90 63 -112 26 -16 49 -20 122 -19 94 1 161 15 303 65 l84 28 151 -56
c84 -31 252 -93 375 -139 122 -46 229 -81 237 -78 23 9 52 -51 79 -165 37
-156 86 -419 86 -460 0 -20 -14 -65 -31 -101 -16 -35 -37 -98 -44 -139 -23
-116 -62 -188 -155 -285 -72 -74 -143 -133 -183 -150 -8 -3 -2 -13 13 -27 63
-54 278 12 388 119 68 67 91 116 112 246 10 61 34 179 54 262 40 166 42 199
24 420 -6 83 -9 158 -5 167 5 14 24 3 104 -60 250 -196 493 -322 627 -325 99
-3 139 31 153 128 5 39 12 51 45 74 64 46 132 65 228 63 48 0 105 -8 130 -17
l45 -16 -30 26 c-16 14 -73 46 -125 72 -90 44 -100 47 -180 48 l-85 1 -21 37
c-41 73 -79 359 -72 545 l3 85 27 -41 c50 -76 157 -190 250 -269 397 -333 836
-450 1131 -303 468 235 696 906 487 1435 -57 145 -159 280 -245 328 -30 17
-30 17 37 12 237 -18 385 -243 418 -637 23 -279 -34 -677 -124 -864 -62 -130
-211 -280 -403 -407 -169 -112 -218 -133 -568 -251 -1190 -401 -1681 -627
-2024 -931 -253 -225 -375 -462 -388 -756 -7 -162 10 -233 113 -464 142 -320
187 -493 187 -726 0 -117 -4 -160 -21 -223 -85 -312 -316 -404 -539 -216 -63
53 -147 157 -188 232 l-29 55 58 53 c165 151 155 303 -28 421 -211 136 -478
85 -575 -109 -59 -118 -74 -342 -33 -492 79 -289 253 -479 494 -540 170 -43
651 -53 809 -17 506 115 612 509 349 1296 -29 85 -56 163 -61 172 -7 13 -4 20
12 29 64 34 172 -63 257 -228 93 -183 144 -388 145 -583 0 -226 -74 -381 -214
-445 l-34 -16 40 6 c107 17 304 105 446 200 309 206 453 461 361 640 -23 46
-112 134 -163 161 l-34 19 145 7 c326 15 622 124 767 281 48 52 69 89 77 137
11 58 1 64 -90 46 -281 -53 -575 -42 -777 31 -284 100 -447 321 -407 550 70
405 642 663 1363 615 204 -14 471 -47 555 -68 88 -23 132 -65 132 -126 0 -66
-42 -139 -134 -233 -202 -206 -555 -404 -719 -405 -49 0 -45 -18 9 -45 49 -25
180 -25 294 0 223 48 569 198 795 345 476 311 742 682 762 1065 9 179 -38 374
-127 531 l-30 52 51 113 c130 288 182 514 183 789 0 162 -10 241 -49 401 -122
491 -509 950 -1045 1238 -52 28 -92 51 -88 51 4 0 60 -17 125 -39 241 -79 444
-202 613 -371 131 -132 220 -256 310 -435 169 -338 258 -721 286 -1232 8 -141
10 -142 74 -34 186 314 234 985 103 1441 -87 304 -242 501 -444 565 l-69 21
89 12 c275 37 327 121 287 467 -9 77 -19 187 -22 243 l-7 104 -40 -49 c-172
-207 -313 -271 -535 -244 -151 18 -156 21 -71 43 307 80 585 353 530 520 -23
70 -120 132 -246 159 -33 7 -61 13 -63 15 -2 1 10 45 27 96 61 191 62 336 4
455 -67 135 -245 222 -455 223 -43 0 -78 4 -78 9 0 5 7 25 15 45 64 153 58
379 -16 566 -142 358 -563 728 -883 775 l-49 8 63 -89 c270 -383 353 -568 405
-904 26 -163 31 -630 11 -990 -27 -482 -29 -510 -36 -510 -8 0 -98 118 -142
186 -164 254 -251 617 -233 969 7 149 19 216 44 246 14 18 21 20 38 11 41 -22
138 -246 204 -471 19 -66 23 -72 35 -56 41 56 58 304 29 440 -42 198 -173 333
-343 352 l-57 6 -52 106 c-61 126 -72 171 -48 194 9 10 27 17 41 17 63 0 231
-95 294 -166 17 -20 33 -34 36 -31 10 10 -18 104 -49 162 -18 33 -65 95 -106
138 -149 157 -312 195 -444 105 l-27 -19 -101 93 c-141 129 -153 167 -76 233
83 71 244 109 436 103 102 -3 135 -8 175 -26 27 -12 51 -21 53 -19 11 12 -47
60 -114 95 -143 73 -320 112 -517 112 -192 0 -312 -42 -372 -131 l-30 -45 -94
53 c-52 29 -98 61 -102 70 -3 10 -7 50 -7 88 -2 162 100 260 305 296 114 20
313 -4 396 -47 43 -22 34 -2 -27 59 -222 222 -622 206 -881 -35 -58 -55 -132
-144 -169 -206 -7 -11 -144 47 -238 101 -114 66 -216 107 -259 107 -13 -1 -40
-7 -60 -14 -21 -8 -38 -12 -38 -10 0 2 10 29 21 60 26 68 79 131 134 155 127
58 328 -29 474 -206 l33 -40 -17 40 c-95 233 -305 435 -496 476 -76 16 -212 6
-282 -20 -104 -41 -226 -133 -335 -254 -24 -27 -45 -47 -47 -45 -11 11 29 153
62 218 117 239 422 371 697 300 102 -26 168 -63 239 -132 53 -52 127 -178 127
-215 0 -7 5 -13 10 -13 6 0 10 22 10 49 0 96 -110 263 -243 369 -89 71 -218
138 -312 162 -83 21 -181 24 -330 9z m-1035 -974 c0 -3 -22 -53 -49 -110 -56
-119 -103 -174 -249 -293 l-93 -75 -22 21 c-73 73 59 254 288 394 105 65 125
75 125 63z m2540 -1110 c-49 -248 -306 -624 -469 -686 -42 -16 -71 -20 -116
-16 -69 5 -137 -14 -245 -68 -52 -26 -82 -51 -126 -102 -146 -173 -261 -396
-321 -627 -22 -84 -27 -124 -27 -238 -1 -75 2 -140 6 -144 5 -4 81 65 170 152
361 354 594 479 748 402 38 -20 110 -95 110 -116 0 -4 -21 -6 -47 -4 -258 18
-681 -290 -1197 -871 -67 -75 -69 -77 -89 -60 -26 24 -59 91 -158 323 -45 107
-127 283 -181 390 l-98 195 64 61 c84 79 162 120 257 135 41 6 84 18 97 26 27
17 282 119 406 162 48 17 101 40 116 51 71 51 133 200 171 415 21 115 23 162
24 417 0 159 3 288 7 288 17 0 116 -104 145 -151 59 -98 77 -233 57 -430 -6
-68 -6 -71 22 -100 39 -41 90 -40 180 6 200 100 407 387 486 675 l12 45 4 -35
c2 -19 -2 -62 -8 -95z"/>
</g>
</svg>
