<?xml version="1.0" standalone="no"?>
<!DOCTYPE svg PUBLIC "-//W3C//DTD SVG 20010904//EN"
 "http://www.w3.org/TR/2001/REC-SVG-20010904/DTD/svg10.dtd">
<svg version="1.0" xmlns="http://www.w3.org/2000/svg"
 width="1104.000000pt" height="1280.000000pt" viewBox="0 0 1104.000000 1280.000000"
 preserveAspectRatio="xMidYMid meet">
<metadata>
Created by potrace 1.15, written by Peter Selinger 2001-2017
</metadata>
<g transform="translate(0.000000,1280.000000) scale(0.100000,-0.100000)"
fill="#000000" stroke="none">
<path d="M6719 12777 c-50 -33 -81 -100 -76 -164 4 -52 49 -153 106 -238 34
-49 91 -189 91 -222 0 -14 16 -54 36 -90 32 -56 84 -230 84 -279 0 -26 -39
-15 -158 45 -65 32 -140 66 -167 74 -28 8 -78 31 -112 51 -34 20 -68 36 -77
36 -8 0 -41 12 -73 26 -32 14 -83 30 -113 34 -30 5 -139 29 -243 54 -246 59
-386 82 -587 97 -141 10 -186 9 -315 -5 -82 -9 -156 -16 -163 -16 -6 0 -32 31
-56 69 -49 76 -75 97 -168 141 -51 24 -157 54 -165 47 0 -1 -4 -18 -8 -37 -6
-32 -4 -36 27 -52 18 -9 40 -18 49 -21 16 -5 49 -89 49 -125 0 -28 -50 -70
-116 -97 l-59 -24 -8 51 c-9 62 -39 104 -104 147 -69 46 -141 64 -216 56 -99
-12 -157 -42 -157 -83 0 -4 25 -16 55 -26 110 -35 181 -114 171 -194 -5 -38
-61 -162 -73 -162 -3 0 -27 16 -53 35 -116 85 -245 85 -379 1 -42 -27 -101
-98 -101 -123 0 -16 0 -16 72 1 142 34 238 -50 238 -208 l0 -48 -72 8 c-106
11 -146 7 -215 -25 -96 -45 -174 -137 -197 -234 -6 -26 -5 -28 16 -22 13 4 42
19 65 32 60 35 145 40 190 12 54 -34 138 -219 131 -290 -3 -31 -8 -34 -88 -65
-93 -36 -141 -79 -179 -157 -21 -45 -39 -167 -25 -167 5 0 38 25 72 55 58 50
67 55 111 55 37 0 58 -7 95 -32 59 -38 152 -160 161 -209 7 -36 6 -37 -50 -69
-41 -23 -66 -47 -89 -84 -68 -108 -93 -206 -65 -257 14 -26 28 -14 68 56 35
62 31 58 99 78 52 16 52 16 110 -14 71 -38 112 -76 112 -105 0 -13 -19 -44
-42 -71 -64 -75 -78 -113 -78 -225 0 -75 4 -100 16 -112 33 -34 64 -11 64 46
0 31 8 47 38 80 35 37 45 42 94 46 43 3 65 -1 99 -17 67 -33 103 -51 119 -61
8 -6 33 -19 55 -31 49 -27 115 -80 115 -94 0 -6 -16 -34 -36 -64 -57 -84 -74
-129 -73 -196 0 -133 32 -199 86 -179 27 9 28 12 25 64 -3 44 1 62 20 89 54
81 163 100 270 48 31 -15 87 -38 125 -51 37 -13 95 -36 128 -51 40 -18 84 -29
130 -32 61 -5 78 -11 135 -47 36 -24 109 -66 164 -96 54 -29 112 -65 130 -80
17 -15 51 -37 76 -50 25 -12 77 -44 117 -71 39 -27 90 -53 113 -58 23 -5 48
-18 56 -29 15 -22 188 -131 264 -166 27 -13 70 -42 95 -65 41 -38 134 -91 160
-91 6 0 16 -9 23 -20 6 -11 29 -28 49 -39 21 -10 49 -31 62 -45 14 -14 47 -37
75 -50 28 -13 78 -44 111 -69 33 -25 148 -99 255 -164 107 -65 230 -147 273
-181 43 -34 84 -62 92 -62 7 0 34 -28 58 -62 25 -35 73 -94 106 -131 90 -100
171 -273 171 -364 0 -18 5 -52 11 -75 26 -94 -54 -308 -158 -427 -82 -93 -220
-172 -361 -206 -56 -14 -96 -17 -180 -12 -228 12 -501 102 -948 314 -77 36
-81 39 -72 63 18 48 2 65 -149 171 -187 130 -224 160 -257 207 -43 62 -36 96
32 162 31 30 86 69 122 87 54 27 61 33 45 40 -35 14 -158 7 -215 -12 -93 -30
-132 -54 -206 -126 -82 -81 -91 -82 -162 -5 -49 53 -65 87 -56 122 6 24 97
114 115 114 5 0 13 10 18 22 5 14 25 28 57 39 l49 16 -48 8 c-35 5 -67 3 -114
-10 -199 -54 -346 -196 -347 -335 -1 -52 -2 -55 -25 -52 -12 2 -122 39 -243
83 -122 43 -244 81 -272 85 -28 3 -71 12 -96 20 -25 7 -99 20 -165 29 -66 8
-152 24 -191 35 -88 25 -402 65 -629 80 -144 10 -195 10 -335 -4 -91 -9 -182
-19 -202 -22 -33 -5 -38 -4 -38 14 0 49 -27 52 -385 42 -138 -3 -165 -2 -192
13 -71 38 -79 109 -29 237 19 47 32 87 31 88 -9 9 -76 -33 -113 -71 -51 -52
-112 -153 -112 -184 0 -13 -7 -38 -17 -56 -18 -35 -24 -159 -10 -189 7 -14 -6
-24 -75 -59 -103 -52 -171 -58 -213 -19 -36 34 -58 117 -53 206 3 72 3 73 -17
60 -39 -26 -87 -144 -100 -245 -11 -86 -11 -101 7 -165 11 -38 29 -87 40 -107
11 -21 18 -48 16 -60 -4 -32 -79 -69 -138 -69 -39 0 -51 5 -78 32 -41 44 -72
115 -80 190 l-7 61 -22 -40 c-26 -47 -55 -151 -48 -173 3 -9 9 -49 14 -89 18
-140 101 -258 199 -283 24 -6 46 -17 49 -25 3 -7 -4 -42 -15 -76 -41 -119 -82
-314 -82 -384 0 -132 19 -287 44 -361 47 -138 113 -231 289 -409 89 -89 175
-168 192 -174 16 -7 39 -20 50 -29 11 -9 65 -41 120 -69 55 -29 114 -64 132
-77 18 -13 53 -33 79 -44 26 -12 78 -43 115 -70 66 -48 204 -120 230 -120 7 0
26 -11 43 -24 51 -38 126 -72 204 -91 39 -9 83 -26 96 -36 13 -10 57 -30 97
-45 156 -55 296 -106 339 -124 63 -26 228 -77 275 -85 22 -4 67 -22 100 -40
33 -18 82 -38 110 -44 54 -13 411 -151 460 -177 17 -9 73 -32 125 -51 52 -19
146 -59 208 -89 62 -30 124 -54 137 -54 13 0 27 -4 30 -10 11 -18 270 -138
343 -158 40 -11 138 -54 217 -96 79 -41 162 -80 184 -87 22 -7 38 -16 35 -20
-2 -5 21 -21 53 -38 32 -16 67 -38 77 -50 11 -12 23 -21 28 -21 17 0 94 -67
333 -288 255 -237 395 -393 486 -542 29 -47 63 -99 76 -116 13 -17 23 -35 23
-39 0 -5 18 -38 39 -74 21 -36 45 -84 51 -106 7 -22 21 -51 31 -64 11 -13 19
-31 19 -40 1 -9 8 -34 16 -56 18 -49 39 -155 59 -298 14 -101 13 -112 -5 -189
-26 -109 -62 -177 -138 -259 -75 -81 -163 -141 -250 -170 -55 -18 -80 -20
-225 -17 -138 3 -172 7 -227 27 -145 52 -241 119 -416 291 -142 139 -347 406
-389 506 -9 21 -26 50 -39 64 -13 14 -55 75 -94 135 -64 99 -105 143 -419 457
l-348 346 -235 152 c-129 84 -246 157 -260 162 -58 23 -162 49 -270 68 -63 11
-140 28 -170 37 -47 15 -93 18 -306 18 l-251 0 -36 -28 c-95 -72 -93 -207 3
-258 28 -15 55 -19 130 -18 52 0 111 -4 130 -10 19 -6 57 -11 84 -11 55 0 176
-33 221 -60 17 -10 53 -24 80 -31 60 -14 97 -32 115 -54 8 -9 35 -27 60 -40
46 -24 122 -81 215 -163 27 -24 60 -48 72 -53 13 -5 23 -16 23 -26 0 -10 25
-37 55 -60 30 -23 62 -57 71 -75 9 -18 43 -67 74 -108 72 -95 111 -156 192
-302 59 -106 64 -118 47 -123 -63 -20 -124 -108 -145 -208 -31 -148 19 -274
56 -143 13 46 49 86 76 86 18 0 19 6 -16 -98 -37 -110 -40 -190 -10 -217 26
-24 39 -12 60 53 19 58 59 87 86 60 16 -15 16 -20 -1 -70 -10 -30 -20 -96 -23
-153 -4 -90 -2 -102 15 -118 19 -17 20 -16 36 43 15 52 22 63 51 77 19 9 44
13 57 10 31 -8 111 -89 152 -153 101 -160 136 -212 177 -256 36 -41 49 -49 71
-46 30 5 33 0 167 -282 40 -83 76 -143 108 -179 l48 -54 -24 -16 c-47 -29 -89
-82 -121 -149 -30 -61 -33 -75 -32 -162 0 -86 3 -102 33 -170 18 -41 37 -79
40 -83 4 -5 23 -6 41 -2 l34 6 -4 79 c-4 95 19 154 71 185 75 44 215 7 308
-81 64 -61 202 -141 275 -159 28 -7 77 -25 110 -39 35 -15 79 -26 105 -26 25
0 77 -7 117 -17 67 -15 78 -15 155 0 103 20 223 59 306 98 68 33 182 122 182
143 0 7 11 18 25 24 14 6 25 18 25 26 0 8 9 17 19 21 26 8 151 131 151 148 0
7 13 23 29 35 18 13 58 76 107 169 43 81 90 169 106 195 15 27 35 74 44 105 9
32 23 67 30 78 35 55 88 355 100 565 l7 126 58 11 c122 23 210 90 260 197 30
65 49 178 31 189 -5 4 -26 -14 -45 -39 -44 -56 -90 -91 -139 -106 -54 -16
-115 10 -173 74 -51 56 -66 99 -129 369 -29 121 -49 181 -92 268 -29 62 -60
134 -68 160 l-14 48 35 18 c19 10 50 36 69 58 44 48 101 165 110 222 6 46 -14
135 -39 169 -13 17 -16 12 -41 -55 -51 -138 -98 -180 -184 -164 -40 7 -120 46
-164 78 -61 45 -238 278 -238 313 0 13 18 44 44 73 63 70 89 146 84 243 -3 68
-6 81 -30 104 l-26 27 -22 -72 c-25 -85 -65 -136 -122 -153 -35 -10 -48 -9
-111 12 -73 25 -66 20 -289 223 -62 56 -71 83 -39 114 27 26 47 138 42 233 0
14 -11 41 -22 60 l-21 35 -19 -62 c-24 -78 -73 -143 -121 -161 -34 -13 -40
-12 -81 8 -25 13 -93 59 -151 104 -147 113 -313 215 -433 265 -56 23 -122 55
-146 71 -54 34 -401 205 -437 215 -54 15 -267 109 -296 131 -17 12 -88 47
-159 78 -70 30 -191 93 -269 140 -77 46 -190 111 -251 144 -60 34 -132 78
-160 100 -27 22 -112 82 -188 133 -103 69 -162 118 -235 193 -157 164 -202
243 -243 434 -26 118 -22 198 17 315 24 74 33 88 93 147 41 40 92 78 133 98
186 91 452 80 756 -32 23 -9 120 -36 215 -61 169 -43 271 -79 365 -129 47 -25
194 -92 308 -140 73 -30 241 -120 264 -141 9 -8 23 -15 31 -15 20 -1 196 -97
330 -181 41 -26 104 -61 140 -79 35 -18 78 -45 95 -60 18 -15 65 -40 105 -55
90 -34 188 -82 213 -104 10 -9 122 -70 250 -136 127 -66 256 -135 286 -152 30
-18 75 -40 100 -50 114 -42 256 -106 305 -137 29 -19 70 -39 90 -45 21 -5 45
-16 54 -24 9 -7 35 -19 59 -26 23 -6 78 -29 121 -50 43 -20 114 -46 159 -57
93 -22 111 -44 35 -44 -51 0 -244 55 -310 88 -21 11 -69 29 -108 42 -38 12
-89 31 -112 42 -24 10 -76 31 -115 47 -412 163 -553 238 -691 368 -71 66 -108
79 -126 45 -7 -13 -5 -28 6 -51 18 -37 193 -204 239 -227 16 -8 47 -32 69 -53
22 -21 74 -60 115 -86 41 -26 99 -67 129 -92 63 -51 93 -68 140 -78 18 -4 42
-16 52 -26 10 -10 28 -19 39 -19 10 0 23 -6 27 -14 11 -19 140 -86 166 -86 12
0 28 -9 35 -20 7 -11 19 -20 27 -20 8 0 59 -18 113 -41 107 -45 460 -139 520
-139 51 0 337 -74 370 -96 15 -10 45 -23 67 -30 22 -6 39 -17 37 -23 -1 -6 6
-14 15 -18 41 -15 113 -87 137 -136 54 -109 55 -211 6 -312 -25 -51 -117 -120
-188 -141 -68 -20 -196 -12 -332 22 -52 13 -98 24 -102 24 -5 0 -8 -18 -8 -40
0 -26 5 -40 13 -40 7 0 29 -9 50 -20 21 -11 70 -31 110 -44 40 -14 91 -32 115
-40 31 -12 63 -15 120 -10 85 6 135 25 201 75 24 19 57 43 73 55 34 25 100
115 121 166 18 44 50 47 55 5 6 -52 -70 -163 -154 -223 -95 -68 -83 -111 33
-121 148 -12 273 30 378 129 99 92 136 155 161 274 25 119 21 159 -25 281 -57
147 -98 187 -296 286 -186 92 -502 208 -636 231 -32 6 -69 31 -58 39 2 2 67
11 144 21 158 19 323 66 412 117 133 76 335 257 348 312 4 14 13 28 21 31 22
9 131 237 179 377 49 143 75 296 75 440 0 94 -32 282 -66 389 -87 276 -406
696 -861 1135 -125 122 -266 252 -313 290 -47 39 -112 93 -145 121 -142 119
-425 324 -500 362 -22 11 -49 30 -60 42 -11 13 -51 43 -90 67 -38 25 -88 62
-110 83 -22 20 -98 77 -170 127 -71 49 -189 138 -260 198 -226 191 -630 499
-685 522 -37 16 -92 61 -224 183 -44 42 -133 121 -196 176 -163 142 -416 412
-483 514 -31 47 -80 120 -111 164 -72 102 -90 157 -91 271 0 135 19 186 106
279 59 63 86 83 156 116 80 38 90 41 187 42 l102 2 120 -58 c321 -156 321
-156 397 -237 40 -41 106 -115 147 -164 41 -48 85 -98 97 -110 13 -12 39 -62
59 -110 l37 -89 -12 -70 c-23 -127 -24 -166 -6 -294 16 -118 21 -134 71 -229
32 -61 71 -119 96 -143 53 -50 320 -230 342 -230 9 0 33 -11 54 -24 44 -27 66
-86 77 -201 14 -142 52 -285 101 -380 53 -103 76 -132 121 -151 49 -21 59 -17
77 26 21 54 20 69 -8 122 -34 65 -79 291 -64 324 11 24 13 20 35 -58 12 -46
22 -104 23 -130 0 -35 9 -62 37 -110 54 -92 113 -168 132 -168 9 0 22 -12 28
-28 20 -45 144 -159 180 -167 28 -6 38 -2 63 23 51 51 40 93 -69 266 -34 53
-68 110 -76 126 -25 48 -95 322 -89 347 15 59 114 -2 207 -127 57 -76 177
-209 196 -215 9 -3 41 -39 70 -80 30 -41 60 -75 67 -75 7 0 40 -29 73 -64 34
-35 77 -72 96 -82 19 -10 94 -79 167 -153 73 -74 153 -153 176 -177 24 -24 78
-64 120 -90 43 -26 116 -73 163 -105 68 -45 99 -60 150 -69 110 -20 168 0 269
95 30 28 78 69 105 90 131 102 189 210 151 282 -20 39 -44 54 -146 87 -106 35
-254 106 -480 229 -148 80 -201 116 -345 233 -169 136 -244 215 -343 356 -24
35 -39 64 -34 66 13 4 126 -62 186 -110 27 -21 61 -41 75 -45 14 -3 39 -20 56
-37 32 -32 95 -84 145 -120 15 -12 72 -57 126 -101 153 -124 237 -185 256
-185 10 0 18 -4 18 -10 0 -12 59 -50 161 -104 42 -23 105 -61 140 -85 35 -25
110 -67 167 -94 95 -45 108 -49 162 -45 65 5 114 32 186 103 22 22 61 57 86
77 34 28 51 51 63 88 9 27 41 87 71 132 53 82 54 84 54 161 0 51 -5 88 -15
107 -16 30 -66 61 -120 74 -16 4 -60 21 -96 37 -37 16 -91 34 -120 39 -30 6
-101 31 -159 55 -58 24 -135 55 -171 68 -36 14 -104 49 -150 78 -46 29 -122
70 -169 92 -104 48 -360 205 -483 296 -51 37 -139 113 -198 169 -58 56 -126
118 -152 138 -25 20 -73 73 -107 119 -50 69 -70 88 -115 111 -68 33 -114 29
-160 -16 -50 -49 -89 -37 -145 45 -32 46 -37 74 -19 92 14 14 63 -7 78 -34 9
-16 12 -16 57 2 66 28 87 60 87 133 -1 69 -8 84 -79 172 -44 55 -54 75 -64
130 -15 88 -42 140 -99 193 -63 59 -116 85 -207 102 -40 8 -82 20 -93 27 -26
16 -54 69 -81 153 -12 39 -36 106 -53 150 -52 134 -285 571 -386 725 -82 124
-103 148 -141 168 -56 28 -98 28 -141 -1z"/>
<path d="M5975 12612 c-17 -10 -39 -35 -50 -55 -17 -33 -18 -41 -7 -84 23 -86
57 -148 101 -182 24 -19 53 -50 65 -70 19 -30 45 -46 142 -91 66 -30 188 -90
272 -133 132 -67 157 -77 187 -71 67 12 69 47 8 143 -20 31 -68 94 -108 141
-39 47 -89 108 -111 137 -59 79 -224 207 -314 244 -96 41 -145 46 -185 21z"/>
<path d="M10450 7973 c-14 -2 -63 -23 -110 -45 -66 -32 -101 -57 -155 -112
-128 -129 -139 -152 -206 -422 -33 -132 -66 -261 -74 -289 -8 -27 -23 -84 -35
-125 -11 -41 -34 -109 -50 -152 -17 -42 -30 -87 -30 -98 0 -35 -105 -308 -174
-453 -60 -126 -171 -322 -202 -356 -14 -16 1 -71 19 -71 39 2 89 44 160 135
90 117 77 98 255 385 77 124 156 245 177 270 20 25 55 74 77 110 64 102 187
218 286 268 55 27 97 42 122 42 60 0 163 -37 211 -75 24 -19 50 -35 57 -35 6
0 12 -6 12 -12 0 -7 14 -33 30 -57 17 -24 30 -52 30 -61 0 -10 7 -31 15 -46 8
-16 20 -55 26 -86 10 -51 13 -56 30 -48 22 12 33 52 54 187 28 188 20 252 -50
398 -33 70 -59 106 -110 157 -77 77 -123 102 -244 133 l-86 22 30 15 c45 24
114 31 180 19 74 -14 183 -75 210 -118 11 -18 28 -32 38 -33 10 0 17 -8 17
-20 0 -31 28 -80 46 -80 8 0 19 12 24 26 15 38 12 191 -6 264 -32 138 -141
271 -271 333 -62 29 -78 32 -173 33 -58 1 -116 0 -130 -3z"/>
<path d="M575 5860 c-145 -29 -277 -100 -386 -209 -95 -95 -124 -141 -160
-255 -34 -109 -36 -171 -8 -262 38 -122 67 -175 164 -290 96 -114 96 -114 140
-114 l45 0 -25 56 c-22 49 -25 71 -25 168 0 111 0 113 36 172 59 98 115 148
221 194 69 31 112 43 166 47 l72 6 -89 -94 c-76 -80 -96 -109 -138 -199 l-49
-104 -1 -126 c-1 -116 1 -131 30 -213 20 -58 49 -112 82 -157 90 -121 293
-300 341 -300 9 0 19 -7 23 -15 5 -15 51 -20 80 -9 13 5 11 14 -18 53 -94 129
-139 284 -116 397 32 155 149 267 321 306 71 17 313 16 414 0 44 -7 114 -17
155 -21 41 -5 109 -21 150 -36 41 -14 100 -32 130 -39 78 -19 172 -46 193 -58
23 -11 108 -37 257 -77 63 -17 176 -47 250 -67 452 -122 504 -134 589 -134 89
0 99 5 121 57 21 51 -15 76 -147 103 -119 25 -337 100 -408 140 -29 17 -88 42
-131 56 -85 27 -325 145 -464 227 -47 27 -148 83 -225 125 -77 41 -194 109
-260 152 -66 42 -159 100 -206 128 -47 28 -173 110 -280 182 -214 144 -284
174 -471 205 -98 16 -305 18 -373 5z"/>
</g>
</svg>
