<?xml version="1.0" standalone="no"?>
<!DOCTYPE svg PUBLIC "-//W3C//DTD SVG 20010904//EN"
 "http://www.w3.org/TR/2001/REC-SVG-20010904/DTD/svg10.dtd">
<svg version="1.0" xmlns="http://www.w3.org/2000/svg"
 width="1280.000000pt" height="1066.000000pt" viewBox="0 0 1280.000000 1066.000000"
 preserveAspectRatio="xMidYMid meet">
<metadata>
Created by potrace 1.15, written by Peter Selinger 2001-2017
</metadata>
<g transform="translate(0.000000,1066.000000) scale(0.100000,-0.100000)"
fill="#000000" stroke="none">
<path d="M9583 10547 c-27 -15 -79 -86 -103 -142 -10 -23 -39 -79 -64 -124
-26 -45 -103 -188 -173 -319 -69 -130 -145 -265 -169 -300 -29 -43 -45 -78
-49 -110 -13 -97 -141 -507 -202 -643 -20 -45 -32 -59 -66 -76 -51 -25 -187
-149 -187 -171 0 -13 12 -14 80 -8 52 4 80 3 80 -4 0 -5 6 -10 13 -10 6 0 25
-11 41 -23 l29 -24 -27 -74 c-69 -187 -425 -773 -616 -1014 -59 -74 -234 -244
-350 -340 -75 -63 -93 -73 -160 -89 -41 -10 -164 -52 -272 -92 -248 -93 -272
-99 -450 -114 -200 -17 -259 -12 -341 28 -76 38 -139 101 -264 269 -156 209
-452 513 -553 568 -53 29 -61 30 -197 33 -272 7 -373 -42 -373 -180 0 -24 -8
-64 -17 -91 -14 -40 -15 -54 -5 -92 7 -25 12 -80 12 -123 0 -53 6 -90 19 -117
27 -60 42 -68 109 -61 243 26 282 20 333 -48 45 -59 99 -190 98 -236 0 -19 -8
-53 -18 -75 l-18 -40 -184 -3 c-101 -1 -199 -3 -216 -4 -24 -1 -99 32 -275
120 -271 135 -545 308 -885 560 -103 76 -239 171 -301 211 -120 78 -135 98
-109 146 9 19 29 33 62 44 68 22 67 37 -2 56 -32 8 -72 20 -89 25 -17 6 -54
10 -82 10 -42 0 -69 9 -147 49 -143 73 -447 259 -523 319 -38 30 -83 56 -106
62 -86 20 -951 317 -1013 348 -21 10 -64 27 -95 37 -48 16 -62 17 -97 6 -52
-15 -53 -31 -1 -31 42 0 107 -27 129 -54 8 -9 24 -16 38 -16 30 0 27 -13 -22
-115 -82 -170 -259 -311 -895 -712 -157 -99 -313 -198 -347 -220 -41 -27 -82
-44 -125 -52 -159 -31 -233 -58 -290 -109 -69 -63 -63 -80 15 -38 68 35 164
54 194 38 12 -7 32 -4 68 10 l51 19 85 -25 c84 -24 159 -34 402 -56 68 -6 140
-19 170 -30 130 -49 185 -180 158 -375 -6 -44 -30 -158 -53 -253 -42 -171 -43
-173 -78 -194 -56 -34 -146 -126 -175 -179 -35 -65 -27 -84 16 -38 46 49 118
99 141 99 11 0 42 19 69 43 l49 43 157 17 c583 65 861 70 1062 21 96 -23 234
-92 327 -162 114 -86 265 -248 401 -429 101 -135 114 -157 108 -181 -7 -27 -6
-243 1 -251 8 -8 16 9 50 109 19 56 32 110 29 121 -8 24 48 53 153 80 154 40
817 36 1112 -7 173 -25 470 -102 470 -123 0 -19 -334 -170 -452 -205 -31 -9
-92 -31 -135 -50 -43 -18 -94 -36 -114 -40 -20 -3 -53 -21 -75 -40 -21 -18
-50 -38 -62 -45 -13 -7 -31 -29 -40 -50 -10 -20 -26 -47 -38 -59 -27 -29 -51
-119 -35 -135 6 -6 11 -26 11 -45 0 -33 24 -97 41 -107 4 -3 5 20 2 51 -5 42
-3 55 5 50 7 -4 12 -14 12 -22 0 -25 32 -90 37 -76 4 10 9 9 24 -4 22 -20 24
-9 4 26 -28 49 -12 111 52 210 38 59 65 80 102 80 18 0 51 5 72 12 22 6 42 8
46 4 4 -3 -5 -31 -20 -62 -15 -30 -27 -65 -27 -78 0 -13 -9 -43 -20 -67 -38
-86 -16 -87 37 -4 15 24 35 46 45 48 9 3 31 34 49 68 73 150 67 146 204 160
49 6 137 21 195 34 58 14 155 34 215 45 61 11 157 36 215 56 58 20 117 36 132
36 56 1 518 -252 518 -284 0 -4 -11 -8 -25 -8 -31 0 -93 -25 -118 -48 -22 -20
-77 -124 -77 -146 0 -8 -32 -30 -74 -50 -98 -47 -164 -110 -313 -294 -67 -85
-144 -171 -171 -192 -69 -55 -135 -201 -147 -325 -10 -105 -33 -260 -51 -348
l-17 -77 -53 -16 c-32 -9 -61 -25 -73 -40 -11 -14 -38 -39 -61 -55 -22 -16
-40 -35 -40 -43 0 -7 -10 -21 -21 -32 -45 -40 -79 -97 -79 -132 l0 -35 23 34
c31 47 106 102 126 93 28 -12 64 -5 88 18 31 29 29 15 -7 -56 -17 -32 -30 -65
-30 -72 0 -7 -21 -57 -47 -111 -39 -82 -59 -110 -122 -173 -42 -41 -119 -104
-170 -139 -68 -46 -97 -73 -107 -97 -8 -20 -35 -49 -63 -69 -76 -55 -80 -91
-21 -180 22 -33 40 -68 40 -79 0 -39 24 -96 51 -122 31 -30 47 -28 30 4 -6 12
-11 30 -11 42 l0 21 30 -21 c32 -23 110 -39 110 -24 0 5 -14 17 -30 26 -17 9
-30 22 -30 29 0 8 3 9 14 0 35 -29 176 -54 176 -31 0 6 -7 10 -15 10 -8 0 -15
5 -15 10 0 6 -6 10 -13 10 -7 0 -23 14 -36 30 -17 24 -20 38 -15 66 5 28 2 42
-14 63 -38 52 -33 61 38 85 36 11 80 32 98 45 18 13 35 21 37 19 15 -15 55
-81 55 -91 0 -19 21 -37 42 -37 12 0 18 -8 18 -24 0 -37 17 -40 24 -5 4 20 -2
50 -16 87 -24 65 -27 126 -7 164 17 32 216 256 238 267 14 8 16 2 13 -47 -2
-40 1 -63 12 -77 15 -19 15 -19 16 9 0 16 7 52 16 81 13 40 23 54 45 62 16 6
33 23 40 40 55 138 66 153 184 250 38 32 126 109 195 171 69 63 136 120 151
127 l26 14 17 -137 c21 -175 40 -265 77 -367 87 -240 335 -559 536 -688 224
-145 456 -230 843 -307 177 -35 418 -96 535 -136 160 -53 357 -167 450 -261
79 -79 212 -305 255 -433 98 -292 113 -376 111 -648 0 -122 3 -211 9 -223 15
-28 68 -26 80 3 18 43 69 253 91 373 18 103 20 143 16 285 -7 193 -22 267 -79
398 -78 177 -158 276 -321 400 -268 202 -630 376 -1087 522 -275 88 -362 135
-499 265 -155 149 -263 348 -323 596 -40 166 -28 521 23 653 10 27 50 104 89
171 38 67 70 125 70 128 0 3 18 37 40 76 60 105 99 212 117 321 l17 97 101 12
c294 35 411 81 554 217 135 128 217 248 371 539 263 498 331 585 544 689 226
111 462 196 706 256 287 70 1029 150 1391 150 l169 0 26 -39 c14 -22 39 -44
55 -50 17 -6 59 -38 94 -71 35 -35 66 -57 69 -51 8 12 -23 76 -65 138 -16 23
-29 46 -29 52 0 5 -20 24 -44 40 l-43 30 -8 178 c-15 380 35 643 156 820 79
115 222 239 459 399 167 113 280 179 485 284 l160 83 81 -6 c62 -4 86 -2 100
8 21 16 137 20 195 6 43 -10 68 -1 47 17 -21 17 -106 51 -157 63 -25 6 -85 11
-132 11 l-87 -1 -133 123 c-182 166 -253 246 -295 330 -42 86 -55 160 -43 240
18 108 58 178 275 482 43 61 103 152 133 201 54 90 55 91 107 102 28 7 60 21
70 33 30 33 131 78 206 93 77 14 87 20 70 37 -20 20 -168 14 -239 -11 -34 -11
-69 -21 -76 -21 -8 0 -50 -17 -93 -37 l-79 -38 -645 0 c-457 0 -686 4 -785 13
-293 28 -605 76 -821 127 -114 27 -324 93 -338 106 -6 5 -3 16 6 26 9 10 16
30 16 45 0 15 9 44 21 64 24 41 17 59 -16 41z m-3850 -6528 c-25 -46 -125
-149 -145 -149 -12 0 -13 87 -3 137 8 34 66 59 148 62 l28 1 -28 -51z"/>
</g>
</svg>
