<?xml version="1.0" standalone="no"?>
<!DOCTYPE svg PUBLIC "-//W3C//DTD SVG 20010904//EN"
 "http://www.w3.org/TR/2001/REC-SVG-20010904/DTD/svg10.dtd">
<svg version="1.0" xmlns="http://www.w3.org/2000/svg"
 width="1178.000000pt" height="1280.000000pt" viewBox="0 0 1178.000000 1280.000000"
 preserveAspectRatio="xMidYMid meet">
<metadata>
Created by potrace 1.15, written by Peter Selinger 2001-2017
</metadata>
<g transform="translate(0.000000,1280.000000) scale(0.100000,-0.100000)"
fill="#000000" stroke="none">
<path d="M10 12791 c0 -28 117 -92 219 -120 107 -30 268 -132 403 -255 159
-144 266 -230 462 -369 206 -145 306 -227 491 -401 94 -88 201 -175 325 -263
192 -137 268 -205 343 -309 73 -100 160 -187 402 -399 323 -284 385 -359 544
-655 46 -85 184 -321 306 -525 122 -203 252 -425 289 -493 272 -499 419 -1009
490 -1687 27 -258 40 -469 61 -1030 9 -220 20 -416 26 -435 6 -19 25 -50 42
-67 l31 -33 -85 -39 c-152 -70 -244 -88 -282 -54 -18 17 -19 17 -12 -22 4 -22
16 -47 26 -57 10 -9 19 -20 19 -25 0 -11 -43 -53 -53 -53 -3 0 -19 25 -33 55
-15 30 -30 55 -34 55 -6 0 -63 -111 -58 -115 38 -31 158 -34 249 -5 82 25 166
66 292 142 l101 61 195 2 c128 1 262 10 386 24 252 30 389 26 466 -12 69 -35
92 -66 97 -137 3 -41 -3 -75 -23 -135 -33 -101 -67 -162 -225 -410 -70 -110
-135 -216 -146 -235 l-19 -35 -3 28 c-4 36 -29 35 -77 -3 -33 -26 -47 -30
-109 -32 -122 -3 -139 -1 -164 28 l-24 27 -30 -31 c-25 -24 -31 -40 -33 -79
-2 -46 -2 -46 4 -8 l6 40 28 -52 27 -53 -35 0 c-33 0 -35 -2 -35 -31 0 -29 2
-31 28 -26 15 4 99 18 187 32 88 14 241 39 340 55 99 17 189 27 200 25 11 -3
139 -32 285 -65 504 -115 863 -212 1200 -323 752 -249 1337 -568 1820 -995
158 -140 1692 -1678 1787 -1792 175 -211 294 -376 669 -927 153 -226 259 -393
295 -465 l55 -113 18 26 c81 125 35 331 -192 864 -81 191 -188 476 -272 725
-17 52 -56 167 -86 255 -30 88 -86 273 -125 410 -151 539 -216 721 -553 1567
-233 586 -308 763 -396 939 l-52 102 36 69 c45 87 49 156 13 209 -37 55 -77
63 -242 49 -77 -7 -173 -13 -212 -13 l-73 1 -132 82 c-73 46 -204 121 -291
168 -86 46 -157 90 -157 97 0 8 8 125 17 262 20 295 22 874 4 1103 -19 255
-36 335 -102 515 -34 91 -31 236 9 435 36 174 54 324 43 353 -6 17 -15 9 -53
-49 -129 -194 -176 -357 -198 -674 -8 -125 -16 -170 -60 -330 -33 -122 -53
-214 -57 -270 -5 -80 -7 -87 -41 -122 -20 -21 -42 -38 -49 -38 -7 0 -13 -4
-13 -9 0 -15 -89 -76 -168 -116 -102 -52 -183 -75 -293 -82 l-95 -6 -123 124
c-430 432 -713 858 -1182 1774 -78 154 -160 308 -181 343 -21 34 -38 72 -38
85 0 12 11 48 24 80 28 71 23 121 -21 175 -45 55 -72 71 -141 83 -39 7 -74 20
-90 34 l-26 22 -17 -21 -17 -21 -11 27 c-12 32 -85 114 -115 130 l-21 11 20
-24 c11 -13 2 -8 -19 11 -21 19 -51 51 -65 70 -43 56 -726 728 -836 822 -374
319 -1221 860 -2010 1283 -120 64 -258 143 -305 175 -114 77 -206 126 -385
205 -82 37 -208 96 -279 132 -70 35 -187 91 -260 123 -72 32 -165 74 -206 93
-41 19 -86 38 -100 42 -33 10 -164 75 -170 85 -12 18 -248 126 -460 212 -260
105 -462 165 -651 192 -119 18 -259 21 -259 7z m8347 -6512 c55 -27 128 -108
177 -200 33 -61 42 -90 57 -193 9 -67 16 -123 14 -124 -5 -6 -146 92 -227 157
-122 98 -277 274 -304 345 -7 20 57 34 160 35 62 1 89 -4 123 -20z m497 -516
c23 -155 21 -170 -16 -140 -13 10 -17 43 -20 192 -5 196 -1 191 36 -52z"/>
</g>
</svg>
