<?xml version="1.0" encoding="utf-8"?>
<!DOCTYPE svg PUBLIC "-//W3C//DTD SVG 1.1//EN" "http://www.w3.org/Graphics/SVG/1.1/DTD/svg11.dtd">
<svg version="1.1" id="Layer_1" xmlns="http://www.w3.org/2000/svg" xmlns:xlink="http://www.w3.org/1999/xlink" x="0px" y="0px"
	 viewBox="0 0 1783.0276 1665.2234" enable-background="new 0 0 1783.0276 1665.2234" xml:space="preserve">
<g>
	<g>
		<path d="M558.3314,266.9252c-0.0067,0.7535-0.0753,1.4912-0.0927,2.2417c0.2325-0.5512,0.5066-1.0686,0.7337-1.6249
			L558.3314,266.9252z"/>
		<path d="M1685.5974,774.526c-18.1523-13.0143,1.7422-29.1152-6.988-41.8281c-28.3707,9.1957-36.7877,21.4935-36.3296,59.5471
			c0.4019,33.3569-13.8779,60.8428-29.8387,88.0825c8.6442-28.5438,5.5227-57.029-1.1946-85.5297
			c-6.6951-28.4073,3.6523-61.6964-24.2421-84.5562c-5.5858-3.0691-12.3508,4.9802-19.0063-2.4819
			c-2.4542-7.9525-5.397-17.4849-8.0388-26.0424c0.1862-7.8943,10.7902-4.2203,10.7183-11.5973
			c-1.5225-31.0535-21.4109-56.8483-27.9985-84.4601c6.5144-6.4757,13.2969,2.6952,15.8009-4.6005
			c-9.0044-39.4478-50.7209-55.7186-62.5671-91.5963c6.4155-8.5998,17.2742-0.1901,22.7802-8.1994
			c-72.797-93.4281-142.2103-156.4289-184.2494-164.6643c62.1499,76.2704,93.6534,161.6063,100.8188,261.0315
			c-11.6266-8.9946-12.1029-17.1446-13.0657-25.2479c-9.5619-80.4917-44.7017-149.3344-93.0555-213.4109
			c-56.6299-75.0433-132.6068-115.1094-222.479-134.2451c-26.9188-5.7317-53.9626-3.1712-79.9126-4.3154
			c-2.7452-5.563,0.174-11.5043-6.8275-13.2572c-10.6826-0.513-21.9618,6.3645-33.2928,0.7313
			c12.6304-9.738,27.3939-17.9646,27.6115-40.044c-14.8542,10.7239-27.7586,21.1526-45.0947,20.5875
			c-22.3293-0.7276-44.4557-0.2664-64.8555,12.4244c6.1274-13.4466,18.1779-22.8319,18.2438-40.1061
			c-18.2787,13.2807-18.2787,13.2807-35.4985,15.7065c34.9422-34.1696,53.7335-74.4016,57.7492-123.8423
			c-2.8883,3.0089-4.6036,4.013-5.1229,5.4495c-24.912,68.8558-73.2954,111.6497-143.7523,130.3916
			c-14.6822,3.9052-29.5969,7.7526-42.1439,17.11c-5.2009-13.5551,6.3215-19.4581,13.2229-26.8735
			c5.6248-6.0441,13.0664-10.3967,24.5169-19.2011c-23.0132,3.1231-33.1859,15.397-43.8934,25.8734
			c-20.3668,19.9261-36.3585,43.2847-51.2792,67.5577c-11.2839,18.3553-21.7898,37.8235-40.1833,50.1454
			c-9.5949-5.822,1.2328-18.3546-9.9106-23.3227c-24.7057,41.5536-64.3133,62.592-106.3799,81.1078
			c10.8915-23.2656,17.7855-46.6843,18.3795-71.683c-21.4109,50.6698-69.0184,79.5481-100.9701,120.7934
			c-5.7807,0.3621-3.2921-8.7906-10.4098-7.5054c-20.1236,35.0658-17.8124,73.7372-12.7748,111.5042
			c4.6385,34.7783-0.1035,67.1207-13.147,98.8151c-4.2186,10.2496-7.2185,20.1743-4.0822,31.0917
			c13.2101-18.5528,25.215-38.3979,51.1583-50.7813c-11.2631,29.9509-21.0958,56.0961-30.9056,82.1808
			c-1.5641-12.0838,1.3551-23.8145,6.1771-36.674c-20.8465,5.3403-21.9041,27.7654-40.086,37.59
			c1.5197-63.5591,33.2733-123.2211,9.8683-185.9872c-9.6472,7.7462-5.4911,18.3828-12.5652,26.8661
			c-17.4503-46.3857-32.1204-90.2119-18.8041-138.1906c2.334-8.4124,7.4106-16.4395,6.1113-25.7639
			c-9.0419,2.4446-11.5547,10.8976-14.5861,17.8752c-14.4874,33.3388-21.206,68.2138-15.1088,104.3815
			c2.0048,11.8903,2.8702,23.0637,0.9668,33.5964c-8.0778,5.5849-12.0008-6.2339-21.0461-0.3191
			c17.1782,45.8731-19.703,67.6491-44.2119,95.1151c-6.3511-0.6406-6.9572-10.605-13.3586-6.6443
			c-15.6833,41.8187,5.7888,85.9862-11.4055,127.9924c-7.0116-24.2582-16.6649-46.731-33.1604-65.5374
			c-33.9089-38.6589-50.2035-84.5616-55.6503-134.8954c-1.0992-10.1552-1.4935-20.2943-12.3529-27.157
			c-14.3147-1.2409-27.7788,1.6965-38.3284,14.8626c0.5334,3.7029,0.2083,7.6371,1.677,10.7162
			c20.4931,42.9733,18.1026,89.7859,18.6294,134.9535c0.4542,38.9116-8.9586,78.0754-22.2749,115.3785
			c-14.8099,41.4858-19.6211,83.4604-9.7958,126.9208c3.2122,14.2102,4.6049,28.9952,1.0743,45.7303
			c-11.2691,9.3637-13.2269,25.0345-16.7932,40.2822c-7.1143,2.9904-13.6872,5.7535-20.7068,8.7039
			c-4.3201,24.5737-23.8766,35.8207-42.1661,47.9693c-8.8652,28.5652-4.2556,53.618,16.251,79.4907
			c4.269-15.8566-0.5482-29.0016,5.7222-43.0475c14.0029-7.2269,29.6593-15.3074,47.1909-24.3557
			c9.2112,35.0833,9.1481,75.353,57.463,80.304c0.9157-10.5233-5.9406-16.3658-8.6569-23.7899
			c-5.7128-15.6145-12.1036-31.8459-6.8214-48.1373c6.1852-19.0775,6.3894-37.3753-0.2714-55.5109
			c6.9632-4.7202,11.3672-11.519,20.0121-9.1454c6.2913,6.7217,8.9183,16.34,20.3191,22.5225
			c4.748,1.1498,12.6102,3.0546,19.1978,4.6503c17.672,21.5718,11.298,44.2928,5.2412,68.4644
			c16.8194-8.3657,19.1608-24.4608,28.9727-35.6899c12.3851,7.7341,24.9288,11.9443,39.3275,11.3225
			c14.449-0.6238,25.3305,7.0448,35.9312,17.0975c13.409,12.7157,19.8455,31.1012,36.298,44.6681
			c4.0527-41.5677-26.2873-60.9963-44.6735-86.691c-17.0572-5.9863-33.454-11.6423-48.7503-19.9744
			c-9.6721-5.2694-19.226-9.9842-24.0258-21.2473c-12.9931-30.4888-42.1136-49.1857-53.9828-78.9414
			c-12.1278,3.4624-14.8307,16.251-25.8223,13.5437c-11.9323-29.8834-9.3315-58.5817,9.2347-83.8252
			c24.0164-32.6538,24.791-65.0231,6.3961-100.0701c-6.2987-12.0011-11.1536-25.6685-3.9888-39.8495
			c3.4305,13.1732,4.5458,27.2181,15.6477,36.4929c14.2858,11.934,19.4141,28.0399,23.8094,45.1945
			c6.7065,26.1751,8.0677,52.3072,3.8518,78.9559c-2.9569,18.6923-2.193,37.2255,12.7271,51.1563
			c13.4346,12.5444,24.746,26.7129,34.6614,41.1049c17.3098,6.17,34.4887,9.7212,44.4786,26.6907
			c11.3907,19.3496,29.5525,26.1848,51.6574,23.7315c13.0899-1.4526,25.4145,0.5056,36.4472,8.8188
			c14.4887,10.9174,30.5032,10.8079,47.0585,5.1938c7.7163-2.6166,15.4763-5.5677,23.7228-3.9576
			c16.212,11.8446,22.3649,28.1349,24.9382,47.1886c2.9132,21.5681,1.3142,44.2098,13.3109,64.0002
			c10.2808,16.9587,13.5474,35.692,13.4258,55.2817c-0.1673,27.0858-8.2484,54.3607,2.7781,81.287
			c1.7582,4.2931-0.516,10.9812-2.496,15.9348c-9.3006,23.2666-3.5064,44.8807,6.1106,66.2987
			c13.2653,29.5408,18.7248,61.1854,23.6146,92.7894c3.847,24.8546-6.3438,44.5966-26.6434,59.2815
			c-5.0672,3.6653-12.1594,4.8175-15.7128,14.0953c-1.1899,26.7455-10.8123,55.0375-9.9127,84.6445
			c0.7095,23.3462,5.7101,30.6416,27.414,38.9901c14.4195,5.5459,28.882,7.2877,47.8379-1.5466
			c-19.2784-4.9741-34.4665-9.7611-35.5496-31.1298c15.7464-16.4485,18.6993-36.9785,9.23-57.4354
			c18.9855-40.4629,18.9855-40.4629,67.1096-60.7101c15.8552-32.5023,28.8538-40.3363,58.6146-34.2731
			c-4.1279,11.8544-13.3862,22.7479-7.3972,38.7799c2.6639,5.2029,12.4026,7.5715,15.3171,17.9067
			c4.2247,24.8915-15.0813,39.3943-30.8156,56.1848c42.4092,1.0189,52.9158-9.6694,68.0341-68.8252
			c9.273,0.121,17.5342,1.9827,23.102,10.7861c10.2661,16.2328,1.5815,32.5234-2.5659,53.0421
			c21.4337-15.9698,25.0201-36.0347,30.1061-54.8407c18.2249,1.947,34.4961,5.0806,43.112,27.8373
			c5.9104-42.0559-16.425-71.6014-58.0233-83.9788c-6.6346-4.9705-0.6652-14.6627-7.6767-19.957
			c-10.8748-3.3861-23.4977,0.4479-29.5888-3.2131c-13.5897-9.0154-12.3898-21.1096-19.9892-29.2559
			c-18.7651,7.7832-38.274,10.5791-58.2424,2.7708c-13.2344,18.3895-21.3202,40.5072-47.2668,44.9297
			c-11.9968-25.6215-15.6678-51.224-7.6176-77.7811c10.7122-35.3352,2.5685-71.9388,7.9078-107.6403
			c1.386-9.2664-3.3317-17.8682-8.1967-25.7908c-4.8441-7.8896-9.3563-16.0854-9.2462-25.5298
			c0.3514-30.2788-15.1196-61.3597,5-90.8384c2.6284-3.8495,0.991-10.7303,1.0219-16.209
			c0.092-16.4866,0.0329-32.9744,0.0329-45.2745c-4.7117-21.957-24.3052-26.0289-32.3542-38.626
			c0.7955-10.3251,13.448-7.8221,14.4195-18.5884c-45.4904-24.226-95.5199-29.8055-149.8386-29.8102
			c22.6606-32.5782,55.2096-31.5597,85.8371-34.5062c-2.0344-4.2613-3.1786-6.6565-4.2442-8.889
			c12.6505,0.3658,24.0937,3.5823,34.7964,15.9866c-15.209,1.7106-27.6377,2.9529-40.0242,4.5374
			c-19.2159,2.4577-19.2032,2.5565-33.6099,15.6517c56.257-0.9618,105.5717,13.3586,148.9632,49.8605
			c-11.5688,6.8066-23.9707-0.8055-35.3608,9.3076c25.6456,21.931,52.1647,42.5239,55.2519,77.019
			c-1.5298,8.0172-10.5482,9.7399-9.6063,22.0205c15.2331,22.5723,29.8293,50.0077,17.7371,83.0553
			c-7.8446,6.4347-19.9979,6.9666-24.1238,21.5745c10.1727,15.6232,15.0134,37.9407,35.9171,45.2828
			c19.3275-3.7466,6.6017-26.817,25.9144-29.908c23.6624,7.2977,39.9033,34.5186,69.4854,37.1617
			c1.3249-9.3722-10.985-11.1805-7.6552-20.7102c20.432-2.6542,43.9069,1.5319,65.4434-21.1935
			c-28.3438,4.7642-51.4175,10.1707-71.2079-6.6622c-2.6841-12.755-2.6841-12.755-13.9196-23.4248
			c-34.3187-32.59-44.0513-84.925-23.4883-126.2627c8.6509-17.3904,20.4333-30.4259,41.7105-30.2048
			c23.4446,13.4883,25.9386,19.9745,16.7946,43.7059c-2.6357,6.8396-5.7169,13.5245-8.0267,20.469
			c-15.2647,45.8951,18.6912,96.6704,66.5895,98.7008c22.287,0.9447,43.62-3.6075,63.0502-15.7686
			c17.2749-10.8123,31.4794-24.8293,45.9755-38.9506c18.6771-18.1943,38.1201-36.8439,70.1786-33.63
			c5.9399,44.4543-30.0685,61.9854-57.1606,89.7097c46.685-8.9852,78.6441-29.2499,97.6021-68.6355
			c-10.0773-4.6855-11.6911,11.3317-21.894,6.2242c6.5305-18.7118,10.1881-37.8179-6.9793-51.1136
			c-19.017-14.7285-38.1584-6.0793-56.0662,4.953c-0.78,0.4807-1.554,1.0004-2.3925,1.3531
			c-31.5614,13.2743-55.1115,39.2777-86.1408,53.6871c-21.9013,10.1703-41.6547,12.5934-59.8387-4.3114
			c-15.6746-45.0295-4.9839-69.8077,28.319-67.86c0.1827-21.7815-4.5189-32.798-15.7619-47.7813
			c-6.6971-8.9246-20.2015-9.187-23.8658-20.9073c-0.1411-0.0272-0.2828-0.0547-0.4246-0.082
			c8.2908-10.8059-10.2701-16.945-5.5079-27.1375c10.0363,2.076,19.0601,1.1015,28.0757-5.2875
			c12.1063-8.5793,26.6098-12.2118,41.1153-14.5885c7.3179-1.1993,14.6291,0.5775,24.093,8.5444
			c2.5544,1.9954-1.6675,11.5204,4.8105,16.167c11.4028-1.0179,12.1096-16.3363,23.1974-17.115
			c9.3583,9.2149-1.0233,18.6737,0.0369,27.2393c10.092,6.2621,16.5688-5.2684,24.4222-5.1784
			c4.3033,12.5675-0.8062,23.02-0.168,34.0077c18.0825-3.8236,17.2938-24.9473,30.3802-32.6599
			c6.4089,8.2558,1.118,18.5131,8.3566,26.4612c21.122-28.2652,18.6522-56.8432,7.8823-85.6587
			c-16.908-11.678-36.5721-5.7206-54.2703-8.8984c2.2803-12.7798,15.8989-7.4332,19.1675-17.6677
			c-20.3118-22.5298-46.4324-10.6577-69.8273-9.9291c-3.5669-7.7499,4.7272-15.4586-3.0677-22.1926
			c-16.3531,6.7902-33.0422,14.0661-55.8559,9.1531c14.5666-16.1267,5.6027-27.666-4.4894-39.0833
			c-10.7048-12.1096-16.507-26.1065-15.8889-42.5295c0.0745-1.9974-1.853-2.7418-4.1205-2.1735
			c-7.2447,3.2145-7.6995,13.8904-15.5106,16.0941c-14.3254-10.9147-11.0353-26.7095-13.0792-39.8414
			c-11.2208-0.8549-11.1656,12.154-19.3906,12.7953c-34.7077-105.8696-64.1191-212.5741-91.2153-319.9494
			c-1.7381-6.8893-1.6924-17.1835-16.0353-18.4839c1.4351,55.8132,21.0461,107.9144,27.0243,162.132
			c5.9675,54.1182,17.5094,107.7176,12.973,163.5893c-10.692-1.9323-16.2738-8.3116-23.0543-12.5403
			c-15.5254-9.6812-31.0266-21.6679-49.4181-22.456c-28.3513-1.2154-52.3649-9.3634-70.6591-33.285
			c-3.9734,13.1006,6.3403,20.8882,5.2781,30.8539c-34.138,11.6631-60.6322-2.6569-78.5608-41.2809
			c7.9871-32.4526,24.0668-59.1769,47.9904-81.4116c25.7088-23.8928,48.3835-50.1168,58.0314-83.8984
			c25.6974-12.9583,43.7355-32.0734,59.9409-50.7545c2.8137-22.6199-7.6068-44.6167,8.1228-63.4013
			c20.8089,6.6642,19.5109,29.8817,32.7109,43.1812c21.4404-6.8352,44.6714-8.6801,62.5779-25.007
			c6.5211-5.9453,15.2499-6.169,23.5253-5.5459c19.5189,1.4694,35.6819-5.2674,50.1706-18.0435
			c14.9093-13.1467,31.8214-20.4481,52.7056-19.0194c14.4604,0.9893,29.5162-0.257,41.9161-9.9983
			c11.9645-9.3993,25.0577-9.9708,39.0318-5.5946c19.1205,5.9883,37.8251,5.3474,56.0245-3.7853
			c6.6313-3.3274,13.8968-4.5653,24.6332-4.568c23.3203,14.8011,50.8196,22.0925,81.1985,6.4321
			c21.7892,24.1773,49.9369,22.715,79.7716,22.3633c20.9741,36.0037,58.3424,34.615,94.0237,36.514
			c8.4252,27.3485,27.3031,39.5451,52.2305,45.1353c13.4407,3.014,26.6212,7.934,33.0685,22.0331
			c1.1024,2.4099,1.427,5.1757,2.0289,7.4627c-3.3654,7.499-13.5951,6.7552-15.95,14.6993
			c-2.1829,8.0972-3.5138,16.8553-0.0564,24.3039c10.0376,21.6208,10.7887,44.1746,9.3724,67.2343
			c-1.1798,19.1988,5.2163,35.8808,16.7885,51.0703c3.491,4.5834,10.4395,7.9464,7.807,17.6646
			c-17.0544-10.1968-29.7419-24.0671-32.3044-42.164c-4.3335-30.6053-18.4191-57.1483-29.5458-84.9993
			c-14.8293-37.1201-43.2666-49.9348-81.7925-37.1157c-2.4885,0.8281-3.03,2.0764-0.7806,5.006
			c6.009,3.5363,13.0193,7.6616,22.1029,13.0072c-3.6328,20.9332,21.0245,22.365,30.5496,39.6103
			c-23.4978,3.6882-48.1617,3.3103-54.132,35.9c20.9056-10.5321,30.7505,8.0939,46.5413,9.0869
			c-10.045,28.4252-7.8729,57.0579,3.6294,56.8486c6.9449-2.8672,1.9269-12.4926,9.1353-16.1566
			c7.123-0.2674,14.5076-6.0461,23.3345-1.8248c1.5265,3.0865,3.8652,6.1815,4.6345,9.6268
			c6.3726,28.5195,15.8801,54.489,45.5455,67.6722c8.5541,3.8018,11.7158,13.707,16.0763,21.7516
			c4.9745,9.1786,10.8492,17.2026,24.2837,16.732c13.2827-8.7238,27.2804-18.4285,40.2822-31.1854
			c3.9048,13.7036-1.3948,23.0945-7.4799,32.4727c-20.608,31.7579-51.3846,45.824-87.5597,49.7057
			c-22.7715,2.4436-45.9298,1.9272-68.5105,5.3837c-59.5377,9.1135-90.489,73.4943-57.9481,122.8351
			c4.0111-21.5311,19.8159-26.9258,37.1923-31.853c23.3815-6.6299,45.608-1.9175,67.5336,4.692
			c35.8224,10.7992,71.4122,8.8807,104.9799-5.2076c40.6932-17.0781,77.6672-40.7932,105.9055-76.0706
			c4.3617-5.4502,7.6143-12.7785,17.283-14.4585c25.2203,26.9101,4.6627,52.0878-5.8385,79.6204
			c15.1626,13.6495,27.6553,29.7883,39.3812,46.0521c11.12-6.7441,19.8549-14.5448,30.0262-17.6757
			c19.6425-6.0454,29.629-20.1139,37.6659-37.159c7.7882-16.5204,17.2172-31.9497,31.6958-45.1256
			c8.6589,4.4128,16.6245,8.4722,24.8481,12.6633c1.4767,6.4069,2.8634,12.4224,4.4584,19.3459
			c26.2941-23.0693,14.8979-45.9012,3.6691-68.3149c9.3678-5.4105,13.4702-13.7779,18.4528-20.0363
			c8.3821-3.705,17.1802,5.2438,25.5199-4.786C1733.4414,771.9289,1708.688,771.1599,1685.5974,774.526z M763.7659,877.6649
			c-28.6845,1.8681-53.153,0.4901-75.2485-18.9086C712.4605,843.7674,733.0726,849.1137,763.7659,877.6649z M506.6222,846.0457
			c9.0244-9.0815-6.2604-12.7227-1.4022-22.1099c21.4331-5.2704,42.1842-23.8622,73.2115-9.0147
			c-18.538,9.7383-37.4852,3.0422-50.3204,16.5446c14.23,7.2733,32.2796,6.3797,47.5866,23.3751
			c-34.0714-0.9312-61.6796,13.3721-91.0984,14.0335c-40.5784,0.912-72.9937-19.09-100.3493-52.1943
			c-4.1353,27.2333,3.5071,45.3231,22.4637,60.4243c23.7893,18.9515,52.811,25.8633,79.6345,37.8157
			c-41.8006,1.5144-74.965-18.5081-101.349-47.6189c-19.9368-21.9977-21.9511-51.1858-11.4109-85.1161
			c17.4698,23.5877,33.9304,44.0862,57.3085,56.5694C455.4868,851.8858,481.2473,853.5043,506.6222,846.0457z"/>
		<path d="M417.0193,624.5446c-0.0706-0.2288-0.0988-0.4508-0.1646-0.6786c-0.1794,0.2523-0.3574,0.5066-0.5375,0.7585
			L417.0193,624.5446z"/>
	</g>
	<path d="M1349.8633,1147.1288c-15.355-56.9607-58.2766-70.3484-107.7557-77.9827c-53.3185-8.2267-99.34-32.36-127.1237-81.1447
		c-16.6825-29.2925-19.4967-60.8207-0.6646-91.2108c19.5316-31.5189,47.488-48.8379,89.3508-50.9165
		c-13.0397,18.6229-23.3444,34.3003-27.0154,53.4296c-8.0845,42.126,7.1091,71.9852,47.0697,87.381
		c18.708,7.2076,38.5913,11.3901,57.2327,18.7418C1337.5582,1027.7485,1369.0372,1090.9296,1349.8633,1147.1288z"/>
	<path d="M1361.7838,1059.5363c31.224,45.2272,49.0178,93.3461,29.0298,148.3126c-17.0026,46.7566-54.0469,64.1036-100.8872,65.7084
		c-32.1678,1.1023-63.9635-2.5554-95.7158-7.2346c-27.2778-4.0199-54.4451-4.7827-81.5337,2.6038
		c-50.0499,13.6475-68.1057,35.1593-71.5618,86.7374c-27.9153-27.3745-25.4647-80.6276,5.3956-105.3136
		c21.1128-16.8887,45.1003-27.6274,72.384-30.2064c31.0802-2.9379,62.1693-2.8662,93.2871-0.7996
		c30.3489,2.0156,60.1344-1.1445,89.8207-7.9396c60.8612-13.9307,75.4141-59.5872,69.6581-109.811
		c-1.6454-14.3568-6.1415-28.3868-9.3304-42.5668L1361.7838,1059.5363z"/>
	<path d="M1140.6097,793.2307c-25.8439,10.2523-53.2916,10.1378-80.5234,11.252c-19.2186,0.7863-38.4529,1.8034-57.6758,1.7189
		c-28.703-0.1262-34.1152-5.8596-36.2263-35.5353c-0.1927-2.7073-0.9045-5.3778-1.3272-7.7907
		c-6.0562-6.8278-16.5262-3.3876-24.0211-12.8421c-7.8818-19.6533-22.7092-39.3976-17.1931-66.8879
		c3.3075-16.4841-10.7668-32.2976-13.1861-50.7905c45.5338-7.6968,91.08,4.0096,131.9738-14.3635
		c18.0039,12.4719,21.6029,29.4456,26.3822,47.1634c-18.5743,20.9127-19.9233,47.3665-21.7939,72.5409
		c-15.1317,14.2046-36.1437,10.4365-51.1808,20.8523c10.6411,28.0701,14.4869,29.0704,75.1069,19.553
		c5.2687-4.5168,11.4392-9.8069,19.1217-16.3931c17.0125,8.2327,34.3705,16.6326,51.7285,25.0325
		C1141.4,788.9039,1141.0049,791.0673,1140.6097,793.2307z M987.8827,746.0574c22.9512-7.6456,28.1478-22.536,28.514-38.1279
		c0.459-19.5518,4.0725-39.8433-4.2149-58.3699c-7.8982-1.6946-14.0591-1.8656-19.1002,3.9189
		c-2.5372,7.8218-2.9966,15.8015-0.8951,24.2282c13.2745,5.9075,19.7735,15.9411,8.0155,27.1167
		C988.3082,716.1282,990.8344,728.9944,987.8827,746.0574z M945.8165,677.2311c8.8194,12.2272,19.0522,11.5835,30.9774,4.9094
		c1.804-9.7018,2.6614-19.271-0.8939-29.5058C956.632,650.3221,947.2117,658.5004,945.8165,677.2311z M970.5444,715.5161
		c-10.3523-2.0172-17.7794-0.9332-23.2206,8.2031c0.5817,13.8257,6.2524,22.3083,23.4058,20.5386
		C973.6355,734.4186,972.5148,725.7083,970.5444,715.5161z"/>
	<path d="M1195.1735,1626.3831c35.7477-76.7544,2.4954-130.5051-45.7622-179.5867c-18.0729-18.3815-41.9796-29.0735-62.9447-43.6655
		c-34.905-24.2944-42.2372-55.0785-22.7808-92.8701c12.3365,48.9943,44.9755,79.5941,86.4738,103.23
		c9.7679-10.4912-1.6436-18.6672,2.3025-28.6116c18.8673,3.7909,29.0386,19.1324,42.094,33.9285
		c10.116-26.6915-2.5487-46.5664-16.236-69.443C1255.4614,1398.1106,1263.5336,1542.2358,1195.1735,1626.3831z"/>
	<path d="M998.516,490.14c11.4592,5.1989,18.6171-0.3772,26.6909-2.6849c11.4166,4.6295,24.7479,6.0334,32.4708,17.6212
		c-1.7087,10.9466-13.5983,8.1593-19.369,15.7895c-2.4845,3.8723,6.8759,8.5305-1.4498,16.4968
		c-13.1112,8.4678-29.2515,19.5337-50.0729,25.8003c3.3896-17.8607,18.8751-27.1663,21.514-46.3362
		c-34.0932-7.5833-69.2653,0.9737-103.7108-9.8334c14.6337-12.1471,33.4683-6.6251,48.8658-14.3673
		c6.8827-16.6629-1.292-29.4341-12.9244-41.6258C973.5575,448.2447,983.62,455.3298,998.516,490.14z"/>
	<path d="M858.3442,598.6821c67.5272-22.4544,136.9906-7.1309,204.8289-35.4843c6.2556,2.3817,18.7273,7.1301,31.6147,12.0367
		c-0.0494,8.5018-3.9194,14.3058-10.5121,23.4476C1012.17,598.6821,937.7254,598.6821,858.3442,598.6821z"/>
	<path d="M947.551,563.4619c-9.4207-6.5485-15.0193-15.2459-14.3876-29.6299c11.4743,1.3693,21.7661,4.5384,31.0198,11.0333
		C963.3124,560.0646,963.3124,560.0646,947.551,563.4619z"/>
	<path d="M558.972,267.5419l-0.6409-0.6167L558.972,267.5419z"/>
	<polygon points="416.3175,624.6247 415.2185,625.0532 417.0194,624.5446 	"/>
	<path d="M1362.3302,1059.0269c-1.1799-0.6619-2.3599-1.324-3.6415-2.0428c3.7313-2.254,3.3722,0.198,3.0951,2.5522
		L1362.3302,1059.0269z"/>
</g>
</svg>
