<?xml version="1.0" encoding="utf-8"?>
<!DOCTYPE svg PUBLIC "-//W3C//DTD SVG 1.1//EN" "http://www.w3.org/Graphics/SVG/1.1/DTD/svg11.dtd">
<svg version="1.1" id="Layer_1" xmlns="http://www.w3.org/2000/svg" xmlns:xlink="http://www.w3.org/1999/xlink" x="0px" y="0px"
	 viewBox="0 0 2009.7124 1635.0793" enable-background="new 0 0 2009.7124 1635.0793" xml:space="preserve">
<g>
	<path d="M1064.7932,1392.4489c-11.7313-5.8062-23.9823,3.6445-32.5751-6.9248c-5.4681-7.8403,7.3348-12.5195,3.8295-20.697
		c-22.2654-9.5469-45.0578-18.2527-69.6733-19.3855c-24.0099,14.9089-47.359,30.4027-82.5664,18.578
		c37.8334-16.5134,52.4747-52.6841,81.7446-67.4346c4.5093-15.3456,1.9573-25.7161-0.9739-35.7361
		c-16.7398-22.9766-39.1552-36.5082-65.5601-45.0129c-39.2861-12.6541-79.7984-17.2196-120.5804-20.8599
		c-15.9212-1.421-31.8353-1.843-45.08-14.1661c-17.1396-15.9476-35.8516-30.2061-53.9911-45.2782
		c1.6008-25.7528-7.3309-52.9885,19.0677-75.1149c13.874,0.5391,24.9421-15.5509,42.215-14.4335
		c17.7531,1.4104,27.0098,18.6427,43.0555,23.2185c0.179-0.0729,0.362-0.1404,0.5433-0.2101
		c-0.123-3.9774,0.5497-8.4666-1.2949-11.339c-21.5605-33.584-58.5778-39.4564-92.5856-50.5222
		c-2.6624-0.8663-6.6669,0.3257-9.3276,1.8315c-35.9999,20.3737-66.3084,43.7729-52.7562,97.2585
		c2.6702,10.5405,11.9435,21.432,1.4921,34.6727c-28.6154-10.2633-56.0755,0.4818-84.9661,8.3
		c-16.0718-10.488-34.9637-14.4086-51.9345-19.1556c-10.7093-19.1107,3.891-33.2106,6.8956-50.0647
		c-38.1307,23.1082-41.9807,36.2341-29.2037,93.3348c14.2486,21.4091,34.7847,24.9341,57.3452,22.0143
		c20.2443-2.6198,40.3364-6.4377,60.5895-8.979c11.5933-1.4551,23.8025-2.229,28.3882,16.9242
		c-21.1489,9.9274-41.0328,22.2502-57.0368,40.5226c-19.5937-1.345-33.4937,12.8906-47.4047,17.3943
		c-27.6911-0.3706-28.7676-24.6766-40.2473-40.058c-8.1321,14.0044-5.7158,25.5745-4.4462,37.374
		c8.14,9.7251,13.3275,21.9623,25.1818,29.9584c7.6313,1.6443,16.1996,2.8243,24.3467,5.3562
		c44.5476,13.8444,50.3171,11.9604,80.8598-25.9495c12.8393-15.9351,26.8702-30.6512,47.6398-37.88
		c42.871,7.2012,88.2632,7.7137,123.4619,42.317c-66.7997,36.5651-71.2317,40.0558-89.2206,70.3119
		c1.175,29.8751,22.7182,45.2096,44.9963,61.2164c23.0549,16.5642,52.0781,17.0142,76.8229,28.7596
		c-4.2994,10.0583-11.2471,12.231-18.3509,15.1787c-60.6691,25.1766-122.2514,31.2229-185.6238,10.9309
		c-169.8486-54.3864-304.8952-146.4937-356.7611-330.7864c-20.089,10.2184-40.7394,15.8909-57.6251,28.1947
		c-24.4941,52.58-27.6036,103.1517-8.5154,133.6479c18.8367-40.7106,14.6602-51.6072,44.662-61.3848
		c13.5861,4.6182,15.7501,15.2924,16.3573,28.1111c1.0583,22.3751-9.5484,41.6499-14.523,62.4041
		c-10.9033,45.4786-9.845,88.7262,25.1518,124.7872c-1.6403-8.916-3.861-17.7921-4.4761-26.7783
		c-2.2712-33.2118,2.4329-63.738,32.0719-83.2963c19.1348,6.5944,19.4715,20.4108,18.3674,33.0852
		c-2.3145,26.5872,3.764,51.4906,13.482,75.512c13.1003,32.3794,30.7162,61.5034,64.6658,76.5513
		c-22.1299-33.7217-42.3734-66.8767-22.5889-109.6283c24.308,4.7782,27.1289,22.3827,30.3488,37.2748
		c8.9412,41.3481,35.582,70.2034,65.3156,96.9935c12.6997,11.4419,23.8506,26.5078,45.5239,27.7092
		c-47.5569-58.2362-54.197-72.342-47.9197-101.4666c24.6187-5.2158,34.5426,13.7542,44.1746,29.5267
		c13.5388,22.1709,28.4868,43.186,45.8685,62.1792c26.293,28.729,56.4193,51.7831,100.5064,56.2032
		c-71.3169-55.7383-73.2174-58.2954-65.7667-91.7537c44.5137,25.5288,78.0216,74.2356,137.1057,67.3389
		c-17.1664-19.2629-51.6869-22.0282-46.3188-60.7228c23.2615-3.708,39.5447,7.2288,53.9036,18.7069
		c32.4,25.899,67.7571,36.5007,109.8183,26.8402c-30.6098-8.9467-61.3-17.0055-64.9339-55.5277
		c22.2986-11.4171,26.5366-12.173,51.0087,1.7877c24.8032,14.1488,50.851,23.3262,79.1359,25.593
		c15.6373,1.2535,31.7943,2.3478,48.131-11.5045c-34.0378-5.6267-58.8759-17.5693-57.98-54.2672
		c21.4343-14.2828,21.4801-14.5668,51.6301-9.7007c35.1892,5.6796,69.4163,6.9275,103.2104-17.6064
		c-25.3513-1.0485-51.623,9.4365-62.3362-24.6013C999.6361,1415.7469,1039.1847,1421.3749,1064.7932,1392.4489z"/>
	<g>
		<path d="M1670.4298,307.3925c0.2445,0.1555,0.4875,0.314,0.7313,0.4712c0.0173-0.3528,0.0293-0.7017,0.0592-1.0635
			L1670.4298,307.3925z"/>
		<path d="M1845.5101,807.9094c-0.4492,0.1831-0.8992,0.341-1.3484,0.5181c0.2986,0.1104,0.5996,0.2131,0.896,0.3296
			L1845.5101,807.9094z"/>
		<path d="M1904.6239,648.5857c-7.8533-25.7312-4.397-50.7637-8.1436-75.1339c-8.9146-57.9858-30.1616-111.7621-52.8848-164.8834
			c-26.1526-61.1381-55.1299-121.2242-97.3894-173.3717c-44.9227-55.4338-101.689-85.7913-181.4917-79.042
			c106.9675,13.7888,198.3528,115.5662,191.1145,163.8311c-38.9558-27.2273-67.7754-61.6086-89.02-103.1262
			c0.3364,45.5244,29.9358,77.3879,51.3998,114.0879c-19.4388-1.7146-32.5913-13.7599-47.0476-23.0837
			c-0.8829,17.9508,14.3151,24.3613,25.4543,33.0293c18.9103,14.715,42.6234,20.2324,63.5863,31.1301
			c20.4922,10.6531,38.8984,23.2095,48.6018,48.4781c-21.1885-0.4667-30.1538-19.2677-47.7701-20.963
			c15.9999,24.5658,33.5319,47.2581,51.5314,69.5732c34.3411,42.5757,55.3032,90.9509,49.1638,145.6559
			c-7.2229,64.3608-64.0435,132.5805-130.7996,148.7155c-57.8032,13.9712-138.7455-12.2553-182.5795-69.4123
			c-41.014-53.4796-61.0278-115.6077-77.6643-179.0236c-7.9808-30.4222-17.4519-59.7064-31.9413-87.5217
			c-3.3099-6.3542-9.1343-12.4358-5.031-23.1396c43.687-8.3186,70.3047,22.3167,100.323,49.2688
			c-0.4247-5.4536-0.0728-7.7278-0.8489-9.5112c-1.704-3.9158-3.7483-7.731-6.0552-11.3298
			c-33.0764-51.6033-83.8423-71.2085-141.5972-78.0081c-37.2201-4.3821-74.663-6.8202-111.5941-13.7344
			c-14.5148-2.7174-27.0267-6.9558-32.1553-26.7588c26.0272-43.9642,68.1194-54.7539,117.6847-51.1042
			c-22.5435-13.9678-46.3523-15.6548-71.2-11.605c-42.4,6.9109-75.6581,29.6577-103.4126,60.9287
			c-25.0291,28.1997-51.4282,54.9185-80.9233,78.3156c-15.7083,12.4606-31.4277,26.8926-57.8463,22.0465
			c-23.2285-37.2366,1.0665-69.0435,16.6783-101.939c-9.6968-0.8878-13.1365,4.9966-17.5272,9.4178
			c-35.9974,36.2488-45.2817,82.2487-44.8039,130.5018c0.1843,18.6088-0.343,36.8943-5.8147,54.0693
			c-13.5171,42.4298-18.4447,86.1602-22.7576,130.0305c-1.6027,16.3021-5.8359,30.3404-23.1,34.7723
			c-15.8027,4.0567-29.631-1.9501-40.5649-13.74c-8.5394-9.2077-16.3435-19.0686-20.5795-34.1072
			c-6.8245,11.6244-4.5337,19.8602-1.9023,27.6054c9.3978,27.6614,21.4453,53.5411,43.4429,74.2516
			c24.1995,22.7833,48.7245,45.6296,62.8137,76.8854c10.5952,23.5046,8.5997,33.7689-10.0957,48.8973
			c-16.4713,1.2982-25.3199-13.6998-42.1656-21.2571c6.5229,26.2844,16.941,44.3266,36.3296,58.3027
			c19.5831,14.1165,40.7853,27.8016,47.0929,53.8571c-20.5858-1.4764-27.5747-28.3475-50.5283-28.069
			c-2.4351,21.7885,6.1919,41.0132,7.1776,59.8192c9.7272,11.6669,19.8052,18.8663,33.5956,17.2222
			c12.5034,0.3024,9.8048-16.2669,20.8196-17.87c7.6465,10.6041,6.5499,20.4022-2.8594,28.6269
			c-9.3199,8.1464-19.8099,6.2983-30.2278,1.6053c-19.3163-8.7019-34.0027-24.18-52.4807-38.2844
			c6.7175,28.8463,19.4064,46.3979,44.4305,66.1489c19.2684,15.2081,39.9557,29.3947,53.2057,50.6373
			c18.759,30.0746,8.9757,53.6876-24.4892,61.8818c-20.3134-5.2361-33.6615-16.9827-39.6144-43.1346
			c11.1095,9.9105,18.2208,16.2544,24.3782,21.7472c10.1829,1.2885,18.6978,2.4539,26.1823-3.0962
			c7.1903-29.0157-3.7321-45.9696-46.84-70.6367c-0.8431,21.3849-5.9874,40.6996-17.0425,53.9131
			c1.616,55.0095,53.9602,76.5905,65.6901,122.8164c20.8246-5.7485,38.7648,0.7178,55.4926-0.1798
			c9.465-9.9302,9.3445-20.9526,11.4736-31.3994c13.8586-67.9971-3.2379-132.3998-22.7246-196.436
			c-32.8557-107.967-64.9868-215.8256-71.8958-329.6988c-5.9824-98.6063,13.7045-185.8746,93.7044-251.9181
			c45.0079-37.1563,92.7542-65.4434,154.429-60.1926c125.2485,10.663,197.3217,114.429,195.3391,210.1047
			c-0.8461,40.8301-1.4619,81.6689-1.6752,122.5065c-0.0853,16.3582,2.8002,32.0486,17.9211,47.2534
			c-0.3334-26.6425-4.3876-49.7225,17.7655-64.6375c22.9648,6.3648,23.7109,24.1692,23.8589,41.5383
			c0.2012,23.6143-3.6147,47.4843,2.1416,70.7281c5.7848,23.357,12.0189,47.1573,42.0159,61.9056
			c-9.4404-26.7512-22.7-47.7991-14.4741-71.4069c7.9697-8.7878,15.6689-16.1813,25.926-19.6454
			c35.4138,0.4796,52.4731,10.4518,64.3533,37.4083c-24.0597-6.6609-44.0557-30.064-74.4906-20.2021
			c12.6575,28.5398,39.1146,39.6262,62.2382,65.3126c-32.9268,37.2942-65.606,76.8766-89.0569,124.5439
			c26.1804,24.6293,53.0237,40.2397,90.6038,26.4042c-8.583-9.2487-22.8849-3.7676-30.0355-19.9246
			c5.1191-12.1334,4.5978-29.0308,3.1298-45.3536c14.835-25.0875,29.1796-49.1276,56.7556-64.3097
			c10.1694,29.4791,22.5559,53.5392,16.2157,83.5242c-3.8926,18.4091,9.9351,31.7253,33.9813,37.6143
			c6.1255,3.4297,13.613-13.7589,25.0251-6.6293c-0.5808,13.6135-18.1515,11.9861-19.9626,23.6923
			c30.8286,40.3694,105.9607,30.868,129.2104-16.1782c-26.7422,11.2219-26.7422,11.2219-46.895,10.7581
			c-9.241-3.5939-4.291-17.1037-13.6783-19.788c-10.2015-1.2759-19.7861,8.9276-29.9495,0.0771
			c57.5834-34.0508,60.7789-37.2932,68.3966-70.3467c-18.8467,17.187-35.5579,37.2109-65.7778,26.7928
			c-5.1023-18.9534-19.2839-29.4536-36.2612-34.2742c-6.3384-12.3193-11.7405-22.8186-16.995-33.0307
			c-27.0552-17.8138-27.0552-17.8138-33.7349-46.3501c9.9645,9.313,17.3312,16.8049,25.347,23.5219
			c8.2134,6.8824,16.6587,13.6605,25.7512,19.2708c8.3562,5.1561,17.5236,9.7886,28.1074,5.9453
			c-12.6179-14.4653-34.7152-20.5483-34.1949-43.2925c5.411-13.3925,15.1553-16.19,26.8162-14.2412
			c13.7766,2.3022,27.7699,4.1252,41.1075,8.0601c25.3601,7.4821,49.9441,6.7392,74.3257-2.8689
			c-20.7197-7.6642-46.2539-0.9364-63.4026-18.7693c2.2939-9.8721,9.5142-11.0762,14.9702-13.7488
			c33.6987-16.5069,59.4031-42.8955,82.3728-71.0937c12.9551-15.9039,26.6169-26.4072,45.7297-32.7873
			c30.2878-10.1103,52.5173-30.0441,64.322-61.2323C1964.2299,632.6155,1942.9261,659.5762,1904.6239,648.5857z"/>
	</g>
	<path d="M1433.7661,575.674c-15.7062-9.6615-15.3173-25.1193-20.766-37.3754c-20.6803-46.5185-45.3206-89.96-85.4847-123.171
		c-28.5858-23.6372-60.1976-28.6182-93.7301-16.359c-65.4913,23.9431-106.4963,70.1923-121.6956,138.9581
		c-7.3467,33.2383-6.1869,66.2595-0.1978,99.313c13.4249,74.0907,29.3145,147.6151,47.2731,220.7888
		c17.6758,72.0216,32.5729,144.8883,30.6284,219.7327c-1.8162,69.9167-20.6168,135.4021-52.2518,196.495
		c-14.0381,2.9061-22.4274-3.7598-33.2275-11.4485c13.0376-38.9541,23.171-78.9243,25.7426-120.9987
		c2.95-48.2649-5.5063-94.1792-17.8442-140.0886c-25.347-94.3162-62.3776-185.4857-76.9827-282.6772
		c-10.3121-68.6238-14.408-136.5786,14.7681-202.9113c35.2831-80.2165,119.4102-147.1036,218.2772-143.621
		c35.0134,1.2334,63.1987,20.7451,90.3451,39.6197C1414.724,450.9387,1430.5811,509.4425,1433.7661,575.674z"/>
	<path d="M793.1993,874.2015c3.5369-9.0986,18.4991-6.4812,19.8556-18.4097c-6.271-7.7453-20.7916,1.869-23.6819-11.3839
		c2.8926-11.2515,16.9054-8.5414,21.223-17.4554c-2.4919-11.5779-19.7065-3.7596-21.0116-16.17
		c0.7799-6.6653,12.7975-5.8775,9.3253-14.9311c-7.5414-5.3676-20.3027,0.8268-24.8135-11.0393
		c-0.0173-7.2047,11.2156-7.338,9.4113-15.4642c-7.6826-6.9319-19.3776,3.5913-25.9105-5.8684
		c-4.8901-8.1656,11.0279-11.1758,4.4872-19.4482c-12.74-5.7004-24.3238,10.8741-35.9794,1.4277
		c-7.7307-7.5899,8.7614-12.9891-0.3359-21.5392c-24.7275,11.4746-33.0276,33.6905-35.8493,57.3325
		c-7.4405,4.8823-12.4237,11.0204-23.2552,8.1029c6.7528-26.7468,19.9706-48.5045,33.6388-69.8516
		c17.571-27.4447,31.9512-56.4,36.675-88.6607c3.6071-24.6306,7.5099-50.799-16.097-69.4451
		c10.9719,35.699,8.4838,70.9265-8.3735,103.9415c-19.0038,37.2203-40.5486,73.1437-61.1596,109.9397
		c-7.9452-6.2859-7.4161-14.2769-9.9317-20.9249c-0.6246-0.2634-1.2555-0.5256-1.8817-0.789
		c-1.1419-0.3715-2.2215-0.8083-3.2191-1.3497c-16.0435-6.7-32.8345-13.1962-56.6441-17.8214
		c21.7814,20.6738,38.8807,36.1821,35.1364,60.1605c16.5671,22.0096,35.921,20.5085,57.7,12.1481
		c-10.408,16.4318-27.2495,16.211-40.6511,12.2924c-21.8901-6.4003-42.1495-3.9099-66.0916,3.8953
		c-41.9783-35.6817-73.3547-90.5132-137.4006-93.5958c-7.9034,5.9425-1.9282,15.6251-9.1636,22.2328
		c-13.5167,7.6033-29.3661,14.7828-40.3467,31.95c16.5229,22.0089-7.6511,35.5287-15.0923,55.8433
		c61.934-30.6902,112.8883,1.1888,169.7871,19.4064c-42.595,51.6616-87.2751,83.812-155.1419,60.9388
		c20.5598,23.7682,48.5585,38.6824,53.0346,67.088c20.7704,19.8531,50.2926-1.054,65.2036,23.3317
		c27.3584-15.644,43.651-36.6872,52.3524-65.0861c8.0643-26.3154,16.3494-53.4332,41.5991-70.1119
		c10.5515-0.5797,17.7831,9.1999,27.9356,7.763c13.2012-1.8682,24.0738-14.1204,39.9476-9.4617
		c-3.9525,9.8272-13.7186,11.4301-19.589,17.4333c-7.2307,7.3959-6.4445,18.2073-12.6051,25.8281
		c-2.9809,3.6867-6.4728,5.2809-11.0854,3.2506c-8.5256-5.3428,2.2988-14.6728-6.3143-22.2581
		c-4.585-3.5629-11.0689-9.6336-24.603-3.7963c-18.9825,46.8649-26.5272,104.4124-79.6241,135.3234
		c22.3507,0.6443,35.0693-16.0525,50.5828-26.7775c6.0959,12.7025-6.6622,21.3066-2.5511,32.1673
		c19.5267-10.2314,21.8878-30.4044,31.8337-44.0575c5.9209-2.8713,8.7457,9.3331,10.6636,6.681
		c9.386-26.3359,16.7074-46.8748,24.6416-69.1368c6.7749-2.8599,14.3053-1.9766,19.3461,9.826
		c-0.0757,10.0457-7.8348,21.182-1.1096,36.5298c4.2128-16.2914,18.7026-22.006,24.2536-36.1517
		c2.2499-13.0369-6.297-26.6656-0.399-43.2827c11.9016-2.4774,7.9341-23.6468,23.1432-26.4475
		c11.8701,7.3979,2.6608,23.2213,15.1412,28.3583c19.9959-4.7209,19.7246-4.8795,36.6797-33.8643
		c9.3773-16.0308,9.7629-31.6476,1.3658-47.6481c19.1884,6.1302,25.2993,18.4724,16.0009,39.2703
		c-9.0563,20.2558-21.2545,39.1058-32.3834,59.1329c14.7958,17.0027,30.829,31.98,55.152,32.3073
		c4.8231-6.5813-4.9635-9.6533-1.7642-15.7169c9.2985-7.9543,24.9555-0.2886,33.6538-11.9714
		c-15.8557-2.6722-15.8557-2.6722-30.5538-12.6793c8.61-10.3915,24.9626-6.1385,33.3455-17.1518
		C808.5109,879.2048,793.7332,886.2404,793.1993,874.2015z"/>
	<path d="M1179.0552,233.7568c-33.6378-28.6694-72.6282-30.3074-101.9094-8.9615c-17.3832,12.6723-33.5944,26.0187-56.0624,29.1217
		c-10.9794,1.5163-18.1375,11.246-25.957,18.4728c-8.5386,7.8913-18.1384,12.2014-29.3562,9.9994
		c-27.8983-5.4763-39.514-31.6964-57.3431-49.0512c-11.3232-11.022-11.3938-31.5098-0.1239-52.1336
		c6.9936,14.2963,6.7893,29.5364,19.7305,36.6352c87.6206,5.7317,90.5394,5.2157,135.1904-24.9812
		c-38.8295-25.3266-83.334,13.0829-120.3757-12.7926c-38.2858-58.7267-39.8292-70.8524-9.0838-104.7393
		c-2.9843,20.7208-9.9294,39.4266,11.6109,52.7566c22.2025-2.2118,44.6723,4.4184,68.1053,14.1713
		c18.8882,7.8613,42.6569,3.9963,64.8279,5.3689c2.2347-15.3951-13.1454-18.502-15.5446-29.1694
		c0.3474-22.0863,9.799-43.3458,7.3717-65.8705c-0.3008-2.7913,1.902-6.1268,3.5795-8.8139
		c14.9438-23.9393,78.3666-35.7261,108.2239-16.9621c-17.4279,3.7014-34.6729-4.5787-48.1567,11.1548
		c4.447,24.9196-28.8718,42.3699-18.8749,71.9084c16.1869,33.4154,63.3363,34.8687,71.0975,69.9236
		c16.0819,11.5716,31.2439,8.4538,44.2201,13.6012c13.3141,5.2813,26.4648,11.0432,28.6903,27.3809
		c2.0923,15.3586-8.3357,24.905-19.8876,30.3101c-46.2122,21.6225-80.0825,56.0568-110.6117,96.1402
		c-16.3109,21.4156-37.3645,41.4559-71.2533,43.839c-2.7589-43.8493,22.4413-75.2318,44.9866-111.1807
		c-26.2642-1.2872-43.5439,10.1125-58.0675,23.0967c-34.0308,30.4235-54.4286,68.5994-57.7152,115.1043
		c-2.195,31.0593-1.238,62.4091-8.3473,93.0624c-1.9171,8.2659-2.1302,17.0765-14.6809,23.4744
		c-26.1688-74.4618-18.6028-142.9998,25.5744-207.5693C1032.7186,263.0271,1102.1982,245.5692,1179.0552,233.7568z"/>
	<path d="M455.4708,682.7621c-2.6476,10.3084-10.0036,12.6214-19.6139,12.3649c-13.8333-0.3693-27.6895-0.0525-42.4747,3.1938
		c17.101-21.8721,37.7538-38.3071,63.5647-47.7991c13.086-4.8124,26.7891-7.953,39.8558-12.8105
		c14.6938-5.4624,18.7547-9.967,28.7369-27.17c-16.1388-18.4598-26.1747-21.3985-46.0829-10.7188
		c-14.1637,7.598-27.8769,16.3934-40.6293,26.1699c-14.3774,11.0223-29.677,16.9187-47.885,15.2195
		c-72.7843-39.9012-92.3127-74.278-62.459-117.0475c-3.0657,34.9583,13.9174,52.1027,44.5872,59.6767
		c38.1419-20.8464,86.6909-2.2065,126.1955-31.8156c-11.5451-17.7007-29.6919-16.9147-45.4464-18.6592
		c-19.0962-2.1144-38.5244-1.3064-57.8115-1.6036c-30.7561-0.4741-40.2448-10.4253-39.584-41.0191
		c0.4442-20.5631,1.131-41.0877,13.8276-58.5473c7.5503-10.3827,16.703-19.0497,36.3886-20.7946
		c-11.8709,15.3617-25.2123,27.2582-18.8904,37.77c42.4224,40.866,94.0094,46.9181,138.4762,69.3137
		c20.6933-1.644,26.9934-15.5988,25.3642-33.5311c-2.0632-22.7082,2.3447-45.0489,1.6722-67.6259
		c-0.6337-21.2762,10.0961-34.29,30.8165-39.1891c23.3253-5.5149,46.8681-7.1674,70.2499-1.5015
		c12.5265,3.0355,22.4219,10.5471,31.1674,29.98c-21.0545-12.1973-36.7965-18.6084-55.3521-6.106
		c-4.0276,35.1379-50.6843,58.3064-26.8093,110.5805c15.8398,14.0317,10.7776,42.6606,12.06,68.7778
		c1.0505,21.3933-17.9588,33.6295-32.1575,45.9891c-14.4583,12.5856-31.8594,21.7911-47.9734,32.4744
		c-13.387,8.8755-27.6717,16.6817-35.5295,31.5963c-7.196-1.0793-13.1715-1.9755-20.9054-3.1355
		c1.7914,18.6404,18.7825,19.6035,26.7414,29.4952c5.2673-3.1309,8.8641-5.2688,14.5341-8.639
		c7.1704,4.9226,9.3328,25.3456,24.1338,12.1615c9.2692,3.8129,2.98,12.8574,7.8698,16.8071
		c4.2143,5.4952,10.7356-2.4506,14.6146,3.1573c3.744,7.1584-5.8949,14.296-1.8863,18.8354
		c5.8552,8.1241,11.7604,2.875,16.5127,5.2672c3.6982,7.7981-7.1052,13.2747-3.8802,20.379
		c2.8482,8.4927,13.1193,1.5686,16.2426,9.5224c-6.3355,13.3179-18.0555,12.0093-32.675,10.8032
		c-32.3571-51.0056-75.4942-89.7407-141.4657-95.5834c16.2274-5.1458,32.2935-0.1537,46.9077-6.2229
		c-0.1409-9.8507-6.519-14.1636-11.7939-19.1865l-0.9176-1.2587L455.4708,682.7621z"/>
	<path d="M261.2971,1120.5032c4.742-8.4686,11.8144-14.5736,23.8781-21.621c22.6982,82.3373,75.238,138.5879,146.1338,179.6914
		c69.9688,40.5662,143.951,61.16,229.1028,46.1759c-13.7109,66.9725,25.3571,94.8369,80.2695,112.5636
		c-38.5121,11.0186-76.8936,10.3448-114.5616,3.6373c-116.4036-20.728-211.0128-81.4019-292.2911-164.7731
		C304.2322,1245.8188,266.4517,1162.6266,261.2971,1120.5032z"/>
	<path d="M1468.499,438.0418c39.0629,18.1814,59.217,53.9485,80.1624,88.2756c18.4279,30.2014,33.594,62.3737,51.3379,93.0172
		c16.9463,29.2662,39.8737,52.7591,70.7146,68.1626c57.9968,28.9664,128.3832,0.8427,149.1285-60.8715
		c9.9111-29.4836,17.4609-59.6675,5.4883-94.8421c36.0208,40.8235,17.8253,136.5857-28.4495,177.3943
		c-72.6107,64.034-196.8702,45.3636-250.9657-44.5058c-32.7074-54.3367-47.7545-114.523-63.7218-174.6383
		c-4.6428-17.4796-8.6696-35.1231-12.9788-52.6913L1468.499,438.0418z"/>
	<path d="M281.3251,893.2846c-9.1574-23.0173-29.1991-15.3969-45.4023-18.4238c30.935-29.5367,44.3349-31.1017,122.3306-14.8591
		c69.7345-22.6224,87.8705-21.8097,139.5317,6.4899c-29.0344,36.2478-65.3137,51.1221-110.957,38.4355
		c-16.6842-4.6375-31.8786-1.3535-46.8191,5.9807c-52.8095,25.924-83.7594,68.9791-98.2189,125.0365
		c-8.9699,34.775-9.0224,34.7615-41.276,58.6201c-8.3483,0.489-18.1912-0.1221-27.4208,1.9712
		c-7.7882,1.7662-14.8648,6.6703-27.4175,12.6401c12.3319-28.2429,30.4897-45.875,47.4221-64.2235
		c20.5746-22.2955,40.947-44.462,38.0062-77.8229c-18.0385-21.9653-18.0385-21.9653-52.0033-10.4525
		c10.1551-22.1255,18.832-27.699,49.5295-35.6431C247.564,916.1339,270.7691,918.6871,281.3251,893.2846z"/>
	<path d="M1083.5046,1300.0028c22.5938,19.6189,52.1693,28.4594,70.0009,58.599c-26.7172-4.7379-46.7491-23.4841-73.3677-14.8083
		c6.4335,20.465,27.2928,30.6422,34.939,56.755c-47.0903-33.2068-91.2419-61.4899-147.1205-75.8934
		c14.8661-15.8975,26.946-28.0315,22.3057-47.4832c-4.2878-17.9742-20.2224-27.0787-29.9705-42.6512
		c14.8923-11.7782,33.2885-13.5328,47.7423-21.9026c9.3146,6.2155-1.2272,12.5291,3.6223,19.3892
		c24.0906,2.2538,49.4091,4.6226,81.3153,7.6077c-14.8448,6.5381-23.9619,10.5535-35.7937,15.7644
		c17.9747,21.1572,48.1304,15.631,64.5206,37.4531C1110.6682,1301.2937,1096.6459,1286.8687,1083.5046,1300.0028z"/>
	<path d="M1171.7446,490.6998c42.3318,26.8683,20.4755,66.1033,21.5565,96.9735c2.775,4.4928,3.4688,6.9778,5.0942,8.0502
		c52.8801,34.8833,58.9796,85.8654,49.011,142.2958c-6.592,37.3167-7.8534,74.7144-3.4346,112.3819
		c3.1652,26.9814,9.4369,52.6735,31.5964,78.9329c-21.4722-5.8917-28.2703-17.4706-33.8566-31.4371
		c-15.8901-39.7271-18.7483-81.3498-19.0654-123.3839c-0.146-19.3479,1.2485-38.7418,0.3672-58.0429
		c-2.056-45.025-3.2085-54.147-47.46-67.3642c-23.2334-26.772-8.5148-62.4134-17.8842-88.3922
		c-13.1986-9.6318-19.3245,2.5676-28.2949,0.7764C1122.2893,525.1705,1154.5959,513.6139,1171.7446,490.6998z"/>
	<path d="M338.7149,1045.816c-26.8075,9.1774-45.9992,30.1001-68.9383,45.2095c-42.147,27.7614-84.3265,54.89-134.2003,66.9066
		c-6.0446,1.4563-12.2937,4.5033-20.3013-4.8531c104.4354-46.701,192.6955-113.2892,259.8048-205.6896
		c20.0295,3.6766,28.9917,15.961,36.7325,33.0769c-15.4962,38.5117-49.2237,61.6232-78.3616,92.1779
		c-4.9088-13.2355,5.9531-19.053,4.4205-27.5931l0.9967-0.7863L338.7149,1045.816z"/>
	<path d="M254.9821,758.752c4.2059-10.4926-7.5674-10.8657-7.8344-16.924c10.1469-10.2836,76.4098,12.0359,116.5745,38.5244
		c4.9935,12.0834,5.9698,24.215-5.5077,38.8259c-34.2737-2.7217-67.01-19.7598-102.0217-26.866
		c-34.5948-7.0218-68.2984-18.0214-103.9724-20.0089c-35.9648-2.0036-71.8638-5.1888-107.8107-9.9012
		C114.3814,743.9235,185.2873,754.7708,254.9821,758.752z"/>
	<path d="M222.8062,801.6465c-27.1439,14.7678-40.9382,39.8475-52.1127,67.073c-13.0089,31.6957-31.284,58.7315-64.7438,72.2344
		c-15.9882,6.4523-30.9552,14.8944-44.9001,25.0402c-17.9108,13.0317-34.8154,26.9108-39.4911,50.1384
		c30.6642-31.4804,67.556-52.2105,109.3388-65.8467c27.2211-8.8837,42.8379-31.9678,54.8792-56.2198
		c19.0393-38.3464,49.7753-60.3983,90.2237-70.9608c6.2813-1.6403,13.8148-1.7578,19.7862-9.0891
		C271.1226,802.3622,248.2545,794.6437,222.8062,801.6465z"/>
	<path d="M959.3376,579.8389c-96.1408-75.045-89.9075-198.7221-1.6243-239.2606c-23.4799,38.8664-33.5587,77.1594-31.1022,118.4345
		C928.9845,498.895,946.2196,534.9481,959.3376,579.8389z"/>
	<path d="M1433.179,344.6473c-53.9183-9.8554-108.7188-2.1375-162.3546-13.6199c-5.7054-3.5542-7.7905-9.3153-8.8441-15.0806
		c26.9631-35.7153,67.6245-44.441,103.5496-24.0676c23.3589,13.2469,43.6581,30.6525,65.6262,45.7645
		C1432.4297,338.5198,1432.3093,341.4225,1433.179,344.6473z"/>
	<path d="M456.1369,1008.7056c-1.8589,55.8615-32.6391,91.0642-94.923,110.3984c-1.0766-1.7109-3.0746-3.4205-3.1036-5.1628
		c-0.2495-14.9724-0.1433-29.9508-0.1433-48.8839c10.1525-8.9097,21.5222-18.5746,32.5299-28.6354
		c11.0717-10.1194,21.7835-20.6327,34.174-32.4203C434.7701,1002.5872,445.4319,1006.5591,456.1369,1008.7056z"/>
	<path d="M1920.5732,373.6915c20.9104,14.1041,20.8662,38.1419,26.3618,58.831c8.7103,32.7914,4.4331,66.0003-3.0662,98.7043
		c-1.5867,6.9189-7.0496,13.6839,0.5765,21.5328c13.6322-1.5695,13.5889-17.6949,23.261-23.937
		c1.0687,30.3193-15.0908,58.556-52.424,90.0925c-1.4861-38.918-13.7883-74.5811,4.2682-113.0381
		c14.5654-31.0221,11.8217-67.0392,5.7415-101.3798c-1.8444-10.4178-7.0909-20.4601-3.8999-31.5126L1920.5732,373.6915z"/>
	<path d="M1446.162,125.9347c32.9449-3.0623,64.778-12.8566,97.286-18.8697c2.9799-0.5512,6.3672-1.6923,6.7046-8.2679
		c-7.3782-10.9115-22.366-6.3-33.1194-11.6812c39.7389-21.445,116.052,10.5117,149.3713,62.764
		c-10.3525,6.9246-21.6736,4.3978-29.8608-1.3437c-44.6979-31.3447-93.7355-24.537-142.9677-18.4045
		C1477.911,132.0829,1461.9978,136.3828,1446.162,125.9347z"/>
	<path d="M403.0314,742.3922c-10.2884,9.5533-19.7563,16.335-33.5759,18.3751c-20.862-7.347-40.5295-21.7064-64.454-24.6148
		c-23.6213-2.8715-41.3206-16.494-58.5899-31.9139C301.5625,679.0519,371.497,691.0618,403.0314,742.3922z"/>
	<path d="M684.9622,936.2394c1.0531-9.2876-4.1378-16.1888-8.3776-23.7174c-3.815-6.7744-5.2695-14.2289,5.6129-19.5965
		c11.533,7.6385,13.5463,23.0698,23.8789,32.1212c20.4371,17.9027,42.7263,31.6693,68.5598,40.9929
		c49.2932,17.7908,84.7227,50.127,97.3661,102.9401c4.4114,18.4269,6.5154,37.2162-4.8341,60.1758
		c0.9008-92.9343-38.3726-132.9077-131.2325-160.7446c-12.0226,1.8718-1.5001,16.6227-11.4316,19.804
		c-16.2126-7.8791-6.8304-28.5106-18.7603-38.4891c-14.3153-0.4105-13.3347,15.4769-25.0165,21.3561
		c-1.8292-12.9003-4.0599-24.4053,5.1568-35.0286l1.3496-0.3177L684.9622,936.2394z"/>
	<path d="M1744.8103,152.6818c82.7322,87.1174,112.7014,153.7228,103.2737,226.066c-10.104-24.6185-23.0885-42.5365-37.1479-63.7196
		C1816.6339,251.9907,1781.6288,202.0517,1744.8103,152.6818z"/>
	<path d="M1858.0961,270.5113c52.6174,62.3348,37.1813,135.606,34.3898,215.0685c-13.8414-26.6847-27.0406-46.8914-23.5153-69.9498
		C1876.5081,366.3276,1878.6851,318.172,1858.0961,270.5113z"/>
	<path d="M961.4766,1140.1729c15.5043,19.0616,28.0897,34.2935,36.2966,53.6061c-12.6815,15.6505-33.6567,15.0557-45.7371,28.4855
		c-13.0517-2.8159-22.1177-9.2393-31.0071-19.0938C934.0203,1182.9365,946.3988,1163.6566,961.4766,1140.1729z"/>
	<path d="M1637.5906,43.0566c20.0527,8.1974,31.6216,25.7814,42.3029,42.5068c20.0044,31.3247,36.5006,64.7099,45.7063,107.8401
		c-14.3367-10.3144-23.9877-17.2578-33.6809-24.2314c-6.2505-12.9056-7.8267-26.5838-9.3729-40.477
		c-2.4731-22.2196-16.5854-38.9439-28.3009-56.8397c-6.1168-9.3437-18.8228-15.4121-15.9492-29.6434L1637.5906,43.0566z"/>
	<path d="M937.0236,656.68c-10.444-22.7355-7.0284-43.9177-7.9199-65.6064C963.5303,605.7733,966.9279,630.3896,937.0236,656.68z"/>
	<path d="M981.3344,829.7131c-29.2438-2.9146-37.6746-19.4299-31.9282-61.873
		C966.5511,786.8873,987.4047,800.5362,981.3344,829.7131z"/>
	<path d="M257.3498,1050.2258c5.8983-18.068,7.7249-30.488,20.5543-41.1652C280.827,1026.3597,276.982,1037.9077,257.3498,1050.2258
		z"/>
	<path d="M1469.215,437.3424c-4.2119-0.8993-0.2604,3.445-1.8558-0.5185c-0.4398-1.0928,1.1121-1.1585,1.1399,1.2178
		L1469.215,437.3424z"/>
	<path d="M1845.0576,808.7571c0.1509-0.2825,0.3015-0.5651,0.4523-0.8477L1845.0576,808.7571z"/>
	<path d="M1638.2958,42.2119c-0.8125,0.2296-1.6249,0.4592-2.4374,0.6888c0.5774,0.052,1.1547,0.1039,1.7322,0.1559
		C1637.5906,43.0566,1638.2958,42.2119,1638.2958,42.2119z"/>
	<polygon points="1671.2203,306.8002 1668.6166,307.4255 1670.4297,307.3924 	"/>
	<polygon points="1921.3922,372.9845 1920.0739,371.7598 1920.5732,373.6915 	"/>
	<path d="M246.9445,1445.4022l0.6808-0.6335L246.9445,1445.4022z"/>
</g>
</svg>
