<?xml version="1.0" encoding="utf-8"?>
<!DOCTYPE svg PUBLIC "-//W3C//DTD SVG 1.1//EN" "http://www.w3.org/Graphics/SVG/1.1/DTD/svg11.dtd">
<svg version="1.1" id="Layer_1" xmlns="http://www.w3.org/2000/svg" xmlns:xlink="http://www.w3.org/1999/xlink" x="0px" y="0px"
	 viewBox="0 0 1728.2775 1663.1151" enable-background="new 0 0 1728.2775 1663.1151" xml:space="preserve">
<g>
	<path d="M955.4507,420.8492c-16.166-14.6711-33.0917-28.4837-42.7712-49.0328c-20.374-43.2529-7.2386-82.129,18.8511-116.3885
		c26.3113-34.5503,40.9263-68.9102,28.1898-113.072c-10.232-35.4773-24.9443-42.752-54.1514-21.5809
		c-3.1053,2.2509-6.3496,4.31-10.3763,7.0302c-17.0182-14.0001-12.8894-29.4016-2.8176-42.5345
		c42.1626-54.9768,89.3939-52.7991,139.7039-13.0991c12.9323,10.2051,29.8397,20.6278,33.6304,41.7409
		c12.5004-28.8389-1.8203-59.6996-33.7469-76.7985c59.6561-22.0011,114.5294,23.0931,126.7253,104.1412
		c25.3125-9.1288,31.1669-24.1207,20.9448-56.7541c25.2184-2.2707,33.2041,15.6713,43.5001,32.6222
		c16.9076,27.836,26.1832,55.0009,3.8806,84.2079c-11.2699,14.7585-8.1147,30.2362-1.2388,45.2929
		c11.4333,25.0361,31.3418,44.1271,51.7603,60.6689c28.4802,23.0729,57.5643,45.2813,84.7283,73.3559
		c8.1335-15.5488,5.4803-28.7946,1.3711-43.4187c-10.6428-37.875,2.5146-60.53,39.2483-69.7431
		c1.0587,2.1728,2.9553,4.4466,3.2328,6.9032c1.5304,13.5494-1.4615,29.6711,19.3026,31.3148
		c11.4587,0.9071,22.3065,0.7894,26.5251-13.1486c5.4783-18.0998,2.0848-33.7279-13.4064-45.262
		c-11.9905-8.9276-28.0919-9.3276-60.1659-2.6118c0.3735-12.6316,2.0717-23.7429,12.8699-31.1385
		c46.7772-32.0371,114.2708-13.1739,136.9929,38.7283c4.6224,10.559,8.7437,21.6524,20.7635,23.1233
		c12.7721,1.5629,19.2299-9.0547,23.7915-19.3863c8.1158-18.3811,19.3217-25.566,40.0856-17.4157
		c25.0012,9.8135,48.1027-2.074,76.559-16.3056c-8.4613,14.3495-13.0828,22.5633-18.0558,30.5585
		c-27.7771,44.6571-26.973,58.3685,6.3579,104.3609c23.0034,31.7419,23.7877,77.54,1.524,108.6741
		c-5.2538,7.3469-11.6615,13.7511-23.9351,14.8531c-4.9773-12.6479,0.8243-29.6611-13.8837-39.4485
		c-7.835-5.2141-14.4933-11.0784-24.2502-7.4895c-10.0073,3.6809-17.1221,10.3984-17.7025,21.8323
		c-0.5072,9.9966,0.1499,20.0905-0.9027,30.0147c-4.7567,44.8443-41.7435,81.5202-95.4132,90.3724
		c28.3517-37.3286,12.6456-64.3025-17.6735-84.6507c-15.318-10.2805-34.5648-15.8665-52.6068,0.9033
		c-1.4235,28.0182,19.5857,49.0926,23.9789,75.6001c8.7001,52.4967,11.3483,103.4064-15.358,152.5712
		c-8.0103,14.7466-22.7505,21.5897-31.1737,35.7553c-10.6084,17.8405-13.6794,31.4531,2.1523,47.8791
		c49.4135,51.2681,79.7207,113.9589,100.3555,180.9225c9.5677,31.0493,15.6023,64.8581,10.3492,97.2495
		c-5.2969,32.6589-2.5801,65.5835-8.7029,98.0281c-12.3846,65.6257-31.248,129.3224-55.696,191.2942
		c-27.963,70.8818-39.6543,141.3932-2.2231,212.7533c0.6217,1.1853-0.8687,3.4785-1.7783,6.6799
		c-61.801-78.4452-60.8351-166.0111-42.7997-256.7211c9.2544-46.5454,21.2523-93.0292,24.954-140.0957
		c8.1127-103.1509-9.2747-202.1494-66.29-290.6981c-11.4067-17.7155-28.8142-32.8751-46.3599-45.0145
		c-24.5382-16.9774-45.6248-10.0343-57.329,17.9371c-17.8429,42.6422-18.7837,83.2175,10.2262,124.3304
		c35.4785,50.2802,69.4003,102.7894,65.1711,169.1285c-1.3258,20.7968-7.3763,41.1088-5.2144,61.884
		c-7.0477-77.7892-45.0304-139.144-104.6359-186.4237c-45.6493-36.2093-66.7949-84.8467-73.3296-138.4731
		c-4.2188-34.6201,19.422-65.5393,37.9601-95.0029c5.311-8.4411,10.8237-17.0001,17.6132-24.217
		c15.4158-16.3865,10.9121-32.231,0.7855-48.7827c-50.9038-83.2014-30.0746-151.4099,25.4336-217.9108
		c26.536-31.7911,27.2905-39.8751,1.0081-70.8955c-16.5903-19.5812-37.4036-33.8162-59.4618-43.7546
		c-17.0248-7.6706-37.9622-9.1312-56.3478,6.1393c-18.9448,15.7346-40.0238,29.1025-61.042,42.0935
		c-38.3156,23.682-97.9677,4.6509-110.3873-34.4285c53.3529,11.415,66.189,2.6427,77.7192-53.1141
		c37.1466-8.8135,45.002-21.8111,35.2168-59.4744c-4.0208-15.476-13.0049-27.3883-23.3981-40.0668
		c-14.8053-18.0607-30.6494-14.7076-44.7357-7.5312c-16.5013,8.4068-14.9218,26.6241-10.7051,42.6929
		c2.4315,9.2657,10.8322,16.6147,9.7637,27.2076c-43.7629,10.6886-47.6093,15.7368-45.8522,61.2323
		C953.143,400.9984,954.527,410.9149,955.4507,420.8492z M1323.5582,583.0927c-49.2999,32.7288-51.8389,92.7353-5.0822,120.1155
		C1350.4596,664.7999,1353.4556,608.1583,1323.5582,583.0927z"/>
	<path d="M773.835,421.3055c1.2918,19.9974-13.6592,28.5291-28.001,33.7434c-32.1461,11.6873-63.8939,12.4712-93.2949-10.2947
		c-17.2931-13.3904-36.3589-24.4998-54.6937-36.5341c-16.8864-11.0838-36.0929-9.1545-51.612-1.2748
		c-29.3637,14.9092-54.1093,36.7196-73.0045,64.3759c-8.0923,11.8443-7.2367,23.7831,3.5685,32.1084
		c17.9149,13.8032,29.0172,33.6692,40.2231,51.2931c34.8322,54.7817,35.7436,126.1782,1.7296,181.6788
		c-12.8322,20.9382-16.8753,33.7333,1.0327,54.1577c17.386,19.829,31.1102,44.2574,41.2151,68.8168
		c28.3183,68.826-0.3749,126.0875-48.424,171.6552c-46.2016,43.8156-88.5018,87.9713-107.4566,150.2523
		c-1.3461,4.4231-3.9279,9.2678-14.5356,10.6354c-6.2015-37.8428-2.0751-74.2002,15.1716-108.1315
		c15.7968-31.0785,33.3271-61.4912,52.5989-90.535c25.6133-38.6006,20.1668-77.0212,5.1791-116.8253
		c-14.1276-37.5197-41.6886-34.3248-66.1357-12.3477c-53.4166,48.0195-82.8954,112.7523-95.648,180.9659
		c-12.152,65.001-11.996,131.7456,0.1526,199.1171c10.1692,56.3943,26.9518,112.1785,26.7892,170.6191
		c-0.1868,67.157-10.0569,130.547-56.5289,182.8516c-3.576-6.9323,0.3887-13.0787,3.8316-18.8054
		c39.6081-65.8824,25.9583-132.1757-0.0957-197.5068c-33.8346-84.8412-52.4608-172.5129-64.6404-263.0785
		c-12.7739-94.9839,17.2067-176.3453,61.605-255.2246c13.4381-23.8745,33.3912-44.2584,51.5019-65.2566
		c9.9259-11.5084,14.3999-20.6547,1.6056-33.1551c-9.1769-8.966-16.0094-20.2801-24.4466-30.0648
		c-19.2902-22.3714-32.8356-45.8241-31.4067-77.6639c1.3599-30.3013-6.6887-60.7422,4.0334-91.0624
		c4.642-13.1266,6.9332-26.688,16.0164-38.1779c8.2495-10.4352,12.6397-22.7499,7.7348-38.2098
		c-17.8589-11.5102-36.8336-9.473-54.0195,2.4957c-29.8239,20.7702-32.4036,50.256-20.5172,82.8558
		c-55.3643-7.2396-86.6209-54.4943-92.0668-96.2617c-0.3855-2.9564-0.2077-6.01-0.0655-9.0077
		c0.8117-17.1082-1.2006-35.0245-21.9256-36.037c-19.2983-0.9428-30.2555,12.7972-31.9895,32.4993
		c-0.3456,3.9268-0.7437,7.8489-1.1355,11.9609c-28.9629-10.111-49.8695-48.9826-41.5404-78.4552
		c5.0884-18.0055,10.8-35.2607,24.7613-50.1611c23.7727-25.3718,25.2105-51.953,8.4084-82.5504
		c-7.0863-12.9045-15.8394-24.8937-24.0369-37.6124c9.5439-6.7528,15.8127,0.3614,22.2063,3.4151
		c9.0691,4.3317,17.921,10.7606,28.168,8.5526c31.2534-6.7345,57.4432-9.0939,74.9911,28.2632
		c8.1913,17.438,24.3615,2.4794,31.257-10.5932c28.9669-54.9149,75.2722-72.8386,131.299-50.4673
		c15.5986,6.2284,19.5876,18.5028,19.7932,35.6872c-23.5128-3.726-47.9211-9.9956-66.5214,10.4781
		c-11.0435,12.1557-13.3745,26.4686-5.0909,41.5592c7.702,14.0311,20.722,11.383,31.7552,7.9512
		c17.8257-5.5445,8.86-24.4442,14.6463-36.093c33.9489,4.2557,47.4981,22.837,44.7653,56.5072
		c-1.4446,17.7986-14.0074,35.5037-2.2779,57.0912c33.8852-41.5458,80.6416-64.6067,113.8026-103.4148
		c22.0535-25.809,36.3754-49.2268,17.3234-85.4725c-21.6723-41.231,3.7727-93.5468,50.4066-109.214
		c-11.1708,26.5096-5.361,46.238,19.7941,59.366c19.9131-86.8652,66.1511-124.6166,128.7556-106.4056
		c-31.3163,19.2292-45.631,49.228-35.1458,78.0658c21.7451-33.1625,47.3178-59.6337,86.3831-69.2324
		c34.0988-8.3784,84.5234,18.5768,94.8061,51.8485c3.5515,11.4919,1.3615,21.4102-7.1212,29.1095
		c-8.2626,0.6976-11.4224-5.4019-16.2358-8.6185c-22.7567-15.2075-44.8947-5.8258-51.1497,20.5351
		c-10.4685,44.1171-1.3522,82.5903,28.5735,117.0122c14.5042,16.6834,23.7965,37.3799,29.6844,58.4289
		c9.6491,34.4951-17.2705,84.8268-55.6238,108.6656c7.5104-22.2587,9.5875-45.3815,2.9763-67.606
		c-6.2341-20.9569-29.9324-18.1239-45.6318-25.1864c5.1453-14.0933,11.8596-25.9196,13.5495-38.4249
		c4.0036-29.6253-19.2088-40.6861-43.4037-34.4725c-19.9066,5.1122-39.4,48.387-40.61,75.2869
		c-1.364,30.3249,21.7718,30.6688,39.5192,35.5724c5.3936,14.3214-1.493,27.9008,11.3679,40.4895
		C730.3392,426.9785,751.2475,424.5083,773.835,421.3055z M405.3078,583.0554c-28.7168,39.8468-25.3369,83.319,9.2752,119.295
		C459.7423,670.2147,455.1949,611.727,405.3078,583.0554z"/>
	<path d="M578.5425,1159.2458c-3.0993-26.9116,7.6698-48.7074,20.5476-70.2155c18.854-31.4893,39.5966-61.8853,46.9528-99.2603
		c7.7113-39.1785,2.7457-74.42-20.6721-107.5873c-16.0753-22.7679-31.712-46.3829-43.4871-71.5201
		c-16.5129-35.2515-10.5306-81.7962,30.7456-107.1344c6.7585-4.1488,14.3026-7.0178,23.807-11.598
		c-36.9525-48.1637-34.5637-98.2789-5.205-152.0167c-0.6583,42.4186,26.1596,59.7175,61.9567,75.3217
		c-6.2637-24.3547-22.933-40.8049-23.7155-62.7798c-0.7936-22.2916,3.2462-42.9378,18.1867-60.8716
		c11.4957,5.6571,9.6818,19.3937,19.1022,26.365c24.0793,17.8191,46.39,37.7261,80.3066,27.1962
		c37.4303-11.6209,50.9879-41.6814,60.7732-75.1352c0.8134-2.7807-0.0848-6.0157,0.3211-8.9698
		c1.7188-12.5094,1.0611-30.7189,15.9431-31.1638c17.823-0.533,16.7816,19.05,17.6719,31.7984
		c1.3116,18.7796,8.8666,35.2797,18.4166,49.8748c37.4594,57.2489,106.3801,43.6071,141.9212-21.2573
		c33.0266,42.0474,26.9958,80.6554-7.6268,119.2968c38.3352-3.972,56.5309-23.0709,67.3893-70.1318
		c28.1433,53.969,26.2021,102.871-7.056,153.0826c45.9504,14.5608,63.8699,46.2049,61.6409,91.379
		c-1.2166,24.6555-15.6453,42.6005-28.1493,61.439c-26.4967,39.9197-56.1912,80.3978-46.5479,130.7133
		c7.6091,39.7019,24.0223,78.1041,48.828,111.566c15.7822,21.2897,22.5907,45.2892,21.7595,72.0613
		c-41.1238-71.7302-106.0593-126.4092-139.3283-203.2604c-11.9518-27.6086-6.0281-55.2578-6.9417-82.8222
		c-0.5574-16.8218-4.6149-31.4523-12.7611-45.3943c-6.359-10.8832-14.905-20.6042-28.9036-15.1088
		c-10.5738,4.1508-12.4,15.5293-11.4811,25.5433c1.4418,15.7088,12.3355,17.8531,25.0707,12.8181
		c6.0001,17.5239,2.9886,29.0987-13.7689,35.4214c-46.39,17.5034-63.5302,57.4575-76.2291,100.5467
		c-6.4614,21.9244-12.3546,44.0162-19.2203,68.594c-19.3307-20.4705-20.7916-45.165-26.0405-67.6081
		c-10.2563-43.8521-28.9368-80.1857-72.5248-99.3706c-13.5455-5.962-24.2509-14.8537-18.1049-34.7151
		c11.4801,1.8184,22.7062-0.0701,25.8505-14.4639c2.4282-11.1158-2.2901-20.8209-10.8351-25.9971
		c-9.9155-6.0063-19.6823-0.7833-25.8282,8.3862c-8.9338,13.3287-18.8085,27.4707-16.03,44.1803
		c13.6364,82.0073-30.7437,141.6326-77.4884,199.4556C623.4506,1096.0084,602.7522,1128.499,578.5425,1159.2458z"/>
	<path d="M789.7433,999.0645c-6.5069,16.8945-3.7985,32.949,0.9393,49.0131c8.0124,27.1671,27.7261,39.3939,55.908,34.5176
		c11.623-2.0111,22.834-4.5454,35.2208-1.2252c34.4711,9.2396,64.1737-12.9957,65.7008-48.1174
		c0.4671-10.7415,0.0724-21.5205,0.0724-32.3424c53.413,2.6019,89.2049,69.2561,63.5427,122.29
		c-36.5138,75.4598-37.8348,149.4424,0.2744,225.8973c19.4401,39.0007,23.4493,81.6704,18.1415,127.7184
		c-6.0417,52.4148-22.9045,98.0481-49.2578,141.8885c-2.5291,4.207-5.3441,8.3066-13.5617,8.929
		c5.5404-18.4803,12.2811-35.8254,15.8596-53.8c14.5706-73.1865-2.0861-142.524-27.6258-210.6372
		c-10.23-27.2831-24.861-52.0813-40.9653-76.1649c-9.7935-14.6459-21.8418-22.4316-39.729-14.4336
		c-2.5604,1.1449-5.8303,4.1752-7.4538,3.4364c-43.0379-19.5834-53.0806,15.3929-68.1101,41.2737
		c-49.1176,84.5809-60.0964,175.4827-45.9418,271.0784c2.0454,13.8146,12.5706,24.719,10.8949,43.1716
		c-37.6767-38.822-49.2008-86.1105-60.7051-132.4558c-18.9843-76.4785,16.0548-143.802,39.7097-213.0348
		c11.4023-33.3723,11.0802-66.7207-0.9221-101.4551c-14.0332-40.6115-36.6168-80.3624-22.6749-126.8379
		C730.2014,1020.6346,747.1829,1004.8195,789.7433,999.0645z"/>
</g>
</svg>
