<?xml version="1.0" standalone="no"?>
<!DOCTYPE svg PUBLIC "-//W3C//DTD SVG 20010904//EN"
 "http://www.w3.org/TR/2001/REC-SVG-20010904/DTD/svg10.dtd">
<svg version="1.0" xmlns="http://www.w3.org/2000/svg"
 width="952.000000pt" height="1280.000000pt" viewBox="0 0 952.000000 1280.000000"
 preserveAspectRatio="xMidYMid meet">
<metadata>
Created by potrace 1.15, written by Peter Selinger 2001-2017
</metadata>
<g transform="translate(0.000000,1280.000000) scale(0.100000,-0.100000)"
fill="#000000" stroke="none">
<path d="M7940 12693 c-297 -138 -769 -357 -1280 -593 -228 -105 -463 -214
-523 -242 -59 -28 -110 -48 -113 -45 -4 4 1 88 11 187 l18 181 284 162 c156
89 280 163 274 165 -5 2 -43 -3 -85 -11 -41 -8 -85 -13 -98 -10 -13 2 -121
-14 -240 -35 -252 -46 -171 -8 -723 -340 l-359 -217 -50 -165 -49 -165 -164
-120 c-90 -66 -169 -123 -176 -127 -8 -4 -79 40 -182 113 l-170 119 -55 166
-55 166 -433 234 -433 234 -197 26 c-108 14 -235 27 -282 29 -47 1 -110 5
-140 10 -51 7 -40 0 155 -97 116 -57 252 -124 302 -148 51 -24 93 -48 93 -53
0 -5 9 -90 21 -189 12 -98 19 -181 17 -184 -5 -4 -484 206 -2013 882 -106 47
-120 51 -123 35 -3 -16 17 -126 123 -696 14 -71 33 -157 42 -189 l18 -60 212
-175 c116 -97 210 -177 208 -179 -1 -1 -128 22 -281 52 -152 31 -279 54 -281
53 -1 -2 56 -75 127 -163 71 -87 126 -161 122 -165 -4 -3 -158 -79 -344 -169
l-336 -162 -336 -822 c-185 -451 -336 -824 -336 -828 0 -5 7 -8 15 -8 11 0 14
-7 10 -23 l-6 -23 218 23 c120 12 226 22 235 22 13 1 -10 -45 -91 -176 -59
-98 -142 -234 -184 -303 -77 -124 -77 -125 -83 -210 -3 -47 -54 -672 -114
-1390 -60 -718 -107 -1306 -105 -1308 2 -2 11 9 20 25 15 27 16 25 10 -57 -4
-52 -2 -81 3 -75 6 6 130 221 278 478 194 339 270 463 275 450 3 -10 8 -83 10
-162 l4 -145 -67 -54 c-44 -36 -68 -62 -68 -75 0 -11 -8 -30 -19 -41 -17 -19
-20 -52 -30 -406 -6 -212 -14 -470 -17 -575 -6 -172 -5 -189 9 -177 13 11 16
9 19 -15 3 -25 26 -2 250 245 165 181 248 265 248 252 0 -11 -25 -221 -55
-468 -31 -246 -71 -575 -91 -732 -19 -157 -50 -409 -69 -561 -22 -178 -32
-295 -28 -331 l6 -56 94 156 c52 87 102 168 110 181 16 24 20 14 129 -320 63
-189 128 -390 146 -447 17 -56 35 -102 39 -102 4 0 11 19 15 43 l7 42 22 -64
c12 -36 24 -61 27 -55 3 5 25 102 49 217 24 114 46 207 49 207 3 0 223 -350
490 -778 l485 -779 5 56 5 56 37 -60 37 -60 1 298 c0 164 3 296 8 294 4 -3
183 -266 397 -586 l390 -581 15 36 c8 19 18 33 21 30 3 -3 41 104 84 239 44
134 82 241 86 237 3 -4 50 -167 103 -361 100 -366 99 -360 166 -851 40 -298
44 -320 51 -312 4 4 59 151 124 327 216 589 208 563 206 635 -1 73 -38 653
-46 745 l-6 61 82 107 c45 59 85 106 89 105 4 -2 119 -139 255 -306 136 -167
251 -300 255 -295 4 4 114 140 244 301 131 160 242 292 246 292 7 0 58 -63
162 -197 9 -12 6 -111 -22 -721 -7 -144 -6 -210 1 -224 6 -11 23 -55 39 -97
15 -42 87 -224 161 -406 127 -315 134 -328 140 -290 4 22 19 134 33 250 63
492 63 497 162 870 52 197 97 361 98 363 2 2 41 -107 86 -242 45 -135 86 -246
91 -246 6 0 15 -13 20 -30 6 -16 14 -30 17 -29 4 0 187 265 407 590 l400 590
7 -248 c4 -136 9 -273 10 -303 l3 -55 37 59 37 59 3 -61 3 -62 477 778 c262
427 483 785 490 795 12 16 20 -3 67 -165 30 -101 57 -190 62 -197 5 -10 11 -1
20 30 17 60 25 67 33 25 4 -19 10 -38 15 -40 4 -3 33 75 65 172 31 97 96 298
145 446 l87 270 120 -172 c65 -94 122 -171 125 -171 3 -1 3 13 1 30 -4 24 -2
30 8 24 10 -6 11 0 7 26 -20 108 -297 2067 -295 2081 2 13 39 -17 128 -105
384 -377 423 -413 418 -385 -6 30 1 35 20 16 16 -16 18 -48 -27 601 -38 535
-41 564 -60 578 -12 8 -21 24 -21 37 0 16 -17 35 -60 66 l-60 43 0 179 c0 98
3 178 8 178 4 -1 84 -125 177 -277 280 -456 422 -684 430 -691 4 -4 4 16 0 43
-3 28 -8 68 -11 90 l-5 40 22 -33 c12 -18 23 -31 25 -30 1 2 -3 55 -11 118
-38 325 -274 2391 -291 2555 l-15 139 -177 271 c-98 148 -187 283 -197 299
l-19 28 40 -5 c21 -4 128 -9 238 -13 l198 -7 -11 22 c-10 18 -9 21 9 21 11 0
20 3 19 8 0 4 -161 373 -357 821 l-357 813 -278 128 c-154 71 -315 144 -358
164 l-80 36 124 157 c68 87 126 163 130 170 5 8 -11 7 -56 -3 -331 -73 -481
-104 -484 -101 -2 3 91 84 207 182 115 97 210 182 210 187 0 6 6 24 14 41 13
28 166 870 166 911 0 9 -3 16 -7 15 -5 0 -109 -48 -233 -106z"/>
</g>
</svg>
