<?xml version="1.0" standalone="no"?>
<!DOCTYPE svg PUBLIC "-//W3C//DTD SVG 20010904//EN"
 "http://www.w3.org/TR/2001/REC-SVG-20010904/DTD/svg10.dtd">
<svg version="1.0" xmlns="http://www.w3.org/2000/svg"
 width="1280.000000pt" height="674.000000pt" viewBox="0 0 1280.000000 674.000000"
 preserveAspectRatio="xMidYMid meet">
<metadata>
Created by potrace 1.15, written by Peter Selinger 2001-2017
</metadata>
<g transform="translate(0.000000,674.000000) scale(0.100000,-0.100000)"
fill="#000000" stroke="none">
<path d="M9777 6708 c6 -57 -14 -81 -83 -94 -33 -7 -91 -23 -129 -36 -60 -20
-73 -28 -91 -61 -19 -34 -31 -42 -95 -64 -98 -33 -248 -112 -267 -142 -14 -21
-14 -26 -1 -50 9 -16 26 -28 44 -31 37 -6 47 -43 16 -60 -49 -26 -2 -135 81
-189 18 -12 48 -32 67 -46 54 -40 71 -34 71 24 l0 49 68 -2 c51 -2 89 -12 157
-40 90 -38 166 -82 172 -101 2 -6 -23 -25 -55 -42 -32 -18 -67 -41 -77 -53
-25 -28 -34 -26 -76 20 -20 22 -44 40 -53 40 -19 0 -56 -56 -56 -83 0 -36 31
-84 66 -103 18 -10 34 -24 34 -31 0 -17 -29 -43 -48 -43 -36 0 -199 -90 -252
-139 -30 -28 -60 -51 -67 -51 -7 0 -10 -6 -7 -14 3 -8 -4 -16 -20 -20 -14 -3
-54 -28 -90 -55 l-64 -49 -35 37 c-18 20 -52 63 -74 96 -171 252 -197 318
-198 485 0 107 4 125 50 193 l18 28 -29 -7 c-16 -4 -36 -13 -45 -21 -15 -12
-17 -6 -22 59 -7 90 -32 159 -74 207 -29 32 -34 34 -43 19 -6 -9 -34 -22 -65
-28 l-55 -11 -46 40 c-26 23 -61 43 -81 47 -52 10 -176 -2 -211 -20 -19 -10
-56 -16 -93 -16 -99 0 -133 -15 -202 -91 -34 -36 -78 -93 -97 -124 -29 -49
-34 -66 -32 -111 l2 -54 -1284 0 -1283 0 8 48 c7 43 4 52 -32 115 -22 37 -68
97 -101 132 -50 54 -70 68 -116 81 -34 10 -71 14 -99 10 -33 -4 -51 -1 -75 14
-43 26 -154 44 -214 35 -41 -6 -57 -15 -97 -56 -26 -27 -55 -49 -66 -49 -63 0
-140 -51 -171 -114 -20 -41 -23 -44 -46 -36 -14 6 -39 10 -55 10 l-29 0 35
-51 c38 -56 39 -76 2 -41 -24 23 -47 29 -47 13 0 -5 15 -40 32 -77 31 -64 33
-76 33 -174 0 -156 -17 -205 -124 -363 -49 -73 -109 -154 -132 -180 -39 -45
-41 -51 -35 -92 3 -25 9 -57 12 -72 6 -25 2 -22 -38 22 -25 28 -71 64 -102 80
-33 18 -54 35 -51 43 2 6 -3 12 -11 12 -9 0 -40 22 -69 48 -57 52 -159 109
-243 137 -49 16 -52 18 -52 51 0 22 5 34 14 34 8 0 28 16 45 35 35 41 42 95
15 133 -24 34 -54 28 -96 -20 l-37 -43 -28 17 c-15 9 -56 33 -90 53 -35 20
-63 41 -63 45 0 12 130 87 204 118 35 14 92 28 134 31 79 7 76 9 72 -56 -1
-28 2 -33 21 -33 24 0 89 37 89 50 0 5 16 17 37 27 45 23 96 93 96 132 0 20
-8 37 -24 50 -20 16 -22 23 -13 38 6 10 24 20 39 23 35 6 50 29 41 63 -4 19
-26 38 -76 67 -70 41 -236 110 -265 110 -8 0 -15 8 -15 19 0 45 -94 95 -216
116 -22 4 -46 9 -56 11 -22 6 -40 60 -32 101 6 33 6 34 -22 28 -86 -19 -135
-38 -173 -65 -23 -17 -47 -28 -53 -24 -10 6 -149 39 -198 47 -12 2 -16 -15
-18 -88 l-3 -90 -53 -28 c-128 -67 -243 -188 -308 -324 -43 -92 -108 -325
-108 -390 0 -40 -2 -43 -27 -44 -49 -2 -67 2 -112 27 -50 27 -51 28 -51 13 0
-37 125 -139 171 -139 13 0 18 -14 23 -57 4 -32 14 -92 22 -133 8 -41 17 -88
20 -105 3 -19 -4 -9 -18 25 -36 82 -90 162 -157 229 -76 76 -132 95 -281 96
-131 0 -184 -21 -260 -101 -92 -97 -122 -203 -118 -414 3 -127 1 -141 -18
-167 -12 -16 -36 -32 -57 -37 -53 -14 -46 -33 18 -47 42 -9 64 -9 94 -1 48 15
61 30 68 83 7 49 16 37 32 -43 16 -74 2 -129 -39 -160 -52 -38 -40 -52 38 -44
71 7 110 27 127 64 18 40 24 23 18 -48 -7 -84 6 -122 52 -150 38 -23 135 -39
135 -22 0 6 -13 20 -30 32 -18 13 -34 36 -40 61 -15 55 -9 85 52 248 l9 24 15
-22 c39 -55 111 -46 169 22 19 22 35 43 35 47 0 3 -21 7 -47 9 -27 1 -54 8
-62 16 -7 7 -16 42 -20 78 -8 80 -25 105 -140 210 -37 34 -71 96 -71 130 0 65
84 99 177 72 144 -42 226 -205 226 -450 -1 -102 -4 -132 -27 -200 -33 -103
-85 -191 -164 -276 -83 -89 -171 -155 -434 -321 -416 -263 -551 -382 -657
-579 -60 -110 -82 -181 -88 -286 -10 -156 34 -291 120 -370 122 -113 301 -141
457 -72 25 11 55 17 67 14 21 -5 21 -7 8 -39 -8 -18 -23 -82 -34 -142 -10 -60
-26 -134 -35 -164 -9 -30 -16 -67 -16 -82 0 -23 -12 -34 -82 -76 -71 -42 -89
-48 -124 -45 -29 3 -58 -3 -102 -21 -133 -56 -189 -44 -238 48 -16 30 -32 52
-36 48 -3 -4 -19 -32 -34 -62 -26 -52 -28 -64 -32 -220 -4 -165 -4 -166 22
-204 14 -21 26 -52 26 -68 0 -32 -21 -78 -44 -97 -13 -11 -12 -16 12 -36 26
-22 27 -28 26 -109 -3 -155 -57 -229 -196 -268 -130 -36 -160 -62 -174 -147
l-6 -39 73 -4 c41 -2 79 -1 84 3 6 3 21 9 34 12 17 4 24 1 28 -14 6 -23 4 -23
47 1 23 15 36 17 41 10 10 -16 6 -18 -82 -56 -43 -18 -90 -47 -104 -62 -24
-27 -26 -36 -27 -132 -1 -84 2 -111 19 -151 l21 -49 22 32 c24 36 95 75 159
87 24 4 55 15 68 24 14 10 43 17 70 17 44 0 50 -3 80 -43 45 -58 168 -177 184
-177 7 0 18 -7 25 -15 15 -18 37 -20 42 -2 2 10 11 10 44 -3 l42 -15 -19 -60
c-10 -32 -16 -61 -14 -63 1 -2 29 9 60 23 43 21 64 39 86 73 16 25 29 51 29
58 0 21 30 44 56 44 15 0 39 15 64 40 39 39 42 40 110 40 68 0 72 -1 88 -30
23 -41 36 -33 40 24 2 36 -3 62 -21 100 -18 35 -26 73 -29 122 -3 65 -7 76
-44 125 -99 131 -195 193 -260 169 -16 -6 -54 -36 -85 -66 -44 -44 -65 -57
-95 -60 -96 -12 -140 71 -132 247 4 75 9 101 22 115 12 11 16 27 14 46 -3 16
1 33 9 39 7 6 13 24 13 39 0 16 7 30 15 34 8 3 15 17 15 31 0 14 9 34 19 44
11 11 23 35 26 53 6 29 14 36 70 61 64 27 115 35 115 18 0 -6 16 -7 37 -4 31
5 35 4 30 -10 -7 -18 8 -24 18 -7 10 16 38 12 31 -5 -6 -18 5 -20 21 -4 8 8
17 8 30 0 11 -5 29 -8 40 -5 27 7 63 -28 63 -61 0 -31 26 -96 43 -110 7 -5 23
-36 35 -68 22 -58 22 -58 3 -95 -11 -20 -31 -52 -45 -71 -14 -19 -26 -38 -26
-41 0 -4 25 -3 56 1 68 9 126 47 150 97 9 21 19 32 21 25 8 -23 68 -35 112
-23 46 12 57 40 17 40 -32 0 -56 25 -56 58 1 55 40 116 134 207 122 119 135
151 147 360 4 83 11 203 15 267 l6 117 52 -39 c64 -48 134 -76 239 -95 112
-20 144 -30 183 -60 52 -40 64 -73 65 -174 1 -154 -29 -218 -130 -282 -69 -44
-91 -79 -91 -147 0 -36 7 -59 28 -93 52 -80 59 -80 58 6 -1 84 8 100 64 111
31 7 33 5 22 -8 -13 -16 -33 -108 -23 -108 3 0 34 15 68 34 35 19 59 27 56 19
-4 -10 14 -6 63 12 l69 25 70 -49 c39 -26 75 -46 81 -44 6 2 14 -5 17 -17 3
-11 13 -20 24 -20 10 0 24 -9 31 -20 14 -23 42 -26 61 -7 10 10 16 7 29 -11
12 -15 24 -21 35 -16 12 4 17 1 17 -10 0 -9 18 -27 40 -41 48 -30 50 -30 50
-5 0 25 45 28 71 4 14 -13 15 -20 6 -45 -17 -43 16 -103 57 -107 27 -3 28 -2
23 27 -8 39 18 33 28 -7 9 -38 29 -67 65 -92 l31 -22 -7 38 -6 39 36 -34 c20
-19 36 -41 36 -48 0 -7 13 -27 28 -45 16 -18 39 -50 51 -71 12 -20 48 -55 79
-78 l57 -40 11 73 c13 94 21 113 41 96 12 -10 18 -8 34 12 10 14 19 33 19 43
0 21 13 22 30 2 9 -11 17 -12 30 -5 15 8 20 6 24 -8 4 -10 22 -33 41 -52 26
-25 35 -30 35 -17 0 25 8 22 57 -24 27 -25 50 -38 59 -35 9 3 19 6 24 6 4 0 6
27 3 60 -3 33 -3 60 1 60 3 0 24 -27 46 -61 l39 -60 30 58 c39 79 46 120 28
168 -9 22 -18 58 -20 80 -3 22 -8 48 -12 58 -11 28 53 22 98 -9 l38 -26 -6 49
c-14 96 -48 149 -120 185 -22 11 -62 45 -89 75 -54 60 -101 88 -161 96 -22 3
-53 11 -68 16 -16 6 -48 11 -72 11 -50 0 -95 -31 -115 -80 -11 -26 -17 -30
-52 -30 -21 0 -53 -7 -69 -16 -28 -14 -32 -14 -48 0 -12 11 -37 16 -73 16
l-55 0 -132 132 c-72 73 -131 134 -131 135 0 2 9 3 21 3 11 0 34 14 51 31 30
30 32 30 79 19 27 -7 60 -21 75 -32 24 -19 27 -20 42 -4 16 16 16 19 -6 58
-12 23 -21 42 -19 44 1 2 22 -6 45 -16 35 -16 47 -29 68 -75 14 -30 27 -55 30
-55 9 0 34 74 34 102 0 86 -113 172 -202 154 -30 -6 -37 4 -14 24 8 6 23 32
32 57 17 43 17 46 1 58 -10 7 -15 19 -11 29 3 9 3 32 0 51 -9 47 -44 49 -66 2
-21 -44 -60 -49 -87 -10 -30 42 -34 59 -43 175 -10 124 -29 170 -90 218 -23
18 -46 43 -50 56 -16 41 -297 176 -419 201 -97 20 -277 12 -411 -17 -215 -47
-300 -15 -300 115 0 37 -4 47 -21 53 -20 8 -19 11 21 44 57 49 169 104 266
128 43 12 167 30 274 41 107 11 199 24 204 29 5 5 22 6 38 3 20 -4 35 0 50 13
14 13 22 15 25 7 6 -16 47 28 63 68 7 19 14 35 15 36 1 2 23 -17 49 -41 123
-115 214 -163 148 -78 -16 20 -37 50 -47 65 l-18 28 44 -22 c24 -12 54 -31 67
-42 15 -14 22 -16 22 -7 0 8 12 2 30 -15 16 -16 30 -23 30 -16 0 9 6 8 22 -3
27 -20 38 -20 38 -3 0 11 12 12 53 6 72 -9 110 -31 184 -102 41 -39 63 -54 63
-44 0 22 7 21 54 -6 25 -14 42 -32 47 -50 24 -88 138 -265 179 -276 8 -2 44
-6 79 -9 46 -3 74 -11 100 -29 28 -19 45 -24 77 -20 29 3 47 -1 63 -14 28 -23
124 -59 156 -59 19 0 25 5 25 23 0 38 -28 122 -50 150 -28 35 -26 51 4 31 14
-8 37 -14 53 -12 27 3 28 1 36 -57 63 -489 343 -924 776 -1209 l93 -61 -80 -7
c-242 -20 -362 -105 -362 -255 0 -26 11 -124 25 -218 14 -93 25 -173 25 -176
0 -3 -62 -9 -138 -13 -400 -19 -756 -101 -1182 -273 -74 -30 -164 -64 -199
-75 -35 -11 -70 -22 -77 -25 -12 -4 -14 23 -14 159 0 150 -2 168 -23 208 -44
88 -142 126 -302 117 -84 -4 -126 -13 -258 -56 -220 -70 -290 -84 -432 -84
-93 1 -138 6 -200 23 -145 40 -159 42 -255 37 -107 -4 -159 -24 -204 -77 -32
-39 -33 -73 -5 -206 26 -128 26 -233 0 -309 -11 -32 -22 -59 -23 -60 -8 -8
-209 -46 -311 -60 -147 -19 -357 -19 -462 -1 -83 15 -104 22 -179 55 -71 33
-204 68 -306 81 -82 11 -106 11 -174 -3 -100 -21 -175 -58 -244 -122 -39 -37
-52 -55 -47 -67 9 -22 22 -22 68 -3 61 25 158 36 223 24 72 -13 181 -70 282
-148 219 -168 594 -282 929 -281 102 0 272 21 364 45 149 39 319 126 416 212
l42 38 -29 70 c-16 39 -32 93 -35 121 l-7 52 111 -2 111 -1 0 -70 c-1 -43 -8
-91 -20 -125 -25 -71 -25 -81 4 -139 38 -74 114 -137 199 -163 63 -19 85 -20
211 -15 168 7 383 42 596 98 187 48 514 155 664 216 61 25 137 54 170 64 271
87 605 105 1016 56 382 -46 523 -46 654 3 72 27 144 85 184 146 l31 49 -20 80
c-19 80 -47 330 -37 340 3 3 23 -1 45 -9 88 -31 188 -41 279 -28 48 7 105 19
127 27 22 8 44 12 49 9 13 -8 8 -281 -6 -362 -13 -73 -13 -73 14 -110 61 -84
151 -141 267 -168 94 -22 302 -13 488 21 330 60 437 67 638 40 213 -28 324
-61 907 -265 229 -80 490 -150 655 -175 145 -23 366 -23 462 -2 97 22 189 65
240 113 l42 39 -9 50 c-5 28 -12 105 -16 173 l-7 122 106 0 c95 0 107 -2 107
-17 0 -36 -30 -145 -51 -184 l-21 -41 34 -29 c114 -100 266 -177 431 -219 439
-110 960 -11 1312 251 55 41 129 87 165 104 58 26 75 30 160 29 70 -1 110 -6
152 -22 49 -18 58 -19 69 -6 9 11 8 19 -7 36 -66 75 -153 128 -255 154 -122
31 -338 -1 -511 -77 -185 -81 -468 -89 -797 -23 -68 13 -131 29 -141 34 -24
13 -51 117 -51 197 0 38 9 114 20 171 30 149 28 174 -13 216 -72 71 -236 92
-381 49 -210 -63 -379 -58 -620 17 -217 68 -276 81 -376 81 -73 0 -109 -5
-152 -21 -57 -21 -110 -69 -128 -117 -5 -13 -9 -103 -9 -199 0 -96 -2 -174 -5
-174 -2 0 -98 34 -212 76 -596 218 -924 300 -1286 320 -64 4 -117 9 -117 12 0
3 12 91 26 195 23 163 25 196 15 242 -23 101 -121 167 -291 195 l-95 16 62 37
c165 100 364 281 481 436 175 233 303 540 327 789 l8 72 46 -6 c36 -5 50 -2
60 10 25 30 31 5 6 -28 -26 -34 -63 -161 -51 -173 13 -13 118 16 165 45 35 23
54 28 81 25 26 -3 44 2 71 20 26 18 56 26 105 31 38 3 75 7 82 8 34 4 140 172
167 263 9 30 22 46 51 62 47 27 52 28 56 6 2 -13 19 -3 68 46 36 35 83 71 105
82 42 20 141 27 130 9 -10 -16 21 -12 35 4 6 8 18 12 25 10 7 -3 23 4 34 15
13 13 21 16 24 8 3 -8 9 -7 18 4 16 18 109 71 109 62 0 -4 -18 -30 -40 -59
-41 -55 -49 -74 -29 -74 13 0 97 68 165 132 l41 39 14 -33 c8 -18 13 -36 12
-40 -2 -4 6 -10 17 -13 11 -4 20 -14 20 -23 0 -12 3 -13 12 -4 8 8 17 6 36 -8
19 -15 28 -17 44 -9 12 7 23 7 31 1 7 -6 66 -15 132 -22 204 -20 317 -38 400
-64 80 -26 205 -92 205 -109 0 -5 -28 -37 -62 -71 -47 -46 -78 -69 -122 -85
l-59 -22 -177 25 c-96 14 -187 22 -200 19 -14 -4 -33 -17 -43 -30 -27 -34 -69
-53 -175 -79 -99 -24 -170 -53 -240 -98 -57 -36 -84 -95 -112 -247 -24 -132
-64 -224 -95 -224 -14 0 -21 8 -23 27 -3 22 2 30 22 37 19 8 23 15 19 31 -5
18 -11 21 -35 16 -80 -16 -125 -63 -114 -120 8 -42 57 -95 97 -103 16 -3 26
-10 23 -15 -9 -13 -83 -1 -112 18 -18 12 -26 13 -38 3 -21 -17 -18 -28 21 -65
50 -47 123 -62 196 -41 29 9 55 15 56 13 2 -1 -20 -13 -47 -26 -28 -13 -50
-28 -50 -33 0 -6 39 -8 100 -5 l99 5 -17 -29 c-9 -16 -39 -53 -67 -82 -27 -29
-90 -109 -140 -177 -49 -68 -107 -145 -128 -171 l-39 -48 -68 0 c-53 0 -71 -4
-78 -16 -8 -15 -12 -15 -40 0 -17 9 -55 16 -84 16 -29 0 -69 5 -88 10 -50 14
-191 24 -234 16 -39 -7 -106 -59 -106 -82 0 -7 -12 -17 -27 -20 -65 -16 -200
-105 -188 -124 3 -4 -6 -10 -18 -14 -36 -9 -75 -44 -97 -85 -19 -39 -38 -141
-26 -141 4 0 20 10 36 22 33 24 120 29 146 7 8 -6 27 -9 43 -6 25 5 29 3 34
-20 2 -14 -2 -37 -9 -52 -24 -45 -16 -109 20 -181 l33 -64 21 39 c12 22 33 54
47 70 23 27 25 28 20 7 -4 -13 -1 -29 6 -38 9 -11 8 -18 -6 -34 -17 -18 -16
-19 42 -13 103 10 139 43 162 148 11 51 15 55 41 55 24 0 29 -5 38 -43 12 -45
44 -83 61 -73 18 11 39 -37 44 -102 3 -35 8 -66 11 -69 12 -12 120 83 142 124
12 23 34 52 48 65 14 13 27 33 29 45 2 12 10 30 19 40 9 10 25 34 37 53 l21
35 0 -49 0 -49 21 19 c21 18 57 68 97 133 1 3 9 -4 16 -15 14 -18 15 -18 34
-1 11 10 27 38 37 62 14 38 20 44 39 39 17 -4 25 1 34 20 12 27 26 33 37 16
11 -17 24 -11 31 15 7 29 12 31 29 8 11 -15 13 -15 19 5 7 21 26 31 26 13 0
-5 9 -11 20 -14 22 -6 45 12 55 43 7 23 21 26 28 6 11 -28 78 -29 166 -1 45
15 98 25 117 23 23 -2 38 3 44 12 13 21 12 30 -3 30 -14 0 -110 60 -105 66 2
1 20 -1 40 -5 31 -7 36 -6 31 8 -6 15 -5 15 13 0 19 -16 112 -69 121 -69 5 0
-4 60 -13 93 -5 17 -3 17 35 -2 34 -18 42 -29 57 -75 l17 -55 28 36 c34 42 44
86 36 159 -8 77 -41 131 -108 176 -31 20 -66 53 -78 72 -27 42 -54 166 -45
204 18 77 90 124 229 148 107 19 180 45 246 90 28 19 52 34 53 34 2 0 2 -8 2
-17 -3 -88 18 -431 30 -482 22 -96 47 -134 141 -224 91 -87 122 -138 123 -199
0 -40 -19 -58 -59 -58 -37 0 -23 -29 19 -40 44 -12 86 -5 113 18 15 14 17 13
17 -1 0 -9 14 -32 30 -51 32 -36 86 -61 153 -70 42 -5 42 -8 -9 64 -55 78 -55
81 -31 141 12 30 32 68 45 86 12 17 26 53 31 79 10 53 42 88 72 79 10 -3 28 0
40 7 17 10 23 10 26 1 3 -7 9 -13 14 -13 6 0 7 5 4 10 -3 6 2 13 11 17 10 4
19 2 22 -5 6 -18 22 -14 22 4 0 12 7 15 30 12 17 -3 30 -1 30 4 0 16 50 8 114
-18 57 -24 65 -31 75 -64 6 -21 18 -43 26 -50 8 -7 15 -26 15 -42 0 -16 6 -31
15 -34 8 -4 15 -18 15 -34 0 -15 7 -33 16 -41 9 -7 13 -21 10 -34 -3 -12 3
-33 14 -50 17 -25 20 -48 20 -140 0 -95 -3 -117 -22 -155 -28 -54 -59 -72
-113 -66 -32 4 -49 15 -88 56 -100 106 -157 102 -279 -22 -95 -96 -110 -123
-116 -213 -2 -38 -13 -86 -22 -105 -24 -48 -33 -94 -25 -130 8 -36 22 -39 34
-6 12 30 29 36 104 36 56 0 63 -2 92 -34 21 -23 47 -39 77 -46 42 -11 47 -15
53 -47 8 -45 86 -124 138 -140 42 -13 44 -8 22 44 -18 43 -19 73 -2 73 6 0 24
7 40 14 23 13 27 13 27 0 0 -18 24 -18 39 0 7 8 22 17 34 20 20 5 133 115 194
190 27 33 92 36 141 6 18 -11 41 -20 52 -20 43 0 131 -42 158 -76 15 -19 30
-34 33 -34 4 0 14 19 23 41 18 44 26 214 12 256 -8 26 -79 71 -158 102 -39 16
-55 27 -51 37 4 11 12 10 44 -6 47 -24 47 -24 51 -1 3 17 6 18 38 8 19 -7 65
-11 103 -9 l67 3 0 30 c0 42 -23 92 -51 111 -13 8 -64 27 -112 42 -64 20 -99
37 -128 63 -53 48 -68 79 -79 167 -10 83 0 140 29 158 18 11 17 14 -10 51 -36
49 -36 79 -3 137 25 43 26 52 26 185 0 158 -8 204 -47 271 l-27 46 -23 -51
c-45 -96 -110 -111 -244 -56 -43 18 -78 25 -105 23 -34 -2 -55 5 -118 42 -72
42 -77 48 -83 85 -4 22 -15 67 -25 100 -10 33 -26 104 -34 158 -9 53 -22 108
-28 122 -21 47 1 52 89 22 104 -35 156 -41 233 -27 119 21 232 95 274 178 68
134 74 331 17 479 -45 116 -119 223 -225 328 -106 106 -216 186 -486 355 -344
216 -461 321 -549 489 -52 100 -71 181 -71 306 0 280 111 457 288 458 70 0
106 -25 110 -77 4 -51 -31 -107 -111 -178 -73 -65 -97 -107 -97 -171 0 -59
-22 -85 -75 -88 -22 -2 -43 -4 -48 -7 -14 -7 55 -83 90 -97 49 -21 58 -19 96
15 l34 29 31 -94 c18 -51 32 -111 32 -132 0 -43 -28 -96 -60 -113 -33 -18 -12
-33 36 -26 101 13 137 58 134 165 -3 95 -2 100 18 61 21 -43 51 -58 131 -66
52 -6 61 -4 61 9 0 9 -9 21 -20 27 -48 26 -63 116 -35 215 10 38 14 43 14 22
2 -53 26 -94 66 -107 33 -11 103 -8 141 7 24 9 15 30 -14 36 -16 3 -39 15 -53
25 -23 20 -24 24 -30 209 -5 162 -9 196 -28 245 -81 208 -250 287 -487 228
-77 -19 -81 -21 -154 -98 -84 -88 -135 -175 -171 -292 -44 -143 -25 -419 37
-542 13 -26 21 -48 16 -48 -18 0 -92 73 -121 120 -29 47 -32 60 -41 193 l-11
142 41 170 c47 197 70 320 70 380 l0 43 58 14 57 14 -52 18 c-56 19 -54 15
-59 101 -3 50 -36 188 -67 280 -31 89 -66 160 -111 218 l-35 46 38 11 c20 5
55 26 77 45 33 30 35 35 15 29 -61 -16 -119 -8 -168 23 -26 18 -87 55 -135 84
l-88 51 0 55 c0 55 0 55 -27 49 -16 -4 -59 -14 -98 -21 -38 -8 -81 -19 -93
-25 -20 -9 -29 -6 -53 15 -26 22 -141 65 -173 65 -8 0 -11 -12 -9 -32z m-1462
-778 c7 -21 -21 -90 -36 -90 -13 0 -11 84 3 98 17 17 26 15 33 -8z m-3765 -50
c0 -23 -10 -26 -28 -8 -18 18 -15 28 8 28 13 0 20 -7 20 -20z m-128 -350 c6 0
5 6 -2 15 -21 25 -6 27 44 5 60 -25 62 -25 42 5 -21 32 -21 32 13 27 l29 -4 6
-331 c4 -183 6 -595 4 -917 l-3 -585 -20 33 c-11 18 -39 42 -64 54 -40 19 -48
20 -85 8 -23 -7 -88 -15 -146 -19 -77 -5 -119 -13 -158 -30 -37 -17 -56 -21
-64 -13 -7 7 13 21 66 46 89 42 103 69 34 65 -24 -1 -56 4 -73 11 -18 9 -64
15 -112 15 -46 0 -83 3 -83 8 0 4 9 7 20 7 17 0 19 3 11 18 -8 16 -2 17 82 17
81 0 99 3 150 28 60 30 71 54 21 49 -27 -3 -26 -1 18 28 48 32 148 134 148
151 0 15 -16 10 -75 -26 -95 -57 -118 -61 -168 -32 -23 14 -55 40 -72 57 l-30
32 31 -16 c41 -20 123 -38 142 -31 11 4 2 14 -29 34 -24 15 -57 43 -73 62 -40
47 -115 212 -89 196 5 -3 18 -24 29 -46 21 -45 44 -54 44 -18 0 20 2 19 20
-10 10 -18 33 -39 49 -48 33 -17 45 -19 37 -7 -8 13 -47 214 -43 218 2 3 17
-15 33 -38 l28 -43 8 35 c9 42 1 123 -18 169 -19 46 -18 48 11 21 14 -13 27
-22 29 -19 8 8 -13 108 -30 141 -15 29 -15 31 -1 20 9 -8 19 -22 22 -33 4 -11
11 -17 16 -14 12 8 12 77 -1 109 -11 30 -4 32 29 10 l23 -17 -7 44 c-3 24 -9
51 -11 60 -3 12 1 16 13 15 13 -1 17 5 15 23 -6 39 14 15 28 -34 7 -25 19 -45
26 -45 8 0 14 1 14 3 0 1 -9 45 -20 97 -26 124 -25 136 6 73 14 -29 29 -53 33
-53 12 0 20 104 11 144 -8 35 2 51 14 21 3 -8 11 -15 17 -15 8 0 10 16 6 54
l-5 55 25 -10 c25 -9 26 -9 20 27 -3 20 -15 54 -26 75 -18 34 -19 39 -5 39 12
0 6 12 -20 40 -50 55 -45 67 10 25 25 -19 50 -35 56 -35z m4068 60 c0 -5 -16
-28 -36 -50 -28 -31 -32 -40 -19 -40 16 0 16 -2 3 -22 -17 -26 -50 -120 -44
-125 2 -2 15 1 29 6 l25 10 -5 -55 c-6 -56 3 -69 25 -33 18 29 24 19 12 -22
-11 -35 -3 -149 10 -149 8 0 24 31 40 74 27 75 19 -12 -16 -166 -8 -34 13 -38
25 -5 5 12 16 38 24 57 l16 35 -2 -30 c-2 -23 2 -30 16 -29 12 1 16 -3 13 -15
-3 -9 -8 -34 -12 -55 -7 -42 -10 -40 41 -20 13 5 14 2 5 -21 -5 -14 -10 -47
-10 -73 1 -46 1 -46 18 -26 9 11 25 31 34 45 12 16 10 6 -6 -31 -13 -30 -26
-74 -29 -98 l-5 -43 33 25 33 26 -14 -30 c-22 -44 -38 -141 -30 -184 l7 -38
32 41 c17 22 32 39 33 38 5 -4 -26 -165 -36 -192 -6 -15 -8 -30 -6 -33 13 -12
72 38 93 78 19 37 22 40 17 15 -7 -34 -53 -86 -101 -116 -18 -12 -33 -25 -33
-31 0 -14 74 -1 128 22 23 11 42 16 42 12 0 -10 -54 -51 -122 -95 -83 -53 -78
-73 10 -43 99 34 132 53 180 104 54 57 58 31 7 -45 -56 -83 -127 -128 -219
-139 -37 -5 -56 -11 -56 -20 0 -11 21 -14 93 -14 82 0 145 10 212 34 11 4 0
-11 -25 -33 -56 -51 -147 -96 -227 -112 -62 -13 -85 -29 -40 -29 46 0 202 32
251 51 29 12 85 22 131 25 79 5 193 30 268 60 30 11 38 12 35 2 -2 -7 -75 -49
-162 -93 l-158 -81 -70 4 c-51 3 -82 -1 -116 -14 -26 -10 -65 -18 -87 -19 -61
0 -49 -20 34 -60 95 -46 86 -67 -12 -30 -52 19 -86 25 -149 25 -52 0 -98 6
-125 16 -63 24 -109 8 -163 -56 -23 -28 -46 -50 -51 -50 -5 0 -9 378 -9 924
l0 924 25 4 c29 6 30 5 9 -27 -20 -30 -18 -30 41 -5 26 11 49 20 51 20 3 0 0
-9 -6 -20 -6 -11 -8 -20 -5 -20 10 0 83 49 90 60 8 13 15 13 15 0z m765 -280
c3 -6 -1 -7 -9 -4 -18 7 -21 14 -7 14 6 0 13 -4 16 -10z m-7060 -247 c14 -64
16 -103 11 -217 -9 -182 -31 -233 -132 -305 l-46 -34 32 54 c90 155 114 244
114 436 1 79 2 143 2 143 1 0 10 -35 19 -77z m8778 -710 c45 -43 134 -112 196
-153 63 -41 140 -92 170 -113 31 -21 137 -93 236 -160 261 -176 378 -302 411
-445 40 -167 -14 -346 -120 -396 -52 -25 -127 -21 -189 10 -74 38 -173 143
-230 245 -50 89 -124 192 -212 294 -58 68 -176 235 -304 429 -89 137 -176 300
-210 396 -10 30 -22 63 -26 73 -5 12 -2 17 10 17 11 0 15 5 12 14 -4 11 4 16
31 18 36 3 39 1 90 -73 29 -43 90 -112 135 -156z m-8889 112 c-5 -11 1 -15 21
-15 25 0 27 -2 21 -31 -9 -44 -97 -217 -162 -318 -88 -135 -272 -390 -329
-456 -80 -92 -169 -216 -229 -319 -94 -159 -218 -256 -328 -256 -109 1 -185
82 -209 223 -38 228 82 409 421 636 566 379 605 408 676 501 35 46 41 50 81
50 34 0 41 -3 37 -15z m2305 -914 c-15 -5 -22 6 -14 19 6 9 10 9 16 -1 5 -8 4
-15 -2 -18z m4109 11 c2 -7 -5 -12 -17 -12 -14 0 -19 5 -14 15 6 17 25 15 31
-3z m-73 -12 c3 -5 1 -10 -4 -10 -6 0 -11 5 -11 10 0 6 2 10 4 10 3 0 8 -4 11
-10z m-3895 -10 c0 -5 -5 -10 -11 -10 -5 0 -7 5 -4 10 3 6 8 10 11 10 2 0 4
-4 4 -10z m3812 -12 c-7 -7 -12 -8 -12 -2 0 14 12 26 19 19 2 -3 -1 -11 -7
-17z m-4044 -294 c-3 -14 -7 -10 -16 16 -12 32 -11 34 4 19 9 -9 14 -25 12
-35z m4281 10 c-6 -16 -13 -24 -16 -17 -5 13 16 58 23 50 3 -2 -1 -17 -7 -33z
m-4164 -83 c-2 -1 -14 4 -27 13 -12 9 -30 16 -40 16 -10 0 -18 5 -18 11 0 5 5
7 10 4 6 -3 13 1 16 10 5 13 12 10 34 -17 16 -18 27 -35 25 -37z m4106 44 c5
4 9 1 9 -4 0 -6 -8 -11 -18 -11 -10 0 -28 -7 -41 -16 l-23 -16 24 35 c18 28
25 33 31 21 5 -8 12 -12 18 -9z"/>
</g>
</svg>
