<?xml version="1.0" standalone="no"?>
<!DOCTYPE svg PUBLIC "-//W3C//DTD SVG 20010904//EN"
 "http://www.w3.org/TR/2001/REC-SVG-20010904/DTD/svg10.dtd">
<svg version="1.0" xmlns="http://www.w3.org/2000/svg"
 width="1156.000000pt" height="1280.000000pt" viewBox="0 0 1156.000000 1280.000000"
 preserveAspectRatio="xMidYMid meet">
<metadata>
Created by potrace 1.15, written by Peter Selinger 2001-2017
</metadata>
<g transform="translate(0.000000,1280.000000) scale(0.100000,-0.100000)"
fill="#000000" stroke="none">
<path d="M9660 12790 c-368 -52 -688 -205 -923 -444 -83 -84 -173 -295 -211
-493 -52 -274 -43 -681 25 -1108 80 -504 315 -1409 553 -2130 220 -667 281
-915 306 -1236 19 -251 -12 -448 -99 -624 -123 -249 -351 -399 -723 -476 -217
-45 -416 5 -663 166 -134 87 -233 173 -286 248 -136 194 -300 601 -387 962
-33 136 -67 324 -59 331 3 3 31 -14 64 -38 87 -66 148 -102 253 -152 170 -80
278 -106 433 -106 337 1 605 204 747 567 55 139 49 149 -70 128 -310 -54 -607
-39 -833 41 -80 29 -221 102 -258 135 l-24 21 25 -7 c55 -13 318 -17 400 -6
255 34 436 129 530 277 37 60 69 155 72 219 l3 50 -146 -3 c-192 -5 -305 14
-414 68 -73 35 -161 97 -152 106 2 2 50 10 108 18 321 46 530 210 595 469 23
93 22 94 -134 99 -116 4 -135 7 -219 39 -120 46 -191 90 -266 164 -52 52 -167
195 -167 209 0 2 53 2 118 -1 148 -7 241 8 332 54 78 38 127 89 171 176 31 60
71 209 63 232 -7 18 -51 25 -158 25 -176 0 -271 27 -339 96 -34 34 -127 165
-127 179 0 3 56 5 124 5 94 0 139 5 185 19 163 51 253 155 303 352 23 94 19
103 -50 113 -158 22 -308 86 -400 171 -38 35 -101 117 -173 223 -217 322 -369
434 -632 465 l-98 12 -23 56 c-35 86 -60 115 -134 151 l-67 33 -175 0 c-154 0
-184 -3 -247 -23 -39 -12 -76 -22 -81 -22 -6 0 -34 32 -63 70 l-54 70 -266 0
c-146 0 -387 -3 -536 -7 l-271 -6 -63 -51 c-63 -51 -64 -53 -69 -107 -3 -31
-12 -64 -20 -74 -23 -27 -74 -45 -129 -45 -81 0 -203 -20 -253 -42 -51 -22
-112 -82 -129 -126 -6 -15 -11 -59 -11 -99 l1 -72 -42 -23 c-93 -52 -126 -159
-108 -352 22 -231 53 -298 151 -327 l37 -11 6 -68 c3 -37 16 -100 30 -139 14
-44 20 -74 14 -78 -6 -3 -87 -6 -181 -6 -123 0 -192 5 -246 17 -260 58 -383
218 -350 457 12 86 39 183 72 262 19 45 20 50 5 65 -15 14 -28 14 -116 4 -260
-30 -410 -145 -459 -352 -61 -256 23 -457 231 -555 164 -78 322 -99 744 -100
172 0 313 -2 313 -4 0 -2 -11 -27 -25 -55 -14 -29 -33 -84 -42 -124 l-17 -71
-33 20 c-19 12 -39 19 -46 16 -8 -3 -18 -41 -25 -96 -17 -130 -63 -244 -137
-344 -20 -28 -73 -37 -252 -44 -182 -7 -184 -6 -371 73 -266 113 -592 287
-932 499 l-174 108 35 26 c83 61 190 180 221 248 74 156 44 279 -118 501 -14
19 -15 28 -4 67 29 102 -6 213 -97 315 -53 59 -172 151 -245 190 -43 22 -49
23 -63 9 -14 -13 -13 -21 6 -75 15 -40 22 -84 23 -139 1 -71 -2 -85 -28 -129
l-28 -49 -71 73 c-124 128 -238 184 -396 197 -82 6 -83 7 -105 42 -32 50 -100
109 -155 135 -67 31 -237 30 -337 -1 -41 -13 -75 -30 -78 -39 -4 -11 12 -35
48 -75 62 -66 101 -140 118 -220 11 -54 11 -57 -19 -100 -46 -69 -65 -127 -65
-199 l0 -65 -141 0 c-174 -1 -232 -19 -310 -97 l-50 -50 -56 26 c-210 94 -388
38 -481 -150 -45 -92 -41 -96 90 -98 119 -2 179 -22 238 -79 62 -59 74 -84 93
-198 24 -142 67 -244 130 -313 47 -52 125 -99 182 -111 27 -6 28 -7 14 -29
-27 -40 -47 -128 -47 -202 l0 -72 -47 -30 c-66 -42 -164 -73 -250 -79 -84 -7
-103 -20 -83 -59 42 -77 132 -151 228 -187 49 -18 80 -21 212 -22 151 -1 156
-2 203 -29 101 -60 142 -70 277 -71 97 0 137 4 180 19 75 25 179 78 250 126
32 22 62 40 66 40 9 0 189 -79 315 -138 227 -108 439 -237 540 -330 52 -49 53
-51 34 -66 -88 -66 -366 -206 -500 -251 -149 -50 -257 -68 -420 -69 l-150 -1
-4 -25 c-5 -41 18 -130 56 -206 38 -79 120 -170 191 -211 24 -14 40 -29 35
-33 -16 -15 -149 -32 -261 -35 -63 -1 -118 -7 -124 -13 -15 -15 18 -112 62
-181 93 -144 257 -238 462 -266 45 -6 47 -8 62 -52 56 -163 234 -304 460 -363
48 -13 83 -27 79 -31 -38 -36 -649 -353 -664 -344 -5 4 -9 18 -9 33 0 48 -38
164 -84 257 -85 171 -200 276 -345 315 -57 15 -193 15 -254 -1 l-47 -11 -68
63 c-37 35 -89 74 -115 87 -95 47 -205 46 -301 -4 -57 -30 -152 -102 -161
-123 -8 -20 11 -38 53 -52 105 -34 198 -102 233 -172 l20 -39 -35 -36 c-39
-38 -66 -110 -66 -172 0 -35 -3 -38 -47 -55 -102 -38 -192 -106 -262 -200 -17
-23 -38 -33 -94 -48 -263 -68 -417 -193 -442 -358 -9 -62 4 -71 81 -59 65 11
269 12 353 2 l55 -7 12 -48 c16 -63 57 -147 100 -203 l34 -44 -20 -41 c-33
-64 -43 -140 -27 -203 l13 -54 -48 -23 c-91 -43 -158 -136 -184 -258 -16 -78
-19 -247 -3 -256 5 -4 51 14 102 39 110 55 187 76 280 76 68 0 70 -1 119 -45
133 -119 362 -172 563 -130 118 25 208 76 301 170 77 79 82 82 105 69 64 -36
186 -66 289 -71 116 -6 195 9 282 53 44 22 50 23 76 10 54 -28 137 -103 182
-165 31 -42 51 -61 66 -61 30 0 80 60 118 140 54 115 46 245 -25 396 l-31 64
16 63 c20 79 20 131 1 243 -9 49 -17 95 -18 103 -1 10 26 21 92 37 51 13 168
48 258 79 l164 56 71 -66 c89 -82 181 -143 300 -200 320 -151 645 -119 903 90
l40 33 113 -4 113 -4 32 -41 c43 -55 129 -106 202 -121 33 -7 61 -13 63 -14 2
-1 -22 -27 -52 -57 -47 -47 -56 -62 -56 -91 0 -32 6 -40 73 -89 119 -89 217
-207 217 -263 0 -14 -7 -15 -37 -11 -198 31 -694 32 -979 3 -1066 -112 -1837
-469 -2084 -966 -60 -121 -202 -274 -335 -361 -228 -150 -494 -231 -755 -231
-128 0 -206 12 -323 49 -43 13 -85 22 -93 19 -21 -8 -17 -65 12 -158 105 -332
337 -559 649 -635 l73 -18 26 -60 c79 -180 247 -315 471 -377 69 -19 105 -22
270 -22 198 0 280 11 441 62 l62 19 75 -49 c216 -138 552 -274 889 -359 87
-21 128 -36 128 -45 0 -25 -71 -197 -128 -308 -151 -297 -345 -454 -669 -543
-71 -19 -123 -27 -188 -27 -80 -1 -95 2 -136 26 -63 37 -109 108 -178 277 -33
78 -74 167 -93 198 -88 146 -224 198 -418 159 -46 -10 -92 -21 -101 -26 -12
-7 -38 3 -99 39 -166 99 -344 134 -469 91 -73 -24 -128 -60 -186 -119 -50 -52
-43 -68 45 -91 154 -40 230 -110 259 -239 9 -40 8 -43 -24 -67 -47 -36 -69
-98 -62 -173 l6 -59 -52 -17 c-28 -9 -66 -26 -84 -36 -47 -29 -118 -112 -139
-163 l-18 -43 -88 -7 c-245 -19 -363 -122 -375 -328 -5 -103 6 -172 29 -176
10 -2 46 10 81 27 119 57 208 62 308 19 l46 -19 6 -74 c14 -166 94 -276 230
-321 29 -9 53 -18 55 -19 2 -1 -6 -20 -17 -42 -56 -107 -42 -264 38 -422 17
-33 27 -42 44 -39 18 2 23 11 27 48 12 97 56 124 200 125 l95 0 70 -57 c123
-101 286 -168 410 -168 58 0 157 26 217 56 59 30 149 111 180 163 12 20 23 38
25 40 1 2 22 -14 47 -37 92 -85 214 -122 395 -122 64 1 134 4 157 9 51 10 122
-19 183 -74 45 -41 64 -91 59 -157 -5 -63 16 -69 96 -29 80 39 160 115 188
177 40 93 34 210 -17 318 l-25 53 45 89 c71 142 77 251 20 365 -35 68 -128
166 -217 226 -46 32 -64 49 -56 55 7 4 47 15 88 25 159 37 384 16 554 -52 34
-14 67 -25 73 -25 14 0 162 124 206 173 20 23 56 68 79 100 33 46 45 56 62 51
80 -22 156 -48 190 -66 159 -81 288 -219 368 -395 16 -35 35 -66 42 -69 18 -7
158 64 266 133 106 69 189 153 226 230 26 52 29 69 30 161 l1 103 60 39 c219
143 263 365 114 576 -89 127 -225 236 -428 342 -57 29 -103 55 -103 57 0 3 18
32 40 66 159 247 119 519 -100 664 -109 72 -167 87 -377 96 -193 8 -233 12
-328 36 -214 53 -376 170 -449 323 -28 59 -31 74 -31 165 0 92 3 106 32 168
96 202 347 343 703 393 167 24 469 21 674 -5 88 -12 165 -26 173 -32 8 -7 13
-34 13 -71 0 -143 38 -377 85 -523 43 -132 135 -311 240 -465 159 -234 164
-242 196 -310 75 -157 76 -328 4 -541 -32 -93 -24 -105 68 -103 212 4 634 312
762 556 l35 66 43 -23 c105 -59 329 -131 497 -160 366 -63 785 -27 1013 86 33
16 64 26 68 22 9 -10 62 -269 84 -413 23 -146 31 -449 16 -547 -23 -142 -85
-241 -161 -258 -133 -29 -370 128 -609 403 -29 34 -75 76 -102 93 -193 124
-465 111 -609 -29 l-55 -53 -92 -5 c-235 -12 -395 -98 -471 -254 -18 -36 -35
-86 -38 -112 -8 -61 5 -67 94 -42 48 14 99 19 182 19 99 -1 121 -4 162 -23 69
-35 79 -49 67 -101 -11 -47 -4 -101 18 -144 13 -26 12 -34 -15 -100 -17 -40
-36 -100 -42 -134 l-13 -63 -46 0 c-112 -1 -263 -60 -323 -129 -17 -19 -43
-60 -57 -91 -23 -48 -26 -68 -25 -155 0 -120 16 -185 44 -185 11 0 41 16 67
36 125 95 274 134 397 103 36 -9 49 -19 74 -57 56 -85 128 -158 189 -188 32
-16 60 -30 62 -31 2 -1 -9 -16 -23 -34 -91 -107 -118 -265 -77 -449 25 -113
49 -170 70 -170 10 0 38 24 63 54 85 97 228 170 383 194 53 9 65 7 105 -13 73
-37 203 -74 301 -86 280 -34 501 84 624 333 66 135 115 352 115 516 0 28 2 52
5 52 3 0 22 -19 43 -42 97 -108 319 -238 477 -278 108 -28 254 -27 337 1 154
52 267 172 328 352 16 49 21 54 88 88 159 80 272 78 356 -6 65 -65 84 -46 106
107 24 163 -45 281 -197 338 -73 27 -210 50 -299 50 l-73 0 -39 58 c-52 76
-121 138 -190 170 -49 23 -70 27 -147 26 -80 0 -100 -4 -180 -37 -49 -20 -91
-35 -92 -33 -2 2 6 32 17 68 63 205 354 445 553 456 63 4 69 6 79 31 13 33 16
358 4 523 l-9 128 41 0 c69 0 270 39 365 70 125 42 200 84 275 154 138 129
179 315 127 570 l-14 68 47 53 c60 68 108 148 140 233 30 82 42 261 22 351
-18 83 -64 174 -110 215 -54 48 -71 46 -109 -13 -46 -71 -123 -138 -194 -171
-74 -33 -163 -53 -356 -80 -79 -11 -174 -27 -210 -36 -77 -19 -191 -70 -240
-108 -19 -14 -38 -26 -42 -26 -3 0 -9 18 -13 39 -3 21 -29 85 -57 142 -43 85
-66 117 -133 184 -147 148 -280 183 -470 125 -101 -32 -206 -108 -376 -274
-163 -160 -235 -215 -351 -271 -92 -44 -164 -58 -261 -53 -187 11 -322 144
-401 393 -24 78 -34 132 -97 517 -46 280 -105 478 -195 658 -19 38 -35 72 -35
75 0 3 32 -11 72 -31 141 -71 377 -135 553 -149 178 -15 594 31 806 89 798
220 1110 804 963 1806 -52 352 -138 672 -364 1345 -143 428 -175 532 -234 770
-125 505 -203 977 -271 1649 -21 210 -24 262 -15 328 22 160 80 278 195 394
91 92 181 149 300 191 70 24 94 28 200 28 111 0 124 -2 183 -29 112 -52 198
-168 218 -296 l7 -40 -54 0 c-96 -1 -173 -53 -204 -139 -19 -54 -19 -201 -1
-253 l14 -38 -77 -41 c-262 -141 -419 -342 -476 -612 -20 -91 -19 -293 1 -398
46 -244 177 -525 353 -754 68 -89 225 -248 308 -311 82 -64 105 -101 129 -215
29 -136 0 -355 -63 -470 -35 -66 -26 -82 53 -91 244 -28 445 116 539 384 26
73 29 76 63 83 57 11 145 60 185 104 76 84 122 220 134 392 l6 97 43 31 c112
79 169 233 176 482 l4 116 52 51 c91 92 139 200 149 338 12 165 -50 364 -162
514 -72 98 -198 206 -303 259 l-42 22 17 32 c21 41 30 204 14 265 -22 79 -110
151 -187 152 l-31 0 -7 71 c-23 227 -133 444 -292 574 -121 98 -266 166 -444
206 -99 23 -357 33 -460 19z m-4308 -1337 c95 -57 153 -248 138 -458 l-5 -70
-35 4 c-39 3 -93 29 -158 73 -115 79 -272 127 -424 131 -54 1 -98 6 -98 10 0
17 42 133 65 177 21 41 29 48 62 53 21 4 87 25 147 47 60 23 127 45 150 50 54
12 121 4 158 -17z m-387 -587 c92 -29 153 -68 227 -143 55 -56 128 -164 128
-189 0 -44 -392 -42 -440 1 -43 39 -118 214 -145 339 l-6 29 81 -7 c44 -4 114
-17 155 -30z"/>
</g>
</svg>
