<?xml version="1.0" standalone="no"?>
<!DOCTYPE svg PUBLIC "-//W3C//DTD SVG 20010904//EN"
 "http://www.w3.org/TR/2001/REC-SVG-20010904/DTD/svg10.dtd">
<svg version="1.0" xmlns="http://www.w3.org/2000/svg"
 width="814.000000pt" height="1280.000000pt" viewBox="0 0 814.000000 1280.000000"
 preserveAspectRatio="xMidYMid meet">
<metadata>
Created by potrace 1.15, written by Peter Selinger 2001-2017
</metadata>
<g transform="translate(0.000000,1280.000000) scale(0.100000,-0.100000)"
fill="#000000" stroke="none">
<path d="M2932 12735 c-49 -74 -86 -154 -103 -220 -11 -44 -14 -46 -93 -84
-44 -22 -119 -62 -166 -90 -101 -60 -180 -82 -275 -80 -84 3 -90 -7 -50 -78
14 -26 22 -49 18 -53 -5 -4 -35 -27 -69 -53 -85 -64 -193 -182 -265 -290 -82
-123 -154 -268 -260 -529 -143 -349 -231 -506 -314 -560 -43 -29 -44 -43 -2
-69 26 -16 44 -19 92 -16 33 3 71 8 84 13 24 7 23 6 -8 -39 -49 -71 -109 -204
-130 -287 -27 -106 -45 -358 -38 -525 10 -213 67 -468 171 -760 20 -54 40
-101 45 -104 6 -4 4 -44 -6 -106 -19 -127 -13 -268 22 -475 14 -85 30 -202 36
-260 5 -58 13 -108 18 -113 12 -12 101 40 149 86 54 52 91 104 136 193 l35 69
-7 -50 c-4 -27 -7 -104 -7 -170 1 -148 27 -250 110 -439 48 -108 71 -185 85
-283 1 -10 43 1 85 21 100 46 166 152 213 343 l27 108 6 -110 c9 -143 22 -215
64 -351 59 -191 67 -236 64 -383 -2 -97 0 -136 9 -139 22 -7 115 53 189 122
70 66 174 206 202 274 7 17 17 32 21 32 12 0 37 -69 49 -135 16 -88 14 -338
-4 -414 -20 -85 -89 -216 -172 -326 -37 -49 -194 -218 -348 -375 -294 -299
-412 -432 -500 -565 -125 -187 -170 -302 -236 -593 -55 -245 -75 -319 -110
-417 -73 -200 -189 -306 -352 -322 -216 -20 -397 163 -397 400 0 235 138 420
660 884 464 412 638 634 700 893 38 161 22 390 -42 585 -77 238 -206 445 -438
705 -280 313 -402 505 -461 726 -29 108 -30 321 -1 444 28 121 21 127 -57 47
-75 -78 -117 -139 -172 -252 -66 -138 -90 -226 -96 -366 -4 -89 -2 -134 11
-193 20 -89 70 -194 120 -252 l35 -42 -37 -72 c-32 -63 -36 -80 -36 -143 0
-86 34 -170 92 -230 31 -32 50 -46 109 -82 2 -1 -7 -26 -19 -56 -27 -71 -30
-186 -5 -251 24 -62 91 -122 158 -142 29 -9 59 -16 67 -16 13 0 13 -3 -1 -18
-49 -54 -62 -173 -27 -242 23 -46 78 -86 131 -95 118 -22 233 90 215 209 l-7
45 48 -14 c74 -22 97 -44 106 -103 23 -141 -61 -290 -267 -474 -50 -45 -190
-161 -311 -257 -400 -317 -538 -450 -661 -632 -92 -136 -115 -177 -157 -279
-52 -125 -71 -232 -63 -355 3 -55 9 -112 12 -128 6 -27 6 -27 -44 -27 -43 0
-57 5 -86 30 -44 39 -60 87 -51 148 10 71 38 109 96 129 27 10 49 23 49 30 0
22 -109 47 -205 47 -78 0 -97 -3 -140 -26 -64 -34 -118 -90 -147 -153 -34 -77
-32 -202 4 -271 56 -106 175 -174 304 -174 30 0 54 -2 54 -4 0 -3 -9 -21 -21
-40 -12 -20 -23 -62 -26 -95 -15 -161 126 -268 289 -219 52 15 104 74 113 126
8 52 2 62 -41 62 -50 0 -74 29 -74 88 0 56 23 98 40 71 31 -51 108 -144 158
-190 108 -99 206 -150 340 -176 72 -14 100 -15 186 -5 107 12 210 39 290 78
l49 24 -7 -63 c-3 -34 -10 -192 -16 -352 -5 -159 -14 -328 -20 -375 -10 -84
-11 -86 -58 -128 -137 -127 -287 -180 -385 -138 -18 7 -45 28 -61 45 -17 17
-38 31 -48 31 -26 0 -75 -81 -89 -149 -17 -80 -6 -277 25 -455 15 -82 25 -150
24 -151 -2 -1 -23 -12 -48 -23 -25 -12 -76 -52 -115 -89 -84 -80 -113 -93
-209 -93 -41 0 -77 -4 -81 -10 -9 -14 39 -101 73 -134 17 -15 54 -36 83 -45
l52 -17 -74 -13 c-95 -16 -109 -20 -109 -32 0 -18 114 -131 152 -150 21 -11
61 -22 89 -27 l52 -7 -54 -30 c-30 -16 -78 -34 -108 -40 -30 -6 -56 -16 -58
-21 -6 -19 42 -78 87 -106 60 -36 144 -57 262 -65 54 -3 98 -7 98 -8 0 -1 -9
-36 -20 -78 -28 -111 -41 -291 -30 -416 11 -121 24 -168 50 -176 16 -5 18 -16
17 -93 0 -58 5 -104 16 -137 19 -56 111 -185 132 -185 11 0 25 37 61 160 3 12
18 16 56 16 61 0 125 29 207 94 l53 42 42 -40 c46 -46 110 -78 176 -88 25 -4
56 -17 70 -29 14 -13 50 -37 81 -54 39 -22 61 -42 70 -63 14 -35 111 -138 129
-138 28 0 93 108 106 175 4 21 20 59 35 84 16 25 29 50 29 55 1 34 18 37 56
11 21 -15 51 -29 66 -32 24 -5 27 -11 32 -59 3 -30 9 -79 12 -109 6 -60 14
-65 57 -36 51 33 132 151 152 221 4 14 25 44 47 68 21 23 43 54 49 69 18 48
31 9 45 -129 7 -73 13 -134 13 -135 1 -2 9 -3 19 -3 19 0 87 66 116 113 47 75
65 152 65 264 -1 176 -45 291 -151 388 -95 88 -208 108 -277 49 l-29 -24 -58
27 c-77 35 -177 42 -277 18 l-73 -17 -48 31 c-27 17 -71 38 -98 47 -48 16 -51
19 -89 98 -138 291 -139 635 -3 963 45 109 91 180 157 239 75 68 138 108 404
260 347 199 516 322 618 452 98 124 185 333 241 581 l28 123 166 -4 c192 -6
282 -24 390 -76 102 -50 204 -153 256 -257 34 -69 39 -87 42 -169 6 -125 -3
-135 -122 -147 -145 -15 -177 -47 -159 -155 29 -168 110 -256 411 -448 l43
-27 -38 -42 c-21 -23 -44 -55 -50 -72 -6 -16 -18 -51 -28 -78 -9 -26 -34 -71
-56 -99 -21 -29 -39 -58 -39 -64 0 -18 74 -44 124 -44 50 0 100 15 139 42 15
11 27 16 27 11 0 -12 -59 -83 -93 -111 -15 -13 -27 -28 -27 -33 0 -19 70 -39
133 -39 73 0 136 19 183 55 l33 25 -16 -52 c-20 -69 -27 -82 -75 -134 -22 -24
-37 -47 -34 -53 8 -13 96 -31 150 -31 60 0 136 25 184 60 43 31 98 114 109
163 3 15 9 29 13 32 4 3 36 -14 71 -36 75 -49 198 -171 251 -249 l37 -55 -19
-55 c-14 -39 -19 -83 -20 -151 0 -87 2 -97 23 -117 13 -12 36 -26 52 -32 29
-10 30 -13 31 -76 1 -55 8 -78 42 -147 42 -83 113 -172 134 -165 6 2 23 35 38
73 49 127 50 129 157 180 54 25 133 66 176 91 43 25 80 44 81 42 2 -2 16 -27
32 -57 50 -94 175 -181 283 -197 40 -6 55 -16 112 -75 38 -39 75 -69 86 -69
10 0 29 13 40 28 28 38 73 128 73 146 0 8 20 38 45 67 25 30 53 70 62 91 16
36 18 37 57 32 34 -5 51 -17 98 -68 56 -60 58 -61 74 -41 34 42 57 110 59 174
l3 65 48 -3 c52 -3 90 -27 118 -73 22 -37 34 -35 52 7 22 54 18 143 -10 201
-13 27 -26 67 -30 88 -12 84 -110 238 -188 295 -48 36 -92 40 -163 16 l-45
-16 -85 42 c-114 57 -164 57 -263 3 l-70 -39 -74 32 c-40 17 -113 49 -163 71
-49 21 -111 44 -137 51 -44 10 -74 37 -411 374 -448 447 -496 510 -483 637 9
94 36 149 155 325 184 273 215 357 215 585 0 175 -21 274 -90 419 -105 222
-275 382 -549 516 -175 86 -374 144 -685 202 l-45 8 80 49 c137 84 155 96 155
105 0 26 -191 61 -338 62 l-117 0 95 49 c52 27 172 79 265 116 94 37 255 100
360 141 413 163 653 318 815 530 l25 32 0 -112 c0 -105 2 -117 34 -190 62
-144 145 -229 301 -307 71 -36 254 -100 285 -100 28 0 25 21 -8 53 -60 56 -98
155 -117 300 -18 144 15 282 87 366 27 31 31 33 52 20 19 -12 21 -20 17 -49
-15 -90 -18 -222 -7 -281 16 -77 37 -120 88 -179 30 -34 43 -62 56 -115 47
-194 194 -365 354 -410 32 -9 79 -23 105 -32 25 -8 59 -13 75 -11 28 3 28 3
27 75 0 55 -7 86 -29 138 -27 65 -28 68 -11 94 9 14 20 34 23 44 3 9 15 17 28
17 38 0 55 11 55 34 0 31 -43 117 -77 157 -53 60 -57 75 -33 114 19 31 26 35
65 35 57 0 71 17 55 67 -16 48 -46 98 -87 144 l-33 36 17 39 c14 30 17 65 17
149 -1 116 -21 225 -70 386 l-26 87 40 37 c45 40 64 86 67 157 1 45 4 49 70
103 38 31 76 60 84 65 14 7 13 11 -2 28 -23 25 -87 44 -160 47 -32 1 -60 5
-64 9 -11 11 -63 6 -100 -9 -51 -22 -54 -20 -37 28 48 132 58 335 24 477 -48
199 -173 372 -352 485 -55 35 -86 88 -108 185 -10 41 -31 128 -49 193 -17 65
-31 126 -31 136 0 14 14 10 84 -24 130 -64 350 -108 371 -75 3 5 -25 43 -62
82 -75 79 -135 163 -177 245 -14 29 -26 54 -26 57 0 3 24 -19 53 -48 66 -66
125 -101 207 -122 65 -16 164 -14 183 5 5 5 -22 55 -61 112 -118 177 -162 269
-94 196 58 -61 210 -99 257 -63 20 14 19 15 -17 53 -49 51 -72 106 -102 246
-14 65 -36 141 -49 170 l-24 52 29 85 c38 113 49 124 115 109 77 -18 87 -11
80 61 -6 69 -49 169 -96 222 -28 32 -31 42 -31 102 l0 66 284 0 284 0 32 -27
32 -26 21 26 c20 24 29 26 107 28 47 2 91 -1 98 -5 18 -11 37 7 60 57 11 23
30 51 42 62 l22 20 69 -73 c38 -40 73 -71 79 -67 20 12 51 87 57 135 7 60 -10
133 -44 184 -14 21 -27 53 -30 70 -6 44 -36 82 -118 154 -39 34 -98 96 -131
136 -83 103 -110 120 -180 113 -30 -3 -91 -18 -134 -32 l-80 -27 -48 42 c-44
39 -50 42 -93 38 -33 -4 -65 -17 -109 -46 -34 -23 -64 -42 -67 -42 -2 0 -22
15 -45 32 -33 27 -48 33 -83 31 -93 -3 -213 -80 -370 -236 -80 -80 -146 -134
-240 -196 -85 -57 -139 -100 -158 -127 -29 -42 -35 -70 -56 -281 -6 -56 -16
-113 -22 -127 -11 -23 -157 -134 -289 -218 -356 -229 -371 -237 -376 -220 -18
56 -79 164 -118 210 -162 190 -417 316 -743 368 -79 13 -172 18 -348 19 -261
1 -257 0 -327 63 -54 48 -88 119 -95 196 l-6 64 149 0 c127 1 204 8 337 35 21
4 7 -46 -21 -76 -15 -16 -39 -36 -54 -45 -16 -9 -28 -23 -28 -32 1 -25 91 -90
126 -90 34 0 117 49 133 77 7 14 18 18 43 15 19 -2 41 3 53 12 20 14 20 15 -9
45 -36 38 -44 102 -22 186 9 32 16 79 16 102 0 42 -1 43 -34 43 -25 0 -35 5
-39 20 -3 11 -4 20 -2 20 1 0 38 -11 81 -25 277 -89 516 -112 687 -66 170 45
310 154 358 278 31 81 31 206 0 285 -38 99 -146 198 -215 198 -37 0 -40 -15
-12 -57 62 -94 78 -231 37 -316 -81 -167 -319 -233 -612 -172 -77 16 -245 67
-291 88 l-27 12 26 44 c27 44 27 44 44 22 24 -29 33 -27 73 22 95 116 162 277
154 368 -4 39 -1 52 14 65 15 14 48 99 48 124 0 10 -255 164 -337 203 -40 19
-102 43 -138 52 -62 17 -66 20 -95 71 -42 75 -89 124 -137 146 -45 20 -191 37
-316 38 -43 0 -92 6 -110 14 -18 7 -59 43 -91 80 -72 81 -162 129 -277 148
-75 13 -78 14 -116 63 -68 85 -202 195 -238 195 -6 0 -30 -29 -53 -65z m971
-1179 c18 -7 85 -48 151 -91 108 -70 181 -109 307 -163 47 -20 59 -42 59 -108
0 -29 -10 -30 -86 -4 -92 32 -245 60 -326 60 -117 0 -205 -31 -301 -104 l-47
-36 -7 28 c-5 15 -8 61 -8 102 0 63 5 85 31 140 41 84 86 146 127 170 38 24
57 25 100 6z m398 -572 l111 -36 -5 -36 c-4 -19 -10 -39 -14 -43 -10 -9 -162
-36 -260 -45 l-73 -7 0 61 c0 151 44 170 241 106z"/>
</g>
</svg>
