<?xml version="1.0" standalone="no"?>
<!DOCTYPE svg PUBLIC "-//W3C//DTD SVG 20010904//EN"
 "http://www.w3.org/TR/2001/REC-SVG-20010904/DTD/svg10.dtd">
<svg version="1.0" xmlns="http://www.w3.org/2000/svg"
 width="1093.000000pt" height="1280.000000pt" viewBox="0 0 1093.000000 1280.000000"
 preserveAspectRatio="xMidYMid meet">
<metadata>
Created by potrace 1.15, written by Peter Selinger 2001-2017
</metadata>
<g transform="translate(0.000000,1280.000000) scale(0.100000,-0.100000)"
fill="#000000" stroke="none">
<path d="M6750 12258 c-624 -298 -1137 -543 -1139 -545 -5 -3 -63 -1435 -59
-1438 2 -1 365 -28 807 -59 442 -31 807 -59 811 -61 4 -2 241 -316 528 -697
l521 -693 240 -1211 241 -1210 -792 -1620 -792 -1619 -186 -489 -187 -490
-551 -184 -552 -184 0 -28 c0 -33 179 -1722 183 -1726 2 -2 1153 305 2107 562
l245 66 810 1456 809 1457 108 360 c179 592 524 1738 784 2599 l244 809 -450
1771 c-248 974 -456 1781 -463 1793 -9 17 -2029 1838 -2118 1910 -12 10 -222
-87 -1149 -529z"/>
<path d="M2005 11829 c-572 -512 -1053 -943 -1069 -958 -26 -27 -60 -151 -482
-1802 l-454 -1773 24 -81 c172 -569 968 -3198 1031 -3402 l83 -273 802 -1437
c441 -791 808 -1444 814 -1451 7 -6 212 -61 456 -122 731 -179 2103 -518 2130
-524 l25 -7 79 866 c43 476 77 867 75 869 -2 1 -105 33 -229 69 -764 227
-1093 326 -1101 334 -4 4 -89 221 -189 482 l-181 473 -795 1620 -795 1620 236
1181 c130 650 240 1194 245 1209 8 24 995 1344 1039 1390 14 14 129 24 821 73
442 31 806 57 807 59 5 5 -53 1425 -58 1430 -2 2 -508 243 -1124 536 -616 293
-1127 536 -1135 540 -11 6 -285 -233 -1055 -921z"/>
<path d="M5172 10076 c-140 -8 -206 -16 -211 -24 -5 -9 -160 -24 -530 -51
-287 -21 -526 -42 -530 -47 -5 -5 -222 -301 -482 -659 -286 -392 -478 -666
-486 -690 -17 -56 -495 -2136 -491 -2140 2 -1 210 199 463 445 l460 448 201
81 c110 44 206 81 212 81 12 0 255 -152 279 -174 7 -6 53 -144 102 -306 l89
-295 27 -640 c14 -352 28 -641 30 -643 2 -2 119 13 260 33 l257 36 267 -145
c146 -80 294 -161 327 -180 53 -30 64 -33 80 -22 11 8 157 89 326 181 l308
167 256 -36 c141 -21 258 -36 260 -34 2 2 15 292 30 644 l26 639 89 295 c49
162 95 300 102 306 32 30 269 174 285 173 9 0 106 -37 214 -82 l198 -82 460
-448 c253 -246 460 -444 460 -438 0 5 -112 495 -249 1088 l-249 1078 -476 655
c-262 360 -487 660 -499 667 -13 7 -179 23 -412 38 -214 15 -419 31 -455 36
-134 19 -618 58 -705 57 -49 0 -181 -6 -293 -12z"/>
<path d="M2955 6768 l-448 -443 422 -878 c397 -825 440 -919 722 -1594 165
-395 304 -722 309 -727 5 -5 301 172 722 432 l713 440 9 131 8 131 -198 212
c-109 117 -201 216 -204 221 -4 4 -101 34 -216 67 -115 33 -219 64 -231 69
-13 6 -122 92 -243 192 -205 169 -220 184 -220 214 0 19 -22 426 -50 905 -27
479 -50 887 -50 906 l0 34 -187 0 -188 0 -108 65 c-60 36 -110 65 -112 65 -1
0 -204 -199 -450 -442z"/>
<path d="M7430 7144 l-105 -64 -187 0 -188 0 0 -37 c0 -21 -23 -429 -50 -908
-27 -478 -50 -884 -50 -901 0 -29 -19 -47 -220 -213 -121 -100 -230 -186 -243
-191 -12 -6 -115 -37 -229 -69 l-206 -59 -74 -79 c-41 -43 -134 -142 -207
-220 l-133 -143 7 -129 8 -130 713 -440 c392 -243 717 -441 721 -441 4 0 140
319 302 708 280 671 316 752 724 1602 l429 894 -445 443 c-245 244 -449 443
-454 442 -4 0 -55 -30 -113 -65z"/>
<path d="M4571 5414 c-124 -25 -226 -46 -228 -48 -5 -5 47 -240 55 -247 4 -3
129 -59 277 -124 149 -65 286 -126 306 -136 23 -12 119 -110 260 -268 123
-137 225 -248 226 -247 1 1 -6 170 -17 376 -11 206 -20 378 -20 382 0 10 -606
358 -621 357 -8 -1 -115 -21 -238 -45z"/>
<path d="M5830 5289 c-162 -94 -298 -174 -303 -178 -6 -6 -49 -762 -44 -768 1
-1 103 111 226 248 141 158 237 256 260 268 20 10 158 71 306 136 149 65 273
121 277 124 9 8 60 242 55 248 -4 3 -464 93 -477 93 -3 0 -138 -77 -300 -171z"/>
<path d="M5435 3893 c-22 -15 -323 -213 -670 -441 -366 -240 -631 -420 -633
-430 -3 -22 164 -772 175 -783 11 -11 1138 -289 1170 -289 31 0 1155 279 1166
290 5 4 48 184 96 400 l88 393 -141 92 c-683 445 -1118 733 -1153 761 -23 19
-45 34 -50 34 -5 0 -26 -12 -48 -27z"/>
</g>
</svg>
