<?xml version="1.0" standalone="no"?>
<!DOCTYPE svg PUBLIC "-//W3C//DTD SVG 20010904//EN"
 "http://www.w3.org/TR/2001/REC-SVG-20010904/DTD/svg10.dtd">
<svg version="1.0" xmlns="http://www.w3.org/2000/svg"
 width="1019.000000pt" height="1280.000000pt" viewBox="0 0 1019.000000 1280.000000"
 preserveAspectRatio="xMidYMid meet">
<metadata>
Created by potrace 1.15, written by Peter Selinger 2001-2017
</metadata>
<g transform="translate(0.000000,1280.000000) scale(0.100000,-0.100000)"
fill="#000000" stroke="none">
<path d="M4925 12785 c-111 -28 -186 -89 -228 -185 -23 -51 -31 -58 -98 -94
-224 -118 -731 -454 -737 -489 -5 -26 55 -49 142 -56 l78 -6 -82 -68 c-128
-108 -327 -305 -467 -463 -70 -80 -131 -151 -135 -159 -13 -22 18 -46 45 -35
246 101 313 127 316 124 2 -2 -24 -33 -57 -69 -223 -238 -451 -590 -533 -824
-22 -64 -24 -100 -5 -107 7 -3 85 36 172 85 87 50 162 91 167 91 4 0 -21 -42
-56 -92 -174 -251 -313 -543 -382 -801 -41 -152 -31 -172 57 -113 54 36 192
149 262 215 21 20 37 32 34 26 -2 -5 -31 -66 -65 -135 -77 -158 -123 -275
-169 -432 -20 -67 -38 -125 -39 -126 -23 -25 -464 239 -765 458 -281 203 -411
324 -460 423 -29 59 -34 80 -37 165 -4 81 0 113 21 197 14 55 34 111 44 125
13 17 44 33 99 51 97 32 151 67 226 149 59 64 68 90 42 126 -12 17 -12 28 -2
60 17 58 12 282 -10 384 -17 80 -20 85 -45 88 -24 3 -27 -1 -32 -35 -13 -88
-38 -170 -65 -211 l-28 -43 -37 45 c-49 61 -131 101 -189 93 -24 -3 -49 -9
-57 -12 -10 -3 -22 7 -35 27 -16 28 -19 48 -16 131 3 80 -1 110 -20 169 -24
77 -91 183 -166 267 l-49 53 1 -188 c0 -209 -11 -280 -44 -269 -46 14 -160 35
-196 35 -22 0 -54 -9 -71 -19 -32 -19 -33 -19 -71 0 -36 18 -43 18 -86 5 l-47
-14 -63 62 c-72 73 -133 100 -267 121 -87 14 -270 24 -270 15 0 -3 35 -27 78
-55 101 -65 229 -193 267 -268 l30 -57 -51 -48 c-61 -56 -79 -102 -70 -177 5
-47 4 -54 -17 -68 -19 -12 -26 -13 -41 -1 -11 7 -49 24 -85 36 -110 38 -285
31 -479 -19 -58 -15 -63 -18 -60 -42 3 -25 8 -27 107 -43 172 -28 283 -67 350
-124 27 -22 31 -32 25 -53 -11 -42 -5 -98 21 -179 31 -97 84 -187 155 -263
l55 -59 1 -107 c0 -68 6 -131 17 -171 38 -140 138 -314 261 -450 36 -40 66
-80 66 -89 0 -20 290 -884 303 -900 24 -32 44 -12 89 82 l45 96 23 -78 c82
-278 240 -589 294 -581 19 3 47 62 80 173 5 15 13 0 32 -55 57 -170 210 -433
275 -473 34 -21 49 -1 49 61 0 33 3 87 7 121 l6 63 37 -109 c66 -190 165 -412
191 -429 7 -4 19 1 28 13 16 19 58 173 82 298 l11 59 32 -90 c42 -115 127
-308 178 -402 56 -101 72 -98 111 23 16 50 34 125 40 168 6 42 14 77 17 77 3
0 27 -42 54 -92 l49 -92 -39 -34 c-22 -19 -149 -137 -284 -262 -451 -418 -637
-573 -815 -678 -72 -43 -192 -92 -223 -92 -12 0 -28 20 -46 58 -45 91 -47 106
-30 222 9 58 13 123 9 145 -13 82 -71 134 -134 122 -25 -5 -31 -2 -42 25 -47
113 -139 199 -257 238 -59 19 -297 46 -338 38 -12 -2 14 -24 81 -67 124 -80
188 -132 215 -175 30 -49 26 -56 -30 -56 -28 0 -64 -6 -79 -14 -45 -24 -139
-132 -152 -176 l-12 -39 -31 16 c-42 22 -168 28 -231 11 -43 -12 -57 -12 -95
0 -29 10 -95 15 -190 16 -119 1 -156 -2 -205 -19 -59 -19 -175 -90 -182 -111
-2 -7 31 -16 89 -23 111 -14 191 -34 260 -64 l52 -23 1 -145 c1 -185 11 -209
135 -307 l24 -20 -41 -20 c-61 -32 -96 -78 -90 -121 3 -32 -2 -42 -53 -98 -33
-36 -73 -96 -97 -145 -40 -82 -118 -296 -111 -304 2 -2 37 26 78 62 124 108
233 170 334 189 37 7 40 6 104 -58 127 -125 231 -139 302 -42 27 37 47 48 30
16 -15 -28 -12 -73 5 -98 14 -20 14 -26 -3 -60 -47 -93 -57 -143 -57 -278 1
-105 5 -146 24 -213 22 -78 25 -83 49 -80 22 3 28 12 47 83 32 121 78 198 172
291 l55 54 36 -19 c93 -47 128 -39 290 62 l114 70 101 8 c138 11 179 22 352
97 83 35 193 75 245 89 172 44 370 41 644 -8 149 -26 156 -26 156 9 0 44 -51
105 -140 168 -57 39 -78 60 -71 67 9 9 178 16 594 26 50 2 31 39 -43 83 -107
65 -121 85 -75 106 50 23 164 35 385 41 220 6 225 6 225 27 0 15 -25 38 -94
85 -52 35 -97 70 -99 78 -4 12 49 13 352 7 327 -7 357 -6 362 9 10 26 -10 38
-161 103 -77 32 -162 71 -190 85 l-50 25 40 8 c22 4 179 3 350 -1 478 -13 459
-14 463 11 4 27 -103 128 -193 182 l-67 40 39 6 c21 3 109 15 197 26 87 11
162 23 167 26 5 3 41 -10 81 -29 96 -46 156 -62 320 -86 159 -24 265 -27 312
-7 34 14 34 14 84 -34 27 -26 93 -76 146 -110 53 -35 95 -64 94 -65 -2 -2 -59
-8 -128 -15 -580 -55 -1174 -320 -1564 -699 -178 -174 -294 -332 -394 -538
-57 -119 -53 -127 63 -121 l81 4 -22 -76 c-36 -124 -47 -227 -42 -393 8 -234
28 -256 118 -130 70 96 100 133 110 133 4 0 15 -39 24 -86 21 -106 61 -228 88
-273 13 -20 39 -41 65 -53 23 -10 43 -22 43 -25 0 -12 -72 -147 -103 -193
-279 -416 -594 -711 -868 -811 -88 -32 -123 -37 -526 -65 -198 -14 -245 -15
-257 -5 -21 18 -21 107 0 248 24 161 6 261 -50 283 -17 6 -26 20 -30 47 -9 48
-48 114 -100 171 -44 48 -225 196 -232 190 -2 -2 10 -36 26 -75 39 -93 60
-176 60 -238 l0 -52 -47 10 c-101 20 -204 -45 -232 -145 l-13 -45 -36 13 c-41
14 -106 17 -136 5 -13 -5 -38 2 -75 20 -104 51 -257 62 -408 29 -48 -11 -53
-14 -53 -39 0 -25 6 -29 58 -45 73 -23 160 -67 201 -101 l31 -27 -38 -37 c-45
-44 -52 -71 -52 -210 0 -105 20 -163 67 -201 23 -18 24 -21 9 -35 -9 -9 -16
-22 -16 -29 0 -6 -25 -20 -56 -29 -97 -30 -185 -106 -275 -238 -38 -56 -38
-57 -18 -74 19 -18 23 -16 142 44 68 34 141 65 164 68 l40 5 6 -55 c6 -60 29
-112 76 -171 38 -47 128 -116 153 -116 14 0 18 -7 16 -39 -1 -22 5 -50 14 -62
13 -21 12 -28 -16 -83 -36 -73 -46 -183 -27 -311 14 -94 18 -102 50 -106 19
-3 26 2 32 21 65 216 102 299 150 328 18 12 24 11 43 -7 70 -65 149 -66 402
-1 179 46 205 50 312 50 137 0 330 15 422 31 55 10 71 18 102 50 l37 39 118
10 c234 20 446 51 651 95 153 33 329 84 342 100 20 24 -1 42 -68 61 l-67 18
65 18 c138 40 258 82 338 119 104 48 106 64 12 95 -64 21 -64 22 -37 33 15 6
92 29 170 52 303 87 472 156 472 194 0 18 -11 22 -90 33 -49 8 -97 16 -105 19
-8 3 28 20 80 39 254 92 441 176 558 251 42 26 53 38 50 56 -3 19 -10 22 -48
24 -97 6 -261 24 -282 32 -21 8 -20 10 22 29 25 10 131 50 235 87 317 113 400
155 370 184 -6 5 -63 17 -128 26 -176 24 -173 20 -49 98 181 114 245 171 213
191 -5 3 -60 19 -123 35 -210 54 -342 117 -433 206 -93 91 -106 195 -39 327
79 156 283 342 551 504 114 68 191 97 245 92 l32 -3 18 -130 c34 -244 132
-576 172 -583 11 -3 35 12 62 39 24 23 45 41 47 38 2 -2 11 -31 21 -63 41
-134 157 -346 294 -536 82 -112 102 -122 126 -58 19 54 36 148 36 205 0 24 2
43 5 43 3 0 92 -79 198 -177 106 -97 266 -240 357 -318 193 -166 192 -166 222
-230 31 -70 31 -234 0 -352 -76 -285 -259 -627 -503 -943 -128 -166 -318 -350
-361 -350 -8 0 -43 14 -77 31 -72 36 -101 72 -168 203 -24 48 -55 99 -69 113
-23 23 -30 24 -127 22 -91 -3 -107 -1 -140 18 -61 37 -163 63 -242 63 -70 0
-259 -40 -277 -58 -5 -5 -6 -20 -3 -34 6 -24 11 -25 78 -27 123 -4 218 -37
285 -101 30 -29 32 -34 19 -54 -7 -11 -28 -28 -45 -37 -59 -30 -65 -39 -59
-89 l6 -46 -44 -12 c-47 -13 -102 -60 -111 -98 -6 -22 -11 -24 -73 -24 -127 0
-236 -31 -331 -93 -44 -29 -220 -195 -220 -208 0 -4 35 2 78 12 113 28 286 34
405 16 54 -8 100 -17 102 -19 2 -1 -1 -23 -5 -48 -12 -60 3 -112 40 -144 30
-25 87 -46 124 -46 13 0 16 -5 11 -18 -4 -9 -10 -26 -13 -37 -3 -11 -26 -42
-52 -70 -86 -93 -120 -198 -119 -368 l0 -102 32 40 c78 99 195 203 270 240
l75 37 84 -32 c158 -62 231 -67 291 -20 30 24 37 25 37 6 0 -7 8 -24 19 -37
16 -21 17 -30 8 -77 -21 -102 25 -252 114 -369 52 -69 79 -72 79 -9 0 66 19
187 38 248 l17 53 71 -3 c93 -5 120 10 249 130 114 106 175 154 330 259 61 40
149 112 196 159 74 74 93 100 144 200 105 208 204 304 582 564 162 112 171
120 153 141 -10 11 -27 13 -85 8 -42 -3 -75 -2 -78 4 -3 5 97 110 224 232 280
272 289 293 104 251 -52 -12 -99 -20 -105 -18 -5 2 48 55 117 118 127 116 313
315 313 336 0 15 -27 37 -37 31 -17 -10 -215 -59 -219 -54 -3 3 51 89 120 191
119 176 276 466 276 509 0 39 -33 28 -162 -57 -72 -48 -133 -85 -135 -82 -2 2
49 84 113 181 65 98 146 234 181 301 97 191 86 208 -74 112 -130 -78 -173
-101 -180 -95 -2 3 18 63 45 133 27 71 59 162 71 203 20 65 21 76 8 89 -13 13
-25 8 -99 -41 -163 -108 -292 -155 -388 -142 -66 9 -143 56 -191 117 -82 105
-137 239 -254 628 -42 140 -86 277 -96 304 -11 27 -18 50 -17 51 2 2 51 -21
110 -50 263 -129 522 -172 722 -120 199 52 366 213 456 439 126 315 131 666
15 1091 -101 369 -221 662 -575 1405 -294 617 -333 710 -404 964 -99 353 -116
552 -55 611 13 12 80 41 149 65 257 88 529 219 675 322 47 34 125 103 174 153
144 151 215 275 263 457 29 111 31 375 4 513 -11 55 -20 148 -21 240 -6 278
-64 447 -197 570 -57 53 -123 86 -203 101 -24 4 -61 25 -94 52 -106 86 -241
131 -392 132 -62 0 -81 -4 -102 -20 -35 -28 -41 -53 -22 -94 19 -40 50 -65
150 -123 128 -75 157 -129 157 -293 1 -191 -31 -240 -287 -445 -194 -156 -277
-231 -368 -333 -212 -236 -317 -464 -378 -827 -19 -109 -23 -170 -23 -375 -1
-252 9 -375 46 -570 74 -395 178 -657 568 -1425 222 -436 282 -568 378 -821
113 -299 160 -488 169 -679 8 -183 -11 -288 -75 -424 -67 -145 -196 -212 -347
-181 -165 33 -415 206 -577 400 -110 130 -170 230 -333 550 -215 420 -272 512
-991 1605 -32 50 -61 94 -63 99 -2 5 26 -12 63 -39 38 -27 73 -45 81 -41 21 8
19 67 -6 156 -62 226 -256 511 -566 831 l-122 126 77 17 c89 20 317 132 317
156 0 22 -37 36 -232 86 -290 73 -333 85 -413 115 l-30 11 68 48 c38 27 81 63
97 82 38 45 66 109 54 124 -5 6 -57 14 -116 17 -433 25 -714 205 -748 480 l-7
57 93 0 c119 0 161 -12 207 -59 20 -21 49 -45 63 -55 39 -25 126 -36 207 -26
80 11 310 92 330 117 18 25 15 74 -8 111 -17 28 -40 46 -124 97 -14 8 -15 16
-7 40 6 17 22 69 36 116 l26 87 52 -14 c75 -19 150 -51 337 -142 175 -85 319
-136 490 -173 141 -31 337 -33 424 -5 123 41 205 122 227 223 14 67 0 205 -27
274 -33 81 -100 101 -171 50 -133 -96 -388 -159 -598 -148 -124 7 -174 20
-400 107 -99 38 -213 78 -254 89 -41 11 -75 22 -77 24 -2 2 29 42 68 89 l72
85 35 -9 c56 -16 131 6 215 63 141 94 237 230 238 338 0 33 4 51 11 49 7 -1
22 2 34 6 68 23 24 204 -78 320 -54 61 -130 114 -319 221 -85 49 -201 117
-256 152 -166 104 -300 160 -465 197 -15 3 -69 42 -120 86 -129 111 -196 143
-310 148 -54 3 -137 -2 -208 -12 -118 -17 -120 -17 -188 4 -89 28 -228 35
-308 15z m1360 -1242 l38 -28 -2 -178 -2 -178 72 83 c40 46 74 85 76 87 2 3 9
-2 16 -10 8 -10 11 -53 9 -148 l-3 -134 -47 7 c-26 4 -83 12 -127 18 -44 6
-187 11 -317 12 -157 1 -238 5 -238 11 0 6 27 55 60 109 193 317 348 433 465
349z m-125 -744 c104 -9 279 -34 285 -41 2 -2 -46 -36 -106 -76 l-109 -72 0
85 c0 47 -2 85 -6 85 -3 0 -36 -25 -75 -56 -52 -42 -75 -55 -92 -51 -12 3 -56
15 -97 27 -41 11 -120 25 -174 31 -55 5 -108 14 -118 20 -18 10 -25 49 -10 63
8 10 339 0 502 -15z"/>
</g>
</svg>
