<?xml version="1.0" standalone="no"?>
<!DOCTYPE svg PUBLIC "-//W3C//DTD SVG 20010904//EN"
 "http://www.w3.org/TR/2001/REC-SVG-20010904/DTD/svg10.dtd">
<svg version="1.0" xmlns="http://www.w3.org/2000/svg"
 width="1099.000000pt" height="1280.000000pt" viewBox="0 0 1099.000000 1280.000000"
 preserveAspectRatio="xMidYMid meet">
<metadata>
Created by potrace 1.15, written by Peter Selinger 2001-2017
</metadata>
<g transform="translate(0.000000,1280.000000) scale(0.100000,-0.100000)"
fill="#000000" stroke="none">
<path d="M6255 12780 c-49 -11 -163 -40 -253 -65 -197 -54 -344 -85 -409 -85
-125 -1 -253 -53 -382 -158 -93 -75 -118 -83 -270 -92 -171 -9 -233 -30 -307
-104 -54 -54 -100 -152 -90 -190 3 -11 -4 -46 -14 -77 -11 -32 -20 -76 -20
-98 0 -137 139 -292 288 -322 44 -9 62 -18 62 -29 0 -8 11 -45 24 -82 19 -53
21 -68 10 -68 -7 0 -87 11 -176 25 -213 32 -537 70 -768 90 -102 9 -200 18
-219 21 l-34 5 41 42 c67 71 85 122 61 184 -26 69 -99 113 -188 113 -56 0 -62
-2 -128 -54 -68 -54 -136 -131 -167 -193 -40 -79 -57 -228 -35 -306 13 -47 60
-102 110 -127 60 -31 169 -43 324 -37 77 4 166 11 197 16 191 33 618 38 873
11 177 -18 233 -30 238 -48 4 -15 5 -15 6 1 1 14 7 16 29 11 15 -4 28 -7 29
-8 1 -1 -9 -32 -23 -70 -13 -37 -27 -101 -31 -142 -6 -74 -6 -74 -35 -74 -91
0 -146 -86 -105 -166 23 -44 33 -50 125 -70 47 -10 81 -22 79 -28 -2 -6 -28
-26 -57 -43 -96 -58 -166 -37 -229 70 -19 32 -41 57 -50 57 -32 0 -96 -46
-114 -80 -20 -39 -17 -83 11 -162 9 -26 14 -50 10 -53 -10 -10 -202 42 -272
74 -106 48 -176 124 -176 191 0 41 -16 70 -39 70 -26 0 -79 -63 -110 -130 -22
-47 -26 -72 -29 -182 l-4 -126 -67 -12 c-89 -17 -231 -65 -312 -106 l-66 -33
-105 53 c-237 120 -340 210 -661 577 -201 231 -399 406 -534 472 -24 12 -43
24 -43 28 0 15 89 80 121 89 19 6 65 10 104 10 122 0 171 41 161 136 -5 44 -3
54 16 70 36 32 78 106 78 138 0 17 -9 50 -20 74 -10 23 -24 79 -30 123 -29
214 -119 309 -291 309 -69 0 -233 -32 -251 -49 -5 -4 26 -40 68 -80 l76 -73
-60 -39 c-109 -71 -175 -163 -202 -279 -7 -30 -14 -61 -16 -67 -7 -27 -110 34
-136 80 -8 14 -15 80 -18 173 -5 144 -6 152 -33 193 -31 47 -100 84 -178 96
-37 6 -47 3 -63 -14 -18 -20 -19 -19 -56 57 -119 247 -343 287 -609 108 -77
-51 -244 -187 -238 -192 2 -2 55 5 118 16 197 34 303 25 362 -32 30 -28 30
-29 5 -14 l-28 16 -45 -57 c-75 -96 -99 -155 -99 -248 -1 -70 2 -86 27 -128
56 -95 167 -158 319 -180 l78 -11 -23 -24 c-37 -40 -96 -69 -242 -117 -159
-52 -205 -76 -268 -139 l-44 -45 -44 16 c-30 10 -67 14 -116 11 -125 -8 -226
-76 -277 -187 -27 -59 -28 -182 -1 -256 39 -109 27 -105 104 -33 102 97 179
127 245 97 l25 -12 -24 -29 c-14 -16 -25 -33 -25 -37 0 -4 17 -32 38 -61 80
-115 209 -141 357 -72 81 38 145 85 268 195 l87 78 48 -35 c116 -85 180 -184
167 -254 -10 -55 -42 -110 -96 -167 -27 -29 -49 -56 -49 -60 0 -5 21 -46 47
-91 47 -81 47 -82 81 -77 l34 6 -15 -30 c-27 -52 -61 -66 -136 -59 -36 3 -83
9 -104 12 l-38 6 41 -83 c53 -105 100 -163 153 -191 55 -28 127 -28 189 -1 54
25 134 100 177 167 l29 46 29 -36 29 -36 33 78 c18 43 38 107 45 142 l11 63
37 -56 c75 -114 74 -222 -3 -381 -24 -49 -44 -91 -46 -94 -6 -10 131 -78 190
-95 72 -21 119 -14 146 21 l21 26 10 -28 c36 -95 17 -180 -69 -312 l-60 -91
51 -17 c94 -31 226 2 303 76 l30 29 33 -20 c17 -12 32 -24 32 -28 0 -14 -156
-101 -243 -136 -146 -59 -273 -86 -432 -92 -281 -10 -446 64 -505 225 -50 137
-115 61 -115 -133 0 -95 2 -103 34 -163 129 -238 491 -343 894 -261 220 45
481 151 677 278 l25 16 -19 -30 c-84 -133 -208 -250 -325 -308 l-85 -42 -128
0 c-80 -1 -132 -5 -139 -12 -18 -18 -1 -49 64 -116 78 -80 137 -108 241 -116
69 -5 76 -7 55 -17 -13 -7 -64 -21 -114 -33 -49 -12 -173 -46 -275 -76 -316
-95 -466 -125 -619 -125 -99 0 -139 8 -151 30 -5 10 -14 71 -20 136 -15 163
-33 217 -92 277 -37 37 -53 46 -70 42 -20 -5 -28 4 -63 70 -69 134 -167 214
-260 215 -53 0 -133 -38 -190 -91 -44 -40 -145 -161 -145 -172 0 -3 33 -3 73
0 70 5 147 -12 147 -34 0 -4 -16 -18 -35 -30 -84 -55 -102 -175 -52 -354 15
-53 27 -104 27 -113 0 -36 -47 -15 -139 64 -61 52 -112 86 -148 100 -63 24
-158 27 -166 6 -4 -10 -18 -2 -49 28 -114 109 -256 116 -361 17 -41 -38 -95
-155 -107 -231 -11 -76 -14 -280 -2 -280 4 0 24 27 45 60 36 55 98 120 115
120 4 0 23 -10 42 -21 32 -20 34 -23 16 -33 -60 -36 -61 -38 -60 -138 0 -104
26 -182 72 -218 31 -25 46 -25 70 0 18 19 18 19 77 -5 64 -26 142 -32 178 -14
12 6 37 25 54 42 18 17 34 29 36 26 1 -2 20 -31 41 -64 22 -33 61 -88 88 -122
l49 -62 -100 -66 c-206 -137 -276 -256 -245 -414 6 -26 11 -31 36 -31 16 0 28
-3 26 -7 -72 -144 -73 -146 -73 -233 0 -72 4 -93 27 -140 35 -70 88 -132 168
-194 56 -44 63 -47 56 -25 -3 13 -9 62 -13 109 -6 95 4 131 52 188 24 29 103
79 109 70 1 -2 12 -19 24 -39 l22 -37 78 15 c42 8 110 30 149 48 108 50 154
103 247 284 42 83 82 151 88 151 17 0 105 -95 201 -218 123 -157 188 -201 324
-218 46 -6 53 -4 53 11 0 23 43 13 87 -21 43 -32 57 -80 49 -165 -4 -38 -6
-69 -3 -69 2 0 27 7 56 16 66 19 134 80 157 140 27 70 16 177 -27 263 -25 50
-31 71 -23 78 21 15 -5 189 -41 277 -8 18 -5 19 56 12 188 -20 237 -75 284
-316 9 -47 18 -86 19 -88 7 -7 96 188 101 223 13 77 13 77 43 57 43 -28 132
-22 225 16 100 41 132 42 152 2 22 -43 19 -61 -25 -145 -22 -42 -40 -78 -40
-79 0 -2 39 5 88 15 191 42 295 84 328 134 15 23 18 24 44 10 16 -8 51 -15 79
-15 43 0 52 -4 70 -28 35 -49 115 -85 201 -90 l76 -4 27 60 c36 79 50 158 38
211 -8 37 -7 40 9 31 9 -5 24 -20 33 -33 8 -13 48 -57 89 -99 67 -69 79 -77
155 -102 48 -16 118 -51 168 -83 66 -43 98 -57 134 -61 44 -4 49 -7 60 -38 17
-48 110 -144 183 -192 35 -21 123 -74 196 -117 72 -42 134 -81 137 -85 3 -5
-7 -30 -21 -57 -25 -47 -26 -51 -20 -178 3 -71 9 -150 13 -174 l6 -44 -214 6
c-231 6 -368 23 -668 82 -241 48 -336 59 -471 51 -155 -8 -199 -21 -378 -109
-268 -132 -363 -125 -518 35 -57 59 -85 96 -158 213 -26 42 -194 190 -204 180
-2 -2 13 -50 33 -107 l38 -103 1 -170 1 -170 33 -65 c42 -83 149 -226 216
-287 91 -83 204 -125 343 -127 40 -1 72 -3 70 -6 -45 -75 -79 -173 -98 -281
-26 -152 -38 -182 -80 -204 -19 -10 -50 -26 -69 -36 -70 -37 -163 -45 -502
-41 l-208 2 0 29 c0 16 23 77 52 136 60 128 68 190 30 261 -32 61 -100 117
-134 110 -28 -5 -28 -5 -28 52 0 111 -37 199 -109 265 -91 82 -212 89 -347 20
-43 -22 -79 -44 -81 -49 -2 -6 14 -18 34 -28 108 -50 163 -123 163 -213 l0
-49 -57 3 c-71 5 -118 -17 -145 -68 -22 -40 -23 -107 -4 -153 18 -43 81 -113
118 -132 16 -8 28 -19 26 -23 -2 -5 -23 -25 -46 -45 -46 -38 -100 -48 -119
-23 -6 6 -23 46 -39 87 -77 198 -174 275 -362 288 l-82 5 -11 -32 c-6 -17 -12
-31 -14 -31 -2 0 -32 28 -67 63 -34 34 -88 76 -118 92 -47 26 -65 30 -130 30
-95 -1 -152 -28 -230 -111 -55 -58 -147 -191 -138 -199 2 -2 31 3 63 11 112
30 203 3 298 -88 51 -48 50 -51 -12 -33 l-24 7 6 -113 c15 -269 94 -358 339
-380 189 -17 227 -34 212 -96 -11 -45 -40 -79 -142 -164 -110 -91 -182 -171
-217 -238 -30 -59 -58 -157 -50 -171 4 -6 -12 -31 -35 -56 -133 -145 -107
-331 63 -448 46 -31 267 -132 267 -121 0 2 -16 36 -35 76 -39 81 -45 149 -20
204 13 29 13 28 14 -36 l1 -67 49 -21 c28 -12 70 -21 98 -21 106 1 183 66 289
243 120 200 173 257 239 257 67 0 170 -80 203 -159 11 -25 27 -89 36 -142 20
-120 37 -161 78 -192 47 -35 91 -47 171 -47 l69 0 -7 -37 c-18 -100 -67 -134
-204 -142 l-96 -6 88 -48 c135 -73 225 -100 319 -95 63 4 86 10 125 34 62 39
106 97 134 181 21 62 23 86 23 273 l1 205 -38 79 c-20 44 -35 81 -33 83 2 3
28 -8 56 -22 59 -30 140 -101 170 -150 15 -25 32 -36 66 -44 82 -21 153 -79
211 -174 l30 -49 12 64 c7 34 19 74 28 87 13 20 20 23 58 18 24 -4 95 -29 158
-56 63 -27 128 -52 145 -56 64 -14 81 -72 63 -219 -6 -50 -9 -91 -7 -94 10 -9
248 241 296 310 l53 77 70 -102 c39 -56 72 -104 74 -107 9 -10 150 147 171
191 30 62 30 135 -1 180 -23 34 -23 35 -5 64 25 41 53 132 83 277 66 316 149
448 352 555 178 95 325 96 396 2 39 -52 41 -97 12 -254 -99 -538 -224 -783
-572 -1117 l-70 -67 49 -6 c130 -18 315 32 448 120 123 82 248 236 312 384 15
37 28 63 28 60 0 -4 7 -44 15 -90 17 -100 54 -211 125 -374 69 -162 90 -240
90 -346 0 -190 -88 -407 -291 -714 -86 -132 -93 -129 -148 62 -32 111 -99 151
-227 140 l-61 -6 -55 53 c-30 29 -81 66 -114 82 -49 24 -71 29 -134 29 -146
-1 -257 -86 -364 -280 -20 -36 -36 -67 -36 -69 0 -2 43 10 96 27 90 28 101 30
159 20 34 -6 81 -23 104 -37 l42 -27 -25 -20 c-40 -32 -77 -102 -78 -149 -1
-78 58 -135 231 -225 106 -56 174 -125 123 -125 -10 0 -79 31 -153 68 -184 93
-270 116 -414 110 -91 -5 -123 -11 -186 -35 -79 -31 -256 -139 -245 -150 3 -4
-21 -22 -53 -40 -180 -101 -269 -265 -231 -424 14 -59 52 -139 98 -207 l30
-44 26 78 c43 128 88 176 182 191 28 5 33 3 29 -9 -8 -22 74 -109 133 -141
144 -78 301 -71 435 21 l45 32 44 -19 c23 -11 81 -27 128 -37 47 -10 87 -19
89 -20 2 -2 -9 -29 -24 -61 -82 -172 -101 -287 -66 -402 19 -62 30 -80 82
-132 47 -47 66 -60 84 -57 21 4 23 1 28 -59 4 -35 15 -83 25 -106 57 -127 238
-209 426 -194 37 3 71 8 73 11 3 3 -18 42 -46 89 -51 85 -83 151 -94 199 -7
26 -6 27 26 21 83 -13 212 88 252 198 24 66 26 234 3 316 l-15 52 101 36 c56
20 133 53 171 73 l70 37 95 -71 c151 -112 283 -185 412 -228 120 -39 128 -40
128 -14 0 38 19 6 30 -49 5 -31 6 -79 1 -120 -5 -37 -7 -70 -6 -71 6 -7 130
82 177 126 91 85 138 190 138 306 -1 82 -15 138 -54 216 -31 61 -33 71 -29
145 4 76 3 83 -26 127 -36 56 -110 107 -226 154 -75 31 -80 35 -77 61 8 77 76
213 105 213 8 0 47 -15 88 -34 273 -124 454 -123 594 5 30 28 71 78 91 112 20
34 46 77 56 95 l20 32 -54 -21 c-29 -12 -80 -29 -112 -37 -71 -19 -135 -8
-230 36 -70 33 -171 107 -171 124 0 7 19 26 43 42 37 26 52 30 130 34 74 3
115 -2 276 -37 260 -56 351 -55 426 8 19 15 46 47 59 70 l23 43 -89 86 c-94
92 -239 195 -363 258 -41 20 -77 39 -79 41 -10 8 35 43 82 63 46 20 67 22 202
21 245 -1 342 24 432 116 40 40 157 213 149 220 -1 1 -36 -15 -77 -37 -77 -41
-131 -50 -172 -29 -12 7 -71 60 -132 118 -127 123 -182 162 -273 192 -60 20
-77 21 -221 15 -150 -6 -158 -6 -201 16 -65 33 -94 95 -109 230 -37 340 -40
353 -79 454 -59 151 -77 234 -77 349 0 88 4 107 28 159 27 59 28 59 46 40 10
-10 107 -127 217 -259 216 -262 461 -515 592 -612 162 -122 355 -212 523 -247
182 -37 498 -54 610 -32 215 42 425 193 505 365 82 175 110 225 153 271 60 64
138 99 233 107 40 3 87 13 103 21 43 22 363 347 371 377 23 91 -67 138 -231
120 -59 -6 -71 -11 -107 -45 -60 -59 -151 -88 -341 -108 -74 -8 -78 -7 -82 12
-43 197 -61 252 -115 336 -31 49 -60 147 -60 201 1 54 33 113 71 131 54 26
149 40 189 28 46 -13 196 -13 262 1 76 15 203 79 275 138 108 88 212 278 201
368 -2 23 -8 29 -34 31 -28 3 -32 -1 -42 -35 -18 -59 -68 -129 -123 -169 -54
-39 -155 -78 -234 -90 l-50 -7 52 49 c28 27 68 79 88 116 l36 68 -89 -40
c-110 -49 -166 -52 -334 -16 -162 35 -204 39 -283 26 -98 -15 -214 -74 -313
-159 l-80 -70 -39 28 c-21 15 -65 57 -97 92 -177 191 -166 446 25 569 59 38
149 72 221 85 60 10 234 -13 469 -61 319 -64 393 -74 541 -75 202 0 328 42
437 146 121 115 208 357 227 626 l7 96 -33 7 c-18 3 -34 5 -35 4 -2 -2 -26
-46 -55 -98 -72 -129 -119 -197 -176 -250 -27 -25 -37 -31 -23 -15 45 51 116
161 149 230 120 251 146 527 84 883 -16 93 -81 351 -94 372 -5 8 -18 10 -39 5
l-31 -7 0 -116 c-1 -325 -34 -628 -90 -806 l-29 -91 0 56 c-2 126 -37 264
-100 387 -53 103 -48 102 -119 28 -106 -110 -141 -220 -122 -383 14 -123 12
-218 -4 -257 -23 -56 -31 -48 -31 32 -1 68 -6 89 -43 174 -57 132 -61 180 -23
288 17 46 28 86 26 88 -6 7 -113 -45 -149 -73 -72 -55 -132 -175 -156 -313
l-13 -73 -31 58 c-64 119 -129 204 -316 408 -133 146 -180 200 -180 207 0 3
36 -2 80 -10 44 -8 86 -12 95 -8 23 9 18 50 -11 77 -32 29 -93 106 -78 96 21
-13 327 -87 449 -109 91 -16 161 -22 290 -22 173 -1 234 7 351 45 123 40 169
143 109 245 -21 35 -32 44 -63 49 -204 34 -413 106 -566 196 -75 45 -155 101
-156 109 0 3 40 4 89 2 71 -3 91 0 105 13 26 27 19 42 -35 73 l-51 29 114 12
c159 17 387 57 493 87 50 13 141 50 203 80 132 65 219 143 265 237 56 114 45
149 -40 127 -166 -41 -438 -60 -622 -41 -132 14 -213 29 -206 40 2 4 44 23 92
41 102 39 113 46 113 71 0 32 -35 40 -160 37 -66 -2 -120 -1 -120 2 0 3 71 41
157 85 488 249 691 384 826 552 103 128 146 240 153 403 6 127 -8 162 -76 180
-71 19 -63 24 -489 -278 l-64 -45 39 71 c31 57 37 75 28 89 -20 32 -33 27
-139 -54 -50 -38 -50 -38 -31 -8 292 450 472 827 542 1137 35 153 44 390 20
528 -51 294 -140 424 -265 390 -78 -21 -132 -116 -155 -274 -41 -272 -132
-566 -248 -796 -69 -136 -204 -348 -215 -336 -2 2 1 87 8 189 7 101 9 192 6
201 -13 33 -45 18 -129 -60 -20 -19 -40 -34 -43 -34 -3 0 -5 43 -5 94 0 271
-84 625 -201 845 -134 251 -330 429 -523 472 -103 23 -176 -21 -176 -105 0
-31 13 -64 51 -131 61 -109 99 -194 134 -300 27 -82 59 -247 52 -268 -2 -6
-25 20 -52 59 -109 155 -149 206 -197 249 -51 46 -93 58 -104 31 -3 -8 7 -72
21 -142 15 -71 29 -167 31 -214 l5 -85 -48 51 c-26 28 -77 100 -112 160 -173
293 -283 423 -462 547 -180 125 -337 165 -430 110 -43 -25 -73 -93 -65 -146
10 -63 58 -138 126 -198 125 -109 249 -273 341 -452 l56 -109 -138 -480 c-90
-318 -143 -486 -155 -498 -51 -48 -787 -662 -799 -667 -9 -3 -17 2 -21 13 -21
61 -59 132 -98 183 l-44 59 44 188 c24 104 46 199 49 212 4 16 13 22 33 22 15
0 65 9 112 21 184 44 230 43 289 -6 34 -29 35 -30 55 -9 12 11 16 36 16 99 0
146 -29 235 -94 293 -47 41 -90 53 -217 59 l-106 5 -7 157 c-6 157 -25 347
-46 462 -11 58 -10 64 12 93 101 136 188 288 188 331 0 34 -32 40 -141 25 -71
-9 -96 -9 -120 0 -27 12 -29 16 -29 69 0 123 -100 255 -247 328 -97 48 -157
50 -289 10 -61 -19 -108 -27 -140 -25 l-49 3 88 87 c86 85 104 119 71 132 -26
10 -85 5 -179 -14z m-1068 -1346 c26 -5 50 -1 86 14 50 22 50 22 64 2 34 -49
106 -63 169 -33 l37 18 56 -62 c62 -67 126 -171 98 -160 -75 29 -267 83 -414
116 -98 23 -189 44 -202 47 -21 4 -22 9 -16 42 13 74 12 73 51 47 20 -14 52
-27 71 -31z m147 -331 c107 -26 205 -57 334 -106 l82 -31 -6 -35 c-12 -74 -14
-76 -35 -45 -44 67 -142 93 -206 54 l-33 -19 -25 23 c-46 43 -109 42 -160 -2
-15 -13 -28 -22 -30 -20 -6 7 -75 198 -75 208 0 11 2 11 154 -27z m-3031
-3724 c105 -16 108 -21 29 -56 l-70 -31 -52 49 -52 49 36 0 c21 0 70 -5 109
-11z m6450 -62 c310 -268 555 -360 812 -305 28 6 56 15 63 21 10 8 11 5 2 -17
-42 -112 -157 -206 -310 -254 -136 -43 -367 -72 -576 -72 -166 0 -327 -71
-454 -199 -133 -134 -191 -282 -191 -487 0 -115 17 -220 51 -320 23 -67 108
-210 265 -449 94 -142 127 -183 201 -251 196 -178 347 -392 414 -584 28 -81
38 -221 20 -284 -15 -55 -69 -120 -120 -146 -122 -62 -321 -39 -565 65 -243
104 -406 227 -590 446 -250 298 -388 602 -620 1363 -83 273 -128 401 -182 517
l-35 76 47 68 c79 116 139 253 165 378 11 56 13 58 26 38 16 -22 58 -28 69
-10 4 6 27 -35 50 -90 82 -189 175 -319 283 -393 24 -17 66 -50 93 -74 72 -64
86 -52 140 111 44 134 61 366 39 554 -5 47 -8 86 -6 88 2 2 21 -19 42 -47 40
-53 70 -64 94 -35 10 12 11 27 3 60 -6 25 -7 45 -4 45 3 -1 24 -23 46 -51 57
-71 199 -194 278 -241 134 -80 325 -126 464 -112 81 8 91 20 68 82 -37 99
-159 320 -247 450 -33 48 -30 52 15 18 45 -33 62 -37 86 -20 26 19 26 39 2 87
-10 20 -17 37 -15 37 3 0 37 -28 77 -63z"/>
</g>
</svg>
