<?xml version="1.0" standalone="no"?>
<!DOCTYPE svg PUBLIC "-//W3C//DTD SVG 20010904//EN"
 "http://www.w3.org/TR/2001/REC-SVG-20010904/DTD/svg10.dtd">
<svg version="1.0" xmlns="http://www.w3.org/2000/svg"
 width="1032.000000pt" height="1280.000000pt" viewBox="0 0 1032.000000 1280.000000"
 preserveAspectRatio="xMidYMid meet">
<metadata>
Created by potrace 1.15, written by Peter Selinger 2001-2017
</metadata>
<g transform="translate(0.000000,1280.000000) scale(0.100000,-0.100000)"
fill="#000000" stroke="none">
<path d="M7658 12663 c-219 -366 -342 -642 -415 -928 -19 -77 -26 -135 -30
-255 -6 -176 6 -248 58 -357 35 -73 131 -178 194 -211 l40 -21 -43 -1 c-70 0
-192 -29 -260 -61 -57 -28 -181 -133 -170 -145 3 -2 31 8 64 23 54 25 69 28
174 28 106 0 119 -3 170 -28 30 -15 66 -37 80 -47 l25 -20 -46 6 c-58 8 -147
-10 -226 -47 -35 -15 -63 -29 -63 -31 0 -2 35 -3 78 -4 61 -1 91 -7 133 -26
115 -53 144 -94 222 -318 187 -534 327 -777 809 -1399 l96 -123 -82 -112
c-441 -594 -692 -1151 -777 -1719 -27 -180 -29 -470 -5 -626 61 -400 232 -740
509 -1014 38 -38 68 -70 66 -71 -2 -2 -24 -13 -47 -25 -58 -29 -123 -90 -167
-156 -19 -29 -35 -55 -35 -57 0 -2 51 -4 113 -4 129 -1 205 -22 295 -81 52
-35 53 -37 47 -72 -12 -65 -62 -200 -96 -258 -73 -123 -196 -216 -330 -248
-109 -25 -366 -14 -480 21 -9 2 -26 31 -38 63 -29 80 -87 166 -172 256 -181
191 -430 350 -869 556 -249 116 -350 180 -446 281 -82 87 -114 138 -150 244
-47 137 -34 344 32 502 l15 36 31 -59 c124 -236 240 -333 408 -343 80 -5 194
13 185 29 -4 5 -14 9 -23 9 -25 0 -123 48 -150 73 -68 63 -83 166 -58 401 18
163 20 306 6 376 -4 25 -7 46 -6 47 1 1 21 -27 44 -62 77 -116 185 -182 315
-192 69 -5 187 11 187 25 0 4 -26 15 -58 24 -69 20 -137 76 -163 132 -24 53
-25 183 -3 396 10 97 13 185 9 234 l-7 80 41 -51 c105 -133 253 -186 424 -152
31 7 57 15 57 18 0 4 -22 13 -49 20 -65 16 -133 60 -159 103 -42 68 -46 122
-26 350 14 166 20 208 31 204 54 -21 146 -28 214 -17 40 6 76 14 81 17 5 4
-19 16 -55 28 -176 59 -206 142 -172 481 20 196 16 329 -11 430 -21 78 -75
195 -118 255 l-35 49 47 15 c166 56 248 167 197 266 -28 54 -132 116 -246 146
-69 18 -220 24 -281 11 l-38 -8 54 54 c35 35 58 68 65 93 21 74 16 76 -56 27
-181 -122 -367 -182 -589 -190 -160 -6 -254 6 -484 61 -262 62 -401 79 -528
65 -125 -14 -188 -57 -201 -136 -6 -36 -7 -36 -94 -59 -169 -45 -302 -110
-435 -211 -67 -51 -212 -197 -212 -214 0 -3 15 -9 32 -13 45 -9 102 -48 126
-88 14 -22 25 -66 32 -127 7 -52 20 -112 30 -135 33 -76 127 -148 247 -189
l42 -14 -19 25 c-26 32 -25 63 1 96 40 51 61 55 255 53 168 -2 183 0 239 22
62 25 158 81 169 100 4 6 12 11 17 11 18 0 -45 -102 -82 -133 l-36 -30 23 -41
c84 -153 66 -343 -43 -464 -20 -22 -30 -28 -23 -15 25 52 0 123 -43 123 -12 0
-44 -7 -72 -16 -55 -16 -173 -20 -220 -6 -17 5 -63 23 -102 41 -39 17 -82 31
-94 31 -51 0 3 22 132 54 133 34 268 55 364 57 l50 1 -55 10 c-83 14 -319 3
-435 -21 -55 -11 -217 -50 -360 -87 -239 -61 -271 -67 -390 -71 -102 -4 -144
-1 -194 12 -68 17 -134 47 -164 73 -34 30 -26 4 12 -40 45 -51 131 -100 211
-119 82 -19 257 -15 378 10 57 12 160 41 231 65 l127 43 -18 -36 c-33 -64 -21
-222 28 -374 l16 -49 24 36 c33 48 100 86 151 86 23 0 85 -9 139 -21 67 -14
137 -21 214 -22 134 0 193 16 297 85 35 22 66 38 69 36 3 -3 7 -21 10 -39 7
-47 -30 -115 -83 -156 -117 -88 -273 -111 -973 -143 -831 -38 -1220 -140
-1519 -400 -34 -29 -59 -55 -56 -58 3 -3 13 2 22 10 26 23 148 82 223 108 101
34 202 50 313 49 l102 -1 -105 -19 c-189 -35 -328 -91 -529 -214 -129 -77
-198 -111 -299 -145 -165 -55 -264 -50 -410 20 -108 51 -102 28 6 -26 190 -96
446 -122 605 -62 15 6 30 8 33 6 6 -7 -209 -99 -296 -127 -274 -88 -530 -87
-709 3 -43 23 -51 24 -42 9 44 -81 180 -181 305 -224 181 -63 372 -56 690 25
549 140 777 169 1016 131 52 -9 96 -17 98 -19 2 -3 -54 -4 -125 -4 -132 1
-230 -11 -311 -38 -97 -32 -193 -87 -250 -143 -55 -53 -116 -129 -96 -119 5 2
52 25 105 51 173 85 383 114 539 74 106 -27 229 -95 264 -144 140 -201 -216
-549 -661 -647 -102 -23 -236 -30 -312 -17 -36 6 -67 9 -69 7 -2 -2 29 -20 70
-40 108 -53 185 -70 313 -70 l110 0 -28 -82 c-78 -234 -52 -432 73 -554 73
-71 183 -119 330 -144 l35 -6 -30 22 c-65 48 -143 131 -171 181 -26 47 -29 61
-29 147 0 90 2 101 35 164 19 38 62 98 97 135 l63 66 -26 -58 c-92 -205 -64
-347 80 -416 34 -16 71 -32 84 -36 l22 -6 -25 36 c-47 69 -43 152 10 240 32
52 80 108 70 80 -4 -11 -10 -46 -13 -77 -4 -48 0 -67 21 -110 69 -140 274
-271 592 -376 152 -51 241 -74 530 -137 285 -62 583 -162 874 -291 91 -41 169
-78 174 -83 6 -6 1 -34 -11 -73 -58 -176 -53 -344 12 -492 14 -32 26 -62 26
-67 0 -4 -46 -60 -103 -123 -290 -327 -368 -618 -262 -976 83 -281 112 -417
125 -600 8 -116 1 -286 -15 -336 -4 -11 11 0 35 25 46 50 114 182 130 251 25
113 23 110 30 50 14 -108 53 -207 119 -303 82 -120 246 -221 411 -252 33 -7
31 -5 -25 32 -81 54 -173 155 -212 234 -33 66 -63 171 -63 222 0 26 4 23 48
-34 118 -156 338 -239 559 -209 98 12 221 41 274 63 l34 14 -70 7 c-187 19
-395 93 -480 171 -24 22 -32 34 -20 29 216 -78 423 -84 615 -19 75 26 230 103
270 135 l25 21 -30 -8 c-54 -12 -317 -9 -398 6 -72 13 -113 31 -69 31 10 0 70
16 133 36 235 74 483 216 649 371 106 100 135 115 213 114 146 -2 297 -136
358 -318 26 -78 23 -130 -17 -286 -58 -232 -182 -415 -333 -492 -81 -41 -156
-53 -381 -65 -324 -16 -453 -36 -551 -85 -26 -14 -56 -36 -67 -50 -15 -18 -38
-29 -88 -40 -254 -54 -400 -196 -423 -407 -8 -74 -2 -87 17 -35 35 96 187 210
323 242 99 23 113 21 162 -29 57 -57 135 -86 251 -94 l89 -7 -54 -40 c-93 -70
-136 -154 -119 -231 8 -32 4 -41 -31 -87 -63 -84 -84 -146 -84 -257 0 -84 3
-101 29 -154 16 -32 55 -86 87 -120 l58 -61 -26 64 c-22 56 -25 76 -21 145 6
98 40 174 117 258 49 54 52 55 93 51 114 -13 307 61 429 165 43 37 43 37 29
-39 -15 -79 2 -150 46 -194 19 -19 41 -35 49 -35 8 0 18 -20 25 -55 44 -213
216 -355 470 -389 l45 -6 -60 32 c-82 45 -169 133 -202 205 -20 44 -27 79 -30
143 l-4 85 51 30 c66 38 146 125 177 191 12 27 32 86 43 130 52 208 168 404
344 579 178 177 370 290 560 330 l29 6 -22 15 c-38 27 -133 56 -206 63 l-70 7
54 17 c145 45 323 1 461 -114 33 -27 61 -49 64 -49 7 0 -18 69 -42 117 -28 53
-129 145 -194 176 -29 14 -80 33 -112 42 l-59 17 89 29 c88 28 210 93 227 121
7 10 -5 33 -42 82 -186 245 -230 585 -125 943 15 48 29 96 31 106 3 9 11 17
19 17 22 0 126 -109 178 -185 l48 -70 -7 63 c-10 103 -42 211 -89 307 -112
225 -299 345 -586 373 l-75 8 58 22 c57 22 200 51 261 53 24 1 20 3 -19 11
-74 14 -378 13 -470 -1 -288 -45 -505 -132 -787 -317 -486 -317 -589 -378
-697 -413 -70 -23 -181 -28 -228 -10 -40 15 -82 57 -104 104 -19 41 -26 179
-11 217 4 10 39 36 77 59 153 92 299 226 375 343 31 47 48 65 59 61 48 -15
241 -35 341 -35 513 0 867 277 982 771 21 89 22 91 72 129 109 81 183 104 332
104 l112 0 -26 40 c-46 75 -86 117 -145 157 -33 21 -68 39 -79 39 -15 0 7 28
83 108 135 141 222 264 308 437 216 434 249 916 100 1497 -109 431 -337 882
-684 1359 -50 69 -95 131 -99 137 -4 7 45 80 122 179 374 487 488 666 635 998
41 94 100 243 130 332 31 89 65 179 76 200 23 44 93 114 136 136 42 21 146 40
189 35 20 -2 36 -3 36 -1 0 1 -23 14 -50 28 -78 39 -164 58 -234 51 l-61 -6
55 35 c72 46 137 65 227 65 71 0 180 -27 211 -52 7 -6 15 -8 19 -4 4 3 -15 29
-43 57 -84 86 -243 148 -379 149 l-50 0 44 25 c105 61 186 163 228 290 24 72
27 95 27 230 1 162 -11 234 -65 418 -42 141 -99 280 -190 462 -82 166 -257
466 -275 472 -6 2 -45 -67 -86 -154 -166 -345 -267 -650 -314 -944 -23 -147
-15 -413 15 -517 22 -76 83 -206 101 -217 26 -16 6 -23 -31 -10 -49 18 -148
19 -204 4 -44 -12 -165 -79 -165 -91 0 -4 15 -8 33 -8 18 0 66 -9 107 -21 163
-44 295 -134 373 -254 l39 -60 -5 -120 c-3 -66 -13 -156 -22 -200 -46 -220
-165 -485 -327 -732 -80 -120 -348 -483 -415 -561 l-28 -33 -44 58 c-323 421
-463 626 -565 833 -114 230 -170 431 -182 654 l-6 111 42 64 c47 68 122 133
210 180 62 33 217 81 262 81 47 0 29 21 -56 65 -65 33 -90 40 -150 43 -65 4
-109 -3 -158 -23 -13 -5 -8 8 17 51 82 135 109 251 109 464 1 281 -59 543
-214 930 -53 134 -186 410 -197 410 -5 0 -43 -57 -85 -127z m-825 -3249 c83
-28 81 -74 -3 -132 -52 -35 -179 -62 -285 -61 l-50 1 65 17 c79 21 155 59 198
99 36 33 40 53 16 76 -21 21 -3 21 59 0z m-1297 -134 c98 -24 163 -33 269 -37
l139 -6 -37 -32 c-81 -70 -233 -125 -347 -125 -88 0 -120 14 -185 81 -33 33
-76 69 -95 79 -48 24 -128 40 -208 40 -88 1 -63 15 48 29 132 15 269 6 416
-29z m3257 -914 c357 -510 562 -974 648 -1461 27 -155 37 -445 19 -593 -23
-199 -93 -427 -178 -582 -91 -164 -212 -323 -315 -412 l-55 -48 -26 44 c-24
40 -119 136 -135 136 -4 0 -6 -13 -3 -30 9 -62 -43 -260 -69 -260 -18 0 -51
118 -57 203 -2 48 -8 87 -11 87 -19 0 -107 -91 -134 -138 l-31 -55 -105 109
c-229 237 -373 521 -432 850 -28 153 -31 452 -6 617 71 465 263 943 557 1383
105 157 211 304 218 304 4 0 56 -69 115 -154z"/>
<path d="M2330 9932 c99 -63 155 -155 166 -272 8 -86 -3 -111 -57 -124 -146
-38 -204 -145 -204 -383 0 -125 -7 -135 -19 -28 -18 157 -88 245 -208 261 -42
6 -49 11 -87 64 -108 154 -288 226 -476 191 l-40 -7 65 -13 c36 -7 89 -23 118
-36 67 -31 153 -112 188 -179 l27 -53 -46 -43 c-61 -56 -74 -97 -60 -190 6
-39 26 -100 43 -138 25 -52 32 -79 31 -120 -2 -62 29 -138 89 -218 43 -57 136
-122 240 -169 86 -39 144 -78 175 -119 29 -39 32 -86 10 -186 -19 -86 -19
-224 0 -286 8 -27 15 -53 15 -57 0 -4 -26 -20 -57 -35 -61 -28 -156 -36 -217
-19 -52 14 -13 -17 65 -53 90 -41 177 -45 253 -12 35 16 53 19 66 12 27 -15
111 -12 140 5 14 8 28 14 32 15 3 0 52 -89 108 -197 56 -109 103 -199 104
-201 2 -1 41 23 87 55 240 161 628 272 1049 299 55 4 100 10 100 13 0 4 -30
22 -67 40 -281 137 -655 411 -823 602 -93 105 -114 161 -115 299 0 96 3 110
29 164 16 33 62 93 106 141 92 97 120 146 120 210 0 49 -10 77 -42 112 -20 21
-20 22 -2 70 29 74 27 224 -4 281 -31 58 -83 114 -141 151 -59 38 -67 39 -34
4 14 -16 37 -50 51 -78 22 -42 26 -63 26 -130 0 -67 -4 -90 -28 -142 l-29 -63
-66 0 c-123 0 -200 -58 -282 -213 -51 -96 -50 -71 2 35 37 77 40 88 37 154 -3
59 -8 77 -31 107 -15 21 -41 44 -58 52 -27 14 -29 20 -29 69 0 114 -55 225
-146 294 -41 32 -131 73 -189 86 -27 6 -25 4 15 -22z"/>
<path d="M569 6661 c-51 -16 -162 -71 -156 -77 1 -1 29 4 62 12 73 17 127 18
197 3 66 -14 162 -59 207 -97 l35 -29 -17 -41 c-43 -107 2 -190 183 -335 19
-16 -2 -3 -47 28 -124 84 -181 108 -265 107 -53 -1 -79 -6 -111 -25 -40 -22
-46 -22 -92 -10 -75 20 -222 27 -284 14 -93 -20 -200 -84 -248 -149 l-20 -27
66 33 c117 58 243 64 381 18 l65 -22 5 -59 c3 -33 13 -74 23 -92 34 -64 171
-136 357 -189 126 -36 132 -43 18 -19 -83 18 -197 20 -246 6 -52 -15 -99 -49
-122 -87 -12 -19 -31 -36 -43 -38 -157 -30 -239 -64 -310 -127 -53 -46 -104
-141 -112 -209 l-6 -45 21 38 c62 111 193 184 368 203 53 6 62 4 62 -10 0 -23
67 -94 111 -116 50 -26 144 -40 270 -40 71 0 121 -5 154 -16 37 -13 70 -16
149 -11 150 8 252 48 372 144 88 71 183 116 243 117 34 0 76 -13 164 -52 139
-61 252 -92 336 -92 58 0 62 -2 73 -27 6 -16 11 -53 12 -84 1 -47 -5 -65 -32
-108 l-32 -52 41 23 c57 32 126 103 140 145 6 20 9 58 6 87 -4 46 -2 54 25 85
27 31 30 39 24 81 l-6 47 210 13 c116 7 213 17 216 22 3 4 -4 8 -14 8 -40 0
-181 82 -285 166 -59 48 -105 89 -103 91 2 3 76 -12 163 -32 252 -59 413 -50
628 35 319 127 535 384 429 510 -34 40 -120 83 -212 105 -103 25 -268 17 -375
-19 -110 -37 -173 -71 -330 -180 -76 -53 -137 -92 -135 -88 1 5 41 73 88 152
87 146 164 242 226 281 19 12 34 23 32 25 -2 1 -43 -6 -92 -16 -74 -17 -104
-30 -193 -86 -256 -160 -551 -293 -808 -364 -135 -38 -309 -15 -448 57 -68 36
-117 83 -210 203 -80 103 -186 151 -284 130 -44 -10 -51 -9 -127 30 -142 71
-280 89 -397 51z"/>
<path d="M5415 4446 c-55 -19 -141 -52 -191 -74 l-92 -41 -138 12 c-77 7 -233
12 -349 12 -238 0 -343 -17 -509 -81 -179 -69 -269 -127 -488 -318 -261 -226
-525 -395 -752 -481 l-61 -23 38 -7 c78 -15 305 19 403 60 52 22 53 12 2 -18
-117 -68 -247 -224 -287 -344 -29 -86 -29 -207 1 -299 l22 -69 7 70 c4 39 17
96 29 127 43 116 169 251 307 332 6 3 -4 -20 -23 -51 -81 -134 -85 -273 -15
-412 41 -79 168 -200 305 -287 l28 -18 -30 55 c-56 98 -95 233 -96 329 -1 50
5 101 13 125 l14 40 14 -70 c23 -119 73 -208 173 -307 77 -76 101 -93 201
-142 63 -30 138 -62 167 -70 l52 -15 -59 69 c-33 38 -75 93 -93 122 -40 63
-92 177 -84 185 2 3 24 -10 48 -30 188 -153 533 -291 818 -327 164 -21 229
-75 232 -193 2 -95 -39 -187 -125 -283 -66 -73 -111 -101 -239 -146 -171 -60
-303 -88 -453 -94 -149 -7 -238 7 -329 52 -80 39 -120 77 -255 237 -215 258
-351 367 -454 367 -31 0 -48 8 -89 44 -98 86 -257 145 -389 146 -66 0 -191
-30 -263 -64 l-51 -24 76 5 c154 11 306 -40 414 -138 50 -46 54 -53 41 -68 -8
-9 -20 -37 -26 -63 -16 -61 -3 -118 46 -207 27 -48 31 -62 18 -57 -70 27 -200
35 -263 17 -19 -6 -52 -22 -72 -36 -29 -19 -52 -25 -91 -25 -72 0 -213 -24
-268 -46 -120 -47 -212 -133 -265 -247 -18 -40 -32 -73 -31 -74 1 -2 25 19 53
46 105 102 253 149 433 138 77 -5 97 -9 105 -23 25 -45 111 -124 165 -153 68
-36 176 -75 238 -86 23 -4 42 -10 42 -14 0 -4 -24 -15 -54 -24 -63 -20 -141
-70 -169 -109 -11 -15 -21 -43 -22 -63 -2 -32 -11 -43 -63 -86 -72 -58 -135
-142 -158 -211 -25 -77 -15 -204 22 -288 l29 -65 5 81 c10 146 90 262 240 347
l60 33 69 -23 c136 -45 263 -41 451 17 177 54 255 65 490 64 156 0 243 -5 315
-17 230 -40 413 -106 523 -189 35 -26 65 -48 68 -48 2 0 4 17 4 38 0 52 -25
131 -55 176 -30 45 -21 46 36 2 114 -87 156 -229 114 -390 -9 -33 -14 -61 -12
-63 10 -9 111 114 135 164 39 86 42 204 6 297 -4 11 22 -1 70 -33 81 -53 160
-87 226 -97 36 -6 40 -4 50 21 23 60 107 174 182 248 44 43 82 77 84 75 2 -2
10 -28 17 -57 l13 -53 36 69 c160 306 161 671 3 1204 -53 178 -70 285 -61 393
l6 82 -168 53 c-178 56 -301 109 -377 161 -57 39 -105 111 -105 157 0 216 505
355 859 237 l74 -25 44 43 c67 64 68 68 39 151 -50 146 -54 311 -11 460 l14
47 -32 14 c-18 8 -77 34 -132 59 -135 60 -289 117 -317 117 -13 0 -68 -16
-123 -34z"/>
</g>
</svg>
