<?xml version="1.0" standalone="no"?>
<!DOCTYPE svg PUBLIC "-//W3C//DTD SVG 20010904//EN"
 "http://www.w3.org/TR/2001/REC-SVG-20010904/DTD/svg10.dtd">
<svg version="1.0" xmlns="http://www.w3.org/2000/svg"
 width="1027.000000pt" height="1280.000000pt" viewBox="0 0 1027.000000 1280.000000"
 preserveAspectRatio="xMidYMid meet">
<metadata>
Created by potrace 1.15, written by Peter Selinger 2001-2017
</metadata>
<g transform="translate(0.000000,1280.000000) scale(0.100000,-0.100000)"
fill="#000000" stroke="none">
<path d="M4935 12782 c-54 -25 -134 -109 -180 -188 -34 -58 -42 -66 -81 -75
-23 -6 -60 -26 -82 -44 l-39 -34 -48 25 c-27 13 -63 24 -82 24 -27 0 -44 10
-87 53 -78 79 -141 107 -237 107 -91 0 -122 -17 -122 -68 0 -18 35 -103 86
-209 95 -198 103 -225 137 -503 11 -91 20 -170 20 -176 0 -6 -17 -18 -37 -26
-61 -25 -119 -73 -161 -135 -54 -79 -76 -97 -150 -121 -68 -23 -343 -185 -380
-225 -43 -46 -26 -166 28 -200 16 -9 20 -23 20 -70 0 -32 6 -73 14 -91 35 -83
149 -155 262 -164 43 -3 64 -9 64 -18 0 -7 16 -33 35 -58 19 -26 35 -48 35
-51 0 -9 -252 -5 -339 5 -107 12 -164 31 -239 80 -71 45 -107 89 -123 151 -11
41 -10 54 9 111 22 64 27 113 16 142 -5 14 -17 10 -76 -21 -82 -43 -171 -128
-213 -204 -29 -52 -30 -58 -30 -179 1 -106 4 -134 23 -182 58 -144 198 -230
441 -269 100 -16 354 -13 441 5 99 21 107 21 87 -1 -8 -10 -48 -79 -87 -153
-40 -74 -90 -159 -112 -188 -34 -46 -38 -55 -26 -70 21 -27 29 -31 94 -37 51
-6 78 -2 150 19 107 31 154 33 178 7 16 -18 13 -23 -87 -120 -119 -116 -155
-145 -212 -172 -56 -26 -101 -24 -130 5 -26 26 -24 49 9 114 31 61 14 102 -44
102 -41 0 -175 -52 -224 -87 -27 -19 -51 -31 -55 -26 -3 6 -50 66 -103 134
-104 133 -176 207 -359 370 -206 183 -522 481 -598 563 -129 141 -276 355
-307 448 -21 64 -15 97 35 183 49 85 71 166 71 260 0 81 -22 137 -74 196 -34
37 -34 38 -22 81 23 73 29 162 16 223 -9 44 -22 68 -53 102 -22 24 -43 40 -47
36 -4 -4 -13 -24 -20 -43 -19 -50 -70 -123 -106 -154 l-32 -26 -43 25 c-85 47
-201 50 -259 6 l-27 -20 -41 64 c-67 106 -158 159 -302 177 -68 9 -92 17 -121
39 -48 37 -143 84 -199 99 -44 12 -167 8 -204 -6 -14 -5 -12 -12 17 -48 43
-54 80 -113 97 -155 13 -32 12 -35 -6 -45 -10 -6 -46 -38 -80 -71 -86 -85
-104 -137 -104 -295 l0 -120 -52 -26 c-29 -15 -80 -54 -112 -88 -41 -41 -75
-66 -107 -77 -57 -20 -121 -63 -173 -117 l-39 -41 97 -63 98 -63 -6 -51 c-7
-63 7 -143 35 -202 33 -67 116 -152 177 -179 98 -43 274 -55 345 -22 25 11 30
9 80 -38 29 -28 63 -54 76 -58 22 -7 21 -9 -24 -51 -73 -71 -89 -116 -90 -264
l-2 -125 -54 -28 c-30 -15 -83 -35 -118 -45 l-64 -18 49 -32 c99 -63 230 -112
303 -112 23 0 44 -10 69 -31 77 -68 164 -85 273 -53 43 13 65 27 109 74 l56
59 44 -51 c58 -67 80 -113 80 -164 0 -45 -19 -74 -49 -74 -9 0 -43 23 -76 50
-33 28 -62 50 -66 50 -17 0 -41 -116 -36 -169 9 -88 42 -138 128 -197 42 -28
82 -53 89 -56 9 -3 5 -15 -13 -42 -36 -52 -63 -129 -82 -231 -23 -122 -22
-175 4 -196 28 -23 50 -16 142 43 42 26 80 48 85 48 5 0 47 -41 93 -91 130
-140 187 -184 271 -205 55 -15 69 -22 64 -34 -3 -8 -15 -51 -26 -95 -27 -108
-23 -311 6 -344 11 -12 26 -21 33 -21 8 0 43 28 76 63 57 58 69 65 147 89 47
14 86 25 88 23 1 -1 -9 -27 -23 -57 -44 -96 -49 -231 -15 -360 6 -22 9 -46 7
-53 -3 -7 -38 -31 -79 -53 -40 -22 -185 -108 -323 -191 l-250 -150 -3 52 c-5
101 -23 191 -48 237 l-25 47 25 38 c65 96 7 286 -136 450 l-36 40 -12 -57 c-7
-32 -26 -80 -41 -107 l-28 -49 -58 31 c-46 25 -72 31 -135 35 -108 6 -160 -10
-221 -69 -49 -47 -51 -48 -78 -34 -35 19 -144 45 -185 45 -17 0 -52 -11 -77
-24 -26 -13 -50 -20 -52 -16 -10 16 -103 41 -190 51 -102 11 -166 -1 -266 -52
l-62 -31 54 -31 c30 -17 85 -62 124 -99 l69 -68 -38 -32 c-21 -17 -45 -46 -52
-64 -21 -49 -17 -158 7 -240 l21 -72 -44 -53 c-24 -30 -54 -78 -66 -107 -14
-33 -47 -77 -90 -119 -69 -70 -132 -172 -132 -215 l0 -25 98 5 c121 6 137 -1
146 -62 9 -56 49 -116 128 -193 73 -69 129 -94 258 -113 74 -11 93 -10 150 4
35 9 84 28 109 41 24 14 45 24 46 23 28 -42 80 -104 99 -119 28 -22 348 -179
409 -200 28 -10 37 -18 37 -36 0 -78 105 -193 217 -239 l73 -29 0 -86 0 -86
54 12 c104 24 122 34 193 109 38 41 88 83 111 95 107 54 150 128 159 271 l6
87 106 22 c133 26 157 26 171 2 19 -36 12 -96 -16 -136 -22 -33 -24 -42 -15
-63 14 -29 39 -27 124 13 52 25 101 69 154 141 l22 29 0 -68 c1 -115 59 -242
156 -343 48 -51 90 -72 119 -61 10 4 15 44 19 164 3 87 9 168 13 181 3 12 37
42 78 69 39 26 93 64 119 86 26 22 49 38 50 36 1 -2 11 -21 21 -42 11 -20 35
-56 54 -78 37 -43 212 -165 212 -148 0 6 5 7 11 4 16 -10 68 15 74 36 4 11 -6
49 -21 87 -18 45 -29 92 -32 145 -5 87 -1 96 76 149 l42 29 43 -40 c91 -85
415 -323 579 -426 67 -41 454 -330 463 -345 3 -5 -40 -6 -101 -3 -97 6 -108 4
-120 -12 -21 -29 -18 -38 37 -92 l51 -51 -30 -6 c-89 -20 -428 -165 -602 -258
-118 -63 -345 -204 -510 -316 -169 -115 -236 -146 -328 -150 -94 -5 -134 3
-172 34 -42 36 -39 68 11 138 23 32 39 60 36 62 -3 3 -31 5 -63 6 -108 1 -237
-69 -326 -176 -103 -123 -138 -286 -83 -388 28 -54 29 -58 13 -58 -6 0 -71
-29 -144 -64 -157 -77 -219 -133 -333 -300 -136 -201 -260 -534 -230 -623 10
-31 34 -53 57 -53 5 0 36 26 68 58 162 159 341 259 609 340 72 21 194 62 273
91 79 28 147 51 151 51 4 0 7 -66 7 -147 0 -163 10 -239 55 -418 66 -261 69
-313 24 -390 -64 -111 -341 -298 -507 -343 -51 -14 -73 0 -134 87 -77 108
-120 148 -210 192 -89 45 -159 54 -225 29 -32 -11 -41 -10 -95 11 -53 21 -76
23 -211 24 -83 0 -155 -3 -159 -7 -4 -4 13 -34 38 -65 25 -32 59 -85 77 -119
l31 -61 -31 -60 c-26 -50 -31 -73 -32 -136 l-2 -75 -39 -6 c-106 -18 -187
-100 -217 -222 -11 -41 -25 -61 -95 -129 -90 -87 -117 -135 -129 -222 l-7 -52
73 24 c40 14 93 25 119 25 46 0 47 0 69 -50 52 -116 167 -227 267 -260 31 -11
134 -10 198 2 15 2 21 -4 26 -27 11 -50 58 -132 101 -177 24 -24 54 -72 69
-109 15 -37 44 -92 65 -124 l36 -57 50 76 c28 42 52 76 55 76 3 0 19 -7 36
-16 41 -21 153 -20 210 2 53 21 92 47 141 93 57 53 74 87 96 188 23 107 39
135 94 168 l41 24 52 -49 c44 -41 64 -52 140 -75 49 -14 96 -29 104 -34 23
-12 62 -120 68 -188 l5 -61 49 35 c27 20 63 50 80 67 34 34 88 139 88 172 0
13 20 37 51 64 87 73 125 192 99 314 -11 54 -11 60 9 79 l20 21 78 -37 c148
-69 233 -89 377 -88 68 0 111 7 178 27 48 15 88 30 88 33 0 3 -28 20 -62 36
-33 17 -97 51 -141 76 l-80 47 89 4 c72 3 99 8 144 31 74 37 107 57 96 57 -6
0 1 12 15 28 13 15 33 37 42 49 l18 21 -73 16 c-111 25 -218 58 -218 67 0 5
81 49 179 99 100 50 192 102 208 119 27 29 31 30 90 24 60 -6 61 -6 48 -27
-45 -69 -75 -235 -76 -423 0 -211 24 -291 145 -478 90 -137 147 -179 188 -137
17 16 22 40 29 138 9 135 36 250 78 341 31 64 93 154 131 188 37 33 88 109
139 205 l48 91 56 -68 c30 -37 89 -106 131 -153 93 -103 107 -138 81 -207 -27
-71 -82 -157 -223 -352 -148 -203 -237 -297 -324 -340 -68 -35 -114 -38 -242
-20 -140 19 -233 -15 -301 -110 -33 -46 -38 -48 -102 -59 -143 -24 -292 -133
-327 -240 -10 -29 -16 -55 -15 -56 2 -2 33 0 69 5 78 12 129 5 193 -23 l47
-21 0 -59 c0 -58 22 -120 57 -160 13 -15 12 -21 -16 -62 -72 -105 -80 -197
-26 -320 34 -78 34 -81 24 -149 -16 -105 -4 -187 35 -245 46 -66 66 -66 109 0
19 29 48 66 66 82 l31 29 52 -29 c50 -27 60 -29 163 -29 183 1 277 47 381 191
17 22 25 27 36 19 128 -89 130 -91 210 -207 34 -49 64 -88 68 -88 4 0 12 17
19 38 7 21 39 74 72 117 l59 79 68 12 c179 30 323 177 352 360 15 94 -8 204
-54 254 l-23 25 38 35 c36 34 39 35 71 24 47 -17 162 -16 233 2 33 8 70 18 81
21 17 4 29 -5 55 -41 19 -25 36 -45 39 -45 11 0 75 96 88 134 21 59 8 353 -18
412 -22 50 -25 47 85 83 115 37 193 93 221 159 17 41 18 39 -3 43 -13 3 -2 12
33 30 66 34 144 125 144 167 0 26 -5 31 -37 40 -21 6 -64 13 -96 16 l-58 7 55
39 c51 36 126 124 126 147 0 5 23 24 50 42 91 58 190 190 190 253 0 13 -8 32
-19 41 -18 16 -56 14 -135 -11 -14 -4 -5 12 27 49 26 30 47 62 47 70 0 8 23
46 51 84 28 38 62 87 75 110 31 52 49 146 34 174 -21 39 -45 44 -170 30 -102
-11 -123 -11 -172 4 -82 24 -225 122 -330 228 -95 95 -225 199 -310 247 -39
22 -46 30 -42 51 16 94 26 310 31 662 l5 406 61 -76 c82 -105 249 -267 392
-384 387 -313 460 -375 549 -464 169 -170 274 -318 348 -494 20 -47 41 -110
47 -140 19 -108 24 -295 11 -409 -15 -132 -11 -155 31 -170 31 -11 33 -9 119
77 95 95 174 208 243 347 60 119 87 217 93 345 6 101 4 120 -33 277 l-5 23 55
-25 c90 -42 176 -53 328 -44 416 24 712 149 828 352 17 30 31 58 31 62 0 3
-48 4 -107 0 -127 -8 -274 13 -488 70 -196 52 -216 58 -212 68 1 5 52 36 112
68 78 42 125 75 161 113 81 85 213 359 232 481 7 44 6 55 -5 55 -7 0 -13 5
-13 10 0 17 -63 11 -100 -9 -19 -10 -83 -52 -142 -94 -108 -75 -205 -122 -373
-179 -49 -17 -107 -39 -127 -49 -43 -22 -44 -19 -22 42 33 93 57 208 63 298
l6 94 69 41 c82 49 198 160 248 236 51 79 95 169 103 212 6 30 17 44 68 79 91
64 208 184 254 264 46 77 83 178 83 225 0 32 9 44 84 105 60 49 118 136 145
218 16 48 40 196 41 248 0 3 14 24 31 45 88 108 150 310 153 493 2 115 2 116
38 172 99 152 142 356 108 517 -9 41 -8 55 9 95 57 132 64 308 19 442 -22 62
-23 75 -12 112 22 76 26 192 10 281 -15 88 -56 172 -82 172 -9 0 -62 -46 -117
-103 -78 -79 -144 -132 -279 -226 -98 -67 -182 -119 -188 -116 -5 3 -10 24
-10 45 0 62 -28 177 -66 274 -127 319 -394 776 -589 1008 l-65 77 52 16 c28 8
84 15 124 15 189 0 289 -106 286 -302 0 -43 0 -78 1 -78 16 0 120 48 151 70
125 86 226 257 226 381 0 65 -9 91 -57 166 l-34 51 74 74 c115 115 172 248
183 428 4 60 13 103 31 144 14 33 32 83 40 110 21 78 28 243 14 343 -10 74
-10 98 3 153 18 73 21 232 7 306 -14 72 -46 152 -85 211 -31 47 -35 61 -45
169 -18 177 -69 311 -148 386 -23 22 -126 88 -137 88 -2 0 -7 -37 -10 -82 -14
-165 -49 -255 -188 -483 -94 -154 -148 -258 -168 -320 -19 -59 -18 -59 -60
-21 -89 80 -225 119 -333 97 -85 -18 -194 -77 -252 -136 -66 -67 -118 -168
-113 -221 4 -57 35 -69 139 -55 188 25 259 -35 267 -225 9 -223 -61 -363 -309
-618 l-157 -161 -21 25 c-154 181 -265 386 -308 570 -21 91 -14 231 15 287 46
88 103 103 217 57 48 -19 74 -24 99 -20 l35 7 -40 96 c-23 53 -53 115 -69 138
-139 202 -451 229 -631 56 l-49 -47 -16 55 c-8 31 -37 110 -64 176 -80 199
-100 337 -81 550 9 94 20 153 41 213 16 45 26 82 23 82 -2 0 -45 -28 -94 -61
-151 -104 -236 -211 -290 -366 -12 -35 -37 -75 -71 -113 -97 -107 -176 -264
-199 -396 -7 -40 -9 -107 -6 -163 5 -86 3 -102 -18 -156 -64 -163 -52 -386 30
-532 22 -41 23 -48 13 -101 -15 -82 -4 -215 23 -291 17 -45 41 -82 82 -127 32
-35 54 -64 49 -64 -20 0 -73 -53 -95 -94 -19 -35 -22 -57 -22 -151 0 -107 1
-112 38 -185 46 -93 81 -137 156 -194 85 -66 135 -90 159 -77 18 9 21 23 24
115 3 113 13 136 72 180 24 18 42 21 134 21 127 0 171 -16 296 -107 5 -3 -17
-41 -50 -84 -90 -120 -275 -400 -339 -513 -31 -56 -85 -166 -120 -246 -64
-143 -165 -424 -165 -458 0 -14 -8 -12 -49 17 -28 18 -85 48 -128 66 -140 58
-177 81 -248 154 l-70 72 65 0 c76 -1 170 27 199 58 20 21 20 23 3 56 -13 27
-30 40 -78 60 -33 14 -66 29 -73 34 -30 20 -91 133 -136 252 -26 71 -63 162
-81 203 l-34 73 27 77 c23 63 27 92 26 167 0 52 -8 115 -17 147 -16 55 -16 60
3 121 29 93 35 170 21 261 -13 83 -29 125 -62 162 l-20 21 62 42 c104 70 138
136 161 307 9 70 8 109 -7 229 -9 79 -20 144 -24 144 -3 0 -17 -26 -30 -57
-28 -70 -73 -133 -118 -163 -29 -21 -40 -22 -120 -17 -93 6 -146 18 -177 41
-18 13 -17 15 16 55 62 71 87 129 99 226 24 188 -30 483 -100 550 -44 42 -117
45 -230 10 -127 -39 -126 -40 -122 20 11 185 103 513 204 728 65 138 68 165
23 185 -62 29 -161 3 -267 -67 -40 -27 -88 -65 -106 -84 -32 -33 -36 -35 -90
-30 -47 4 -65 0 -104 -20 -45 -23 -48 -23 -64 -6 -21 24 -76 49 -125 57 -38 7
-42 10 -60 62 -28 81 -82 155 -134 185 -61 36 -145 43 -200 17z m-530 -2042
c41 -40 55 -81 55 -165 0 -39 6 -69 16 -83 18 -26 17 -27 -25 -6 -49 25 -128
43 -214 50 l-77 7 6 66 c7 84 19 122 46 150 18 21 28 23 89 19 62 -3 72 -7
104 -38z m4109 -1633 c191 -288 316 -684 356 -1126 18 -189 8 -556 -19 -731
-25 -158 -116 -690 -133 -770 l-11 -55 -23 89 c-52 191 -138 350 -260 474 -67
68 -86 82 -112 82 -48 0 -63 -31 -73 -158 -4 -59 -17 -137 -28 -172 -19 -59
-142 -355 -154 -366 -5 -5 -116 246 -200 456 -176 433 -228 672 -213 963 18
334 72 563 201 851 109 241 229 430 385 604 l85 95 72 -77 c40 -42 97 -114
127 -159z m-2085 -397 c35 -11 76 -20 92 -20 16 0 29 -4 29 -9 0 -5 -16 -76
-36 -157 -33 -136 -36 -157 -31 -254 3 -71 12 -124 26 -165 l21 -59 -20 -80
c-37 -148 -20 -289 50 -399 30 -48 30 -48 15 -99 -8 -28 -18 -78 -21 -112 -11
-104 39 -254 108 -332 35 -39 35 -39 41 -159 9 -195 56 -334 142 -425 41 -43
43 -48 49 -125 7 -100 23 -152 81 -262 58 -112 105 -177 155 -211 25 -17 41
-38 46 -57 20 -88 143 -269 236 -349 22 -19 75 -53 117 -75 70 -36 79 -45 102
-93 85 -184 254 -362 380 -399 43 -14 44 -14 28 -108 -26 -164 -118 -260 -229
-238 -73 15 -127 52 -240 166 -199 200 -271 306 -592 884 -261 468 -338 624
-583 1172 -36 83 -111 237 -166 343 -54 106 -99 194 -99 196 0 2 53 6 117 10
64 3 118 8 120 10 2 2 -3 21 -11 42 -10 24 -48 70 -101 119 -75 71 -95 97
-173 235 l-89 155 44 59 c52 70 113 192 148 295 31 91 47 241 49 441 l1 156
65 -38 c36 -21 94 -47 129 -58z m-1183 -4426 c-19 -82 -62 -279 -96 -438 -96
-451 -136 -538 -285 -613 l-69 -35 -29 33 c-73 88 -129 226 -172 430 -21 99
-41 166 -80 260 -5 13 21 32 122 90 229 130 495 306 603 397 19 17 36 29 38
27 1 -1 -13 -69 -32 -151z"/>
</g>
</svg>
