<?xml version="1.0" standalone="no"?>
<!DOCTYPE svg PUBLIC "-//W3C//DTD SVG 20010904//EN"
 "http://www.w3.org/TR/2001/REC-SVG-20010904/DTD/svg10.dtd">
<svg version="1.0" xmlns="http://www.w3.org/2000/svg"
 width="1280.000000pt" height="640.000000pt" viewBox="0 0 1280.000000 640.000000"
 preserveAspectRatio="xMidYMid meet">
<metadata>
Created by potrace 1.15, written by Peter Selinger 2001-2017
</metadata>
<g transform="translate(0.000000,640.000000) scale(0.100000,-0.100000)"
fill="#000000" stroke="none">
<path d="M4970 6027 c-67 -18 -117 -23 -235 -25 -221 -4 -415 -23 -535 -54
-104 -26 -184 -87 -197 -149 -4 -23 -12 -30 -42 -35 -160 -27 -373 -101 -395
-137 -9 -14 -3 -24 37 -58 26 -22 47 -48 47 -58 0 -10 -16 -39 -36 -65 -131
-167 68 -417 279 -353 l47 15 0 -44 0 -44 -102 0 c-57 0 -188 -9 -293 -20
-228 -24 -323 -25 -464 -5 -176 26 -197 39 -225 137 -19 67 -52 98 -104 98
-29 0 -43 -8 -78 -44 -52 -55 -70 -121 -52 -194 16 -66 107 -155 208 -204 190
-92 306 -106 525 -63 117 24 163 28 278 27 110 -2 154 2 214 18 42 11 78 18
81 15 8 -8 -8 -73 -21 -83 -6 -6 -30 -13 -52 -17 -55 -10 -74 -22 -85 -51 -17
-44 9 -85 78 -122 33 -18 83 -53 111 -78 83 -74 125 -76 221 -10 46 32 59 36
116 36 34 0 65 -4 68 -8 8 -13 -47 -110 -87 -153 -69 -72 -133 -84 -269 -50
-120 31 -218 35 -348 17 -170 -25 -181 -52 -47 -110 42 -19 90 -43 108 -53
l31 -20 -74 -7 c-90 -9 -186 -29 -258 -54 -132 -46 -303 -153 -407 -255 l-52
-50 -103 12 c-223 27 -359 64 -525 142 -141 66 -253 135 -353 219 -47 39 -116
87 -155 107 -48 25 -97 63 -155 122 -135 136 -166 220 -116 319 37 74 89 117
189 159 61 25 91 43 97 58 4 12 24 34 44 49 55 42 86 111 86 192 0 92 -53 204
-137 287 -92 91 -136 114 -162 84 -8 -11 -2 -31 27 -87 34 -67 37 -80 37 -154
0 -57 -6 -90 -18 -113 -16 -30 -18 -31 -50 -21 -19 6 -63 35 -98 65 -35 31
-84 64 -108 75 -50 23 -67 18 -132 -33 -20 -16 -39 -29 -42 -29 -2 0 -2 31 1
69 14 199 -98 355 -293 407 -55 15 -232 19 -253 5 -17 -10 -12 -41 8 -51 8 -5
50 -24 92 -44 80 -38 150 -103 181 -168 27 -57 26 -58 -39 -79 -66 -20 -144
-80 -169 -130 -8 -15 -15 -44 -15 -64 l0 -36 -29 20 c-16 12 -45 21 -65 21
-22 0 -51 11 -78 28 -162 107 -349 86 -510 -58 -92 -82 -75 -118 38 -81 95 31
228 24 307 -16 l28 -14 -21 -29 c-26 -37 -50 -104 -50 -142 0 -37 14 -64 54
-106 31 -33 31 -33 6 -28 -100 20 -180 11 -260 -29 -85 -43 -160 -147 -205
-283 -13 -42 -14 -56 -5 -67 19 -23 33 -18 71 21 57 61 143 111 221 129 39 9
72 14 74 13 1 -2 -1 -21 -6 -43 -12 -51 4 -120 35 -162 39 -50 171 -106 303
-127 l73 -11 28 -67 c46 -107 96 -180 178 -259 87 -82 188 -153 275 -190 45
-19 56 -28 52 -42 -7 -24 10 -73 66 -192 59 -123 130 -233 198 -305 l52 -55
18 22 c11 12 25 49 32 82 7 34 16 61 20 61 4 0 12 -17 18 -37 21 -70 114 -206
197 -288 85 -85 212 -168 249 -163 19 3 21 11 26 82 l5 79 95 -119 c125 -158
298 -330 394 -393 76 -50 163 -88 221 -97 67 -11 73 -15 86 -46 13 -31 12 -32
-30 -68 -96 -83 -614 -357 -761 -403 -159 -49 -271 -57 -325 -22 -11 7 -33 38
-49 68 -23 46 -27 65 -22 104 28 243 29 298 12 354 -48 153 -217 269 -390 269
-70 0 -111 -17 -111 -45 0 -15 23 -32 89 -67 120 -64 146 -90 146 -144 0 -40
-3 -45 -42 -67 -24 -14 -61 -30 -82 -37 -24 -8 -61 -34 -90 -64 -28 -28 -66
-61 -85 -74 -31 -22 -35 -22 -75 -8 -69 25 -112 27 -183 11 -73 -17 -156 -61
-240 -128 -98 -79 -83 -109 41 -84 83 18 236 24 268 12 16 -6 16 -10 2 -43 -9
-21 -18 -78 -21 -132 -4 -86 -2 -99 20 -142 l24 -47 -63 -41 c-35 -22 -84 -64
-109 -93 -79 -89 -151 -266 -155 -382 -3 -70 -2 -75 24 -75 20 0 32 14 65 74
51 93 134 183 202 220 49 27 52 28 62 10 32 -60 192 -174 245 -174 15 0 15
-15 2 -40 -36 -67 -31 -190 12 -287 38 -86 67 -125 91 -121 20 3 22 9 23 80 2
90 26 150 80 198 l35 30 32 -41 c18 -23 57 -56 87 -73 46 -26 65 -31 120 -31
46 1 77 7 105 22 39 20 114 94 165 161 l25 33 195 14 c265 20 295 27 345 79
22 24 48 54 57 68 l18 26 62 -15 c170 -40 306 -63 376 -63 42 -1 102 -7 133
-14 57 -14 89 -7 89 17 0 7 -30 45 -66 85 -36 40 -63 72 -61 72 3 0 46 -13 97
-30 155 -51 273 -70 417 -69 213 2 230 15 141 106 l-53 56 33 -7 c217 -40 421
-30 604 30 68 22 68 38 1 107 -38 39 -51 57 -37 53 181 -54 457 -46 623 19 78
30 79 51 7 102 -30 21 -55 40 -56 43 0 3 44 11 98 17 92 12 249 51 302 76 47
23 38 44 -64 146 l-96 97 195 53 c484 131 632 196 1205 528 567 328 922 504
1220 604 138 46 219 58 390 59 l125 0 -97 -49 c-54 -27 -126 -69 -160 -94
-147 -104 -291 -292 -415 -538 -69 -138 -83 -192 -48 -197 11 -1 69 28 130 66
61 38 111 69 112 68 1 0 -21 -124 -48 -275 -49 -278 -50 -301 -13 -301 8 0 51
50 96 110 l83 111 6 -85 c5 -66 12 -94 33 -129 14 -25 31 -49 36 -52 18 -11
10 -70 -18 -120 -29 -54 -93 -107 -179 -150 -43 -23 -74 -29 -161 -35 -123 -9
-172 -24 -262 -83 l-64 -42 -146 0 c-137 0 -149 2 -195 26 -55 28 -95 78 -95
118 0 14 13 49 29 76 15 28 42 75 59 105 37 65 39 99 11 182 -50 150 -181 252
-360 279 -141 22 -168 -10 -71 -84 63 -49 152 -140 171 -175 12 -22 11 -22
-52 -22 -99 0 -152 -23 -229 -100 -64 -64 -68 -66 -84 -49 -9 10 -40 34 -69
54 -46 32 -64 38 -166 51 -67 9 -142 13 -182 10 -112 -10 -231 -66 -244 -115
-7 -29 5 -37 68 -44 26 -3 73 -18 104 -33 45 -22 61 -37 84 -78 34 -60 47
-102 56 -172 l7 -52 -51 -11 c-124 -26 -219 -109 -258 -222 -41 -117 -40 -209
2 -209 8 0 30 24 49 54 45 70 94 107 150 113 43 5 46 4 100 -52 31 -31 56 -63
56 -70 0 -8 -16 -82 -35 -166 -26 -114 -32 -156 -24 -166 17 -20 27 -17 82 31
29 24 76 57 106 74 l54 31 31 -52 c52 -87 130 -123 244 -114 46 3 76 13 110
34 49 30 92 91 92 131 0 13 6 22 15 22 8 0 77 -23 153 -51 261 -96 316 -100
524 -40 132 38 238 56 468 81 310 33 369 47 357 84 -2 6 -36 29 -75 51 -39 22
-73 42 -75 45 -3 3 41 6 97 8 160 4 294 32 473 101 131 51 132 67 5 131 l-87
43 50 14 c143 40 253 81 370 138 203 100 223 131 93 151 -67 10 -158 47 -158
63 0 4 36 14 80 24 105 24 207 76 280 144 92 85 92 122 0 123 -112 1 -245 52
-317 122 -118 115 -107 263 32 430 44 52 171 163 219 190 9 5 31 -15 65 -56
105 -130 258 -269 406 -370 79 -54 247 -137 377 -186 113 -42 120 -38 111 66
l-6 74 69 -46 c125 -84 289 -145 430 -159 59 -6 74 -4 87 10 21 20 15 33 -47
102 -25 28 -46 53 -46 55 0 3 71 8 158 11 182 7 349 33 547 83 202 52 217 55
232 50 19 -7 147 -271 180 -371 47 -140 35 -364 -27 -485 -11 -22 -25 -40 -30
-40 -25 0 -87 79 -99 126 -51 206 -88 299 -125 314 -51 20 -138 32 -183 27
-66 -9 -195 -76 -273 -142 -76 -66 -84 -76 -66 -100 12 -17 18 -18 53 -7 43
13 128 15 153 4 11 -5 15 -25 16 -77 0 -57 6 -83 31 -136 l31 -66 -67 -21
c-36 -12 -79 -24 -96 -28 -97 -22 -210 -114 -255 -209 -37 -78 -41 -174 -10
-242 29 -64 51 -58 92 24 35 69 77 112 140 137 l36 16 26 -44 c56 -95 136
-141 232 -133 l62 5 -9 -32 c-25 -86 2 -226 62 -321 86 -137 139 -142 113 -10
-26 132 5 218 94 265 20 10 27 9 42 -5 11 -10 39 -20 64 -22 63 -8 125 25 215
114 69 67 76 71 92 57 11 -10 21 -45 29 -100 14 -100 41 -143 121 -196 95 -63
173 -85 185 -54 3 8 -8 44 -26 80 -31 67 -75 240 -65 257 4 5 24 9 46 9 54 0
110 30 153 83 86 105 88 195 7 307 -42 59 -40 89 13 174 68 109 81 149 81 246
0 107 -13 143 -86 240 -54 71 -59 82 -59 129 0 28 17 119 37 203 46 194 50
289 13 363 -14 28 -33 51 -43 53 -24 5 -54 -23 -81 -73 l-21 -40 -2 70 c-11
306 -59 514 -108 464 -8 -8 -30 -44 -49 -79 -21 -38 -37 -59 -39 -50 -3 8 -12
51 -22 95 -24 108 -88 288 -119 336 -45 68 -67 51 -87 -64 l-14 -79 -67 134
c-85 168 -127 233 -153 233 -18 0 -21 -9 -27 -73 -15 -176 -107 -309 -263
-383 -213 -100 -522 -32 -890 196 -95 58 -295 193 -295 198 0 1 57 1 127 -1
420 -11 841 74 1087 220 92 54 223 185 258 258 157 329 -18 697 -431 905 -265
133 -606 196 -986 180 -308 -12 -586 -48 -1115 -145 -456 -83 -576 -101 -716
-107 -125 -5 -149 -3 -210 15 -80 24 -151 68 -186 115 -14 18 -48 78 -77 134
-85 166 -163 236 -333 299 -98 36 -259 42 -543 20 -356 -27 -318 -31 -478 53
-75 40 -137 78 -137 85 0 8 18 33 39 57 l39 44 103 1 c136 1 131 0 127 26 -7
53 -161 112 -293 112 -114 1 -152 -21 -197 -111 -32 -66 -33 -71 -33 -193 0
-140 19 -218 80 -341 154 -305 557 -568 1021 -664 194 -40 297 -49 539 -49
309 1 461 19 1060 124 858 151 1221 189 1530 161 458 -42 779 -202 824 -412
17 -78 -1 -133 -64 -194 -149 -146 -513 -226 -960 -212 -195 6 -347 24 -780
92 -638 100 -766 110 -1415 110 -422 -1 -580 -4 -745 -18 -429 -36 -779 -89
-1387 -210 l-367 -74 -6 76 c-9 124 -35 288 -61 390 -13 53 -24 98 -24 101 0
3 24 -22 54 -55 47 -53 55 -58 70 -46 13 11 16 34 16 126 0 173 -39 336 -123
520 -37 80 -107 213 -139 264 -9 16 -6 25 24 62 88 109 137 283 108 389 -16
60 -69 110 -141 133 -31 9 -63 17 -72 17 -9 0 -42 33 -75 73 -75 92 -133 144
-186 168 -57 26 -168 24 -276 -4z"/>
</g>
</svg>
