<?xml version="1.0" standalone="no"?>
<!DOCTYPE svg PUBLIC "-//W3C//DTD SVG 20010904//EN"
 "http://www.w3.org/TR/2001/REC-SVG-20010904/DTD/svg10.dtd">
<svg version="1.0" xmlns="http://www.w3.org/2000/svg"
 width="1280.000000pt" height="887.000000pt" viewBox="0 0 1280.000000 887.000000"
 preserveAspectRatio="xMidYMid meet">
<metadata>
Created by potrace 1.15, written by Peter Selinger 2001-2017
</metadata>
<g transform="translate(0.000000,887.000000) scale(0.100000,-0.100000)"
fill="#000000" stroke="none">
<path d="M2150 8831 c-105 -49 -124 -53 -125 -26 0 30 -34 21 -143 -36 -73
-38 -99 -47 -123 -42 -47 9 -141 -44 -249 -141 -52 -47 -98 -86 -102 -86 -4 0
-3 13 2 29 11 40 5 43 -36 19 -31 -18 -34 -18 -40 -4 -6 15 -8 15 -26 -1 -11
-10 -28 -34 -38 -53 -10 -19 -30 -46 -44 -59 -14 -14 -26 -30 -26 -37 0 -24
-21 -25 -40 -2 l-19 23 -1 -43 c0 -60 -15 -85 -46 -78 -23 6 -24 4 -24 -44 0
-32 -13 -91 -35 -156 -19 -57 -35 -115 -35 -129 0 -16 -13 -34 -37 -54 -190
-153 -181 -141 -248 -326 -56 -157 -86 -217 -128 -264 -79 -87 -106 -159 -117
-303 -9 -126 -30 -178 -137 -339 -66 -98 -137 -210 -245 -386 -27 -42 -58
-107 -70 -144 -19 -59 -20 -71 -8 -99 13 -32 81 -90 106 -90 16 0 41 -46 65
-120 10 -30 33 -93 53 -140 38 -91 83 -143 211 -240 33 -25 65 -57 72 -70 6
-14 23 -50 37 -80 38 -83 64 -95 206 -95 105 0 120 2 170 27 31 15 100 65 154
110 159 134 155 132 260 136 l91 4 45 -92 c26 -55 62 -110 86 -134 48 -47 134
-102 196 -123 24 -8 75 -41 113 -72 88 -73 155 -114 223 -136 28 -9 52 -20 52
-25 0 -10 -132 -75 -255 -125 -207 -86 -227 -101 -422 -324 -247 -283 -402
-442 -452 -464 -66 -29 -144 -109 -219 -221 -109 -166 -325 -365 -397 -366
-38 -1 -103 -38 -119 -68 -9 -17 -17 -64 -20 -106 -4 -79 -6 -83 -68 -153 -65
-73 -61 -137 18 -295 51 -102 107 -168 167 -197 23 -11 123 -43 221 -71 98
-28 196 -60 216 -70 25 -13 63 -54 121 -132 106 -144 165 -203 215 -217 60
-17 309 -14 343 3 85 44 126 141 126 296 -1 93 -4 112 -29 170 -68 155 -36
345 81 484 32 38 90 107 128 154 39 48 85 97 104 109 57 38 521 182 686 213
48 9 76 8 145 -5 47 -8 126 -20 175 -26 140 -16 172 -26 286 -90 140 -78 203
-99 299 -99 134 0 326 67 417 144 49 42 86 101 132 209 34 78 72 122 114 132
28 7 159 -37 209 -70 24 -16 49 -48 74 -95 34 -65 53 -87 98 -115 11 -7 23
-44 35 -110 22 -112 31 -139 61 -175 l21 -25 -7 60 c-23 218 -34 279 -59 316
-31 47 -32 69 -4 69 31 0 56 -17 63 -43 3 -13 15 -104 26 -201 19 -170 38
-246 59 -246 18 0 31 37 31 89 0 28 3 51 6 51 4 0 26 -15 49 -34 31 -26 48
-52 69 -104 30 -78 52 -105 62 -78 6 17 5 29 -17 125 -10 43 -10 82 -1 179 14
145 22 167 46 130 26 -40 72 -176 95 -279 25 -116 38 -152 51 -144 5 3 10 34
10 68 1 130 41 331 69 347 12 6 33 2 70 -15 l53 -25 -7 -122 c-8 -143 0 -175
42 -180 27 -3 28 -6 33 -63 l5 -60 43 -14 c24 -7 46 -11 49 -8 3 4 0 26 -6 51
-17 70 -14 96 24 175 51 107 71 131 106 131 41 0 38 -21 -16 -139 -46 -99 -52
-125 -36 -136 14 -8 39 22 73 89 45 89 69 121 79 104 5 -7 9 -65 10 -128 1
-145 9 -205 29 -205 8 0 18 14 23 30 14 47 25 64 135 209 88 116 116 147 123
134 1 -2 5 -100 8 -218 5 -182 8 -215 21 -215 10 0 19 18 27 49 14 56 24 66
71 66 l32 0 0 68 c0 43 5 75 14 88 17 22 20 16 31 -51 4 -22 15 -53 25 -70 10
-16 21 -49 25 -73 4 -25 12 -42 18 -40 7 2 24 31 40 63 48 104 62 129 75 133
17 5 15 -24 -5 -80 -9 -26 -14 -51 -10 -55 4 -3 22 1 41 9 29 14 37 15 53 3
24 -17 38 -9 54 30 l12 30 7 -30 c4 -16 8 -68 9 -115 1 -86 12 -124 29 -105 5
6 28 66 51 134 71 209 160 371 205 371 29 0 18 -40 -65 -232 -44 -104 -81
-201 -82 -215 -3 -47 21 -35 67 34 88 130 251 338 266 338 24 0 14 -40 -41
-157 -47 -103 -65 -175 -44 -179 5 -1 46 65 90 146 44 82 84 149 89 149 6 1
19 -37 30 -84 28 -112 47 -115 62 -10 l10 75 33 -64 c23 -44 35 -85 39 -130 5
-50 11 -67 23 -69 23 -4 38 44 46 141 4 49 10 76 17 74 6 -2 27 -41 46 -88 20
-46 50 -104 68 -128 31 -43 32 -43 41 -19 5 14 12 47 16 74 19 147 48 189 53
78 1 -32 5 -65 8 -73 8 -25 30 7 48 72 9 31 20 57 25 57 5 0 11 -31 13 -69 7
-126 35 -107 48 33 10 102 19 130 46 140 38 15 44 -9 44 -185 0 -92 4 -170 9
-174 13 -7 18 15 26 105 17 190 53 300 102 318 50 17 55 6 64 -134 11 -184 51
-344 86 -344 17 0 17 22 -2 108 -18 87 -38 325 -30 352 3 11 12 20 19 20 18 0
98 -87 139 -152 47 -72 82 -105 147 -138 47 -24 61 -38 95 -96 142 -243 324
-404 669 -590 82 -44 118 -71 153 -112 66 -77 216 -208 375 -328 167 -126 242
-175 378 -245 127 -65 222 -154 319 -297 82 -121 129 -225 181 -397 38 -126
43 -153 48 -270 7 -201 -2 -220 -125 -261 -88 -29 -110 -49 -153 -137 -31 -66
-80 -222 -80 -259 0 -5 104 -8 230 -8 127 0 230 4 230 8 0 18 93 104 157 145
127 81 172 157 193 319 30 241 -2 579 -91 977 -44 195 -44 201 -26 201 28 0
257 -200 257 -225 0 -5 15 -29 33 -51 44 -55 150 -251 192 -356 38 -93 65
-249 68 -388 2 -80 -1 -89 -33 -149 l-35 -65 0 -165 c0 -181 8 -214 55 -238
18 -9 83 -13 221 -13 l196 0 5 93 c4 56 12 104 22 122 9 17 16 35 16 41 0 12
22 22 100 45 49 15 160 70 228 113 49 31 75 79 66 124 -3 17 -53 92 -110 168
-57 77 -118 166 -136 199 -17 33 -48 85 -68 115 -45 67 -75 125 -84 165 -4 17
-45 121 -91 232 -47 110 -96 236 -110 279 -43 131 -129 285 -177 316 -13 8
-50 25 -82 38 -113 45 -279 202 -380 358 -51 80 -234 383 -323 537 -35 60 -80
154 -102 210 -77 200 -205 615 -193 626 13 12 115 -21 227 -73 361 -166 530
-229 815 -300 l125 -31 509 -4 509 -4 34 33 c54 51 66 82 61 156 -5 83 -22 98
-121 107 -92 8 -120 -2 -155 -60 l-27 -44 -95 -1 c-152 0 -350 18 -436 41 -43
11 -115 25 -159 29 -114 13 -503 142 -632 210 -153 82 -443 294 -651 477 -267
235 -370 316 -488 383 -82 47 -166 131 -214 213 -63 105 -265 303 -395 385
-55 35 -143 91 -195 124 -119 75 -201 117 -330 168 -157 62 -193 83 -544 315
-414 272 -580 369 -701 409 -27 9 -90 39 -140 67 -49 28 -124 64 -165 81 -41
16 -122 55 -180 86 -148 79 -216 111 -381 182 -211 91 -394 187 -450 238 -27
24 -66 74 -86 110 -48 87 -140 176 -239 231 -43 24 -108 60 -144 80 -68 38
-82 63 -48 85 13 8 34 6 85 -9 83 -23 143 -30 143 -18 0 16 -43 50 -79 61 -18
7 -106 17 -195 22 -239 16 -283 24 -330 60 -23 16 -72 49 -111 72 -38 23 -95
58 -125 79 -30 20 -82 51 -114 69 -133 71 -423 313 -494 413 -27 38 -36 61
-43 120 -11 85 -27 111 -99 154 -252 152 -1046 281 -1345 218 -81 -17 -115
-19 -115 -5 0 21 130 70 253 95 15 3 27 10 27 16 0 8 -46 10 -142 9 -79 -1
-186 1 -238 5 -100 7 -178 -5 -272 -41 -40 -15 -49 -16 -63 -4 -10 8 -15 23
-12 37 2 13 -2 28 -10 34 -20 17 -120 -12 -210 -62 -109 -59 -160 -51 -104 18
55 66 40 68 -79 14z m-190 -86 c0 -8 -4 -15 -10 -15 -5 0 -10 7 -10 15 0 8 5
15 10 15 6 0 10 -7 10 -15z m478 3 c-3 -7 -11 -13 -18 -13 -7 0 -15 6 -17 13
-3 7 4 12 17 12 13 0 20 -5 18 -12z m-78 -27 c0 -6 -5 -13 -10 -16 -15 -9 -43
3 -35 15 8 13 45 13 45 1z m252 -44 c-12 -6 -25 -7 -29 -3 -11 10 18 25 35 18
13 -4 11 -8 -6 -15z m-982 -77 c0 -6 -12 -23 -27 -38 -34 -34 -46 -12 -12 24
24 25 39 31 39 14z m-230 -139 c0 -12 -20 -25 -27 -18 -7 7 6 27 18 27 5 0 9
-4 9 -9z m4101 -5073 c4 -37 -36 -138 -54 -138 -15 0 -2 96 17 124 18 28 35
34 37 14z m464 2 c8 -13 -25 -67 -64 -104 l-30 -29 15 63 c8 34 17 66 20 71 7
12 51 11 59 -1z m-133 -50 c-2 -19 -8 -50 -14 -69 -9 -29 -12 -31 -25 -18 -16
16 -29 88 -19 112 4 11 15 15 33 13 25 -3 28 -6 25 -38z m560 -15 c10 -39 -5
-112 -37 -175 -27 -54 -40 -61 -50 -30 -9 29 -9 142 0 171 23 72 71 91 87 34z
m188 -172 c-35 -57 -41 -63 -36 -36 3 17 20 62 38 100 31 66 32 67 36 36 2
-25 -7 -49 -38 -100z m-780 2 c0 -8 -7 -15 -15 -15 -8 0 -15 7 -15 15 0 8 7
15 15 15 8 0 15 -7 15 -15z"/>
</g>
</svg>
