<?xml version="1.0" standalone="no"?>
<!DOCTYPE svg PUBLIC "-//W3C//DTD SVG 20010904//EN"
 "http://www.w3.org/TR/2001/REC-SVG-20010904/DTD/svg10.dtd">
<svg version="1.0" xmlns="http://www.w3.org/2000/svg"
 width="1011.000000pt" height="1280.000000pt" viewBox="0 0 1011.000000 1280.000000"
 preserveAspectRatio="xMidYMid meet">
<metadata>
Created by potrace 1.15, written by Peter Selinger 2001-2017
</metadata>
<g transform="translate(0.000000,1280.000000) scale(0.100000,-0.100000)"
fill="#000000" stroke="none">
<path d="M4316 12738 c5 -53 2 -72 -19 -119 -24 -55 -26 -57 -73 -63 -74 -11
-248 -53 -355 -86 -115 -36 -165 -77 -197 -161 l-19 -53 -84 -22 c-156 -42
-323 -114 -486 -210 -136 -80 -153 -99 -153 -167 0 -45 4 -59 26 -81 21 -21
36 -26 74 -26 51 0 80 -21 80 -57 0 -25 -34 -70 -60 -78 -11 -4 -24 -22 -31
-43 -14 -50 0 -105 44 -163 18 -24 46 -61 61 -83 28 -38 108 -96 133 -96 7 0
32 -21 55 -46 58 -63 117 -96 165 -92 l38 3 0 95 0 95 130 -2 130 -1 130 -49
c171 -66 268 -113 358 -173 114 -76 114 -70 -5 -131 -56 -29 -137 -81 -180
-116 -42 -35 -82 -63 -87 -63 -6 0 -35 31 -65 68 -55 69 -84 91 -121 94 -54 4
-65 -2 -90 -51 -32 -63 -40 -116 -26 -168 21 -79 113 -173 168 -173 23 0 24
-3 21 -51 -3 -60 3 -55 -133 -99 -192 -62 -371 -168 -508 -302 -64 -62 -87
-78 -104 -75 -26 5 -27 3 -13 -23 8 -16 0 -22 -65 -53 -96 -46 -155 -87 -231
-159 l-62 -59 -53 56 c-85 90 -177 218 -341 478 -140 223 -154 251 -185 352
-53 176 -74 295 -74 419 0 154 29 249 111 371 44 65 44 63 -5 54 -55 -10 -99
-32 -118 -59 -13 -18 -15 -10 -21 79 -14 226 -84 420 -182 510 -44 42 -48 43
-60 26 -8 -11 -14 -22 -14 -25 0 -12 -45 -28 -147 -50 l-101 -23 -56 60 c-113
122 -240 159 -446 130 -89 -13 -131 -24 -186 -51 -69 -35 -71 -35 -137 -24
-76 13 -153 3 -266 -32 -59 -19 -81 -33 -155 -101 -98 -91 -182 -199 -263
-337 -55 -93 -57 -100 -60 -176 -2 -50 2 -98 12 -132 8 -28 15 -70 15 -92 0
-32 5 -43 27 -58 37 -24 120 -35 127 -17 8 20 122 71 186 83 118 22 224 -27
292 -135 44 -71 77 -95 130 -95 l33 0 0 -73 c1 -58 6 -80 25 -115 69 -121 70
-123 70 -208 l0 -81 40 0 c29 0 57 -12 112 -46 l73 -46 3 50 c3 52 14 61 34
29 15 -24 54 -26 103 -6 19 8 35 13 35 10 0 -3 -18 -31 -40 -61 -22 -31 -39
-58 -37 -60 5 -4 209 76 224 89 18 15 16 3 -8 -43 -11 -23 -18 -43 -16 -46 6
-6 140 80 196 126 l44 36 -23 -44 c-12 -24 -50 -73 -84 -107 l-62 -64 33 0
c38 0 39 -3 14 -38 -33 -48 -59 -107 -76 -173 -9 -35 -19 -72 -22 -83 -4 -16
-1 -17 29 -11 18 4 45 14 61 21 15 8 27 12 27 10 0 -3 -5 -28 -11 -57 -6 -29
-8 -78 -4 -114 l6 -63 41 44 c23 25 42 43 44 41 2 -2 -3 -25 -11 -52 -18 -58
-19 -195 -2 -284 l12 -64 29 37 c16 21 42 72 58 114 16 42 32 79 35 82 20 18
-29 -273 -66 -398 l-19 -63 21 -9 c12 -4 25 -5 28 -1 3 3 25 56 49 116 39 100
81 191 65 140 -21 -68 -26 -114 -18 -170 l10 -60 27 59 c26 56 46 75 27 25
-13 -35 -36 -207 -28 -215 3 -4 31 8 61 25 l55 30 -20 -57 c-21 -60 -27 -164
-12 -216 l9 -29 57 81 c31 44 61 83 67 87 6 3 -10 -33 -34 -81 -49 -93 -79
-206 -74 -272 l3 -41 69 62 70 62 -27 -46 c-57 -97 -69 -151 -75 -326 -3 -109
-1 -163 6 -163 15 0 99 99 123 145 l21 40 -7 -70 c-8 -90 -38 -239 -69 -346
-13 -46 -23 -85 -22 -86 2 -2 30 11 64 28 70 35 113 83 149 167 l24 57 -7 -55
c-5 -46 -14 -64 -50 -107 -48 -56 -115 -108 -181 -142 -43 -22 -48 -28 -37
-54 10 -28 267 37 337 85 15 11 27 15 27 10 0 -22 -118 -117 -254 -206 -110
-72 -146 -101 -142 -112 3 -9 6 -18 6 -20 0 -10 32 -2 149 36 204 67 299 126
389 241 41 54 48 58 59 43 10 -14 6 -28 -21 -83 -114 -226 -303 -357 -543
-378 -67 -5 -73 -8 -73 -28 0 -22 4 -23 138 -30 208 -11 374 15 495 77 38 19
38 19 28 -1 -15 -28 -105 -104 -184 -158 -125 -83 -257 -132 -464 -169 -29 -6
-32 -44 -4 -44 46 0 314 44 399 65 51 13 129 40 175 59 78 32 90 34 227 39
196 7 380 48 599 136 59 24 59 23 6 -38 -11 -13 -162 -93 -335 -177 l-315
-155 -73 12 c-110 18 -204 7 -310 -35 -77 -31 -101 -36 -171 -36 -44 0 -81 -4
-81 -9 0 -5 -3 -16 -6 -25 -4 -10 4 -19 28 -29 113 -47 278 -132 278 -142 0
-7 -7 -18 -14 -25 -12 -9 -34 -3 -111 29 -150 65 -205 74 -378 67 -121 -5
-153 -4 -175 8 -100 56 -180 61 -268 16 -66 -33 -81 -45 -124 -107 -34 -49
-170 -165 -186 -159 -18 7 -269 -244 -293 -291 -11 -23 -25 -62 -31 -88 -19
-85 23 -193 118 -304 l29 -34 -53 -78 c-58 -86 -94 -184 -94 -258 0 -78 26
-137 92 -205 54 -56 60 -60 71 -42 51 78 72 100 122 122 58 27 152 46 160 33
8 -12 82 -21 116 -14 17 4 45 20 64 36 28 25 34 27 39 13 4 -11 -8 -35 -33
-68 -60 -78 -97 -179 -116 -320 l-7 -49 89 5 c106 6 177 31 271 96 l67 46 82
-3 c93 -3 144 14 205 68 35 31 37 31 144 31 84 0 118 5 149 19 22 10 45 16 52
14 13 -5 78 62 139 145 79 104 195 341 209 424 7 43 31 63 120 103 33 14 62
31 66 37 4 7 10 -4 14 -25 l7 -36 27 16 c14 9 67 57 116 108 147 150 241 199
408 212 l77 6 0 -32 c0 -17 2 -31 5 -31 3 0 30 16 60 34 50 33 54 34 57 15 3
-17 11 -13 60 31 l57 50 3 -32 3 -32 27 41 c21 32 44 49 105 78 42 20 90 46
105 56 15 11 28 17 28 14 0 -7 -126 -192 -162 -237 -18 -23 -19 -30 -8 -43 7
-8 16 -15 21 -15 16 0 264 204 342 282 43 43 80 78 83 78 2 0 4 -6 4 -14 0 -7
13 -39 29 -70 15 -31 24 -59 20 -62 -18 -11 -8 -23 24 -29 43 -10 57 -22 57
-54 l1 -26 20 27 20 27 39 -39 c43 -43 81 -51 116 -25 24 18 44 19 44 1 0 -14
163 -46 270 -52 366 -21 684 -71 869 -136 125 -44 310 -141 389 -204 9 -6 -68
-105 -130 -166 -76 -76 -174 -143 -263 -179 -84 -34 -172 -30 -500 21 -194 30
-292 41 -348 38 -74 -3 -80 -5 -100 -33 -35 -49 -96 -102 -145 -126 -26 -12
-101 -35 -167 -50 -210 -51 -302 -80 -412 -134 -281 -135 -309 -180 -388 -595
-46 -249 -76 -337 -148 -438 -24 -33 -35 -41 -51 -36 -33 9 -56 43 -56 80 0
28 6 38 33 54 17 11 40 20 50 20 13 0 17 8 17 33 0 53 -11 61 -70 53 -89 -12
-155 -43 -199 -92 -78 -89 -62 -205 42 -301 51 -47 84 -66 147 -84 l45 -12
-40 -9 c-59 -14 -163 7 -221 43 l-47 30 -33 -32 -33 -32 21 -30 c71 -100 172
-156 298 -164 87 -6 180 8 249 38 24 11 46 17 49 15 2 -3 -51 -33 -119 -68
l-124 -62 135 -9 c128 -8 246 -1 294 18 17 7 17 6 6 -16 -30 -57 -151 -216
-177 -233 -41 -28 -113 -117 -273 -341 -159 -223 -272 -371 -324 -427 l-35
-38 -138 0 -138 0 -19 -35 c-21 -39 -28 -42 -46 -20 -27 33 -122 57 -235 59
-62 2 -163 13 -230 26 -87 16 -160 23 -265 23 -169 2 -213 -8 -271 -61 -23
-20 -52 -47 -65 -59 -15 -14 -24 -33 -24 -52 0 -27 -4 -30 -52 -41 -29 -7 -79
-23 -111 -36 -108 -43 -296 -187 -284 -218 4 -10 -3 -17 -23 -21 -42 -9 -143
-77 -173 -117 -58 -76 -115 -263 -105 -344 l3 -26 48 37 c26 20 63 43 82 51
58 24 245 16 245 -11 0 -28 83 -34 130 -10 l28 15 7 -59 c6 -51 3 -65 -20
-112 -36 -69 -43 -147 -20 -225 15 -52 105 -247 124 -266 3 -4 27 29 51 74 42
77 131 188 151 188 5 0 -1 -21 -14 -46 l-22 -46 35 -28 c34 -28 34 -29 15 -43
-11 -8 -31 -24 -45 -35 l-25 -20 45 4 c25 2 82 5 127 8 174 9 250 93 294 324
17 89 31 104 95 96 l52 -7 7 -61 c7 -65 41 -140 81 -177 23 -22 24 -22 44 -4
20 18 21 18 44 -4 39 -37 56 -110 56 -242 0 -77 4 -119 11 -119 14 0 121 73
183 124 61 51 132 145 147 197 7 21 15 39 19 39 4 0 28 18 52 40 34 30 48 51
57 86 7 26 9 49 7 52 -3 3 17 29 45 59 27 29 62 79 77 110 l27 58 3 -34 c2
-19 2 -63 0 -98 -2 -35 -1 -63 2 -63 3 0 31 20 63 45 46 37 60 54 69 89 8 30
20 49 39 60 26 15 69 87 69 117 1 8 7 2 16 -13 8 -15 24 -33 35 -39 35 -18 69
16 124 127 47 94 51 100 75 93 47 -13 57 -10 75 31 10 22 25 46 34 54 15 14
21 12 55 -15 20 -17 38 -30 40 -28 2 2 12 33 23 69 l20 65 23 -39 23 -38 22
36 c31 51 31 51 58 20 18 -21 33 -28 60 -28 45 0 65 17 93 82 13 28 27 52 32
52 5 0 18 -13 30 -29 26 -35 101 -56 176 -48 28 3 107 24 176 47 109 37 137
43 219 45 l94 1 13 36 12 36 -40 17 c-49 19 -167 94 -187 118 -17 22 -8 22 74
2 86 -20 93 -19 65 10 -30 32 -18 32 23 1 37 -28 246 -140 251 -135 8 9 -14
149 -28 183 -15 37 -15 37 7 31 52 -15 113 -53 139 -85 17 -22 36 -68 50 -123
13 -48 25 -87 28 -86 12 1 93 114 113 157 29 66 36 222 12 312 -38 145 -105
240 -208 292 -124 62 -196 159 -237 322 -52 205 -37 301 64 402 82 82 166 116
363 149 174 29 271 55 368 97 77 34 182 100 233 147 18 17 34 31 36 31 2 0 6
-98 10 -217 4 -120 11 -254 16 -298 5 -44 9 -154 10 -245 1 -223 24 -333 111
-515 23 -50 93 -124 287 -308 80 -75 99 -100 133 -171 45 -93 61 -185 40 -225
-18 -32 -71 -61 -113 -61 -28 0 -38 -5 -43 -20 -9 -29 0 -38 57 -55 98 -29
200 -14 254 36 l22 21 11 -35 c28 -83 119 -170 218 -207 47 -18 222 -44 231
-35 2 2 -28 47 -67 100 -39 54 -85 126 -102 160 l-30 62 35 77 c20 43 41 97
47 120 20 73 19 72 28 58 6 -10 18 2 40 37 35 55 61 135 61 192 0 52 36 101
89 119 35 12 45 12 48 3 6 -17 38 -16 56 2 8 7 27 17 41 21 22 5 34 1 57 -22
l31 -29 -7 38 -7 37 35 0 c27 0 40 -7 56 -28 l20 -27 1 37 c0 35 2 37 41 43
26 4 45 3 52 -4 17 -17 34 -13 40 10 5 20 10 21 63 15 32 -4 82 -17 113 -30
68 -28 185 -79 189 -82 2 -1 11 -33 19 -71 13 -55 23 -76 54 -107 36 -35 38
-42 33 -77 -6 -36 -3 -42 30 -73 31 -30 36 -41 36 -80 0 -36 6 -52 30 -79 27
-31 29 -38 19 -65 -13 -39 3 -95 34 -117 19 -13 24 -32 34 -118 23 -204 8
-397 -38 -490 -49 -98 -132 -145 -236 -134 -73 8 -116 37 -199 137 -121 144
-224 172 -369 101 -80 -40 -166 -119 -284 -260 -129 -156 -142 -188 -142 -364
0 -109 -1 -112 -35 -168 -51 -82 -66 -139 -65 -247 0 -102 3 -112 31 -112 12
0 22 11 29 33 7 19 25 47 42 63 l30 29 140 0 139 -1 60 -66 c66 -72 134 -108
209 -108 37 0 38 -1 49 -51 18 -78 62 -159 117 -214 55 -55 164 -114 226 -122
l40 -6 -22 54 c-27 68 -47 136 -51 174 -3 28 -1 29 55 41 34 7 68 21 82 34
l25 23 0 -36 c0 -27 4 -37 15 -37 25 0 72 27 93 55 12 15 22 20 24 14 6 -19
81 34 167 120 44 44 82 90 86 102 5 14 10 18 14 10 9 -14 107 96 147 164 22
39 30 45 71 51 25 4 79 4 119 0 63 -5 80 -11 118 -40 32 -24 60 -36 98 -41
171 -21 308 -97 364 -200 10 -19 21 -35 25 -35 4 0 22 33 42 73 55 112 69 211
47 327 -7 36 -7 72 1 114 9 51 8 67 -5 98 -35 82 -135 147 -357 233 l-97 38
16 27 16 28 66 -35 c36 -20 70 -40 76 -45 16 -12 24 1 24 39 l0 34 48 -6 c26
-4 66 -18 90 -32 l42 -24 0 22 c0 18 4 21 33 16 17 -4 75 -7 127 -8 l95 -3 -1
77 c-3 179 -75 244 -339 308 -124 30 -209 73 -276 141 -101 100 -136 202 -145
428 -5 117 -4 128 18 170 14 28 37 53 59 65 l37 20 -46 50 c-103 114 -107 209
-12 344 l42 60 -5 303 c-3 222 -9 321 -20 369 -16 70 -55 154 -107 229 -29 44
-30 44 -37 20 -9 -35 -68 -147 -98 -186 -33 -44 -117 -84 -174 -84 -70 0 -160
25 -263 72 -91 42 -95 43 -203 43 l-110 1 -156 94 -156 93 -16 97 c-9 54 -32
146 -51 206 -21 67 -43 167 -56 259 -24 168 -40 237 -71 314 -27 63 -20 73 48
73 33 0 66 -8 100 -26 136 -68 342 -100 501 -77 247 36 491 190 580 367 151
299 167 654 45 984 -70 190 -187 381 -347 567 -122 141 -247 253 -461 413
-218 162 -258 189 -630 420 -351 218 -511 325 -670 449 -367 285 -584 629
-635 1008 -19 136 -9 412 19 533 29 126 75 260 114 334 42 81 156 195 229 229
194 91 395 68 445 -52 44 -103 -46 -290 -180 -377 -57 -37 -175 -172 -211
-241 -24 -47 -29 -68 -28 -127 1 -169 -44 -220 -190 -219 -43 1 -78 -1 -78 -3
0 -2 15 -27 34 -56 70 -108 157 -168 246 -168 75 0 126 33 162 104 l15 29 7
-29 c4 -16 25 -76 47 -132 85 -219 103 -365 57 -458 -22 -43 -84 -104 -119
-116 -8 -3 -10 -13 -6 -30 6 -24 10 -26 49 -21 85 10 173 34 215 59 105 61
143 182 112 359 -7 40 -7 74 -1 96 l9 34 12 -43 c15 -55 64 -110 119 -133 61
-27 281 -47 293 -28 17 27 8 44 -38 74 -31 20 -57 48 -77 84 -27 49 -30 63
-30 140 0 54 8 116 21 166 12 44 25 98 29 120 7 38 8 36 14 -35 12 -127 62
-197 161 -220 57 -14 116 -9 227 17 68 16 72 18 72 44 0 25 -4 28 -48 34 -92
12 -158 69 -182 154 -13 45 -13 189 0 306 6 59 6 134 0 217 -33 416 -223 700
-535 798 -52 17 -104 24 -205 27 -147 5 -257 -11 -419 -62 -75 -24 -83 -30
-183 -128 -415 -408 -538 -918 -383 -1592 9 -38 40 -121 70 -183 59 -122 57
-125 -30 -59 -103 78 -173 160 -227 268 l-31 64 -19 289 -18 289 75 312 c105
439 134 593 161 848 3 32 11 60 17 62 7 2 57 13 112 26 l100 22 -65 22 c-36
12 -86 32 -111 44 l-47 22 -6 78 c-4 43 -4 89 -1 102 7 31 -91 426 -145 582
-61 178 -156 354 -259 481 -17 22 -29 41 -27 44 3 2 26 8 51 13 25 5 61 16 79
24 39 19 180 135 172 142 -2 3 -39 -2 -81 -11 -158 -33 -229 -17 -364 83 -106
78 -210 143 -309 191 l-91 45 -1 111 c0 134 -6 144 -71 115 -24 -11 -112 -33
-194 -49 -83 -17 -169 -38 -192 -47 l-43 -17 -42 37 c-61 51 -148 91 -269 120
-57 14 -109 25 -116 25 -9 0 -11 -17 -7 -62z m-3012 -1614 c8 -32 -10 -101
-36 -134 -21 -27 -87 -80 -100 -80 -4 0 -8 45 -8 100 l0 100 33 13 c17 8 41
24 51 36 18 19 21 20 37 5 9 -8 20 -27 23 -40z m1965 -1302 c-13 -5 -71 30
-77 46 -2 7 16 0 41 -15 25 -16 41 -30 36 -31z m-882 -1239 c-3 -10 -5 -4 -5
12 0 17 2 24 5 18 2 -7 2 -21 0 -30z m-10 -55 c-3 -7 -5 -2 -5 12 0 14 2 19 5
13 2 -7 2 -19 0 -25z m4063 -240 c121 -204 330 -434 532 -583 59 -44 208 -145
333 -225 124 -80 274 -180 333 -224 59 -43 224 -156 368 -251 143 -96 302
-206 354 -246 179 -138 329 -306 432 -483 129 -221 141 -571 27 -804 -41 -84
-132 -180 -206 -218 -53 -26 -67 -29 -158 -29 -85 0 -109 4 -163 27 -100 42
-168 87 -263 176 -112 105 -170 180 -243 312 -117 211 -281 441 -482 675 -145
169 -556 761 -737 1062 -112 185 -165 285 -230 428 -49 110 -137 343 -137 366
0 5 14 9 30 9 23 0 30 4 30 20 0 12 -10 24 -22 30 -19 7 -13 9 27 10 40 1 127
13 131 19 0 0 20 -32 44 -71z m-4778 -2060 c-9 -4 -27 -7 -38 -7 -21 -1 -21 0
-5 34 l16 34 22 -27 c21 -25 21 -27 5 -34z m-137 -8 c3 -5 -1 -10 -10 -10 -9
0 -13 5 -10 10 3 6 8 10 10 10 2 0 7 -4 10 -10z m-155 -20 c9 -17 7 -22 -12
-29 -30 -11 -31 -9 -17 23 15 31 15 31 29 6z m75 11 c3 -5 1 -12 -5 -16 -5 -3
-10 1 -10 9 0 18 6 21 15 7z m402 -622 l-23 -74 -13 37 c-12 36 -11 39 21 77
18 22 34 38 35 37 1 -1 -8 -36 -20 -77z m-157 -66 l22 -38 24 30 c26 33 31 25
10 -15 -11 -18 -23 -25 -51 -27 -25 -1 -52 -13 -77 -34 -51 -40 -58 -32 -14
15 19 20 40 52 47 71 7 19 14 35 15 35 1 0 12 -17 24 -37z m5548 -3278 c-1
-31 -16 35 -16 70 0 25 2 24 9 -10 4 -22 8 -49 7 -60z"/>
</g>
</svg>
