<?xml version="1.0" standalone="no"?>
<!DOCTYPE svg PUBLIC "-//W3C//DTD SVG 20010904//EN"
 "http://www.w3.org/TR/2001/REC-SVG-20010904/DTD/svg10.dtd">
<svg version="1.0" xmlns="http://www.w3.org/2000/svg"
 width="1104.000000pt" height="1280.000000pt" viewBox="0 0 1104.000000 1280.000000"
 preserveAspectRatio="xMidYMid meet">
<metadata>
Created by potrace 1.15, written by Peter Selinger 2001-2017
</metadata>
<g transform="translate(0.000000,1280.000000) scale(0.100000,-0.100000)"
fill="#000000" stroke="none">
<path d="M5806 12694 c-98 -174 -232 -324 -365 -410 -53 -34 -60 -43 -70 -87
-17 -76 -14 -157 9 -194 28 -47 67 -63 155 -63 84 0 101 -15 28 -25 -109 -14
-245 -37 -353 -61 -98 -22 -148 -34 -272 -70 -38 -11 -15 16 45 53 73 46 97
86 97 158 0 70 -19 122 -54 149 -76 57 -136 76 -316 96 -132 15 -183 33 -224
81 -34 40 -34 40 -65 25 l-30 -16 6 -78 c7 -99 -11 -158 -75 -244 -105 -143
-116 -199 -62 -304 58 -112 116 -138 249 -110 41 9 76 15 77 13 1 -1 -70 -58
-158 -127 -88 -69 -191 -149 -229 -179 -38 -30 -72 -52 -75 -48 -3 3 9 47 26
98 28 80 32 103 28 164 -6 90 -27 131 -81 156 -66 30 -148 25 -269 -15 -57
-19 -126 -38 -154 -41 -66 -9 -156 14 -245 62 l-68 37 -20 -25 c-11 -13 -20
-27 -21 -31 0 -4 167 -166 370 -359 204 -194 369 -354 367 -356 -2 -1 -30 2
-63 8 -94 18 -333 5 -542 -30 -101 -16 -186 -32 -189 -35 -3 -2 39 -66 92
-141 172 -242 299 -438 355 -548 l55 -107 -34 -32 c-47 -44 -73 -109 -79 -195
l-5 -73 38 0 c49 0 94 -45 124 -125 35 -94 44 -160 38 -300 -6 -156 -27 -238
-97 -380 -61 -124 -124 -202 -241 -302 l-91 -77 54 -18 c110 -36 183 -50 265
-49 86 1 195 22 246 48 15 7 27 11 27 7 0 -14 -143 -174 -232 -259 -119 -116
-252 -215 -401 -300 -65 -37 -115 -71 -110 -75 46 -41 172 -134 215 -158 59
-33 153 -67 210 -77 l38 -6 -112 -97 c-570 -492 -1073 -1141 -1528 -1970 -88
-160 -122 -199 -183 -208 -23 -4 -45 2 -77 20 -25 15 -52 29 -61 32 -9 3 -25
22 -36 42 -36 67 -48 131 -48 267 0 115 3 135 23 176 12 25 34 51 48 57 16 8
94 12 217 12 238 0 282 15 317 105 15 36 14 221 0 275 -23 84 -104 120 -272
120 -81 0 -90 2 -85 18 3 9 34 98 70 197 111 306 188 600 228 870 9 58 14 181
14 345 0 271 -7 331 -60 543 -66 263 -218 568 -401 810 -24 31 -44 61 -44 66
0 4 48 66 108 137 416 502 546 667 671 854 241 362 343 671 344 1045 0 190
-16 285 -72 431 -68 177 -219 353 -364 424 -122 59 -190 74 -342 75 l-130 0
-97 -48 c-185 -90 -285 -217 -310 -393 -24 -167 46 -460 163 -680 93 -176 137
-333 169 -604 18 -151 12 -140 74 -140 l55 0 11 55 c6 31 40 113 74 183 90
182 101 219 100 333 l-1 96 41 11 c22 6 55 22 71 36 l30 24 0 109 c0 98 -3
113 -27 161 -42 81 -74 115 -200 218 -64 52 -127 111 -139 131 l-22 36 22 18
c58 47 158 47 258 -1 100 -48 131 -83 159 -178 74 -258 46 -589 -74 -884 -71
-173 -262 -489 -430 -713 -138 -184 -365 -456 -372 -448 -5 4 -236 300 -514
656 -498 638 -506 649 -531 728 -37 118 -48 208 -42 344 6 135 28 219 84 328
59 112 205 227 289 227 36 0 93 -29 111 -56 30 -47 -12 -110 -101 -152 -160
-75 -230 -193 -246 -416 -4 -67 -6 -124 -4 -127 2 -3 54 7 116 22 62 15 114
26 115 25 2 -2 -4 -23 -14 -47 -22 -58 -22 -203 0 -289 9 -36 40 -131 69 -212
l51 -147 46 6 c25 3 50 9 55 14 5 4 13 36 18 70 13 98 60 223 171 456 119 248
159 357 183 493 28 167 -1 320 -92 475 -137 233 -370 331 -628 265 -160 -41
-285 -131 -412 -299 -285 -377 -308 -872 -63 -1351 99 -194 216 -353 399 -545
58 -60 139 -150 180 -200 41 -49 153 -180 250 -290 96 -110 195 -224 218 -252
l44 -53 -56 -74 c-214 -285 -377 -669 -440 -1041 -28 -162 -36 -273 -36 -473
-1 -359 60 -665 184 -928 44 -93 135 -243 161 -264 28 -23 15 -30 -55 -30
-137 0 -216 -34 -246 -105 -21 -51 -27 -147 -14 -223 24 -143 70 -171 287
-172 126 0 133 -1 147 -22 20 -31 33 -122 46 -316 16 -249 45 -360 122 -467
51 -71 135 -128 227 -151 l69 -18 -73 -215 c-183 -543 -294 -761 -480 -946
-124 -124 -201 -166 -415 -230 -30 -9 -102 -39 -159 -67 -91 -43 -117 -62
-192 -137 -70 -70 -94 -103 -128 -172 -42 -87 -90 -254 -76 -267 4 -4 103 -6
221 -4 227 3 254 -2 254 -42 0 -18 -27 -41 -132 -111 -150 -101 -230 -176
-273 -255 -25 -48 -30 -68 -33 -152 l-4 -96 78 15 c137 26 279 5 321 -49 10
-13 5 -155 -17 -482 -19 -266 -53 -437 -117 -576 -57 -126 -88 -166 -151 -197
-65 -32 -112 -93 -137 -176 -16 -53 -20 -226 -9 -323 l7 -52 121 -4 c192 -8
263 -44 437 -220 l106 -108 970 0 970 0 39 26 c21 14 50 36 64 49 52 47 106
58 159 31 32 -17 97 -86 113 -122 13 -27 21 -29 84 -13 l44 11 0 52 c0 149
-54 293 -137 366 -25 22 -57 43 -70 46 -22 6 -23 10 -23 103 0 163 -43 273
-147 376 -70 70 -153 118 -231 134 -81 17 -200 13 -284 -8 -129 -33 -190 -71
-308 -191 -115 -117 -169 -150 -310 -189 -87 -25 -80 -29 -136 82 -155 304
-165 677 -33 1153 29 104 40 130 97 214 203 297 454 563 676 719 33 22 63 41
67 41 4 0 10 -28 14 -62 6 -56 2 -129 -22 -383 l-6 -69 92 79 c193 167 264
213 687 455 l296 168 -7 -36 c-16 -82 -21 -192 -14 -283 18 -228 128 -414 338
-567 l70 -51 10 37 c6 20 24 98 41 172 17 74 32 140 34 147 3 6 22 -5 46 -27
l42 -39 -22 -31 c-43 -61 -70 -157 -70 -255 0 -84 23 -214 49 -276 6 -13 49
-125 97 -249 47 -124 89 -231 93 -238 4 -7 40 112 81 264 41 152 80 278 86
281 7 2 43 1 80 -4 l68 -8 70 -141 c83 -164 191 -328 310 -470 115 -138 408
-417 655 -626 193 -164 207 -178 258 -262 29 -49 63 -115 74 -147 l21 -58 62
6 c119 11 243 -44 482 -213 l148 -104 61 0 c33 0 317 -7 630 -15 314 -8 723
-17 910 -21 l340 -6 65 66 c76 78 107 88 169 57 35 -18 91 -78 126 -135 9 -14
16 -14 60 -3 l50 13 3 56 c2 30 -4 88 -12 129 -28 131 -90 230 -171 269 -43
21 -45 24 -45 63 -1 128 -64 273 -164 373 -113 114 -240 166 -401 168 l-90 1
-100 -56 c-55 -31 -188 -110 -295 -176 -231 -142 -319 -188 -403 -209 -159
-41 -315 23 -542 222 -50 44 -117 101 -150 128 -533 428 -1048 1092 -1289
1662 -73 170 -173 478 -161 492 2 2 85 -29 185 -68 100 -39 185 -69 187 -66 3
3 -5 45 -16 95 -42 180 -52 301 -66 826 -12 484 -14 515 -38 615 -105 442
-297 688 -627 802 -110 38 -235 58 -443 74 l-89 6 29 30 c44 46 151 114 265
167 224 105 490 170 891 217 42 5 67 14 95 36 72 58 175 98 253 98 53 0 131
-26 178 -60 92 -67 151 -213 151 -372 l0 -87 33 -5 c84 -14 77 -19 107 72 36
107 71 178 124 249 37 50 134 143 149 143 3 0 10 -33 17 -72 29 -183 72 -264
170 -313 l46 -23 93 109 c51 61 143 153 204 206 416 356 945 560 1832 708 88
14 169 30 180 34 13 6 29 32 43 74 52 147 165 293 264 343 28 14 51 24 53 22
1 -2 10 -28 20 -58 48 -149 141 -270 280 -360 65 -43 73 -45 140 -45 60 0 80
5 140 35 59 29 80 35 135 34 94 -1 148 -32 251 -144 46 -49 86 -90 89 -90 4 0
19 51 35 114 23 96 27 128 22 198 -9 142 -71 261 -169 323 -43 27 -44 29 -56
101 -14 90 -40 145 -99 205 l-44 46 43 7 c72 11 162 45 231 86 36 22 70 40 74
41 8 0 58 74 117 176 70 120 128 130 283 48 57 -30 106 -55 109 -55 10 0 3
110 -11 164 -35 132 -113 234 -212 277 -27 11 -95 27 -153 36 -68 10 -108 20
-113 30 -44 75 -122 123 -244 147 -73 15 -85 16 -118 2 -21 -9 -100 -77 -183
-158 -148 -144 -207 -185 -291 -203 -33 -7 -34 -7 -27 21 16 63 95 144 297
301 107 84 151 193 128 317 -22 117 26 207 140 265 22 12 102 39 177 61 76 22
139 41 140 43 6 5 -274 107 -351 128 -57 15 -110 22 -185 22 -128 0 -202 -22
-303 -90 -64 -43 -73 -46 -127 -44 -73 3 -124 -21 -191 -90 -51 -52 -91 -127
-110 -205 -7 -27 -13 -119 -14 -204 -1 -135 -4 -162 -23 -210 -66 -165 -212
-285 -416 -344 -177 -52 -387 -54 -681 -7 -66 11 -199 31 -295 46 -96 14 -185
29 -198 31 -21 4 -22 8 -16 72 3 37 7 72 9 78 2 6 90 81 197 166 267 214 405
331 920 781 l447 390 -6 67 c-3 37 -3 84 1 104 6 32 10 36 36 36 19 0 57 -19
107 -53 78 -53 78 -53 83 -104 3 -27 12 -58 19 -67 22 -26 79 -52 141 -65 67
-13 287 -31 385 -31 l72 0 26 63 c32 78 44 119 52 182 9 69 61 162 109 197 36
26 85 44 169 63 28 6 28 6 -40 61 -37 30 -101 71 -142 91 -64 32 -83 37 -145
37 -50 1 -81 -5 -105 -18 -29 -16 -41 -16 -98 -6 -138 24 -239 83 -304 176
-25 37 -29 48 -18 55 62 40 232 47 463 20 l179 -21 37 30 c82 65 139 154 156
243 12 67 90 140 211 198 56 28 103 52 103 55 0 12 -81 113 -118 146 -69 63
-184 108 -273 108 -20 0 -56 9 -80 20 -24 11 -60 20 -80 20 -41 0 -126 -24
-184 -52 l-40 -19 37 33 c126 113 149 256 62 404 -55 93 -22 153 122 221 50
24 96 43 102 43 72 0 -150 118 -274 146 -110 24 -187 15 -289 -35 -61 -30 -88
-38 -113 -34 -49 8 -115 -15 -155 -53 -74 -72 -107 -197 -107 -403 l0 -128
-41 -64 c-23 -35 -76 -97 -118 -138 -74 -73 -76 -74 -79 -47 -4 35 19 70 67
100 46 30 95 103 127 193 63 179 4 337 -155 417 -66 34 -107 70 -138 123 -24
42 -26 50 -20 136 3 51 9 100 13 111 6 14 -13 8 -87 -30 -126 -65 -189 -128
-256 -259 -42 -81 -58 -104 -87 -119 -51 -27 -133 -117 -158 -173 -16 -37 -20
-60 -16 -117 8 -114 61 -195 201 -308 103 -81 125 -119 134 -227 8 -101 -4
-128 -116 -240 -311 -314 -1199 -829 -1766 -1024 l-100 -34 -110 15 c-60 8
-112 17 -114 19 -3 1 5 13 17 26 39 41 62 107 62 179 l0 68 83 41 c204 103
348 229 410 360 75 157 74 283 -1 479 -16 41 -32 84 -36 95 -6 16 -21 -6 -72
-107 -94 -185 -210 -301 -389 -391 -122 -61 -321 -116 -497 -138 -128 -15
-453 -7 -573 15 -155 28 -327 88 -308 107 4 4 48 15 97 24 112 19 318 19 541
0 94 -8 198 -15 233 -15 60 0 65 2 135 54 237 176 367 412 367 667 0 94 -17
139 -83 223 -73 92 -245 206 -330 219 -48 7 -59 17 -109 90 -32 47 -51 64 -90
81 l-50 21 5 537 6 537 -22 6 c-12 4 -29 8 -37 11 -10 2 -31 -24 -64 -82z
m4109 -1666 c-83 -93 -186 -195 -236 -234 -83 -64 -219 -131 -219 -108 0 16
100 154 152 210 66 70 113 97 171 97 27 0 58 10 96 32 70 42 71 42 36 3z
m-8365 -2079 c163 -276 254 -558 280 -864 21 -247 -19 -706 -85 -967 -49 -190
-124 -363 -211 -485 l-47 -66 -44 69 c-74 116 -200 383 -242 509 -78 240 -107
438 -98 690 13 394 125 774 335 1139 52 90 44 92 112 -25z"/>
</g>
</svg>
