<?xml version="1.0" standalone="no"?>
<!DOCTYPE svg PUBLIC "-//W3C//DTD SVG 20010904//EN"
 "http://www.w3.org/TR/2001/REC-SVG-20010904/DTD/svg10.dtd">
<svg version="1.0" xmlns="http://www.w3.org/2000/svg"
 width="1280.000000pt" height="894.000000pt" viewBox="0 0 1280.000000 894.000000"
 preserveAspectRatio="xMidYMid meet">
<metadata>
Created by potrace 1.15, written by Peter Selinger 2001-2017
</metadata>
<g transform="translate(0.000000,894.000000) scale(0.100000,-0.100000)"
fill="#000000" stroke="none">
<path d="M1560 8909 c-28 -46 -50 -124 -50 -176 0 -24 -2 -43 -4 -43 -3 0 -17
11 -31 25 -15 13 -43 29 -62 36 -29 9 -37 8 -55 -8 -46 -41 -98 -184 -98 -269
0 -68 -5 -74 -66 -74 -49 0 -55 -2 -64 -26 -19 -49 -22 -128 -8 -196 11 -49
11 -68 3 -68 -6 0 -34 -12 -63 -26 -71 -35 -96 -78 -89 -150 8 -74 66 -191
125 -251 63 -65 111 -87 190 -88 l64 0 -6 -29 c-14 -67 -75 -112 -143 -104
-30 4 -33 2 -33 -22 0 -14 12 -49 26 -78 32 -64 75 -93 143 -94 l49 -1 -32
-21 c-137 -93 -153 -351 -29 -478 34 -35 36 -41 34 -95 -5 -128 53 -288 141
-388 44 -50 141 -122 202 -151 l39 -19 -6 -80 c-8 -135 -51 -195 -139 -195
-47 0 -47 0 -58 43 -6 23 -14 51 -17 62 -22 83 -122 215 -208 275 -34 24 -42
36 -53 86 -21 90 -93 228 -180 344 -88 117 -249 277 -342 340 -59 40 -120 109
-120 137 0 24 -18 13 -34 -22 -26 -54 -46 -161 -46 -247 l0 -77 -50 34 c-82
56 -232 96 -404 110 l-89 7 7 -48 c13 -99 29 -151 71 -240 72 -149 203 -257
359 -297 l48 -13 -40 -28 c-162 -112 -144 -368 31 -470 112 -65 300 -54 380
21 34 34 34 40 0 36 -57 -7 -99 38 -82 85 29 78 266 63 367 -24 123 -105 146
-327 63 -619 -67 -238 -163 -387 -450 -702 -89 -99 -190 -218 -223 -264 -162
-224 -245 -519 -209 -736 32 -187 159 -332 343 -389 l57 -17 -45 -51 c-122
-139 -136 -292 -38 -420 19 -25 38 -46 42 -46 4 0 19 26 34 58 34 73 130 179
232 255 90 66 316 182 433 221 42 14 77 25 78 23 1 -1 -2 -51 -7 -112 -19
-232 -73 -403 -140 -445 -30 -19 -43 -20 -128 -15 -108 7 -157 -4 -145 -33 31
-82 7 -190 -56 -246 -21 -20 -43 -36 -48 -36 -5 0 -16 -3 -24 -6 -21 -8 -47
23 -47 57 0 26 -3 29 -30 29 -40 0 -92 -22 -120 -51 -39 -41 -70 -119 -70
-177 0 -69 19 -111 74 -166 l45 -45 -60 -48 c-165 -129 -203 -279 -103 -410
24 -31 25 -37 15 -84 -6 -27 -11 -87 -11 -133 0 -68 4 -91 26 -134 26 -52 43
-68 99 -88 l30 -11 0 -99 c0 -75 5 -108 19 -136 39 -80 119 -128 213 -128 l43
0 0 -76 c0 -73 1 -77 34 -110 30 -30 40 -34 86 -34 46 0 51 -2 45 -17 -49
-117 -46 -205 8 -256 13 -12 31 -44 42 -71 30 -81 109 -154 193 -180 21 -7 22
-5 22 44 0 70 21 118 57 126 57 12 64 16 78 44 19 36 45 145 45 188 0 35 15
43 25 13 10 -34 85 -102 138 -127 65 -30 130 -31 175 -4 37 23 59 20 105 -12
36 -26 60 -72 67 -132 l5 -48 33 45 c44 62 62 117 62 192 0 62 -28 167 -56
210 -10 15 -13 35 -8 63 6 36 3 43 -31 80 -32 36 -35 43 -24 63 7 15 9 45 5
89 -5 59 -3 71 16 95 28 36 92 65 146 65 47 0 48 0 27 39 -48 95 -175 124
-318 75 -38 -13 -54 -14 -73 -5 -70 31 -147 -1 -205 -87 -46 -67 -64 -76 -93
-46 -25 24 -20 94 13 171 16 37 37 99 45 136 22 93 53 340 67 537 l12 165 86
91 c247 262 444 645 548 1066 l27 110 23 -62 c38 -102 56 -229 51 -368 -6
-153 -15 -169 -108 -194 -70 -19 -97 -38 -116 -85 -32 -75 0 -143 91 -194 30
-17 55 -34 55 -37 0 -4 -9 -21 -19 -38 -24 -40 -75 -63 -156 -71 l-65 -6 6
-36 c31 -170 121 -261 260 -261 l61 0 5 -83 c10 -156 77 -231 203 -230 l61 0
12 -41 c17 -55 67 -127 107 -155 69 -47 153 -54 208 -17 32 22 37 23 49 9 36
-44 91 -73 140 -73 43 0 54 5 92 40 l44 41 18 -56 c23 -74 68 -141 117 -173
37 -25 66 -30 190 -32 9 0 33 -15 53 -33 31 -28 37 -41 43 -92 l6 -60 37 50
c21 28 44 70 53 94 19 56 19 176 0 230 -13 37 -12 44 2 70 16 27 16 30 -5 65
l-22 38 34 -21 c22 -14 52 -22 87 -23 46 -1 56 3 76 26 13 15 23 36 23 47 0
29 90 69 156 69 50 0 154 -41 154 -61 0 -5 5 -9 10 -9 6 0 10 26 10 59 0 173
-118 299 -327 348 -49 12 -73 22 -73 32 0 8 -8 38 -17 67 -16 51 -16 55 3 95
21 47 85 94 141 105 l34 6 -23 25 c-60 65 -183 89 -288 58 -30 -9 -71 -18 -90
-19 -47 -3 -65 -14 -133 -84 l-59 -60 -83 83 c-99 98 -232 199 -385 295 -62
38 -116 70 -121 72 -5 2 10 38 34 80 24 42 54 108 66 145 46 137 52 195 61
548 9 370 20 458 66 554 38 76 30 84 -86 94 -195 16 -373 72 -502 156 -168
110 -231 232 -179 347 19 42 100 134 117 134 5 0 19 -33 32 -74 29 -91 79
-167 134 -203 32 -22 56 -28 109 -31 l68 -4 22 -46 c27 -56 81 -111 134 -137
30 -15 60 -20 120 -19 79 0 81 0 100 -30 44 -67 153 -108 231 -87 47 12 91 52
96 84 3 18 7 14 25 -23 24 -49 42 -152 43 -242 0 -102 31 -132 153 -152 71
-12 72 -12 95 -56 27 -51 26 -125 -3 -179 l-16 -31 38 6 38 6 19 -99 c99 -522
314 -1090 583 -1543 409 -687 958 -1223 1670 -1631 86 -49 160 -89 165 -89 31
0 316 167 508 298 801 544 1397 1325 1727 2262 80 227 203 688 203 762 0 20 9
21 51 4 13 -6 17 3 23 48 17 145 110 269 182 242 23 -9 80 19 100 49 14 22 19
54 21 164 2 75 5 141 8 148 3 9 13 9 37 2 50 -14 119 -11 174 8 36 12 67 34
116 84 57 58 75 70 125 83 32 8 68 18 80 22 28 8 39 -13 48 -96 25 -237 134
-498 307 -732 l50 -68 -39 -44 c-22 -25 -54 -71 -71 -104 -36 -67 -92 -228
-92 -264 0 -15 18 -41 51 -73 178 -175 393 -463 518 -695 l49 -93 20 39 c11
21 37 55 57 74 44 42 48 38 64 -69 7 -42 23 -123 37 -181 l24 -105 -69 -73
c-309 -329 -510 -911 -547 -1587 l-7 -130 64 59 c89 80 261 193 404 264 121
60 351 152 380 152 11 0 15 11 15 39 0 60 27 199 54 279 30 86 71 161 122 220
30 36 42 43 67 40 29 -3 32 -7 40 -48 16 -87 58 -256 94 -378 l36 -123 121
-81 c271 -179 697 -350 1036 -415 84 -16 92 -16 107 0 15 15 14 18 -10 49 -91
112 -267 352 -340 463 -468 719 -853 1676 -1057 2634 -37 174 -37 181 -3 139
36 -45 176 -188 184 -188 3 0 9 28 13 63 14 141 96 377 207 604 47 95 58 126
51 140 -16 29 -219 222 -312 296 -90 72 -241 175 -326 222 l-52 29 -11 105
c-20 179 -30 392 -38 729 l-6 322 44 -16 c66 -25 184 -23 234 3 67 35 116 95
139 170 7 21 4 21 -77 21 -164 1 -237 63 -237 201 l0 60 81 48 c194 115 298
282 301 482 l1 86 43 48 c53 59 77 129 78 222 0 109 -41 202 -111 250 l-34 22
44 1 c56 1 86 13 119 49 27 28 58 100 58 134 0 15 -5 17 -30 12 -40 -7 -113
21 -129 50 -6 12 -15 36 -20 53 l-8 30 66 0 c48 0 77 5 106 21 102 54 209 224
210 335 0 52 -3 60 -35 93 -19 20 -56 44 -83 53 -35 13 -46 21 -41 32 12 26
16 193 7 230 -9 35 -10 35 -70 38 l-60 3 -6 78 c-10 124 -78 281 -123 281 -20
0 -74 -28 -100 -52 l-21 -19 -7 63 c-3 37 -19 89 -36 127 l-30 64 -48 -7 c-68
-9 -147 -53 -197 -108 -46 -51 -55 -57 -55 -33 0 18 -40 85 -62 102 -33 28
-173 -79 -218 -167 -20 -39 -23 -42 -33 -24 -18 32 -40 43 -84 44 -71 0 -133
-71 -133 -151 l0 -32 -22 20 c-38 34 -64 43 -123 43 -50 0 -60 -3 -85 -30 -16
-17 -39 -61 -52 -98 -19 -57 -23 -87 -23 -197 0 -122 2 -133 28 -187 16 -32
45 -71 65 -88 33 -27 35 -31 21 -46 -22 -22 -92 -29 -129 -14 -31 13 -60 54
-60 86 0 15 -4 14 -26 -7 -68 -64 -100 -171 -71 -241 8 -19 32 -54 52 -77 l37
-41 -74 0 c-185 0 -338 -85 -387 -214 -38 -103 -22 -273 35 -359 14 -22 23
-45 20 -52 -8 -21 -165 -94 -227 -105 -53 -10 -110 -4 -162 16 -15 5 -17 -2
-17 -53 0 -157 82 -262 223 -288 20 -4 37 -8 37 -10 0 -4 -32 -80 -35 -83 -1
-2 -182 81 -401 183 -220 103 -424 197 -454 210 -156 66 -282 72 -390 18 -36
-18 -80 -47 -98 -66 l-32 -33 -163 23 c-780 109 -1794 127 -2627 47 -152 -14
-386 -42 -546 -65 l-81 -12 -42 41 c-89 86 -210 119 -329 88 -80 -20 -142 -52
-272 -139 -58 -39 -229 -149 -380 -243 l-275 -173 -35 67 c-19 37 -47 83 -63
103 l-27 36 60 12 c123 24 196 118 207 267 6 73 5 77 -13 70 -56 -22 -116 -27
-171 -16 -63 13 -164 57 -206 90 l-26 21 24 35 c43 64 60 131 60 239 -1 88 -4
106 -27 150 -65 124 -203 194 -380 195 -38 0 -68 2 -68 4 0 2 14 19 31 37 88
94 85 200 -10 309 -29 33 -30 34 -31 12 0 -13 -15 -39 -34 -58 -28 -28 -41
-34 -77 -34 -26 0 -56 8 -72 19 l-28 18 37 28 c105 81 135 309 63 500 -31 83
-57 105 -124 105 -59 0 -85 -9 -122 -43 -22 -20 -23 -20 -23 -1 0 43 -24 100
-55 131 -28 28 -40 33 -79 33 -37 0 -52 -5 -73 -26 -28 -28 -28 -27 -57 26
-21 38 -107 115 -157 140 l-43 22 -22 -28 c-13 -15 -30 -44 -39 -65 l-17 -37
-52 52 c-58 58 -124 93 -191 103 -42 5 -45 4 -65 -28z m475 -3211 c-37 -339
-134 -745 -290 -1208 -36 -107 -79 -242 -96 -300 -50 -171 -89 -241 -188 -340
-99 -99 -200 -169 -297 -207 -55 -21 -87 -27 -155 -27 -78 -1 -90 2 -134 29
-129 80 -142 303 -27 481 69 106 144 154 244 154 100 0 166 -55 189 -158 14
-58 20 -58 90 5 80 72 119 182 99 278 -13 62 -62 132 -116 166 l-36 22 38 23
c22 12 63 38 93 56 139 84 239 232 249 366 6 85 -9 153 -56 252 l-35 75 -13
-69 c-16 -81 -52 -162 -96 -218 -30 -38 -141 -128 -158 -128 -4 0 11 19 32 42
105 114 167 299 184 550 l7 107 26 -13 c123 -62 274 -35 387 69 32 30 61 54
62 55 2 0 1 -28 -3 -62z m1639 -122 c44 -18 91 -78 107 -135 7 -25 13 -47 14
-49 1 -1 41 18 89 44 48 25 89 44 92 42 2 -3 3 -103 2 -223 l-3 -218 -64 102
c-82 132 -193 276 -289 374 l-77 77 48 0 c26 0 62 -6 81 -14z m5461 -95 c22
-19 43 -40 48 -47 5 -8 -14 -42 -51 -93 -32 -44 -70 -101 -83 -126 -13 -25
-26 -45 -29 -45 -3 0 -4 90 -2 201 l3 201 37 -28 c20 -15 55 -43 77 -63z"/>
</g>
</svg>
