<?xml version="1.0" standalone="no"?>
<!DOCTYPE svg PUBLIC "-//W3C//DTD SVG 20010904//EN"
 "http://www.w3.org/TR/2001/REC-SVG-20010904/DTD/svg10.dtd">
<svg version="1.0" xmlns="http://www.w3.org/2000/svg"
 width="1280.000000pt" height="640.000000pt" viewBox="0 0 1280.000000 640.000000"
 preserveAspectRatio="xMidYMid meet">
<metadata>
Created by potrace 1.15, written by Peter Selinger 2001-2017
</metadata>
<g transform="translate(0.000000,640.000000) scale(0.100000,-0.100000)"
fill="#000000" stroke="none">
<path d="M10048 5533 c-54 -55 -84 -116 -94 -191 -4 -30 -13 -56 -20 -59 -7
-3 -63 18 -124 47 -127 58 -290 123 -296 117 -3 -2 5 -61 16 -130 23 -143 25
-218 8 -235 -14 -14 -51 0 -137 57 -68 44 -94 49 -126 26 -32 -25 -111 -5
-370 91 -265 98 -478 150 -736 180 -193 22 -591 15 -790 -15 -326 -48 -657
-133 -1007 -257 -140 -50 -965 -369 -1492 -577 -578 -228 -850 -371 -1120
-588 -153 -123 -413 -380 -755 -749 -296 -320 -472 -493 -630 -624 -254 -211
-583 -396 -682 -384 -24 3 -28 8 -31 40 -5 55 53 110 146 137 87 26 108 49
121 131 21 128 121 279 198 295 53 12 55 13 44 34 -21 38 -73 81 -112 91 -29
8 -66 8 -134 0 -126 -15 -158 -8 -220 50 -97 92 -237 162 -389 195 -156 35
-361 6 -534 -75 -120 -56 -205 -116 -323 -227 -158 -149 -219 -190 -185 -125
25 48 130 184 197 256 268 287 654 386 1129 290 107 -22 201 -55 337 -120 190
-90 203 -90 203 0 0 103 35 116 318 116 l187 0 -103 96 c-108 101 -147 157
-136 198 4 17 -1 30 -16 44 -13 12 -18 22 -11 26 6 4 86 11 178 16 323 18 514
78 652 206 70 64 140 100 308 155 73 24 129 46 125 50 -4 4 -46 24 -94 44
-133 57 -132 57 134 217 175 105 248 159 248 185 0 8 -13 30 -30 49 -39 45
-46 89 -31 211 14 113 8 186 -18 248 -94 214 -431 297 -1211 299 -314 1 -378
-2 -460 -17 -207 -40 -357 -106 -598 -266 -165 -109 -290 -180 -362 -206 -142
-51 -224 -30 -208 51 5 29 62 61 132 74 78 15 121 39 130 75 10 41 49 97 126
181 39 43 70 80 70 84 0 13 -173 71 -255 86 -192 34 -362 4 -443 -79 -54 -55
-74 -105 -74 -186 0 -146 95 -292 262 -402 24 -16 56 -32 70 -35 73 -16 88
-31 104 -107 5 -19 18 -32 44 -45 37 -17 37 -18 37 -77 1 -97 28 -124 99 -100
56 20 110 60 223 169 57 54 105 97 107 95 2 -2 20 -35 39 -74 38 -75 85 -127
130 -144 57 -22 126 -10 153 27 17 24 118 32 240 21 112 -10 179 -3 228 23 32
18 135 118 166 163 36 53 70 147 70 194 0 51 -31 91 -71 91 -68 0 -84 32 -50
98 38 74 113 127 231 163 62 20 97 24 205 24 185 -1 295 -37 397 -133 102 -95
125 -175 77 -267 -34 -67 -52 -69 -84 -5 -48 95 -107 87 -123 -16 -12 -74 -57
-148 -152 -248 -86 -91 -159 -146 -192 -146 -29 0 -38 42 -35 160 1 73 -2 113
-10 121 -15 15 -95 -42 -243 -171 -177 -155 -219 -179 -287 -159 -62 17 -83 4
-205 -119 -137 -139 -222 -192 -481 -297 -346 -141 -465 -196 -687 -323 -225
-128 -368 -231 -547 -394 -240 -218 -322 -333 -378 -524 -78 -268 -12 -501
198 -701 89 -84 138 -119 243 -171 162 -81 293 -111 514 -119 367 -12 731 82
1180 307 165 82 197 101 480 275 232 143 319 188 382 200 34 6 52 -2 224 -101
316 -183 395 -282 350 -438 -22 -76 -64 -121 -124 -135 -140 -31 -567 -20
-717 19 -44 11 -122 40 -175 64 -187 87 -235 99 -292 72 -37 -18 -59 -49 -101
-145 -50 -117 -137 -249 -272 -416 -181 -224 -256 -356 -259 -453 -1 -67 17
-84 114 -106 133 -31 317 -39 660 -30 496 13 617 12 763 -11 152 -23 161 -20
165 51 10 158 -57 292 -176 353 -49 25 -176 51 -249 51 -128 0 -273 27 -273
51 0 26 170 38 685 49 527 10 741 22 930 50 136 20 161 15 151 -28 -18 -77
-18 -109 -1 -116 10 -3 65 -1 123 5 127 13 209 6 277 -26 58 -28 94 -76 102
-134 3 -22 13 -47 23 -56 22 -20 114 -35 220 -35 159 0 377 -34 600 -94 330
-89 678 -140 825 -121 46 5 58 11 67 30 18 39 49 38 212 -5 140 -36 216 -49
216 -35 0 4 -7 19 -15 36 -24 45 -4 46 147 4 156 -44 171 -45 203 -15 48 45
53 174 10 276 -40 95 -220 222 -403 283 -83 28 -144 26 -292 -9 -181 -43 -276
-54 -420 -47 -132 7 -236 29 -458 99 l-34 10 119 78 c65 43 156 110 203 149
185 153 187 155 248 159 36 2 106 -6 187 -22 135 -27 205 -33 205 -17 0 5 -37
36 -82 69 -113 82 -134 106 -129 148 2 19 30 26 148 39 62 7 119 18 128 25 8
7 15 25 15 40 0 28 -24 63 -119 171 l-55 61 82 -41 c104 -52 142 -54 203 -8
24 19 58 41 76 50 41 22 133 21 198 -1 72 -24 79 -45 59 -162 -10 -60 -12 -96
-6 -102 6 -6 48 3 121 26 122 40 152 43 171 21 19 -22 6 -66 -40 -139 -40 -63
-80 -159 -80 -191 0 -29 29 -27 68 4 39 31 82 51 107 51 28 0 67 -46 85 -100
30 -90 36 -89 152 26 57 56 123 116 147 133 71 50 121 37 121 -32 0 -39 33
-59 121 -73 97 -16 177 -52 280 -126 109 -78 142 -92 224 -92 60 -1 80 -6 136
-35 174 -89 430 -314 772 -679 l77 -82 1151 0 1152 0 -5 83 c-5 92 -25 142
-84 207 -86 95 -279 190 -389 190 -159 1 -245 49 -188 105 13 13 27 16 60 11
53 -7 92 8 150 58 85 74 163 228 163 323 0 97 142 114 221 27 36 -40 40 -67
17 -110 -12 -23 -16 -40 -10 -46 27 -27 387 -16 507 16 78 20 92 31 124 99 66
140 104 346 103 557 0 146 -12 211 -74 418 -12 42 -11 46 20 102 20 36 32 73
32 95 0 67 -105 347 -206 548 -25 50 -44 102 -44 121 0 43 33 73 96 89 l49 12
1 52 c2 65 32 129 113 238 33 44 54 81 48 82 -7 2 -98 19 -204 38 -286 52
-292 57 -275 211 15 132 14 134 -92 134 -89 0 -116 13 -116 57 0 28 -31 53
-67 53 -38 0 -78 31 -102 78 -10 21 -37 102 -60 182 -23 80 -44 151 -47 159
-3 9 -30 -12 -80 -58 -41 -40 -90 -79 -109 -88 l-34 -16 -41 36 c-22 21 -49
37 -59 37 -27 0 -51 -38 -51 -80 0 -40 -21 -77 -37 -67 -22 14 -52 98 -72 198
-31 159 -47 203 -95 259 -35 41 -126 187 -140 225 -5 14 -5 14 -87 -140 -87
-165 -127 -215 -172 -215 -26 0 -46 16 -126 100 -53 54 -108 103 -123 109 -39
15 -59 -13 -66 -94 -2 -36 -9 -68 -13 -71 -5 -3 -33 44 -63 103 -61 122 -123
200 -149 190 -10 -4 -17 -17 -17 -35 0 -42 -17 -54 -51 -37 -26 14 -47 51
-102 178 -9 20 -23 37 -30 37 -7 0 -34 -21 -59 -47z m110 -266 c84 -78 156
-127 187 -127 27 0 79 -55 144 -152 58 -87 159 -200 202 -225 37 -22 37 -33 0
-33 -51 0 -47 -20 15 -77 32 -30 51 -52 41 -49 -10 3 -36 9 -57 12 -41 7 -52
-1 -109 -76 -19 -26 -28 -30 -52 -25 -36 8 -49 -15 -49 -89 0 -52 -2 -56 -24
-56 -13 0 -48 11 -78 25 -68 32 -74 31 -87 -5 -5 -16 -13 -30 -17 -30 -4 0
-44 18 -88 40 -45 22 -108 46 -140 55 -78 20 -238 31 -261 18 -15 -9 -9 -17
46 -63 35 -29 65 -56 67 -61 2 -4 -21 -1 -50 7 -68 18 -83 18 -102 -2 -18 -18
-22 -95 -6 -125 6 -11 25 -25 41 -32 l31 -12 -45 -33 c-73 -52 -75 -100 -7
-147 22 -15 40 -31 40 -34 0 -4 -15 -11 -32 -16 -30 -9 -33 -14 -33 -50 0 -32
-4 -40 -20 -43 -50 -8 -51 -13 -5 -54 25 -22 38 -37 29 -35 -10 3 -44 11 -77
17 -92 18 -92 18 -126 -162 -35 -190 -30 -176 -66 -196 -28 -15 -30 -20 -24
-54 5 -34 3 -39 -21 -48 -32 -12 -26 -24 27 -51 64 -33 37 -42 -104 -37 -94 4
-136 10 -180 27 -73 28 -85 43 -70 83 10 27 8 33 -21 64 -18 19 -61 50 -97 68
-40 22 -59 37 -50 40 8 3 47 14 85 25 76 22 115 44 115 65 0 22 -39 41 -140
70 -103 30 -140 48 -140 71 0 30 48 47 153 55 175 13 226 55 130 108 -24 13
-43 27 -43 32 0 5 19 26 41 48 55 52 51 66 -59 189 -124 139 -135 155 -120
165 7 4 76 5 153 2 203 -10 206 -1 70 216 -89 140 -104 179 -86 214 8 14 11
32 8 40 -3 8 -39 41 -78 73 -161 128 -196 173 -151 187 61 20 319 -89 467
-196 50 -36 91 -65 92 -64 1 1 -6 31 -17 67 -46 151 -29 153 169 24 54 -36
114 -68 131 -72 l33 -6 -6 54 c-3 30 -22 95 -42 144 -49 124 -68 204 -49 212
22 8 108 -16 261 -74 78 -29 148 -53 157 -53 8 0 17 8 21 19 5 15 -20 144 -42
216 -6 20 -6 20 18 0 13 -11 57 -51 97 -88z m-9058 72 c0 -5 -17 -17 -37 -26
-54 -22 -121 -70 -178 -126 -62 -62 -111 -85 -132 -64 -12 12 -12 22 -3 58 20
75 70 127 149 155 44 16 201 19 201 3z m130 -100 c-32 -62 -90 -114 -141 -127
-25 -6 -65 -26 -88 -44 -99 -75 -125 -84 -136 -47 -15 48 27 105 115 157 58
34 251 112 262 106 4 -3 -1 -23 -12 -45z m881 -66 c-5 -10 -58 -72 -116 -138
-59 -66 -123 -139 -142 -162 -43 -52 -57 -55 -48 -10 19 87 116 202 235 279
41 26 76 48 78 48 1 0 -2 -8 -7 -17z m8993 -5 c3 -13 6 -70 6 -128 0 -124 8
-180 26 -187 7 -3 34 10 59 28 25 18 47 30 50 27 3 -3 9 -23 12 -44 9 -57 55
-142 108 -202 70 -78 80 -81 124 -39 44 42 64 49 97 36 41 -15 60 -3 94 57 27
48 34 55 58 52 38 -4 56 -60 48 -152 -13 -147 -47 -211 -105 -200 -26 6 -32 3
-40 -18 -13 -33 -48 -61 -116 -88 -30 -12 -55 -27 -55 -34 0 -6 14 -24 32 -39
l33 -28 -30 5 c-122 23 -155 17 -155 -27 0 -17 -5 -19 -40 -13 -49 8 -60 -8
-60 -93 l0 -60 -42 -12 c-60 -15 -83 -41 -114 -123 -28 -72 -70 -126 -98 -126
-25 0 -19 -16 15 -45 17 -14 29 -28 26 -31 -3 -3 -44 2 -91 12 -96 19 -123 15
-106 -15 5 -11 10 -23 10 -28 0 -4 -42 -8 -92 -8 -83 0 -99 -3 -151 -29 -144
-73 -153 -152 -38 -341 27 -44 59 -111 71 -150 28 -84 72 -135 118 -135 57 0
43 -19 -44 -60 -60 -29 -105 -60 -146 -100 -54 -52 -59 -61 -54 -88 6 -25 4
-30 -16 -36 -13 -3 -40 -6 -60 -6 -47 0 -48 -11 -3 -46 19 -14 35 -30 35 -34
0 -4 -36 -11 -80 -14 -44 -4 -80 -10 -80 -14 0 -4 19 -24 42 -44 l43 -37 -36
-1 c-52 0 -116 -46 -255 -181 -72 -70 -133 -121 -150 -125 -21 -6 -40 -1 -76
19 -68 38 -90 35 -165 -23 -124 -98 -193 -132 -193 -95 0 42 168 322 274 458
57 73 58 87 7 87 -51 0 -75 -11 -214 -104 -131 -87 -264 -159 -277 -151 -18
11 6 51 103 175 38 47 55 76 47 78 -7 3 -44 -1 -82 -8 -37 -7 -71 -11 -74 -7
-3 3 20 36 51 74 57 70 75 107 58 124 -5 5 -33 12 -62 16 -28 3 -54 9 -56 13
-2 4 7 22 20 42 31 45 109 79 195 85 142 9 152 17 105 79 -40 52 -34 60 46 72
60 9 77 16 100 41 15 17 29 32 31 33 2 0 112 4 246 7 282 7 272 3 272 105 0
96 -22 123 -117 146 -47 12 -75 34 -67 54 9 23 -22 36 -112 47 -123 15 -126
17 -74 42 25 12 50 33 57 47 16 33 60 46 183 54 158 11 160 12 108 72 -37 42
-98 73 -143 74 -39 1 -104 31 -132 61 -49 54 -73 174 -40 206 12 12 27 10 108
-16 52 -17 150 -46 218 -66 68 -19 144 -44 169 -55 29 -13 49 -17 55 -11 14
14 0 57 -32 93 -44 51 -54 74 -40 99 14 28 46 21 123 -25 129 -78 330 -130
343 -90 2 7 -15 33 -37 59 -35 40 -40 52 -34 74 13 47 5 84 -31 138 -19 29
-35 60 -35 68 0 29 61 15 179 -40 65 -30 120 -55 124 -55 18 0 2 35 -54 120
-86 129 -93 156 -86 309 9 180 55 360 110 426 33 41 42 43 51 13z m-375 -132
c54 -58 74 -96 65 -121 -8 -20 -44 -19 -73 1 -24 17 -81 127 -81 157 0 33 37
17 89 -37z m-8481 -42 c-36 -77 -46 -167 -28 -244 9 -35 9 -55 2 -62 -13 -13
-40 36 -58 107 -18 66 -17 109 2 148 17 33 92 117 106 117 4 0 -7 -29 -24 -66z
m1428 -58 c7 -29 -13 -99 -27 -91 -10 7 -12 98 -2 108 12 13 23 7 29 -17z
m-1076 -97 c0 -42 -50 -109 -82 -109 -40 0 -35 66 9 106 33 31 73 32 73 3z
m954 -221 c-11 -37 -71 -114 -122 -156 -212 -177 -613 -351 -1467 -637 -366
-123 -585 -210 -585 -234 0 -3 64 -6 142 -6 134 0 258 -17 258 -35 0 -10 -116
-20 -225 -20 -190 0 -479 -39 -619 -82 -160 -50 -370 -182 -550 -343 -65 -59
-113 -99 -108 -89 19 35 286 289 344 327 196 129 490 249 1258 515 206 72 493
171 637 221 567 197 662 244 883 441 86 76 141 120 153 120 5 0 5 -10 1 -22z
m6516 -215 c54 -29 127 -89 118 -98 -13 -14 -218 104 -218 126 0 14 47 1 100
-28z m1912 0 c9 -10 26 -42 38 -71 26 -61 45 -74 91 -65 25 5 35 2 46 -12 21
-29 15 -114 -13 -211 -49 -164 -48 -161 -30 -207 10 -28 61 -93 136 -178 67
-73 145 -170 175 -215 110 -163 250 -504 207 -504 -27 0 -81 85 -123 192 -27
71 -70 137 -92 144 -10 3 -24 0 -32 -6 -26 -22 -17 -60 24 -105 24 -26 42 -58
47 -80 14 -78 -18 -152 -60 -139 -32 10 -132 93 -216 179 -81 83 -145 135
-167 135 -21 0 -14 -41 15 -86 73 -114 113 -184 122 -215 6 -19 7 -69 4 -111
-7 -77 -7 -78 31 -140 36 -57 37 -63 24 -87 -26 -46 -78 -54 -309 -45 -113 5
-275 9 -361 9 l-156 0 -84 -42 c-95 -47 -213 -143 -284 -229 -49 -61 -98 -149
-93 -166 6 -16 109 67 283 226 97 89 167 146 180 146 11 0 92 -7 180 -15 240
-23 509 -30 576 -16 103 22 161 74 264 237 17 26 38 52 48 58 39 23 72 -61 99
-256 15 -102 8 -111 -64 -79 -93 40 -107 45 -114 38 -4 -4 14 -51 39 -105 26
-53 47 -105 47 -115 0 -9 -11 -49 -25 -88 -36 -105 -46 -174 -35 -243 6 -38 6
-65 0 -77 -12 -21 -62 -27 -138 -16 -138 20 -231 114 -396 398 -105 183 -133
201 -326 207 -106 3 -132 1 -173 -15 -67 -27 -156 -94 -238 -180 -193 -204
-243 -392 -127 -475 38 -26 104 -29 328 -14 106 8 130 6 156 -7 35 -18 80 -95
90 -154 5 -34 3 -44 -16 -63 -24 -24 -51 -22 -128 11 -62 27 -79 24 -98 -13
-30 -61 -53 -78 -103 -78 -66 0 -166 26 -217 56 -68 40 -161 140 -196 211 -24
50 -31 78 -32 126 -2 88 -4 90 -99 86 -49 -3 -82 0 -84 6 -2 6 51 75 117 154
65 78 122 152 125 162 4 11 2 26 -5 34 -25 30 -140 55 -322 71 -42 3 -68 10
-68 17 1 20 85 77 147 99 32 11 91 23 132 27 41 3 76 11 78 17 2 5 -21 39 -52
74 -30 35 -55 67 -55 72 0 19 54 26 250 31 228 6 280 15 280 50 0 34 21 58 94
107 67 45 90 80 67 103 -9 9 -61 11 -179 9 -139 -3 -170 -1 -187 12 -20 16
-20 16 9 40 15 13 47 30 69 37 45 15 107 63 107 84 0 36 -75 33 -253 -12
l-149 -38 -19 24 c-23 28 -15 47 42 98 65 59 48 90 -63 118 -171 43 -102 132
122 156 202 21 566 -14 707 -68 10 -4 -36 47 -103 112 -77 76 -129 137 -142
166 -58 122 5 272 128 304 30 8 56 18 58 22 12 36 21 38 137 35 169 -4 189 17
114 115 -23 29 -39 56 -37 59 3 3 34 -2 68 -11 74 -19 95 -10 84 38 -23 108
27 198 78 140z m-3299 -128 c109 -19 173 -40 215 -72 47 -35 43 -64 -18 -125
-50 -51 -53 -56 -51 -94 2 -17 -6 -22 -51 -30 -51 -9 -53 -10 -51 -38 3 -38
-12 -56 -48 -56 -67 0 -106 -37 -94 -89 3 -16 26 -52 51 -81 31 -36 43 -58 39
-71 -5 -14 24 -49 114 -143 75 -78 121 -133 121 -146 0 -33 89 -114 151 -138
52 -19 54 -21 51 -55 -3 -32 0 -36 30 -45 18 -6 44 -13 58 -14 24 -4 23 -5
-12 -23 -46 -23 -47 -34 -7 -64 17 -13 27 -27 22 -31 -4 -4 -51 -13 -104 -18
-128 -14 -205 -49 -332 -153 -54 -45 -101 -79 -103 -76 -11 10 -34 114 -34
150 0 50 21 88 70 127 22 17 40 36 40 41 0 5 -16 9 -36 9 -49 0 -133 -46 -234
-128 -126 -103 -204 -162 -214 -162 -5 0 -6 15 -4 33 3 17 3 38 1 45 -10 26
-65 10 -110 -31 -13 -11 -25 -18 -27 -16 -8 8 31 106 103 256 60 128 121 272
121 288 0 13 -27 -1 -136 -71 -66 -42 -129 -80 -142 -85 -44 -17 -36 19 33
155 75 148 81 182 30 180 -16 -1 -54 -5 -82 -9 -45 -7 -54 -5 -59 9 -11 29 18
67 83 110 71 47 93 77 73 101 -20 24 -106 43 -228 49 -120 6 -150 16 -193 63
-35 36 -112 191 -105 209 4 10 22 14 59 14 56 0 82 -11 247 -103 92 -52 160
-48 146 7 -7 28 -46 52 -133 80 -67 22 -75 42 -25 64 30 13 91 17 342 22 168
4 313 10 323 14 27 13 20 50 -18 96 -19 23 -35 46 -35 51 0 13 66 11 163 -6z
m-4493 -95 c0 -5 -35 -38 -77 -72 -224 -181 -391 -383 -444 -537 -22 -63 -24
-163 -8 -324 14 -145 10 -152 -82 -143 -58 6 -70 5 -75 -9 -17 -42 81 -92 285
-145 127 -33 143 -39 121 -48 -57 -23 -240 -112 -240 -116 0 -2 24 -12 53 -22
135 -44 197 -96 197 -166 0 -55 -29 -98 -95 -142 -62 -41 -77 -67 -61 -108 5
-15 7 -30 3 -34 -13 -14 -134 57 -222 131 -145 120 -195 145 -195 95 0 -26
-10 -50 -21 -50 -18 0 -101 85 -121 124 -14 28 -19 51 -15 80 3 22 1 48 -4 58
-26 48 -151 -8 -297 -135 -215 -184 -355 -285 -557 -398 -182 -101 -482 -240
-610 -282 -170 -56 -719 -108 -928 -88 -88 9 -106 14 -191 59 -141 74 -298
183 -285 197 9 8 75 -9 174 -46 132 -50 229 -69 375 -76 326 -14 697 76 1063
258 215 107 295 163 552 388 174 153 655 636 846 851 90 102 198 218 239 259
186 182 379 330 546 417 73 38 74 38 74 24z m8354 -153 c17 -13 17 -16 2 -44
-9 -18 -43 -48 -81 -72 -79 -50 -88 -66 -52 -97 32 -27 34 -40 8 -54 -55 -29
-156 7 -209 75 -35 44 -38 72 -12 100 28 30 55 41 187 75 128 33 134 34 157
17z m-6125 -235 c70 -101 167 -199 229 -231 70 -35 69 -37 46 209 l-6 65 49
-95 c94 -184 240 -371 278 -356 14 5 16 27 13 185 -3 164 -1 180 16 200 11 11
25 21 32 21 16 0 34 -53 34 -103 0 -109 90 -316 175 -404 53 -55 60 -59 84
-44 12 8 12 16 2 54 -8 28 -11 66 -7 99 8 62 46 241 51 236 2 -2 13 -56 25
-121 26 -147 49 -217 101 -317 40 -77 105 -150 133 -150 23 0 28 29 28 195
l-1 160 35 -130 c19 -71 43 -157 54 -189 24 -71 26 -129 5 -146 -20 -17 -80
-5 -184 37 -151 61 -300 144 -368 205 -42 39 -72 58 -89 58 -22 0 -24 -3 -19
-22 4 -13 26 -47 49 -77 75 -97 75 -98 22 -62 -26 19 -105 81 -175 139 -140
117 -208 155 -258 146 -49 -9 -96 12 -185 82 -45 35 -83 62 -85 60 -2 -2 2
-15 8 -30 7 -14 9 -29 5 -33 -3 -4 -41 8 -84 26 -365 156 -568 226 -727 252
-113 19 -425 16 -545 -4 -191 -32 -338 -96 -493 -213 -174 -132 -207 -190
-207 -369 0 -165 40 -278 138 -385 69 -77 148 -133 292 -206 186 -94 243 -165
364 -451 79 -186 103 -293 65 -293 -13 0 -11 -37 2 -63 7 -12 32 -46 57 -75
48 -57 49 -71 5 -54 -70 28 -116 15 -143 -38 -24 -47 -37 -49 -90 -14 -48 32
-67 27 -108 -31 -34 -49 -52 -57 -52 -25 0 37 -28 33 -108 -14 -87 -51 -192
-83 -235 -72 -15 3 -26 10 -23 14 3 5 43 31 89 59 109 67 117 76 87 108 -24
26 -28 50 -16 108 11 48 3 48 -128 -3 -99 -39 -146 -49 -146 -31 0 4 20 52 45
105 111 238 136 333 110 421 -8 30 -20 57 -25 60 -5 3 -33 -43 -62 -102 -43
-87 -66 -122 -123 -179 -105 -107 -215 -152 -260 -108 -14 14 -15 29 -10 89 4
40 4 82 0 94 -18 57 -114 40 -209 -36 -104 -84 -102 -84 -68 -16 48 93 109
135 287 193 127 42 185 71 229 115 59 59 70 89 70 185 -1 76 -6 99 -52 226
-29 78 -58 170 -66 205 -56 244 -5 443 153 599 116 114 254 186 446 234 172
43 255 51 515 51 281 0 302 -3 570 -91 200 -65 339 -99 352 -86 6 6 -4 54 -26
127 -51 168 -51 169 33 47z m-734 -197 c209 -32 353 -86 930 -353 562 -260
757 -341 888 -373 161 -39 153 -27 62 -88 -92 -62 -135 -99 -135 -118 0 -7 7
-13 15 -13 24 0 17 -18 -23 -58 -60 -60 -162 -122 -200 -122 -93 0 -241 115
-414 322 -137 165 -236 232 -386 263 -101 21 -328 19 -608 -4 -559 -47 -673
-38 -762 63 -79 90 -119 197 -101 275 23 105 122 173 304 206 96 18 310 18
430 0z m-4825 -569 c0 -13 -19 -48 -42 -77 -80 -102 -105 -232 -74 -384 26
-127 78 -213 160 -269 108 -73 215 -82 406 -35 76 18 140 29 162 26 76 -10
135 -83 92 -114 -29 -21 -189 -69 -306 -92 -286 -55 -554 -28 -700 71 -67 46
-90 95 -89 195 0 133 43 237 143 348 52 57 78 104 78 137 0 48 -26 60 -96 47
-27 -5 -55 -7 -63 -4 -48 19 212 175 291 175 33 0 38 -3 38 -24z m600 -180 c0
-9 -4 -16 -9 -16 -14 0 -90 88 -140 161 l-43 64 96 -97 c53 -53 96 -104 96
-112z m-360 24 c27 -27 25 -63 -4 -97 -21 -24 -33 -28 -101 -34 -59 -4 -81
-10 -92 -24 -22 -30 -16 -105 13 -163 33 -66 88 -103 219 -145 l100 -32 -91
-3 c-109 -3 -176 17 -244 75 -56 48 -100 140 -100 209 0 124 108 233 233 234
34 0 52 -5 67 -20z m7933 -78 c26 -29 31 -75 13 -135 -13 -44 -27 -65 -67
-101 -28 -25 -57 -46 -65 -46 -19 0 -28 43 -20 103 16 145 88 236 139 179z
m-7526 -118 c2 -22 -1 -52 -7 -69 -11 -28 -13 -28 -20 -10 -18 42 -7 146 12
127 5 -5 12 -27 15 -48z m6509 3 c113 -45 185 -57 340 -57 124 0 178 -10 188
-36 6 -16 -8 -18 -34 -4 -26 14 -34 -3 -20 -44 23 -72 37 -70 139 18 30 25 57
44 59 41 3 -2 -14 -41 -38 -85 -23 -45 -39 -84 -36 -87 3 -3 29 13 58 35 56
44 67 41 49 -10 -6 -17 -11 -41 -11 -53 0 -21 4 -22 45 -17 32 3 58 -1 85 -13
51 -23 99 -15 148 23 72 56 101 61 123 21 14 -27 3 -39 -33 -39 -38 0 -78 -34
-78 -67 0 -21 3 -22 44 -17 43 6 45 5 70 -34 31 -49 42 -57 81 -57 23 0 31 -5
33 -22 5 -36 40 -28 107 22 33 25 61 45 62 45 2 0 -12 -23 -32 -51 -42 -61
-47 -104 -12 -96 12 2 31 8 41 12 18 8 18 5 12 -41 -4 -27 -9 -65 -9 -84 -2
-33 0 -35 28 -33 148 10 141 11 185 -32 63 -61 210 -308 210 -353 0 -29 -193
33 -397 128 -145 67 -182 73 -210 34 -19 -26 -20 -26 -51 -10 -17 9 -54 42
-83 75 -72 82 -91 89 -142 54 -76 -54 -110 -71 -151 -77 -56 -9 -141 17 -162
50 -17 26 -17 31 2 252 5 52 4 72 -5 72 -6 0 -41 -22 -77 -50 -123 -94 -160
-79 -190 76 -23 122 -24 124 -33 124 -5 0 -14 -15 -21 -34 -49 -149 -499 -350
-600 -268 -22 18 -22 19 -6 44 10 15 73 69 141 122 67 53 145 117 172 143 44
44 46 48 26 51 -13 2 -68 -17 -123 -42 -130 -59 -210 -74 -293 -57 -65 13 -97
27 -97 40 0 9 3 10 203 105 86 42 137 71 137 81 0 23 -38 19 -191 -20 -76 -19
-152 -35 -169 -35 -27 0 -30 3 -30 32 0 45 68 108 142 131 80 26 101 43 94 78
-9 48 22 61 129 56 73 -3 107 -11 181 -40z m3589 -338 c100 -47 206 -210 175
-268 -12 -23 -54 -37 -135 -45 -96 -10 -132 -24 -184 -70 -74 -66 -197 -107
-324 -108 -74 -1 -96 11 -117 63 -17 41 0 76 47 96 23 9 91 19 168 24 159 10
252 35 289 80 14 17 26 36 26 42 -1 32 -34 65 -96 97 -81 42 -89 65 -34 92 48
25 129 23 185 -3z m-5774 -54 c42 -37 92 -72 118 -81 62 -23 83 -44 125 -123
71 -135 102 -126 125 34 13 91 35 157 58 176 64 54 54 -227 -13 -351 -50 -91
-235 -254 -396 -347 -175 -101 -170 -178 14 -237 112 -35 246 -54 468 -66 338
-18 481 -30 501 -40 26 -15 25 -60 -5 -148 -14 -40 -28 -76 -31 -82 -4 -6 -42
18 -88 54 -115 89 -177 118 -177 82 0 -21 -40 -46 -73 -46 -20 0 -39 -10 -61
-33 -40 -43 -46 -45 -179 -57 -104 -9 -309 -1 -323 13 -3 3 2 17 11 31 17 26
17 27 -17 59 -59 55 -408 225 -408 199 0 -13 46 -52 155 -134 95 -71 136 -108
120 -108 -4 0 -50 9 -103 19 -54 11 -189 31 -301 46 -113 14 -206 27 -208 29
-2 1 34 36 79 76 291 255 423 429 493 650 31 95 37 205 21 363 -11 110 -4 111
95 22z m4544 -75 c14 -13 35 -50 46 -82 30 -81 40 -87 91 -52 70 47 73 48 51
18 -35 -48 -114 -118 -174 -152 -75 -43 -193 -91 -242 -99 -40 -6 -40 -6 -34
23 3 16 15 61 26 99 11 39 20 92 20 118 2 103 56 162 144 154 32 -3 56 -12 72
-27z m-4757 -16 c50 -35 14 -135 -76 -216 -60 -54 -96 -52 -151 7 -54 59 -66
86 -52 113 13 24 84 76 134 97 43 19 117 19 145 -1z m-1547 -309 c-4 -61 -5
-121 -1 -135 10 -39 52 -36 203 14 218 72 246 66 151 -34 -109 -114 -273 -172
-589 -205 -95 -11 -361 -21 -730 -30 -319 -7 -596 -18 -615 -23 -66 -17 -111
-45 -146 -90 -43 -57 -50 -82 -30 -120 19 -37 82 -91 116 -98 77 -17 120 -58
120 -116 0 -24 -4 -28 -30 -28 -32 0 -81 22 -195 89 -38 23 -80 41 -92 41 -14
0 -34 -15 -53 -38 -39 -50 -90 -77 -165 -91 -98 -18 -185 8 -185 55 0 39 49
123 155 269 151 207 239 342 295 452 28 56 58 107 66 114 12 10 34 3 122 -39
330 -159 566 -222 823 -222 203 0 367 32 516 100 90 42 152 95 223 188 25 33
46 60 47 58 1 -1 -2 -51 -6 -111z m7564 64 c12 -18 -4 -57 -25 -64 -26 -8 -60
3 -60 20 0 16 47 55 66 55 7 0 16 -5 19 -11z m-995 -149 c17 -17 20 -33 20
-97 0 -43 -3 -95 -7 -116 l-6 -39 -59 59 c-33 32 -91 93 -130 136 l-70 77 116
0 c103 0 118 -2 136 -20z m-1123 -276 c310 -63 613 -151 613 -179 0 -15 -51
-55 -69 -55 -6 0 -11 -5 -11 -11 0 -7 52 -8 168 -3 157 6 171 5 215 -14 43
-19 93 -75 82 -92 -3 -4 -33 -10 -67 -13 -74 -7 -108 -35 -108 -91 0 -45 -37
-97 -85 -121 -35 -17 -60 -20 -185 -20 -109 0 -159 4 -201 17 -96 30 -176 100
-150 132 13 15 34 12 103 -18 41 -17 98 -21 98 -7 0 15 -122 92 -320 201 -331
183 -476 292 -417 313 28 10 172 -7 334 -39z m1303 -19 c20 -37 93 -75 220
-113 52 -16 113 -37 135 -46 39 -17 39 -18 20 -32 -22 -17 -96 -13 -185 8
-123 29 -280 132 -280 183 0 30 9 36 44 33 21 -2 34 -12 46 -33z m-3804 -180
c117 -35 184 -107 184 -200 0 -88 -55 -74 -170 43 -91 93 -124 147 -99 163 19
12 28 11 85 -6z m3690 -62 c102 -50 150 -136 84 -150 -34 -6 -56 -39 -74 -111
-6 -24 -16 -43 -21 -44 -22 -1 -104 284 -91 317 8 22 40 18 102 -12z m-7693
-63 c48 -6 105 -17 127 -26 37 -15 80 -55 80 -75 0 -5 -44 -7 -97 -6 -90 2
-98 1 -108 -19 -23 -46 -36 -54 -89 -54 -80 0 -226 79 -226 121 0 24 84 53
180 62 19 2 37 4 40 5 3 1 44 -3 93 -8z m8054 -33 c31 -29 90 -143 79 -154 -8
-8 -121 108 -140 145 -30 59 2 64 61 9z m-3690 -76 c24 -35 21 -61 -6 -61 -36
0 -84 81 -66 110 10 15 44 -8 72 -49z m4390 0 c24 -35 21 -61 -6 -61 -36 0
-84 81 -66 110 10 15 44 -8 72 -49z m-283 -47 c1 -26 -4 -49 -10 -51 -16 -5
-44 69 -44 114 l0 38 27 -27 c21 -22 27 -37 27 -74z m455 40 c37 -47 19 -90
-27 -65 -24 13 -32 39 -21 69 11 29 23 28 48 -4z m-9621 -36 c7 -7 12 -27 12
-45 0 -26 -4 -33 -19 -33 -22 0 -62 57 -54 77 6 16 45 17 61 1z m8203 -12 c12
-26 6 -80 -11 -106 -9 -13 -13 -12 -30 9 -25 29 -34 63 -26 96 9 34 52 35 67
1z"/>
<path d="M11571 3949 c-57 -11 -113 -48 -142 -96 -45 -73 -24 -209 29 -177 9
5 32 40 50 77 38 80 78 111 131 103 19 -3 46 -17 60 -31 23 -22 24 -26 10 -40
-8 -9 -40 -18 -70 -21 -81 -8 -82 -9 -65 -41 8 -16 30 -43 50 -62 52 -50 87
-47 142 11 54 57 61 86 39 144 -41 108 -121 153 -234 133z"/>
<path d="M2459 1694 c-92 -49 -205 -142 -331 -272 -110 -114 -178 -204 -178
-234 0 -50 61 -2 331 258 167 161 213 208 258 267 21 27 -5 21 -80 -19z"/>
</g>
</svg>
