<?xml version="1.0" standalone="no"?>
<!DOCTYPE svg PUBLIC "-//W3C//DTD SVG 20010904//EN"
 "http://www.w3.org/TR/2001/REC-SVG-20010904/DTD/svg10.dtd">
<svg version="1.0" xmlns="http://www.w3.org/2000/svg"
 width="1280.000000pt" height="1280.000000pt" viewBox="0 0 1280.000000 1280.000000"
 preserveAspectRatio="xMidYMid meet">
<metadata>
Created by potrace 1.15, written by Peter Selinger 2001-2017
</metadata>
<g transform="translate(0.000000,1280.000000) scale(0.100000,-0.100000)"
fill="#000000" stroke="none">
<path d="M1872 10927 l-1872 -1872 0 -2655 1 -2655 1406 -1420 c773 -781 1607
-1624 1854 -1872 l448 -453 2673 0 2673 0 1873 1873 1872 1872 0 2661 0 2660
-1887 1867 -1887 1867 -2641 0 -2640 0 -1873 -1873z m7735 646 c412 -417 1187
-1201 1723 -1743 l975 -986 -6 -1679 c-4 -944 -11 -1695 -16 -1715 -8 -32 -10
-26 -26 70 -41 256 -81 607 -96 860 -15 232 -29 886 -37 1703 l-7 699 -476
472 c-262 259 -863 854 -1336 1321 -473 467 -1017 1006 -1210 1197 l-350 348
-2345 -1 -2345 0 -1020 -1016 c-1301 -1296 -1497 -1483 -1560 -1483 -42 0 -56
-12 -87 -74 -47 -94 -129 -187 -430 -492 l-278 -281 0 -2374 0 -2374 1672
-1672 1673 -1673 2375 0 2374 0 1176 1173 c1137 1135 1378 1370 1441 1402 28
15 30 15 39 -10 6 -15 10 -44 10 -65 0 -46 -2 -48 -400 -465 -335 -352 -539
-561 -1450 -1494 l-705 -721 -2485 0 -2485 0 -1722 1722 -1723 1723 0 2455 0
2455 1737 1737 1738 1738 2456 0 2456 0 750 -757z m711 -1256 l1623 -1623 -8
-734 -8 -734 -47 79 c-118 203 -361 395 -691 547 -81 38 -187 80 -235 93 -48
14 -109 34 -137 44 -144 53 -593 124 -955 151 -74 5 -358 15 -630 22 -533 12
-1412 1 -2175 -27 -450 -17 -864 -19 -1030 -4 -154 13 -282 39 -420 85 -137
46 -386 147 -428 173 -18 11 -140 82 -272 157 -305 175 -532 312 -631 383
l-79 56 -7 86 c-13 173 -64 289 -157 354 -56 39 -123 39 -241 0 -48 -15 -117
-30 -160 -32 -65 -5 -87 -1 -167 26 -129 43 -241 101 -309 161 -67 59 -192
122 -276 141 -110 24 -268 -17 -491 -126 -73 -35 -158 -71 -190 -79 -33 -8
-67 -22 -78 -32 -22 -20 -102 -22 -170 -4 -54 14 -220 91 -217 100 2 4 530
537 1173 1183 l1170 1176 2310 1 2310 0 1623 -1623z m-7293 -877 c103 -17 268
-105 367 -197 26 -23 51 -43 57 -43 5 0 69 22 143 49 154 57 236 76 289 67 60
-10 146 -45 180 -74 31 -26 31 -26 27 -104 -4 -70 -10 -90 -56 -181 -68 -138
-107 -191 -135 -184 -19 4 -124 46 -136 54 -10 7 48 58 117 105 75 51 112 96
112 136 0 35 -29 91 -57 109 -59 39 -172 0 -272 -93 -66 -61 -71 -75 -96 -250
-26 -187 -94 -382 -196 -564 -61 -108 -181 -260 -205 -260 -14 0 -20 26 -28
123 -10 122 -76 196 -181 205 -78 6 -104 -3 -121 -43 -22 -53 -17 -122 12
-185 18 -39 52 -80 115 -141 l89 -87 -127 -4 c-181 -6 -205 -21 -244 -153 -12
-38 -24 -74 -28 -78 -8 -8 -192 27 -326 62 -48 12 -70 22 -69 32 1 8 33 59 73
112 87 117 121 186 121 247 0 56 -23 147 -51 201 -25 50 -96 129 -116 129 -8
0 -40 -22 -71 -50 -33 -29 -108 -77 -184 -116 -120 -62 -188 -115 -188 -147 0
-23 42 -81 123 -170 96 -104 112 -129 98 -156 -18 -32 -101 -81 -140 -81 -35
0 -171 39 -171 49 0 4 39 21 86 40 85 33 86 34 80 64 -17 86 -66 117 -181 117
-78 0 -97 14 -142 103 -84 168 -111 283 -92 395 13 74 36 137 128 348 64 149
84 220 71 263 -4 14 -25 62 -47 106 -55 109 -66 146 -54 178 6 14 19 31 31 37
26 14 48 2 120 -63 65 -59 160 -107 212 -107 48 0 106 22 318 124 l175 84 255
1 c140 0 282 -4 315 -9z m-1522 -319 c37 -66 67 -127 67 -136 0 -10 -15 -37
-34 -60 -107 -130 -172 -319 -216 -625 -11 -79 -27 -154 -35 -167 -10 -15 -29
-25 -55 -29 -22 -4 -40 -10 -40 -15 0 -5 33 -24 73 -42 l72 -33 -140 -33
c-150 -36 -212 -57 -201 -69 4 -4 70 -9 146 -12 77 -3 142 -9 146 -13 24 -23
-138 -128 -285 -184 l-86 -32 58 -1 c32 0 93 9 135 19 91 23 285 54 308 49 11
-2 -11 -36 -83 -123 -189 -231 -195 -251 -142 -448 13 -49 15 -47 122 101 98
136 186 223 276 276 l63 37 57 -48 c240 -202 440 -398 486 -477 18 -31 35 -94
59 -217 82 -420 127 -527 588 -1389 298 -557 388 -732 466 -910 86 -195 102
-254 112 -413 20 -295 68 -635 134 -959 72 -347 103 -636 91 -848 -13 -234
-28 -280 -141 -453 -71 -108 -108 -155 -155 -194 l-29 -25 -393 389 c-215 214
-769 760 -1229 1214 l-837 824 0 2325 1 2325 166 157 c242 228 386 358 397
358 6 -1 40 -54 78 -119z m2596 -423 c111 -62 215 -157 254 -233 101 -200 143
-563 97 -840 -48 -293 -158 -717 -296 -1135 -417 -1269 -428 -1298 -586 -1595
-106 -199 -168 -274 -203 -245 -47 39 10 250 195 715 48 121 104 270 125 330
21 61 92 236 157 390 268 626 359 891 377 1100 13 149 14 734 1 835 -21 164
-71 263 -228 454 -45 54 -82 103 -82 108 0 12 83 168 89 168 3 0 48 -24 100
-52z m-336 -138 c-2 -102 -77 -417 -139 -582 -46 -122 -130 -190 -251 -204
-54 -7 -57 -6 -44 10 21 25 7 32 -98 55 -52 12 -99 25 -105 31 -16 16 10 36
152 110 164 85 231 132 255 183 17 34 47 148 92 351 21 96 40 118 98 114 l42
-3 -2 -65z m193 -389 c-14 -226 -44 -394 -98 -541 -50 -138 -71 -155 -120
-102 -62 66 -60 82 28 301 30 75 59 158 64 184 9 44 38 123 89 240 34 78 45
53 37 -82z m920 27 c89 -106 141 -370 123 -621 -8 -118 -20 -150 -135 -377
-101 -199 -108 -230 -101 -460 6 -195 15 -249 70 -450 68 -246 117 -506 117
-618 0 -187 -166 -820 -274 -1042 -34 -71 -122 -170 -150 -170 -16 0 -18 6
-11 58 9 77 64 287 135 519 84 273 100 359 100 541 0 163 -20 307 -65 467 -87
312 -106 420 -120 680 l-7 120 80 175 c162 359 187 440 179 590 -3 52 -17 149
-32 215 -33 146 -37 259 -11 330 10 28 23 56 28 63 18 21 45 13 74 -20z m3033
-221 c72 -55 146 -152 197 -256 37 -76 50 -115 179 -535 77 -248 151 -438 220
-561 20 -36 40 -65 46 -65 6 0 17 17 27 38 13 30 16 74 17 242 0 178 -3 219
-23 310 -33 151 -80 311 -122 417 -63 158 -228 396 -311 448 -33 22 -38 29
-29 41 18 20 90 18 162 -7 159 -53 256 -167 329 -381 42 -125 53 -285 90
-1268 20 -550 31 -716 47 -732 14 -14 65 100 59 135 -3 22 0 31 14 34 11 3 19
16 21 37 4 40 26 41 50 1 32 -55 50 -152 46 -244 -4 -98 -28 -160 -142 -363
-127 -226 -356 -602 -362 -595 -7 6 23 148 52 247 36 124 53 256 63 479 11
245 -1 518 -29 661 -57 287 -183 689 -321 1026 -33 82 -83 205 -110 274 -79
200 -111 272 -223 503 l-106 219 49 -29 c27 -15 76 -49 110 -76z m1144 83
c185 -44 289 -94 387 -187 153 -145 199 -295 221 -735 27 -535 -32 -1271 -136
-1673 -52 -201 -235 -705 -257 -705 -5 0 -7 12 -4 27 36 183 58 376 122 1068
60 648 58 1179 -6 1429 -56 219 -235 544 -389 705 -94 99 -88 107 62 71z
m-2978 -41 c81 -15 110 -32 140 -82 90 -154 152 -515 229 -1337 57 -597 57
-610 1 -610 -20 0 -29 8 -39 33 -19 45 -115 453 -181 764 -30 143 -74 326 -96
405 -22 78 -56 201 -75 272 -19 71 -70 215 -114 321 -44 106 -80 202 -80 213
0 11 8 23 18 25 34 9 139 7 197 -4z m1228 -21 c29 -15 40 -31 78 -108 189
-390 310 -839 358 -1335 12 -123 34 -576 28 -582 -7 -6 -84 170 -100 227 -18
65 -32 149 -47 285 -28 244 -74 386 -268 821 -71 159 -153 343 -182 409 -29
66 -56 124 -60 128 -4 4 -16 -43 -26 -105 -39 -234 -14 -676 58 -1023 26 -125
37 -516 19 -688 -12 -115 -43 -264 -62 -299 -15 -29 -22 -15 -54 104 -64 244
-95 526 -120 1103 -8 198 -22 500 -31 672 -9 172 -14 318 -12 325 3 8 67 25
164 44 177 35 225 39 257 22z m2501 -73 c184 -87 415 -313 460 -449 9 -27 27
-72 40 -100 92 -202 142 -733 106 -1131 -16 -175 -22 -187 -44 -84 -123 574
-292 1052 -565 1596 -55 112 -101 205 -101 208 0 9 9 6 104 -40z m720 -127
c111 -80 258 -213 313 -281 164 -203 227 -361 337 -849 135 -597 211 -1006
204 -1098 -3 -39 -11 -21 -103 211 -55 140 -118 310 -141 379 -63 188 -180
472 -519 1260 -86 201 -163 380 -170 398 -19 45 -5 42 79 -20z m793 -234 c279
-164 464 -340 578 -547 34 -62 38 -75 42 -170 9 -183 -28 -292 -142 -414 -68
-74 -167 -149 -183 -139 -8 5 -21 86 -38 251 -11 109 -94 336 -200 547 -87
172 -142 251 -334 477 -120 140 -160 191 -160 202 0 12 330 -144 437 -207z
m-7967 66 c53 -27 215 -163 380 -320 184 -174 217 -234 86 -154 -147 88 -498
369 -544 436 -12 17 -12 22 4 39 21 24 26 24 74 -1z m1919 -205 c64 -322 81
-711 81 -1895 0 -880 -10 -1340 -33 -1503 l-12 -89 -66 99 -66 98 8 1400 c7
1270 18 1874 36 2024 l6 55 13 -45 c8 -24 23 -89 33 -144z m-2802 150 c59 -27
199 -160 253 -239 58 -86 55 -200 -7 -262 -44 -44 -132 -87 -170 -82 -27 3
-27 4 18 30 67 40 116 98 135 163 20 71 12 118 -27 158 -37 37 -54 34 -204
-33 -60 -27 -123 -52 -140 -55 -69 -13 -216 60 -316 158 -66 64 -71 83 -36
134 25 38 26 38 139 7 l68 -19 92 32 c112 39 128 40 195 8z m515 -155 c70
-145 153 -352 173 -430 9 -36 41 -122 71 -191 56 -130 69 -203 44 -250 -22
-41 -60 -18 -60 36 0 13 -18 44 -40 70 -29 34 -40 55 -40 79 0 68 -70 237
-235 566 -52 105 -95 193 -96 197 0 5 28 18 63 30 45 16 64 19 66 10 2 -7 27
-59 54 -117z m280 -55 c66 -54 153 -155 182 -212 21 -41 21 -164 1 -269 -14
-73 -64 -219 -72 -210 -2 2 -14 43 -28 92 -32 122 -56 190 -142 404 -41 102
-85 213 -99 248 l-23 63 59 -32 c32 -17 87 -55 122 -84z m2670 -436 c12 -87
-3 -382 -32 -639 -25 -212 -106 -778 -124 -864 -7 -36 -10 -68 -6 -71 4 -2 43
18 86 46 121 76 151 77 197 7 49 -76 78 -202 109 -481 12 -108 25 -194 29
-190 4 5 19 50 33 101 24 82 138 426 164 492 9 25 10 25 26 -15 78 -184 60
-299 -90 -570 -36 -66 -85 -144 -109 -173 -24 -29 -71 -106 -104 -171 -33 -65
-69 -128 -79 -141 -19 -23 -20 -23 -30 -4 -6 11 -20 80 -31 154 -26 170 -34
198 -82 291 -55 105 -125 181 -221 236 -43 25 -93 62 -110 81 l-31 36 6 135
c9 220 62 512 198 1101 44 190 98 426 120 525 22 99 42 186 45 194 10 29 25
-6 36 -80z m-3123 -85 c-7 -59 -20 -109 -38 -149 -31 -67 -132 -191 -173 -215
-25 -14 -29 -13 -52 9 -15 14 -26 33 -26 44 0 10 34 55 75 100 41 44 86 104
99 132 26 54 114 180 122 173 2 -3 -1 -45 -7 -94z m147 -261 c10 -39 -10 -143
-38 -200 -21 -44 -230 -273 -249 -273 -4 0 -10 29 -14 64 -9 83 4 111 111 230
45 52 99 119 119 150 39 62 61 70 71 29z m9079 -149 c18 -183 -17 -293 -155
-499 -37 -55 -106 -172 -154 -260 -49 -88 -95 -167 -103 -175 -14 -13 -15 -9
-10 40 7 80 93 292 302 755 42 94 81 180 86 193 16 41 27 23 34 -54z m-8517
-181 c4 -27 -21 -76 -116 -228 -276 -442 -374 -557 -412 -486 -14 28 -1 56 61
126 77 88 181 231 315 435 117 178 145 206 152 153z m4795 -220 c8 -10 21 -49
28 -87 21 -123 -11 -325 -92 -574 -101 -312 -196 -531 -249 -576 -17 -14 -35
-26 -39 -26 -21 0 -93 64 -108 95 -16 33 -16 37 5 87 64 159 214 561 279 753
86 251 126 345 146 345 8 0 21 -8 30 -17z m567 -78 c-11 -10 -19 -11 -30 -4
-13 8 -12 11 4 24 26 19 47 2 26 -20z m1285 -267 c-60 -298 -93 -438 -160
-673 -130 -457 -300 -941 -403 -1146 -42 -84 -52 -96 -92 -116 -50 -26 -139
-31 -180 -10 -40 20 -35 53 25 162 31 55 73 136 94 180 47 96 156 417 245 720
173 585 346 1005 475 1148 l36 40 3 -36 c2 -20 -18 -141 -43 -269z m1939 50
c43 -188 52 -260 37 -331 -14 -69 -39 -123 -70 -151 -26 -24 -40 -14 -75 57
-14 29 -63 94 -110 146 l-84 94 98 121 c120 149 145 176 163 176 10 0 22 -35
41 -112z m-4548 -248 c31 -105 37 -140 37 -220 0 -87 -3 -106 -45 -227 -51
-147 -86 -218 -108 -218 -13 0 -15 36 -13 255 1 140 5 370 9 510 l7 255 38
-115 c20 -63 54 -171 75 -240z m4167 -312 c41 -62 116 -189 167 -283 110 -205
193 -330 295 -450 87 -102 115 -142 115 -167 0 -43 -61 -9 -278 155 -212 161
-367 336 -418 472 -28 75 -26 209 5 300 24 72 30 85 36 85 1 0 37 -51 78 -112z
m445 -80 c36 -35 98 -146 117 -213 14 -48 17 -86 13 -202 -3 -79 -8 -146 -12
-150 -13 -14 -76 62 -124 150 -70 128 -144 318 -145 375 -2 44 0 48 31 64 40
19 82 11 120 -24z m-1046 12 c215 -10 314 -22 331 -39 13 -13 -42 -26 -250
-61 -98 -16 -227 -45 -288 -64 -140 -44 -292 -86 -309 -86 -59 0 36 214 108
246 38 16 124 17 408 4z m-4171 -112 c18 -67 15 -188 -6 -228 -26 -52 -108
-152 -170 -209 -57 -52 -199 -151 -217 -151 -13 0 88 191 205 386 106 177 152
244 167 244 5 0 14 -19 21 -42z m1171 -420 c29 -33 83 -96 120 -138 146 -168
380 -361 1077 -884 296 -223 274 -190 209 -306 -82 -145 -218 -308 -378 -455
-157 -144 -263 -222 -442 -325 -240 -139 -277 -171 -285 -244 -9 -74 13 -106
123 -179 224 -149 286 -169 450 -148 290 38 476 134 742 386 125 119 170 173
397 485 461 634 566 770 592 770 13 0 74 -13 136 -30 62 -16 168 -41 236 -55
69 -14 127 -27 129 -30 11 -11 -151 -177 -1310 -1340 l-1220 -1225 -2312 0
-2312 0 -280 287 c-185 190 -271 284 -254 280 14 -4 59 -10 101 -13 143 -12
249 43 449 232 319 302 327 321 350 819 18 391 47 723 91 1035 21 149 54 311
71 342 8 17 10 17 35 1 131 -86 303 -452 368 -783 14 -74 42 -212 60 -306 19
-94 43 -238 55 -320 24 -180 53 -546 42 -555 -4 -3 -43 -33 -87 -66 -162 -122
-227 -215 -247 -352 -15 -108 -3 -171 37 -190 40 -19 153 -30 325 -30 364 -2
507 51 620 229 79 124 96 247 130 915 29 573 79 1021 178 1610 l37 219 40 9
c22 5 108 24 190 43 83 20 315 69 516 109 427 86 584 123 729 170 58 18 141
38 185 44 45 6 110 20 145 30 99 29 102 28 162 -41z m3426 35 c13 -87 -244
-344 -644 -645 -174 -131 -245 -173 -334 -197 -151 -41 -171 -18 -90 102 66
98 174 213 274 292 96 74 354 244 543 356 207 124 245 137 251 92z m545 -512
c53 -54 97 -105 97 -113 0 -8 -31 -36 -70 -62 -38 -27 -70 -55 -70 -63 0 -8
16 -35 34 -59 40 -52 39 -63 -15 -141 l-32 -45 -26 33 c-14 19 -71 88 -125
153 l-99 120 -29 -35 c-16 -19 -36 -46 -44 -62 -19 -35 -10 -54 97 -206 l80
-115 -38 -33 c-110 -96 -265 -178 -322 -171 -20 2 -27 9 -29 32 -6 47 5 70 69
155 38 51 59 87 55 96 -8 23 -33 7 -143 -92 l-93 -84 -100 88 c-55 48 -100 92
-100 98 0 5 51 37 113 69 273 143 350 200 542 399 72 74 135 135 141 136 5 0
54 -43 107 -98z m-8416 21 c95 -79 308 -307 356 -380 76 -117 127 -266 127
-374 0 -60 -11 -78 -36 -57 -9 7 -71 123 -139 258 -142 284 -173 334 -279 455
-76 88 -115 146 -97 146 6 0 36 -22 68 -48z m6437 -95 c11 -169 20 -187 146
-328 61 -67 113 -133 117 -147 8 -34 -9 -102 -68 -272 -117 -333 -226 -517
-424 -715 -121 -121 -188 -164 -295 -191 -47 -11 -87 -20 -89 -18 -9 7 21 32
165 134 201 145 262 202 308 289 20 38 36 77 36 88 0 10 -16 52 -36 93 -49
102 -86 199 -79 211 4 5 23 9 44 9 99 0 256 55 271 94 10 28 -3 108 -22 138
-9 14 -49 44 -88 67 -40 24 -101 71 -136 105 l-64 61 98 261 c58 157 99 255
103 245 3 -9 9 -65 13 -124z m-4755 -668 c107 -105 202 -231 247 -324 36 -75
67 -225 62 -296 l-3 -40 -62 41 c-34 23 -82 63 -106 89 -37 40 -45 55 -50 102
-14 121 -98 318 -187 439 -46 64 -70 102 -70 115 0 19 93 -51 169 -126z m3790
-874 c53 -61 66 -168 27 -228 -44 -66 -283 -104 -391 -62 -38 15 -75 58 -75
86 0 57 88 132 228 195 125 57 167 58 211 9z m-5263 -646 c23 -31 51 -72 60
-92 17 -35 16 -38 -1 -77 -25 -56 -134 -156 -186 -171 -71 -22 -213 19 -278
80 -67 62 -33 144 131 320 l113 121 59 -62 c32 -35 78 -88 102 -119z m1282
-219 c18 -11 57 -44 87 -73 60 -58 66 -80 41 -142 -9 -21 -24 -37 -38 -40 -13
-3 -92 -4 -176 -3 l-153 3 56 65 c31 36 70 92 87 125 32 63 46 85 57 85 3 0
21 -9 39 -20z"/>
<path d="M2160 9054 c-96 -17 -226 -58 -267 -84 -18 -11 -52 -44 -75 -74 -45
-59 -111 -176 -103 -184 3 -3 125 55 273 130 147 74 294 146 327 159 78 30 88
38 74 55 -15 18 -126 17 -229 -2z"/>
<path d="M2586 9027 c-19 -14 -13 -18 95 -70 65 -32 143 -80 183 -112 79 -64
124 -89 192 -106 27 -7 73 -23 103 -36 65 -29 86 -25 76 15 -20 82 -120 185
-230 238 -133 64 -375 105 -419 71z"/>
</g>
</svg>
