<?xml version="1.0" standalone="no"?>
<!DOCTYPE svg PUBLIC "-//W3C//DTD SVG 20010904//EN"
 "http://www.w3.org/TR/2001/REC-SVG-20010904/DTD/svg10.dtd">
<svg version="1.0" xmlns="http://www.w3.org/2000/svg"
 width="1280.000000pt" height="956.000000pt" viewBox="0 0 1280.000000 956.000000"
 preserveAspectRatio="xMidYMid meet">
<metadata>
Created by potrace 1.15, written by Peter Selinger 2001-2017
</metadata>
<g transform="translate(0.000000,956.000000) scale(0.100000,-0.100000)"
fill="#000000" stroke="none">
<path d="M1639 9533 c108 -140 195 -304 225 -423 53 -205 17 -422 -103 -633
-102 -177 -192 -278 -806 -897 -570 -575 -681 -694 -757 -810 -252 -384 -262
-866 -26 -1248 67 -109 245 -292 346 -357 484 -310 1241 -354 2352 -135 212
42 704 159 697 166 -2 2 -55 -5 -118 -16 -421 -71 -887 -105 -1234 -89 -384
17 -661 82 -837 198 -308 202 -342 531 -102 1001 162 318 658 1005 1003 1390
150 167 203 238 256 345 63 129 79 197 79 340 1 208 -67 382 -232 603 -210
281 -447 473 -700 569 l-64 24 21 -28z"/>
<path d="M11094 9527 c-219 -89 -415 -240 -595 -458 -236 -285 -334 -517 -316
-752 9 -111 30 -185 82 -292 54 -109 92 -161 260 -350 355 -401 840 -1073 997
-1380 311 -610 164 -997 -435 -1140 -412 -99 -1061 -89 -1736 25 -63 11 -116
18 -118 16 -7 -7 485 -124 697 -166 893 -176 1542 -182 2034 -19 96 32 295
134 366 188 97 73 223 209 290 313 244 376 237 870 -18 1258 -76 117 -188 236
-742 795 -578 583 -674 687 -777 840 -135 201 -195 433 -163 625 29 175 92
305 238 499 13 17 22 31 20 31 -2 0 -39 -15 -84 -33z"/>
<path d="M6145 7578 c-241 -123 -561 -227 -853 -278 -57 -10 -105 -20 -108
-22 -2 -2 3 -36 11 -74 20 -92 19 -320 -1 -448 -98 -626 -500 -1332 -864
-1516 l-56 -28 -66 -139 c-137 -282 -198 -473 -198 -615 0 -84 11 -118 52
-154 42 -39 61 -38 83 2 24 44 109 123 170 157 72 41 169 76 268 99 122 29
424 31 563 5 171 -32 354 -108 413 -171 24 -26 25 -29 14 -92 -17 -97 -56
-166 -139 -243 -140 -130 -329 -197 -589 -208 -176 -7 -392 26 -539 83 -15 6
-17 3 -13 -12 63 -230 152 -375 559 -920 570 -761 746 -1032 831 -1279 57
-164 69 -243 66 -428 l-3 -162 -37 -80 c-58 -126 -82 -239 -76 -360 7 -147 57
-273 166 -419 71 -95 143 -156 236 -201 113 -55 188 -69 365 -69 173 -1 254
16 379 77 91 44 209 164 279 282 140 238 144 456 15 719 -18 38 -29 72 -24 75
5 4 5 30 -1 66 -12 74 -4 236 16 333 66 309 216 558 836 1387 392 523 506 699
570 874 46 125 48 123 -66 90 -156 -45 -226 -54 -414 -53 -145 0 -190 4 -263
22 -175 44 -333 130 -411 225 -52 63 -88 149 -94 222 l-5 64 62 40 c159 102
393 161 641 161 330 0 615 -107 721 -269 18 -28 35 -51 38 -51 3 0 21 9 39 20
104 64 92 267 -35 575 -48 118 -167 355 -177 355 -23 0 -166 101 -235 165
-443 419 -781 1348 -667 1837 l13 58 -36 6 c-339 57 -600 136 -857 259 l-132
63 -6 -282 c-3 -154 -11 -695 -16 -1201 -11 -994 -24 -2128 -40 -3380 -5 -434
-10 -895 -10 -1022 l0 -233 -119 0 -119 0 -6 438 c-4 240 -11 824 -16 1297 -6
473 -15 1222 -20 1665 -5 443 -14 1230 -20 1750 -6 520 -12 950 -13 957 -1 7
-25 -1 -62 -19z m365 -6435 c191 -52 309 -189 318 -372 15 -276 -152 -451
-428 -451 -138 0 -256 45 -331 128 -109 117 -137 328 -65 476 53 109 179 200
317 230 69 15 102 13 189 -11z"/>
<path d="M4840 7164 c-443 -368 -901 -656 -1295 -812 -229 -91 -592 -191 -862
-238 -199 -35 -453 -44 -574 -20 -220 44 -347 155 -405 354 l-21 74 -30 -39
c-17 -21 -55 -76 -86 -123 -228 -353 -245 -605 -54 -807 73 -78 213 -137 441
-187 209 -46 273 -51 626 -51 336 0 410 5 730 46 356 46 1028 172 1074 202
115 76 407 764 536 1263 67 260 84 419 44 431 -5 1 -61 -41 -124 -93z"/>
<path d="M7820 7245 c-38 -46 59 -479 194 -858 141 -395 325 -773 402 -824 46
-30 718 -156 1074 -202 320 -41 394 -46 730 -46 353 0 417 5 626 51 228 50
368 109 441 187 191 202 174 454 -54 807 -31 47 -69 102 -86 123 l-30 39 -21
-74 c-44 -151 -119 -242 -251 -304 -112 -53 -209 -67 -409 -61 -257 7 -606 76
-956 189 -494 159 -988 449 -1520 892 -63 52 -118 96 -121 96 -4 0 -12 -7 -19
-15z"/>
</g>
</svg>
