<?xml version="1.0" standalone="no"?>
<!DOCTYPE svg PUBLIC "-//W3C//DTD SVG 20010904//EN"
 "http://www.w3.org/TR/2001/REC-SVG-20010904/DTD/svg10.dtd">
<svg version="1.0" xmlns="http://www.w3.org/2000/svg"
 width="1157.000000pt" height="1280.000000pt" viewBox="0 0 1157.000000 1280.000000"
 preserveAspectRatio="xMidYMid meet">
<metadata>
Created by potrace 1.15, written by Peter Selinger 2001-2017
</metadata>
<g transform="translate(0.000000,1280.000000) scale(0.100000,-0.100000)"
fill="#000000" stroke="none">
<path d="M3712 12746 c-33 -72 -207 -240 -452 -436 -435 -348 -623 -513 -835
-731 -425 -437 -685 -890 -779 -1359 -85 -419 -36 -970 125 -1424 54 -152 177
-400 266 -536 224 -341 543 -643 918 -867 190 -114 453 -237 619 -288 47 -15
86 -32 86 -38 0 -8 -64 -131 -76 -145 -9 -12 -421 121 -618 200 -482 191 -835
407 -1056 645 l-84 92 -61 -53 c-396 -345 -960 -672 -1490 -864 -77 -28 -168
-59 -202 -69 -35 -10 -63 -20 -63 -23 1 -3 126 -67 278 -142 545 -268 1057
-571 1438 -848 53 -38 99 -70 103 -70 3 0 20 19 36 41 42 58 191 197 298 281
174 134 440 303 712 453 175 96 683 348 693 343 4 -2 -103 -205 -239 -453
-137 -247 -247 -450 -246 -451 1 -1 52 -7 112 -14 546 -58 1003 -231 1248
-474 261 -258 389 -650 428 -1309 16 -281 7 -1135 -15 -1317 -42 -348 -99
-556 -199 -725 -70 -119 -161 -204 -392 -366 -242 -169 -308 -231 -356 -333
-53 -113 -55 -306 -4 -408 56 -112 135 -170 473 -346 267 -139 335 -185 515
-349 232 -211 340 -278 517 -322 183 -45 474 -53 666 -17 229 42 337 103 594
334 188 170 252 213 520 353 340 177 419 235 475 347 51 102 49 295 -4 408
-48 102 -114 164 -356 333 -231 162 -322 247 -392 366 -100 169 -157 377 -199
725 -22 182 -31 1036 -15 1317 39 659 167 1051 428 1309 245 243 702 416 1248
474 61 7 111 13 112 14 1 1 -109 204 -246 451 -136 248 -243 451 -239 453 10
5 518 -247 693 -343 272 -150 538 -319 712 -453 107 -84 256 -223 298 -281 17
-22 33 -41 36 -41 4 0 50 32 103 70 381 277 893 580 1438 848 152 75 277 139
278 142 0 3 -28 13 -63 23 -34 10 -125 41 -202 69 -530 192 -1094 519 -1490
864 l-61 53 -84 -92 c-221 -238 -574 -454 -1056 -645 -197 -79 -609 -212 -618
-200 -12 14 -76 137 -76 145 0 6 39 23 86 38 48 14 134 47 192 71 887 379
1474 1031 1688 1874 71 281 104 637 84 903 -43 572 -307 1100 -808 1619 -200
207 -402 384 -807 708 -345 277 -426 354 -485 462 l-28 50 -11 -64 c-27 -156
-9 -346 55 -565 46 -161 65 -211 257 -689 247 -614 329 -881 378 -1234 20
-142 17 -516 -5 -659 -60 -393 -180 -656 -400 -877 -200 -201 -426 -312 -710
-348 -132 -17 -211 -47 -320 -124 -83 -59 -114 -67 -179 -48 -61 18 -95 41
-227 155 -117 100 -177 131 -257 131 -79 -1 -113 -18 -283 -146 -179 -135
-232 -159 -350 -159 -122 0 -175 26 -380 186 -106 82 -131 96 -211 108 -104
17 -155 -6 -309 -139 -107 -92 -158 -125 -219 -140 -58 -14 -87 -4 -181 60
-111 75 -175 99 -309 116 -479 59 -859 380 -1023 864 -110 325 -136 742 -72
1130 53 316 137 574 394 1210 145 358 219 570 256 730 32 134 41 335 22 435
l-14 70 -22 -49z m-272 -607 c0 -15 -5 -18 -24 -13 -15 3 -34 -1 -50 -11 -41
-27 -30 -10 16 24 43 32 58 32 58 0z m4765 -14 l30 -27 -32 21 c-34 23 -53 27
-53 11 0 -5 -4 -10 -10 -10 -11 0 -14 33 -4 43 8 8 30 -4 69 -38z m80 -65 c10
-11 16 -20 13 -20 -3 0 -13 9 -23 20 -10 11 -16 20 -13 20 3 0 13 -9 23 -20z
m263 -230 c282 -261 600 -640 739 -880 42 -72 13 -34 -71 93 -182 276 -494
625 -818 913 -49 42 -88 79 -88 82 0 7 99 -78 238 -208z m-5486 24 c-261 -250
-504 -520 -641 -714 -133 -187 -300 -494 -372 -685 -18 -47 -34 -83 -36 -81
-7 7 52 156 112 284 154 321 353 603 664 941 86 94 409 401 421 401 3 0 -64
-66 -148 -146z m327 97 c-6 -18 -13 -30 -15 -28 -2 2 1 18 7 36 6 18 13 30 15
28 2 -2 -1 -18 -7 -36z m4825 -55 c20 -49 34 -91 32 -93 -4 -4 -76 171 -76
184 0 14 9 -6 44 -91z m-4863 -37 c-11 -24 -20 -41 -20 -37 -1 12 31 89 35 85
3 -2 -4 -24 -15 -48z m6024 -1059 c14 -27 23 -50 20 -50 -2 0 -16 23 -30 50
-14 28 -23 50 -20 50 2 0 16 -22 30 -50z m104 -215 c0 -5 -13 15 -29 45 -16
30 -29 60 -29 65 0 6 13 -15 29 -45 16 -30 29 -59 29 -65z m72 -187 c53 -158
87 -321 93 -444 2 -55 3 -83 0 -64 -20 175 -29 231 -56 339 -16 68 -45 165
-63 215 -46 127 -48 135 -30 103 9 -15 34 -82 56 -149z m-7604 -310 c-3 -8 -6
-5 -6 6 -1 11 2 17 5 13 3 -3 4 -12 1 -19z m-10 -75 c-3 -10 -5 -2 -5 17 0 19
2 27 5 18 2 -10 2 -26 0 -35z m-10 -115 c-2 -18 -4 -6 -4 27 0 33 2 48 4 33 2
-15 2 -42 0 -60z m-10 -100 c-3 -8 -6 -5 -6 6 -1 11 2 17 5 13 3 -3 4 -12 1
-19z m7588 -884 c-59 -164 -230 -497 -266 -520 -5 -3 12 30 38 73 67 114 166
317 214 443 24 60 44 108 46 106 2 -2 -12 -48 -32 -102z m-7204 -453 c238
-366 562 -670 956 -894 88 -50 357 -186 411 -207 18 -7 31 -14 29 -17 -6 -5
-144 55 -263 115 -127 64 -250 136 -379 222 -329 220 -667 579 -824 875 -37
70 -32 62 70 -94z m6883 -148 c-148 -198 -403 -446 -604 -588 -77 -54 -53 -31
70 66 130 103 381 348 480 469 76 92 105 121 54 53z m-3961 -137 c40 -15 140
-80 160 -105 7 -9 -11 1 -39 22 -76 55 -156 89 -191 81 -15 -3 -65 -26 -110
-50 -46 -23 -83 -41 -83 -40 0 6 125 85 150 95 34 13 68 13 113 -3z m1262 -10
c28 -13 64 -36 80 -50 28 -25 27 -25 -22 4 -28 17 -71 37 -96 46 -41 14 -48
14 -93 -4 -27 -10 -75 -35 -106 -55 -32 -20 -58 -35 -58 -33 0 11 106 80 148
97 63 24 88 23 147 -5z m930 -36 c-3 -5 -16 -10 -29 -10 -12 0 -62 -20 -111
-45 -50 -24 -79 -36 -65 -25 35 27 125 71 163 80 46 11 49 11 42 0z m-3142
-31 c62 -31 107 -59 95 -59 -3 0 -26 12 -51 26 -25 14 -70 34 -99 44 -34 13
-45 19 -29 20 13 0 51 -14 84 -31z m4217 -433 c0 -11 -177 -116 -313 -186
-147 -76 -375 -176 -383 -167 -2 2 40 21 94 42 123 49 413 196 517 263 83 53
85 55 85 48z m-6671 -129 c-2 -1 -15 -11 -29 -22 l-25 -20 19 23 c11 12 24 22
29 22 6 0 8 -1 6 -3z m7955 -5 c2 -4 -4 -8 -14 -8 -10 0 -16 4 -14 8 3 4 9 8
14 8 5 0 11 -4 14 -8z m-2004 -232 c-8 -5 -19 -10 -25 -10 -5 0 -3 5 5 10 8 5
20 10 25 10 6 0 3 -5 -5 -10z m-4885 -420 c3 -5 -14 -18 -37 -30 -24 -11 -34
-15 -24 -8 11 7 26 21 35 30 20 20 19 20 26 8z m5823 1 c-2 -5 6 -17 17 -26
18 -15 17 -15 -13 0 -18 9 -30 20 -27 25 8 13 26 13 23 1z m-8058 -62 l25 -20
-32 16 c-18 8 -33 18 -33 20 0 10 16 4 40 -16z m10300 13 c0 -5 -12 -14 -27
-21 l-28 -12 25 21 c29 22 30 23 30 12z m-2990 -497 c0 -5 -5 -3 -10 5 -5 8
-10 20 -10 25 0 6 5 3 10 -5 5 -8 10 -19 10 -25z m67 -161 c-2 -2 -19 -6 -38
-9 -31 -5 -32 -5 -9 5 13 6 26 12 28 14 1 2 -6 28 -18 57 -28 76 -24 75 11 0
16 -35 28 -65 26 -67z m-4446 79 c-12 -20 -14 -14 -5 12 4 9 9 14 11 11 3 -2
0 -13 -6 -23z m-14 -44 c-2 -17 7 -25 41 -36 24 -8 41 -17 39 -19 -4 -4 -97
15 -105 21 -3 3 20 55 24 55 2 0 3 -10 1 -21z m-1715 -102 c-12 -13 -22 -29
-22 -36 0 -7 -4 -9 -10 -6 -5 3 -10 1 -10 -4 0 -6 -4 -11 -10 -11 -5 0 -10 9
-10 20 0 12 5 17 13 14 7 -2 24 7 37 21 13 14 26 25 28 25 3 0 -4 -10 -16 -23z
m7928 -44 c0 -7 -4 -13 -10 -13 -5 0 -10 5 -10 11 0 5 -4 7 -10 4 -5 -3 -10
-1 -10 6 0 7 -8 21 -17 32 -15 17 -12 16 19 -4 21 -13 38 -30 38 -36z m-2555
-4488 c33 -23 79 -61 102 -83 41 -40 94 -128 92 -154 0 -7 -11 10 -23 38 -32
71 -80 120 -191 199 -52 37 -95 69 -95 72 0 6 35 -15 115 -72z m-2800 47 c-6
-5 -41 -31 -80 -59 -78 -57 -119 -98 -159 -158 -14 -22 -26 -35 -26 -29 0 22
63 105 108 142 47 38 152 112 161 112 3 0 1 -4 -4 -8z m-278 -384 c-3 -8 -6
-5 -6 6 -1 11 2 17 5 13 3 -3 4 -12 1 -19z m3236 -129 c-29 -50 -127 -123
-253 -188 -65 -34 -121 -61 -126 -61 -5 0 41 27 101 61 135 75 226 139 262
184 35 43 40 44 16 4z m-3038 -119 c44 -26 126 -71 183 -99 111 -56 136 -75
45 -35 -184 81 -344 184 -381 244 -10 16 1 9 28 -18 25 -24 81 -65 125 -92z
m2140 -428 c-78 -67 -225 -172 -240 -172 -4 0 27 25 69 55 43 30 98 71 123 90
25 19 48 35 51 35 3 0 2 -4 -3 -8z m-1344 -39 c13 -16 12 -17 -3 -4 -17 13
-22 21 -14 21 2 0 10 -8 17 -17z m211 -134 c67 -34 215 -78 267 -80 26 -1 30
-3 12 -6 -36 -7 -135 15 -223 48 -76 30 -210 110 -237 142 -7 9 18 -4 55 -29
38 -25 94 -59 126 -75z m878 -4 c0 -20 -227 -86 -285 -83 l-30 1 30 4 c63 9
192 42 235 62 54 23 50 22 50 16z m-377 -92 c-34 -2 -93 -2 -130 0 -37 2 -9 3
62 3 72 0 102 -1 68 -3z"/>
<path d="M3857 5312 l-247 -247 248 -248 247 -247 248 248 247 247 -248 248
-247 247 -248 -248z m128 -122 l-129 -130 39 -41 c22 -22 79 -76 126 -120 l86
-79 64 57 64 57 -65 -67 -65 -67 -132 132 -133 133 128 128 c71 70 133 127
138 127 5 0 -50 -58 -121 -130z m365 -143 c0 -2 -17 -19 -37 -38 l-38 -34 34
38 c33 34 41 42 41 34z"/>
<path d="M7217 5312 l-247 -247 248 -248 247 -247 248 248 247 247 -248 248
-247 247 -248 -248z m378 -113 l20 -23 -30 21 c-16 12 -52 45 -80 74 l-50 53
60 -51 c33 -28 69 -61 80 -74z m135 -132 c0 -2 -10 -12 -21 -23 -22 -19 -22
-19 -8 4 12 19 29 30 29 19z"/>
<path d="M3650 4559 c0 -4 12 -38 26 -75 105 -278 224 -818 268 -1209 48 -432
44 -1036 -9 -1454 -8 -63 -14 -116 -12 -117 6 -7 168 66 235 105 276 161 472
395 562 672 62 189 96 578 87 984 -8 340 -39 547 -106 721 -32 82 -94 172
-132 191 -29 15 -919 191 -919 182z m332 -294 c-2 -14 -6 -25 -8 -25 -2 0 -4
11 -4 25 0 14 4 25 9 25 4 0 6 -11 3 -25z m465 -75 c7 0 18 -10 24 -22 11 -20
10 -21 -3 -11 -8 7 -30 20 -49 28 -24 11 -27 15 -9 11 14 -3 30 -6 37 -6z
m138 -370 c4 -62 4 -61 -10 20 -16 96 -17 119 -4 75 5 -16 11 -59 14 -95z m12
-152 c-2 -18 -4 -6 -4 27 0 33 2 48 4 33 2 -15 2 -42 0 -60z m10 -135 c-2 -21
-4 -6 -4 32 0 39 2 55 4 38 2 -18 2 -50 0 -70z m-1 -649 c-8 -89 -47 -250 -71
-291 -9 -15 -13 -19 -9 -8 41 121 74 271 74 343 0 17 3 32 6 32 4 0 4 -34 0
-76z m-131 -411 c-34 -54 -94 -128 -131 -163 -22 -21 -12 -5 24 38 34 40 74
91 88 112 30 45 46 56 19 13z m-261 -219 c9 -13 22 -22 29 -19 7 4 -1 -5 -18
-19 -16 -14 -33 -26 -37 -26 -5 0 -7 53 -7 118 2 114 2 115 9 44 5 -40 15 -84
24 -98z"/>
<path d="M7464 4476 c-272 -55 -461 -98 -476 -108 -101 -67 -187 -332 -218
-668 -24 -271 -6 -802 35 -1045 30 -173 92 -327 188 -469 89 -131 253 -279
417 -377 68 -40 230 -113 236 -106 2 2 -2 53 -10 113 -29 215 -40 445 -40 799
0 364 6 476 45 775 48 373 157 846 256 1109 13 35 22 64 21 65 -2 1 -206 -39
-454 -88z m136 -211 c0 -14 -2 -25 -4 -25 -2 0 -6 11 -8 25 -3 14 -1 25 3 25
5 0 9 -11 9 -25z m-33 9 c-3 -3 -12 -4 -19 -1 -8 3 -5 6 6 6 11 1 17 -2 13 -5z
m-499 -179 c-12 -24 -23 -43 -26 -41 -4 5 36 86 43 86 3 0 -5 -20 -17 -45z
m-61 -177 c-3 -8 -6 -5 -6 6 -1 11 2 17 5 13 3 -3 4 -12 1 -19z m-10 -50 c-3
-8 -6 -5 -6 6 -1 11 2 17 5 13 3 -3 4 -12 1 -19z m-10 -80 c-2 -13 -4 -3 -4
22 0 25 2 35 4 23 2 -13 2 -33 0 -45z m-10 -120 c-2 -18 -4 -6 -4 27 0 33 2
48 4 33 2 -15 2 -42 0 -60z m-10 -295 c-1 -49 -3 -9 -3 87 0 96 2 136 3 88 2
-49 2 -127 0 -175z m0 -440 c-2 -16 -4 -5 -4 22 0 28 2 40 4 28 2 -13 2 -35 0
-50z m151 -479 c22 -32 68 -90 102 -129 60 -66 61 -67 11 -20 -51 48 -125 144
-151 195 -19 37 -5 21 38 -46z m267 -262 c-12 -12 -13 9 -7 123 l7 120 3 -119
c1 -65 0 -121 -3 -124z"/>
</g>
</svg>
