<?xml version="1.0" standalone="no"?>
<!DOCTYPE svg PUBLIC "-//W3C//DTD SVG 20010904//EN"
 "http://www.w3.org/TR/2001/REC-SVG-20010904/DTD/svg10.dtd">
<svg version="1.0" xmlns="http://www.w3.org/2000/svg"
 width="1280.000000pt" height="951.000000pt" viewBox="0 0 1280.000000 951.000000"
 preserveAspectRatio="xMidYMid meet">
<metadata>
Created by potrace 1.15, written by Peter Selinger 2001-2017
</metadata>
<g transform="translate(0.000000,951.000000) scale(0.100000,-0.100000)"
fill="#000000" stroke="none">
<path d="M5505 9500 c-4 -6 14 -33 38 -60 141 -157 238 -391 263 -638 11 -102
-40 -382 -69 -382 -3 0 -34 16 -69 36 -103 59 -293 152 -376 185 -73 29 -82
31 -172 24 -170 -11 -441 -51 -604 -89 -105 -25 -108 -24 -91 25 20 56 19 59
-10 24 -21 -25 -27 -28 -35 -15 -8 12 -10 10 -10 -10 0 -15 5 -31 11 -37 7 -7
-6 -24 -43 -58 -73 -65 -141 -111 -304 -201 -76 -42 -177 -100 -223 -128 -84
-51 -84 -51 -170 -51 -102 0 -143 18 -319 138 -61 41 -135 86 -165 101 -69 32
-82 62 -73 174 4 42 3 83 -2 91 -6 8 -12 -16 -16 -71 -11 -120 -17 -124 -61
-35 -21 42 -43 82 -51 88 -8 6 4 -27 26 -74 22 -47 40 -92 40 -100 0 -26 -49
-56 -113 -68 -53 -11 -68 -20 -134 -80 -96 -87 -176 -125 -393 -187 -219 -63
-271 -82 -340 -128 -65 -44 -68 -44 -305 -9 -443 65 -716 147 -987 294 -173
94 -266 187 -334 335 -48 106 -77 263 -55 304 5 9 14 49 20 87 15 98 43 181
112 324 33 68 57 126 54 129 -11 11 -153 -86 -222 -152 -118 -111 -195 -233
-256 -401 -48 -136 -61 -225 -62 -425 0 -177 1 -188 28 -263 91 -259 277 -396
812 -600 138 -52 272 -105 299 -116 l48 -21 -65 -69 c-90 -96 -138 -194 -139
-285 0 -71 8 -88 53 -112 38 -19 139 -18 191 3 73 28 178 104 267 191 46 45
85 81 87 79 3 -2 -12 -48 -32 -103 -155 -427 -179 -865 -63 -1165 32 -82 110
-209 150 -245 13 -12 36 -24 51 -28 31 -7 83 -48 101 -80 7 -13 14 -85 18
-186 14 -388 152 -862 374 -1286 282 -539 677 -988 1158 -1315 l118 -81 35
-76 c91 -199 192 -553 283 -987 68 -328 72 -353 72 -465 0 -207 -54 -361 -177
-506 l-44 -52 14 -39 c19 -55 52 -117 94 -181 l37 -55 70 6 c89 8 120 19 235
87 106 62 216 160 254 225 21 35 24 48 16 70 -5 14 -19 63 -31 108 -66 256
-82 527 -54 937 9 140 20 328 24 418 4 89 12 167 18 173 6 6 24 7 54 0 24 -6
120 -20 213 -31 92 -12 186 -27 209 -34 39 -11 41 -14 53 -66 49 -212 61 -490
30 -735 -61 -502 -119 -745 -231 -982 -50 -106 -54 -135 -30 -248 21 -100 76
-204 148 -282 l61 -65 50 6 c83 9 152 51 252 150 50 50 101 107 113 126 28 47
27 101 -5 212 -26 91 -26 94 -21 342 5 250 15 345 58 561 51 256 154 575 282
875 l45 105 54 6 c29 4 103 12 163 19 401 43 860 206 1314 464 226 129 452
277 769 505 35 25 66 46 69 46 2 0 29 -58 59 -130 122 -289 263 -566 413 -809
l85 -140 -43 -125 c-188 -555 -445 -1052 -728 -1408 -68 -86 -73 -96 -73 -140
0 -53 25 -104 61 -124 47 -25 329 5 471 49 53 17 113 34 132 38 33 6 36 4 36
-18 0 -48 31 -117 68 -149 l36 -32 110 6 c224 13 406 87 562 229 40 37 55 59
60 86 13 79 65 272 99 372 59 169 139 356 277 645 234 489 233 486 233 590 0
74 -6 107 -32 185 -38 114 -52 190 -46 248 10 86 298 638 599 1147 106 180
341 652 461 925 155 354 246 664 275 931 l12 116 261 6 c346 7 532 37 733 118
239 95 434 269 512 455 56 135 73 243 67 429 -3 93 -13 192 -22 235 -38 169
-118 377 -195 501 l-30 49 25 38 c13 20 29 60 35 89 20 91 -14 184 -130 358
-88 131 -110 178 -116 246 -7 69 10 155 46 237 11 25 19 47 17 49 -6 6 -129
-77 -185 -125 -71 -61 -173 -185 -206 -250 -35 -69 -66 -191 -66 -258 0 -146
110 -325 251 -407 50 -29 131 -57 167 -57 20 0 31 -16 71 -102 116 -248 165
-498 141 -719 -10 -86 -18 -115 -46 -169 -193 -367 -731 -531 -1196 -364 -91
33 -155 65 -236 118 -60 39 -66 47 -127 163 -116 223 -269 432 -408 559 -124
112 -301 215 -432 250 -145 39 -423 18 -607 -45 -55 -19 -57 -19 -129 0 -45
12 -106 19 -158 19 -168 0 -285 -43 -575 -210 -115 -66 -213 -120 -218 -120
-4 0 -72 27 -150 59 -523 217 -1078 514 -1811 969 -169 105 -216 139 -211 151
42 99 52 355 20 495 -52 225 -167 424 -356 616 -102 102 -192 175 -253 203
-44 20 -53 21 -62 7z"/>
<path d="M11532 8258 c6 -178 23 -191 23 -17 0 111 -3 139 -14 139 -11 0 -13
-23 -9 -122z"/>
<path d="M12720 8362 c0 -5 7 -23 16 -41 9 -18 20 -67 26 -109 5 -42 12 -95
17 -117 7 -36 8 -31 15 50 7 80 5 96 -14 145 -12 30 -26 61 -32 67 -12 15 -28
17 -28 5z"/>
<path d="M11623 8213 c4 -74 11 -113 30 -159 23 -54 65 -134 71 -134 1 0 -11
39 -27 88 -15 48 -36 135 -45 195 -9 59 -21 107 -26 107 -5 0 -6 -43 -3 -97z"/>
<path d="M12611 8229 c26 -39 31 -77 31 -214 0 -101 2 -123 10 -100 5 17 11
85 11 152 2 108 0 124 -19 149 -27 37 -55 48 -33 13z"/>
</g>
</svg>
