<?xml version="1.0" standalone="no"?>
<!DOCTYPE svg PUBLIC "-//W3C//DTD SVG 20010904//EN"
 "http://www.w3.org/TR/2001/REC-SVG-20010904/DTD/svg10.dtd">
<svg version="1.0" xmlns="http://www.w3.org/2000/svg"
 width="1280.000000pt" height="862.000000pt" viewBox="0 0 1280.000000 862.000000"
 preserveAspectRatio="xMidYMid meet">
<metadata>
Created by potrace 1.15, written by Peter Selinger 2001-2017
</metadata>
<g transform="translate(0.000000,862.000000) scale(0.100000,-0.100000)"
fill="#000000" stroke="none">
<path d="M4410 8610 c-666 -60 -1307 -338 -2270 -983 -205 -138 -503 -327
-514 -327 -6 0 -27 13 -46 28 -93 75 -268 157 -416 194 -117 29 -325 32 -424
5 -75 -21 -78 -23 -86 -63 -5 -27 -3 -30 33 -43 111 -39 306 -118 363 -148 74
-39 170 -109 170 -123 0 -6 -14 -10 -30 -10 -17 0 -66 -7 -108 -15 -229 -47
-400 -138 -541 -292 l-71 -77 -36 19 c-52 28 -111 97 -125 147 -22 81 5 274
56 399 4 12 -1 18 -18 23 -14 3 -32 8 -40 11 -20 8 -117 -83 -172 -160 -208
-291 -173 -619 97 -911 l41 -45 -2 -167 c-2 -183 9 -270 54 -412 52 -162 135
-292 230 -357 l56 -38 -8 -100 c-4 -55 -7 -150 -7 -212 4 -311 126 -569 391
-828 l84 -83 2 -74 c2 -61 8 -86 36 -143 43 -86 102 -151 150 -165 59 -17 296
-23 442 -12 213 17 338 48 452 110 l49 26 18 -24 c11 -14 41 -68 69 -120 123
-236 190 -527 207 -904 7 -157 7 -157 35 -177 l28 -19 15 21 c71 102 246 235
246 187 0 -8 13 -24 30 -36 l29 -22 65 83 c35 45 82 99 104 121 l40 38 29 -26
c15 -14 31 -26 35 -26 6 0 129 150 185 225 14 20 15 20 26 1 114 -184 221
-312 338 -402 51 -39 57 -48 74 -111 64 -242 170 -492 268 -638 53 -78 131
-154 207 -201 33 -20 60 -39 60 -41 0 -2 18 -65 39 -141 46 -158 84 -337 101
-469 26 -203 -32 -302 -323 -556 -253 -221 -377 -365 -377 -439 l0 -38 253 -2
252 -3 -3 -32 -4 -33 500 0 500 0 6 48 c3 26 8 88 11 137 8 105 29 214 50 254
17 33 45 41 146 41 56 0 69 3 73 18 3 9 12 177 21 372 20 459 33 659 51 795
13 96 18 113 43 140 62 65 96 181 111 375 5 74 10 138 10 142 0 4 21 19 48 32
80 40 170 113 219 177 44 57 48 59 56 37 4 -12 6 -32 3 -43 -3 -12 4 -31 18
-48 l22 -28 59 52 c77 67 142 145 185 222 l36 62 104 2 c410 8 859 64 1178
145 45 12 84 19 87 17 2 -3 7 -57 11 -122 4 -65 10 -120 15 -122 13 -9 237 25
345 50 195 48 383 124 572 235 l53 31 35 -78 c91 -199 147 -376 179 -568 19
-116 19 -365 1 -470 -49 -271 -165 -511 -380 -785 -149 -190 -228 -254 -523
-426 -81 -48 -184 -112 -228 -143 -194 -136 -365 -344 -365 -446 l0 -35 520 0
c496 0 520 1 520 18 0 35 68 228 100 282 40 68 64 95 100 110 23 10 39 7 106
-19 44 -17 93 -33 110 -37 30 -6 31 -4 44 43 22 79 98 262 147 353 152 283
372 527 627 700 89 59 119 94 141 161 25 75 15 209 -25 330 -37 115 -45 172
-45 349 0 204 14 292 76 485 l19 61 85 -28 c46 -15 112 -33 147 -40 52 -10 79
-24 158 -82 110 -81 268 -231 350 -332 230 -286 366 -622 401 -997 22 -224
-17 -509 -87 -647 -59 -116 -93 -154 -224 -251 -82 -61 -186 -153 -303 -270
-168 -166 -178 -179 -175 -210 l3 -34 506 -3 507 -2 10 47 c6 27 13 100 16
163 6 118 26 217 52 258 22 34 57 44 179 51 l110 6 5 571 c4 510 7 574 21 590
73 83 110 299 94 551 -6 94 -10 115 -24 119 -91 28 -223 116 -301 201 -121
131 -198 287 -249 496 -51 211 -56 269 -55 577 1 339 9 413 59 545 111 296
157 648 130 993 l-7 91 55 -15 c107 -28 148 -52 227 -133 128 -132 193 -263
209 -423 20 -199 -17 -392 -159 -823 -100 -305 -142 -452 -155 -538 -12 -89
-7 -219 13 -292 85 -317 313 -573 547 -616 140 -26 314 13 438 97 125 86 211
216 253 384 15 60 30 259 21 282 -3 10 -16 13 -40 10 -33 -4 -36 -7 -42 -46
-11 -73 -36 -137 -69 -173 -27 -32 -134 -93 -161 -93 -6 0 -9 41 -7 108 3 108
3 108 -23 120 -38 17 -39 17 -74 -37 -56 -87 -133 -134 -248 -150 -29 -4 -53
-4 -53 1 0 4 4 8 8 8 19 0 60 96 63 145 5 94 6 92 -58 99 -84 10 -144 32 -181
67 -54 50 -66 89 -66 219 -1 138 12 184 89 315 229 391 295 731 214 1109 -74
353 -316 758 -611 1027 -265 242 -579 456 -893 609 -429 209 -813 308 -1339
345 -105 8 -29 -13 -1448 395 l-377 109 -123 98 c-826 664 -1539 1013 -2288
1119 -125 17 -526 26 -660 14z"/>
</g>
</svg>
