<?xml version="1.0" standalone="no"?>
<!DOCTYPE svg PUBLIC "-//W3C//DTD SVG 20010904//EN"
 "http://www.w3.org/TR/2001/REC-SVG-20010904/DTD/svg10.dtd">
<svg version="1.0" xmlns="http://www.w3.org/2000/svg"
 width="1280.000000pt" height="956.000000pt" viewBox="0 0 1280.000000 956.000000"
 preserveAspectRatio="xMidYMid meet">
<metadata>
Created by potrace 1.15, written by Peter Selinger 2001-2017
</metadata>
<g transform="translate(0.000000,956.000000) scale(0.100000,-0.100000)"
fill="#000000" stroke="none">
<path d="M8450 9545 c-563 -67 -1075 -353 -1920 -1074 -185 -158 -252 -209
-315 -240 -224 -111 -958 -304 -1422 -375 -145 -22 -364 -42 -748 -66 -139 -9
-538 -25 -1200 -50 -823 -31 -1148 -64 -1470 -150 -796 -212 -1188 -665 -1320
-1528 -41 -271 -49 -403 -49 -827 0 -347 17 -832 30 -844 9 -9 15 9 39 120 14
63 30 127 37 142 17 44 35 16 53 -87 14 -84 20 -186 45 -761 42 -967 57 -1242
76 -1394 7 -62 15 -116 17 -118 3 -2 10 18 16 44 32 130 54 203 61 203 9 0 24
-97 45 -285 19 -169 35 -267 45 -278 8 -9 23 101 40 293 6 63 12 116 14 118
12 11 71 -425 69 -508 -2 -73 -37 -300 -84 -536 -30 -153 -34 -208 -40 -494
l-2 -105 209 -66 c115 -37 295 -95 399 -128 l190 -61 230 102 c127 56 231 102
233 103 1 1 -38 87 -86 191 -73 156 -86 192 -75 202 10 10 97 3 430 -33 230
-25 439 -48 466 -51 26 -3 47 -2 47 3 0 4 -13 60 -29 125 -38 153 -84 240
-169 320 -61 57 -68 67 -84 131 -32 125 -117 240 -231 312 l-45 29 -29 140
c-15 78 -28 147 -28 155 0 8 19 19 44 27 88 26 115 77 156 298 33 178 47 176
43 -6 -3 -112 -1 -128 21 -177 l25 -54 18 124 c17 118 34 166 65 176 7 3 15
-25 22 -69 7 -40 17 -95 24 -122 l12 -50 70 3 c39 1 167 8 285 16 459 31 545
36 840 50 351 17 1015 19 1300 5 246 -12 538 -36 750 -60 130 -15 168 -17 177
-7 6 7 41 80 76 162 35 83 75 171 88 195 l24 45 3 -44 c2 -25 -8 -97 -22 -160
-33 -153 -35 -174 -15 -179 13 -2 24 15 44 70 55 145 121 255 141 235 4 -4 -3
-52 -15 -107 -11 -55 -21 -123 -21 -151 0 -44 3 -51 26 -59 14 -6 46 -10 72
-10 109 0 338 -54 510 -121 59 -23 211 -90 337 -149 398 -185 534 -232 755
-257 74 -8 137 -17 140 -20 2 -2 6 -146 8 -319 5 -354 4 -365 -63 -573 -24
-75 -51 -166 -60 -203 -14 -60 -75 -507 -75 -549 0 -11 11 -19 33 -22 17 -4
217 -40 444 -82 l412 -76 185 123 c102 68 186 126 186 129 0 3 -49 88 -110
189 -60 100 -110 186 -110 192 0 5 -76 137 -170 293 l-170 283 5 108 c3 60 10
222 16 359 9 227 25 375 46 408 17 27 20 -74 7 -193 -22 -189 -28 -288 -15
-270 6 8 15 37 21 65 17 74 39 121 63 133 12 6 81 15 152 22 72 6 134 15 139
20 8 8 15 35 51 202 9 43 21 76 25 73 26 -16 87 -534 75 -640 -6 -58 -66 -348
-84 -410 -10 -34 -37 -313 -30 -318 2 -1 47 -31 100 -65 l97 -63 428 -64 c236
-35 431 -61 434 -58 3 2 5 55 5 116 -1 160 -35 252 -154 416 -34 46 -61 91
-61 100 0 9 -13 44 -29 78 -28 59 -63 98 -178 203 -40 37 -52 56 -66 106 -19
66 -23 204 -7 232 5 9 35 96 66 192 146 453 342 867 498 1054 l24 29 17 -56
c9 -31 22 -57 28 -57 8 0 31 109 65 313 166 972 296 1419 459 1579 37 36 46
41 53 27 17 -30 235 -294 280 -340 55 -55 123 -106 167 -124 108 -46 374 -56
508 -21 164 44 285 141 325 260 20 62 22 82 17 205 -3 97 -14 180 -36 291 -45
218 -55 345 -48 620 7 275 14 314 95 545 73 211 144 450 171 575 30 144 34
222 17 345 -8 60 -14 110 -13 111 1 0 54 20 117 43 272 101 434 228 518 409
26 54 27 65 27 207 -1 253 -51 440 -223 830 -79 181 -97 213 -88 155 39 -232
58 -632 36 -779 -18 -123 -42 -181 -96 -231 -57 -53 -163 -103 -278 -132 l-89
-22 -16 24 c-54 84 -161 168 -257 201 -53 19 -93 26 -375 69 -209 32 -190 21
-309 172 -214 271 -742 914 -767 933 -14 11 -69 56 -122 100 -184 153 -246
176 -574 210 -354 36 -498 45 -797 50 -195 3 -308 0 -390 -10z m-7137 -7408
c-6 -28 -14 -60 -18 -70 -6 -14 4 -12 56 13 58 27 64 28 71 12 13 -33 8 -154
-13 -290 -13 -80 -19 -158 -16 -189 4 -39 2 -53 -9 -57 -8 -3 -14 -15 -14 -27
0 -17 -10 -8 -41 37 -23 32 -56 77 -74 99 -18 22 -37 49 -43 60 -17 33 -40
162 -47 265 l-7 95 32 -42 c17 -24 33 -43 35 -43 2 0 1 15 -2 33 -7 48 14 116
48 150 42 42 57 26 42 -46z"/>
</g>
</svg>
