<?xml version="1.0" standalone="no"?>
<!DOCTYPE svg PUBLIC "-//W3C//DTD SVG 20010904//EN"
 "http://www.w3.org/TR/2001/REC-SVG-20010904/DTD/svg10.dtd">
<svg version="1.0" xmlns="http://www.w3.org/2000/svg"
 width="1266.000000pt" height="1280.000000pt" viewBox="0 0 1266.000000 1280.000000"
 preserveAspectRatio="xMidYMid meet">
<metadata>
Created by potrace 1.15, written by Peter Selinger 2001-2017
</metadata>
<g transform="translate(0.000000,1280.000000) scale(0.100000,-0.100000)"
fill="#000000" stroke="none">
<path d="M5920 12623 c-46 -55 -135 -244 -164 -348 -97 -344 -100 -823 -9
-1345 13 -80 27 -164 30 -187 10 -81 3 -88 -245 -228 -1002 -567 -1359 -870
-1575 -1335 -164 -352 -225 -830 -186 -1447 12 -189 9 -227 -15 -236 -41 -16
-49 -6 -328 363 -760 1008 -1301 1902 -1657 2738 -61 143 -188 483 -231 617
-12 39 -26 74 -30 78 -9 10 -38 -188 -51 -358 -17 -208 -5 -874 20 -1150 59
-649 159 -1299 321 -2083 171 -825 448 -1894 715 -2762 81 -263 81 -262 -24
-333 -183 -126 -246 -264 -221 -485 6 -52 31 -185 56 -295 63 -278 74 -364 74
-569 0 -97 5 -201 11 -230 47 -220 234 -352 532 -374 83 -6 99 -10 118 -30 21
-22 22 -30 16 -133 -15 -281 43 -503 176 -676 96 -125 241 -222 399 -265 164
-44 483 -102 753 -134 472 -58 979 -60 1193 -5 190 48 445 237 759 563 195
203 161 206 413 -45 349 -347 719 -657 1260 -1055 160 -117 362 -255 367 -250
2 2 -2 16 -9 32 -17 43 -14 244 6 334 70 314 313 818 639 1324 49 78 121 191
160 251 518 820 1359 1925 2314 3039 l111 129 41 121 c72 213 121 442 141 666
14 148 14 462 0 615 -73 803 -427 1661 -995 2413 -320 424 -717 789 -1057 972
-43 23 -87 54 -98 70 -25 35 -26 113 -6 315 23 227 28 425 17 675 -15 309 -44
630 -58 630 -7 0 -90 -73 -687 -608 -361 -323 -561 -495 -581 -500 -22 -6 -55
0 -130 24 -180 58 -346 84 -542 84 -225 0 -475 -46 -641 -117 -87 -37 -123
-38 -140 -5 -5 9 -19 64 -32 121 -69 330 -280 726 -594 1118 -119 148 -283
333 -296 333 -5 0 -23 -17 -40 -37z"/>
</g>
</svg>
