<?xml version="1.0" standalone="no"?>
<!DOCTYPE svg PUBLIC "-//W3C//DTD SVG 20010904//EN"
 "http://www.w3.org/TR/2001/REC-SVG-20010904/DTD/svg10.dtd">
<svg version="1.0" xmlns="http://www.w3.org/2000/svg"
 width="1280.000000pt" height="714.000000pt" viewBox="0 0 1280.000000 714.000000"
 preserveAspectRatio="xMidYMid meet">
<metadata>
Created by potrace 1.15, written by Peter Selinger 2001-2017
</metadata>
<g transform="translate(0.000000,714.000000) scale(0.100000,-0.100000)"
fill="#000000" stroke="none">
<path d="M8904 7130 c-22 -4 -80 -24 -130 -43 -98 -39 -594 -143 -929 -196
-464 -74 -871 -102 -1187 -83 -227 14 -338 35 -543 103 -82 27 -179 56 -215
65 -315 73 -695 83 -945 24 -100 -23 -362 -123 -481 -183 -227 -115 -518 -249
-605 -280 -75 -27 -127 -55 -233 -127 -170 -116 -199 -144 -274 -266 -71 -116
-111 -157 -170 -178 -78 -28 -212 -150 -285 -259 -123 -185 -157 -281 -157
-442 l0 -111 -42 -41 c-24 -22 -58 -48 -76 -57 -18 -10 -51 -33 -72 -52 -22
-20 -44 -33 -49 -29 -6 3 -20 38 -31 78 -31 107 -38 121 -78 159 -30 29 -48
37 -92 42 -30 4 -88 18 -128 32 -40 13 -80 24 -90 24 -10 0 -41 -22 -70 -48
-38 -35 -52 -56 -52 -75 0 -43 -40 -136 -65 -153 -22 -14 -27 -14 -67 5 -24
11 -55 30 -70 42 -34 28 -123 42 -140 22 -21 -26 3 -166 50 -287 22 -58 37
-78 94 -130 57 -51 71 -70 85 -116 13 -41 31 -68 70 -107 29 -29 53 -57 53
-63 0 -6 -18 -41 -40 -77 -27 -45 -46 -94 -61 -160 -20 -87 -21 -102 -10 -201
25 -223 29 -269 26 -332 -20 -476 -22 -493 -49 -573 -51 -150 -164 -336 -271
-443 -59 -60 -62 -62 -135 -73 -41 -6 -103 -19 -138 -28 -50 -12 -89 -14 -192
-8 l-129 7 -7 -28 c-11 -43 11 -106 70 -202 65 -105 80 -152 65 -207 -16 -55
-80 -117 -154 -146 -54 -21 -76 -24 -215 -24 -169 0 -204 7 -325 68 -62 30
-107 62 -185 130 -59 52 -135 87 -187 87 -35 0 -43 -3 -43 -18 0 -27 29 -122
50 -162 10 -19 25 -56 35 -82 9 -25 33 -71 53 -101 65 -96 114 -170 167 -252
61 -94 208 -284 262 -338 71 -71 277 -217 308 -217 18 0 160 -74 207 -108 39
-29 47 -41 52 -77 4 -25 16 -51 31 -65 13 -12 29 -45 36 -73 10 -43 25 -65 91
-134 43 -45 78 -88 78 -96 0 -32 84 -118 167 -173 77 -49 217 -108 305 -128
42 -9 77 12 89 54 l11 37 70 7 c38 3 117 22 176 41 59 19 139 41 179 49 88 18
208 69 248 105 17 15 47 40 68 55 22 16 43 41 49 57 6 16 21 31 37 37 16 6 33
22 40 40 7 17 23 33 35 36 12 3 44 27 72 53 27 26 92 85 144 131 52 45 122
114 155 153 33 39 81 92 106 119 57 59 102 167 119 290 7 49 20 96 31 112 11
15 19 29 19 32 0 3 20 39 45 79 25 41 45 82 45 90 0 9 11 46 24 84 34 97 73
249 81 313 15 113 76 252 118 266 11 4 31 -6 55 -27 69 -61 153 -109 190 -109
42 0 132 47 184 98 l38 36 45 -23 c37 -18 56 -22 90 -17 39 6 45 4 65 -21 19
-24 21 -37 17 -93 -2 -36 2 -99 10 -140 9 -49 13 -124 11 -216 l-3 -141 36
-55 c21 -30 49 -79 64 -109 68 -135 235 -350 399 -515 95 -94 124 -117 198
-154 94 -46 111 -49 255 -35 40 4 85 4 99 1 27 -7 27 -7 21 -84 -6 -89 -44
-208 -81 -257 -14 -18 -43 -43 -63 -56 -48 -29 -185 -130 -196 -144 -4 -5 -12
-28 -17 -50 -6 -22 -18 -56 -27 -75 -24 -53 -32 -100 -22 -126 7 -19 16 -24
43 -24 28 0 40 -7 58 -31 l23 -31 125 5 c69 2 147 0 174 -5 34 -7 65 -7 105 2
32 6 155 13 281 14 212 3 328 14 354 34 6 5 34 12 61 16 136 18 124 12 157 84
36 79 30 109 -24 114 -35 3 -38 8 -68 125 -6 23 -26 63 -45 88 -19 25 -35 47
-35 50 0 3 13 5 28 5 37 0 50 12 99 90 85 135 85 305 -1 640 -43 168 -51 227
-37 276 6 22 18 84 26 138 9 54 27 133 41 175 55 161 185 370 247 396 41 17
161 2 397 -48 381 -82 543 -102 850 -101 308 0 416 16 665 100 88 29 225 69
305 89 309 76 499 164 897 414 50 32 52 32 77 16 14 -10 26 -24 26 -31 0 -8 7
-17 15 -20 8 -3 25 -22 37 -42 12 -21 53 -77 91 -127 38 -49 80 -112 94 -139
35 -69 68 -209 88 -366 22 -180 33 -215 126 -404 45 -92 84 -185 90 -218 14
-72 7 -238 -13 -303 -9 -27 -24 -79 -34 -115 -21 -75 -65 -173 -90 -201 -33
-36 -120 -79 -160 -79 -89 0 -204 -87 -204 -154 0 -18 -5 -48 -11 -65 -9 -27
-9 -36 3 -48 20 -19 122 -33 277 -39 68 -2 139 -8 158 -13 25 -7 43 -6 71 6
29 13 64 16 167 12 194 -5 445 0 488 12 33 9 37 13 37 44 0 20 -9 44 -23 62
-13 15 -44 67 -70 116 -40 78 -45 93 -42 143 3 45 12 68 47 122 24 37 73 98
111 137 37 38 67 76 68 85 0 8 18 38 40 65 97 122 162 212 171 235 18 46 3
142 -37 231 -20 46 -48 122 -61 167 -14 46 -40 121 -59 167 -19 46 -35 91 -35
99 0 9 -11 48 -24 88 -23 69 -37 154 -51 326 -4 40 -13 95 -21 123 -19 62 -12
97 29 152 31 41 63 101 86 160 16 40 41 31 70 -23 13 -25 64 -106 112 -181 97
-149 113 -181 124 -249 4 -25 16 -76 26 -115 10 -38 19 -99 19 -134 0 -41 5
-70 14 -80 26 -30 56 -135 67 -236 15 -138 -8 -541 -33 -588 -6 -11 -17 -66
-24 -121 -8 -55 -24 -139 -35 -185 -22 -91 -22 -218 -1 -296 6 -22 13 -63 16
-92 3 -40 13 -64 45 -107 65 -88 73 -91 231 -90 186 1 200 6 298 109 69 74 84
85 105 80 15 -4 38 0 55 9 38 20 115 135 155 231 26 64 27 74 16 110 -6 22
-11 92 -10 158 1 147 -13 184 -88 222 -44 22 -50 29 -56 66 -4 22 -19 55 -35
72 -25 30 -28 40 -34 153 -7 113 -5 124 19 191 14 39 25 87 25 108 0 21 19 92
42 159 52 150 56 225 16 356 -20 68 -27 119 -34 250 -12 241 -13 232 24 274
18 20 39 53 48 74 19 43 22 163 5 205 -6 16 -11 46 -11 67 0 40 46 176 95 285
15 33 35 89 45 125 10 36 32 117 49 180 63 233 83 354 77 470 -9 165 -73 500
-132 685 -84 266 -187 425 -468 720 -78 82 -145 158 -149 167 -3 10 0 42 8 73
18 69 19 99 3 113 -7 5 -60 12 -118 14 -58 3 -114 10 -126 16 -11 6 -144 138
-296 294 -193 198 -291 292 -326 311 -97 53 -183 67 -462 77 -267 9 -303 14
-447 54 -62 17 -126 26 -219 30 -163 8 -294 27 -408 60 -49 15 -99 26 -113 26
-14 0 -64 13 -111 29 -218 73 -296 92 -392 96 -52 2 -113 0 -136 -5z"/>
</g>
</svg>
