<?xml version="1.0" standalone="no"?>
<!DOCTYPE svg PUBLIC "-//W3C//DTD SVG 20010904//EN"
 "http://www.w3.org/TR/2001/REC-SVG-20010904/DTD/svg10.dtd">
<svg version="1.0" xmlns="http://www.w3.org/2000/svg"
 width="1280.000000pt" height="681.000000pt" viewBox="0 0 1280.000000 681.000000"
 preserveAspectRatio="xMidYMid meet">
<metadata>
Created by potrace 1.15, written by Peter Selinger 2001-2017
</metadata>
<g transform="translate(0.000000,681.000000) scale(0.100000,-0.100000)"
fill="#000000" stroke="none">
<path d="M6940 6490 c-126 -12 -381 -56 -495 -85 -55 -15 -135 -35 -178 -46
-48 -12 -101 -34 -140 -59 -65 -40 -154 -75 -287 -112 -41 -11 -84 -29 -95
-38 -23 -20 -166 -85 -210 -96 -16 -4 -55 -19 -85 -34 -30 -15 -152 -57 -270
-94 -271 -84 -289 -91 -380 -136 -73 -37 -161 -60 -289 -78 -45 -6 -133 -3
-291 9 -216 16 -231 19 -326 55 -192 72 -178 70 -504 67 -305 -3 -493 -13
-545 -31 -72 -24 -248 -103 -311 -139 -38 -22 -126 -66 -196 -98 -136 -63
-343 -202 -493 -332 -138 -119 -310 -362 -411 -580 -113 -244 -97 -220 -329
-476 -154 -169 -170 -181 -405 -307 -174 -94 -188 -103 -318 -214 -76 -65 -94
-86 -103 -120 -14 -50 1 -148 29 -185 65 -87 228 -80 394 17 46 27 137 78 203
112 66 35 179 98 250 141 72 42 173 98 225 124 52 26 119 63 148 82 57 36 72
36 72 -2 0 -13 15 -72 34 -132 18 -59 39 -153 45 -208 14 -111 51 -268 82
-348 11 -28 47 -129 79 -223 62 -181 111 -290 174 -388 l38 -60 -18 -80 c-15
-65 -19 -122 -19 -281 0 -192 1 -204 30 -305 41 -144 40 -240 -3 -409 -32
-122 -34 -126 -134 -275 -56 -83 -116 -182 -134 -221 -30 -66 -32 -79 -38
-213 -4 -108 -3 -144 7 -147 6 -3 68 -11 137 -19 95 -11 201 -13 435 -9 280 5
311 4 324 -11 7 -9 22 -16 31 -16 10 0 33 -18 50 -40 38 -47 139 -127 189
-147 20 -8 50 -28 67 -45 l32 -30 178 -9 c221 -11 513 7 699 44 l60 12 -3 60
c-4 69 -52 223 -87 276 -27 41 -47 107 -38 123 4 5 36 37 71 70 35 33 85 87
110 120 25 32 89 104 142 160 54 55 122 127 151 158 30 31 68 66 85 77 33 20
34 23 90 194 30 92 38 98 84 72 28 -16 86 -20 94 -6 16 26 247 32 296 7 18 -9
46 -16 61 -16 15 0 30 -4 33 -9 12 -18 93 -51 127 -51 19 0 44 -7 56 -15 12
-9 66 -32 120 -51 88 -32 105 -35 165 -30 45 4 94 1 148 -10 68 -14 98 -15
202 -5 68 6 137 11 153 11 70 0 192 -9 216 -15 18 -5 35 -1 53 11 18 11 50 18
94 19 l67 2 -3 -91 c-4 -122 -29 -345 -48 -426 -8 -36 -17 -74 -19 -86 -3 -12
-25 -48 -51 -80 -66 -85 -132 -223 -165 -344 -16 -58 -29 -106 -29 -106 0 -1
14 -7 31 -14 22 -10 75 -12 197 -8 92 3 238 0 325 -6 97 -7 231 -9 345 -4 103
3 277 9 387 12 434 11 896 44 903 65 2 6 18 11 36 11 18 0 40 6 50 13 16 12
16 17 2 81 -9 38 -15 70 -14 71 2 2 244 6 538 10 528 6 924 19 968 31 29 8 29
36 -3 171 -29 121 -52 166 -134 261 -42 48 -85 84 -156 127 -105 64 -166 110
-197 151 -47 59 -163 464 -133 464 4 0 64 -18 134 -41 101 -32 180 -48 396
-80 308 -44 546 -83 622 -101 41 -9 72 -9 150 2 112 15 179 41 242 94 61 51
214 235 240 289 17 35 42 60 109 109 164 118 176 143 193 392 6 89 18 178 25
199 8 20 14 61 14 90 0 41 6 63 28 98 33 51 167 213 207 249 15 14 37 41 50
60 12 19 74 101 136 182 63 81 134 181 158 222 109 191 269 582 324 791 40
152 112 489 147 685 54 302 61 350 58 418 -3 60 -6 68 -30 81 -20 11 -34 13
-54 6 -23 -8 -45 -47 -142 -240 -63 -126 -145 -302 -182 -390 -189 -450 -318
-644 -655 -981 -206 -207 -350 -325 -497 -406 -148 -82 -145 -81 -196 -8 -41
60 -42 63 -42 146 0 64 8 116 35 216 58 223 78 371 71 523 -7 128 -54 403 -79
455 -9 18 -22 26 -44 28 -36 4 -46 -8 -122 -137 -20 -35 -102 -152 -182 -260
-189 -257 -334 -400 -406 -401 -10 0 -37 -9 -59 -19 l-42 -19 -45 46 c-27 29
-47 60 -51 81 -5 30 -37 73 -191 256 -14 17 -28 43 -32 58 -3 16 -16 35 -29
44 -17 11 -32 42 -54 113 -32 102 -47 124 -92 135 -54 14 -54 28 -1 117 62
105 85 119 215 130 54 4 111 14 126 22 15 8 58 46 95 85 37 38 103 99 145 135
95 80 198 185 244 251 62 88 200 344 194 360 -3 8 -17 15 -32 15 -37 0 -607
-278 -700 -341 -23 -15 -58 -51 -80 -78 -46 -62 -189 -179 -262 -215 -29 -15
-88 -60 -131 -101 -43 -41 -83 -75 -89 -75 -6 0 -26 13 -44 28 -54 47 -129 86
-187 97 -53 11 -54 12 -66 56 -19 73 -84 164 -189 258 -53 49 -111 111 -128
137 -48 77 -77 104 -114 104 -40 0 -64 -22 -64 -60 0 -68 -8 -63 -158 92 -81
83 -173 185 -205 227 -80 104 -265 291 -362 363 -140 105 -254 153 -393 163
-42 3 -97 7 -122 9 -25 2 -83 0 -130 -4z m990 -5067 c38 -78 86 -163 106 -189
l36 -47 -4 -86 c-4 -84 -19 -130 -61 -185 -14 -19 -16 -19 -40 -3 -23 15 -25
21 -20 69 3 37 -2 76 -16 128 -64 229 -84 311 -101 408 l-18 107 24 -30 c13
-17 55 -94 94 -172z"/>
</g>
</svg>
