<?xml version="1.0" standalone="no"?>
<!DOCTYPE svg PUBLIC "-//W3C//DTD SVG 20010904//EN"
 "http://www.w3.org/TR/2001/REC-SVG-20010904/DTD/svg10.dtd">
<svg version="1.0" xmlns="http://www.w3.org/2000/svg"
 width="1280.000000pt" height="888.000000pt" viewBox="0 0 1280.000000 888.000000"
 preserveAspectRatio="xMidYMid meet">
<metadata>
Created by potrace 1.15, written by Peter Selinger 2001-2017
</metadata>
<g transform="translate(0.000000,888.000000) scale(0.100000,-0.100000)"
fill="#000000" stroke="none">
<path d="M4488 7529 c-92 -10 -131 -28 -229 -108 -41 -34 -95 -68 -120 -76
-49 -17 -74 -40 -214 -203 -38 -45 -78 -85 -89 -88 -10 -3 -53 -7 -96 -8 -72
-2 -81 -4 -134 -41 -32 -22 -62 -47 -67 -57 -5 -9 -9 -43 -9 -76 0 -50 7 -73
40 -141 49 -97 47 -104 -45 -152 -36 -18 -73 -42 -82 -51 -9 -10 -30 -18 -47
-18 -46 0 -213 85 -356 181 -69 45 -154 95 -190 110 -103 42 -165 83 -233 156
l-64 67 -74 7 c-57 5 -78 4 -90 -7 -20 -18 -51 -18 -96 1 -19 8 -40 15 -45 15
-16 0 1 -51 33 -101 22 -35 32 -66 39 -120 15 -130 63 -248 145 -356 62 -83
116 -128 200 -168 100 -47 137 -55 256 -55 116 0 124 -4 135 -57 6 -33 -9 -70
-57 -138 -38 -53 -48 -88 -63 -225 -11 -101 -18 -126 -54 -200 -23 -47 -50
-96 -61 -110 -23 -29 -13 -34 -132 63 -72 58 -91 80 -137 160 -50 87 -112 256
-142 385 -21 92 -34 59 -42 -104 -9 -204 -24 -341 -42 -391 -30 -82 -56 -193
-56 -238 0 -62 -17 -60 -126 20 -254 186 -301 234 -413 419 -106 175 -158 284
-269 564 -80 200 -111 295 -156 469 -30 120 -63 256 -71 303 -27 147 -61 207
-81 148 -15 -44 -4 -263 21 -442 59 -408 128 -696 270 -1126 131 -397 129
-386 121 -561 l-6 -146 34 -99 c47 -139 119 -320 151 -380 l26 -51 -20 -46
c-12 -26 -30 -67 -41 -92 -11 -25 -20 -56 -20 -69 0 -12 -8 -31 -19 -40 -10
-9 -21 -29 -24 -44 -3 -15 -16 -43 -30 -63 -67 -98 -82 -239 -37 -339 18 -41
24 -73 25 -125 0 -67 1 -70 34 -92 56 -38 93 -42 286 -36 l182 5 27 -35 26
-34 103 -1 c56 0 115 -6 131 -12 37 -14 324 -11 351 4 35 19 89 35 135 41 25
4 68 10 95 15 28 5 93 17 145 25 88 15 308 74 409 110 24 8 52 15 63 15 23 0
24 9 -20 -160 -65 -246 -57 -338 73 -815 12 -41 19 -130 25 -280 8 -200 11
-231 40 -340 17 -66 36 -138 40 -160 5 -22 16 -61 25 -85 47 -127 55 -167 55
-261 0 -144 -12 -187 -100 -365 -91 -184 -105 -243 -72 -304 12 -22 29 -37 48
-42 16 -4 47 -11 69 -16 22 -6 94 -13 160 -17 170 -10 274 10 421 80 134 63
266 146 289 181 26 40 10 95 -62 217 -36 61 -73 131 -82 156 -9 25 -41 84 -72
131 -31 47 -63 99 -71 115 -25 49 -41 135 -42 215 -1 67 3 82 33 140 32 61 34
72 37 170 3 124 14 155 90 256 77 103 158 179 207 194 23 8 46 17 51 22 6 4
16 8 24 8 8 0 31 10 51 23 20 12 71 38 113 57 43 20 110 62 150 96 101 83 150
114 179 114 13 0 65 -9 114 -20 50 -11 124 -23 165 -27 l75 -6 65 -70 c66 -71
129 -110 200 -123 19 -4 38 -12 42 -18 4 -6 38 -26 75 -46 53 -27 69 -40 71
-60 2 -14 10 -45 18 -69 12 -34 13 -73 8 -180 -6 -119 -4 -145 14 -211 11 -41
27 -115 36 -165 56 -323 58 -345 55 -467 -4 -117 -6 -127 -40 -198 -20 -41
-57 -100 -83 -130 -64 -74 -78 -103 -84 -177 -8 -98 18 -115 208 -138 273 -34
340 -37 495 -25 278 21 425 83 425 177 0 23 -53 113 -133 228 -39 55 -80 123
-93 150 -34 76 -48 186 -34 265 15 83 29 236 30 323 0 41 8 90 20 124 11 31
25 84 31 117 14 82 77 296 94 322 13 21 22 21 297 26 242 5 308 10 455 33 95
15 180 25 188 21 11 -4 15 -22 15 -74 0 -136 41 -256 121 -352 20 -25 52 -72
70 -105 30 -54 34 -69 37 -157 4 -82 0 -110 -22 -190 -40 -139 -90 -232 -161
-303 -33 -33 -77 -68 -97 -78 -21 -10 -54 -25 -74 -35 -28 -13 -43 -30 -62
-71 -31 -67 -39 -129 -19 -155 28 -38 202 -47 318 -16 86 23 225 25 439 8 202
-16 210 -15 242 21 16 17 28 42 28 56 0 13 -22 77 -49 142 -59 145 -69 199
-45 249 18 37 125 164 254 300 88 92 111 144 111 246 0 53 -8 83 -54 193 -30
72 -63 148 -74 170 -68 132 -133 367 -132 475 0 68 14 100 59 136 111 90 269
235 361 333 72 75 113 111 128 111 12 0 57 -26 99 -58 121 -91 204 -148 244
-166 20 -10 46 -32 57 -49 11 -18 36 -54 56 -82 114 -158 154 -293 170 -570 4
-60 21 -200 37 -310 34 -217 46 -429 29 -485 -6 -19 -15 -80 -21 -135 -6 -55
-18 -125 -27 -155 -22 -74 -20 -236 3 -297 13 -33 28 -50 59 -69 24 -13 45
-33 48 -43 13 -53 98 -67 330 -56 l156 7 43 53 c24 30 57 59 73 66 39 17 122
95 143 134 17 33 24 208 10 259 -4 16 -27 61 -50 100 -24 39 -50 89 -59 112
-9 22 -29 61 -46 85 -51 74 -82 145 -105 237 -23 91 -26 178 -20 552 1 98 -4
203 -14 285 -37 294 -28 481 27 607 22 50 35 99 40 153 9 89 33 209 48 246 19
44 70 333 82 464 16 185 -2 403 -44 520 -31 85 -102 233 -144 299 -43 66 -78
159 -128 337 -15 53 -52 138 -95 219 -93 174 -91 170 -173 237 -74 59 -326
296 -340 319 -4 8 4 37 22 72 73 144 66 357 -15 529 -29 60 -47 84 -100 127
-68 56 -116 76 -183 76 -78 0 -129 -20 -185 -71 -59 -53 -90 -121 -102 -217
-4 -29 -11 -55 -16 -58 -5 -3 -43 9 -86 27 -97 40 -115 45 -237 71 -82 17
-149 21 -380 25 -315 5 -291 1 -575 106 -123 45 -143 50 -220 50 -56 0 -100
-6 -130 -17 -51 -20 -510 -137 -766 -196 -205 -48 -271 -50 -410 -15 -165 42
-307 105 -544 241 -112 64 -207 98 -390 139 -148 33 -175 37 -260 32 -52 -3
-127 -11 -166 -18 -69 -11 -73 -11 -120 15 -27 15 -94 58 -149 96 -110 77
-185 116 -236 123 -19 3 -69 1 -111 -4z m5076 -521 l54 -53 6 -81 c4 -45 4
-94 0 -110 -13 -56 -36 -124 -45 -130 -5 -2 -33 15 -62 39 -30 24 -75 58 -100
76 -51 35 -62 56 -52 104 17 77 102 207 137 207 4 0 33 -24 62 -52z"/>
</g>
</svg>
