<?xml version="1.0" standalone="no"?>
<!DOCTYPE svg PUBLIC "-//W3C//DTD SVG 20010904//EN"
 "http://www.w3.org/TR/2001/REC-SVG-20010904/DTD/svg10.dtd">
<svg version="1.0" xmlns="http://www.w3.org/2000/svg"
 width="1280.000000pt" height="944.000000pt" viewBox="0 0 1280.000000 944.000000"
 preserveAspectRatio="xMidYMid meet">
<metadata>
Created by potrace 1.15, written by Peter Selinger 2001-2017
</metadata>
<g transform="translate(0.000000,944.000000) scale(0.100000,-0.100000)"
fill="#000000" stroke="none">
<path d="M12312 9339 l-82 -80 -73 57 c-39 32 -81 64 -92 73 -27 21 13 -26 84
-101 l54 -57 -71 -90 c-40 -50 -69 -91 -64 -91 4 0 41 34 82 75 41 41 77 75
81 75 3 0 42 -28 85 -62 113 -87 115 -88 54 -22 -31 32 -68 73 -82 89 l-27 30
60 75 c55 68 84 110 77 110 -2 0 -40 -37 -86 -81z"/>
<path d="M11840 9270 c-23 -66 -45 -120 -47 -120 -5 0 -146 83 -200 118 -13 8
-23 12 -23 9 0 -2 44 -37 98 -77 53 -40 99 -75 102 -77 5 -5 -42 -50 -140
-137 -66 -58 -45 -48 76 38 l91 64 18 -36 17 -37 -126 -120 c-69 -67 -126
-125 -126 -129 0 -4 -12 -18 -27 -30 -79 -60 -187 -163 -209 -196 -14 -21 -44
-51 -67 -66 -53 -35 -177 -161 -177 -179 0 -8 -19 -27 -42 -42 -97 -60 -205
-171 -194 -198 2 -7 -17 -22 -44 -35 -27 -13 -61 -36 -76 -52 -15 -15 -36 -28
-46 -28 -25 0 -15 43 23 95 62 84 84 123 131 230 51 118 62 173 30 156 -10 -5
-31 -37 -47 -70 -16 -34 -32 -61 -36 -61 -15 0 -18 33 -7 75 12 46 4 71 -18
57 -6 -4 -42 -55 -80 -114 -80 -124 -182 -237 -195 -216 -21 33 -20 96 1 167
34 112 12 222 -62 306 -50 57 -114 90 -202 106 -80 14 -363 8 -390 -8 -19 -10
-19 -11 0 -16 10 -3 53 -9 94 -12 219 -20 285 -142 117 -216 -45 -20 -71 -23
-197 -25 -176 -2 -338 -19 -385 -38 -37 -16 -75 -67 -75 -103 0 -13 -2 -23 -5
-23 -2 0 -34 14 -70 32 -61 30 -65 35 -65 65 0 45 21 92 55 123 24 22 55 70
55 85 0 17 -29 -8 -140 -119 -172 -174 -180 -188 -191 -331 -5 -64 -11 -121
-15 -127 -4 -6 -26 -8 -58 -4 -94 12 -369 9 -421 -5 -57 -14 -195 -75 -195
-85 0 -4 57 -4 126 0 124 6 356 -12 444 -34 53 -14 86 -55 105 -129 26 -101 2
-181 -61 -207 -28 -12 -45 -12 -98 -3 -49 9 -81 9 -133 1 -37 -6 -79 -9 -93
-5 -52 12 -99 75 -110 148 l-6 40 -18 -59 c-51 -166 36 -389 179 -461 64 -32
77 -54 55 -95 -15 -28 -85 -60 -133 -60 -44 0 -125 43 -217 116 -86 67 -149
86 -310 92 -124 4 -140 3 -187 -18 -51 -22 -162 -124 -149 -137 3 -3 14 1 24
10 55 50 193 74 257 45 37 -17 57 -59 49 -107 -5 -33 0 -51 35 -118 62 -119
51 -154 -38 -127 -55 16 -164 119 -193 182 -10 23 -23 42 -28 42 -12 0 -12 6
1 -65 6 -33 22 -79 36 -103 20 -34 23 -45 13 -57 -19 -23 -51 -18 -102 14 -50
32 -68 57 -79 111 -6 30 -7 26 -8 -26 -1 -51 3 -67 28 -105 17 -24 55 -62 85
-84 34 -24 65 -57 78 -83 l23 -43 -24 -20 c-31 -25 -47 -24 -115 7 -31 14 -80
28 -108 31 -48 4 -57 2 -95 -26 -23 -17 -47 -40 -53 -51 -12 -23 2 -27 19 -6
21 25 59 28 106 7 74 -33 92 -100 59 -219 -13 -49 -14 -63 -2 -96 15 -44 26
-52 81 -61 33 -5 37 -9 37 -35 0 -58 -89 -96 -154 -65 -39 19 -108 91 -133
140 -18 34 -21 92 -9 150 7 34 6 38 -5 27 -15 -14 -37 -123 -38 -189 -1 -24 8
-65 18 -93 l19 -50 -89 0 c-103 0 -103 0 -72 96 16 52 14 72 -5 60 -6 -3 -22
-39 -37 -79 l-26 -73 -83 8 c-46 4 -123 14 -172 23 -49 9 -152 19 -229 22
-126 5 -152 2 -265 -22 -251 -53 -366 -68 -550 -69 -191 -1 -278 13 -473 74
-50 16 -177 52 -282 80 -998 264 -946 254 -1240 254 -291 0 -479 -46 -766
-189 -355 -178 -533 -297 -746 -499 -87 -82 -127 -146 -193 -308 -13 -31 -29
-59 -36 -62 -8 -3 -3 17 13 54 14 33 23 67 19 75 -5 15 -11 14 -45 -7 -22 -13
-70 -41 -108 -62 -107 -62 -283 -185 -342 -241 -29 -27 -73 -75 -96 -106 l-43
-55 -144 -28 c-78 -15 -173 -40 -210 -56 -201 -84 -390 -299 -518 -589 -58
-133 -86 -237 -126 -471 -29 -174 -36 -243 -44 -455 -5 -137 -14 -268 -20
-290 -30 -101 -93 -275 -111 -304 -20 -33 -71 -61 -112 -61 -13 0 -46 12 -75
26 -81 40 -143 131 -146 213 -2 67 21 96 110 136 78 36 88 55 29 55 -58 0
-144 -39 -192 -87 -68 -67 -84 -113 -96 -277 -9 -123 -8 -151 7 -218 33 -148
107 -252 214 -301 35 -16 67 -22 127 -22 101 0 137 15 177 74 18 25 36 49 42
53 12 8 36 -9 36 -27 0 -31 -100 -222 -131 -252 -112 -105 -282 -103 -390 7
-22 22 -44 40 -50 40 -18 0 32 -77 85 -133 93 -96 184 -100 366 -16 53 24 86
49 130 96 67 71 98 126 130 229 12 38 41 112 63 164 l41 95 11 -55 c11 -53 45
-153 51 -148 1 2 7 40 14 85 13 99 61 243 97 296 15 21 53 59 85 84 32 25 58
47 58 49 0 1 -17 0 -38 -3 -20 -3 -34 -3 -30 2 4 4 35 9 70 11 76 5 198 36
270 67 137 61 209 213 224 467 5 90 2 123 -20 234 -31 149 -82 339 -102 378
-22 42 -18 95 7 109 52 27 183 -20 270 -98 75 -67 136 -95 288 -134 130 -34
134 -36 197 -90 104 -90 42 5 -70 107 -55 50 -90 72 -161 101 -159 66 -225
158 -253 350 -14 96 -13 116 2 217 9 61 16 134 16 161 l0 50 104 53 c152 77
226 149 257 250 19 63 20 46 3 -48 -20 -116 -20 -344 0 -440 55 -256 167 -462
320 -591 92 -78 174 -128 431 -261 115 -60 247 -134 293 -164 46 -30 125 -75
175 -100 154 -77 193 -119 223 -237 14 -54 15 -80 5 -197 -7 -74 -19 -164 -27
-200 -26 -118 -87 -272 -133 -340 -115 -168 -121 -181 -121 -275 0 -98 33
-170 91 -201 16 -8 67 -24 112 -35 96 -24 739 -300 997 -428 298 -148 463
-245 519 -307 56 -62 91 -142 91 -210 0 -35 -8 -60 -36 -105 -35 -57 -36 -61
-32 -134 8 -126 75 -236 201 -332 34 -26 94 -76 132 -112 86 -80 163 -120 200
-103 30 14 31 28 4 112 -20 66 -29 242 -20 397 5 87 -21 125 -135 195 -82 50
-218 161 -274 223 -30 33 -21 29 85 -44 235 -160 385 -282 579 -469 171 -166
244 -222 341 -260 167 -65 168 -66 175 -204 5 -94 7 -99 39 -132 45 -46 100
-71 202 -92 155 -31 336 -1 393 66 63 76 32 156 -121 316 -50 52 -92 79 -243
160 -80 42 -165 91 -190 108 -86 59 -211 190 -342 360 -145 187 -277 327 -378
398 -36 25 -146 95 -245 155 -99 60 -244 151 -321 201 -253 162 -374 213 -571
242 -93 13 -149 27 -184 44 -205 103 -307 256 -265 398 13 45 77 161 106 192
5 5 9 -23 9 -61 0 -74 16 -128 84 -274 19 -42 40 -93 47 -115 30 -91 60 -110
190 -117 47 -3 114 -15 150 -27 105 -34 335 -152 468 -239 68 -45 126 -81 128
-81 3 0 -15 23 -40 51 -63 70 -100 138 -147 271 -22 62 -62 172 -89 245 -59
156 -100 317 -100 393 0 52 -40 239 -108 505 -51 203 -82 367 -82 436 0 36 -5
91 -11 123 -6 32 -8 60 -5 63 13 13 69 -13 98 -45 63 -70 144 -148 266 -257
308 -274 437 -337 809 -395 109 -17 293 -48 408 -70 484 -91 571 -101 955
-110 305 -7 331 -9 430 -34 151 -38 244 -87 390 -205 148 -120 238 -169 455
-246 172 -62 243 -94 373 -170 125 -73 127 -99 21 -200 -82 -78 -110 -95 -253
-150 -65 -25 -172 -74 -239 -110 -67 -35 -149 -71 -182 -80 -80 -20 -314 -21
-354 0 -35 18 -41 32 -51 118 -10 85 -53 174 -99 205 -54 35 -106 30 -174 -18
-93 -65 -91 -64 -258 -70 -167 -6 -189 -12 -189 -57 0 -58 66 -124 229 -227
40 -26 103 -76 140 -110 74 -70 101 -81 209 -91 150 -13 249 -58 343 -156 64
-66 69 -69 113 -69 44 0 51 4 129 77 65 61 121 99 253 175 216 124 431 226
559 268 55 17 114 41 132 51 52 33 134 130 167 199 27 57 31 76 31 150 0 68
-4 94 -23 130 -22 44 -312 347 -528 551 -56 52 -106 104 -112 115 -11 20 -11
20 50 0 l60 -20 112 22 c61 12 209 29 331 37 121 8 256 22 300 32 44 9 123 17
175 17 88 1 100 -1 163 -33 82 -39 154 -109 221 -211 88 -133 115 -207 166
-455 25 -125 32 -183 37 -345 5 -179 8 -199 29 -240 29 -54 29 -72 4 -127 -17
-37 -24 -44 -73 -58 -83 -24 -122 -77 -141 -190 -15 -91 40 -237 143 -380 32
-44 65 -94 74 -110 20 -41 52 -67 74 -63 29 5 60 83 98 250 19 87 39 168 44
181 5 13 30 113 54 223 54 235 54 237 101 293 43 52 46 87 13 163 -13 29 -27
66 -31 83 -4 16 -34 98 -67 182 -82 213 -112 340 -149 625 -21 170 -32 199
-127 340 -137 204 -188 241 -363 258 -131 14 -173 22 -385 72 -181 43 -233 62
-306 109 -25 16 -60 32 -77 35 -24 5 -31 11 -28 23 3 9 10 36 16 61 6 25 38
126 70 225 32 99 61 196 65 215 4 19 22 106 41 192 19 86 34 170 34 186 0 16
-12 66 -26 113 -22 72 -25 97 -21 174 8 141 36 230 132 418 99 193 207 458
231 567 50 227 80 275 234 377 164 109 244 135 353 113 154 -30 313 -126 488
-296 88 -85 134 -121 188 -148 129 -65 180 -128 206 -253 15 -73 33 -98 75
-106 56 -12 190 36 255 91 17 14 58 38 92 53 60 27 103 71 103 107 0 7 20 58
44 115 24 56 47 117 50 134 13 57 -11 101 -108 203 -75 79 -104 119 -165 230
-93 168 -164 273 -286 419 -92 112 -146 188 -297 421 -41 63 -118 170 -171
237 -53 66 -97 124 -97 127 0 3 22 33 49 67 55 68 99 145 89 155 -4 4 -66 -14
-138 -40 -72 -25 -129 -42 -126 -37 3 4 73 32 157 61 167 58 190 75 270 194
59 88 52 98 -39 52 -15 -7 -38 -16 -52 -20 -14 -4 20 15 75 42 71 35 112 62
142 94 49 55 118 156 111 164 -4 3 -31 -9 -62 -26 -31 -18 -56 -30 -56 -27 0
3 30 22 66 42 87 49 126 85 196 179 55 73 67 101 35 80 -7 -5 3 5 22 21 20 17
47 41 60 55 38 40 140 177 136 182 -3 2 13 21 34 42 l38 37 28 -65 c16 -37 30
-65 32 -63 3 4 -32 133 -53 190 -13 34 -12 37 4 37 9 0 28 3 41 7 21 5 23 3
17 -12 -6 -18 -6 -18 11 -3 11 10 49 21 93 26 l75 9 -64 2 -65 1 28 29 c15 16
23 32 18 35 -5 3 -22 -10 -37 -30 -26 -34 -29 -35 -77 -31 -27 3 -51 6 -52 8
-2 2 9 58 24 124 15 66 27 121 25 123 -1 1 -21 -52 -45 -118z m-2208 -995 c56
-11 108 -67 108 -118 0 -33 -20 -75 -47 -99 -19 -17 -21 -16 -75 36 -32 31
-84 67 -122 86 l-68 32 27 28 c25 27 102 52 132 44 6 -1 27 -6 45 -9z m-290
-82 c62 -59 97 -118 98 -163 0 -31 -49 -180 -59 -180 -22 0 -78 115 -95 195
-12 57 -22 205 -13 205 5 0 36 -26 69 -57z m-7767 -3562 c-20 -60 -80 -162
-155 -261 -31 -41 -69 -94 -85 -118 -15 -23 -30 -41 -32 -39 -4 5 40 156 67
230 33 87 94 172 158 218 31 22 58 35 60 30 2 -6 -4 -33 -13 -60z m-134 -699
c1 -87 6 -104 71 -222 25 -47 51 -111 58 -143 33 -161 -7 -414 -80 -516 -39
-53 -120 -107 -199 -131 -87 -27 -90 -26 -39 19 79 70 144 226 154 371 4 43
-1 136 -10 217 -9 78 -16 173 -16 210 0 65 23 232 36 267 13 34 24 2 25 -72z
m3283 -148 c-4 -14 -13 -69 -20 -122 l-13 -97 3 100 c1 56 7 110 14 123 17 30
24 28 16 -4z m-103 -481 c-47 -139 -104 -272 -141 -332 -23 -35 -43 -61 -46
-59 -2 3 33 88 79 189 46 101 92 206 102 233 26 68 31 42 6 -31z"/>
<path d="M10527 9313 c-2 -5 -10 -25 -17 -46 l-12 -37 -51 5 c-54 5 -52 4 31
-21 8 -2 11 -12 8 -24 -17 -58 -18 -64 -10 -57 5 5 14 23 20 40 9 28 16 33 55
38 24 3 33 7 19 8 -44 3 -52 13 -41 59 8 39 8 52 -2 35z"/>
<path d="M10055 9240 c-16 -16 -33 -30 -38 -30 -4 0 -25 12 -45 27 l-37 27 38
-41 c23 -24 35 -43 28 -47 -5 -4 -20 -21 -32 -39 -22 -31 -21 -31 18 6 24 23
43 35 47 28 4 -5 21 -20 39 -32 l32 -22 -32 34 c-18 19 -33 38 -33 43 0 4 12
23 26 42 32 42 27 44 -11 4z"/>
<path d="M11016 8975 c-4 -71 -10 -138 -12 -147 -5 -15 -22 -9 -126 43 -66 33
-122 59 -123 57 -2 -2 46 -37 106 -78 60 -40 109 -77 109 -81 0 -3 -50 -39
-110 -79 -61 -40 -109 -75 -106 -77 2 -2 58 23 125 56 141 71 126 82 138 -104
l7 -120 8 75 c4 41 10 105 14 142 l6 68 50 -26 c67 -34 198 -94 198 -90 0 1
-49 36 -110 76 -60 41 -110 77 -110 80 0 3 49 39 110 80 60 40 109 75 107 76
-2 2 -57 -23 -123 -55 l-119 -58 -7 66 c-4 36 -11 102 -16 146 l-8 80 -8 -130z"/>
<path d="M8730 9010 c0 -3 9 -52 20 -110 11 -58 20 -111 20 -119 0 -11 -23
-12 -127 -6 -71 4 -125 4 -122 1 3 -3 59 -13 125 -22 65 -8 120 -16 121 -18 3
-2 -51 -166 -73 -221 -19 -50 12 2 56 95 27 56 51 104 54 107 2 3 48 -27 100
-66 53 -39 98 -71 100 -71 2 0 -35 37 -84 83 -48 45 -88 84 -89 87 0 3 38 32
85 65 47 33 88 64 92 69 3 5 -38 -14 -91 -42 -52 -29 -100 -52 -104 -52 -5 0
-22 44 -37 98 -26 86 -45 137 -46 122z"/>
<path d="M10186 9000 c4 -8 21 -33 36 -54 15 -21 28 -42 28 -45 0 -3 -21 -14
-46 -25 -57 -23 -52 -30 9 -11 54 16 54 16 60 -55 3 -41 4 -40 5 13 1 31 5 57
10 57 4 -1 36 -7 70 -14 76 -17 70 -7 -11 18 l-58 17 31 57 c31 56 20 50 -30
-16 l-20 -27 -46 50 c-25 28 -42 43 -38 35z"/>
<path d="M9510 8978 c0 -4 11 -38 25 -74 14 -37 24 -69 22 -70 -2 -2 -41 -10
-88 -19 l-84 -15 89 4 89 4 -7 -52 c-3 -29 -8 -68 -11 -87 -4 -29 -4 -31 4 -9
5 14 17 51 26 82 l16 58 69 -35 c93 -47 98 -44 17 10 -37 25 -67 49 -67 52 0
4 26 34 58 67 l57 59 -63 -51 c-35 -29 -68 -52 -73 -52 -5 0 -24 30 -43 68
-19 37 -35 64 -36 60z"/>
<path d="M2855 8594 c20 -50 20 -51 -22 -73 -45 -24 -40 -27 11 -6 l36 15 20
-40 c25 -50 35 -52 15 -4 -20 50 -20 51 23 73 44 24 36 27 -13 6 l-35 -14 -20
39 c-26 50 -35 52 -15 4z"/>
<path d="M11705 8590 c3 -14 8 -35 11 -47 5 -19 -1 -26 -37 -43 -24 -11 -35
-18 -24 -15 11 2 32 7 47 11 25 6 30 2 48 -37 11 -24 18 -35 15 -24 -21 69
-20 74 26 95 24 11 36 18 27 16 -57 -16 -88 -18 -88 -5 -1 8 -7 28 -16 44 -12
26 -14 27 -9 5z"/>
<path d="M7755 8433 c-16 -54 -32 -102 -36 -107 -4 -4 -55 0 -114 9 -59 9
-109 15 -111 12 -2 -2 41 -16 95 -32 55 -15 105 -31 111 -35 9 -5 8 -35 -4
-115 -9 -59 -15 -110 -13 -111 2 -2 16 41 32 95 15 55 31 105 35 111 5 8 33 7
103 -4 137 -22 146 -19 37 14 -136 40 -131 37 -126 74 3 17 10 64 17 104 6 40
9 75 6 78 -2 2 -17 -40 -32 -93z"/>
<path d="M3363 8408 l-31 -31 -37 22 c-49 28 -56 21 -10 -10 36 -25 42 -34 25
-44 -5 -3 -19 -20 -31 -38 -22 -31 -21 -31 18 6 l41 39 43 -22 44 -21 -33 28
c-38 33 -39 39 -10 70 33 35 16 37 -19 1z"/>
<path d="M11976 8393 c-3 -16 -8 -49 -12 -76 -3 -26 -9 -49 -13 -51 -3 -2 -32
6 -64 19 -96 40 -106 38 -24 -5 42 -22 77 -42 77 -45 0 -2 -23 -31 -50 -64
-28 -34 -47 -61 -43 -61 5 0 33 25 63 55 l54 55 39 -63 c56 -89 65 -93 23 -10
-20 40 -36 76 -36 80 0 5 35 18 78 31 76 21 62 23 -50 5 l-41 -6 6 81 c6 82 3
106 -7 55z"/>
<path d="M8230 8293 c-18 -54 -35 -103 -39 -110 -6 -11 -21 -3 -188 99 -61 37
-33 9 62 -63 52 -39 95 -75 95 -79 0 -4 -40 -42 -90 -85 -128 -111 -124 -112
24 -8 49 34 92 61 95 58 4 -2 27 -51 51 -109 24 -58 46 -104 48 -102 2 2 -10
49 -27 104 -17 54 -31 106 -31 115 0 12 20 16 103 22 154 11 161 24 14 24
-117 1 -128 2 -123 19 16 54 47 204 43 208 -2 2 -19 -40 -37 -93z"/>
<path d="M12735 8350 c-28 -30 -52 -34 -84 -11 -43 31 -50 25 -11 -8 l35 -29
-34 -36 c-42 -44 -37 -46 14 -6 l37 30 47 -31 46 -31 -38 37 -39 37 33 34 c18
19 28 34 23 34 -6 0 -19 -9 -29 -20z"/>
<path d="M6904 8300 c-16 -38 -18 -40 -63 -41 l-46 -1 43 -10 c41 -9 43 -11
37 -36 -14 -62 -14 -65 4 -27 18 37 24 40 68 46 l48 5 -42 8 c-46 9 -48 13
-34 64 13 45 4 40 -15 -8z"/>
<path d="M5295 8178 c-15 -62 -30 -116 -34 -119 -3 -4 -40 10 -82 30 -175 84
-176 83 -27 -12 l91 -58 -34 -37 c-19 -20 -59 -64 -89 -96 -49 -53 -51 -56
-15 -28 22 17 67 53 100 81 70 59 62 63 132 -72 25 -48 47 -86 49 -84 2 2 -16
53 -40 113 l-44 109 56 11 c32 7 90 17 130 24 40 7 72 14 69 16 -2 2 -59 0
-128 -5 -68 -4 -126 -7 -128 -5 -2 2 4 55 13 120 10 64 15 118 13 120 -3 3
-17 -46 -32 -108z"/>
<path d="M6443 8258 l-32 -31 -38 28 -38 28 33 -35 33 -35 -31 -38 c-41 -51
-37 -59 5 -12 35 41 41 41 82 4 13 -11 26 -18 29 -15 3 4 -8 16 -25 29 -38 28
-38 33 -5 76 31 41 28 42 -13 1z"/>
<path d="M3099 8193 c-2 -40 -7 -74 -10 -77 -3 -3 -33 4 -68 14 -89 28 -98 24
-19 -8 36 -15 69 -30 73 -34 4 -3 -11 -33 -32 -65 -55 -81 -61 -94 -22 -48 19
22 45 53 59 68 l26 29 47 -61 c27 -34 50 -61 53 -61 2 0 -14 30 -37 66 -48 75
-50 72 49 105 35 12 62 23 60 25 -2 2 -37 -5 -78 -16 -41 -11 -76 -18 -77 -16
-2 2 -7 36 -11 77 l-8 74 -5 -72z"/>
<path d="M4195 8170 c-43 -49 -83 -86 -89 -83 -6 4 -51 33 -101 65 l-90 59 87
-81 87 -82 -65 -99 c-35 -54 -62 -99 -60 -99 2 0 36 37 76 83 40 45 77 83 81
85 4 2 34 -14 66 -35 32 -22 76 -50 98 -63 36 -21 34 -17 -20 31 -33 30 -73
66 -89 80 l-29 26 66 101 c37 56 65 102 63 102 -2 0 -38 -40 -81 -90z"/>
<path d="M7405 7985 c-4 -74 -11 -137 -16 -140 -4 -3 -62 22 -129 55 -66 33
-120 58 -120 55 0 -2 42 -32 93 -66 157 -106 154 -85 26 -169 -60 -41 -112
-77 -115 -82 -3 -5 49 18 116 52 66 33 125 58 129 55 5 -2 12 -66 16 -140 4
-75 9 -135 11 -133 2 2 8 64 14 138 5 73 12 135 14 137 2 2 36 -12 75 -31 82
-42 181 -86 181 -82 0 2 -50 36 -110 76 -61 39 -112 76 -115 81 -3 4 43 40
102 80 59 39 113 76 118 81 11 10 -110 -44 -194 -87 -29 -14 -55 -24 -57 -22
-2 2 -9 64 -14 137 -6 74 -12 135 -14 137 -2 2 -7 -57 -11 -132z"/>
<path d="M11476 7967 c-22 -62 -42 -115 -45 -119 -4 -4 -31 7 -61 25 -110 67
-150 89 -150 84 0 -2 43 -37 96 -77 53 -39 94 -73 92 -74 -63 -54 -187 -166
-183 -166 3 0 51 32 106 70 l100 70 28 -62 c15 -35 38 -89 51 -120 13 -32 25
-56 27 -54 2 1 -13 56 -33 120 -20 65 -33 120 -30 124 3 3 59 11 124 17 l117
11 -122 8 c-92 6 -123 11 -123 21 0 7 11 61 25 120 14 59 24 109 23 111 -2 1
-21 -48 -42 -109z"/>
<path d="M6730 8058 c0 -4 11 -38 25 -74 14 -37 24 -68 23 -69 -2 -2 -41 -10
-88 -19 l-85 -15 88 5 c99 6 95 11 76 -90 -15 -81 -6 -80 16 1 10 38 21 72 26
77 4 5 37 -8 72 -28 89 -49 96 -45 14 9 -37 25 -67 49 -67 52 0 4 26 34 58 67
l57 59 -66 -51 c-37 -29 -70 -52 -73 -52 -3 0 -21 30 -40 68 -19 37 -35 64
-36 60z"/>
<path d="M3746 8023 c-4 -10 -35 -69 -69 -131 l-63 -112 -88 110 c-82 103
-119 141 -82 86 27 -42 116 -195 122 -209 4 -12 -20 -18 -113 -32 -65 -10
-121 -20 -125 -24 -4 -3 52 -4 124 -2 107 2 130 1 126 -10 -44 -110 -98 -253
-96 -255 2 -1 34 53 72 122 l68 124 75 -93 c41 -50 82 -99 90 -107 17 -16 13
-9 -76 140 l-51 85 130 21 c71 11 132 23 135 26 3 3 -55 3 -130 0 -76 -3 -135
-1 -135 4 0 5 23 67 50 138 28 71 49 131 46 133 -2 3 -7 -4 -10 -14z"/>
<path d="M6530 7977 c0 -3 7 -20 15 -39 l14 -35 -40 -18 c-49 -23 -44 -32 6
-11 21 9 38 16 40 16 1 0 10 -18 20 -40 23 -50 32 -46 10 5 -8 21 -14 39 -13
40 2 2 22 12 46 24 57 29 53 35 -7 11 l-49 -19 -12 30 c-11 25 -30 49 -30 36z"/>
<path d="M4330 7957 c0 -3 25 -54 56 -112 41 -76 53 -109 45 -114 -7 -5 -58
-20 -114 -36 -56 -15 -105 -31 -110 -34 -4 -4 49 3 118 15 l125 21 1 -121 1
-121 17 112 c10 62 20 115 23 118 3 3 56 -12 119 -34 62 -22 114 -39 116 -38
1 2 -47 27 -107 57 -61 30 -110 57 -110 60 0 4 34 51 76 106 l76 99 -95 -94
c-85 -84 -96 -92 -105 -75 -16 31 -132 198 -132 191z"/>
<path d="M6008 7852 c-3 -40 -7 -75 -10 -77 -2 -3 -35 4 -73 15 -38 11 -70 18
-72 16 -2 -1 28 -15 67 -30 38 -15 70 -30 70 -32 0 -3 -17 -31 -38 -62 -68
-101 -62 -97 43 26 l20 23 50 -65 c27 -36 51 -66 53 -66 4 0 -15 35 -49 88
-16 25 -29 49 -29 53 0 4 30 17 66 30 78 28 72 36 -11 14 -32 -8 -60 -13 -63
-11 -2 3 -7 38 -11 78 l-7 73 -6 -73z"/>
<path d="M5317 7580 l-78 -90 -87 58 c-144 97 -148 95 -27 -9 47 -40 85 -76
85 -80 0 -4 -27 -49 -60 -100 l-61 -94 80 85 79 84 69 -45 c37 -25 82 -54 98
-64 29 -17 29 -16 -5 16 -20 19 -59 55 -87 80 l-51 46 57 89 c71 111 73 114
69 114 -2 0 -38 -41 -81 -90z"/>
<path d="M2080 7639 c0 -4 7 -23 15 -42 8 -20 15 -39 15 -42 0 -3 -18 -12 -40
-21 -23 -9 -39 -19 -36 -22 3 -2 23 3 45 12 l41 16 20 -40 c25 -49 34 -52 14
-5 -20 48 -19 52 24 74 44 24 36 27 -13 6 -38 -15 -38 -15 -73 50 -6 11 -12
17 -12 14z"/>
<path d="M8095 7615 c2 -11 7 -32 10 -46 6 -23 2 -28 -32 -43 l-38 -16 35 6
c19 3 39 7 43 8 5 0 17 -19 28 -44 11 -25 17 -34 14 -20 -18 81 -19 75 22 93
27 12 30 15 11 12 -14 -3 -33 -8 -42 -11 -12 -4 -21 6 -36 37 -11 24 -18 35
-15 24z"/>
<path d="M6994 7449 c-16 -55 -32 -105 -35 -111 -4 -7 -42 -5 -114 7 -59 9
-109 15 -111 12 -2 -2 41 -16 95 -32 55 -15 104 -31 110 -34 7 -5 6 -40 -5
-110 -8 -57 -13 -105 -11 -107 2 -2 16 40 32 93 15 54 31 102 35 106 4 4 53 1
109 -8 56 -9 106 -15 112 -13 6 2 -36 16 -93 32 -56 16 -107 32 -112 36 -4 5
0 56 9 115 9 59 15 109 13 111 -2 2 -17 -42 -34 -97z"/>
<path d="M2604 7419 l-31 -31 -44 22 -44 22 35 -30 35 -30 -22 -31 c-33 -44
-28 -50 11 -12 l35 34 37 -22 c48 -28 55 -21 9 10 -39 27 -41 31 -19 49 14 13
38 50 32 50 -2 0 -17 -14 -34 -31z"/>
<path d="M1133 7215 c-37 -69 -70 -125 -73 -124 -3 0 -38 43 -79 95 -77 97
-122 145 -88 92 83 -130 127 -212 118 -218 -6 -3 -71 -15 -144 -26 l-132 -19
146 -3 147 -3 -53 -134 c-29 -74 -52 -135 -50 -135 2 0 34 56 72 125 37 68 71
123 74 122 4 -1 41 -45 84 -97 42 -52 82 -99 88 -105 11 -11 -24 53 -89 160
-23 38 -41 72 -39 74 3 2 64 14 137 26 l133 23 -137 1 c-76 0 -138 4 -138 9 0
6 24 71 81 215 10 26 17 47 15 47 -2 0 -35 -56 -73 -125z"/>
<path d="M6140 7305 c-11 -33 -14 -35 -58 -36 l-47 -1 43 -10 c33 -7 42 -13
38 -26 -3 -9 -8 -30 -11 -47 -4 -25 -4 -26 5 -10 5 11 14 32 19 46 9 24 13 26
63 23 l53 -3 -48 11 -49 12 6 38 c8 48 1 49 -14 3z"/>
<path d="M2342 7240 c-1 -25 -5 -61 -8 -81 l-6 -37 -67 19 c-91 26 -98 23 -19
-9 36 -15 69 -30 72 -33 4 -3 -9 -28 -27 -55 -54 -79 -53 -83 4 -21 l54 59 39
-51 c41 -55 71 -82 45 -41 -49 78 -61 102 -53 109 5 5 40 19 77 31 38 12 66
24 64 27 -3 2 -39 -5 -81 -15 l-76 -20 -5 22 c-3 11 -6 48 -8 81 -3 49 -4 52
-5 15z"/>
<path d="M4150 7250 c-5 -35 -5 -35 -55 -33 l-50 1 48 -10 47 -11 1 -46 c1
-49 4 -47 13 9 6 35 7 35 53 33 l48 -1 -47 10 c-44 11 -47 13 -50 47 l-4 36
-4 -35z"/>
<path d="M1830 7158 c72 -136 82 -117 -83 -163 -53 -15 -96 -29 -94 -31 2 -2
53 5 113 16 60 11 115 20 123 20 12 0 13 -22 8 -131 -4 -73 -4 -130 -2 -127 3
2 12 56 21 119 8 63 17 119 19 126 3 10 80 -13 218 -66 15 -6 27 -8 27 -5 0 3
-52 30 -115 60 l-116 55 82 107 82 107 -95 -93 -95 -94 -68 99 c-94 135 -96
135 -25 1z"/>
<path d="M5705 7130 c-37 -66 -70 -120 -73 -120 -4 0 -45 47 -92 105 -46 58
-85 105 -87 105 -5 0 10 -25 81 -143 32 -54 57 -99 55 -101 -2 -2 -67 -14
-144 -25 -76 -12 -141 -24 -144 -26 -2 -3 64 -2 147 2 l152 6 -14 -39 c-8 -21
-32 -85 -54 -141 -22 -57 -38 -103 -36 -103 1 0 34 56 71 125 37 69 71 125 74
125 4 0 44 -45 89 -100 44 -55 84 -100 86 -100 6 0 -3 15 -88 154 -27 43 -47
80 -46 81 2 1 66 12 142 24 77 12 142 23 144 26 2 2 -62 1 -142 -2 -87 -4
-146 -2 -146 3 0 9 27 82 79 212 11 28 19 52 17 52 -3 0 -34 -54 -71 -120z"/>
<path d="M3457 7166 c-4 -44 -9 -81 -12 -84 -2 -3 -32 3 -67 13 -34 9 -69 19
-77 21 -22 6 35 -22 92 -46 l48 -20 -39 -57 c-48 -73 -60 -95 -32 -63 12 14
38 43 58 64 l35 40 26 -34 c14 -19 37 -45 50 -59 l23 -26 -14 25 c-8 14 -24
42 -37 62 -12 21 -20 42 -17 47 3 5 35 19 71 32 35 12 63 24 61 26 -2 2 -31
-3 -64 -11 -94 -25 -91 -27 -94 67 l-3 82 -8 -79z"/>
<path d="M6651 7100 c-4 -82 -19 -242 -24 -246 -3 -3 -59 22 -126 55 -66 34
-124 61 -128 61 -3 0 46 -36 110 -80 64 -45 117 -83 117 -85 0 -2 -53 -40
-117 -85 -64 -44 -113 -80 -110 -80 4 0 62 27 128 61 67 33 123 58 126 55 3
-2 9 -60 14 -128 10 -126 16 -166 19 -113 4 93 17 236 22 241 3 3 60 -22 127
-55 66 -34 124 -61 127 -61 4 0 -44 35 -106 78 -62 43 -113 82 -113 87 0 6 51
45 113 88 62 42 110 77 107 77 -4 0 -62 -27 -128 -61 -67 -33 -124 -58 -127
-55 -3 4 -9 61 -14 129 -9 133 -15 172 -17 117z"/>
<path d="M7335 6620 c3 -14 8 -34 11 -46 4 -17 -2 -24 -33 -37 -27 -12 -31
-15 -11 -12 14 3 33 7 41 11 10 3 19 -7 30 -33 17 -41 23 -31 7 12 -9 25 -7
27 43 50 60 27 59 32 -3 10 -23 -8 -44 -15 -47 -15 -2 0 -13 19 -24 43 -11 23
-17 31 -14 17z"/>
<path d="M934 2300 c10 -54 42 -111 87 -158 45 -47 63 -49 33 -5 -10 15 -43
66 -72 113 -46 72 -54 80 -48 50z"/>
</g>
</svg>
