<?xml version="1.0" standalone="no"?>
<!DOCTYPE svg PUBLIC "-//W3C//DTD SVG 20010904//EN"
 "http://www.w3.org/TR/2001/REC-SVG-20010904/DTD/svg10.dtd">
<svg version="1.0" xmlns="http://www.w3.org/2000/svg"
 width="1280.000000pt" height="1215.000000pt" viewBox="0 0 1280.000000 1215.000000"
 preserveAspectRatio="xMidYMid meet">
<metadata>
Created by potrace 1.15, written by Peter Selinger 2001-2017
</metadata>
<g transform="translate(0.000000,1215.000000) scale(0.100000,-0.100000)"
fill="#000000" stroke="none">
<path d="M221 12126 c2 -2 371 -322 819 -711 448 -389 817 -710 819 -712 3 -2
-30 -74 -71 -161 -42 -86 -115 -258 -163 -382 -144 -375 -168 -415 -372 -641
-145 -161 -183 -210 -227 -290 -90 -165 -81 -355 26 -521 88 -137 284 -293
533 -424 96 -51 117 -59 165 -58 99 0 205 67 252 158 11 22 23 67 25 100 7 78
33 128 86 167 103 76 261 114 596 145 l74 6 -8 -98 c-14 -198 -49 -304 -170
-519 -118 -211 -153 -287 -219 -483 -106 -312 -198 -528 -441 -1033 -206 -427
-227 -485 -260 -709 -20 -139 -38 -197 -75 -249 -75 -103 -337 -216 -580 -250
-41 -6 -142 -15 -225 -21 -316 -22 -438 -44 -562 -105 -114 -56 -189 -154
-224 -295 -9 -35 -14 -105 -13 -190 1 -160 17 -227 118 -509 97 -272 120 -369
120 -521 1 -98 -5 -160 -29 -285 -25 -135 -29 -186 -30 -325 0 -183 13 -241
62 -280 36 -28 81 -25 187 12 84 30 100 32 216 31 118 0 137 -3 325 -53 287
-75 357 -72 419 20 44 64 58 132 63 313 6 190 -4 279 -46 399 -40 110 -85 182
-176 275 -121 124 -152 127 -316 32 -73 -42 -101 -53 -138 -53 l-46 -1 -14
185 c-28 370 17 504 164 488 73 -9 117 -38 240 -163 66 -66 137 -129 157 -138
76 -35 245 -66 753 -137 457 -64 663 -150 920 -388 61 -56 176 -149 256 -207
235 -168 242 -184 373 -840 74 -372 158 -841 176 -988 8 -60 11 -164 7 -275
-4 -148 -9 -193 -31 -277 -50 -192 -114 -323 -315 -645 -150 -240 -218 -354
-265 -447 l-26 -52 38 -8 c50 -10 523 -10 744 1 128 6 175 11 172 20 -9 24 47
210 143 471 55 149 103 286 107 305 4 19 11 102 16 183 11 171 1 431 -30 757
-52 538 -59 717 -40 1020 34 546 109 843 279 1102 65 101 84 113 169 107 314
-20 524 19 1077 201 353 116 438 140 605 174 114 23 406 55 413 45 2 -2 50
-60 107 -128 404 -484 729 -751 1214 -996 211 -107 269 -169 269 -290 1 -81
-20 -139 -123 -345 -101 -201 -120 -258 -120 -350 0 -130 50 -259 200 -515
111 -190 164 -297 191 -388 18 -59 20 -74 9 -115 -25 -101 -115 -232 -385
-557 -336 -407 -393 -554 -225 -585 214 -40 896 -10 998 44 26 14 26 15 28
132 2 244 51 354 258 584 158 176 193 290 147 472 -26 100 -75 195 -180 351
-171 255 -166 245 -165 312 0 80 33 178 117 349 91 187 93 205 33 318 -55 103
-59 149 -22 213 31 53 68 78 238 159 261 127 286 176 304 601 10 230 14 222
-232 446 -164 149 -191 190 -201 305 -13 163 23 315 207 858 89 262 104 350
96 546 -9 240 -64 454 -217 851 -99 258 -121 320 -116 326 10 9 66 -27 94 -61
99 -120 206 -351 463 -991 221 -553 293 -719 358 -829 52 -87 90 -125 224
-217 268 -188 339 -241 414 -312 105 -99 126 -140 122 -238 -3 -72 -2 -74 25
-87 65 -32 176 22 226 109 16 29 33 74 36 101 4 26 10 48 14 48 15 0 125 -79
256 -185 228 -183 314 -231 362 -200 20 14 23 24 23 85 l0 69 41 -14 c143 -51
279 -167 342 -294 40 -79 47 -132 22 -168 -14 -20 -53 -33 -148 -48 -49 -8
-56 -28 -27 -82 31 -58 90 -108 153 -129 106 -35 257 0 320 75 24 29 47 105
47 155 0 69 -59 307 -107 432 -9 24 34 16 55 -10 10 -14 31 -69 46 -123 16
-54 37 -118 48 -143 l19 -45 21 25 c53 65 98 194 98 282 0 132 -63 272 -211
468 -106 141 -219 306 -219 320 0 5 16 14 35 20 20 6 49 23 65 37 117 98 -103
336 -610 660 -361 230 -444 312 -727 719 -263 380 -329 432 -795 627 -293 123
-408 201 -528 358 -36 47 -81 99 -100 116 -122 106 -344 173 -569 173 -261 -1
-404 -93 -357 -231 8 -24 14 -44 12 -46 -1 -2 -76 13 -167 31 -270 57 -382 70
-609 70 -214 1 -274 -6 -455 -50 -151 -38 -278 -93 -517 -225 -415 -229 -582
-289 -805 -289 -181 0 -257 32 -388 164 -167 167 -233 323 -183 431 6 13 47
53 92 88 94 75 186 169 186 191 0 26 -22 31 -180 37 -179 6 -190 10 -268 93
-62 65 -102 145 -102 201 1 83 47 145 233 308 42 38 84 82 93 99 22 42 11 87
-29 126 -51 49 -79 50 -177 2 -166 -81 -291 -58 -366 68 -24 40 -87 206 -112
298 -2 6 49 32 113 58 133 53 180 81 219 127 26 31 28 38 22 95 -8 80 -31 155
-57 188 -28 36 -64 34 -147 -8 -130 -66 -219 -80 -309 -50 -137 46 -190 150
-258 511 -68 361 -95 446 -155 496 l-32 28 -142 -7 c-128 -6 -147 -4 -203 15
-87 29 -245 122 -260 152 -10 21 -8 44 13 134 34 144 24 198 -41 241 -35 23
-57 11 -98 -51 -43 -67 -71 -70 -129 -17 -71 65 -392 266 -493 308 -29 12 -35
20 -35 44 0 144 -100 308 -223 366 -139 64 -264 1 -323 -165 -9 -25 -19 -54
-23 -64 -5 -15 -16 -4 -56 54 -64 94 -152 189 -175 189 -24 0 -64 -33 -89 -74
-56 -90 -47 -254 24 -427 5 -13 -2 -20 -30 -29 -36 -12 -103 -69 -122 -104
-11 -21 106 -88 -1141 657 -568 340 -696 415 -671 393z"/>
</g>
</svg>
