<?xml version="1.0" standalone="no"?>
<!DOCTYPE svg PUBLIC "-//W3C//DTD SVG 20010904//EN"
 "http://www.w3.org/TR/2001/REC-SVG-20010904/DTD/svg10.dtd">
<svg version="1.0" xmlns="http://www.w3.org/2000/svg"
 width="1280.000000pt" height="1212.000000pt" viewBox="0 0 1280.000000 1212.000000"
 preserveAspectRatio="xMidYMid meet">
<metadata>
Created by potrace 1.15, written by Peter Selinger 2001-2017
</metadata>
<g transform="translate(0.000000,1212.000000) scale(0.100000,-0.100000)"
fill="#000000" stroke="none">
<path d="M5191 12079 c-45 -118 -78 -193 -104 -244 -34 -65 -155 -193 -207
-220 -17 -9 -58 -36 -90 -61 -32 -24 -63 -44 -69 -44 -5 0 -25 -32 -43 -70
-24 -52 -38 -72 -56 -77 -46 -11 -53 30 -21 128 28 82 39 95 124 136 104 50
168 87 172 98 5 15 -132 37 -261 42 -117 5 -152 -4 -192 -49 -33 -36 -47 -67
-64 -148 l-16 -74 -60 -22 c-32 -12 -112 -47 -178 -78 -65 -31 -120 -56 -123
-56 -2 0 -105 -49 -228 -110 -124 -60 -227 -110 -229 -110 -3 0 -27 -13 -53
-28 -26 -16 -74 -39 -106 -52 -32 -13 -72 -37 -89 -52 -18 -15 -36 -28 -40
-28 -5 0 -64 -32 -131 -72 -169 -100 -196 -112 -335 -148 -133 -35 -209 -75
-248 -133 -11 -18 -33 -51 -49 -74 -39 -60 -46 -110 -33 -240 9 -86 9 -121 -1
-153 -18 -60 -27 -55 144 -79 39 -6 117 -10 175 -10 58 -1 141 -6 185 -12 131
-18 127 -16 123 -50 -3 -29 -12 -35 -163 -106 -88 -41 -162 -78 -165 -83 -3
-4 -23 -13 -45 -20 -81 -26 -82 -27 -29 -73 26 -23 55 -49 65 -59 9 -9 26 -19
38 -23 12 -3 21 -11 21 -16 0 -5 5 -9 10 -9 6 0 23 -9 39 -21 16 -12 50 -22
83 -26 65 -7 182 13 199 33 6 8 16 14 21 14 5 0 29 16 52 35 24 19 48 35 54
35 6 0 12 3 14 8 5 12 165 112 212 132 36 16 89 28 304 70 43 8 43 8 130 -66
48 -41 96 -74 108 -74 11 0 47 -9 80 -20 53 -19 66 -20 124 -9 147 27 250 69
338 138 28 23 55 41 59 42 4 0 35 32 67 71 75 88 116 108 116 54 0 -51 -165
-237 -270 -305 -43 -28 -83 -51 -88 -51 -6 0 -41 -15 -79 -34 -37 -19 -92 -37
-121 -40 -29 -4 -63 -11 -75 -16 -12 -5 -33 -11 -47 -14 -32 -7 -293 -261
-397 -386 -174 -210 -231 -293 -467 -677 -138 -224 -177 -281 -229 -328 -68
-63 -223 -244 -268 -314 -15 -24 -42 -78 -60 -120 -17 -42 -35 -80 -39 -85 -8
-8 -145 86 -175 119 -5 6 -52 39 -102 73 -51 35 -93 67 -93 72 0 5 -8 11 -19
15 -23 7 -149 150 -268 305 -70 90 -94 130 -112 185 -33 102 -92 209 -121 219
-8 3 -27 15 -41 27 -26 21 -28 21 -75 5 -27 -8 -94 -21 -149 -27 -101 -11
-173 -34 -210 -69 -11 -11 -52 -81 -90 -156 -65 -126 -79 -146 -189 -263 -65
-69 -132 -144 -148 -166 -67 -91 -400 -405 -429 -405 -23 0 -71 -98 -100 -200
l-31 -111 26 -117 c43 -195 33 -257 -66 -404 -45 -67 -60 -81 -113 -107 -34
-17 -85 -37 -115 -44 l-53 -14 71 -6 c100 -10 119 -19 133 -65 9 -31 8 -62 -5
-153 -28 -200 -29 -216 -17 -223 6 -4 9 -11 6 -16 -16 -26 251 -21 330 6 22 8
49 14 60 14 11 0 53 14 94 30 40 17 79 30 87 30 8 0 22 9 31 20 10 11 23 20
30 20 17 0 61 48 83 91 11 20 27 86 37 146 l19 110 -171 7 c-93 4 -171 8 -171
9 -1 1 -5 18 -9 38 l-7 37 64 20 c34 12 95 30 135 42 l71 20 7 43 c17 101 69
171 185 247 44 29 80 58 80 64 -1 24 -28 103 -52 156 -26 56 -87 121 -134 142
-13 6 -24 18 -24 27 1 32 71 111 216 242 82 74 188 173 235 222 76 76 90 87
121 87 29 0 41 -8 74 -46 21 -25 67 -78 102 -117 34 -40 82 -103 106 -142 105
-170 124 -201 131 -225 4 -14 20 -55 36 -92 16 -37 43 -131 59 -209 34 -159
60 -216 118 -254 49 -32 172 -83 225 -94 23 -5 66 -19 94 -32 29 -12 56 -20
59 -16 4 3 1 63 -6 132 -18 175 -10 249 36 358 31 74 41 87 58 85 17 -2 20 -9
18 -38 -2 -19 -4 -93 -5 -165 -2 -136 22 -303 63 -443 l19 -64 -46 -20 c-38
-17 -57 -19 -127 -13 -44 3 -90 10 -101 15 -11 4 -96 27 -189 49 -134 32 -196
53 -295 99 -204 96 -312 121 -360 85 -59 -44 -89 -87 -140 -199 -73 -162 -75
-191 -23 -354 69 -213 81 -289 102 -605 23 -337 47 -570 62 -600 6 -11 28 -42
49 -69 22 -27 39 -52 39 -57 0 -4 53 -34 118 -67 139 -70 160 -83 235 -142 44
-35 60 -54 68 -85 6 -22 18 -60 27 -85 12 -33 17 -79 17 -172 0 -92 3 -128 12
-128 6 0 15 9 18 20 10 31 48 52 80 44 34 -8 215 -182 241 -230 16 -29 24 -34
55 -34 33 0 41 6 74 50 20 27 59 105 87 171 129 313 130 507 5 646 -52 58 -67
73 -77 73 -3 0 -46 -81 -95 -180 -94 -188 -95 -189 -152 -174 -13 4 -23 14
-23 25 0 31 49 175 90 265 22 47 40 88 40 90 0 2 -10 4 -22 4 -53 0 -93 21
-122 62 -41 59 -45 155 -13 306 l23 113 -30 14 c-52 22 -225 36 -311 24 -112
-15 -110 -17 -125 106 -17 147 -28 518 -15 527 27 20 130 7 250 -33 69 -22
125 -44 125 -50 0 -5 9 -9 19 -9 11 0 26 -6 33 -12 7 -7 39 -26 71 -43 31 -16
57 -33 57 -37 0 -3 13 -9 29 -13 16 -3 32 -13 35 -21 3 -8 10 -14 16 -14 6 0
33 -16 60 -35 27 -19 54 -35 60 -35 5 0 10 -4 10 -8 0 -5 19 -18 43 -30 24
-12 52 -31 62 -42 10 -11 26 -20 37 -20 10 0 18 -4 18 -10 0 -5 11 -12 25 -16
14 -3 25 -10 25 -15 0 -17 270 -145 405 -191 111 -39 159 -50 232 -55 l91 -6
37 39 c51 55 102 145 131 232 27 80 53 250 54 345 0 58 0 58 28 55 24 -3 28
-8 34 -48 12 -83 8 -274 -11 -455 -11 -99 -17 -183 -15 -187 3 -5 10 -8 16 -8
5 0 23 -11 40 -25 16 -14 36 -25 44 -25 8 0 14 -3 14 -7 0 -8 29 -26 108 -70
24 -13 51 -30 59 -38 8 -8 19 -15 24 -15 11 0 16 -4 67 -48 18 -16 58 -39 90
-52 31 -13 64 -29 72 -35 8 -7 40 -25 70 -40 30 -15 73 -40 96 -56 22 -15 53
-31 67 -34 14 -4 31 -13 38 -21 6 -8 19 -14 29 -14 10 0 23 -7 30 -15 7 -8 20
-15 30 -15 10 0 23 -6 29 -14 7 -8 26 -18 42 -21 16 -4 29 -11 29 -16 0 -5 10
-9 22 -9 11 0 36 -11 54 -25 18 -14 36 -25 40 -25 4 0 31 -11 60 -25 77 -36
306 -113 394 -131 41 -9 138 -40 216 -70 77 -30 152 -54 167 -54 15 0 95 -18
179 -39 84 -21 212 -47 283 -56 72 -10 139 -22 150 -26 20 -9 130 -23 305 -39
52 -4 149 -18 216 -29 67 -12 139 -21 162 -21 41 0 132 -33 132 -47 0 -4 9
-109 21 -233 20 -220 45 -349 86 -437 14 -30 14 -36 -5 -73 l-19 -40 -29 43
c-79 120 -188 381 -209 502 -13 71 -26 83 -102 89 -119 9 -276 26 -348 37 -38
6 -115 17 -170 24 -55 7 -120 18 -144 24 -24 7 -46 10 -48 7 -2 -2 9 -42 26
-87 77 -215 162 -396 229 -487 57 -78 262 -306 282 -314 9 -3 20 -13 23 -22 4
-9 13 -16 22 -16 8 0 15 -4 15 -10 0 -5 43 -58 95 -116 68 -76 97 -116 102
-143 4 -20 8 -146 8 -281 0 -314 -9 -362 -93 -472 -31 -41 -109 -150 -172
-243 -155 -227 -255 -344 -360 -422 -203 -152 -242 -186 -308 -270 -120 -155
-152 -185 -234 -215 -86 -32 -183 -58 -215 -58 -27 0 -30 -12 -7 -31 27 -22
13 -110 -36 -219 -65 -147 -98 -232 -102 -264 -3 -28 0 -31 52 -47 30 -10 82
-23 116 -28 73 -13 261 -13 329 0 28 5 77 12 110 15 67 7 148 49 202 106 38
40 98 137 114 186 13 39 3 52 -41 52 -14 0 -82 10 -152 22 l-128 23 0 42 c0
70 15 77 147 69 157 -9 192 1 254 68 28 30 72 65 101 79 58 28 207 70 308 87
119 19 110 12 110 83 0 84 -15 132 -62 199 l-41 58 130 172 c225 299 299 373
441 433 95 41 260 140 323 194 22 18 51 56 65 83 l26 51 -16 81 c-9 44 -25
142 -36 216 -11 74 -22 145 -25 157 -4 19 -1 23 16 23 12 0 29 -7 38 -15 21
-20 100 -74 176 -122 66 -41 141 -94 166 -118 9 -8 22 -15 29 -15 7 0 21 -6
29 -13 23 -19 210 -103 259 -116 23 -7 44 -16 47 -21 3 -6 19 -10 36 -10 32 0
49 -16 234 -225 138 -155 213 -249 225 -280 8 -20 5 -39 -10 -83 -12 -31 -33
-93 -47 -137 -32 -96 -176 -383 -258 -514 -33 -52 -104 -142 -162 -205 -57
-61 -136 -156 -176 -211 -112 -154 -151 -189 -281 -251 -50 -23 -120 -52 -156
-64 -36 -11 -71 -23 -79 -26 -11 -3 -10 -9 3 -28 8 -14 16 -37 18 -53 4 -61
-80 -254 -153 -350 -62 -82 -60 -85 93 -123 117 -30 295 -41 461 -30 119 9
147 14 195 38 75 36 153 115 191 194 42 87 47 113 24 123 -18 8 -158 29 -291
44 -39 4 -75 10 -78 13 -7 8 35 90 55 106 12 10 54 12 177 9 142 -4 162 -3
171 12 6 9 39 52 74 95 70 88 149 146 226 165 26 7 55 16 63 19 8 3 60 11 114
17 99 10 100 10 108 40 21 74 -12 163 -92 247 -80 83 -81 92 -30 216 68 168
170 391 211 459 21 34 84 121 141 193 182 231 219 307 225 470 l4 105 -60 63
c-34 34 -65 62 -69 62 -5 0 -19 11 -32 25 -13 14 -28 25 -34 25 -12 1 -158
181 -202 250 -16 25 -56 83 -90 130 -33 47 -72 105 -87 130 -15 25 -42 55 -61
68 -19 13 -39 36 -46 52 -15 36 -5 55 198 395 260 434 371 699 403 956 12 102
-1 220 -33 307 l-21 55 24 19 c17 13 38 17 73 16 l49 -3 43 -70 c24 -38 53
-75 64 -81 11 -6 34 -23 50 -38 17 -15 44 -29 60 -33 16 -3 27 -9 25 -14 -3
-4 10 -11 29 -15 20 -3 40 -12 46 -19 6 -8 25 -17 41 -20 16 -4 29 -10 29 -15
0 -5 9 -12 20 -15 21 -7 79 -55 66 -55 -3 0 0 -13 9 -30 23 -45 18 -119 -14
-209 -15 -45 -27 -81 -25 -81 1 0 26 42 55 93 28 50 65 111 81 133 25 35 30
54 36 129 8 97 20 114 49 67 10 -16 33 -46 52 -68 l35 -39 118 -4 c65 -2 118
-7 118 -11 0 -9 66 -50 81 -50 10 0 12 56 3 124 -6 39 -17 58 -77 124 -38 42
-78 97 -89 122 -11 25 -43 68 -70 96 -45 46 -48 53 -30 58 23 8 72 -9 72 -24
0 -5 10 -10 22 -10 12 0 30 -8 41 -17 16 -15 36 -18 114 -16 79 2 102 -1 136
-18 44 -23 107 -20 132 5 8 7 49 16 96 19 45 4 84 9 87 11 2 3 2 16 -2 29 -10
43 -58 84 -120 103 -41 13 -73 32 -108 66 -36 34 -59 48 -79 48 -46 0 -52 62
-6 74 37 10 122 7 158 -6 19 -6 52 -23 74 -36 55 -35 94 -32 168 14 34 21 68
44 75 51 7 7 27 13 42 13 28 0 29 1 18 26 -14 31 -75 64 -118 64 -18 0 -33 6
-36 15 -4 8 -15 15 -26 15 -10 0 -38 21 -61 46 -23 25 -63 59 -89 76 -68 45
-63 58 21 58 39 0 72 4 76 9 3 6 36 24 73 42 72 35 174 51 195 30 27 -27 147
3 164 41 12 26 -18 58 -86 92 -26 14 -71 43 -99 66 l-53 41 -172 -2 c-142 -2
-176 0 -197 13 -34 21 -152 42 -195 34 -19 -4 -70 -18 -112 -31 -88 -28 -103
-30 -103 -12 0 34 118 124 230 176 50 23 70 25 240 31 102 3 194 11 205 17 11
5 38 19 60 29 22 10 57 32 77 48 l37 29 105 -9 c104 -9 106 -9 158 19 29 15
62 37 74 48 16 15 35 19 98 19 63 0 83 4 103 20 14 11 31 20 37 20 6 0 19 12
29 25 17 24 17 25 -10 39 -16 8 -75 44 -133 80 l-105 66 -76 0 c-59 0 -78 3
-83 15 -3 8 -15 15 -26 15 -11 0 -20 5 -20 10 0 6 13 10 28 10 33 0 152 39
152 49 0 14 135 71 166 71 16 0 48 -9 72 -20 87 -39 116 -43 164 -18 24 12 44
22 44 22 1 1 5 11 8 24 6 18 4 22 -14 22 -34 0 -82 25 -120 61 -70 67 -142 98
-243 106 -73 6 -86 10 -127 41 -25 19 -78 51 -119 70 -73 35 -74 36 -52 53 25
20 74 17 130 -8 53 -24 129 -11 225 36 78 39 147 53 160 32 3 -4 25 -11 48
-15 23 -4 48 -12 55 -18 17 -14 158 -5 194 12 27 12 75 68 66 76 -2 2 -30 11
-61 19 -80 21 -122 45 -193 109 -33 31 -70 56 -81 56 -11 0 -25 6 -31 14 -9
11 -51 15 -174 18 -159 4 -163 4 -222 35 -33 18 -72 35 -88 39 -15 3 -30 10
-33 15 -3 5 -18 9 -34 9 -35 0 -62 9 -55 20 2 4 -32 10 -77 13 -44 4 -83 9
-86 12 -11 10 32 45 77 61 25 10 50 21 56 26 13 12 249 10 261 -2 6 -6 44 -15
85 -20 41 -5 94 -14 119 -19 25 -6 112 -10 194 -11 148 0 148 0 208 32 35 18
65 43 74 59 8 16 22 32 31 38 15 8 18 24 18 83 0 83 -28 153 -96 244 -48 63
-53 104 -11 104 15 0 56 -9 90 -20 77 -24 147 -26 156 -5 3 8 10 15 17 15 16
0 47 41 55 74 11 49 -57 167 -141 241 -117 105 -233 195 -250 195 -21 0 -52
17 -88 46 -16 13 -33 24 -38 24 -23 0 -4 -21 63 -71 117 -87 203 -182 223
-248 21 -70 10 -113 -27 -104 -13 3 -31 12 -40 20 -24 21 -188 23 -213 3 -28
-23 -45 -74 -45 -132 0 -42 7 -62 30 -97 35 -51 36 -64 11 -111 -13 -25 -27
-37 -52 -42 -43 -9 -118 1 -144 18 -11 8 -36 14 -56 14 -24 0 -39 5 -43 15 -3
8 -13 15 -22 15 -25 0 -353 110 -359 120 -4 6 -19 10 -34 10 -16 0 -73 14
-127 32 -98 31 -101 31 -314 32 -182 1 -224 -2 -275 -17 -165 -52 -239 -128
-429 -444 -37 -62 -71 -113 -77 -113 -5 0 -9 -6 -9 -14 0 -17 -26 -39 -40 -34
-7 2 12 50 45 114 51 100 57 117 57 176 0 84 -20 129 -102 220 -124 138 -185
193 -273 243 -48 27 -87 52 -87 56 0 10 -31 20 -42 13 -9 -6 30 -36 78 -59 24
-11 234 -232 232 -243 -1 -4 4 -27 11 -52 33 -113 -11 -186 -207 -345 -155
-126 -217 -319 -178 -556 23 -139 85 -345 180 -600 102 -272 129 -375 130
-489 1 -112 -20 -323 -38 -384 -16 -53 -62 -126 -80 -126 -6 0 -29 -18 -51
-40 -29 -28 -49 -39 -72 -40 -17 0 -38 -6 -45 -14 -10 -10 -53 -15 -149 -18
l-134 -5 -105 41 c-58 22 -107 44 -108 49 -2 4 -29 25 -60 46 -68 46 -260 207
-311 259 -55 56 -180 155 -236 187 -27 15 -83 50 -122 77 -109 73 -163 94
-298 113 -119 16 -408 81 -495 110 -25 8 -56 15 -70 15 -14 0 -35 6 -46 14
-11 8 -41 17 -67 21 -26 4 -47 11 -47 15 0 4 -30 15 -66 24 -36 9 -88 28 -115
41 -26 14 -57 25 -67 25 -10 0 -22 4 -28 9 -5 5 -81 35 -169 67 -88 32 -166
64 -173 71 -7 7 -22 13 -32 13 -10 0 -21 4 -24 9 -4 5 -34 23 -69 40 -176 87
-295 159 -352 213 -16 16 -40 31 -52 34 -13 4 -23 12 -23 19 0 7 -29 30 -65
51 -35 22 -65 46 -65 54 0 8 -45 48 -99 88 -132 98 -145 117 -139 197 9 101
42 161 137 241 72 61 91 72 173 98 51 15 110 35 131 44 37 15 49 32 22 32 -8
0 -19 9 -24 19 -7 11 -46 32 -98 50 -114 41 -170 70 -189 100 -13 20 -14 25
-3 32 18 12 74 2 121 -22 50 -26 164 -51 197 -45 28 6 246 28 271 28 8 0 38
-6 65 -12 58 -13 158 -4 152 13 -6 19 -168 139 -198 147 -16 5 -58 12 -95 15
-37 4 -79 14 -93 21 -14 8 -35 14 -47 14 -11 0 -38 13 -60 30 -21 16 -44 30
-50 30 -18 0 -67 58 -59 70 9 15 54 9 155 -20 68 -19 82 -20 155 -9 44 6 89
17 101 24 15 10 83 14 245 17 123 1 230 7 237 11 30 20 -50 77 -107 77 -11 0
-26 7 -35 15 -8 8 -18 15 -21 15 -4 0 -35 13 -69 29 -58 27 -299 81 -364 81
-32 0 -141 86 -141 111 -1 14 14 17 89 21 66 3 93 8 102 20 10 12 39 17 112
21 54 3 103 10 108 15 5 5 -7 16 -29 28 -21 10 -39 22 -41 27 -2 4 -14 7 -26
7 -13 0 -49 9 -81 20 -32 11 -69 20 -82 20 -12 0 -23 4 -23 10 0 5 -11 12 -24
16 -14 3 -33 15 -43 26 -17 19 -17 20 2 35 16 12 37 13 110 7 50 -3 131 -7
180 -8 80 -1 96 3 143 27 30 15 60 27 68 27 8 0 17 7 20 15 9 22 115 19 227
-6 92 -21 193 -21 206 -1 3 5 16 14 29 21 37 20 28 49 -20 61 -24 7 -83 30
-131 52 -52 23 -116 44 -155 50 -37 5 -92 13 -122 18 -30 5 -94 9 -141 9 -60
1 -90 5 -98 15 -6 7 -32 16 -57 19 -26 2 -49 9 -53 14 -3 6 -22 15 -41 22 -19
6 -51 25 -70 41 l-35 29 40 2 c22 0 96 0 165 0 120 -2 130 0 260 39 182 56
199 59 396 59 143 1 173 4 178 16 3 8 13 15 23 15 15 0 51 38 41 44 -2 1 -30
10 -63 20 -33 10 -98 37 -144 59 l-84 42 -141 -5 c-270 -9 -318 -6 -392 29
-86 40 -184 100 -184 112 0 5 18 22 40 37 21 15 39 33 40 39 0 7 -16 21 -36
30 -20 10 -36 22 -36 28 1 5 65 26 144 46 109 28 156 45 198 73 53 35 57 36
152 36 154 0 314 42 357 93 8 10 7 18 -3 32 -9 13 -32 20 -87 25 -48 4 -93 16
-129 33 -117 56 -263 69 -420 37 -59 -12 -256 -4 -265 10 -3 5 -29 14 -58 20
-29 7 -61 18 -72 26 -18 13 -18 14 0 34 23 25 123 74 185 90 24 7 69 21 98 32
48 18 52 21 35 33 -10 7 -58 25 -108 40 -73 22 -120 29 -242 35 -104 5 -166
13 -197 25 -73 28 -54 37 131 59 107 13 120 17 255 82 l143 69 80 -3 c44 -1
109 3 145 9 57 10 69 16 93 48 l28 36 -67 3 c-38 2 -76 9 -88 17 -11 8 -39 15
-63 15 -23 0 -48 6 -55 14 -8 7 -30 17 -49 21 -19 4 -39 11 -45 16 -6 5 -39
13 -75 18 -35 6 -102 17 -149 26 -68 13 -148 16 -405 14 -176 -1 -324 -1 -329
0 -16 2 28 42 68 63 21 11 84 33 140 50 56 17 106 34 111 38 6 4 23 10 39 14
15 4 26 10 22 13 -3 4 7 12 23 19 16 7 37 27 46 44 18 35 14 50 -9 31 -10 -9
-37 -8 -112 5 -55 9 -107 20 -116 25 -10 5 -23 9 -30 9 -7 0 -26 8 -43 18 -26
15 -57 17 -252 15 -126 0 -223 3 -223 8 0 5 51 33 113 64 102 50 147 76 147
86 0 2 -42 3 -92 1 -82 -2 -292 16 -385 34 -65 12 -78 2 -89 -73 -6 -37 -26
-140 -44 -227 -24 -116 -30 -161 -21 -164 6 -2 18 -10 25 -18 8 -8 18 -14 22
-14 7 0 125 -101 221 -190 77 -72 261 -315 338 -444 160 -273 245 -514 274
-778 33 -299 -11 -821 -104 -1239 -35 -157 -185 -712 -205 -756 -11 -27 -45
-30 -54 -5 -6 18 -30 62 -59 106 -23 35 -21 88 7 176 35 107 151 545 186 700
73 321 94 503 87 738 -8 241 -19 334 -61 492 -50 193 -89 298 -163 440 -76
146 -82 155 -183 280 -42 52 -87 111 -100 130 -13 19 -33 41 -45 49 -11 8 -51
45 -88 83 -37 37 -73 68 -80 68 -7 0 -35 18 -62 40 -68 55 -60 49 -152 105
-46 27 -83 53 -83 57 0 4 15 8 34 8 83 0 120 86 166 382 31 205 51 379 44 387
-2 2 -8 -7 -13 -20z m-1136 -1020 c59 -42 71 -98 39 -178 -17 -44 -32 -51
-112 -51 -52 0 -54 1 -127 70 -67 63 -78 70 -115 70 -48 0 -50 18 -4 33 16 6
31 13 34 17 3 3 45 16 94 28 49 12 96 27 105 32 26 15 40 12 86 -21z m-1191
-504 c3 -8 12 -15 20 -15 22 0 49 -57 49 -103 0 -80 -44 -117 -139 -117 l-56
0 36 40 c20 22 36 46 36 53 0 6 -10 32 -23 57 -21 43 -25 45 -72 50 -49 6 -49
6 -22 18 15 6 27 16 27 22 0 6 29 10 69 10 52 0 70 -4 75 -15z"/>
</g>
</svg>
