<?xml version="1.0" standalone="no"?>
<!DOCTYPE svg PUBLIC "-//W3C//DTD SVG 20010904//EN"
 "http://www.w3.org/TR/2001/REC-SVG-20010904/DTD/svg10.dtd">
<svg version="1.0" xmlns="http://www.w3.org/2000/svg"
 width="783.000000pt" height="1280.000000pt" viewBox="0 0 783.000000 1280.000000"
 preserveAspectRatio="xMidYMid meet">
<metadata>
Created by potrace 1.15, written by Peter Selinger 2001-2017
</metadata>
<g transform="translate(0.000000,1280.000000) scale(0.100000,-0.100000)"
fill="#000000" stroke="none">
<path d="M4495 12718 c-199 -249 -305 -523 -305 -786 0 -99 23 -235 58 -337
16 -49 29 -91 28 -92 0 -1 -41 9 -91 22 -77 20 -94 28 -126 62 -40 44 -76 129
-90 216 -13 77 3 193 45 343 18 65 37 135 40 154 l7 35 -24 -40 c-13 -22 -50
-80 -82 -130 -89 -136 -135 -263 -135 -370 0 -25 -3 -45 -7 -45 -5 0 -34 20
-65 45 -141 111 -241 299 -322 605 l-25 95 -1 -181 c0 -229 16 -327 71 -442
48 -100 142 -201 260 -280 42 -28 79 -59 83 -68 4 -10 9 -58 13 -108 6 -99
-12 -229 -44 -324 l-19 -53 -116 100 c-174 150 -258 266 -336 459 -77 192
-149 569 -178 937 l-7 90 -38 -80 c-104 -220 -127 -546 -57 -814 11 -42 48
-143 83 -226 94 -222 116 -278 110 -284 -8 -8 -241 17 -325 35 -324 68 -571
224 -743 466 -55 78 -127 205 -157 278 -13 30 -26 58 -29 62 -11 13 -1 -184
14 -293 42 -294 162 -457 446 -598 118 -60 199 -85 445 -141 413 -93 700 -225
874 -404 43 -44 43 -46 25 -61 -45 -35 -226 -117 -300 -136 -59 -15 -116 -21
-217 -22 -76 -1 -138 -4 -138 -7 0 -15 149 -102 198 -116 85 -25 197 -20 327
15 61 16 162 42 225 59 153 40 244 52 408 52 288 0 551 -76 824 -240 257 -153
579 -414 616 -499 19 -43 31 -341 14 -341 -5 0 -13 7 -16 16 -16 42 -163 251
-209 297 -68 68 -156 126 -236 154 -35 13 -65 22 -67 21 -1 -2 -7 -47 -13 -99
-17 -168 5 -266 94 -420 31 -54 45 -87 39 -95 -5 -6 -69 -83 -143 -170 -294
-350 -377 -531 -397 -866 l-7 -113 -75 -80 c-179 -193 -293 -423 -382 -768
l-38 -148 -83 -95 c-46 -52 -101 -120 -123 -152 -58 -87 -131 -244 -173 -372
l-37 -115 -135 -155 c-244 -280 -508 -532 -747 -712 -51 -39 -116 -67 -405
-178 l-344 -131 -300 -180 -300 -179 -154 -185 c-85 -102 -159 -185 -165 -185
-6 0 -60 7 -121 15 -60 8 -112 11 -116 7 -11 -11 -39 -186 -46 -283 -10 -147
34 -282 147 -448 l41 -61 -7 -325 c-4 -179 -8 -325 -9 -325 -2 0 -22 9 -46 20
-53 23 -163 27 -213 6 -77 -32 -100 -110 -116 -393 -10 -185 -22 -267 -91
-607 -88 -435 -186 -778 -292 -1021 l-43 -100 -103 -5 c-129 -6 -140 -20 -105
-124 9 -26 14 -49 12 -51 -2 -3 -29 0 -59 4 -29 5 -55 8 -57 6 -10 -9 -65
-224 -77 -300 -26 -156 -15 -323 21 -350 42 -30 145 -76 186 -81 35 -5 48 -2
70 15 15 12 106 116 203 231 96 115 189 220 205 234 16 13 65 42 107 64 64 32
512 286 573 325 15 9 16 25 12 127 -4 107 -2 127 27 244 56 222 182 569 323
891 l44 100 154 6 c218 9 415 44 565 101 185 69 393 218 547 392 135 151 243
300 450 622 l66 101 53 7 c136 17 479 84 664 129 376 92 500 151 860 407 277
197 441 288 585 323 36 9 137 26 225 37 87 11 177 25 199 31 46 12 137 66 338
201 81 54 151 99 156 100 5 2 44 -40 88 -92 l80 -95 -7 -310 c-7 -337 -15
-414 -56 -549 l-27 -89 -93 -79 -93 -79 19 -37 c10 -20 22 -47 25 -59 7 -22 5
-23 -48 -23 -52 0 -56 -2 -56 -24 0 -57 -12 -86 -35 -86 -22 0 -23 -5 -30 -93
-10 -132 -2 -356 14 -388 16 -33 54 -51 89 -43 121 26 399 212 498 332 45 54
58 63 168 111 164 71 266 133 358 220 110 103 219 273 269 420 25 73 24 105
-10 214 -16 50 -79 310 -141 576 l-112 484 -2 166 c-1 153 -3 170 -25 214 -52
106 -136 187 -194 187 -15 0 -121 -27 -235 -59 -213 -61 -312 -85 -319 -77 -3
2 3 53 11 113 45 316 54 652 22 853 -55 346 -192 662 -427 987 -57 78 -60 86
-71 168 -11 86 -4 198 23 353 l11 62 92 0 c114 0 189 -19 286 -72 148 -82 162
-87 223 -88 78 0 131 27 147 75 10 30 16 35 43 35 88 0 164 50 193 126 19 49
15 158 -8 246 -12 44 -22 55 -138 148 -169 136 -245 212 -360 360 -54 69 -123
149 -153 177 -55 50 -234 175 -353 246 -71 42 -72 45 -80 202 -3 63 0 122 8
160 l13 60 95 6 c156 11 219 34 310 116 52 46 183 203 176 210 -2 2 -48 -14
-102 -35 -114 -45 -130 -50 -227 -62 -64 -8 -213 2 -226 16 -2 2 14 21 36 41
22 21 47 49 56 63 24 38 88 222 74 213 -7 -4 -40 -29 -73 -55 -80 -62 -161
-99 -234 -105 -53 -5 -67 -2 -132 29 -103 49 -179 116 -330 294 -73 86 -139
165 -147 175 -30 42 -43 134 -48 357 l-6 223 -28 -33 c-40 -47 -89 -141 -105
-202 -18 -66 -17 -135 1 -215 9 -35 14 -65 12 -67 -9 -9 -134 77 -186 129
-146 142 -235 360 -248 603 -13 245 52 477 233 834 43 85 80 160 83 165 7 19
-190 -180 -258 -260 -165 -195 -260 -386 -335 -674 l-32 -124 -37 104 c-92
263 -136 473 -144 695 -9 225 28 456 101 633 14 35 24 66 23 68 -2 2 -30 -29
-62 -69z m2796 -8392 c58 -121 99 -272 99 -361 0 -55 -4 -69 -38 -121 -34 -52
-160 -180 -169 -171 -1 2 4 26 11 53 27 92 36 205 36 455 0 137 3 249 6 249 3
0 28 -47 55 -104z"/>
</g>
</svg>
