<?xml version="1.0" standalone="no"?>
<!DOCTYPE svg PUBLIC "-//W3C//DTD SVG 20010904//EN"
 "http://www.w3.org/TR/2001/REC-SVG-20010904/DTD/svg10.dtd">
<svg version="1.0" xmlns="http://www.w3.org/2000/svg"
 width="1155.000000pt" height="1280.000000pt" viewBox="0 0 1155.000000 1280.000000"
 preserveAspectRatio="xMidYMid meet">
<metadata>
Created by potrace 1.15, written by Peter Selinger 2001-2017
</metadata>
<g transform="translate(0.000000,1280.000000) scale(0.100000,-0.100000)"
fill="#000000" stroke="none">
<path d="M3573 12658 c16 -353 168 -693 418 -933 l103 -98 103 109 c56 60 103
112 103 115 0 4 -44 46 -97 95 -53 49 -150 147 -215 218 -126 137 -112 115
-256 416 -48 98 -129 210 -154 210 -7 0 -9 -42 -5 -132z"/>
<path d="M5739 12497 c-47 -57 -125 -179 -219 -342 -143 -247 -178 -301 -262
-407 -43 -54 -86 -114 -95 -132 -24 -51 -11 -96 48 -160 41 -45 58 -56 100
-65 121 -26 206 -10 291 56 112 85 139 150 117 275 -15 87 -15 289 0 408 7 47
28 138 48 204 29 97 34 125 27 154 -12 46 -23 48 -55 9z"/>
<path d="M2973 12464 c16 -130 89 -280 213 -436 40 -50 149 -172 241 -270 92
-99 172 -186 176 -194 6 -11 43 -14 193 -14 111 0 184 4 182 9 -1 5 -36 48
-77 95 -90 105 -254 264 -458 443 -97 85 -179 168 -225 226 -106 135 -144 166
-217 182 l-34 7 6 -48z"/>
<path d="M7600 12398 c-57 -62 -249 -261 -428 -441 -260 -263 -336 -334 -381
-356 -110 -56 -218 -64 -387 -30 l-105 21 -31 -28 c-69 -66 -151 -200 -164
-269 l-7 -38 114 6 c63 4 161 15 219 26 380 71 557 53 1292 -129 547 -136 825
-190 1078 -210 229 -19 390 9 550 97 143 77 208 138 573 542 172 190 282 362
275 432 -3 30 -6 34 -28 31 -70 -8 -248 -170 -502 -459 -96 -109 -200 -217
-241 -249 -122 -97 -269 -154 -394 -154 -159 0 -111 206 150 646 46 78 93 172
105 208 23 69 28 131 13 140 -17 11 -103 -99 -245 -314 -79 -118 -161 -238
-184 -266 -87 -110 -301 -259 -450 -314 -74 -28 -104 -34 -202 -38 -102 -4
-127 -1 -210 21 -52 15 -169 45 -259 67 -91 23 -187 50 -214 61 -127 50 -180
119 -179 234 1 128 52 244 223 506 172 265 200 324 167 357 -25 25 -47 9 -148
-100z"/>
<path d="M4810 12298 c-136 -89 -389 -359 -559 -596 -86 -120 -171 -279 -171
-318 0 -57 88 -13 220 111 68 63 86 75 115 75 19 0 37 -5 41 -12 4 -6 8 -46 8
-87 l1 -76 56 -3 c72 -4 91 11 133 109 45 103 100 194 191 319 94 128 132 201
151 289 44 210 -33 288 -186 189z"/>
<path d="M6275 11936 c-75 -39 -260 -196 -450 -385 -174 -172 -258 -238 -355
-278 -147 -60 -224 -13 -480 295 -56 67 -105 122 -110 122 -5 0 -15 -10 -21
-22 -7 -13 -41 -63 -77 -113 -73 -102 -102 -162 -101 -208 0 -29 16 -44 175
-170 96 -76 380 -310 632 -519 638 -533 914 -750 1237 -975 267 -186 659 -424
764 -464 174 -66 695 -103 1436 -104 l520 0 60 29 c87 43 227 184 428 431 94
116 224 263 289 329 107 106 119 122 116 150 -4 43 -41 55 -100 33 -90 -35
-289 -209 -637 -558 -129 -129 -178 -159 -257 -159 -37 0 -61 7 -91 26 -56 37
-73 70 -73 141 0 48 7 74 39 139 42 87 165 262 267 382 102 120 128 187 85
226 -19 17 -22 16 -84 -13 -126 -60 -234 -158 -353 -319 -33 -44 -93 -126
-135 -184 -186 -252 -295 -320 -542 -337 -390 -28 -820 96 -1065 306 l-33 28
35 70 c52 103 146 214 339 400 157 151 317 320 325 343 6 20 -69 45 -120 39
-97 -12 -205 -83 -473 -312 -184 -158 -276 -226 -359 -266 -89 -42 -131 -46
-205 -16 -197 80 -571 386 -808 661 -148 173 -148 173 -148 346 1 139 2 148
32 217 41 97 133 234 300 448 77 99 146 191 152 204 17 32 -1 49 -59 57 -36 4
-55 0 -95 -20z"/>
<path d="M3460 11489 c-131 -11 -388 -44 -500 -65 -215 -38 -369 -69 -535
-107 -172 -39 -190 -41 -395 -46 -212 -6 -216 -6 -270 -35 -173 -90 -387 -275
-410 -354 -7 -22 -10 -51 -7 -64 9 -35 68 -99 129 -142 l54 -37 70 17 c46 12
113 18 204 18 114 1 146 -3 207 -22 152 -48 203 -149 145 -295 -20 -52 -77
-84 -173 -97 -84 -11 -282 -28 -287 -24 -2 1 10 9 26 18 16 8 76 50 133 93 57
42 133 92 169 111 l65 35 -80 -6 c-44 -4 -141 -19 -215 -34 -182 -36 -344 -38
-442 -5 -108 37 -169 103 -225 242 -9 21 -12 13 -18 -54 -21 -218 41 -347 194
-408 47 -18 77 -22 188 -22 124 -1 131 -2 116 -18 -12 -13 -14 -29 -9 -64 8
-63 34 -104 82 -132 36 -21 48 -23 149 -19 91 4 146 14 315 57 255 64 322 68
455 26 50 -15 200 -68 335 -116 502 -181 653 -217 852 -208 169 8 225 40 385
219 97 107 179 179 206 179 5 0 -8 -20 -31 -43 -22 -24 -73 -95 -115 -158
-175 -266 -261 -291 -807 -228 -105 11 -213 18 -250 16 -128 -10 -236 -69
-365 -201 -67 -69 -202 -243 -213 -276 -2 -6 18 -10 45 -11 46 0 136 -27 137
-40 1 -4 -35 -31 -79 -60 -152 -102 -361 -333 -462 -511 -66 -118 -67 -113 32
-113 113 0 119 -8 59 -81 -129 -159 -266 -425 -342 -664 -31 -100 -59 -236
-50 -246 3 -3 46 22 96 54 83 54 138 80 149 69 2 -3 -7 -31 -20 -63 -96 -227
-140 -471 -140 -774 0 -522 152 -992 429 -1320 59 -70 172 -175 180 -167 3 2
-11 38 -31 79 -19 41 -46 115 -61 164 -24 79 -27 105 -27 224 1 90 6 152 16
185 l15 50 1 -56 c1 -78 26 -211 54 -294 27 -77 61 -147 165 -337 38 -71 82
-165 98 -210 27 -81 28 -91 35 -368 12 -500 62 -774 181 -1000 48 -92 50 -97
45 -160 -3 -46 -18 -96 -48 -170 -43 -103 -44 -107 -44 -220 0 -114 1 -116 44
-215 74 -170 85 -244 85 -575 0 -157 -5 -357 -12 -445 -7 -88 -17 -254 -22
-370 -13 -306 -34 -376 -157 -527 -89 -109 -131 -181 -139 -237 -17 -126 -64
-244 -121 -307 -15 -17 -66 -63 -113 -102 -149 -123 -284 -291 -314 -390 l-8
-23 152 3 151 3 23 56 c39 96 125 209 271 354 135 135 248 226 262 211 13 -12
-16 -146 -43 -199 -16 -31 -72 -98 -144 -172 -120 -123 -210 -228 -210 -245 0
-6 85 -10 216 -10 l216 0 48 35 c78 57 170 163 203 233 27 58 31 79 39 211 9
156 23 214 63 267 54 71 113 67 290 -22 127 -63 173 -74 209 -50 51 33 50 47
-9 118 -29 36 -108 111 -173 167 -66 55 -134 117 -151 137 -78 95 -116 212
-143 439 -16 134 -16 970 0 1205 8 130 15 170 42 250 42 125 43 206 6 345 -33
118 -44 262 -27 332 7 26 32 101 57 166 71 188 84 255 94 482 7 183 26 351 51
465 13 59 74 149 194 285 170 193 246 305 290 428 l22 60 7 -45 c16 -107 -24
-220 -121 -343 -31 -38 -60 -75 -65 -81 -13 -18 1 -41 35 -56 50 -21 293 -15
472 10 256 38 336 61 690 200 524 206 683 256 1045 330 301 62 497 85 609 72
49 -6 70 -14 90 -34 25 -25 26 -32 29 -151 3 -96 7 -125 17 -125 7 0 51 9 97
20 231 55 482 81 773 81 232 0 279 7 289 42 3 12 6 70 6 128 0 114 21 290 100
829 57 391 57 395 0 643 -17 71 -30 136 -30 145 1 28 80 -157 105 -246 49
-167 44 -287 -30 -729 -67 -400 -70 -434 -70 -858 1 -344 3 -394 23 -525 65
-416 200 -800 352 -1002 75 -99 224 -235 445 -408 208 -161 299 -245 430 -398
105 -122 125 -160 125 -237 -1 -181 -89 -406 -322 -815 -58 -102 -134 -239
-168 -305 -129 -244 -237 -418 -308 -497 -43 -47 -95 -75 -225 -117 -53 -18
-119 -47 -144 -64 -70 -48 -84 -79 -93 -211 -14 -202 -65 -302 -261 -511 -107
-115 -209 -252 -209 -281 0 -11 31 -14 158 -14 l157 0 40 77 c55 105 182 296
243 363 58 65 146 119 155 95 11 -26 -13 -189 -33 -227 -38 -73 -73 -122 -135
-188 -67 -72 -89 -105 -80 -120 4 -6 110 -10 274 -10 265 0 268 0 288 22 50
55 59 90 73 288 9 138 26 204 66 266 34 52 71 74 124 74 54 0 76 -13 100 -59
24 -48 70 -87 118 -101 88 -24 203 -3 217 41 4 13 -9 43 -39 92 -102 164 -130
259 -131 442 0 130 2 147 32 240 61 189 171 372 394 655 179 228 318 416 428
580 187 278 249 405 258 531 5 68 3 83 -20 133 -37 80 -117 160 -301 299 -285
216 -378 331 -451 557 -22 67 -29 111 -33 204 -12 292 66 466 416 936 315 422
421 620 479 890 26 124 24 351 -5 486 -37 174 -134 416 -222 560 -19 30 -20
35 -5 40 25 10 92 -4 148 -32 38 -19 100 -75 232 -209 99 -101 198 -195 220
-208 60 -38 116 -50 168 -36 46 12 107 53 107 72 0 6 -39 51 -87 99 -48 49
-82 88 -74 88 7 0 60 -25 118 -55 132 -69 160 -71 182 -12 42 109 -36 248
-208 376 -97 72 -374 239 -470 283 -47 22 -137 54 -200 73 -191 54 -285 68
-508 71 l-203 3 -30 34 c-70 80 -279 157 -560 206 -338 60 -602 80 -1175 91
-590 11 -670 18 -1240 115 -736 125 -955 137 -1455 85 -247 -26 -413 -24 -475
6 -26 12 -46 32 -58 55 -59 121 -62 386 -7 588 11 40 12 42 25 24 7 -10 48
-48 91 -83 l77 -64 -6 245 c-6 216 -14 325 -32 437 -8 46 15 42 59 -13 21 -25
42 -45 48 -45 16 0 3 497 -16 640 -40 289 -92 476 -191 675 -102 208 -235 365
-404 479 -82 55 -58 61 -236 -59 -72 -48 -141 -87 -162 -91 -79 -15 -119 43
-190 274 -24 81 -51 154 -59 163 -9 9 -34 22 -57 29 -56 15 -306 21 -437 9z
m-290 -334 c50 -25 80 -55 80 -80 0 -27 -54 -79 -102 -99 -50 -21 -144 -20
-188 2 -36 18 -80 82 -80 118 0 69 193 109 290 59z"/>
<path d="M4303 11399 c-24 -11 -70 -47 -103 -79 -52 -50 -60 -63 -60 -94 0
-59 37 -115 86 -130 25 -8 123 64 167 121 30 41 35 100 14 163 -15 44 -45 49
-104 19z"/>
<path d="M1930 5914 c-541 -106 -762 -152 -938 -195 -580 -142 -893 -284 -973
-442 -18 -34 -20 -52 -15 -100 13 -128 108 -361 302 -742 166 -327 233 -489
308 -750 88 -301 128 -534 145 -847 16 -285 50 -411 137 -507 52 -59 104 -86
216 -115 184 -48 244 -91 569 -413 140 -139 259 -253 262 -253 4 0 7 58 7 129
l0 128 -66 43 c-83 54 -257 219 -291 277 -37 63 -27 77 50 71 108 -9 197 -68
279 -184 61 -86 92 -118 124 -128 20 -6 21 -3 27 145 4 84 7 200 7 258 l0 106
-62 42 c-82 54 -103 64 -223 103 -55 18 -122 44 -148 57 -105 53 -186 158
-173 227 10 53 58 115 151 196 91 79 148 152 143 184 -2 12 -15 23 -33 28 -25
7 -45 1 -121 -38 -76 -39 -99 -46 -150 -47 -70 0 -108 17 -154 69 -43 50 -65
102 -140 329 -189 580 -302 1062 -304 1296 -1 111 0 117 27 152 58 76 218 126
471 147 71 5 312 10 535 10 223 0 458 5 521 10 107 9 215 26 232 37 5 2 -26
27 -67 54 -83 56 -184 160 -270 280 -66 91 -170 270 -206 353 -14 33 -30 55
-39 55 -8 0 -71 -12 -140 -25z"/>
<path d="M6808 5560 c-14 -4 -45 -18 -67 -31 -36 -20 -44 -31 -72 -108 -42
-115 -84 -285 -106 -423 -21 -139 -24 -482 -5 -603 31 -187 89 -353 163 -462
53 -78 191 -214 404 -398 319 -275 431 -403 470 -539 22 -76 16 -122 -29 -226
-148 -342 -813 -1474 -904 -1538 -42 -31 -93 -47 -235 -77 -155 -33 -221 -57
-283 -104 -60 -45 -112 -140 -121 -221 -3 -30 -13 -68 -21 -85 -8 -16 -115
-131 -236 -255 -182 -184 -228 -237 -254 -289 -18 -35 -32 -74 -32 -87 0 -22
3 -23 116 -26 l116 -3 24 48 c29 56 157 227 263 350 93 108 156 159 191 155
23 -3 25 -6 24 -58 -1 -38 -11 -80 -34 -133 -32 -77 -50 -100 -146 -187 -50
-46 -79 -93 -90 -149 l-6 -31 275 0 276 0 25 33 c54 72 60 99 61 282 1 182 7
210 52 257 82 86 305 71 363 -25 11 -18 20 -40 20 -49 0 -16 14 -18 145 -18
l145 0 0 36 c0 56 -25 96 -106 169 -71 63 -74 68 -74 110 0 52 31 115 143 292
146 230 302 446 702 973 432 569 561 757 604 888 25 74 22 109 -20 197 -53
114 -178 250 -339 372 -128 97 -172 213 -186 488 -8 176 -1 213 83 413 110
263 143 447 123 694 -6 73 -13 141 -16 152 -6 18 -17 18 -228 13 -254 -7 -439
-31 -704 -93 -59 -13 -142 -32 -186 -42 l-78 -17 -19 24 c-16 20 -19 40 -19
143 0 85 -4 127 -15 147 -22 44 -90 61 -157 41z"/>
</g>
</svg>
