<?xml version="1.0" standalone="no"?>
<!DOCTYPE svg PUBLIC "-//W3C//DTD SVG 20010904//EN"
 "http://www.w3.org/TR/2001/REC-SVG-20010904/DTD/svg10.dtd">
<svg version="1.0" xmlns="http://www.w3.org/2000/svg"
 width="872.000000pt" height="1280.000000pt" viewBox="0 0 872.000000 1280.000000"
 preserveAspectRatio="xMidYMid meet">
<metadata>
Created by potrace 1.15, written by Peter Selinger 2001-2017
</metadata>
<g transform="translate(0.000000,1280.000000) scale(0.100000,-0.100000)"
fill="#000000" stroke="none">
<path d="M2697 12771 c-52 -62 -59 -190 -36 -637 12 -241 10 -304 -11 -304
-34 0 -241 237 -284 323 -14 29 -34 84 -46 123 -11 40 -29 82 -40 95 l-20 24
-28 -32 c-33 -39 -102 -200 -102 -240 0 -67 87 -192 202 -292 133 -115 331
-250 568 -387 308 -177 346 -201 402 -253 74 -67 100 -112 133 -226 36 -121
44 -262 20 -334 -21 -64 -49 -97 -139 -168 -89 -70 -124 -109 -132 -151 l-6
-32 -302 1 c-387 2 -451 -8 -703 -115 -127 -54 -360 -86 -630 -86 l-141 0 -7
29 c-10 45 -74 98 -128 106 -114 17 -207 -44 -207 -137 0 -44 38 -94 87 -114
18 -8 59 -14 91 -14 l59 0 56 -110 c38 -73 57 -122 57 -146 0 -148 147 -245
529 -348 227 -62 292 -95 339 -175 30 -51 28 -24 33 -556 5 -429 -54 -644
-414 -1510 -121 -294 -137 -346 -144 -470 -6 -120 -15 -149 -55 -166 -59 -24
-134 0 -383 125 -234 117 -311 147 -502 190 -151 35 -246 46 -382 46 -179 0
-289 -37 -371 -126 -108 -118 -69 -285 120 -513 27 -33 65 -88 84 -123 70
-127 80 -232 46 -478 -30 -214 -24 -342 18 -425 34 -67 144 -198 286 -341 161
-161 292 -266 357 -285 39 -12 40 -12 80 27 77 74 98 155 62 232 -10 20 -78
95 -151 167 -74 71 -142 146 -153 166 -31 61 -73 401 -99 804 -5 88 -10 165
-10 172 0 34 88 -3 247 -105 59 -38 192 -112 294 -164 208 -108 372 -203 500
-290 140 -95 680 -319 1131 -469 312 -103 547 -164 1168 -305 656 -148 1012
-256 1342 -407 135 -62 227 -138 293 -242 30 -48 48 -84 165 -348 128 -287
292 -436 850 -772 279 -169 403 -251 505 -337 201 -168 383 -392 529 -655 115
-206 154 -377 191 -848 30 -381 46 -455 126 -572 18 -26 118 -136 223 -243
105 -108 218 -226 252 -262 67 -73 100 -94 137 -84 44 11 62 66 61 186 -1 168
-38 267 -118 314 -141 82 -239 285 -297 612 -20 109 -23 162 -23 344 1 118 5
271 10 340 17 231 -7 373 -83 497 -21 34 -92 123 -157 198 -229 262 -382 478
-485 688 -124 252 -174 448 -174 687 -1 224 36 388 138 618 74 167 77 252 20
450 -14 47 -28 107 -31 133 -18 137 71 195 345 224 184 20 245 33 316 66 102
49 172 129 205 235 47 153 7 335 -115 518 -40 61 -113 146 -124 146 -5 0 -11
-53 -14 -117 -6 -127 -35 -262 -66 -303 -40 -55 -345 -248 -472 -299 -114 -46
-190 -56 -273 -36 -133 30 -355 155 -489 274 -95 84 -166 111 -402 151 -450
77 -774 171 -1145 330 -599 256 -1018 523 -1258 801 -291 336 -451 732 -524
1299 -16 128 -16 594 0 810 10 129 11 220 5 345 -11 207 -3 305 30 379 22 47
30 56 64 65 21 6 64 17 95 26 44 12 64 24 92 56 48 57 122 168 163 246 29 56
33 75 31 122 -3 54 -4 56 -33 59 -16 2 -46 -1 -66 -7 -49 -15 -175 -98 -235
-155 -34 -33 -50 -43 -56 -34 -44 70 99 583 242 868 129 257 190 424 190 520
0 50 -28 83 -68 83 -59 0 -87 -47 -121 -199 -11 -50 -25 -104 -31 -120 -63
-166 -262 -40 -412 261 -90 179 -107 298 -64 433 14 46 26 103 26 129 0 115
-84 168 -158 99 -62 -56 -75 -123 -50 -262 24 -137 21 -246 -7 -273 -34 -33
-91 -31 -132 3 -73 61 -113 206 -173 626 -51 353 -71 404 -133 331z"/>
</g>
</svg>
