<?xml version="1.0" standalone="no"?>
<!DOCTYPE svg PUBLIC "-//W3C//DTD SVG 20010904//EN"
 "http://www.w3.org/TR/2001/REC-SVG-20010904/DTD/svg10.dtd">
<svg version="1.0" xmlns="http://www.w3.org/2000/svg"
 width="1280.000000pt" height="640.000000pt" viewBox="0 0 1280.000000 640.000000"
 preserveAspectRatio="xMidYMid meet">
<metadata>
Created by potrace 1.15, written by Peter Selinger 2001-2017
</metadata>
<g transform="translate(0.000000,640.000000) scale(0.100000,-0.100000)"
fill="#000000" stroke="none">
<path d="M12643 4896 c-16 -25 -44 -73 -63 -107 -19 -34 -45 -69 -58 -77 -21
-13 -25 -13 -38 0 -14 14 -13 21 10 66 30 59 32 75 11 92 -23 19 -42 -3 -50
-58 -12 -78 -127 -179 -181 -158 -14 5 -15 16 -9 61 5 46 4 56 -10 61 -9 4
-19 3 -23 -1 -4 -4 -7 -91 -7 -193 -1 -110 -5 -197 -11 -212 l-11 -25 -16 30
c-23 45 -55 71 -69 57 -20 -20 6 -122 37 -147 31 -26 32 -57 4 -127 -12 -29
-34 -94 -50 -144 -102 -324 -256 -480 -524 -533 -167 -34 -316 -37 -490 -12
-139 20 -153 21 -194 6 -113 -40 -175 -30 -237 37 -72 77 -89 128 -64 192 12
33 3 33 -41 1 -68 -51 -96 -129 -65 -184 8 -14 47 -44 87 -67 89 -50 95 -68
50 -140 -24 -37 -31 -59 -31 -99 l0 -51 -412 -28 c-227 -16 -521 -36 -653 -46
-132 -9 -244 -14 -249 -10 -4 5 -6 91 -4 192 5 183 5 183 43 288 22 58 50 116
63 129 22 22 28 23 110 17 48 -4 99 -3 113 1 14 4 50 34 79 66 l52 57 -38 16
c-103 41 -170 78 -207 110 -38 35 -90 62 -187 98 -40 15 -48 23 -73 77 l-28
61 26 53 c14 29 37 60 51 70 13 9 84 27 155 41 134 26 221 54 252 81 11 11 17
31 17 60 0 49 -12 55 -36 18 -16 -25 -121 -91 -130 -82 -3 2 13 47 35 98 45
108 57 154 42 164 -11 6 -20 -7 -100 -145 -42 -71 -82 -103 -103 -82 -9 9 -6
24 16 70 23 49 26 63 17 81 -22 40 -46 19 -57 -49 -12 -77 -127 -176 -180
-156 -13 5 -15 15 -10 54 7 56 -4 82 -28 63 -13 -11 -15 -42 -13 -194 1 -106
-3 -192 -9 -205 -9 -22 -11 -21 -42 23 -18 26 -38 45 -45 42 -32 -10 -10 -125
29 -156 30 -24 30 -55 1 -129 -13 -31 -34 -91 -46 -132 -91 -300 -246 -473
-478 -530 -176 -43 -352 -50 -552 -20 l-134 20 -69 -21 c-122 -37 -163 -23
-249 84 -41 52 -50 97 -29 151 12 33 3 33 -41 1 -105 -78 -104 -187 4 -241 63
-32 97 -61 97 -85 0 -10 -13 -40 -30 -66 -20 -31 -30 -60 -30 -85 0 -24 -5
-38 -12 -38 -7 0 -170 -11 -363 -25 -832 -58 -1073 -75 -1082 -75 -15 0 -24
224 -13 327 11 105 69 277 103 306 18 15 36 18 102 17 136 -4 132 -5 191 58
29 31 54 60 54 63 0 3 -41 23 -91 44 -51 21 -110 54 -136 77 -52 45 -115 78
-195 104 -33 10 -58 23 -58 31 0 8 -9 32 -21 55 -27 53 -19 94 29 148 37 41
39 42 177 70 213 43 275 73 275 134 0 53 -14 61 -42 24 -27 -35 -112 -87 -124
-75 -4 3 10 46 31 94 42 98 57 169 34 161 -8 -2 -35 -42 -60 -89 -55 -100
-100 -152 -123 -143 -21 8 -20 26 5 75 23 47 22 92 -3 97 -20 4 -33 -22 -43
-80 -10 -63 -126 -161 -170 -144 -11 4 -15 20 -15 60 0 56 -13 77 -33 57 -8
-8 -12 -72 -12 -199 0 -103 -4 -193 -8 -200 -6 -9 -17 -2 -38 28 -49 68 -78
47 -55 -40 7 -28 25 -64 40 -79 14 -15 26 -33 26 -39 0 -7 -13 -47 -29 -90
-16 -42 -41 -115 -56 -162 -81 -252 -219 -414 -407 -479 -155 -53 -423 -69
-626 -36 -103 16 -117 16 -170 2 -146 -39 -185 -28 -266 75 -44 57 -48 66 -43
103 4 23 9 49 13 58 11 29 -14 19 -61 -24 -50 -46 -68 -93 -55 -140 13 -43 26
-57 89 -89 31 -15 65 -37 75 -49 21 -23 21 -26 -34 -121 -11 -19 -20 -51 -20
-72 0 -34 -3 -38 -32 -42 -18 -3 -235 -19 -483 -36 -823 -56 -965 -67 -971
-72 -3 -4 2 -18 11 -32 14 -22 25 -26 63 -26 25 0 351 21 725 46 373 25 681
43 683 41 11 -11 -38 -123 -75 -172 -44 -59 -145 -138 -236 -187 -92 -48 -120
-83 -154 -196 -30 -95 -80 -193 -124 -241 -12 -13 -41 -32 -64 -42 -26 -11
-51 -32 -63 -51 -21 -35 -26 -73 -11 -82 12 -8 222 97 242 120 10 11 43 73 75
139 65 132 116 193 216 253 73 43 138 65 293 97 165 34 223 60 305 139 36 34
76 69 90 77 39 22 282 16 475 -11 219 -30 572 -39 677 -17 40 9 109 21 153 27
44 6 98 15 120 20 22 5 43 6 47 2 4 -4 -20 -62 -53 -130 -59 -122 -59 -122
-116 -150 -65 -31 -79 -48 -69 -87 6 -25 10 -27 42 -22 50 8 204 88 221 114 8
12 23 53 32 90 23 88 33 106 79 140 101 73 119 107 87 157 -36 55 -198 90
-338 74 -87 -11 -122 0 -111 35 3 12 7 23 8 24 1 2 306 23 911 63 248 16 474
32 503 35 47 5 52 3 52 -15 0 -41 -42 -128 -86 -180 -57 -67 -103 -103 -219
-173 -103 -61 -126 -90 -156 -191 -22 -77 -87 -206 -122 -245 -12 -13 -40 -32
-63 -42 -48 -22 -67 -42 -83 -88 -20 -62 -1 -61 127 4 l117 60 65 126 c81 158
104 187 192 249 88 62 143 83 320 120 175 37 236 64 313 139 33 33 74 66 92
75 50 25 249 21 493 -10 250 -31 559 -36 681 -10 118 24 289 49 296 42 3 -3
-21 -60 -53 -127 l-59 -122 -62 -29 c-66 -32 -77 -45 -67 -85 6 -23 10 -25 47
-20 23 3 78 24 124 47 94 46 111 69 133 175 13 63 36 93 124 158 87 67 59 140
-69 180 -24 7 -100 12 -190 12 l-150 0 -3 25 c-1 14 1 30 5 36 5 8 235 27 658
56 358 25 652 43 654 42 2 -2 -7 -29 -20 -61 -32 -82 -153 -200 -279 -274
-108 -63 -130 -89 -161 -193 -42 -142 -116 -257 -183 -287 -49 -21 -69 -42
-84 -85 -21 -64 -2 -64 125 1 l118 60 71 138 c80 156 92 170 188 238 81 57
147 84 276 110 230 48 276 68 365 158 33 34 75 66 95 73 56 19 257 12 485 -16
182 -23 239 -26 425 -23 142 2 244 9 300 19 149 28 240 41 247 35 3 -4 -21
-61 -53 -128 l-59 -122 -61 -27 c-64 -29 -78 -46 -68 -86 8 -30 35 -31 106 -3
139 54 171 87 202 214 12 50 22 66 57 95 103 86 122 108 115 137 -4 16 -20 40
-37 54 -51 44 -99 54 -269 54 l-155 0 3 30 c2 17 3 120 2 230 -2 223 7 285 60
423 42 109 53 116 167 108 61 -4 96 -2 113 6 26 13 127 116 119 121 -2 2 -36
15 -75 30 -70 27 -120 57 -198 117 -21 16 -75 44 -120 61 -81 31 -81 31 -109
91 l-28 60 26 54 c15 30 37 61 49 69 12 8 79 26 150 40 142 28 229 56 257 81
13 12 19 31 19 61 0 48 -11 54 -34 21 -19 -26 -116 -89 -127 -83 -4 3 13 53
37 112 24 60 44 116 44 125 0 35 -21 28 -47 -16z"/>
<path d="M130 4498 c-28 -46 -78 -179 -101 -268 -24 -90 -36 -200 -22 -200 5
0 48 20 96 45 48 25 99 45 113 45 38 0 92 26 135 64 50 46 83 62 154 75 61 11
81 22 71 39 -24 39 -363 232 -407 232 -11 0 -28 -14 -39 -32z"/>
<path d="M456 4175 c-21 -7 -50 -24 -65 -38 -61 -56 -86 -67 -154 -67 -60 0
-67 -2 -91 -30 -14 -17 -32 -54 -41 -83 -19 -63 -41 -224 -32 -233 3 -4 20 5
38 20 53 45 85 57 150 55 57 -2 63 0 91 29 24 27 36 32 74 32 60 0 92 18 132
74 49 68 68 77 147 74 49 -2 69 1 72 10 8 22 -71 88 -149 126 -90 43 -122 49
-172 31z"/>
<path d="M659 3931 c-114 -89 -183 -131 -217 -131 -23 0 -44 -8 -58 -21 -16
-15 -43 -23 -98 -29 -92 -11 -111 -21 -125 -62 -13 -42 -40 -184 -43 -223 -4
-62 23 -71 68 -24 36 39 98 68 144 69 38 0 95 25 149 65 18 13 50 27 70 30 20
4 46 8 57 10 21 5 50 31 78 69 11 17 25 19 103 17 78 -1 93 1 116 19 35 28 34
42 -8 89 -37 41 -179 141 -200 141 -7 0 -23 -8 -36 -19z"/>
<path d="M993 3710 c-37 -22 -63 -67 -63 -107 0 -65 74 -128 143 -121 26 2 35
10 49 40 22 45 21 45 97 57 35 6 69 15 77 22 17 14 18 39 2 39 -32 0 -88 22
-138 55 -64 41 -117 46 -167 15z"/>
<path d="M723 3624 c-36 -53 -61 -73 -99 -78 -62 -10 -132 -35 -181 -66 -25
-16 -66 -32 -92 -35 -68 -9 -97 -23 -135 -65 -40 -45 -73 -127 -86 -217 -8
-62 -6 -93 9 -93 3 0 40 23 81 50 79 53 133 74 214 85 40 5 56 14 90 50 35 36
51 44 92 50 104 14 181 53 214 108 34 55 21 150 -26 207 -32 37 -57 38 -81 4z"/>
<path d="M1197 3469 c-20 -5 -56 -18 -79 -30 -24 -12 -63 -22 -92 -23 -29 0
-51 -6 -53 -13 -7 -20 44 -60 98 -78 62 -20 109 -48 215 -131 99 -77 150 -108
164 -99 14 9 12 111 -4 170 -26 99 -91 190 -143 200 -55 12 -70 12 -106 4z"/>
<path d="M973 3310 c-43 -18 -54 -69 -28 -121 15 -28 15 -30 -9 -40 -26 -12
-56 -65 -74 -132 -10 -35 -9 -38 16 -51 41 -21 175 -38 240 -30 107 13 151 54
113 105 -20 28 -20 28 -1 34 28 9 43 41 35 75 -18 81 -218 191 -292 160z"/>
<path d="M615 3233 c-40 -10 -55 -34 -55 -87 0 -58 37 -148 67 -164 38 -21
141 -19 149 3 8 19 -22 117 -55 178 -20 39 -67 82 -83 76 -2 -1 -12 -4 -23 -6z"/>
<path d="M1636 3134 c-45 -44 15 -171 76 -162 27 4 90 101 86 132 -6 38 -131
61 -162 30z"/>
<path d="M1414 3008 c-102 -70 -110 -82 -83 -133 11 -22 33 -53 49 -69 37 -37
73 -30 139 30 72 65 88 136 46 201 -25 37 -64 30 -151 -29z"/>
<path d="M1823 3045 c-18 -47 105 -96 490 -195 169 -43 208 -48 226 -26 33 39
-11 62 -260 135 -344 101 -442 120 -456 86z"/>
<path d="M2742 2985 c-126 -39 -207 -179 -182 -315 14 -76 92 -231 193 -380
132 -196 163 -272 155 -377 -5 -79 -39 -144 -117 -226 l-66 -68 -985 -9
c-1278 -12 -1377 -16 -1421 -63 -24 -26 -24 -52 -2 -63 51 -25 2205 -9 2382
17 92 13 134 34 195 95 99 101 156 222 156 333 0 115 -51 235 -192 453 -94
146 -168 291 -168 329 0 47 26 97 62 119 35 21 91 25 163 12 54 -10 72 -5 77
22 20 102 -111 165 -250 121z"/>
<path d="M470 2851 c-137 -8 -200 -20 -200 -39 0 -5 9 -17 21 -28 20 -18 45
-19 457 -22 240 -2 460 -1 489 3 94 12 55 55 -68 74 -87 14 -521 21 -699 12z"/>
<path d="M1623 2830 c-60 -30 -141 -102 -154 -137 -3 -10 -3 -27 1 -38 24 -64
254 -311 325 -348 36 -20 55 -22 200 -21 205 0 315 25 331 76 11 37 -67 149
-176 252 -129 121 -347 246 -431 246 -20 0 -62 -13 -96 -30z"/>
<path d="M374 2719 c-13 -21 8 -194 32 -267 94 -283 417 -546 777 -632 108
-26 354 -44 497 -37 253 13 495 112 765 312 104 77 237 195 233 206 -2 5 -30
42 -63 83 l-59 75 -36 -30 c-95 -79 -185 -142 -234 -165 -66 -30 -195 -47
-325 -42 -91 3 -103 6 -182 45 -140 70 -239 168 -360 353 l-72 110 -483 0
c-340 0 -485 -3 -490 -11z"/>
<path d="M856 1800 c-52 -48 -80 -98 -64 -117 14 -18 63 -16 99 3 50 25 81
133 43 148 -27 10 -33 7 -78 -34z"/>
<path d="M2177 1813 c-11 -10 -7 -56 7 -81 19 -35 66 -62 109 -62 45 0 47 11
8 72 -37 58 -101 95 -124 71z"/>
</g>
</svg>
