<?xml version="1.0" standalone="no"?>
<!DOCTYPE svg PUBLIC "-//W3C//DTD SVG 20010904//EN"
 "http://www.w3.org/TR/2001/REC-SVG-20010904/DTD/svg10.dtd">
<svg version="1.0" xmlns="http://www.w3.org/2000/svg"
 width="1280.000000pt" height="925.000000pt" viewBox="0 0 1280.000000 925.000000"
 preserveAspectRatio="xMidYMid meet">
<metadata>
Created by potrace 1.15, written by Peter Selinger 2001-2017
</metadata>
<g transform="translate(0.000000,925.000000) scale(0.100000,-0.100000)"
fill="#000000" stroke="none">
<path d="M4623 8039 c-9 -9 -2 -19 28 -39 22 -14 75 -60 118 -101 43 -41 97
-91 120 -111 59 -54 151 -199 238 -378 37 -76 59 -189 93 -485 15 -126 -5
-286 -52 -430 -24 -73 -29 -82 -87 -170 -62 -95 -131 -163 -223 -223 -75 -48
-212 -112 -241 -112 -8 0 -40 -9 -73 -20 -74 -26 -243 -50 -346 -50 -99 0
-228 35 -228 61 0 10 5 21 10 24 22 14 71 128 72 166 0 22 -2 43 -6 46 -9 10
-46 -28 -67 -69 -10 -20 -33 -57 -50 -83 l-32 -47 -39 39 c-50 47 -109 134
-132 191 -22 57 -15 94 40 209 52 108 66 167 62 254 -3 56 -5 64 -23 64 -16 0
-21 -9 -26 -45 -10 -65 -52 -153 -88 -183 -61 -51 -96 -45 -129 25 -36 77 -73
152 -105 214 -18 33 -36 70 -42 81 -23 47 -109 163 -120 163 -9 0 -12 -21 -11
-77 2 -71 5 -83 39 -134 40 -62 56 -109 38 -109 -18 0 -70 28 -123 66 -72 51
-79 24 -19 -75 50 -83 93 -127 207 -211 113 -84 151 -129 188 -222 37 -90 115
-222 166 -281 38 -43 39 -45 21 -61 -42 -38 -171 -48 -274 -21 -32 8 -66 15
-76 15 -23 0 -179 72 -212 98 -65 51 -316 142 -390 142 -112 0 -105 -27 24
-91 56 -28 105 -57 109 -63 21 -31 8 -36 -97 -36 -116 0 -128 -8 -82 -54 18
-18 35 -24 75 -24 28 -1 78 -11 109 -22 187 -68 290 -90 411 -90 31 0 100 -4
152 -10 52 -5 148 -14 213 -19 66 -5 123 -13 128 -18 5 -5 -37 -27 -99 -52
l-108 -43 -60 16 c-131 36 -228 48 -357 44 -122 -3 -130 -4 -148 -27 -38 -47
-31 -49 150 -35 61 4 115 1 193 -12 59 -10 108 -20 108 -24 0 -3 -57 -15 -127
-27 -81 -14 -136 -29 -153 -41 -32 -24 -32 -36 0 -40 14 -2 29 -8 35 -13 5 -5
-20 -9 -66 -9 -89 0 -168 -21 -206 -55 l-28 -24 40 -1 c39 -2 40 -2 13 -13
-36 -16 -68 -47 -68 -65 0 -12 10 -13 50 -8 57 8 67 -6 18 -23 -78 -27 -140
-95 -124 -136 4 -12 11 -11 42 10 21 14 49 28 63 31 121 26 165 46 219 101 43
45 51 50 38 25 -10 -20 -12 -33 -6 -37 18 -11 72 31 142 108 47 53 83 82 123
101 32 15 59 25 61 23 2 -2 -19 -14 -46 -27 -39 -18 -66 -43 -120 -110 -54
-68 -81 -93 -122 -113 -184 -89 -202 -98 -267 -142 -24 -17 -51 -35 -60 -40
-72 -46 -99 -65 -115 -84 -12 -13 -31 -21 -53 -21 -55 0 -144 -37 -186 -77
-85 -82 -98 -198 -35 -315 44 -84 126 -145 178 -134 16 3 57 0 92 -6 100 -18
131 -13 199 32 34 22 83 45 109 51 55 12 257 6 316 -9 37 -10 113 -18 264 -27
218 -14 235 -16 244 -32 5 -9 8 -87 8 -172 -1 -86 3 -181 8 -211 35 -206 36
-208 84 -249 10 -9 28 -27 40 -41 48 -57 113 -113 149 -127 20 -9 46 -26 56
-39 10 -13 33 -27 49 -30 17 -4 33 -12 36 -20 3 -8 12 -14 21 -14 8 0 15 -3
15 -7 0 -14 61 -43 91 -43 16 0 64 -18 105 -40 42 -22 85 -40 97 -40 11 0 39
-9 62 -20 23 -11 79 -29 126 -41 46 -11 96 -29 111 -40 15 -10 33 -19 40 -19
17 0 169 -59 184 -71 6 -5 20 -6 29 -2 12 4 16 3 12 -4 -9 -14 47 -22 67 -11
9 5 16 15 16 23 0 8 8 22 19 32 30 29 47 218 31 358 -21 187 -21 185 -2 178 9
-3 24 -12 33 -20 9 -7 19 -10 22 -7 4 4 9 -2 13 -12 10 -28 53 -130 81 -194
15 -33 28 -86 33 -138 13 -119 32 -235 42 -247 4 -5 8 -27 8 -49 0 -42 34
-157 57 -191 8 -12 13 -49 13 -94 0 -79 19 -162 52 -225 29 -56 38 -90 48
-191 32 -316 18 -424 -69 -520 -15 -16 -40 -49 -55 -72 -16 -23 -45 -55 -65
-70 -20 -15 -43 -36 -51 -48 -8 -11 -38 -48 -67 -81 l-52 -62 25 -23 c25 -23
31 -24 180 -24 85 0 154 -3 154 -6 0 -9 -36 -40 -74 -63 -18 -12 -58 -49 -90
-84 -60 -66 -62 -82 -15 -97 16 -5 18 -10 9 -20 -7 -8 -9 -19 -6 -24 12 -20
92 -23 152 -7 33 9 79 21 104 27 106 26 147 40 175 63 24 19 29 30 28 62 -2
52 5 84 18 84 6 0 7 -5 4 -10 -10 -17 5 -70 21 -70 40 0 60 166 43 370 -27
323 -31 537 -13 635 8 44 20 107 26 140 6 33 11 148 12 255 2 127 7 203 14
217 7 12 12 35 12 52 0 16 5 42 10 56 6 15 15 70 21 123 6 53 17 112 26 130 8
17 13 41 10 52 -5 21 7 28 18 10 3 -6 15 -10 25 -10 14 0 18 5 13 16 -6 15 -4
15 18 1 14 -10 34 -14 47 -10 19 5 20 8 10 21 -11 14 -10 15 7 8 37 -16 65
-18 65 -7 0 6 -10 11 -22 12 -22 0 -22 1 -3 9 11 4 31 6 45 3 25 -4 25 -4 5
12 -20 17 -19 17 5 10 14 -4 31 -10 38 -12 18 -7 15 8 -5 24 -16 12 -15 13 12
6 27 -6 29 -5 16 11 -13 15 -12 16 13 6 39 -14 54 -12 32 5 -21 16 -10 20 14
6 8 -6 18 -7 24 -4 5 4 1 10 -10 14 -15 6 -13 8 11 8 24 1 27 3 15 12 -12 9
-11 9 5 4 11 -4 29 -9 40 -12 17 -4 18 -3 5 7 -12 9 -7 10 20 4 31 -6 33 -5
21 10 -19 22 -4 20 26 -4 34 -27 55 -25 23 1 -24 20 -20 20 25 3 16 -6 15 -3
-5 14 l-25 22 30 -6 c17 -4 37 -13 46 -20 9 -8 18 -11 21 -8 4 3 17 0 30 -7
21 -11 22 -11 9 4 -7 10 -19 17 -25 17 -7 0 -21 7 -32 15 -16 12 -12 12 21 -1
22 -9 46 -21 54 -28 8 -6 24 -11 35 -12 12 -1 30 -4 41 -9 16 -6 16 -3 -5 15
-21 18 -22 21 -5 15 94 -33 119 -37 129 -23 6 8 17 13 25 10 8 -3 11 0 7 6 -6
11 62 11 80 0 26 -16 115 -47 109 -38 -3 5 -13 10 -21 10 -8 0 -14 4 -14 10 0
11 26 3 55 -17 11 -7 32 -13 48 -13 l29 0 -23 19 -23 18 22 7 c13 5 31 0 49
-11 27 -17 28 -17 13 2 -13 17 -10 17 25 -4 l40 -23 -20 22 -20 23 34 -18 c54
-27 133 -32 351 -21 212 11 214 11 229 20 10 6 12 5 7 -2 -8 -14 3 -15 23 -3
8 5 12 15 9 23 -4 10 4 14 31 16 151 8 192 14 187 28 -4 11 4 14 33 14 39 0
72 22 51 35 -22 14 -8 23 22 14 44 -12 47 -11 23 8 -22 17 -28 18 48 -3 22 -6
22 -6 2 10 l-20 17 20 -3 c16 -3 21 -13 25 -53 3 -33 14 -62 33 -86 15 -20 27
-41 27 -47 0 -6 20 -30 45 -54 24 -24 45 -48 45 -54 0 -7 11 -19 25 -28 14 -9
45 -37 70 -61 24 -25 49 -45 54 -45 12 0 71 -71 71 -86 0 -6 22 -32 50 -57 27
-25 50 -51 50 -56 0 -5 9 -13 20 -16 11 -3 26 -12 32 -19 31 -29 178 -136 188
-136 29 0 73 -39 96 -85 14 -27 38 -63 53 -80 40 -42 50 -65 52 -121 5 -96
-22 -362 -46 -471 -8 -34 -19 -91 -25 -127 -7 -45 -28 -101 -70 -183 -32 -65
-64 -142 -70 -170 -8 -38 -20 -59 -40 -75 -16 -13 -67 -54 -114 -92 l-85 -70
15 -35 c8 -20 18 -39 22 -43 8 -8 266 -15 335 -9 36 4 53 11 67 29 18 22 18
27 5 59 -17 39 -12 56 13 49 11 -3 24 5 37 22 16 22 21 50 26 162 9 171 31
339 63 477 38 166 64 297 85 424 11 64 29 142 41 175 12 32 23 69 23 82 2 24
12 29 22 11 4 -6 37 -24 74 -42 108 -50 148 -84 198 -167 25 -41 57 -92 71
-112 27 -42 47 -139 57 -286 10 -135 -11 -441 -34 -517 -10 -33 -22 -77 -25
-98 -13 -72 -46 -159 -74 -195 -16 -21 -32 -49 -35 -63 -4 -14 -26 -40 -49
-59 -80 -64 -168 -153 -168 -171 0 -26 37 -44 56 -28 22 18 28 4 10 -23 -22
-32 -20 -47 9 -60 19 -9 28 -9 37 0 7 7 25 12 40 12 15 0 51 9 80 20 29 11 65
20 79 20 52 0 171 33 196 54 25 22 25 21 22 131 -1 24 17 94 25 103 11 11 25
-13 31 -53 9 -62 11 -64 42 -56 l28 8 -2 82 c-2 46 -9 108 -17 140 -18 69 -32
183 -46 361 -23 289 -11 537 30 659 11 33 20 82 20 108 1 26 5 68 9 92 10 48
-1 93 -28 125 -9 10 -49 41 -89 69 -47 32 -69 53 -61 58 8 5 5 11 -10 20 -11
8 -34 41 -49 74 -66 140 -76 161 -78 175 -2 8 -22 53 -45 100 -36 74 -42 95
-45 160 -5 159 22 337 76 500 16 47 36 121 45 165 10 44 20 85 24 90 9 12 67
169 76 205 15 64 29 108 41 137 20 44 45 176 48 246 1 15 4 27 7 27 22 0 37
386 18 463 -7 28 -17 57 -22 64 -5 7 -6 16 -3 21 3 5 -8 22 -24 37 -16 15 -27
31 -25 35 3 4 42 8 88 9 46 0 99 7 118 15 19 7 40 11 47 9 6 -3 12 0 12 6 0 6
6 11 14 11 8 0 21 6 28 13 7 6 40 25 72 41 71 34 106 67 106 100 0 19 -4 23
-20 19 -12 -3 -20 0 -20 7 0 7 -7 10 -17 6 -9 -4 -20 -1 -24 6 -7 10 -11 10
-21 0 -16 -16 -29 -16 -22 1 3 10 -8 11 -53 6 -32 -4 -76 -11 -98 -17 -129
-31 -289 -55 -293 -44 -2 7 -12 12 -23 12 -10 0 -19 5 -19 10 0 7 -15 9 -40 5
-24 -4 -40 -2 -40 4 0 6 -13 8 -32 4 -24 -5 -29 -3 -23 7 6 9 -2 11 -34 8 -22
-2 -42 0 -43 3 -2 4 -50 13 -108 19 -58 7 -107 16 -110 21 -7 10 -112 29 -215
39 -44 4 -112 13 -151 19 -80 14 -398 11 -428 -3 -14 -7 -17 -6 -12 2 9 15
-51 16 -88 2 -17 -6 -26 -6 -26 0 0 15 -51 12 -83 -5 -15 -8 -34 -12 -42 -8
-9 3 -21 1 -28 -4 -19 -15 -49 -24 -42 -13 8 13 4 13 -38 -5 -42 -17 -50 -19
-43 -6 10 16 -62 5 -90 -14 -22 -14 -28 -15 -35 -4 -6 11 -11 11 -20 2 -6 -6
-17 -9 -24 -6 -8 2 -24 -1 -37 -8 -13 -8 -33 -14 -45 -14 -18 -1 -20 2 -10 13
10 13 8 14 -13 7 -14 -4 -38 -13 -54 -21 -37 -18 -41 -18 -26 1 10 12 9 15 -4
15 -9 0 -31 -6 -49 -13 -38 -16 -111 -21 -102 -7 7 11 -81 7 -107 -4 -13 -6
-18 -4 -18 8 0 19 -11 21 -28 4 -9 -9 -17 -10 -30 -1 -14 8 -24 7 -43 -3 -29
-16 -53 -18 -44 -4 4 6 -9 8 -35 5 -27 -4 -39 -2 -35 5 8 12 -1 13 -43 1 -20
-6 -30 -6 -27 0 7 10 -8 12 -19 2 -3 -4 -16 -8 -28 -10 -18 -3 -19 -1 -7 14
13 15 12 16 -6 9 -44 -18 -75 -24 -70 -15 9 14 -29 11 -44 -3 -11 -11 -12 -10
-6 1 6 10 2 11 -15 6 -15 -5 -20 -4 -16 4 4 6 0 12 -11 12 -10 1 -33 3 -51 5
-19 1 -46 7 -60 13 -15 6 -85 13 -157 15 -95 3 -148 10 -195 25 -36 11 -75 21
-87 21 -13 0 -55 9 -95 19 -40 11 -95 23 -123 27 -27 4 -63 13 -78 21 -22 11
-36 12 -59 4 -17 -6 -34 -9 -36 -6 -3 3 1 5 9 6 8 1 -2 5 -21 9 -19 5 -48 6
-64 3 -23 -5 -27 -3 -21 7 6 10 4 12 -7 7 -9 -3 -19 -3 -22 0 -11 12 -67 13
-87 2 -13 -7 -24 -7 -32 -1 -18 15 -156 5 -183 -13 -30 -19 -44 -20 -18 0 18
14 17 15 -17 11 -20 -2 -52 -12 -70 -22 -19 -10 -37 -18 -41 -19 -3 0 -10 -3
-14 -7 -11 -12 -26 -10 -19 2 10 16 -12 12 -29 -5 -8 -8 -19 -15 -23 -15 -18
0 -89 -39 -107 -59 -10 -11 -22 -18 -26 -16 -4 3 -13 -2 -20 -10 -7 -8 -16
-13 -20 -10 -4 3 -21 -8 -36 -23 -52 -51 -114 -94 -114 -80 -1 7 -11 1 -23
-14 -22 -27 -147 -113 -147 -101 0 4 -11 -4 -25 -17 -14 -13 -28 -21 -31 -17
-4 4 -21 -5 -38 -19 -18 -16 -32 -22 -34 -15 -2 7 -14 3 -30 -10 -17 -13 -28
-16 -30 -9 -3 7 -11 5 -23 -6 -14 -12 -19 -14 -19 -4 0 8 -10 4 -26 -11 -22
-21 -24 -21 -18 -4 7 20 7 20 -14 1 -12 -11 -25 -16 -29 -13 -3 4 -21 -4 -38
-17 -21 -16 -42 -23 -61 -21 -16 2 -35 -2 -43 -9 -12 -9 -14 -8 -8 7 9 23 -2
22 -30 -5 -18 -17 -23 -18 -23 -6 0 17 -35 17 -69 -1 -14 -8 -21 -8 -21 -1 0
5 5 10 10 10 6 0 10 5 10 11 0 5 -5 7 -11 3 -7 -4 -30 -8 -51 -10 -36 -3 -39
-2 -27 13 12 15 12 16 -3 10 -26 -9 -22 3 12 38 41 43 33 70 -19 59 -20 -4
-50 -8 -67 -10 l-32 -3 15 47 c30 94 32 86 -22 79 -27 -4 -60 -15 -73 -25 -32
-22 -42 -28 -72 -40 -61 -23 -87 -39 -123 -69 -41 -37 -55 -40 -64 -17 -13 36
109 127 242 179 49 20 181 51 255 60 87 11 356 64 455 90 50 13 151 49 225 80
74 31 160 65 191 75 119 39 182 80 306 201 91 88 148 168 205 289 106 221 126
310 134 605 3 115 7 211 8 213 2 1 43 -2 92 -8 49 -6 116 -9 149 -6 91 9 157
-12 217 -71 28 -26 58 -64 69 -85 35 -68 140 -132 186 -113 15 6 15 8 3 12
-45 15 -96 65 -154 152 -74 110 -107 143 -156 160 -19 7 -102 16 -185 21 -216
14 -247 26 -291 113 -84 165 -197 294 -345 393 -131 88 -284 139 -284 94 0
-18 63 -51 88 -45 11 2 16 1 13 -2 -3 -3 38 -36 92 -72 140 -95 234 -194 304
-322 82 -148 100 -223 101 -424 1 -163 -8 -235 -42 -343 -72 -221 -154 -358
-284 -472 -94 -83 -171 -132 -267 -172 -30 -12 -66 -30 -79 -40 -33 -25 -354
-123 -454 -138 -29 -4 -108 -19 -177 -33 -69 -14 -150 -28 -180 -32 -142 -18
-333 -78 -411 -130 -41 -26 -65 -31 -88 -16 -13 8 -13 12 0 27 19 23 122 69
239 106 277 88 363 128 499 228 44 33 150 162 199 242 51 83 98 231 122 388
12 82 13 154 0 255 -33 274 -32 316 13 353 40 34 347 76 363 50 3 -4 15 -8 27
-8 12 0 58 -12 101 -25 43 -14 84 -24 89 -22 6 2 -10 9 -36 16 -63 18 -64 35
-2 32 11 0 -25 15 -80 35 -114 40 -267 56 -346 36 -24 -6 -74 -14 -111 -18
l-66 -7 -17 34 c-10 19 -39 66 -64 104 -26 39 -51 78 -54 89 -4 10 -2 68 4
128 10 99 9 112 -7 136 l-18 27 -8 -53 c-5 -30 -20 -73 -34 -98 l-26 -44 -60
52 c-33 29 -103 94 -156 144 -54 50 -121 103 -149 118 -61 30 -56 29 -70 15z
m121 -72 c6 3 8 3 4 -2 -11 -11 12 -36 26 -28 6 3 8 3 4 -1 -4 -5 2 -17 13
-29 10 -11 19 -26 19 -31 0 -6 -12 4 -26 22 -14 18 -46 48 -70 66 -24 18 -41
36 -38 39 3 3 17 -6 31 -19 14 -13 31 -21 37 -17z m951 -45 c-3 -3 -11 0 -18
7 -9 10 -8 11 6 5 10 -3 15 -9 12 -12z m120 -562 c19 -8 19 -9 -2 -9 -12 -1
-25 4 -28 9 -7 12 2 12 30 0z m-1874 -1496 c17 -8 63 -24 102 -35 62 -17 66
-19 27 -16 -53 5 -200 48 -200 59 0 13 39 9 71 -8z m4714 -84 c-3 -5 -12 -10
-18 -10 -7 0 -6 4 3 10 19 12 23 12 15 0z m-1130 -2220 c3 -6 -1 -7 -9 -4 -18
7 -21 14 -7 14 6 0 13 -4 16 -10z"/>
<path d="M5990 7306 c0 -8 -8 -17 -17 -19 -12 -3 -10 -5 7 -6 19 -1 26 4 26
19 0 11 -4 20 -8 20 -4 0 -8 -6 -8 -14z"/>
<path d="M6030 7280 c-9 -6 -10 -10 -3 -10 6 0 15 5 18 10 8 12 4 12 -15 0z"/>
<path d="M7325 3580 c3 -5 14 -10 23 -10 15 0 15 2 2 10 -20 13 -33 13 -25 0z"/>
<path d="M7555 3570 c3 -5 11 -10 16 -10 6 0 7 5 4 10 -3 6 -11 10 -16 10 -6
0 -7 -4 -4 -10z"/>
</g>
</svg>
