<?xml version="1.0" standalone="no"?>
<!DOCTYPE svg PUBLIC "-//W3C//DTD SVG 20010904//EN"
 "http://www.w3.org/TR/2001/REC-SVG-20010904/DTD/svg10.dtd">
<svg version="1.0" xmlns="http://www.w3.org/2000/svg"
 width="1087.000000pt" height="1280.000000pt" viewBox="0 0 1087.000000 1280.000000"
 preserveAspectRatio="xMidYMid meet">
<metadata>
Created by potrace 1.15, written by Peter Selinger 2001-2017
</metadata>
<g transform="translate(0.000000,1280.000000) scale(0.100000,-0.100000)"
fill="#000000" stroke="none">
<path d="M2855 12794 c-147 -22 -415 -109 -559 -181 -310 -155 -645 -355
-1086 -648 -631 -419 -805 -551 -1010 -761 -153 -158 -195 -227 -194 -319 1
-74 23 -154 85 -312 76 -192 160 -359 234 -468 76 -111 294 -376 460 -560 149
-165 795 -808 1111 -1106 220 -208 275 -254 350 -296 137 -77 480 -246 564
-278 41 -16 78 -31 82 -35 4 -3 0 -59 -8 -125 -22 -168 -11 -634 16 -685 6
-12 9 -28 6 -36 -3 -9 1 -29 10 -45 8 -17 14 -38 13 -47 -2 -9 4 -31 14 -48 9
-17 14 -34 10 -37 -3 -4 1 -17 9 -29 8 -13 25 -50 38 -83 32 -83 70 -150 160
-290 l78 -120 7 -90 c3 -49 15 -187 25 -305 11 -118 27 -321 35 -450 24 -376
45 -519 115 -781 103 -390 112 -457 145 -994 28 -478 35 -677 25 -785 -14
-169 -40 -401 -50 -457 -5 -29 -14 -121 -20 -205 -20 -275 -80 -665 -124 -813
-31 -99 -210 -385 -320 -508 -73 -81 -92 -109 -106 -158 -24 -78 -32 -146 -22
-189 8 -32 11 -35 41 -32 18 1 71 -7 118 -18 46 -11 99 -20 116 -20 18 0 97
-11 177 -24 141 -24 157 -24 535 -20 215 3 446 5 515 4 139 -1 270 14 285 33
6 8 34 13 70 13 33 1 71 6 84 13 21 11 23 18 19 59 -3 26 -15 67 -26 91 -13
26 -22 64 -22 91 0 67 -33 187 -74 268 -37 73 -116 265 -116 282 0 5 10 12 21
15 12 4 34 19 50 32 55 49 50 149 -21 427 l-38 151 2 690 c3 720 8 852 56
1272 17 148 23 181 48 230 l30 57 5 -39 c13 -85 27 -227 37 -375 6 -85 17
-216 25 -290 8 -74 19 -243 25 -375 13 -288 39 -583 85 -954 19 -152 39 -319
45 -371 17 -153 32 -668 26 -880 -4 -114 -2 -226 4 -270 6 -41 15 -124 20
-183 11 -124 31 -171 92 -213 21 -15 59 -60 86 -104 46 -71 53 -78 98 -91 66
-19 175 -15 222 8 24 12 48 36 67 68 17 27 60 79 97 115 77 76 84 91 93 191 3
41 12 101 20 134 9 43 15 188 19 500 7 522 14 635 66 1047 51 411 77 690 90
977 6 129 20 323 31 430 10 108 22 256 26 328 3 73 9 133 13 133 16 0 51 -189
67 -365 20 -214 22 -844 4 -976 -5 -41 -13 -193 -17 -339 l-6 -265 -49 -195
c-58 -234 -71 -316 -60 -393 10 -71 41 -102 114 -112 30 -5 47 -12 47 -21 0
-20 -74 -203 -115 -284 -35 -70 -59 -160 -69 -263 -4 -32 -13 -72 -21 -88 -9
-16 -18 -49 -22 -74 -9 -67 11 -85 95 -85 47 0 71 -5 84 -17 16 -15 62 -18
351 -27 183 -5 384 -9 447 -9 319 3 409 6 447 14 54 11 155 27 261 39 45 6
100 18 123 26 27 11 56 15 89 11 43 -5 49 -4 54 16 16 59 -5 191 -41 260 -8
17 -49 66 -91 111 -43 45 -97 115 -122 155 -25 40 -63 100 -84 134 -77 122
-113 208 -139 332 -33 151 -72 428 -87 610 -6 77 -18 187 -26 245 -44 335 -56
511 -50 750 5 204 34 715 51 910 30 335 63 573 105 770 38 177 47 242 61 440
8 115 25 236 56 400 38 195 47 271 57 445 l13 210 67 99 c74 108 118 191 163
306 43 109 54 141 59 179 2 19 8 39 11 45 6 9 12 37 28 126 33 185 33 452 0
695 l-7 50 87 28 c79 26 508 234 633 307 98 57 1043 968 1375 1325 168 181
405 464 489 585 98 142 210 375 284 596 51 150 53 224 6 310 -63 115 -237 294
-457 469 -254 202 -915 654 -1279 874 -369 223 -560 321 -751 385 -200 66
-255 76 -435 76 -354 0 -627 -78 -1175 -335 -219 -103 -406 -175 -454 -175
-10 0 -77 16 -147 35 -71 19 -165 41 -209 49 -44 8 -127 31 -184 51 -190 66
-360 65 -574 -4 -67 -21 -151 -44 -187 -50 -36 -7 -119 -26 -185 -42 -84 -22
-133 -29 -163 -25 -77 10 -186 53 -453 179 -414 195 -601 263 -868 313 -131
25 -377 40 -456 28z"/>
</g>
</svg>
