<?xml version="1.0" standalone="no"?>
<!DOCTYPE svg PUBLIC "-//W3C//DTD SVG 20010904//EN"
 "http://www.w3.org/TR/2001/REC-SVG-20010904/DTD/svg10.dtd">
<svg version="1.0" xmlns="http://www.w3.org/2000/svg"
 width="1280.000000pt" height="812.000000pt" viewBox="0 0 1280.000000 812.000000"
 preserveAspectRatio="xMidYMid meet">
<metadata>
Created by potrace 1.15, written by Peter Selinger 2001-2017
</metadata>
<g transform="translate(0.000000,812.000000) scale(0.100000,-0.100000)"
fill="#000000" stroke="none">
<path d="M2985 8114 c-358 -38 -622 -143 -773 -309 -95 -103 -134 -192 -213
-480 -73 -263 -98 -310 -209 -385 -71 -48 -107 -93 -160 -199 -119 -239 -205
-658 -241 -1181 -12 -176 -7 -432 10 -490 6 -19 7 -38 3 -42 -26 -26 -336 -70
-582 -83 -191 -9 -378 -24 -450 -36 -86 -14 -219 -49 -225 -59 -11 -18 118
-99 235 -147 172 -71 373 -106 605 -107 88 -1 190 2 227 7 l66 7 7 -38 c3 -21
0 -79 -8 -128 -9 -49 -18 -129 -21 -178 -9 -131 -15 -139 -106 -148 -215 -21
-323 -25 -548 -21 -280 7 -398 -3 -524 -43 l-83 -26 60 -57 c171 -160 363
-205 978 -230 114 -4 210 -11 213 -14 3 -3 0 -68 -8 -144 -8 -89 -13 -277 -13
-528 1 -419 8 -514 61 -775 121 -600 390 -978 816 -1146 246 -97 631 -126 828
-63 170 54 260 153 404 442 57 115 77 145 115 175 25 20 69 60 97 87 65 63 84
120 84 249 0 113 -12 140 -62 144 -45 4 -72 -19 -131 -107 -56 -86 -69 -93
-103 -59 l-27 27 21 108 c35 172 28 247 -26 296 -16 15 -26 16 -61 8 -65 -14
-115 -54 -171 -133 -55 -79 -58 -86 -93 -275 -36 -196 -91 -298 -196 -365 -72
-45 -173 -34 -311 34 -136 66 -268 211 -413 453 -29 50 -38 78 -51 166 -44
292 -4 508 182 999 38 102 86 237 107 300 20 63 45 138 57 165 11 28 29 83 40
124 32 122 45 139 138 175 25 10 79 38 120 63 53 33 89 47 124 51 l49 5 -6
-38 c-3 -21 -28 -75 -56 -119 -55 -91 -74 -145 -69 -196 3 -33 7 -37 62 -59
102 -40 196 -55 262 -41 47 10 65 20 104 59 56 56 77 108 115 281 15 69 35
139 44 156 9 17 75 88 148 157 102 98 141 128 173 137 22 6 44 9 49 6 4 -3 16
-27 26 -53 51 -135 219 -438 397 -716 l91 -142 -22 -190 c-35 -316 -44 -467
-44 -775 0 -449 40 -845 129 -1288 13 -68 21 -129 17 -135 -5 -7 -40 -55 -79
-107 -196 -264 -294 -487 -297 -680 -1 -99 14 -133 86 -195 61 -53 127 -68
261 -62 61 2 151 0 200 -5 54 -6 91 -6 95 0 11 17 52 33 70 27 13 -4 20 -19
24 -54 8 -66 21 -84 81 -114 41 -21 60 -24 98 -20 31 4 53 1 63 -7 10 -8 82
-14 232 -17 504 -13 787 55 986 237 l54 49 -5 218 c-10 464 36 1284 108 1903
38 337 46 381 78 440 16 30 39 92 52 137 24 88 48 123 83 123 32 0 183 39 414
109 111 33 248 69 304 81 111 22 288 27 393 10 33 -5 103 -14 155 -20 52 -6
183 -28 292 -50 108 -22 240 -43 293 -46 l96 -7 19 -42 c30 -68 82 -144 195
-283 58 -71 122 -156 143 -188 45 -70 45 -61 25 -494 -7 -157 -11 -339 -8
-405 3 -66 11 -223 17 -350 14 -274 8 -314 -54 -407 -42 -62 -105 -112 -263
-208 -122 -74 -192 -167 -216 -285 -23 -117 16 -176 148 -226 47 -18 106 -46
132 -63 60 -40 111 -39 246 3 118 37 127 38 163 7 36 -30 112 -56 167 -56 64
0 138 26 262 92 98 51 123 60 191 68 43 4 95 15 116 24 21 9 97 26 170 37 73
10 151 26 174 33 l41 14 -21 -36 c-19 -31 -22 -52 -22 -137 0 -56 6 -116 13
-136 l13 -36 192 -39 c157 -32 213 -39 307 -39 73 0 126 5 147 13 28 12 34 11
70 -12 91 -59 188 -59 360 3 60 22 157 52 214 66 131 35 215 72 267 119 32 30
46 53 66 114 40 123 65 233 91 400 40 257 49 393 49 677 0 314 -11 400 -74
574 -123 345 -116 700 25 1186 57 194 181 534 205 559 26 26 32 -318 10 -554
-7 -74 -12 -205 -12 -290 0 -176 15 -270 65 -390 41 -100 127 -187 247 -249
199 -104 250 -158 250 -265 0 -39 -8 -77 -21 -105 -29 -65 -40 -121 -24 -121
26 0 139 96 182 154 55 74 79 120 109 209 58 170 56 410 -4 479 -8 10 -81 52
-162 93 -151 77 -212 124 -235 179 -7 17 -26 85 -42 151 l-28 120 0 595 c-1
424 -4 624 -14 695 -39 306 -111 561 -225 799 -24 50 -108 188 -186 306 -78
118 -171 274 -207 345 -179 362 -441 738 -703 1008 -379 393 -804 645 -1354
803 -170 49 -333 80 -541 103 -350 39 -536 44 -1360 37 -795 -7 -1051 -1
-1355 30 -284 28 -588 86 -780 147 -94 30 -98 30 -353 34 -162 3 -366 -1 -546
-11 -540 -30 -821 -20 -1116 39 -108 22 -164 27 -325 30 -107 2 -213 1 -235
-1z m7223 -7090 c4 -258 -3 -307 -53 -359 -50 -54 -57 -48 -50 48 12 157 36
317 61 419 24 94 32 118 37 118 1 0 4 -102 5 -226z"/>
</g>
</svg>
