<?xml version="1.0" standalone="no"?>
<!DOCTYPE svg PUBLIC "-//W3C//DTD SVG 20010904//EN"
 "http://www.w3.org/TR/2001/REC-SVG-20010904/DTD/svg10.dtd">
<svg version="1.0" xmlns="http://www.w3.org/2000/svg"
 width="1280.000000pt" height="954.000000pt" viewBox="0 0 1280.000000 954.000000"
 preserveAspectRatio="xMidYMid meet">
<metadata>
Created by potrace 1.15, written by Peter Selinger 2001-2017
</metadata>
<g transform="translate(0.000000,954.000000) scale(0.100000,-0.100000)"
fill="#000000" stroke="none">
<path d="M6125 9404 c-339 -131 -440 -164 -1150 -374 -184 -55 -225 -64 -332
-71 l-121 -8 -319 -124 c-175 -69 -430 -166 -566 -217 -191 -71 -251 -98 -258
-114 -5 -12 -72 -205 -150 -431 -291 -849 -217 -681 -633 -1440 l-367 -670 7
-190 c4 -104 7 -194 8 -200 1 -10 -79 -56 -533 -305 -219 -121 -237 -129 -275
-124 -40 6 -43 4 -79 -39 -33 -40 -41 -45 -70 -42 -17 3 -290 10 -606 16
l-575 11 -52 -58 c-45 -50 -53 -65 -53 -99 -1 -22 3 -45 7 -52 4 -7 172 -44
377 -83 204 -39 485 -93 625 -120 140 -27 352 -68 470 -90 118 -23 217 -43
221 -45 3 -3 33 4 65 15 169 54 463 140 482 140 14 0 26 -9 31 -22 5 -13 14
-153 20 -313 7 -159 16 -319 21 -355 5 -36 46 -362 90 -725 45 -363 87 -705
94 -760 l12 -100 484 -620 c266 -341 486 -623 489 -627 3 -4 259 -47 567 -97
l562 -91 134 47 134 47 12 160 c18 233 22 211 -64 366 l-76 138 -112 35 c-114
36 -340 107 -552 174 l-121 37 -127 433 -127 432 -9 173 c-6 95 -21 386 -35
646 l-24 473 356 507 c196 279 366 518 378 530 22 23 28 24 231 29 228 6 229
6 618 119 65 19 120 33 121 32 2 -2 23 -63 49 -136 49 -142 53 -181 37 -326
-6 -52 4 -192 40 -580 27 -281 71 -763 100 -1071 l51 -560 118 -540 c65 -297
121 -556 125 -576 5 -29 -21 -134 -135 -534 -77 -273 -140 -499 -138 -500 2
-2 191 -25 420 -51 l417 -47 266 53 c146 29 267 51 269 49 2 -2 -4 -58 -14
-124 l-17 -120 56 -112 56 -113 47 0 c26 0 285 -16 575 -35 l528 -36 260 92
c143 51 263 95 267 98 4 3 -5 186 -19 406 l-25 400 21 130 c17 105 254 1621
343 2190 12 77 25 144 29 148 5 7 548 -49 556 -57 0 0 101 -368 223 -816 l222
-815 -131 -373 c-73 -205 -130 -376 -127 -380 3 -4 22 -9 43 -10 21 -1 189
-16 373 -34 l335 -31 228 22 c126 13 230 21 233 19 2 -3 -5 -31 -16 -63 -11
-32 -17 -62 -13 -66 5 -5 59 -40 122 -79 l113 -70 326 -15 c180 -9 408 -20
507 -25 l180 -9 228 81 c145 52 227 86 227 94 0 8 -36 170 -80 360 l-80 347 0
186 c0 102 4 350 10 551 5 201 14 552 20 780 l11 415 60 395 c33 217 80 527
104 689 l46 293 -46 337 c-25 185 -74 551 -109 814 l-64 478 -312 507 -312
507 -567 270 c-311 148 -618 294 -681 325 -70 34 -166 70 -245 93 -71 20 -251
70 -400 112 -686 194 -772 217 -800 216 -16 0 -194 -32 -394 -70 -296 -57
-367 -67 -375 -57 -6 7 -342 202 -746 433 -404 232 -854 489 -999 572 -145 83
-266 151 -270 150 -3 0 -163 -61 -356 -135z"/>
</g>
</svg>
