<?xml version="1.0" standalone="no"?>
<!DOCTYPE svg PUBLIC "-//W3C//DTD SVG 20010904//EN"
 "http://www.w3.org/TR/2001/REC-SVG-20010904/DTD/svg10.dtd">
<svg version="1.0" xmlns="http://www.w3.org/2000/svg"
 width="1280.000000pt" height="943.000000pt" viewBox="0 0 1280.000000 943.000000"
 preserveAspectRatio="xMidYMid meet">
<metadata>
Created by potrace 1.15, written by Peter Selinger 2001-2017
</metadata>
<g transform="translate(0.000000,943.000000) scale(0.100000,-0.100000)"
fill="#000000" stroke="none">
<path d="M8620 9424 c-927 -61 -1490 -449 -1739 -1199 -128 -383 -178 -963
-120 -1380 70 -505 273 -937 614 -1303 216 -232 571 -462 874 -566 235 -82
444 -98 561 -44 207 94 450 407 690 888 90 180 180 379 180 399 0 6 5 11 11
11 6 0 8 -8 5 -17 -3 -10 -12 -58 -20 -108 -118 -687 -357 -1193 -634 -1338
-242 -127 -751 -106 -1178 48 -719 260 -1227 852 -1444 1681 -38 146 -84 386
-107 554 -14 105 -18 200 -18 430 0 378 16 493 130 937 51 201 61 272 46 329
-24 90 -81 124 -286 172 -266 63 -505 100 -855 134 -183 18 -879 17 -1060 0
-537 -53 -988 -158 -1434 -334 -798 -317 -1447 -839 -1974 -1588 -449 -639
-799 -1470 -853 -2027 -24 -245 29 -347 145 -279 120 70 218 178 393 429 139
201 182 237 228 190 24 -23 32 -48 81 -243 69 -280 157 -520 299 -815 181
-378 383 -688 586 -900 157 -163 186 -285 176 -745 -8 -348 -15 -428 -117
-1195 -76 -574 -90 -707 -90 -870 0 -188 28 -263 141 -372 94 -90 219 -156
389 -206 227 -67 329 -78 745 -84 748 -11 1137 39 1272 161 38 34 46 48 50 86
6 58 -35 182 -158 477 -233 556 -310 811 -340 1119 -21 210 14 398 101 545
103 174 326 300 457 259 21 -7 81 -39 134 -71 261 -160 437 -207 805 -216 331
-9 468 13 717 114 136 55 146 57 232 57 79 0 97 -3 149 -28 235 -114 390 -509
403 -1024 7 -267 -5 -378 -102 -907 -14 -77 -29 -189 -32 -250 l-6 -110 29
-29 c38 -38 106 -71 196 -96 517 -143 1505 -124 1818 35 69 36 98 72 111 140
22 119 -11 270 -121 560 -180 475 -191 524 -198 834 -13 637 99 1065 342 1307
73 73 95 88 233 158 84 42 262 140 395 217 275 160 325 186 445 234 224 91
394 83 528 -24 89 -72 117 -151 90 -255 -34 -131 -124 -261 -421 -611 -342
-402 -462 -589 -510 -791 -30 -128 -9 -352 51 -544 117 -375 410 -815 614
-920 80 -41 418 75 586 202 133 102 195 207 195 336 0 53 -6 80 -26 120 -32
64 -54 83 -202 171 -193 113 -252 199 -252 362 0 66 5 94 29 153 87 218 281
421 811 850 456 370 619 533 820 816 524 742 693 1798 474 2960 -166 882 -574
1734 -1063 2220 -237 236 -356 302 -756 419 -732 214 -1229 321 -1685 360
-127 12 -493 21 -580 15z"/>
</g>
</svg>
