<?xml version="1.0" standalone="no"?>
<!DOCTYPE svg PUBLIC "-//W3C//DTD SVG 20010904//EN"
 "http://www.w3.org/TR/2001/REC-SVG-20010904/DTD/svg10.dtd">
<svg version="1.0" xmlns="http://www.w3.org/2000/svg"
 width="1280.000000pt" height="640.000000pt" viewBox="0 0 1280.000000 640.000000"
 preserveAspectRatio="xMidYMid meet">
<metadata>
Created by potrace 1.15, written by Peter Selinger 2001-2017
</metadata>
<g transform="translate(0.000000,640.000000) scale(0.100000,-0.100000)"
fill="#000000" stroke="none">
<path d="M9580 6123 c-262 -25 -363 -50 -547 -136 -154 -72 -190 -85 -317
-122 -213 -61 -460 -89 -781 -90 l-250 0 -255 52 c-337 69 -451 83 -678 83
-334 0 -563 -54 -807 -188 -424 -235 -731 -704 -884 -1352 -54 -229 -65 -334
-81 -795 -27 -751 -66 -1128 -150 -1440 -63 -235 -90 -400 -90 -560 l1 -70 45
130 c142 404 142 405 254 1355 59 499 56 486 76 469 26 -21 44 -65 60 -146 9
-43 29 -113 45 -156 38 -103 38 -154 -6 -502 -42 -334 -54 -401 -107 -610 -93
-364 -193 -621 -425 -1087 -95 -190 -173 -351 -173 -357 0 -11 24 -19 160 -50
128 -29 235 -42 384 -44 123 -2 137 0 163 19 31 24 32 33 18 184 -10 106 19
206 167 574 130 325 175 423 188 410 11 -12 43 -123 101 -349 27 -104 64 -243
84 -308 49 -166 60 -270 46 -458 -12 -166 -12 -169 41 -169 15 0 140 -13 278
-30 283 -34 395 -37 463 -14 56 19 127 91 127 129 0 45 -38 103 -129 199 -93
97 -111 125 -160 248 -123 310 -171 568 -171 918 0 210 19 316 76 431 36 72
42 76 154 104 35 9 72 21 82 26 9 5 40 47 68 93 28 47 64 96 80 110 46 38 125
50 243 37 54 -6 149 -11 211 -11 160 0 160 0 866 241 253 87 278 92 437 93 79
1 143 0 143 -2 0 -1 -7 -48 -15 -105 -51 -334 -56 -518 -21 -757 41 -275 42
-315 12 -475 -14 -77 -39 -230 -56 -340 -78 -516 -111 -636 -222 -808 -39 -61
-71 -117 -72 -126 -1 -23 103 -55 244 -76 227 -32 720 -12 720 31 0 37 -47
127 -101 194 -154 190 -149 182 -149 227 0 57 19 109 107 298 46 98 109 261
163 420 104 307 148 425 160 425 13 0 109 -122 162 -205 25 -38 76 -126 113
-194 37 -68 100 -178 141 -245 143 -233 215 -468 244 -801 7 -72 15 -133 18
-136 4 -4 106 -14 228 -23 345 -26 418 -6 622 172 34 30 62 60 62 66 0 18
-242 268 -325 336 -40 32 -80 74 -88 93 -10 21 -20 85 -27 165 -18 239 -56
349 -290 822 -158 321 -190 399 -250 620 -17 63 -52 179 -76 257 -75 241 -84
284 -84 430 0 252 29 357 110 401 48 25 84 26 476 6 100 -5 140 -2 238 16 64
12 124 29 132 37 11 12 13 31 7 96 -13 149 -13 152 27 155 48 5 89 -9 270 -88
85 -37 207 -83 270 -103 140 -44 198 -81 261 -166 194 -264 265 -459 549
-1506 156 -573 204 -785 257 -1135 22 -143 27 -213 28 -385 1 -184 3 -210 17
-213 9 -2 54 8 100 22 46 14 94 26 106 26 12 0 22 1 22 3 0 1 -6 34 -14 72 -8
39 -20 187 -26 330 -38 908 -95 1393 -271 2328 -33 175 -57 321 -55 326 7 11
26 16 199 51 76 16 154 37 175 48 35 18 81 77 69 88 -3 3 -54 12 -114 20 -297
41 -358 59 -399 121 -12 18 -49 106 -82 195 -264 711 -398 990 -623 1291 -201
271 -379 404 -670 501 -90 31 -132 38 -280 51 -208 18 -228 23 -344 85 -173
92 -424 184 -548 200 -72 9 -91 10 -157 3z"/>
<path d="M2675 3574 c-11 -2 -45 -9 -75 -15 -30 -6 -102 -33 -160 -59 -240
-109 -573 -144 -835 -87 -187 40 -251 48 -385 48 -262 -1 -424 -61 -592 -220
-123 -116 -211 -263 -281 -471 -59 -171 -76 -282 -87 -542 -19 -473 -38 -667
-80 -835 -38 -156 -50 -225 -49 -292 l0 -56 29 80 c60 163 67 198 115 605 19
162 37 315 41 340 l6 45 19 -24 c10 -13 19 -31 19 -40 0 -10 11 -55 25 -101
l25 -83 -25 -197 c-46 -369 -122 -615 -305 -980 -45 -89 -80 -163 -78 -165 13
-10 158 -37 239 -45 97 -9 145 -3 160 21 3 6 2 32 -4 59 -13 67 6 138 95 362
91 231 90 230 117 144 12 -37 21 -74 21 -80 0 -7 18 -77 41 -157 39 -136 41
-151 40 -271 -1 -125 -1 -128 21 -132 50 -10 288 -36 332 -36 62 0 111 22 130
58 19 37 7 61 -67 141 -42 46 -59 75 -88 157 -64 173 -74 235 -74 454 0 184 1
198 24 248 22 49 27 53 78 68 46 13 60 23 86 61 67 96 45 88 229 88 l163 0
260 89 c226 78 271 90 344 94 l83 5 -5 -39 c-25 -177 -30 -308 -18 -402 27
-198 25 -228 -23 -512 -49 -293 -61 -335 -117 -431 -22 -36 -39 -68 -39 -71 0
-20 172 -48 295 -48 93 0 211 13 223 24 12 12 -12 59 -68 131 -76 99 -77 111
-6 269 29 67 79 199 111 294 31 94 61 172 65 172 14 0 91 -114 150 -220 156
-282 181 -349 202 -540 l13 -115 70 -6 c39 -4 106 -7 151 -8 71 -1 88 3 140
29 32 16 77 47 98 69 l39 40 -56 63 c-31 35 -77 80 -102 101 -65 55 -74 72
-84 174 -13 119 -41 200 -155 440 -84 177 -104 228 -161 429 -69 241 -74 276
-55 409 13 85 34 111 98 121 26 4 88 1 139 -5 72 -10 111 -10 170 -1 114 17
113 17 106 102 l-6 71 32 -6 c18 -4 79 -27 134 -51 56 -24 126 -51 155 -60 75
-22 108 -49 163 -133 82 -126 126 -256 264 -773 119 -446 174 -757 160 -902
-7 -78 -6 -79 82 -53 l51 15 -8 38 c-5 20 -13 141 -19 267 -22 451 -55 721
-158 1283 -13 76 -14 95 -4 102 7 4 47 13 88 20 109 19 181 73 111 84 -169 25
-213 37 -234 58 -12 13 -54 111 -94 218 -155 418 -307 675 -471 796 -28 20
-91 54 -140 75 -74 32 -107 40 -206 50 -104 11 -126 17 -188 49 -142 74 -231
102 -335 106 -52 2 -104 1 -115 -2z"/>
</g>
</svg>
