<?xml version="1.0" standalone="no"?>
<!DOCTYPE svg PUBLIC "-//W3C//DTD SVG 20010904//EN"
 "http://www.w3.org/TR/2001/REC-SVG-20010904/DTD/svg10.dtd">
<svg version="1.0" xmlns="http://www.w3.org/2000/svg"
 width="774.000000pt" height="1280.000000pt" viewBox="0 0 774.000000 1280.000000"
 preserveAspectRatio="xMidYMid meet">
<metadata>
Created by potrace 1.15, written by Peter Selinger 2001-2017
</metadata>
<g transform="translate(0.000000,1280.000000) scale(0.100000,-0.100000)"
fill="#000000" stroke="none">
<path d="M3636 12744 c-46 -38 -66 -62 -66 -78 0 -13 -9 -31 -20 -41 -11 -10
-20 -28 -20 -39 0 -22 -24 -63 -47 -81 -7 -5 -20 -37 -28 -70 -9 -33 -27 -71
-41 -86 -14 -15 -24 -37 -24 -55 0 -16 -9 -48 -21 -69 -16 -32 -22 -66 -26
-165 -9 -201 -8 -280 5 -355 8 -38 16 -92 19 -120 3 -27 14 -68 24 -91 10 -22
19 -59 19 -81 0 -23 6 -46 14 -52 10 -8 13 -23 9 -45 -3 -21 0 -42 10 -57 11
-16 20 -67 26 -149 8 -101 15 -133 36 -174 18 -34 23 -52 15 -60 -5 -5 -10
-17 -10 -25 0 -27 -151 -77 -197 -65 -12 3 -32 -1 -44 -10 -13 -8 -97 -31
-187 -51 -90 -20 -196 -48 -235 -62 -40 -14 -99 -31 -132 -39 -33 -7 -61 -18
-63 -23 -2 -6 -20 -13 -40 -17 -20 -4 -61 -22 -92 -39 -30 -18 -66 -33 -80
-33 -27 0 -325 -126 -350 -148 -9 -7 -56 -30 -105 -49 -105 -42 -195 -91 -261
-141 -26 -20 -61 -41 -78 -46 -17 -6 -49 -27 -71 -47 -22 -20 -66 -54 -97 -75
-32 -21 -86 -68 -121 -105 -35 -37 -99 -94 -143 -126 -98 -72 -171 -148 -204
-210 -14 -27 -46 -68 -73 -93 -66 -63 -205 -232 -244 -298 -18 -30 -52 -80
-75 -112 -23 -31 -77 -122 -119 -202 -119 -226 -147 -275 -169 -295 -13 -11
-20 -31 -20 -52 0 -19 -6 -46 -14 -61 -8 -16 -24 -58 -36 -94 -12 -37 -28 -72
-36 -79 -8 -6 -14 -27 -14 -46 0 -19 -6 -46 -14 -61 -7 -15 -16 -45 -20 -67
-4 -22 -20 -80 -35 -130 -16 -49 -39 -139 -51 -200 -12 -60 -28 -128 -36 -150
-7 -22 -13 -65 -13 -95 0 -30 -5 -89 -10 -130 -6 -41 -11 -101 -11 -132 0 -32
-4 -58 -10 -58 -14 0 -14 -467 0 -475 6 -3 10 -37 10 -75 0 -38 4 -71 9 -74 4
-3 11 -52 14 -108 3 -57 17 -148 30 -203 82 -340 132 -509 163 -557 13 -20 21
-44 18 -52 -8 -22 137 -314 187 -375 24 -29 51 -65 59 -80 33 -58 257 -350
316 -411 34 -36 100 -114 147 -174 83 -104 86 -109 71 -132 -9 -12 -13 -32 -9
-42 3 -12 -5 -44 -20 -78 -17 -39 -24 -67 -20 -85 4 -17 0 -37 -9 -51 -13 -19
-15 -62 -15 -243 1 -334 25 -559 69 -652 16 -36 30 -72 30 -80 0 -7 9 -32 21
-54 11 -22 19 -48 17 -57 -2 -9 40 -105 93 -213 72 -145 108 -207 141 -240 24
-24 64 -71 90 -104 75 -98 240 -263 275 -275 17 -7 39 -22 48 -36 8 -13 24
-24 34 -24 10 0 26 -9 37 -21 18 -20 156 -109 223 -144 32 -16 58 -27 221 -88
36 -14 99 -28 140 -31 41 -4 125 -16 185 -28 81 -15 159 -21 295 -23 102 -1
280 -8 395 -14 116 -6 264 -14 330 -17 66 -3 130 -10 143 -17 17 -8 25 -8 30
0 8 13 79 -3 121 -26 13 -7 34 -11 48 -8 13 2 54 -6 91 -19 37 -12 95 -27 128
-33 57 -9 74 -18 216 -124 133 -100 162 -127 218 -202 59 -80 98 -159 119
-240 4 -17 13 -40 19 -51 6 -12 16 -64 23 -115 33 -270 -35 -477 -220 -672
-48 -50 -147 -117 -174 -117 -9 0 -20 -6 -24 -14 -11 -19 -47 -36 -75 -36 -13
0 -28 -4 -33 -9 -6 -5 -53 -22 -105 -38 -90 -27 -104 -28 -267 -26 -151 2
-177 5 -210 23 -21 11 -46 20 -56 20 -54 0 -399 162 -507 239 -176 125 -575
368 -655 399 -28 11 -68 29 -90 40 -49 25 -189 42 -350 42 -95 0 -133 -5 -208
-26 -99 -28 -252 -102 -301 -145 -17 -14 -45 -33 -62 -42 -33 -17 -50 -42 -33
-52 13 -9 41 2 103 39 91 55 275 114 376 121 263 18 294 18 340 -4 25 -11 63
-21 84 -21 50 0 234 -105 496 -285 52 -35 113 -77 135 -91 22 -15 54 -39 70
-54 17 -15 62 -44 100 -65 39 -20 89 -50 113 -66 24 -16 46 -29 49 -29 4 0 23
-11 43 -25 20 -14 66 -32 101 -41 35 -8 85 -26 111 -40 27 -13 59 -24 72 -24
14 0 27 -4 30 -9 3 -5 15 -7 26 -4 11 3 35 -2 54 -11 19 -9 50 -16 69 -16 20
0 39 -4 42 -10 8 -13 245 -13 245 0 0 14 28 12 33 -2 3 -10 7 -10 19 0 10 8
26 10 42 6 18 -4 33 0 52 15 15 12 36 21 48 21 11 0 48 12 81 26 33 14 75 30
93 35 19 6 59 27 89 47 31 20 67 43 82 50 51 26 56 29 67 51 6 12 21 29 33 37
11 8 21 23 21 33 0 9 14 30 31 47 32 30 140 199 158 247 20 51 43 241 37 298
-4 42 -2 60 9 69 14 12 10 39 -8 51 -6 4 -9 39 -8 78 1 46 -3 81 -13 99 -8 16
-12 39 -9 51 3 12 -1 29 -9 39 -9 9 -18 34 -22 55 -5 24 -16 43 -32 54 -17 11
-22 19 -15 26 17 17 13 45 -9 60 -20 14 -58 65 -107 145 -28 46 -90 110 -124
127 -14 8 -41 29 -60 48 -19 19 -51 39 -71 45 -19 5 -70 33 -111 61 -42 28
-80 51 -85 51 -5 0 -34 10 -63 23 -30 13 -99 33 -154 46 -55 12 -113 26 -130
31 -65 19 -205 41 -300 46 -55 3 -124 13 -153 21 -37 11 -59 13 -75 6 -12 -5
-40 -6 -62 -2 -22 4 -134 13 -249 19 -153 8 -217 15 -239 27 -24 12 -47 14
-104 9 -53 -5 -88 -3 -126 8 -28 9 -89 25 -135 35 -45 11 -90 27 -99 36 -8 9
-21 14 -29 11 -14 -5 -147 48 -201 80 -18 10 -33 24 -33 31 0 7 -18 17 -40 23
-24 6 -47 21 -56 36 -9 14 -36 36 -60 50 -24 14 -44 30 -44 35 0 17 -64 75
-98 90 -24 10 -35 23 -42 50 -6 21 -17 39 -24 42 -8 3 -16 16 -18 29 -2 13
-13 27 -25 33 -13 6 -33 33 -48 68 -14 33 -33 61 -43 64 -9 2 -30 34 -47 71
-16 36 -39 80 -51 98 -14 21 -19 36 -13 45 16 25 9 57 -17 89 -23 27 -26 37
-21 75 4 25 2 47 -3 50 -6 3 -10 17 -10 29 0 13 -7 40 -16 61 -12 29 -15 68
-13 164 1 69 -1 146 -5 171 -10 62 28 289 59 357 13 29 27 53 30 53 3 0 30
-17 58 -39 58 -42 168 -101 190 -101 8 0 31 -17 53 -38 27 -27 60 -46 109 -62
39 -12 90 -35 115 -50 83 -52 275 -130 378 -154 32 -7 67 -18 78 -24 40 -21
229 -83 327 -106 196 -47 472 -86 762 -107 66 -5 140 -10 165 -13 446 -42 727
-34 927 28 55 17 112 26 193 29 124 6 237 31 323 72 28 14 58 25 68 25 28 0
250 70 299 95 25 12 97 43 161 68 132 52 230 99 276 133 17 13 66 40 109 59
81 37 125 64 380 236 40 27 91 70 115 97 24 26 94 89 155 140 62 50 131 115
155 144 23 29 68 80 99 113 32 33 81 101 111 150 29 50 73 110 97 135 24 25
55 67 68 93 14 27 40 70 59 96 48 66 169 318 204 426 17 50 46 133 65 186 40
111 68 238 70 324 2 92 17 176 37 216 10 20 18 51 19 70 0 19 3 184 6 367 5
327 5 335 -21 475 -14 78 -32 172 -40 208 -8 37 -15 85 -15 107 0 23 -6 45
-15 52 -9 8 -15 30 -15 58 0 24 -8 63 -19 86 -22 51 -47 122 -71 205 -10 35
-27 75 -38 90 -10 14 -26 55 -35 91 -9 36 -24 70 -32 76 -22 16 -58 72 -87
135 -34 73 -125 204 -182 260 -26 26 -46 56 -46 67 0 13 -12 29 -27 39 -16 10
-42 31 -59 48 -17 16 -45 37 -62 47 -17 9 -42 34 -56 56 -14 22 -34 43 -45 47
-14 4 -22 18 -26 43 -4 20 -10 46 -14 57 -27 70 -34 94 -32 122 0 20 -9 47
-24 69 -14 20 -25 51 -25 69 0 21 -11 46 -29 69 -17 21 -37 61 -47 89 -24 73
-47 117 -122 232 -88 133 -167 242 -210 287 -20 21 -41 53 -46 70 -9 25 -18
34 -38 36 -16 2 -28 7 -28 11 0 16 -156 171 -215 213 -171 124 -387 263 -445
287 -30 13 -71 34 -90 47 -19 13 -40 24 -46 24 -6 0 -19 9 -30 21 -25 28 -67
49 -97 49 -12 0 -28 5 -35 12 -6 6 -34 13 -62 15 -28 1 -64 10 -80 18 -26 13
-182 49 -264 60 -15 3 -34 9 -42 16 -7 6 -39 13 -71 15 -32 2 -80 6 -108 7
-137 10 -592 9 -616 -1 l-26 -10 4 74 c3 57 0 82 -13 104 -16 26 -16 31 -1 62
11 24 14 51 10 99 -4 52 -2 71 11 92 10 14 16 31 15 39 -5 26 13 123 27 145 9
14 14 51 14 101 0 47 6 98 16 123 8 24 13 56 10 71 -3 16 0 31 9 38 20 16 19
49 0 56 -12 5 -13 10 -4 20 28 34 -37 427 -88 528 -39 77 -65 157 -68 206 -1
41 -7 49 -70 107 -66 61 -71 63 -121 63 -50 0 -57 -4 -118 -56z m1004 -2670
c63 -9 120 -20 127 -26 7 -5 45 -14 85 -19 40 -5 96 -16 123 -25 81 -26 314
-142 342 -170 14 -14 34 -27 44 -29 27 -5 77 -45 82 -66 3 -12 14 -19 30 -19
33 0 184 -132 239 -210 23 -33 46 -60 50 -60 11 0 10 -28 -1 -34 -5 -4 -50 7
-99 24 -50 16 -103 30 -119 30 -17 0 -85 18 -152 40 -67 22 -128 40 -136 40
-8 0 -45 15 -82 34 -118 60 -335 156 -353 156 -9 0 -26 13 -38 29 -12 16 -35
32 -52 36 -17 4 -34 13 -37 21 -2 7 -13 16 -23 19 -10 3 -21 17 -24 30 -5 18
-17 27 -47 35 -31 9 -59 30 -110 83 -38 39 -67 72 -66 73 8 9 56 23 77 23 14
1 77 -6 140 -15z m-736 -223 c39 -46 99 -119 133 -161 60 -76 119 -130 141
-130 6 0 20 -20 31 -45 15 -34 29 -49 55 -60 19 -8 37 -24 41 -34 3 -11 16
-23 28 -27 12 -3 42 -23 67 -43 25 -20 58 -42 74 -49 17 -7 46 -26 67 -43 20
-16 42 -29 47 -29 6 0 40 -20 75 -43 82 -55 157 -95 225 -118 29 -10 65 -27
80 -37 15 -11 45 -25 67 -32 22 -7 60 -21 85 -31 94 -37 315 -106 397 -123 34
-7 68 -17 75 -23 7 -6 43 -18 81 -28 37 -10 82 -29 99 -42 18 -12 43 -23 57
-23 14 0 87 -31 161 -69 103 -52 139 -75 150 -97 12 -23 15 -70 14 -240 -1
-186 -4 -218 -22 -271 -12 -33 -26 -96 -31 -140 -6 -44 -19 -102 -30 -129 -69
-174 -112 -269 -131 -289 -16 -17 -21 -32 -17 -50 4 -21 -3 -35 -34 -65 -22
-21 -39 -47 -39 -58 0 -11 -20 -40 -45 -64 -24 -24 -45 -49 -45 -56 0 -38
-288 -346 -379 -407 -34 -22 -63 -48 -67 -58 -3 -9 -22 -26 -43 -37 -21 -10
-64 -40 -97 -67 -32 -27 -63 -48 -69 -48 -5 0 -42 -21 -81 -47 -73 -47 -275
-148 -297 -148 -7 0 -17 -4 -23 -8 -5 -5 -45 -21 -89 -37 -44 -15 -111 -42
-150 -60 -41 -19 -103 -37 -150 -45 -44 -7 -106 -23 -139 -37 -43 -18 -68 -23
-95 -18 -30 5 -41 2 -56 -14 -10 -12 -28 -21 -40 -21 -27 0 -233 -56 -257 -70
-10 -6 -32 -10 -50 -10 -18 0 -53 -5 -78 -11 -25 -6 -83 -17 -130 -24 -47 -8
-121 -21 -165 -29 -44 -8 -105 -15 -136 -15 -38 -1 -61 -6 -69 -16 -9 -11 -30
-15 -74 -14 -45 1 -73 -4 -102 -19 -29 -15 -52 -19 -80 -15 -29 4 -43 1 -53
-11 -7 -9 -26 -16 -42 -16 -16 0 -37 -4 -47 -9 -9 -5 -46 -17 -82 -26 -36 -9
-99 -30 -140 -47 -41 -17 -91 -36 -110 -43 -85 -30 -220 -92 -273 -125 -32
-19 -78 -46 -103 -60 -24 -14 -112 -71 -195 -127 -117 -79 -155 -100 -171 -94
-34 13 -146 131 -170 179 -12 26 -36 61 -53 77 -18 17 -44 53 -60 80 -15 28
-38 66 -50 85 -13 19 -25 47 -29 61 -3 15 -21 48 -39 75 -19 27 -37 67 -41 88
-4 22 -25 75 -47 118 -22 43 -37 78 -34 78 3 0 -1 12 -8 28 -8 15 -12 32 -10
39 2 7 -1 22 -8 35 -7 13 -12 33 -10 45 1 12 -4 34 -12 50 -8 15 -30 98 -50
183 -39 170 -64 399 -60 560 2 52 3 137 2 188 0 63 4 98 13 109 7 9 14 41 14
72 2 71 60 320 79 341 8 9 15 29 15 45 0 15 14 57 30 92 17 35 33 85 37 111 8
62 39 130 74 163 16 15 29 37 29 49 0 12 9 33 20 47 11 14 20 34 20 44 0 9 11
30 24 46 13 15 27 39 31 53 4 14 20 43 34 64 14 21 32 49 39 63 7 13 23 34 35
46 12 13 49 64 82 113 33 49 85 111 115 139 30 27 118 112 195 187 105 103
149 139 173 144 20 4 42 18 54 35 12 16 60 52 107 81 47 28 149 91 226 139
144 89 377 200 475 226 30 8 73 25 95 37 22 12 78 31 125 40 96 20 162 38 270
73 41 13 102 26 134 28 33 3 64 9 70 15 5 5 28 10 51 10 22 0 51 7 63 16 13 9
29 13 37 10 8 -3 25 -1 37 3 28 11 49 -7 152 -128z m2901 -2018 c9 -27 25 -66
35 -88 26 -56 53 -154 51 -189 0 -16 6 -38 14 -49 8 -12 12 -31 8 -48 -3 -16
0 -43 8 -61 7 -17 14 -52 15 -77 1 -25 6 -71 12 -101 6 -30 15 -122 21 -204 9
-128 8 -152 -4 -166 -19 -21 -19 -40 1 -68 13 -19 13 -25 1 -42 -11 -16 -13
-43 -9 -114 4 -76 1 -97 -12 -118 -11 -17 -15 -35 -10 -52 3 -14 1 -47 -5 -73
-6 -26 -22 -96 -36 -154 -28 -121 -41 -160 -58 -171 -9 -6 -9 -12 0 -27 10
-16 9 -20 -8 -24 -21 -6 -26 -46 -8 -64 8 -8 5 -15 -8 -24 -11 -8 -36 -52 -56
-99 -50 -117 -62 -140 -141 -266 -39 -61 -79 -115 -90 -120 -12 -5 -25 -24
-31 -41 -5 -18 -17 -36 -27 -39 -10 -3 -18 -11 -18 -19 0 -7 -19 -24 -42 -37
-23 -13 -45 -32 -48 -44 -5 -21 -49 -63 -110 -104 -19 -13 -43 -32 -53 -42
-10 -10 -26 -18 -36 -18 -10 0 -57 -27 -104 -60 -48 -33 -90 -60 -93 -60 -4 0
-40 -20 -81 -45 -41 -25 -95 -50 -120 -56 -26 -5 -82 -26 -125 -44 -44 -19
-87 -35 -96 -35 -9 0 -30 -7 -45 -15 -15 -8 -60 -23 -101 -35 -40 -11 -117
-36 -170 -55 -54 -19 -115 -35 -135 -35 -20 0 -48 -8 -61 -17 -13 -10 -38 -16
-56 -14 -17 1 -69 -7 -115 -18 -103 -24 -269 -47 -454 -62 -77 -6 -180 -17
-229 -24 -65 -9 -96 -10 -113 -2 -17 7 -27 7 -35 -1 -6 -6 -29 -9 -52 -7 -325
38 -604 65 -617 62 -10 -3 -70 8 -135 24 -65 16 -170 36 -234 45 -63 9 -176
33 -250 54 -74 21 -162 46 -195 55 -63 18 -418 185 -429 203 -21 34 312 222
395 222 14 0 36 11 48 24 15 15 38 26 64 29 23 3 67 14 97 24 32 12 70 18 91
16 22 -3 41 0 50 9 21 21 38 26 172 48 67 12 165 30 217 40 52 11 133 24 180
29 79 9 154 27 225 53 17 7 54 13 83 14 29 1 71 9 93 18 21 9 49 16 61 16 22
0 117 22 338 77 74 19 180 45 235 58 55 13 137 39 182 59 45 20 94 36 111 36
33 0 100 23 219 74 45 19 100 40 122 46 22 6 62 25 89 44 47 31 67 39 134 53
14 3 37 16 49 29 12 13 28 24 35 24 7 0 46 23 87 50 41 28 80 50 86 50 6 0 30
18 53 41 23 22 56 48 73 56 16 9 57 41 90 70 33 30 90 78 128 105 40 31 67 58
67 69 0 11 15 26 38 38 21 11 86 72 145 136 84 92 116 135 152 208 26 51 57
106 69 122 13 17 36 53 51 80 16 28 39 63 52 79 27 32 53 90 53 116 0 10 18
51 39 92 22 40 46 98 55 128 8 30 33 112 55 182 22 69 45 155 51 189 18 97 29
104 55 32z"/>
</g>
</svg>
