<?xml version="1.0" standalone="no"?>
<!DOCTYPE svg PUBLIC "-//W3C//DTD SVG 20010904//EN"
 "http://www.w3.org/TR/2001/REC-SVG-20010904/DTD/svg10.dtd">
<svg version="1.0" xmlns="http://www.w3.org/2000/svg"
 width="640.000000pt" height="1280.000000pt" viewBox="0 0 640.000000 1280.000000"
 preserveAspectRatio="xMidYMid meet">
<metadata>
Created by potrace 1.15, written by Peter Selinger 2001-2017
</metadata>
<g transform="translate(0.000000,1280.000000) scale(0.100000,-0.100000)"
fill="#000000" stroke="none">
<path d="M3545 12790 c-118 -24 -243 -96 -324 -187 -166 -186 -197 -462 -78
-688 18 -33 66 -96 107 -141 41 -45 91 -99 110 -120 l35 -39 0 -210 c-1 -115
-4 -222 -8 -236 -6 -25 -11 -27 -84 -34 -446 -39 -998 -141 -1249 -230 -67
-24 -193 -60 -280 -79 -397 -91 -479 -126 -634 -273 -177 -166 -299 -370 -360
-600 -21 -81 -49 -255 -50 -309 l0 -30 53 7 c96 14 92 15 89 -41 -3 -42 0 -53
23 -76 25 -25 31 -26 83 -21 76 9 309 68 441 113 133 45 330 138 424 201 40
26 118 92 174 146 117 112 156 133 327 177 203 52 586 111 919 143 l137 13 0
-497 0 -496 -125 -72 c-263 -152 -424 -270 -560 -412 -184 -193 -258 -367
-259 -614 -2 -273 82 -468 296 -691 54 -56 95 -103 93 -106 -7 -7 98 -104 195
-182 80 -64 323 -226 338 -226 19 0 22 -74 22 -574 l0 -511 -82 -19 c-264 -58
-489 -235 -598 -468 -48 -103 -63 -191 -63 -373 0 -201 15 -265 113 -460 103
-206 200 -334 444 -584 61 -63 110 -118 109 -122 -2 -4 12 -20 30 -35 l32 -27
7 -226 c3 -124 7 -412 7 -640 l1 -413 -70 -122 c-78 -137 -121 -241 -123 -303
-3 -71 12 -74 104 -25 43 24 79 41 79 39 0 -2 -7 -17 -15 -34 -8 -16 -18 -50
-21 -75 -6 -39 -3 -49 17 -69 l24 -24 6 -330 c6 -344 15 -432 65 -685 42 -210
105 -493 117 -529 15 -42 70 -91 103 -91 14 0 23 -3 20 -8 -8 -13 22 -71 50
-97 18 -17 38 -25 63 -25 90 0 113 55 176 430 66 387 67 401 74 1115 6 578 9
665 23 696 9 20 73 96 143 170 150 157 222 244 299 359 142 213 170 399 86
577 -32 70 -115 193 -130 193 -4 0 -29 28 -53 63 -59 80 -138 162 -258 264
l-96 82 -7 428 c-4 273 -3 440 3 462 22 74 22 74 236 157 232 90 426 202 519
299 90 93 171 251 218 423 18 64 21 107 22 247 1 200 -17 288 -89 442 -44 93
-134 234 -164 256 -9 7 -46 50 -83 97 -74 95 -150 171 -347 346 -223 198 -250
223 -287 250 l-35 27 3 494 3 495 30 27 c17 14 107 57 200 95 781 316 1058
526 1185 898 81 240 63 524 -49 764 -47 101 -120 215 -169 265 -21 20 -64 72
-97 115 -65 84 -164 174 -260 236 -88 58 -286 153 -390 187 -85 28 -280 61
-364 61 -21 0 -51 3 -67 6 l-29 5 6 152 c4 84 12 165 18 180 6 15 46 64 90
108 126 127 183 259 184 429 1 47 -5 110 -12 140 -20 85 -77 194 -131 252 -27
29 -70 82 -96 117 -51 68 -127 133 -205 176 -99 54 -261 77 -374 55z m-2135
-2279 c-50 -27 -171 -131 -197 -170 -13 -19 -23 -29 -23 -23 0 27 42 121 63
140 30 28 125 65 182 70 6 1 -6 -7 -25 -17z m2900 -247 c98 -17 201 -47 282
-83 43 -20 47 -25 57 -72 15 -67 14 -123 -3 -162 -18 -44 -107 -125 -207 -190
-80 -52 -299 -166 -346 -181 l-22 -7 0 283 c-1 156 3 308 8 337 15 95 50 106
231 75z m-915 -2303 c-6 -53 -9 -61 -20 -50 -8 8 -20 35 -27 62 -14 53 -3 115
30 165 l17 26 3 -69 c2 -39 0 -99 -3 -134z m755 -1471 c34 -67 52 -166 48
-269 l-3 -93 -53 -49 c-29 -27 -58 -49 -63 -49 -13 0 -12 396 1 442 9 30 29
55 47 58 2 0 12 -18 23 -40z m-773 -1697 c-2 -21 -4 -6 -4 32 0 39 2 55 4 38
2 -18 2 -50 0 -70z"/>
</g>
</svg>
