<?xml version="1.0" standalone="no"?>
<!DOCTYPE svg PUBLIC "-//W3C//DTD SVG 20010904//EN"
 "http://www.w3.org/TR/2001/REC-SVG-20010904/DTD/svg10.dtd">
<svg version="1.0" xmlns="http://www.w3.org/2000/svg"
 width="1280.000000pt" height="1267.000000pt" viewBox="0 0 1280.000000 1267.000000"
 preserveAspectRatio="xMidYMid meet">
<metadata>
Created by potrace 1.15, written by Peter Selinger 2001-2017
</metadata>
<g transform="translate(0.000000,1267.000000) scale(0.100000,-0.100000)"
fill="#000000" stroke="none">
<path d="M6282 12655 c-274 -62 -482 -311 -482 -575 0 -186 46 -284 210 -453
112 -117 114 -119 121 -175 4 -31 8 -154 8 -273 l1 -217 -112 24 c-592 128
-1166 381 -1531 675 -180 145 -238 159 -419 100 -244 -80 -451 -190 -1068
-571 -928 -573 -1310 -771 -1836 -950 -199 -68 -325 -94 -656 -135 -248 -30
-413 -57 -496 -81 -14 -4 -22 -14 -22 -29 0 -19 10 -25 73 -44 206 -61 385
-84 632 -84 189 0 324 11 485 39 l84 15 61 -65 c70 -75 91 -82 224 -72 95 7
246 42 482 112 l156 46 43 -31 c79 -57 191 -75 312 -50 29 6 115 28 190 50
167 48 205 48 385 8 153 -35 178 -34 409 7 98 17 107 17 252 0 221 -28 299
-21 493 43 86 28 168 51 184 51 15 0 78 -10 139 -21 127 -25 251 -22 331 6 28
9 109 44 180 77 l130 60 110 -16 c139 -20 207 -20 276 0 76 22 248 110 390
199 67 42 122 75 124 73 10 -11 53 -3368 43 -3368 -3 0 -37 12 -74 26 -260 99
-555 187 -1136 338 -656 171 -815 220 -1013 317 -178 86 -260 168 -274 273
-29 213 133 455 375 562 96 42 189 54 549 69 187 8 374 21 415 29 257 47 394
115 635 316 119 98 136 120 115 146 -34 40 -211 108 -326 123 -43 6 -130 18
-191 26 -136 19 -274 59 -451 131 -74 30 -146 54 -161 54 -51 0 -113 -29 -245
-117 -72 -47 -205 -124 -296 -169 -306 -153 -471 -266 -630 -430 -220 -227
-298 -419 -287 -698 6 -152 33 -260 98 -391 116 -230 341 -421 669 -565 277
-122 498 -186 1276 -369 210 -49 408 -97 440 -107 l58 -17 -35 -31 c-19 -17
-83 -73 -141 -125 -386 -339 -597 -795 -598 -1288 0 -267 48 -435 180 -621 67
-95 165 -198 265 -279 86 -69 302 -216 403 -273 34 -19 62 -38 62 -41 0 -4
-35 -30 -77 -60 -372 -257 -586 -511 -693 -822 -49 -143 -63 -220 -63 -357 0
-148 21 -239 83 -362 118 -237 316 -425 848 -808 116 -84 212 -156 212 -160 0
-5 -33 -53 -74 -107 -277 -368 -414 -704 -377 -925 11 -67 46 -166 55 -157 2
2 21 82 41 177 45 214 72 291 145 401 80 122 291 354 306 338 4 -4 9 -247 12
-542 l5 -535 108 0 109 0 1 408 c1 224 4 470 8 547 l6 140 123 -134 c196 -214
261 -324 302 -511 11 -47 28 -129 40 -182 12 -54 25 -98 29 -98 10 0 51 127
58 180 3 25 -2 86 -11 136 -44 254 -155 479 -373 757 -47 60 -84 110 -82 111
2 2 90 63 194 136 629 441 850 673 930 980 70 270 -14 633 -209 904 -112 155
-321 352 -523 491 -40 28 -73 52 -73 55 0 3 24 18 53 34 28 16 108 66 177 111
597 389 773 770 645 1401 -48 236 -137 444 -273 634 -73 103 -281 324 -392
416 -38 32 -67 61 -62 65 8 7 346 90 567 139 430 95 763 186 995 272 163 61
414 180 501 238 165 111 290 252 375 425 230 470 55 943 -484 1303 -102 69
-263 160 -353 200 -35 16 -126 70 -201 121 -190 128 -233 146 -333 145 -75 0
-86 -3 -190 -52 -145 -70 -210 -88 -400 -112 -397 -51 -545 -94 -545 -160 0
-35 12 -48 118 -138 265 -220 384 -280 636 -316 121 -18 202 -23 536 -37 155
-6 280 -16 320 -25 191 -44 374 -190 451 -360 25 -55 33 -87 37 -156 6 -118
-9 -158 -92 -235 -144 -134 -383 -225 -1043 -398 -526 -138 -718 -191 -888
-244 -136 -42 -399 -132 -457 -156 -17 -7 -18 14 -18 351 0 198 5 622 10 944
5 322 14 918 20 1325 7 407 13 742 15 744 2 2 46 -23 97 -56 238 -152 416
-233 515 -233 26 0 102 7 168 16 l120 16 140 -65 c223 -105 286 -114 522 -76
l131 22 129 -41 c71 -23 158 -48 193 -56 82 -20 217 -20 340 -1 128 20 180 19
296 -6 141 -30 253 -29 391 4 150 36 203 35 349 -8 285 -85 402 -86 506 -4 20
16 43 29 51 29 7 0 53 -14 103 -30 335 -115 580 -155 684 -114 23 9 61 39 88
69 l47 53 115 -19 c312 -52 704 -40 1035 32 129 28 127 27 123 57 -3 22 -11
28 -68 44 -91 26 -258 54 -440 73 -382 40 -534 78 -900 222 -411 162 -823 384
-1630 880 -575 353 -812 482 -1005 549 -66 23 -98 28 -181 28 -115 1 -93 12
-301 -146 -408 -312 -926 -531 -1591 -674 l-23 -5 3 263 c2 187 7 269 16 285
6 12 60 68 117 124 119 116 164 190 190 314 19 90 19 148 -1 243 -42 209 -196
385 -396 453 -81 28 -219 34 -306 14z m-1586 -3411 c42 -20 67 -65 67 -121 0
-138 -193 -183 -253 -58 -24 49 -25 74 -6 120 28 67 118 94 192 59z m3479 -14
c69 -65 52 -192 -32 -226 -105 -44 -201 26 -190 140 4 42 10 55 42 84 35 32
40 34 96 30 44 -3 65 -10 84 -28z m-1961 -3362 c15 -850 26 -1562 23 -1564 -4
-5 -253 141 -342 201 -165 109 -319 279 -364 400 -11 29 -25 98 -31 154 -43
390 170 829 526 1084 58 42 165 107 175 107 3 0 9 -172 13 -382z m491 323
c303 -197 513 -496 579 -825 34 -167 28 -349 -14 -456 -50 -126 -181 -277
-334 -383 -76 -53 -368 -228 -373 -224 -1 2 4 408 12 903 8 494 15 932 15 972
0 52 4 72 13 72 7 0 53 -26 102 -59z m-462 -2753 c8 -157 30 -1714 25 -1729
-11 -33 -521 439 -688 636 -77 91 -103 138 -119 213 -15 71 -14 108 5 200 42
208 173 394 395 563 93 71 348 237 365 238 7 1 13 -41 17 -121z m406 75 c471
-290 670 -525 697 -823 20 -211 -81 -348 -591 -802 -218 -194 -220 -195 -224
-164 -5 46 18 1701 25 1774 4 34 9 62 12 62 3 0 39 -21 81 -47z"/>
</g>
</svg>
