<?xml version="1.0" standalone="no"?>
<!DOCTYPE svg PUBLIC "-//W3C//DTD SVG 20010904//EN"
 "http://www.w3.org/TR/2001/REC-SVG-20010904/DTD/svg10.dtd">
<svg version="1.0" xmlns="http://www.w3.org/2000/svg"
 width="640.000000pt" height="1280.000000pt" viewBox="0 0 640.000000 1280.000000"
 preserveAspectRatio="xMidYMid meet">
<metadata>
Created by potrace 1.15, written by Peter Selinger 2001-2017
</metadata>
<g transform="translate(0.000000,1280.000000) scale(0.100000,-0.100000)"
fill="#000000" stroke="none">
<path d="M1735 12789 c-251 -30 -478 -137 -656 -306 -360 -344 -445 -800 -235
-1265 70 -156 205 -337 369 -494 180 -174 441 -361 710 -509 70 -38 127 -72
126 -75 0 -3 -39 -32 -86 -65 -764 -532 -991 -1332 -600 -2111 158 -314 438
-600 876 -893 51 -35 89 -66 85 -70 -5 -4 -47 -34 -94 -66 -157 -108 -254
-188 -386 -320 -231 -230 -351 -441 -412 -719 -13 -61 -17 -125 -16 -256 1
-203 25 -342 95 -553 128 -384 384 -750 718 -1029 47 -40 90 -75 95 -80 5 -4
-18 -36 -51 -72 -230 -245 -345 -467 -388 -746 -45 -290 25 -588 197 -837 87
-126 412 -427 580 -537 l47 -31 -148 -145 c-167 -164 -225 -235 -285 -353 -76
-149 -106 -277 -106 -448 0 -217 67 -421 204 -618 51 -75 142 -181 155 -181
29 1 29 21 -5 205 -40 220 -52 398 -35 501 41 235 225 451 571 669 58 36 115
68 126 71 15 4 53 -14 127 -59 263 -161 445 -334 530 -502 88 -176 93 -311 26
-682 -43 -232 -34 -248 66 -132 143 166 232 345 276 554 7 33 13 119 12 190
-1 159 -29 278 -96 414 -64 128 -138 221 -299 376 -78 74 -139 137 -137 139 2
2 50 38 106 79 56 42 155 123 221 181 205 181 305 301 382 461 85 175 120 326
120 519 0 332 -129 629 -389 898 -41 43 -73 79 -70 81 69 44 275 235 368 342
205 235 318 418 418 673 145 372 173 755 76 1051 -110 337 -386 655 -802 924
l-63 41 23 16 c338 221 632 475 780 672 169 227 284 487 336 761 26 140 24
420 -5 554 -66 306 -209 559 -457 809 -109 109 -333 294 -386 318 -10 4 -11 7
-2 12 7 3 82 45 167 94 174 100 297 180 436 285 565 428 812 954 679 1445 -27
101 -115 279 -180 365 -154 205 -372 353 -617 419 -264 70 -639 55 -829 -34
-193 -90 -233 -179 -144 -317 65 -101 188 -198 351 -278 124 -60 216 -79 344
-73 179 10 319 71 428 187 54 57 62 63 73 48 34 -46 25 -337 -15 -492 -26
-100 -103 -260 -168 -345 -120 -158 -326 -317 -558 -430 -228 -111 -414 -178
-843 -301 l-273 -79 -232 66 c-565 160 -877 285 -1127 452 -221 149 -367 320
-447 523 -57 144 -67 207 -67 411 0 125 4 191 11 198 9 9 31 -7 85 -62 128
-127 252 -173 464 -172 121 0 136 2 214 32 146 55 283 144 377 244 69 74 95
119 101 180 4 44 1 59 -19 87 -49 72 -187 144 -343 177 -86 19 -369 27 -480
13z m1619 -3213 c424 -183 699 -455 777 -767 18 -71 20 -105 16 -214 -5 -147
-20 -210 -77 -332 -121 -259 -321 -445 -739 -688 l-133 -77 -42 23 c-110 61
-329 196 -400 247 -181 130 -337 305 -422 474 -59 117 -84 211 -91 338 -17
326 157 616 507 843 154 99 417 221 459 211 13 -3 78 -29 145 -58z m-51 -3198
c379 -270 546 -458 608 -684 28 -103 23 -283 -11 -389 -49 -153 -148 -313
-261 -420 -59 -55 -386 -283 -432 -301 -28 -10 -374 223 -469 316 -179 178
-289 442 -275 665 15 258 159 461 524 738 71 54 204 147 211 147 3 0 50 -32
105 -72z m-39 -2985 c283 -170 399 -373 341 -596 -35 -134 -123 -265 -337
-496 l-68 -75 -36 35 c-57 54 -222 248 -265 310 -178 261 -166 473 36 674 51
51 114 99 170 133 49 28 91 52 93 52 2 0 32 -17 66 -37z"/>
</g>
</svg>
