<?xml version="1.0" standalone="no"?>
<!DOCTYPE svg PUBLIC "-//W3C//DTD SVG 20010904//EN"
 "http://www.w3.org/TR/2001/REC-SVG-20010904/DTD/svg10.dtd">
<svg version="1.0" xmlns="http://www.w3.org/2000/svg"
 width="910.000000pt" height="1280.000000pt" viewBox="0 0 910.000000 1280.000000"
 preserveAspectRatio="xMidYMid meet">
<metadata>
Created by potrace 1.15, written by Peter Selinger 2001-2017
</metadata>
<g transform="translate(0.000000,1280.000000) scale(0.100000,-0.100000)"
fill="#000000" stroke="none">
<path d="M1660 12785 c-199 -42 -385 -147 -567 -319 -142 -134 -224 -250 -279
-399 -24 -64 -28 -86 -28 -197 -1 -116 1 -129 26 -183 74 -157 180 -221 390
-237 60 -5 132 -16 162 -24 69 -20 154 -85 236 -180 36 -41 68 -75 72 -75 7
-1 308 183 527 321 111 70 176 120 197 153 14 21 13 27 -10 72 -36 68 -42 172
-22 345 36 311 9 454 -109 574 -56 56 -163 114 -260 140 -84 22 -254 27 -335
9z"/>
<path d="M5283 12582 c-25 -34 -147 -118 -346 -237 -301 -181 -348 -262 -72
-126 161 80 387 216 447 269 51 47 61 78 32 106 -22 23 -37 20 -61 -12z"/>
<path d="M4655 12495 c-5 -2 -62 -17 -125 -34 -142 -37 -232 -54 -474 -86
-317 -43 -402 -69 -509 -153 -99 -77 -296 -213 -667 -457 -929 -613 -1136
-754 -1468 -1002 -891 -664 -1210 -1090 -1361 -1813 -38 -181 -45 -255 -45
-440 0 -206 17 -311 75 -477 114 -326 384 -661 754 -938 407 -303 1126 -375
1845 -184 246 65 528 168 700 254 90 45 432 253 457 278 9 9 -30 86 -171 340
-101 181 -186 329 -188 330 -2 1 -106 -54 -230 -121 -125 -68 -267 -141 -316
-162 -386 -167 -821 -222 -1125 -144 -414 106 -790 441 -883 786 -22 82 -22
271 0 395 52 293 207 623 429 918 94 125 305 329 438 423 439 311 1370 824
1864 1027 466 190 597 261 780 422 64 55 275 297 275 315 0 2 -60 1 -134 0
-140 -4 -176 3 -176 37 0 35 65 114 175 211 152 136 204 211 173 252 -12 16
-72 31 -93 23z m-577 -359 c6 -30 -19 -66 -64 -92 -71 -42 -110 -26 -84 36 20
48 66 82 109 78 26 -2 37 -8 39 -22z"/>
<path d="M2572 10526 c-200 -123 -368 -228 -373 -233 -18 -18 2077 -3276 2605
-4051 222 -326 301 -430 330 -438 36 -9 121 33 240 119 55 39 104 75 109 78 9
6 -117 264 -311 634 -196 375 -467 877 -1300 2410 -1001 1841 -926 1705 -932
1705 -3 0 -168 -101 -368 -224z"/>
<path d="M5497 8870 c-275 -17 -572 -85 -837 -190 -92 -37 -399 -176 -408
-185 -5 -4 134 -233 221 -365 58 -88 124 -160 147 -160 9 0 51 9 94 20 147 37
342 54 631 54 270 1 270 1 350 -27 250 -87 546 -299 615 -440 59 -121 74 -202
74 -402 1 -178 1 -181 -31 -272 -86 -247 -235 -465 -488 -718 -164 -165 -264
-248 -600 -500 -373 -281 -549 -433 -728 -633 -336 -376 -510 -722 -547 -1090
-32 -320 84 -805 250 -1046 85 -125 290 -310 441 -399 467 -275 1079 -242
1839 98 85 39 297 153 327 177 12 10 -67 147 -204 355 -61 94 -144 183 -168
183 -10 0 -63 -13 -119 -30 -266 -77 -439 -110 -628 -117 -287 -11 -483 51
-633 203 -297 298 -245 924 110 1329 139 158 262 265 685 590 739 570 977 823
1191 1270 152 317 206 568 196 898 -7 236 -51 416 -148 609 -203 404 -549 652
-1049 752 -113 22 -170 28 -390 40 -36 2 -123 0 -193 -4z"/>
<path d="M5806 5029 c-104 -54 -191 -101 -194 -104 -3 -3 138 -220 313 -483
431 -644 648 -973 1135 -1722 491 -755 858 -1305 966 -1450 100 -133 186 -222
191 -198 11 48 -133 328 -612 1183 -410 732 -494 886 -835 1520 -415 771 -745
1356 -765 1354 -5 0 -95 -45 -199 -100z"/>
<path d="M7227 3599 c-110 -14 -155 -48 -141 -106 19 -81 219 -403 279 -449
35 -26 37 -27 123 -18 186 19 315 -2 462 -74 317 -156 548 -498 620 -917 61
-355 -24 -734 -267 -1195 -165 -314 -328 -538 -468 -645 -71 -54 -119 -101
-148 -145 -101 -150 266 67 551 327 88 80 249 267 352 409 242 333 416 696
481 1004 30 140 32 347 6 470 -72 329 -284 755 -472 945 -187 189 -514 339
-853 390 -112 16 -408 19 -525 4z"/>
<path d="M8557 538 c-16 -48 129 -335 216 -425 39 -41 47 -41 47 0 0 89 -106
302 -198 400 -37 38 -57 46 -65 25z"/>
</g>
</svg>
