<?xml version="1.0" standalone="no"?>
<!DOCTYPE svg PUBLIC "-//W3C//DTD SVG 20010904//EN"
 "http://www.w3.org/TR/2001/REC-SVG-20010904/DTD/svg10.dtd">
<svg version="1.0" xmlns="http://www.w3.org/2000/svg"
 width="972.000000pt" height="1280.000000pt" viewBox="0 0 972.000000 1280.000000"
 preserveAspectRatio="xMidYMid meet">
<metadata>
Created by potrace 1.15, written by Peter Selinger 2001-2017
</metadata>
<g transform="translate(0.000000,1280.000000) scale(0.100000,-0.100000)"
fill="#000000" stroke="none">
<path d="M6756 12790 c-207 -24 -357 -70 -566 -175 -151 -75 -248 -145 -352
-253 -161 -169 -379 -472 -509 -711 -143 -262 -189 -440 -189 -746 0 -181 14
-277 48 -339 l29 -51 69 -3 c94 -4 141 16 227 97 38 36 144 155 235 264 90
108 187 215 215 238 51 40 53 41 121 37 l69 -3 112 213 c62 117 116 216 120
220 15 13 -5 -132 -30 -226 -67 -251 -160 -434 -428 -846 -115 -175 -206 -320
-203 -323 2 -3 81 0 175 5 160 9 174 11 238 41 152 72 242 159 770 745 46 50
160 195 255 323 l173 231 42 1 c74 2 195 -20 261 -46 145 -58 334 -209 446
-356 204 -269 280 -556 331 -1242 24 -323 33 -573 24 -645 -9 -76 -155 -587
-228 -801 -200 -586 -421 -950 -956 -1574 -188 -221 -363 -393 -524 -518 -292
-228 -452 -334 -696 -463 -133 -71 -738 -354 -743 -349 -5 4 -31 835 -32 983
0 76 3 92 15 92 34 0 392 93 575 149 470 145 642 231 1080 540 359 253 506
400 756 756 209 299 386 689 493 1085 29 109 111 533 111 575 0 20 -6 20 -452
17 -249 -1 -1391 -7 -2538 -12 -2010 -10 -2795 -19 -3343 -40 -276 -11 -373
-25 -420 -63 l-27 -22 15 -158 c17 -181 32 -262 80 -432 147 -525 351 -865
826 -1375 262 -282 423 -398 809 -583 474 -228 746 -319 1275 -426 l90 -18 6
-144 c9 -211 10 -929 1 -929 -4 0 -93 34 -197 75 -343 136 -563 255 -915 493
-385 262 -777 562 -949 727 -216 207 -487 566 -681 905 -83 145 -268 516 -335
675 -108 252 -218 641 -250 883 -27 200 -17 613 21 917 45 353 115 559 270
792 220 330 475 488 789 487 168 0 185 -5 214 -57 56 -100 218 -335 312 -453
162 -203 451 -535 520 -598 78 -70 156 -123 223 -150 44 -17 79 -21 251 -24
l200 -4 -155 159 c-277 281 -451 535 -518 754 -26 84 -44 241 -40 344 l3 80
111 -225 c61 -124 114 -235 118 -247 9 -28 16 -28 66 -3 35 18 42 18 79 5 102
-35 207 -126 407 -346 70 -77 146 -151 176 -170 47 -31 61 -34 138 -37 l85 -4
23 84 c57 210 -1 517 -174 907 -240 545 -562 910 -990 1124 -192 96 -338 123
-614 113 -569 -20 -907 -99 -1315 -306 -374 -190 -622 -370 -842 -610 -274
-299 -450 -644 -566 -1107 -65 -259 -72 -322 -71 -678 1 -662 64 -1260 179
-1700 38 -145 152 -488 222 -665 114 -290 588 -1043 878 -1395 240 -291 853
-816 1390 -1190 94 -65 206 -146 250 -179 80 -60 205 -173 205 -186 0 -3 -33
-29 -72 -57 -224 -157 -633 -536 -779 -723 -204 -260 -301 -564 -302 -945 -1
-248 37 -425 130 -610 87 -175 193 -298 394 -459 197 -157 241 -180 467 -236
181 -45 237 -52 382 -52 358 -1 645 92 840 270 96 87 118 128 121 219 2 78 -7
98 -49 114 -15 6 -162 1 -400 -13 -325 -19 -395 -20 -507 -10 -200 19 -241 32
-427 140 -79 46 -100 64 -112 92 -93 221 -106 276 -106 461 l0 131 70 88 c91
114 161 177 288 261 355 235 846 440 1322 552 194 46 211 49 216 44 3 -3 7
-421 7 -929 3 -1396 -17 -1585 -203 -1963 -63 -126 -122 -205 -246 -325 -214
-207 -313 -260 -649 -345 l-130 -32 4 -189 c2 -104 5 -191 8 -194 8 -8 2340
-5 2795 4 380 7 428 10 434 25 4 9 10 106 12 216 l4 200 -69 19 c-176 50 -358
116 -409 151 -136 90 -389 372 -502 558 -71 118 -127 406 -187 964 -33 309
-107 1110 -144 1568 -17 204 -33 399 -36 435 l-5 65 147 59 c742 297 1352 618
1873 985 173 122 217 156 560 442 304 253 322 272 535 553 312 412 727 1110
909 1529 203 465 356 1124 397 1707 33 467 -47 1302 -156 1626 -84 250 -326
604 -600 878 -204 204 -399 343 -660 471 -307 151 -642 256 -981 310 -118 19
-447 27 -558 15z"/>
<path d="M6195 4489 c-565 -265 -650 -310 -742 -386 -45 -37 -79 -71 -75 -74
4 -4 120 -46 257 -94 962 -335 1070 -388 1338 -653 92 -90 160 -188 197 -282
12 -30 37 -127 55 -214 l33 -160 -40 -80 c-80 -160 -171 -272 -257 -315 -89
-46 -310 -90 -564 -112 -191 -17 -277 -7 -407 47 -93 38 -97 39 -213 38 -65
-1 -123 -6 -129 -12 -13 -13 43 -227 81 -307 37 -79 128 -177 194 -209 167
-81 642 -152 962 -145 l150 4 85 43 c223 112 523 373 657 572 94 140 160 328
204 585 26 153 36 422 20 536 -30 208 -172 501 -335 691 -120 140 -283 264
-682 517 l-269 171 -90 -1 -90 0 -340 -160z"/>
</g>
</svg>
