<?xml version="1.0" standalone="no"?>
<!DOCTYPE svg PUBLIC "-//W3C//DTD SVG 20010904//EN"
 "http://www.w3.org/TR/2001/REC-SVG-20010904/DTD/svg10.dtd">
<svg version="1.0" xmlns="http://www.w3.org/2000/svg"
 width="1213.000000pt" height="1280.000000pt" viewBox="0 0 1213.000000 1280.000000"
 preserveAspectRatio="xMidYMid meet">
<metadata>
Created by potrace 1.15, written by Peter Selinger 2001-2017
</metadata>
<g transform="translate(0.000000,1280.000000) scale(0.100000,-0.100000)"
fill="#000000" stroke="none">
<path d="M1323 12783 c-8 -21 23 -183 47 -243 10 -25 41 -119 70 -210 57 -179
161 -398 258 -543 29 -43 74 -116 100 -162 26 -46 77 -128 113 -182 36 -54
108 -163 161 -243 88 -135 341 -486 388 -538 11 -12 20 -25 20 -28 0 -3 11
-20 25 -38 14 -18 25 -35 25 -37 0 -6 -519 515 -572 573 -45 51 -311 331 -373
393 -17 16 -44 48 -60 70 -17 22 -93 108 -171 190 -77 83 -165 176 -195 208
-203 218 -281 285 -351 302 -24 6 -28 3 -34 -21 -10 -40 8 -99 100 -332 110
-274 156 -363 296 -564 47 -67 110 -154 141 -193 30 -38 79 -104 109 -145 30
-41 65 -89 79 -107 14 -17 55 -68 91 -113 111 -140 221 -273 272 -327 26 -28
48 -55 48 -60 0 -8 15 -25 172 -196 50 -54 89 -100 86 -102 -5 -5 -99 70 -177
141 -31 28 -69 58 -86 67 -16 9 -48 33 -70 54 -22 21 -60 54 -85 72 -25 19
-52 42 -61 51 -8 10 -60 57 -115 105 -54 48 -107 95 -116 104 -9 9 -40 36 -68
61 -28 25 -66 59 -83 75 -18 17 -86 80 -152 140 -66 60 -138 127 -160 148 -22
21 -82 75 -134 120 -52 45 -113 100 -136 122 -141 136 -248 230 -272 240 -15
7 -45 26 -66 43 -48 38 -74 47 -92 32 -35 -29 -12 -121 81 -327 36 -79 77
-174 93 -211 55 -136 160 -294 322 -484 22 -25 53 -65 70 -87 16 -23 37 -50
47 -60 140 -151 365 -385 436 -453 50 -48 88 -89 85 -92 -9 -9 -114 59 -227
147 -59 45 -210 159 -337 252 -409 301 -532 392 -612 456 -89 71 -143 98 -193
99 -41 0 -60 -14 -60 -46 0 -32 56 -158 170 -382 96 -189 173 -310 276 -436
53 -64 373 -366 402 -379 10 -5 23 -17 30 -28 12 -19 11 -19 -20 -5 -18 7 -46
19 -63 26 -16 7 -67 30 -111 50 -138 65 -276 113 -336 118 -51 4 -59 2 -83
-23 -25 -24 -27 -31 -21 -78 4 -28 20 -85 36 -126 16 -42 45 -123 65 -181 54
-153 122 -298 165 -350 21 -25 45 -59 54 -77 9 -18 25 -37 36 -43 10 -5 34
-24 52 -41 18 -17 47 -37 63 -46 17 -9 57 -34 90 -57 33 -23 79 -50 103 -61
23 -10 48 -25 55 -33 10 -13 5 -14 -43 -9 -30 4 -90 16 -134 27 -104 26 -204
26 -256 0 -101 -51 -98 -79 56 -597 29 -96 91 -236 133 -297 17 -24 51 -65 77
-90 26 -26 45 -48 43 -50 -2 -2 -22 -13 -44 -24 -85 -43 -122 -107 -171 -297
-22 -83 -27 -274 -10 -350 8 -33 20 -89 26 -125 14 -78 63 -173 104 -205 85
-63 111 -70 260 -69 157 2 157 1 36 -61 -71 -36 -152 -113 -170 -160 -47 -122
-56 -323 -22 -460 46 -184 98 -275 177 -315 44 -22 63 -25 163 -25 61 0 112
-3 112 -6 0 -4 -16 -21 -37 -39 -39 -34 -101 -110 -124 -150 -10 -18 -14 -62
-13 -155 0 -127 1 -132 42 -249 57 -158 72 -185 133 -240 61 -55 75 -59 176
-54 62 3 96 11 163 40 150 65 157 62 64 -28 -56 -55 -90 -98 -111 -141 -29
-57 -31 -69 -27 -146 4 -95 40 -189 96 -253 41 -47 144 -114 174 -114 13 0 26
-4 29 -10 3 -5 20 -10 37 -10 25 0 29 -3 22 -17 -32 -73 3 -183 79 -249 55
-47 138 -89 207 -103 62 -13 70 -21 70 -74 0 -43 18 -82 52 -114 35 -33 129
-73 200 -84 35 -6 72 -13 83 -15 14 -2 30 -22 45 -56 30 -62 52 -80 145 -114
82 -30 184 -41 238 -26 48 13 59 9 76 -29 10 -23 30 -39 70 -58 48 -22 71 -26
162 -28 103 -1 107 -2 135 -31 21 -20 50 -34 102 -46 72 -18 83 -18 197 5 103
21 293 10 316 -17 12 -15 -18 -104 -51 -154 -10 -14 -23 -43 -30 -65 -10 -33
-105 -227 -139 -285 -5 -8 -14 -33 -21 -55 -7 -22 -19 -47 -26 -56 -8 -8 -27
-51 -43 -95 -16 -44 -35 -93 -44 -110 -8 -16 -18 -43 -21 -61 -4 -18 -21 -49
-37 -69 -16 -20 -29 -45 -29 -55 0 -10 -4 -20 -9 -23 -5 -4 -26 -47 -47 -97
-34 -82 -49 -104 -148 -212 -356 -388 -636 -679 -1098 -1143 -285 -286 -518
-528 -518 -537 0 -26 53 -22 197 14 153 38 276 86 338 133 77 59 125 61 92 5
-22 -40 -22 -69 1 -69 10 0 23 5 30 12 10 10 16 7 28 -10 15 -22 17 -22 41 -6
21 13 27 14 34 3 6 -11 14 -11 39 -2 27 10 30 9 30 -8 0 -25 25 -24 50 1 23
23 44 18 35 -9 -4 -15 2 -17 50 -16 37 0 59 5 65 15 7 12 13 12 33 1 40 -21
65 -5 121 82 29 45 86 123 127 172 42 50 95 118 118 153 24 35 86 116 140 180
53 64 112 137 131 162 19 25 65 81 104 125 38 44 77 93 87 110 28 47 119 105
166 105 7 0 46 16 86 35 39 19 80 35 90 35 17 0 113 47 192 95 22 13 65 38 95
55 107 60 175 102 191 116 8 8 20 14 26 14 6 0 35 16 64 36 30 20 82 50 117
66 42 20 87 53 132 99 38 38 74 69 81 69 6 0 54 -39 106 -87 l95 -88 -7 -87
c-6 -83 -5 -90 21 -138 27 -49 77 -91 161 -134 54 -27 321 -71 588 -96 131
-12 537 -30 685 -30 125 0 141 -6 120 -46 -17 -31 -183 -202 -273 -280 l-59
-51 -15 -99 c-22 -147 -20 -176 19 -228 34 -46 75 -76 102 -76 22 0 20 16 -4
43 -37 39 -46 91 -27 151 15 47 23 56 60 74 52 24 60 34 76 90 10 34 33 64
104 135 109 107 139 127 192 127 95 -1 293 -138 315 -219 9 -33 42 -74 101
-125 19 -17 21 -25 16 -83 -4 -35 -16 -84 -27 -110 -22 -51 -21 -58 8 -48 46
14 100 97 128 193 2 6 17 12 33 12 25 0 32 -5 37 -26 10 -38 -12 -122 -42
-161 -14 -19 -24 -38 -22 -43 5 -15 105 36 122 62 8 13 24 49 36 82 18 47 20
63 11 83 -6 13 -11 39 -11 58 0 19 -4 37 -10 40 -5 3 -10 23 -10 43 0 62 -29
95 -130 147 -119 62 -132 84 -138 242 -4 108 -4 112 20 136 48 48 152 62 187
25 47 -52 97 -117 143 -187 41 -63 48 -81 48 -124 0 -42 5 -56 35 -93 30 -37
35 -50 35 -96 0 -49 -4 -57 -46 -106 -56 -64 -48 -70 69 -52 171 26 210 71
222 261 9 125 1 147 -73 205 -71 57 -113 109 -202 249 -18 29 -3 51 43 61 18
3 88 26 157 49 69 24 193 67 275 95 213 73 387 166 575 305 85 63 174 131 198
151 23 20 57 43 75 51 17 9 50 32 73 52 23 20 69 58 102 84 34 27 62 53 62 58
0 5 6 9 13 9 6 0 33 19 60 43 26 23 80 69 119 102 40 33 143 130 228 215 145
144 165 169 292 360 l136 205 65 185 c36 102 74 214 85 250 11 36 48 142 82
235 103 284 119 341 140 510 27 212 53 288 123 353 42 38 51 42 99 42 73 0
253 25 335 46 104 27 185 23 263 -13 36 -16 90 -47 119 -67 29 -21 97 -59 150
-85 53 -26 116 -59 141 -73 50 -30 166 -65 177 -54 4 4 -1 21 -10 39 -9 18
-26 63 -37 101 -11 38 -28 87 -39 110 -11 22 -18 42 -15 45 7 7 66 -12 168
-54 58 -24 91 -34 98 -27 15 15 -104 303 -134 323 -9 6 -49 60 -123 169 -24
36 -57 84 -73 107 -26 37 -30 52 -35 145 -24 369 -189 795 -409 1052 -73 85
-185 196 -197 196 -5 0 -39 27 -75 60 -37 33 -70 60 -75 60 -5 0 -22 11 -38
24 -15 13 -86 53 -158 89 -184 93 -337 132 -640 162 -186 19 -243 15 -370 -25
-38 -12 -128 -37 -200 -56 -255 -69 -353 -109 -428 -173 -18 -15 -52 -39 -77
-53 -65 -38 -246 -226 -335 -348 -14 -19 -59 -81 -99 -136 -41 -56 -86 -120
-101 -143 -15 -22 -33 -41 -41 -41 -7 0 -29 28 -50 63 -20 34 -53 86 -72 114
l-35 53 14 72 c8 40 14 120 14 178 0 100 -2 112 -52 260 -29 85 -53 175 -54
200 -2 70 -19 220 -30 270 -5 25 -20 101 -34 170 -30 156 -48 214 -92 313 -19
43 -70 187 -113 320 -42 133 -121 370 -173 527 -53 157 -107 326 -120 375 -74
269 -308 977 -324 983 -22 7 -27 -28 -10 -64 19 -38 60 -212 83 -343 8 -47 21
-102 29 -121 8 -19 35 -141 60 -270 63 -321 62 -316 85 -479 12 -79 27 -178
35 -220 18 -90 17 -81 6 -81 -12 0 -46 81 -65 155 -8 33 -27 94 -41 135 -14
41 -43 153 -66 250 -22 96 -55 234 -74 306 -19 73 -35 141 -35 152 0 11 -9 30
-20 43 l-21 24 4 -50 c3 -27 14 -88 26 -135 44 -179 84 -425 121 -755 5 -44
19 -150 30 -235 40 -290 39 -297 -23 -130 -54 144 -85 271 -102 415 -8 72 -20
150 -25 175 -5 25 -9 66 -10 91 0 43 -21 81 -36 66 -6 -5 24 -326 31 -338 4
-5 18 -242 29 -484 3 -49 8 -132 12 -182 4 -61 3 -93 -3 -93 -23 0 -33 63 -37
230 -4 175 -16 271 -37 296 -30 36 -32 -3 -27 -400 3 -221 2 -390 -2 -376 -4
14 -5 35 -3 48 7 31 -5 74 -20 69 -13 -4 -29 -97 -28 -167 1 -38 -8 -113 -33
-290 -3 -19 -8 -57 -11 -84 -7 -70 -12 -81 -40 -94 -17 -8 -26 -22 -30 -49
-37 -215 -87 -407 -124 -481 -37 -73 -147 -367 -156 -415 -4 -20 -11 -37 -15
-37 -4 0 -36 33 -71 72 -35 40 -73 82 -85 93 -12 11 -26 30 -33 42 -6 12 -53
58 -104 103 -50 44 -126 113 -167 153 -156 149 -269 249 -320 284 -64 43 -77
69 -129 276 -48 189 -71 242 -142 326 -30 35 -74 89 -98 120 -24 31 -74 88
-111 126 -39 40 -119 150 -191 260 -139 211 -279 414 -339 490 -35 45 -128
168 -273 359 -29 38 -95 112 -147 165 -53 53 -115 122 -139 154 -24 31 -47 57
-51 57 -4 0 -12 10 -17 23 -6 12 -53 68 -105 124 -108 118 -158 176 -190 219
-13 17 -39 46 -58 65 -19 19 -62 65 -95 104 -33 38 -76 86 -95 107 -19 21 -47
53 -62 71 -14 18 -95 108 -180 200 -84 93 -156 176 -159 185 -4 10 -30 40 -58
69 -28 29 -51 56 -51 62 0 5 -23 29 -50 54 -27 25 -50 50 -50 55 0 6 -8 17
-18 24 -10 7 -31 31 -47 53 -43 58 -170 208 -191 225 -9 8 -44 51 -77 95 -33
44 -70 91 -83 105 -49 50 -97 106 -122 140 -29 39 -75 94 -142 170 -25 29 -54
67 -65 85 -20 33 -222 285 -300 375 -22 25 -83 99 -135 164 -52 65 -120 146
-150 180 -31 34 -78 90 -105 126 -232 305 -388 485 -447 516 -36 19 -67 18
-75 -3z"/>
</g>
</svg>
