<?xml version="1.0" standalone="no"?>
<!DOCTYPE svg PUBLIC "-//W3C//DTD SVG 20010904//EN"
 "http://www.w3.org/TR/2001/REC-SVG-20010904/DTD/svg10.dtd">
<svg version="1.0" xmlns="http://www.w3.org/2000/svg"
 width="1280.000000pt" height="1056.000000pt" viewBox="0 0 1280.000000 1056.000000"
 preserveAspectRatio="xMidYMid meet">
<metadata>
Created by potrace 1.15, written by Peter Selinger 2001-2017
</metadata>
<g transform="translate(0.000000,1056.000000) scale(0.100000,-0.100000)"
fill="#000000" stroke="none">
<path d="M10061 10550 c-307 -39 -592 -211 -724 -437 -35 -61 -73 -181 -82
-258 -8 -79 14 -186 57 -268 84 -161 318 -326 508 -359 181 -30 232 -31 425
-3 l40 6 -58 -33 c-694 -392 -1201 -919 -1412 -1467 -71 -184 -113 -412 -101
-556 45 -556 472 -900 1236 -996 117 -15 437 -17 623 -5 75 5 137 6 137 2 0
-4 -22 -40 -50 -79 -307 -444 -920 -971 -2225 -1914 -409 -295 -530 -377 -770
-523 -931 -566 -1711 -1142 -2209 -1630 -319 -313 -506 -550 -637 -806 -104
-205 -139 -335 -139 -515 0 -254 89 -424 291 -556 88 -57 181 -94 324 -129 83
-20 125 -24 250 -24 324 1 527 91 615 275 46 97 83 319 100 610 18 306 32 380
116 612 367 1012 1059 1760 2329 2515 267 159 858 474 1039 556 67 29 362 154
656 277 718 299 894 376 1165 510 607 301 938 544 1115 817 33 50 73 130 91
177 30 83 31 90 26 211 -4 119 -6 129 -40 196 -63 124 -185 234 -332 300 -73
32 -285 89 -390 105 -114 18 -389 15 -505 -4 -52 -9 -197 -45 -321 -81 -301
-86 -395 -100 -595 -87 -213 15 -412 62 -569 135 -301 141 -569 412 -642 648
-24 79 -22 208 5 288 88 260 478 482 1054 599 250 52 557 93 823 111 88 6 219
15 290 20 72 5 209 9 306 10 272 0 631 12 622 21 -4 4 -47 19 -95 33 -117 33
-214 86 -293 158 -36 33 -123 137 -194 232 -176 235 -243 293 -381 327 l-65
17 -12 96 c-35 276 -229 539 -518 703 -74 42 -201 97 -275 120 -125 39 -453
62 -609 43z m444 -137 c197 -41 314 -94 466 -213 71 -55 157 -153 197 -222 56
-100 99 -277 84 -358 l-7 -44 -120 -32 c-195 -51 -381 -112 -523 -171 -135
-57 -175 -62 -112 -15 62 46 110 104 143 171 29 59 32 74 32 156 0 78 -4 97
-27 142 -77 146 -275 253 -467 253 -114 0 -239 -44 -314 -109 -71 -63 -110
-176 -88 -257 37 -138 246 -229 416 -180 86 26 160 79 191 138 23 44 18 118
-11 161 -70 102 -239 112 -337 19 -44 -41 -33 -45 31 -12 99 52 185 41 246
-32 33 -39 30 -82 -10 -134 -90 -118 -321 -96 -404 40 -42 67 -24 161 42 227
78 78 240 117 366 88 108 -25 230 -111 274 -193 32 -61 30 -163 -4 -237 -50
-106 -183 -206 -325 -244 -142 -38 -365 -11 -514 63 -93 45 -202 151 -242 232
-90 186 -36 399 145 567 141 131 313 203 542 226 73 8 209 -4 330 -30z m1063
-1230 c48 -42 30 -93 -32 -93 -39 0 -86 33 -86 60 0 44 80 65 118 33z m-5190
-6820 c-133 -154 -233 -275 -307 -372 -256 -336 -453 -684 -550 -971 -65 -191
-73 -240 -77 -439 -2 -101 -6 -186 -8 -188 -18 -18 -141 108 -176 181 -58 119
-57 245 1 415 88 251 265 518 574 861 160 177 520 530 540 530 16 0 17 -2 3
-17z"/>
<path d="M7490 8740 c-541 -15 -995 -60 -1169 -117 -144 -47 -271 -132 -271
-182 0 -33 26 -77 63 -105 71 -54 236 -91 367 -83 101 7 123 11 1140 201 539
101 1262 213 1520 236 69 6 145 13 170 16 78 10 22 23 -126 28 -245 10 -1399
13 -1694 6z"/>
<path d="M9005 8603 c-22 -2 -94 -11 -160 -19 -66 -9 -176 -22 -245 -29 -492
-55 -1291 -216 -1776 -359 -400 -118 -672 -229 -790 -325 -95 -77 -174 -212
-174 -296 0 -49 32 -126 69 -165 l38 -40 89 0 c95 0 181 17 242 49 20 11 73
52 117 91 156 139 442 315 727 447 249 116 425 184 758 293 436 142 682 207
1230 325 69 15 127 29 129 31 5 5 -196 2 -254 -3z"/>
<path d="M9160 8493 c-152 -25 -512 -130 -860 -250 -292 -101 -481 -175 -707
-279 -537 -245 -819 -417 -1028 -628 -144 -145 -174 -200 -182 -330 -14 -228
36 -281 263 -281 96 0 103 1 179 39 101 50 161 110 244 244 153 249 305 394
716 679 301 209 710 445 1163 672 120 60 224 116 231 125 7 9 12 15 10 15 -2
-1 -15 -4 -29 -6z"/>
<path d="M8908 8189 c-56 -13 -236 -97 -393 -184 -500 -277 -999 -692 -1278
-1063 -76 -102 -153 -258 -174 -354 -15 -73 -15 -80 2 -144 26 -98 58 -129
146 -145 156 -28 304 43 373 180 10 18 42 115 72 215 105 348 264 618 520 885
197 206 439 402 650 527 139 81 156 99 82 83z"/>
<path d="M4561 8139 c-60 -12 -107 -46 -131 -95 -40 -81 -21 -138 71 -215 30
-25 146 -122 259 -216 462 -385 867 -748 1148 -1031 100 -101 182 -179 182
-175 0 12 -226 380 -369 602 -351 545 -670 962 -802 1050 -100 67 -254 101
-358 80z"/>
<path d="M8740 7884 c-163 -121 -447 -434 -634 -699 -184 -260 -382 -616 -410
-735 -33 -137 -15 -246 45 -270 41 -17 136 -8 190 18 127 62 180 148 209 344
55 356 179 648 453 1058 50 74 119 174 154 223 36 48 63 92 61 98 -2 6 -33
-11 -68 -37z"/>
<path d="M3616 7896 c-114 -43 -151 -170 -71 -250 20 -20 123 -79 267 -151
488 -247 946 -491 1469 -786 451 -253 617 -353 804 -484 8 -5 17 -6 21 -2 10
10 -68 89 -181 185 -49 43 -132 116 -183 164 -186 174 -557 494 -807 694 -282
227 -666 492 -808 560 -133 63 -423 103 -511 70z"/>
<path d="M2819 7559 c-133 -11 -189 -51 -189 -136 0 -83 48 -152 139 -197 25
-13 154 -58 286 -100 1172 -375 2529 -855 3045 -1076 262 -112 245 -93 -97
112 -1052 629 -1907 1077 -2440 1279 -231 88 -533 136 -744 118z"/>
<path d="M8592 7372 c-89 -83 -186 -302 -221 -498 -29 -161 -30 -235 -6 -356
27 -139 58 -201 136 -279 99 -98 187 -113 257 -43 30 30 34 39 29 73 -7 52
-46 127 -100 194 -47 58 -86 133 -109 207 -9 32 -13 103 -12 240 1 190 2 198
36 325 19 72 38 138 42 148 13 27 -17 21 -52 -11z"/>
<path d="M2067 7160 c-83 -21 -152 -72 -162 -122 -15 -68 71 -180 195 -252
112 -66 181 -85 682 -186 397 -80 1200 -254 1593 -345 937 -218 1698 -405
1953 -482 142 -43 181 -48 155 -22 -6 6 -64 32 -129 59 -66 26 -292 118 -504
205 -656 268 -839 341 -1025 410 -99 37 -250 94 -335 127 -85 34 -247 94 -360
134 -113 40 -288 102 -390 139 -440 157 -867 279 -1109 316 -152 23 -500 35
-564 19z"/>
<path d="M2255 6534 c-22 -2 -112 -8 -200 -14 -254 -17 -589 -71 -657 -106
-36 -18 -68 -61 -68 -91 0 -125 231 -268 496 -308 97 -14 418 -40 864 -70 118
-8 269 -19 335 -25 66 -5 246 -19 400 -30 154 -12 361 -27 460 -36 99 -8 286
-23 415 -34 463 -38 840 -73 1155 -106 379 -40 888 -103 1030 -129 150 -27
225 -37 225 -30 0 3 -17 12 -37 20 -43 18 -843 253 -1068 314 -82 22 -215 58
-295 80 -248 68 -1016 258 -1200 296 -96 21 -240 52 -320 70 -227 52 -634 125
-890 159 -209 28 -551 49 -645 40z"/>
<path d="M10449 5965 c-333 -273 -1073 -722 -1879 -1140 -146 -75 -308 -165
-360 -200 -184 -122 -316 -255 -308 -310 8 -53 190 -58 334 -10 234 78 871
458 1262 752 311 235 505 404 777 677 208 208 293 302 283 312 -3 2 -52 -34
-109 -81z"/>
<path d="M9600 5999 c-280 -35 -1176 -89 -1468 -89 -418 0 -780 -32 -846 -75
-56 -37 -23 -89 71 -111 69 -16 342 -19 488 -4 55 5 156 14 225 20 69 6 193
19 275 30 450 60 534 71 690 95 194 30 581 101 638 117 20 6 37 15 37 20 0 9
-17 9 -110 -3z"/>
<path d="M9655 5934 c-548 -106 -1144 -204 -1700 -279 -464 -62 -577 -80 -669
-107 -84 -24 -109 -45 -90 -75 23 -37 86 -45 324 -40 297 7 439 29 1005 153
510 112 1372 344 1390 375 11 17 -88 7 -260 -27z"/>
<path d="M9835 5865 c-663 -213 -1254 -380 -1980 -561 -418 -104 -667 -187
-727 -241 -25 -23 -22 -47 7 -63 58 -31 379 10 700 91 291 73 1077 356 1813
653 436 176 508 208 460 205 -7 0 -130 -38 -273 -84z"/>
<path d="M1530 5880 c-129 -10 -223 -26 -361 -61 -203 -50 -310 -100 -317
-148 -8 -54 142 -153 318 -209 194 -62 237 -67 555 -67 160 1 448 6 640 13
849 29 1813 44 2975 46 663 0 1284 -2 1380 -6 l175 -7 -80 19 c-44 11 -129 24
-190 30 -60 6 -184 19 -275 30 -91 11 -392 44 -670 74 -1065 117 -1178 128
-1620 166 -124 11 -295 26 -380 34 -85 8 -236 19 -335 26 -99 6 -263 17 -365
25 -413 33 -1240 53 -1450 35z"/>
<path d="M10050 5839 c-47 -23 -105 -49 -130 -59 -25 -10 -70 -29 -100 -43
-78 -36 -491 -202 -780 -314 -1213 -469 -1304 -507 -1520 -636 -114 -68 -146
-93 -170 -133 -51 -82 1 -139 120 -131 247 16 1053 406 2318 1120 215 122 392
225 392 229 0 18 -50 5 -130 -33z"/>
<path d="M6640 5383 c-36 -1 -427 -8 -870 -14 -1234 -16 -1862 -27 -2355 -38
-423 -10 -801 -19 -1800 -41 -231 -5 -478 -14 -550 -20 -376 -32 -661 -101
-673 -162 -14 -72 254 -184 498 -208 340 -33 588 -32 965 5 83 8 258 24 390
35 132 11 344 29 470 40 362 31 775 66 1230 105 753 64 877 74 1095 95 118 11
348 32 510 45 162 14 390 34 505 44 116 11 343 32 505 46 162 14 327 28 365
31 71 6 205 31 214 39 4 5 -381 3 -499 -2z"/>
<path d="M6370 5164 c-129 -7 -377 -22 -550 -34 -173 -11 -387 -24 -475 -30
-299 -18 -630 -41 -730 -51 -143 -13 -309 -27 -550 -44 -192 -14 -319 -25
-775 -71 -85 -8 -202 -19 -260 -25 -58 -5 -139 -14 -180 -19 -41 -5 -147 -17
-235 -25 -184 -18 -812 -99 -930 -120 -44 -7 -116 -19 -160 -25 -400 -57 -921
-175 -1172 -266 -164 -59 -227 -91 -296 -151 -45 -39 -56 -54 -56 -78 0 -39
47 -70 148 -96 63 -16 111 -19 316 -19 285 0 497 20 855 81 247 41 283 49
1165 239 303 66 699 146 880 180 182 34 422 79 535 100 224 43 373 69 730 129
808 135 965 160 1350 215 206 30 480 67 608 82 127 15 232 31 232 36 0 11
-167 8 -450 -8z"/>
<path d="M6450 4954 c-52 -7 -131 -18 -175 -23 -95 -12 -302 -40 -590 -80
-760 -107 -694 -96 -1725 -267 -298 -49 -940 -171 -1185 -225 -264 -58 -677
-156 -795 -189 -74 -21 -189 -52 -255 -70 -66 -18 -212 -64 -325 -103 -524
-179 -819 -352 -874 -513 -28 -83 -19 -122 36 -150 27 -14 51 -16 143 -11 168
10 199 17 935 228 345 99 823 237 1340 387 151 44 525 155 830 247 877 264
1621 474 2090 590 80 19 188 46 240 60 122 31 446 102 484 107 16 2 31 9 34
16 5 16 -79 14 -208 -4z"/>
<path d="M6460 4664 c-135 -36 -402 -105 -595 -155 -192 -49 -469 -121 -615
-159 -146 -38 -407 -105 -580 -149 -308 -79 -565 -146 -805 -211 -66 -17 -194
-51 -285 -75 -754 -196 -1132 -297 -1665 -447 -342 -96 -713 -232 -950 -349
-277 -135 -356 -230 -273 -325 42 -47 92 -78 167 -104 113 -38 323 -20 540 46
206 63 1743 629 2876 1059 399 152 834 316 1454 551 123 47 377 141 565 209
440 159 436 158 436 167 0 12 -10 10 -270 -58z"/>
<path d="M6825 4429 c-33 -11 -168 -60 -300 -109 -499 -185 -881 -325 -1210
-445 -187 -68 -464 -168 -615 -223 -715 -261 -993 -360 -1205 -432 -126 -43
-345 -118 -485 -168 -140 -49 -356 -123 -480 -165 -854 -286 -1400 -608 -1400
-824 0 -53 35 -110 88 -144 69 -44 112 -52 242 -46 236 10 493 109 1535 588
359 165 907 440 1695 851 972 507 1298 675 1763 908 240 121 437 222 437 225
0 3 -1 5 -2 4 -2 0 -30 -9 -63 -20z"/>
<path d="M6445 3814 c-919 -430 -1743 -806 -2475 -1127 -245 -107 -580 -254
-745 -327 -371 -162 -631 -289 -785 -379 -300 -178 -523 -391 -581 -557 -23
-64 -25 -164 -4 -203 17 -34 78 -61 138 -61 231 1 745 230 1536 685 368 211
494 290 1376 860 1465 947 1833 1179 2143 1349 67 37 120 72 117 77 -4 5 -12
9 -18 8 -7 -1 -322 -147 -702 -325z"/>
<path d="M7530 3973 c-324 -215 -831 -507 -1740 -1003 -426 -232 -1113 -613
-1339 -743 -974 -557 -1519 -986 -1632 -1287 -47 -124 -19 -269 59 -306 31
-14 46 -15 102 -7 233 36 871 390 1420 787 125 90 366 282 915 727 160 129
751 606 1315 1060 564 454 1031 833 1039 843 30 36 0 21 -139 -71z"/>
<path d="M8165 3600 c-52 -37 -380 -371 -517 -527 -288 -328 -571 -709 -755
-1018 -245 -410 -371 -718 -428 -1049 -23 -133 -20 -382 5 -480 37 -144 82
-215 162 -257 46 -23 159 -26 211 -4 142 59 238 273 281 630 33 267 39 305 83
525 80 403 213 868 328 1147 55 131 175 363 252 485 84 133 352 498 365 498 6
0 7 -8 3 -17 -4 -10 -13 -38 -20 -63 -7 -25 -20 -61 -29 -80 -29 -63 -361
-1027 -456 -1325 -95 -295 -195 -674 -225 -845 -14 -82 -15 -114 -5 -235 24
-296 87 -478 188 -550 41 -28 49 -30 135 -30 85 0 97 3 155 35 104 55 166 147
211 310 42 150 46 275 20 565 -44 487 -30 1013 55 1975 17 186 27 340 24 339
-2 0 -21 -13 -43 -29z"/>
<path d="M8436 3600 c-13 -35 -28 -201 -56 -625 -45 -692 -52 -856 -52 -1185
0 -379 11 -495 83 -825 47 -220 128 -351 231 -374 145 -33 250 73 278 279 20
149 0 279 -90 580 -33 107 -75 263 -95 347 -41 177 -123 644 -166 953 -16 118
-39 278 -49 355 -11 77 -29 214 -40 305 -21 168 -33 219 -44 190z"/>
</g>
</svg>
