<?xml version="1.0" standalone="no"?>
<!DOCTYPE svg PUBLIC "-//W3C//DTD SVG 20010904//EN"
 "http://www.w3.org/TR/2001/REC-SVG-20010904/DTD/svg10.dtd">
<svg version="1.0" xmlns="http://www.w3.org/2000/svg"
 width="993.000000pt" height="1280.000000pt" viewBox="0 0 993.000000 1280.000000"
 preserveAspectRatio="xMidYMid meet">
<metadata>
Created by potrace 1.15, written by Peter Selinger 2001-2017
</metadata>
<g transform="translate(0.000000,1280.000000) scale(0.100000,-0.100000)"
fill="#000000" stroke="none">
<path d="M8165 12788 c-4 -10 13 -56 40 -110 77 -154 95 -208 95 -295 l0 -77
-50 57 c-63 70 -146 112 -250 127 -41 6 -102 16 -135 21 -87 15 -87 15 -92 2
-2 -6 6 -14 19 -18 13 -4 86 -38 163 -74 93 -45 155 -81 184 -109 48 -45 50
-59 7 -42 -15 5 -73 20 -129 31 -82 18 -151 23 -345 28 -133 3 -242 5 -242 3
0 -2 11 -19 25 -39 13 -20 23 -39 20 -41 -2 -2 -19 1 -37 8 -18 6 -89 14 -156
17 l-124 6 26 -51 c14 -28 26 -53 26 -55 0 -3 -22 -7 -49 -11 -176 -23 -420
-161 -576 -327 -210 -222 -285 -440 -285 -826 0 -347 51 -565 274 -1163 143
-385 188 -546 202 -735 11 -156 -27 -347 -97 -486 -83 -166 -326 -259 -674
-259 l-110 0 -115 153 c-235 312 -408 483 -645 640 -220 145 -452 236 -730
288 -160 30 -520 33 -690 6 -486 -78 -963 -270 -1424 -574 -267 -176 -460
-333 -668 -544 -207 -211 -327 -370 -405 -537 -22 -48 -43 -93 -46 -100 -4 -8
-61 -32 -127 -53 -141 -47 -311 -128 -410 -194 -102 -69 -171 -132 -355 -325
l-165 -173 75 8 c103 10 205 37 296 79 42 20 79 36 81 36 2 0 -18 -21 -46 -47
-107 -102 -290 -305 -339 -376 -68 -99 -127 -222 -153 -322 -23 -89 -36 -296
-22 -334 9 -23 16 -18 149 115 146 145 229 248 382 473 51 74 92 131 92 127 0
-3 -13 -32 -29 -64 -74 -147 -140 -368 -165 -553 -20 -142 -30 -361 -21 -453
l7 -76 49 58 c90 104 226 313 334 512 31 58 54 94 50 80 -3 -14 -17 -68 -31
-120 -17 -63 -27 -132 -30 -205 l-5 -110 40 43 c43 46 118 186 172 319 18 46
34 82 35 80 1 -1 -2 -38 -6 -82 -10 -92 2 -235 26 -315 19 -64 69 -170 115
-242 30 -47 34 -49 46 -32 51 70 98 373 123 799 6 105 13 218 16 252 l6 62 51
32 c29 17 85 56 126 86 l73 55 -31 -45 c-42 -62 -96 -172 -115 -237 -10 -30
-20 -102 -23 -159 l-6 -103 24 7 c77 23 226 98 322 162 130 87 226 167 397
332 69 66 126 121 127 121 2 0 -17 -28 -42 -62 -63 -84 -141 -247 -166 -343
-23 -88 -30 -266 -16 -369 l9 -59 85 84 c110 109 198 214 285 341 38 57 67 94
64 82 -34 -116 -52 -394 -25 -394 15 0 91 61 146 118 l41 42 80 -79 c166 -166
392 -280 717 -363 66 -16 121 -31 122 -32 2 -1 -9 -47 -23 -102 -28 -106 -43
-318 -30 -408 l7 -47 56 31 c31 16 58 29 59 27 2 -1 -88 -249 -200 -551 l-203
-549 -59 -27 c-106 -48 -171 -149 -162 -249 14 -143 126 -215 286 -182 l57 12
250 -84 250 -84 -1 -74 c-1 -41 -7 -189 -13 -329 -13 -286 -30 -1225 -31
-1664 0 -227 -3 -287 -13 -283 -6 2 -57 19 -112 38 -97 32 -105 33 -265 34
-183 0 -224 -8 -357 -71 -121 -57 -225 -170 -208 -225 8 -25 20 -27 210 -33
202 -7 339 -28 472 -71 241 -79 398 -197 643 -480 231 -269 351 -387 476 -470
163 -108 259 3 190 219 -57 180 -185 330 -401 471 -105 68 -185 126 -115 83
271 -166 609 -344 755 -397 103 -37 197 -49 235 -29 15 8 30 29 38 55 39 121
-89 272 -348 410 -41 22 -101 51 -132 64 -32 12 -56 24 -54 27 3 2 47 -5 98
-17 344 -77 590 -82 628 -10 18 32 11 94 -16 147 -58 117 -202 187 -469 227
-122 18 -441 35 -666 35 l-166 0 -7 552 c-4 304 -13 805 -20 1113 -8 308 -12
561 -11 563 2 2 128 -35 281 -82 428 -130 759 -223 1249 -351 160 -41 318 -82
352 -91 53 -14 64 -21 75 -48 30 -71 1 -314 -54 -452 l-23 -59 -67 -6 c-71 -6
-112 -26 -123 -59 -4 -14 -12 -19 -22 -16 -42 17 -203 37 -328 43 -372 16
-605 -70 -605 -223 0 -53 25 -85 88 -112 85 -37 178 -45 437 -39 l240 5 -95
-32 c-194 -67 -313 -125 -423 -206 -121 -90 -161 -194 -94 -244 25 -18 42 -21
125 -20 84 1 112 6 207 38 61 20 170 68 244 107 l134 69 -79 -82 c-153 -160
-225 -279 -232 -385 -4 -56 -2 -64 21 -87 53 -53 176 -22 305 78 203 156 466
524 538 753 102 321 158 782 120 994 -24 133 -56 173 -203 255 -221 124 -468
204 -1398 453 -557 149 -613 166 -638 193 -13 14 -29 27 -37 30 -10 3 -11 30
-1 148 12 159 26 456 37 762 3 109 8 198 11 198 2 0 14 -7 28 -16 23 -15 24
-15 34 23 6 21 11 60 11 86 l0 48 29 -20 c40 -29 67 -27 75 5 8 31 -1 104 -20
158 -8 21 -14 42 -14 47 0 4 33 24 73 44 153 78 284 191 465 403 102 119 106
122 146 122 157 1 584 203 986 467 439 289 802 609 1076 949 160 198 318 478
388 684 68 202 80 286 80 555 1 404 -44 624 -283 1376 -146 461 -211 705 -218
814 -7 119 6 157 71 207 l50 37 100 -202 c176 -353 300 -506 487 -602 100 -51
177 -68 306 -68 l112 0 6 -29 c9 -40 113 -162 349 -411 278 -295 378 -418 474
-588 122 -215 172 -483 143 -760 -11 -108 -15 -120 -74 -241 -77 -161 -73
-172 45 -103 390 226 623 576 705 1060 21 126 24 477 5 615 -52 370 -178 725
-349 985 -162 245 -305 353 -531 401 -76 16 -83 20 -78 38 56 200 -58 483
-328 815 l-76 94 25 31 c50 60 83 146 95 241 6 50 13 105 16 123 4 24 1 32
-10 32 -9 0 -37 -44 -71 -110 -42 -82 -69 -121 -107 -155 -53 -48 -73 -56 -64
-27 17 55 24 148 16 198 -17 103 -42 138 -261 368 -16 17 -19 18 -24 4z
m-4237 -8266 c-2 -272 -8 -466 -14 -471 -9 -9 -290 72 -307 89 -5 4 65 206
155 449 96 261 164 432 167 418 2 -12 1 -230 -1 -485z"/>
</g>
</svg>
