<?xml version="1.0" standalone="no"?>
<!DOCTYPE svg PUBLIC "-//W3C//DTD SVG 20010904//EN"
 "http://www.w3.org/TR/2001/REC-SVG-20010904/DTD/svg10.dtd">
<svg version="1.0" xmlns="http://www.w3.org/2000/svg"
 width="1280.000000pt" height="815.000000pt" viewBox="0 0 1280.000000 815.000000"
 preserveAspectRatio="xMidYMid meet">
<metadata>
Created by potrace 1.15, written by Peter Selinger 2001-2017
</metadata>
<g transform="translate(0.000000,815.000000) scale(0.100000,-0.100000)"
fill="#000000" stroke="none">
<path d="M6283 8125 c-104 -52 -403 -382 -637 -703 -165 -225 -504 -753 -646
-1006 -19 -33 -35 -55 -37 -50 -6 17 76 331 123 477 26 78 102 293 169 477
126 344 198 554 230 672 17 63 17 69 1 93 -12 19 -25 25 -51 25 -119 0 -343
-379 -655 -1110 -97 -227 -252 -627 -296 -763 -26 -80 -29 -85 -40 -65 -22 42
-73 267 -93 406 -28 191 -42 420 -40 640 2 175 1 190 -19 230 -19 36 -27 42
-53 42 -40 0 -81 -43 -104 -108 -36 -102 -54 -733 -36 -1252 7 -190 15 -353
17 -362 24 -84 -144 168 -255 382 -44 85 -82 148 -85 140 -11 -37 -14 -140 -5
-216 17 -157 88 -331 201 -498 l54 -79 -47 -71 c-79 -120 -207 -345 -419 -736
-303 -559 -440 -796 -602 -1039 -218 -326 -469 -610 -673 -763 -267 -201 -755
-371 -1280 -447 -161 -24 -210 -27 -667 -42 l-338 -12 0 -109 c0 -88 3 -108
15 -108 7 0 38 -5 67 -11 59 -13 51 -21 -35 -33 l-47 -7 0 -106 0 -106 383 7
c790 14 1272 -27 1777 -150 80 -19 341 -101 580 -180 730 -244 1205 -381 1723
-499 327 -74 729 -138 942 -152 111 -6 135 3 135 53 0 23 13 14 118 -79 397
-352 757 -607 1084 -767 126 -62 334 -140 372 -140 49 0 -13 43 -333 230 -191
112 -251 153 -240 164 3 3 68 -17 145 -45 299 -110 703 -243 712 -235 2 3
-119 65 -270 138 -277 136 -388 199 -388 219 0 29 223 -29 640 -166 140 -46
256 -82 259 -80 9 10 -74 121 -138 185 -124 124 -303 242 -560 369 -86 43
-194 93 -240 112 l-84 34 119 3 c367 10 1007 -55 1461 -149 313 -64 521 -119
896 -236 98 -30 180 -53 181 -52 2 2 -57 85 -130 184 -73 99 -133 184 -134
188 0 5 24 6 53 3 28 -4 115 -13 192 -22 77 -8 298 -37 490 -64 432 -60 622
-77 730 -64 59 7 80 13 82 24 1 8 4 36 8 61 l6 45 141 12 c420 36 674 121 853
285 184 167 226 348 141 600 -54 163 -187 482 -276 662 -115 234 -179 324
-350 496 -80 80 -154 151 -165 157 -19 12 -18 14 24 52 24 22 47 39 50 38 3
-2 92 -47 196 -99 483 -245 1243 -565 1366 -576 52 -5 58 -3 93 27 44 39 108
166 133 265 21 85 24 357 5 480 -33 206 -56 302 -97 394 -88 201 -117 316
-117 476 -1 72 5 134 17 180 11 46 20 142 26 280 18 423 -16 802 -85 960 -25
56 -76 105 -109 105 -41 0 -108 -43 -199 -129 -51 -47 -181 -161 -288 -251
-536 -453 -828 -749 -1077 -1092 -74 -102 -89 -118 -113 -118 -15 0 -65 -7
-110 -16 -45 -8 -83 -14 -85 -12 -1 2 2 35 8 73 12 81 -4 479 -28 715 -101
979 -394 1641 -845 1905 -228 134 -496 151 -750 50 -76 -30 -87 -33 -100 -19
-13 13 -10 19 30 52 139 114 201 191 177 221 -54 64 -681 -162 -951 -343 -38
-25 -71 -45 -72 -43 -6 6 40 62 81 98 49 43 158 121 380 270 93 63 184 129
202 147 62 62 34 122 -57 122 -53 0 -3 27 -800 -429 -311 -178 -569 -325 -575
-328 -41 -18 562 481 856 709 47 36 100 83 119 104 37 43 80 128 80 162 0 31
-34 62 -70 62 -106 0 -428 -199 -1046 -647 -159 -115 -296 -213 -303 -218 -23
-14 66 98 187 235 122 139 336 358 572 586 157 152 201 210 215 284 5 27 2 42
-13 59 -39 50 -106 15 -377 -194 -370 -286 -753 -600 -1057 -867 -87 -76 -160
-138 -163 -138 -13 0 286 389 661 862 139 175 265 338 279 361 36 62 43 125
17 157 -29 36 -99 34 -172 -6 -118 -64 -536 -462 -1110 -1058 -156 -162 -286
-293 -288 -291 -2 2 45 100 105 217 159 310 352 627 565 930 124 176 149 248
107 302 -26 33 -60 34 -126 1z"/>
</g>
</svg>
