<?xml version="1.0" standalone="no"?>
<!DOCTYPE svg PUBLIC "-//W3C//DTD SVG 20010904//EN"
 "http://www.w3.org/TR/2001/REC-SVG-20010904/DTD/svg10.dtd">
<svg version="1.0" xmlns="http://www.w3.org/2000/svg"
 width="785.000000pt" height="1280.000000pt" viewBox="0 0 785.000000 1280.000000"
 preserveAspectRatio="xMidYMid meet">
<metadata>
Created by potrace 1.15, written by Peter Selinger 2001-2017
</metadata>
<g transform="translate(0.000000,1280.000000) scale(0.100000,-0.100000)"
fill="#000000" stroke="none">
<path d="M4059 12783 c-94 -113 -113 -197 -129 -573 -13 -302 -19 -327 -95
-400 -160 -154 -50 -241 167 -132 111 55 207 129 251 194 20 29 97 131 171
227 126 163 216 309 216 351 0 15 -11 18 -72 22 -56 3 -89 11 -143 36 -60 28
-88 52 -195 162 -69 72 -133 130 -141 130 -9 0 -22 -8 -30 -17z"/>
<path d="M3640 12093 c-25 -10 -95 -60 -151 -108 l-54 -47 -70 5 c-44 3 -117
21 -195 47 -163 53 -241 71 -279 64 -43 -9 -57 -28 -33 -46 64 -45 56 -152
-27 -363 -17 -44 -31 -87 -31 -95 0 -8 20 5 48 32 98 95 155 108 519 116 155
4 283 9 286 12 7 9 45 171 58 252 15 94 7 132 -31 135 -14 1 -32 -1 -40 -4z"/>
<path d="M4430 11861 c-232 -82 -363 -157 -472 -268 -84 -86 -108 -127 -108
-182 0 -103 113 -201 232 -201 56 0 85 19 156 99 88 99 157 137 355 196 113
33 124 90 47 239 -27 54 -52 113 -56 132 -3 19 -9 34 -13 33 -3 0 -67 -22
-141 -48z"/>
<path d="M2556 11639 c-65 -15 -96 -41 -150 -124 -29 -44 -83 -114 -120 -155
-37 -41 -63 -76 -58 -78 7 -2 246 81 390 135 23 9 13 -52 -17 -99 -59 -93
-208 -216 -347 -286 -98 -50 -256 -76 -317 -53 -61 23 -70 61 -37 156 25 72
25 75 0 75 -14 0 -34 -24 -70 -86 -108 -183 -167 -324 -156 -369 5 -21 12 -25
43 -25 21 0 55 11 80 25 23 14 43 21 43 15 0 -15 27 -12 116 11 316 82 1004
363 1004 409 0 5 -24 16 -54 24 -94 28 -134 101 -121 225 6 62 5 68 -23 107
-43 59 -82 84 -152 99 -8 1 -32 -1 -54 -6z"/>
<path d="M3123 11615 c-83 -18 -153 -58 -209 -118 -43 -45 -46 -52 -41 -89 7
-52 42 -94 153 -188 132 -112 204 -184 204 -207 0 -11 -14 -35 -31 -52 -49
-52 -28 -60 84 -32 193 49 472 169 503 216 28 43 13 116 -50 253 -31 67 -62
145 -70 173 l-13 52 -234 3 c-171 2 -251 -1 -296 -11z"/>
<path d="M4995 11492 c-122 -5 -314 -32 -399 -57 -144 -42 -309 -136 -347
-198 -59 -98 23 -253 154 -292 58 -17 103 -6 164 42 91 72 183 101 352 110
120 6 127 8 153 34 35 35 37 95 7 204 -11 42 -19 94 -18 115 2 22 1 40 -1 42
-3 2 -32 2 -65 0z"/>
<path d="M3995 11160 c-11 -5 -117 -45 -235 -89 -451 -167 -586 -203 -760
-205 -111 -1 -117 0 -172 30 l-57 31 -24 -26 c-36 -38 -47 -65 -47 -111 0 -22
-12 -73 -26 -113 -52 -145 -92 -263 -98 -289 -8 -35 7 -36 39 -2 18 19 50 32
138 54 501 125 940 327 1169 538 116 107 162 222 73 182z"/>
<path d="M5485 11123 c-91 -20 -195 -50 -335 -98 -212 -71 -343 -107 -400
-108 -29 -1 -70 9 -113 26 -72 30 -97 30 -97 0 0 -24 204 -222 333 -323 224
-176 470 -324 525 -318 34 4 45 27 71 152 21 103 45 146 83 146 11 0 39 -9 64
-21 71 -32 79 -26 79 56 0 55 -12 108 -54 248 -31 102 -51 189 -48 203 3 20
-1 27 -20 35 -25 9 -53 10 -88 2z"/>
<path d="M4030 10974 c-447 -382 -579 -477 -745 -540 -60 -22 -81 -25 -152
-22 l-81 4 -17 -40 c-9 -23 -19 -67 -22 -98 -7 -69 9 -82 56 -49 83 59 326 69
450 18 l64 -26 71 46 c127 82 290 209 376 294 186 183 239 329 169 465 -14 26
-29 49 -34 51 -6 2 -66 -45 -135 -103z"/>
<path d="M4355 10748 c-218 -240 -500 -479 -659 -558 l-78 -40 -49 -102 c-27
-57 -49 -113 -49 -125 0 -28 30 -47 100 -63 30 -7 93 -26 140 -42 47 -16 117
-32 157 -35 65 -5 78 -3 127 21 62 30 115 86 153 161 66 128 223 616 262 814
11 53 18 97 17 98 -1 1 -56 -57 -121 -129z"/>
<path d="M2237 10836 c-80 -30 -149 -102 -173 -182 -56 -186 72 -375 255 -377
104 -1 190 55 240 155 36 71 41 154 15 231 -19 57 -83 131 -137 159 -52 26
-149 33 -200 14z m133 -161 c42 -22 63 -68 58 -127 -6 -54 -27 -84 -75 -105
-92 -38 -179 89 -128 187 28 54 90 73 145 45z"/>
<path d="M1857 10686 c-157 -83 -397 -235 -782 -496 -328 -223 -397 -274 -442
-328 -87 -103 -310 -221 -553 -293 l-74 -22 50 -17 c122 -39 182 -119 205
-271 6 -41 15 -85 20 -97 l9 -24 39 34 c21 18 72 54 112 80 41 26 144 102 229
168 85 66 190 138 232 160 112 59 119 71 116 194 -1 56 1 107 6 114 4 7 128
109 274 226 419 334 650 535 681 594 11 20 9 22 -13 22 -14 0 -63 -20 -109
-44z"/>
<path d="M4613 10715 c-60 -42 -111 -162 -172 -405 -61 -242 -88 -316 -128
-361 -23 -26 -33 -45 -29 -55 20 -53 646 56 1072 187 102 31 144 56 144 84 0
26 -51 54 -139 74 -156 37 -221 69 -221 110 0 11 -22 24 -67 39 -140 48 -261
137 -340 251 -67 96 -80 104 -120 76z"/>
<path d="M1760 10389 c-378 -309 -650 -558 -650 -594 0 -5 -9 -19 -21 -31 -56
-60 7 -56 396 22 149 30 341 68 429 84 295 55 338 100 283 295 -14 48 -16 50
-96 90 -130 66 -167 112 -159 197 4 34 15 64 36 94 18 24 31 44 29 44 -1 0
-112 -90 -247 -201z"/>
<path d="M5706 10154 c-85 -134 -331 -240 -572 -247 -52 -1 -94 -5 -94 -8 0
-4 23 -60 51 -125 75 -175 99 -279 106 -456 3 -81 9 -146 12 -144 3 3 110 25
236 50 127 26 268 58 314 72 104 31 225 85 214 94 -4 4 -27 12 -51 19 -61 17
-117 71 -141 137 -28 75 -39 217 -33 435 2 102 1 193 -4 202 -8 13 -14 8 -38
-29z"/>
<path d="M4910 9874 c-90 -47 -215 -76 -415 -94 -200 -19 -179 -9 -215 -103
-77 -199 -88 -326 -45 -531 14 -66 28 -123 32 -127 5 -5 82 21 173 57 247 98
316 116 435 117 70 0 111 -4 137 -16 l37 -16 7 35 c13 69 -3 374 -24 469 -24
106 -60 222 -70 229 -4 2 -27 -7 -52 -20z"/>
<path d="M4156 9791 c-9 -10 -47 -34 -84 -52 -63 -32 -73 -34 -167 -34 -105 0
-168 17 -277 71 l-48 24 -4 -22 c-3 -13 -10 -84 -16 -158 -15 -181 -45 -369
-79 -491 -22 -78 -25 -99 -14 -99 8 0 87 19 176 42 146 38 174 42 282 42 110
0 125 -2 179 -27 33 -15 61 -25 63 -23 2 2 -4 46 -14 97 -26 139 -24 403 4
524 12 50 24 98 28 108 9 23 -8 22 -29 -2z"/>
<path d="M5940 9225 c-106 -109 -330 -172 -647 -182 l-181 -6 25 -56 c97 -216
134 -365 137 -553 1 -84 4 -118 13 -118 35 0 173 41 454 134 173 57 337 110
366 117 l51 12 -53 48 c-133 123 -197 367 -146 567 10 39 17 72 16 72 0 0 -17
-16 -35 -35z"/>
<path d="M5020 9030 c-32 -21 -128 -52 -200 -65 -66 -12 -162 -20 -475 -41
l-80 -5 0 -127 c0 -70 -6 -181 -14 -247 -12 -103 -11 -348 1 -361 2 -1 36 6
75 16 250 66 596 66 784 1 l56 -19 6 49 c11 93 -15 346 -55 529 -17 82 -75
280 -81 280 -1 0 -9 -5 -17 -10z"/>
<path d="M4050 8974 c-144 -47 -396 -80 -522 -70 l-78 6 0 -104 c0 -238 -47
-408 -154 -562 -34 -48 -41 -64 -29 -64 9 0 90 18 180 41 334 82 479 89 607
28 22 -10 40 -18 41 -16 1 1 -6 49 -16 107 -34 197 -19 493 31 625 11 29 6 30
-60 9z"/>
<path d="M5925 8394 c-154 -63 -361 -147 -460 -186 -99 -40 -182 -73 -184 -75
-2 -1 18 -53 44 -115 88 -205 105 -277 114 -476 l6 -142 95 63 c288 193 541
309 707 324 l63 6 -63 42 c-119 79 -160 170 -137 303 14 84 50 205 89 300 19
45 25 72 18 71 -7 0 -138 -52 -292 -115z"/>
<path d="M4058 8149 c-62 -24 -222 -38 -423 -37 -159 1 -249 -6 -274 -21 -10
-7 -4 -45 30 -182 40 -159 44 -185 44 -299 0 -132 -19 -218 -66 -299 -11 -18
-18 -35 -16 -37 2 -2 39 3 83 12 289 56 433 70 547 55 86 -12 188 -41 213 -62
8 -6 14 -7 14 -2 0 5 -22 98 -50 207 -79 313 -93 470 -55 632 7 30 10 54 6 53
-3 -1 -27 -10 -53 -20z"/>
<path d="M5169 8110 c-10 -6 -50 -17 -90 -26 -62 -13 -135 -15 -449 -12 l-374
3 -14 -55 c-8 -35 -11 -96 -9 -165 4 -101 8 -123 55 -262 29 -87 53 -178 56
-210 l4 -58 68 -19 c57 -16 105 -19 269 -20 248 -1 385 20 570 86 53 20 58 45
52 238 -6 178 -20 266 -74 433 -24 76 -33 85 -64 67z"/>
<path d="M6230 7679 c-117 -106 -332 -234 -474 -281 -34 -11 -94 -22 -134 -25
-86 -7 -85 3 -10 -147 92 -183 138 -362 138 -533 0 -35 2 -63 5 -63 3 0 76 55
163 122 264 204 416 293 559 327 69 16 74 19 48 25 -83 19 -168 124 -194 241
-10 47 -31 280 -31 353 0 17 -3 32 -7 32 -5 -1 -33 -23 -63 -51z"/>
<path d="M5389 7230 c-86 -34 -222 -42 -666 -39 -232 2 -425 1 -429 -3 -11
-12 14 -145 36 -188 11 -21 68 -94 127 -162 59 -68 134 -158 167 -201 62 -81
64 -82 136 -67 97 21 428 31 623 20 106 -6 210 -15 232 -20 22 -5 40 -8 42 -7
18 19 -193 690 -216 686 -3 -1 -26 -9 -52 -19z"/>
<path d="M3405 7148 c8 -47 20 -74 65 -145 38 -59 39 -109 5 -199 l-25 -67 30
6 c16 4 83 9 147 13 257 14 555 -46 837 -167 50 -21 92 -37 93 -35 5 5 -66 64
-167 139 -138 103 -216 218 -277 410 l-28 87 -343 0 -344 0 7 -42z"/>
<path d="M7448 7165 c-184 -74 -324 -194 -399 -340 -96 -186 -106 -251 -53
-315 64 -75 157 -16 339 216 31 40 56 58 111 83 91 41 162 104 202 179 42 78
44 138 6 176 -23 23 -35 26 -88 25 -39 0 -82 -9 -118 -24z"/>
<path d="M6450 6958 c-89 -52 -235 -148 -483 -318 -81 -55 -161 -103 -178
-107 -16 -3 -29 -8 -29 -12 0 -11 52 -84 93 -131 21 -25 48 -62 59 -83 21 -43
38 -163 31 -226 -3 -23 -2 -41 1 -41 3 0 90 72 193 161 355 304 506 399 636
399 39 0 40 0 22 20 -27 30 -78 40 -197 40 -97 0 -110 2 -129 21 -18 18 -20
29 -15 70 6 42 57 186 87 240 14 27 5 24 -91 -33z"/>
<path d="M7545 6675 c-100 -19 -203 -53 -255 -83 -53 -32 -165 -135 -233 -216
-49 -59 -49 -60 -45 -118 3 -37 11 -65 21 -76 41 -40 145 -4 318 112 56 38 94
56 115 56 62 0 151 22 221 56 156 74 212 212 108 264 -40 19 -163 22 -250 5z"/>
<path d="M3574 6661 c-62 -28 -120 -86 -151 -149 -22 -47 -28 -74 -31 -157
-15 -383 321 -887 741 -1110 132 -70 338 -134 435 -135 45 0 55 30 55 165 0
243 -126 578 -337 895 -255 383 -531 573 -712 491z"/>
<path d="M6850 6583 c-22 -9 -283 -168 -370 -226 -169 -113 -285 -221 -320
-299 -25 -54 -25 -75 -1 -136 31 -78 40 -177 31 -322 -5 -72 -6 -139 -2 -149
6 -15 62 32 322 270 173 159 316 285 318 279 14 -41 63 56 87 175 20 97 30
255 21 320 -5 30 -16 56 -31 71 -25 25 -30 26 -55 17z"/>
<path d="M4269 6417 c294 -502 472 -911 430 -989 -6 -11 -9 -22 -6 -24 8 -8
94 24 192 72 89 44 106 49 165 49 48 -1 77 -7 108 -24 24 -12 46 -20 49 -17
25 25 -124 352 -253 556 -73 117 -208 308 -261 370 -33 38 -37 40 -93 40 -98
0 -263 40 -392 95 -11 4 12 -44 61 -128z"/>
<path d="M5620 6468 c-74 -26 -222 -33 -400 -19 -80 7 -205 15 -279 18 -116 5
-134 4 -129 -9 4 -8 41 -64 84 -124 147 -206 262 -413 313 -562 23 -69 46
-206 37 -228 -9 -22 39 -17 92 10 26 14 73 46 104 73 31 26 96 82 145 124 97
82 178 135 269 175 33 14 60 27 62 29 2 1 -21 54 -51 116 -61 126 -177 396
-177 410 0 11 -2 11 -70 -13z"/>
<path d="M7520 6263 c-224 -43 -260 -57 -367 -138 -35 -25 -95 -81 -134 -123
l-71 -77 5 -54 c10 -128 101 -120 362 29 95 55 105 58 185 64 112 8 200 39
261 94 84 76 86 147 4 187 -40 19 -185 30 -245 18z"/>
<path d="M5972 5941 c-20 -45 -124 -137 -262 -231 -69 -47 -146 -106 -172
-132 -41 -40 -48 -53 -48 -86 0 -74 65 -112 263 -152 155 -31 203 -47 241 -80
l33 -30 11 48 c5 26 22 103 38 172 23 102 28 150 28 260 1 126 -1 138 -24 178
-19 35 -72 82 -91 82 -2 0 -10 -13 -17 -29z"/>
<path d="M6635 5754 c-256 -175 -391 -297 -450 -406 -32 -58 -35 -105 -15
-189 19 -77 4 -124 -83 -262 -61 -96 -106 -201 -93 -215 2 -2 140 108 306 245
166 136 310 248 320 248 28 0 50 25 86 97 92 183 160 490 124 559 -6 10 -21
19 -33 19 -12 -1 -85 -44 -162 -96z"/>
<path d="M7430 5813 c-135 -22 -361 -87 -473 -137 -46 -20 -61 -32 -72 -60
-33 -79 -3 -141 82 -170 56 -19 244 -22 356 -5 65 10 81 9 141 -10 81 -25 115
-26 182 -6 139 41 203 183 128 282 -59 78 -217 127 -344 106z"/>
<path d="M4855 5365 c-93 -24 -180 -44 -193 -44 l-23 -1 3 -336 3 -336 33 6
c33 5 101 35 181 81 58 33 105 32 174 -3 l56 -28 -6 60 c-7 81 15 185 73 338
84 224 104 287 91 295 -7 4 -59 9 -117 10 -96 2 -119 -1 -275 -42z"/>
<path d="M6921 5369 c-72 -9 -105 -33 -120 -86 -10 -34 5 -74 37 -100 55 -46
273 -117 415 -138 36 -5 56 -15 82 -41 29 -29 41 -34 81 -34 67 0 122 19 162
57 31 30 34 37 29 73 -3 23 -17 56 -32 75 -53 71 -243 179 -340 195 -70 12
-222 11 -314 -1z"/>
<path d="M5361 5328 c-10 -24 -43 -86 -73 -138 -118 -203 -139 -262 -154 -424
-6 -75 -6 -79 12 -72 48 18 145 36 200 36 69 0 158 -24 276 -76 69 -31 83 -34
114 -25 109 30 210 157 294 369 21 54 42 110 45 123 6 25 6 25 -53 21 -79 -6
-126 11 -297 104 -162 89 -249 124 -306 124 -37 0 -41 -3 -58 -42z"/>
<path d="M6723 5091 c-99 -72 -60 -132 171 -261 95 -53 99 -56 101 -91 4 -67
60 -118 168 -151 125 -37 222 -12 241 64 7 29 4 45 -17 92 -30 64 -107 167
-164 216 -75 66 -268 140 -405 156 -48 5 -57 3 -95 -25z"/>
<path d="M6526 4917 c-21 -7 -45 -21 -52 -32 -21 -31 9 -80 131 -220 95 -109
104 -123 99 -151 -16 -90 103 -214 206 -214 77 0 102 58 76 175 -36 158 -128
276 -307 398 -89 61 -93 62 -153 44z"/>
<path d="M4868 4686 c-20 -7 -60 -28 -87 -46 -28 -17 -76 -40 -107 -49 l-57
-16 -18 -70 c-10 -39 -43 -131 -74 -204 -58 -141 -91 -250 -101 -338 l-7 -52
51 14 c29 7 67 23 87 35 l36 22 69 -41 c77 -46 80 -47 80 -26 0 28 86 266 158
435 71 170 126 320 118 327 -6 6 -77 23 -96 22 -8 0 -32 -6 -52 -13z"/>
<path d="M5199 4683 c-31 -3 -38 -10 -58 -51 -13 -26 -54 -102 -92 -169 -135
-236 -189 -383 -189 -517 l0 -58 28 7 c94 26 100 25 155 -20 29 -23 74 -54
102 -69 l49 -26 29 28 c58 54 190 219 266 332 81 120 221 358 221 376 0 26
-177 126 -262 148 -59 15 -194 26 -249 19z"/>
<path d="M4541 3836 c-19 -14 -53 -28 -77 -32 -38 -5 -44 -10 -50 -38 -11 -50
-52 -124 -120 -218 -101 -138 -150 -240 -169 -350 l-6 -38 33 7 c40 7 85 29
90 43 1 5 25 -6 52 -25 27 -19 53 -35 58 -35 4 0 8 24 8 53 0 71 34 138 145
287 93 124 146 212 176 290 18 49 18 50 -1 60 -10 6 -38 13 -62 16 -36 5 -49
1 -77 -20z"/>
<path d="M4802 3841 c-39 -10 -34 -5 -62 -61 -29 -58 -67 -113 -158 -229 -108
-138 -146 -227 -153 -353 l-3 -53 134 -72 c74 -40 140 -73 145 -73 6 0 39 53
75 117 111 199 250 401 381 554 l49 56 -42 6 c-23 3 -87 28 -142 56 -105 52
-165 66 -224 52z"/>
<path d="M4123 3099 c-6 -6 -32 -16 -57 -22 -45 -12 -48 -15 -65 -63 -21 -62
-33 -81 -116 -183 -35 -44 -78 -101 -95 -128 -34 -53 -70 -159 -70 -205 0 -26
3 -28 23 -22 27 10 57 10 77 1 11 -5 28 17 68 90 71 133 137 217 222 286 59
48 77 70 106 130 19 39 34 77 34 83 0 7 -21 19 -47 28 -55 19 -65 20 -80 5z"/>
<path d="M4309 3019 c-22 -41 -79 -110 -170 -205 -140 -147 -177 -200 -198
-295 -14 -59 -14 -109 0 -109 6 0 34 8 61 18 49 17 49 17 66 -5 9 -12 46 -38
81 -58 l64 -36 34 33 c42 40 148 192 293 416 133 207 134 210 92 188 -17 -9
-38 -16 -47 -16 -9 0 -43 26 -74 58 -38 39 -69 61 -91 65 -70 14 -77 11 -111
-54z"/>
<path d="M3688 2453 c22 -9 13 -21 -23 -27 -28 -6 -42 -17 -70 -59 -19 -29
-46 -83 -60 -122 -29 -75 -45 -105 -109 -202 -23 -36 -48 -63 -58 -63 -27 0
-48 -11 -48 -25 0 -14 55 -65 70 -65 5 0 29 39 54 86 76 142 135 225 223 310
67 65 83 87 83 110 0 22 -7 34 -29 47 -16 9 -33 17 -38 16 -4 0 -2 -3 5 -6z"/>
<path d="M3900 2353 c-41 -7 -198 -133 -254 -203 -50 -62 -176 -244 -176 -254
0 -3 13 0 29 5 52 18 94 8 112 -28 30 -60 49 -83 101 -118 l52 -35 13 50 c37
146 186 355 318 445 30 21 55 40 55 42 0 8 -74 69 -103 86 -30 16 -89 20 -147
10z"/>
<path d="M3306 1817 c-21 -22 -41 -63 -60 -123 -16 -49 -44 -120 -64 -159 -35
-72 -129 -212 -157 -235 -22 -18 -19 -24 28 -50 35 -20 56 -24 125 -25 94 0
95 -1 122 -90 l16 -50 45 75 c26 41 65 111 89 155 98 184 190 295 245 295 21
0 19 22 -8 61 -30 44 -78 76 -146 95 -31 9 -84 31 -119 50 -34 19 -68 34 -74
34 -6 0 -25 -15 -42 -33z"/>
<path d="M1409 1213 c-74 -37 -201 -166 -282 -288 -78 -119 -161 -281 -178
-348 -11 -47 -11 -49 17 -78 58 -61 154 -27 243 85 24 30 90 131 146 223 147
240 175 277 247 324 34 21 64 41 66 44 2 2 -23 17 -57 34 -77 39 -128 40 -202
4z"/>
<path d="M2911 1130 c-74 -105 -97 -126 -189 -175 -37 -19 -82 -48 -100 -63
l-32 -27 58 -47 59 -46 6 -94 c4 -51 9 -103 13 -115 6 -22 6 -22 53 9 70 49
129 106 178 175 61 86 111 126 231 186 56 28 102 56 102 62 0 14 -49 84 -71
102 -8 6 -51 27 -96 46 -45 19 -95 44 -111 56 -17 11 -32 21 -34 21 -2 0 -32
-41 -67 -90z"/>
<path d="M2346 645 c-123 -130 -157 -159 -210 -185 -39 -18 -80 -30 -105 -30
-24 0 -41 -5 -41 -12 0 -6 18 -35 40 -64 l40 -53 -20 -77 c-33 -128 -25 -148
50 -125 45 13 116 64 288 207 70 58 157 126 195 151 37 24 67 47 67 49 0 10
-140 283 -148 288 -5 3 -75 -64 -156 -149z"/>
<path d="M1202 467 l-112 -113 100 -142 c56 -78 103 -142 105 -142 2 0 27 70
55 156 l53 157 -23 56 c-13 31 -33 75 -44 98 l-21 43 -113 -113z"/>
<path d="M1456 383 c36 -56 56 -106 51 -132 -3 -14 -17 -64 -31 -110 -14 -46
-26 -96 -26 -113 l0 -29 88 6 c48 4 131 11 186 16 54 5 120 9 146 9 27 0 51 3
53 8 4 7 -86 308 -95 317 -2 2 -32 -5 -67 -15 -90 -29 -120 -26 -172 14 -40
31 -101 56 -138 56 -10 0 -9 -6 5 -27z"/>
</g>
</svg>
