<?xml version="1.0" standalone="no"?>
<!DOCTYPE svg PUBLIC "-//W3C//DTD SVG 20010904//EN"
 "http://www.w3.org/TR/2001/REC-SVG-20010904/DTD/svg10.dtd">
<svg version="1.0" xmlns="http://www.w3.org/2000/svg"
 width="667.000000pt" height="1280.000000pt" viewBox="0 0 667.000000 1280.000000"
 preserveAspectRatio="xMidYMid meet">
<metadata>
Created by potrace 1.15, written by Peter Selinger 2001-2017
</metadata>
<g transform="translate(0.000000,1280.000000) scale(0.100000,-0.100000)"
fill="#000000" stroke="none">
<path d="M1786 12732 c-40 -64 -112 -213 -141 -292 -104 -288 -111 -601 -20
-954 42 -164 86 -285 176 -477 97 -208 113 -283 79 -373 l-9 -25 -118 41
c-102 35 -133 41 -230 45 -62 3 -113 3 -113 1 0 -3 39 -29 86 -58 196 -120
305 -266 312 -420 7 -139 -79 -406 -228 -709 -294 -598 -696 -1040 -1145
-1261 -105 -52 -310 -124 -383 -136 -53 -8 -53 -29 -2 -55 51 -27 114 -36 285
-44 364 -15 520 -52 671 -156 48 -33 63 -30 64 13 0 28 60 189 102 273 173
347 543 679 917 820 97 37 136 32 382 -45 377 -118 502 -139 633 -105 113 30
202 119 276 280 56 120 74 195 74 305 0 78 -3 102 -21 135 -15 29 -21 58 -20
105 0 39 -7 80 -16 104 -45 104 -165 219 -301 287 -64 32 -73 39 -49 39 46 0
182 -72 246 -130 52 -48 60 -52 92 -46 55 11 226 101 317 167 46 34 133 112
194 174 l111 113 13 -41 c19 -67 99 -211 157 -284 63 -81 156 -162 229 -200
l52 -27 -47 -33 c-25 -18 -59 -50 -74 -70 -31 -41 -67 -106 -67 -122 0 -5 19
-20 43 -34 23 -14 73 -53 110 -87 37 -34 69 -61 70 -59 2 2 13 48 25 102 41
189 135 329 266 398 l65 35 -51 68 c-29 38 -76 95 -105 126 -29 32 -53 66 -53
75 0 25 83 138 154 210 211 213 433 309 718 309 75 1 135 2 133 4 -2 2 -37 13
-77 23 -210 57 -410 24 -605 -97 -94 -58 -236 -193 -323 -306 l-68 -87 -81 65
c-242 195 -477 313 -744 374 l-99 23 6 31 c11 56 102 229 163 311 71 95 204
225 292 284 135 92 351 175 489 188 40 4 58 9 50 14 -34 22 -264 -3 -370 -40
-275 -95 -494 -314 -673 -672 -26 -52 -49 -95 -50 -97 -2 -2 -77 6 -166 17
-124 16 -489 51 -525 51 -8 0 -4 252 7 348 48 444 197 809 378 924 57 36 37
36 -36 1 -227 -111 -371 -477 -431 -1091 l-16 -173 -56 6 c-217 25 -422 63
-600 111 -113 31 -131 47 -207 186 -98 178 -175 406 -220 648 -24 133 -24 459
0 585 25 125 61 248 101 344 19 44 32 81 30 81 -2 0 -15 -17 -28 -38z m464
-2458 c-17 -44 -30 -111 -50 -256 -22 -156 -43 -224 -93 -300 -32 -47 -147
-171 -147 -157 0 2 9 31 20 62 11 32 27 88 35 125 9 37 18 78 21 90 6 31 24
17 49 -38 13 -29 21 -37 27 -28 10 15 3 65 -23 170 -26 102 -24 132 10 203 27
57 67 102 121 138 34 23 41 21 30 -9z"/>
<path d="M1711 12405 c-22 -89 -26 -415 -6 -561 39 -292 139 -583 277 -801 35
-55 45 -64 96 -83 82 -31 161 -37 217 -16 45 18 45 18 75 -7 55 -47 121 -65
337 -92 37 -4 35 -13 53 175 31 331 100 593 237 909 5 12 -7 13 -73 8 -106 -8
-172 -31 -414 -147 -113 -54 -229 -106 -259 -114 -79 -23 -185 -21 -237 4
-136 66 -228 280 -272 630 l-19 145 -12 -50z"/>
<path d="M3091 11841 c-109 -152 -182 -466 -207 -887 -7 -128 -16 -117 108
-134 89 -13 147 -8 192 15 26 14 30 13 57 -9 32 -27 88 -41 205 -51 l81 -7 48
93 c141 280 392 542 604 631 28 11 51 24 51 28 0 17 -67 30 -154 30 -113 0
-193 -19 -451 -106 -179 -61 -210 -68 -295 -72 -87 -3 -98 -2 -130 20 -20 13
-46 45 -60 73 -24 48 -25 58 -25 228 0 97 -1 177 -2 177 -1 0 -11 -13 -22 -29z"/>
<path d="M4299 11426 c-210 -86 -437 -316 -571 -579 -54 -105 -59 -95 62 -122
41 -10 116 -33 165 -52 117 -45 180 -63 232 -63 38 0 43 -3 66 -42 15 -26 55
-65 99 -97 155 -116 174 -131 197 -155 l24 -26 44 66 c57 84 169 202 252 265
84 62 207 123 293 145 77 19 79 28 11 73 -84 56 -171 77 -474 116 -221 28
-318 51 -382 88 -111 65 -111 155 -1 325 29 45 50 82 46 82 -4 0 -32 -11 -63
-24z"/>
<path d="M5230 10644 c-78 -20 -224 -94 -301 -152 -98 -75 -259 -260 -259
-300 0 -15 227 -232 243 -232 9 0 17 -14 20 -36 3 -20 37 -98 74 -173 37 -75
68 -137 68 -138 1 -1 43 20 95 47 188 96 360 136 555 127 66 -3 131 -9 144
-13 22 -7 23 -5 17 22 -28 113 -119 196 -326 295 -238 114 -288 145 -330 207
-49 70 -31 179 46 294 19 28 37 55 40 60 7 11 -22 9 -86 -8z"/>
<path d="M3968 10267 c-44 -70 -148 -183 -222 -242 -83 -65 -174 -114 -276
-149 -41 -14 -74 -29 -73 -33 1 -5 18 -35 38 -68 20 -33 43 -81 53 -107 9 -27
19 -48 23 -48 3 0 55 24 115 54 257 126 476 187 625 173 l58 -5 -47 38 c-132
106 -231 260 -249 385 -3 25 -8 45 -12 45 -3 0 -18 -19 -33 -43z"/>
<path d="M4799 9881 c-67 -44 -120 -127 -134 -206 -5 -26 -21 -54 -45 -80 -43
-45 -110 -172 -110 -207 0 -13 26 -61 58 -108 31 -48 75 -125 97 -173 22 -47
42 -86 45 -86 3 0 20 22 39 50 90 133 236 202 378 179 31 -5 59 -7 61 -5 6 5
-35 125 -69 203 l-24 53 25 20 c54 42 248 130 345 155 125 33 300 37 410 10
86 -21 192 -71 264 -125 30 -23 57 -41 60 -41 3 1 -24 29 -62 64 -130 120
-253 174 -418 183 -163 9 -309 -27 -519 -130 -69 -34 -128 -63 -131 -64 -4 -2
-27 35 -52 82 -56 104 -153 255 -165 255 -5 0 -29 -13 -53 -29z"/>
<path d="M4056 9794 c-44 -8 -127 -30 -185 -50 -102 -34 -323 -137 -340 -158
-5 -6 -6 -65 -2 -131 6 -119 6 -120 31 -123 59 -7 221 -65 290 -103 90 -51
212 -169 259 -251 18 -32 34 -58 35 -58 1 0 -2 35 -7 78 -12 106 -2 353 18
432 26 105 88 222 157 295 33 36 58 69 54 73 -14 14 -230 11 -310 -4z"/>
<path d="M5554 9669 c-86 -14 -215 -59 -304 -105 -135 -70 -128 -56 -75 -165
25 -52 58 -106 73 -122 21 -22 26 -35 23 -71 -1 -24 6 -81 17 -127 11 -46 23
-101 26 -123 7 -36 9 -38 39 -32 82 15 289 18 364 6 90 -14 196 -50 269 -91
28 -16 54 -29 59 -29 16 0 -6 94 -36 151 -19 35 -77 107 -143 177 -197 207
-231 263 -207 343 15 49 82 108 165 145 36 16 66 32 66 35 1 19 -239 24 -336
8z"/>
<path d="M4201 9375 c-23 -92 -41 -252 -41 -375 l-1 -125 -31 40 c-87 111
-238 234 -366 299 -52 26 -231 90 -237 84 -1 -2 -12 -39 -24 -82 -12 -44 -40
-119 -62 -167 l-41 -87 45 -78 c44 -77 98 -200 112 -256 4 -16 10 -28 14 -28
4 0 42 20 85 44 91 52 256 109 381 131 116 21 316 21 415 1 43 -9 113 -35 163
-60 53 -26 87 -39 87 -31 0 32 -52 213 -85 297 -94 236 -238 404 -371 432 -30
7 -32 6 -43 -39z"/>
<path d="M5125 9219 c-69 -9 -131 -42 -163 -89 -24 -35 -31 -39 -71 -40 -48 0
-119 -31 -151 -65 l-21 -22 30 -109 c31 -109 61 -265 61 -311 0 -14 3 -23 8
-21 142 71 186 90 232 98 74 14 146 0 234 -45 38 -19 70 -34 72 -32 1 1 -5 48
-13 105 -8 56 -13 108 -10 116 9 24 135 48 252 48 266 -1 472 -98 616 -293 29
-38 54 -69 56 -69 3 0 -7 21 -23 48 -118 204 -283 324 -500 362 -70 13 -326 9
-401 -6 -31 -6 -32 -5 -43 37 -46 177 -84 288 -99 291 -9 2 -39 1 -66 -3z"/>
<path d="M5422 8816 c-30 -7 -58 -18 -63 -23 -11 -11 31 -161 55 -198 11 -17
14 -31 8 -43 -5 -9 -12 -67 -14 -129 l-4 -112 77 -31 c127 -51 227 -116 315
-204 44 -45 91 -94 103 -111 18 -24 24 -27 31 -15 21 33 9 131 -35 304 -52
201 -62 274 -46 333 14 53 68 101 121 109 22 4 40 10 40 14 0 11 -151 78 -217
96 -78 22 -300 28 -371 10z"/>
<path d="M4269 8731 c-26 -10 -62 -30 -81 -45 l-35 -26 -44 25 c-36 20 -57 25
-120 25 -89 0 -165 -21 -317 -88 l-103 -45 7 -41 c4 -22 7 -76 6 -118 0 -43 3
-78 6 -78 4 0 45 10 92 21 122 29 368 37 473 15 170 -35 300 -108 417 -233
101 -108 106 -127 7 -30 -136 136 -259 184 -358 140 l-45 -20 -47 43 c-69 62
-127 79 -272 79 -66 0 -155 -6 -198 -14 l-77 -14 -12 -39 c-7 -24 -30 -55 -60
-84 -47 -44 -48 -45 -48 -107 0 -43 -6 -75 -20 -102 -11 -22 -20 -41 -20 -42
0 -2 39 -3 88 -3 115 0 318 -24 416 -50 133 -35 200 -74 302 -175 52 -52 119
-133 159 -192 37 -56 72 -100 76 -98 4 3 22 42 39 88 158 407 220 671 219 922
0 182 -4 194 -69 233 -118 70 -280 93 -381 53z"/>
<path d="M5125 8584 c-16 -8 -36 -21 -44 -29 -12 -11 -17 -11 -37 1 -36 24
-121 27 -179 7 l-50 -18 -6 -140 c-5 -90 -16 -186 -34 -268 -14 -71 -25 -130
-23 -132 2 -2 32 3 68 12 41 9 94 13 142 11 117 -7 188 -45 309 -169 l97 -98
6 52 c3 29 8 123 12 211 l7 159 52 -6 c107 -11 268 -108 379 -228 70 -75 127
-158 189 -274 51 -96 54 -76 6 40 -92 222 -249 395 -449 495 -36 18 -92 43
-125 55 l-60 23 -11 130 c-6 71 -15 135 -18 141 -10 16 -104 41 -155 41 -25 0
-59 -7 -76 -16z"/>
<path d="M5410 7913 c2 -222 0 -242 -20 -292 -20 -51 -92 -382 -85 -390 2 -2
29 10 61 25 124 63 206 180 260 374 33 116 54 160 94 194 27 22 41 26 96 26
35 0 64 4 64 8 0 11 -106 112 -169 162 -86 66 -227 129 -289 130 -11 0 -13
-47 -12 -237z"/>
<path d="M4705 7878 c-20 -62 -66 -186 -102 -276 -36 -90 -64 -165 -62 -166 2
-2 33 2 69 10 182 38 345 0 485 -114 53 -43 166 -172 151 -172 -3 0 -34 23
-68 50 -93 75 -159 104 -235 105 -56 0 -65 3 -95 31 -54 52 -95 67 -190 72
-138 7 -124 20 -217 -202 -44 -106 -81 -198 -81 -203 0 -6 18 -7 48 -2 146 24
292 2 430 -66 74 -37 111 -64 187 -137 52 -50 95 -94 95 -99 0 -5 -26 11 -58
35 -69 52 -163 101 -213 110 -19 3 -50 1 -67 -5 -31 -11 -35 -9 -81 34 -83 77
-179 112 -296 105 l-60 -3 -32 -90 c-45 -125 -88 -273 -112 -385 -22 -104 -44
-290 -36 -298 3 -3 37 2 75 12 242 58 469 4 628 -150 l67 -65 -65 41 c-79 50
-154 73 -228 69 -47 -3 -65 1 -102 23 -66 39 -131 52 -260 53 l-115 0 -3 -70
c-12 -251 71 -812 192 -1302 46 -183 165 -622 172 -634 2 -4 21 9 41 28 92 86
218 110 332 64 29 -12 55 -20 56 -19 2 2 -1 26 -6 53 -5 28 -17 106 -28 174
l-18 123 31 -5 c100 -17 278 -122 449 -265 53 -45 97 -79 97 -76 0 3 -21 33
-47 66 -87 110 -257 240 -448 343 -49 27 -92 50 -94 51 -12 10 -30 271 -31
451 0 239 8 213 -75 226 -47 8 -142 -13 -180 -38 -25 -18 -48 -24 -89 -24 -64
0 -120 -22 -189 -75 -27 -21 -51 -35 -53 -33 -3 2 29 36 69 74 101 96 185 137
290 142 78 3 145 -9 199 -36 26 -13 28 -12 34 12 6 24 4 46 -12 108 -4 20 -1
33 11 47 26 29 48 174 33 223 -10 34 -9 40 13 63 27 28 74 212 58 228 -18 19
-9 64 15 83 15 11 32 42 45 83 l20 65 -42 37 c-54 49 -165 105 -222 114 -25 3
-64 2 -87 -4 -40 -10 -43 -9 -81 25 -22 19 -58 43 -81 53 -53 24 -164 43 -220
39 -84 -7 -36 9 66 21 265 33 492 -46 620 -217 23 -29 44 -50 48 -46 18 20 32
101 21 121 -18 35 -12 63 20 93 40 37 72 136 63 196 -5 35 -1 51 25 96 19 34
42 100 60 178 62 259 121 590 121 673 0 41 -4 48 -52 91 -80 69 -147 99 -211
93 -49 -5 -53 -4 -72 25 -35 53 -95 77 -196 77 l-87 0 -37 -112z m-93 -2019
c29 -6 76 -22 103 -36 51 -25 159 -102 153 -108 -2 -2 -30 9 -63 25 -80 38
-169 55 -222 41 -34 -9 -47 -8 -84 9 -58 26 -166 27 -248 1 -34 -10 -61 -17
-61 -14 0 9 117 56 185 73 81 22 162 25 237 9z m194 -876 l49 -18 -92 -6 c-60
-4 -100 -11 -117 -22 -16 -11 -46 -17 -83 -17 -39 0 -78 -9 -118 -26 -87 -37
-93 -38 -65 -16 132 108 300 149 426 105z"/>
<path d="M3368 7897 c-25 -24 -71 -55 -101 -68 l-55 -24 -4 -67 c-4 -45 -15
-87 -35 -131 l-31 -64 107 5 c199 9 406 -30 555 -104 162 -81 328 -243 441
-429 25 -40 10 -25 -113 116 -149 172 -187 198 -279 200 -46 0 -49 2 -78 47
-23 36 -45 54 -95 80 -87 44 -183 61 -381 69 l-165 6 -37 -50 c-41 -56 -98
-111 -144 -138 -30 -18 -30 -19 -36 -124 -3 -58 -12 -130 -20 -159 -13 -49
-13 -53 2 -48 181 60 312 82 446 73 172 -12 336 -71 489 -177 77 -53 210 -179
267 -252 27 -35 18 -29 -51 33 -195 175 -276 219 -403 219 l-72 0 -43 50 c-73
84 -103 95 -267 94 -117 0 -157 -4 -248 -27 -134 -33 -143 -38 -158 -84 -18
-59 -75 -166 -105 -202 l-27 -33 18 -76 c11 -43 21 -117 24 -165 l6 -88 40 29
c56 42 168 97 245 121 262 82 552 41 842 -121 112 -63 121 -77 15 -24 -142 71
-301 95 -413 61 -48 -14 -49 -14 -79 14 -75 71 -188 89 -335 52 -76 -19 -257
-98 -303 -133 -13 -10 -20 -37 -27 -118 -9 -105 -17 -143 -39 -190 -11 -23 -8
-33 24 -85 20 -33 47 -97 61 -143 l25 -82 72 56 c87 68 243 145 357 176 74 20
108 23 265 23 155 -1 192 -4 263 -23 100 -27 292 -111 292 -127 0 -1 -27 8
-61 22 -182 74 -354 83 -469 26 l-62 -31 -41 24 c-67 38 -158 49 -247 30 -91
-19 -212 -76 -299 -140 -51 -39 -62 -52 -58 -69 28 -119 37 -174 43 -247 l7
-85 51 -35 c100 -69 214 -251 237 -380 10 -57 16 -70 31 -70 76 0 276 -193
293 -283 6 -31 10 -33 65 -44 32 -6 81 -23 110 -37 61 -31 70 -32 70 -8 0 29
63 163 107 228 77 113 214 219 308 239 22 4 15 -2 -25 -24 -116 -62 -143 -126
-98 -236 14 -33 61 -123 105 -200 178 -310 269 -535 327 -814 36 -170 77 -579
56 -566 -4 2 -10 46 -13 97 -27 393 -189 913 -389 1247 -71 117 -171 231 -205
231 -45 0 -107 -72 -151 -177 l-22 -52 45 -42 c51 -47 105 -147 105 -196 0
-18 4 -33 8 -33 19 0 100 -80 155 -154 68 -92 180 -314 233 -461 46 -128 89
-297 115 -449 26 -152 37 -488 20 -633 -10 -84 -44 -253 -66 -329 -6 -18 -1
-20 37 -22 256 -15 448 -162 511 -392 30 -109 26 -113 -19 -21 -55 112 -128
192 -193 212 -26 8 -50 25 -67 47 -35 45 -105 88 -183 112 -88 28 -98 26 -116
-16 -23 -55 -80 -128 -124 -158 -31 -22 -40 -35 -45 -67 -7 -43 -45 -124 -79
-171 -11 -15 -19 -29 -16 -31 2 -2 35 -16 72 -31 144 -60 269 -170 335 -293
38 -72 72 -196 72 -265 0 -26 2 -48 5 -48 8 0 47 44 118 133 70 90 67 90 117
-18 49 -107 79 -279 80 -454 0 -41 2 -72 5 -69 3 3 10 51 15 106 16 173 -11
355 -80 537 l-23 60 51 86 c68 113 134 254 181 386 l38 107 58 -55 c114 -108
194 -289 250 -569 16 -82 18 -40 5 88 -27 243 -132 488 -263 610 -25 23 -25
24 -11 85 49 207 58 304 59 600 l0 289 35 -5 c230 -32 535 -325 732 -702 63
-121 72 -124 32 -13 -129 359 -409 669 -724 799 -41 17 -78 34 -81 38 -4 3
-16 79 -28 168 -12 89 -25 173 -31 188 -15 39 -88 68 -153 61 -54 -6 -75 -7
-142 -4 -23 0 -57 -7 -80 -19 l-40 -21 -2 -264 c-1 -144 -6 -288 -12 -318 -9
-48 -10 -42 -5 53 9 211 -25 536 -92 861 -47 228 -95 419 -215 851 -55 198
-114 414 -130 479 -16 65 -30 120 -31 122 -2 1 -40 -2 -84 -7 -159 -17 -272
-71 -316 -149 -23 -40 -23 -40 -86 -40 -47 0 -75 -6 -113 -25 -47 -24 -57 -36
-152 -165 -11 -15 -9 -8 5 18 33 64 120 166 186 218 78 62 221 130 314 148 42
9 115 16 161 16 l84 0 -23 123 c-51 271 -68 440 -67 667 1 362 55 582 277
1135 l84 209 -62 80 c-147 192 -228 256 -325 256 -45 0 -50 2 -61 30 -37 90
-199 144 -470 156 l-125 5 -47 -44z m562 -2258 c164 -18 162 -25 -6 -25 -143
1 -165 -2 -217 -23 -36 -14 -76 -41 -107 -72 l-48 -48 -54 11 c-112 23 -237
-51 -325 -193 -20 -33 -38 -57 -41 -55 -10 10 64 122 121 183 120 128 262 199
447 222 94 12 118 12 230 0z m1045 -2933 c62 -28 140 -88 157 -120 10 -20 10
-20 -8 -4 -44 38 -130 69 -191 67 -44 -2 -68 3 -102 21 -33 18 -61 24 -112 24
-78 1 -77 9 1 31 78 21 184 14 255 -19z"/>
<path d="M5610 7175 c-78 -19 -125 -41 -202 -92 -116 -77 -221 -208 -242 -305
-4 -16 -3 -28 2 -28 4 0 15 12 24 28 32 54 149 182 215 235 96 77 164 117 257
148 74 26 77 28 41 28 -22 -1 -65 -7 -95 -14z"/>
<path d="M5670 7147 c-175 -59 -375 -228 -459 -386 -31 -60 -58 -138 -49 -146
3 -3 43 11 89 30 384 165 766 227 1154 189 36 -3 46 -2 35 6 -30 20 -238 83
-403 121 -234 55 -272 77 -284 169 -3 22 -8 40 -12 40 -3 0 -35 -11 -71 -23z"/>
<path d="M5938 6805 c-317 -45 -691 -155 -820 -240 -33 -22 -38 -30 -38 -65 0
-46 2 -47 38 -21 70 49 278 138 434 185 249 76 568 124 828 127 86 1 99 3 70
11 -61 16 -404 19 -512 3z"/>
<path d="M6125 6759 c-129 -17 -339 -59 -486 -99 -246 -66 -416 -139 -494
-211 -37 -34 -46 -51 -64 -118 -12 -42 -21 -89 -21 -103 0 -25 4 -27 58 -33
624 -70 1006 -208 1413 -511 54 -41 99 -72 99 -70 0 2 -20 35 -45 73 -148 223
-245 498 -245 693 0 131 42 264 112 353 l30 37 -144 -1 c-78 -1 -174 -6 -213
-10z"/>
<path d="M4998 6173 c-21 -5 -30 -28 -22 -57 5 -23 10 -23 152 -29 437 -16
1019 -211 1421 -475 52 -34 96 -60 98 -58 3 2 -37 39 -89 82 -344 286 -834
479 -1358 534 -97 10 -172 11 -202 3z"/>
<path d="M5016 6054 c-9 -8 -22 -39 -30 -67 -29 -101 -33 -93 89 -170 381
-239 644 -499 760 -749 l32 -70 6 99 c7 120 34 203 92 281 110 150 299 220
521 194 54 -6 100 -10 102 -8 2 2 -37 31 -87 64 -268 180 -766 355 -1211 427
-128 20 -253 20 -274 -1z"/>
<path d="M4916 5854 c-19 -50 -10 -61 102 -117 155 -77 278 -163 435 -300 133
-117 243 -254 376 -467 18 -28 21 -30 16 -10 -13 50 -96 214 -147 288 -71 104
-259 290 -393 390 -111 82 -351 232 -372 232 -6 0 -14 -7 -17 -16z"/>
<path d="M4921 5680 c-6 -28 -11 -58 -11 -67 0 -9 38 -56 85 -104 96 -100 158
-190 220 -322 42 -87 86 -226 100 -311 l6 -38 37 62 c112 189 246 216 411 82
51 -41 51 -31 -2 56 -76 127 -278 343 -443 474 -142 113 -322 218 -373 218
-15 0 -22 -11 -30 -50z"/>
<path d="M4876 5583 c-3 -4 -6 -19 -6 -34 0 -22 17 -45 74 -101 40 -40 95
-106 121 -146 60 -94 145 -271 186 -390 17 -51 34 -91 36 -88 3 2 -3 44 -12
93 -41 219 -128 391 -292 580 -56 64 -96 96 -107 86z"/>
<path d="M4880 5165 c0 -44 7 -107 15 -140 10 -41 12 -91 9 -160 -3 -55 -2
-105 3 -111 4 -6 42 -27 83 -47 87 -43 207 -131 335 -245 49 -44 91 -79 93
-77 9 8 -88 227 -134 304 -27 46 -107 156 -178 245 -71 88 -151 195 -178 236
l-48 75 0 -80z"/>
<path d="M4930 4577 c0 -37 37 -197 59 -255 26 -67 30 -94 34 -212 2 -74 8
-142 11 -151 5 -11 25 -19 59 -23 74 -10 276 -79 382 -131 117 -57 198 -111
269 -180 32 -30 59 -55 61 -55 8 0 -14 70 -35 109 -32 64 -108 140 -241 241
-219 167 -246 226 -149 325 l41 42 -68 55 c-90 73 -211 151 -298 192 -66 31
-125 51 -125 43z"/>
<path d="M4791 4259 c-14 -5 -31 -14 -37 -20 -7 -6 -39 -12 -71 -13 -53 -2
-133 -32 -147 -54 -2 -4 9 -57 25 -118 38 -142 74 -322 90 -456 7 -60 16 -108
19 -108 4 0 17 12 31 26 94 101 219 103 347 7 18 -14 35 -23 38 -20 3 2 -7 72
-21 155 -14 82 -25 153 -25 157 0 14 162 -3 240 -25 98 -27 297 -125 385 -189
39 -28 109 -90 158 -138 48 -48 87 -83 87 -79 0 18 -115 159 -177 216 -156
146 -388 254 -645 301 l-66 12 -21 116 c-43 235 -38 219 -79 231 -45 12 -99
12 -131 -1z"/>
<path d="M2854 3998 c-44 -30 -90 -89 -169 -219 -18 -29 -28 -34 -85 -45 -36
-7 -84 -19 -108 -27 -23 -8 -44 -12 -46 -8 -10 15 20 203 41 257 4 10 0 12
-11 8 -33 -13 -96 -197 -96 -283 0 -13 -19 -31 -60 -56 -53 -32 -60 -40 -60
-68 0 -59 20 -108 51 -125 23 -13 29 -24 29 -50 0 -45 22 -91 58 -126 l31 -28
29 21 c17 11 39 21 50 21 12 0 30 14 42 30 37 52 122 84 159 61 10 -7 24 -2
44 15 16 13 35 24 44 24 11 0 13 6 8 23 -22 71 -35 124 -35 147 0 43 20 99 45
127 l24 28 -15 -44 c-10 -28 -12 -55 -7 -75 4 -17 7 -69 8 -115 l0 -85 33 -7
c18 -4 41 -14 51 -23 15 -14 26 -15 60 -7 23 5 50 7 61 4 18 -5 20 0 20 56 0
73 16 115 60 156 l32 30 -16 -32 c-9 -18 -16 -49 -16 -69 0 -21 -7 -45 -15
-54 -9 -10 -18 -34 -22 -53 -5 -31 -2 -40 24 -61 17 -14 36 -39 42 -55 10 -22
21 -30 50 -35 21 -3 46 -15 56 -27 18 -19 20 -19 26 -2 4 10 8 31 8 46 1 40
49 85 99 93 l41 6 -39 51 c-21 28 -36 55 -34 59 3 4 22 12 43 18 42 11 128 -1
193 -27 62 -25 54 -9 -14 28 -61 33 -67 34 -174 34 l-111 0 -56 43 c-31 23
-86 58 -124 79 -37 20 -70 38 -73 41 -18 15 155 125 246 157 36 13 68 26 72
30 4 4 -23 5 -60 2 -86 -6 -192 -55 -266 -122 l-52 -47 -88 16 c-48 9 -99 16
-114 16 -16 0 -28 5 -28 11 0 19 71 133 126 202 30 37 51 67 46 67 -6 0 -31
-15 -58 -32z m-300 -335 c-4 -37 0 -58 15 -88 13 -24 21 -58 21 -87 0 -27 7
-65 15 -85 20 -48 13 -52 -18 -11 -45 61 -60 101 -61 163 0 51 20 155 30 155
2 0 1 -21 -2 -47z"/>
<path d="M2729 3987 c-21 -12 -60 -41 -89 -64 -28 -24 -59 -43 -68 -43 -9 0
-30 14 -47 30 l-32 31 -11 -53 c-6 -29 -14 -80 -18 -112 l-7 -59 56 30 c46 25
64 29 104 26 l48 -5 27 53 c14 30 49 82 77 117 28 34 51 64 51 67 0 14 -59 2
-91 -18z"/>
<path d="M2880 3963 c-40 -47 -110 -161 -110 -180 0 -16 23 -16 74 -2 32 9 41
8 47 -4 5 -8 22 -20 38 -27 28 -11 33 -9 88 33 53 42 196 117 222 117 25 0 8
20 -25 29 -35 10 -88 4 -184 -18 -83 -20 -101 -11 -109 50 l-6 43 -35 -41z"/>
<path d="M2373 3924 c-6 -3 -31 -31 -54 -62 -98 -130 -125 -150 -170 -126
l-32 16 6 -83 c8 -100 15 -129 32 -129 16 0 71 62 80 89 4 15 15 21 36 21 38
0 86 25 93 47 2 10 8 38 11 62 4 25 16 69 26 100 11 30 19 58 19 63 0 8 -27
10 -47 2z"/>
<path d="M3257 3836 c-63 -26 -89 -42 -160 -95 l-47 -35 32 -18 c18 -9 52 -17
75 -18 36 0 44 -4 62 -33 38 -62 54 -70 129 -68 48 1 89 -5 136 -20 36 -12 69
-20 72 -17 11 11 -9 60 -36 86 -15 15 -61 40 -103 55 -76 28 -117 62 -117 96
1 9 7 33 14 54 8 20 11 37 7 37 -3 0 -32 -11 -64 -24z"/>
<path d="M5064 3779 c3 -13 10 -53 16 -88 12 -67 44 -161 67 -197 11 -17 11
-31 2 -75 -11 -50 -7 -210 7 -264 3 -14 28 -29 88 -53 125 -49 227 -121 357
-251 128 -128 228 -268 307 -431 l47 -95 7 50 c4 28 3 80 -2 117 -18 127 -58
218 -195 448 -144 240 -167 308 -130 381 20 39 83 83 140 99 25 7 45 14 45 16
0 12 -102 96 -189 155 -182 123 -357 196 -498 206 l-74 6 5 -24z"/>
<path d="M2085 3747 c-23 -56 -28 -132 -15 -231 l12 -94 -41 -54 c-22 -30 -41
-63 -41 -73 0 -47 61 -115 103 -115 7 0 21 -16 32 -36 20 -37 73 -84 119 -105
25 -12 29 -10 57 24 16 20 38 39 49 42 11 4 20 14 20 24 0 9 9 33 19 54 l19
37 -39 28 c-86 64 -129 151 -129 264 0 32 -3 58 -6 58 -3 0 -28 -18 -55 -41
-34 -28 -50 -37 -53 -27 -19 55 -28 114 -28 190 -1 48 -3 88 -5 88 -2 0 -10
-15 -18 -33z"/>
<path d="M2017 3651 c-14 -17 -32 -60 -42 -103 -30 -124 -50 -148 -100 -122
-15 8 -29 13 -31 11 -12 -12 42 -247 57 -247 12 0 44 66 58 118 7 23 16 42 21
42 6 0 28 16 49 35 37 34 39 38 29 71 -5 20 -8 78 -6 130 2 52 0 94 -4 94 -3
0 -17 -13 -31 -29z"/>
<path d="M3381 3481 c-11 -7 -9 -15 10 -40 13 -18 38 -41 56 -52 18 -12 33
-27 33 -35 0 -7 22 -69 49 -136 54 -137 94 -262 112 -353 10 -54 13 -58 21
-35 19 48 1 178 -42 315 -42 131 -54 227 -38 286 8 26 6 27 -57 43 -71 18
-123 20 -144 7z"/>
<path d="M1804 3405 c-10 -70 2 -178 30 -273 l25 -83 -29 -87 c-15 -48 -36
-116 -46 -151 l-18 -64 -43 47 c-23 26 -61 84 -84 129 l-41 82 5 -57 c6 -66
48 -159 106 -237 l41 -55 -7 -65 c-5 -36 -8 -146 -8 -244 0 -122 -3 -177 -11
-177 -20 0 -108 51 -154 89 -69 57 -75 59 -49 10 28 -52 125 -152 189 -195 44
-30 45 -32 63 -120 10 -49 39 -149 63 -222 25 -74 43 -136 40 -139 -18 -19
-244 41 -339 89 -38 19 -38 19 -28 -1 15 -27 121 -96 186 -120 49 -18 118 -37
207 -56 20 -4 34 -18 49 -48 12 -23 37 -66 55 -95 l34 -52 37 15 c61 26 100
57 129 103 17 27 41 49 63 58 43 18 92 63 133 122 l30 43 -27 39 c-29 42 -54
103 -55 135 0 13 -10 25 -29 32 -26 9 -83 74 -94 106 -2 7 -28 -11 -60 -41
-31 -29 -85 -66 -119 -82 -55 -26 -74 -30 -143 -29 -81 1 -76 9 16 24 20 3 54
19 74 35 21 17 50 30 64 30 28 0 91 31 134 66 25 21 26 21 11 65 -10 28 -13
59 -9 87 5 34 1 53 -19 95 -45 92 -54 185 -26 282 5 17 10 74 13 127 l4 97
-57 -1 c-100 -1 -181 40 -248 127 -36 48 -42 65 -11 34 28 -28 81 -49 123 -49
25 0 38 -6 49 -24 16 -24 80 -59 128 -71 23 -6 27 -2 37 34 7 22 24 53 37 69
17 20 25 42 25 66 0 20 7 53 15 73 8 20 14 37 13 37 -2 1 -36 12 -76 25 -92
28 -160 89 -187 166 -9 28 -20 58 -24 68 -5 15 -15 4 -46 -52 -21 -39 -42 -68
-47 -63 -15 15 -47 121 -59 199 -15 96 -25 110 -35 48z m85 -1007 c36 8 49 7
69 -6 13 -9 57 -19 96 -22 l71 -6 -40 -13 c-22 -7 -71 -15 -110 -18 -79 -6
-155 17 -210 61 l-30 25 54 -16 c43 -12 64 -13 100 -5z"/>
<path d="M3382 3340 c-37 -23 -40 -8 33 -165 126 -272 179 -504 156 -680 -7
-46 -18 -101 -26 -122 -13 -32 -14 -33 -10 -8 3 17 9 89 12 162 6 152 -10 270
-59 418 -44 131 -143 315 -169 315 -5 0 -17 -16 -26 -35 -15 -31 -15 -36 -1
-52 28 -32 57 -99 61 -141 2 -28 12 -49 29 -65 41 -38 65 -96 89 -208 29 -144
23 -377 -15 -558 -15 -68 -25 -125 -23 -127 8 -8 110 159 136 221 53 133 66
205 65 375 0 134 -4 170 -27 263 -15 59 -43 147 -63 195 -35 87 -113 232 -123
232 -3 0 -21 -9 -39 -20z"/>
<path d="M1764 3319 c-21 -27 -27 -55 -34 -171 -9 -139 -24 -173 -71 -166 -16
3 -29 0 -29 -5 0 -18 64 -130 92 -160 39 -41 51 -26 53 63 1 55 6 75 22 92 43
47 44 58 18 169 -13 57 -28 124 -32 148 -6 35 -10 41 -19 30z"/>
<path d="M5173 2919 c4 -30 9 -101 12 -159 4 -58 11 -138 16 -178 9 -63 8 -80
-10 -135 -11 -34 -29 -115 -41 -179 -11 -65 -27 -138 -34 -163 l-14 -45 58
-58 c102 -102 196 -331 223 -541 10 -72 15 -90 24 -80 27 34 44 131 53 314 21
387 36 487 86 573 56 95 146 107 288 39 44 -21 80 -36 82 -34 8 8 -110 191
-182 281 -177 220 -374 371 -538 412 l-29 7 6 -54z"/>
<path d="M1586 2848 c-10 -40 -6 -141 9 -221 18 -92 19 -174 4 -214 -5 -15
-24 -43 -42 -60 l-31 -33 28 -29 c26 -27 133 -91 152 -91 12 0 7 154 -6 202
-8 29 -6 52 10 110 27 98 26 133 -6 166 -14 15 -43 64 -65 110 -22 45 -41 82
-43 82 -2 0 -6 -10 -10 -22z"/>
<path d="M1525 2178 c9 -52 32 -118 80 -225 53 -121 46 -195 -21 -225 -13 -6
-24 -15 -24 -19 0 -15 97 -58 162 -74 59 -14 138 -20 138 -11 0 16 -66 145
-83 164 -19 20 -21 33 -18 96 4 104 -10 145 -60 176 -22 14 -70 55 -106 92
-36 38 -67 68 -70 68 -3 0 -2 -19 2 -42z"/>
<path d="M5040 1853 c-29 -76 -60 -199 -60 -234 0 -18 -7 -32 -21 -39 -11 -6
-51 -59 -89 -118 l-68 -106 17 -35 c56 -112 84 -254 85 -434 l1 -138 22 28
c37 45 80 159 128 340 93 345 125 380 238 262 66 -69 64 -76 20 90 -30 114
-86 248 -133 316 -40 58 -99 125 -110 125 -5 0 -18 -26 -30 -57z"/>
<path d="M4020 1665 c-26 -28 -115 -75 -141 -75 -10 0 -21 -9 -24 -21 -10 -30
-71 -95 -122 -130 l-43 -30 74 -72 c125 -122 176 -263 176 -486 0 -67 -4 -121
-9 -121 -4 0 -10 45 -13 100 -4 90 -9 108 -41 173 -20 39 -39 94 -42 122 -9
69 -36 136 -79 194 -56 76 -71 83 -137 60 -59 -20 -155 -25 -207 -10 -29 9
-39 6 -89 -30 -37 -25 -77 -43 -115 -51 -46 -10 -57 -15 -53 -28 27 -68 48
-196 48 -290 -1 -126 -24 -209 -83 -298 -58 -87 -78 -97 -34 -18 32 59 38 79
41 145 2 42 11 100 20 130 13 43 15 80 10 175 -8 155 -15 179 -53 187 -42 8
-85 33 -117 66 -26 28 -30 29 -75 20 -44 -9 -101 1 -169 29 -9 4 -13 -4 -13
-23 0 -58 -39 -213 -69 -276 -40 -84 -106 -157 -176 -193 -30 -16 -55 -31 -55
-34 0 -4 37 -30 83 -60 45 -29 84 -55 86 -57 3 -2 -20 -28 -50 -59 -58 -60
-167 -132 -239 -160 -92 -35 -67 -45 51 -20 81 18 159 56 263 130 l78 57 108
-46 c197 -83 295 -105 489 -112 l153 -6 -6 -46 c-13 -95 -138 -311 -252 -433
-52 -56 -55 -66 -13 -41 142 84 248 223 339 448 l37 90 114 26 c157 36 261 66
347 100 84 34 205 93 244 120 14 11 28 19 31 19 7 0 24 -88 32 -165 4 -34 2
-113 -4 -175 -10 -101 -17 -147 -46 -275 -6 -29 -6 -29 10 -10 71 85 109 331
86 564 l-11 114 43 36 c23 20 66 58 95 86 l52 50 -15 60 c-32 123 -98 237
-160 275 -21 13 -38 36 -50 66 -22 58 -109 146 -196 197 -35 20 -68 37 -75 37
-6 0 -21 -11 -34 -25z"/>
<path d="M2402 1566 c-62 -137 -180 -236 -303 -252 -27 -4 -49 -9 -49 -13 0
-9 46 -76 93 -136 l39 -50 -43 -14 c-48 -15 -309 -21 -389 -9 l-45 7 50 -23
c93 -43 180 -59 320 -60 72 0 143 3 158 7 25 7 35 1 90 -51 96 -90 91 -87 131
-63 57 35 107 113 120 185 5 24 18 47 35 61 37 32 76 106 99 191 l20 71 -34
27 c-34 26 -74 92 -74 119 0 10 -17 16 -52 20 -29 4 -67 17 -89 32 -21 14 -40
25 -41 25 -2 0 -18 -33 -36 -74z"/>
<path d="M1550 1615 c0 -24 56 -102 135 -188 52 -56 102 -116 110 -134 21 -44
19 -105 -5 -136 -11 -14 -20 -29 -20 -35 0 -33 327 -26 363 8 13 11 -74 112
-115 135 -32 17 -37 25 -43 69 -3 28 -15 72 -27 98 -19 45 -22 47 -67 53 -112
14 -224 56 -298 112 -18 13 -33 21 -33 18z"/>
<path d="M4680 1187 c-62 -84 -100 -149 -100 -169 0 -12 -24 -29 -72 -52 -40
-19 -86 -48 -101 -64 l-28 -29 12 -89 c18 -137 7 -321 -25 -419 -14 -44 -26
-84 -26 -88 0 -15 61 27 84 58 32 41 75 129 126 259 69 172 122 236 184 220
14 -3 45 -24 70 -45 24 -21 46 -39 48 -39 10 0 -13 238 -31 315 -21 89 -67
196 -86 201 -5 2 -30 -25 -55 -59z"/>
<path d="M1790 1035 c0 -19 53 -75 99 -104 27 -18 114 -61 192 -96 79 -36 156
-77 171 -92 35 -34 49 -85 39 -141 -9 -43 -8 -44 18 -37 46 11 148 74 205 126
31 28 56 54 56 59 0 17 -121 80 -164 86 -43 6 -47 9 -56 43 -5 21 -25 55 -44
78 l-35 40 -138 -4 c-116 -5 -152 -2 -223 15 -47 11 -93 24 -102 27 -10 4 -18
4 -18 0z"/>
<path d="M4245 774 c-22 -14 -84 -47 -138 -75 -53 -27 -115 -66 -138 -86 -39
-35 -42 -36 -112 -34 -40 1 -105 -5 -145 -14 -40 -8 -88 -15 -107 -15 -32 0
-45 -13 -45 -47 0 -25 -74 -176 -120 -243 -23 -34 -69 -94 -103 -132 l-61 -71
51 6 c75 9 165 53 351 175 260 171 337 202 436 177 55 -14 88 -42 126 -109
l28 -48 11 50 c22 105 33 241 28 349 -7 143 -10 149 -62 117z"/>
<path d="M2653 650 c-65 -51 -173 -109 -262 -141 l-74 -26 34 -20 c63 -39 110
-45 338 -41 245 3 286 -3 351 -59 56 -48 88 -107 108 -203 l18 -83 43 49 c79
89 164 233 201 340 l18 52 -188 7 c-103 4 -201 4 -217 1 -25 -6 -36 -1 -67 27
-20 19 -86 57 -146 85 l-109 50 -48 -38z"/>
</g>
</svg>
