<?xml version="1.0" standalone="no"?>
<!DOCTYPE svg PUBLIC "-//W3C//DTD SVG 20010904//EN"
 "http://www.w3.org/TR/2001/REC-SVG-20010904/DTD/svg10.dtd">
<svg version="1.0" xmlns="http://www.w3.org/2000/svg"
 width="1280.000000pt" height="853.000000pt" viewBox="0 0 1280.000000 853.000000"
 preserveAspectRatio="xMidYMid meet">
<metadata>
Created by potrace 1.15, written by Peter Selinger 2001-2017
</metadata>
<g transform="translate(0.000000,853.000000) scale(0.100000,-0.100000)"
fill="#000000" stroke="none">
<path d="M7268 7584 c-32 -7 -68 -20 -81 -29 -13 -8 -26 -13 -29 -10 -3 3 -15
-8 -28 -25 -13 -16 -30 -30 -39 -30 -17 0 -131 -118 -131 -136 0 -6 -7 -17
-15 -24 -8 -7 -15 -19 -15 -28 0 -15 -13 -31 -57 -74 -13 -12 -23 -26 -23 -31
0 -5 -11 -18 -25 -29 -14 -11 -25 -26 -25 -34 0 -8 -4 -14 -10 -14 -5 0 -10
-8 -10 -18 0 -10 -11 -29 -25 -42 -14 -13 -25 -31 -25 -40 0 -10 -14 -34 -30
-55 -17 -21 -44 -67 -60 -101 -17 -34 -37 -65 -46 -68 -8 -3 -12 -10 -9 -16 4
-6 -12 -33 -34 -61 -23 -29 -41 -59 -41 -69 0 -10 -7 -23 -15 -30 -8 -7 -15
-18 -15 -26 0 -15 -36 -80 -60 -109 -9 -11 -25 -38 -35 -60 -34 -76 -97 -166
-126 -181 -16 -8 -29 -21 -29 -28 0 -8 -7 -16 -15 -20 -8 -3 -15 -13 -16 -23
0 -10 -21 -37 -47 -61 -101 -92 -190 -181 -252 -251 -36 -41 -105 -108 -155
-150 -49 -41 -92 -78 -95 -81 -11 -14 -127 -90 -135 -90 -6 0 -30 -16 -55 -36
-72 -57 -152 -102 -205 -115 -28 -6 -59 -16 -70 -21 -35 -15 -205 -6 -218 13
-8 12 -26 59 -35 94 -6 22 -21 69 -34 105 -14 36 -25 68 -25 73 0 4 -6 49 -13
100 -8 64 -9 110 -2 152 10 60 -1 141 -27 208 -6 16 -11 38 -11 51 0 12 -11
33 -25 46 -14 13 -25 33 -25 45 0 11 -16 37 -36 56 -20 18 -51 58 -70 87 -19
29 -44 56 -57 61 -12 5 -32 19 -44 30 -12 12 -27 21 -33 21 -5 0 -10 4 -10 9
0 5 -12 14 -27 20 -16 6 -46 23 -68 36 -22 14 -50 25 -62 25 -14 0 -35 17 -60
50 -21 27 -46 52 -55 55 -10 4 -18 11 -18 16 0 5 -11 9 -25 9 -14 0 -56 9 -94
19 -38 11 -72 17 -75 13 -3 -3 -6 -1 -6 4 0 5 -12 10 -27 10 -43 2 -74 11
-138 38 -21 10 -66 12 -156 8 -101 -4 -128 -2 -140 10 -17 17 -39 13 -39 -8 0
-8 -6 -14 -14 -14 -13 0 -28 -35 -32 -75 -1 -11 -18 -47 -38 -79 -38 -64 -113
-124 -189 -152 -23 -9 -64 -25 -92 -35 -27 -10 -84 -25 -125 -33 -41 -7 -148
-32 -237 -55 -200 -51 -322 -111 -354 -174 -11 -21 -35 -55 -54 -76 -47 -51
-59 -86 -42 -119 9 -19 20 -26 35 -25 20 3 21 1 11 -18 -9 -18 -7 -30 12 -69
13 -27 31 -51 39 -54 15 -5 27 -13 81 -48 28 -18 133 -37 207 -38 29 0 45 -5
48 -15 4 -8 12 -15 19 -15 7 0 29 -20 49 -45 28 -33 46 -46 74 -50 20 -3 46
-8 57 -10 21 -5 65 -72 65 -99 0 -9 7 -16 15 -16 8 0 29 -17 47 -37 18 -20 41
-45 51 -55 9 -10 17 -21 17 -25 0 -3 14 -18 32 -33 31 -26 32 -29 35 -116 5
-135 15 -224 26 -224 6 0 7 -25 3 -64 -4 -40 -2 -67 4 -71 6 -3 7 -17 4 -30
-3 -13 -3 -29 1 -35 4 -6 9 -33 10 -59 2 -26 15 -68 28 -92 16 -29 24 -61 25
-92 0 -35 6 -55 21 -71 12 -12 21 -29 21 -38 0 -8 9 -27 21 -42 11 -14 23 -43
25 -63 3 -21 13 -47 24 -58 10 -11 21 -32 25 -46 4 -14 20 -41 36 -58 16 -18
29 -38 29 -44 0 -7 12 -23 25 -36 14 -13 25 -29 25 -36 0 -15 29 -53 83 -105
20 -20 37 -39 37 -43 0 -11 61 -96 74 -104 7 -5 25 -27 40 -51 15 -23 37 -47
49 -51 13 -5 44 -25 70 -45 26 -20 50 -36 53 -36 16 0 80 -37 108 -62 44 -41
307 -171 418 -206 238 -78 393 -112 506 -112 78 0 190 26 218 51 11 11 28 19
36 19 18 0 51 41 62 76 3 11 14 29 24 40 48 53 92 114 115 160 15 29 34 59 43
68 9 10 19 38 22 64 3 28 12 54 24 65 10 10 16 22 13 27 -3 5 -1 11 5 15 5 3
10 16 10 29 0 42 30 57 106 54 67 -3 70 -4 85 -35 23 -46 65 -98 114 -144 38
-35 73 -88 128 -197 14 -27 16 -40 8 -56 -5 -12 -15 -40 -21 -63 -6 -24 -19
-47 -31 -53 -17 -10 -69 -104 -69 -126 0 -4 -30 -36 -66 -72 -49 -48 -78 -88
-115 -160 -27 -52 -49 -100 -49 -106 0 -6 -9 -22 -20 -36 -11 -14 -20 -33 -20
-42 0 -9 -6 -21 -13 -25 -7 -4 -24 -30 -36 -58 -56 -123 -96 -194 -139 -251
-26 -34 -55 -74 -64 -90 -9 -16 -38 -57 -63 -92 -25 -34 -43 -66 -41 -71 3 -4
-1 -17 -9 -27 -9 -12 -14 -44 -15 -91 0 -66 4 -80 43 -155 38 -74 50 -87 103
-120 32 -20 84 -46 114 -58 111 -43 135 -57 219 -128 164 -137 417 -396 449
-459 19 -37 52 -73 68 -73 7 0 17 -7 21 -15 5 -8 45 -27 88 -41 116 -38 155
-55 165 -75 22 -41 16 -170 -8 -189 -11 -8 -32 -48 -32 -60 0 -6 -11 -22 -24
-35 -13 -13 -27 -38 -31 -55 -9 -39 -40 -71 -105 -106 -82 -45 -66 -57 95 -72
240 -24 245 -23 269 59 8 27 19 55 23 62 4 6 9 21 10 32 9 90 37 124 96 118
39 -5 43 -2 61 28 37 63 25 233 -22 312 -31 54 -62 145 -62 185 0 21 16 92 35
159 19 67 35 133 35 146 0 14 7 30 15 37 8 7 15 26 15 42 0 16 5 38 10 49 6
10 13 40 15 66 3 26 13 63 24 83 10 19 21 55 25 80 4 24 12 50 18 57 7 9 6 14
-6 19 -10 4 -15 13 -12 20 3 8 0 27 -6 42 -6 15 -12 43 -13 62 -2 19 -8 87
-14 150 -13 138 -14 304 -1 308 6 2 10 10 10 18 0 8 7 14 15 14 8 0 15 5 15
12 0 6 20 30 44 54 39 37 45 49 51 97 7 58 5 79 -22 190 -14 54 -15 72 -5 87
7 11 12 44 12 73 0 54 0 54 39 67 25 8 71 11 132 8 89 -4 145 -20 254 -68 91
-42 141 -53 295 -67 259 -24 451 -21 584 9 28 7 55 11 59 10 4 -1 27 9 51 23
24 14 56 25 72 23 16 -1 45 6 64 14 19 9 46 19 60 21 14 3 52 15 84 26 33 12
72 21 87 21 16 0 55 13 86 29 91 46 148 71 161 71 7 0 12 3 12 8 0 4 17 18 38
32 20 14 42 29 49 35 21 17 36 29 83 63 25 18 76 55 113 82 37 28 72 50 76 50
13 0 41 -71 61 -155 66 -281 72 -299 115 -338 l31 -28 -8 -87 c-9 -96 -21
-397 -21 -509 1 -61 6 -114 19 -183 2 -8 -4 -35 -12 -59 -8 -24 -12 -51 -9
-59 3 -8 -4 -52 -15 -99 -11 -46 -20 -93 -20 -103 0 -10 -6 -20 -14 -23 -8 -3
-17 -25 -21 -49 -4 -24 -14 -53 -22 -66 -8 -13 -12 -30 -9 -38 3 -8 -3 -30
-14 -49 -11 -20 -20 -45 -20 -57 0 -27 -110 -245 -161 -318 -21 -30 -57 -91
-79 -135 -22 -43 -56 -100 -75 -125 -19 -25 -49 -65 -67 -89 -143 -191 -392
-411 -466 -411 -68 0 -182 -67 -182 -107 0 -15 46 -40 90 -48 19 -3 38 -9 43
-12 5 -3 32 -7 61 -9 130 -10 194 -15 234 -20 27 -4 42 -2 42 5 0 6 9 11 19
11 11 0 23 5 27 11 3 6 21 17 38 24 21 9 39 28 53 57 12 24 30 52 40 63 10 11
34 40 53 65 19 25 37 47 41 50 13 10 89 170 89 188 0 10 7 27 15 38 8 10 15
26 15 35 0 9 17 34 38 56 91 97 130 141 153 173 13 19 30 39 37 43 6 4 12 17
12 27 0 11 6 20 13 20 7 0 44 41 82 90 68 91 228 260 244 260 15 0 61 88 55
104 -6 15 -3 17 45 20 8 1 16 7 19 14 2 6 8 12 12 12 15 0 120 82 120 94 0 6
6 23 14 38 9 18 14 61 13 140 0 62 5 154 11 203 7 50 14 131 16 182 2 50 6 95
9 100 2 4 5 28 6 53 2 94 34 299 54 355 5 17 18 39 27 50 26 29 50 81 50 105
0 25 51 140 63 140 4 0 29 -21 56 -47 113 -109 144 -133 177 -133 26 0 45 -13
103 -70 45 -44 80 -70 94 -70 36 0 83 -35 96 -71 28 -76 44 -103 113 -196 40
-54 81 -118 90 -141 9 -24 26 -53 37 -65 47 -49 71 -78 71 -85 0 -4 15 -24 34
-44 19 -21 37 -47 41 -58 3 -11 12 -20 19 -20 16 0 36 -43 36 -78 0 -38 25
-103 44 -117 9 -7 16 -20 16 -29 0 -9 4 -16 9 -16 5 0 11 -17 14 -38 3 -20 11
-57 17 -82 7 -25 13 -58 14 -75 1 -16 10 -44 19 -62 9 -18 17 -40 17 -51 0
-10 6 -27 14 -37 10 -14 11 -25 5 -37 -6 -12 -6 -37 1 -71 5 -28 15 -177 20
-331 9 -237 9 -285 -4 -325 -8 -25 -17 -68 -20 -96 -9 -69 -35 -174 -53 -211
-15 -29 -73 -66 -150 -94 -40 -15 -63 -40 -59 -65 2 -17 16 -22 92 -32 153
-20 226 -19 279 7 45 22 81 71 68 92 -2 5 3 11 11 14 9 3 16 15 16 25 0 10 4
19 8 19 11 0 33 123 32 180 -1 25 1 59 4 75 5 26 24 330 24 375 0 8 7 62 16
120 9 58 21 141 27 185 6 44 15 89 19 100 17 42 19 83 5 95 -22 19 -18 55 8
69 33 17 49 77 31 112 -7 15 -10 29 -4 31 9 3 32 115 31 152 0 10 11 33 25 51
27 36 31 55 10 55 -23 0 -31 22 -12 35 30 22 1 99 -62 163 -77 78 -122 134
-142 175 -11 23 -30 58 -42 77 -13 19 -32 50 -43 68 -11 18 -41 65 -66 105
-57 90 -139 249 -139 271 0 3 -13 34 -29 68 -75 164 -111 269 -111 320 0 21
-10 50 -25 72 -21 30 -24 44 -19 84 3 26 5 52 5 57 -1 33 -33 205 -42 228 -8
20 -10 90 -5 240 l6 212 -34 135 c-20 74 -38 146 -42 158 -6 21 -4 23 17 20
30 -4 44 -42 69 -192 18 -103 65 -228 105 -276 7 -8 16 -26 20 -40 11 -40 93
-157 125 -180 20 -14 31 -33 36 -58 10 -54 19 -67 61 -87 21 -10 55 -31 76
-47 36 -29 66 -32 68 -6 2 33 7 77 15 123 5 28 9 82 8 122 -1 62 -5 79 -33
126 -34 56 -107 142 -120 142 -24 0 -80 54 -98 94 -35 77 -43 120 -53 284 -13
217 -48 333 -143 471 -11 15 -20 38 -21 49 -1 14 -15 29 -40 43 -22 13 -79 60
-127 106 -48 46 -113 108 -146 138 -32 30 -79 78 -103 106 -39 45 -122 114
-242 202 -17 12 -27 22 -22 22 5 0 -14 21 -41 47 -28 25 -49 52 -47 60 2 7 -1
13 -7 13 -13 0 -91 159 -91 186 0 12 -7 38 -15 58 -9 20 -12 42 -8 49 17 27
20 174 4 233 -6 22 -35 68 -64 104 -30 36 -57 76 -60 90 -8 34 -56 96 -85 109
-12 6 -28 23 -34 38 -7 16 -16 30 -19 33 -4 3 -16 23 -28 46 -12 22 -47 65
-79 94 -34 32 -57 61 -57 74 0 15 -12 27 -42 41 -43 20 -55 35 -28 35 21 0 20
3 -29 72 -53 75 -130 155 -157 163 -10 4 -19 15 -19 25 0 13 -9 22 -27 26 -25
7 -91 41 -103 54 -27 29 -72 47 -117 48 -28 1 -71 6 -95 11 -63 14 -348 14
-348 0 0 -4 -15 -9 -32 -12 -92 -13 -155 -31 -170 -48 -9 -11 -20 -19 -25 -19
-15 -1 -71 -58 -88 -89 -8 -17 -22 -31 -30 -31 -8 0 -15 -6 -15 -14 0 -7 -11
-21 -25 -30 -14 -9 -25 -25 -25 -36 0 -11 -12 -34 -27 -52 -35 -41 -53 -73
-53 -93 0 -8 -13 -29 -28 -47 -40 -48 -58 -79 -66 -116 -4 -17 -11 -32 -15
-32 -4 0 -24 -27 -46 -61 -22 -35 -61 -77 -91 -100 -28 -21 -61 -49 -72 -63
-24 -32 -57 -35 -49 -6 3 11 1 20 -4 20 -5 0 -9 6 -9 13 0 7 -13 26 -28 43
-61 63 -82 100 -80 137 2 19 6 33 11 30 14 -8 7 8 -13 29 -11 12 -20 25 -20
30 0 4 9 8 20 8 27 0 26 18 -2 22 -32 5 -34 26 -2 30 32 4 46 28 16 28 -11 0
-22 -6 -25 -12 -3 -10 -7 -10 -20 1 -21 17 -22 31 -2 31 35 0 -3 57 -49 74
-19 6 -19 7 2 22 22 15 20 44 -3 44 -7 0 -16 14 -20 30 -4 20 -14 32 -30 36
-14 3 -27 16 -31 27 -9 30 -68 90 -138 140 -32 23 -66 50 -74 60 -9 9 -23 17
-32 17 -9 0 -24 6 -35 13 -71 48 -261 69 -377 41z m-827 -5127 c48 -37 68
-120 72 -304 3 -89 7 -165 10 -170 3 -5 11 -47 16 -93 6 -45 15 -88 20 -94 11
-15 22 -59 31 -136 5 -36 14 -94 20 -130 13 -74 5 -153 -17 -175 -8 -8 -25
-15 -37 -15 -30 0 -112 44 -156 85 -19 18 -61 49 -93 70 -32 20 -77 62 -100
91 -23 30 -47 54 -54 54 -6 0 -18 9 -26 21 -8 11 -27 23 -43 28 -15 4 -30 13
-32 20 -3 9 2 11 18 6 15 -5 20 -4 16 4 -4 6 -14 11 -22 11 -8 0 -14 3 -14 8
0 4 -31 40 -70 81 -38 40 -70 77 -70 82 0 5 -7 12 -15 15 -8 4 -15 11 -15 18
0 6 -7 25 -16 41 -27 51 -42 169 -24 191 7 7 9 22 5 33 -4 13 3 28 20 47 14
15 25 32 24 38 -3 26 4 38 61 97 l59 62 153 -7 c141 -6 156 -5 188 13 40 23
68 25 91 8z"/>
</g>
</svg>
