<?xml version="1.0" standalone="no"?>
<!DOCTYPE svg PUBLIC "-//W3C//DTD SVG 20010904//EN"
 "http://www.w3.org/TR/2001/REC-SVG-20010904/DTD/svg10.dtd">
<svg version="1.0" xmlns="http://www.w3.org/2000/svg"
 width="1280.000000pt" height="640.000000pt" viewBox="0 0 1280.000000 640.000000"
 preserveAspectRatio="xMidYMid meet">
<metadata>
Created by potrace 1.15, written by Peter Selinger 2001-2017
</metadata>
<g transform="translate(0.000000,640.000000) scale(0.100000,-0.100000)"
fill="#000000" stroke="none">
<path d="M11903 5023 c-27 -4 -33 -9 -33 -29 0 -17 6 -24 19 -24 62 0 307
-217 431 -381 98 -130 97 -127 75 -268 l-18 -119 -45 -38 c-33 -27 -55 -60
-84 -121 -22 -46 -47 -87 -56 -89 -81 -26 -135 -70 -181 -146 -20 -34 -27 -38
-63 -38 -78 0 -210 -46 -288 -100 -16 -11 -52 -19 -101 -22 -83 -5 -160 -35
-255 -100 -41 -28 -55 -33 -75 -26 -42 16 -190 21 -281 10 -74 -10 -94 -9
-130 5 -56 21 -206 21 -271 0 -45 -14 -51 -14 -92 4 -62 27 -130 39 -285 49
-107 6 -151 14 -210 35 -66 24 -86 27 -160 23 -47 -3 -107 -13 -133 -22 -46
-17 -50 -16 -105 5 -40 15 -88 23 -162 27 -86 4 -111 9 -141 28 -54 33 -134
54 -213 54 -48 0 -97 8 -148 25 -89 28 -279 50 -379 43 l-68 -5 -38 39 c-58
60 -135 110 -299 190 l-149 73 -166 1 c-155 0 -168 2 -197 23 -98 69 -232 98
-383 81 -48 -6 -94 -13 -103 -16 -9 -4 -35 8 -63 29 -121 88 -229 119 -397
116 -61 -1 -158 2 -214 6 -118 9 -191 -3 -260 -41 l-44 -24 -56 24 c-93 39
-156 49 -245 42 -100 -8 -106 -8 -184 0 -71 7 -170 -12 -302 -58 l-84 -30 -41
19 c-58 26 -254 24 -348 -4 -55 -17 -76 -18 -112 -10 -34 8 -70 6 -153 -7
-125 -21 -116 -20 -167 -7 -65 16 -243 22 -396 13 -143 -9 -145 -9 -170 14
-41 38 -93 54 -173 54 -69 0 -74 2 -94 28 -45 61 -111 76 -405 92 -134 7 -217
6 -291 -2 -148 -16 -184 -8 -260 57 -136 115 -262 175 -366 175 -110 0 -244
-42 -298 -92 -14 -13 -59 -29 -120 -44 -54 -12 -159 -45 -233 -72 -148 -55
-280 -81 -640 -127 -152 -19 -510 -55 -552 -55 -4 0 -25 18 -47 40 -34 35 -45
40 -83 40 -25 0 -69 -7 -99 -16 -67 -20 -184 -90 -197 -119 -9 -20 -6 -23 40
-40 37 -13 53 -25 62 -46 11 -26 13 -27 23 -10 11 18 15 18 77 3 58 -14 66
-19 66 -39 0 -28 11 -30 27 -5 10 17 18 17 77 9 53 -8 66 -14 66 -28 0 -26 18
-33 25 -9 6 18 12 19 63 14 81 -8 82 -9 82 -54 0 -48 15 -45 24 5 8 38 19 42
99 29 29 -5 39 -12 44 -33 l7 -26 6 25 c7 30 24 34 105 25 61 -6 63 -7 69 -38
l7 -32 14 33 c14 31 16 32 73 32 57 0 60 -1 67 -27 l7 -28 20 28 c15 21 28 27
58 27 l37 0 8 -52 7 -53 18 45 c16 41 21 45 49 44 51 -3 61 -11 61 -49 0 -44
12 -45 33 -1 15 33 17 34 54 25 21 -5 41 -9 46 -9 4 0 7 -21 7 -47 l1 -48 20
39 c19 35 24 38 53 33 18 -3 49 -12 69 -21 33 -13 37 -19 37 -53 l0 -38 25 31
c24 30 26 31 70 21 43 -10 45 -12 46 -46 l0 -36 17 33 c15 31 19 33 52 28 19
-3 43 -6 53 -6 12 0 17 -8 17 -32 l1 -33 17 28 c15 25 21 28 52 23 19 -3 43
-6 54 -6 16 0 18 -5 12 -41 -7 -46 5 -45 24 2 l13 32 66 -7 c42 -3 70 -11 77
-21 15 -20 24 -19 24 1 0 12 6 15 23 10 12 -3 30 -6 40 -6 12 0 17 -8 17 -27
l1 -28 17 28 c12 20 23 26 37 23 11 -3 32 -6 48 -6 21 0 27 -5 27 -22 l0 -23
18 23 c16 21 22 22 90 16 51 -5 72 -11 72 -20 0 -18 5 -18 36 2 21 14 31 15
64 5 64 -19 46 -65 -40 -101 -28 -12 -33 -11 -56 10 l-24 24 6 -31 6 -30 -76
-15 -76 -15 -25 31 -25 31 10 -29 c6 -16 7 -33 3 -36 -4 -4 -39 -13 -77 -19
-61 -11 -70 -10 -87 5 -18 16 -19 16 -19 -3 0 -17 -8 -21 -47 -26 -43 -5 -50
-3 -70 21 l-22 27 2 -30 c2 -30 2 -30 -56 -33 -54 -3 -58 -2 -69 25 l-12 28
-4 -32 c-4 -35 0 -34 -104 -37 -17 -1 -25 9 -37 44 l-16 45 -5 -45 -5 -45 -65
0 -65 0 -17 50 -16 50 -1 -48 -1 -48 -47 6 c-133 17 -123 12 -124 58 l0 42
-16 -37 c-15 -37 -17 -38 -62 -37 -83 2 -103 11 -117 49 -12 33 -13 33 -13 8
-1 -37 -12 -41 -90 -33 -61 6 -70 10 -81 33 l-12 27 -9 -22 c-9 -24 -7 -23
-131 -27 -16 -1 -24 8 -33 39 l-11 40 -10 -40 -10 -40 -84 -3 -85 -3 -17 38
-16 38 -1 -37 c-1 -30 -5 -38 -20 -38 -10 0 -38 -3 -62 -6 -43 -6 -45 -5 -61
27 l-16 34 -12 -32 c-12 -33 -12 -33 -79 -33 -64 0 -69 2 -81 27 l-14 28 -4
-27 c-3 -25 -8 -28 -40 -28 -20 0 -47 -3 -59 -6 -18 -5 -25 0 -36 27 l-13 34
-12 -33 c-11 -31 -12 -32 -70 -32 -51 0 -60 3 -70 23 l-11 22 0 -22 c-1 -20
-5 -22 -49 -16 -51 6 -80 -12 -69 -41 7 -18 92 -83 170 -129 131 -79 454 -133
936 -157 318 -16 424 -27 546 -55 239 -56 438 -95 585 -114 301 -40 424 -92
705 -302 105 -77 244 -177 310 -221 113 -75 303 -177 353 -190 l23 -6 -30 -49
c-93 -151 -328 -368 -640 -591 -63 -45 -111 -82 -107 -82 4 0 68 9 142 21 75
11 152 19 172 17 l37 -3 -63 -34 c-34 -19 -61 -35 -60 -36 2 -2 113 13 248 33
l245 35 100 95 c105 100 208 181 288 227 63 36 109 106 139 210 12 44 23 82
24 83 5 8 292 -193 288 -200 -3 -4 -16 -8 -30 -8 -57 0 -128 -52 -269 -195
-77 -79 -153 -150 -170 -158 -46 -23 -154 -44 -345 -67 -223 -27 -220 -27
-220 -49 0 -15 10 -20 58 -25 217 -24 258 -34 218 -49 -16 -6 -126 -136 -126
-149 0 -25 256 15 400 62 109 36 270 110 354 164 53 34 63 37 105 31 66 -9
175 11 247 46 114 54 212 186 250 338 24 98 6 159 -81 266 -25 30 -44 55 -43
55 2 0 72 -14 157 -30 421 -82 906 -110 1216 -70 42 5 74 5 79 0 19 -19 -14
-118 -59 -179 -52 -71 -235 -231 -304 -265 -68 -35 -203 -90 -356 -147 l-130
-48 100 0 c55 -1 179 6 275 14 96 7 176 12 178 10 2 -2 -13 -11 -34 -20 -89
-37 -154 -68 -150 -72 6 -7 346 54 521 93 249 56 356 93 433 152 103 79 226
311 239 453 l6 56 46 -9 c101 -18 259 -75 320 -115 l24 -16 -59 -27 c-81 -37
-144 -92 -244 -211 -97 -115 -114 -126 -398 -268 -172 -86 -182 -93 -171 -112
8 -15 17 -19 32 -15 72 21 298 76 311 76 11 0 3 -19 -28 -68 -45 -70 -110
-192 -104 -197 2 -2 29 12 62 31 32 19 141 78 243 131 l184 95 -6 -33 c-17
-98 -33 -194 -32 -195 1 -1 12 -4 23 -8 18 -5 23 -2 29 21 24 100 164 223 289
254 56 14 107 60 211 189 33 41 83 91 110 110 110 77 245 236 301 353 14 30
32 41 145 91 161 71 196 83 394 142 150 44 168 47 290 49 72 1 167 10 213 19
79 16 88 16 165 -1 109 -23 332 -23 438 1 62 13 82 14 105 4 39 -16 275 -16
339 0 43 11 57 11 95 -3 78 -27 178 -37 276 -25 49 6 143 15 209 20 66 5 165
21 220 35 59 15 128 25 168 25 77 0 200 28 284 66 35 15 80 26 119 28 121 6
284 108 489 306 61 58 123 112 139 120 16 8 53 42 83 75 56 61 212 290 273
400 18 33 50 79 71 102 62 68 128 221 174 403 50 199 44 280 -38 450 -53 109
-166 227 -272 282 -151 79 -386 121 -552 101z"/>
</g>
</svg>
