<?xml version="1.0" standalone="no"?>
<!DOCTYPE svg PUBLIC "-//W3C//DTD SVG 20010904//EN"
 "http://www.w3.org/TR/2001/REC-SVG-20010904/DTD/svg10.dtd">
<svg version="1.0" xmlns="http://www.w3.org/2000/svg"
 width="733.000000pt" height="1280.000000pt" viewBox="0 0 733.000000 1280.000000"
 preserveAspectRatio="xMidYMid meet">
<metadata>
Created by potrace 1.15, written by Peter Selinger 2001-2017
</metadata>
<g transform="translate(0.000000,1280.000000) scale(0.100000,-0.100000)"
fill="#000000" stroke="none">
<path d="M3120 12792 c-20 -5 -58 -19 -85 -32 -44 -21 -67 -24 -259 -31 -346
-13 -678 -47 -822 -85 -120 -31 -127 -66 -59 -270 53 -157 95 -254 132 -302
15 -20 46 -80 70 -135 49 -113 58 -127 83 -127 21 0 43 36 85 133 l30 69 65
-7 c168 -17 302 -65 387 -139 122 -106 122 -276 0 -382 -77 -67 -307 -164
-359 -151 -14 4 -58 41 -99 82 -100 102 -107 101 -136 -34 -17 -76 -28 -108
-43 -118 -25 -17 -27 -86 -6 -138 27 -64 81 -84 306 -110 272 -31 344 -80 445
-298 20 -42 49 -117 64 -165 33 -102 49 -111 105 -61 44 38 52 33 89 -49 43
-94 50 -177 44 -479 -4 -204 -2 -273 6 -273 7 1 38 7 71 15 l59 14 -7 -70
c-10 -109 -43 -247 -97 -407 -27 -80 -47 -148 -44 -150 3 -3 52 2 110 10 82
11 105 12 105 2 0 -24 -59 -239 -94 -346 -47 -139 -47 -155 2 -175 84 -35 229
16 667 237 283 142 508 240 522 226 2 -2 -101 -69 -230 -149 -537 -333 -793
-467 -893 -467 -152 0 -448 242 -883 720 -560 616 -580 643 -656 885 -79 253
-177 472 -283 630 -73 109 -125 161 -228 228 -68 45 -84 61 -114 116 -19 35
-61 90 -92 123 -48 48 -64 58 -92 58 -58 0 -62 -16 -27 -133 36 -122 42 -221
14 -215 -10 2 -43 37 -74 78 -128 170 -306 271 -341 195 -14 -32 2 -67 109
-244 82 -133 83 -137 26 -172 l-31 -20 -50 44 c-106 94 -239 167 -305 167 -30
0 -40 -5 -49 -25 -10 -22 -6 -32 27 -82 20 -31 64 -90 97 -132 74 -93 85 -115
68 -136 -19 -22 -36 -19 -140 27 -112 49 -183 60 -198 32 -17 -32 12 -80 93
-157 l75 -72 -36 -95 c-28 -74 -35 -105 -31 -140 5 -47 135 -335 230 -510 57
-103 150 -205 251 -275 71 -49 71 -60 11 -237 -100 -293 -125 -448 -70 -448 7
0 51 18 96 40 64 31 95 40 135 40 35 0 54 -4 57 -14 3 -8 -15 -40 -40 -73 -95
-120 -181 -356 -174 -475 2 -27 28 -22 142 24 94 37 114 42 211 46 87 4 112 2
132 -11 31 -21 28 -33 -36 -145 -26 -48 -63 -130 -80 -182 -27 -82 -32 -110
-32 -202 -1 -89 2 -110 16 -124 24 -24 47 -12 149 79 101 90 173 137 210 137
32 0 39 -24 39 -144 0 -141 53 -404 100 -496 33 -65 73 -46 110 50 30 78 80
168 117 209 l39 44 12 -94 c7 -52 21 -125 33 -164 21 -71 127 -305 138 -305 3
1 26 29 51 63 51 70 126 130 187 151 40 14 42 13 66 -12 62 -67 125 -223 148
-365 14 -92 35 -125 66 -109 33 18 156 155 199 222 58 92 79 114 94 105 18
-11 86 -161 100 -224 7 -29 13 -119 15 -200 1 -80 5 -154 9 -163 36 -80 206
107 278 305 17 45 36 88 43 95 12 14 11 17 109 -238 64 -166 110 -225 160
-202 45 20 152 200 195 330 30 88 42 112 59 112 42 0 137 -153 167 -267 8 -32
15 -97 15 -145 0 -48 4 -88 9 -88 4 0 44 37 87 83 89 92 147 197 168 301 29
142 105 51 151 -181 49 -247 77 -236 205 85 90 225 133 318 188 401 39 58 110
111 150 111 23 0 22 -2 -15 -29 -78 -56 -95 -91 -209 -432 -123 -367 -202
-512 -312 -572 -29 -16 -57 -25 -63 -21 -7 4 -9 25 -4 62 14 116 4 299 -21
381 -3 8 -29 -22 -62 -70 -70 -100 -153 -171 -275 -234 -73 -37 -137 -57 -137
-42 0 2 9 30 21 63 57 165 36 414 -35 414 -25 0 -34 -16 -81 -144 -14 -38 -39
-92 -55 -121 -49 -85 -162 -177 -194 -158 -26 16 -106 114 -106 131 0 27 -29
62 -50 62 -11 0 -36 -21 -57 -47 -79 -98 -159 -175 -245 -235 -48 -35 -92 -64
-97 -66 -5 -2 -6 26 -4 61 10 122 -38 472 -72 523 -23 35 -66 32 -105 -8 -45
-45 -78 -99 -120 -201 -21 -49 -41 -89 -46 -90 -17 -2 -82 96 -149 224 -65
124 -103 179 -124 179 -24 0 -49 -67 -98 -260 l-9 -35 -46 65 c-25 36 -62 95
-83 132 -41 76 -63 88 -168 88 -93 0 -259 37 -553 123 -240 71 -354 90 -519
91 l-150 1 -69 -39 -69 -39 -116 6 c-64 3 -135 2 -159 -2 -53 -10 -92 -45 -92
-82 0 -32 16 -44 77 -54 48 -8 205 -84 211 -102 4 -14 -60 -34 -211 -63 -175
-34 -257 -72 -257 -120 0 -43 70 -61 291 -75 119 -8 134 -13 124 -44 -11 -37
-45 -59 -129 -87 -157 -52 -236 -105 -236 -159 0 -44 19 -48 180 -41 135 7
150 6 150 -9 0 -38 -35 -77 -120 -136 -110 -75 -132 -100 -128 -148 4 -46 26
-50 136 -22 44 12 92 21 105 21 14 0 49 -18 78 -40 91 -69 189 -110 370 -156
167 -42 292 -57 474 -57 161 0 176 1 285 32 157 44 144 46 153 -24 21 -154 65
-270 158 -419 l31 -50 43 143 c50 168 111 296 160 340 61 53 65 47 65 -92 0
-130 14 -207 52 -285 26 -55 124 -162 148 -162 22 0 36 35 80 200 32 118 95
265 122 288 14 11 17 5 27 -55 18 -106 85 -229 192 -356 51 -59 94 -106 96
-104 1 2 14 57 27 123 29 139 74 271 116 333 41 63 48 36 20 -81 -12 -50 -24
-121 -27 -158 -9 -101 -12 -100 225 -56 225 42 404 68 612 91 177 19 337 48
416 75 72 25 153 79 199 134 47 56 45 25 -3 -50 -58 -89 -159 -179 -224 -198
-59 -18 -361 -79 -598 -121 -577 -102 -795 -214 -1034 -530 -54 -72 -109 -191
-160 -346 -68 -209 -71 -234 -71 -664 0 -368 1 -383 24 -469 25 -97 70 -227
127 -365 44 -108 206 -441 214 -441 3 0 16 32 29 70 12 39 25 70 29 70 4 -1
39 -67 77 -147 89 -187 192 -363 277 -476 l67 -89 36 73 37 72 73 -73 c40 -40
86 -96 101 -124 97 -178 -51 -316 -436 -406 -190 -45 -328 -87 -380 -118 -59
-33 -184 -155 -205 -198 -9 -20 -13 -43 -10 -55 6 -19 13 -21 54 -16 46 6 46
6 21 -11 -47 -32 -153 -137 -196 -195 -50 -67 -65 -120 -41 -144 19 -20 57 -8
141 44 55 34 60 35 96 23 38 -12 41 -11 117 33 42 25 79 44 82 42 2 -3 -14
-24 -37 -49 -148 -161 -207 -293 -148 -331 22 -15 27 -15 54 -1 16 8 48 31 72
51 53 44 92 65 122 65 13 0 61 22 108 50 47 27 89 50 94 50 4 0 -7 -17 -26
-37 -75 -85 -178 -249 -178 -288 0 -5 21 -19 47 -30 26 -11 50 -21 54 -23 4
-2 30 17 58 42 28 25 63 49 77 52 15 4 67 -5 129 -21 96 -26 114 -27 222 -22
121 7 148 12 483 90 107 25 317 71 465 102 548 116 684 176 746 331 21 53 24
74 23 199 -1 159 -27 309 -89 504 -19 62 -38 132 -41 154 l-7 42 20 -25 c11
-14 41 -57 67 -97 25 -40 51 -75 56 -78 36 -23 100 94 175 322 l47 143 94 -88
c52 -48 104 -91 115 -97 29 -12 43 8 74 109 28 94 53 138 90 162 26 17 29 17
61 -1 37 -20 92 -87 179 -218 38 -57 61 -83 66 -75 3 7 10 57 13 110 7 98 33
226 59 286 l14 33 47 -84 c55 -98 139 -197 166 -197 25 0 33 14 41 76 17 122
102 270 282 486 222 267 332 432 448 673 121 251 202 544 228 830 19 195 25
754 12 1035 -13 290 -30 472 -67 710 -114 743 -323 1426 -697 2280 -123 280
-117 259 -68 253 35 -5 42 -3 51 19 9 19 5 42 -21 123 -114 359 -339 802 -651
1283 -138 212 -192 308 -180 316 5 3 46 8 90 12 45 4 82 11 82 15 0 5 -51 69
-113 142 -291 342 -502 707 -701 1210 -62 156 -132 363 -231 682 -97 310 -158
430 -285 555 -251 248 -700 400 -1225 415 -82 2 -166 1 -185 -3z m52 -341 c83
-23 118 -45 118 -74 0 -43 -36 -67 -98 -67 -35 0 -42 5 -66 40 -15 23 -43 59
-63 80 l-35 40 39 0 c21 0 68 -8 105 -19z m1103 -250 c85 -38 120 -110 113
-232 -5 -92 -50 -194 -100 -230 -33 -24 -98 -31 -105 -12 -2 6 21 41 53 78 74
88 84 109 84 177 0 68 -12 103 -48 141 -46 48 -98 69 -190 75 -115 7 -83 22
48 22 80 0 114 -5 145 -19z"/>
<path d="M1190 11994 c-13 -33 -12 -63 4 -154 21 -115 51 -183 108 -245 57
-62 106 -95 194 -127 49 -17 81 -21 189 -21 154 0 243 17 499 100 238 76 272
83 433 90 165 7 190 18 138 59 -17 13 -55 34 -85 46 -84 34 -320 31 -575 -7
-238 -36 -456 -40 -549 -12 -68 21 -127 75 -219 199 -75 102 -117 124 -137 72z"/>
<path d="M5742 1707 c-30 -36 -62 -194 -62 -309 0 -52 -3 -68 -14 -68 -18 0
-153 100 -227 168 -31 29 -59 52 -63 52 -3 0 -15 -33 -27 -72 -23 -78 -65
-166 -123 -262 -41 -69 -45 -106 -21 -226 8 -41 18 -149 22 -239 l6 -164 151
7 c82 4 194 11 247 16 l97 8 183 120 184 119 3 44 c8 102 -40 293 -105 424
-14 28 -54 98 -89 157 -35 58 -78 136 -95 172 -31 65 -47 78 -67 53z"/>
</g>
</svg>
