<?xml version="1.0" standalone="no"?>
<!DOCTYPE svg PUBLIC "-//W3C//DTD SVG 20010904//EN"
 "http://www.w3.org/TR/2001/REC-SVG-20010904/DTD/svg10.dtd">
<svg version="1.0" xmlns="http://www.w3.org/2000/svg"
 width="1280.000000pt" height="1280.000000pt" viewBox="0 0 1280.000000 1280.000000"
 preserveAspectRatio="xMidYMid meet">
<metadata>
Created by potrace 1.15, written by Peter Selinger 2001-2017
</metadata>
<g transform="translate(0.000000,1280.000000) scale(0.100000,-0.100000)"
fill="#000000" stroke="none">
<path d="M5921 12774 c-70 -90 -155 -497 -247 -1194 -25 -182 -28 -238 -28
-495 -1 -229 3 -315 17 -410 44 -290 114 -525 252 -838 l87 -198 2 -217 c2
-192 6 -232 29 -345 57 -270 177 -561 322 -785 l67 -102 -76 -83 c-42 -45
-126 -139 -186 -210 l-109 -127 -102 172 c-240 407 -515 792 -657 920 -182
165 -826 559 -1244 763 -130 64 -136 68 -288 211 -399 376 -573 528 -681 597
-149 95 -158 14 -21 -183 133 -192 557 -654 652 -710 23 -14 54 -38 68 -55 14
-16 82 -86 152 -155 143 -142 316 -290 640 -544 368 -289 483 -382 517 -416
44 -44 187 -288 532 -914 l82 -148 -40 -67 c-103 -175 -182 -360 -242 -571
-18 -63 -34 -117 -35 -118 -1 -2 -30 19 -64 47 -318 264 -914 477 -1590 567
-106 15 -256 18 -989 21 -980 5 -1091 0 -1234 -47 -237 -80 -522 -284 -848
-610 -287 -287 -502 -560 -612 -777 -54 -106 -60 -193 -13 -193 25 0 119 70
152 113 11 13 127 150 258 303 282 329 581 633 741 752 125 94 277 173 379
198 66 16 79 16 240 0 167 -17 363 -44 916 -126 440 -66 618 -89 735 -95 61
-4 135 -11 165 -17 75 -14 261 -78 545 -188 233 -90 433 -159 526 -183 40 -11
29 -12 -105 -12 -173 -1 -271 -17 -409 -71 -174 -67 -297 -153 -468 -329 -290
-297 -483 -563 -643 -885 -247 -498 -302 -998 -155 -1417 147 -419 461 -674
931 -754 170 -29 423 -23 608 16 515 107 1081 448 1531 922 222 234 323 485
323 808 0 77 2 131 4 120 11 -56 96 -301 197 -565 167 -436 185 -497 196 -660
11 -160 24 -263 90 -715 150 -1022 160 -1127 118 -1256 -50 -153 -167 -331
-351 -531 -128 -139 -278 -277 -620 -570 -352 -302 -410 -365 -371 -403 112
-113 866 472 1270 985 155 196 283 421 318 558 9 35 20 134 25 220 12 210 12
1491 0 1715 -29 517 -160 1049 -361 1465 -79 164 -153 282 -228 364 -35 39
-48 59 -39 62 7 3 69 22 138 42 218 65 353 123 524 224 47 27 89 50 94 50 10
0 696 -384 905 -507 153 -90 146 -83 470 -497 347 -443 480 -600 662 -782 88
-89 169 -173 179 -189 80 -122 477 -492 701 -652 160 -115 245 -144 245 -85 0
71 -151 256 -569 702 l-212 225 -59 123 c-172 354 -509 920 -697 1169 -133
177 -456 421 -943 713 -113 68 -209 126 -213 130 -4 4 42 49 103 100 62 50
157 133 211 182 l100 90 57 -39 c230 -158 537 -288 829 -350 113 -23 153 -27
345 -29 l217 -2 198 -87 c313 -138 549 -209 838 -252 168 -25 623 -25 815 0
604 78 1042 157 1203 217 103 39 131 81 70 109 -110 50 -613 35 -1088 -34 -93
-14 -183 -29 -199 -33 -21 -6 -74 4 -195 34 -91 23 -380 90 -641 148 -614 138
-676 154 -828 222 -349 155 -777 310 -1115 404 -100 28 -187 53 -194 55 -7 2
3 32 28 82 129 255 156 595 69 848 -11 32 -20 62 -20 68 0 5 34 -23 76 -62
162 -151 316 -230 450 -231 170 0 294 83 538 360 238 270 445 588 561 860 20
47 40 88 44 93 4 4 63 -9 132 -28 145 -43 389 -102 614 -151 88 -19 189 -44
224 -55 54 -18 69 -20 102 -10 79 24 164 159 227 361 135 427 252 973 252
1166 0 80 -11 104 -37 88 -36 -22 -135 -184 -242 -394 -173 -341 -277 -629
-304 -841 l-12 -98 -70 45 c-181 118 -425 215 -663 265 l-114 24 6 45 c34 246
32 396 -8 554 -44 173 -140 331 -262 429 -77 63 -217 131 -324 157 -145 36
-362 37 -561 4 l-35 -6 -23 108 c-52 250 -137 470 -249 648 -34 54 -62 100
-62 102 0 2 27 4 60 4 118 0 337 61 582 161 258 106 660 328 692 382 16 26 -8
37 -86 37 -173 0 -594 -84 -1023 -205 -252 -71 -366 -121 -446 -193 -68 -61
-78 -99 -50 -183 11 -35 41 -154 65 -264 72 -323 84 -372 133 -543 25 -89 44
-164 42 -166 -2 -1 -44 -19 -94 -40 -122 -50 -324 -161 -476 -263 -249 -165
-560 -436 -656 -571 -158 -220 -114 -448 138 -716 57 -62 68 -78 49 -72 -167
48 -223 58 -350 63 -205 8 -380 -29 -557 -118 -48 -24 -76 -33 -78 -26 -2 7
-20 73 -40 147 -88 324 -215 680 -381 1066 -61 143 -113 282 -128 340 -14 54
-84 362 -155 684 -72 322 -139 612 -149 645 -13 42 -16 69 -10 90 14 50 57
360 74 540 22 213 25 649 6 712 -12 41 -35 73 -52 73 -5 0 -18 -12 -29 -26z"/>
</g>
</svg>
