<?xml version="1.0" standalone="no"?>
<!DOCTYPE svg PUBLIC "-//W3C//DTD SVG 20010904//EN"
 "http://www.w3.org/TR/2001/REC-SVG-20010904/DTD/svg10.dtd">
<svg version="1.0" xmlns="http://www.w3.org/2000/svg"
 width="923.000000pt" height="1280.000000pt" viewBox="0 0 923.000000 1280.000000"
 preserveAspectRatio="xMidYMid meet">
<metadata>
Created by potrace 1.15, written by Peter Selinger 2001-2017
</metadata>
<g transform="translate(0.000000,1280.000000) scale(0.100000,-0.100000)"
fill="#000000" stroke="none">
<path d="M1774 12786 c-40 -18 -79 -69 -93 -123 -18 -68 5 -110 109 -198 154
-131 206 -235 198 -399 -5 -114 -31 -169 -116 -248 -66 -61 -159 -106 -279
-134 -82 -20 -104 -16 -169 31 -71 52 -124 75 -170 75 -193 1 -246 -247 -72
-334 94 -47 230 -26 260 40 6 13 23 28 37 32 14 4 114 7 221 6 175 0 201 -2
255 -22 213 -78 381 -333 430 -654 11 -71 20 -265 30 -618 20 -738 19 -724 41
-761 30 -50 83 -87 154 -105 81 -21 268 -15 475 14 228 33 408 45 605 40 157
-4 196 -8 255 -28 134 -43 179 -127 124 -230 -23 -44 -204 -489 -256 -630
l-38 -105 1 -200 c2 -296 42 -616 124 -990 99 -451 182 -897 201 -1080 15
-153 3 -223 -46 -272 -27 -27 -41 -33 -77 -33 -86 0 -117 17 -293 159 -336
271 -561 428 -730 510 -523 254 -669 309 -846 318 -189 11 -221 -7 -200 -106
23 -107 760 -1559 1187 -2339 l35 -64 -28 20 c-61 43 -214 111 -590 263 -605
244 -764 322 -874 429 -66 63 -85 113 -70 179 27 122 144 224 286 250 70 13
103 34 127 82 28 53 24 105 -11 140 -25 25 -37 29 -83 29 -62 0 -118 -29 -234
-122 -132 -106 -201 -123 -258 -65 -18 17 -43 59 -56 92 -21 53 -24 77 -23
195 0 144 1 150 74 355 37 105 43 192 16 242 -30 57 -132 69 -195 24 -56 -40
-65 -81 -73 -346 -8 -280 -16 -321 -67 -319 -37 2 -120 56 -188 123 -58 57
-101 126 -203 328 -78 155 -126 214 -202 251 -123 60 -221 -2 -221 -141 1 -88
41 -134 190 -217 115 -65 207 -153 277 -264 83 -134 92 -206 32 -263 -52 -49
-75 -57 -162 -56 -61 1 -97 7 -150 28 -187 71 -209 78 -285 78 -144 1 -193
-67 -136 -188 50 -106 101 -122 276 -85 78 16 122 20 170 15 149 -15 354 -76
552 -165 212 -96 270 -136 826 -573 534 -420 738 -569 922 -672 47 -26 144
-83 216 -126 161 -95 253 -142 332 -168 74 -25 194 -43 228 -35 23 6 24 9 24
93 0 165 -44 378 -124 603 -58 165 -105 273 -226 523 -260 537 -381 827 -449
1075 -21 74 -28 190 -13 190 18 0 223 -147 537 -385 450 -340 524 -413 734
-719 149 -219 158 -230 203 -247 68 -26 185 -47 333 -59 72 -6 162 -17 200
-25 91 -19 239 -94 385 -195 63 -44 207 -141 320 -216 225 -151 254 -172 609
-448 247 -192 411 -338 665 -594 112 -113 137 -143 128 -155 -6 -7 -55 -31
-109 -52 -288 -114 -666 -346 -1103 -678 -219 -166 -250 -194 -250 -225 0 -37
63 -117 130 -167 63 -47 292 -195 690 -445 317 -200 376 -239 675 -448 178
-125 222 -160 231 -186 20 -56 55 -118 124 -221 104 -154 128 -214 145 -360
13 -108 51 -211 98 -260 46 -48 79 -61 132 -51 52 10 92 49 111 111 27 85 10
129 -93 236 -88 91 -120 148 -130 227 -17 147 125 231 341 203 152 -21 230
-56 373 -168 121 -94 169 -116 248 -116 153 0 245 114 186 231 -35 69 -80 88
-282 117 -392 56 -537 94 -606 158 -30 27 -29 48 3 87 56 66 87 74 309 80 190
5 202 6 245 30 109 61 121 180 21 225 -70 31 -151 18 -327 -54 -186 -75 -265
-96 -330 -86 -91 13 -154 111 -154 240 0 53 5 66 94 226 20 37 39 86 42 110 8
59 -11 126 -46 161 -66 66 -184 11 -222 -103 -6 -19 -14 -126 -17 -239 -7
-243 -11 -254 -106 -306 -130 -72 -273 -83 -375 -30 -166 87 -398 274 -656
531 -249 248 -321 348 -277 387 30 27 267 142 488 236 288 123 765 316 888
358 109 38 172 67 182 84 14 23 -56 98 -220 235 -192 161 -329 298 -701 700
-526 568 -774 814 -935 926 -202 142 -259 188 -375 303 -66 67 -152 162 -191
213 -69 89 -70 93 -77 165 -11 129 21 522 59 727 11 54 44 148 99 279 276 655
516 1445 516 1701 0 78 -30 250 -90 515 -22 98 -40 183 -40 187 0 14 99 -28
157 -66 82 -54 202 -174 338 -335 67 -80 166 -194 219 -255 91 -103 134 -162
229 -314 52 -84 102 -116 176 -115 124 3 242 73 593 355 341 273 448 341 610
384 165 44 319 -11 431 -154 90 -114 126 -213 136 -370 7 -112 8 -114 39 -142
73 -65 183 -15 213 96 13 47 -13 104 -80 178 -83 93 -103 128 -108 199 -12
155 95 277 222 254 19 -4 78 -29 132 -56 59 -31 110 -50 130 -50 73 0 151 53
184 125 52 112 -18 215 -136 199 -22 -3 -89 -22 -150 -42 -174 -57 -280 -48
-352 30 -69 74 -56 230 29 349 63 88 197 214 305 287 104 70 168 137 177 187
9 47 -21 114 -68 150 -64 48 -166 30 -259 -46 -52 -43 -89 -101 -127 -199 -46
-122 -63 -152 -111 -195 -53 -47 -203 -119 -294 -141 -91 -21 -171 -14 -228
20 -49 28 -74 58 -137 161 -51 85 -93 130 -142 156 -41 21 -98 25 -129 9 -32
-18 -52 -67 -44 -116 10 -72 59 -131 163 -200 51 -34 104 -72 117 -84 33 -31
92 -146 110 -216 30 -115 17 -167 -61 -247 -46 -47 -81 -70 -178 -117 -133
-65 -300 -125 -474 -171 -62 -16 -174 -52 -250 -81 -126 -47 -144 -51 -227
-52 -79 -1 -98 3 -149 27 -86 40 -176 108 -294 221 -131 127 -238 255 -432
521 -312 427 -430 611 -430 671 0 42 27 141 114 416 105 331 108 344 109 488
1 202 -24 258 -156 348 -65 44 -93 107 -107 233 -13 124 -12 198 1 278 12 69
12 69 122 165 57 52 25 129 -108 254 -104 99 -291 224 -452 304 -154 76 -181
80 -269 39 -128 -60 -335 -219 -461 -355 -66 -72 -153 -191 -153 -212 0 -19
34 -43 83 -60 26 -9 56 -27 66 -41 36 -44 55 -163 56 -333 0 -147 -1 -158 -26
-211 -33 -69 -61 -90 -170 -123 -86 -26 -86 -27 -93 -64 -13 -78 -5 -198 24
-364 34 -202 61 -300 136 -498 31 -80 56 -151 57 -159 3 -18 -144 -92 -247
-124 -159 -50 -234 -60 -518 -65 -284 -4 -365 3 -448 39 -94 42 -127 100 -189
335 -22 82 -59 201 -84 264 -51 133 -82 235 -133 445 -30 121 -37 170 -38 255
-1 97 1 108 26 151 34 58 76 94 148 128 51 24 63 26 170 22 270 -8 293 -7 335
14 45 23 85 76 85 114 0 45 -21 103 -45 127 -42 42 -87 33 -305 -60 -47 -19
-98 -36 -115 -36 -96 0 -190 72 -219 169 -20 68 -21 172 -1 237 38 126 161
322 293 466 97 105 122 147 122 203 0 50 -23 90 -72 125 -98 72 -236 14 -293
-124 -8 -19 -21 -93 -29 -165 -16 -148 -36 -201 -89 -248 -116 -102 -285 -34
-421 170 -80 120 -81 124 -81 278 0 131 -1 137 -26 170 -56 74 -194 118 -265
85z"/>
<path d="M5510 11567 c-34 -17 -46 -47 -59 -140 -27 -194 -1 -337 73 -406 20
-19 40 -26 86 -29 102 -7 179 39 229 140 27 53 31 72 31 139 0 134 -56 238
-152 287 -52 25 -166 31 -208 9z"/>
<path d="M3988 11560 c-117 -35 -196 -167 -186 -308 3 -37 14 -88 25 -113 47
-106 151 -177 244 -166 95 12 129 45 156 154 14 56 15 79 5 162 -17 140 -51
253 -82 268 -28 14 -120 16 -162 3z"/>
</g>
</svg>
