<?xml version="1.0" standalone="no"?>
<!DOCTYPE svg PUBLIC "-//W3C//DTD SVG 20010904//EN"
 "http://www.w3.org/TR/2001/REC-SVG-20010904/DTD/svg10.dtd">
<svg version="1.0" xmlns="http://www.w3.org/2000/svg"
 width="1167.000000pt" height="1280.000000pt" viewBox="0 0 1167.000000 1280.000000"
 preserveAspectRatio="xMidYMid meet">
<metadata>
Created by potrace 1.15, written by Peter Selinger 2001-2017
</metadata>
<g transform="translate(0.000000,1280.000000) scale(0.100000,-0.100000)"
fill="#000000" stroke="none">
<path d="M5420 12289 c-25 -3 -67 -9 -95 -13 -63 -7 -154 -24 -164 -30 -4 -3
-22 -8 -40 -11 -18 -3 -80 -21 -139 -41 -355 -118 -636 -267 -957 -507 -129
-97 -172 -151 -336 -422 -193 -320 -259 -409 -349 -469 -36 -25 -128 -79 -205
-121 -77 -43 -165 -95 -196 -116 -67 -45 -158 -138 -207 -210 -90 -134 -200
-426 -257 -684 -16 -74 -19 -392 -4 -525 6 -52 11 -106 11 -120 0 -14 4 -44 9
-68 5 -24 12 -61 14 -82 3 -21 9 -50 15 -64 5 -15 7 -26 4 -26 -2 0 3 -14 11
-31 16 -30 26 -30 55 1 3 3 21 17 40 30 19 13 37 27 40 31 5 7 336 169 345
169 2 0 28 11 57 24 191 86 407 138 771 186 136 18 360 13 470 -11 53 -11 114
-19 135 -17 l37 3 0 75 c0 87 -12 230 -24 298 -5 26 -9 54 -9 62 0 8 -6 62
-13 119 -10 83 -10 144 1 310 7 113 12 215 12 226 1 75 42 310 69 393 6 18 12
42 15 55 2 12 11 47 19 77 8 30 17 62 19 70 66 238 208 512 351 676 6 7 32 38
60 71 85 100 236 245 325 312 132 100 219 134 395 156 66 8 75 15 85 59 18 83
-32 146 -130 161 -61 10 -185 12 -240 4z"/>
<path d="M3858 9089 c-26 -4 -75 -10 -109 -13 -34 -4 -65 -8 -69 -11 -3 -2
-25 -6 -47 -9 -164 -20 -447 -124 -595 -219 -71 -47 -261 -199 -347 -281 -254
-237 -342 -359 -420 -581 -30 -85 -98 -328 -107 -384 -2 -14 -7 -37 -9 -51 -3
-14 -7 -47 -10 -75 -2 -27 -9 -92 -14 -143 -13 -118 -13 -585 -1 -717 5 -55
12 -131 15 -169 3 -38 8 -72 9 -75 2 -3 7 -33 11 -66 3 -32 8 -62 10 -65 2 -4
6 -17 9 -31 28 -148 162 -489 304 -774 119 -238 172 -322 322 -505 56 -70 238
-251 310 -310 30 -25 57 -47 60 -50 42 -43 255 -179 420 -267 97 -52 397 -172
470 -188 8 -2 42 -12 75 -23 100 -32 306 -84 385 -97 19 -3 49 -10 65 -15 27
-7 103 -21 146 -25 9 -1 28 -5 43 -9 15 -4 49 -9 74 -11 26 -3 70 -9 97 -14
28 -5 68 -10 90 -10 22 -1 76 -6 120 -11 101 -12 460 -12 585 0 52 6 124 12
160 15 36 3 82 9 102 14 20 5 39 7 41 4 3 -2 22 0 43 6 22 5 57 12 79 15 66 9
155 25 163 30 4 2 26 7 49 11 23 3 68 13 100 21 32 9 66 17 76 19 10 2 27 7
37 10 10 3 27 7 37 9 10 3 54 14 98 26 44 12 94 25 110 30 49 13 136 40 195
60 30 10 100 32 155 50 300 94 558 223 986 496 123 78 213 138 227 151 7 7 16
13 20 13 4 0 20 11 36 25 16 14 32 25 36 25 3 0 15 8 26 18 11 11 96 69 189
130 157 103 243 162 271 187 7 6 35 28 63 50 45 34 116 109 210 220 37 45 141
191 141 200 0 5 6 16 13 24 20 25 55 120 66 181 8 50 6 77 -13 158 -8 36 -74
151 -114 202 -52 65 -344 355 -502 499 -74 68 -139 129 -145 136 -5 6 -48 45
-95 85 -47 40 -87 76 -90 80 -3 4 -34 31 -70 60 -36 29 -72 60 -80 70 -8 9
-33 29 -55 45 -22 16 -42 32 -45 35 -3 3 -25 21 -50 40 -25 19 -54 43 -64 52
-11 10 -23 18 -27 18 -4 0 -14 6 -21 13 -41 39 -392 274 -518 347 -41 24 -93
55 -115 70 -165 111 -771 430 -1170 617 -429 200 -923 386 -1330 501 -99 28
-273 70 -320 78 -22 3 -43 8 -46 10 -4 2 -28 6 -55 9 -26 4 -51 8 -54 10 -4 2
-33 7 -66 10 -32 3 -81 10 -109 14 -61 11 -402 11 -467 0z"/>
<path d="M2225 8290 c-11 -4 -45 -10 -75 -13 -179 -17 -242 -47 -371 -176 -53
-53 -125 -134 -160 -181 -186 -250 -273 -324 -549 -466 -177 -90 -242 -161
-286 -309 -20 -69 -27 -231 -12 -290 6 -22 11 -47 13 -55 7 -35 25 -68 63
-116 38 -49 65 -68 329 -239 169 -110 341 -287 474 -490 237 -362 236 -360
339 -429 52 -35 107 -59 221 -97 162 -53 189 -58 189 -34 0 22 -27 73 -61 116
-126 161 -295 635 -324 914 -4 33 -8 62 -10 66 -2 3 -7 46 -10 94 -4 49 -8 92
-10 95 -2 3 -7 48 -10 100 -4 52 -9 98 -11 101 -5 8 -19 299 -19 394 0 119 12
248 31 323 17 69 230 540 271 602 17 24 22 42 18 60 -9 34 -16 39 -40 30z"/>
<path d="M8720 8209 c-30 -5 -71 -10 -90 -13 -146 -19 -384 -113 -488 -193
-20 -16 -50 -37 -65 -47 -36 -22 -68 -49 -130 -108 -50 -48 -50 -48 -31 -69
10 -11 98 -59 194 -106 557 -271 511 -246 622 -345 57 -50 110 -99 118 -108 8
-10 56 -53 105 -96 130 -114 184 -170 238 -246 61 -87 78 -98 148 -98 53 0 95
12 204 60 58 25 253 96 300 108 91 24 134 34 161 37 278 28 348 26 487 -10 96
-25 132 -46 239 -142 46 -42 65 -53 92 -53 42 0 76 37 76 85 0 72 -107 224
-215 305 -78 59 -231 136 -435 222 -155 64 -223 103 -286 165 -55 54 -63 63
-154 183 -72 95 -138 162 -220 224 -166 126 -334 209 -470 230 -14 3 -44 7
-68 11 -64 10 -269 12 -332 4z"/>
<path d="M1176 8116 c-187 -62 -295 -201 -291 -377 5 -166 103 -302 187 -258
20 10 124 93 138 110 3 3 47 34 97 68 138 92 212 195 213 294 0 64 -25 105
-90 144 -72 42 -161 49 -254 19z"/>
<path d="M1167 6335 c-30 -23 -55 -55 -75 -95 -27 -54 -30 -69 -30 -156 0 -67
5 -112 18 -150 48 -138 132 -247 223 -290 53 -24 155 -30 212 -12 66 22 205
101 205 117 -1 17 -85 159 -131 218 -143 189 -299 358 -365 396 -6 4 -32 -9
-57 -28z"/>
<path d="M10130 6310 c-35 -27 -83 -54 -107 -61 -54 -15 -148 -7 -258 21 -44
11 -91 22 -105 25 -14 3 -54 14 -90 25 -35 11 -68 16 -72 12 -9 -9 16 -44 86
-127 53 -62 74 -130 70 -230 -3 -96 -8 -110 -69 -200 -52 -76 -75 -123 -75
-155 0 -19 5 -21 63 -19 78 3 121 16 225 68 212 104 384 262 459 421 35 73 72
218 59 229 -64 50 -109 48 -186 -9z"/>
<path d="M9142 5084 c-30 -15 -66 -57 -188 -218 -180 -236 -357 -361 -646
-455 -20 -7 -47 -14 -58 -16 -12 -2 -29 -7 -38 -9 -33 -11 -225 -35 -234 -29
-4 2 -38 -4 -77 -12 -97 -22 -103 -47 -26 -102 112 -80 391 -187 621 -238 10
-2 51 -11 89 -20 110 -24 205 -37 424 -55 221 -18 494 15 686 83 77 27 246
118 275 147 3 3 23 18 45 35 22 16 42 32 45 35 3 3 21 17 40 30 19 12 40 28
45 34 14 16 175 130 204 146 14 7 56 21 95 30 95 24 143 42 245 92 172 85 300
261 233 321 -24 22 -77 9 -272 -63 -198 -74 -252 -85 -393 -77 -257 14 -325
35 -652 197 -320 158 -391 180 -463 144z"/>
<path d="M2743 4618 c-30 -33 -47 -71 -78 -173 -23 -75 -26 -101 -21 -160 3
-38 8 -79 11 -90 2 -11 7 -38 9 -60 8 -78 45 -291 61 -345 8 -30 17 -66 20
-80 10 -55 106 -362 145 -466 50 -132 173 -385 230 -473 42 -64 188 -216 382
-397 175 -163 222 -224 412 -536 84 -138 164 -254 217 -314 19 -21 58 -65 88
-98 64 -73 103 -111 196 -190 39 -33 72 -63 75 -66 3 -3 23 -19 45 -35 22 -17
42 -32 45 -36 8 -9 182 -122 225 -147 137 -76 419 -188 522 -206 18 -4 42 -10
55 -15 62 -23 302 -34 418 -18 36 4 79 10 95 11 187 20 246 37 297 85 66 63
57 143 -24 199 -40 27 -162 75 -220 86 -13 2 -49 11 -80 21 -31 9 -69 18 -84
21 -15 3 -35 9 -46 15 -10 5 -18 8 -18 5 0 -7 -197 63 -268 95 -156 71 -310
205 -517 453 -22 26 -50 60 -63 75 -45 51 -173 252 -223 348 -62 121 -122 269
-134 331 -2 11 -8 36 -13 55 -6 20 -8 37 -6 39 1 2 -3 39 -11 83 -7 44 -11 83
-9 87 3 4 0 38 -6 75 -13 79 -16 298 -6 363 20 123 95 250 202 340 74 63 124
122 124 147 0 20 -74 36 -225 49 -27 2 -60 6 -72 9 -12 3 -53 8 -89 11 -37 3
-78 10 -91 15 -13 5 -23 6 -23 3 0 -2 -8 0 -18 5 -11 6 -30 12 -43 14 -148 28
-653 237 -789 327 -14 9 -58 38 -99 65 -40 27 -78 54 -85 60 -6 6 -27 22 -46
35 -19 13 -37 27 -40 30 -5 6 -80 64 -115 90 -11 8 -79 74 -151 147 -72 73
-133 133 -136 133 -2 0 -14 -10 -25 -22z"/>
</g>
</svg>
