<?xml version="1.0" standalone="no"?>
<!DOCTYPE svg PUBLIC "-//W3C//DTD SVG 20010904//EN"
 "http://www.w3.org/TR/2001/REC-SVG-20010904/DTD/svg10.dtd">
<svg version="1.0" xmlns="http://www.w3.org/2000/svg"
 width="1280.000000pt" height="773.000000pt" viewBox="0 0 1280.000000 773.000000"
 preserveAspectRatio="xMidYMid meet">
<metadata>
Created by potrace 1.15, written by Peter Selinger 2001-2017
</metadata>
<g transform="translate(0.000000,773.000000) scale(0.100000,-0.100000)"
fill="#000000" stroke="none">
<path d="M4961 7701 c-25 -17 -71 -40 -103 -52 -75 -28 -100 -53 -127 -123
-29 -77 -29 -213 -1 -288 24 -66 70 -122 129 -159 48 -31 98 -37 160 -19 70
20 145 119 172 224 6 25 15 48 19 51 6 4 210 -373 210 -389 0 -2 112 -231 249
-508 137 -277 284 -582 327 -678 42 -96 84 -185 92 -198 13 -19 13 -31 3 -78
-7 -31 -10 -71 -7 -88 4 -21 -2 -58 -15 -102 -12 -38 -25 -110 -28 -160 -7
-111 -17 -124 -108 -155 -54 -18 -70 -28 -98 -68 -34 -46 -68 -149 -81 -244
-4 -26 -8 -47 -10 -47 -14 0 -141 53 -162 68 -15 10 -85 52 -157 92 -71 41
-139 81 -150 91 -11 9 -42 29 -70 43 -81 44 -137 78 -195 121 -198 144 -433
326 -608 469 -219 180 -658 523 -735 575 -108 73 -269 127 -452 151 -49 6
-216 15 -370 20 -333 10 -411 20 -570 67 -66 20 -149 44 -185 54 -36 10 -96
30 -135 44 -38 15 -126 44 -195 65 -69 20 -186 61 -260 89 -74 29 -196 72
-270 96 -74 24 -179 62 -234 84 -54 22 -126 46 -160 52 -97 18 -290 -4 -501
-57 -169 -42 -204 -55 -235 -81 l-30 -25 0 -355 0 -355 34 -57 c18 -31 52 -91
75 -134 24 -42 53 -90 66 -105 34 -41 149 -213 160 -242 17 -41 68 -120 106
-164 63 -72 159 -228 159 -258 0 -44 -68 -426 -103 -583 -19 -85 -32 -168 -32
-211 0 -68 3 -78 59 -187 32 -64 72 -131 88 -151 30 -37 200 -156 222 -156 23
0 104 -96 115 -136 6 -22 15 -115 20 -209 19 -308 36 -386 127 -567 24 -48 55
-118 69 -155 14 -37 33 -75 41 -84 8 -9 32 -50 53 -91 20 -40 49 -91 63 -114
25 -39 29 -41 90 -48 35 -4 176 -11 313 -15 291 -11 303 -8 421 77 39 29 80
52 91 52 11 0 28 9 39 21 17 19 84 59 99 59 10 0 -110 -135 -240 -270 -140
-145 -134 -133 -190 -415 -19 -99 -46 -214 -59 -255 -14 -41 -29 -109 -35
-150 -6 -41 -19 -106 -30 -145 -13 -45 -20 -102 -20 -160 -1 -83 3 -101 49
-230 27 -77 72 -204 99 -283 28 -79 51 -152 51 -162 0 -36 61 -90 146 -131 46
-22 86 -44 89 -49 9 -15 215 -91 310 -115 156 -40 524 -105 590 -105 154 0
280 48 730 277 320 163 428 247 780 604 281 285 435 453 479 521 19 30 76 99
126 154 152 165 281 377 366 604 25 69 62 159 81 200 19 41 43 104 52 140 10
36 31 89 48 118 l31 54 6 -49 c3 -26 8 -91 11 -143 7 -104 37 -411 60 -612 27
-234 83 -417 146 -474 13 -12 44 -34 69 -49 25 -15 77 -60 116 -101 46 -47 79
-74 93 -74 31 0 70 28 88 64 24 48 52 75 124 116 126 74 176 182 199 432 6 62
19 173 30 246 11 74 27 243 34 377 8 134 18 251 23 260 14 23 27 4 48 -70 10
-33 34 -94 55 -135 21 -41 41 -86 45 -100 4 -14 20 -53 36 -87 15 -34 31 -79
35 -100 9 -49 39 -115 80 -180 19 -29 58 -102 88 -162 42 -86 72 -130 138
-203 112 -125 168 -193 208 -253 34 -50 469 -508 588 -620 36 -33 99 -94 141
-135 97 -96 169 -150 306 -233 170 -104 474 -239 735 -327 171 -58 239 -59
515 -1 414 85 734 214 792 318 12 21 35 82 51 135 17 53 47 134 68 180 101
223 131 403 99 585 -20 118 -57 266 -85 348 -22 63 -83 302 -95 370 -14 83
-40 118 -224 304 -100 101 -180 186 -178 188 8 7 110 -53 151 -88 67 -59 136
-98 219 -124 68 -22 96 -25 225 -25 149 0 379 28 425 51 29 15 53 45 76 96 11
23 48 86 84 140 35 54 81 135 101 180 59 132 110 355 144 630 30 239 31 242
63 283 18 22 73 67 123 100 50 32 100 67 111 77 48 43 97 116 150 223 l57 115
-5 130 c-3 101 -11 159 -36 259 -17 71 -38 172 -46 225 -8 53 -21 127 -29 166
-9 38 -12 81 -9 95 4 14 36 63 73 110 37 47 88 122 115 167 26 45 53 84 61 87
8 3 14 13 14 21 0 9 18 40 40 68 80 103 110 147 110 165 0 23 45 119 74 157
136 182 183 373 157 634 -20 198 -56 249 -212 299 -113 37 -385 68 -589 66
-147 -1 -201 -16 -510 -141 -190 -77 -404 -154 -475 -172 -22 -5 -134 -41
-249 -80 -336 -113 -500 -141 -842 -141 -219 0 -371 -17 -554 -62 -141 -34
-267 -109 -440 -260 -47 -41 -143 -121 -215 -178 -71 -57 -213 -172 -315 -255
-296 -242 -577 -455 -598 -455 -5 0 -27 -13 -49 -29 -22 -16 -55 -37 -74 -46
-39 -20 -195 -115 -254 -155 -22 -15 -69 -42 -105 -60 -36 -18 -92 -52 -125
-75 -65 -46 -132 -66 -146 -43 -5 7 -9 51 -9 98 -1 103 -19 151 -80 203 -37
31 -131 77 -159 77 -4 0 -8 50 -9 110 -1 88 -6 123 -25 173 -19 52 -23 80 -22
172 l1 110 131 265 c73 146 173 344 223 440 50 96 130 261 179 365 49 105 101
213 115 240 14 28 71 145 127 260 112 233 104 228 135 95 17 -78 62 -138 125
-170 42 -22 122 -26 178 -10 44 12 106 72 136 130 68 136 42 341 -53 408 -15
11 -70 41 -123 66 -110 52 -165 59 -228 27 -47 -24 -134 -117 -193 -208 -52
-77 -139 -248 -158 -308 -7 -22 -25 -56 -40 -76 -16 -20 -43 -66 -60 -101 -16
-36 -44 -83 -60 -103 -17 -21 -30 -41 -30 -45 0 -5 -16 -28 -36 -52 -20 -23
-44 -59 -53 -78 -8 -19 -41 -73 -72 -120 -78 -117 -107 -179 -131 -273 -12
-49 -36 -106 -60 -146 -22 -36 -47 -83 -54 -105 -8 -22 -46 -101 -85 -175 -66
-128 -106 -244 -124 -362 l-5 -36 -66 -7 c-83 -8 -131 1 -149 28 -8 11 -19 55
-25 96 -25 172 -53 245 -114 293 -28 22 -39 41 -56 100 -12 39 -26 86 -31 104
-6 18 -32 65 -58 105 -26 40 -53 96 -60 123 -7 28 -34 91 -60 140 -27 50 -52
101 -56 115 -9 31 -68 125 -116 186 -63 78 -205 333 -244 435 -15 39 -37 82
-50 97 -12 15 -31 48 -43 74 -11 25 -34 59 -51 74 -17 15 -31 33 -31 40 0 7
-19 37 -43 66 -23 29 -50 66 -60 81 -23 35 -63 53 -142 61 -55 6 -64 4 -104
-23z m18 -203 c-72 -79 -87 -113 -73 -165 9 -32 24 -29 61 14 l33 38 25 -28
c43 -48 29 -91 -39 -117 -23 -8 -34 -7 -52 5 -34 22 -64 87 -64 139 0 51 34
100 85 122 43 19 47 17 24 -8z m2911 -9 c69 -56 85 -119 51 -195 -30 -66 -94
-79 -148 -31 -26 23 -28 35 -12 70 26 57 77 55 98 -5 l11 -32 21 21 c19 18 19
24 9 64 -15 54 -43 95 -84 120 -29 17 -29 19 -8 19 13 0 41 -14 62 -31z m4135
-1019 c21 -41 19 -47 -14 -55 -40 -8 -49 -22 -53 -75 l-3 -45 -30 55 c-24 44
-37 56 -65 63 l-35 9 24 17 c17 12 125 53 158 60 1 1 9 -12 18 -29z m-11110
-21 c33 -13 63 -28 67 -33 9 -14 -11 -26 -45 -26 -20 0 -32 -8 -45 -30 -21
-36 -42 -39 -42 -6 0 19 -9 29 -40 43 -43 20 -54 54 -22 73 21 13 51 8 127
-21z m10745 -104 c0 -8 -5 -15 -10 -15 -6 0 -22 -11 -35 -25 -22 -21 -25 -33
-25 -92 0 -37 4 -74 9 -81 23 -37 117 -132 131 -132 10 0 7 -6 -10 -20 -33
-26 -36 -25 -57 10 -30 52 -104 40 -230 -35 -30 -18 -33 -19 -66 -3 -19 9 -48
37 -65 64 -84 125 -3 242 198 288 36 9 83 25 105 36 47 24 55 25 55 5z
m-10434 -26 c27 -18 63 -36 79 -41 17 -5 71 -28 121 -50 85 -38 92 -43 103
-78 14 -46 14 -95 1 -120 -6 -11 -31 -31 -55 -46 -25 -14 -45 -30 -45 -34 0
-20 -41 -20 -69 -1 -16 12 -35 21 -43 21 -7 0 -26 9 -43 20 -46 31 -101 27
-135 -10 -32 -34 -45 -37 -54 -14 -4 10 7 31 29 57 19 22 35 44 35 49 0 4 6 8
13 8 43 0 68 90 48 168 -9 30 -20 46 -41 57 -30 15 -36 26 -23 38 12 13 29 7
79 -24z m9723 -213 c-2 -2 -20 -6 -39 -10 -27 -5 -30 -4 -14 3 12 5 25 15 29
21 5 8 10 9 18 1 6 -6 9 -12 6 -15z m-9021 -4 c18 -2 35 -9 39 -15 6 -11 -88
-4 -107 8 -16 10 0 27 19 19 9 -4 31 -9 49 -12z m10429 -70 c-3 -15 -15 -53
-27 -85 -21 -56 -40 -74 -40 -38 0 10 -7 24 -15 31 -14 12 -13 16 10 40 14 14
25 35 25 46 0 26 8 34 33 34 16 0 19 -5 14 -28z m-11850 -41 c22 -56 22 -60 6
-92 l-16 -33 -23 60 c-29 74 -31 124 -6 124 12 0 24 -18 39 -59z m9953 0 c0
-16 -42 -61 -70 -76 -48 -25 -150 -15 -150 15 0 9 60 34 135 55 60 16 85 18
85 6z m-8005 -21 c60 -16 125 -41 125 -48 0 -14 -63 -42 -93 -42 -24 0 -46 13
-87 50 l-55 49 35 1 c19 0 53 -5 75 -10z m7639 -62 c-39 -46 -64 -88 -64 -108
0 -34 25 -83 59 -114 17 -17 31 -36 31 -44 0 -19 -57 -100 -83 -116 -12 -8
-44 -17 -72 -21 -27 -4 -58 -9 -68 -12 -32 -9 -47 -56 -47 -151 0 -104 19
-142 70 -142 77 0 110 -45 113 -152 2 -58 1 -60 -39 -96 -22 -20 -56 -48 -74
-62 l-32 -25 17 -60 c9 -33 17 -71 18 -85 l2 -25 -100 0 c-55 0 -106 -4 -113
-8 -22 -15 -25 23 -8 117 38 213 15 310 -134 586 -14 26 -32 56 -40 67 -29 39
-146 112 -245 152 -134 54 -185 79 -185 92 0 21 58 64 111 83 30 10 72 27 94
37 90 42 202 59 440 69 127 5 257 16 290 24 81 19 81 19 59 -6z m-7241 -12
c52 -11 123 -15 220 -15 115 1 156 -2 217 -19 41 -11 97 -23 124 -27 90 -12
286 -108 286 -140 0 -18 -110 -80 -192 -107 -68 -23 -176 -87 -222 -134 -81
-81 -151 -226 -183 -378 -21 -101 -24 -137 -19 -216 3 -52 10 -110 16 -129 5
-19 7 -38 4 -42 -6 -10 -197 -12 -231 -3 -23 6 -23 6 9 50 25 35 30 50 25 78
-7 44 -43 93 -82 114 -57 29 -74 80 -54 168 15 65 46 95 93 92 37 -2 71 15 86
42 24 45 6 223 -26 255 -11 10 -37 15 -82 15 -73 1 -89 8 -128 61 -34 47 -32
92 6 119 54 38 55 102 3 180 -45 68 -35 70 130 36z m8097 -147 c0 -49 -17 -59
-45 -27 -28 33 -42 98 -23 109 23 15 68 -39 68 -82z m-9026 14 c-20 -32 -42
-61 -48 -65 -14 -9 -26 10 -26 44 0 32 50 78 86 78 l25 0 -37 -57z m9799 -37
c16 -27 27 -57 27 -80 0 -48 31 -80 70 -72 21 4 31 0 42 -16 11 -16 26 -21 68
-22 56 -2 100 -19 100 -37 0 -5 -33 -48 -72 -94 l-73 -85 -6 68 c-12 131 -52
178 -143 166 l-46 -7 -20 44 c-24 53 -26 126 -4 157 8 12 18 22 22 22 4 -1 19
-20 35 -44z m-919 -103 l116 -133 -39 0 c-22 0 -46 -3 -54 -6 -20 -7 -157 212
-157 251 0 15 4 25 9 23 5 -1 61 -63 125 -135z m-9654 47 c0 -26 -7 -67 -16
-92 l-15 -46 -74 5 -73 6 -21 -41 c-14 -28 -21 -60 -21 -101 0 -33 -5 -63 -11
-67 -15 -9 -82 59 -114 117 -20 37 -23 50 -13 53 7 3 42 11 78 20 155 36 180
53 199 134 5 24 20 55 32 68 22 23 24 24 36 8 7 -10 13 -39 13 -64z m980 48
c0 -13 -21 -50 -46 -83 -25 -33 -57 -84 -70 -112 -22 -49 -26 -53 -58 -53 -70
0 -71 7 -9 77 94 104 176 193 180 193 1 0 3 -10 3 -22z m9166 -153 c24 -44 14
-62 -52 -91 -89 -39 -109 -41 -130 -10 -14 23 -16 41 -10 111 3 47 14 100 23
120 l17 36 67 -67 c37 -37 75 -81 85 -99z m-9616 131 c5 -14 16 -61 24 -106
14 -72 14 -84 1 -104 -21 -31 -57 -46 -113 -46 -81 0 -108 36 -79 102 13 30
137 177 150 178 4 0 12 -11 17 -24z m8876 -158 c183 -190 193 -223 85 -277
-90 -46 -182 -79 -238 -86 l-53 -7 0 79 c0 94 20 177 56 235 27 43 83 108 94
108 3 0 28 -24 56 -52z m-8205 -1 c54 -86 69 -128 84 -233 19 -133 19 -122 -8
-135 -18 -8 -45 -3 -132 27 -144 48 -164 59 -181 99 -23 57 -9 91 74 175 68
68 118 110 132 110 3 0 17 -19 31 -43z m6719 -77 c28 -11 61 -20 73 -20 64 0
200 -101 233 -173 8 -17 26 -47 40 -66 13 -19 27 -46 30 -60 3 -14 15 -55 27
-91 28 -88 26 -179 -7 -305 -14 -54 -26 -107 -26 -118 0 -38 -33 -79 -123
-151 -50 -41 -113 -93 -138 -115 -26 -24 -72 -50 -105 -62 -53 -18 -73 -20
-204 -13 -114 5 -169 3 -258 -11 -102 -16 -115 -16 -129 -2 -14 13 -13 23 2
88 10 41 20 122 24 181 4 59 10 110 13 114 4 3 33 -14 65 -38 70 -54 114 -72
216 -89 95 -16 196 -4 306 37 150 56 244 199 228 351 -8 79 -44 134 -118 179
-34 20 -77 53 -96 72 l-36 36 -19 -24 c-25 -31 -15 -83 25 -134 61 -78 66
-161 14 -238 -42 -61 -93 -88 -196 -101 -110 -13 -129 -7 -177 65 -43 64 -104
254 -104 325 0 123 52 229 134 270 28 14 55 32 59 40 8 14 73 46 127 63 41 13
66 11 120 -10z m-5145 -30 c21 -11 53 -33 69 -49 17 -16 46 -36 64 -45 54 -28
82 -82 99 -193 17 -115 6 -227 -27 -293 -43 -84 -130 -148 -215 -157 -46 -6
-123 25 -191 74 -82 61 -93 203 -19 259 25 19 34 35 39 69 7 45 -5 85 -26 85
-6 0 -27 -15 -48 -32 -20 -18 -60 -45 -88 -60 -60 -32 -94 -80 -111 -156 -25
-119 -8 -185 66 -260 29 -29 53 -56 53 -61 0 -14 92 -57 198 -91 101 -33 104
-33 170 -20 90 17 133 35 226 93 114 71 106 74 106 -34 0 -51 7 -137 16 -191
9 -53 14 -104 11 -113 -8 -19 -47 -19 -134 1 -43 10 -130 17 -239 19 -94 2
-184 7 -200 11 -55 12 -138 69 -269 184 -26 23 -104 119 -118 146 -26 50 -58
192 -59 263 -2 74 24 195 55 256 70 142 196 263 320 306 68 24 193 19 252 -11z
m7292 -287 c34 -22 123 -111 123 -123 0 -5 10 -16 23 -25 19 -13 20 -17 7 -25
-31 -20 -90 -1 -113 36 -4 7 -29 39 -56 71 -60 72 -71 93 -71 134 l0 32 30
-41 c16 -23 42 -49 57 -59z m-9558 0 c-16 -49 -184 -222 -200 -206 -7 7 -8 24
-4 45 5 24 34 60 108 133 106 104 123 109 96 28z m10121 47 c0 -11 -40 -50
-52 -50 -17 0 -7 29 14 44 26 18 38 20 38 6z m-10690 -23 c0 -7 -7 -22 -15
-33 -15 -19 -15 -19 -30 0 -23 31 -18 46 15 46 18 0 30 -5 30 -13z m7324 -159
c-6 -100 -8 -109 -17 -75 -7 28 -19 45 -48 63 -22 13 -39 31 -39 40 0 21 93
105 104 94 4 -5 5 -59 0 -122z m-3955 58 l54 -55 -34 -14 c-41 -17 -67 -45
-79 -83 -6 -20 -9 7 -9 89 -1 64 3 117 7 117 4 0 32 -24 61 -54z m6271 -7 c15
-26 5 -69 -31 -141 -16 -32 -29 -65 -29 -75 0 -10 -9 -24 -19 -30 -11 -7 -24
-28 -31 -47 -6 -20 -14 -36 -17 -36 -10 0 -136 123 -161 157 -36 47 -24 67 56
93 37 12 92 39 122 60 62 44 94 50 110 19z m-8530 -34 c43 -24 103 -55 134
-69 37 -16 56 -31 56 -42 0 -26 -45 -79 -118 -139 -60 -50 -67 -54 -83 -39 -9
8 -20 27 -24 41 -3 14 -23 54 -44 89 -49 81 -68 146 -53 179 16 36 44 32 132
-20z m8822 -57 c41 -36 68 -69 83 -105 14 -31 31 -54 44 -58 46 -14 20 -46
-76 -94 -47 -23 -77 -31 -128 -33 -63 -3 -69 -1 -88 24 -23 30 -22 33 34 193
27 78 52 125 66 125 3 0 32 -24 65 -52z m-9143 0 c5 -18 15 -60 21 -93 7 -33
24 -90 38 -128 14 -37 22 -70 19 -74 -4 -3 -29 -8 -55 -11 -38 -3 -72 3 -148
29 -120 39 -128 46 -114 83 13 34 134 191 163 211 37 26 64 19 76 -17z m6293
-110 c40 -23 84 -84 107 -148 40 -112 15 -343 -50 -477 -60 -121 -218 -258
-385 -333 -36 -17 -74 -30 -85 -30 -27 0 -50 61 -43 114 11 81 13 86 60 108
71 35 72 105 0 143 -54 29 -61 47 -42 105 20 60 21 120 2 145 -13 18 -19 18
-90 6 -125 -21 -128 1 -13 86 50 36 99 64 121 68 20 4 52 18 72 31 19 13 38
24 42 24 5 0 26 -18 47 -40 66 -67 101 -48 90 48 -5 44 -2 69 10 98 30 74 85
92 157 52z m-3410 -20 c43 -60 50 -86 37 -139 -15 -57 -3 -79 42 -79 21 0 32
7 44 29 31 60 118 43 230 -45 28 -22 71 -52 98 -67 26 -15 47 -32 47 -37 0
-16 -41 -22 -104 -16 -77 9 -96 -3 -103 -66 -4 -38 -2 -48 18 -66 21 -20 21
-25 10 -62 -8 -27 -22 -47 -43 -60 -73 -44 -81 -116 -15 -136 42 -12 67 -61
67 -134 0 -107 -43 -124 -158 -66 -95 49 -141 82 -240 173 -141 129 -188 243
-186 454 1 95 5 128 24 183 38 108 99 165 176 166 24 0 37 -8 56 -32z m6868
-68 c0 -13 73 -98 173 -200 43 -44 82 -92 88 -107 6 -16 13 -71 16 -124 8
-139 -8 -181 -108 -283 l-78 -80 -26 24 c-14 13 -25 30 -25 37 0 8 23 37 52
64 l52 50 -19 36 c-11 19 -30 43 -43 52 -12 9 -39 28 -59 44 -58 44 -84 37
-163 -39 -81 -78 -84 -76 -93 61 -3 50 -9 98 -12 108 -10 24 -57 47 -96 47
-26 0 -29 2 -20 14 26 31 68 30 118 -3 50 -33 68 -36 124 -21 49 14 126 90
134 133 8 39 -22 109 -55 129 -24 16 -25 26 -3 50 17 19 43 24 43 8z m-10404
-25 c3 -7 -6 -29 -20 -48 -42 -54 -58 -101 -45 -134 14 -38 75 -100 122 -124
45 -24 80 -16 146 31 22 16 46 28 53 25 69 -24 70 -25 58 -40 -7 -8 -29 -15
-49 -15 -20 0 -46 -7 -57 -15 -32 -22 -47 -89 -35 -160 7 -46 6 -63 -4 -73
-10 -12 -22 -5 -69 38 -32 28 -69 55 -83 61 -47 18 -141 -24 -174 -77 -28 -45
-24 -69 21 -131 42 -59 42 -70 2 -106 -19 -17 -20 -17 -36 8 -10 15 -46 58
-81 96 -54 59 -65 77 -75 126 -7 32 -10 93 -8 138 5 99 29 152 79 179 20 11
52 43 70 70 49 73 139 166 161 166 10 0 21 -7 24 -15z m8704 -275 c169 -16
394 -119 490 -224 48 -53 55 -67 85 -184 24 -94 26 -109 15 -174 -9 -60 -8
-77 6 -114 21 -55 9 -107 -41 -175 -72 -99 -177 -154 -349 -180 -194 -30 -318
24 -409 179 -68 115 -85 240 -44 318 70 134 226 201 337 144 90 -46 142 -197
90 -263 -11 -14 -40 -33 -65 -43 -50 -18 -56 -37 -29 -79 14 -22 24 -25 76
-25 93 0 147 34 191 119 42 80 51 146 33 224 -23 99 -85 166 -203 219 -41 18
-67 22 -178 22 -127 1 -132 0 -200 -32 -76 -36 -161 -115 -195 -183 -57 -111
-63 -227 -20 -362 53 -166 149 -280 299 -355 186 -93 418 -82 682 32 l78 33
23 -24 c28 -30 56 -27 147 19 l63 32 24 -27 c33 -39 30 -73 -12 -143 -33 -53
-35 -64 -30 -110 5 -40 2 -55 -10 -65 -11 -9 -14 -22 -10 -41 19 -92 21 -85
-23 -112 -62 -39 -85 -98 -62 -158 9 -25 38 -42 84 -52 22 -5 27 -12 27 -37
l0 -31 -65 36 c-36 20 -77 36 -90 36 -13 0 -27 5 -30 11 -4 5 -57 34 -118 63
-62 29 -141 76 -177 105 -36 29 -85 64 -110 77 -88 48 -105 59 -140 92 -34 32
-78 63 -191 134 -30 20 -109 59 -175 88 -221 98 -489 222 -530 246 -61 35 -88
97 -82 189 5 72 73 305 111 380 37 73 205 232 307 290 96 54 176 89 229 101
71 15 77 15 191 4z m-6816 -20 c42 -13 82 -34 110 -59 25 -22 69 -47 98 -57
40 -13 68 -33 118 -83 146 -147 161 -170 216 -333 38 -110 54 -195 54 -282 0
-104 -46 -149 -224 -216 -389 -148 -574 -238 -645 -314 -14 -14 -31 -26 -38
-26 -7 0 -33 -18 -57 -40 -24 -22 -70 -54 -103 -70 -32 -16 -90 -57 -128 -90
-68 -58 -173 -117 -389 -214 -95 -44 -133 -47 -119 -10 4 10 9 11 23 1 15 -9
23 -8 39 7 26 23 61 95 61 124 0 32 -54 87 -100 101 -22 6 -40 13 -40 15 0 2
6 19 14 37 20 49 17 211 -6 236 -43 48 -63 158 -33 183 20 17 67 8 138 -25 60
-29 69 -28 120 7 15 11 26 8 70 -16 164 -91 206 -101 392 -92 273 12 420 68
477 179 11 23 36 60 55 82 50 59 90 150 104 237 32 196 -66 374 -255 464 -67
32 -73 33 -195 33 -181 -1 -211 -9 -278 -79 -77 -79 -106 -150 -106 -255 0
-93 15 -135 71 -197 45 -50 85 -68 153 -68 58 0 89 19 89 55 0 32 -22 56 -60
64 -53 10 -71 53 -55 129 16 74 28 102 55 131 54 56 144 66 242 26 78 -32 101
-54 128 -121 19 -46 22 -68 18 -142 -6 -122 -46 -209 -132 -284 -86 -76 -109
-83 -251 -82 -236 1 -339 48 -437 199 -43 65 -41 51 -23 210 4 28 2 68 -3 90
-10 49 8 153 39 222 44 97 146 201 229 234 30 12 64 30 75 39 37 32 121 50
280 60 61 4 117 7 126 8 9 1 47 -7 83 -18z m4301 -30 c10 -11 24 -20 30 -20 7
0 18 -6 24 -14 27 -32 -42 -106 -98 -106 -53 0 -84 113 -39 144 30 22 61 20
83 -4z m-1941 -21 c30 -36 32 -55 9 -89 -40 -58 -75 -60 -130 -7 -51 48 -43
72 36 108 50 24 56 23 85 -12z m5255 -79 c35 0 36 -2 19 -65 -12 -43 -11 -48
26 -124 42 -85 43 -121 6 -141 -30 -16 -37 -7 -44 60 -4 34 -25 102 -47 156
-42 100 -45 143 -9 124 10 -6 32 -10 49 -10z m-8584 -42 c-7 -24 -27 -70 -44
-103 -17 -33 -36 -93 -43 -132 -6 -40 -15 -73 -18 -73 -3 0 -14 6 -25 14 -26
19 -22 67 11 129 21 40 27 67 28 117 1 36 5 71 9 78 5 6 28 12 52 12 l43 0
-13 -42z m5042 25 c14 -35 -67 -68 -107 -43 -12 7 -12 13 -4 27 20 32 101 44
111 16z m-1496 -15 c64 -36 39 -73 -27 -42 -40 19 -48 29 -40 49 7 20 22 19
67 -7z m1865 -135 c-15 -45 -46 -58 -46 -20 0 14 10 31 23 40 33 24 37 21 23
-20z m3565 23 c-17 -20 -68 -39 -87 -32 -9 4 -14 10 -10 14 11 10 68 30 90 31
15 1 16 -2 7 -13z m-9368 -18 c41 -15 34 -32 -10 -23 -54 10 -80 25 -62 36 8
5 21 6 29 3 8 -3 27 -11 43 -16z m3522 -5 c44 -50 24 -75 -20 -27 -26 28 -33
54 -15 54 6 0 22 -12 35 -27z m3619 -99 c23 -9 20 -46 -9 -126 -14 -39 -32
-117 -40 -175 -8 -58 -20 -123 -25 -144 -11 -39 -11 -39 -53 -33 -23 4 -73 17
-112 30 -38 13 -104 33 -145 45 -41 11 -138 40 -215 66 -77 25 -146 47 -152
49 -39 11 8 79 104 151 96 74 145 91 298 104 66 6 152 16 190 23 81 15 137 19
159 10z m-4684 -25 c229 -28 294 -53 388 -152 97 -102 86 -130 -63 -162 -44
-9 -161 -46 -260 -81 -285 -102 -289 -101 -299 38 -11 141 -32 235 -81 351 -7
16 2 17 111 17 66 0 157 -5 204 -11z m7160 -64 c29 -14 59 -42 83 -76 58 -82
48 -119 -34 -119 -50 0 -93 25 -104 60 -4 11 -11 20 -17 20 -26 0 -80 35 -93
61 -20 38 -19 86 1 97 20 11 99 -10 164 -43z m-9754 9 c10 -41 -24 -92 -103
-150 -39 -30 -75 -58 -78 -64 -9 -14 -88 -13 -103 2 -7 7 -12 23 -12 37 0 27
54 129 79 148 25 20 132 52 173 52 32 1 39 -3 44 -25z m9474 -82 c9 -50 10
-78 2 -103 -6 -19 -14 -61 -18 -94 -8 -73 -21 -99 -72 -148 l-39 -38 -21 26
c-78 99 -37 307 78 391 25 19 48 34 52 34 3 0 12 -31 18 -68z m-9294 6 c66
-70 91 -113 99 -170 9 -61 -11 -181 -34 -202 -17 -15 -20 -15 -44 5 -41 31
-80 107 -90 169 -22 150 -17 250 11 250 5 0 31 -24 58 -52z m9684 -253 c0 -23
-56 -107 -86 -130 -88 -67 -256 -118 -270 -82 -14 36 52 127 92 127 12 0 53
16 91 36 57 30 90 41 166 53 4 0 7 -1 7 -4z m-9990 -47 c118 -54 125 -58 163
-105 49 -61 48 -73 -7 -73 -80 0 -149 19 -203 56 -52 36 -113 116 -113 149 0
15 6 16 48 10 26 -4 76 -20 112 -37z m5834 -109 c31 -27 56 -78 56 -116 0 -20
-22 -16 -94 18 -60 28 -66 34 -66 61 0 72 46 89 104 37z m-1737 -29 c7 -24 11
-45 9 -47 -2 -2 -41 -19 -87 -38 -97 -40 -105 -34 -70 47 19 46 39 63 90 78
38 12 44 8 58 -40z m2142 -54 c69 -18 121 -35 115 -38 -5 -3 -32 -13 -61 -22
-28 -10 -68 -30 -89 -47 -60 -47 -69 -42 -90 55 -16 72 -17 86 -6 85 4 0 63
-15 131 -33z m-2500 -2 c-7 -8 -22 -43 -33 -77 -14 -40 -28 -63 -39 -65 -10
-2 -38 10 -64 27 -26 17 -53 31 -60 31 -24 0 -76 31 -67 40 8 8 84 28 224 59
42 9 55 4 39 -15z m6206 -181 c-4 -10 -12 -44 -18 -75 -7 -32 -14 -58 -17 -58
-7 0 5 110 15 133 4 9 12 17 17 17 6 0 7 -8 3 -17z m-222 -69 c16 -140 18
-152 30 -157 7 -2 36 0 64 6 29 6 56 8 60 4 11 -11 -47 -66 -83 -77 -55 -19
-74 -1 -74 69 0 69 -23 105 -73 117 -65 15 -88 3 -110 -61 -13 -36 -47 -62
-47 -35 0 12 97 155 116 171 18 15 86 39 99 35 6 -1 14 -34 18 -72z m-9825 1
l0 -30 -8 30 c-4 17 -8 39 -8 50 l-1 20 9 -20 c5 -11 8 -33 8 -50z m339 2 c28
-29 54 -64 58 -78 4 -13 16 -30 26 -37 32 -22 20 -59 -15 -46 -10 4 -16 18
-16 39 0 47 -50 89 -94 79 -62 -13 -102 -77 -91 -145 l7 -39 -52 0 c-67 0
-134 35 -106 56 10 7 33 10 55 7 33 -5 41 -1 65 28 19 22 26 39 21 53 -23 78
-16 108 30 126 42 18 62 10 112 -43z m5532 -32 c95 -46 141 -78 141 -100 0 -6
-12 -22 -26 -36 -38 -35 -114 -169 -114 -201 0 -43 -13 -34 -51 33 -19 34 -47
77 -64 97 -26 30 -30 43 -29 91 0 52 28 161 41 161 3 0 49 -20 102 -45z m1568
-96 c158 -77 315 -153 348 -170 33 -16 71 -29 85 -29 23 0 23 -2 -13 -31 -31
-26 -38 -37 -35 -61 3 -27 -2 -32 -42 -51 l-45 -22 0 -55 c0 -30 -4 -61 -8
-67 -5 -7 -27 -13 -51 -13 -37 0 -47 5 -79 40 -36 40 -80 53 -103 30 -6 -6
-27 -4 -58 5 -66 20 -92 19 -117 -6 -11 -11 -23 -18 -26 -15 -4 3 -12 56 -19
117 -16 141 -42 225 -110 361 -47 94 -52 108 -35 108 10 0 149 -63 308 -141z
m-4530 114 c-28 -32 -119 -245 -132 -313 -8 -36 -17 -107 -21 -157 -5 -67 -10
-93 -20 -93 -7 0 -16 5 -19 11 -16 25 -55 29 -106 10 -45 -18 -53 -18 -85 -5
-40 17 -60 9 -96 -36 -26 -33 -76 -48 -122 -36 -25 6 -26 10 -26 76 0 73 -7
85 -50 85 -22 0 -25 5 -28 40 -4 48 -15 63 -55 73 -30 8 -28 9 39 31 38 12 76
28 84 35 8 6 49 27 90 46 41 19 104 51 140 70 36 19 103 50 150 69 47 19 97
42 111 52 27 19 124 57 148 58 11 1 11 -2 -2 -16z m1377 -20 c18 -109 19 -167
1 -200 -10 -18 -22 -33 -27 -33 -5 0 -22 -29 -37 -64 -16 -35 -34 -67 -40 -70
-6 -4 -23 21 -42 61 -17 37 -52 98 -77 135 l-46 68 25 26 c32 34 181 108 230
113 4 1 10 -16 13 -36z m2501 -25 c39 -27 60 -54 108 -138 72 -128 120 -263
63 -179 -39 57 -91 84 -186 98 l-45 6 -3 64 c-4 78 -18 101 -84 132 l-52 24
60 11 c86 17 87 17 139 -18z m-3370 8 l30 -13 -31 -7 c-18 -4 -40 -16 -50 -28
-11 -11 -32 -27 -47 -35 -27 -14 -28 -17 -22 -63 9 -68 -3 -86 -70 -100 -74
-15 -109 -34 -145 -78 -26 -31 -30 -34 -30 -15 0 39 39 148 69 193 45 68 92
109 157 135 67 28 96 30 139 11z m-3408 -18 c-3 -8 -6 -5 -6 6 -1 11 2 17 5
13 3 -3 4 -12 1 -19z m6306 -335 c15 -3 36 -17 47 -30 18 -23 18 -28 5 -58 -7
-19 -25 -51 -39 -72 -36 -52 -35 -118 4 -222 41 -112 63 -151 104 -188 20 -17
36 -38 36 -46 0 -24 89 -82 164 -107 59 -19 83 -22 165 -17 129 7 209 36 272
100 27 26 51 47 54 47 3 0 3 -21 0 -47 -6 -54 -4 -59 43 -92 37 -26 43 -62 12
-88 -24 -21 -98 -52 -124 -52 -25 -1 -152 -67 -190 -98 -46 -38 -81 -93 -104
-162 -42 -125 -23 -219 61 -299 91 -85 192 -103 294 -52 57 28 171 116 172
133 1 7 -58 47 -70 47 -3 0 -23 -13 -44 -30 -32 -25 -47 -30 -94 -30 -33 0
-70 7 -91 18 -69 34 -92 138 -46 211 51 80 123 118 204 106 37 -6 54 -15 89
-53 108 -117 143 -261 85 -353 -68 -106 -223 -169 -381 -154 l-74 7 -110 107
c-197 191 -460 519 -540 674 -47 90 -60 147 -86 357 -19 151 11 303 79 409 27
42 38 51 55 46 11 -3 33 -8 48 -12z m-2509 -19 c4 -15 18 -41 31 -58 37 -49
56 -144 62 -316 6 -193 -6 -251 -82 -396 -30 -58 -55 -111 -55 -119 0 -17
-103 -146 -164 -205 -26 -25 -61 -72 -79 -105 -23 -44 -70 -99 -176 -203 -80
-79 -162 -152 -182 -163 -54 -27 -155 -25 -270 6 -108 29 -151 63 -194 152
-30 64 -31 92 -6 165 28 80 48 116 94 163 23 23 48 50 55 59 28 35 165 1 213
-53 60 -65 58 -215 -3 -267 -38 -31 -54 -30 -145 6 -82 33 -134 38 -153 15
-15 -18 -10 -25 59 -97 25 -27 52 -48 61 -48 9 0 24 -10 34 -21 16 -19 26 -21
104 -17 98 5 152 27 196 79 81 96 91 203 35 359 -25 66 -30 72 -98 123 -60 45
-121 70 -226 96 -56 14 -73 22 -82 42 -17 34 -7 60 30 84 29 19 32 26 37 85
l5 65 26 -40 c35 -53 55 -70 114 -97 41 -18 66 -22 145 -21 108 1 166 12 262
50 76 29 103 54 181 170 59 88 74 124 83 213 5 47 1 70 -26 145 -47 132 -47
135 25 156 80 23 82 23 89 -7z m2971 -59 c84 -17 104 -36 135 -129 12 -36 30
-76 41 -90 10 -13 19 -31 19 -40 0 -21 -75 -103 -109 -120 -94 -47 -199 -7
-251 96 -16 31 -34 59 -40 63 -5 3 -10 27 -10 53 0 71 51 143 122 171 12 6 23
10 23 10 0 1 32 -6 70 -14z m-3380 -46 c49 -54 65 -96 65 -168 0 -50 -4 -65
-26 -91 -15 -17 -40 -38 -58 -47 -17 -9 -37 -24 -44 -34 -10 -15 -26 -19 -78
-19 -78 0 -110 15 -158 73 -40 49 -42 60 -22 98 7 15 24 56 36 93 32 96 85
133 196 135 48 1 54 -2 89 -40z m4640 -239 c-18 -35 -31 -38 -38 -8 -8 29 -1
38 29 38 24 0 24 -1 9 -30z m-6002 8 c-2 -5 -3 -21 -3 -38 0 -16 -3 -30 -7
-30 -11 1 -42 68 -35 75 9 8 48 2 45 -7z m5486 -50 l35 -22 -31 -9 c-42 -13
-63 -3 -63 28 0 31 12 31 59 3z m-4949 3 c0 -5 -8 -18 -17 -30 -15 -17 -23
-20 -48 -13 l-30 9 35 21 c37 23 60 28 60 13z m5620 -40 c0 -5 3 -23 6 -40 6
-30 6 -31 -30 -31 -41 0 -44 10 -15 51 20 28 39 38 39 20z m-6310 -62 c0 -12
-7 -19 -20 -19 -22 0 -37 39 -25 67 6 16 8 16 26 -6 10 -13 19 -32 19 -42z
m6780 37 c0 -7 7 -19 15 -26 27 -22 16 -66 -48 -192 -93 -179 -163 -287 -244
-374 -18 -19 -33 -39 -33 -45 0 -28 -182 -190 -197 -175 -10 9 6 54 31 83 57
69 58 170 2 288 -19 39 -36 78 -40 88 -3 10 -24 26 -47 35 l-42 18 32 27 c42
35 65 34 91 -4 32 -44 67 -37 99 19 19 37 27 43 45 37 41 -14 98 -17 109 -6 5
5 15 39 22 73 l11 63 46 3 c44 3 47 5 63 45 9 23 22 45 28 49 20 13 57 9 57
-6z m-7213 -42 c16 -48 37 -64 79 -64 32 0 33 -2 44 -57 7 -32 19 -64 28 -70
22 -18 83 -16 110 3 21 14 22 14 22 -6 0 -34 17 -57 50 -68 27 -10 34 -8 64
18 39 35 71 38 86 10 15 -28 5 -52 -29 -71 -18 -11 -31 -28 -36 -48 -4 -17
-18 -45 -32 -62 -48 -57 -41 -234 12 -289 28 -29 45 -90 25 -90 -20 0 -227
214 -280 290 -14 19 -30 39 -37 43 -7 4 -17 25 -23 47 -6 21 -38 76 -72 122
-104 140 -141 251 -103 305 14 20 46 33 69 29 5 -1 15 -20 23 -42z m5911 2 c9
-20 8 -25 -4 -30 -27 -10 -34 -7 -34 17 0 42 21 49 38 13z m-4654 -18 c11 -43
4 -48 -29 -24 -16 12 -17 16 -6 30 18 22 28 20 35 -6z m6387 -393 c16 -33 42
-113 59 -178 17 -65 40 -138 50 -163 11 -24 28 -94 40 -156 11 -62 30 -155 42
-207 19 -83 20 -101 10 -162 -11 -65 -50 -180 -75 -224 -6 -11 -30 -56 -52
-100 -35 -70 -46 -83 -90 -107 -27 -15 -93 -37 -145 -48 -124 -28 -387 -106
-471 -140 -90 -37 -196 -63 -228 -55 -14 3 -62 24 -107 45 -59 29 -88 50 -107
78 -15 21 -27 43 -27 49 0 6 -10 24 -23 40 -33 41 -45 70 -57 137 -13 76 -13
171 1 219 5 21 24 53 41 72 43 50 87 49 139 -4 49 -48 53 -93 13 -140 -31 -38
-40 -39 -48 -6 -5 18 -13 25 -30 25 -52 0 -50 -119 2 -161 58 -45 164 8 213
107 64 130 30 276 -81 342 -32 19 -68 32 -87 32 -18 0 -33 3 -32 8 0 4 68 62
152 130 195 157 309 269 363 357 24 39 74 120 111 180 45 74 93 136 147 190
l79 79 85 -89 c55 -59 95 -111 113 -150z m-7880 157 c35 -37 80 -96 99 -130
19 -35 56 -95 82 -135 26 -40 55 -93 64 -119 12 -36 31 -62 82 -107 101 -91
184 -161 321 -271 122 -99 123 -100 87 -100 -100 0 -195 -118 -196 -243 0 -96
17 -143 75 -205 50 -53 53 -55 104 -56 45 -1 56 3 76 26 31 36 41 93 20 124
-20 32 -31 30 -50 -6 -9 -16 -19 -30 -23 -30 -15 0 -52 77 -52 108 0 43 29 88
68 106 30 15 36 15 62 1 17 -9 42 -34 58 -57 25 -39 27 -48 27 -152 -1 -167
-37 -269 -125 -357 -31 -31 -62 -52 -91 -60 -24 -6 -62 -20 -85 -30 -53 -25
-69 -24 -156 7 -40 15 -100 33 -133 41 -33 8 -69 20 -80 27 -27 17 -117 48
-250 86 -156 45 -289 97 -313 123 -24 27 -119 233 -138 302 -30 109 -13 286
46 465 15 47 33 117 40 155 18 110 29 143 81 261 27 62 49 115 49 119 0 23
156 175 180 175 4 0 36 -31 71 -68z m6123 -98 c9 -24 3 -26 -33 -11 -34 14
-32 27 5 27 12 0 25 -7 28 -16z m-4584 -9 c11 -13 8 -15 -21 -15 -32 1 -33 1
-15 15 24 18 21 18 36 0z m4720 -25 c21 -30 53 -39 65 -20 3 6 11 10 17 10 17
0 -13 -31 -40 -41 -23 -9 -24 -14 -20 -64 3 -30 1 -55 -4 -55 -4 0 -19 22 -33
50 -14 27 -34 58 -46 69 l-21 19 21 21 c12 12 21 26 21 31 0 19 19 10 40 -20z
m-4860 -4 c0 -7 7 -19 15 -26 13 -11 11 -15 -10 -32 -14 -11 -37 -42 -50 -68
-39 -76 -57 -76 -35 0 10 33 9 37 -27 68 l-38 34 32 -6 c25 -4 39 0 60 19 31
27 53 32 53 11z m5042 -481 c15 -33 42 -45 77 -35 23 6 42 4 68 -6 32 -14 41
-14 84 0 52 18 109 21 109 7 0 -10 -148 -129 -235 -188 -33 -22 -82 -59 -110
-82 -27 -23 -90 -62 -140 -88 -49 -25 -114 -68 -142 -94 -62 -55 -107 -74
-154 -62 -43 12 -77 56 -59 78 7 8 18 15 24 15 30 0 157 72 208 119 90 82 167
228 183 348 l7 51 35 -20 c19 -12 39 -31 45 -43z m439 45 c-13 -11 -28 -20
-35 -20 -6 1 0 10 13 20 13 11 28 20 35 20 6 -1 0 -10 -13 -20z m-6116 -25
c40 -40 44 -50 13 -34 -29 14 -68 50 -68 61 0 17 22 7 55 -27z m495 -50 c28
-150 154 -330 268 -383 20 -9 45 -25 55 -35 9 -10 31 -20 48 -24 35 -7 42 -16
34 -43 -17 -52 -102 -61 -175 -18 -72 43 -246 162 -278 189 -18 16 -43 31 -57
35 -13 3 -36 21 -50 40 -14 19 -51 50 -82 70 -31 20 -88 61 -127 93 l-70 56
47 3 c25 2 55 -2 66 -7 27 -15 62 -13 86 4 14 11 32 13 66 9 45 -6 48 -5 84
35 54 60 70 55 85 -24z m5273 -652 c5 -181 4 -193 -14 -198 -25 -8 -87 10
-113 33 -12 11 -39 25 -61 32 -22 7 -61 23 -87 37 -61 30 -63 55 -10 106 41
40 276 199 279 188 1 -3 3 -92 6 -198z m-5322 96 c37 -24 84 -54 105 -67 71
-43 97 -68 90 -89 -8 -24 -68 -58 -121 -68 -21 -4 -51 -15 -66 -26 -32 -22
-115 -59 -134 -59 -31 0 -37 38 -21 135 9 51 16 121 16 156 0 35 3 74 6 87 l7
23 26 -24 c14 -14 56 -44 92 -68z"/>
</g>
</svg>
