<?xml version="1.0" encoding="utf-8"?>
<!DOCTYPE svg PUBLIC "-//W3C//DTD SVG 1.1//EN" "http://www.w3.org/Graphics/SVG/1.1/DTD/svg11.dtd">
<svg version="1.1" id="Layer_1" xmlns="http://www.w3.org/2000/svg" xmlns:xlink="http://www.w3.org/1999/xlink" x="0px" y="0px"
	 viewBox="337.9998 -2.8699 1884.0001 1605.7399" enable-background="new 337.9998 -2.8699 1884.0001 1605.7399"
	 xml:space="preserve">
<g>
	<path d="M2193.5281,509.1006c-0.3054-2.0447-0.6582-4.043-1.0342-6.0173c-45.9075-38.6913-75.7371-92.2849-101.4055-145.6203
		c-13.0454-38.6909-29.2649-76.2065-47.7639-112.5938c-40.642-78.5809-89.6995-152.578-142.4705-223.4724
		c11.8706,52.3716,19.6984,105.6129,23.6472,159.1594c0.9401,34.7185,3.4318,69.4841,1.2689,104.2261
		c-0.8695,55.9211-8.4619,111.4421-18.076,166.4231c-0.9872,1.5747-1.5983,3.2906-1.833,5.1712
		c-10.5778,52.2539-26.7268,103.3325-47.0594,152.6013l-0.423-0.0938c-12.3171,30.1817-27.855,58.9296-44.4972,86.9254
		c-5.8529,9.6374-12.6697,18.6874-17.8881,28.6775l-0.9873,0.1174c-28.0662,42.5459-61.3743,81.3544-96.3984,118.2824
		l-0.5642-0.0236c-6.6755,7.4515-13.6567,14.621-20.92,21.5084c-22.1899,21.7667-45.8604,41.8877-69.484,62.0323
		c-10.7657,6.9106-20.4503,15.4435-30.8635,22.895c-29.0063,20.6618-58.7181,40.4303-90.0284,57.4488
		c-2.2799,1.5984-5.6648,2.2565-6.7462,5.0536c0,3.8081,1.0109,7.4985,1.9513,11.189
		c5.9938,22.8949,11.7765,45.8368,18.2406,68.6141c2.1859,7.24-0.4702,15.3496,3.1498,22.2603
		c3.9491,8.8148,13.8451,12.9049,22.9419,13.9156c18.3583,1.998,36.8574,1.9275,55.3099,2.8678l0.705,0.8932
		c23.1302,4.1606,44.8263,13.7745,65.3706,24.7284c8.3208,7.1222,17.5354,13.2809,24.6343,21.7667
		c13.2574,14.4796,21.1554,32.932,25.9742,51.8071c1.4574-2.7031,3.9019-5.0066,4.748-7.9685
		c4.2312-8.9087,4.8188-18.9224,8.4856-27.9956c16.8304-33.0496,46.7772-57.2843,78.8395-74.6788
		c10.954-4.5131,21.6725-9.6139,32.9554-13.422l0.6349-0.7052c34.6478-10.6012,70.4475-17.0419,106.576-19.745
		c-10.9536-23.083-13.2336-49.1042-12.3407-74.3262c1.0112-20.0037,2.8912-40.0309,6.7701-59.7054
		c7.2394-19.4393,20.5676-35.7529,34.2714-50.9847c10.813-9.4962,21.6731-19.0399,33.7085-27.0555
		c15.4902-11.142,33.3079-18.3345,50.3969-26.6793l-0.2354-0.3056c22.0957-10.2957,44.0505-20.897,66.0283-31.4747
		c-18.4756-19.6746-37.5156-41.7703-41.511-69.437c-8.3455-47.8349,3.9011-97.7616,29.876-138.4034
		C2122.0698,567.9129,2156.5767,536.2267,2193.5281,509.1006z M2047.5792,573.0373
		c-28.842,31.5452-45.1556,72.9156-50.3739,115.0153c-5.2889,40.2421-2.5389,81.4719,7.5223,120.7739
		c-19.3225,6.4406-38.3855,13.6337-56.885,22.0957c-37.4922,17.6766-73.6444,41.7938-96.9391,76.8179
		c-15.0438,22.0251-21.2731,48.2814-29.9232,73.1274c-7.1929,19.0634-11.4944,39.161-18.5698,58.1775
		c-29.0063,4.2782-57.8955,11.048-84.8333,22.8243c-14.1742,5.9471-27.4788,13.8921-39.3962,23.5767
		c-3.7609,3.6434-9.1909,3.2909-13.9392,3.855c-15.3257-21.9313-31.1455-43.5098-47.9757-64.3127
		c21.3905-14.6442,42.9689-29.0299,64.2656-43.8387c10.1779-7.0048,20.403-13.939,30.3931-21.2496
		c31.0282-20.9674,60.975-43.6742,88.806-68.7788c26.4679-23.9525,51.0319-50.538,70.0952-80.8136
		c9.5669-17.9119,19.0873-35.8467,28.0662-54.0404c26.0448-52.5833,50.5615-106.1302,69.5781-161.6984
		c20.3561-57.9193,35.6821-118.3532,37.3981-179.9861c6.6053,18.993,15.5607,37.2809,27.8313,53.2648
		c17.8647,23.1769,41.9114,40.8301,68.2375,53.2413c-7.5454,8.3212-14.9966,16.6892-23.2236,24.3287
		C2067.6064,554.5616,2056.3699,562.5062,2047.5792,573.0373z"/>
	<path d="M1065.4484,922.4315c44.6145,32.2973,93.8833,58.7181,146.725,74.6786c10.3898,3.4084,20.944,6.4172,31.8037,7.9921
		c-8.2271-6.3232-17.2065-11.565-25.8801-17.2065l0.1409-0.2117c-41.3236-28.1602-79.1447-62.1732-108.3864-102.933
		c-26.797-37.6803-42.3816-82.2712-50.5852-127.4969c-10.4601-57.8719-9.99-117.1309-4.4427-175.4964
		c0.7288-5.7355,1.246-11.4945,1.8336-17.2299c40.313,21.0849,79.7327,43.8857,118.9171,67.0394
		c12.0118,7.1459,23.6943,14.8792,35.7059,22.0485c5.3124-33.1196-11.8002-63.8423-15.326-96.116
		c-0.9639-15.0439-7.5454-28.8185-11.7531-43.0869c-25.8096-74.7961-50.1383-150.6738-87.0431-220.957
		c-19.2983-37.2806-42.2638-72.7511-69.1782-105.0249c-26.3269-31.2867-55.7329-60.5751-89.6757-83.5877
		c61.3273,99.0782,94.9646,211.9308,123.219,324.102c0.799,4.6777,1.6453,9.3554,2.4679,14.0566
		c-22.4244-16.1725-43.627-33.9665-65.7228-50.5851c-7.0518-4.7953-13.0224-12.6701-22.3073-12.4583
		c-2.0215,23.5296-5.4771,46.9886-7.0282,70.5417c-7.2165,61.3743-12.3171,123.0307-18.0528,184.5696
		c-1.8335,16.8302-2.9853,33.8014-6.8169,50.3499c-20.2622-8.7207-38.2208-21.9075-55.5916-35.3062
		c-33.5667-25.8801-60.0581-59.4938-92.7081-86.4083c23.224,60.2934,54.064,117.5303,90.5219,170.8189
		C935.6009,806.0529,994.8362,871.3999,1065.4484,922.4315z"/>
	<path d="M1411.4812,936.0885c-26.8439,26.9849-58.6241,48.1404-90.4747,68.5906c39.3021-7.7805,76.3712-24.2112,111.7241-42.7106
		c38.9261-21.743,75.9482-47.4354,108.4806-78.0168c14.5269-11.6353,27.3845-25.3629,40.4071-38.6909
		c23.5999-24.5638,45.155-51.0316,65.9579-77.993c47.2001-64.1953,87.0195-134.0081,116.6134-208.0522
		c-7.5453-0.6818-10.8833,6.4171-15.2083,11.1183c-30.558,35.3296-63.537,69.1547-102.1105,95.7872
		c-9.2378,7.1459-20.5443,11.2596-29.5236,18.5463c-4.7482-15.2791-4.8424-31.5218-7.7335-47.2001
		c-8.1566-59.541-14.6914-119.3638-21.6489-178.9755c-1.6222-27.3138-4.4897-54.534-6.2998-81.8481
		c-20.2388,15.9607-41.5116,30.652-61.0923,47.4119c-7.569,3.8783-13.798,9.9195-20.4738,15.0907
		c-1.1046-0.0236-3.2909-0.0703-4.3719-0.1174c1.2926-9.9901,4.9833-19.604,5.8059-29.6411
		c6.6757-23.8823,11.9177-48.1874,19.1339-71.9288c4.7719-18.6872,11.6354-36.8573,16.3131-55.4975
		c9.2145-24.0937,17.0186-48.7047,26.7733-72.6106c5.1952-14.8792,12.6935-28.9123,17.6062-43.8386
		c6.182-11.33,10.813-23.4355,16.4309-35.0711c4.3486-9.3319,10.8599-17.418,16.0074-26.327
		c-15.6786,12.2233-31.2161,24.9637-44.5438,39.7492c-21.8843,19.5804-40.5244,42.8986-58.2717,66.3341
		c-22.3541,30.4167-42.3108,62.7611-58.483,96.8919c-17.1595,33.2844-31.6626,68.1206-43.7448,103.6149
		c-3.8314,7.8742-6.0645,16.4308-9.0262,24.6579c-14.0333,42.4518-27.032,85.3268-38.0094,128.6721
		c-3.4553,13.3983-7.1223,26.7732-10.1077,40.2891c-3.6198,16.0078-7.8746,33.0262-2.3036,49.1513
		c7.3574-4.8892,15.2083-8.9086,22.7305-13.5161c38.9965-22.1428,77.8755-44.6145,116.2139-67.9091
		c4.4662-2.4448,8.8618-5.0535,13.281-7.6395c2.374,7.2872,4.3719,14.7383,6.8873,22.0254
		c0.7756,9.1201,1.5748,18.4048-0.5641,27.4313c-3.197,13.469,1.9509,26.8203,2.985,40.1954
		c5.665,50.9612,0.5645,103.2856-15.7019,151.9667C1478.4501,855.3922,1448.9264,899.9831,1411.4812,936.0885z"/>
	<path d="M1138.9048,1023.2253c-16.5482,15.7256-29.077,35.6589-40.5715,55.3804
		c-35.7056,63.4194-39.8898,140.8484-21.3669,210.2852c11.7295,43.1338,33.1906,83.5405,61.7034,117.8831
		c1.0344-0.4465,3.0559-1.3164,4.0665-1.7394c-0.329-7.569-2.3977-14.903-3.5023-22.3544
		c-8.3213-52.4185-8.7678-106.553,3.0089-158.478c10.3428-45.4606,31.5216-88.6177,62.8552-123.2891
		c12.4584-14.668,27.549-26.7264,42.0994-39.2081c-20.4034-8.5328-40.9712-16.6659-61.7505-24.1409
		C1170.0267,1032.5103,1154.9362,1025.9757,1138.9048,1023.2253z"/>
	<path d="M1455.132,1058.2965c-4.2545-14.3857-12.2937-30.6284-28.1838-34.46c-16.2191-3.1732-31.5216,4.9129-45.9308,11.1419
		c-21.7667,10.8129-43.2745,22.7775-67.251,27.9958c32.4856,25.0338,60.9043,55.7563,81.4016,91.368
		c23.1769,40.1249,35.9409,85.8676,38.7144,132.01c0.3762,3.9021,0.3762,7.9215,1.9747,11.6356
		c-2.4447,3.8314-2.3976,9.7784-0.0236,13.6804c-1.7159,3.7609-0.9166,8.0391-1.1517,12.0822
		c-0.282,27.4786-5.8297,54.4871-11.424,81.2841c1.5277-0.0236,4.5602-0.0706,6.0646-0.0941
		c34.9065-44.9436,57.1901-99.5247,63.866-156.0569c6.6522-52.771,1.2457-108.0337-21.8136-156.4327
		C1466.2974,1080.8857,1457.7411,1070.8956,1455.132,1058.2965z"/>
	<path d="M1071.6775,1048.941c3.1968-12.5992,6.4407-25.175,9.238-37.8683c-20.427-12.8108-40.9242-25.4805-61.2335-38.4324
		c-40.0074-24.1172-76.4888-53.6642-111.0191-84.9744c-31.169-29.03-60.434-60.0582-87.7715-92.7314l0.0703-0.3058
		c-12.4344-15.2319-24.7516-30.5811-35.7997-46.8004l-0.9638,0.5642c-0.7991-1.3165-2.3738-3.9958-3.1733-5.3358
		c-26.797-38.738-52.489-78.3221-74.7256-119.9045c-8.7681-14.3151-14.0569-30.3226-19.1811-46.1892l-0.7053-0.1648
		c-6.7462-23.7175-15.3492-46.9179-20.8499-71.0117c-14.2681-53.7587-23.5296-108.7626-29.2885-164.049
		c-2.9619-39.9368-5.1245-79.9913-4.4192-120.0456c1.1989-22.4481,1.9744-44.8962,4.2313-67.2505
		c3.9017-40.0074,10.7186-79.7094,20.6616-118.6588c1.998-3.9724-0.2585-7.1456-2.8912-9.9901
		c-22.989,33.9899-45.2256,68.5202-67.7443,102.839c-14.1271,20.7323-27.7844,41.7939-41.6295,62.7144
		c-12.9048,19.2749-23.1063,40.1717-32.5558,61.2802c-11.2827,25.2458-21.884,50.7966-31.3806,76.7473
		c-7.7571,20.0742-16.8539,39.5844-24.8928,59.5175l-0.6582,0.3994c-14.7618,29.9702-30.8164,59.682-52.348,85.4213
		c-11.6825,13.8213-23.7411,27.3607-36.1758,40.5245c36.8812,25.9507,69.6485,58.1304,94.0242,96.2337
		c9.5671,15.6551,19.8393,31.4276,24.1172,49.5274c8.0627,29.8291,10.1547,61.2097,5.4768,91.791
		c-5.3357,26.6322-17.2769,52.442-37.2806,71.2232c7.4986,4.2312,15.8196,6.5818,23.7881,9.7553
		c25.5511,9.9666,50.5381,21.5078,74.2323,35.3297c31.357,18.6871,61.3037,41.6761,81.7307,72.4221
		c4.9127,6.6756,3.7138,16.0076,8.133,22.8007l-0.1412,1.998c8.2977,41.2766,9.6378,85.6562-7.663,124.9348
		c21.5082,1.7159,43.1339,2.9382,64.3596,7.1459c8.2507,1.575,16.4778,3.2439,24.6579,5.2418
		c19.8157,3.9725,38.6677,11.33,56.8378,20.0742l2.0214,0.1646c-1.0812,3.1499,5.1715,3.3849,6.9344,5.3829
		c23.5529,12.9048,44.309,31.4745,58.4361,54.4399c9.6374,15.0675,13.6569,32.5795,18.4287,49.5508
		c4.6542-11.6589,7.5925-24.2816,15.0439-34.6243c11.4946-16.3134,27.22-29.0302,44.1209-39.4198l1.1518-0.5171
		c1.998-1.0577,4.043-2.0687,6.1586-3.0558c37.4214-19.5336,79.85-27.1967,121.5497-30.793
		c5.9941-24.0701,12.6934-48.0464,17.8175-72.2811C1070.7372,1051.6677,1071.3718,1049.8578,1071.6775,1048.941z
		 M911.2957,1072.9171c-6.5818,6.4642-10.1077,21.0616-21.6023,18.0293c-10.0839-6.4407-19.1572-14.4562-30.0641-19.557
		c-30.1584-15.373-63.7249-22.7539-97.1037-26.9851c-13.9153-59.0001-35.8938-118.494-78.4868-163.0613
		c-3.5727-3.62-7.1927-7.1459-10.8833-10.5541c-8.2036-7.4751-16.9713-14.3154-26.2796-20.2861
		c-26.2329-17.653-56.7672-26.6556-86.6904-35.7526c6.8639-33.8956,8.9557-68.6377,6.135-103.0975
		c-3.4789-36.7401-13.2104-73.7386-33.2141-105.0488c-0.7756-1.457-2.3741-4.3483-3.1497-5.806
		c-13.6808-21.3433-30.9106-40.3361-50.8201-56.0149c-6.0177-4.8656-12.6698-8.9792-17.9116-14.6912
		c41.7703-23.9528,79.0274-60.3637,92.8019-107.6577c0.2585-0.2588,0.7992-0.7994,1.0577-1.0815
		c0.2118,12.1998,0.7759,24.3994,2.1157,36.5286c2.28,24.2346,5.9941,48.4224,12.3406,71.952l0.3527,1.5045
		c11.1418,48.2578,29.6646,94.5648,51.2198,139.062c17.8176,36.2932,35.3058,72.7511,53.8287,108.692
		c8.6503,16.2424,15.4201,33.6606,26.9617,48.211c38.009,51.1492,86.4315,94.1652,139.5319,129.1657
		c27.5491,18.6874,55.7563,36.4108,83.7521,54.393c7.4747,4.6777,14.8086,9.5434,22.1425,14.4797
		C935.507,1041.3251,923.4248,1057.1448,911.2957,1072.9171z"/>
	<path d="M761.5621,1174.299c-17.5593-14.9969-40.4777-21.3906-62.8555-24.8225c-3.9489,0.3762-8.3209-0.1646-11.4709,2.6563
		c-9.8489,7.0989-18.546,15.702-26.6558,24.7048c-36.4815,37.1161-59.0238,86.5963-65.0647,138.1453
		c0.1174,0.9637,0.3524,2.9147,0.47,3.8784c-2.233,6.041-1.8571,12.5992-2.2565,18.9458
		c-1.8099,27.6432,0.2586,55.4509,4.2545,82.8119c7.8276,53.97,26.9146,106.036,53.0533,153.7767
		c1.3397,3.8551,5.7119,3.5729,9.0733,4.2075c-1.293-21.5785-2.4448-43.157-3.6672-64.7122
		c-1.0342-23.412-3.6432-46.9181-1.1989-70.3301c3.4085-44.1444,14.4092-88.5239,37.5158-126.6508
		c23.8352-39.3256,60.5984-70.0717,102.6273-88.3827c-0.47-2.9854-0.6112-6.0411-1.6688-8.8384
		C786.6194,1202.3887,776.2063,1186.1694,761.5621,1174.299z"/>
	<path d="M1916.6735,1190.0715c-14.3384-14.3622-28.4657-29.4767-46.0718-39.8899l-0.0941-0.5876
		c-11.9645-7.71-25.8096-0.7052-37.6332,3.5496l-0.658-0.094c-15.326,5.6884-29.8059,14.3621-40.8301,26.5618
		c-11.3065,12.1526-18.0527,27.8077-21.4611,43.9093c18.9928,9.9666,36.8809,21.884,53.6879,35.2356
		c17.324,14.6444,33.1434,31.0985,46.1423,49.7153l0.3291-0.0234c21.2493,31.8741,32.7671,69.1782,38.15,106.8585
		c3.3383,20.2386,1.9042,40.8065,2.4917,61.2333c0.0942,32.4149,0.9171,64.8297,1.646,97.2446
		c40.0773-75.619,63.0664-161.8392,57.4717-247.754C1966.6003,1276.8087,1950.1697,1227.0701,1916.6735,1190.0715z"/>
</g>
</svg>
