<?xml version="1.0" standalone="no"?>
<!DOCTYPE svg PUBLIC "-//W3C//DTD SVG 20010904//EN"
 "http://www.w3.org/TR/2001/REC-SVG-20010904/DTD/svg10.dtd">
<svg version="1.0" xmlns="http://www.w3.org/2000/svg"
 width="640.000000pt" height="1280.000000pt" viewBox="0 0 640.000000 1280.000000"
 preserveAspectRatio="xMidYMid meet">
<metadata>
Created by potrace 1.15, written by Peter Selinger 2001-2017
</metadata>
<g transform="translate(0.000000,1280.000000) scale(0.100000,-0.100000)"
fill="#000000" stroke="none">
<path d="M3190 12780 c0 -23 -4 -24 -31 -10 -16 9 -19 7 -19 -9 0 -13 8 -21
23 -23 22 -3 22 -4 25 -218 1 -130 -2 -233 -8 -260 -32 -130 -33 -141 -20
-164 9 -18 10 -32 1 -58 -8 -25 -8 -43 0 -67 9 -25 9 -42 0 -73 -9 -29 -9 -48
-1 -72 17 -52 -1 -115 -42 -146 -53 -41 -83 -77 -113 -140 -24 -51 -32 -59
-59 -62 -29 -3 -31 -6 -34 -45 -2 -33 1 -44 18 -56 17 -12 18 -15 5 -20 -21
-9 -22 -115 0 -123 26 -10 16 -21 -24 -28 l-39 -6 -7 -87 c-7 -78 -6 -88 10
-98 55 -31 97 -114 117 -230 18 -107 -6 -760 -92 -2495 -45 -901 -115 -1975
-156 -2380 -22 -228 -90 -785 -124 -1022 -17 -114 -30 -212 -30 -218 0 -6 -30
-10 -74 -10 -68 0 -74 -2 -80 -22 -11 -43 -6 -67 19 -86 38 -30 58 -87 58
-167 0 -57 -30 -187 -161 -705 -161 -640 -229 -881 -299 -1065 l-38 -100 -103
-3 -102 -3 0 -154 0 -155 -30 0 c-16 0 -30 -2 -30 -4 0 -3 10 -22 22 -42 17
-30 23 -58 26 -131 l4 -93 -232 -478 c-129 -262 -312 -637 -407 -832 -96 -195
-183 -373 -194 -396 -16 -33 -35 -49 -93 -83 -56 -32 -76 -49 -81 -69 -3 -15
-16 -37 -27 -49 l-21 -23 502 0 503 0 -6 24 c-3 14 -1 36 5 49 9 19 8 30 -4
48 -30 45 -30 98 -2 233 59 294 181 513 403 728 214 207 470 343 762 405 121
25 469 26 587 0 130 -28 228 -63 368 -133 408 -202 713 -582 789 -983 21 -111
21 -219 0 -250 -13 -18 -14 -28 -5 -47 6 -14 8 -36 5 -50 l-6 -24 502 0 502 0
-26 31 c-14 17 -26 39 -26 49 0 13 -23 33 -69 60 -38 23 -75 49 -83 58 -13 15
-126 245 -684 1392 l-172 355 7 80 c4 44 17 101 29 127 l20 47 -26 3 -27 3 -3
153 -3 152 -95 -1 c-53 0 -100 3 -105 8 -15 15 -145 409 -188 570 -121 449
-313 1233 -313 1283 -2 86 19 157 53 182 29 22 34 42 23 86 -6 20 -12 22 -78
22 l-72 0 -48 338 c-59 422 -80 599 -105 877 -27 297 -83 1062 -116 1585 -36
575 -91 1742 -120 2525 -8 226 -17 478 -20 560 -10 240 16 365 92 447 l45 47
-7 86 -7 85 -39 0 c-39 0 -52 13 -24 24 22 8 21 105 -2 121 -15 11 -15 13 5
19 19 6 22 15 22 57 0 49 0 49 -33 49 -30 0 -35 5 -56 48 -35 74 -69 118 -112
146 -28 19 -39 33 -39 52 0 14 -5 34 -11 45 -7 14 -7 30 1 54 9 26 9 44 0 70
-9 26 -9 44 0 69 8 27 8 45 -1 76 -9 31 -10 43 -1 52 18 18 15 60 -8 126 -19
53 -20 80 -18 288 3 229 3 229 26 232 12 2 22 9 22 16 0 9 -9 12 -25 8 -20 -3
-25 0 -25 17 0 11 -4 21 -10 21 -5 0 -10 -9 -10 -20z m312 -8875 c4 -22 28
-157 53 -300 118 -666 138 -779 161 -905 13 -74 27 -147 30 -162 l6 -28 -551
0 c-303 0 -551 2 -551 4 0 2 13 69 30 148 51 248 137 747 216 1251 l6 37 296
-2 296 -3 8 -40z"/>
</g>
</svg>
