<?xml version="1.0" standalone="no"?>
<!DOCTYPE svg PUBLIC "-//W3C//DTD SVG 20010904//EN"
 "http://www.w3.org/TR/2001/REC-SVG-20010904/DTD/svg10.dtd">
<svg version="1.0" xmlns="http://www.w3.org/2000/svg"
 width="1280.000000pt" height="788.000000pt" viewBox="0 0 1280.000000 788.000000"
 preserveAspectRatio="xMidYMid meet">
<metadata>
Created by potrace 1.15, written by Peter Selinger 2001-2017
</metadata>
<g transform="translate(0.000000,788.000000) scale(0.100000,-0.100000)"
fill="#000000" stroke="none">
<path d="M0 7520 l0 -360 452 -2 452 -3 102 -175 101 -175 674 0 674 0 101
175 102 175 1433 0 1432 0 101 -175 101 -175 670 -5 669 -5 34 55 c18 30 67
112 108 183 l75 127 1430 -2 1431 -3 101 -177 102 -177 669 -3 669 -3 19 30
c11 17 59 98 106 180 l87 150 453 3 452 2 0 360 0 360 -6400 0 -6400 0 0 -360z"/>
<path d="M905 6768 c-132 -25 -271 -132 -332 -255 -137 -275 22 -594 320 -646
127 -21 261 24 355 121 l52 55 0 -2377 c0 -2369 0 -2376 20 -2376 11 0 20 -4
20 -10 0 -13 87 -13 95 0 8 13 72 13 80 0 8 -13 152 -13 160 0 8 13 162 13
170 0 8 -13 152 -13 160 0 8 13 92 13 100 0 8 -14 115 -13 115 1 0 5 9 9 20 7
20 -3 20 1 20 2375 0 1307 1 2377 3 2377 1 0 32 -29 68 -64 73 -71 142 -103
243 -113 117 -11 254 42 341 131 246 253 107 687 -247 771 -53 12 -193 15
-888 14 -476 -1 -846 -5 -875 -11z m1800 -168 c191 -93 249 -341 115 -493 -98
-112 -273 -130 -380 -41 -46 40 -98 144 -71 144 5 0 11 -10 15 -23 11 -47 66
-108 119 -133 134 -62 286 1 350 145 26 59 20 176 -12 239 -29 58 -87 113
-147 142 -54 27 -164 39 -211 23 -20 -7 -35 -6 -53 4 -38 20 -1278 19 -1305
-1 -14 -10 -26 -11 -43 -5 -37 14 -125 10 -183 -8 -76 -24 -168 -116 -192
-192 -70 -220 108 -420 320 -360 58 16 137 90 148 137 7 33 25 44 25 17 0 -30
-40 -93 -80 -127 -126 -109 -340 -58 -420 99 -21 41 -25 62 -25 138 0 78 4 97
27 141 43 82 122 150 199 173 21 6 359 9 894 8 l860 -2 50 -25z m-390 -90 c-4
-6 -193 -10 -535 -10 -342 0 -531 4 -535 10 -4 7 177 10 535 10 358 0 539 -3
535 -10z m-1221 -66 c42 -22 66 -44 66 -62 0 -9 -12 -4 -35 17 -71 62 -161 63
-225 2 -47 -45 -60 -97 -37 -147 24 -48 58 -68 112 -62 51 6 51 -8 0 -18 -85
-16 -162 79 -136 166 32 109 150 157 255 104z m1171 16 c-4 -6 -177 -10 -485
-10 -308 0 -481 4 -485 10 -4 7 160 10 485 10 325 0 489 -3 485 -10z m338 -1
c83 -23 137 -105 123 -185 -14 -74 -101 -123 -162 -91 -27 14 -26 14 24 9 48
-4 54 -2 87 31 27 27 35 43 35 72 0 88 -64 149 -157 149 -43 0 -61 -6 -98 -32
-49 -35 -55 -37 -55 -23 0 22 107 79 150 81 8 0 32 -5 53 -11z m-1413 -109 c0
-5 -4 -10 -9 -10 -6 0 -13 5 -16 10 -3 6 1 10 9 10 9 0 16 -4 16 -10z m1030 0
c0 -7 -151 -10 -434 -10 -279 0 -437 4 -441 10 -4 7 143 10 434 10 287 0 441
-3 441 -10z m175 0 c-3 -5 -11 -10 -16 -10 -6 0 -7 5 -4 10 3 6 11 10 16 10 6
0 7 -4 4 -10z m-1185 -110 c0 -5 -4 -10 -10 -10 -5 0 -10 5 -10 10 0 6 5 10
10 10 6 0 10 -4 10 -10z m1000 0 c0 -7 -148 -10 -425 -10 -277 0 -425 3 -425
10 0 7 148 10 425 10 277 0 425 -3 425 -10z m160 0 c0 -5 -4 -10 -10 -10 -5 0
-10 5 -10 10 0 6 5 10 10 10 6 0 10 -4 10 -10z m-160 -40 c0 -7 -150 -10 -430
-10 -280 0 -430 3 -430 10 0 7 150 10 430 10 280 0 430 -3 430 -10z m20 -90
c0 -7 -157 -10 -450 -10 -293 0 -450 3 -450 10 0 7 157 10 450 10 293 0 450
-3 450 -10z m30 -49 c0 -4 -216 -9 -480 -9 -293 0 -478 3 -475 9 8 12 955 12
955 0z"/>
<path d="M5513 6766 c-86 -21 -164 -66 -231 -132 -265 -264 -133 -704 231
-767 127 -21 257 23 353 120 l54 55 0 -2380 c0 -2375 0 -2380 20 -2375 11 3
20 0 20 -6 0 -14 86 -15 95 -1 8 13 72 13 80 0 3 -5 39 -10 80 -10 41 0 77 5
80 10 3 6 42 10 85 10 43 0 82 -4 85 -10 8 -13 155 -13 155 0 0 6 22 10 49 10
28 0 53 -4 56 -10 9 -14 115 -13 115 1 0 6 9 9 20 6 20 -5 20 0 20 2375 l0
2380 54 -55 c96 -98 231 -143 358 -119 361 67 489 503 226 766 -69 68 -156
116 -246 135 -80 17 -1689 14 -1759 -3z m1811 -166 c63 -32 124 -93 156 -156
19 -37 26 -69 28 -130 3 -71 1 -88 -23 -137 -67 -142 -235 -207 -370 -143 -27
13 -60 34 -71 47 -32 35 -64 91 -64 112 0 29 18 19 25 -15 11 -47 90 -121 148
-137 130 -37 262 28 320 158 16 36 18 60 15 122 -4 66 -10 86 -38 132 -39 65
-111 123 -176 143 -50 15 -146 18 -179 5 -11 -5 -30 -2 -45 6 -38 20 -1278 19
-1305 -1 -14 -10 -26 -11 -43 -5 -35 13 -123 11 -176 -5 -65 -20 -137 -78
-176 -143 -28 -46 -34 -66 -38 -132 -3 -62 -1 -86 15 -122 58 -130 190 -195
320 -158 58 16 137 90 148 137 7 34 25 44 25 15 0 -21 -32 -77 -64 -112 -35
-39 -114 -71 -177 -71 -164 0 -289 124 -289 288 0 82 11 119 57 189 36 55 114
114 173 131 23 7 345 10 895 9 l860 -2 49 -25z m-389 -90 c-4 -6 -193 -10
-535 -10 -342 0 -531 4 -535 10 -4 7 177 10 535 10 358 0 539 -3 535 -10z
m-1216 -70 c40 -20 67 -47 58 -56 -3 -4 -20 5 -37 19 -69 59 -161 58 -222 -3
-61 -61 -64 -137 -6 -185 28 -24 39 -27 82 -22 48 4 49 4 22 -10 -39 -20 -88
-9 -125 28 -39 39 -48 87 -27 143 40 104 149 141 255 86z m1166 20 c-4 -6
-177 -10 -485 -10 -308 0 -481 4 -485 10 -4 7 160 10 485 10 325 0 489 -3 485
-10z m337 0 c79 -22 138 -109 124 -184 -14 -73 -102 -124 -162 -93 -27 14 -26
14 22 10 43 -5 54 -2 82 22 58 48 55 124 -6 185 -61 61 -153 62 -222 3 -32
-27 -53 -25 -30 2 22 27 100 62 140 64 8 1 32 -4 52 -9z m-1412 -110 c0 -5 -4
-10 -9 -10 -6 0 -13 5 -16 10 -3 6 1 10 9 10 9 0 16 -4 16 -10z m1030 0 c0 -7
-153 -10 -440 -10 -287 0 -440 3 -440 10 0 7 153 10 440 10 287 0 440 -3 440
-10z m175 0 c-3 -5 -10 -10 -16 -10 -5 0 -9 5 -9 10 0 6 7 10 16 10 8 0 12 -4
9 -10z m-1185 -110 c0 -5 -4 -10 -10 -10 -5 0 -10 5 -10 10 0 6 5 10 10 10 6
0 10 -4 10 -10z m1000 0 c0 -7 -150 -10 -430 -10 -280 0 -430 3 -430 10 0 7
150 10 430 10 280 0 430 -3 430 -10z m160 0 c0 -5 -4 -10 -10 -10 -5 0 -10 5
-10 10 0 6 5 10 10 10 6 0 10 -4 10 -10z m-160 -40 c0 -7 -150 -10 -430 -10
-280 0 -430 3 -430 10 0 7 150 10 430 10 280 0 430 -3 430 -10z m20 -90 c0 -7
-157 -10 -450 -10 -293 0 -450 3 -450 10 0 7 157 10 450 10 293 0 450 -3 450
-10z m30 -49 c0 -5 -207 -9 -480 -9 -279 0 -480 4 -480 9 0 5 201 9 480 9 273
0 480 -4 480 -9z"/>
<path d="M10126 6764 c-247 -60 -411 -320 -355 -563 26 -115 117 -234 217
-285 177 -89 350 -68 481 60 36 35 67 64 68 64 2 0 3 -1070 3 -2377 0 -2374 0
-2378 20 -2375 11 2 20 -2 20 -7 0 -6 20 -11 45 -11 25 0 45 5 45 10 0 13 77
13 85 0 3 -5 39 -10 80 -10 41 0 77 5 80 10 8 13 165 13 165 0 0 -13 147 -13
155 0 8 13 102 13 110 0 8 -13 102 -13 110 0 3 6 15 10 26 10 19 0 19 31 19
2376 l0 2377 53 -55 c93 -97 232 -144 359 -120 241 45 401 273 359 512 -35
195 -193 354 -385 389 -40 7 -331 11 -880 10 -673 -1 -832 -3 -880 -15z m1816
-163 c64 -32 122 -91 155 -154 24 -45 28 -64 28 -142 0 -76 -4 -97 -25 -138
-80 -157 -294 -208 -420 -99 -40 34 -80 97 -80 127 0 27 18 16 25 -17 11 -47
90 -121 148 -137 212 -60 390 140 320 360 -24 76 -116 168 -192 192 -55 17
-151 22 -185 8 -12 -4 -31 -2 -47 6 -22 11 -145 13 -665 9 -833 -5 -837 -5
-898 -35 -60 -30 -118 -86 -147 -143 -32 -63 -38 -180 -12 -239 64 -144 216
-207 350 -145 53 25 108 86 119 133 6 23 24 32 24 13 0 -23 -29 -78 -59 -112
-72 -82 -224 -103 -324 -45 -96 56 -150 150 -149 257 0 112 51 211 139 271 88
61 41 58 983 56 l865 -2 47 -24z m-387 -91 c-4 -6 -193 -10 -535 -10 -342 0
-531 4 -535 10 -4 7 177 10 535 10 358 0 539 -3 535 -10z m-1208 -76 c42 -25
59 -41 50 -50 -3 -3 -26 10 -51 28 -112 78 -256 13 -256 -117 0 -29 8 -45 35
-72 33 -33 39 -35 87 -31 50 5 51 5 24 -9 -61 -32 -148 17 -162 91 -14 77 32
152 112 182 49 18 107 10 161 -22z m1158 26 c-4 -6 -177 -10 -485 -10 -308 0
-481 4 -485 10 -4 7 160 10 485 10 325 0 489 -3 485 -10z m380 -19 c37 -21 72
-72 81 -116 15 -82 -64 -165 -142 -151 -50 10 -50 24 1 18 54 -6 88 14 112 62
23 50 10 102 -37 147 -62 59 -151 60 -220 2 -32 -27 -53 -25 -30 2 15 18 61
43 100 56 34 11 99 2 135 -20z m-1460 -91 c3 -5 2 -10 -4 -10 -5 0 -13 5 -16
10 -3 6 -2 10 4 10 5 0 13 -4 16 -10z m1030 0 c-4 -6 -162 -10 -441 -10 -283
0 -434 3 -434 10 0 7 154 10 441 10 291 0 438 -3 434 -10z m180 0 c-3 -5 -10
-10 -16 -10 -5 0 -9 5 -9 10 0 6 7 10 16 10 8 0 12 -4 9 -10z m-1185 -110 c0
-5 -4 -10 -10 -10 -5 0 -10 5 -10 10 0 6 5 10 10 10 6 0 10 -4 10 -10z m990 0
c0 -7 -148 -10 -425 -10 -277 0 -425 3 -425 10 0 7 148 10 425 10 277 0 425
-3 425 -10z m170 0 c0 -5 -4 -10 -10 -10 -5 0 -10 5 -10 10 0 6 5 10 10 10 6
0 10 -4 10 -10z m-160 -40 c0 -7 -150 -10 -430 -10 -280 0 -430 3 -430 10 0 7
150 10 430 10 280 0 430 -3 430 -10z m20 -90 c0 -7 -157 -10 -450 -10 -293 0
-450 3 -450 10 0 7 157 10 450 10 293 0 450 -3 450 -10z m24 -49 c3 -5 -197
-9 -474 -9 -279 0 -480 4 -480 9 0 12 947 12 954 0z"/>
<path d="M1230 1245 c0 -13 68 -15 550 -15 482 0 550 2 550 15 0 13 -68 15
-550 15 -482 0 -550 -2 -550 -15z"/>
<path d="M5850 1245 c0 -13 68 -15 550 -15 482 0 550 2 550 15 0 13 -68 15
-550 15 -482 0 -550 -2 -550 -15z"/>
<path d="M10470 1245 c0 -13 68 -15 550 -15 482 0 550 2 550 15 0 13 -68 15
-550 15 -482 0 -550 -2 -550 -15z"/>
<path d="M1204 1175 l-1 -35 577 0 576 0 0 35 0 35 -575 0 -576 0 -1 -35z"/>
<path d="M5824 1175 l-1 -35 577 0 577 0 -1 35 -1 35 -575 0 -575 0 -1 -35z"/>
<path d="M10444 1175 l-1 -35 577 0 577 0 -1 35 -1 35 -575 0 -575 0 -1 -35z"/>
<path d="M1187 1123 c-4 -3 -7 -10 -7 -15 0 -4 270 -8 600 -8 345 0 600 4 600
9 0 5 -7 12 -16 15 -21 8 -1169 8 -1177 -1z"/>
<path d="M5807 1123 c-4 -3 -7 -10 -7 -15 0 -4 270 -8 600 -8 345 0 600 4 600
9 0 5 -7 12 -16 15 -21 8 -1169 8 -1177 -1z"/>
<path d="M10427 1123 c-4 -3 -7 -10 -7 -15 0 -4 270 -8 600 -8 345 0 600 4
600 9 0 5 -7 12 -16 15 -21 8 -1169 8 -1177 -1z"/>
<path d="M1129 1078 c-24 -9 -27 -73 -3 -82 9 -3 305 -6 659 -6 572 0 645 2
659 16 19 19 20 35 3 57 -11 16 -59 18 -655 20 -354 1 -652 -1 -663 -5z"/>
<path d="M5750 1082 c-20 -7 -30 -40 -20 -66 l10 -26 652 0 c359 0 658 4 664
8 19 12 25 47 11 65 -11 16 -59 18 -660 20 -356 1 -652 0 -657 -1z"/>
<path d="M10358 1068 c-21 -21 -22 -32 -8 -59 10 -18 28 -19 663 -19 495 0
656 3 665 12 19 19 15 69 -5 74 -10 3 -306 6 -658 7 -598 2 -641 1 -657 -15z"/>
<path d="M1155 925 l0 -45 625 0 625 0 0 45 0 45 -625 0 -625 0 0 -45z"/>
<path d="M5775 925 l-1 -45 626 0 625 0 0 45 0 45 -625 0 -625 0 0 -45z"/>
<path d="M10395 925 l0 -45 625 0 625 0 0 45 0 45 -625 0 -625 0 0 -45z"/>
<path d="M1130 845 c0 -13 79 -15 650 -15 571 0 650 2 650 15 0 13 -79 15
-650 15 -571 0 -650 -2 -650 -15z"/>
<path d="M5750 845 c0 -13 79 -15 650 -15 571 0 650 2 650 15 0 13 -79 15
-650 15 -571 0 -650 -2 -650 -15z"/>
<path d="M10370 845 c0 -13 79 -15 650 -15 571 0 650 2 650 15 0 13 -79 15
-650 15 -571 0 -650 -2 -650 -15z"/>
<path d="M1114 796 c-3 -8 -4 -27 -2 -43 l3 -28 662 -3 662 -2 12 21 c8 16 8
28 0 45 l-11 24 -660 0 c-560 0 -661 -2 -666 -14z"/>
<path d="M5730 791 c-7 -13 -7 -28 0 -45 l10 -26 661 2 c651 3 662 3 669 23 4
11 4 30 -1 43 l-8 22 -660 0 c-643 0 -661 -1 -671 -19z"/>
<path d="M10349 789 c-8 -16 -8 -28 0 -45 l11 -24 652 0 c359 0 659 4 666 9 8
5 12 22 10 42 l-3 34 -662 3 -662 2 -12 -21z"/>
<path d="M1155 655 l0 -45 625 0 625 0 0 45 0 45 -625 0 -625 0 0 -45z"/>
<path d="M5775 655 l0 -45 625 0 625 0 0 45 0 45 -625 0 -626 0 1 -45z"/>
<path d="M10395 655 l0 -45 625 0 625 0 0 45 1 45 -626 0 -625 0 0 -45z"/>
<path d="M1130 575 c0 -13 79 -15 650 -15 571 0 650 2 650 15 0 13 -79 15
-650 15 -571 0 -650 -2 -650 -15z"/>
<path d="M5750 575 c0 -13 79 -15 650 -15 571 0 650 2 650 15 0 13 -79 15
-650 15 -571 0 -650 -2 -650 -15z"/>
<path d="M10370 575 c0 -13 78 -15 651 -15 516 0 650 3 647 13 -4 9 -145 13
-651 15 -571 2 -647 0 -647 -13z"/>
<path d="M1114 526 c-3 -8 -4 -27 -2 -43 l3 -28 662 -3 662 -2 12 21 c8 16 8
28 0 45 l-11 24 -660 0 c-560 0 -661 -2 -666 -14z"/>
<path d="M5729 519 c-8 -16 -8 -28 0 -45 l11 -24 661 2 c651 3 662 3 669 23 4
11 4 30 -1 43 l-8 22 -660 0 -660 0 -12 -21z"/>
<path d="M10349 519 c-8 -16 -8 -28 0 -45 l11 -24 662 2 663 3 3 34 c2 20 -2
37 -10 42 -7 5 -306 9 -665 9 l-652 0 -12 -21z"/>
<path d="M1037 423 c-14 -14 -7 -81 9 -87 9 -3 341 -6 739 -6 644 0 725 2 739
16 19 18 21 55 4 72 -9 9 -189 12 -748 12 -405 0 -740 -3 -743 -7z"/>
<path d="M5650 410 c-12 -22 -4 -60 14 -72 6 -4 337 -8 736 -8 399 0 730 4
736 8 18 12 26 50 14 72 -11 20 -16 20 -750 20 -734 0 -739 0 -750 -20z"/>
<path d="M10272 418 c-17 -17 -15 -54 4 -72 14 -14 95 -16 742 -16 400 0 733
4 740 9 8 5 12 23 10 47 l-3 39 -740 3 c-568 2 -744 -1 -753 -10z"/>
<path d="M872 308 c-15 -15 -15 -43 -2 -69 10 -19 31 -19 908 -19 685 0 901 3
910 12 15 15 15 61 0 76 -17 17 -1799 17 -1816 0z"/>
<path d="M5492 308 c-7 -7 -12 -24 -12 -38 0 -14 5 -31 12 -38 17 -17 1799
-17 1816 0 7 7 12 24 12 38 0 14 -5 31 -12 38 -17 17 -1799 17 -1816 0z"/>
<path d="M10112 308 c-16 -16 -15 -63 2 -77 10 -8 256 -10 912 -9 l899 3 9 28
c7 19 7 33 0 45 -10 16 -77 17 -911 20 -691 2 -902 -1 -911 -10z"/>
<path d="M704 196 c-3 -8 -4 -29 -2 -48 l3 -33 1069 -3 c781 -1 1072 1 1082 9
17 14 18 61 2 77 -9 9 -263 12 -1080 12 -909 0 -1069 -2 -1074 -14z"/>
<path d="M5318 185 c-8 -19 -8 -31 0 -50 l12 -25 1070 0 1070 0 12 25 c8 19 8
31 0 50 l-12 25 -1070 0 -1070 0 -12 -25z"/>
<path d="M9942 198 c-16 -16 -15 -63 2 -77 10 -8 301 -10 1082 -9 l1069 3 0
45 0 45 -1070 3 c-825 2 -1074 -1 -1083 -10z"/>
<path d="M478 89 c-21 -12 -24 -62 -4 -78 10 -8 362 -10 1317 -9 l1304 3 3 33
c7 67 109 62 -1312 62 -858 -1 -1297 -4 -1308 -11z"/>
<path d="M5091 86 c-7 -8 -11 -30 -9 -48 l3 -33 1315 0 1315 0 3 33 c7 67 110
62 -1318 62 -1115 0 -1299 -2 -1309 -14z"/>
<path d="M9711 86 c-7 -8 -11 -30 -9 -48 l3 -33 1304 -3 c955 -1 1307 1 1317
9 21 17 17 66 -5 79 -13 7 -439 10 -1309 10 -1108 0 -1291 -2 -1301 -14z"/>
</g>
</svg>
