<?xml version="1.0" standalone="no"?>
<!DOCTYPE svg PUBLIC "-//W3C//DTD SVG 20010904//EN"
 "http://www.w3.org/TR/2001/REC-SVG-20010904/DTD/svg10.dtd">
<svg version="1.0" xmlns="http://www.w3.org/2000/svg"
 width="1031.000000pt" height="1280.000000pt" viewBox="0 0 1031.000000 1280.000000"
 preserveAspectRatio="xMidYMid meet">
<metadata>
Created by potrace 1.15, written by Peter Selinger 2001-2017
</metadata>
<g transform="translate(0.000000,1280.000000) scale(0.100000,-0.100000)"
fill="#000000" stroke="none">
<path d="M4695 12776 c-27 -12 -56 -30 -64 -40 -13 -15 -15 -15 -32 0 -18 16
-19 16 -19 -5 0 -12 -11 -44 -25 -71 -25 -49 -32 -94 -17 -117 4 -7 23 -19 42
-27 38 -16 39 -15 -55 -42 -40 -11 -71 -28 -94 -51 -35 -35 -36 -46 -10 -109
12 -30 11 -33 -16 -57 -29 -24 -29 -25 -11 -51 9 -15 32 -36 50 -46 24 -15 35
-31 44 -65 7 -26 24 -57 37 -71 l25 -25 -21 -18 c-26 -21 -20 -50 12 -58 l22
-6 -23 -17 c-19 -15 -21 -20 -10 -39 7 -15 9 -40 5 -71 -5 -38 -3 -48 9 -53
10 -4 16 -18 16 -38 0 -18 10 -46 24 -64 21 -28 23 -33 10 -55 -18 -34 -17
-56 5 -115 37 -100 41 -117 29 -138 -15 -28 -4 -328 16 -437 9 -47 25 -116 36
-155 11 -38 20 -88 20 -110 0 -22 11 -85 25 -140 35 -138 39 -183 26 -258 -24
-141 25 -129 139 34 31 45 45 59 48 47 6 -29 -40 -108 -98 -170 -60 -63 -75
-68 -111 -39 -26 20 -26 31 -14 186 7 79 -6 165 -24 165 -9 0 -83 -163 -112
-248 -26 -76 -34 -175 -20 -244 10 -45 20 -64 47 -87 46 -41 73 -39 163 9 41
22 77 37 80 34 7 -7 -29 -41 -85 -77 -32 -21 -58 -49 -76 -82 -37 -67 -36 -88
4 -106 18 -8 45 -32 61 -55 24 -35 27 -44 17 -69 -22 -58 -3 -60 55 -6 29 28
56 51 59 51 15 0 1 -24 -53 -91 -41 -50 -61 -83 -64 -108 -2 -20 -10 -50 -18
-68 -19 -46 -5 -51 40 -15 66 53 85 39 25 -19 -57 -55 -58 -58 -9 -130 25 -35
54 -88 66 -116 12 -29 26 -53 32 -53 6 0 23 11 37 25 22 21 29 23 38 12 9 -10
-8 -42 -74 -141 -91 -136 -137 -238 -175 -390 -19 -75 -20 -93 -10 -128 16
-52 49 -85 96 -94 30 -5 40 -3 47 10 12 22 48 21 48 -1 -1 -10 -7 -29 -15 -43
-8 -14 -14 -37 -15 -52 0 -16 -19 -69 -42 -120 -36 -82 -42 -103 -46 -186 -5
-89 2 -139 40 -315 12 -56 25 -68 33 -30 4 15 13 48 21 73 9 25 24 77 34 115
11 39 32 102 46 140 15 39 35 93 46 121 22 59 44 94 60 94 14 0 9 -20 -58
-205 -31 -88 -75 -225 -97 -305 l-40 -145 -2 -225 c-2 -124 -6 -269 -10 -322
-4 -54 -4 -98 0 -98 4 0 35 19 70 41 54 36 67 51 96 110 18 38 39 69 46 69 15
0 17 -24 3 -50 -7 -13 -6 -19 5 -24 8 -3 15 -11 15 -19 0 -15 -52 -65 -95 -92
-176 -106 -201 -176 -192 -528 6 -251 21 -322 62 -311 44 11 31 -30 -25 -78
-27 -24 -50 -49 -50 -55 0 -9 -21 -13 -70 -13 l-70 0 0 -250 0 -249 -156 -3
-156 -3 1 -392 2 -393 -34 0 -34 0 -6 363 c-4 199 -14 1114 -22 2032 -9 919
-18 1694 -21 1723 l-5 52 -110 0 -109 0 0 118 c0 64 -3 134 -7 155 l-6 38
-206 -3 -205 -3 -57 185 c-31 102 -69 225 -83 274 -17 53 -37 98 -52 113 l-24
24 -1 522 c-2 701 -11 1152 -24 1152 -7 0 -12 -289 -17 -834 -6 -810 -7 -835
-25 -850 -27 -22 -36 -50 -83 -246 -22 -93 -47 -195 -56 -225 -9 -30 -18 -66
-21 -80 -11 -50 -30 -60 -113 -60 -42 0 -130 -3 -196 -6 l-119 -7 3 -138 4
-139 -97 0 -97 0 6 -402 c4 -222 11 -833 17 -1358 5 -525 14 -1315 19 -1755 5
-440 9 -928 8 -1085 l-1 -285 -7 400 c-4 220 -11 646 -15 948 l-7 547 -63 0
-63 0 -6 87 c-3 49 -8 169 -11 268 -3 99 -8 210 -11 247 l-6 67 -51 3 -52 3
-7 130 c-4 72 -10 206 -13 298 l-7 168 -47 -3 -46 -2 -6 104 c-4 58 -7 122 -8
143 -1 35 -3 37 -34 37 l-34 0 -6 336 c-6 311 -9 355 -21 343 -3 -3 -8 -156
-12 -341 -7 -330 -7 -337 -28 -342 -12 -3 -36 -6 -55 -6 l-34 0 6 -139 7 -139
-31 -6 c-18 -3 -51 -6 -74 -6 l-42 0 4 -87 c12 -245 20 -509 16 -515 -2 -5
-32 -8 -65 -8 l-61 0 6 -92 c4 -51 9 -183 12 -293 3 -110 8 -215 11 -232 l5
-33 -47 0 -47 0 6 -537 c4 -296 10 -721 14 -946 l6 -407 -307 0 -307 0 7 -740
7 -740 -339 0 c-186 0 -423 -3 -526 -7 l-188 -6 0 -391 c0 -215 3 -732 7
-1149 l6 -759 1446 6 c795 3 1885 8 2421 11 536 3 1792 7 2790 10 998 3 2226
8 2728 11 l912 6 0 392 c0 215 -3 732 -7 1149 l-6 757 -734 0 -733 0 0 735 0
735 -135 0 -135 0 0 623 c0 343 -3 969 -7 1390 l-6 767 -74 0 -73 0 0 293 c0
160 -3 329 -7 375 l-6 82 -158 0 -159 0 -1 253 c-1 138 -4 376 -8 527 l-6 275
-82 -3 c-45 -2 -95 -1 -112 3 l-31 7 0 511 c0 282 -3 576 -7 655 l-6 142 -29
0 -30 0 4 -654 3 -655 -29 -5 c-16 -3 -64 -6 -108 -6 l-80 0 8 -530 7 -530
-153 0 -152 0 3 -370 4 -370 -112 0 -113 0 0 -1035 0 -1035 -90 0 -90 0 0 400
0 400 -90 0 -90 0 0 250 0 250 -160 0 -160 0 0 113 c0 260 -21 801 -31 814 -6
7 -27 15 -48 19 -74 14 -58 56 19 47 l48 -6 7 53 c10 72 -2 80 -61 41 -52 -34
-60 -36 -69 -21 -9 15 11 36 78 82 l58 39 -2 125 c-2 113 2 146 16 132 11 -11
27 -121 30 -218 l4 -105 28 -3 c16 -2 42 2 57 8 l29 11 -7 72 c-3 40 -10 119
-15 177 -5 58 -26 200 -45 315 -41 242 -89 549 -106 683 -11 78 -16 92 -31 92
-24 0 -24 9 1 40 25 32 25 33 -6 80 -16 24 -24 46 -20 56 5 13 9 15 18 6 23
-23 30 -12 23 38 -4 33 -3 50 4 50 13 0 17 -30 31 -208 6 -78 15 -155 20 -170
5 -15 19 -90 30 -167 28 -191 20 -177 83 -154 77 28 96 47 127 124 27 69 76
311 68 336 -2 7 -20 -13 -39 -44 -31 -53 -47 -66 -62 -51 -8 8 6 36 95 191 60
105 69 126 63 153 -6 27 -4 31 11 28 36 -7 36 -55 -2 -129 -18 -38 -34 -71
-34 -75 0 -20 70 12 108 49 68 65 192 256 192 295 0 10 -18 44 -40 75 -22 30
-40 58 -40 61 0 3 11 6 24 6 31 0 63 40 72 89 4 20 13 46 21 58 13 19 12 23
-9 37 -12 9 -26 16 -30 16 -5 0 -25 10 -46 23 -20 13 -94 53 -164 90 l-127 67
-56 -54 c-30 -30 -55 -60 -55 -67 0 -7 -25 -54 -55 -105 -45 -74 -60 -111 -76
-186 -20 -90 -40 -138 -59 -138 -20 0 -21 24 -2 68 11 26 23 70 26 97 4 28 19
76 33 108 32 68 30 74 -46 132 -66 51 -108 114 -116 173 -9 66 -40 191 -59
235 -12 30 -26 42 -69 62 -30 13 -79 28 -110 34 -31 6 -70 17 -87 26 -35 18
-47 14 -60 -21 -7 -17 -17 -24 -35 -24 -20 0 -30 -11 -55 -60 -17 -33 -34 -60
-40 -60 -25 0 -17 32 34 137 31 63 56 116 56 119 0 21 -132 -22 -197 -66 -45
-29 -70 -29 -58 1 3 8 32 32 64 54 33 22 57 43 54 48 -2 4 -19 7 -36 7 -46 0
-131 25 -171 49 -46 29 -155 145 -207 222 -53 79 -103 134 -153 171 l-39 28 2
69 c2 54 -3 82 -23 132 -15 34 -23 66 -18 71 7 7 86 -1 170 -18 25 -5 32 -10
27 -23 -3 -8 -9 -45 -12 -81 -4 -48 -13 -76 -34 -109 l-29 -44 48 -51 c26 -28
56 -62 67 -77 11 -14 27 -28 36 -31 9 -4 19 -21 23 -39 4 -23 30 -57 89 -115
88 -88 103 -96 228 -113 82 -11 93 -7 84 33 -15 65 -15 71 -6 85 14 22 27 6
77 -90 69 -134 128 -178 272 -203 23 -4 32 -2 32 8 0 20 -26 38 -79 56 -41 13
-50 22 -78 75 -67 126 -110 273 -83 290 16 10 11 82 -10 142 -24 69 -26 122
-5 137 14 10 14 18 0 74 -9 35 -14 70 -11 77 7 19 65 33 169 41 48 4 90 10 92
14 2 4 -44 12 -103 18 -111 13 -126 20 -137 63 -6 24 -2 28 57 54 189 85 275
131 206 111 -76 -23 -263 -66 -283 -66 -28 0 -79 56 -68 74 8 12 22 31 91 118
68 85 63 103 -12 41 -91 -77 -159 -123 -181 -123 -40 0 -92 28 -98 52 -3 13
-15 71 -27 131 -13 59 -26 107 -30 107 -4 0 -11 -44 -14 -97 -12 -164 -10
-160 -71 -178 -29 -8 -63 -15 -75 -15 -12 0 -63 31 -114 69 -51 38 -104 74
-117 81 -23 13 -23 12 -9 -6 8 -10 48 -57 88 -103 39 -46 72 -89 72 -95 0 -7
-15 -26 -33 -44 -32 -31 -36 -32 -114 -32 -44 0 -108 3 -142 6 l-61 7 -1 51
c0 28 -4 71 -8 96 -5 25 -16 90 -25 145 -9 55 -31 147 -48 205 -30 101 -31
113 -36 345 l-4 240 -30 60 c-17 33 -39 69 -49 81 -17 18 -18 27 -10 60 39
147 32 134 72 134 71 0 118 63 79 105 -18 19 -20 27 -11 43 6 12 11 41 11 67
0 65 -26 88 -126 110 -96 21 -116 35 -51 35 47 0 49 1 67 43 15 31 20 65 20
133 0 88 -1 91 -25 102 -35 16 -43 15 -100 -12z m1255 -6386 c0 -17 -42 -405
-56 -517 -6 -50 -8 -53 -36 -53 l-29 0 6 58 c7 76 23 182 46 324 10 64 19 119
19 122 0 14 -34 4 -93 -29 -73 -40 -87 -43 -87 -16 0 13 26 32 90 66 49 26 95
54 101 61 14 17 39 7 39 -16z"/>
<path d="M6404 6859 c-18 -19 -19 -37 -17 -223 2 -177 23 -429 41 -476 10 -29
21 76 22 225 0 83 6 170 11 195 6 25 16 88 23 140 7 52 18 105 24 117 20 36
14 43 -36 43 -37 0 -54 -5 -68 -21z"/>
</g>
</svg>
