<?xml version="1.0" standalone="no"?>
<!DOCTYPE svg PUBLIC "-//W3C//DTD SVG 20010904//EN"
 "http://www.w3.org/TR/2001/REC-SVG-20010904/DTD/svg10.dtd">
<svg version="1.0" xmlns="http://www.w3.org/2000/svg"
 width="991.000000pt" height="1280.000000pt" viewBox="0 0 991.000000 1280.000000"
 preserveAspectRatio="xMidYMid meet">
<metadata>
Created by potrace 1.15, written by Peter Selinger 2001-2017
</metadata>
<g transform="translate(0.000000,1280.000000) scale(0.100000,-0.100000)"
fill="#000000" stroke="none">
<path d="M5680 12781 c-19 -10 -54 -45 -77 -77 -53 -75 -89 -94 -258 -134
-189 -45 -251 -90 -271 -200 l-6 -35 27 40 c59 88 108 99 265 61 177 -44 213
-36 317 71 65 66 76 74 105 71 l33 -3 3 -406 2 -406 -75 -499 c-42 -274 -143
-947 -226 -1494 l-150 -995 -87 -87 -87 -88 -886 0 c-836 0 -887 -1 -891 -17
-3 -10 -124 -672 -269 -1470 l-264 -1453 -29 -10 c-16 -5 -33 -10 -37 -10 -5
0 -9 187 -9 415 l0 415 75 84 c41 46 75 87 75 91 0 3 -38 49 -85 103 -47 53
-87 106 -90 117 -2 11 -101 697 -220 1525 l-215 1505 0 733 0 733 -37 15 c-43
18 -92 13 -127 -13 -13 -10 -48 -58 -78 -107 -61 -103 -115 -148 -223 -190
-101 -40 -131 -61 -155 -110 -18 -38 -45 -195 -35 -205 2 -2 11 14 20 35 22
53 68 99 124 123 26 11 105 30 177 41 145 25 173 36 205 82 24 35 48 58 61 58
4 0 17 -9 28 -20 20 -20 20 -33 20 -597 l0 -578 -90 -575 c-86 -547 -127 -805
-205 -1305 -19 -121 -68 -433 -109 -693 l-75 -473 -86 -82 c-48 -44 -98 -89
-111 -100 -13 -10 -24 -23 -24 -28 0 -5 32 -51 70 -103 l70 -95 0 -670 0 -671
-210 0 -210 0 0 128 0 127 -270 0 -270 0 0 -77 c0 -68 2 -79 21 -89 28 -14 55
-78 70 -164 18 -107 45 -173 80 -190 l29 -16 0 -544 0 -545 -100 0 -100 0 0
115 0 115 -140 0 -140 0 0 -115 0 -116 -103 3 -102 3 0 113 0 112 -162 0 -163
0 0 -62 c0 -53 4 -67 24 -86 17 -16 30 -48 44 -110 27 -113 36 -137 66 -163
17 -15 27 -37 31 -68 40 -290 179 -543 346 -626 29 -15 55 -28 57 -30 1 -1 -4
-15 -13 -31 -25 -48 -19 -90 17 -129 45 -48 82 -54 132 -20 52 35 86 31 108
-15 17 -33 18 -117 18 -1327 l0 -1293 4335 0 4335 0 0 1273 c0 886 3 1284 11
1311 23 82 96 120 151 77 43 -34 84 -28 113 16 41 62 15 140 -58 176 l-37 19
0 720 0 720 25 20 c35 27 49 59 75 164 26 109 54 162 97 183 32 16 33 16 33
94 l0 77 -205 0 -205 0 0 136 0 136 100 113 c55 62 100 117 100 121 0 5 -49
58 -109 119 l-109 110 -126 820 c-113 737 -248 1610 -556 3599 l-100 649 0
747 0 748 -45 7 c-115 17 -199 -38 -235 -152 -38 -123 -61 -145 -218 -212
-116 -50 -156 -74 -187 -115 -30 -40 -52 -137 -38 -168 9 -20 10 -19 16 18 8
46 36 81 74 90 14 4 80 -3 147 -15 112 -21 124 -22 166 -7 30 10 57 29 80 57
81 96 104 116 147 124 23 3 47 4 53 0 7 -4 10 -186 10 -553 l-1 -547 -377
-2546 -378 -2547 -110 -116 c-60 -65 -110 -120 -111 -124 -1 -4 40 -54 92
-111 l95 -105 0 -138 0 -138 -200 0 -200 0 0 -76 c0 -69 2 -78 25 -96 34 -27
49 -57 81 -169 33 -117 58 -167 89 -181 l25 -11 0 -294 0 -293 -50 0 -50 0 0
115 0 115 -160 0 -160 0 0 -115 0 -115 -105 0 -105 0 0 115 0 115 -130 0 -130
0 0 420 0 419 30 43 c21 30 39 78 59 161 32 128 48 160 92 185 29 17 29 18 27
92 l-3 75 -277 3 -278 3 0 -131 0 -130 -175 0 -174 0 -3 128 -3 127 -32 3
c-18 2 -33 6 -33 8 0 3 16 26 35 51 19 25 35 49 35 53 0 5 -13 40 -30 78 l-30
71 0 809 c0 445 3 824 6 841 8 39 52 88 88 97 20 5 39 0 66 -15 52 -29 77 -26
116 13 50 50 43 106 -20 165 l-26 24 0 454 0 453 67 70 66 71 -78 79 -78 78
-203 1504 -203 1503 -1 501 0 502 -40 16 c-53 21 -87 20 -130 -3z"/>
</g>
</svg>
