<?xml version="1.0" encoding="UTF-8" standalone="no"?>
<!-- Created with Inkscape (http://www.inkscape.org/) -->

<svg
   xmlns:dc="http://purl.org/dc/elements/1.1/"
   xmlns:cc="http://creativecommons.org/ns#"
   xmlns:rdf="http://www.w3.org/1999/02/22-rdf-syntax-ns#"
   xmlns:svg="http://www.w3.org/2000/svg"
   xmlns="http://www.w3.org/2000/svg"
   xmlns:sodipodi="http://sodipodi.sourceforge.net/DTD/sodipodi-0.dtd"
   xmlns:inkscape="http://www.inkscape.org/namespaces/inkscape"
   width="81.023972mm"
   height="65.784576mm"
   viewBox="0 0 81.023972 65.784576"
   version="1.1"
   id="svg1967"
   inkscape:version="0.92.4 (5da689c313, 2019-01-14)"
   sodipodi:docname="Statue Of Liberty Logo.svg">
  <title
     id="title1982">Statue of Liberty Silhouette Logo</title>
  <defs
     id="defs1961" />
  <sodipodi:namedview
     id="base"
     pagecolor="#ffffff"
     bordercolor="#666666"
     borderopacity="1.0"
     inkscape:pageopacity="0.0"
     inkscape:pageshadow="2"
     inkscape:zoom="0.35"
     inkscape:cx="32.72799"
     inkscape:cy="381.78586"
     inkscape:document-units="mm"
     inkscape:current-layer="layer1"
     showgrid="false"
     fit-margin-top="0"
     fit-margin-left="0"
     fit-margin-right="0"
     fit-margin-bottom="0"
     inkscape:window-width="1920"
     inkscape:window-height="986"
     inkscape:window-x="-11"
     inkscape:window-y="-11"
     inkscape:window-maximized="1" />
  <metadata
     id="metadata1964">
    <rdf:RDF>
      <cc:Work
         rdf:about="">
        <dc:format>image/svg+xml</dc:format>
        <dc:type
           rdf:resource="http://purl.org/dc/dcmitype/StillImage" />
        <dc:title>Statue of Liberty Silhouette Logo</dc:title>
        <cc:license
           rdf:resource="http://creativecommons.org/publicdomain/zero/1.0/" />
        <dc:creator>
          <cc:Agent>
            <dc:title>Karen Arnold</dc:title>
          </cc:Agent>
        </dc:creator>
      </cc:Work>
      <cc:License
         rdf:about="http://creativecommons.org/publicdomain/zero/1.0/">
        <cc:permits
           rdf:resource="http://creativecommons.org/ns#Reproduction" />
        <cc:permits
           rdf:resource="http://creativecommons.org/ns#Distribution" />
        <cc:permits
           rdf:resource="http://creativecommons.org/ns#DerivativeWorks" />
      </cc:License>
    </rdf:RDF>
  </metadata>
  <g
     inkscape:label="Layer 1"
     inkscape:groupmode="layer"
     id="layer1"
     transform="translate(-97.174053,-184.06293)">
    <path
       style="fill:#000000;stroke-width:1"
       d="m 107.35019,249.81259 c 3.5e-4,-0.0192 0.68634,-0.46699 1.52457,-0.99508 0.83822,-0.52808 4.05877,-2.55727 7.15678,-4.5093 3.09801,-1.95203 7.33429,-4.62029 9.41397,-5.92947 l 3.78123,-2.38034 0.001,-0.49109 10e-4,-0.4911 -0.50043,-0.0566 c -1.03294,-0.11678 -1.42066,-0.25005 -1.78434,-0.61334 -0.25957,-0.2593 -0.51445,-0.75994 -0.54413,-1.0688 -0.0192,-0.1998 0.0695,-0.59802 0.20536,-0.92175 0.019,-0.0452 -0.1466,-0.0582 -0.7406,-0.0582 h -0.76501 l -0.0302,-0.42611 c -0.0166,-0.23437 -0.0303,-0.73713 -0.0303,-1.11724 0,-0.45781 -0.0167,-0.69113 -0.0496,-0.69113 -0.0418,0 -5.92988,-0.28172 -11.19264,-0.53552 -7.91855,-0.38188 -14.220102,-0.68232 -15.175816,-0.72354 -1.138057,-0.0491 -1.564319,-0.0947 -1.419826,-0.15197 0.0384,-0.0152 2.510296,-0.323 5.493092,-0.68396 5.80979,-0.70307 18.42986,-2.23437 21.35049,-2.59064 l 1.77555,-0.21659 0.0299,-0.2256 c 0.0274,-0.20658 0.0406,-0.22572 0.15634,-0.22694 0.0695,-7e-4 0.82479,0.18215 1.67835,0.4064 l 1.55193,0.40773 -0.0277,0.41989 -0.0277,0.41989 0.16149,-0.56902 c 0.25586,-0.90161 0.71591,-2.36395 0.91935,-2.92235 0.25152,-0.69035 0.3986,-0.93518 0.84776,-1.41118 0.20985,-0.22238 0.58779,-0.65571 0.83987,-0.96295 0.79083,-0.96385 2.14114,-2.25944 4.6018,-4.41529 1.42599,-1.24934 2.28854,-1.83185 3.89582,-2.63098 1.05011,-0.5221 1.52729,-0.72879 3.0794,-1.33384 1.77145,-0.69055 2.32264,-0.78944 4.20592,-0.75461 1.24681,0.0231 1.37733,0.0428 2.03901,0.30785 2.0012,0.8017 2.87397,1.2342 4.6877,2.32299 1.6498,0.99038 2.31362,1.44364 2.65615,1.81362 0.88289,0.95366 1.88771,2.43133 2.50591,3.68516 0.63472,1.28733 0.92275,2.04434 0.80543,2.11684 -0.1243,0.0768 -0.23532,-0.0631 -0.77162,-0.97257 -0.40269,-0.68289 -2.10293,-2.70698 -2.55239,-3.03855 -0.34504,-0.25454 -0.89419,-0.59545 -1.92937,-1.19772 -0.65655,-0.38199 -1.19095,-0.64636 -2.025,-1.00182 -1.22728,-0.52303 -3.57537,-1.66986 -3.8851,-1.89752 -0.15877,-0.1167 -0.46628,-0.52252 -0.69488,-0.91704 -0.0445,-0.0767 -0.0926,-0.0577 -0.55862,0.22061 -2.22729,1.33015 -2.98315,1.77185 -3.32635,1.94383 -1.33641,0.66967 -3.60996,2.07441 -4.77153,2.94816 -0.87039,0.65471 -3.31826,3.31612 -4.00411,4.35339 -0.24448,0.36976 -0.35086,0.70656 -0.25835,0.81802 0.13596,0.16383 0.30181,0.0424 0.76604,-0.56111 0.26846,-0.34897 0.71516,-0.73481 1.78928,-1.54549 0.90125,-0.6802 1.20702,-0.84814 2.04554,-1.12348 0.64924,-0.21319 2.69685,-0.76335 3.10641,-0.83464 0.41662,-0.0725 1.34582,-0.13695 2.21121,-0.15333 l 0.7681,-0.0145 0.0589,0.32587 c 0.0324,0.17922 0.0715,0.73435 0.0869,1.23361 0.0304,0.98742 -5.3e-4,1.21084 -0.24198,1.7572 -0.3699,0.83641 -1.39999,1.9713 -1.85651,2.04538 -0.14132,0.0229 -0.20399,0.003 -0.37743,-0.12185 -0.11438,-0.0821 -0.37008,-0.22492 -0.56821,-0.31728 -0.30219,-0.14086 -0.42412,-0.17118 -0.75658,-0.1881 -0.40324,-0.0205 -1.79067,0.0982 -2.10292,0.17999 -0.25481,0.0667 -0.56923,0.33858 -1.20479,1.04167 -0.65607,0.72577 -0.47443,0.61734 -2.39283,1.42834 -0.71613,0.30274 -1.38647,0.61125 -1.48965,0.68559 -0.39194,0.28238 -0.90854,1.09257 -1.38426,2.17094 l -0.24643,0.55861 -0.003,2.00172 c -0.002,1.4143 -0.0192,2.04945 -0.0582,2.16435 -0.0854,0.25137 -0.0681,0.34177 0.0814,0.42685 0.1989,0.11316 0.26611,0.27998 0.47121,1.16955 0.14263,0.61859 0.23233,0.89737 0.39337,1.22256 0.33686,0.68021 0.86965,1.25531 1.4225,1.53546 0.47846,0.24246 2.06438,0.62823 3.32538,0.80889 0.79814,0.11435 3.35049,0.19043 6.38879,0.19043 2.19366,0 2.66998,0.0328 3.73158,0.25694 0.62426,0.1318 1.33198,0.35988 1.45104,0.46762 0.3221,0.29149 -0.0119,0.75897 -1.01584,1.42179 -1.34054,0.88505 -2.71376,1.49539 -4.9461,2.1983 -1.09182,0.34379 -1.54489,0.45462 -2.86292,0.70036 -2.76699,0.51588 -3.98972,0.69558 -5.26033,0.77311 -0.79723,0.0486 -2.87828,0.13766 -2.89329,0.12376 -0.004,-0.004 -0.32579,-0.62453 -0.71532,-1.37983 -0.38953,-0.7553 -0.72377,-1.39019 -0.74275,-1.41086 -0.019,-0.0207 -0.86979,-0.078 -1.8907,-0.12728 l -1.85619,-0.0897 -3.18965,1.18336 c -1.75431,0.65084 -6.58083,2.44159 -10.7256,3.97942 -4.14478,1.53784 -7.5541,2.79607 -7.57628,2.79607 -0.0222,0 -0.0401,-0.0157 -0.0398,-0.0349 z m 43.87435,-15.86445 c -0.28164,-0.0599 -0.82629,-0.13177 -1.21034,-0.15965 -0.38405,-0.0279 -0.99155,-0.0713 -1.35,-0.0965 -0.64866,-0.0456 -1.3755,-0.0238 -3.38727,0.10157 -0.48042,0.0299 -0.88641,0.0415 -0.9022,0.0257 -0.0392,-0.0392 0.14981,-0.49461 0.31044,-0.7479 0.35355,-0.55748 1.21696,-0.76212 2.8618,-0.67827 1.2826,0.0654 2.03216,0.21341 3.32082,0.65583 0.85751,0.2944 1.12426,0.49986 1.12468,0.8663 0,0.13519 -0.0134,0.15079 -0.12784,0.14658 -0.0704,-0.003 -0.35845,-0.0537 -0.64009,-0.11366 z m 1.14189,-1.21489 c -0.61615,-0.62289 -1.00083,-0.92169 -1.6074,-1.24857 -0.63437,-0.34186 -0.9039,-0.39742 -2.39991,-0.49479 -1.5986,-0.10405 -2.14903,0.006 -3.16301,0.63434 -0.52242,0.32356 -0.78732,0.57611 -1.08127,1.03082 -0.33923,0.52477 -0.53134,0.56168 -0.51118,0.0982 0.0155,-0.35554 0.18207,-1.00583 0.31642,-1.23508 0.076,-0.12975 0.26828,-0.31306 0.54543,-0.52008 0.5086,-0.37991 0.73932,-0.49911 1.35905,-0.70215 0.60078,-0.19683 0.72155,-0.25963 0.72155,-0.37523 0,-0.14439 -0.12214,-0.40298 -0.25136,-0.53221 -0.10777,-0.10777 -0.15036,-0.11691 -0.54954,-0.11793 -0.98827,-0.003 -1.10971,-0.15829 -0.82992,-1.06442 0.35968,-1.16486 0.60657,-1.59471 1.15394,-2.00908 0.36076,-0.2731 1.11019,-0.66105 1.49066,-0.77166 0.40118,-0.11662 0.93479,-0.068 1.59311,0.14516 1.06114,0.3436 1.33739,0.52223 1.9678,1.27242 0.48621,0.57858 0.52752,0.64619 0.69094,1.13083 0.11247,0.33353 0.14847,0.52417 0.15244,0.80722 0.005,0.36024 0.002,0.37179 -0.11756,0.41446 -0.0941,0.0336 -0.21915,0.0137 -0.53534,-0.0854 -0.64662,-0.20256 -1.22789,-0.21934 -1.22676,-0.0354 0.001,0.15702 0.38116,0.56539 0.84495,0.90758 0.0937,0.0692 0.53928,0.46264 0.99009,0.87439 0.67874,0.61995 0.84357,0.79605 0.95886,1.02444 0.30735,0.60886 0.37558,1.44054 0.11818,1.44054 -0.0265,0 -0.31003,-0.2648 -0.63017,-0.58844 z m 6.63223,-6.41718 c -0.0256,-0.009 -0.10378,-0.0281 -0.17372,-0.0436 -0.18824,-0.0415 -0.43862,-0.2835 -0.57434,-0.55516 -0.34167,-0.68393 -1.15661,-1.50461 -1.81228,-1.82504 -0.64249,-0.31399 -0.98934,-0.3656 -2.24147,-0.33352 -1.18218,0.0303 -1.17886,0.0294 -1.55051,0.43599 l -0.24434,0.26735 -0.19593,-0.10394 c -0.59351,-0.31485 -0.91271,-0.80476 -1.13271,-1.7385 -0.11211,-0.47578 -0.12424,-0.61601 -0.12608,-1.45746 -0.002,-0.83535 0.009,-0.96453 0.10103,-1.2569 0.12491,-0.39489 0.31752,-0.63887 0.62895,-0.79668 0.85309,-0.43229 2.26676,-0.31544 4.35677,0.36012 0.62953,0.20348 1.15434,0.37972 1.16625,0.39163 0.0717,0.0717 -0.15171,0.0704 -1.14385,-0.006 -1.44052,-0.11167 -1.58594,-0.10595 -2.3527,0.0925 -0.98771,0.2556 -1.24557,0.3941 -1.24557,0.66903 0,0.16675 0.0971,0.16879 0.542,0.0114 0.34554,-0.12223 0.51942,-0.15268 1.07378,-0.18805 0.78428,-0.05 0.95601,-0.0251 1.82904,0.26527 0.89518,0.29777 1.07363,0.39386 2.28791,1.23199 1.2115,0.83621 1.398,0.99727 1.85442,1.60144 0.4202,0.55623 0.4855,0.67365 0.63055,1.13391 0.1383,0.43883 0.12344,0.59961 -0.0953,1.03123 -0.12403,0.24475 -0.23236,0.3356 -0.6509,0.54586 -0.3994,0.20065 -0.79275,0.31369 -0.93103,0.26757 z M 127.73,224.45803 c -0.8628,-0.10649 -1.5795,-0.2044 -1.59266,-0.21756 -0.0206,-0.0206 0.61122,-2.55693 0.64605,-2.59333 0.0178,-0.0186 2.97264,1.10699 3.0166,1.14916 0.0196,0.0189 -0.0589,0.4361 -0.17457,0.92721 -0.11567,0.49111 -0.2103,0.90342 -0.2103,0.91625 0,0.0289 0.16732,0.0469 -1.68512,-0.18173 z m 0.76606,-3.16344 c -0.82552,-0.234 -1.5011,-0.44751 -1.50129,-0.47446 -7e-4,-0.1112 1.07241,-2.32405 1.12112,-2.31172 0.0442,0.0112 2.63588,1.52776 2.69043,1.57436 0.043,0.0368 -0.67915,1.62438 -0.74171,1.63058 -0.0372,0.004 -0.74302,-0.18476 -1.56855,-0.41876 z m -14.09383,-7.71789 c -6.52886,-3.4582 -11.87938,-6.2958 -11.89005,-6.30577 -0.0107,-0.01 -0.006,-0.0312 0.01,-0.0472 0.0259,-0.0259 26.06312,7.10404 26.24656,7.18731 0.0626,0.0284 -0.12788,0.46621 -1.16488,2.67713 -0.68185,1.45374 -1.26019,2.67308 -1.28519,2.70966 -0.0368,0.0539 -2.30181,-1.12862 -11.91612,-6.22112 z m 15.51404,4.76317 c -0.7613,-0.34993 -1.38451,-0.6498 -1.38491,-0.66636 -8.8e-4,-0.0372 1.20116,-1.95022 1.27367,-2.02703 0.055,-0.0583 0.0372,-0.0716 1.66483,1.24408 l 0.72803,0.58849 -0.39703,0.75237 c -0.21836,0.41381 -0.42028,0.75065 -0.44871,0.74853 -0.0284,-0.002 -0.67458,-0.29015 -1.43588,-0.64008 z m 1.94281,-2.80546 c -0.66569,-0.46077 -1.21663,-0.85563 -1.22431,-0.87748 -0.0145,-0.0411 1.44997,-1.69079 1.52289,-1.71552 0.0326,-0.011 0.72004,0.76524 1.85424,2.09373 0.0597,0.0699 0.017,0.14299 -0.40748,0.69828 -0.26078,0.34111 -0.48783,0.62438 -0.50457,0.62948 -0.0167,0.005 -0.57508,-0.36773 -1.24077,-0.82849 z m 28.43047,-0.31468 -0.29187,-0.26831 0.57973,-0.73134 0.57972,-0.73135 0.37892,0.4679 c 0.2084,0.25734 0.37214,0.48585 0.36386,0.50779 -0.0218,0.0578 -1.23196,1.02842 -1.27896,1.02581 -0.0217,-0.001 -0.17088,-0.12294 -0.3314,-0.2705 z m 5.35669,-0.86187 c -0.92683,-0.33781 -1.69646,-0.6255 -1.71027,-0.63932 -0.0138,-0.0138 0.9435,-0.4664 2.12738,-1.00574 1.18389,-0.53935 4.39009,-2.00111 7.12488,-3.24837 2.7348,-1.24726 4.98534,-2.25477 5.0012,-2.23892 0.0159,0.0159 0.009,0.0467 -0.0146,0.0686 -0.0378,0.0346 -10.32824,7.39652 -10.63266,7.60678 -0.0633,0.0437 -0.13662,0.0776 -0.16293,0.0754 -0.0263,-0.002 -0.80615,-0.28054 -1.73299,-0.61835 z m -31.64275,-1.26838 c -0.536,-0.5465 -0.96544,-1.00154 -0.95431,-1.01119 0.12532,-0.10869 1.96326,-1.33852 1.97814,-1.32364 0.0369,0.0369 1.23088,2.23866 1.23088,2.26979 0,0.0305 -1.24693,1.07723 -1.26874,1.06506 -0.006,-0.003 -0.44997,-0.45351 -0.98597,-1.00002 z m 23.42494,-0.47197 c -0.22354,-0.14703 -0.40684,-0.28582 -0.40733,-0.30843 -10e-4,-0.0498 0.93126,-1.56492 0.96301,-1.56492 0.0308,0 0.98452,0.80893 0.98795,0.83793 0.004,0.0306 -1.06223,1.27682 -1.10456,1.29145 -0.018,0.006 -0.21553,-0.10901 -0.43907,-0.25603 z m -20.08399,-0.58154 c -0.18186,-0.2031 -1.56092,-1.99638 -1.5448,-2.00881 0.0616,-0.0475 2.0529,-1.0552 2.06196,-1.04346 0.0268,0.0348 0.86384,2.32728 0.86384,2.36602 0,0.0343 -1.21693,0.79099 -1.272,0.79099 -0.008,0 -0.0574,-0.0471 -0.109,-0.10474 z m 17.06889,-1.18198 c -0.24324,-0.14202 -0.45103,-0.26679 -0.46178,-0.27726 -0.0108,-0.0105 0.092,-0.39498 0.22835,-0.85444 l 0.24788,-0.8354 0.14406,0.0624 c 0.15845,0.0686 1.15956,0.54557 1.1826,0.56339 0.0369,0.0285 -0.79005,1.60362 -0.84095,1.6017 -0.0318,-0.001 -0.25693,-0.11838 -0.50016,-0.2604 z m -14.76444,-1.21621 c -0.31338,-0.82237 -0.38941,-1.06612 -0.34107,-1.0935 0.18356,-0.10395 1.85943,-0.68339 1.88778,-0.6527 0.0184,0.0199 0.13064,0.4866 0.2494,1.03707 0.11877,0.55047 0.22597,1.03363 0.23824,1.07368 0.0173,0.0566 -0.15142,0.14207 -0.75839,0.38405 -0.42938,0.17118 -0.80139,0.31088 -0.82669,0.31045 -0.0253,-4.2e-4 -0.22747,-0.477 -0.44927,-1.05905 z m -12.27351,-9.3039 c -3.64379,-5.46813 -6.61132,-9.95568 -6.5945,-9.97233 0.0168,-0.0166 0.15962,0.10616 0.31733,0.27291 0.15772,0.16674 2.49657,2.65958 5.19745,5.53964 2.70088,2.88006 6.18596,6.59554 7.74462,8.25662 l 2.83393,3.02015 -1.41332,1.41389 c -0.77732,0.77764 -1.42392,1.41328 -1.43688,1.41253 -0.013,-7.4e-4 -3.00484,-4.47528 -6.64863,-9.94341 z m 23.72115,9.39666 -0.59354,-0.1172 5.3e-4,-0.1445 c 5.3e-4,-0.194 0.18419,-1.71778 0.21032,-1.74392 0.0114,-0.0114 0.3195,0.0573 0.68475,0.15247 0.36526,0.0952 0.73996,0.19272 0.83266,0.21668 l 0.16857,0.0436 -0.30822,0.84557 c -0.16952,0.46506 -0.32917,0.84984 -0.35477,0.85505 -0.0256,0.005 -0.31364,-0.0433 -0.64008,-0.10771 z m -7.83045,-0.1618 c -0.0908,-0.28589 -0.43699,-1.96794 -0.40968,-1.99077 0.0344,-0.0287 1.75612,-0.37173 1.86596,-0.37173 0.0404,0 0.0548,0.28067 0.0548,1.07069 0,0.58888 -0.0106,1.07069 -0.0235,1.07069 -0.013,0 -0.32,0.0628 -0.68235,0.13965 -0.74661,0.15826 -0.77972,0.16161 -0.80519,0.0815 z m 3.60589,-1.36164 v -1.00086 l 0.12801,-4.6e-4 c 0.30584,-0.001 1.5282,0.11022 1.56445,0.14248 0.0327,0.0291 -0.0607,0.88481 -0.18409,1.68514 l -0.0269,0.17457 h -0.74073 -0.74073 v -1.00086 z m 10.59048,-0.13951 c -1.25456,-0.23798 -2.28913,-0.43487 -2.29903,-0.43754 -0.0392,-0.0105 0.60745,-0.67033 5.22838,-5.335 8.63459,-8.71633 9.77881,-9.86875 9.81415,-9.88446 0.0192,-0.009 0.0349,0.006 0.0349,0.032 0,0.0842 -10.38056,16.04353 -10.44002,16.05071 -0.0316,0.004 -1.08383,-0.18777 -2.3384,-0.42575 z m -12.95529,-2.06005 c 0.0416,-0.33486 1.2115,-9.98245 2.1127,-17.42194 0.2993,-2.47072 0.55178,-4.50095 0.56108,-4.51162 0.0499,-0.0572 0.0751,0.0976 0.11442,0.70205 0.0239,0.36704 0.15855,2.65742 0.29927,5.08974 0.283,4.89172 0.45267,7.79303 0.71463,12.2198 0.0962,1.62581 0.15924,2.97451 0.14007,2.99709 -0.0247,0.0291 -3.90493,1.2391 -3.97354,1.2391 -0.004,0 0.01,-0.1414 0.0314,-0.31422 z"
       id="path1980"
       inkscape:connector-curvature="0" />
  </g>
</svg>
