<?xml version="1.0" standalone="no"?>
<!DOCTYPE svg PUBLIC "-//W3C//DTD SVG 20010904//EN"
 "http://www.w3.org/TR/2001/REC-SVG-20010904/DTD/svg10.dtd">
<svg version="1.0" xmlns="http://www.w3.org/2000/svg"
 width="1204.000000pt" height="1280.000000pt" viewBox="0 0 1204.000000 1280.000000"
 preserveAspectRatio="xMidYMid meet">
<metadata>
Created by potrace 1.15, written by Peter Selinger 2001-2017
</metadata>
<g transform="translate(0.000000,1280.000000) scale(0.100000,-0.100000)"
fill="#000000" stroke="none">
<path d="M2195 12768 c-93 -88 -85 -364 25 -797 21 -86 42 -165 45 -176 12
-39 -59 102 -103 205 -49 115 -117 309 -128 365 -7 42 -16 44 -43 9 -78 -99
-33 -434 124 -914 24 -74 43 -135 41 -137 -2 -2 -67 154 -146 347 -79 192
-146 350 -150 350 -15 0 -21 -136 -11 -220 28 -223 150 -595 305 -934 20 -44
35 -80 33 -82 -3 -3 -189 337 -281 516 -34 66 -65 117 -69 113 -13 -12 -7
-209 8 -299 30 -174 117 -438 196 -596 16 -32 27 -58 25 -58 -12 0 -279 166
-431 268 -445 299 -731 555 -853 765 -37 64 -40 66 -46 41 -15 -57 -7 -238 14
-319 24 -95 82 -220 146 -316 97 -144 288 -324 478 -450 52 -35 94 -65 92 -67
-5 -5 -252 87 -376 140 -215 92 -382 191 -470 279 l-49 49 -7 -47 c-24 -163
78 -378 250 -525 142 -123 386 -258 611 -338 123 -44 119 -47 -34 -24 -318 46
-583 136 -719 243 -46 37 -52 39 -52 20 0 -37 51 -172 88 -233 113 -188 352
-336 675 -420 82 -21 137 -30 362 -62 l50 -7 -80 -13 c-212 -35 -564 -36 -714
-3 -24 5 -46 8 -48 5 -2 -2 5 -22 16 -43 73 -143 423 -244 986 -283 88 -7 161
-13 163 -14 4 -5 -233 -73 -328 -95 -125 -29 -234 -43 -332 -44 l-87 -1 17
-29 c35 -59 143 -110 300 -139 130 -25 698 -12 807 19 13 3 17 2 10 -4 -10
-10 -535 -219 -608 -243 -47 -15 -39 -26 34 -46 112 -29 277 -39 461 -26 161
12 414 43 462 58 54 17 -14 -17 -308 -150 -175 -79 -320 -146 -323 -149 -3 -3
9 -13 26 -21 137 -71 489 -66 895 14 83 16 151 28 153 27 4 -5 -227 -172 -373
-269 -72 -49 -170 -108 -218 -132 l-87 -45 48 -8 c71 -12 277 -9 363 6 41 7
120 24 174 37 54 13 101 24 104 24 2 0 -11 -17 -30 -37 -51 -57 -76 -103 -94
-173 -21 -83 -8 -167 41 -267 106 -215 430 -367 880 -413 168 -18 151 -6 158
-111 10 -139 8 -318 -4 -384 -17 -93 -39 -125 -121 -179 -388 -257 -594 -565
-626 -935 l-7 -83 -83 -24 c-376 -109 -736 -416 -1126 -964 l-97 -135 -132
-12 c-369 -32 -593 -130 -1017 -442 -183 -135 -230 -164 -310 -194 -94 -35
-143 -40 -240 -22 -248 43 -402 0 -466 -132 -42 -86 -40 -199 6 -393 29 -125
34 -163 35 -275 0 -77 -8 -186 -19 -266 -17 -121 -18 -152 -8 -270 10 -115 16
-143 42 -197 22 -45 35 -62 45 -58 9 3 15 -1 15 -10 0 -24 48 -66 68 -60 14 5
23 -7 44 -54 40 -91 101 -105 152 -37 18 24 20 40 18 103 -3 68 2 91 52 242
30 92 62 208 71 257 22 124 56 187 186 350 62 77 127 163 146 192 37 58 47 63
193 88 268 46 732 79 1072 77 331 -2 339 0 603 105 481 192 835 392 1402 795
l71 51 249 -179 c548 -394 1033 -757 1033 -773 0 -4 -44 -20 -97 -35 -235 -70
-448 -167 -593 -271 -42 -31 -162 -142 -266 -248 -206 -209 -297 -281 -481
-379 -108 -57 -184 -87 -323 -128 -103 -31 -142 -52 -173 -97 -90 -131 -75
-256 64 -520 38 -73 81 -167 95 -210 26 -75 26 -84 23 -268 -8 -400 -6 -453
20 -535 12 -41 40 -102 60 -135 26 -41 40 -77 44 -112 10 -89 47 -133 111
-133 27 0 61 35 70 73 4 17 13 27 25 27 24 0 47 28 55 66 5 23 14 32 39 40 24
7 37 20 52 51 12 24 28 48 37 55 21 17 28 58 36 213 5 95 12 139 25 162 13 24
17 56 17 131 0 79 6 119 26 188 39 132 54 196 72 324 l17 115 830 332 c456
182 854 346 885 364 218 129 377 293 504 517 108 190 153 364 143 552 -13 235
-65 420 -180 643 -105 205 -198 349 -573 885 -183 262 -333 479 -333 482 0 3
19 16 42 30 23 14 98 81 167 150 200 199 348 440 440 716 70 212 98 459 70
632 -10 57 -9 67 9 96 48 77 99 280 117 467 l7 67 61 6 c33 3 128 11 210 17
l149 12 340 111 c317 104 345 111 392 104 27 -4 124 -10 214 -14 154 -7 165
-9 193 -32 l29 -25 -6 25 c-6 25 -6 26 72 32 190 17 354 73 848 289 387 169
400 172 551 141 65 -14 115 -16 274 -11 107 4 212 11 233 16 38 9 39 8 73 -37
77 -106 171 -332 221 -537 21 -86 23 -312 4 -400 -77 -360 -259 -669 -685
-1160 -197 -228 -294 -365 -426 -602 l-57 -102 -23 49 c-30 65 -36 58 -9 -9
21 -50 21 -54 6 -87 -45 -94 4 -174 106 -174 83 0 132 65 103 135 -19 44 -32
44 -50 0 -19 -44 -60 -49 -77 -11 -10 20 -6 34 21 88 103 205 300 451 599 748
130 130 270 278 312 330 353 438 479 882 389 1376 -37 209 -87 350 -154 438
-36 46 -37 50 -23 77 19 39 10 88 -18 101 l-22 10 29 28 c44 45 34 110 -20
131 -23 9 -24 12 -11 19 26 15 42 65 35 106 -6 27 -14 38 -38 48 l-30 13 28 6
c290 60 1221 247 1229 247 7 0 9 -14 7 -35 -5 -39 9 -62 46 -76 33 -13 54 0
152 96 47 45 102 94 123 107 l37 25 -58 5 c-32 3 -87 18 -123 33 -113 47 -143
55 -170 41 -36 -17 -46 -58 -26 -100 15 -33 15 -35 -1 -40 -9 -3 -280 -66
-602 -140 -322 -74 -598 -137 -614 -142 -29 -7 -29 -7 -13 17 10 13 17 35 17
49 0 62 -63 96 -162 87 l-59 -5 7 56 c4 32 19 98 35 148 45 148 52 203 46 337
-13 284 -85 516 -211 684 -117 155 -290 284 -636 474 -263 144 -380 217 -493
307 -222 176 -480 450 -475 502 4 38 34 37 72 -4 18 -20 35 -36 39 -36 4 0 7
18 7 40 0 79 -45 125 -122 125 -33 0 -46 -7 -74 -38 -50 -54 -46 -114 11 -177
l23 -25 -114 -595 c-63 -327 -173 -903 -244 -1280 -72 -377 -134 -694 -139
-705 -5 -12 -34 -29 -72 -44 -35 -13 -96 -40 -136 -61 l-72 -37 -58 28 c-109
51 -366 101 -743 143 -198 23 -223 28 -316 65 -191 75 -341 162 -390 227 -24
31 -29 48 -32 111 -5 88 7 143 55 244 l35 77 132 11 c72 6 159 14 192 16 90 8
148 31 198 80 48 46 76 115 76 187 0 52 19 94 69 151 22 27 41 54 41 60 -1 28
-40 95 -68 118 l-31 24 52 -3 c42 -3 58 1 81 19 24 19 27 27 22 58 -15 91 -18
133 -12 166 7 34 13 39 90 74 160 74 177 143 57 235 -96 74 -131 172 -131 367
0 79 3 92 32 145 32 58 33 60 32 189 -2 147 -27 265 -90 410 -18 45 -34 84
-34 87 0 4 24 40 53 80 158 221 201 496 111 703 l-18 40 -7 -65 c-13 -118 -56
-199 -147 -281 -53 -48 -117 -86 -201 -119 -49 -19 -53 -19 -46 -3 32 75 36
99 26 135 -15 48 -54 94 -110 130 -54 34 -61 35 -61 5 0 -38 -28 -122 -51
-151 -34 -44 -61 -35 -219 70 -197 130 -256 157 -345 161 -38 1 -93 8 -121 14
-53 13 -87 6 -201 -41 -30 -13 -33 -12 -82 32 -64 58 -121 78 -239 85 -137 8
-197 -11 -341 -108 -129 -87 -200 -114 -227 -87 -9 8 -21 51 -28 99 -7 46 -16
77 -19 69 -23 -55 -38 -112 -43 -170 l-7 -68 -65 -16 c-114 -28 -213 -101
-284 -210 -21 -33 -37 -61 -35 -63 2 -1 52 15 110 37 59 22 122 43 140 47 l32
6 -30 -34 c-16 -19 -76 -81 -131 -139 -115 -118 -120 -130 -131 -279 -4 -70
-12 -105 -30 -138 -12 -24 -23 -52 -23 -63 0 -20 17 -76 74 -238 41 -116 44
-166 20 -269 -9 -37 -16 -96 -17 -130 -1 -55 3 -67 36 -115 44 -64 47 -101 13
-173 -40 -86 -121 -145 -198 -145 l-33 0 30 -25 c68 -56 130 -64 287 -39 l37
6 -4 -33 c-15 -123 -30 -201 -46 -245 -27 -71 -88 -138 -146 -160 l-48 -18 40
-12 c57 -18 159 -17 203 1 48 21 105 77 128 126 l17 39 23 -21 c42 -40 58 -99
51 -197 -4 -48 -9 -102 -13 -119 -9 -45 7 -42 60 10 53 53 76 117 76 211 1 62
2 69 14 53 8 -10 24 -49 36 -88 31 -95 24 -166 -24 -265 -42 -85 -156 -212
-251 -279 -122 -87 -274 -145 -347 -131 -114 21 -238 181 -322 415 -48 133
-50 153 -22 245 68 222 85 356 62 486 -22 122 -70 214 -159 302 -67 66 -138
121 -533 413 -251 186 -358 284 -432 399 -113 175 -278 586 -458 1143 -38 117
-72 212 -77 213 -4 0 -23 -15 -42 -32z m6430 -1746 c196 -193 303 -279 560
-451 325 -217 479 -341 603 -483 194 -223 271 -423 272 -710 0 -112 -16 -205
-59 -339 l-31 -96 -78 -35 c-42 -19 -108 -43 -147 -52 -82 -20 -110 -36 -208
-119 -39 -33 -91 -69 -114 -79 -47 -21 -58 -20 -433 17 -315 32 -669 18 -889
-35 -46 -11 -86 -18 -89 -16 -4 5 21 149 212 1221 149 832 236 1320 236 1328
0 4 1 7 3 7 1 0 74 -71 162 -158z"/>
<path d="M8215 7505 c10 -33 918 -1975 922 -1972 1 2 -42 113 -98 248 -348
844 -616 1417 -775 1659 -31 47 -53 76 -49 65z"/>
</g>
</svg>
