<?xml version="1.0" standalone="no"?>
<!DOCTYPE svg PUBLIC "-//W3C//DTD SVG 20010904//EN"
 "http://www.w3.org/TR/2001/REC-SVG-20010904/DTD/svg10.dtd">
<svg version="1.0" xmlns="http://www.w3.org/2000/svg"
 width="1280.000000pt" height="789.000000pt" viewBox="0 0 1280.000000 789.000000"
 preserveAspectRatio="xMidYMid meet">
<metadata>
Created by potrace 1.15, written by Peter Selinger 2001-2017
</metadata>
<g transform="translate(0.000000,789.000000) scale(0.100000,-0.100000)"
fill="#000000" stroke="none">
<path d="M6309 7861 c-34 -35 -38 -77 -13 -162 17 -57 72 -169 83 -169 11 0
103 60 149 97 46 37 82 97 82 136 0 32 -33 73 -66 81 -17 5 -36 0 -58 -14
l-34 -20 -11 29 c-24 55 -87 66 -132 22z"/>
<path d="M5793 7616 c-18 -15 -35 -41 -38 -59 -11 -47 -12 -48 -52 -22 -20 14
-48 25 -62 25 -57 0 -121 -65 -121 -122 1 -94 123 -204 333 -300 l38 -17 20
47 c45 105 72 200 77 273 8 129 -27 188 -116 197 -41 3 -52 0 -79 -22z"/>
<path d="M6380 7237 c-19 -6 -56 -32 -81 -57 -106 -106 -113 -282 -24 -558 46
-144 120 -325 134 -330 16 -5 305 146 395 207 180 122 276 251 276 370 -1 127
-92 221 -215 221 -56 0 -100 -18 -147 -59 -20 -17 -38 -31 -41 -31 -2 0 -8 21
-12 48 -15 99 -44 143 -120 178 -54 26 -108 29 -165 11z"/>
<path d="M3695 6878 c-51 -51 -107 -115 -124 -143 -31 -49 -91 -217 -91 -255
0 -34 -17 -31 -93 15 -248 150 -547 246 -857 274 -172 16 -249 15 -257 -5 -3
-9 10 -64 30 -122 54 -162 87 -420 87 -681 0 -291 54 -515 161 -676 67 -100
130 -154 258 -219 l108 -55 19 -138 c23 -166 25 -305 5 -352 -11 -26 -27 -39
-69 -58 -52 -23 -53 -24 -47 -56 26 -116 170 -260 462 -458 123 -83 322 -187
438 -229 28 -10 63 -23 78 -29 l28 -11 -32 -45 c-29 -40 -32 -52 -33 -117 -1
-99 6 -118 68 -191 l53 -63 -70 -53 c-39 -30 -89 -62 -112 -72 -23 -10 -48
-26 -55 -35 -8 -8 -53 -42 -102 -76 -125 -85 -244 -214 -295 -318 l-41 -83
-26 39 c-37 54 -70 169 -117 405 -74 380 -132 566 -236 772 -139 273 -266 419
-494 569 -268 177 -556 257 -976 274 -504 20 -924 -115 -1211 -390 -102 -98
-155 -167 -150 -198 5 -33 41 -27 156 26 53 24 113 49 132 54 145 42 226 8
292 -122 31 -62 139 -356 184 -504 58 -191 172 -445 268 -596 31 -49 56 -94
56 -101 0 -6 -19 -17 -42 -24 -23 -7 -55 -27 -72 -44 l-31 -30 50 -21 c68 -27
203 -98 428 -224 291 -162 440 -219 683 -258 228 -37 693 -19 967 37 81 17
153 29 160 26 7 -3 25 -27 39 -54 l27 -49 -66 -50 c-99 -75 -173 -194 -173
-281 0 -62 20 -91 69 -99 l38 -6 -21 -67 c-28 -91 -27 -208 3 -276 38 -87 132
-164 199 -165 36 0 81 28 102 63 15 24 20 50 20 104 0 65 4 80 43 155 56 109
122 198 147 198 11 0 95 -12 187 -26 186 -28 234 -27 287 6 71 43 118 171 132
353 l7 95 136 63 c75 34 139 64 143 66 4 2 23 -21 43 -51 43 -65 176 -194 236
-229 57 -33 130 -51 174 -43 45 9 75 54 75 113 0 57 -79 284 -165 477 -24 55
-25 64 -14 103 6 24 15 43 20 43 4 0 34 -16 66 -35 32 -19 94 -49 138 -67 65
-26 95 -32 162 -32 100 -1 136 19 141 78 6 64 -32 120 -177 262 l-134 132 45
63 c25 35 51 82 58 103 12 38 9 134 -6 200 -7 27 -6 29 20 22 49 -12 66 0 66
47 -1 57 -29 113 -84 167 -25 24 -46 47 -46 51 0 4 12 10 28 14 65 16 298 139
422 223 374 253 613 592 637 906 l6 71 40 20 c58 29 78 61 84 137 10 117 -49
198 -142 198 -132 0 -191 -184 -99 -307 l24 -32 -52 -16 c-58 -17 -135 -20
-172 -5 -50 18 -60 52 -67 205 -5 118 -12 162 -43 278 -20 76 -47 164 -59 195
-29 70 -123 235 -182 318 -59 82 -224 248 -309 311 -202 149 -442 243 -711
278 -106 14 -135 22 -263 77 -204 87 -280 135 -398 250 -55 54 -107 98 -114
98 -7 0 -54 -42 -105 -92z"/>
<path d="M8891 6875 c-115 -112 -201 -166 -403 -253 -132 -57 -158 -64 -265
-77 -257 -32 -512 -132 -709 -278 -84 -63 -244 -223 -304 -306 -62 -85 -147
-232 -181 -315 -16 -38 -46 -130 -65 -205 -31 -115 -38 -159 -43 -284 -6 -142
-7 -148 -33 -174 -35 -35 -119 -43 -202 -19 l-57 17 25 30 c71 84 52 250 -34
294 -16 8 -46 15 -67 15 -91 0 -150 -82 -140 -198 6 -76 26 -109 85 -137 37
-18 41 -24 42 -55 3 -233 138 -493 383 -732 172 -169 423 -333 642 -418 33
-13 62 -25 64 -27 3 -2 -18 -27 -47 -56 -56 -57 -82 -108 -82 -160 0 -45 19
-60 63 -52 l35 7 -14 -53 c-29 -113 -13 -188 63 -291 l36 -50 -130 -127 c-91
-88 -138 -142 -157 -179 -103 -203 148 -231 447 -50 43 25 51 21 62 -39 4 -25
-5 -57 -45 -148 -67 -155 -140 -372 -140 -419 0 -162 186 -149 368 25 34 32
82 86 108 121 25 35 52 62 58 60 6 -2 70 -30 142 -63 l130 -60 12 -117 c22
-235 85 -346 205 -359 23 -3 115 7 204 21 89 14 175 26 190 26 24 0 36 -12 79
-78 90 -136 114 -192 114 -268 0 -79 21 -129 64 -155 39 -24 70 -24 121 0 131
61 192 226 146 394 -11 42 -21 81 -21 86 0 5 16 12 35 15 79 15 88 104 23 229
-36 69 -53 89 -119 141 l-77 61 26 48 c15 27 33 51 39 54 7 3 79 -9 160 -25
197 -41 524 -67 728 -59 335 13 557 77 857 244 239 133 418 227 481 253 31 13
57 27 57 31 0 15 -63 59 -100 70 -22 7 -40 17 -40 24 0 6 25 51 56 100 106
169 188 351 269 600 131 401 191 542 251 595 78 68 162 62 354 -25 120 -55
148 -62 156 -41 13 35 -11 72 -119 180 -163 163 -321 261 -542 335 -320 107
-754 118 -1157 31 -274 -59 -524 -192 -726 -384 -180 -173 -344 -468 -432
-782 -16 -59 -55 -227 -85 -373 -63 -308 -88 -393 -133 -443 -14 -16 -18 -11
-55 64 -33 68 -58 100 -141 184 -56 56 -128 119 -161 139 -33 21 -71 48 -85
61 -14 13 -46 34 -70 46 -53 27 -169 109 -169 121 -1 4 21 35 49 68 57 68 74
119 68 201 -3 45 -12 69 -36 103 -29 41 -30 46 -15 52 173 62 383 164 508 249
247 166 414 317 461 418 34 74 32 83 -29 110 -41 18 -57 31 -68 57 -20 48 -18
186 6 352 l19 138 108 55 c127 66 195 123 259 222 110 168 145 321 159 687 14
364 40 552 95 689 14 35 25 75 25 89 0 27 -1 27 -72 27 -200 0 -468 -44 -656
-106 -121 -41 -294 -120 -396 -183 -37 -23 -70 -40 -72 -38 -2 2 -15 43 -29
93 -43 151 -76 207 -191 322 -56 56 -108 102 -114 102 -7 0 -56 -43 -109 -95z"/>
<path d="M3215 925 c-472 -44 -834 -156 -988 -308 -111 -109 -96 -226 43 -330
410 -309 1624 -384 2350 -145 297 97 454 240 410 372 -57 174 -361 312 -847
385 -70 11 -186 25 -256 30 -169 14 -536 12 -712 -4z"/>
<path d="M8865 929 c-537 -46 -958 -187 -1066 -357 -39 -62 -45 -103 -24 -158
89 -233 714 -414 1431 -414 658 0 1263 157 1401 363 65 96 54 169 -36 257
-158 153 -544 269 -1036 310 -141 12 -526 11 -670 -1z"/>
</g>
</svg>
