<?xml version="1.0" standalone="no"?>
<!DOCTYPE svg PUBLIC "-//W3C//DTD SVG 20010904//EN"
 "http://www.w3.org/TR/2001/REC-SVG-20010904/DTD/svg10.dtd">
<svg version="1.0" xmlns="http://www.w3.org/2000/svg"
 width="1248.000000pt" height="1280.000000pt" viewBox="0 0 1248.000000 1280.000000"
 preserveAspectRatio="xMidYMid meet">
<metadata>
Created by potrace 1.15, written by Peter Selinger 2001-2017
</metadata>
<g transform="translate(0.000000,1280.000000) scale(0.100000,-0.100000)"
fill="#000000" stroke="none">
<path d="M6751 12495 c96 -193 122 -349 80 -484 -12 -37 -79 -159 -179 -323
-417 -685 -542 -957 -597 -1298 -37 -231 -15 -367 185 -1169 55 -221 100 -409
100 -417 0 -8 -16 -31 -35 -51 -19 -19 -37 -45 -41 -56 -4 -12 -32 -47 -64
-78 -297 -298 -240 -1088 91 -1247 182 -88 374 74 456 385 22 84 26 120 27
258 0 99 -4 183 -12 220 -37 167 -98 300 -177 380 -28 29 -56 63 -62 77 -6 14
-26 42 -44 62 -29 34 -39 67 -115 369 -159 629 -215 913 -215 1081 0 269 82
475 533 1336 213 406 202 377 202 535 1 121 -2 136 -32 225 -33 94 -105 242
-142 290 -11 14 8 -29 41 -95z"/>
<path d="M2750 11313 c-43 -155 -57 -462 -27 -629 34 -190 123 -432 209 -569
127 -201 264 -334 670 -648 170 -132 222 -183 320 -312 77 -102 266 -390 423
-643 83 -134 182 -292 221 -351 64 -98 71 -114 72 -160 1 -29 6 -60 11 -69 5
-10 10 -52 9 -93 0 -99 15 -155 72 -274 58 -121 120 -204 231 -310 403 -385
875 -328 795 95 -68 361 -496 750 -824 750 -34 0 -87 7 -118 15 -31 8 -67 12
-79 9 -19 -5 -40 22 -170 208 -362 519 -436 624 -572 805 -186 249 -251 314
-443 446 -238 163 -338 256 -448 418 -98 145 -218 423 -272 634 -52 204 -64
294 -64 512 -1 112 -2 203 -3 203 -1 0 -7 -17 -13 -37z"/>
<path d="M11445 10638 c-55 -136 -166 -348 -243 -463 -75 -114 -232 -278 -305
-320 -121 -69 -322 -106 -830 -150 -543 -47 -687 -72 -897 -153 -112 -43 -223
-114 -291 -183 -95 -98 -245 -325 -509 -769 -89 -151 -193 -325 -231 -386 -68
-110 -68 -110 -103 -106 -19 2 -52 -2 -72 -8 -21 -7 -66 -12 -99 -11 -79 2
-194 -28 -292 -77 -383 -193 -654 -654 -528 -901 114 -225 496 -150 800 156
169 170 258 348 277 553 5 58 12 129 15 158 4 48 29 94 230 430 340 569 546
870 635 929 135 89 277 123 718 173 447 50 699 93 965 165 184 49 250 81 337
163 122 116 218 259 314 472 51 113 158 409 151 417 -2 2 -21 -38 -42 -89z"/>
<path d="M6251 7215 c-282 -62 -512 -248 -619 -501 -96 -226 -89 -493 18 -709
84 -169 224 -308 394 -390 140 -68 196 -80 371 -80 175 0 231 12 371 80 409
198 592 687 411 1100 -93 211 -291 398 -492 465 -151 50 -322 63 -454 35z"/>
<path d="M606 6860 c104 -11 166 -32 305 -103 223 -114 344 -142 604 -141 195
1 225 4 630 69 197 32 424 43 532 25 128 -20 345 -84 790 -231 232 -77 438
-143 457 -146 22 -3 41 -15 51 -29 8 -13 34 -34 57 -48 24 -14 68 -49 98 -78
124 -120 292 -177 545 -185 137 -4 175 -2 260 16 287 59 459 196 459 366 1
178 -217 336 -519 376 -121 16 -316 6 -425 -21 -119 -30 -254 -97 -315 -157
-28 -27 -71 -61 -97 -76 -26 -15 -54 -37 -63 -50 l-15 -22 -168 59 c-687 240
-889 302 -1077 333 -159 25 -355 3 -680 -78 -412 -103 -598 -92 -1083 65 -151
49 -246 67 -349 65 l-68 -2 71 -7z"/>
<path d="M10130 6843 c-127 -21 -415 -114 -790 -253 -151 -56 -332 -122 -401
-146 l-125 -44 -43 40 c-23 22 -48 40 -56 40 -8 0 -33 20 -56 45 -81 87 -191
145 -353 188 -68 18 -110 21 -256 21 -207 1 -299 -18 -445 -90 -204 -99 -284
-252 -209 -402 50 -102 194 -195 374 -244 75 -20 108 -23 275 -23 176 0 197 2
289 28 126 35 224 87 302 159 34 32 66 58 71 58 6 0 30 18 55 39 30 27 72 50
129 69 46 17 201 73 344 127 619 230 902 306 1062 284 151 -21 302 -89 608
-275 573 -347 682 -412 830 -491 233 -125 318 -178 425 -264 90 -73 213 -193
273 -269 l28 -35 -22 40 c-40 71 -128 185 -207 267 -95 99 -199 181 -362 282
-69 43 -231 151 -360 241 -449 310 -594 401 -763 480 -227 106 -461 154 -617
128z"/>
<path d="M5354 5730 c-352 -92 -697 -486 -709 -810 -2 -47 -9 -101 -14 -120
-6 -19 -11 -52 -11 -72 l0 -38 -412 -203 c-564 -278 -835 -428 -965 -534 -66
-54 -126 -153 -217 -356 -98 -219 -164 -329 -261 -434 -94 -103 -205 -183
-350 -253 -145 -71 -268 -112 -434 -147 -111 -23 -150 -26 -326 -27 -110 -1
-213 3 -230 7 -16 5 -27 6 -23 2 23 -24 260 -55 418 -55 215 0 388 36 559 116
232 109 338 225 634 690 117 183 239 330 331 401 108 81 330 203 821 450 248
124 466 236 486 248 36 23 52 26 259 44 67 5 140 18 174 30 470 166 826 771
591 1006 -73 74 -180 92 -321 55z"/>
<path d="M7153 5714 c-56 -20 -118 -84 -137 -141 -59 -173 35 -427 238 -641
174 -184 397 -303 571 -303 39 -1 90 -7 115 -15 24 -9 58 -14 76 -12 28 2 46
-12 175 -134 436 -412 778 -638 1101 -724 125 -34 175 -67 232 -152 82 -124
117 -235 216 -682 165 -746 248 -960 489 -1270 73 -94 279 -330 288 -330 7 0
-8 21 -71 100 -145 179 -303 415 -346 516 -30 69 -117 331 -139 419 -11 44
-45 221 -76 393 -30 172 -64 350 -76 395 -62 248 -151 419 -283 552 -92 91
-139 120 -228 138 -351 73 -717 325 -1084 748 -77 88 -91 109 -87 131 3 14 -2
51 -11 82 -9 31 -14 67 -10 80 9 38 -14 161 -46 244 -84 216 -310 452 -532
557 -40 19 -100 41 -133 50 -74 19 -187 18 -242 -1z"/>
<path d="M6270 5354 c-230 -106 -348 -551 -250 -940 28 -110 93 -236 157 -302
29 -29 60 -68 68 -86 9 -18 29 -46 45 -61 l28 -27 -15 -52 c-8 -28 -53 -168
-100 -311 -251 -774 -307 -1020 -274 -1207 6 -37 36 -147 66 -245 88 -286 100
-349 100 -553 0 -247 -32 -383 -149 -636 -32 -69 -60 -147 -67 -186 -24 -130
20 -299 117 -456 25 -39 48 -72 51 -72 3 0 -1 10 -9 23 -67 104 -102 189 -117
287 -17 109 -2 175 78 335 158 318 175 521 87 1050 -54 319 -70 481 -62 590
13 154 75 388 254 955 55 173 110 351 122 395 16 57 32 91 56 118 19 20 34 42
34 47 0 6 31 44 70 85 77 84 127 177 159 297 105 388 -14 843 -249 952 -33 16
-73 26 -100 26 -27 0 -67 -10 -100 -26z"/>
</g>
</svg>
