<?xml version="1.0" standalone="no"?>
<!DOCTYPE svg PUBLIC "-//W3C//DTD SVG 20010904//EN"
 "http://www.w3.org/TR/2001/REC-SVG-20010904/DTD/svg10.dtd">
<svg version="1.0" xmlns="http://www.w3.org/2000/svg"
 width="640.000000pt" height="1280.000000pt" viewBox="0 0 640.000000 1280.000000"
 preserveAspectRatio="xMidYMid meet">
<metadata>
Created by potrace 1.15, written by Peter Selinger 2001-2017
</metadata>
<g transform="translate(0.000000,1280.000000) scale(0.100000,-0.100000)"
fill="#000000" stroke="none">
<path d="M3171 12787 c-8 -10 -12 -221 -13 -728 l-3 -714 -33 52 c-43 66 -187
204 -282 270 -96 65 -246 147 -308 167 -241 79 -592 54 -857 -61 -197 -85
-359 -230 -440 -396 -65 -132 -77 -186 -82 -373 -17 -537 175 -1042 575 -1519
162 -193 418 -437 814 -775 194 -167 413 -357 485 -424 l133 -121 0 -86 0 -87
-33 -6 c-90 -17 -167 -122 -167 -228 0 -103 51 -180 145 -219 l55 -23 0 -119
0 -120 -57 55 c-67 63 -178 131 -243 149 -25 6 -85 12 -135 12 -214 -1 -382
-89 -457 -241 -29 -59 -33 -78 -37 -166 -10 -293 105 -558 353 -815 45 -46
146 -140 226 -209 80 -70 191 -167 248 -216 l102 -90 0 -111 0 -112 -41 -12
c-51 -15 -112 -70 -138 -125 -25 -51 -28 -140 -5 -194 26 -64 119 -142 169
-142 13 0 15 -20 15 -131 l0 -132 -52 67 c-103 134 -355 304 -513 347 -67 19
-106 22 -245 22 -146 0 -177 -3 -263 -26 -309 -82 -506 -245 -584 -481 -52
-159 -43 -446 22 -701 88 -346 260 -636 575 -968 117 -123 263 -255 610 -552
135 -115 291 -252 348 -303 l102 -94 0 -134 c0 -116 -2 -134 -16 -134 -27 0
-84 -31 -116 -64 -68 -68 -89 -187 -47 -273 25 -52 90 -109 141 -125 l38 -11
0 -112 0 -113 -42 39 c-98 89 -222 125 -350 99 -120 -23 -201 -79 -245 -168
-25 -51 -28 -67 -27 -147 3 -205 79 -375 248 -553 39 -41 150 -143 246 -227
96 -83 181 -159 188 -168 15 -17 27 -8 355 282 259 228 379 459 365 700 -6 90
-28 141 -88 195 -53 47 -108 71 -199 85 -135 21 -246 -14 -343 -107 l-38 -36
0 115 0 116 41 12 c78 24 149 109 164 198 16 101 -58 222 -156 255 l-44 15 -3
129 -3 129 97 89 c54 49 237 208 408 354 346 295 635 577 764 743 266 344 392
664 424 1074 10 129 9 163 -5 246 -30 174 -83 276 -203 389 -193 181 -538 267
-864 215 -109 -18 -196 -55 -328 -141 -82 -53 -224 -184 -270 -249 l-22 -30 3
129 2 129 44 15 c25 8 63 33 87 58 123 122 75 334 -88 392 l-48 17 0 107 0
106 53 50 c28 27 122 109 207 182 295 250 456 424 548 591 91 165 146 413 124
562 -27 184 -142 297 -351 343 -109 24 -259 15 -336 -20 -70 -32 -173 -104
-208 -146 -14 -16 -28 -30 -31 -30 -3 0 -6 54 -6 120 l0 119 41 11 c49 14 113
70 141 124 63 122 -6 285 -138 331 l-39 13 -3 80 -3 79 98 93 c54 51 267 238
473 415 442 380 584 510 743 682 384 416 594 810 672 1263 22 125 38 364 30
450 -23 267 -129 460 -332 606 -224 161 -589 237 -918 189 -129 -18 -177 -33
-272 -85 -189 -103 -355 -239 -441 -359 l-47 -66 -3 714 c-2 719 -3 741 -37
741 -7 0 -18 -6 -24 -13z"/>
</g>
</svg>
