<?xml version="1.0" standalone="no"?>
<!DOCTYPE svg PUBLIC "-//W3C//DTD SVG 20010904//EN"
 "http://www.w3.org/TR/2001/REC-SVG-20010904/DTD/svg10.dtd">
<svg version="1.0" xmlns="http://www.w3.org/2000/svg"
 width="1105.000000pt" height="1280.000000pt" viewBox="0 0 1105.000000 1280.000000"
 preserveAspectRatio="xMidYMid meet">
<metadata>
Created by potrace 1.15, written by Peter Selinger 2001-2017
</metadata>
<g transform="translate(0.000000,1280.000000) scale(0.100000,-0.100000)"
fill="#000000" stroke="none">
<path d="M4815 12793 c-57 -16 -105 -80 -105 -142 0 -17 14 -71 30 -121 37
-110 37 -130 4 -169 -38 -45 -185 -81 -333 -81 -46 0 -122 -7 -170 -15 -47 -8
-169 -28 -271 -45 -406 -68 -629 -153 -821 -314 -91 -76 -177 -178 -235 -276
-77 -130 -85 -162 -94 -365 l-7 -180 -42 -87 c-23 -49 -51 -93 -63 -99 -20
-11 -29 -4 -102 73 -94 99 -121 115 -208 124 -60 6 -67 5 -87 -17 -27 -29 -41
-79 -41 -147 l0 -53 -52 8 c-29 4 -78 7 -108 6 -45 -1 -59 -6 -77 -27 -43 -51
-55 -146 -27 -216 9 -23 15 -42 13 -43 -2 -1 -22 -11 -43 -22 -29 -14 -47 -34
-63 -67 l-24 -48 -58 0 c-67 0 -111 -24 -148 -79 -53 -79 -14 -144 115 -192
37 -13 37 -31 1 -41 -51 -14 -173 -28 -245 -28 -306 0 -700 -257 -852 -557
-63 -122 -95 -252 -132 -533 -41 -305 -87 -527 -118 -562 -9 -11 -29 -18 -48
-18 -27 0 -40 9 -77 51 -99 113 -178 143 -247 96 -53 -35 -75 -81 -75 -157 0
-107 57 -184 180 -241 150 -71 351 -51 430 43 91 108 140 248 221 633 60 284
107 410 199 533 87 116 218 191 419 242 167 42 326 57 429 41 154 -26 186 -26
213 0 28 26 31 66 9 128 -8 22 -13 41 -11 41 2 0 36 -14 77 -32 73 -31 77 -32
239 -33 125 -1 174 -5 201 -17 l36 -16 23 -123 c42 -236 124 -562 195 -774 61
-181 102 -256 234 -425 67 -85 146 -190 176 -233 37 -55 108 -130 230 -244 97
-91 213 -207 257 -257 90 -103 175 -233 162 -246 -18 -18 -192 -69 -299 -89
-299 -54 -353 -64 -467 -82 -383 -63 -581 -48 -860 65 -292 119 -581 333 -808
601 -115 135 -189 173 -276 140 -118 -45 -97 -179 69 -448 42 -68 60 -104 48
-98 -10 6 -68 56 -127 111 -60 55 -112 100 -116 100 -14 0 21 -71 67 -135 25
-35 110 -125 189 -201 80 -76 143 -140 141 -142 -2 -2 -45 22 -97 54 -174 107
-242 144 -275 150 -91 17 -120 -36 -92 -168 24 -112 104 -226 212 -305 29 -20
77 -58 107 -83 30 -25 76 -59 102 -75 33 -21 46 -35 43 -46 -7 -22 47 -88 103
-125 86 -58 199 -84 366 -84 58 0 96 -4 90 -9 -5 -5 -49 -23 -99 -41 -178 -65
-225 -99 -225 -165 0 -55 20 -80 85 -104 69 -26 218 -28 327 -6 103 21 271 78
399 136 106 47 109 48 90 21 -10 -15 -31 -38 -46 -52 -42 -39 -175 -216 -191
-257 -18 -43 -12 -90 17 -127 28 -36 116 -61 183 -52 28 4 111 9 184 11 124 3
133 2 120 -13 -108 -128 -128 -163 -128 -225 0 -150 175 -149 458 4 50 27 92
45 92 39 0 -6 -11 -32 -24 -58 -13 -26 -32 -71 -41 -99 -15 -45 -15 -54 -1
-86 10 -25 23 -38 41 -43 40 -10 143 3 200 24 104 40 104 40 55 -18 -34 -41
-41 -55 -33 -69 36 -58 191 24 303 162 25 31 49 56 53 57 5 0 6 -4 2 -9 -10
-18 -25 -115 -20 -132 15 -45 89 -27 182 44 83 64 145 107 155 107 5 0 8 -23
8 -50 0 -166 94 -180 289 -42 51 36 65 42 73 31 46 -66 358 -779 358 -820 0
-26 49 -119 128 -247 44 -70 91 -149 105 -177 14 -27 43 -70 64 -95 22 -25 59
-73 82 -108 185 -274 565 -600 978 -836 93 -53 80 -27 127 -273 34 -175 75
-302 146 -448 70 -144 142 -253 262 -397 110 -132 174 -189 257 -231 54 -26
78 -32 155 -35 100 -4 152 6 379 74 96 28 133 35 145 28 9 -6 56 -58 104 -115
168 -200 286 -295 464 -370 82 -36 112 -55 175 -114 92 -85 167 -126 355 -193
235 -84 333 -141 507 -296 45 -39 108 -91 139 -114 40 -29 60 -52 66 -74 5
-18 24 -92 42 -165 l33 -132 -53 -112 c-43 -91 -54 -125 -58 -179 -3 -53 -1
-69 13 -83 21 -21 73 -22 125 -1 l40 16 28 -30 c44 -47 82 -50 158 -11 35 17
65 30 67 28 1 -2 9 -17 17 -34 31 -60 133 -56 165 6 8 15 35 42 59 58 56 39
79 76 108 176 22 76 23 93 20 344 -4 359 3 395 136 671 62 128 74 176 63 256
-11 75 -30 121 -66 157 -46 45 -108 57 -296 57 -133 0 -182 4 -245 20 -44 11
-101 20 -127 20 -26 0 -62 6 -80 13 -18 8 -106 90 -197 184 -91 93 -196 194
-235 225 -104 81 -105 84 -53 99 24 6 86 15 138 20 52 5 131 13 175 19 44 5
107 12 141 16 l61 6 35 -83 c20 -46 47 -114 59 -151 23 -64 23 -68 6 -103 -41
-86 -11 -145 86 -165 50 -10 61 -9 107 11 l51 22 15 -22 c12 -16 25 -21 63
-21 54 0 111 34 150 88 l21 30 37 -20 c26 -13 50 -18 77 -14 101 12 147 110
113 243 -13 48 -15 91 -10 202 l6 140 -31 64 c-32 64 -64 98 -220 235 l-72 63
-31 102 c-86 287 -103 337 -134 402 -19 39 -50 88 -71 109 l-37 39 -81 -6
c-101 -7 -183 -40 -329 -131 -59 -37 -125 -75 -149 -86 -48 -21 -35 -26 -188
68 -205 127 -375 192 -504 192 -56 0 -138 -22 -271 -72 -60 -23 -146 -47 -190
-54 l-80 -12 -28 27 c-72 66 -71 60 -27 232 69 272 89 445 70 609 -23 201 -23
257 4 474 30 240 32 281 17 431 -13 135 -21 165 -67 240 -57 95 -111 161 -239
290 -149 151 -209 191 -597 399 -69 37 -88 52 -97 77 -25 71 -2 196 43 238
l24 23 147 -61 c367 -153 660 -239 935 -275 390 -51 710 -15 1153 130 112 37
152 55 215 100 74 53 132 84 180 99 20 6 26 -2 71 -97 27 -57 117 -247 200
-423 212 -445 197 -406 183 -479 -6 -33 -22 -112 -37 -174 -26 -113 -26 -114
-10 -195 10 -45 32 -116 49 -157 18 -41 39 -93 46 -115 11 -35 97 -232 108
-245 9 -11 34 40 57 115 26 86 65 295 65 351 0 41 6 42 51 8 39 -29 210 -132
313 -189 l69 -38 -7 29 c-22 88 -225 491 -269 535 -34 35 -117 76 -260 130
-99 37 -79 11 -182 239 -27 58 -115 242 -196 410 -82 167 -149 316 -149 331 0
23 12 33 82 73 150 84 268 199 332 323 21 41 21 141 1 170 -11 15 -28 23 -58
25 l-42 3 -6 85 c-11 150 -30 170 -156 170 -80 0 -83 1 -97 28 -8 15 -26 38
-40 51 -23 22 -34 24 -101 23 l-75 -2 6 44 c8 58 -11 115 -43 127 -13 5 -42 9
-64 9 -46 0 -91 -36 -154 -124 -22 -30 -42 -56 -45 -56 -3 0 -112 217 -242
481 -223 452 -236 481 -210 475 15 -4 63 -9 107 -12 77 -6 82 -5 112 20 47 39
67 101 61 188 -11 167 -127 304 -431 509 -207 139 -284 178 -300 152 -12 -20
-78 -432 -86 -534 -10 -136 0 -269 26 -342 25 -71 93 -140 155 -155 70 -18
109 -15 166 14 41 20 59 38 80 74 26 45 29 47 40 30 6 -11 74 -151 151 -312
77 -161 180 -378 230 -483 50 -104 91 -199 91 -211 0 -39 -24 -48 -77 -30 -53
18 -115 21 -142 6 -31 -16 -52 -87 -63 -213 l-11 -120 -71 6 c-39 4 -136 25
-216 47 -123 35 -171 43 -315 54 -190 15 -197 17 -397 117 -157 79 -285 157
-370 225 -53 43 -86 82 -153 183 -95 145 -151 208 -243 270 -81 54 -138 80
-232 102 -102 24 -168 43 -176 51 -12 13 89 68 124 68 21 0 67 -16 114 -41
l80 -40 74 27 c105 38 111 51 29 59 -84 9 -131 42 -174 121 -17 32 -31 60 -31
63 0 3 46 7 103 7 126 2 175 17 382 125 83 42 169 80 190 84 101 17 186 38
178 45 -4 4 -40 28 -79 53 -84 53 -122 99 -141 169 -16 66 -9 74 16 17 31 -71
103 -129 162 -129 17 0 15 6 -16 51 -81 119 -84 268 -7 385 30 44 32 54 32
134 l0 87 49 6 c57 7 135 43 125 58 -3 6 -26 19 -49 29 -75 32 -81 71 -35 211
60 183 50 301 -35 414 l-45 60 62 18 c90 26 159 54 188 78 l25 20 -35 -5 c-19
-3 -51 -9 -71 -12 -32 -6 -41 -2 -78 31 -34 31 -41 44 -41 74 0 88 -56 229
-124 310 -20 24 -36 46 -36 49 0 4 24 20 53 36 66 36 97 64 97 88 0 21 -16 25
-121 31 -108 7 -139 23 -190 99 -90 133 -202 208 -341 229 -40 6 -78 13 -84
14 -6 2 -16 23 -22 47 -26 98 -75 137 -197 159 -62 11 -148 8 -224 -7 -26 -6
-33 0 -76 60 -75 105 -182 153 -300 134 -82 -12 -161 -36 -219 -65 -57 -29
-81 -26 -130 17 -54 48 -142 97 -197 110 -133 32 -249 -45 -315 -210 l-23 -55
-64 -6 c-47 -4 -86 -16 -146 -46 -45 -22 -76 -34 -69 -25 12 14 7 15 -43 9
-72 -7 -131 -37 -157 -79 -26 -41 -54 -211 -46 -271 l6 -45 -83 -4 c-187 -10
-318 -112 -319 -248 0 -92 28 -122 50 -52 28 86 89 133 172 131 85 -1 86 -5
17 -99 -106 -146 -159 -277 -288 -713 -45 -150 -86 -240 -154 -338 -55 -78
-72 -119 -92 -214 -29 -144 -14 -353 45 -578 l28 -109 -52 7 c-89 11 -154 56
-339 232 -94 90 -177 174 -184 186 -6 12 -21 69 -33 127 -51 237 -120 348
-405 648 -52 55 -95 111 -115 152 -40 79 -93 158 -177 265 -74 93 -115 174
-115 224 0 20 5 65 12 101 6 36 18 110 26 165 79 538 343 979 694 1159 142 74
263 103 531 131 414 43 523 80 674 231 70 70 115 150 115 204 0 88 -60 186
-146 236 -45 26 -142 40 -189 27z"/>
</g>
</svg>
