<?xml version="1.0" standalone="no"?>
<!DOCTYPE svg PUBLIC "-//W3C//DTD SVG 20010904//EN"
 "http://www.w3.org/TR/2001/REC-SVG-20010904/DTD/svg10.dtd">
<svg version="1.0" xmlns="http://www.w3.org/2000/svg"
 width="1280.000000pt" height="320.000000pt" viewBox="0 0 1280.000000 320.000000"
 preserveAspectRatio="xMidYMid meet">
<metadata>
Created by potrace 1.15, written by Peter Selinger 2001-2017
</metadata>
<g transform="translate(0.000000,320.000000) scale(0.100000,-0.100000)"
fill="#000000" stroke="none">
<path d="M2355 2776 c-16 -7 -41 -25 -54 -39 l-24 -26 -38 19 c-77 40 -148 15
-170 -59 -14 -48 0 -98 44 -148 35 -40 128 -90 185 -99 35 -5 44 -2 93 38 78
64 114 127 114 200 0 51 -4 61 -30 88 -36 35 -79 45 -120 26z"/>
<path d="M4266 2729 c-21 -12 -58 -41 -81 -65 l-43 -44 -69 32 c-93 44 -164
45 -224 3 -63 -45 -91 -104 -87 -185 9 -155 133 -279 360 -356 39 -13 83 -24
96 -24 51 0 221 147 284 245 91 142 69 326 -47 392 -52 30 -135 30 -189 2z"/>
<path d="M11190 2704 c-27 -23 -34 -25 -56 -15 -39 17 -91 14 -114 -9 -67 -67
-12 -172 116 -219 l58 -22 40 29 c57 41 97 101 103 154 4 37 1 49 -22 76 -35
41 -80 43 -125 6z"/>
<path d="M8260 2692 c-36 -6 -85 -46 -104 -85 -24 -52 -20 -132 9 -195 29 -63
108 -149 177 -193 48 -31 52 -32 97 -20 61 16 162 63 206 96 112 86 136 238
50 314 -31 27 -43 31 -93 31 -40 -1 -71 -8 -101 -24 l-45 -23 -23 28 c-45 53
-113 81 -173 71z"/>
<path d="M1486 2669 c-50 -12 -148 -61 -208 -105 -50 -37 -208 -200 -208 -215
0 -16 -20 -10 -66 22 -65 44 -198 104 -275 123 -137 34 -288 15 -389 -49 -139
-88 -230 -264 -230 -445 0 -182 109 -403 274 -558 160 -149 428 -286 727 -371
172 -49 153 -50 260 20 353 231 593 508 684 789 37 113 47 314 20 406 -54 188
-194 336 -359 380 -57 15 -171 17 -230 3z"/>
<path d="M5827 2656 c-117 -42 -237 -133 -348 -264 l-44 -53 -84 50 c-189 114
-377 150 -534 101 -193 -60 -327 -258 -327 -485 0 -423 422 -797 1076 -955
l86 -21 55 33 c83 51 249 177 334 254 285 261 413 494 426 774 6 132 -7 204
-58 308 -36 73 -133 182 -196 219 -114 67 -264 82 -386 39z"/>
<path d="M10010 2666 c-127 -36 -303 -169 -396 -300 l-21 -29 -61 37 c-165
100 -299 141 -444 134 -118 -5 -201 -40 -287 -123 -104 -99 -154 -223 -155
-380 -1 -158 46 -285 161 -441 71 -95 135 -153 263 -239 170 -114 431 -223
667 -280 l72 -18 99 66 c320 213 563 477 652 708 49 127 63 202 63 329 -1 96
-5 127 -26 187 -60 173 -171 290 -325 342 -70 24 -189 27 -262 7z"/>
<path d="M6663 2548 c-19 -19 -26 -20 -48 -10 -64 30 -115 0 -115 -67 0 -49
37 -96 95 -122 56 -26 81 -24 125 11 95 75 93 210 -3 210 -20 0 -41 -8 -54
-22z"/>
<path d="M10676 2539 c-21 -16 -26 -29 -26 -63 0 -50 26 -94 82 -139 l36 -29
52 17 c29 10 67 32 86 51 28 29 34 42 34 78 0 29 -6 48 -18 59 -20 18 -78 22
-101 8 -10 -7 -24 -2 -44 15 -35 29 -66 31 -101 3z"/>
<path d="M12490 2484 c-27 -23 -34 -25 -56 -15 -30 14 -79 14 -103 1 -45 -24
-51 -104 -11 -160 24 -34 131 -90 171 -90 39 0 133 92 149 147 33 109 -67 187
-150 117z"/>
<path d="M7980 2479 c-13 -6 -32 -17 -42 -25 -14 -14 -22 -14 -52 -3 -50 18
-88 3 -102 -40 -6 -18 -9 -45 -6 -58 8 -40 66 -90 126 -109 l54 -17 41 32 c68
54 98 126 75 186 -5 13 -55 47 -66 44 -2 0 -14 -5 -28 -10z"/>
<path d="M3390 2450 c-15 -15 -20 -33 -20 -71 0 -48 3 -53 55 -105 60 -60 69
-61 146 -23 79 40 117 131 71 172 -20 18 -78 22 -101 8 -10 -7 -24 -2 -44 15
-35 29 -80 31 -107 4z"/>
<path d="M11108 2345 c-165 -45 -304 -188 -360 -370 -17 -54 -22 -95 -22 -180
1 -242 84 -439 289 -683 132 -158 440 -412 499 -412 14 0 72 11 129 24 514
123 835 331 991 642 164 328 12 707 -309 774 -145 30 -383 -30 -529 -133 -26
-18 -29 -19 -38 -3 -5 9 -36 49 -68 90 -169 209 -389 304 -582 251z"/>
<path d="M2514 2325 c-249 -79 -404 -342 -366 -623 21 -158 71 -293 155 -417
129 -192 316 -370 557 -531 l101 -67 92 23 c229 57 485 165 653 276 213 141
365 349 408 556 21 102 20 159 -4 252 -40 157 -134 276 -266 338 -55 26 -82
32 -160 36 -145 7 -279 -33 -446 -134 l-61 -37 -20 29 c-38 55 -193 199 -252
234 -125 74 -280 100 -391 65z"/>
<path d="M6899 2317 c-82 -30 -143 -71 -204 -139 -54 -59 -117 -185 -134 -266
-26 -124 -4 -298 57 -455 64 -166 251 -396 456 -561 99 -80 283 -206 301 -206
20 0 257 67 335 95 41 15 129 53 195 85 287 138 457 294 561 515 50 107 64
168 64 278 0 210 -104 385 -278 468 -57 27 -81 33 -162 37 -147 7 -295 -39
-454 -141 l-49 -31 -30 40 c-88 114 -225 224 -340 272 -92 38 -227 42 -318 9z"/>
<path d="M4296 1390 c-79 -51 -100 -170 -50 -277 29 -61 113 -151 187 -202
l48 -33 85 28 c86 27 181 81 221 125 67 74 87 169 51 239 -47 91 -130 113
-235 64 l-56 -27 -19 27 c-51 69 -169 98 -232 56z"/>
<path d="M8765 1340 c-11 -4 -33 -22 -49 -38 l-28 -30 -32 19 c-34 21 -105 25
-137 9 -45 -24 -64 -122 -35 -178 32 -62 138 -132 223 -148 83 -16 223 142
223 251 0 88 -86 148 -165 115z"/>
<path d="M10142 1164 c-57 -28 -105 -90 -123 -158 -18 -66 -5 -166 31 -242 58
-120 222 -260 387 -330 l63 -27 62 27 c146 63 300 182 363 281 131 204 58 448
-141 471 -76 9 -165 -24 -256 -97 l-26 -22 -44 36 c-107 88 -219 110 -316 61z"/>
<path d="M224 1146 c-41 -41 -45 -87 -13 -153 29 -59 112 -133 151 -133 46 0
154 56 183 94 49 65 42 152 -16 181 -37 20 -57 19 -102 -4 -32 -16 -39 -17
-44 -5 -8 21 -67 54 -98 54 -17 0 -39 -12 -61 -34z"/>
<path d="M6535 1173 c-59 -14 -91 -29 -145 -69 l-61 -45 -37 29 c-154 121
-316 103 -387 -43 -24 -48 -27 -64 -23 -132 6 -133 73 -239 213 -338 66 -47
216 -125 240 -125 22 0 149 65 215 110 73 50 171 154 198 211 31 64 46 145 38
200 -10 71 -62 149 -116 176 -48 24 -102 34 -135 26z"/>
<path d="M1687 1150 c-117 -35 -170 -182 -116 -325 38 -102 177 -226 327 -291
l63 -27 52 24 c152 71 288 193 328 296 42 111 25 217 -48 285 -76 72 -199 63
-297 -23 -26 -22 -42 -30 -50 -23 -111 84 -182 107 -259 84z"/>
<path d="M9050 1079 c-66 -26 -102 -87 -101 -171 0 -102 74 -214 197 -298 48
-34 61 -35 125 -16 118 36 225 112 265 188 26 49 25 148 -2 184 -55 74 -128
88 -220 41 l-50 -25 -27 33 c-29 37 -101 75 -138 74 -13 0 -35 -5 -49 -10z"/>
<path d="M4067 1002 c-15 -10 -33 -26 -40 -36 -12 -16 -15 -16 -60 4 -56 25
-94 20 -130 -16 -73 -73 -18 -200 112 -257 98 -44 109 -43 173 8 121 95 153
230 70 295 -31 25 -88 26 -125 2z"/>
<path d="M8281 964 c-45 -19 -67 -74 -51 -127 15 -52 78 -118 140 -147 l51
-24 43 21 c128 62 183 178 120 252 -31 38 -81 42 -132 11 -30 -18 -35 -19 -56
-5 -41 27 -80 34 -115 19z"/>
<path d="M1014 924 c-17 -8 -41 -33 -54 -55 -53 -95 7 -229 142 -322 l53 -37
62 20 c145 50 233 135 233 229 0 55 -27 104 -69 126 -40 20 -63 19 -121 -6
l-50 -21 -36 32 c-60 52 -104 62 -160 34z"/>
<path d="M5363 920 c-97 -58 -81 -213 33 -321 27 -25 63 -56 81 -67 l31 -22
64 20 c191 59 288 208 208 320 -39 55 -123 61 -197 13 -19 -13 -23 -12 -32 6
-16 28 -92 71 -127 71 -16 0 -43 -9 -61 -20z"/>
<path d="M12484 896 c-17 -8 -48 -31 -69 -51 l-37 -38 -51 24 c-130 61 -237 0
-237 -137 0 -94 63 -175 183 -234 45 -22 103 -45 128 -52 46 -11 48 -11 96 25
164 120 237 271 183 381 -12 25 -35 55 -52 67 -37 27 -103 34 -144 15z"/>
<path d="M4745 804 c-29 -31 -34 -98 -11 -142 28 -52 132 -132 172 -132 47 0
151 76 180 132 38 73 -3 168 -73 168 -20 0 -50 -9 -69 -20 l-32 -21 -34 21
c-48 29 -103 27 -133 -6z"/>
<path d="M2556 749 c-23 -18 -30 -19 -62 -9 -90 30 -141 -57 -82 -142 20 -29
110 -78 143 -78 26 0 100 62 120 101 8 15 15 45 15 67 0 73 -75 107 -134 61z"/>
<path d="M7040 739 c-13 -6 -32 -17 -41 -25 -12 -11 -22 -12 -43 -4 -43 16
-71 12 -94 -13 -31 -33 -29 -87 5 -128 28 -32 113 -79 146 -79 10 0 40 21 67
46 53 49 76 102 64 148 -11 46 -60 72 -104 55z"/>
<path d="M11204 678 c-16 -13 -34 -29 -40 -36 -9 -12 -15 -12 -42 2 -17 9 -51
16 -75 16 -83 0 -130 -87 -89 -167 36 -69 126 -132 216 -148 65 -13 187 115
202 210 16 108 -92 185 -172 123z"/>
</g>
</svg>
