<?xml version="1.0" standalone="no"?>
<!DOCTYPE svg PUBLIC "-//W3C//DTD SVG 20010904//EN"
 "http://www.w3.org/TR/2001/REC-SVG-20010904/DTD/svg10.dtd">
<svg version="1.0" xmlns="http://www.w3.org/2000/svg"
 width="1280.000000pt" height="1113.000000pt" viewBox="0 0 1280.000000 1113.000000"
 preserveAspectRatio="xMidYMid meet">
<metadata>
Created by potrace 1.15, written by Peter Selinger 2001-2017
</metadata>
<g transform="translate(0.000000,1113.000000) scale(0.100000,-0.100000)"
fill="#000000" stroke="none">
<path d="M6532 10688 c-15 -15 -16 -48 0 -48 7 0 5 -7 -5 -17 -8 -10 -148
-229 -309 -488 -162 -258 -604 -965 -983 -1570 -378 -605 -697 -1113 -708
-1129 -19 -26 -21 -27 -27 -10 -4 10 -11 43 -15 72 l-7 52 44 0 c49 0 68 13
68 46 0 35 -26 54 -76 54 l-44 0 0 978 0 978 104 -4 c82 -3 116 0 158 14 75
25 151 22 218 -9 92 -42 139 -40 183 8 25 27 42 35 82 41 28 3 53 8 57 10 14
9 20 133 10 214 -11 91 -24 110 -73 110 -20 0 -36 -10 -55 -35 -32 -42 -66
-45 -152 -14 -135 49 -157 51 -262 24 -56 -14 -76 -15 -166 -4 -82 10 -101 15
-93 25 6 7 8 23 4 34 -5 16 -14 20 -33 18 -24 -3 -27 -7 -26 -38 1 -19 -2
-188 -7 -375 l-8 -340 -664 -1145 c-365 -630 -1065 -1838 -1556 -2685 -1012
-1746 -1011 -1744 -1021 -1750 -4 -2 -26 3 -49 12 -54 21 -73 7 -39 -29 24
-25 288 -197 710 -464 168 -105 237 -154 238 -167 1 -68 73 -133 262 -239 59
-33 105 -64 102 -69 -3 -5 -71 -59 -152 -121 -289 -221 -598 -462 -680 -530
-80 -68 -100 -98 -64 -98 38 0 469 293 810 552 100 76 190 138 199 138 9 0 64
-28 121 -62 106 -62 132 -92 132 -147 0 -18 -43 -63 -102 -106 -26 -19 -27
-22 -16 -65 6 -25 29 -74 51 -110 22 -36 58 -96 80 -135 52 -92 103 -160 207
-275 48 -52 103 -117 124 -144 43 -57 116 -197 145 -279 10 -31 32 -74 48 -97
25 -37 34 -42 73 -46 25 -2 281 -28 570 -58 1156 -122 1922 -178 3075 -226
585 -24 1620 -55 2200 -65 182 -3 425 -13 540 -22 190 -14 297 -13 336 2 17 6
24 71 23 218 -1 101 -3 112 -34 172 -40 78 -36 119 13 162 28 25 146 82 309
152 58 25 86 66 145 212 83 210 109 375 100 639 -7 201 -17 240 -69 257 -69
23 -162 30 -219 17 -30 -6 -124 -28 -209 -47 -85 -20 -155 -35 -157 -34 -1 2
36 104 83 227 82 218 85 227 80 292 -5 66 -4 67 22 72 15 3 178 31 362 61 429
71 1066 181 1150 198 54 11 66 17 68 35 4 26 11 25 -106 8 -80 -13 -96 -13
-120 0 -15 7 -101 45 -191 83 -303 129 -460 234 -700 467 -277 269 -475 537
-746 1009 -343 596 -604 1220 -785 1873 l-43 152 71 74 c55 56 73 69 77 57 4
-9 82 -218 175 -466 393 -1054 812 -2161 822 -2170 5 -5 3 8 -6 30 -29 76
-614 1631 -801 2133 l-188 503 36 37 c34 34 49 72 29 72 -4 0 -45 -34 -90 -77
-79 -72 -90 -78 -204 -120 -66 -23 -125 -43 -130 -43 -5 0 -34 -11 -64 -25
-31 -14 -346 -131 -702 -261 -356 -129 -649 -238 -652 -241 -9 -10 37 6 689
243 488 178 646 231 653 222 5 -9 -5 -19 -34 -32 -63 -28 -370 -139 -793 -286
-662 -230 -625 -218 -625 -202 0 4 17 15 38 24 20 10 29 16 19 13 -69 -19 -63
-23 -70 56 -3 40 -4 75 -2 79 2 4 45 -1 94 -10 112 -21 149 -9 71 24 -33 14
-35 17 -56 117 -12 57 -115 525 -229 1039 -113 514 -276 1252 -361 1640 -85
388 -159 714 -164 725 -14 27 -47 179 356 -1649 389 -1764 407 -1847 402
-1851 -2 -1 -18 2 -35 7 -23 6 -33 15 -33 28 0 16 -151 651 -535 2250 -69 289
-144 601 -166 694 -22 94 -44 175 -48 180 -5 6 -12 96 -16 200 l-8 189 24 -6
c111 -27 188 -30 305 -12 86 13 144 16 217 11 l98 -6 39 39 c33 33 48 41 95
46 l55 7 0 92 c0 113 -16 207 -38 224 -30 23 -63 14 -102 -29 l-38 -42 -58 7
c-33 4 -116 18 -187 32 -146 28 -223 30 -293 9 -27 -8 -63 -15 -81 -15 -27 0
-32 4 -35 28 -3 30 -34 42 -56 20z m17 -574 l1 -240 -975 -1178 c-536 -647
-975 -1179 -975 -1182 0 -2 2 -4 4 -4 1 0 439 527 972 1170 l969 1171 6 -78
c4 -43 10 -274 13 -513 4 -239 9 -454 12 -477 l6 -43 -88 0 c-98 0 -124 -13
-124 -60 0 -44 27 -59 111 -62 l75 -3 -53 -794 c-28 -436 -53 -795 -55 -796
-2 -2 -95 24 -208 57 -223 64 -430 115 -610 147 -136 25 -130 25 -130 7 0 -13
89 -52 195 -86 22 -7 44 -16 49 -21 9 -8 35 -267 36 -354 l0 -40 -177 7 c-98
4 -357 11 -575 16 -219 4 -399 10 -402 13 -6 6 -104 497 -112 562 -7 57 -6 58
35 107 23 28 44 59 46 69 3 15 559 910 1188 1911 61 96 245 391 410 655 165
264 309 494 321 510 l21 30 6 -130 c4 -71 7 -238 8 -371z m425 -1764 c197
-822 363 -1514 368 -1538 6 -23 8 -46 4 -49 -3 -3 -32 2 -64 11 l-58 18 -108
386 c-60 213 -126 448 -147 522 -44 158 -247 877 -255 903 -5 15 2 17 57 17
51 0 67 4 86 22 28 26 29 52 3 78 -17 17 -33 20 -110 20 -106 0 -96 -16 -104
175 -12 283 -36 833 -39 888 -2 31 0 54 3 50 4 -5 168 -681 364 -1503z m-2570
583 l-7 -317 -600 -942 -600 -941 -126 -6 c-116 -6 -140 -13 -141 -38 0 -4 52
-10 115 -15 l115 -9 -336 -500 c-1169 -1739 -1475 -2197 -1472 -2201 2 -2 413
606 914 1351 l909 1355 73 0 c55 0 72 -3 72 -14 0 -23 -59 -274 -96 -411 -73
-265 -264 -826 -378 -1108 -108 -266 -217 -475 -281 -537 -32 -31 -154 -80
-202 -80 -41 -1 -131 -27 -113 -33 8 -3 53 -8 100 -11 65 -5 103 -14 165 -41
44 -18 121 -48 170 -66 50 -18 92 -34 93 -35 5 -3 -149 -282 -236 -429 -137
-230 -417 -652 -455 -683 -11 -10 -98 33 -453 224 -241 130 -443 240 -447 244
-4 4 31 64 78 135 47 70 85 130 85 132 0 2 -6 1 -12 -4 -8 -4 -7 3 3 17 13 21
418 717 766 1320 873 1508 2297 3960 2300 3960 3 0 1 -143 -3 -317z m2166
-503 c-9 -168 -13 -201 -24 -189 -3 3 19 358 23 378 1 2 3 2 6 0 2 -3 0 -88
-5 -189z m-2185 -307 c-5 -254 -12 -463 -15 -466 -3 -2 -25 -8 -49 -13 -54
-11 -70 -33 -52 -68 9 -17 24 -26 45 -28 28 -3 31 -6 29 -33 -6 -72 -66 -740
-67 -741 -2 -3 -1061 -42 -1063 -40 -1 1 264 419 589 929 325 510 592 926 593
924 0 -1 -4 -210 -10 -464z m2470 -413 c86 -399 162 -754 170 -790 7 -36 12
-67 9 -69 -2 -2 -39 6 -81 18 -43 12 -101 29 -129 37 l-51 14 -11 213 c-7 116
-23 424 -36 682 -14 259 -27 508 -30 555 -3 47 -3 81 -1 75 3 -5 75 -336 160
-735z m-118 688 c-3 -8 -6 -5 -6 6 -1 11 2 17 5 13 3 -3 4 -12 1 -19z m39
-155 c-5 -6 -23 56 -31 108 -3 18 4 3 15 -35 11 -38 19 -71 16 -73z m-220
-115 c-3 -57 -9 -165 -12 -240 -5 -108 -9 -138 -20 -138 -17 0 -17 -20 1 230
8 113 15 215 15 228 0 12 5 22 11 22 8 0 10 -30 5 -102z m284 -112 c45 -174
53 -223 35 -204 -6 6 -95 377 -95 397 0 31 10 -2 60 -193z m35 -34 c20 -74 39
-141 42 -150 4 -12 3 -14 -5 -7 -8 8 -82 269 -82 292 0 20 12 -16 45 -135z
m-308 -14 c-2 -13 -4 -3 -4 22 0 25 2 35 4 23 2 -13 2 -33 0 -45z m11 -153 c0
-104 -5 -86 -11 35 -2 52 -1 84 4 70 4 -14 7 -61 7 -105z m40 -395 c5 -245 8
-446 7 -448 -1 -1 -10 0 -19 4 -15 6 -16 50 -15 488 1 284 5 465 10 441 4 -22
12 -240 17 -485z m-61 353 c-2 -21 -4 -4 -4 37 0 41 2 58 4 38 2 -21 2 -55 0
-75z m404 -220 c52 -195 62 -249 51 -251 -7 -2 -16 -2 -18 1 -6 6 -114 465
-114 483 0 8 4 14 8 14 5 0 38 -111 73 -247z m32 6 c41 -146 64 -246 59 -251
-6 -6 -18 24 -30 74 -12 46 -42 158 -66 251 -24 92 -41 167 -37 167 4 0 37
-109 74 -241z m-49 -126 c18 -79 29 -143 25 -143 -5 0 -9 1 -9 3 0 1 -23 105
-50 231 -28 127 -50 235 -49 240 1 12 32 -110 83 -331z m-411 221 c-7 -236
-15 -334 -28 -334 -8 0 -16 3 -18 8 -3 4 1 95 9 202 7 107 13 199 14 203 0 5
6 7 13 4 8 -3 11 -27 10 -83z m22 -133 c-4 -111 -12 -201 -17 -201 -8 0 -5
134 8 328 11 155 16 74 9 -127z m20 -199 c-14 -14 -15 21 -8 209 l8 204 3
-204 c1 -112 0 -206 -3 -209z m-2195 -32 c0 -87 -4 -140 -10 -140 -6 0 -10 28
-10 63 0 72 11 217 16 217 2 0 4 -63 4 -140z m-35 -57 c-4 -47 -9 -82 -12 -79
-3 2 -1 49 3 103 4 54 10 89 12 79 2 -11 1 -57 -3 -103z m194 -445 c1 -14 -7
-18 -34 -18 l-35 0 1 278 1 277 34 -260 c18 -143 33 -268 33 -277z m1977 445
c-3 -42 -6 -109 -6 -150 0 -71 -1 -74 -22 -71 -26 3 -26 7 -13 201 6 89 9 97
27 97 20 0 21 -4 14 -77z m34 29 c0 -100 -13 -262 -22 -262 -10 0 -10 78 -1
213 6 100 23 135 23 49z m30 -112 c0 -142 -2 -160 -16 -160 -15 0 -16 10 -10
77 3 42 6 114 6 160 0 49 4 83 10 83 6 0 10 -60 10 -160z m499 103 c6 -21 37
-131 69 -245 44 -154 55 -208 45 -208 -19 0 -26 21 -88 261 -61 237 -59 229
-45 229 5 0 14 -17 19 -37z m13 -198 c31 -121 58 -223 58 -227 0 -11 -38 -10
-45 1 -6 11 -105 424 -105 441 0 6 8 10 17 8 13 -2 30 -54 75 -223z m-2585
193 c-3 -8 -6 -5 -6 6 -1 11 2 17 5 13 3 -3 4 -12 1 -19z m2526 -194 c52 -223
54 -236 33 -214 -11 13 -96 381 -96 420 0 43 22 -27 63 -206z m-2516 134 c-3
-7 -5 -2 -5 12 0 14 2 19 5 13 2 -7 2 -19 0 -25z m42 -215 c34 -199 34 -203
23 -203 -6 0 -63 351 -62 384 1 33 13 -22 39 -181z m4501 183 c0 -2 -80 -78
-177 -168 -98 -91 -276 -260 -397 -376 l-219 -210 -54 -7 c-45 -5 -58 -3 -74
11 -17 15 -40 18 -157 18 -167 0 -452 -14 -452 -23 0 -3 42 -3 92 1 51 3 162
7 246 7 149 1 152 1 140 -19 -12 -19 -26 -20 -248 -23 l-235 -2 247 -3 c151
-1 249 -6 253 -12 3 -5 28 -10 55 -10 36 0 52 5 62 18 8 12 32 21 63 26 l50 6
-65 -67 c-158 -165 -644 -652 -648 -649 -2 2 -45 152 -96 332 l-93 329 29 8
c37 10 36 19 -1 14 -19 -3 -31 0 -35 8 -4 10 12 15 62 20 106 10 115 14 21 10
l-87 -4 -5 52 c-3 29 -2 55 1 58 4 4 160 59 347 124 437 151 905 317 1020 362
50 19 105 37 124 38 71 7 115 41 91 70 -9 10 1 18 42 33 29 10 60 22 68 25 19
7 30 8 30 3z m-4727 -123 c-11 -183 -18 -253 -25 -253 -5 0 -9 2 -10 5 -5 16
26 345 33 345 5 0 6 -44 2 -97z m39 -75 c-3 -117 -8 -175 -15 -180 -7 -4 -15
-4 -18 0 -11 13 13 352 25 352 8 0 10 -51 8 -172z m1423 -455 c12 -274 -14
-485 -74 -600 l-17 -35 -32 109 c-44 151 -68 253 -86 359 -16 93 -46 307 -46
330 0 16 31 21 151 23 l97 1 7 -187z m1600 -371 c19 -66 35 -127 35 -135 0
-20 -31 -31 -41 -15 -15 24 -46 288 -32 274 2 -2 19 -57 38 -124z m64 -229
c44 -150 47 -163 31 -173 -8 -5 -19 -8 -25 -7 -5 2 -23 54 -39 116 -25 95 -27
114 -15 122 24 15 28 11 48 -58z m-44 -85 c24 -92 26 -111 15 -137 -13 -34
-39 -48 -52 -29 -4 7 -8 78 -8 158 1 85 4 139 9 130 5 -8 21 -63 36 -122z
m106 -136 c5 -24 2 -35 -12 -48 -23 -20 -24 -19 -37 27 -8 29 -7 38 7 47 24
16 35 9 42 -26z m-56 -48 c5 -31 2 -41 -21 -65 -15 -16 -31 -29 -34 -29 -4 0
-11 20 -17 44 -9 42 -9 45 14 51 13 3 26 12 29 20 10 25 21 17 29 -21z m-78
-116 c-3 -7 -5 -2 -5 12 0 14 2 19 5 13 2 -7 2 -19 0 -25z m-1227 -46 l185
-27 -3 -40 c-2 -22 -6 -42 -8 -44 -2 -2 -109 12 -237 33 -127 20 -240 36 -249
36 -21 0 -24 6 -33 51 l-6 35 83 -8 c46 -5 166 -21 268 -36z m275 -41 c3 -6 3
-27 -1 -48 -6 -37 -7 -39 -40 -35 -42 5 -48 14 -40 58 6 31 10 34 41 34 19 0
36 -4 40 -9z m65 -47 c0 -44 -1 -45 -27 -42 -16 2 -27 6 -25 11 1 4 2 23 2 42
0 31 3 35 25 35 23 0 25 -4 25 -46z m70 -10 c0 -42 -1 -44 -30 -44 -29 0 -30
2 -30 43 0 52 3 56 35 49 22 -4 25 -9 25 -48z m113 29 c4 -2 7 -23 7 -46 l0
-42 -55 3 -55 4 0 50 0 49 48 -7 c26 -3 50 -8 55 -11z m364 -50 c42 -15 118
-15 158 2 11 4 -1 -14 -28 -42 l-47 -49 -120 11 c-66 7 -123 15 -127 19 -4 3
-9 33 -11 66 l-4 60 68 -25 c38 -15 88 -33 111 -42z m-927 -119 c85 -13 165
-24 177 -24 12 0 24 -4 28 -9 5 -9 -18 -401 -30 -506 -2 -22 -4 -55 -4 -72 -1
-28 -5 -33 -25 -33 -17 0 -48 26 -108 89 -67 70 -95 109 -131 183 -40 81 -147
373 -147 401 0 6 16 7 43 3 23 -4 112 -18 197 -32z m305 -47 c1 -1 -1 -46 -3
-99 l-4 -98 -31 0 c-57 0 -60 7 -52 115 l7 97 41 -6 c23 -4 42 -8 42 -9z m60
-7 c10 0 12 -19 8 -87 -3 -49 -6 -88 -7 -89 0 -1 -13 -4 -28 -8 l-28 -6 0 62
c0 93 10 140 27 134 8 -4 21 -6 28 -6z m63 -6 c22 -6 23 -10 21 -90 l-3 -84
-27 0 c-15 0 -31 5 -34 10 -8 13 5 170 14 170 3 0 16 -3 29 -6z m144 -23 c4
-3 12 -251 18 -551 9 -418 9 -713 0 -1270 -7 -399 -15 -763 -19 -810 l-6 -84
-38 -8 c-20 -4 -49 -16 -64 -25 l-26 -17 7 604 c3 333 6 805 6 1050 0 245 3
599 7 788 l6 342 51 -6 c28 -4 54 -9 58 -13z m253 -61 c-27 -27 -50 -49 -51
-47 -1 1 -5 23 -8 50 l-7 47 58 0 57 0 -49 -50z m-529 -114 c0 0 -2 -64 -5
-141 l-6 -140 -49 -3 -48 -3 6 113 c4 62 9 129 12 149 5 37 6 37 47 32 23 -3
42 -6 43 -7z m74 -93 c0 -60 -3 -125 -6 -145 -6 -34 -10 -38 -37 -38 l-30 0 5
136 c6 141 10 153 51 154 15 0 17 -12 17 -107z m71 -38 c-1 -77 -3 -140 -4
-141 -1 -1 -15 0 -32 3 l-30 5 3 139 3 140 31 -3 32 -3 -3 -140z m-2355 -37
c-3 -79 -9 -167 -12 -195 l-6 -53 -47 0 -47 0 17 184 c9 101 20 189 23 195 4
6 23 11 43 11 l36 0 -7 -142z m104 84 c0 -33 -3 -120 -7 -195 l-6 -137 -45 0
-45 0 7 133 c4 72 9 160 12 195 l6 62 39 0 39 0 0 -58z m453 39 c7 -7 47 -293
47 -338 0 -23 -1 -23 -160 -23 l-160 0 0 191 0 192 133 -8 c72 -4 135 -10 140
-14z m-653 -13 c0 -36 -30 -342 -34 -355 -3 -8 -73 -11 -243 -13 -131 0 -373
-5 -538 -10 -165 -4 -302 -6 -304 -5 -2 2 21 50 50 106 63 118 49 110 273 174
254 72 536 122 709 124 84 1 87 0 87 -21z m742 -113 c9 -65 14 -123 12 -127
-3 -4 -14 -8 -24 -8 -22 0 -24 8 -40 129 -15 124 -14 133 12 129 21 -3 24 -13
40 -123z m72 21 c22 -124 22 -126 -13 -126 -28 0 -29 1 -40 83 -7 45 -14 96
-17 113 -5 29 -4 31 24 26 28 -4 30 -6 46 -96z m63 79 c7 -5 40 -186 34 -189
-3 -2 -18 -6 -33 -10 -25 -6 -28 -3 -34 31 -3 21 -12 68 -19 105 -6 37 -10 70
-7 73 4 4 52 -4 59 -10z m318 -51 c244 -50 483 -121 794 -235 l65 -24 -195 -6
c-232 -8 -889 -12 -895 -6 -5 4 -64 294 -64 312 0 14 93 1 295 -41z m-978
-161 c-2 -16 -4 -3 -4 27 0 30 2 43 4 28 2 -16 2 -40 0 -55z m-1308 -62 c-49
-92 -57 -101 -83 -101 -28 0 -28 0 -12 25 9 13 36 58 61 99 39 63 68 91 84 80
1 -2 -21 -48 -50 -103z m-31 57 c-8 -13 -34 -53 -57 -89 l-41 -67 -143 -7
c-78 -4 -164 -5 -192 -3 -49 3 -48 4 145 77 107 41 215 82 240 92 59 24 65 23
48 -3z m2048 -15 c3 -16 10 -42 14 -60 4 -17 5 -34 2 -37 -11 -12 -72 -6 -72
7 -1 6 -5 31 -9 55 -8 39 -6 44 13 52 35 15 45 11 52 -17z m1502 21 c21 -6 22
-11 22 -120 l0 -114 -35 0 -35 0 0 113 c0 131 1 133 48 121z m-58 -118 l0
-114 -30 -7 c-16 -4 -33 -6 -36 -6 -4 1 -6 52 -5 113 2 118 6 128 49 128 22 0
22 -2 22 -114z m-1526 73 c13 -65 8 -79 -23 -79 -25 0 -29 4 -35 38 -11 66 -9
72 23 72 24 0 29 -5 35 -31z m1446 -18 l0 -49 -32 2 c-18 2 -41 4 -50 5 -19 1
-23 27 -12 69 5 18 13 22 50 22 l44 0 0 -49z m-1522 -18 c3 -40 1 -43 -21 -43
-20 0 -26 6 -31 35 -8 43 -1 57 27 53 18 -2 23 -11 25 -45z m-561 -45 c-3 -7
-5 -2 -5 12 0 14 2 19 5 13 2 -7 2 -19 0 -25z m2083 -37 c0 -16 -3 -43 -6 -60
-6 -28 -10 -31 -43 -31 -55 0 -64 10 -56 61 10 59 10 59 61 59 42 0 44 -1 44
-29z m-192 14 c-2 -3 -78 -31 -169 -64 -188 -67 -345 -113 -474 -137 -96 -18
-290 -23 -387 -10 l-56 7 -16 71 c-9 39 -15 73 -13 75 2 1 154 10 338 19 184
9 424 21 534 28 262 17 249 17 243 11z m76 -42 c-2 -27 -38 -563 -80 -1193
-41 -630 -77 -1153 -80 -1162 -5 -17 -27 -18 -280 -18 -151 0 -274 3 -274 6 0
3 -99 490 -220 1081 -121 592 -220 1084 -220 1095 0 17 4 18 38 11 68 -14 312
-8 407 11 149 29 387 102 615 190 95 37 100 36 94 -21z m-1290 -94 l7 -46 -31
5 c-34 5 -50 31 -50 82 0 24 5 29 28 32 31 3 36 -5 46 -73z m89 44 c4 -21 9
-53 13 -70 6 -31 5 -33 -24 -33 -34 0 -62 22 -62 48 0 9 -3 34 -6 55 l-7 37
40 0 c39 0 41 -1 46 -37z m-251 -13 c2 -22 0 -40 -5 -40 -9 0 -179 41 -232 56
-23 7 -8 10 70 14 55 4 114 7 131 8 30 2 32 0 36 -38z m72 18 c3 -13 6 -35 6
-51 0 -25 -3 -27 -27 -21 -34 8 -29 1 -37 52 -6 41 -6 42 23 42 21 0 30 -6 35
-22z m-2056 5 c-22 -51 -61 -113 -69 -113 -11 0 -222 78 -279 104 -33 14 -25
15 158 16 107 0 192 -3 190 -7z m82 -5 c0 -7 -15 -40 -34 -73 -28 -50 -38 -60
-57 -57 -13 1 -27 6 -30 10 -4 4 9 35 28 70 30 54 39 62 64 62 17 0 29 -5 29
-12z m1135 -60 c-4 -35 -9 -66 -12 -70 -7 -12 -190 -66 -288 -85 -121 -23
-427 -23 -574 0 -94 15 -300 63 -309 71 -2 2 13 36 32 75 l36 71 561 0 561 0
-7 -62z m116 57 c3 -2 3 -21 1 -41 -4 -31 -10 -39 -46 -55 -22 -10 -46 -19
-51 -19 -9 0 -9 79 0 108 4 11 86 18 96 7z m102 -4 c16 -6 17 -9 5 -19 -8 -6
-31 -18 -51 -27 l-37 -15 0 35 c0 33 2 35 33 34 17 0 40 -4 50 -8z m395 -27
c81 -20 150 -40 154 -43 8 -7 261 -2031 254 -2038 -1 -1 -26 4 -56 12 -86 23
-210 45 -367 65 -79 10 -146 20 -149 22 -2 3 -7 457 -11 1011 -6 941 -5 1007
11 1007 9 0 83 -16 164 -36z m1796 -121 c-4 -82 -7 -149 -8 -150 0 0 -19 -5
-40 -9 l-39 -7 6 69 c4 38 7 104 7 146 l0 77 33 10 c17 5 35 10 40 10 4 1 4
-65 1 -146z m86 -3 l0 -150 -42 0 -41 0 6 113 c4 61 7 129 7 150 0 36 1 37 35
37 l35 0 0 -150z m-194 126 l27 -1 -7 -140 c-4 -77 -10 -143 -15 -148 -5 -5
-28 -5 -52 0 l-44 9 2 50 c1 27 5 93 8 146 7 97 7 98 31 92 13 -3 36 -7 50 -8z
m-2051 -253 c-4 -95 -10 -173 -14 -173 -5 0 1 281 10 395 l2 40 5 -45 c2 -25
1 -123 -3 -217z m-30 -10 c-8 -179 -5 -173 -80 -173 l-30 0 10 189 c6 105 13
192 15 194 3 3 23 14 45 25 l40 20 3 -46 c2 -26 1 -120 -3 -209z m630 204 c2
-1 6 -23 9 -49 l7 -48 -30 0 c-32 0 -35 5 -44 78 -4 33 -3 34 26 28 17 -3 31
-7 32 -9z m-739 -89 c-3 -46 -8 -131 -12 -190 l-6 -108 -27 1 c-51 2 -86 15
-84 29 1 8 7 81 13 163 l13 147 41 19 c69 32 69 31 62 -61z m831 68 c14 -13
-9 -36 -36 -36 -23 0 -30 5 -34 26 -4 25 -3 26 30 21 20 -4 38 -8 40 -11z m69
-6 c33 0 30 -15 -7 -30 -26 -11 -32 -11 -40 1 -14 23 -11 42 7 35 9 -3 27 -6
40 -6z m-2232 -30 c10 -10 -539 -1077 -574 -1114 -5 -4 -29 -1 -54 9 -30 11
-59 16 -82 12 l-37 -6 21 22 c80 87 469 706 612 975 56 104 68 121 85 116 11
-4 24 -10 29 -14z m1210 -37 c-5 -40 -31 -326 -111 -1221 l-48 -544 -165 7
c-209 8 -397 29 -526 58 l-100 23 -167 123 c-92 67 -167 127 -167 132 0 9 100
116 367 391 79 81 143 152 143 158 0 23 -32 21 -70 -5 -36 -25 -234 -186 -468
-379 l-82 -68 -68 37 c-112 62 -302 187 -302 199 0 7 43 93 96 192 53 98 182
343 286 544 103 200 192 368 196 372 5 5 55 -3 113 -17 205 -49 292 -59 509
-59 221 0 323 15 475 68 94 33 94 33 89 -11z m1097 -155 c21 -101 38 -190 39
-198 0 -12 -11 -16 -47 -15 l-48 0 -27 155 c-43 255 -41 230 -16 230 13 0 30
4 38 10 8 5 16 7 18 5 2 -2 21 -86 43 -187z m-104 -13 c17 -104 32 -196 32
-202 1 -14 -47 -17 -66 -5 -17 11 -73 390 -59 396 6 3 22 4 36 3 24 -2 25 -7
57 -192z m-113 138 c3 -10 14 -85 26 -168 12 -82 23 -158 26 -167 4 -15 -1
-18 -31 -18 -19 0 -38 6 -40 13 -3 6 -14 86 -25 176 -16 131 -17 166 -7 173
21 13 45 9 51 -9z m1446 -159 c0 -17 -3 -53 -7 -79 l-6 -47 -50 5 c-27 4 -52
8 -54 11 -3 2 -1 40 2 83 l7 78 54 -9 c52 -10 54 -12 54 -42z m88 -36 l-3 -93
-38 1 c-21 1 -39 3 -41 5 -2 2 -1 41 2 86 5 89 1 83 70 92 10 1 12 -21 10 -91z
m92 -3 l0 -95 -40 0 -40 0 0 95 0 95 40 0 40 0 0 -95z m-2403 -79 c1 -1 -25
-438 -27 -453 -1 -9 -66 -1 -96 12 -32 13 -34 16 -29 52 6 44 35 363 35 385 0
12 12 14 58 10 31 -2 58 -5 59 -6z m117 -163 c-3 -98 -7 -197 -10 -220 -5 -40
-7 -43 -47 -53 -23 -6 -48 -13 -56 -16 -12 -4 -13 14 -7 111 3 63 9 167 12
229 8 127 4 121 81 125 l33 1 -6 -177z m33 -40 c-6 -204 -9 -234 -22 -221 -10
10 8 438 18 438 7 0 8 -74 4 -217z m2036 185 c26 1 27 0 27 -51 0 -29 -3 -82
-7 -119 l-6 -68 -36 1 c-67 1 -75 9 -73 70 1 30 5 82 8 117 6 63 7 63 33 56
14 -4 38 -7 54 -6z m95 -8 l27 0 -5 -107 -5 -108 -40 -6 c-22 -4 -41 -6 -42
-5 -1 1 1 54 4 119 5 97 9 117 20 112 8 -3 27 -5 41 -5z m120 -112 c-3 -124 1
-117 -65 -103 -22 5 -23 10 -23 88 0 118 4 127 51 127 l40 0 -3 -112z m-1371
54 c7 -4 28 -84 48 -177 37 -181 36 -192 -15 -180 -14 4 -33 7 -43 8 -10 1
-20 10 -22 22 -16 71 -53 320 -49 327 6 10 65 10 81 0z m-199 -17 c4 -3 52
-312 52 -334 0 -10 -9 -12 -37 -6 -21 4 -40 8 -41 10 -5 5 -41 283 -42 317 0
26 2 27 33 21 17 -3 33 -7 35 -8z m124 -146 c36 -204 37 -191 -14 -187 l-42 3
-26 172 -26 173 41 -4 40 -4 27 -153z m1221 -19 l30 0 -6 -92 c-6 -100 -11
-108 -67 -108 -59 0 -61 5 -54 114 l7 98 30 -6 c16 -3 43 -6 60 -6z m127 -64
c0 -40 -3 -87 -6 -103 -6 -29 -6 -29 -50 -19 -38 9 -44 14 -40 31 3 11 6 50 6
87 0 72 2 74 63 77 l27 1 0 -74z m84 68 c13 -5 16 -24 16 -104 0 -107 -2 -110
-60 -103 l-35 5 3 104 3 104 29 0 c16 0 35 -3 44 -6z m4600 -51 c50 -26 158
-75 241 -109 82 -35 143 -65 135 -68 -8 -2 -769 -117 -1690 -255 -1286 -193
-1676 -248 -1682 -238 -21 33 -8 43 90 66 53 13 239 64 412 113 877 247 1234
331 1940 457 124 23 272 49 330 60 58 10 112 20 119 20 8 1 56 -20 105 -46z
m-6844 -295 c-2 -172 -5 -198 -21 -198 -10 0 -12 182 -3 293 12 136 25 83 24
-95z m-176 2 c-4 -69 -10 -143 -13 -165 -6 -37 -9 -40 -36 -38 -61 4 -105 16
-105 27 0 6 7 76 15 156 8 80 15 152 15 160 0 14 6 14 65 0 l66 -15 -7 -125z
m136 82 c0 -44 -3 -126 -6 -185 -8 -119 -11 -123 -84 -104 l-42 12 7 150 c4
82 9 157 11 167 3 9 21 21 42 26 73 20 72 21 72 -66z m781 59 c4 -3 14 -62 24
-131 9 -69 19 -132 21 -141 4 -14 -4 -18 -41 -21 -25 -2 -45 -3 -45 -3 -1 8
-40 311 -40 313 0 5 75 -10 81 -17z m130 -131 c14 -80 23 -149 19 -153 -4 -5
-25 -7 -46 -5 l-39 3 -16 100 c-9 55 -20 124 -24 153 l-7 53 44 -3 43 -3 26
-145z m59 138 c8 -1 21 1 29 3 11 3 21 -28 42 -131 34 -162 33 -158 12 -162
-14 -3 -86 10 -101 17 -2 2 -52 272 -52 284 0 2 12 0 28 -3 15 -4 34 -8 42 -8z
m1213 -15 c4 -2 7 -61 7 -130 0 -110 -2 -124 -16 -119 -9 3 -31 6 -49 6 l-34
0 6 123 c3 70 11 125 17 129 10 7 50 1 69 -9z m-97 -123 c-4 -80 -11 -127 -19
-132 -18 -11 -62 -10 -91 3 -28 13 -27 -3 -10 194 l5 60 61 0 61 0 -7 -125z
m200 110 c16 0 18 -42 8 -163 l-7 -77 -43 0 -44 0 0 118 c0 65 3 122 7 126 5
4 21 5 37 2 16 -3 35 -6 42 -6z m-250 -257 c51 5 49 11 38 -126 l-7 -77 -32 0
c-18 0 -46 5 -64 11 -35 12 -35 12 -25 132 7 72 8 76 27 65 11 -5 40 -8 63 -5z
m142 8 c11 -7 12 -27 5 -97 l-8 -88 -43 -9 c-24 -5 -46 -7 -48 -5 -2 2 -1 50
3 106 l6 102 36 0 c20 0 42 -4 49 -9z m112 -91 l0 -90 -51 0 -52 0 7 38 c3 20
6 61 6 90 l0 52 45 0 45 0 0 -90z m-1184 -73 c18 -95 24 -141 17 -148 -11 -11
-123 -2 -123 10 0 3 -11 68 -23 143 l-24 137 63 -2 62 -2 28 -138z m-272 106
c3 -16 13 -81 22 -146 20 -135 17 -144 -43 -130 l-38 9 -12 99 c-6 55 -14 119
-17 142 -5 39 -4 42 22 46 57 9 60 7 66 -20z m111 -5 c32 -180 42 -254 34
-263 -8 -8 -78 -9 -87 -1 -4 5 -41 253 -42 279 0 14 9 17 45 17 42 0 44 -2 50
-32z m4935 0 c0 -20 -5 -23 -40 -23 -31 -1 -40 3 -38 14 3 13 25 23 71 30 4 0
7 -9 7 -21z m-92 -53 c2 -39 -14 -100 -72 -284 -41 -129 -79 -238 -83 -242
-12 -12 -1144 -101 -1464 -115 l-157 -7 -7 23 c-21 66 -93 355 -90 359 3 2
381 68 842 147 461 79 872 150 913 158 111 21 115 20 118 -39z m-6016 29 c18
-9 40 -13 55 -9 l26 6 -6 -83 c-4 -46 -10 -138 -13 -205 l-7 -121 -36 -6 c-20
-2 -49 -8 -66 -11 -57 -11 -58 -6 -41 186 26 289 22 277 88 243z m176 -11 l42
-6 -5 -181 c-8 -247 -2 -230 -78 -221 -34 3 -63 7 -63 8 -2 2 23 409 25 416 0
2 9 0 19 -4 9 -4 36 -10 60 -12z m82 -193 c0 -198 0 -200 -21 -200 -21 0 -22
3 -16 83 4 45 7 135 7 200 0 97 3 117 15 117 13 0 15 -29 15 -200z m2260 -5
c0 -121 -9 -135 -67 -106 l-33 16 0 91 c0 50 3 94 7 97 3 4 26 7 50 7 l43 0 0
-105z m-267 78 c47 -6 47 -6 47 -43 0 -20 -3 -64 -6 -96 l-6 -59 -64 9 -64 10
0 61 c0 95 10 137 29 129 9 -3 37 -9 64 -11z m157 -78 l0 -94 -30 -16 c-16 -8
-41 -15 -56 -15 -26 0 -27 1 -20 46 3 26 6 73 6 105 0 55 1 58 28 62 77 12 72
17 72 -88z m1685 55 c0 -23 -5 -25 -80 -36 -44 -7 -80 -12 -81 -11 -1 1 -4 11
-6 21 -2 16 8 22 67 36 88 22 100 21 100 -10z m1992 -5 c-106 -296 -143 -384
-166 -390 -31 -8 -35 -2 -23 37 6 18 36 112 66 209 l56 176 35 -11 c19 -6 34
-15 32 -21z m-2174 -24 c5 -21 2 -22 -91 -37 -39 -5 -43 -4 -40 12 2 12 19 22
53 30 70 16 72 16 78 -5z m-143 -25 c0 -20 -6 -22 -72 -30 -48 -6 -58 -5 -58
8 0 10 17 18 53 24 74 14 77 14 77 -2z m-142 -28 c-3 -9 -131 -32 -379 -69
-333 -50 -394 -58 -378 -46 6 5 701 124 732 126 19 1 27 -3 25 -11z m-2258
-14 c0 -1 11 -54 25 -118 14 -64 25 -118 25 -121 0 -3 -10 -5 -23 -5 -13 0
-32 -7 -43 -15 -10 -8 -31 -15 -45 -15 -25 0 -26 3 -47 128 -12 70 -22 132
-22 139 0 9 20 12 65 11 36 0 65 -2 65 -4z m-289 -14 c26 0 27 -2 44 -117 25
-173 28 -158 -31 -159 l-51 -1 -17 136 c-20 167 -21 155 7 147 12 -3 34 -6 48
-6z m139 5 c5 0 45 -256 42 -260 -8 -8 -102 -6 -102 3 0 4 -9 62 -19 130 -10
67 -16 124 -14 126 2 2 24 3 48 2 25 0 45 -1 45 -1z m2916 -81 c10 -54 -8 -67
-84 -58 -57 6 -61 8 -67 36 -4 16 -4 32 0 36 8 8 127 30 137 25 4 -2 10 -20
14 -39z m-1676 11 c16 -8 36 -12 44 -9 14 5 16 -8 16 -100 l0 -107 -52 7 c-29
4 -54 8 -56 9 -4 4 10 215 15 215 2 0 17 -7 33 -15z m-185 -12 c15 -5 17 -17
13 -95 -3 -49 -7 -90 -9 -92 -9 -9 -115 -16 -126 -8 -9 6 -11 35 -6 111 l6
103 53 -6 c29 -3 60 -9 69 -13z m129 -90 c-4 -60 -10 -112 -15 -117 -5 -5 -25
-5 -51 0 -31 7 -43 14 -42 27 0 9 1 53 2 97 l2 80 28 1 c15 0 36 4 47 9 11 5
23 9 27 9 4 1 5 -47 2 -106z m1565 70 c20 -78 21 -76 -44 -89 -84 -18 -83 -18
-94 24 -20 78 -22 76 44 88 33 7 65 12 72 13 7 1 17 -16 22 -36z m-161 -39 c7
-26 11 -48 10 -50 -5 -4 -138 -8 -142 -3 -2 2 -6 20 -9 41 l-5 36 46 10 c85
17 87 17 100 -34z m-138 -123 c11 -74 20 -145 20 -157 l0 -24 -415 0 -415 0 0
95 c0 52 1 95 3 96 54 13 783 134 784 130 1 -3 12 -66 23 -140z m519 -17 c17
-66 31 -126 31 -132 0 -8 -25 -12 -74 -12 l-74 0 -31 118 c-18 64 -34 124 -37
133 -6 23 18 30 61 18 28 -8 41 -7 58 4 28 19 27 20 66 -129z m-4138 21 c-3
-139 -1 -135 -79 -129 -99 8 -94 4 -87 81 11 128 13 133 38 124 13 -5 35 -3
57 5 69 25 73 20 71 -81z m117 81 l32 -1 0 -119 0 -118 -47 7 c-104 15 -96 3
-88 124 4 58 9 110 12 114 3 5 17 5 32 1 14 -4 41 -8 59 -8z m88 -17 c-3 -17
-6 -76 -6 -130 0 -55 -3 -99 -7 -99 -30 1 -33 19 -26 138 6 113 8 122 26 122
17 0 19 -5 13 -31z m3770 -113 l30 -114 -74 -6 c-41 -4 -76 -5 -79 -3 -5 6
-53 185 -53 202 0 11 67 28 130 34 11 1 23 -30 46 -113z m-201 84 c8 -13 55
-181 55 -197 0 -10 -23 -13 -84 -13 l-84 0 -10 63 c-6 34 -14 83 -18 110 l-6
47 70 0 c39 0 74 -5 77 -10z m-2380 -127 c9 -51 15 -99 11 -108 -4 -11 -21
-15 -70 -15 -74 0 -66 -9 -86 104 -14 80 -13 83 13 89 12 3 40 12 62 20 22 9
43 12 46 9 4 -4 14 -48 24 -99z m-171 52 c17 -72 28 -177 19 -186 -5 -5 -30
-6 -54 -3 l-46 6 -14 99 c-8 54 -11 100 -7 101 4 2 28 3 53 3 36 0 45 -4 49
-20z m1004 -73 c3 -81 2 -82 -24 -92 -29 -11 -74 -1 -108 25 -16 12 -17 22
-11 82 l7 68 66 0 67 0 3 -83z m205 82 l37 -7 0 -84 c0 -75 -2 -84 -17 -80
-10 3 -35 8 -55 12 l-38 6 0 73 c0 92 -1 92 73 80z m-1328 -39 c24 -140 24
-143 -4 -149 -14 -2 -38 -8 -52 -11 -30 -8 -32 -2 -45 127 l-6 67 51 -2 c48
-2 51 -4 56 -32z m1245 -42 l0 -73 -39 0 c-22 0 -46 -3 -55 -6 -14 -5 -16 5
-16 74 l0 80 55 -1 55 -2 0 -72z m-158 -109 l29 6 -6 -128 c-4 -70 -8 -133
-10 -139 -3 -9 -27 -13 -75 -13 l-70 0 6 93 c2 50 7 120 10 154 l6 63 40 -21
c27 -14 51 -19 70 -15z m158 9 c0 -10 -5 -75 -11 -145 l-12 -128 -44 0 c-23 0
-46 0 -50 0 -5 0 -6 60 -5 133 4 150 8 157 79 157 34 0 43 -4 43 -17z m98 1
c23 -5 23 -7 16 -72 -3 -37 -15 -83 -24 -102 -20 -39 -77 -97 -86 -88 -3 4 -2
67 1 142 l8 135 31 -5 c17 -3 41 -7 54 -10z m-997 -156 c13 -65 21 -119 18
-122 -6 -6 -143 14 -151 22 -10 10 -47 225 -41 236 3 4 29 6 57 2 28 -3 58 -1
66 4 19 12 22 4 51 -142z m-315 97 c3 -20 4 -38 1 -41 -2 -3 -29 1 -58 9 -44
11 -55 17 -57 36 -3 17 0 22 10 19 7 -3 22 -2 33 3 45 18 64 11 71 -26z m133
-37 c6 -35 14 -85 17 -112 l7 -48 -34 17 c-69 35 -92 69 -104 153 l-7 52 55 0
55 0 11 -62z m4842 -441 c-13 -13 -14 5 -3 43 l7 25 3 -29 c2 -16 -1 -33 -7
-39z m53 36 c-13 -55 -39 -59 -28 -5 4 18 13 32 20 32 11 0 13 -8 8 -27z
m-209 -48 c0 -10 -6 -20 -12 -22 -8 -3 -13 5 -13 22 0 17 5 25 13 23 6 -3 12
-13 12 -23z m-39 -1 c-3 -9 -6 -18 -6 -20 0 -2 -4 -4 -9 -4 -5 0 -7 9 -4 20 3
11 10 20 15 20 6 0 7 -7 4 -16z m190 -49 c-4 -19 -11 -35 -17 -35 -8 0 -6 29
7 69 9 27 16 1 10 -34z m44 36 c0 -25 -14 -71 -21 -71 -10 0 -12 41 -3 64 6
17 24 22 24 7z m-240 -51 c0 -11 -7 -20 -15 -20 -15 0 -21 21 -8 33 12 13 23
7 23 -13z m22 -2 c-7 -7 -12 -8 -12 -2 0 14 12 26 19 19 2 -3 -1 -11 -7 -17z"/>
<path d="M7438 6353 c12 -2 30 -2 40 0 9 3 -1 5 -23 4 -22 0 -30 -2 -17 -4z"/>
</g>
</svg>
