<?xml version="1.0" standalone="no"?>
<!DOCTYPE svg PUBLIC "-//W3C//DTD SVG 20010904//EN"
 "http://www.w3.org/TR/2001/REC-SVG-20010904/DTD/svg10.dtd">
<svg version="1.0" xmlns="http://www.w3.org/2000/svg"
 width="1031.000000pt" height="1280.000000pt" viewBox="0 0 1031.000000 1280.000000"
 preserveAspectRatio="xMidYMid meet">
<metadata>
Created by potrace 1.15, written by Peter Selinger 2001-2017
</metadata>
<g transform="translate(0.000000,1280.000000) scale(0.100000,-0.100000)"
fill="#000000" stroke="none">
<path d="M4380 12793 c-31 -11 -63 -50 -95 -113 -75 -149 -77 -216 -12 -347
61 -122 152 -267 196 -311 20 -20 84 -74 141 -119 143 -111 240 -209 279 -283
18 -34 30 -64 27 -67 -2 -3 -33 -15 -68 -27 -288 -101 -613 -466 -734 -826
-38 -113 -40 -223 -5 -290 32 -61 91 -139 178 -237 l72 -81 -16 -32 c-22 -44
-13 -101 32 -206 61 -142 117 -218 204 -275 24 -15 25 -20 42 -285 39 -594 74
-1385 101 -2284 17 -560 17 -2929 0 -3490 -24 -781 -67 -1826 -77 -1857 -6
-19 -186 -27 -327 -14 -582 53 -1282 323 -1808 695 -399 283 -699 622 -891
1006 -76 153 -167 413 -200 570 -28 135 -30 292 -6 373 23 75 81 140 144 161
51 18 156 21 218 6 22 -5 41 -8 42 -6 3 3 -902 1394 -916 1409 -4 4 -40 -63
-80 -150 -290 -634 -811 -1781 -811 -1786 0 -4 28 9 62 27 103 56 195 79 296
74 108 -5 164 -30 243 -109 85 -83 138 -200 195 -430 157 -641 393 -1122 777
-1589 173 -210 513 -523 757 -697 497 -354 1115 -623 1695 -738 178 -35 228
-40 415 -40 179 0 199 2 237 21 l43 21 82 -146 c106 -187 191 -280 283 -306
95 -28 183 -8 264 61 45 38 109 131 181 264 34 63 65 118 69 123 4 4 22 0 40
-9 131 -65 546 -24 953 95 455 134 855 321 1253 586 244 163 414 302 626 514
363 363 612 728 804 1177 70 163 169 468 210 649 20 88 45 189 57 225 53 165
150 296 255 346 113 53 268 40 416 -36 43 -21 77 -36 77 -33 0 3 -103 227
-229 497 -127 270 -329 703 -449 961 -121 259 -224 469 -228 467 -8 -2 -914
-1415 -910 -1419 0 -1 28 5 61 13 78 18 119 18 184 -2 64 -19 121 -69 152
-132 31 -66 38 -232 14 -372 -46 -281 -186 -627 -351 -875 -194 -291 -461
-558 -779 -781 -549 -383 -1295 -659 -1841 -681 -77 -3 -161 -3 -187 1 -42 7
-47 10 -52 39 -7 48 -42 674 -65 1177 -86 1913 -91 3890 -15 5750 25 615 36
774 52 783 45 26 87 78 123 152 l42 84 -5 151 c-3 95 -9 156 -17 165 -14 17
-5 30 152 214 212 247 241 323 192 497 -13 46 -13 54 3 90 26 59 31 366 8 470
-35 159 -156 335 -252 368 -64 22 -167 20 -247 -4 -36 -11 -68 -25 -71 -30 -4
-6 -29 -23 -57 -39 -48 -28 -52 -28 -87 -14 -20 8 -37 16 -38 17 -2 1 -9 54
-18 118 -18 136 -44 227 -81 283 -60 89 -131 168 -198 219 -94 73 -275 258
-366 374 -62 80 -167 179 -274 260 -29 21 -55 26 -86 15z m710 -1817 c0 -2 -6
-19 -14 -37 -23 -57 -48 -225 -40 -277 15 -106 111 -241 182 -257 38 -8 96 15
112 45 6 12 14 19 17 16 6 -6 -29 -59 -66 -99 -85 -94 -220 -96 -310 -6 -167
168 -132 501 64 598 39 20 55 25 55 17z"/>
</g>
</svg>
