<?xml version="1.0" standalone="no"?>
<!DOCTYPE svg PUBLIC "-//W3C//DTD SVG 20010904//EN"
 "http://www.w3.org/TR/2001/REC-SVG-20010904/DTD/svg10.dtd">
<svg version="1.0" xmlns="http://www.w3.org/2000/svg"
 width="1210.000000pt" height="1280.000000pt" viewBox="0 0 1210.000000 1280.000000"
 preserveAspectRatio="xMidYMid meet">
<metadata>
Created by potrace 1.15, written by Peter Selinger 2001-2017
</metadata>
<g transform="translate(0.000000,1280.000000) scale(0.100000,-0.100000)"
fill="#000000" stroke="none">
<path d="M5870 12781 c-259 -56 -478 -217 -605 -445 -37 -67 -79 -176 -90
-237 -6 -35 -9 -37 -53 -41 -144 -14 -439 -206 -569 -369 -58 -73 -114 -166
-134 -222 -8 -23 -25 -45 -45 -56 -41 -25 -96 -107 -184 -274 -119 -226 -162
-390 -162 -614 l-1 -133 -123 0 -124 0 -56 45 c-67 55 -116 81 -191 100 -155
40 -313 0 -434 -112 -101 -94 -149 -205 -149 -344 0 -305 288 -530 583 -453
78 20 123 43 191 99 l56 45 148 0 148 0 19 -52 c44 -126 129 -277 212 -375 36
-42 40 -52 26 -55 -13 -2 -5 -11 26 -28 39 -22 45 -30 48 -64 8 -79 79 -181
237 -344 152 -156 361 -303 502 -354 53 -19 63 -27 87 -69 45 -81 200 -196
396 -294 l74 -37 -7 -251 c-3 -139 -11 -373 -17 -522 -10 -257 -12 -271 -32
-285 -124 -88 -278 -211 -352 -281 -86 -82 -93 -86 -145 -92 -129 -15 -417
-198 -623 -396 -62 -59 -73 -66 -112 -67 -133 -4 -578 -333 -756 -559 -37 -47
-57 -64 -81 -69 -25 -5 -60 -33 -135 -111 -96 -99 -107 -114 -171 -243 -37
-75 -85 -188 -106 -250 -21 -61 -40 -112 -42 -112 -2 0 -77 32 -166 71 -723
317 -1299 725 -1751 1239 -105 120 -267 327 -267 342 0 33 363 35 470 3 86
-26 240 -32 295 -11 108 42 113 139 13 248 -45 50 -330 285 -496 410 -182 137
-728 500 -821 546 -66 32 -84 37 -147 37 -67 0 -75 -2 -105 -30 -70 -66 -75
-100 -99 -636 -11 -250 -27 -596 -36 -768 -8 -173 -12 -336 -9 -361 14 -102
84 -169 164 -155 84 14 183 110 248 240 56 111 206 315 232 315 3 0 22 -28 40
-62 107 -196 334 -543 509 -778 267 -360 507 -635 852 -981 268 -268 457 -441
703 -642 152 -124 174 -152 144 -185 -44 -48 -62 -202 -47 -402 17 -222 62
-409 138 -569 31 -66 33 -78 23 -106 -15 -43 -14 -110 4 -180 59 -226 249
-611 350 -705 20 -19 25 -33 25 -71 0 -158 170 -423 436 -678 89 -85 124 -126
124 -143 1 -125 265 -402 572 -600 97 -63 147 -84 263 -112 322 -76 558 -111
868 -128 l208 -12 42 42 42 42 -38 0 c-33 0 -87 32 -385 225 -339 220 -348
227 -373 278 -55 109 -250 298 -489 474 -52 38 -104 75 -115 81 -12 6 -27 32
-37 65 -36 116 -161 293 -385 543 -65 72 -73 87 -73 121 0 22 -8 64 -19 94
-36 106 -302 618 -347 670 -10 11 -12 31 -8 76 10 94 -7 218 -73 526 -5 26 2
22 133 -61 424 -271 892 -524 1342 -728 92 -42 173 -81 180 -87 8 -6 29 -40
47 -76 56 -109 96 -162 174 -227 97 -81 215 -151 321 -188 80 -29 94 -31 225
-31 134 1 144 2 227 34 102 38 238 125 325 207 37 35 87 98 122 154 l59 95
153 68 c249 109 756 366 999 505 1063 609 1980 1372 2714 2257 279 335 619
826 787 1133 18 34 37 62 40 62 26 0 176 -204 232 -315 65 -130 164 -226 248
-240 80 -14 150 53 164 155 3 25 -1 188 -9 361 -9 172 -25 518 -36 767 -11
249 -25 474 -31 500 -13 65 -48 122 -89 150 -50 34 -132 27 -231 -21 -93 -45
-604 -384 -812 -539 -179 -134 -456 -362 -505 -416 -100 -109 -95 -206 13
-248 55 -21 209 -15 295 11 108 32 470 30 470 -4 0 -3 -32 -49 -72 -101 -798
-1055 -2096 -1732 -3898 -2035 l-213 -36 -38 37 c-125 122 -269 602 -363 1214
-46 297 -95 731 -111 975 l-7 100 39 24 c94 59 237 175 344 278 82 80 123 113
140 113 93 0 379 231 539 434 42 54 58 66 88 72 222 37 566 155 591 202 42 78
-23 137 -199 180 -47 12 -104 24 -126 28 l-42 6 29 70 c103 249 168 545 169
759 0 85 2 98 21 115 66 58 93 212 94 524 0 129 -3 250 -7 268 l-7 32 94 0 95
0 58 -47 c154 -126 347 -147 523 -57 232 117 319 419 188 651 -36 62 -131 152
-193 183 -178 86 -383 58 -531 -72 l-43 -38 -110 0 -109 0 -43 123 c-23 67
-65 167 -93 222 -39 75 -51 109 -48 136 4 53 -25 153 -71 248 -99 200 -298
423 -500 558 -40 27 -69 54 -72 68 -17 65 -132 170 -276 249 l-65 35 -13 68
c-59 313 -326 589 -651 675 -112 29 -292 33 -401 9z m341 -514 c66 -32 144
-96 116 -97 -10 0 -30 9 -46 20 -37 28 -125 40 -299 40 -150 0 -166 6 -93 38
63 26 94 31 181 28 67 -3 97 -9 141 -29z m-200 -743 c12 -14 11 -16 -5 -13
-11 2 -21 10 -24 17 -5 17 13 15 29 -4z m-476 -351 c33 -22 84 -52 113 -67
l52 -26 0 -345 0 -345 -471 0 -472 0 6 38 c3 20 9 89 13 152 3 68 16 155 31
213 l24 97 93 93 c77 76 264 294 310 359 7 9 29 18 51 20 38 3 44 -1 115 -73
41 -42 102 -94 135 -116z m1421 -120 c226 -221 244 -241 244 -273 0 -40 11
-76 74 -253 25 -71 46 -130 46 -133 0 -2 -207 -4 -460 -4 l-460 0 0 344 0 345
69 36 c38 20 107 68 153 105 46 38 84 69 86 69 2 1 113 -106 248 -236z m-1256
-1689 l0 -406 -52 47 c-78 70 -277 214 -575 416 -45 30 -63 49 -63 64 0 29
-30 115 -73 208 l-36 77 400 0 399 0 0 -406z m1704 354 c3 -29 8 -118 11 -198
3 -80 10 -186 16 -236 11 -88 10 -91 -14 -127 -67 -98 -149 -427 -182 -723 -6
-52 -11 -65 -36 -83 -16 -12 -38 -39 -49 -60 l-19 -39 -128 43 c-70 24 -198
60 -284 82 -145 35 -158 40 -177 69 -11 17 -47 51 -81 75 l-60 44 0 603 -1
602 499 0 500 0 5 -52z m-950 -2003 c20 -8 52 -22 72 -30 l37 -15 -44 -33
c-24 -18 -58 -43 -76 -55 l-32 -22 -3 85 c-2 47 0 85 3 85 4 0 23 -7 43 -15z
m-889 -1821 c-99 -776 -261 -1379 -408 -1523 l-34 -32 -185 31 c-222 36 -462
84 -695 139 -169 40 -314 78 -318 83 -1 2 136 194 305 427 l307 424 399 293
398 292 51 -5 c44 -4 59 0 125 34 41 21 76 38 78 37 1 -1 -9 -91 -23 -200z"/>
</g>
</svg>
