<?xml version="1.0" standalone="no"?>
<!DOCTYPE svg PUBLIC "-//W3C//DTD SVG 20010904//EN"
 "http://www.w3.org/TR/2001/REC-SVG-20010904/DTD/svg10.dtd">
<svg version="1.0" xmlns="http://www.w3.org/2000/svg"
 width="1031.000000pt" height="1280.000000pt" viewBox="0 0 1031.000000 1280.000000"
 preserveAspectRatio="xMidYMid meet">
<metadata>
Created by potrace 1.15, written by Peter Selinger 2001-2017
</metadata>
<g transform="translate(0.000000,1280.000000) scale(0.100000,-0.100000)"
fill="#000000" stroke="none">
<path d="M4957 12789 c-183 -22 -425 -104 -583 -197 -513 -300 -812 -869 -764
-1453 17 -212 66 -392 155 -569 180 -359 486 -631 860 -766 l90 -32 3 -315 2
-315 -132 -4 c-109 -3 -141 -7 -179 -25 -68 -30 -123 -85 -150 -148 l-24 -55
-999 3 -998 2 -18 56 c-27 87 -93 217 -148 289 -135 178 -288 264 -467 263
-298 -3 -556 -283 -646 -703 -32 -149 -32 -391 0 -540 49 -229 130 -389 266
-525 103 -104 177 -146 295 -171 165 -35 320 17 463 155 109 105 202 261 243
409 l17 62 996 0 996 0 18 -49 c19 -56 81 -123 141 -153 26 -14 70 -23 121
-27 l80 -6 -3 -45 c-2 -25 -9 -135 -17 -245 -37 -510 -62 -1090 -95 -2170 -43
-1432 -94 -2155 -186 -2653 -83 -450 -205 -717 -361 -793 -39 -19 -63 -22
-137 -22 -293 3 -711 212 -1196 597 -429 341 -878 794 -1060 1069 -63 95 -81
144 -59 158 37 22 131 33 324 35 l210 3 247 198 c136 109 247 200 247 203 1 6
-2503 1290 -2507 1286 -2 -3 35 -871 78 -1801 6 -115 22 -475 36 -800 14 -324
28 -592 30 -594 21 -21 327 437 609 913 48 79 60 95 67 80 129 -324 219 -508
384 -782 209 -346 683 -1025 860 -1231 202 -236 522 -501 842 -699 748 -464
1598 -705 2392 -678 413 13 702 69 1165 225 307 104 360 124 524 202 332 158
630 376 916 670 293 302 506 598 925 1289 314 517 437 704 602 913 l77 98 87
-148 c105 -177 250 -410 367 -588 78 -119 93 -137 178 -202 l94 -72 11 477 c7
262 17 695 23 962 6 267 18 772 27 1124 8 351 14 640 12 641 -5 5 -2477 -1329
-2478 -1337 0 -3 99 -83 220 -177 l221 -171 217 -4 c221 -3 313 -16 333 -47
15 -24 10 -86 -12 -144 -62 -166 -317 -452 -704 -790 -226 -198 -553 -457
-741 -588 -128 -90 -411 -210 -633 -269 -100 -27 -134 -31 -241 -32 -147 0
-207 18 -284 85 -89 79 -138 175 -191 381 -60 229 -84 467 -140 1353 -52 835
-205 3890 -205 4100 0 25 1 25 78 25 48 0 96 7 127 17 65 23 145 102 170 166
l18 47 992 0 992 0 28 -82 c124 -368 398 -592 673 -549 295 46 535 351 598
763 21 134 14 376 -15 498 -87 378 -308 637 -579 679 -205 32 -417 -82 -559
-301 -50 -76 -114 -215 -128 -276 l-7 -32 -998 0 -999 0 -24 53 c-28 62 -84
119 -147 149 -37 18 -67 22 -178 26 l-132 4 2 315 3 315 75 27 c220 81 408
200 571 361 221 220 363 480 431 795 32 145 32 455 0 601 -32 149 -66 244
-137 389 -210 426 -612 733 -1082 825 -125 25 -364 34 -486 19z m367 -694
c154 -32 288 -103 409 -215 292 -273 355 -703 156 -1057 -86 -152 -260 -302
-429 -368 -177 -69 -409 -76 -583 -16 -221 76 -393 228 -497 436 -62 126 -79
192 -87 330 -12 226 49 417 190 594 113 142 316 264 498 300 73 15 264 12 343
-4z"/>
</g>
</svg>
