<?xml version="1.0" standalone="no"?>
<!DOCTYPE svg PUBLIC "-//W3C//DTD SVG 20010904//EN"
 "http://www.w3.org/TR/2001/REC-SVG-20010904/DTD/svg10.dtd">
<svg version="1.0" xmlns="http://www.w3.org/2000/svg"
 width="1263.000000pt" height="1280.000000pt" viewBox="0 0 1263.000000 1280.000000"
 preserveAspectRatio="xMidYMid meet">
<metadata>
Created by potrace 1.15, written by Peter Selinger 2001-2017
</metadata>
<g transform="translate(0.000000,1280.000000) scale(0.100000,-0.100000)"
fill="#000000" stroke="none">
<path d="M3630 12786 c0 -26 51 -159 95 -246 41 -81 65 -113 93 -121 15 -5
120 -125 197 -226 62 -81 89 -95 220 -114 137 -19 164 -42 152 -131 -8 -59
-69 -177 -122 -236 -57 -64 -116 -101 -257 -163 -116 -51 -218 -108 -218 -121
0 -4 16 -14 35 -23 40 -20 49 -41 40 -95 -6 -38 -6 -40 20 -40 30 0 85 -26 85
-40 0 -22 41 -50 74 -50 51 0 85 -16 103 -48 l17 -29 32 19 c35 20 55 16 97
-20 9 -8 20 -13 23 -9 3 3 17 70 30 149 45 268 82 304 344 328 140 13 199 37
268 110 64 67 99 138 119 237 14 72 14 98 1 256 -21 246 -8 311 67 343 19 8
49 14 67 15 l33 0 -25 17 c-13 9 -61 45 -107 79 -98 73 -141 90 -183 73 -40
-16 -55 -43 -101 -177 -22 -63 -53 -141 -69 -172 -33 -66 -90 -121 -124 -121
-35 0 -87 40 -120 93 -26 43 -30 58 -36 167 -8 130 -18 157 -73 190 -45 27
-141 47 -297 60 -223 18 -332 30 -398 46 -78 17 -82 17 -82 0z"/>
<path d="M8919 12785 c-47 -12 -157 -25 -404 -46 -152 -12 -248 -32 -292 -59
-55 -33 -65 -60 -73 -190 -6 -109 -10 -124 -36 -167 -33 -53 -85 -93 -120 -93
-60 0 -126 100 -189 285 -49 142 -59 161 -97 181 -46 24 -90 7 -209 -84 l-102
-76 44 -11 c123 -32 136 -71 113 -339 -19 -216 -12 -286 40 -391 76 -154 159
-209 339 -225 140 -12 174 -19 219 -42 73 -36 115 -135 139 -325 7 -54 16
-102 20 -107 4 -5 22 3 39 18 37 30 41 31 82 10 30 -15 31 -15 57 16 23 27 35
33 81 38 49 4 59 10 96 48 32 35 47 44 73 44 33 0 33 0 26 40 -9 56 0 77 45
96 l39 17 -39 30 c-22 16 -103 57 -180 92 -160 73 -211 105 -270 172 -50 56
-109 174 -117 232 -12 88 15 111 152 130 125 18 159 34 207 99 23 31 65 82 94
113 29 31 60 69 70 84 10 15 35 38 56 51 42 27 103 136 152 272 39 111 38 113
-55 87z"/>
<path d="M6080 12305 c-77 -22 -150 -73 -215 -152 -106 -128 -184 -283 -232
-463 -32 -121 -29 -235 11 -355 49 -148 41 -189 -72 -374 -75 -121 -93 -176
-103 -313 -10 -140 -19 -179 -66 -278 -47 -98 -154 -204 -327 -325 -305 -213
-343 -264 -563 -752 -386 -858 -638 -1319 -951 -1743 -135 -182 -281 -349
-493 -565 -109 -110 -206 -211 -217 -225 -33 -42 -54 -92 -78 -179 -13 -46
-30 -94 -39 -107 -8 -12 -52 -42 -97 -66 -165 -86 -270 -177 -486 -423 -72
-82 -151 -167 -177 -188 -25 -21 -45 -42 -45 -47 0 -16 135 -11 185 6 48 16
83 35 229 128 49 31 95 56 102 56 16 0 21 -50 11 -120 -12 -83 -67 -182 -190
-345 -167 -219 -207 -277 -200 -288 3 -5 39 -6 92 -2 358 30 635 243 709 545
l19 75 12 -90 c16 -117 46 -247 70 -299 47 -106 124 -153 239 -143 198 16 359
156 783 682 210 259 244 309 375 536 175 305 228 381 379 539 116 122 158 215
219 485 19 83 47 183 62 222 30 78 91 170 104 157 9 -10 184 -719 200 -808 18
-104 15 -120 -34 -175 -137 -154 -211 -324 -326 -751 -103 -381 -129 -465
-330 -1065 -308 -920 -382 -1160 -699 -2270 -99 -346 -216 -754 -260 -905 -44
-151 -148 -511 -231 -800 -83 -289 -189 -656 -236 -817 -46 -161 -84 -295 -84
-298 0 -3 1433 -5 3185 -5 2543 0 3185 3 3185 13 0 13 -25 99 -265 932 -81
281 -250 870 -376 1310 -486 1695 -640 2196 -929 3030 -128 370 -170 505 -250
815 -121 464 -218 690 -349 814 -57 54 -46 131 90 665 44 173 81 317 83 318 2
2 16 -11 31 -29 47 -55 85 -150 121 -300 82 -346 112 -412 250 -558 138 -146
207 -244 349 -500 122 -218 210 -341 484 -675 86 -104 217 -251 291 -325 175
-175 260 -226 396 -237 75 -7 124 8 174 53 64 58 101 163 130 377 7 48 14 86
17 84 2 -3 11 -33 19 -68 68 -290 358 -506 717 -534 48 -4 87 -3 87 2 0 16
-44 79 -154 223 -145 189 -172 228 -208 308 -33 72 -51 203 -30 216 14 9 46
-8 174 -89 129 -82 189 -105 277 -105 37 0 70 2 73 5 3 3 -24 34 -60 68 -35
34 -127 132 -203 218 -194 220 -281 295 -429 369 -106 53 -128 80 -154 194 -9
36 -25 85 -37 109 -12 24 -105 127 -218 242 -383 390 -602 671 -848 1085 -188
318 -449 839 -641 1282 -176 404 -274 542 -488 686 -346 231 -440 364 -460
649 -9 133 -32 200 -124 353 l-75 124 1 76 c0 55 8 97 30 160 23 70 28 100 27
170 -3 271 -211 653 -408 748 -96 47 -165 52 -242 18 l-60 -27 -36 21 c-47 28
-128 34 -197 15z"/>
<path d="M1483 10647 c8 -50 72 -208 119 -295 31 -56 48 -77 78 -92 22 -11 50
-36 63 -56 14 -19 55 -69 93 -111 38 -43 81 -96 95 -119 35 -55 90 -80 215
-98 116 -18 142 -26 165 -52 27 -31 30 -56 14 -119 -25 -93 -83 -192 -156
-266 -67 -68 -89 -80 -342 -198 -48 -22 -108 -55 -134 -72 l-47 -33 42 -17
c54 -23 71 -56 53 -106 -15 -41 -6 -53 43 -53 22 0 40 -12 72 -47 40 -43 48
-47 106 -54 61 -7 97 -30 110 -70 3 -8 12 -7 35 5 45 23 73 20 105 -11 17 -16
31 -23 37 -17 4 5 18 73 30 151 31 198 43 235 99 293 57 59 106 75 277 90 178
15 216 30 301 114 78 79 125 161 145 254 11 56 9 218 -7 454 -12 183 27 241
175 261 18 3 -195 162 -244 183 -50 20 -97 11 -128 -25 -13 -16 -45 -91 -71
-167 -57 -164 -93 -239 -139 -287 -61 -65 -117 -59 -187 21 -52 58 -70 121
-70 241 0 206 -66 241 -515 276 -185 14 -283 27 -404 51 l-34 7 6 -36z"/>
<path d="M11099 10676 c-11 -11 -214 -38 -424 -56 -319 -28 -393 -48 -448
-122 -17 -23 -22 -49 -27 -156 -5 -103 -11 -137 -29 -174 -25 -53 -88 -114
-127 -124 -83 -21 -170 105 -250 362 -57 183 -122 214 -253 121 -120 -85 -191
-142 -179 -144 71 -10 93 -18 122 -43 47 -42 60 -97 52 -218 -16 -236 -18
-398 -7 -454 32 -154 164 -312 292 -348 18 -5 87 -14 155 -20 168 -15 218 -31
274 -89 56 -57 71 -103 101 -293 12 -78 26 -147 30 -152 6 -6 20 1 37 17 33
31 71 35 109 10 20 -14 27 -15 31 -5 2 8 14 25 26 39 18 20 34 26 86 32 71 7
90 15 90 36 0 24 59 65 95 65 42 0 47 8 33 53 -16 51 1 83 54 106 l42 17 -47
33 c-26 17 -86 50 -134 72 -253 117 -275 130 -342 198 -74 74 -118 150 -151
259 -37 123 -12 149 170 177 130 20 183 44 218 99 15 22 53 70 86 106 32 36
75 87 95 113 20 27 53 57 73 68 26 13 47 37 72 81 42 77 115 256 123 303 5 32
4 35 -19 35 -14 0 -27 -2 -29 -4z"/>
<path d="M5 7914 c10 -58 68 -202 125 -313 44 -87 55 -100 91 -116 24 -11 52
-36 69 -61 16 -23 64 -79 106 -125 42 -46 87 -100 99 -120 29 -46 75 -84 117
-98 18 -6 79 -17 135 -26 122 -18 176 -37 193 -70 28 -53 -10 -194 -86 -312
-80 -125 -166 -191 -357 -273 -149 -63 -200 -89 -261 -133 l-48 -35 46 -20
c58 -26 73 -55 58 -113 -6 -24 -9 -46 -7 -50 3 -3 26 -9 52 -12 37 -4 52 -12
70 -34 53 -68 61 -73 108 -73 60 0 109 -21 131 -57 10 -15 19 -30 21 -32 1 -2
13 3 26 12 44 28 85 26 122 -9 15 -14 32 -23 39 -21 6 3 19 62 29 133 36 257
69 340 155 395 63 40 93 47 269 64 186 18 242 37 320 108 150 138 203 302 182
573 -27 358 -25 391 27 460 24 33 52 47 121 61 l42 8 -106 80 c-135 102 -176
124 -234 125 -37 0 -50 -5 -71 -27 -35 -38 -42 -54 -94 -206 -121 -353 -227
-435 -361 -283 -54 61 -73 126 -73 245 0 115 -11 160 -50 205 -58 65 -172 95
-445 115 -222 17 -341 30 -430 48 -154 30 -139 31 -130 -13z"/>
<path d="M12563 7940 c-38 -15 -220 -38 -433 -55 -319 -24 -436 -50 -498 -108
-45 -42 -55 -75 -62 -217 -6 -118 -10 -142 -33 -186 -27 -53 -90 -117 -127
-129 -95 -30 -188 90 -275 355 -63 193 -90 230 -164 230 -56 0 -92 -20 -235
-127 l-105 -78 42 -8 c102 -21 138 -54 158 -143 10 -46 9 -95 -5 -288 -20
-251 -16 -320 24 -433 51 -146 169 -273 290 -312 19 -6 103 -18 185 -26 83 -8
173 -22 202 -31 133 -42 186 -146 224 -446 16 -124 19 -128 61 -97 50 38 65
41 110 18 22 -11 41 -19 42 -17 1 2 10 15 19 30 24 38 52 51 126 57 63 6 65 7
96 51 31 43 40 49 118 65 22 4 27 10 22 23 -4 9 -9 33 -12 52 -6 43 24 85 67
95 16 4 32 10 35 15 9 15 -124 91 -279 159 -219 97 -298 157 -387 294 -44 69
-89 195 -89 253 0 72 40 95 208 119 139 21 201 49 240 113 16 26 64 85 107
132 43 47 89 102 103 123 14 21 42 47 61 57 20 10 43 26 52 36 41 46 159 316
174 397 7 34 6 37 -16 36 -13 0 -34 -4 -46 -9z"/>
</g>
</svg>
