<?xml version="1.0" standalone="no"?>
<!DOCTYPE svg PUBLIC "-//W3C//DTD SVG 20010904//EN"
 "http://www.w3.org/TR/2001/REC-SVG-20010904/DTD/svg10.dtd">
<svg version="1.0" xmlns="http://www.w3.org/2000/svg"
 width="1228.000000pt" height="1280.000000pt" viewBox="0 0 1228.000000 1280.000000"
 preserveAspectRatio="xMidYMid meet">
<metadata>
Created by potrace 1.15, written by Peter Selinger 2001-2017
</metadata>
<g transform="translate(0.000000,1280.000000) scale(0.100000,-0.100000)"
fill="#000000" stroke="none">
<path d="M6150 10664 c0 -1242 -4 -2144 -9 -2149 -5 -6 -32 -86 -60 -180 -99
-327 -119 -390 -124 -375 -3 8 -120 917 -262 2020 -272 2116 -354 2754 -355
2756 -1 3 -265 -40 -375 -61 -194 -38 -395 -88 -395 -97 0 -5 42 -172 94 -371
52 -199 140 -537 196 -752 56 -214 143 -552 195 -750 51 -198 135 -520 185
-715 51 -195 125 -481 165 -635 40 -154 91 -350 113 -435 23 -85 106 -408 187
-718 l146 -563 -29 -56 c-20 -41 -38 -61 -59 -70 l-31 -12 -105 262 c-58 144
-243 602 -410 1017 -168 415 -445 1104 -617 1530 -172 426 -420 1043 -552
1370 -132 327 -244 605 -249 617 -8 22 -9 22 -111 -23 -161 -71 -559 -275
-606 -309 -1 -1 24 -49 56 -106 264 -467 2473 -4421 2470 -4422 -1 -1 -30 -21
-64 -44 l-60 -41 -1539 2063 -1539 2064 -59 -47 c-117 -92 -294 -249 -414
-367 l-123 -120 1785 -1840 c981 -1012 1784 -1842 1784 -1845 0 -3 -22 -29
-48 -59 l-49 -54 -228 180 c-126 99 -1028 811 -2004 1582 -976 770 -1778 1401
-1782 1401 -18 0 -290 -400 -393 -578 -40 -70 -45 -86 -34 -96 8 -7 986 -592
2174 -1299 1188 -707 2168 -1292 2177 -1299 15 -12 14 -18 -15 -74 l-32 -61
-795 339 c-437 186 -894 381 -1015 432 -121 52 -571 243 -1000 426 -429 183
-883 376 -1010 430 -126 54 -351 149 -500 213 -148 63 -287 122 -307 130 l-37
16 -49 -127 c-71 -182 -216 -630 -207 -640 1 -1 58 -17 126 -36 136 -38 886
-245 1179 -326 102 -28 379 -105 615 -170 237 -65 513 -142 615 -170 102 -28
313 -87 470 -130 157 -43 368 -102 470 -130 102 -28 455 -126 785 -217 330
-90 603 -168 607 -172 7 -6 -15 -138 -24 -146 -3 -3 -170 19 -1698 225 -371
50 -940 126 -1265 170 -324 44 -894 120 -1265 170 -371 51 -700 94 -731 97
l-56 5 -7 -73 c-27 -288 -36 -396 -42 -556 l-7 -183 2532 0 2531 0 0 -34 c0
-18 3 -53 6 -78 l6 -44 -133 -18 c-74 -10 -359 -49 -634 -86 -857 -118 -1640
-225 -2475 -340 -443 -61 -1017 -140 -1276 -175 -259 -36 -474 -65 -478 -65
-9 0 -3 -47 35 -285 23 -141 96 -500 104 -512 1 -3 251 66 1050 287 77 21 336
92 575 159 239 66 518 143 620 171 102 28 379 105 615 170 237 65 511 141 610
169 1042 288 1379 381 1398 384 12 3 58 -136 49 -144 -4 -3 -1050 -453 -2326
-1000 -1275 -547 -2320 -999 -2323 -1005 -6 -17 109 -279 225 -512 79 -159
109 -211 120 -207 8 3 993 588 2188 1300 1196 712 2178 1295 2184 1295 5 0 10
-4 10 -9 0 -5 18 -36 40 -69 22 -33 40 -62 40 -65 0 -3 -249 -203 -552 -445
-304 -241 -960 -762 -1458 -1157 -498 -395 -1151 -914 -1452 -1153 l-547 -434
57 -72 c146 -183 275 -331 456 -524 10 -10 381 368 1801 1833 983 1015 1792
1842 1796 1838 5 -5 6 -61 2 -125 l-6 -116 -228 -308 -229 -309 -87 -38 c-96
-41 -249 -95 -358 -126 -89 -26 -133 -62 -177 -148 -46 -88 -72 -184 -97 -358
-11 -77 -27 -192 -36 -255 l-17 -115 -864 -1165 c-475 -641 -864 -1167 -864
-1170 1 -6 211 -161 277 -204 l42 -28 -93 -91 c-113 -112 -111 -107 -162 -387
-19 -103 -14 -247 10 -305 21 -49 60 -91 107 -115 52 -27 641 -109 1174 -164
736 -76 1350 -112 2100 -122 1219 -17 2359 70 3475 264 l155 27 35 70 35 70 0
160 c0 125 -4 175 -19 230 -53 199 -181 323 -426 415 l-85 32 -146 261 c-80
144 -320 573 -533 953 l-387 692 -9 93 c-6 52 -21 209 -35 349 -14 140 -32
311 -40 379 -8 69 -13 126 -12 127 1 2 452 -600 1001 -1337 550 -736 1003
-1339 1007 -1339 22 0 348 291 501 446 l86 89 -1784 1840 c-981 1012 -1784
1842 -1783 1845 0 3 22 29 49 59 37 40 53 51 62 44 554 -443 3977 -3136 3987
-3137 24 -2 391 562 426 654 4 11 -532 335 -2174 1314 l-2180 1298 36 72 c19
39 36 72 38 74 1 1 235 -97 521 -219 804 -343 2044 -871 2299 -979 427 -182
1318 -562 1565 -667 135 -58 255 -107 266 -110 19 -4 26 8 67 119 77 210 206
633 195 643 -2 2 -226 65 -498 140 -272 75 -576 159 -675 186 -99 28 -373 104
-610 169 -236 65 -513 142 -615 170 -102 28 -313 87 -470 130 -157 43 -368
102 -470 130 -102 28 -381 105 -620 171 -1006 278 -916 252 -912 270 2 8 8 41
13 74 6 33 11 60 12 61 1 1 295 -38 652 -86 767 -104 1724 -232 2490 -335 303
-41 836 -113 1186 -160 350 -47 645 -85 656 -85 18 0 21 11 32 128 17 179 30
426 31 565 l0 117 -2519 0 -2518 0 -7 31 c-3 17 -6 51 -6 74 l0 42 188 26
c170 24 523 72 1797 247 237 32 696 95 1020 140 1397 192 1601 220 1795 246
113 15 207 29 208 30 15 10 -137 765 -158 787 -4 5 -114 -21 -244 -57 -412
-115 -692 -192 -991 -275 -159 -44 -373 -103 -475 -131 -102 -28 -378 -105
-615 -170 -236 -65 -513 -142 -615 -170 -102 -28 -313 -87 -470 -130 -157 -43
-366 -101 -465 -129 -413 -114 -991 -273 -998 -274 -10 -3 -57 136 -49 144 4
4 192 85 417 182 1524 652 4221 1810 4227 1815 9 9 -65 180 -172 397 -116 235
-169 328 -183 322 -7 -2 -987 -586 -2180 -1296 -1192 -710 -2171 -1291 -2176
-1291 -8 0 -75 99 -70 104 2 2 168 133 369 293 201 159 649 514 995 789 1665
1322 2304 1829 2458 1951 l168 134 -63 82 c-185 244 -440 533 -460 521 -5 -3
-806 -828 -1780 -1833 -974 -1004 -1774 -1826 -1778 -1826 -4 0 -31 22 -59 48
l-52 49 64 86 c35 48 724 977 1530 2065 807 1088 1465 1982 1462 1987 -12 20
-315 241 -455 332 -194 127 -186 123 -203 96 -8 -13 -576 -1026 -1262 -2253
-686 -1226 -1248 -2231 -1249 -2232 -3 -4 -136 68 -136 73 0 2 428 1074 951
2381 524 1308 954 2387 956 2399 4 18 -8 26 -84 57 -212 88 -638 236 -648 225
-2 -2 -29 -102 -60 -223 -92 -354 -194 -746 -330 -1270 -70 -269 -163 -625
-205 -790 -43 -165 -128 -491 -189 -725 -252 -972 -333 -1283 -422 -1624 l-93
-359 -17 41 c-10 23 -34 115 -53 204 l-34 163 53 425 c70 552 187 1481 276
2180 38 305 90 713 114 905 24 193 70 550 100 793 31 244 54 447 51 450 -14
14 -388 49 -613 58 l-173 7 0 -2139z m950 -5469 c154 -206 280 -376 280 -378
0 -1 -71 14 -157 35 -87 21 -167 40 -178 43 -14 3 -57 71 -141 222 l-121 218
8 90 c4 50 8 102 8 118 1 15 6 27 11 27 6 0 136 -169 290 -375z m-1425 186
l18 -79 -44 -110 -44 -111 -134 -50 c-74 -28 -136 -50 -137 -48 -2 1 24 53 58
114 53 95 65 111 86 111 35 0 48 22 63 105 7 41 25 95 42 124 28 51 29 52 51
38 17 -11 27 -35 41 -94z m935 -47 c11 -36 20 -71 20 -78 0 -6 10 -27 22 -46
23 -36 98 -213 93 -218 -7 -7 -82 31 -107 55 -36 35 -69 115 -75 184 -6 66 4
169 17 169 5 0 18 -30 30 -66z m-1650 -1855 c0 -12 -89 -235 -89 -224 -1 9 27
132 51 230 9 37 11 38 24 20 8 -10 14 -22 14 -26z m201 -897 c-7 -37 -32 -159
-57 -272 -66 -300 -80 -341 -98 -294 -3 9 31 160 76 335 80 306 103 374 79
231z m-1123 -159 c11 -29 33 -69 49 -90 51 -67 62 -90 112 -237 27 -80 63
-171 79 -201 l30 -56 -37 -92 c-33 -81 -41 -92 -67 -99 -108 -25 -176 -46
-308 -94 -83 -30 -203 -68 -266 -85 -63 -17 -163 -50 -222 -74 -59 -24 -108
-42 -108 -40 0 3 685 1228 699 1250 3 6 9 -21 12 -60 4 -38 16 -93 27 -122z
m4002 -634 c61 -150 110 -277 110 -281 0 -15 -100 42 -142 80 -50 45 -100 146
-123 247 -15 69 -15 79 0 130 22 77 35 109 41 103 2 -3 54 -128 114 -279z"/>
</g>
</svg>
