<?xml version="1.0" standalone="no"?>
<!DOCTYPE svg PUBLIC "-//W3C//DTD SVG 20010904//EN"
 "http://www.w3.org/TR/2001/REC-SVG-20010904/DTD/svg10.dtd">
<svg version="1.0" xmlns="http://www.w3.org/2000/svg"
 width="1104.000000pt" height="1280.000000pt" viewBox="0 0 1104.000000 1280.000000"
 preserveAspectRatio="xMidYMid meet">
<metadata>
Created by potrace 1.15, written by Peter Selinger 2001-2017
</metadata>
<g transform="translate(0.000000,1280.000000) scale(0.100000,-0.100000)"
fill="#000000" stroke="none">
<path d="M4599 11198 l-916 -1593 -1840 -5 -1840 -5 918 -1597 919 -1598 -919
-1597 -918 -1598 1840 -5 1840 -5 915 -1592 c504 -876 919 -1593 922 -1593 3
0 418 717 922 1593 l915 1592 1840 5 1840 5 -918 1598 -919 1597 919 1598 918
1597 -1840 5 -1840 5 -915 1593 c-504 875 -919 1592 -922 1592 -3 0 -418 -717
-921 -1592z m1379 -806 l452 -787 -455 -3 c-250 -1 -660 -1 -910 0 l-455 3
453 787 c248 433 454 788 457 788 3 0 209 -355 458 -788z m-2768 -1606 c0 -4
-899 -1568 -904 -1574 -2 -2 -180 304 -396 680 -216 376 -421 731 -456 791
l-63 107 909 0 c501 0 910 -2 910 -4z m4376 -1191 c376 -654 684 -1192 684
-1195 0 -3 -308 -540 -684 -1195 l-685 -1190 -1381 0 -1382 0 -684 1190 c-379
659 -682 1196 -679 1204 3 8 285 501 627 1095 342 595 648 1127 681 1184 l59
102 1380 -2 1379 -3 685 -1190z m2056 1183 c-5 -7 -209 -359 -452 -783 -243
-423 -445 -773 -449 -777 -5 -6 -892 1519 -909 1564 -2 4 407 8 908 8 729 0
910 -3 902 -12z m-6883 -3977 c248 -431 451 -785 451 -787 0 -2 -410 -4 -911
-4 -728 0 -909 3 -901 13 5 6 209 359 452 782 243 424 445 774 447 778 3 5 7
7 8 5 2 -2 207 -356 454 -787z m6431 4 c243 -423 447 -776 452 -782 8 -10
-173 -13 -902 -13 -501 0 -910 4 -908 8 18 46 904 1570 909 1564 4 -4 206
-353 449 -777z m-2777 -1638 c-49 -92 -889 -1547 -893 -1547 -4 0 -740 1275
-873 1512 l-39 68 911 0 911 0 -17 -33z"/>
</g>
</svg>
