<?xml version="1.0" standalone="no"?>
<!DOCTYPE svg PUBLIC "-//W3C//DTD SVG 20010904//EN"
 "http://www.w3.org/TR/2001/REC-SVG-20010904/DTD/svg10.dtd">
<svg version="1.0" xmlns="http://www.w3.org/2000/svg"
 width="1109.000000pt" height="1280.000000pt" viewBox="0 0 1109.000000 1280.000000"
 preserveAspectRatio="xMidYMid meet">
<metadata>
Created by potrace 1.15, written by Peter Selinger 2001-2017
</metadata>
<g transform="translate(0.000000,1280.000000) scale(0.100000,-0.100000)"
fill="#000000" stroke="none">
<path d="M5133 12087 c-226 -392 -927 -1605 -1558 -2697 -650 -1127 -1144
-1992 -1142 -2001 6 -22 480 -848 488 -849 3 0 594 1019 1314 2265 719 1246
1310 2263 1313 2261 2 -3 177 -304 387 -668 l383 -663 497 -3 c449 -2 497 -1
491 14 -5 13 -1700 2954 -1745 3026 l-16 27 -412 -712z"/>
<path d="M9 9583 c6 -10 707 -1224 1559 -2698 l1548 -2680 497 -3 c273 -1 497
0 497 3 0 3 -587 1023 -1305 2265 -718 1243 -1305 2262 -1305 2265 0 3 348 5
773 5 l774 0 243 423 c134 232 245 425 247 430 2 4 -793 7 -1767 7 -1683 0
-1770 -1 -1761 -17z"/>
<path d="M4599 9172 l-246 -427 2620 -3 c2088 -2 2618 -5 2614 -15 -3 -6 -176
-309 -386 -671 l-381 -660 81 -140 c45 -78 156 -270 247 -428 91 -159 168
-288 171 -288 3 1 393 672 866 1492 473 820 870 1508 883 1529 l23 39 -3123 0
-3123 -1 -246 -427z"/>
<path d="M6980 8595 c0 -3 67 -121 149 -263 1219 -2109 2461 -4262 2461 -4267
0 -3 -348 -5 -773 -5 l-774 0 -246 -427 -247 -428 885 -3 c487 -1 1283 -1
1769 0 l883 3 -1019 1765 c-561 971 -1262 2184 -1557 2695 l-537 930 -497 3
c-273 1 -497 0 -497 -3z"/>
<path d="M905 4768 c-473 -820 -870 -1508 -883 -1529 l-23 -39 3123 0 3123 1
246 427 246 427 -2620 3 c-2088 2 -2618 5 -2614 15 3 6 176 309 386 671 l381
660 -98 170 c-309 537 -396 686 -401 686 -3 -1 -393 -672 -866 -1492z"/>
<path d="M6855 3995 c-719 -1246 -1310 -2263 -1313 -2261 -2 3 -177 303 -387
668 l-383 663 -497 3 c-449 2 -497 1 -491 -14 5 -13 1701 -2954 1745 -3026
l17 -27 281 487 c154 268 856 1482 1558 2697 1079 1869 1275 2214 1268 2233
-11 32 -477 841 -484 842 -3 0 -594 -1019 -1314 -2265z"/>
</g>
</svg>
