<?xml version="1.0" standalone="no"?>
<!DOCTYPE svg PUBLIC "-//W3C//DTD SVG 20010904//EN"
 "http://www.w3.org/TR/2001/REC-SVG-20010904/DTD/svg10.dtd">
<svg version="1.0" xmlns="http://www.w3.org/2000/svg"
 width="1280.000000pt" height="640.000000pt" viewBox="0 0 1280.000000 640.000000"
 preserveAspectRatio="xMidYMid meet">
<metadata>
Created by potrace 1.15, written by Peter Selinger 2001-2017
</metadata>
<g transform="translate(0.000000,640.000000) scale(0.100000,-0.100000)"
fill="#000000" stroke="none">
<path d="M1104 5187 c-7 -20 18 -219 47 -362 119 -597 493 -952 1159 -1099
130 -29 250 -46 525 -76 623 -67 738 -83 908 -125 190 -47 338 -144 441 -288
36 -52 90 -144 74 -127 -3 3 -33 38 -67 77 -68 80 -134 129 -256 191 -205 104
-324 126 -825 157 -591 36 -721 46 -837 60 -368 46 -662 169 -881 370 -76 70
-164 178 -249 305 -45 67 -83 112 -83 97 0 -25 93 -268 141 -367 210 -436 510
-678 942 -757 109 -20 563 -24 1067 -9 517 15 713 -21 993 -182 49 -28 94 -49
101 -46 12 5 21 -10 53 -85 l14 -34 -28 22 c-120 93 -158 118 -228 151 -143
67 -190 75 -450 74 -200 0 -272 -5 -545 -38 -473 -56 -641 -68 -830 -63 -279
9 -454 57 -724 200 -16 9 -33 14 -38 11 -12 -8 18 -46 127 -161 189 -201 378
-312 620 -365 40 -9 131 -13 270 -12 199 0 220 2 400 37 823 159 852 163 1050
153 130 -7 194 -17 333 -52 l74 -19 93 -186 c121 -244 200 -346 347 -444 48
-31 65 -51 99 -114 235 -437 653 -743 1151 -843 163 -33 453 -33 616 0 498
100 916 406 1151 843 34 63 51 83 99 114 147 98 226 200 347 444 l93 186 74
19 c139 35 203 45 333 52 198 10 227 6 1050 -153 180 -35 201 -37 400 -37 139
-1 230 3 270 12 242 53 431 164 620 365 109 115 139 153 127 161 -5 3 -22 -2
-38 -11 -270 -143 -445 -191 -724 -200 -189 -5 -357 7 -830 63 -273 33 -345
38 -545 38 -260 1 -307 -7 -450 -74 -70 -33 -108 -58 -228 -151 l-28 -22 14
34 c32 75 41 90 53 85 7 -3 52 18 101 46 280 161 476 197 993 182 504 -15 958
-11 1067 9 432 79 732 321 942 757 48 99 141 342 141 367 0 15 -38 -30 -83
-97 -242 -362 -487 -534 -905 -635 -177 -43 -266 -51 -1062 -100 -501 -31
-620 -53 -825 -157 -122 -62 -188 -111 -256 -191 -34 -39 -64 -74 -67 -77 -16
-17 38 75 74 127 103 144 251 241 441 288 170 42 285 58 908 125 275 30 395
47 525 76 666 147 1040 502 1159 1099 29 143 54 342 47 362 -10 26 -21 6 -61
-115 -73 -222 -199 -440 -342 -592 -158 -168 -401 -303 -665 -371 -198 -50
-376 -74 -858 -114 -538 -45 -756 -80 -926 -149 -125 -51 -223 -116 -301 -200
-119 -127 -195 -279 -331 -656 -86 -239 -125 -337 -157 -398 -22 -40 -25 -43
-20 -17 47 280 27 549 -61 815 -175 531 -616 942 -1159 1083 -153 39 -246 51
-415 51 -169 0 -262 -12 -415 -51 -731 -189 -1244 -852 -1245 -1608 0 -80 11
-203 25 -290 5 -26 2 -23 -20 17 -32 61 -71 159 -157 398 -136 377 -212 529
-331 656 -78 84 -176 149 -301 200 -170 69 -388 104 -926 149 -482 40 -660 64
-858 114 -264 68 -507 203 -665 371 -143 152 -269 370 -342 592 -40 121 -51
141 -61 115z m5126 -1634 l0 -618 -437 -432 -438 -432 -21 26 c-12 14 -42 60
-66 102 -238 405 -245 894 -18 1311 147 271 416 497 715 599 90 32 200 59 243
60 l22 1 0 -617z m446 601 c362 -74 700 -324 874 -644 227 -417 220 -906 -18
-1311 -24 -42 -54 -88 -66 -102 l-21 -26 -438 432 -437 432 0 618 c0 549 2
617 15 617 9 0 50 -7 91 -16z m-453 -2585 c-5 -3 -44 1 -88 10 -165 35 -314
97 -452 186 l-86 57 314 314 314 314 3 -437 c1 -240 -1 -440 -5 -444z m666
567 l314 -314 -86 -57 c-95 -61 -194 -109 -302 -145 -80 -27 -226 -60 -237
-53 -7 4 -12 883 -5 883 1 0 143 -141 316 -314z"/>
<path d="M3880 2854 c-153 -29 -200 -40 -290 -66 -58 -16 -204 -61 -325 -98
-402 -126 -566 -160 -768 -160 -97 0 -152 5 -219 21 -49 12 -91 19 -94 17 -8
-8 133 -107 203 -142 204 -102 311 -127 533 -127 270 1 402 36 900 236 339
137 417 164 573 199 15 4 27 11 27 17 0 15 -102 57 -194 80 -79 19 -290 33
-346 23z"/>
<path d="M8685 2854 c-128 -21 -305 -80 -305 -103 0 -6 12 -13 28 -17 155 -35
233 -62 572 -199 498 -200 630 -235 900 -236 227 0 339 28 550 137 78 40 194
123 185 132 -2 2 -44 -5 -93 -17 -67 -16 -122 -21 -219 -21 -202 0 -366 34
-768 160 -278 87 -409 124 -510 145 -79 17 -282 28 -340 19z"/>
<path d="M4362 2690 c-100 -26 -218 -75 -482 -198 -448 -208 -542 -239 -807
-267 -75 -8 -138 -16 -140 -19 -21 -20 75 -57 229 -88 98 -20 143 -23 338 -23
l225 1 104 32 c248 78 410 188 522 354 39 57 98 186 99 216 0 15 1 15 -88 -8z"/>
<path d="M8350 2697 c1 -29 60 -158 99 -215 112 -166 274 -276 522 -354 l104
-32 225 -1 c195 0 240 3 338 23 154 31 250 68 229 88 -2 3 -65 11 -140 19
-256 27 -371 64 -747 240 -252 118 -397 180 -485 207 -109 34 -145 40 -145 25z"/>
<path d="M4443 2568 c-11 -18 -32 -55 -48 -83 -123 -219 -356 -378 -655 -449
-168 -40 -168 -40 -75 -62 65 -15 118 -19 275 -19 l195 1 90 34 c80 30 97 41
160 104 105 106 119 142 123 302 4 140 -5 197 -30 202 -9 2 -24 -11 -35 -30z"/>
<path d="M8302 2583 c-4 -10 -7 -85 -7 -168 0 -140 2 -153 25 -200 14 -27 56
-82 95 -121 63 -63 80 -74 160 -104 l90 -34 195 -1 c157 0 210 4 275 19 93 22
93 22 -75 62 -314 74 -530 228 -671 478 -47 82 -73 103 -87 69z"/>
<path d="M4546 2490 c-2 -8 -7 -58 -11 -110 -7 -106 -26 -194 -57 -253 -31
-61 -108 -132 -187 -171 -39 -20 -71 -39 -71 -43 0 -3 48 -3 108 0 262 14 386
118 352 296 -16 84 -124 311 -134 281z"/>
<path d="M8196 2404 c-66 -132 -78 -169 -79 -244 -1 -78 15 -113 75 -164 57
-49 147 -76 281 -83 59 -3 107 -3 107 0 0 4 -32 23 -71 43 -79 39 -156 110
-187 171 -31 60 -51 150 -58 262 -4 56 -10 104 -14 106 -3 2 -28 -39 -54 -91z"/>
<path d="M4721 2144 c2 -105 0 -124 -19 -161 -12 -23 -22 -47 -22 -53 0 -34
130 19 174 71 54 63 22 146 -87 226 l-48 35 2 -118z"/>
<path d="M8015 2213 c-96 -79 -120 -152 -68 -214 43 -50 173 -102 173 -69 0 6
-10 30 -22 53 -19 37 -21 56 -19 160 1 64 0 117 -2 117 -1 0 -29 -21 -62 -47z"/>
</g>
</svg>
