<?xml version="1.0" standalone="no"?>
<!DOCTYPE svg PUBLIC "-//W3C//DTD SVG 20010904//EN"
 "http://www.w3.org/TR/2001/REC-SVG-20010904/DTD/svg10.dtd">
<svg version="1.0" xmlns="http://www.w3.org/2000/svg"
 width="1280.000000pt" height="1209.000000pt" viewBox="0 0 1280.000000 1209.000000"
 preserveAspectRatio="xMidYMid meet">
<metadata>
Created by potrace 1.15, written by Peter Selinger 2001-2017
</metadata>
<g transform="translate(0.000000,1209.000000) scale(0.100000,-0.100000)"
fill="#000000" stroke="none">
<path d="M1767 11857 c87 -128 279 -411 427 -630 l269 -397 3161 2 3160 3 404
614 c222 337 402 615 400 616 -4 4 -6206 25 -7251 25 l-727 0 157 -233z"/>
<path d="M2462 10188 l3 -433 3160 0 3159 0 6 22 c5 22 10 20 130 -48 208
-118 488 -310 564 -385 130 -131 215 -281 371 -654 144 -345 217 -484 343
-645 207 -269 513 -446 972 -564 354 -91 797 -132 1196 -111 259 13 297 18
289 38 -3 9 -93 158 -200 333 -107 174 -195 322 -195 328 0 6 88 174 196 372
124 231 192 365 186 371 -6 6 -45 -11 -107 -47 -234 -138 -517 -249 -762 -300
-507 -105 -1011 -16 -1327 235 -133 105 -223 242 -335 507 -154 365 -270 525
-482 666 -188 125 -492 236 -761 279 l-76 12 -4 44 c-2 24 -2 45 0 47 11 10
349 -79 552 -146 269 -88 374 -174 675 -554 240 -301 346 -410 503 -517 220
-149 426 -205 788 -215 329 -9 632 32 1002 137 146 41 403 130 460 159 l33 17
-264 243 -263 244 83 375 c50 225 80 379 75 384 -6 6 -51 -33 -113 -98 -311
-320 -683 -539 -1046 -615 -266 -56 -568 -38 -748 45 -143 65 -237 149 -407
360 -67 83 -154 183 -193 222 -225 224 -498 313 -925 301 -102 -2 -192 -6
-200 -8 -10 -3 -14 2 -12 14 3 16 -153 17 -3163 17 l-3165 0 2 -432z"/>
<path d="M2523 8983 c3 -535 5 -588 26 -718 105 -667 392 -1246 855 -1724
1141 -1177 2997 -1273 4255 -221 125 104 331 312 422 425 326 404 541 862 643
1367 51 249 62 454 58 1041 l-2 407 -3131 0 -3131 0 5 -577z"/>
<path d="M3205 4913 c-374 -211 -1246 -704 -1938 -1095 -691 -391 -1257 -714
-1257 -717 0 -4 127 -77 282 -163 427 -234 2873 -1581 3713 -2043 407 -224
921 -507 1143 -629 361 -198 403 -223 399 -243 -5 -27 -31 -39 303 145 135 74
848 467 1585 872 737 406 1673 921 2080 1145 407 224 937 515 1178 648 240
132 434 244 430 248 -7 6 -3626 2053 -3820 2160 -34 19 -64 32 -66 29 -5 -5
-55 -159 -177 -537 l-71 -223 -1419 0 -1418 0 -21 63 c-18 57 -146 455 -206
645 -15 45 -30 82 -33 81 -4 0 -313 -174 -687 -386z m3644 -835 c0 -7 -22 -76
-47 -153 l-47 -140 -1185 0 -1184 0 -48 145 c-26 80 -48 148 -48 153 0 4 576
7 1280 7 1018 0 1280 -3 1279 -12z m-235 -735 c-4 -16 -26 -84 -49 -153 l-41
-125 -954 0 -954 0 -42 130 c-24 72 -46 140 -49 153 l-5 22 1050 0 1050 0 -6
-27z m-225 -700 c0 -5 -22 -73 -48 -153 l-47 -145 -724 0 -724 0 -46 145 c-26
80 -45 148 -43 153 5 9 1633 9 1632 0z m-261 -815 c-17 -51 -38 -118 -47 -148
l-17 -55 -494 0 -494 0 -7 25 c-3 14 -25 80 -47 148 l-40 122 588 0 588 0 -30
-92z m-240 -750 c-22 -68 -44 -135 -50 -150 l-10 -28 -259 0 -258 0 -46 141
c-25 77 -45 144 -45 150 0 5 140 9 354 9 l355 0 -41 -122z m-198 -605 c0 -22
-116 -371 -122 -365 -6 7 -118 352 -118 365 0 4 54 7 120 7 66 0 120 -3 120
-7z"/>
</g>
</svg>
