<?xml version="1.0" standalone="no"?>
<!DOCTYPE svg PUBLIC "-//W3C//DTD SVG 20010904//EN"
 "http://www.w3.org/TR/2001/REC-SVG-20010904/DTD/svg10.dtd">
<svg version="1.0" xmlns="http://www.w3.org/2000/svg"
 width="1280.000000pt" height="1280.000000pt" viewBox="0 0 1280.000000 1280.000000"
 preserveAspectRatio="xMidYMid meet">
<metadata>
Created by potrace 1.15, written by Peter Selinger 2001-2017
</metadata>
<g transform="translate(0.000000,1280.000000) scale(0.100000,-0.100000)"
fill="#000000" stroke="none">
<path d="M6020 12790 c-1560 -101 -2979 -732 -4094 -1820 -1007 -984 -1663
-2273 -1860 -3660 -49 -342 -60 -508 -60 -910 0 -391 11 -561 55 -880 255
-1828 1285 -3451 2839 -4475 804 -529 1749 -877 2700 -994 311 -38 448 -46
815 -45 386 0 562 12 895 60 1807 259 3414 1280 4432 2814 955 1441 1281 3221
902 4922 -231 1041 -738 2028 -1455 2839 -123 140 -437 451 -579 575 -1028
898 -2272 1430 -3645 1559 -199 19 -747 27 -945 15z m-200 -3668 l0 -2487
-1756 -1755 -1755 -1755 -35 40 c-50 59 -232 315 -305 430 -257 408 -454 837
-590 1285 -299 993 -299 2050 0 3042 206 681 567 1339 1037 1888 129 151 418
440 569 569 654 561 1443 957 2271 1140 193 43 450 86 527 90 l37 1 0 -2488z
m1471 2447 c693 -116 1393 -393 1984 -784 315 -208 549 -399 821 -670 436
-435 749 -872 1019 -1420 477 -971 638 -2076 460 -3155 -136 -824 -471 -1604
-982 -2287 -46 -62 -88 -115 -94 -119 -7 -4 -752 734 -1765 1747 l-1754 1754
0 2489 0 2489 67 -7 c37 -4 147 -20 244 -37z m-1476 -10377 c-7 -8 -176 15
-365 50 -747 135 -1475 445 -2100 894 -80 57 -163 119 -185 138 l-40 35 1345
1345 1345 1346 3 -1902 c1 -1046 0 -1904 -3 -1906z m3852 1113 c-10 -29 -355
-272 -572 -402 -501 -301 -1023 -508 -1583 -629 -171 -36 -456 -84 -504 -84
l-28 0 0 1907 0 1908 1345 -1345 c740 -740 1344 -1349 1342 -1355z"/>
</g>
</svg>
