<?xml version="1.0" standalone="no"?>
<!DOCTYPE svg PUBLIC "-//W3C//DTD SVG 20010904//EN"
 "http://www.w3.org/TR/2001/REC-SVG-20010904/DTD/svg10.dtd">
<svg version="1.0" xmlns="http://www.w3.org/2000/svg"
 width="1280.000000pt" height="1280.000000pt" viewBox="0 0 1280.000000 1280.000000"
 preserveAspectRatio="xMidYMid meet">
<metadata>
Created by potrace 1.15, written by Peter Selinger 2001-2017
</metadata>
<g transform="translate(0.000000,1280.000000) scale(0.100000,-0.100000)"
fill="#000000" stroke="none">
<path d="M7090 12669 c-1 -257 -76 -628 -175 -871 -149 -365 -354 -643 -825
-1123 -562 -572 -1053 -1165 -1415 -1710 -256 -385 -443 -729 -568 -1045 -164
-415 -213 -716 -189 -1167 7 -126 17 -257 22 -293 4 -36 11 -87 15 -115 3 -27
17 -108 31 -180 66 -339 167 -634 321 -937 181 -358 383 -630 707 -954 206
-206 336 -319 558 -486 130 -98 458 -322 462 -316 1 1 20 53 40 113 45 131
132 315 211 452 58 99 233 361 296 443 231 303 515 606 864 926 411 375 725
680 839 814 99 117 243 309 323 432 261 403 385 922 386 1623 0 207 -4 314
-17 410 -76 586 -230 1136 -500 1782 -358 860 -885 1741 -1298 2168 l-87 90
-1 -56z"/>
<path d="M9510 9493 c0 -5 9 -55 21 -113 89 -462 132 -1021 110 -1453 -13
-249 -39 -482 -67 -597 -109 -438 -605 -1140 -1299 -1835 -126 -127 -291 -284
-365 -350 -160 -142 -223 -206 -374 -380 -276 -318 -452 -600 -476 -761 -5
-38 -19 -133 -31 -211 -21 -141 -21 -189 2 -261 8 -25 15 -32 28 -26 73 31
289 101 416 134 203 54 418 97 820 164 894 149 1116 222 1550 511 387 257 676
553 814 833 98 197 195 572 233 892 19 165 16 597 -5 780 -104 913 -509 1833
-1058 2404 -105 109 -294 276 -312 276 -4 0 -7 -3 -7 -7z"/>
<path d="M3355 8046 c-199 -134 -336 -247 -523 -430 -189 -186 -290 -306 -418
-498 -270 -403 -415 -856 -401 -1261 8 -258 75 -514 202 -772 237 -481 641
-873 1170 -1135 358 -177 715 -283 1170 -349 153 -22 511 -54 546 -49 16 2
-12 23 -107 82 -709 437 -1164 850 -1434 1303 -118 197 -228 493 -244 653 -4
36 -11 92 -16 125 -5 33 -16 116 -25 185 -8 69 -20 163 -26 210 -6 47 -13 196
-16 332 -5 240 4 411 38 673 5 44 12 98 15 120 3 22 9 65 14 95 5 30 12 73 16
95 26 174 135 576 188 698 5 9 4 17 0 17 -5 0 -72 -43 -149 -94z"/>
<path d="M9665 3254 c-346 -57 -781 -124 -965 -149 -677 -92 -1035 -163 -1440
-284 -192 -58 -422 -143 -413 -152 11 -10 304 -98 529 -159 507 -136 1295
-295 1634 -331 l105 -11 850 186 c468 102 857 190 865 195 22 12 59 123 66
199 8 79 -12 168 -54 246 -38 72 -154 182 -249 238 -74 44 -269 129 -289 127
-5 -1 -292 -48 -639 -105z"/>
<path d="M2494 3104 c-79 -59 -212 -194 -265 -268 -55 -77 -101 -188 -119
-290 -16 -84 -8 -247 17 -366 l18 -85 130 -12 c396 -37 672 -68 1166 -133 116
-16 431 -69 590 -100 301 -59 610 -153 1009 -305 412 -157 617 -225 855 -284
208 -51 314 -70 670 -115 349 -44 526 -68 582 -76 33 -6 94 -15 135 -20 40 -5
181 -25 313 -45 432 -64 653 -95 833 -115 217 -26 319 -50 627 -151 360 -119
665 -189 650 -151 -14 36 -55 193 -66 249 -18 97 -7 324 19 400 67 191 225
344 447 434 83 33 90 38 93 66 l3 30 -113 7 c-98 5 -295 26 -528 56 -89 11
-387 58 -485 75 -347 64 -588 110 -690 131 -66 13 -164 33 -217 44 -54 11
-117 24 -140 30 -24 5 -97 21 -163 35 -613 132 -855 195 -1360 350 -269 82
-575 163 -720 190 -104 20 -118 22 -450 69 -137 19 -297 42 -355 51 -159 23
-408 57 -770 105 -124 16 -274 37 -335 45 -115 16 -409 55 -750 100 -274 36
-547 75 -566 81 -9 2 -38 -11 -65 -32z"/>
<path d="M3290 1695 c-41 -13 -194 -58 -340 -100 -146 -42 -291 -83 -322 -93
-32 -9 -58 -20 -58 -24 0 -4 5 -8 10 -8 31 0 214 -124 293 -200 111 -104 175
-199 213 -316 27 -82 29 -100 29 -239 -1 -154 -13 -239 -56 -388 -11 -38 -19
-72 -17 -76 2 -4 515 197 1141 447 625 250 1135 457 1132 460 -11 11 -785 297
-965 356 -367 121 -624 176 -925 200 -45 3 -79 -2 -135 -19z"/>
<path d="M10462 1600 c-116 -31 -205 -84 -302 -180 -70 -69 -95 -101 -128
-170 -55 -112 -73 -185 -73 -297 -1 -177 42 -294 140 -385 89 -83 151 -103
321 -103 111 0 147 4 205 22 176 56 325 194 389 362 28 75 30 301 2 401 -42
154 -134 281 -243 335 -78 39 -202 45 -311 15z"/>
<path d="M2160 1293 c-261 -34 -422 -173 -485 -418 -19 -76 -20 -300 -1 -372
48 -178 160 -296 343 -360 74 -26 88 -27 253 -27 162 0 180 2 248 26 134 48
215 116 271 226 53 105 65 170 65 342 -1 139 -4 162 -27 227 -13 40 -36 92
-51 116 -62 106 -191 192 -331 222 -76 16 -229 26 -285 18z"/>
</g>
</svg>
