<?xml version="1.0" standalone="no"?>
<!DOCTYPE svg PUBLIC "-//W3C//DTD SVG 20010904//EN"
 "http://www.w3.org/TR/2001/REC-SVG-20010904/DTD/svg10.dtd">
<svg version="1.0" xmlns="http://www.w3.org/2000/svg"
 width="1280.000000pt" height="1280.000000pt" viewBox="0 0 1280.000000 1280.000000"
 preserveAspectRatio="xMidYMid meet">
<metadata>
Created by potrace 1.15, written by Peter Selinger 2001-2017
</metadata>
<g transform="translate(0.000000,1280.000000) scale(0.100000,-0.100000)"
fill="#000000" stroke="none">
<path d="M6085 12269 c-1810 -147 -3440 -1120 -4442 -2650 -526 -805 -844
-1731 -940 -2740 -23 -245 -23 -780 1 -1024 137 -1430 719 -2684 1706 -3676
483 -485 983 -842 1594 -1140 1071 -520 2287 -699 3466 -508 1719 277 3234
1319 4119 2834 436 746 695 1556 788 2465 24 241 24 851 0 1090 -105 1011
-417 1905 -951 2715 -237 360 -453 623 -770 940 -309 308 -569 522 -911 748
-781 516 -1638 823 -2605 933 -169 19 -874 28 -1055 13z m675 -1439 c599 -38
1129 -176 1665 -434 800 -385 1455 -987 1908 -1754 317 -534 511 -1121 594
-1792 25 -205 25 -762 0 -970 -131 -1077 -581 -2001 -1328 -2725 -695 -674
-1569 -1089 -2549 -1211 -282 -35 -780 -29 -1085 12 -1648 223 -3037 1356
-3599 2937 -105 294 -185 632 -227 957 -27 209 -37 668 -20 887 84 1053 513
2011 1240 2765 877 911 2146 1407 3401 1328z"/>
<path d="M6264 10206 c-10 -25 24 -79 101 -166 185 -208 214 -356 180 -919
-21 -341 -19 -359 43 -482 53 -105 119 -200 212 -304 192 -216 200 -226 200
-250 0 -30 -28 -45 -197 -106 l-122 -44 -46 -110 c-25 -60 -49 -128 -52 -151
-11 -85 47 -176 134 -209 l46 -18 -65 -33 c-47 -24 -83 -53 -125 -99 -39 -43
-65 -65 -80 -65 -28 0 -63 51 -97 141 -29 76 -147 465 -149 488 0 9 34 108 77
221 160 419 175 478 157 612 -6 45 -15 86 -20 91 -11 11 -31 0 -31 -17 0 -8
-6 -19 -14 -25 -18 -15 -20 -11 -168 267 -66 125 -146 265 -178 312 -78 116
-80 120 -80 195 0 64 -1 66 -22 59 -55 -17 -77 -35 -94 -80 -17 -45 -18 -46
-53 -39 -69 14 -86 12 -86 -10 0 -13 18 -30 55 -52 30 -18 73 -50 94 -70 64
-62 147 -198 186 -307 36 -99 58 -140 134 -259 46 -71 66 -127 66 -181 0 -22
-27 -174 -60 -336 -64 -319 -90 -479 -90 -558 0 -93 61 -291 210 -682 98 -258
103 -276 83 -295 -19 -19 -86 -19 -122 0 -36 18 -73 65 -140 177 -92 154 -316
424 -400 482 l-41 29 -123 -6 c-69 -3 -158 -15 -204 -26 -179 -45 -680 -295
-830 -415 -56 -46 -113 -57 -318 -62 -115 -4 -184 -10 -212 -20 -23 -9 -80
-17 -125 -20 -102 -5 -164 -10 -248 -19 -38 -4 -103 -2 -153 4 -110 15 -133 6
-161 -61 -18 -44 -18 -51 -5 -94 20 -66 38 -74 86 -41 46 32 99 42 288 57 77
7 157 18 178 25 27 9 68 12 130 8 67 -4 110 -1 157 11 128 32 402 57 414 38 3
-5 -14 -30 -39 -55 -51 -52 -59 -87 -21 -87 28 0 84 41 201 145 92 81 160 129
298 209 54 31 139 82 190 115 160 101 333 176 393 169 32 -3 75 -64 254 -354
98 -159 184 -252 343 -367 57 -41 100 -80 103 -93 15 -60 -45 -169 -113 -206
-77 -42 -258 -68 -331 -48 -52 14 -126 81 -242 221 -137 163 -278 249 -426
257 -58 3 -78 0 -113 -17 -131 -67 -182 -290 -211 -931 -12 -272 -20 -367 -32
-399 -5 -15 -4 -35 3 -56 12 -32 10 -36 -53 -122 -123 -165 -310 -460 -442
-696 -88 -157 -198 -320 -262 -387 -28 -30 -69 -83 -89 -118 -24 -41 -54 -76
-85 -98 -56 -40 -65 -57 -42 -80 32 -32 125 -68 177 -69 l50 0 1 56 c1 30 7
66 14 79 7 12 136 215 288 449 400 618 483 748 532 829 25 39 47 72 50 72 3 0
6 -9 7 -21 3 -30 52 -91 71 -87 24 5 32 54 39 264 4 141 3 200 -7 225 -18 51
-35 595 -22 735 11 122 24 162 61 180 51 26 130 -22 301 -182 164 -153 261
-214 443 -276 81 -27 106 -31 202 -32 61 0 139 4 174 8 79 11 76 -3 -7 -34
-118 -43 -126 -57 -62 -109 69 -55 43 -79 -50 -46 -123 44 -356 -22 -505 -142
-108 -88 -210 -264 -252 -438 -25 -105 -22 -320 6 -455 72 -344 210 -562 415
-656 118 -54 242 -33 506 84 201 90 296 149 391 242 181 178 269 370 269 585
0 198 -78 374 -234 529 l-69 68 32 25 c27 21 31 30 31 74 0 56 12 63 35 20 9
-18 51 -53 102 -87 49 -32 120 -88 159 -126 78 -74 97 -80 155 -50 71 36 508
16 699 -33 60 -16 91 -44 83 -75 -3 -11 -49 -70 -102 -132 -53 -62 -146 -174
-206 -248 -183 -227 -277 -330 -422 -461 -129 -119 -175 -171 -160 -185 3 -3
28 1 56 11 57 18 73 14 66 -18 -2 -12 -25 -105 -49 -207 -116 -481 -146 -620
-146 -683 0 -77 -23 -219 -45 -270 -8 -20 -15 -65 -15 -99 0 -35 -7 -88 -16
-118 -8 -30 -17 -91 -19 -135 -3 -85 -3 -84 -67 -109 -67 -27 -39 -66 46 -66
47 0 50 -3 46 -47 -2 -30 44 -75 73 -71 16 2 21 9 19 23 -13 74 -12 113 7 193
14 60 21 123 21 190 0 112 22 248 50 301 20 41 33 99 55 256 9 61 36 202 60
315 24 113 51 245 59 295 23 132 106 298 190 380 34 33 83 89 108 126 25 36
84 105 130 155 230 246 389 582 348 736 -16 56 -80 122 -159 161 -64 31 -69
32 -191 31 -93 -1 -157 -8 -253 -27 -146 -31 -212 -33 -283 -12 -75 22 -127
73 -174 168 -67 137 -77 241 -26 292 21 21 32 23 222 28 197 5 201 5 379 51
99 26 188 45 198 42 9 -2 43 2 75 10 31 7 92 13 134 14 104 0 121 -15 178
-157 56 -141 169 -477 225 -673 25 -85 52 -178 60 -206 20 -69 38 -84 60 -50
21 31 55 35 55 7 0 -43 158 -311 220 -373 46 -46 361 -469 376 -505 8 -18 14
-48 14 -67 0 -41 12 -51 40 -36 26 14 181 250 178 270 -2 8 -13 16 -25 18 -16
2 -29 -7 -49 -37 -15 -23 -31 -41 -36 -41 -20 0 -120 107 -190 202 -40 56 -97
130 -125 164 -31 37 -53 73 -53 87 0 15 -24 51 -65 98 -124 140 -255 360 -255
428 0 43 -43 169 -135 396 -141 347 -203 463 -305 566 -75 77 -101 86 -280 96
-138 8 -218 -6 -415 -73 -99 -34 -185 -57 -227 -61 -62 -5 -68 -4 -92 20 -36
36 -34 75 5 113 17 16 42 48 56 72 14 23 34 44 46 46 12 3 38 7 57 10 52 9
400 177 473 229 85 61 224 201 258 262 16 28 45 66 66 86 21 20 66 84 100 142
35 58 91 143 125 189 73 99 224 252 258 263 14 4 43 20 65 36 46 32 243 94
349 110 39 6 116 24 171 40 135 39 171 43 230 25 76 -24 80 -6 13 60 -34 32
-61 67 -66 86 -4 17 -16 36 -25 42 -15 9 -23 4 -50 -27 -32 -37 -34 -38 -202
-71 -94 -19 -195 -41 -224 -50 -30 -9 -66 -16 -81 -16 -15 0 -71 -29 -135 -70
-144 -92 -191 -102 -178 -40 9 49 -33 40 -88 -17 -90 -95 -136 -166 -284 -439
-120 -221 -143 -255 -202 -291 -27 -17 -108 -78 -181 -137 -145 -116 -257
-186 -327 -206 -85 -24 -95 6 -40 121 40 83 44 138 21 247 -10 45 -10 62 -2
58 6 -2 35 -13 64 -22 49 -17 54 -17 87 -1 40 19 111 106 157 192 51 95 47
140 -30 294 -34 68 -62 134 -62 146 0 30 21 35 160 35 64 0 154 5 200 11 141
17 366 102 451 170 23 18 130 138 239 268 226 271 366 411 460 464 36 19 135
62 221 94 151 57 209 85 209 101 0 5 -6 17 -14 27 -19 27 -105 23 -233 -8
-242 -60 -395 -189 -800 -672 -112 -135 -195 -220 -233 -240 -38 -20 -121 -33
-360 -55 -118 -11 -245 -25 -282 -30 -104 -16 -146 -12 -237 19 -112 39 -168
80 -253 181 -80 95 -236 303 -319 424 -30 44 -67 93 -84 109 -29 29 -30 34
-30 121 1 50 7 123 15 161 11 52 15 144 15 365 -1 272 -2 302 -23 384 -32 128
-72 201 -164 302 -106 116 -198 172 -214 130z"/>
</g>
</svg>
