<?xml version="1.0" standalone="no"?>
<!DOCTYPE svg PUBLIC "-//W3C//DTD SVG 20010904//EN"
 "http://www.w3.org/TR/2001/REC-SVG-20010904/DTD/svg10.dtd">
<svg version="1.0" xmlns="http://www.w3.org/2000/svg"
 width="1280.000000pt" height="1280.000000pt" viewBox="0 0 1280.000000 1280.000000"
 preserveAspectRatio="xMidYMid meet">
<metadata>
Created by potrace 1.15, written by Peter Selinger 2001-2017
</metadata>
<g transform="translate(0.000000,1280.000000) scale(0.100000,-0.100000)"
fill="#000000" stroke="none">
<path d="M6085 12269 c-1810 -147 -3440 -1120 -4442 -2650 -526 -805 -844
-1731 -940 -2740 -23 -245 -23 -780 1 -1024 137 -1430 719 -2684 1706 -3676
483 -485 983 -842 1594 -1140 1071 -520 2287 -699 3466 -508 1719 277 3234
1319 4119 2834 436 746 695 1556 788 2465 24 241 24 851 0 1090 -105 1011
-417 1905 -951 2715 -237 360 -453 623 -770 940 -309 308 -569 522 -911 748
-781 516 -1638 823 -2605 933 -169 19 -874 28 -1055 13z m675 -1439 c599 -38
1129 -176 1665 -434 800 -385 1455 -987 1908 -1754 317 -534 511 -1121 594
-1792 25 -205 25 -762 0 -970 -131 -1077 -581 -2001 -1328 -2725 -695 -674
-1569 -1089 -2549 -1211 -282 -35 -780 -29 -1085 12 -1648 223 -3037 1356
-3599 2937 -105 294 -185 632 -227 957 -27 209 -37 668 -20 887 84 1053 513
2011 1240 2765 877 911 2146 1407 3401 1328z"/>
<path d="M5927 10080 c-14 -55 36 -141 107 -185 27 -16 89 -71 140 -120 50
-50 152 -140 226 -201 111 -90 136 -115 138 -139 4 -36 18 -46 50 -38 18 4 32
-3 60 -29 20 -20 63 -54 94 -77 62 -44 70 -54 126 -149 20 -34 52 -81 70 -105
149 -194 162 -215 162 -259 0 -24 14 -90 31 -148 20 -69 33 -142 38 -215 l8
-110 -32 -55 c-83 -141 -120 -251 -149 -442 -11 -72 -21 -106 -40 -135 -41
-59 -59 -133 -46 -183 15 -54 10 -65 -41 -90 l-41 -22 -35 34 c-18 18 -45 56
-58 85 -14 28 -39 62 -57 74 -18 13 -82 73 -143 134 -60 62 -205 201 -320 311
-220 208 -243 224 -327 224 -44 0 -88 -33 -88 -65 0 -27 35 -88 244 -428 174
-282 200 -327 191 -327 -12 0 -46 48 -203 294 -85 133 -172 264 -194 291 -86
109 -164 136 -210 73 -19 -28 -23 -45 -22 -103 1 -61 9 -91 63 -227 33 -87 61
-160 61 -163 0 -3 40 -103 89 -222 54 -135 90 -237 93 -268 4 -40 16 -66 63
-134 l58 -84 -24 -18 c-30 -23 -49 -23 -124 0 -117 37 -148 37 -209 2 -58 -33
-207 -74 -350 -97 -49 -8 -118 -26 -154 -40 -97 -39 -146 -32 -307 44 -72 34
-153 66 -180 71 -59 11 -79 31 -218 216 -49 66 -102 134 -117 150 -18 20 -30
46 -35 79 -6 46 -30 122 -123 386 -54 153 -146 362 -183 416 -40 58 -55 97
-63 163 -9 69 -27 103 -72 138 -35 26 -37 26 -50 8 -8 -10 -14 -25 -14 -32 0
-7 27 -65 60 -129 37 -70 60 -128 60 -147 0 -18 15 -93 34 -167 19 -74 46
-180 60 -235 13 -55 37 -156 52 -225 26 -123 101 -366 132 -425 8 -16 85 -102
171 -190 86 -89 168 -177 183 -197 49 -65 152 -98 363 -118 61 -5 144 -20 186
-31 73 -21 78 -21 150 -5 43 9 125 41 195 75 156 76 190 86 237 66 49 -20 99
-19 176 5 77 24 81 21 81 -65 0 -68 -10 -85 -53 -85 -54 0 -109 -23 -157 -67
-28 -25 -93 -65 -154 -93 -153 -73 -224 -116 -292 -182 -44 -42 -77 -63 -118
-78 -48 -16 -294 -74 -376 -87 -22 -4 -46 16 -164 139 -128 132 -140 148 -163
213 -14 39 -66 153 -116 255 -80 160 -101 194 -157 252 -55 57 -71 68 -99 68
-48 0 -71 -16 -71 -50 0 -39 46 -65 102 -57 l38 5 0 -46 c0 -26 23 -143 51
-262 59 -246 122 -404 191 -476 39 -41 163 -119 228 -144 19 -8 71 -31 114
-52 63 -30 92 -38 135 -38 106 0 282 54 378 116 32 20 89 51 128 69 47 23 99
59 160 115 137 124 159 135 282 136 l101 1 6 -30 c3 -16 6 -56 6 -89 0 -54 -4
-64 -34 -100 -19 -22 -41 -59 -49 -83 -8 -23 -35 -70 -60 -104 -58 -78 -142
-225 -163 -282 -8 -24 -22 -75 -30 -113 -19 -91 -58 -171 -140 -285 -37 -52
-84 -124 -103 -159 l-36 -65 -120 -38 c-178 -58 -200 -62 -234 -44 -51 26
-239 85 -272 85 -17 0 -48 5 -69 11 -31 10 -41 9 -65 -7 -22 -14 -75 -83 -75
-97 0 -2 20 -18 45 -36 51 -37 68 -35 93 9 9 16 21 30 26 30 4 0 29 -15 55
-34 74 -54 202 -123 261 -140 92 -27 242 -15 380 31 44 15 146 72 184 102 30
25 132 244 176 381 24 74 53 139 69 160 42 52 56 86 81 190 28 117 55 188 82
218 28 29 56 29 63 0 23 -97 24 -126 8 -224 -13 -75 -14 -114 -7 -150 6 -34 5
-85 -4 -164 -7 -63 -12 -178 -10 -256 3 -137 4 -142 37 -205 18 -35 53 -118
78 -184 104 -282 145 -375 198 -447 29 -39 63 -96 75 -127 66 -164 207 -453
247 -505 24 -33 50 -74 58 -92 12 -30 88 -146 206 -314 88 -127 171 -232 236
-302 35 -37 63 -72 63 -78 0 -11 -21 -32 -75 -75 -29 -23 -29 -25 -15 -52 23
-41 76 -44 113 -7 37 37 42 63 29 155 -11 73 -25 105 -162 377 -82 163 -172
326 -199 362 -32 43 -55 89 -69 135 -12 41 -45 109 -78 160 -205 324 -235 377
-250 438 -9 34 -27 79 -40 99 -13 21 -24 42 -24 47 0 14 -137 286 -167 332
-25 38 -26 48 -29 182 -4 166 -3 166 75 2 143 -301 309 -527 556 -753 212
-195 406 -284 685 -313 126 -13 241 -3 414 36 330 75 661 291 848 555 103 146
188 344 224 523 13 63 15 111 11 212 -10 222 -75 451 -202 712 -80 166 -147
274 -245 398 -75 93 -293 320 -363 376 -38 30 -45 40 -33 45 25 10 56 -1 204
-72 75 -36 170 -74 211 -85 88 -23 97 -28 187 -112 115 -108 245 -217 314
-262 80 -53 89 -65 178 -241 40 -78 94 -171 120 -206 46 -63 49 -71 81 -224
37 -185 82 -325 117 -371 52 -69 120 -77 185 -24 33 28 33 28 16 54 -20 31
-62 45 -88 29 -26 -17 -31 8 -24 123 11 156 -7 305 -50 417 -19 51 -46 116
-59 143 -31 66 -238 341 -363 484 -43 49 -205 165 -368 263 -33 20 -79 55
-101 77 -94 90 -266 148 -501 171 -59 5 -130 18 -158 29 -27 10 -76 21 -108
25 -45 5 -72 15 -118 46 -71 49 -84 69 -63 99 29 40 152 84 317 111 38 6 113
29 167 50 l98 40 212 0 c161 0 227 4 273 16 l61 15 110 -75 c219 -149 234
-162 241 -203 4 -21 15 -67 25 -103 9 -36 25 -108 34 -160 26 -144 44 -200 82
-252 31 -44 38 -48 75 -48 45 0 99 24 99 44 0 19 -33 46 -66 55 l-29 7 -1 200
c-2 228 -10 348 -26 377 -18 34 -119 150 -157 181 -56 44 -162 94 -264 123
-50 14 -110 37 -131 51 -27 16 -54 24 -80 24 -23 0 -63 -1 -90 -2 -27 0 -137
-17 -245 -36 -108 -20 -226 -38 -262 -39 -71 -3 -186 -46 -408 -151 -71 -34
-127 -54 -150 -54 -20 0 -56 -9 -80 -20 l-44 -20 -41 20 c-23 11 -52 29 -65
39 l-25 19 45 77 c27 48 54 82 72 92 16 8 76 25 133 38 157 35 197 51 257 103
31 26 106 80 169 120 105 67 212 158 244 207 26 41 54 182 54 273 0 115 -17
236 -39 287 -22 49 -102 125 -167 158 -71 36 -178 72 -269 92 -44 10 -83 20
-87 24 -4 4 -2 23 4 44 11 35 9 40 -19 75 -33 40 -50 42 -94 11 -41 -29 -46
-79 -15 -143 39 -79 81 -112 263 -205 l167 -86 23 -85 c13 -47 30 -123 38
-170 l14 -85 -37 -35 c-21 -19 -70 -73 -109 -120 -39 -47 -96 -109 -126 -138
-52 -51 -62 -56 -217 -108 -169 -57 -235 -86 -308 -136 -24 -17 -59 -34 -78
-40 -32 -8 -58 -31 -118 -103 l-25 -30 -48 25 c-58 30 -64 56 -34 153 16 53
18 71 9 103 -26 93 -18 118 112 346 78 136 104 208 98 271 -3 23 -1 91 4 152
13 173 -22 391 -76 463 -13 19 -48 86 -77 150 -96 216 -173 333 -247 381 -27
17 -59 42 -73 57 -44 48 -140 116 -273 195 -72 42 -156 93 -186 113 -30 19
-104 58 -165 87 -60 28 -120 61 -132 72 -12 11 -34 50 -48 88 -35 90 -62 119
-113 119 -31 0 -41 -4 -45 -20z m452 -2462 c136 -37 187 -68 158 -97 -6 -6
-36 -11 -67 -11 -70 0 -157 40 -215 100 l-40 41 45 -6 c25 -4 78 -16 119 -27z
m-334 -150 c37 -63 13 -243 -35 -273 -24 -15 -42 18 -37 64 4 37 25 145 35
184 1 4 2 18 2 32 0 34 12 31 35 -7z"/>
</g>
</svg>
