<?xml version="1.0" standalone="no"?>
<!DOCTYPE svg PUBLIC "-//W3C//DTD SVG 20010904//EN"
 "http://www.w3.org/TR/2001/REC-SVG-20010904/DTD/svg10.dtd">
<svg version="1.0" xmlns="http://www.w3.org/2000/svg"
 width="1280.000000pt" height="1044.000000pt" viewBox="0 0 1280.000000 1044.000000"
 preserveAspectRatio="xMidYMid meet">
<metadata>
Created by potrace 1.15, written by Peter Selinger 2001-2017
</metadata>
<g transform="translate(0.000000,1044.000000) scale(0.100000,-0.100000)"
fill="#000000" stroke="none">
<path d="M8978 10412 c42 -58 222 -220 343 -306 397 -287 508 -386 571 -514
28 -56 33 -77 33 -138 0 -68 -2 -73 -43 -126 -23 -31 -87 -107 -140 -169 -54
-63 -116 -138 -139 -168 l-41 -55 21 -16 c12 -9 56 -37 98 -63 110 -68 108
-63 58 -154 -211 -384 -549 -881 -888 -1305 l-102 -128 -112 77 c-118 81 -218
156 -329 246 l-67 55 -128 8 c-507 33 -1020 -18 -1475 -147 -535 -151 -982
-402 -1381 -776 -121 -113 -207 -171 -422 -284 l-100 -52 -103 109 c-715 754
-1375 1592 -1586 2012 l-45 91 98 89 99 90 -71 86 c-40 47 -123 142 -184 212
l-113 126 0 62 c0 146 88 296 257 438 43 36 154 123 247 193 92 71 198 155
233 188 83 75 196 201 183 205 -13 5 -302 -72 -448 -119 -410 -133 -782 -320
-1185 -596 -703 -482 -1526 -1063 -1812 -1277 -302 -227 -326 -257 -291 -364
21 -61 49 -105 162 -247 167 -210 329 -391 528 -591 209 -208 330 -304 385
-304 73 0 212 138 774 773 172 194 369 397 385 397 17 0 332 -272 787 -680
368 -330 1195 -1111 1195 -1128 0 -4 -24 -20 -53 -36 -422 -234 -807 -690
-1101 -1307 -179 -376 -348 -877 -451 -1339 -47 -209 -26 -181 -173 -230 -163
-54 -513 -188 -662 -252 -63 -28 -176 -75 -250 -105 -441 -178 -763 -461 -845
-745 -38 -133 30 -336 149 -446 287 -264 923 -280 1985 -47 90 20 167 35 172
33 8 -3 -139 -186 -321 -398 -59 -69 -194 -231 -300 -360 -301 -366 -485 -574
-648 -733 -77 -75 -87 -88 -68 -92 22 -4 512 -65 696 -86 58 -7 179 -13 270
-13 l165 -1 22 47 c29 61 55 162 87 336 27 143 57 255 83 305 17 34 205 292
322 442 140 181 306 380 462 555 224 251 195 230 399 285 725 193 1849 550
2460 782 85 32 219 56 482 87 180 22 612 56 697 56 19 0 76 -42 201 -147 734
-616 1306 -1203 1811 -1863 166 -216 178 -243 258 -564 29 -115 63 -232 76
-261 l23 -53 74 -4 c111 -5 350 8 468 26 88 14 590 107 597 111 2 1 -109 114
-245 251 -267 267 -364 376 -882 979 -692 806 -822 938 -1308 1327 l-273 218
83 0 c289 0 893 22 968 35 47 8 229 37 405 64 176 27 367 61 425 75 329 78
586 227 796 463 l75 84 -37 42 c-183 204 -427 326 -781 392 -98 18 -290 41
-458 56 -71 6 -131 12 -133 14 -2 1 4 29 12 61 39 151 50 249 50 439 0 169 -3
202 -26 300 -34 143 -80 259 -144 361 l-52 83 -5 388 c-5 455 -23 614 -98 894
l-20 76 -181 100 c-99 54 -180 102 -179 106 1 10 471 468 806 786 149 141 303
287 342 325 l72 69 55 -42 c62 -48 293 -283 546 -554 180 -194 265 -272 482
-445 l127 -101 133 122 c495 454 779 786 914 1070 35 73 4 106 -326 339 -338
240 -1670 1130 -1989 1329 -420 262 -880 451 -1348 554 -65 14 -129 28 -141
31 l-24 5 20 -29z m-4313 -3982 c21 -22 37 -40 34 -40 -3 0 -23 18 -44 40 -21
22 -37 40 -34 40 3 0 23 -18 44 -40z m5389 -5850 c30 -94 79 -301 73 -307 -3
-2 -22 65 -42 149 -21 84 -44 170 -51 192 -15 42 -16 46 -9 46 2 0 15 -36 29
-80z"/>
</g>
</svg>
