<?xml version="1.0" standalone="no"?>
<!DOCTYPE svg PUBLIC "-//W3C//DTD SVG 20010904//EN"
 "http://www.w3.org/TR/2001/REC-SVG-20010904/DTD/svg10.dtd">
<svg version="1.0" xmlns="http://www.w3.org/2000/svg"
 width="1280.000000pt" height="1220.000000pt" viewBox="0 0 1280.000000 1220.000000"
 preserveAspectRatio="xMidYMid meet">
<metadata>
Created by potrace 1.15, written by Peter Selinger 2001-2017
</metadata>
<g transform="translate(0.000000,1220.000000) scale(0.100000,-0.100000)"
fill="#000000" stroke="none">
<path d="M6240 12182 c-227 -59 -383 -291 -350 -521 18 -128 64 -216 156 -300
l54 -49 -131 -379 c-137 -397 -250 -723 -398 -1150 -49 -142 -130 -375 -179
-518 -433 -1252 -545 -1571 -552 -1579 -8 -8 -464 -28 -2996 -133 l-900 -38
-32 66 c-63 133 -208 238 -361 262 -317 49 -597 -238 -543 -555 60 -351 463
-516 756 -310 34 23 54 32 63 26 95 -63 3072 -2323 3072 -2332 1 -8 -26 -109
-58 -225 -33 -117 -123 -439 -201 -717 -78 -278 -167 -599 -200 -715 -32 -115
-89 -318 -125 -450 -37 -132 -93 -332 -125 -445 -31 -113 -117 -419 -190 -681
l-133 -476 -60 -1 c-203 -6 -381 -147 -443 -351 -19 -62 -18 -195 2 -262 66
-226 297 -376 528 -342 196 28 361 179 406 372 12 50 9 175 -5 241 -5 23 95
95 1585 1133 l1590 1108 1607 -1067 c885 -587 1609 -1068 1610 -1069 1 0 -4
-25 -12 -55 -33 -123 -11 -280 53 -380 73 -115 206 -202 340 -222 287 -45 552
184 552 477 0 250 -200 463 -447 477 -29 2 -53 4 -53 5 0 1 -20 66 -44 145
-24 79 -135 442 -246 808 -111 366 -228 751 -260 855 -32 105 -149 489 -260
855 -111 366 -228 751 -260 855 -46 147 -56 193 -47 201 20 19 2991 2369 3005
2378 8 5 20 2 30 -7 10 -9 48 -30 86 -48 58 -27 83 -33 166 -37 153 -7 264 35
369 140 182 182 185 480 6 667 -234 245 -633 182 -781 -124 l-36 -77 -247 6
c-135 4 -493 11 -796 16 -302 6 -766 15 -1030 20 -264 5 -772 15 -1130 21
-357 6 -653 14 -657 18 -6 5 -142 368 -418 1111 -38 102 -110 295 -160 430
-50 135 -122 328 -160 430 -38 102 -110 295 -160 430 -50 135 -122 328 -160
430 -38 102 -110 295 -160 430 -51 135 -99 266 -108 292 l-16 48 57 56 c109
109 164 271 139 416 -49 285 -324 463 -602 390z"/>
</g>
</svg>
