<?xml version="1.0" standalone="no"?>
<!DOCTYPE svg PUBLIC "-//W3C//DTD SVG 20010904//EN"
 "http://www.w3.org/TR/2001/REC-SVG-20010904/DTD/svg10.dtd">
<svg version="1.0" xmlns="http://www.w3.org/2000/svg"
 width="1280.000000pt" height="720.000000pt" viewBox="0 0 1280.000000 720.000000"
 preserveAspectRatio="xMidYMid meet">
<metadata>
Created by potrace 1.15, written by Peter Selinger 2001-2017
</metadata>
<g transform="translate(0.000000,720.000000) scale(0.100000,-0.100000)"
fill="#000000" stroke="none">
<path d="M10280 5825 c-531 -73 -994 -410 -1220 -888 -43 -91 -91 -225 -117
-327 l-9 -35 -364 -5 c-360 -5 -366 -6 -425 -30 l-60 -25 -2415 4 c-2311 4
-2416 5 -2455 22 -38 18 -98 19 -1167 19 l-1127 0 -69 -60 c-39 -33 -73 -67
-76 -76 -12 -32 -7 -319 6 -336 7 -8 39 -39 71 -67 49 -43 63 -51 98 -51 l40
0 -2 -607 -1 -608 183 0 184 0 5 305 5 305 235 0 235 0 0 -150 0 -150 125 0
125 0 5 150 5 150 293 3 293 2 -2 -307 -2 -308 254 0 254 0 3 605 2 606 29 17
c27 16 183 17 2443 17 l2414 0 75 -27 74 -27 354 -6 354 -5 23 -85 c148 -558
582 -989 1139 -1133 55 -14 135 -31 178 -36 101 -14 334 -14 434 0 372 50 738
249 978 529 416 486 508 1145 239 1719 -200 426 -586 744 -1046 862 -186 47
-409 60 -598 34z m1084 -940 c173 -32 284 -87 346 -173 70 -96 105 -280 97
-506 -6 -173 -26 -278 -71 -369 -78 -154 -272 -229 -631 -243 -268 -11 -467
31 -548 114 -65 66 -69 101 -65 575 3 396 4 414 24 457 52 110 169 156 429
169 149 7 291 -1 419 -24z"/>
</g>
</svg>
