<?xml version="1.0" standalone="no"?>
<!DOCTYPE svg PUBLIC "-//W3C//DTD SVG 20010904//EN"
 "http://www.w3.org/TR/2001/REC-SVG-20010904/DTD/svg10.dtd">
<svg version="1.0" xmlns="http://www.w3.org/2000/svg"
 width="1280.000000pt" height="1280.000000pt" viewBox="0 0 1280.000000 1280.000000"
 preserveAspectRatio="xMidYMid meet">
<metadata>
Created by potrace 1.15, written by Peter Selinger 2001-2017
</metadata>
<g transform="translate(0.000000,1280.000000) scale(0.100000,-0.100000)"
fill="#000000" stroke="none">
<path d="M6060 12784 c-75 -20 -162 -71 -242 -141 -36 -32 -65 -59 -63 -61 1
-1 26 3 55 9 29 6 90 9 135 7 68 -4 94 -10 156 -40 74 -36 159 -102 218 -169
17 -20 31 -39 31 -41 0 -3 -57 -6 -127 -7 -299 -4 -694 -48 -997 -111 -125
-26 -128 -25 -148 8 -51 86 -163 194 -259 249 -183 105 -382 88 -546 -47 -46
-38 -143 -149 -143 -164 0 -3 26 5 58 16 88 33 246 31 328 -3 59 -24 168 -93
228 -143 l29 -24 -87 -27 c-257 -78 -496 -168 -741 -279 l-168 -77 -53 52
c-109 109 -255 182 -409 206 -166 25 -293 -13 -400 -121 -63 -64 -112 -145
-145 -242 -29 -85 -26 -91 28 -44 100 90 245 132 376 111 39 -6 135 -30 214
-53 141 -41 143 -42 115 -56 -137 -70 -457 -279 -654 -427 l-136 -102 -58 38
c-120 78 -316 128 -459 116 -148 -13 -279 -84 -349 -189 -49 -75 -88 -195 -95
-293 l-5 -80 41 54 c53 70 142 135 222 163 57 20 84 23 215 22 83 0 176 -4
208 -8 l59 -8 -104 -95 c-192 -178 -459 -464 -604 -647 l-31 -40 -38 23 c-165
97 -407 126 -580 70 -126 -40 -226 -129 -275 -243 -35 -83 -59 -256 -44 -314
6 -21 9 -19 35 26 60 105 177 191 304 222 28 6 133 15 235 20 102 5 196 12
210 16 24 7 24 7 -6 -32 -143 -182 -440 -685 -550 -932 -33 -73 -40 -83 -58
-78 -185 53 -439 13 -594 -93 -73 -49 -122 -107 -159 -187 -25 -54 -27 -69
-28 -184 0 -106 4 -136 24 -199 l25 -74 16 59 c36 132 127 245 242 301 35 17
122 50 193 73 72 22 145 47 163 55 18 8 34 15 36 15 2 0 -11 -39 -30 -86 -101
-257 -217 -657 -271 -932 -15 -77 -21 -93 -38 -97 -106 -20 -174 -42 -255 -82
-238 -120 -351 -326 -296 -543 19 -73 61 -169 100 -227 l26 -38 0 66 c0 185
87 318 290 443 51 32 94 55 96 53 3 -2 -2 -69 -11 -149 -24 -230 -37 -568 -30
-758 l6 -175 -47 -25 c-71 -37 -201 -173 -252 -262 -26 -46 -51 -108 -64 -162
-20 -79 -21 -95 -10 -159 17 -99 61 -184 133 -257 56 -57 177 -145 186 -136 3
2 -5 22 -16 45 -66 127 -65 283 0 414 32 65 93 167 100 167 3 0 9 -32 13 -70
18 -196 101 -599 176 -861 l40 -139 -58 -58 c-99 -97 -166 -211 -197 -337 -43
-174 28 -349 192 -471 58 -44 123 -84 136 -84 2 0 -13 32 -32 71 -32 64 -36
82 -39 169 -4 81 0 110 18 167 26 81 89 198 100 186 4 -4 33 -71 65 -148 75
-182 222 -483 325 -662 l81 -142 -44 -63 c-54 -77 -78 -123 -105 -208 -91
-281 -3 -517 233 -626 64 -29 175 -64 205 -64 7 0 -10 25 -39 55 -91 97 -138
229 -125 357 8 93 49 264 60 258 5 -3 46 -56 92 -119 163 -224 356 -450 579
-682 l103 -106 -32 -63 c-42 -85 -68 -187 -75 -290 -18 -277 157 -465 477
-514 l45 -8 -46 41 c-61 53 -117 139 -141 213 -27 88 -24 242 8 386 4 21 10
18 87 -46 265 -220 620 -464 885 -607 l92 -50 -5 -46 c-7 -51 9 -190 30 -259
44 -149 135 -269 244 -325 100 -51 245 -60 393 -24 48 12 85 25 83 29 -3 4
-22 10 -43 13 -63 11 -163 67 -219 124 -55 56 -120 176 -147 271 -8 28 -13 52
-11 52 2 0 34 -14 72 -31 309 -139 727 -278 1095 -363 19 -4 26 -11 21 -21 -9
-24 17 -200 39 -268 73 -224 223 -359 413 -373 44 -4 107 -1 140 5 72 13 195
52 195 62 0 3 -22 9 -48 13 -113 15 -255 113 -318 222 -28 48 -125 286 -119
292 2 2 73 -5 157 -17 84 -11 200 -25 258 -31 158 -15 588 -32 647 -25 l52 6
35 -76 c94 -203 228 -322 400 -355 53 -10 78 -9 147 4 83 15 214 72 269 116
l25 20 -57 0 c-173 0 -310 77 -424 235 -24 35 -44 65 -44 67 0 3 40 8 89 11
286 21 770 115 1104 215 l98 29 29 -41 c42 -62 150 -159 227 -205 270 -159
525 -101 698 158 66 100 68 109 14 78 -107 -62 -255 -77 -377 -38 -39 13 -121
51 -183 86 -92 52 -110 65 -94 71 256 94 710 314 930 452 l49 31 37 -34 c114
-103 316 -164 499 -152 270 18 435 193 456 483 l7 89 -46 -60 c-78 -102 -161
-155 -287 -181 -61 -13 -110 -14 -257 -8 l-183 7 73 49 c275 190 673 529 855
729 l51 56 78 -39 c100 -49 175 -68 293 -75 277 -16 473 113 533 353 18 71 32
234 20 234 -4 -1 -24 -26 -43 -56 -57 -91 -151 -158 -265 -192 -32 -9 -118
-16 -240 -19 l-190 -5 21 23 c190 214 466 604 624 881 l73 128 41 -8 c65 -11
236 -7 291 7 150 40 268 103 340 182 113 126 136 316 63 522 -12 32 -24 60
-28 62 -4 2 -10 -19 -13 -48 -14 -117 -111 -251 -231 -322 -43 -25 -317 -136
-324 -130 -1 1 20 50 48 109 126 270 267 667 348 980 l38 149 69 18 c38 10
112 39 164 65 123 61 244 176 291 275 67 145 61 282 -21 428 -32 56 -109 160
-120 161 -3 0 -2 -28 4 -62 19 -130 -27 -268 -127 -376 -50 -53 -176 -162
-188 -162 -2 0 6 70 19 155 31 217 52 499 54 712 l2 182 53 17 c137 43 322
192 392 315 111 196 72 398 -114 594 l-57 60 9 -40 c5 -22 9 -87 9 -145 0
-100 -2 -108 -37 -182 -29 -62 -59 -101 -145 -192 -59 -62 -111 -114 -114
-115 -4 0 -9 43 -13 97 -15 215 -66 563 -116 787 -11 50 -20 97 -20 105 1 8
19 26 41 40 66 40 180 169 227 258 119 223 106 418 -38 575 -52 57 -148 124
-226 157 -24 11 -44 18 -44 16 0 -2 16 -27 35 -56 50 -75 70 -148 69 -255 -1
-99 -20 -163 -104 -339 l-43 -89 -57 174 c-78 236 -175 479 -277 690 l-85 176
35 49 c133 186 175 435 100 595 -65 140 -191 232 -384 283 l-47 13 49 -59 c62
-74 85 -120 105 -205 21 -90 8 -233 -31 -342 -3 -7 -40 43 -85 114 -103 164
-247 366 -378 529 -57 72 -106 135 -108 141 -3 7 5 47 16 89 27 97 29 270 5
361 -47 178 -154 289 -327 339 -41 12 -88 16 -179 14 l-124 -3 60 -30 c131
-66 220 -190 250 -349 25 -131 29 -132 -128 20 -149 146 -385 347 -524 449
-77 56 -82 62 -77 89 3 15 6 76 6 135 1 187 -59 350 -168 459 -72 72 -140 106
-244 124 -80 14 -197 1 -291 -30 l-53 -19 70 -21 c134 -41 229 -122 291 -247
33 -67 76 -190 71 -204 -2 -5 -57 24 -123 64 -254 153 -522 288 -800 401 -134
55 -143 62 -144 120 -2 57 -42 189 -83 267 -72 138 -185 229 -319 258 -95 21
-237 -1 -363 -54 l-50 -21 70 -13 c100 -18 202 -72 262 -137 39 -44 142 -216
142 -240 0 -3 -21 2 -47 10 -106 33 -397 105 -538 133 -240 49 -632 101 -757
101 -71 0 -83 7 -102 60 -43 119 -182 282 -298 348 -103 59 -226 76 -338 46z
m522 -601 c9 -10 8 -13 -10 -13 -48 0 -112 -48 -262 -194 -217 -212 -300 -253
-491 -244 l-100 5 28 -30 c41 -43 140 -110 203 -138 77 -33 228 -33 311 -1
214 85 430 342 471 560 l11 61 61 -5 c519 -46 871 -113 1312 -250 91 -28 113
-39 125 -60 7 -15 29 -37 47 -49 l34 -23 -39 5 c-64 8 -130 -11 -292 -87 -277
-130 -404 -141 -586 -51 -33 16 -61 28 -62 27 -2 -2 14 -36 34 -77 43 -84 136
-185 200 -218 105 -53 226 -64 354 -31 246 61 452 228 545 438 2 4 288 -120
414 -180 212 -101 627 -341 717 -415 l28 -22 -50 -1 c-33 0 -109 -20 -228 -60
-211 -70 -308 -87 -393 -70 -88 18 -159 48 -211 87 l-46 35 7 -29 c4 -15 25
-66 48 -112 100 -207 282 -293 524 -250 172 30 361 129 471 247 l41 45 87 -68
c153 -119 276 -223 424 -358 158 -145 341 -339 341 -361 0 -8 12 -28 26 -45
l25 -30 -46 20 c-57 25 -148 26 -315 4 -275 -36 -409 -4 -548 129 l-64 61 6
-45 c31 -206 111 -337 248 -404 171 -83 439 -70 653 34 44 21 99 55 122 74 22
20 44 36 47 36 15 0 262 -326 386 -510 92 -136 230 -375 230 -397 0 -14 5 -34
12 -46 8 -17 2 -14 -27 12 -55 48 -101 66 -260 101 -175 38 -223 54 -308 98
-84 43 -158 122 -203 215 -18 37 -34 64 -37 60 -15 -25 -29 -144 -25 -220 3
-73 10 -100 36 -156 42 -92 117 -164 221 -217 127 -63 219 -84 386 -84 139 0
190 7 269 41 45 20 33 36 127 -162 105 -221 268 -654 304 -806 7 -27 4 -26
-164 46 -94 41 -196 90 -226 110 -108 72 -197 202 -211 306 -4 27 -10 49 -14
49 -8 0 -41 -79 -59 -140 -66 -226 46 -443 289 -562 121 -59 229 -88 358 -95
56 -3 104 -9 106 -12 8 -13 66 -309 86 -439 19 -124 40 -308 55 -494 l7 -78
-99 92 c-237 224 -285 286 -319 419 -12 46 -15 87 -11 147 3 45 4 82 2 82 -14
0 -120 -148 -147 -206 -31 -64 -33 -76 -33 -175 0 -105 0 -106 44 -195 91
-185 314 -359 530 -414 l44 -12 -7 -194 c-7 -225 -21 -412 -41 -569 -22 -171
-58 -385 -64 -385 -4 0 -12 13 -19 30 -8 16 -53 73 -100 126 -180 201 -218
258 -248 375 -18 69 -15 199 5 252 l11 28 -29 -20 c-54 -39 -134 -136 -163
-197 -63 -135 -59 -260 12 -402 77 -153 246 -312 408 -384 l73 -33 -5 -35 c-9
-58 -82 -316 -132 -465 -58 -175 -170 -459 -232 -589 l-47 -99 -62 145 c-84
197 -107 281 -100 378 5 86 26 154 69 224 16 26 28 50 26 51 -2 2 -39 -13 -83
-34 -193 -91 -300 -265 -281 -456 18 -183 108 -367 249 -512 l51 -52 -29 -53
c-123 -228 -343 -553 -544 -802 l-96 -120 -6 145 c-7 169 3 287 32 364 27 72
96 164 154 206 l48 34 -49 3 c-123 8 -270 -45 -352 -127 -97 -97 -144 -229
-143 -407 1 -149 43 -326 99 -411 13 -20 12 -26 -1 -46 -18 -28 -276 -274
-399 -380 -164 -143 -496 -397 -517 -397 -10 0 -2 292 10 370 20 129 98 245
224 337 l30 22 -65 1 c-147 0 -280 -48 -364 -133 -101 -100 -146 -230 -146
-419 0 -116 14 -212 44 -297 9 -24 16 -45 16 -46 0 -1 -51 -32 -112 -67 -258
-149 -479 -256 -772 -374 -87 -35 -161 -64 -163 -64 -2 0 9 17 26 38 16 20 63
102 105 181 82 155 133 226 199 280 59 48 154 90 228 102 35 6 65 12 67 14 7
7 -111 62 -168 79 -77 23 -204 22 -269 -3 -82 -31 -132 -65 -197 -132 -131
-138 -212 -334 -220 -534 l-4 -100 -52 -18 c-232 -79 -694 -173 -1040 -212
-206 -23 -225 -21 -268 19 -19 19 -47 41 -63 49 l-27 14 46 7 c63 8 119 38
271 145 149 104 212 136 315 157 61 13 85 14 147 4 41 -7 92 -18 114 -26 22
-8 41 -14 44 -14 2 0 -9 19 -25 43 -50 72 -140 153 -209 188 -58 30 -77 34
-163 37 -111 5 -173 -9 -280 -63 -122 -61 -238 -162 -321 -279 -59 -84 -89
-160 -96 -248 l-6 -68 -131 0 c-140 0 -401 14 -556 30 -161 16 -409 53 -405
61 3 3 19 9 38 12 18 3 93 30 167 62 176 74 255 95 355 95 93 0 154 -16 242
-65 35 -19 63 -32 63 -28 0 24 -87 177 -123 218 -177 199 -495 191 -792 -20
-70 -50 -165 -147 -189 -193 -9 -18 -24 -32 -34 -32 -32 0 -364 90 -520 141
-193 63 -433 157 -611 238 -105 48 -145 72 -178 106 -41 43 -42 45 -16 38 64
-18 139 -6 310 51 181 59 289 80 363 70 99 -13 189 -49 248 -99 16 -14 33 -25
36 -25 9 0 -42 130 -71 180 -60 102 -156 177 -267 206 -74 20 -207 17 -301 -6
-172 -43 -375 -171 -456 -287 l-36 -52 -109 63 c-249 144 -476 298 -699 475
-204 161 -271 223 -289 265 l-16 40 29 -28 c45 -43 119 -64 297 -86 181 -23
294 -53 364 -98 62 -41 134 -117 168 -180 l29 -53 7 32 c9 48 7 188 -5 238
-47 204 -240 339 -524 366 -145 14 -354 -29 -447 -91 l-47 -32 -114 117 c-187
195 -382 424 -530 623 -37 50 -167 239 -167 242 0 2 17 -5 38 -16 22 -10 108
-32 193 -49 182 -35 265 -60 336 -100 73 -42 148 -122 188 -202 l34 -68 10 38
c31 124 18 266 -35 362 -79 146 -253 243 -487 271 -113 13 -260 0 -342 -31
-27 -10 -52 -15 -56 -11 -14 14 -113 190 -190 337 -87 167 -181 377 -254 564
-47 122 -48 125 -37 183 6 33 8 66 5 74 -10 27 4 14 32 -28 37 -58 61 -76 216
-159 173 -93 235 -136 292 -199 58 -65 93 -135 113 -230 8 -41 17 -76 19 -78
6 -7 74 142 85 190 7 26 10 86 9 135 -3 75 -9 98 -36 153 -57 117 -151 204
-299 278 -182 92 -397 124 -515 77 -20 -8 -31 22 -88 245 -47 184 -83 356
-111 537 -21 141 -50 381 -50 423 0 25 1 25 20 -6 25 -39 74 -73 230 -164 143
-83 156 -92 228 -162 67 -66 118 -167 135 -270 l12 -78 32 53 c139 233 92 473
-126 641 -130 101 -311 173 -458 183 l-82 6 -7 46 c-10 69 4 585 20 756 9 83
23 206 33 275 15 113 18 121 24 83 12 -65 39 -119 127 -249 95 -143 135 -220
156 -301 27 -102 18 -199 -27 -306 l-16 -38 41 23 c23 13 72 52 109 88 113
111 161 239 139 377 -23 146 -99 287 -225 416 -71 73 -197 161 -245 172 -16 4
-32 10 -34 14 -6 9 44 236 90 410 33 126 156 508 173 540 10 16 86 -192 108
-294 31 -145 -5 -307 -90 -402 -27 -30 -18 -36 29 -19 141 49 258 144 307 247
14 31 31 88 37 127 28 180 -62 441 -207 602 l-54 60 89 182 c102 208 224 422
340 599 l79 121 6 -63 c28 -265 -18 -428 -158 -556 l-60 -56 77 7 c245 21 394
151 444 388 30 140 2 350 -67 500 l-32 68 79 96 c43 54 117 140 163 193 128
145 477 490 484 480 9 -14 -14 -363 -27 -412 -33 -122 -118 -238 -216 -295
l-45 -27 84 -3 c149 -5 272 38 359 125 91 92 138 215 148 388 8 119 -6 216
-45 335 -16 47 -26 87 -22 90 4 3 61 46 126 96 66 50 176 128 245 174 128 86
379 240 390 240 13 0 -81 -324 -112 -390 -53 -110 -181 -220 -296 -255 -31 -9
-27 -11 43 -30 87 -22 226 -21 297 4 160 55 276 206 329 426 22 94 29 245 15
341 l-7 50 138 63 c372 171 871 342 995 341 l53 -1 -43 -22 c-63 -34 -116 -89
-200 -212 -169 -245 -301 -334 -497 -335 l-70 0 30 -25 c53 -44 187 -105 258
-118 137 -23 277 26 397 139 152 144 248 340 257 531 l6 101 136 26 c385 73
726 105 1088 102 131 -1 186 -5 195 -13z"/>
<path d="M6777 11384 c-15 -30 -22 -35 -41 -30 -12 3 -55 9 -94 12 l-72 7 6
-34 c4 -19 7 -38 8 -42 0 -5 -33 -18 -74 -31 -41 -12 -87 -30 -102 -39 -36
-25 -58 -75 -58 -136 0 -49 12 -67 24 -36 4 11 20 15 56 15 l50 0 0 -39 c0
-68 49 -79 104 -25 15 16 30 23 34 18 5 -5 32 -37 60 -70 l52 -62 0 -93 c1
-52 7 -128 14 -169 12 -66 12 -76 -1 -87 -9 -7 -13 -19 -10 -28 5 -11 0 -15
-18 -15 -13 0 -30 -6 -37 -14 -8 -7 -30 -17 -49 -21 -19 -4 -38 -11 -44 -15
-5 -4 -23 -10 -38 -14 -15 -4 -30 -13 -33 -20 -4 -10 -16 -11 -55 -3 -63 12
-80 0 -55 -39 18 -26 18 -26 -18 -56 -43 -35 -46 -55 -10 -69 25 -9 26 -11 10
-28 -18 -20 -21 -51 -5 -51 6 0 -3 -16 -20 -35 -17 -20 -31 -42 -31 -50 0 -20
69 -20 96 0 10 8 25 15 32 15 7 0 46 15 86 33 66 31 74 33 94 19 19 -13 22
-23 22 -88 0 -119 -29 -183 -166 -358 -25 -33 -57 -82 -70 -108 -13 -26 -28
-48 -32 -48 -5 0 -35 54 -67 120 l-58 121 -19 167 c-17 141 -18 187 -10 298
10 129 11 133 53 207 43 74 44 75 79 70 19 -3 47 -14 62 -24 37 -26 45 -24 59
16 15 42 31 44 76 9 30 -23 37 -25 49 -12 12 12 12 26 2 93 l-12 78 31 26 c18
15 29 31 25 37 -9 15 -97 59 -149 74 -42 13 -42 13 -48 69 -11 92 -2 88 -119
65 -27 -6 -28 -5 -22 21 21 84 23 80 -41 103 -32 11 -70 24 -85 27 -27 7 -28
10 -28 71 l0 64 -62 0 -63 -1 -51 57 -50 56 -59 -33 -58 -33 -66 17 c-36 10
-71 17 -77 17 -6 0 -18 -16 -27 -36 l-17 -36 -93 4 -92 3 -3 -38 c-3 -33 -9
-42 -49 -65 -83 -50 -80 -46 -60 -81 21 -36 17 -46 -21 -54 -15 -3 -40 -15
-55 -27 -23 -19 -27 -29 -27 -75 0 -36 -4 -55 -14 -58 -7 -3 -28 -28 -46 -55
l-32 -50 -46 19 c-26 10 -58 20 -72 23 -24 5 -25 8 -22 66 l4 60 -32 0 c-17 0
-40 4 -50 10 -10 5 -49 11 -87 12 l-68 3 -12 35 c-15 47 -45 43 -102 -15 -53
-54 -101 -71 -142 -50 -41 22 -44 20 -68 -36 -20 -50 -22 -51 -57 -47 -31 4
-35 2 -30 -15 4 -16 0 -18 -33 -12 -20 3 -49 1 -64 -4 -27 -11 -27 -11 -12
-42 25 -47 17 -70 -31 -84 -58 -17 -67 -24 -54 -40 8 -10 5 -14 -13 -19 -13
-3 -36 -15 -51 -27 -25 -20 -26 -23 -11 -39 14 -16 14 -20 -7 -53 -14 -22 -34
-37 -51 -41 -33 -7 -32 -28 3 -36 20 -5 21 -7 6 -19 -20 -17 -12 -31 20 -31
29 0 29 -7 5 -85 -10 -33 -22 -80 -25 -105 l-7 -45 37 40 36 40 -20 -37 -21
-37 62 23 c96 37 97 37 98 50 1 6 4 -2 8 -19 l6 -30 35 57 c37 62 45 66 76 43
25 -19 34 -19 34 1 0 12 6 15 23 10 12 -3 27 -6 34 -6 6 0 30 -35 53 -77 22
-42 55 -94 71 -115 40 -50 32 -60 -41 -52 -82 9 -106 1 -121 -41 -14 -37 -12
-36 -132 -66 -26 -6 -50 -15 -52 -20 -3 -4 6 -31 20 -60 14 -29 24 -53 22 -55
-1 -1 -21 -11 -43 -22 l-42 -21 -6 22 c-3 12 -6 36 -6 52 -1 54 -26 102 -90
174 -78 87 -120 106 -235 105 -52 -1 -101 -9 -140 -22 -33 -12 -86 -24 -117
-28 -50 -5 -60 -10 -77 -38 -11 -17 -28 -41 -37 -53 -28 -38 -35 -92 -40 -288
-5 -217 3 -273 53 -398 19 -49 33 -90 31 -91 -1 -1 -218 -105 -480 -231 l-477
-228 -41 37 c-48 43 -79 46 -135 11 -22 -13 -52 -25 -67 -25 -15 0 -42 -13
-60 -28 -18 -16 -40 -31 -50 -35 -9 -3 -33 -31 -53 -62 -32 -47 -37 -62 -32
-94 5 -37 3 -39 -56 -82 -33 -24 -91 -75 -129 -113 -111 -111 -153 -204 -128
-281 10 -30 14 -33 30 -25 10 6 28 10 39 10 17 0 21 -6 21 -33 0 -18 -7 -42
-15 -53 -41 -54 14 -116 74 -84 10 5 48 51 84 102 75 105 213 268 227 268 5 0
21 -17 34 -37 17 -27 32 -79 51 -177 54 -289 139 -468 239 -507 17 -7 50 -31
74 -53 40 -38 47 -41 101 -41 67 0 93 17 117 74 8 19 73 92 148 165 73 72 136
141 140 154 4 12 11 22 15 22 4 0 18 -44 31 -97 26 -115 39 -293 21 -293 -29
0 -71 -184 -45 -194 10 -4 2 -29 -28 -93 -91 -198 -139 -390 -158 -633 -15
-207 -33 -955 -26 -1115 6 -133 4 -166 -18 -295 -79 -457 -98 -572 -121 -735
-14 -99 -29 -213 -33 -254 l-7 -75 -44 55 c-67 82 -134 149 -148 149 -24 0
-32 -46 -26 -156 l6 -109 -129 0 c-71 -1 -138 -4 -148 -8 -18 -7 -18 -9 7 -35
24 -25 117 -207 117 -229 0 -6 -19 -11 -43 -11 -24 -1 -66 -11 -93 -23 l-49
-22 44 -8 c24 -5 60 -18 80 -30 43 -25 120 -82 121 -89 0 -3 -13 -11 -28 -18
-30 -13 -52 -48 -52 -84 0 -18 4 -19 35 -14 38 7 162 -11 171 -25 3 -5 -2 -9
-10 -9 -24 0 -66 -22 -66 -35 0 -18 161 -56 261 -62 l86 -6 -8 -36 c-13 -54
-13 -54 44 -48 59 7 170 48 276 101 l71 36 0 -45 c0 -61 18 -59 84 11 48 50
54 53 59 34 5 -18 9 -20 27 -10 11 6 41 39 66 73 25 34 48 64 49 66 2 2 14
-17 26 -43 l23 -46 19 21 c19 20 91 57 145 73 18 6 22 4 22 -15 0 -35 22 -99
35 -99 6 0 37 15 68 34 52 32 57 33 62 15 4 -10 16 -24 27 -30 22 -12 24 -12
238 21 l135 20 159 -37 158 -37 -24 -21 c-69 -59 -58 -85 36 -85 59 0 171 14
225 27 l26 6 -20 -23 -20 -23 127 6 c127 5 127 5 143 -20 22 -32 65 -49 147
-58 71 -8 78 -14 78 -77 0 -33 4 -34 33 -8 38 36 66 23 123 -57 51 -70 52 -72
69 -53 27 30 108 28 129 -2 9 -12 16 -32 16 -45 0 -41 33 -40 179 7 37 11 73
17 95 13 20 -3 54 1 82 11 26 9 51 13 54 9 49 -61 60 -84 50 -102 -25 -49 47
-23 116 41 44 41 50 43 103 41 32 -1 97 -11 145 -22 48 -12 91 -21 96 -21 4 0
11 18 15 40 4 22 11 37 17 34 5 -3 54 -9 109 -13 l100 -6 -5 22 c-4 13 -9 34
-12 47 -9 37 19 47 97 36 35 -5 88 -16 117 -23 29 -8 54 -11 56 -8 1 3 9 27
16 54 l13 47 63 0 63 0 41 59 41 58 37 -12 c20 -7 61 -16 90 -20 l52 -7 0 29
c0 16 2 32 5 35 3 3 38 -7 78 -22 40 -15 86 -31 104 -35 l32 -6 -16 40 c-9 23
-14 43 -11 46 3 3 65 -8 138 -25 72 -16 136 -30 141 -30 5 0 9 18 9 39 0 22 5
52 10 66 9 23 14 26 38 20 15 -3 45 -20 66 -37 38 -31 40 -31 52 -12 42 62 31
62 136 5 52 -28 99 -51 104 -51 6 0 23 22 39 50 17 27 33 50 38 50 12 0 127
-74 127 -82 0 -5 -11 -8 -24 -8 -70 0 -307 -89 -464 -174 l-83 -45 -47 33
c-65 46 -163 96 -188 96 -35 0 -296 -105 -444 -180 -96 -48 -224 -126 -258
-158 -36 -34 -60 -129 -66 -259 l-4 -87 -48 -13 c-27 -7 -112 -23 -189 -35
-121 -19 -182 -22 -455 -22 -330 -1 -425 6 -623 47 l-107 22 -5 105 c-4 108
-25 202 -53 233 -61 69 -513 295 -676 339 -46 12 -49 12 -120 -25 -40 -21 -91
-51 -112 -67 l-39 -29 -90 49 c-128 69 -267 124 -392 157 -94 24 -127 28 -253
28 -134 0 -151 -2 -225 -28 -136 -48 -241 -123 -325 -232 l-43 -56 33 -82
c105 -260 257 -565 308 -621 15 -16 52 -40 82 -55 52 -24 64 -25 210 -26 197
0 369 32 627 116 l91 30 56 -36 c31 -20 56 -38 56 -41 0 -2 -11 -22 -25 -43
-45 -67 -67 -140 -72 -236 -7 -121 6 -165 68 -230 78 -83 117 -95 504 -164
334 -60 340 -60 375 -43 54 26 85 91 83 172 -1 36 -9 85 -17 109 l-16 43 25
-6 c55 -14 265 -46 364 -56 252 -25 667 -7 884 39 48 10 87 17 87 16 0 -1 -7
-22 -15 -45 -39 -112 1 -249 82 -281 25 -9 655 98 731 125 65 23 141 82 176
137 56 89 31 305 -49 424 -14 20 -25 37 -25 39 0 2 25 20 56 40 l55 37 92 -30
c247 -80 426 -114 617 -115 165 -1 203 6 271 51 60 39 177 259 313 587 53 127
57 141 45 164 -22 42 -114 136 -169 173 -27 19 -50 37 -50 41 0 4 13 14 29 22
26 14 30 14 46 -4 37 -41 147 -81 290 -105 32 -5 38 -4 28 6 -16 16 -17 51 -2
66 8 8 31 3 82 -17 123 -47 113 -48 131 12 23 76 26 79 66 68 19 -6 60 -10 90
-10 l55 1 -27 20 c-22 16 -28 29 -28 58 0 35 3 38 54 63 58 29 120 79 137 110
14 27 -4 46 -50 54 -82 13 -89 22 -40 51 40 24 66 67 74 125 5 29 16 55 31 69
13 12 21 26 18 31 -3 4 -41 5 -84 2 -75 -6 -78 -6 -91 17 -7 13 -12 41 -10 61
6 106 -67 629 -151 1083 l-40 220 1 280 c2 304 -13 862 -30 1070 -17 222 -61
398 -151 603 -31 70 -38 96 -29 101 25 16 -21 191 -51 191 -24 0 10 276 47
378 3 9 23 -9 51 -47 25 -33 82 -92 127 -132 78 -68 110 -107 149 -178 38 -69
126 -68 212 3 31 25 63 46 70 46 23 0 93 86 130 158 41 81 76 201 107 362 26
136 66 215 103 204 62 -18 81 -39 132 -145 55 -113 145 -224 191 -235 60 -16
108 46 101 128 l-5 48 31 -5 c37 -7 84 8 92 30 10 25 -4 61 -45 113 -50 63
-94 90 -167 102 -61 11 -254 87 -254 101 0 4 5 11 10 14 31 19 -14 131 -65
159 -11 6 -35 23 -53 39 -18 15 -45 27 -60 27 -15 0 -45 12 -67 25 -51 32 -86
31 -125 -1 -27 -23 -33 -25 -48 -12 -9 8 -30 19 -45 26 -36 15 -899 482 -910
491 -4 4 21 63 55 130 l63 121 -1 128 c-2 137 -9 231 -26 330 -10 58 -16 69
-62 113 -28 28 -62 56 -76 63 -69 36 -243 44 -365 16 -41 -9 -66 -4 -27 7 12
3 22 7 22 8 0 2 -23 27 -51 56 l-51 53 46 40 45 41 -58 38 c-32 20 -63 37 -69
37 -6 0 -26 30 -44 67 -18 37 -52 87 -75 111 l-41 44 30 12 29 13 -38 32 c-21
17 -44 36 -51 42 -26 21 -83 39 -125 39 -40 0 -46 3 -57 29 -6 16 -19 36 -29
45 -15 14 -20 14 -46 0 -22 -11 -35 -13 -53 -5 -33 16 -92 14 -92 -2 0 -9 -10
-12 -30 -9 -27 4 -30 8 -30 39 0 32 -24 93 -36 93 -3 0 -20 -11 -39 -25 -24
-19 -34 -22 -38 -13 -3 9 -18 0 -45 -26 l-41 -39 -11 27 c-5 15 -10 36 -10 47
0 26 -14 24 -28 -3 -10 -22 -11 -21 -11 10 -1 17 -5 32 -9 32 -13 0 -47 -40
-81 -95 -60 -97 -66 -105 -75 -102 -5 2 -16 30 -23 62 -7 32 -18 64 -25 72
-15 18 -10 21 58 34 32 6 60 12 62 14 2 1 -17 34 -42 73 -38 58 -45 76 -40
101 14 66 -70 115 -269 156 -24 5 -27 8 -17 20 29 35 -10 52 -158 70 -46 6
-52 10 -47 26 3 10 8 28 11 39 5 18 1 20 -54 20 -32 0 -83 -5 -114 -11 -52
-11 -57 -10 -110 20 -30 17 -59 31 -64 31 -6 0 -18 -16 -27 -36z m205 -553
c31 -36 38 -40 38 -23 0 25 25 52 49 52 10 0 23 -11 29 -25 11 -23 8 -27 -31
-56 -55 -40 -151 -89 -176 -89 -57 0 -83 44 -83 138 0 35 3 67 7 70 4 4 23 12
43 18 41 13 34 17 124 -85z m516 -31 c22 0 52 -77 52 -135 0 -48 -2 -55 -20
-55 -11 0 -20 -4 -20 -10 0 -5 -18 -10 -40 -10 -38 0 -40 -2 -30 -20 8 -15 8
-20 -2 -20 -21 0 -58 29 -58 45 0 8 -9 19 -19 25 -24 12 -78 13 -85 1 -9 -14
-64 -21 -89 -12 -12 5 -43 15 -69 22 -35 10 -48 18 -48 31 0 10 -4 18 -9 18
-13 0 -43 -69 -37 -85 8 -21 -15 -31 -28 -12 -11 14 -14 13 -36 -4 -35 -26
-40 -24 -40 16 0 19 4 35 10 35 30 0 229 109 238 131 1 3 19 0 40 -7 62 -22
72 -19 65 20 -3 19 -1 36 6 40 6 4 41 -11 78 -34 l68 -41 12 28 c7 15 12 37
13 47 0 18 1 18 18 3 10 -10 24 -17 30 -17z m-1533 -104 c27 -14 30 -14 36 2
5 14 9 10 23 -16 16 -32 18 -33 31 -15 13 17 14 16 20 -9 l7 -28 27 18 c14 10
31 21 36 24 16 10 12 -401 -4 -432 -21 -40 -53 -70 -73 -70 -50 0 -187 131
-236 224 -24 47 -27 63 -30 189 -4 133 -3 139 15 133 13 -4 27 2 43 19 l24 25
25 -24 c14 -14 39 -32 56 -40z m-755 44 c0 -5 -4 -10 -10 -10 -5 0 -10 5 -10
10 0 6 5 10 10 10 6 0 10 -4 10 -10z m3 -40 c12 -18 11 -26 -11 -71 -23 -47
-24 -52 -9 -61 9 -5 17 -18 17 -30 0 -19 1 -20 25 -4 20 13 28 14 44 4 16 -10
23 -9 39 5 11 10 26 15 36 11 9 -3 27 1 41 10 15 10 26 12 30 5 4 -5 14 -7 24
-4 22 7 197 -50 239 -78 33 -22 94 -104 111 -151 21 -55 95 -158 148 -206 40
-37 71 -55 114 -68 l59 -17 0 -56 c0 -90 28 -224 66 -322 20 -51 49 -125 64
-165 l28 -73 -81 -92 c-97 -111 -122 -129 -163 -123 -35 5 -206 117 -235 154
-13 16 -19 40 -19 71 0 46 14 118 24 128 3 3 26 -6 52 -21 25 -14 52 -26 59
-26 8 0 21 20 31 45 9 25 18 45 19 45 1 0 35 -14 76 -30 40 -17 76 -29 80 -28
4 2 -9 38 -28 81 l-36 78 28 29 c30 32 28 60 -5 60 l-20 0 20 40 20 40 -25 0
c-15 0 -24 4 -21 9 3 5 -14 17 -39 28 -25 10 -45 22 -45 26 0 4 9 25 20 47 11
22 20 44 20 49 0 11 -88 40 -180 60 -88 20 -87 19 -56 44 l28 23 -27 27 c-26
26 -33 27 -122 27 l-93 0 -45 41 -44 41 -48 -35 c-38 -27 -53 -33 -70 -26 -16
6 -37 2 -69 -11 l-46 -20 -45 50 -45 50 -63 -81 c-35 -45 -66 -86 -68 -92 -2
-7 -23 5 -48 26 -24 21 -57 41 -72 44 -27 5 -28 8 -22 42 14 78 39 141 55 135
32 -12 35 -8 36 46 1 54 1 55 36 64 48 12 85 1 102 -31 l14 -27 16 32 c9 17
16 38 16 47 0 31 -30 73 -67 96 -21 12 -40 24 -43 27 -11 8 35 32 63 32 26 0
29 3 23 25 -6 24 -4 25 33 25 29 0 44 -6 54 -20z m508 -50 c10 0 12 -30 3 -54
-11 -29 -134 -12 -134 19 0 20 23 33 45 24 33 -13 41 -10 55 19 11 22 14 24
17 10 3 -10 9 -18 14 -18z m569 -69 c0 -13 -40 -61 -51 -61 -6 0 -7 9 -3 22
10 32 54 64 54 39z m-1519 -194 c32 -21 34 -26 37 -87 1 -36 -3 -87 -10 -114
l-13 -49 -52 -2 c-29 -1 -58 -7 -66 -13 -10 -9 -22 2 -55 51 -23 34 -42 66
-42 71 0 4 11 21 24 36 16 20 27 25 34 18 7 -7 14 3 22 33 6 24 13 52 16 62 8
25 64 22 105 -6z m2017 -310 l22 -23 -28 -20 c-52 -39 -52 -39 -52 15 0 43 3
51 18 51 10 0 28 -10 40 -23z m92 -77 c14 -11 31 -20 37 -20 7 0 18 -20 24
-45 9 -34 16 -45 30 -45 18 0 19 -5 13 -67 l-7 -68 40 38 39 37 41 -35 c23
-20 48 -33 56 -29 18 7 30 -46 17 -80 -17 -45 -89 -87 -114 -67 -14 12 -175
31 -180 22 -2 -3 -8 -22 -15 -41 l-11 -35 -120 4 -120 3 -75 -71 c-111 -105
-123 -96 -46 33 93 154 340 487 361 486 3 0 16 -9 30 -20z m1230 -84 c28 -26
50 -49 48 -50 -61 -39 -56 -39 -82 1 -26 41 -45 108 -28 102 5 -2 33 -26 62
-53z m290 -143 c0 -21 17 -15 55 18 34 30 36 31 60 15 13 -9 40 -31 59 -50 25
-25 37 -31 45 -23 8 8 11 -6 11 -53 0 -36 5 -83 11 -105 5 -22 12 -51 15 -64
3 -14 8 -29 11 -35 4 -5 -22 6 -58 26 -35 19 -154 84 -264 143 -110 59 -202
109 -203 111 -2 1 32 23 75 47 43 25 83 50 88 55 11 12 95 -64 95 -85z m-904
-77 c-3 -16 -6 -71 -6 -122 l0 -94 -34 0 c-64 0 -69 8 -34 51 22 28 29 42 21
50 -15 15 -79 28 -135 29 -63 0 -77 25 -72 129 5 110 12 112 152 42 110 -55
113 -57 108 -85z m189 -58 c47 -23 85 -46 85 -50 0 -23 -85 -98 -127 -112 -74
-25 -73 -26 -73 68 0 76 11 136 25 136 2 0 43 -19 90 -42z m-2067 -50 l33 -23
-3 -72 c-4 -82 -19 -107 -77 -123 -47 -13 -286 -13 -333 0 -38 11 -98 54 -98
71 0 6 19 18 43 29 40 17 43 17 57 1 9 -10 22 -20 30 -23 21 -8 63 16 94 53
27 31 28 32 67 19 46 -16 54 -10 65 47 9 47 67 57 122 21z m2669 -244 l423
-207 -1 -36 c-1 -102 -45 -143 -218 -206 -68 -24 -135 -52 -147 -60 -34 -22
-44 -19 -44 18 0 28 5 34 40 49 30 12 45 26 56 55 24 57 6 81 -74 103 -90 25
-154 88 -132 130 6 11 8 36 4 55 -6 32 -9 35 -41 35 -55 0 -126 21 -114 33 19
19 13 24 -54 52 -36 16 -65 31 -65 34 0 4 7 17 16 29 l15 22 -60 0 c-53 0 -62
3 -77 25 -15 23 -15 25 13 49 15 14 30 26 32 26 3 0 195 -93 428 -206z m-3800
-21 c13 -46 17 -97 18 -245 l0 -188 41 0 c57 0 215 42 296 78 92 42 201 116
278 188 l64 61 -29 17 -30 17 30 -6 c144 -31 233 -32 368 -4 124 26 206 22
268 -12 31 -17 69 -59 137 -148 51 -68 92 -124 90 -125 -2 0 -13 -7 -25 -13
-20 -11 -24 -10 -34 8 -6 11 -26 27 -46 35 -30 13 -38 13 -57 1 -19 -13 -26
-13 -56 4 -46 24 -70 24 -70 0 0 -19 -3 -19 -77 5 -43 13 -80 24 -82 24 -2 0
0 -11 3 -24 l6 -24 -72 19 c-40 10 -74 16 -76 14 -2 -2 2 -13 8 -25 6 -12 10
-24 7 -26 -2 -2 -25 0 -51 5 -38 7 -48 6 -52 -5 -2 -8 -6 -20 -8 -27 -2 -7
-36 -18 -80 -26 -68 -11 -76 -15 -71 -31 6 -19 4 -19 -29 -5 -46 20 -44 21
-48 -22 -3 -35 -6 -39 -53 -56 -62 -23 -64 -25 -41 -43 24 -17 27 -14 -60 -57
-85 -43 -102 -60 -83 -83 12 -15 10 -16 -16 -11 -17 3 -48 8 -70 12 l-40 6 39
-32 39 -33 -69 -63 c-77 -71 -77 -61 1 -118 l28 -21 -26 -39 c-15 -22 -27 -43
-27 -46 0 -4 32 -13 71 -20 71 -13 72 -13 105 -65 33 -52 34 -52 71 -43 70 16
72 15 75 -46 l3 -55 89 70 c49 38 91 70 93 70 1 0 26 -18 55 -40 80 -61 98
-53 98 41 0 48 1 49 30 49 29 0 30 1 30 47 0 44 1 45 18 30 10 -10 21 -17 24
-17 3 0 22 25 42 56 l38 56 49 -68 c27 -38 53 -70 57 -71 4 -2 23 36 42 82 19
47 37 85 39 85 34 0 387 -378 417 -447 17 -39 18 -139 3 -234 l-12 -69 -373 0
-374 0 -16 25 c-21 31 -174 107 -260 129 -34 9 -84 16 -110 16 -67 0 -289 -36
-343 -54 -24 -9 -45 -16 -47 -16 -1 0 -3 50 -3 111 -1 133 -14 213 -49 294
-26 59 -26 64 -27 292 l0 231 -31 39 c-42 52 -97 81 -208 108 -180 44 -266
134 -266 277 0 38 4 50 23 62 33 21 371 196 379 196 4 0 15 -26 25 -57z m1888
-268 c26 -255 38 -457 38 -675 1 -182 -1 -223 -16 -267 -29 -84 -59 -78 -111
21 -31 59 -34 140 -11 263 8 43 15 94 15 114 0 20 9 56 20 80 11 24 20 54 20
66 0 16 8 25 25 29 14 3 25 9 25 12 0 4 -29 36 -64 72 -57 59 -66 73 -89 150
-42 139 -41 182 8 242 19 24 47 68 62 98 l26 55 19 -60 c10 -33 25 -123 33
-200z m809 -46 c6 -36 5 -37 -61 -81 -154 -103 -217 -111 -182 -25 14 34 107
147 122 147 4 0 25 -11 45 -25 47 -32 52 -32 52 7 0 40 15 26 24 -23z m-482
-6 c14 -16 32 -39 41 -52 l15 -23 23 43 22 44 17 -38 c35 -79 -8 -166 -119
-242 -86 -59 -96 -55 -105 48 -6 62 -3 82 18 146 25 71 41 101 55 101 4 0 19
-12 33 -27z m782 -144 l55 -62 34 26 34 26 59 -49 c32 -26 61 -47 65 -44 4 2
9 18 13 35 l6 31 41 -34 c23 -18 54 -43 70 -56 l29 -23 0 33 c0 19 6 43 14 54
14 19 15 19 43 -2 15 -12 55 -53 88 -92 63 -74 75 -83 75 -54 0 9 9 32 20 50
19 31 21 32 44 17 24 -16 24 -17 8 -53 -20 -48 -20 -158 2 -277 23 -127 21
-202 -8 -277 -33 -89 -39 -144 -25 -243 6 -47 9 -88 7 -90 -2 -2 -23 3 -47 11
-53 18 -278 54 -341 54 -101 0 -292 -71 -354 -132 l-38 -38 -404 0 c-222 0
-404 1 -404 3 0 1 9 94 20 207 11 113 20 231 20 263 0 63 10 78 74 113 37 20
46 10 53 -59 l6 -55 46 28 c25 16 73 56 106 89 l59 61 28 -27 c15 -15 28 -32
28 -38 0 -6 21 -54 47 -106 l46 -94 7 38 c13 69 22 66 123 -52 l96 -111 7 49
c3 26 10 54 14 61 14 22 49 0 92 -57 l42 -55 38 76 c21 42 42 76 46 76 4 0 32
-7 62 -15 30 -8 69 -15 87 -15 34 0 36 4 49 73 l6 38 28 -33 c23 -27 31 -31
42 -20 19 19 13 88 -12 157 -12 33 -30 98 -39 145 l-16 85 -70 10 -69 10 -8
40 c-13 63 -16 69 -32 56 -8 -6 -43 -14 -79 -18 l-65 -6 -7 42 c-6 38 -9 41
-37 41 -18 0 -45 11 -64 25 -40 30 -41 30 -63 3 -21 -26 -27 -23 -69 35 l-32
45 113 70 c61 39 117 71 124 71 6 1 36 -27 67 -60z m-314 -94 c0 -12 -35 -75
-42 -75 -7 0 -28 33 -28 44 0 6 51 35 63 36 4 0 7 -2 7 -5z m-4274 -211 c-13
-35 -17 -122 -8 -174 l10 -54 -42 -47 c-23 -26 -56 -75 -71 -108 -16 -34 -35
-61 -42 -61 -23 0 -83 69 -83 96 0 14 14 56 30 94 17 38 30 73 30 79 0 5 5 33
11 60 10 49 13 52 82 90 80 45 92 48 83 25z m7097 -40 l74 -37 12 -62 c6 -35
22 -88 36 -119 39 -88 31 -129 -34 -175 l-28 -20 -36 72 c-20 40 -51 87 -69
106 l-33 34 0 118 c0 66 1 119 2 119 2 0 36 -16 76 -36z m-3898 -68 c13 18 14
16 15 -25 0 -32 -7 -53 -26 -78 -14 -18 -28 -33 -32 -33 -4 0 -36 34 -71 76
-37 45 -54 71 -41 64 20 -10 26 -9 48 14 l26 26 33 -32 c32 -31 33 -31 48 -12z
m-1730 -986 c52 -105 94 -156 135 -165 32 -7 89 14 118 43 l21 21 4 -982 c4
-1035 4 -1035 52 -1296 21 -112 76 -322 115 -436 l30 -89 -77 -78 c-47 -47
-80 -73 -84 -66 -4 6 -13 44 -20 84 -7 41 -15 74 -18 74 -8 -1 -95 -149 -111
-187 -7 -18 -15 -33 -19 -33 -11 0 -74 810 -82 1065 -4 137 -15 317 -23 400
-8 82 -20 224 -26 315 -35 527 -72 961 -86 1010 -8 30 -15 63 -14 73 2 28 1
75 -2 207 -1 69 1 143 6 165 l8 40 13 -35 c7 -19 34 -78 60 -130z m4159 -118
c-9 -54 -10 -91 -4 -107 6 -17 5 -37 -6 -67 -19 -55 -26 -127 -74 -793 -22
-302 -45 -590 -50 -640 -5 -49 -14 -211 -19 -360 -6 -148 -26 -454 -46 -680
-19 -225 -35 -415 -35 -421 0 -7 -29 -22 -65 -34 l-65 -22 -118 123 -118 123
39 100 c75 193 137 443 174 699 14 95 17 258 20 1105 l4 992 37 -29 c72 -58
131 -50 182 25 31 44 111 202 125 245 5 17 11 -3 19 -76 10 -80 10 -116 0
-183z m-4695 -1476 c40 -98 81 -217 92 -263 19 -81 19 -90 5 -221 -25 -221
-36 -500 -36 -914 l0 -387 -22 -16 c-23 -15 -23 -15 -28 32 -6 53 -19 77 -67
117 -18 15 -33 33 -33 39 0 6 11 38 25 72 32 80 43 145 24 145 -8 0 -40 -33
-71 -73 -32 -39 -71 -87 -86 -106 l-29 -34 -23 64 c-13 35 -27 75 -32 89 l-10
25 -15 -28 c-8 -16 -16 -27 -18 -25 -7 7 24 915 34 1030 9 94 22 142 102 385
50 153 94 282 97 288 3 5 9 -2 13 -15 3 -14 39 -106 78 -204z m5324 -44 c47
-141 92 -293 101 -337 10 -56 20 -230 31 -570 8 -269 18 -546 22 -614 5 -96 3
-122 -6 -117 -24 15 -60 -5 -87 -48 l-28 -44 -18 29 c-18 30 -109 79 -170 93
l-27 6 6 -66 c4 -39 2 -65 -3 -63 -5 3 -21 11 -36 18 l-28 14 0 398 c0 405
-10 657 -35 877 -14 120 -14 125 10 216 23 93 164 465 176 466 4 0 45 -116 92
-258z m-354 -2522 c9 -5 1 -9 -22 -12 -23 -2 -38 1 -41 8 -10 25 20 27 63 4z
m225 -20 c7 -7 -1 -8 -24 -4 -19 4 -39 11 -45 17 -7 6 2 7 25 3 19 -3 39 -11
44 -16z"/>
</g>
</svg>
