<?xml version="1.0" standalone="no"?>
<!DOCTYPE svg PUBLIC "-//W3C//DTD SVG 20010904//EN"
 "http://www.w3.org/TR/2001/REC-SVG-20010904/DTD/svg10.dtd">
<svg version="1.0" xmlns="http://www.w3.org/2000/svg"
 width="1280.000000pt" height="1280.000000pt" viewBox="0 0 1280.000000 1280.000000"
 preserveAspectRatio="xMidYMid meet">
<metadata>
Created by potrace 1.15, written by Peter Selinger 2001-2017
</metadata>
<g transform="translate(0.000000,1280.000000) scale(0.100000,-0.100000)"
fill="#000000" stroke="none">
<path d="M6025 12789 c-1137 -70 -2205 -425 -3147 -1045 -1431 -943 -2431
-2432 -2757 -4107 -295 -1509 -42 -3068 712 -4394 854 -1501 2272 -2592 3942
-3033 1086 -287 2282 -276 3359 30 918 261 1722 694 2456 1324 135 116 530
511 646 646 699 814 1174 1751 1403 2767 389 1724 58 3517 -918 4978 -1195
1788 -3210 2858 -5353 2844 -117 -1 -271 -5 -343 -10z m765 -179 c538 -37
1001 -124 1490 -278 782 -248 1518 -656 2160 -1201 157 -133 449 -418 589
-576 408 -457 700 -892 967 -1440 333 -683 521 -1357 601 -2155 25 -248 25
-872 0 -1120 -135 -1344 -631 -2508 -1501 -3520 -116 -135 -481 -500 -616
-616 -407 -349 -817 -625 -1281 -859 -701 -354 -1416 -559 -2239 -642 -248
-25 -872 -25 -1120 0 -794 80 -1470 268 -2148 598 -494 240 -919 517 -1338
873 -179 152 -565 541 -715 721 -796 957 -1282 2082 -1419 3284 -55 489 -52
1071 10 1533 151 1134 603 2191 1315 3078 276 345 639 706 985 982 957 763
2154 1237 3355 1328 77 6 158 12 180 13 100 8 594 6 725 -3z"/>
<path d="M3376 11325 c-83 -83 -126 -245 -64 -245 33 0 103 80 127 146 44 116
9 171 -63 99z"/>
<path d="M6397 11310 c-56 -14 -87 -33 -135 -81 -115 -117 -105 -316 21 -425
142 -121 368 -64 444 113 25 58 23 167 -5 228 -57 125 -198 196 -325 165z"/>
<path d="M2916 11104 c-60 -232 -233 -719 -307 -866 -11 -21 -19 -40 -19 -43
0 -3 26 25 58 62 71 82 182 188 279 266 40 32 74 66 77 75 36 118 37 297 2
432 -13 52 -33 115 -43 139 l-19 44 -28 -109z"/>
<path d="M2816 11117 c-674 -548 -912 -1176 -711 -1871 13 -46 40 -119 59
-162 l35 -79 1 55 c1 310 86 634 234 897 29 50 73 160 117 290 121 357 268
733 345 886 14 27 24 52 22 57 -2 4 -47 -29 -102 -73z"/>
<path d="M8446 11083 c45 -312 420 -754 1014 -1197 138 -104 530 -371 530
-362 0 16 -70 178 -125 291 -316 647 -787 1112 -1299 1285 -125 42 -129 41
-120 -17z"/>
<path d="M3237 11008 c-14 -24 -64 -117 -111 -207 -65 -121 -84 -166 -75 -172
17 -10 16 -11 132 208 105 198 108 203 90 210 -6 2 -23 -15 -36 -39z"/>
<path d="M3610 10860 c-245 -93 -529 -256 -715 -411 -119 -100 -265 -255 -344
-365 -122 -171 -223 -406 -266 -622 -31 -152 -40 -400 -19 -539 8 -54 14 -54
150 -8 711 237 1186 837 1288 1625 20 152 31 360 20 360 -5 0 -56 -18 -114
-40z m-38 -137 c-600 -688 -989 -1220 -1213 -1660 -75 -146 -78 -145 -22 7
148 404 498 918 976 1430 99 106 373 370 384 370 2 0 -54 -66 -125 -147z"/>
<path d="M4205 10713 c-71 -37 -155 -142 -155 -193 0 -55 138 7 193 88 71 103
53 153 -38 105z"/>
<path d="M9750 10685 c-18 -47 -23 -167 -11 -260 51 -387 296 -896 704 -1460
120 -166 299 -396 304 -391 8 7 -17 274 -38 416 -97 653 -337 1179 -690 1515
-79 76 -169 149 -231 189 -28 18 -28 18 -38 -9z"/>
<path d="M6336 10653 c-17 -75 -37 -268 -47 -451 -16 -274 -2 -516 47 -864 l7
-48 122 0 c91 0 122 3 122 13 0 6 7 64 16 127 29 197 37 327 37 570 0 244 -9
390 -36 573 l-16 107 -123 0 -123 0 -6 -27z"/>
<path d="M3850 10315 c-131 -131 -162 -167 -152 -177 10 -10 46 21 177 152 91
91 164 169 162 174 -2 5 -8 11 -13 13 -5 2 -83 -71 -174 -162z"/>
<path d="M3961 10195 c-93 -21 -147 -41 -225 -83 l-70 -38 -31 -80 c-44 -111
-104 -233 -164 -332 -28 -46 -51 -85 -51 -88 0 -3 39 30 88 72 165 145 495
384 694 504 57 34 74 49 63 54 -30 11 -239 5 -304 -9z"/>
<path d="M4220 10128 c-161 -145 -487 -400 -770 -600 -85 -61 -175 -133 -199
-160 -70 -79 -206 -193 -319 -269 -128 -85 -258 -150 -416 -205 -111 -39 -119
-43 -91 -51 59 -16 402 -9 510 11 211 39 394 113 570 230 248 166 451 406 615
727 65 129 165 358 158 364 -2 2 -28 -20 -58 -47z"/>
<path d="M9386 9803 c-13 -13 -5 -148 14 -222 88 -344 431 -857 981 -1466 166
-184 560 -588 567 -581 8 9 -68 294 -117 438 -116 339 -284 668 -482 943 -226
314 -521 603 -829 811 -128 86 -126 85 -134 77z"/>
<path d="M11053 9747 c-84 -94 -152 -287 -185 -527 -19 -140 -16 -615 5 -810
30 -269 123 -816 147 -859 16 -29 153 349 209 579 98 400 113 774 46 1106 -35
171 -129 430 -188 514 -14 20 -14 20 -34 -3z"/>
<path d="M6101 9259 c-76 -46 -112 -159 -96 -303 l7 -66 452 0 453 0 6 67 c11
137 -22 249 -85 295 -33 23 -34 23 -371 24 -301 0 -341 -2 -366 -17z"/>
<path d="M1742 8933 c-39 -14 -77 -161 -63 -240 11 -58 33 -82 57 -62 45 37
75 171 55 245 -12 45 -29 64 -49 57z"/>
<path d="M6230 8778 c0 -7 7 -51 15 -98 54 -324 39 -981 -42 -1750 -21 -209
-25 -771 -5 -930 21 -165 59 -341 103 -473 42 -127 144 -347 160 -347 16 0
118 223 159 349 44 133 82 308 102 471 8 69 13 223 13 445 -1 292 -5 379 -28
615 -54 553 -72 969 -57 1295 9 192 29 374 45 418 7 16 -9 17 -229 17 -182 0
-236 -3 -236 -12z"/>
<path d="M2707 8608 c-80 -76 -127 -258 -67 -258 66 0 158 178 136 265 -9 34
-28 32 -69 -7z"/>
<path d="M1343 8575 c22 -146 32 -351 32 -661 l0 -350 41 100 c47 117 98 219
154 311 47 76 49 105 21 217 -36 138 -128 304 -217 388 l-37 35 6 -40z"/>
<path d="M1260 8498 c-162 -272 -267 -543 -316 -818 -24 -129 -24 -391 0 -520
51 -282 201 -580 393 -780 l82 -85 -39 118 c-96 290 -122 590 -75 861 12 71
13 130 4 372 -10 274 -6 646 10 854 4 52 7 97 5 98 -1 2 -30 -43 -64 -100z"/>
<path d="M2085 8522 c-376 -329 -644 -760 -737 -1183 -14 -68 -21 -146 -25
-279 -6 -223 13 -362 77 -554 44 -130 123 -306 138 -306 15 0 141 99 220 174
274 259 477 619 552 977 57 274 50 597 -20 898 -24 104 -101 351 -110 351 -3
0 -46 -35 -95 -78z m24 -113 c-231 -613 -415 -1211 -498 -1620 -34 -163 -70
-413 -73 -491 l-1 -53 -7 65 c-9 82 4 333 25 476 56 381 188 834 375 1284 55
133 221 482 227 477 1 -2 -20 -64 -48 -138z"/>
<path d="M6704 8587 c-5 -15 -22 -270 -18 -276 2 -1 27 5 56 15 38 13 80 18
148 18 112 -1 205 -29 335 -99 105 -57 171 -75 270 -75 135 0 218 32 333 129
125 104 237 162 388 200 87 23 228 41 317 41 57 0 57 0 57 30 l0 30 -940 0
c-779 0 -942 -2 -946 -13z"/>
<path d="M4320 8560 l0 -30 68 0 c257 0 507 -83 677 -226 44 -37 113 -83 153
-102 65 -31 86 -36 171 -40 118 -5 179 10 296 73 134 73 223 99 340 99 94 0
116 -4 199 -39 17 -8 18 -3 12 96 -4 57 -9 125 -12 152 l-6 47 -949 0 -949 0
0 -30z"/>
<path d="M1690 8577 c0 -8 -50 -395 -56 -429 -5 -30 -3 -38 10 -38 20 0 20 3
51 245 30 235 29 225 10 225 -8 0 -15 -1 -15 -3z"/>
<path d="M8206 7502 c-170 -548 -313 -1004 -318 -1012 -16 -25 9 -121 55 -213
76 -152 224 -266 412 -318 68 -18 97 -21 209 -16 109 4 144 9 210 32 156 55
292 172 360 310 39 79 67 192 50 203 -6 4 -150 458 -320 1010 -276 897 -311
1002 -329 1002 -18 0 -53 -108 -329 -998z m314 -87 l0 -925 -291 0 -291 0 6
23 c5 19 550 1782 561 1815 2 6 7 12 10 12 3 0 5 -416 5 -925z m330 -10 c149
-484 273 -888 276 -897 5 -17 -13 -18 -280 -18 l-286 0 1 923 c0 555 4 912 10
897 4 -14 130 -421 279 -905z"/>
<path d="M4047 7487 c-170 -551 -313 -1005 -319 -1008 -16 -10 15 -137 51
-206 157 -312 584 -438 918 -270 169 86 285 229 324 401 8 39 9 63 3 74 -6 10
-149 466 -319 1015 -278 896 -311 997 -330 997 -18 0 -52 -103 -328 -1003z
m308 -994 c-3 -10 -71 -13 -291 -13 -225 0 -285 3 -281 13 2 6 129 417 281
912 152 495 280 907 284 915 8 16 15 -1807 7 -1827z m334 915 c155 -498 281
-911 281 -917 0 -8 -89 -11 -285 -11 l-285 0 0 922 c0 507 2 919 4 917 2 -2
130 -412 285 -911z"/>
<path d="M11467 8289 c-172 -189 -290 -610 -328 -1165 -12 -171 -6 -889 7
-947 6 -27 9 -24 56 55 325 539 491 1138 449 1613 -7 72 -20 171 -31 220 -23
110 -78 285 -90 285 -4 0 -33 -27 -63 -61z"/>
<path d="M2576 8258 c-13 -29 -56 -125 -95 -212 -56 -122 -69 -161 -59 -167 7
-5 15 -3 19 4 15 28 189 415 189 421 0 3 -7 6 -15 6 -9 0 -25 -23 -39 -52z"/>
<path d="M9999 8253 c-7 -21 -12 -83 -11 -138 3 -421 332 -1100 937 -1929
l130 -179 3 49 c5 72 -16 298 -43 461 -105 623 -358 1156 -734 1546 -92 96
-242 227 -259 227 -6 0 -16 -17 -23 -37z"/>
<path d="M2860 8121 c-103 -34 -175 -69 -255 -126 -72 -51 -185 -169 -185
-193 0 -75 -23 -343 -34 -407 -8 -44 -18 -96 -21 -115 -5 -27 5 -13 44 57 122
223 312 514 454 696 73 92 91 117 85 117 -2 -1 -41 -13 -88 -29z"/>
<path d="M2890 8007 c-96 -178 -277 -474 -437 -715 -85 -128 -166 -260 -180
-294 -110 -272 -311 -537 -553 -728 -30 -24 -59 -47 -64 -51 -13 -11 104 17
193 47 114 38 273 117 386 191 131 86 317 272 404 402 199 300 318 734 309
1128 l-3 123 -55 -103z"/>
<path d="M11864 7092 c-230 -149 -472 -587 -648 -1172 -72 -239 -204 -805
-191 -819 7 -6 94 81 202 201 450 500 689 998 728 1516 9 121 -3 312 -20 312
-6 0 -38 -17 -71 -38z"/>
<path d="M10412 6718 c-11 -18 -32 -68 -47 -112 -93 -276 -64 -753 80 -1312
75 -288 230 -763 245 -747 10 10 64 231 85 343 49 268 67 605 46 836 -24 259
-88 504 -187 713 -54 113 -177 311 -194 311 -4 0 -17 -15 -28 -32z"/>
<path d="M2139 6238 c-19 -36 -6 -149 25 -213 51 -104 96 -94 96 22 0 70 -26
152 -61 189 -28 30 -45 30 -60 2z"/>
<path d="M2564 5934 c-93 -133 -151 -291 -161 -440 l-6 -92 45 -58 c78 -102
148 -210 204 -316 48 -89 55 -98 49 -63 -57 382 -73 547 -83 839 l-7 189 -41
-59z"/>
<path d="M2647 5858 c33 -183 79 -560 103 -848 15 -189 27 -278 45 -345 85
-313 85 -650 -1 -970 -17 -64 138 159 209 301 267 533 207 1123 -174 1704 -67
102 -196 280 -203 280 -1 0 8 -55 21 -122z"/>
<path d="M2238 5915 c-4 -4 99 -449 108 -463 0 -1 8 0 16 3 13 5 7 41 -41 232
-52 205 -66 245 -83 228z"/>
<path d="M1765 5858 c-104 -450 -97 -866 21 -1227 117 -358 358 -689 670 -921
98 -73 220 -144 233 -136 15 10 76 205 102 326 31 142 34 485 6 623 -88 431
-365 855 -772 1182 -94 76 -235 175 -249 175 -3 0 -8 -10 -11 -22z m224 -313
c349 -582 610 -1237 675 -1695 22 -152 28 -238 16 -220 -5 8 -10 26 -10 41 0
40 -65 291 -115 449 -127 395 -300 797 -603 1408 -81 163 -148 301 -150 307
-6 18 108 -158 187 -290z"/>
<path d="M1187 5843 c-29 -29 27 -168 92 -226 78 -70 112 -33 70 78 -34 91
-131 180 -162 148z"/>
<path d="M11830 5616 c-369 -136 -813 -680 -1231 -1508 -55 -109 -96 -198 -91
-198 15 0 188 102 312 185 186 125 328 242 490 404 307 309 489 614 573 961
41 171 41 170 9 169 -15 0 -43 -6 -62 -13z"/>
<path d="M1366 5541 c-7 -11 231 -411 245 -411 4 0 10 4 13 9 7 10 -228 404
-243 409 -5 2 -12 -1 -15 -7z"/>
<path d="M1187 5213 c197 -212 314 -353 479 -578 48 -66 84 -112 81 -103 -41
114 -86 303 -106 453 -11 74 -15 83 -54 124 -91 95 -264 184 -417 217 -111 23
-111 24 17 -113z"/>
<path d="M1065 5270 c96 -774 404 -1283 930 -1540 162 -79 352 -136 520 -155
l60 -7 -92 58 c-255 163 -462 378 -604 626 -33 58 -104 154 -189 253 -238 282
-435 534 -565 725 -31 47 -59 87 -62 90 -3 3 -2 -20 2 -50z"/>
<path d="M5410 5163 c-153 -16 -329 -67 -461 -134 -104 -52 -218 -124 -225
-143 -4 -11 625 -1779 777 -2184 l9 -22 87 44 c99 49 199 84 318 112 111 26
414 27 495 2 51 -16 59 -17 110 -2 86 24 325 30 437 10 121 -21 257 -65 368
-120 50 -24 91 -43 92 -42 2 2 660 1821 760 2100 l36 100 -27 21 c-50 40 -182
116 -262 150 -238 102 -508 137 -789 100 -202 -27 -460 -102 -618 -182 l-49
-24 -95 41 c-271 119 -556 182 -811 178 -64 0 -133 -3 -152 -5z"/>
<path d="M10258 5083 c-258 -267 -399 -979 -373 -1889 4 -140 10 -254 14 -254
9 0 162 261 214 366 262 525 367 1065 292 1499 -25 147 -77 325 -94 325 -4 0
-28 -21 -53 -47z"/>
<path d="M4636 4558 c-48 -29 -113 -75 -144 -103 l-56 -51 95 -175 c52 -95
272 -511 490 -924 217 -412 401 -750 409 -750 42 0 33 29 -330 1035 -199 553
-365 1008 -369 1013 -4 4 -47 -16 -95 -45z"/>
<path d="M7827 3593 c-365 -1013 -367 -1017 -347 -1037 11 -11 22 -18 24 -15
3 3 226 423 495 934 472 894 490 930 473 948 -37 42 -249 187 -273 187 -2 0
-169 -458 -372 -1017z"/>
<path d="M11410 4366 c-326 -92 -737 -455 -1174 -1035 -115 -152 -341 -481
-331 -481 20 0 253 103 380 169 536 275 920 632 1128 1046 34 69 99 235 112
288 7 26 6 27 -31 26 -22 0 -59 -7 -84 -13z"/>
<path d="M9781 4209 c-302 -135 -645 -686 -911 -1464 -61 -178 -142 -446 -137
-452 9 -8 178 137 306 262 400 389 658 816 755 1246 28 125 55 404 40 419 -5
5 -27 1 -53 -11z"/>
<path d="M4443 4087 c-28 -29 -53 -62 -57 -74 -5 -16 100 -210 436 -807 244
-432 445 -786 448 -786 3 0 25 17 49 38 l43 37 -432 820 c-238 451 -433 821
-435 823 -1 1 -25 -22 -52 -51z"/>
<path d="M8421 4113 c-449 -852 -851 -1616 -851 -1622 0 -4 20 -23 44 -44 l45
-37 69 123 c743 1318 824 1466 812 1488 -16 28 -90 109 -101 109 -5 0 -12 -8
-18 -17z"/>
<path d="M3150 3897 c0 -92 113 -237 186 -237 14 0 16 8 12 51 -9 87 -110 209
-174 209 -18 0 -24 -6 -24 -23z"/>
<path d="M3653 3753 c-23 -103 -24 -302 0 -391 36 -133 48 -151 148 -210 100
-59 268 -183 313 -231 17 -17 33 -31 37 -31 4 0 -31 64 -77 143 -103 173 -295
555 -349 694 -22 57 -43 103 -47 103 -4 0 -15 -35 -25 -77z"/>
<path d="M3715 3805 c122 -187 307 -520 466 -837 61 -123 130 -248 154 -278
73 -95 154 -226 205 -333 79 -164 118 -298 166 -562 l7 -40 14 45 c50 161 74
385 61 581 -26 422 -246 822 -627 1140 -99 83 -300 222 -406 280 l-60 34 20
-30z"/>
<path d="M8822 3710 c-249 -166 -510 -642 -702 -1276 -62 -207 -174 -653 -166
-662 4 -3 63 50 132 118 542 537 834 1141 834 1720 0 106 -6 140 -25 140 -7 0
-40 -18 -73 -40z"/>
<path d="M3366 3631 c-4 -6 53 -92 125 -193 155 -216 146 -205 160 -191 8 8
-28 64 -125 199 -75 104 -141 190 -145 192 -5 2 -12 -1 -15 -7z"/>
<path d="M2946 3388 c55 -313 122 -527 235 -750 233 -464 634 -801 1134 -953
121 -36 257 -65 311 -65 33 0 34 1 34 39 0 146 -40 375 -95 538 -161 482 -564
870 -1133 1092 -156 60 -407 131 -467 131 -22 0 -24 -3 -19 -32z m219 -117
c410 -294 862 -720 1140 -1076 103 -131 223 -314 285 -437 28 -54 49 -98 46
-98 -2 0 -23 30 -47 68 -234 372 -745 910 -1449 1526 -74 65 -142 125 -150
134 -19 18 56 -31 175 -117z"/>
<path d="M2414 3175 c-9 -23 43 -103 89 -136 82 -60 167 -79 167 -39 0 54 -67
125 -154 166 -59 27 -94 30 -102 9z"/>
<path d="M2694 2959 c-3 -6 -2 -14 3 -18 5 -3 91 -68 190 -143 138 -105 184
-134 192 -125 7 10 -36 47 -178 155 -103 78 -190 142 -193 142 -4 0 -10 -5
-14 -11z"/>
<path d="M10465 2934 c-361 -53 -802 -242 -1315 -562 -138 -86 -407 -266 -425
-284 -14 -15 341 -3 493 17 505 64 933 223 1247 464 112 86 325 302 325 331 0
18 -71 32 -180 35 -63 2 -128 1 -145 -1z"/>
<path d="M2596 2685 c-50 -8 -93 -18 -97 -22 -5 -5 42 -30 104 -57 205 -89
536 -268 746 -403 l84 -55 -51 64 c-68 83 -179 246 -226 331 -29 52 -48 72
-78 88 -110 56 -323 80 -482 54z"/>
<path d="M2525 2574 c331 -595 734 -932 1245 -1041 67 -14 131 -18 305 -18
221 0 287 7 425 48 l45 13 -115 23 c-300 60 -571 183 -795 364 -38 31 -115 80
-170 108 -314 163 -648 354 -849 487 -56 37 -107 71 -115 76 -8 5 3 -22 24
-60z"/>
<path d="M5448 2279 c-70 -16 -157 -67 -188 -110 -77 -107 -95 -260 -50 -432
31 -122 25 -175 -35 -299 -40 -82 -48 -107 -52 -175 -9 -130 34 -221 131 -278
107 -63 321 -84 447 -45 38 11 108 48 174 91 61 39 164 103 230 141 164 95
161 92 125 150 l-30 48 -62 -24 c-108 -42 -218 -93 -312 -145 -50 -27 -126
-60 -168 -72 -66 -19 -82 -21 -116 -11 -83 25 -131 94 -132 187 0 63 12 106
62 225 37 87 40 100 35 160 -3 36 -15 90 -27 120 -29 73 -30 143 -2 197 42 81
127 94 284 43 133 -42 232 -105 397 -250 43 -39 81 -70 84 -70 3 0 19 18 36
39 l32 40 -70 78 c-256 289 -570 445 -793 392z"/>
<path d="M7248 2275 c-83 -21 -179 -67 -276 -132 -84 -57 -274 -230 -331 -302
l-29 -36 35 -39 35 -38 33 29 c18 15 64 54 102 87 101 87 223 164 316 198 67
26 98 31 168 32 99 1 118 -9 150 -79 25 -54 24 -91 -7 -182 -41 -121 -38 -185
14 -304 74 -169 75 -262 5 -340 -73 -81 -155 -74 -363 32 -130 66 -311 149
-357 163 -18 6 -26 0 -48 -39 -15 -25 -25 -51 -22 -58 3 -8 62 -46 132 -87 70
-40 169 -100 219 -133 153 -101 204 -121 323 -125 172 -7 312 35 385 116 55
61 71 115 66 221 -4 82 -8 97 -51 183 -60 121 -66 168 -36 279 33 120 33 280
0 363 -32 80 -98 146 -177 176 -75 28 -206 35 -286 15z"/>
<path d="M9530 2003 c-192 -15 -523 -76 -770 -143 -243 -65 -681 -208 -703
-230 -11 -10 253 -74 411 -99 399 -65 832 -52 1149 34 205 55 393 140 560 251
46 31 82 62 80 68 -6 18 -121 71 -194 89 -133 32 -349 44 -533 30z"/>
<path d="M6415 1841 c-146 -37 -241 -213 -206 -382 21 -101 81 -185 156 -220
38 -18 31 -26 -9 -10 -16 6 -31 -6 -80 -61 -335 -379 -474 -607 -501 -819 l-7
-54 99 -2 c54 -2 125 -9 158 -17 63 -15 75 -11 75 26 0 32 80 334 121 458 48
148 131 326 182 393 21 26 37 49 37 51 0 3 -8 7 -17 9 -10 3 9 5 42 5 33 0 52
-2 43 -5 -24 -6 -24 -9 23 -75 88 -126 192 -405 265 -713 20 -88 38 -161 38
-161 1 -1 30 4 66 12 36 8 107 15 157 17 l93 2 0 34 c0 95 -82 291 -189 449
-74 110 -191 256 -298 373 -64 69 -83 84 -99 78 -34 -13 -40 -9 -9 8 50 26
113 93 137 147 19 42 23 69 23 146 0 82 -4 103 -26 150 -56 118 -173 186 -274
161z"/>
</g>
</svg>
