<?xml version="1.0" encoding="UTF-8" standalone="no"?>
<!-- Created with Inkscape (http://www.inkscape.org/) -->

<svg
   xmlns:dc="http://purl.org/dc/elements/1.1/"
   xmlns:cc="http://creativecommons.org/ns#"
   xmlns:rdf="http://www.w3.org/1999/02/22-rdf-syntax-ns#"
   xmlns:svg="http://www.w3.org/2000/svg"
   xmlns="http://www.w3.org/2000/svg"
   xmlns:sodipodi="http://sodipodi.sourceforge.net/DTD/sodipodi-0.dtd"
   xmlns:inkscape="http://www.inkscape.org/namespaces/inkscape"
   width="372.52701"
   height="372.70178"
   id="svg3029"
   version="1.1"
   inkscape:version="0.48.4 r9939"
   sodipodi:docname="antifa_old_stencil_stuff.svg">
  <defs
     id="defs3031" />
  <sodipodi:namedview
     id="base"
     pagecolor="#ffffff"
     bordercolor="#666666"
     borderopacity="1.0"
     inkscape:pageopacity="0.0"
     inkscape:pageshadow="2"
     inkscape:zoom="0.68810027"
     inkscape:cx="179.11727"
     inkscape:cy="211.18235"
     inkscape:document-units="px"
     inkscape:current-layer="layer1"
     showgrid="false"
     fit-margin-top="0"
     fit-margin-left="0"
     fit-margin-right="0"
     fit-margin-bottom="0"
     inkscape:window-width="1280"
     inkscape:window-height="723"
     inkscape:window-x="0"
     inkscape:window-y="26"
     inkscape:window-maximized="1" />
  <metadata
     id="metadata3034">
    <rdf:RDF>
      <cc:Work
         rdf:about="">
        <dc:format>image/svg+xml</dc:format>
        <dc:type
           rdf:resource="http://purl.org/dc/dcmitype/StillImage" />
        <dc:title></dc:title>
      </cc:Work>
    </rdf:RDF>
  </metadata>
  <g
     inkscape:label="Layer 1"
     inkscape:groupmode="layer"
     id="layer1"
     transform="translate(-153.22748,-250.55904)">
    <g
       id="g3541">
      <path
         inkscape:connector-curvature="0"
         id="path3415"
         d="m 325.91287,256.37216 c -0.68591,0 -6.64087,0.85429 -13.25,1.90625 -27.07513,4.30951 -52.85946,14.38158 -74.5625,29.09375 -14.82444,10.05017 -37.60553,32.76484 -47.46875,47.34375 -17.06385,25.22439 -27.69915,53.89028 -30.78125,83 l -0.8125,7.75 20.78125,-0.34375 20.8125,-0.34375 1.5,-8.875 c 3.45089,-20.6259 9.09252,-35.6692 19.9375,-53.15625 20.39519,-32.88399 56.79486,-57.02372 95.21875,-63.125 4.41093,-0.7004 8.4598,-1.30757 8.96875,-1.3125 0.50896,-0.005 0.90625,-9.43245 0.90625,-20.96875 0,-13.3093 -0.42739,-20.96875 -1.21875,-20.96875 l -0.0313,0 z m 27.46875,0 c -1.17332,-0.004 -1.53125,4.97465 -1.53125,20.875 l 0,20.90625 5.84375,0.8125 c 19.87698,2.70135 45.32323,12.7026 61.6875,24.25 10.05348,7.09476 23.5715,20.17828 31.125,30.15625 12.68746,16.75909 23.45661,42.66772 26.25,63.09375 l 1.40625,10.15625 20.875,0 20.90625,0 -0.875,-8.3125 c -4.25671,-40.86439 -22.37663,-78.67594 -51.875,-108.3125 -28.72969,-28.87158 -60.6119,-45.26664 -100.8125,-51.78125 -6.28438,-1.02408 -12.15112,-1.84375 -13,-1.84375 z m -171.1875,192.53125 c -2.06617,0.0204 -4.36363,0.059 -6.84375,0.125 -18.5395,0.49352 -16.96819,-1.43688 -13.96875,17.53125 5.38838,34.06601 22.06862,67.95147 46.1875,93.71875 27.97089,29.88085 61.34885,47.7911 102.9375,55.21875 6.78606,1.21205 13.16959,2.06767 14.1875,1.9375 1.54599,-0.19784 1.90545,-3.57964 2.1875,-20.71875 l 0.375,-20.53125 -8.375,-1.40625 c -59.33604,-10.09802 -103.73419,-52.388 -115.59375,-110.125 -1.07433,-5.23056 -1.96875,-10.64263 -1.96875,-11.96875 0,-2.91689 -4.66157,-3.92388 -19.125,-3.78125 z m 295.78125,2.40625 -1.40625,7.96875 c -3.80661,21.85974 -13.5342,44.72409 -26.0625,61.34375 -13.75225,18.24339 -36.91991,36.18423 -58.5625,45.28125 -7.99249,3.35935 -24.46917,7.74296 -35.46875,9.4375 l -4.625,0.6875 0,20.09375 c 0,11.05312 0.2672,20.39302 0.59375,20.71875 1.77351,1.77351 30.58654,-3.54203 44.4375,-8.1875 9.01447,-3.02338 25.82014,-10.79221 33.9375,-15.71875 49.47405,-30.02523 80.49375,-77.55866 88.21875,-135.15625 l 0.84375,-6.46875 -20.9375,0 -20.96875,0 z"
         style="fill:#000000" />
      <path
         id="path3179"
         transform="translate(163.02431,243.95792)"
         d="M 150.28125,62.65625 C 113.33845,70.1032 87.91192,93.71008 68.0625,118.125 l 40.03125,188.1875 c 7.10207,4.33527 14.52235,7.94137 22.15625,10.8125 l -20.53125,-96.6875 c 0,0 4.64494,-10.7418 14.5,-17.875 4.19543,-3.03654 10.68469,-7.54027 17.25,-8.78125 1.86722,-0.35289 3.60114,-0.50521 5.25,-0.5 0.54962,6.7e-4 1.09608,0.0245 1.625,0.0625 6.34802,0.45497 11.10356,3.45189 14.625,7.3125 4.69452,5.14764 7.89773,11.51108 12.59375,16.375 4.06396,4.20866 9.57972,5.85976 15.90625,5.90625 7.15274,0.0522 11.46555,-1.4937 16.375,-3.90625 4.88316,-2.39981 9.41507,-4.71841 15.5625,-4.65625 8.52491,0.086 13.38234,2.67454 18.25,5.53125 7.22437,4.24037 16.43026,8.36901 29.09375,7.875 1.18179,-0.046 2.27799,-0.12401 3.3125,-0.1875 1.03441,-0.0634 1.98482,-0.0996 2.90625,-0.1875 5.52858,-0.52615 9.37049,-1.56815 15.75,-4.21875 5.91632,-2.45822 11.15093,-5.57108 14.5,-11.5 0.70934,-5.63299 1.0625,-11.39369 1.0625,-17.21875 0,-14.68203 -2.32681,-28.81397 -6.625,-42.0625 -0.18535,-0.57129 -0.81676,-1.86448 -1.1875,-2.28125 -0.40683,-0.45745 -1.26021,-1.15164 -2.09375,-1.375 -2.20151,-0.58988 -4.68231,-1.08154 -6.4375,-2.84375 -2.69576,-2.70672 -3.88263,-9.03277 -10.1875,-16.15625 -9.46068,-10.68898 -35.48552,-1.23457 -43.75,-0.46875 -13.63433,1.26328 -21.07861,-5.70775 -25.75,-21.0625 -13.17615,-43.30884 -32.83196,-43.6667 -56.46875,-45.4375 -0.9186,-0.0689 -1.88413,-0.10985 -2.8125,-0.125 -0.89939,-0.0149 -1.78073,-0.0332 -2.6875,0 z m -3.40625,136.625 c -1.26576,0.0362 -2.69277,0.17446 -4.25,0.46875 -2.99498,0.56602 -6.85368,2.57643 -10.28125,4.6875 L 158.5,324.25 c 6.23223,0.83972 12.53477,1.22508 18.875,1.15625 l -8.96875,-41.75 c 2.65246,-4.11299 8.77265,-4.80158 13.75,-7.46875 4.16783,-2.23346 7.95973,-6.91871 15.625,-7.03125 20.3653,-0.29892 19.65237,20.36221 37.53125,21.9375 15.67508,1.38146 30.30742,-17.58155 39.84375,-9.96875 5.21725,-5.97976 10.21268,-12.34176 12.90625,-16.65625 7.23898,-11.59552 13.07406,-26.08308 16.6875,-40.5625 -2.81448,1.62594 -5.83543,3.20767 -8.96875,4.5625 -0.46023,0.19907 -0.9421,0.43637 -1.40625,0.625 -8.13762,3.30712 -13.64112,4.36905 -23.40625,4.75 -14.11192,0.55041 -24.67691,-4.2007 -32.375,-8.71875 -4.81586,-2.8267 -7.82577,-4.61243 -15.25,-4.6875 -4.64205,-0.0469 -7.85689,1.61116 -12.78125,4.03125 -5.29634,2.60285 -11.01127,4.55954 -19.125,4.5 -7.40312,-0.0545 -14.75719,-2.12589 -20.1875,-7.75 -5.50633,-5.70253 -8.84805,-12.25545 -12.71875,-16.5 -3.14497,-3.44847 -6.17125,-5.59413 -11.65625,-5.4375 z"
         style="fill:#000000"
         inkscape:connector-curvature="0" />
    </g>
  </g>
</svg>
