<?xml version="1.0" encoding="utf-8"?>

<!DOCTYPE svg PUBLIC "-//W3C//DTD SVG 1.1//EN" "http://www.w3.org/Graphics/SVG/1.1/DTD/svg11.dtd">
<svg version="1.1" id="Layer_1" xmlns="http://www.w3.org/2000/svg" xmlns:xlink="http://www.w3.org/1999/xlink" x="0px" y="0px"
	 viewBox="0 0 1958.828 1625.622" style="enable-background:new 0 0 1958.828 1625.622;" xml:space="preserve">
<g>
	<path d="M1674.098,340.729c-38.556,156.102-273.588,254.416-484.06,180.31c-3.808-1.752-182.748,80.651-192.47,83.81
		c6.98-10.192,93.487-128.304,98.1-134.59c-136.192-105.182-120.391-253.448-12.91-343.92
		C1310.354-65.78,1738.147,87.837,1674.098,340.729z"/>
	<path d="M671.958,244.609c256.123-25.057,418.946,165.896,236.43,282.99c25.92,30.1,52.31,59.79,78.34,89.8
		c-88.08-32.711-146.538-54.787-151.85-56.32c-229.636,66.735-465.209-73.683-370.48-215.03
		C506.905,282.752,595.758,252.258,671.958,244.609z"/>
	<path d="M489.398,541.969c188.214,68.396,244.023,267.66,91.86,390.92c-3.229,1.452,72.84,106.979,87.82,130.95
		c-34.089-14.897-171.227-82.646-174.69-80.9c-185.619,69.299-392.216-17.06-436.67-160.55
		C-5.338,620.834,256.721,456.926,489.398,541.969z"/>
	<path d="M1464.568,565.049c303.072-92.914,591.617,143.94,364.7,299.89c-97.108,65.428-243.191,78.698-364.5,43.38
		c-3.706,0.632,7.28-2.944-172.84,64.08c29.54-34.07,59.45-67.84,88.88-101.99c-2.624-2.815-32.644-19.545-57.32-50.59
		c-54.354-68.951-32.888-148.439,36.36-202.31C1390.868,593.329,1427.088,576.519,1464.568,565.049z"/>
	<path d="M919.148,690.769c107.562-56.798,246.561,17.827,236.19,133.72c-8.265,95.461-123.468,158.667-226.49,114.49
		c-87.669,47.327-82.093,44.362-87.32,46.78c6.357-11.288,42.502-70.714,44.93-74.56c-5.427-5.881-36.518-32.773-43.59-78.65
		C834.128,772.461,866.851,717.915,919.148,690.769z"/>
	<path d="M1646.968,1052.309c61.421,57.554,1.47,149.289-71.34,123.54c-37.289-12.746-57.978-55.074-43.91-93.34
		C1548.561,1034.924,1609.559,1019.706,1646.968,1052.309z"/>
	<path d="M1048.158,1036.539c78.675-9.986,113.413,93.458,47,134.23c-58.764,34.977-128.922-23.376-105.44-87.25
		C998.528,1058.619,1021.968,1039.859,1048.158,1036.539z"/>
	<path d="M1386.538,1065.769c41.448,56.325-15.212,135.072-82.91,111.08c-37.283-12.744-57.977-55.066-43.91-93.33
		C1278.646,1030.024,1352.471,1018.258,1386.538,1065.769z"/>
	<path d="M832.958,1054.309c62.131,58.079,0.154,149.714-72.08,123.28c-36.685-13.027-57.176-54.945-43.16-93.07
		C734.486,1037.127,795.388,1021.52,832.958,1054.309z"/>
	<path d="M551.958,1055.309c40.277,37.65,29.645,93.244-9.8,117.46c-58.773,34.982-128.914-23.397-105.44-87.25
		C453.486,1038.127,514.388,1022.52,551.958,1055.309z"/>
	<path d="M279.958,1056.309c61.453,57.445,1.455,149.335-71.33,123.54c-37.291-12.747-57.978-55.074-43.91-93.34
		C181.524,1039.031,242.466,1023.612,279.958,1056.309z"/>
	<path d="M1529.958,1170.769c8.55-0.02,17.13-0.16,25.68,0.07c2.56,0.792,40.552,24.73,83.5,1.87c1.75-0.93,3.54-2.14,5.64-1.97
		c23.075,0.058,28.862-1.281,27.87,4.65c-0.098,364.15-0.363,57.771-0.85,396.12c-0.073,12.889-12.33,9.572-56.98,9.97
		c-12.653,0.188-12.663-5.206-12.97-9.98c-0.08-49.06,0.07-98.12-0.08-147.18c-1.31-0.02-2.61-0.02-3.88,0.01
		c-0.288,94.681,0.308,145.315-0.36,150.86c-5.11,8.155-7.623,6.247-59.78,6.28c-5.24,0.32-10.26-4.7-9.93-9.94
		C1527.985,1157.527,1524.342,1169.933,1529.958,1170.769z"/>
	<path d="M1677.048,1170.589c13.015,3.373,23.23,16.218,23.6,26.82c-0.033,133.759,1.912,124.337-5.65,134.2
		c-4.18,5.89-10.37,10.34-17.16,12.67c-0.36-0.1-1.08-0.28-1.44-0.38c-1.88-3.89-1.18-8.3-1.28-12.45
		C1675.118,1165.382,1674.273,1172.921,1677.048,1170.589z"/>
	<path d="M989.788,1171.709c8.2,0.24,16.46-0.38,24.63,0.31c5.7,2.64,11.24,5.72,17.32,7.48c22.1,7.09,47.06,4.59,67.3-6.79
		c2.398-1.532,26.669-0.96,27.67-0.94c2.41-0.06,4.35,2.22,3.94,4.61c0,1.032,0.358,397.683-2.88,402.03
		c-3.918,5.323-7.011,3.964-55.98,4.06c-13.353,0.144-11.825-8.175-11.94-9.96c-0.08-49.06,0.07-98.12-0.08-147.18
		c-1.31-0.03-2.6-0.03-3.88-0.01c-0.589,161.531,3.489,153.269-9.06,157.04c-17.02,0.24-34.05,0.02-51.08,0.11
		c-5.24,0.32-10.26-4.7-9.93-9.93C986.001,1150.922,981.552,1170.922,989.788,1171.709z"/>
	<path d="M1135.068,1171.629c13.118,3.308,23.58,16.798,23.58,26.77c-0.033,133.749,1.912,124.323-5.65,134.21
		c-4.01,5.76-9.99,9.91-16.45,12.5c-2.9,1.07-3.05-2.95-3.37-4.81C1132.687,1165.601,1132.416,1173.962,1135.068,1171.629z"/>
	<path d="M1259.788,1171.709c8.2,0.24,16.46-0.38,24.63,0.31c5.7,2.63,11.23,5.72,17.32,7.48c22.1,7.09,47.06,4.59,67.29-6.79
		c2.03-1.29,4.49-0.97,6.78-1c18.927,0.299,25.905-1.527,24.84,4.68c0.035,234.855,0.266,221.912-0.78,231.02
		c-0.288,174.958,2.66,171.471-6.71,174.26c-4.286,1.257-52.43,0.741-53.43,0.73c-13.722,0.062-9.385,1.867-9.96-157.08
		c-1.31-0.02-2.6-0.02-3.88,0.01c-0.529,162.079,3.586,153.512-9.06,157.03c-17.02,0.24-34.05,0.02-51.07,0.11
		c-5.25,0.32-10.27-4.7-9.94-9.94c0.106-188.734-0.83-179.06-0.83-179.06C1255.182,1156.678,1252.893,1171.05,1259.788,1171.709z"/>
	<path d="M1405.078,1171.649c11.23,2.88,20.61,12.67,23.45,23.94c0.19,41.9,0.19,83.83,0,125.74
		c-2.69,10.94-11.62,19.77-21.98,23.78c-3.22,1-3.15-3.64-3.42-5.7C1403.096,1166.392,1402.315,1173.419,1405.078,1171.649z"/>
	<path d="M1521.118,1171.799c2.87-1.14,3.03,2.96,3.36,4.82c0.472,177.226,0.35,165.091-1.23,168.28
		c-2.454,1.753-20.134-7.209-24.12-23.57C1498.27,1195.777,1492.952,1183.837,1521.118,1171.799z"/>
	<path d="M718.778,1172.709c7.87,0.26,15.8-0.39,23.64,0.31c5.7,2.63,11.23,5.72,17.31,7.48c22.11,7.09,47.06,4.59,67.3-6.79
		c2.03-1.29,4.49-0.97,6.78-1c18.877,0.298,25.908-1.544,24.84,4.68c-0.117,433.407-0.303,33.812-0.85,396.12
		c-0.03,5.3-4.62,9.76-9.89,9.81c-53.813,1.166-55.377,0.304-58.56-3.35c-2.646-2.244-1.099,3.718-1.58-153.65
		c-1.3-0.02-2.6-0.02-3.88,0.01c-0.589,161.579,3.485,153.26-9.06,157.03c-17.02,0.24-34.05,0.02-51.07,0.11
		c-5.25,0.32-10.27-4.7-9.94-9.93C714.007,1139.383,708.839,1173.434,718.778,1172.709z"/>
	<path d="M863.078,1172.649c11.23,2.87,20.61,12.68,23.45,23.94c0.904,136.012,1.466,128.034-5.53,137.02
		c-4.01,5.76-9.99,9.91-16.45,12.5c-3.21,1.02-3.15-3.65-3.42-5.7C861.096,1168.094,860.296,1174.431,863.078,1172.649z"/>
	<path d="M981.338,1172.549c2.161,6.102,1.701,169.035-0.02,173.81c-11.429-1.724-24.577-16.264-24.31-26.85
		c0-39.7,0.02-79.4-0.01-119.09C956.249,1188.398,970.46,1174.036,981.338,1172.549z"/>
	<path d="M1249.118,1172.799c3.19-1.07,3.13,3.65,3.41,5.71c0.032,171.43,1.445,169.135-3.42,167.6
		c-10.37-4.01-19.3-12.85-21.98-23.78c-0.943-138.034-1.33-127.935,5.95-137.68
		C1236.888,1178.999,1242.988,1175.419,1249.118,1172.799z"/>
	<path d="M458.858,1173.729c5.787-0.502,32.552,21.341,73.5,7.07c5.49-1.68,10.47-4.59,15.68-6.92c8.24-0.35,16.52-0.05,24.78-0.15
		c2.66-0.38,5.35,1.84,4.83,4.66c-0.097,360.213,0.366,111.754-0.82,250.07c0,155.461,4.804,156.281-12.95,156.01
		c-43.421-0.193-57.953,2.432-56.99-7.94c-0.18-49.74,0.06-99.47-0.12-149.2c-1.3-0.03-2.59-0.03-3.88-0.01
		c-0.486,157.901,1.031,150.442-1.59,152.64c-6.303,5.906-2.783,4.442-58.55,4.51c-5.24,0.32-10.26-4.7-9.93-9.94
		c0.038-208.376-0.82-113.101-0.82-397.08C431.721,1172.308,433.234,1174.009,458.858,1173.729z"/>
	<path d="M582.048,1173.589c11.665,2.64,24.38,16.546,23.61,27.83c-0.11,40.64,0.15,81.28-0.13,121.91
		c-2.69,10.93-11.61,19.77-21.98,23.78c-3.21,1.01-3.15-3.65-3.42-5.7C580.096,1168.418,579.327,1175.698,582.048,1173.589z"/>
	<path d="M707.118,1173.799c3.17-1.09,3.15,3.66,3.41,5.71c0.032,171.038,1.45,169.137-3.42,167.6
		c-10.37-4.01-19.3-12.85-21.98-23.78C684.271,1197.814,678.946,1185.84,707.118,1173.799z"/>
	<path d="M164.788,1174.709c8.2,0.24,16.46-0.38,24.63,0.31c5.7,2.63,11.24,5.72,17.32,7.48c22.1,7.09,47.06,4.59,67.29-6.79
		c2.03-1.29,4.49-0.97,6.78-1c18.895,0.299,25.909-1.549,24.84,4.68c0.065,431.492,0.378,401.012-5.53,404.37
		c-2.883,1.732-2.084,2.207-55.39,1.64c-13.722,0.062-9.385,1.867-9.96-157.08c-1.3-0.02-2.59-0.02-3.88,0.01
		c-0.589,161.579,3.485,153.26-9.06,157.03c-17.02,0.24-34.05,0.02-51.07,0.11c-5.25,0.32-10.27-4.7-9.94-9.94
		c0.076-178.003,0.15-167.188-0.77-175.04C159.821,1158.983,158.177,1174.074,164.788,1174.709z"/>
	<path d="M310.048,1174.589c13.118,3.412,23.36,16.446,23.6,26.82c-0.033,130.092,0.314,122.817-0.68,125.17
		c-5.533,15.407-21.188,22.809-23.57,21.33c-0.92-2.02-1.33-4.24-1.29-6.43C308.236,1170.003,307.221,1176.794,310.048,1174.589z"/>
	<path d="M428.338,1174.549c1.733,4.894,2.078,167.999-0.02,173.82c-11.59-2.53-21.23-12.69-24.19-24.04
		c-0.28-40.63-0.02-81.27-0.13-121.91C403.241,1190.266,417.633,1175.993,428.338,1174.549z"/>
	<path d="M154.118,1175.789c2.89-1.11,3.03,2.96,3.36,4.84c0.455,175.421,0.32,164.913-1.23,168.28
		c-4.407,2.488-24.784-13.483-24.22-25.4c-0.135-135.883-1.929-125.146,6.05-135.86
		C141.888,1181.989,147.988,1178.429,154.118,1175.789z"/>
</g>
</svg>
