<?xml version="1.0" encoding="utf-8"?>

<!DOCTYPE svg PUBLIC "-//W3C//DTD SVG 1.1//EN" "http://www.w3.org/Graphics/SVG/1.1/DTD/svg11.dtd">
<svg version="1.1" id="Layer_1" xmlns="http://www.w3.org/2000/svg" xmlns:xlink="http://www.w3.org/1999/xlink" x="0px" y="0px"
	 viewBox="-1165 -408.9674 2656 1527.2891" enable-background="new -1165 -408.9674 2656 1527.2891" xml:space="preserve">
<g>
	<path d="M834.5032-65.5113c-3.6649-34.8382-11.8806-70.5963-31.2963-100.2336
		C715.427-284.5811,576.7931-364.1237,430.0551-380.6104c-101.7853-5.5485-206.4712,19.386-290.9532,77.4624
		C61.0992-251.5781,1.1191-171.9601-22.6588-81.1306c-7.7821,30.6716-16.8424,62.831-9.7846,94.5471
		c5.6524,22.3514,7.1572,45.3881,9.812,68.2076c1.4504,12.8714-1.5867,27.4978-12.268,35.7361
		c-14.392,5.7228-31.1949,5.6993-44.5921-2.5377c-58.8678-35.4423-106.7658-94.7441-116.59-164.1072
		c14.805,5.8514,29.3,13.6347,45.4888,14.7891c17.9715,1.5394,36.0553,1.1913,54.0333,0.371
		c14.703,0.6202,20.3079-19.5079,11.8699-29.6062c-14.3585-19.8534-33.8384-35.0784-52.3359-50.897
		c-9.0935-8.0477-5.7195-21.1777-2.3713-31.1162c18.8725,7.749,33.0816,22.7127,47.8634,36.182
		c18.1933-19.5281,24.3686-48.5142,18.9737-74.3159c-9.1168-61.9925-67.2929-114.7604-130.5274-114.4663
		c-15.1941-0.9647-24.384,12.9783-35.7545,20.5445c-0.1292-10.3141,0.7702-20.653,1.8053-30.9396
		c-42.5224-1.4315-88.4545,18.0115-108.6157,57.0971c-9.4247,17.6781-7.5285,38.2272-3.8821,57.1824
		c-22.7598-9.0253-44.7604-23.6827-70.4241-20.8009c4.6902,27.45,27.9189,44.4374,45.6022,63.6249
		c-21.7355,3.611-41.8411-6.6739-62.8685-9.8419c4.8339,17.6123,17.7777,32.6538,35.8061,37.2005
		c12.2171,2.6278,9.5401,17.7524,12.8405,26.8976c-30.0614,25.7995-62.0235,49.9582-98.1299,66.7343
		c-8.7048,4.1524-19.2146,6.3532-25.4533,14.2948c-6.2097,8.8037-3.4061,20.3361,0.205,29.5767
		c11.44,11.1188,32.6452,15.4467,32.4417,34.9378c5.0986,16.7666-10.7823,27.0858-19.6202,38.5499
		c-25.7667,33.8518-39.0414,77.4272-35.0185,119.9218c5.6452,38.4883,14.8766,77.2863,36.0397,110.4604
		c39.0201,65.8103,105.2447,114.449,179.071,133.8221c14.9372,4.4152,30.5665,3.089,45.8727,1.7944
		c49.0224-3.8796,98.84,18.3752,129.9279,56.3068c7.2656,8.7488,12.5869,18.9697,19.8218,27.7667
		c6.8652,6.6049,15.7851,10.3887,23.6013,15.7038c20.0995,12.6447,35.7607,32.0391,44.0007,54.3044
		c7.3737,24.1151,31.8351,35.7362,46.0556,55.1654c20.8225,22.2872,30.9538,52.4009,32.2718,82.5134
		c1.6051,26.2413-17.0068,49.4219-10.6414,76.0394l172.6964-0.1561c-7.0977-25.4598-29.0162-43.6111-34.5826-69.6224
		c-6.5334-27.3661-8.411-58.6762,6.8246-83.6203c10.9698-17.9846,19.9088-37.0841,28.9138-56.0743
		c8.9656-18.9815,9.9399-40.3837,16.3593-60.1986c7.3696-23.1317,17.0046-45.5735,29.0068-66.6866
		c10.5891-19.3054,26.3807-34.9832,38.6281-53.1725c10.1207-16.0558,30.5988-18.2666,47.7812-20.2318
		c60.2447-6.4062,121.692,19.7256,161.774,64.5276c6.2448,7.1582,13.1381,14.2533,16.5478,23.3324
		c-0.6258,37.8315-19.0321,76.8113-52.2979,96.4645c-17.6547,11.6287-39.5165,10.6343-59.6344,13.3433
		c12.4247,14.2071,29.8753,22.0695,46.851,29.2939c35.6857,14.4312,73.6903,25.5682,112.5966,23.8008
		c51.3625-0.1035,104.373-13.2795,144.4564-46.7554c45.5137-37.4702,74.8447-97.9412,67.8325-157.3875
		c52.5842-23.3406,85.1519-79.9065,85.8265-136.4495c-0.0305-14.1014-5.0982-27.6064-5.5316-41.6582
		c6.8801-13.5472,16.5994-25.8718,20.1959-40.955c9.0827-28.9372,3.7601-59.9271-4.4312-88.4092
		c-11.2923-39.8648-37.5236-74.0493-69.3752-99.9351C817.8208,23.3899,835.6137-21.9888,834.5032-65.5113z"/>
	<polygon points="1443,647.11 1091.3024,647.11 806.4225,819.0479 -703.3844,819.0479 -528.1441,592.625 -1117,841.6725 
		-528.1441,1090.7201 -703.3844,864.2972 806.3502,864.2972 1091.3024,1036.2351 1443,1036.2351 1248.4814,841.6725 	"/>
</g>
</svg>
