<?xml version="1.0" encoding="UTF-8" standalone="no"?>
<!-- Generator: Adobe Illustrator 16.0.0, SVG Export Plug-In . SVG Version: 6.00 Build 0)  -->

<svg
   xmlns:dc="http://purl.org/dc/elements/1.1/"
   xmlns:cc="http://creativecommons.org/ns#"
   xmlns:rdf="http://www.w3.org/1999/02/22-rdf-syntax-ns#"
   xmlns:svg="http://www.w3.org/2000/svg"
   xmlns="http://www.w3.org/2000/svg"
   xmlns:sodipodi="http://sodipodi.sourceforge.net/DTD/sodipodi-0.dtd"
   xmlns:inkscape="http://www.inkscape.org/namespaces/inkscape"
   version="1.1"
   x="0px"
   y="0px"
   width="759px"
   height="766px"
   viewBox="0 0 759 766"
   enable-background="new 0 0 759 766"
   xml:space="preserve"
   id="svg479"
   sodipodi:docname="shield of office.svg"
   inkscape:version="0.92.0 r15299"><title
     id="title487">shield of office</title><metadata
     id="metadata485"><rdf:RDF><cc:Work
         rdf:about=""><dc:format>image/svg+xml</dc:format><dc:type
           rdf:resource="http://purl.org/dc/dcmitype/StillImage" /><dc:title>shield of office</dc:title><dc:date>8/6/2017</dc:date><dc:creator><cc:Agent><dc:title>cactus cowboy</dc:title></cc:Agent></dc:creator></cc:Work></rdf:RDF></metadata><defs
     id="defs483" /><sodipodi:namedview
     pagecolor="#ffffff"
     bordercolor="#666666"
     borderopacity="1"
     objecttolerance="10"
     gridtolerance="10"
     guidetolerance="10"
     inkscape:pageopacity="0"
     inkscape:pageshadow="2"
     inkscape:window-width="1920"
     inkscape:window-height="1052"
     id="namedview481"
     showgrid="false"
     inkscape:zoom="1.1083551"
     inkscape:cx="379.5"
     inkscape:cy="383"
     inkscape:window-x="-9"
     inkscape:window-y="-9"
     inkscape:window-maximized="1"
     inkscape:current-layer="svg479" /><g
     id="g477"><polygon
       points="436.223,8.846 93.094,8.846 84.281,9.404 78.656,10.346 73.219,11.279 68.156,12.779 62.906,14.654 57.656,16.721    53.156,19.346 48.094,22.346 43.594,25.346 39.469,28.721 35.156,32.471 31.406,36.404 28.031,40.721 24.656,45.221 21.656,49.721    18.844,54.596 16.594,59.471 14.531,64.721 12.844,69.971 11.719,75.221 10.781,80.654 10.219,86.279 10.219,98.654 24.469,97.721    39.094,97.346 53.719,97.721 68.531,98.654 83.156,100.154 97.781,102.404 112.219,105.221 126.656,108.596 140.906,112.721    154.594,117.404 168.281,122.654 181.781,128.654 185.531,130.154 191.156,133.529 196.781,137.471 201.844,141.596    206.531,146.279 210.656,151.346 214.406,156.971 217.406,162.971 219.844,169.154 221.906,175.529 223.219,182.096    223.781,188.846 223.781,195.221 222.844,201.971 221.719,208.154 220.781,211.904 219.469,217.904 219.281,223.721    219.469,229.904 220.406,235.721 222.094,241.529 224.344,247.154 226.969,252.404 230.531,257.471 234.094,261.779    238.219,266.096 243.281,269.654 250.031,273.596 466.031,273.596 466.031,258.029 295.781,258.029 303.094,252.596    310.594,247.154 317.156,240.971 323.344,234.221 329.156,227.471 334.594,219.779 339.281,212.279 343.594,204.221    347.344,195.971 350.531,187.529 352.781,180.221 353.719,176.096 354.094,171.596 353.719,167.279 352.781,162.971    351.469,158.846 349.406,154.904 346.594,151.346 343.594,147.971 340.219,145.529 336.281,143.279 333.656,142.154    304.031,135.779 301.031,135.779 298.031,135.971 295.219,137.096 292.406,138.404 290.156,140.654 288.469,143.096    287.156,145.721 286.969,146.096 283.969,153.596 279.844,120.029 279.656,117.221 280.031,114.221 281.344,111.404    282.656,108.779 284.906,106.721 287.344,104.846 289.781,103.721 292.781,103.154 295.781,103.154 344.906,103.154    353.344,89.096 436.223,95.471  "
       id="polygon397" /><polygon
       fill="none"
       stroke="#000000"
       stroke-width="3.939"
       stroke-linejoin="round"
       points="436.223,8.846 93.094,8.846    84.281,9.404 78.656,10.346 73.219,11.279 68.156,12.779 62.906,14.654 57.656,16.721 53.156,19.346 48.094,22.346 43.594,25.346    39.469,28.721 35.156,32.471 31.406,36.404 28.031,40.721 24.656,45.221 21.656,49.721 18.844,54.596 16.594,59.471 14.531,64.721    12.844,69.971 11.719,75.221 10.781,80.654 10.219,86.279 10.219,98.654 24.469,97.721 39.094,97.346 53.719,97.721 68.531,98.654    83.156,100.154 97.781,102.404 112.219,105.221 126.656,108.596 140.906,112.721 154.594,117.404 168.281,122.654 181.781,128.654    185.531,130.154 191.156,133.529 196.781,137.471 201.844,141.596 206.531,146.279 210.656,151.346 214.406,156.971    217.406,162.971 219.844,169.154 221.906,175.529 223.219,182.096 223.781,188.846 223.781,195.221 222.844,201.971    221.719,208.154 220.781,211.904 219.469,217.904 219.281,223.721 219.469,229.904 220.406,235.721 222.094,241.529    224.344,247.154 226.969,252.404 230.531,257.471 234.094,261.779 238.219,266.096 243.281,269.654 250.031,273.596    466.031,273.596 466.031,258.029 295.781,258.029 303.094,252.596 310.594,247.154 317.156,240.971 323.344,234.221    329.156,227.471 334.594,219.779 339.281,212.279 343.594,204.221 347.344,195.971 350.531,187.529 352.781,180.221    353.719,176.096 354.094,171.596 353.719,167.279 352.781,162.971 351.469,158.846 349.406,154.904 346.594,151.346    343.594,147.971 340.219,145.529 336.281,143.279 333.656,142.154 304.031,135.779 301.031,135.779 298.031,135.971    295.219,137.096 292.406,138.404 290.156,140.654 288.469,143.096 287.156,145.721 286.969,146.096 283.969,153.596    279.844,120.029 279.656,117.221 280.031,114.221 281.344,111.404 282.656,108.779 284.906,106.721 287.344,104.846    289.781,103.721 292.781,103.154 295.781,103.154 344.906,103.154 353.344,89.096 436.223,95.471  "
       id="polygon399" /><polygon
       points="466.031,258.029 436.223,95.471 436.223,8.846 672.098,8.846 677.348,9.596 682.781,10.346 688.406,11.471    693.656,12.971 698.906,14.846 703.973,16.904 708.848,19.529 713.723,22.346 718.031,25.529 722.348,28.904 726.473,32.654    730.406,36.596 733.973,40.721 737.156,45.221 740.156,49.721 742.973,54.779 745.223,59.654 747.098,64.904 748.973,69.971    750.281,75.221 751.031,80.654 751.781,86.279 751.781,97.346 751.781,98.846 737.723,97.904 722.906,97.529 708.098,97.721    693.473,98.654 678.656,100.346 664.223,102.404 649.973,105.221 635.156,108.596 621.281,112.721 607.406,117.596    593.531,122.846 580.031,128.654 576.473,130.346 570.656,133.529 565.223,137.471 560.156,141.596 555.281,146.471    551.156,151.346 547.406,156.971 544.598,163.154 541.973,169.154 540.098,175.904 538.781,182.279 538.406,188.846    538.406,195.404 538.973,202.154 540.281,208.346 541.031,212.096 542.348,218.096 542.531,223.904 542.531,229.904    541.406,235.904 539.906,241.721 537.656,247.346 535.223,252.404 531.473,257.471 527.723,261.971 523.598,266.279    518.723,270.029 509.723,273.596 466.031,273.596  "
       id="polygon401" /><polygon
       fill="none"
       stroke="#000000"
       stroke-width="3.939"
       stroke-linejoin="round"
       points="466.031,258.029 436.223,95.471    436.223,8.846 672.098,8.846 677.348,9.596 682.781,10.346 688.406,11.471 693.656,12.971 698.906,14.846 703.973,16.904    708.848,19.529 713.723,22.346 718.031,25.529 722.348,28.904 726.473,32.654 730.406,36.596 733.973,40.721 737.156,45.221    740.156,49.721 742.973,54.779 745.223,59.654 747.098,64.904 748.973,69.971 750.281,75.221 751.031,80.654 751.781,86.279    751.781,97.346 751.781,98.846 737.723,97.904 722.906,97.529 708.098,97.721 693.473,98.654 678.656,100.346 664.223,102.404    649.973,105.221 635.156,108.596 621.281,112.721 607.406,117.596 593.531,122.846 580.031,128.654 576.473,130.346    570.656,133.529 565.223,137.471 560.156,141.596 555.281,146.471 551.156,151.346 547.406,156.971 544.598,163.154    541.973,169.154 540.098,175.904 538.781,182.279 538.406,188.846 538.406,195.404 538.973,202.154 540.281,208.346    541.031,212.096 542.348,218.096 542.531,223.904 542.531,229.904 541.406,235.904 539.906,241.721 537.656,247.346    535.223,252.404 531.473,257.471 527.723,261.971 523.598,266.279 518.723,270.029 509.723,273.596 466.031,273.596  "
       id="polygon403" /><polygon
       points="10.219,674.281 10.969,685.719 11.719,690.969 13.031,696.219 14.719,701.656 16.781,706.719 19.031,711.594    21.844,716.469 24.656,721.156 28.031,725.656 31.594,729.969 35.344,733.906 39.469,737.281 43.781,741.031 48.094,744.031    53.156,746.844 57.844,749.281 63.094,751.719 68.156,753.219 73.594,754.906 78.844,756.031 84.469,756.969 93.281,757.156    380.531,757.156 380.531,719.469 372.281,719.281 354.844,717.969 337.406,715.344 320.719,711.031 304.031,705.781    287.906,699.031 272.531,691.156 257.531,682.156 243.469,671.844 230.531,660.594 217.969,648.219 206.906,634.906    196.781,620.656 187.781,605.844 180.094,590.281 173.531,574.156 180.469,568.156 147.844,558.594 147.844,564.219    137.531,595.156 147.844,626.094 147.844,632.844 184.594,622.156 174.281,653.281 184.594,684.031 79.219,653.281    147.844,632.844 147.844,626.094 42.281,595.156 147.844,564.219 147.844,558.594 78.844,538.344 184.406,507.406 174.094,538.344    183.094,565.719 274.219,488.281 266.156,471.406 263.906,465.406 194.531,465.031 182.344,463.719 169.969,461.281    158.156,457.531 146.531,453.031 135.281,447.594 124.969,441.031 114.656,433.719 105.281,425.469 96.469,416.656 88.406,406.906    81.469,396.781 75.469,385.904 70.406,374.471 66.094,362.846 63.094,350.846 61.031,338.471 59.906,326.279 59.531,318.971    58.219,311.471 55.781,304.721 52.406,298.154 47.906,291.971 42.844,286.721 37.031,282.221 30.656,278.471 23.906,275.846    16.594,274.154 10.219,273.029  "
       id="polygon405" /><polygon
       fill="none"
       stroke="#000000"
       stroke-width="3.939"
       stroke-linejoin="round"
       points="10.219,674.281 10.969,685.719    11.719,690.969 13.031,696.219 14.719,701.656 16.781,706.719 19.031,711.594 21.844,716.469 24.656,721.156 28.031,725.656    31.594,729.969 35.344,733.906 39.469,737.281 43.781,741.031 48.094,744.031 53.156,746.844 57.844,749.281 63.094,751.719    68.156,753.219 73.594,754.906 78.844,756.031 84.469,756.969 93.281,757.156 380.531,757.156 380.531,719.469 372.281,719.281    354.844,717.969 337.406,715.344 320.719,711.031 304.031,705.781 287.906,699.031 272.531,691.156 257.531,682.156    243.469,671.844 230.531,660.594 217.969,648.219 206.906,634.906 196.781,620.656 187.781,605.844 180.094,590.281    173.531,574.156 180.469,568.156 147.844,558.594 147.844,564.219 137.531,595.156 147.844,626.094 147.844,632.844    184.594,622.156 174.281,653.281 184.594,684.031 79.219,653.281 147.844,632.844 147.844,626.094 42.281,595.156 147.844,564.219    147.844,558.594 78.844,538.344 184.406,507.406 174.094,538.344 183.094,565.719 274.219,488.281 266.156,471.406    263.906,465.406 194.531,465.031 182.344,463.719 169.969,461.281 158.156,457.531 146.531,453.031 135.281,447.594    124.969,441.031 114.656,433.719 105.281,425.469 96.469,416.656 88.406,406.906 81.469,396.781 75.469,385.904 70.406,374.471    66.094,362.846 63.094,350.846 61.031,338.471 59.906,326.279 59.531,318.971 58.219,311.471 55.781,304.721 52.406,298.154    47.906,291.971 42.844,286.721 37.031,282.221 30.656,278.471 23.906,275.846 16.594,274.154 10.219,273.029  "
       id="polygon407" /><polygon
       points="751.781,273.029 743.348,274.154 736.223,275.846 729.281,278.471 722.723,282.221 716.906,286.721    711.656,291.971 707.348,298.154 704.156,304.721 701.906,311.471 700.406,318.971 700.031,326.279 698.906,338.471    696.848,350.846 693.656,362.846 689.531,374.471 684.281,385.904 678.281,396.781 671.156,406.906 663.281,416.656    654.473,425.469 645.281,433.719 634.973,441.031 624.473,447.594 613.223,453.031 601.781,457.531 589.781,461.281    577.781,463.719 565.406,465.031 496.223,465.406 493.973,471.406 485.906,487.719 587.723,574.156 603.473,566.656    586.406,536.469 603.473,506.656 677.906,506.656 661.031,536.469 676.223,563.656 718.406,563.656 701.531,593.844    718.406,623.656 679.031,623.656 662.906,651.594 679.973,681.594 605.348,681.594 588.098,651.594 605.348,621.406    642.473,621.406 626.723,593.844 642.098,566.656 603.473,566.656 587.723,574.156 581.156,590.281 573.473,605.844    564.281,620.656 554.348,634.906 542.906,648.219 530.906,660.594 517.598,671.844 503.531,682.156 488.723,691.156    472.973,699.031 457.031,705.781 440.348,711.031 423.281,715.344 406.406,717.969 388.973,719.281 380.531,719.469    380.531,757.156 668.723,757.156 672.281,757.156 677.531,756.781 682.973,755.844 688.598,754.906 693.656,753.219    699.098,751.344 704.156,749.281 709.031,746.844 713.723,743.844 718.223,740.844 722.531,737.281 726.656,733.906    730.598,729.781 734.156,725.281 737.348,720.969 740.348,716.469 742.973,711.594 745.223,706.719 747.473,701.469    749.156,696.219 750.473,690.781 751.223,685.531 751.781,680.094  "
       id="polygon409" /><polygon
       fill="none"
       stroke="#000000"
       stroke-width="3.939"
       stroke-linejoin="round"
       points="751.781,273.029 743.348,274.154    736.223,275.846 729.281,278.471 722.723,282.221 716.906,286.721 711.656,291.971 707.348,298.154 704.156,304.721    701.906,311.471 700.406,318.971 700.031,326.279 698.906,338.471 696.848,350.846 693.656,362.846 689.531,374.471    684.281,385.904 678.281,396.781 671.156,406.906 663.281,416.656 654.473,425.469 645.281,433.719 634.973,441.031    624.473,447.594 613.223,453.031 601.781,457.531 589.781,461.281 577.781,463.719 565.406,465.031 496.223,465.406    493.973,471.406 485.906,487.719 587.723,574.156 603.473,566.656 586.406,536.469 603.473,506.656 677.906,506.656    661.031,536.469 676.223,563.656 718.406,563.656 701.531,593.844 718.406,623.656 679.031,623.656 662.906,651.594    679.973,681.594 605.348,681.594 588.098,651.594 605.348,621.406 642.473,621.406 626.723,593.844 642.098,566.656    603.473,566.656 587.723,574.156 581.156,590.281 573.473,605.844 564.281,620.656 554.348,634.906 542.906,648.219    530.906,660.594 517.598,671.844 503.531,682.156 488.723,691.156 472.973,699.031 457.031,705.781 440.348,711.031    423.281,715.344 406.406,717.969 388.973,719.281 380.531,719.469 380.531,757.156 668.723,757.156 672.281,757.156    677.531,756.781 682.973,755.844 688.598,754.906 693.656,753.219 699.098,751.344 704.156,749.281 709.031,746.844    713.723,743.844 718.223,740.844 722.531,737.281 726.656,733.906 730.598,729.781 734.156,725.281 737.348,720.969    740.348,716.469 742.973,711.594 745.223,706.719 747.473,701.469 749.156,696.219 750.473,690.781 751.223,685.531    751.781,680.094  "
       id="polygon411" /><polygon
       fill="none"
       points="466.031,273.596 250.031,273.596 249.281,277.154 245.531,294.971 242.906,312.596 241.219,330.596    240.656,347.471 261.844,347.471 283.219,347.471 304.781,347.471 326.344,347.471 347.719,347.471 369.098,347.471    390.473,347.471 411.848,347.471 433.406,347.471 454.598,347.471 476.348,347.471 497.723,347.471 519.281,347.471    518.723,330.596 517.223,312.596 514.223,294.971 510.473,277.154 509.723,273.596  "
       id="polygon413" /><polygon
       fill="none"
       stroke="#000000"
       stroke-width="3.939"
       stroke-linejoin="round"
       points="466.031,273.596 250.031,273.596    249.281,277.154 245.531,294.971 242.906,312.596 241.219,330.596 240.656,347.471 261.844,347.471 283.219,347.471    304.781,347.471 326.344,347.471 347.719,347.471 369.098,347.471 390.473,347.471 411.848,347.471 433.406,347.471    454.598,347.471 476.348,347.471 497.723,347.471 519.281,347.471 518.723,330.596 517.223,312.596 514.223,294.971    510.473,277.154 509.723,273.596  "
       id="polygon415" /><polygon
       fill="none"
       points="261.844,461.281 259.219,454.531 253.594,437.469 249.094,420.219 245.344,402.594 242.719,384.596    241.219,366.596 240.656,347.471 261.844,347.471  "
       id="polygon417" /><polygon
       fill="none"
       stroke="#000000"
       stroke-width="3.939"
       stroke-linejoin="round"
       points="261.844,461.281 259.219,454.531    253.594,437.469 249.094,420.219 245.344,402.594 242.719,384.596 241.219,366.596 240.656,347.471 261.844,347.471  "
       id="polygon419" /><polygon
       fill="none"
       points="304.781,536.094 299.906,530.469 291.281,519.031 283.219,506.281 283.219,347.471 304.781,347.471     "
       id="polygon421" /><polygon
       fill="none"
       stroke="#000000"
       stroke-width="3.939"
       stroke-linejoin="round"
       points="304.781,536.094 299.906,530.469    291.281,519.031 283.219,506.281 283.219,347.471 304.781,347.471  "
       id="polygon423" /><polygon
       fill="none"
       points="326.344,347.471 347.719,347.471 347.719,573.031 341.906,569.281 330.469,560.844 326.344,557.094     "
       id="polygon425" /><polygon
       fill="none"
       stroke="#000000"
       stroke-width="3.939"
       stroke-linejoin="round"
       points="326.344,347.471 347.719,347.471    347.719,573.031 341.906,569.281 330.469,560.844 326.344,557.094  "
       id="polygon427" /><polygon
       fill="none"
       points="369.098,584.469 379.781,589.156 390.473,584.656 390.473,347.471 369.098,347.471  "
       id="polygon429" /><polygon
       fill="none"
       stroke="#000000"
       stroke-width="3.939"
       stroke-linejoin="round"
       points="369.098,584.469 379.781,589.156    390.473,584.656 390.473,347.471 369.098,347.471  "
       id="polygon431" /><polygon
       fill="none"
       points="433.406,557.469 429.281,560.844 418.031,569.281 411.848,573.031 411.848,347.471 433.406,347.471     "
       id="polygon433" /><polygon
       fill="none"
       stroke="#000000"
       stroke-width="3.939"
       stroke-linejoin="round"
       points="433.406,557.469 429.281,560.844    418.031,569.281 411.848,573.031 411.848,347.471 433.406,347.471  "
       id="polygon435" /><polygon
       fill="none"
       points="476.348,506.656 468.281,519.031 460.031,530.469 454.598,536.469 454.598,347.471 476.348,347.471     "
       id="polygon437" /><polygon
       fill="none"
       stroke="#000000"
       stroke-width="3.939"
       stroke-linejoin="round"
       points="476.348,506.656 468.281,519.031    460.031,530.469 454.598,536.469 454.598,347.471 476.348,347.471  "
       id="polygon439" /><polygon
       fill="none"
       points="518.723,366.596 517.223,384.596 514.406,402.594 510.848,420.219 505.973,437.469 500.348,454.531    497.723,461.469 497.723,347.471 519.281,347.471  "
       id="polygon441" /><polygon
       fill="none"
       stroke="#000000"
       stroke-width="3.939"
       stroke-linejoin="round"
       points="518.723,366.596 517.223,384.596    514.406,402.594 510.848,420.219 505.973,437.469 500.348,454.531 497.723,461.469 497.723,347.471 519.281,347.471  "
       id="polygon443" /><polygon
       fill="none"
       points="466.031,258.029 436.223,95.471 353.344,89.096 344.906,103.154 295.781,103.154 292.781,103.154    289.781,103.721 287.344,104.846 284.906,106.721 282.656,108.779 281.344,111.404 280.031,114.221 279.656,117.221    279.844,120.029 283.969,153.596 286.969,146.096 287.156,145.721 288.469,143.096 290.156,140.654 292.406,138.404    295.219,137.096 298.031,135.971 301.031,135.779 304.031,135.779 333.656,142.154 336.281,143.279 340.219,145.529    343.594,147.971 346.594,151.346 349.406,154.904 351.469,158.846 352.781,162.971 353.719,167.279 354.094,171.596    353.719,176.096 352.781,180.221 350.531,187.529 347.344,195.971 343.594,204.221 339.281,212.279 334.594,219.779    329.156,227.471 323.344,234.221 317.156,240.971 310.594,247.154 303.094,252.596 295.781,258.029  "
       id="polygon445" /><polygon
       fill="none"
       stroke="#000000"
       stroke-width="3.939"
       stroke-linejoin="round"
       points="466.031,258.029 436.223,95.471    353.344,89.096 344.906,103.154 295.781,103.154 292.781,103.154 289.781,103.721 287.344,104.846 284.906,106.721    282.656,108.779 281.344,111.404 280.031,114.221 279.656,117.221 279.844,120.029 283.969,153.596 286.969,146.096    287.156,145.721 288.469,143.096 290.156,140.654 292.406,138.404 295.219,137.096 298.031,135.971 301.031,135.779    304.031,135.779 333.656,142.154 336.281,143.279 340.219,145.529 343.594,147.971 346.594,151.346 349.406,154.904    351.469,158.846 352.781,162.971 353.719,167.279 354.094,171.596 353.719,176.096 352.781,180.221 350.531,187.529    347.344,195.971 343.594,204.221 339.281,212.279 334.594,219.779 329.156,227.471 323.344,234.221 317.156,240.971    310.594,247.154 303.094,252.596 295.781,258.029  "
       id="polygon447" /><polygon
       fill="none"
       points="274.219,488.281 277.031,494.281 283.219,506.281 291.281,519.031 299.906,530.469 304.781,536.094    309.469,541.156 319.594,551.281 326.344,557.094 330.469,560.844 341.906,569.281 347.719,573.031 354.094,576.594    366.844,583.531 369.098,584.469 379.781,589.156 390.473,584.656 393.281,583.531 405.656,576.594 411.848,573.031    418.031,569.281 429.281,560.844 433.406,557.469 440.348,551.281 450.473,541.156 454.598,536.469 460.031,530.469    468.281,519.031 476.348,506.656 482.906,494.281 485.906,487.719 587.723,574.156 603.473,566.656 586.406,536.469    603.473,506.656 677.906,506.656 661.031,536.469 676.223,563.656 718.406,563.656 701.531,593.844 718.406,623.656    679.031,623.656 662.906,651.594 679.973,681.594 605.348,681.594 588.098,651.594 605.348,621.406 642.473,621.406    626.723,593.844 642.098,566.656 603.473,566.656 587.723,574.156 581.156,590.281 573.473,605.844 564.281,620.656    554.348,634.906 542.906,648.219 530.906,660.594 517.598,671.844 503.531,682.156 488.723,691.156 472.973,699.031    457.031,705.781 440.348,711.031 423.281,715.344 406.406,717.969 388.973,719.281 380.531,719.469 372.281,719.281    354.844,717.969 337.406,715.344 320.719,711.031 304.031,705.781 287.906,699.031 272.531,691.156 257.531,682.156    243.469,671.844 230.531,660.594 217.969,648.219 206.906,634.906 196.781,620.656 187.781,605.844 180.094,590.281    173.531,574.156 180.469,568.156 147.844,558.594 147.844,564.219 137.531,595.156 147.844,626.094 147.844,632.844    184.594,622.156 174.281,653.281 184.594,684.031 79.219,653.281 147.844,632.844 147.844,626.094 42.281,595.156 147.844,564.219    147.844,558.594 78.844,538.344 184.406,507.406 174.094,538.344 183.094,565.719  "
       id="polygon449" /><polygon
       fill="none"
       stroke="#000000"
       stroke-width="3.939"
       stroke-linejoin="round"
       points="274.219,488.281 277.031,494.281    283.219,506.281 291.281,519.031 299.906,530.469 304.781,536.094 309.469,541.156 319.594,551.281 326.344,557.094    330.469,560.844 341.906,569.281 347.719,573.031 354.094,576.594 366.844,583.531 369.098,584.469 379.781,589.156    390.473,584.656 393.281,583.531 405.656,576.594 411.848,573.031 418.031,569.281 429.281,560.844 433.406,557.469    440.348,551.281 450.473,541.156 454.598,536.469 460.031,530.469 468.281,519.031 476.348,506.656 482.906,494.281    485.906,487.719 587.723,574.156 603.473,566.656 586.406,536.469 603.473,506.656 677.906,506.656 661.031,536.469    676.223,563.656 718.406,563.656 701.531,593.844 718.406,623.656 679.031,623.656 662.906,651.594 679.973,681.594    605.348,681.594 588.098,651.594 605.348,621.406 642.473,621.406 626.723,593.844 642.098,566.656 603.473,566.656    587.723,574.156 581.156,590.281 573.473,605.844 564.281,620.656 554.348,634.906 542.906,648.219 530.906,660.594    517.598,671.844 503.531,682.156 488.723,691.156 472.973,699.031 457.031,705.781 440.348,711.031 423.281,715.344    406.406,717.969 388.973,719.281 380.531,719.469 372.281,719.281 354.844,717.969 337.406,715.344 320.719,711.031    304.031,705.781 287.906,699.031 272.531,691.156 257.531,682.156 243.469,671.844 230.531,660.594 217.969,648.219    206.906,634.906 196.781,620.656 187.781,605.844 180.094,590.281 173.531,574.156 180.469,568.156 147.844,558.594    147.844,564.219 137.531,595.156 147.844,626.094 147.844,632.844 184.594,622.156 174.281,653.281 184.594,684.031    79.219,653.281 147.844,632.844 147.844,626.094 42.281,595.156 147.844,564.219 147.844,558.594 78.844,538.344 184.406,507.406    174.094,538.344 183.094,565.719  "
       id="polygon451" /><polygon
       points="283.219,506.281 277.031,494.281 274.219,488.281 266.156,471.406 263.906,465.406 261.844,461.281    261.844,347.471 283.219,347.471  "
       id="polygon453" /><polygon
       fill="none"
       stroke="#000000"
       stroke-width="3.939"
       stroke-linejoin="round"
       points="283.219,506.281 277.031,494.281    274.219,488.281 266.156,471.406 263.906,465.406 261.844,461.281 261.844,347.471 283.219,347.471  "
       id="polygon455" /><polygon
       points="326.344,557.094 319.594,551.281 309.469,541.156 304.781,536.094 304.781,347.471 326.344,347.471  "
       id="polygon457" /><polygon
       fill="none"
       stroke="#000000"
       stroke-width="3.939"
       stroke-linejoin="round"
       points="326.344,557.094 319.594,551.281    309.469,541.156 304.781,536.094 304.781,347.471 326.344,347.471  "
       id="polygon459" /><polygon
       points="347.719,573.031 354.094,576.594 366.844,583.531 369.098,584.469 369.098,347.471 347.719,347.471  "
       id="polygon461" /><polygon
       fill="none"
       stroke="#000000"
       stroke-width="3.939"
       stroke-linejoin="round"
       points="347.719,573.031 354.094,576.594    366.844,583.531 369.098,584.469 369.098,347.471 347.719,347.471  "
       id="polygon463" /><polygon
       points="411.848,573.031 405.656,576.594 393.281,583.531 390.473,584.656 390.473,347.471 411.848,347.471  "
       id="polygon465" /><polygon
       fill="none"
       stroke="#000000"
       stroke-width="3.939"
       stroke-linejoin="round"
       points="411.848,573.031 405.656,576.594    393.281,583.531 390.473,584.656 390.473,347.471 411.848,347.471  "
       id="polygon467" /><polygon
       points="454.598,536.469 450.473,541.156 440.348,551.281 433.406,557.469 433.406,347.471 454.598,347.471  "
       id="polygon469" /><polygon
       fill="none"
       stroke="#000000"
       stroke-width="3.939"
       stroke-linejoin="round"
       points="454.598,536.469 450.473,541.156    440.348,551.281 433.406,557.469 433.406,347.471 454.598,347.471  "
       id="polygon471" /><polygon
       points="497.723,461.469 496.223,465.406 493.973,471.406 485.906,487.719 482.906,494.281 476.348,506.656    476.348,347.471 497.723,347.471  "
       id="polygon473" /><polygon
       fill="none"
       stroke="#000000"
       stroke-width="3.939"
       stroke-linejoin="round"
       points="497.723,461.469 496.223,465.406    493.973,471.406 485.906,487.719 482.906,494.281 476.348,506.656 476.348,347.471 497.723,347.471  "
       id="polygon475" /></g></svg>