<?xml version="1.0" standalone="no"?>
<!DOCTYPE svg PUBLIC "-//W3C//DTD SVG 20010904//EN"
 "http://www.w3.org/TR/2001/REC-SVG-20010904/DTD/svg10.dtd">
<svg version="1.0" xmlns="http://www.w3.org/2000/svg"
 width="1280.000000pt" height="1099.000000pt" viewBox="0 0 1280.000000 1099.000000"
 preserveAspectRatio="xMidYMid meet">
<metadata>
Created by potrace 1.15, written by Peter Selinger 2001-2017
</metadata>
<g transform="translate(0.000000,1099.000000) scale(0.100000,-0.100000)"
fill="#000000" stroke="none">
<path d="M7750 10983 c-647 -45 -1174 -211 -1634 -513 -254 -167 -498 -388
-675 -610 -45 -58 -87 -106 -91 -108 -5 -2 -37 20 -72 48 -173 141 -462 306
-690 395 -836 326 -1786 187 -2541 -372 -697 -517 -1188 -1346 -1387 -2343
-17 -85 -33 -164 -35 -176 -4 -18 -14 -22 -73 -27 -323 -27 -569 -243 -549
-484 14 -177 177 -337 412 -405 105 -30 333 -33 435 -5 119 33 228 93 301 166
93 93 123 160 123 271 1 71 -4 94 -26 143 -33 69 -123 167 -195 210 l-52 31
36 66 c129 231 333 476 521 624 727 573 1624 328 2004 -549 26 -60 46 -110 45
-112 -2 -1 -84 -12 -182 -23 -99 -11 -184 -22 -189 -23 -5 -2 31 -32 80 -67
121 -88 224 -192 258 -263 43 -87 35 -111 -78 -227 -144 -149 -306 -362 -402
-529 l-19 -33 -155 -3 c-221 -3 -347 -32 -535 -125 -325 -161 -548 -461 -600
-810 -19 -120 -19 -180 0 -303 34 -230 136 -427 305 -597 123 -123 280 -221
440 -275 l65 -22 3 -59 c10 -239 60 -621 118 -914 69 -341 217 -880 301 -1093
197 -503 573 -941 1076 -1257 639 -401 1592 -630 2527 -607 1371 35 2465 540
3045 1407 159 238 234 403 339 753 172 570 279 1111 311 1578 l7 96 67 21 c94
30 225 99 312 164 207 154 351 363 416 606 23 84 26 117 27 252 0 179 -17 267
-82 417 -54 127 -121 223 -232 333 -223 224 -504 340 -821 340 l-109 0 -21 42
c-76 150 -236 379 -365 523 -41 46 -74 91 -74 100 0 31 50 138 94 199 60 84
166 181 288 263 55 37 96 69 91 70 -4 1 -87 9 -183 18 -96 9 -176 18 -178 20
-5 5 110 99 176 144 405 275 1002 299 1487 61 55 -27 115 -58 133 -70 l33 -20
-30 -38 c-141 -176 -81 -404 144 -548 345 -220 920 -180 1183 82 295 294 24
675 -523 734 -61 6 -144 9 -187 5 l-76 -7 -52 104 c-161 321 -394 579 -714
790 -657 435 -1592 545 -2399 282 -59 -19 -129 -44 -154 -55 l-46 -19 6 117
c11 255 131 511 342 732 272 284 617 452 1061 515 40 6 42 5 87 -53 86 -111
206 -189 378 -245 145 -47 245 -60 424 -53 278 10 501 93 651 243 180 179 185
405 13 589 -286 305 -931 354 -1315 99 -53 -35 -58 -37 -88 -25 -89 35 -548
184 -661 214 -408 109 -752 169 -1135 197 -124 9 -431 11 -540 3z"/>
</g>
</svg>
