<?xml version="1.0" standalone="no"?>
<!DOCTYPE svg PUBLIC "-//W3C//DTD SVG 20010904//EN"
 "http://www.w3.org/TR/2001/REC-SVG-20010904/DTD/svg10.dtd">
<svg version="1.0" xmlns="http://www.w3.org/2000/svg"
 width="1280.000000pt" height="1279.000000pt" viewBox="0 0 1280.000000 1279.000000"
 preserveAspectRatio="xMidYMid meet">
<metadata>
Created by potrace 1.15, written by Peter Selinger 2001-2017
</metadata>
<g transform="translate(0.000000,1279.000000) scale(0.100000,-0.100000)"
fill="#000000" stroke="none">
<path d="M6720 12785 c0 -2 144 -243 321 -535 l320 -531 -151 -232 -150 -232
162 -27 c890 -152 1733 -553 2412 -1149 147 -129 402 -388 514 -524 180 -216
371 -489 503 -720 83 -145 245 -481 304 -630 330 -834 424 -1732 274 -2625
-32 -191 -99 -472 -153 -644 l-35 -109 191 -186 c105 -102 196 -189 202 -192
11 -7 1159 410 1175 427 13 12 74 300 106 494 260 1590 -86 3204 -980 4560
-392 595 -919 1155 -1486 1582 -957 719 -2108 1158 -3309 1263 -187 16 -220
18 -220 10z"/>
<path d="M4600 12540 c-14 -4 -104 -34 -200 -65 -1855 -603 -3350 -2054 -4018
-3900 -188 -520 -305 -1050 -359 -1625 -24 -256 -24 -831 0 -1090 56 -600 182
-1156 384 -1700 63 -169 188 -462 250 -584 l30 -58 298 531 c164 292 303 537
309 545 10 13 46 13 278 -1 147 -9 270 -15 272 -12 3 3 -13 52 -35 109 -144
380 -244 819 -291 1280 -16 164 -17 697 0 860 65 637 217 1181 481 1717 243
493 522 889 896 1272 685 702 1522 1162 2506 1376 l76 16 67 261 c37 143 66
265 64 272 -2 7 -213 191 -471 409 -325 276 -474 397 -490 396 -12 0 -33 -4
-47 -9z"/>
<path d="M10224 3338 c-147 -189 -444 -495 -649 -670 -696 -594 -1564 -987
-2470 -1117 -264 -38 -385 -46 -705 -46 -320 0 -441 8 -705 46 -739 106 -1460
389 -2075 815 -272 188 -484 369 -735 626 l-170 174 -265 -76 -265 -76 -107
-614 c-102 -584 -106 -615 -90 -634 34 -39 280 -254 402 -352 898 -722 1964
-1186 3100 -1348 331 -48 517 -60 910 -60 393 0 579 12 910 60 1059 151 2060
565 2919 1207 421 314 841 722 1178 1142 150 187 370 501 360 512 -3 3 -232 0
-509 -6 -277 -6 -555 -11 -619 -11 l-115 0 -35 71 c-19 39 -75 150 -125 246
l-90 174 -50 -63z"/>
</g>
</svg>
