<?xml version="1.0" standalone="no"?>
<!DOCTYPE svg PUBLIC "-//W3C//DTD SVG 20010904//EN"
 "http://www.w3.org/TR/2001/REC-SVG-20010904/DTD/svg10.dtd">
<svg version="1.0" xmlns="http://www.w3.org/2000/svg"
 width="958.000000pt" height="1280.000000pt" viewBox="0 0 958.000000 1280.000000"
 preserveAspectRatio="xMidYMid meet">
<metadata>
Created by potrace 1.15, written by Peter Selinger 2001-2017
</metadata>
<g transform="translate(0.000000,1280.000000) scale(0.100000,-0.100000)"
fill="#000000" stroke="none">
<path d="M7755 12658 c-88 -78 -161 -145 -163 -149 -2 -4 105 -131 237 -281
133 -150 241 -275 240 -278 0 -3 -78 -72 -174 -155 -95 -82 -173 -153 -172
-157 1 -4 154 -181 341 -392 l338 -385 176 155 c96 85 178 154 181 153 3 0
114 -123 246 -274 131 -150 244 -271 250 -267 5 3 81 69 168 146 l158 139 -29
31 c-16 17 -379 429 -807 916 -428 487 -789 897 -804 912 l-26 27 -160 -141z"/>
<path d="M6675 11628 c-264 -232 -835 -735 -1270 -1118 -434 -382 -1355 -1192
-2045 -1799 -690 -607 -1263 -1111 -1273 -1121 -17 -16 23 -63 833 -983 l851
-967 177 156 c1184 1046 2716 2389 2724 2389 13 0 73 -144 127 -305 74 -222
128 -471 163 -750 20 -161 17 -720 -5 -884 -85 -631 -298 -1174 -624 -1590
-87 -110 -298 -314 -403 -388 -113 -80 -160 -106 -389 -215 l-174 -83 -2433 0
-2434 0 0 -400 0 -400 2625 0 c2510 0 2625 -1 2625 -18 0 -10 -88 -427 -195
-927 -108 -501 -234 -1090 -281 -1310 -47 -220 -88 -403 -91 -407 -2 -5 -497
-8 -1099 -8 l-1094 0 0 180 c0 99 1 180 3 180 1 0 126 -54 277 -120 151 -65
278 -116 281 -112 20 22 171 394 163 401 -5 4 -241 108 -524 231 -625 270
-1076 466 -1688 732 -254 110 -464 199 -465 197 -10 -13 -167 -386 -167 -395
0 -6 93 -52 208 -102 114 -49 396 -172 627 -272 231 -100 431 -187 445 -194
19 -8 -76 -12 -412 -14 l-438 -2 0 -355 0 -355 -650 0 -650 0 0 -250 0 -250
4365 0 4365 0 0 250 0 250 -294 0 c-183 0 -297 4 -301 10 -3 5 -75 333 -160
727 -85 395 -253 1181 -374 1747 -122 565 -221 1030 -221 1031 0 2 -20 5 -45
7 l-45 3 77 34 c669 294 1230 896 1531 1641 55 137 137 388 129 396 -2 3 -62
-3 -133 -12 -148 -19 -256 -15 -381 16 -277 67 -529 272 -644 525 -67 147 -95
354 -69 512 71 445 460 781 910 787 63 0 159 -3 212 -8 l98 -8 -50 147 c-172
503 -403 884 -756 1245 l-133 135 385 339 c240 211 383 344 380 352 -5 12
-1592 1821 -1660 1892 l-31 32 -480 -422z m145 -8200 c202 -93 248 -349 88
-493 -69 -63 -139 -90 -238 -90 -77 0 -92 3 -152 33 -228 112 -244 401 -30
534 89 55 233 62 332 16z"/>
<path d="M8595 7705 c-280 -62 -510 -283 -581 -560 -24 -93 -24 -266 -1 -355
24 -91 97 -234 154 -302 96 -114 229 -201 383 -250 65 -20 95 -23 225 -22 135
0 158 3 230 27 132 45 219 99 320 201 152 153 217 310 218 521 0 119 -10 173
-50 275 -92 232 -307 414 -551 465 -83 18 -267 18 -347 0z"/>
<path d="M1890 7417 c-25 -23 -67 -61 -93 -84 l-48 -42 200 -227 c111 -125
199 -229 197 -231 -2 -2 -95 19 -207 46 -112 27 -282 68 -377 91 -96 23 -177
38 -181 34 -11 -12 -203 -816 -197 -822 3 -2 110 -30 237 -61 l233 -56 -215
-189 c-118 -104 -215 -193 -217 -197 -3 -7 528 -616 552 -633 9 -6 58 31 170
130 86 76 160 140 165 142 4 1 22 -97 39 -219 18 -122 34 -224 36 -226 2 -2
211 12 463 31 253 20 464 36 470 36 5 0 -19 202 -57 465 -37 256 -64 465 -61
464 3 0 106 -115 229 -255 l223 -255 71 63 c39 35 84 74 100 88 l29 25 -845
960 c-465 528 -851 961 -858 962 -7 2 -33 -16 -58 -40z"/>
</g>
</svg>
