<?xml version="1.0" standalone="no"?>
<!DOCTYPE svg PUBLIC "-//W3C//DTD SVG 20010904//EN"
 "http://www.w3.org/TR/2001/REC-SVG-20010904/DTD/svg10.dtd">
<svg version="1.0" xmlns="http://www.w3.org/2000/svg"
 width="1280.000000pt" height="1210.000000pt" viewBox="0 0 1280.000000 1210.000000"
 preserveAspectRatio="xMidYMid meet">
<metadata>
Created by potrace 1.15, written by Peter Selinger 2001-2017
</metadata>
<g transform="translate(0.000000,1210.000000) scale(0.100000,-0.100000)"
fill="#000000" stroke="none">
<path d="M6175 12094 c-1236 -62 -2208 -281 -2888 -651 -146 -79 -353 -217
-371 -247 -16 -27 -5 -411 19 -610 9 -76 14 -140 12 -142 -2 -2 -17 16 -33 41
-144 219 -406 404 -699 494 -210 64 -395 86 -635 77 -522 -19 -909 -163 -1186
-440 -278 -277 -408 -648 -390 -1106 12 -316 73 -563 201 -815 110 -218 253
-410 460 -618 268 -270 564 -483 1132 -815 147 -86 242 -161 356 -282 237
-249 407 -546 462 -811 8 -39 15 -85 15 -102 0 -53 -97 -198 -153 -228 -44
-25 -167 91 -252 237 -21 36 -49 71 -61 76 -19 9 -53 -6 -231 -102 -243 -133
-263 -145 -263 -170 0 -42 140 -253 239 -362 153 -166 362 -268 551 -268 128
0 280 52 408 138 85 59 193 179 238 266 21 41 40 74 41 72 1 -1 9 -69 18 -152
26 -249 61 -410 116 -532 87 -194 427 -591 749 -876 586 -519 1312 -937 1922
-1108 l117 -33 7 -64 c13 -128 -11 -369 -60 -581 -56 -244 -175 -565 -309
-831 -80 -161 -83 -165 -137 -197 -120 -71 -259 -95 -705 -122 -358 -21 -423
-34 -635 -126 -336 -145 -460 -246 -460 -374 0 -53 20 -90 94 -173 122 -137
306 -232 636 -327 365 -106 751 -167 1325 -212 210 -16 915 -16 1105 0 792 68
1394 199 1768 383 107 53 133 71 198 137 112 114 135 180 95 267 -42 92 -210
204 -476 315 -196 82 -204 84 -770 120 -252 17 -388 40 -490 85 -85 37 -112
68 -177 204 -177 370 -294 715 -349 1028 -21 121 -37 410 -25 456 5 21 16 28
64 42 660 182 1385 594 1992 1131 326 288 682 711 751 892 60 160 101 412 119
732 5 102 10 196 10 210 1 18 11 5 41 -52 103 -195 295 -350 500 -403 124 -33
301 -18 425 36 114 48 264 173 361 300 57 74 152 228 160 257 4 16 0 30 -13
42 -35 34 -444 251 -467 248 -15 -2 -42 -34 -88 -103 -73 -111 -176 -215 -214
-215 -34 0 -77 40 -127 118 -40 62 -43 72 -42 132 1 79 32 193 85 320 95 223
227 412 428 610 146 145 155 151 511 363 501 299 844 573 1105 881 275 326
418 639 476 1041 18 120 18 436 0 550 -46 298 -178 572 -371 765 -301 301
-758 452 -1327 437 -263 -6 -452 -45 -663 -136 -217 -94 -425 -263 -540 -440
-14 -21 -16 -4 -15 196 0 256 7 235 -122 349 -359 313 -985 550 -1793 678
-440 69 -779 95 -1305 100 -220 2 -431 2 -470 0z m5285 -1347 c183 -32 305
-75 419 -152 221 -146 331 -386 331 -722 0 -131 -22 -306 -51 -399 -137 -444
-630 -925 -1442 -1406 -93 -55 -205 -127 -249 -161 -324 -244 -659 -704 -803
-1101 l-32 -89 -7 184 c-7 203 -31 667 -47 939 -5 96 -12 326 -16 510 -6 363
1 474 53 810 26 171 107 654 126 750 l10 55 17 -55 c52 -167 193 -364 326
-455 43 -30 59 -36 75 -29 25 11 310 420 310 445 0 10 -22 38 -49 64 -130 123
-161 303 -81 472 90 193 288 308 610 353 89 12 396 4 500 -13z m-9545 -293
c315 -53 523 -215 571 -443 28 -137 -11 -264 -111 -362 -30 -30 -55 -62 -55
-72 0 -22 286 -436 306 -444 33 -12 73 14 168 110 122 123 185 223 236 378
l37 109 17 -97 c38 -224 96 -597 113 -728 22 -168 24 -662 5 -1000 -28 -485
-57 -1124 -63 -1350 l-1 -40 -16 40 c-134 332 -425 747 -679 967 -120 105
-170 139 -380 264 -802 480 -1281 947 -1418 1384 -85 272 -69 653 35 860 89
175 238 301 440 370 217 73 544 96 795 54z"/>
</g>
</svg>
