<?xml version="1.0" standalone="no"?>
<!DOCTYPE svg PUBLIC "-//W3C//DTD SVG 20010904//EN"
 "http://www.w3.org/TR/2001/REC-SVG-20010904/DTD/svg10.dtd">
<svg version="1.0" xmlns="http://www.w3.org/2000/svg"
 width="1280.000000pt" height="1034.000000pt" viewBox="0 0 1280.000000 1034.000000"
 preserveAspectRatio="xMidYMid meet">
<metadata>
Created by potrace 1.15, written by Peter Selinger 2001-2017
</metadata>
<g transform="translate(0.000000,1034.000000) scale(0.100000,-0.100000)"
fill="#000000" stroke="none">
<path d="M3065 10321 c-27 -10 -64 -25 -81 -34 -47 -24 -120 -111 -138 -164
-20 -59 -20 -148 -1 -204 15 -42 15 -44 -8 -67 -20 -20 -28 -22 -45 -13 -34
18 -57 13 -97 -22 -39 -34 -39 -34 -27 -74 6 -21 27 -57 46 -79 l34 -39 57 28
c53 26 57 30 52 57 -5 22 -1 31 18 44 13 9 26 16 29 16 7 0 106 -166 106 -177
0 -15 -58 -45 -65 -33 -3 5 -21 10 -38 10 -36 0 -97 -47 -97 -75 0 -26 26 -78
57 -114 l29 -34 55 29 c46 25 54 33 52 57 -1 19 6 32 28 48 17 12 32 20 33 18
3 -3 79 -149 94 -180 1 -3 -9 -14 -23 -23 -20 -13 -29 -14 -43 -5 -23 15 -60
6 -95 -22 -45 -35 -33 -102 31 -162 27 -26 32 -27 58 -15 60 26 84 48 78 73
-4 16 0 27 17 38 12 9 26 14 30 11 4 -2 28 -44 54 -91 l46 -88 -22 -18 c-15
-12 -25 -15 -33 -7 -20 20 -66 11 -102 -23 -35 -32 -36 -34 -25 -72 6 -22 26
-57 44 -78 l33 -38 58 25 c55 25 58 27 54 57 -4 24 0 34 19 46 13 9 25 14 27
12 2 -2 24 -42 50 -89 l47 -85 -22 -18 c-15 -12 -25 -15 -33 -7 -20 20 -71 11
-104 -19 -17 -17 -32 -35 -32 -41 0 -24 33 -87 62 -117 l31 -32 53 27 c49 24
54 29 54 59 0 23 6 36 21 43 11 7 22 10 23 8 15 -21 96 -167 96 -173 0 -5 -7
-16 -16 -26 -14 -15 -18 -15 -44 -2 -32 16 -55 9 -97 -30 -38 -34 -28 -78 35
-156 22 -27 55 -24 111 10 28 17 32 23 26 49 -5 22 -2 31 14 39 11 6 24 11 29
11 6 0 36 -43 67 -96 72 -121 97 -138 180 -128 33 4 83 8 111 8 l51 1 369
-356 c203 -196 586 -572 851 -835 l483 -479 -518 -531 c-284 -292 -640 -658
-791 -813 l-273 -281 -67 0 c-101 0 -155 23 -227 94 -67 67 -102 132 -134 247
-23 86 -28 238 -9 312 17 71 104 199 288 427 36 43 64 88 67 108 4 22 11 31
20 28 7 -3 16 4 19 15 5 16 14 19 48 17 l42 -3 -1 47 c0 25 -6 53 -13 62 -17
21 -50 21 -58 0 -4 -12 -14 -14 -39 -9 -29 5 -33 4 -27 -12 4 -10 -9 -1 -29
19 -111 110 -369 82 -596 -65 -259 -168 -449 -421 -731 -972 -208 -408 -231
-448 -327 -575 -177 -234 -331 -337 -843 -560 -267 -116 -557 -256 -686 -330
-235 -136 -355 -229 -550 -424 -174 -174 -267 -323 -318 -505 -29 -104 -31
-402 -3 -531 42 -198 132 -417 236 -570 96 -141 338 -432 514 -616 107 -113
121 -147 66 -157 -25 -5 -30 -11 -30 -35 0 -65 101 -112 108 -50 2 20 10 28
33 33 27 6 44 -8 259 -208 318 -299 450 -401 655 -508 132 -68 218 -99 385
-134 110 -24 139 -26 240 -21 347 19 586 138 870 432 250 259 388 508 565
1020 36 104 79 225 95 269 16 44 41 118 56 165 106 336 321 553 694 700 93 37
377 195 480 268 260 183 449 502 401 678 -25 94 -100 154 -192 154 -64 0 -82
-8 -212 -94 -62 -40 -154 -94 -204 -120 -88 -44 -97 -46 -176 -46 -153 0 -268
51 -393 175 -93 92 -141 177 -148 266 -3 30 -6 61 -8 70 -3 14 99 128 772 864
91 99 235 257 320 350 85 94 176 193 201 220 25 28 174 190 329 360 155 171
288 311 294 313 6 1 387 -374 846 -833 l835 -835 0 -92 c0 -81 -4 -100 -27
-143 -65 -125 -224 -213 -423 -235 -89 -10 -201 3 -250 28 -58 29 -206 133
-308 216 -123 100 -164 126 -195 126 -13 0 -20 4 -17 10 4 6 -3 19 -15 28 -20
16 -21 21 -9 40 12 19 11 24 -3 38 -22 22 -103 11 -118 -16 -11 -21 -5 -46 15
-54 11 -4 12 -13 5 -36 -8 -29 -7 -31 13 -24 18 6 16 2 -9 -19 -135 -114 -87
-419 105 -674 107 -143 290 -300 511 -440 52 -33 257 -143 455 -244 378 -194
485 -258 601 -361 200 -178 283 -310 478 -760 244 -563 416 -876 601 -1088
111 -128 257 -270 341 -332 84 -62 244 -139 339 -164 98 -26 402 -26 525 0
201 42 384 118 550 226 163 108 428 325 637 524 78 74 108 97 125 94 13 -2 24
-11 26 -23 4 -20 28 -45 44 -45 16 0 78 63 78 79 0 22 -19 41 -41 41 -17 0
-29 19 -29 46 0 8 102 124 228 257 432 461 569 691 637 1071 26 147 8 368 -44
518 -115 336 -463 689 -889 904 -157 79 -661 269 -902 340 -181 54 -382 172
-490 290 -99 107 -180 243 -250 420 -40 100 -142 286 -238 434 -125 191 -269
319 -458 406 -148 69 -257 67 -337 -4 -48 -44 -67 -85 -67 -147 0 -59 15 -94
91 -207 35 -51 87 -140 116 -197 52 -102 53 -106 53 -190 0 -152 -50 -261
-176 -388 -96 -98 -177 -142 -282 -153 l-67 -7 -335 315 c-184 174 -380 359
-435 411 -55 53 -174 166 -265 251 -664 622 -1140 1072 -1140 1077 0 8 38 50
850 938 432 471 799 874 817 894 17 20 64 62 105 92 114 87 228 108 402 74 42
-8 83 -12 91 -8 46 17 175 214 450 686 105 180 133 200 251 172 93 -22 144
-16 237 27 82 38 143 101 189 197 27 56 30 71 26 135 -6 135 -95 264 -208 301
-63 21 -154 22 -210 2 -44 -16 -45 -16 -68 7 -20 20 -22 26 -11 49 23 50 -25
121 -82 119 -31 -1 -50 -11 -103 -55 l-30 -24 18 -46 c21 -55 40 -72 75 -69
20 2 30 -3 41 -22 7 -14 11 -27 9 -29 -2 -2 -42 -27 -89 -55 l-84 -52 -23 28
c-24 30 -28 42 -13 42 6 0 10 15 10 34 0 44 -42 96 -76 96 -52 0 -134 -58
-134 -94 0 -12 11 -39 23 -61 20 -35 27 -40 54 -37 27 3 34 -2 48 -28 9 -18
15 -33 13 -34 -2 -2 -42 -23 -89 -49 l-87 -46 -23 26 c-17 18 -20 27 -11 30 6
3 12 20 12 38 0 43 -42 95 -77 95 -34 0 -85 -25 -117 -59 l-26 -27 27 -55 c26
-50 31 -54 59 -51 24 2 35 -3 47 -22 l17 -25 -90 -50 c-49 -28 -93 -51 -97
-51 -18 0 -34 40 -23 60 14 26 4 61 -26 93 -40 44 -98 32 -158 -32 l-30 -31
24 -50 c13 -27 28 -51 34 -51 6 -1 22 -2 35 -3 13 -1 30 -11 38 -22 13 -20 10
-24 -74 -72 l-88 -50 -17 21 c-11 14 -13 26 -7 31 20 21 9 66 -24 102 -29 32
-37 36 -65 30 -30 -7 -100 -56 -114 -80 -4 -7 4 -36 18 -65 23 -50 26 -53 55
-49 24 4 34 0 46 -19 9 -13 14 -25 12 -26 -2 -2 -43 -26 -90 -54 l-87 -51 -20
21 c-19 18 -19 22 -5 43 14 22 13 27 -4 61 -11 21 -31 45 -45 52 -23 13 -30
13 -66 -3 -57 -26 -96 -69 -88 -98 12 -47 46 -89 69 -88 37 3 43 1 54 -23 10
-22 6 -26 -53 -63 -114 -69 -145 -95 -160 -131 -13 -31 -13 -43 0 -110 9 -41
16 -84 16 -95 0 -21 -54 -83 -355 -403 -249 -266 -439 -465 -1179 -1235 -108
-113 -200 -206 -204 -208 -14 -4 -1754 1641 -1801 1703 -83 108 -104 221 -72
385 l21 105 -48 49 c-55 57 -179 139 -497 331 -245 148 -325 212 -325 260 0
15 7 52 16 83 24 83 14 159 -33 252 -31 62 -49 83 -102 122 -113 84 -206 105
-306 69z"/>
</g>
</svg>
