<?xml version="1.0" standalone="no"?>
<!DOCTYPE svg PUBLIC "-//W3C//DTD SVG 20010904//EN"
 "http://www.w3.org/TR/2001/REC-SVG-20010904/DTD/svg10.dtd">
<svg version="1.0" xmlns="http://www.w3.org/2000/svg"
 width="746.000000pt" height="1280.000000pt" viewBox="0 0 746.000000 1280.000000"
 preserveAspectRatio="xMidYMid meet">
<metadata>
Created by potrace 1.15, written by Peter Selinger 2001-2017
</metadata>
<g transform="translate(0.000000,1280.000000) scale(0.100000,-0.100000)"
fill="#000000" stroke="none">
<path d="M6410 12790 c0 -5 5 -10 10 -10 6 0 10 5 10 10 0 6 -4 10 -10 10 -5
0 -10 -4 -10 -10z"/>
<path d="M3945 12610 c-3 -5 -12 -7 -19 -4 -8 3 -31 0 -53 -6 -21 -6 -99 -15
-174 -20 -75 -5 -143 -12 -150 -15 -16 -6 -59 -91 -59 -116 0 -9 -11 -22 -25
-29 -31 -17 -35 -28 -39 -133 -2 -47 -7 -90 -10 -95 -4 -7 -30 -1 -69 15 -55
23 -71 25 -144 20 -102 -7 -140 -25 -201 -92 -26 -28 -59 -55 -72 -58 -14 -3
-41 -22 -60 -42 l-34 -35 17 -34 16 -34 -47 14 c-26 9 -54 19 -62 23 -9 5 -30
12 -49 16 -28 6 -33 4 -38 -14 -3 -14 -13 -21 -29 -21 -13 0 -24 -4 -24 -9 0
-12 49 -47 75 -53 11 -3 -9 -8 -43 -13 -54 -7 -65 -11 -75 -33 -10 -21 -8 -27
12 -43 l23 -19 -28 -11 c-34 -12 -46 -29 -34 -45 7 -8 26 -7 72 3 35 8 83 16
108 17 25 2 53 7 64 11 16 7 17 6 7 -13 -9 -16 -9 -27 -1 -43 16 -30 50 -20
77 21 36 56 54 78 47 58 -3 -10 -1 -18 5 -18 6 0 11 -5 11 -10 0 -6 9 -30 20
-52 22 -46 29 -188 10 -188 -6 0 -15 -12 -20 -27 -29 -79 -64 -100 -215 -128
-126 -24 -136 -25 -265 -33 -111 -7 -115 -8 -118 -31 -2 -13 -1 -38 2 -56 9
-46 122 -166 197 -208 l59 -34 -35 -34 c-37 -36 -43 -57 -23 -77 17 -17 31
-15 72 13 43 29 47 30 40 10 -8 -20 6 -19 21 1 9 13 10 9 7 -21 -4 -30 -1 -37
16 -42 17 -4 19 -11 15 -44 -7 -49 9 -69 53 -69 l34 0 -6 -57 c-21 -211 136
-586 259 -622 18 -5 25 -10 16 -10 -9 -1 -22 -14 -29 -31 l-12 -30 -42 25
c-22 13 -82 34 -131 45 -162 39 -410 13 -440 -46 -7 -13 -22 -20 -54 -22 -24
-1 -55 -9 -71 -17 -24 -12 -29 -12 -44 3 -24 25 -189 30 -254 8 -26 -9 -90
-30 -142 -47 -118 -40 -219 -97 -259 -147 -23 -30 -37 -39 -63 -39 -67 -2
-574 -12 -618 -13 -42 0 -46 -3 -63 -39 -21 -46 -21 -55 -1 -72 13 -11 15 -25
11 -68 -3 -31 1 -89 10 -138 11 -61 12 -87 4 -96 -8 -10 -7 -21 2 -40 19 -43
68 -52 275 -49 141 2 182 -1 182 -10 0 -7 -9 -44 -20 -82 -27 -97 -35 -198
-20 -287 13 -81 49 -213 75 -272 13 -32 14 -44 4 -72 -13 -36 -1 -65 26 -65
17 0 47 -47 36 -55 -5 -3 -11 1 -14 7 -7 20 -79 -54 -143 -148 -63 -91 -66
-121 -14 -111 l29 6 -41 -77 c-22 -42 -58 -101 -81 -130 -22 -29 -37 -55 -34
-58 3 -3 13 5 23 18 17 24 18 24 37 5 12 -12 24 -16 35 -11 9 4 29 7 44 7 22
0 30 7 47 46 11 25 25 68 31 94 17 65 31 59 24 -10 -5 -50 -4 -60 14 -77 12
-10 28 -16 37 -12 10 3 18 -1 22 -12 4 -9 13 -23 20 -30 7 -7 13 -24 13 -37 0
-25 33 -51 50 -40 6 3 10 26 10 51 0 24 5 44 10 44 6 0 10 -5 10 -10 0 -6 13
4 29 22 28 31 29 32 47 13 10 -10 26 -35 36 -57 18 -40 53 -53 64 -24 4 11 12
13 30 6 17 -7 24 -6 24 3 0 6 11 -1 24 -18 21 -25 28 -28 43 -19 19 12 20 25
8 59 l-8 20 17 -20 c16 -20 16 -19 10 6 -7 32 11 47 25 22 8 -15 23 -18 84
-18 67 0 74 2 66 17 -5 9 -9 24 -9 32 0 9 -15 40 -34 69 -19 28 -37 72 -41 97
-4 25 -11 47 -15 50 -9 7 -75 123 -102 180 -11 25 -25 47 -29 48 -16 6 -9 20
12 25 19 5 21 11 15 45 -7 45 18 113 64 172 15 19 30 43 33 53 5 14 13 17 41
11 35 -6 35 -6 50 47 9 29 16 77 16 108 0 30 5 91 12 135 10 76 10 84 -11 129
-15 33 -27 47 -39 45 -9 -2 -18 4 -19 12 -3 13 16 18 97 28 85 10 110 17 165
49 36 20 65 41 65 45 0 12 33 -3 58 -26 22 -19 25 -20 51 -5 26 15 29 15 54
-7 32 -28 87 -37 195 -32 61 2 83 0 87 -10 3 -7 10 -10 16 -6 15 9 4 -26 -27
-88 -32 -64 -47 -109 -88 -273 -59 -237 -77 -457 -51 -647 15 -105 38 -200 55
-223 4 -5 10 -23 14 -39 8 -34 89 -150 119 -171 16 -11 18 -17 9 -28 -7 -8
-15 -35 -18 -60 -5 -36 -2 -53 13 -79 l20 -34 -48 -83 c-26 -46 -75 -115 -109
-152 -33 -38 -70 -89 -81 -114 -11 -26 -27 -49 -35 -52 -8 -3 -14 -15 -14 -28
0 -12 -7 -39 -15 -59 -9 -20 -13 -41 -10 -46 3 -5 1 -17 -5 -27 -5 -10 -17
-47 -25 -83 -26 -109 -31 -123 -59 -178 -20 -39 -25 -62 -21 -83 8 -34 10 -34
60 -13 52 21 66 12 21 -14 -21 -12 -36 -28 -33 -35 3 -6 -21 -38 -52 -70 -47
-48 -54 -60 -44 -75 6 -9 20 -16 32 -15 24 3 25 -1 11 -27 -22 -41 26 -76 61
-44 26 24 31 14 20 -37 -5 -24 -6 -50 -1 -59 5 -9 3 -25 -6 -40 -19 -36 -17
-58 7 -71 26 -13 48 5 78 66 l20 40 -1 -45 c-2 -58 18 -190 33 -223 9 -20 8
-31 -4 -56 -20 -40 -24 -61 -42 -206 -8 -66 -22 -163 -30 -215 -9 -52 -18
-161 -21 -243 -5 -123 -2 -165 15 -256 23 -118 20 -186 -9 -236 -10 -16 -25
-61 -34 -100 -9 -38 -21 -89 -28 -113 -11 -45 -6 -204 11 -302 13 -77 13 -279
0 -337 -10 -44 -9 -56 20 -138 17 -49 42 -145 56 -214 15 -69 40 -164 57 -210
30 -84 31 -86 22 -205 -4 -67 -8 -177 -8 -246 0 -107 3 -132 22 -175 22 -48
22 -53 7 -89 -16 -38 -14 -101 5 -135 4 -8 -13 -45 -46 -99 -30 -47 -54 -93
-54 -103 0 -10 -12 -53 -26 -95 -14 -42 -23 -78 -20 -81 3 -3 26 -8 51 -11
l46 -5 -29 -14 c-16 -8 -62 -50 -101 -94 l-73 -79 24 -20 c28 -24 42 -25 58
-5 21 26 23 9 4 -40 -17 -45 -17 -47 3 -67 28 -28 58 -16 80 32 19 42 43 53
43 20 0 -10 8 -24 19 -29 27 -15 47 5 65 70 9 31 22 62 30 68 13 11 14 4 10
-46 -3 -32 -6 -68 -8 -81 -2 -16 3 -24 20 -28 36 -9 52 2 59 40 9 43 32 55 45
22 5 -13 14 -27 19 -31 6 -3 11 -19 11 -35 0 -18 8 -34 22 -44 19 -14 24 -14
38 -1 10 9 26 31 36 50 10 19 21 35 25 35 3 0 14 -18 24 -39 10 -22 24 -42 33
-46 20 -7 42 12 43 39 0 11 3 15 6 9 2 -7 9 -13 14 -13 6 0 8 4 5 9 -3 5 1 12
10 15 12 5 15 16 12 43 -4 29 -2 33 6 19 60 -98 72 -111 101 -111 25 0 31 4
33 27 l3 28 26 -30 c29 -35 43 -37 69 -9 19 21 21 65 3 83 -5 6 -9 17 -9 25 1
11 9 6 25 -14 14 -16 22 -37 19 -45 -3 -8 -5 -169 -5 -357 0 -189 -4 -345 -9
-348 -4 -3 -34 11 -65 30 -54 32 -75 36 -75 14 0 -5 6 -9 14 -9 7 0 26 -10 40
-21 20 -16 24 -24 15 -30 -9 -5 5 -27 48 -76 l60 -68 -7 -60 c-4 -33 -5 -87
-2 -120 l5 -60 -95 100 c-52 55 -113 121 -136 146 -41 45 -96 78 -108 66 -4
-3 10 -23 30 -44 20 -21 36 -43 36 -50 0 -11 22 -39 104 -133 38 -45 71 -98
134 -217 l70 -133 -42 0 c-40 0 -43 2 -65 47 -47 97 -243 310 -354 385 -34 23
-63 45 -65 50 -5 12 -32 10 -32 -2 0 -6 13 -18 28 -28 18 -11 26 -24 24 -36
-3 -12 13 -34 45 -65 51 -48 123 -133 123 -145 0 -4 11 -22 24 -39 22 -30 76
-130 76 -142 0 -3 -25 9 -55 26 -131 74 -500 172 -747 199 -207 22 -354 14
-710 -40 -106 -16 -248 -13 -269 6 -9 8 -41 21 -71 29 -29 7 -84 24 -123 38
-84 30 -404 95 -531 107 -67 7 -105 16 -140 35 -40 21 -56 24 -94 19 -25 -3
-54 -14 -65 -24 -11 -10 -55 -41 -99 -70 -112 -74 -186 -148 -186 -186 0 -17
5 -35 11 -41 8 -8 -3 -16 -37 -29 -66 -25 -104 -59 -104 -93 0 -15 -9 -36 -20
-46 -40 -36 -20 -88 41 -106 l41 -13 -29 -14 c-58 -29 -69 -73 -28 -112 20
-19 36 -23 97 -24 51 -1 80 -7 98 -19 27 -19 65 -23 75 -7 3 6 20 17 37 26 26
14 34 14 67 1 20 -8 48 -13 62 -10 19 3 33 -2 52 -21 33 -33 97 -35 168 -5 39
17 52 19 64 9 17 -14 125 -15 171 -1 28 8 33 6 44 -15 20 -37 74 -57 133 -50
28 4 58 11 66 16 10 5 23 3 36 -6 27 -20 92 -17 144 6 24 11 56 20 72 20 31 0
165 40 230 69 l42 19 37 -39 c42 -44 59 -47 128 -20 31 13 54 16 63 10 26 -16
85 -9 134 16 47 23 49 24 62 5 31 -44 120 -46 313 -5 l65 14 25 -28 c49 -56
89 -61 195 -25 l46 15 28 -30 c35 -37 81 -46 157 -30 116 23 133 23 167 -2 26
-19 43 -24 87 -22 30 1 68 6 83 12 25 10 33 8 60 -15 28 -24 37 -26 87 -21 30
3 81 17 113 31 53 24 62 25 94 14 29 -11 41 -10 81 5 80 31 82 31 82 10 0 -27
45 -70 81 -78 42 -9 82 2 129 36 64 46 150 81 197 80 32 -1 48 -8 71 -30 37
-37 90 -48 162 -33 31 7 89 12 129 12 58 0 79 -4 103 -21 40 -29 106 -36 146
-15 41 21 57 20 92 -6 28 -20 33 -21 87 -8 32 7 70 19 85 26 24 13 31 12 60
-6 49 -30 95 -26 158 14 54 34 54 34 78 15 37 -29 88 -24 161 16 l65 35 19
-21 c25 -27 66 -42 95 -34 17 4 31 0 47 -15 52 -49 123 -34 234 51 46 35 53
38 48 19 -9 -33 12 -79 44 -95 38 -20 77 -19 124 5 21 11 54 25 74 31 19 7 68
34 108 61 60 41 77 47 89 38 9 -8 30 -10 56 -7 28 4 48 1 64 -10 26 -17 75
-26 146 -27 46 -1 50 2 94 52 42 48 49 52 79 46 18 -3 42 -1 53 5 15 8 23 6
37 -9 30 -33 105 -20 105 17 0 13 7 10 29 -11 17 -16 41 -28 56 -28 32 0 65
28 65 55 0 19 2 19 28 -5 61 -59 109 -66 139 -22 18 29 18 29 -46 174 -57 126
-96 175 -154 191 l-38 10 6 54 c6 42 3 60 -10 83 -21 35 -63 62 -97 62 -13 0
-34 9 -46 20 -20 19 -37 20 -234 23 -304 3 -433 -23 -853 -173 -33 -12 -71
-32 -85 -44 -53 -47 -56 -48 -87 -33 -15 8 -46 17 -68 21 -22 4 -67 20 -100
36 -90 45 -251 62 -514 56 -349 -9 -628 -36 -726 -70 -39 -14 -92 -27 -118
-29 -27 -2 -56 -12 -69 -23 -21 -19 -21 -19 -10 1 6 11 25 34 44 51 38 36 332
234 348 234 5 0 10 6 10 13 0 8 11 20 25 27 14 7 25 19 25 27 0 7 7 13 15 13
8 0 15 5 15 10 0 30 -163 -22 -284 -90 -49 -27 -91 -50 -93 -50 -23 0 97 182
187 283 58 65 76 107 46 107 -8 0 -25 -15 -38 -33 -12 -17 -63 -75 -112 -127
-92 -99 -182 -226 -218 -307 -11 -26 -34 -64 -51 -83 -17 -19 -47 -60 -68 -92
-27 -42 -39 -54 -43 -42 -8 22 -8 24 9 24 16 0 18 8 35 113 19 117 123 372
191 468 10 15 19 30 19 33 0 3 9 15 20 26 15 15 20 32 18 65 0 25 -5 45 -9 45
-26 0 -196 -235 -222 -306 -58 -156 -113 -294 -117 -294 -4 0 -12 17 -19 37
-10 28 -11 38 -2 41 7 2 8 8 3 15 -5 7 -6 45 -2 88 6 59 15 87 39 126 18 28
30 56 29 61 -2 6 12 27 30 46 18 19 32 41 30 48 -1 7 4 24 11 36 26 49 -2 34
-70 -37 -39 -40 -73 -70 -77 -67 -12 13 -11 720 2 936 8 124 14 367 15 540 0
174 5 346 11 385 6 39 15 288 21 555 6 267 14 550 17 630 l7 145 13 -58 c30
-131 112 -336 163 -407 8 -11 7 -24 -4 -50 l-16 -35 6 33 c8 45 -14 41 -26 -5
-76 -276 -95 -386 -92 -518 2 -106 37 -224 104 -349 41 -77 50 -88 92 -101 19
-6 19 -7 3 -16 -26 -14 -23 -70 7 -129 31 -61 31 -62 0 -54 -20 5 -28 0 -44
-27 -11 -18 -25 -55 -32 -83 -12 -53 -50 -159 -93 -261 -33 -79 -33 -100 0
-101 28 -2 45 -14 28 -21 -22 -8 -134 -93 -134 -102 0 -11 28 -41 39 -41 4 0
16 7 27 15 31 23 34 18 16 -30 -16 -43 -15 -45 5 -67 11 -13 19 -28 16 -35 -6
-17 15 -26 43 -19 15 4 31 20 41 41 9 19 22 35 29 35 6 0 15 7 18 16 6 15 8
15 24 2 32 -28 52 -29 62 -5 8 20 9 20 9 2 1 -11 -5 -40 -13 -65 -23 -77 14
-126 58 -79 25 26 56 98 56 129 0 30 80 182 93 177 7 -3 11 -10 9 -18 -2 -7
-7 -32 -11 -54 -4 -23 -22 -73 -40 -112 -36 -77 -38 -116 -6 -121 22 -3 54 32
92 103 13 23 22 33 23 22 0 -9 6 -16 13 -15 8 2 14 -17 17 -62 5 -62 6 -65 32
-68 35 -4 63 35 53 75 -11 44 4 21 24 -38 22 -62 45 -81 80 -68 21 8 23 14 19
59 -5 51 -1 59 20 38 10 -10 12 -8 11 7 -5 54 -1 58 32 31 37 -31 54 -33 76
-6 12 14 20 16 30 9 7 -6 24 -8 39 -5 19 5 33 0 55 -19 49 -41 72 -31 82 39 7
44 -2 65 -49 118 -31 34 -84 112 -84 122 0 2 10 2 22 -2 20 -5 21 -3 14 39
-17 107 -122 365 -167 410 -19 19 -19 20 1 41 17 18 20 19 20 5 0 -26 19 -20
30 8 5 14 14 25 19 25 16 0 19 38 5 58 -7 11 -27 22 -44 25 -16 4 -30 12 -30
18 0 6 7 9 15 5 18 -7 59 45 79 101 41 115 62 315 46 419 -9 56 -8 69 5 84 8
9 19 36 23 61 11 59 6 330 -8 449 -6 52 -15 176 -20 275 -8 170 -27 489 -34
583 -4 49 -13 63 -26 42 -16 -25 -11 -7 15 61 60 152 82 360 66 614 -6 94 -13
305 -16 470 -3 165 -10 331 -16 368 -6 38 -8 93 -4 122 5 40 2 61 -10 84 -8
17 -13 31 -11 31 3 0 27 -14 54 -31 63 -39 97 -37 97 6 0 25 -9 36 -57 69 -32
22 -56 41 -54 43 2 2 33 -12 68 -32 65 -35 102 -43 113 -25 3 6 17 10 29 10
30 0 49 23 41 50 -8 26 -69 57 -164 85 l-74 22 -18 58 c-17 54 -75 177 -216
460 -31 61 -73 133 -93 160 -21 28 -59 86 -85 130 -26 44 -56 90 -67 102 l-21
22 22 18 c29 24 38 82 18 119 -14 27 -14 29 15 51 45 33 104 115 127 179 12
30 30 72 40 92 24 46 52 220 60 372 7 111 -12 315 -39 420 -5 19 -23 89 -40
155 -54 211 -54 207 -39 216 8 5 43 8 77 8 61 -1 87 9 87 33 0 24 33 33 76 21
43 -11 69 -8 69 8 0 5 -11 9 -24 9 -14 0 -28 5 -31 11 -10 16 4 24 17 11 7 -7
21 -12 32 -12 12 0 30 -12 41 -26 11 -14 35 -42 53 -63 33 -40 46 -75 18 -52
-45 37 -29 -97 31 -269 9 -25 34 -72 57 -105 29 -44 39 -68 37 -91 -1 -21 5
-40 21 -59 l24 -27 -40 -41 c-110 -116 -151 -157 -158 -157 -4 0 -8 -9 -8 -20
0 -16 7 -20 35 -20 29 0 33 -3 28 -17 -15 -41 -55 -93 -71 -93 -15 -1 -50 -40
-92 -105 -12 -19 -12 -26 -1 -39 20 -24 40 -20 68 13 24 27 28 28 49 15 20
-14 23 -13 32 2 9 16 12 16 27 4 10 -8 15 -23 12 -37 -2 -13 0 -23 4 -23 5 0
9 6 9 13 1 6 28 41 61 76 34 35 59 55 55 45 -3 -11 2 -29 13 -44 16 -20 21
-22 35 -11 14 12 16 10 16 -12 0 -14 5 -29 10 -32 6 -3 10 1 10 9 0 8 10 16
23 18 13 2 29 16 39 36 15 32 17 32 20 10 2 -12 8 -22 13 -21 6 0 18 -3 27 -8
31 -17 51 17 45 75 -6 55 6 30 17 -35 4 -19 13 -44 22 -55 14 -18 15 -17 9 16
-4 19 -9 44 -12 55 -3 11 9 -1 27 -28 18 -26 40 -52 50 -57 23 -12 63 16 57
40 -8 30 32 11 49 -24 l14 -31 -5 32 c-2 18 0 35 5 38 17 11 4 67 -24 101 -29
37 -50 84 -41 93 3 3 10 -1 14 -9 64 -114 128 -192 81 -99 -12 23 -19 43 -16
46 2 3 11 -8 19 -24 22 -41 93 -107 107 -98 6 4 21 -2 33 -13 12 -11 34 -22
49 -24 23 -4 28 -1 34 25 5 25 0 35 -37 74 -24 25 -70 63 -102 85 -32 22 -56
42 -53 45 3 3 13 0 21 -7 12 -10 19 -10 27 -2 9 9 5 18 -15 36 -18 17 -27 35
-27 56 0 35 -27 93 -63 136 -46 56 -50 71 -26 103 17 23 20 37 15 65 -5 27 -1
47 18 83 46 91 57 149 57 294 -1 75 -3 143 -6 151 -5 13 22 16 177 22 342 12
388 16 388 37 0 10 6 22 14 26 18 10 27 82 28 212 l0 103 -39 40 c-21 21 -58
52 -83 68 -39 24 -53 28 -105 25 -33 -1 -167 -4 -298 -5 l-238 -3 -62 65 c-72
75 -97 90 -202 119 -86 23 -160 20 -182 -9 -8 -11 -12 -13 -13 -4 0 18 -60 52
-92 52 -15 0 -38 -5 -51 -11 -19 -9 -32 -7 -63 9 -47 23 -146 35 -314 36 -175
1 -197 -2 -355 -55 -185 -62 -205 -66 -205 -42 0 11 13 24 31 32 17 7 68 51
114 97 120 121 149 186 197 429 23 119 24 129 13 221 -7 60 -7 61 19 68 18 4
46 -2 89 -19 87 -37 92 -38 133 -31 31 6 34 9 22 23 -12 14 -10 16 17 10 17
-4 58 -10 92 -13 54 -6 63 -5 69 11 12 31 -10 50 -69 59 -33 5 -58 14 -61 23
-5 12 6 14 60 11 54 -2 68 0 77 14 18 28 -10 47 -83 55 -63 7 -64 8 -25 14
l40 6 -37 2 c-21 0 -38 6 -38 11 0 6 3 10 8 10 4 0 23 24 42 53 19 28 45 64
58 79 14 15 22 33 19 42 -3 8 -2 18 3 21 28 17 -1 23 -108 24 -64 0 -153 7
-197 16 -44 8 -92 15 -106 15 -25 0 -60 31 -92 81 -9 15 -17 62 -21 122 -5 81
-3 97 9 97 8 0 15 4 15 9 0 5 39 62 86 127 48 65 91 133 96 152 8 30 6 37 -26
73 -20 21 -36 44 -36 49 0 6 -9 10 -20 10 -11 0 -20 5 -20 10 0 6 -25 22 -55
37 -50 25 -70 43 -46 43 5 0 38 17 72 39 67 40 83 67 54 91 -13 11 -22 11 -51
-3 -44 -21 -41 -22 -47 9 -3 18 2 33 14 45 15 15 17 24 9 39 -17 31 -62 25
-114 -15 -26 -19 -52 -35 -59 -35 -6 0 0 10 15 21 23 17 26 24 17 40 -7 15
-16 18 -32 13 -18 -5 -20 -4 -9 7 14 15 16 29 3 29 -12 0 -44 -80 -71 -180
-13 -47 -25 -87 -26 -89 -2 -2 -10 1 -18 8 -9 8 -15 8 -18 1 -2 -7 -14 -7 -38
0 -19 5 -49 10 -67 10 -17 0 -35 5 -38 10 -4 6 -28 10 -53 8 -37 -2 -47 0 -50
15 -2 10 3 17 11 17 9 0 17 14 21 38 5 34 13 372 9 372 -1 0 -4 -4 -8 -10z
m-225 -60 c-19 -13 -30 -13 -30 0 0 6 10 10 23 10 18 0 19 -2 7 -10z m197
-322 c-3 -8 -6 -5 -6 6 -1 11 2 17 5 13 3 -3 4 -12 1 -19z m-390 -74 c-3 -3
-12 -4 -19 -1 -8 3 -5 6 6 6 11 1 17 -2 13 -5z m-688 -1267 c-11 -37 -22 -67
-25 -67 -8 0 7 71 22 109 23 56 25 30 3 -42z m392 -544 c13 -16 12 -17 -3 -4
-10 7 -18 15 -18 17 0 8 8 3 21 -13z m54 -3 c3 -5 2 -10 -4 -10 -5 0 -13 5
-16 10 -3 6 -2 10 4 10 5 0 13 -4 16 -10z m1818 -294 c-10 -13 -19 -23 -21
-21 -7 6 19 45 29 45 5 0 2 -11 -8 -24z m112 -6 c3 -5 1 -10 -4 -10 -6 0 -11
5 -11 10 0 6 2 10 4 10 3 0 8 -4 11 -10z m-2100 -40 c-3 -5 -15 -10 -26 -10
-11 0 -17 5 -14 10 3 6 15 10 26 10 11 0 17 -4 14 -10z m445 -10 c10 -7 -7
-10 -58 -10 -46 0 -71 4 -67 10 8 13 105 13 125 0z m397 -6 c-3 -3 -12 -4 -19
-1 -8 3 -5 6 6 6 11 1 17 -2 13 -5z m-119 -21 c-10 -2 -28 -2 -40 0 -13 2 -5
4 17 4 22 1 32 -1 23 -4z m-425 -10 c-7 -2 -19 -2 -25 0 -7 3 -2 5 12 5 14 0
19 -2 13 -5z m110 0 c-7 -2 -19 -2 -25 0 -7 3 -2 5 12 5 14 0 19 -2 13 -5z
m-441 -43 c35 -21 26 -26 -16 -10 -14 5 -26 14 -26 20 0 14 5 13 42 -10z
m1347 -129 c10 -7 7 -9 -12 -8 -15 1 -27 5 -27 10 0 10 22 9 39 -2z m-2044
-99 c-9 -9 -14 3 -19 48 l-6 45 15 -44 c8 -25 13 -47 10 -49z m965 30 c0 -4
-5 -13 -11 -19 -8 -8 -8 -17 0 -32 15 -26 -5 -30 -24 -4 -10 14 -10 21 2 40
15 23 33 31 33 15z m300 -33 c0 -6 -4 -7 -10 -4 -5 3 -10 11 -10 16 0 6 5 7
10 4 6 -3 10 -11 10 -16z m-520 -10 c0 -6 -4 -7 -10 -4 -5 3 -10 11 -10 16 0
6 5 7 10 4 6 -3 10 -11 10 -16z m1073 -6 c-7 -2 -19 -2 -25 0 -7 3 -2 5 12 5
14 0 19 -2 13 -5z m-643 -38 c0 -9 -9 -15 -22 -15 -22 1 -23 1 -4 15 25 19 26
19 26 0z m232 0 c0 -5 -5 -11 -11 -13 -6 -2 -11 4 -11 13 0 9 5 15 11 13 6 -2
11 -8 11 -13z m198 -46 c-13 -6 -33 -17 -42 -26 -16 -15 -18 -15 -18 0 0 8 12
20 28 25 35 13 65 14 32 1z m-1613 -251 c-3 -8 -6 -5 -6 6 -1 11 2 17 5 13 3
-3 4 -12 1 -19z m2938 -562 c17 -12 16 -14 -13 -18 -26 -4 -32 -1 -32 14 0 21
19 23 45 4z m98 -13 c-7 -2 -19 -2 -25 0 -7 3 -2 5 12 5 14 0 19 -2 13 -5z
m-175 -390 c-34 -63 -59 -96 -66 -89 -11 12 76 143 96 146 1 0 -12 -26 -30
-57z m-3872 -249 c-4 -9 -9 -15 -11 -12 -3 3 -3 13 1 22 4 9 9 15 11 12 3 -3
3 -13 -1 -22z m114 -10 c0 -8 -4 -12 -10 -9 -5 3 -10 10 -10 16 0 5 5 9 10 9
6 0 10 -7 10 -16z m2423 -441 c-7 -2 -19 -2 -25 0 -7 3 -2 5 12 5 14 0 19 -2
13 -5z m-165 -20 c-16 -2 -40 -2 -55 0 -16 2 -3 4 27 4 30 0 43 -2 28 -4z
m-1143 -973 c-3 -5 -11 -10 -16 -10 -6 0 -7 5 -4 10 3 6 11 10 16 10 6 0 7 -4
4 -10z m28 -170 c-5 -19 -23 -29 -23 -12 0 7 20 32 26 32 1 0 0 -9 -3 -20z
m-3 -750 c-10 -23 -10 -22 -5 9 3 18 6 48 7 65 1 25 2 23 5 -9 2 -23 -1 -52
-7 -65z m1386 -1096 c12 -28 14 -55 9 -109 -11 -119 -24 -109 -27 23 -2 67 -2
122 0 122 2 0 10 -16 18 -36z m1021 -976 c-3 -8 -6 -5 -6 6 -1 11 2 17 5 13 3
-3 4 -12 1 -19z m-747 -956 c-27 -4 -34 2 -26 24 6 15 8 15 27 -2 l21 -19 -22
-3z m-1550 -37 c0 -8 -7 -15 -15 -15 -9 0 -12 6 -9 15 4 8 10 15 15 15 5 0 9
-7 9 -15z m710 -149 c0 -8 -4 -17 -9 -21 -12 -7 -24 12 -16 25 9 15 25 12 25
-4z m1192 -448 c-7 -7 -12 -8 -12 -2 0 14 12 26 19 19 2 -3 -1 -11 -7 -17z
m128 -48 c0 -5 -2 -10 -4 -10 -3 0 -8 5 -11 10 -3 6 -1 10 4 10 6 0 11 -4 11
-10z m-1665 -40 c-3 -5 -14 -10 -23 -10 -15 0 -15 2 -2 10 20 13 33 13 25 0z
m162 4 c-3 -3 -12 -4 -19 -1 -8 3 -5 6 6 6 11 1 17 -2 13 -5z m186 -79 c-3 -9
-8 -14 -10 -11 -3 3 -2 9 2 15 9 16 15 13 8 -4z m-133 -66 c0 -6 -4 -7 -10 -4
-5 3 -10 11 -10 16 0 6 5 7 10 4 6 -3 10 -11 10 -16z m480 -1021 c0 -4 -6 -5
-14 -2 -8 3 -12 12 -9 21 5 12 7 12 14 1 5 -7 9 -16 9 -20z m100 -14 c0 -8 -4
-12 -10 -9 -5 3 -10 10 -10 16 0 5 5 9 10 9 6 0 10 -7 10 -16z m-50 -95 c0 -6
-4 -7 -10 -4 -5 3 -10 11 -10 16 0 6 5 7 10 4 6 -3 10 -11 10 -16z m-70 -161
c0 -17 -18 -44 -24 -37 -8 7 5 49 15 49 5 0 9 -6 9 -12z"/>
</g>
</svg>
